<svg xmlns="http://www.w3.org/2000/svg" width="512" height="512" viewBox="0 0 1024 1024">
  <path fill-rule="evenodd" d="M412.212 1024h-4.004l-1.59-8.75c-.875-4.812-2.05-12.045-2.61-16.073-.562-4.027-1.709-14.377-2.55-23s-1.795-24.902-2.121-36.177c-.347-11.968-.105-27.991.581-38.5.646-9.9 1.846-24.3 2.667-32s3.036-22.55 4.923-33.001 4.52-23.275 5.85-28.5c1.331-5.224 3.164-11.974 4.073-14.999s2.647-7.502 3.861-9.949 2.77-4.622 3.458-4.833c.882-.272 1.25 1.057 1.25 4.517 0 2.696-.646 7.121-1.436 9.833-.789 2.713-3.047 12.207-5.018 21.1-1.97 8.892-4.901 24.867-6.513 35.5S409.517 874.125 408.8 881c-.842 8.09-1.269 25.552-1.21 49.5.078 31.813.397 39.383 2.274 54 1.2 9.35 2.874 21.05 3.718 26 .845 4.95 1.782 10.013 2.085 11.25.5 2.05.193 2.25-3.456 2.25m150.911 0c-3.755 0-3.885-.127-6.897-6.75-1.688-3.712-4.484-10.8-6.212-15.75s-4.712-14.965-6.632-22.256c-1.92-7.29-4.586-19.388-5.925-26.884s-2.875-17.281-3.414-21.744-1.444-13.741-2.01-20.616c-.568-6.875-1.47-22.85-2.005-35.5s-1.041-36.323-1.125-52.606c-.108-20.754.206-30.695 1.05-33.25.66-2.004 1.573-3.644 2.027-3.644.453 0 1.381 1.462 2.062 3.25.832 2.183 1.512 14.742 2.071 38.25.458 19.25 1.312 45.125 1.896 57.5.585 12.375 1.727 28.8 2.537 36.5s2.385 19.625 3.5 26.5c1.113 6.875 3.173 17.225 4.577 23s4.563 16.688 7.02 24.252c2.458 7.563 5.618 16.338 7.022 19.5s2.943 6.76 3.42 7.998c.805 2.092.597 2.25-2.962 2.25M774.13 825.71c-3.919.525-4.007.468-4.66-3.01-.365-1.949-.343-5.041.05-6.872.394-1.83 1.128-4.115 1.632-5.078.562-1.071 2.076-1.75 3.904-1.75 2.178 0 3.28.647 4.075 2.39.947 2.079 1.594 2.322 4.963 1.87 3.399-.455 3.982-.227 4.758 1.86.486 1.31.675 2.93.419 3.604s-2.87 2.4-5.806 3.837c-2.938 1.437-7.138 2.854-9.335 3.148m-1.458-2.725c.455-.009 2.627-.579 4.827-1.267 2.2-.689 5.013-1.823 6.25-2.52s2.25-1.742 2.25-2.321c0-.674-1.437-.81-3.992-.378-3.654.617-4.075.455-4.975-1.912-.541-1.423-1.429-2.587-1.973-2.587s-1.374.788-1.843 1.75c-.47.962-.97 3.438-1.112 5.5-.142 2.063.114 3.743.568 3.735m-234.659-51.498c-1.977 1.79-2.014 1.767-2.014-1.23 0-1.68 1.269-5.466 2.82-8.413s4.895-8.512 7.433-12.364 8.132-10.794 12.431-15.424 11.665-11.624 16.37-15.542c4.704-3.918 14.154-10.526 21-14.683a2365 2365 0 0 1 24.456-14.615c6.605-3.881 16-9.894 20.875-13.363 4.876-3.468 13.012-10.701 18.08-16.073s9.511-9.47 9.874-9.107.661 2.12.661 3.904c0 2.254-1.176 4.732-3.856 8.121-2.12 2.683-5.885 6.66-8.365 8.84s-8.058 6.508-12.394 9.62-12.385 8.345-17.885 11.63c-5.5 3.284-15.4 9.134-22 13-6.6 3.864-15.825 9.877-20.5 13.362s-11.969 9.643-16.209 13.686-10.798 11.47-14.574 16.507c-3.776 5.036-8.513 11.669-10.527 14.74s-4.568 6.402-5.676 7.404m-131.764-16.49c-.962-.003-3.118-.839-4.79-1.858-1.67-1.02-4.985-4.055-7.363-6.746s-6.872-8.493-9.985-12.893-7.506-11.15-9.763-15-5.513-9.808-7.236-13.24-5.372-11.69-8.11-18.352c-2.738-6.66-5.911-15.242-7.051-19.07s-1.933-8.17-1.763-9.65c.22-1.9.887-2.688 2.277-2.688 1.402 0 2.475 1.292 3.736 4.5.973 2.475 3.764 9.947 6.203 16.603s7.452 18.126 11.14 25.487 10.064 18.447 14.17 24.637c4.104 6.19 9.356 13.396 11.67 16.014s5.198 6.057 6.41 7.644c1.213 1.587 2.205 3.274 2.205 3.75s-.788.863-1.75.861m-261.91-25.19c-2.304.223-3.548-.266-4.64-1.826-1.322-1.886-1.917-2.015-5.16-1.12-3.128.864-3.95.728-5.603-.924-1.065-1.065-1.937-2.298-1.937-2.74s1.372-2.668 3.049-4.948 4.542-5.07 6.368-6.197c1.825-1.129 4.268-2.052 5.428-2.052s2.753 1.013 3.54 2.25c.788 1.237 2.155 4.424 3.04 7.081 1.338 4.024 1.394 5.277.334 7.5-.914 1.916-2.16 2.755-4.42 2.975m.16-2.247c.55-.151.902-2.592.782-5.424s-.699-6.047-1.286-7.143c-.586-1.096-1.855-1.993-2.819-1.993s-3.966 2.247-6.67 4.994c-3.585 3.638-4.62 5.293-3.817 6.096s2.067.645 4.656-.584c1.954-.927 4.026-1.394 4.604-1.037.577.357 1.05 1.485 1.05 2.507 0 1.021.563 2.082 1.25 2.357s1.7.377 2.25.227m289.56-7.747c-.578 1.07-.927 1.052-1.88-.095-.642-.775-1.433-2.732-1.756-4.35-.362-1.806.248-5.437 1.579-9.405 1.192-3.555 3.127-8.038 4.3-9.963s4.165-6.2 6.648-9.5 8.346-9.854 13.031-14.564 13.02-12.378 18.52-17.044 11.767-9.56 13.927-10.877 3.422-2.562 2.805-2.768c-.616-.205-2.159.218-3.427.941-1.828 1.043-16.385 1.377-70.305 1.613-37.4.164-74.618-.109-82.706-.606-10.822-.665-15.374-1.342-17.236-2.562-1.392-.912-3.206-2.689-4.031-3.949-.826-1.26-1.937-6.541-2.47-11.736s-1.281-20.962-1.663-35.037l-.694-25.592-4.6-1.433c-2.53-.788-9.506-4.346-15.501-7.908-6.372-3.784-13.7-9.176-17.636-12.975-4.806-4.639-7.052-7.645-7.843-10.5-.61-2.2-1.088-6.025-1.063-8.5s1.06-8.441 2.3-13.259l2.254-8.758-2.3-2.161c-1.266-1.189-3.428-4.423-4.806-7.188s-2.502-5.95-2.5-7.08c.004-1.13.478-3.754 1.055-5.831s2.427-5.347 4.111-7.265c2.038-2.321 4.553-3.863 7.52-4.61 3.863-.973 4.384-1.412 3.911-3.296-.3-1.196-.056-3.945.542-6.11.638-2.311 2.83-5.68 5.313-8.163l4.228-4.227-2.354-2.21c-1.294-1.217-2.836-4.003-3.426-6.193-.797-2.961-.753-5.122.173-8.428.883-3.153 2.144-4.995 4.334-6.33 1.713-1.045 4.94-1.885 7.249-1.887 2.288-.002 7.013.89 10.5 1.983s6.461 1.993 6.611 2 .15-10.225 0-22.737c-.216-18.042.018-23.26 1.127-25.213l1.4-2.463.842 2.277c.463 1.253 1.248 2.027 1.744 1.72.497-.307.885.452.864 1.686s.475 11.693 1.104 23.243 1.145 21.93 1.145 23.066c.002 1.392 1.388 2.837 4.252 4.43 2.337 1.301 6.5 4.032 9.25 6.069s6.192 4.993 7.648 6.57c1.456 1.575 3.592 4.44 4.746 6.365 1.395 2.326 2.1 5.205 2.102 8.582.004 5.01.075 5.127 5.1 8.383 2.803 1.816 5.951 4.705 6.996 6.419s1.902 4.763 1.904 6.777c.003 2.898-.667 4.226-3.214 6.369-2.974 2.503-3.73 2.67-10 2.222l-6.782-.485v4.462c0 2.454-.736 5.708-1.636 7.231s-2.881 3.505-4.404 4.404c-1.523.9-3.492 1.636-4.376 1.636-1.298 0-1.492.723-1.008 3.753.469 2.93.13 4.35-1.541 6.476-1.178 1.497-3.862 3.186-5.964 3.752s-5.116 1.21-6.697 1.432c-1.58.222-5.298.895-8.26 1.495-2.963.6-7.35 1.092-9.75 1.092s-4.364-.434-4.364-.965.788-1.375 1.75-1.877 6.475-1.924 12.25-3.16 11.765-2.892 13.312-3.68c1.989-1.014 2.72-2.06 2.5-3.575-.173-1.185-1.855-3.04-3.766-4.154-2.812-1.637-5.742-2.088-15.75-2.421-9.695-.323-12.296-.706-12.296-1.813 0-.773 1.238-1.892 2.75-2.487 1.774-.698 8.493-.904 18.925-.58 15.714.487 16.234.438 18.25-1.708 1.141-1.215 2.075-3.333 2.075-4.707 0-1.434-1.172-3.598-2.75-5.078-1.512-1.42-5.087-3.748-7.943-5.175-2.855-1.428-8.933-3.68-13.506-5.005s-12.602-2.949-17.843-3.608c-7.122-.897-10.579-.917-13.69-.08-2.343.632-5.067 2.273-6.236 3.76-1.142 1.45-2.34 3.69-2.662 4.975-.323 1.286-.318 3.409.01 4.717.329 1.309 2.628 4.638 5.109 7.397s4.511 5.507 4.511 6.106c0 .598-1.125 4.97-2.5 9.715s-2.481 10.939-2.458 13.765c.023 2.852.802 6.561 1.75 8.337.94 1.76 4.072 5.217 6.96 7.683 2.89 2.465 9.864 7.257 15.5 10.647 5.637 3.39 11.26 7.1 12.498 8.242l2.25 2.078v-12.452c0-9.652.35-12.952 1.557-14.674.856-1.223 2.197-2.223 2.98-2.223.784 0 1.642 1.013 1.907 2.25.264 1.237 1.189 21.825 2.054 45.75s1.974 45.25 2.464 47.39 1.486 4.444 2.214 5.12c.728.675 2.899 1.814 4.824 2.532 2.73 1.017 20.556 1.395 81 1.717l77.5.412 5.852-3.085c3.218-1.697 6.84-3.086 8.05-3.086 1.209 0 2.717.52 3.352 1.154.872.872 2.078.444 4.934-1.75 2.08-1.597 4.556-3.354 5.504-3.904s4.33-2.772 7.516-4.938 7.376-4.968 9.312-6.227c1.936-1.258 6.314-3.424 9.73-4.812 3.753-1.525 8.174-2.523 11.174-2.523 3.806 0 5.62.563 7.77 2.413 2.478 2.132 2.806 3.095 2.806 8.25 0 4.452-.534 6.586-2.25 8.991-1.237 1.735-2.25 3.697-2.25 4.359 0 .81.888.981 2.714.523 1.505-.378 7.651-5.465 13.803-11.424 6.437-6.236 13.087-11.71 15.85-13.048 3.478-1.683 5.741-2.146 8.394-1.715 1.997.324 4.702 1.66 6.01 2.967 1.376 1.377 2.59 4.023 2.879 6.281.35 2.733-.269 5.926-2.066 10.653l-2.567 6.75h4.426c2.435 0 5.688-.48 7.23-1.066s5.733-3.887 9.315-7.336c3.582-3.448 8.987-7.887 12.012-9.863s7.473-4.108 9.884-4.739c2.412-.63 5.562-.852 7-.493 1.439.36 3.395 1.355 4.346 2.212s2.015 3.076 2.363 4.93c.392 2.087-.014 5.365-1.066 8.612-.933 2.884-4.547 9.518-8.03 14.743-3.484 5.225-10.083 13.216-14.666 17.757-4.582 4.542-11.929 10.926-16.326 14.188-4.397 3.261-10.247 7.265-13 8.898-2.753 1.632-6.018 3.266-7.255 3.63-1.826.537-2.25.269-2.25-1.426 0-1.358 1.632-3.218 4.666-5.318 2.566-1.776 9.599-7.038 15.628-11.693 6.03-4.655 13.64-11.454 16.91-15.108 3.272-3.653 7.75-9.182 9.951-12.286s3.47-5.642 2.818-5.642-2.913-1.368-5.025-3.041c-2.111-1.672-4.119-3.922-4.461-5s-1.03-1.959-1.529-1.959-5.313 4.163-10.699 9.25c-5.385 5.087-13.16 11.983-17.276 15.324S595.8 654.462 592.5 656.68c-3.3 2.216-10.453 6.368-15.895 9.226s-10.837 5.06-11.99 4.896c-1.152-.166-2.24-1.067-2.419-2.003-.203-1.066 2.992-4.993 8.542-10.5 4.876-4.839 11.672-12.336 15.1-16.66 3.43-4.323 7.087-9.532 8.13-11.574l1.893-3.712-3.365-1.217c-1.85-.67-4.407-2.316-5.68-3.659-1.274-1.343-2.777-2.45-3.34-2.459-.562-.01-4.612 3.635-9 8.1-4.387 4.463-12.321 11.611-17.632 15.883-5.31 4.273-12.07 9.37-15.022 11.33-2.95 1.959-8.443 5.001-12.204 6.761-3.76 1.76-8.476 3.247-10.478 3.305-3.103.089-3.69-.245-3.975-2.261-.228-1.611.729-3.478 3-5.857 1.834-1.921 7.87-7.24 13.411-11.822 5.542-4.581 12.792-11.233 16.112-14.782s6.259-7.615 6.53-9.036c.272-1.42-.014-3.608-.635-4.86-.684-1.38-2.224-2.405-3.905-2.6-1.589-.183-5.526.966-9.204 2.688-3.536 1.654-9.551 5.028-13.368 7.497-3.816 2.469-11.814 8.14-17.773 12.604S493.6 647.961 487.612 652.7c-5.99 4.74-14.924 12.26-19.856 16.71s-12.496 12.464-16.808 17.808c-4.313 5.344-9.397 12.994-11.299 17s-3.777 8.858-4.168 10.783c-.39 1.925-1.03 4.09-1.42 4.813M582.913 656c.542 0 5.598-3.487 11.238-7.75l10.253-7.75-4.412-.318c-4.277-.308-4.587-.126-10.208 6-3.189 3.475-6.26 7.106-6.826 8.068-.657 1.117-.673 1.75-.045 1.75m-51.193-3c.396 0 4.896-2.79 10-6.199 5.104-3.41 9.28-6.56 9.28-7s-.247-.801-.55-.801c-.302 0-1.99.736-3.75 1.637-1.76.9-6.013 3.863-9.45 6.586-3.437 2.722-6.25 5.135-6.25 5.363s.324.414.72.414M670 639.844c-3.575-.001-7.062-.229-7.75-.506-.687-.278-1.25-1.072-1.25-1.766s.788-1.947 1.75-2.784 3.55-1.79 5.75-2.116 14.785-.658 27.966-.736c13.624-.081 24.096.25 24.268.766.167.5-1.618 1.994-3.966 3.32-3.901 2.202-5.815 2.47-22.268 3.117-9.9.389-20.925.706-24.5.705M727.046 630c-.51 0-1.281-.562-1.713-1.25s-1.113-18.125-1.512-38.75c-.4-20.625-1.214-65.4-1.808-99.5s-1.52-71.655-2.058-83.455-1.421-23.95-1.963-27-1.272-6.818-1.62-8.374c-.59-2.628-.438-2.806 2.147-2.5 1.544.182 3.592 1.443 4.6 2.829 1.127 1.552 2.197 5.723 2.82 11 .552 4.675 1.459 21.55 2.015 37.5.557 15.95 1.463 50.375 2.014 76.5s1.12 65.05 1.266 86.5c.242 35.51.108 39.335-1.497 42.75-.97 2.063-2.181 3.75-2.691 3.75m-311.41-38.303c-5.038.369-6.94.033-10.628-1.874-2.47-1.278-5.485-3.818-6.7-5.646s-2.494-5.235-2.844-7.571c-.35-2.337-.13-6.135.491-8.44.621-2.306 2.566-5.828 4.321-7.828 1.756-2 4.648-4.244 6.426-4.987s5.836-1.35 9.016-1.347c3.999.002 6.784.615 9.032 1.985 2.88 1.756 3.25 2.486 3.25 6.415 0 2.438-.273 5.144-.607 6.014S425.757 570 424.5 570s-2.559-.71-2.892-1.58c-.333-.868-.342-2.631-.02-3.917.429-1.707.041-2.631-1.434-3.42-1.113-.596-3.424-1.083-5.138-1.083s-4.376.652-5.917 1.449-3.533 2.565-4.427 3.93c-.894 1.364-1.908 4.244-2.253 6.4-.418 2.615-.127 4.885.875 6.823.826 1.596 2.391 3.708 3.48 4.693s3.637 2.06 5.666 2.389c2.707.44 5.008-.02 8.653-1.728 4.425-2.072 5.13-2.161 6.473-.818.83.829 1.252 2.173.94 2.987s-1.956 2.3-3.652 3.302c-1.7 1.004-5.838 2.023-9.219 2.27m32.721-.71c-6.606.01-8.26-.294-8.767-1.614-.344-.894-.112-2.244.515-3S442.33 585 443.653 585h2.409l-.281-12.242-.281-12.241-2.988-.516c-1.87-.324-3.122-1.216-3.348-2.389-.199-1.03.246-2.257.988-2.727.741-.47 3.5-.861 6.13-.87 3.384-.01 4.918.423 5.25 1.485l.931 2.986c.37 1.183 1.009.981 3.136-.99 1.47-1.362 4.13-2.88 5.912-3.372s4.534-.662 6.115-.379c1.58.284 3.662 1.202 4.624 2.04 1.07.932 1.75 2.946 1.75 5.179 0 2.01-.592 4.464-1.316 5.454s-2.186 1.634-3.25 1.432c-1.429-.27-2.015-1.344-2.244-4.108-.292-3.513-.515-3.742-3.647-3.742-2.564 0-4.05.814-6.425 3.518-1.699 1.935-3.323 4.523-3.61 5.75s-.589 3.132-.672 4.232-.082 4.11.006 6.69c.157 4.664.178 4.69 3.908 5 2.937.243 3.816.77 4.052 2.43.215 1.505-.364 2.298-2 2.736-1.266.34-5.966.623-10.445.63m54.434-.403c-3.2.27-6.799-.114-9.107-.973-2.1-.782-4.655-2.18-5.68-3.107s-2.57-3.175-3.433-4.996c-.864-1.82-1.571-5.759-1.571-8.752 0-3.765.716-6.8 2.325-9.849 1.45-2.747 3.803-5.248 6.25-6.64 2.737-1.558 5.59-2.238 9.425-2.247 3.713-.008 6.54.622 8.701 1.94 1.761 1.073 3.906 3.314 4.767 4.979.861 1.664 1.843 5.048 2.181 7.518.576 4.204.443 4.558-2.082 5.517-1.483.564-7.618 1.026-13.632 1.026-9.257 0-10.935.24-10.935 1.566 0 .86.463 2.431 1.03 3.49.566 1.058 2.344 2.603 3.95 3.434 1.606.83 4.34 1.51 6.075 1.51s5.33-1.092 7.988-2.427c4.263-2.142 4.98-2.25 6.087-.917.902 1.087.96 1.98.206 3.178-.576.916-2.444 2.484-4.15 3.484s-5.485 2.02-8.395 2.266m41.802.377c-1.701-.022-4.465-.637-6.143-1.368-1.677-.73-4.213-2.711-5.636-4.402-1.422-1.69-3.137-5.368-3.81-8.171-.95-3.96-.958-6.149-.038-9.809.652-2.59 2.335-6.221 3.741-8.067s4.058-3.983 5.893-4.75 5.263-1.378 7.618-1.359c2.355.02 5.407.679 6.782 1.465s2.795 1.445 3.156 1.465c.36.02.566-3.903.456-8.715l-.199-8.75-4.457-.5c-2.45-.275-4.344-.837-4.206-1.25s.25-1.425.25-2.25c0-1.198 1.487-1.5 7.383-1.5 6.812 0 7.43.174 7.987 2.25.331 1.237.609 12.712.616 25.5L564 584h2.531c1.393 0 2.793.68 3.112 1.513.32.832.025 2.182-.654 3-.704.848-2.9 1.487-5.111 1.487-2.403 0-4.564-.686-5.68-1.803-1.738-1.737-1.962-1.718-6.158.5-2.395 1.267-5.746 2.285-7.447 2.264M593.96 589c-8.53 0-11.918-.346-12.243-1.25-.246-.687-.043-2.038.452-3 .628-1.221 2.099-1.75 4.865-1.75H591v-25h-4c-3.32 0-4-.337-4-1.98 0-1.238.87-2.2 2.316-2.563 1.274-.32 4.537-.441 7.25-.27l4.934.313.5 14.5.5 14.5 4.304.31c2.613.188 4.524.881 4.862 1.763.307.799.002 2.122-.677 2.94-.964 1.162-3.81 1.487-13.028 1.487m39.839-.03c-2.365-.017-5.082-.486-6.038-1.043-.955-.557-2.3-2.006-2.989-3.22-.709-1.25-1.472-7.407-1.762-14.207l-.511-12-3.307-.318c-1.861-.178-3.572-1.007-3.913-1.894-.356-.929.157-2.135 1.249-2.933 1.02-.745 3.08-1.355 4.58-1.355 2.649 0 2.725-.16 2.677-5.568-.028-3.062.472-6.09 1.11-6.727.842-.843 1.63-.864 2.882-.079 1.227.77 1.808 2.702 2.022 6.728l.3 5.646h5.843c4.271 0 5.998.403 6.419 1.5.316.825.333 2.13.037 2.901-.295.771-1.519 1.665-2.718 1.987-1.2.321-3.869.59-5.931.598L630 559v10.965c0 10.196.15 11.045 2.15 12.115 1.241.665 3.948.904 6.405.567 3.297-.451 4.39-.234 4.85.967.327.852.595 1.726.595 1.942s-1.328 1.08-2.95 1.918c-1.623.84-4.886 1.512-7.25 1.496m22.783.03c-.687 0-1.55-.3-1.916-.667-.367-.366-.667-3.066-.667-6 0-4.982.16-5.333 2.433-5.333 1.558 0 2.661.722 3.07 2.011.352 1.106 1.934 2.681 3.518 3.5s3.966 1.489 5.294 1.489c1.329 0 3.601-.933 5.05-2.073 1.45-1.14 2.635-2.699 2.635-3.464s-.843-1.844-1.873-2.395c-1.03-.552-4.048-1.49-6.705-2.085-2.657-.596-6.369-1.813-8.25-2.705-2.099-.997-3.946-2.887-4.786-4.898-1.115-2.668-1.139-3.962-.127-6.982.682-2.039 2.51-4.65 4.063-5.802 2.226-1.654 4.126-2.063 9-1.938 3.398.087 7.753.312 9.678.5l3.5.342v5.5c0 5.174-.154 5.518-2.59 5.801-2.178.253-2.742-.226-3.533-3-.855-3-1.334-3.33-5.24-3.612-2.706-.196-5.197.276-6.719 1.273-1.33.871-2.418 2.419-2.418 3.439s.604 2.356 1.343 2.969 4.672 1.866 8.74 2.785c5.31 1.2 8.174 2.448 10.157 4.43 1.518 1.519 2.76 3.74 2.76 4.937s-.69 3.63-1.534 5.408c-.884 1.863-3.015 3.938-5.034 4.9-1.925.919-5.764 1.67-8.532 1.67s-5.993-.515-7.168-1.143c-1.603-.858-2.232-.858-2.518 0-.21.628-.943 1.143-1.63 1.143m-110.607-4.384c1.913-.31 4.613-1.405 6-2.434 1.388-1.028 3.003-3.31 3.589-5.07.6-1.803.778-5.439.408-8.323-.492-3.838-1.337-5.705-3.37-7.455-1.63-1.4-4.002-2.334-5.936-2.334-1.772 0-4.219.698-5.437 1.551s-2.738 2.53-3.379 3.727c-.64 1.196-1.525 3.76-1.965 5.698-.489 2.146-.358 5.017.335 7.342.625 2.1 2.293 4.728 3.707 5.84 1.912 1.504 3.464 1.878 6.048 1.458M499.531 569c9.158 0 9.468-.074 9.454-2.25-.009-1.237-.346-2.745-.75-3.35s-1.718-1.618-2.92-2.25c-1.2-.633-3.704-1.15-5.562-1.15-2.403 0-4.112.794-5.92 2.75-1.397 1.513-2.817 3.538-3.155 4.5-.558 1.587.268 1.75 8.853 1.75m94.837-24c-1.311 0-2.97-.99-3.81-2.272-.82-1.25-1.242-3.22-.94-4.377s1.667-2.7 3.031-3.43c1.799-.963 2.945-1.038 4.166-.271.927.581 2.105 2.234 2.617 3.673.729 2.043.53 3.061-.905 4.647-1.01 1.116-2.882 2.03-4.159 2.03M427.75 509.921c-13.536-.044-25.466-.523-27.002-1.084-1.649-.602-3.004-2.008-3.38-3.506q-.627-2.5 1.036-4.166c1.27-1.272 3.982-1.745 11.478-2.004l9.814-.339.716-38.014c.394-20.907.514-38.216.266-38.463-.247-.247-3.303 1.395-6.791 3.65-4.911 3.174-7.135 4.032-9.857 3.802-2.663-.225-3.823-.94-4.78-2.947-.695-1.458-1.002-3.332-.682-4.166.32-.833 4.847-4.715 10.062-8.627s11.136-8 13.16-9.085c2.024-1.084 4.63-1.972 5.79-1.972s2.921.896 3.913 1.992c1.692 1.87 1.762 4.174 1.149 37.75-.36 19.667-.71 40.43-.779 46.14l-.125 10.38 10.237-.19c8.445-.157 10.569.11 12.131 1.524 1.042.943 1.894 2.544 1.894 3.559s-.9 2.745-2 3.845c-1.895 1.895-3.277 1.996-26.25 1.921m78.75.02c-6.113-.031-9.062-.554-12.5-2.218-2.475-1.197-6.3-3.99-8.5-6.208s-5.247-6.356-6.772-9.198c-1.524-2.843-3.71-8.689-4.858-12.992-1.642-6.162-2.086-10.8-2.086-21.825 0-11.02.444-15.664 2.084-21.814 1.145-4.298 3.465-10.408 5.155-13.578s4.739-7.489 6.775-9.595 5.99-4.883 8.788-6.17 7.831-2.626 11.187-2.977c4.478-.468 7.497-.18 11.353 1.08 2.889.945 7.15 3.024 9.47 4.62 2.319 1.596 6.029 5.615 8.244 8.932s4.941 8.474 6.058 11.46c1.118 2.986 2.515 9.322 3.107 14.08.772 6.219.766 11.46-.025 18.645-.605 5.497-2.017 12.992-3.138 16.656s-3.376 9.191-5.011 12.284-4.808 7.532-7.05 9.864c-2.24 2.333-6.37 5.31-9.178 6.617-4.07 1.896-6.722 2.368-13.103 2.336m97.5-.288c-4.675.16-9.655-.087-11.067-.547-1.411-.459-4.46-2.088-6.774-3.62-2.314-1.53-5.777-4.922-7.695-7.536s-4.41-6.835-5.536-9.38c-1.127-2.547-2.712-7.815-3.524-11.708-.814-3.905-1.491-12.522-1.51-19.22-.022-7.895.558-14.766 1.658-19.642.93-4.125 2.955-10.307 4.501-13.738 1.573-3.49 5.11-8.668 8.03-11.756 4.312-4.56 6.342-5.866 11.674-7.513 3.55-1.096 8.64-1.993 11.31-1.993 2.672 0 7.337.927 10.366 2.061 3.243 1.213 7.334 3.835 9.945 6.372 2.44 2.37 5.603 6.16 7.03 8.42 1.426 2.26 3.68 7.38 5.008 11.378s2.724 10.69 3.103 14.873c.407 4.49.19 11.452-.529 17-.67 5.168-2.106 12.321-3.192 15.896s-3.49 9.236-5.34 12.58c-1.852 3.344-5.36 7.919-7.798 10.165-2.437 2.247-5.945 4.88-7.796 5.853-2.263 1.188-6.145 1.861-11.864 2.055M506.945 500c1.997 0 5.633-1.012 8.079-2.25s5.878-4.148 7.628-6.468 4.165-6.82 5.368-10 2.801-9.157 3.55-13.282 1.376-10.388 1.395-13.918-.48-9.38-1.11-13-1.972-8.515-2.984-10.878-3.047-5.88-4.524-7.816-4.521-4.46-6.766-5.61c-2.578-1.32-6.107-2.12-9.583-2.17-3.824-.057-6.568.536-9 1.945-1.924 1.114-5.153 4.483-7.175 7.487-2.023 3.003-4.714 8.835-5.98 12.96-1.934 6.296-2.306 9.748-2.317 21.5-.01 10.666.418 15.429 1.798 20 .996 3.3 3.468 8.449 5.493 11.442 2.4 3.546 5.22 6.247 8.09 7.75 2.424 1.27 6.041 2.308 8.038 2.308m97.374-.392c2.65-.292 6.273-1.429 8.05-2.527s4.652-3.975 6.388-6.393 4.045-6.648 5.13-9.403c1.087-2.755 2.681-8.427 3.544-12.605S629 457.896 629 454s-.713-10.553-1.584-14.792c-.871-4.24-2.768-9.893-4.216-12.564s-4.158-6.113-6.023-7.65-5.325-3.335-7.69-3.998c-2.418-.677-6.018-.913-8.227-.54-2.16.365-5.307 1.503-6.994 2.528s-4.508 3.96-6.27 6.523c-1.763 2.561-4.028 6.999-5.034 9.86-1.006 2.862-2.369 8.305-3.029 12.094-.717 4.12-.981 11.142-.657 17.465.34 6.6 1.34 13.095 2.66 17.282 1.165 3.69 3.575 8.64 5.356 11s5.255 5.335 7.722 6.61c3.533 1.827 5.51 2.207 9.305 1.79m-271.652-19.686c.643.043 2.528-2.278 4.191-5.159 2.762-4.784 2.889-5.385 1.464-6.96-.858-.948-5.444-3.71-10.191-6.137s-12.231-5.572-16.631-6.988-10.806-3.105-14.236-3.753c-4.936-.934-6.877-.914-9.314.096-1.694.701-4.175 2.888-5.515 4.86-1.34 1.97-2.435 4.955-2.435 6.632v3.048l9.75 1.18c5.363.65 13.35 2.104 17.75 3.232s11.6 3.81 16 5.96c4.4 2.152 8.525 3.946 9.167 3.99m-.917-24.966c.688.024 1.25-.428 1.25-1.006 0-.577-.637-2.264-1.415-3.75-.778-1.485-2.915-4.116-4.75-5.848-1.834-1.73-6.368-4.986-10.075-7.233s-9.529-5.26-12.938-6.694c-3.408-1.434-8.501-2.846-11.318-3.137-3.979-.41-5.498-.151-6.812 1.163-.93.93-1.692 2.905-1.692 4.388s1.09 4.301 2.423 6.262c2.28 3.355 2.891 3.632 10.346 4.686 4.358.616 12.09 2.505 17.182 4.197s10.899 3.942 12.904 5.002 4.207 1.945 4.895 1.97m591.352 0c-1.431-.025-4.267-.924-6.302-1.999-2.035-1.074-5.25-3.548-7.142-5.497s-3.668-4.733-3.946-6.188-.289-3.212-.023-3.904 1.682-1.662 3.147-2.155c1.575-.53 4.012-.528 5.963.006 2.914.797 3.706.544 6.785-2.158 1.917-1.684 4.585-3.061 5.928-3.061 1.504 0 3.074.964 4.088 2.512 1.12 1.71 1.442 3.53 1.007 5.705-.352 1.756-2.048 6.25-3.771 9.988-2.713 5.886-3.48 6.79-5.734 6.75m-.926-2.96c.372.002 1.828-2.358 3.235-5.246 1.406-2.887 2.844-6.706 3.195-8.485.505-2.561.263-3.378-1.163-3.925-1.321-.507-2.676.321-5.09 3.114l-3.288 3.805-3.434-1.63c-1.888-.896-3.901-1.629-4.473-1.629s-1.312.44-1.645.98c-.333.538-.074 1.972.576 3.186.65 1.215 1.908 2.972 2.796 3.906s3.19 2.648 5.115 3.81c1.925 1.16 3.804 2.112 4.176 2.114M119 413.935c-.275-.034-1.414-.432-2.532-.885-1.117-.453-3.658-2.625-5.647-4.826-1.989-2.202-3.924-4.974-4.301-6.161-.401-1.265-.15-2.803.606-3.715.93-1.12 2.39-1.408 5.226-1.028 2.967.398 4.606.031 6.668-1.493 1.504-1.112 3.528-1.865 4.5-1.674.971.19 2.249 1.115 2.84 2.053.782 1.242.712 2.735-.259 5.5-.732 2.087-2.517 5.706-3.966 8.042-1.45 2.337-2.86 4.22-3.135 4.187m.035-5.466c.912-.826 2.177-3.234 2.812-5.351s1.153-4.36 1.153-4.984-.432-1.134-.961-1.134-1.827.93-2.886 2.067c-1.554 1.667-2.624 1.935-5.54 1.388-2.667-.5-3.613-.332-3.613.642 0 .725 1.66 3.018 3.688 5.096 3.33 3.409 3.85 3.63 5.347 2.276M371 369.896c-27.775-.03-51.175-.279-52-.554s-2.124-.7-2.886-.942c-1.12-.357-1.056-.807.333-2.34.945-1.046 3.819-2.37 6.386-2.944 2.89-.647 43.69-1.451 107.167-2.113 56.375-.588 142.775-1.167 192-1.286 71.39-.173 89.955.043 91.75 1.068 1.237.707 2.25 2.154 2.25 3.215s-.789 2.352-1.752 2.867c-1.055.565-43.53.981-106.75 1.046-57.75.06-123.223.543-145.498 1.073s-63.225.94-91 .91m-106.645-30.483c-1.387.424-2.74.059-3.833-1.034-.93-.93-2.102-2.774-2.606-4.1s-.916-4.357-.916-6.737c0-3.024.477-4.51 1.582-4.935.87-.334 2.39-.607 3.377-.607.988 0 2.335.65 2.994 1.444.883 1.063 2.492 1.29 6.102.863 4.083-.484 5.015-.287 5.576 1.173.37.965.267 2.908-.23 4.319-.495 1.41-2.926 4.003-5.401 5.762s-5.465 3.491-6.645 3.852M262.692 337c.793 0 2.953-1.153 4.8-2.562 1.848-1.409 4.122-3.725 5.053-5.148l1.695-2.585-4.36.584c-3.165.425-4.827.164-6.058-.95-.933-.844-2.174-1.24-2.759-.878-.585.361-1.063 1.7-1.063 2.973 0 1.274.281 3.722.625 5.441.353 1.766 1.252 3.125 2.067 3.125m466.133-52c-.243 0-1.236-.58-2.206-1.29-1.298-.949-1.583-2.007-1.078-4.016.376-1.5 2.7-4.97 5.164-7.711 2.464-2.74 5.269-4.983 6.233-4.983s2.48.804 3.369 1.787 2.567 3.935 3.73 6.562c1.964 4.442 2 4.946.514 7.213-.878 1.341-2.397 2.438-3.374 2.438s-2.303-.526-2.945-1.168c-.89-.89-2.094-.89-5.066 0-2.144.642-4.097 1.168-4.34 1.168m.843-4.006c1.008-.004 3.046-.64 4.53-1.414 2.323-1.212 2.863-1.211 3.873.006.646.778 1.85 1.414 2.676 1.414 1.107 0 1.357-.725.95-2.75-.303-1.512-1.023-3.988-1.6-5.5-.576-1.512-1.621-2.735-2.322-2.717-.701.019-2.187.806-3.302 1.75s-3.065 3.404-4.332 5.467c-2.127 3.462-2.163 3.75-.473 3.744m-127.784-91.23c-1.125.23-1.807-.63-2.25-2.842-.348-1.744-.634-5.39-.634-8.1v-4.926l-8.5.69c-8.072.654-8.5.588-8.5-1.318 0-1.542.868-2.15 3.75-2.626 2.063-.341 5.176-.625 6.918-.631 1.743-.006 3.768-.24 4.5-.52.961-.367 1.237-2.189.991-6.542-.187-3.318-.07-6.74.262-7.603.464-1.21.92-1.308 1.977-.43.756.627 1.682 4.006 2.057 7.508l.682 6.367 4.181-.455c2.3-.25 5.013-.623 6.028-.827 1.016-.205 2.479-.13 3.25.166.772.297 1.404 1.118 1.404 1.825s-.712 1.56-1.582 1.893c-.87.334-3.232.613-5.25.62s-4.664.281-5.882.608c-2.079.557-2.201 1.09-2 8.704.179 6.774-.052 8.164-1.402 8.44M863.67 118c-.88 0-2.105-.946-2.724-2.102s-.905-2.942-.637-3.967c.437-1.672.035-1.803-3.896-1.264-2.861.392-4.91.165-5.898-.655-.833-.691-1.514-2.468-1.514-3.947 0-1.651 1.063-3.675 2.75-5.238 1.513-1.402 4.542-3.736 6.732-5.187s5.138-2.64 6.55-2.64 3.108.54 3.768 1.2 1.2 2.257 1.2 3.55-.676 3.656-1.501 5.252l-1.501 2.903 4.423-1.64c3.67-1.36 4.693-1.416 6.001-.33.868.72 1.578 2.424 1.578 3.786 0 1.445-1.211 3.608-2.906 5.191-1.599 1.494-4.688 3.25-6.866 3.902S864.549 118 863.67 118m1.24-4c1.186 0 3.722-.655 5.637-1.455s3.756-2.17 4.092-3.043.378-1.82.095-2.102c-.282-.282-2.565.45-5.072 1.63-2.508 1.178-5.087 2.779-5.733 3.556-.949 1.144-.762 1.414.982 1.414m-10.214-6.46c1.482-.371 4.152-1.285 5.933-2.03 1.782-.743 3.962-2.751 4.846-4.46s1.348-3.528 1.031-4.041c-.339-.55-1.507-.579-2.842-.071-1.246.474-4.38 2.288-6.964 4.033-3.024 2.04-4.699 3.897-4.699 5.208 0 1.714.429 1.93 2.695 1.362m-564.39-.54c-.768 0-2.513-1.117-3.879-2.483-1.365-1.365-3.37-4.552-4.454-7.083-1.085-2.53-1.972-5.826-1.972-7.326s.608-3.557 1.351-4.573c.887-1.213 2.516-1.815 4.742-1.751 2.16.061 4.012.863 5.1 2.207 1.611 1.989 1.883 2.021 4.709.56 1.65-.853 4.281-1.551 5.848-1.551s3.39.54 4.05 1.2 1.2 2.459 1.2 3.997c0 1.825-1.304 4.246-3.75 6.964-2.062 2.292-5.505 5.443-7.65 7.003s-4.53 2.835-5.297 2.835m3.341-6.2c2.538-1.815 5.73-4.758 7.095-6.54s2.22-3.92 1.901-4.75c-.318-.83-1.208-1.51-1.976-1.51s-2.54.9-3.939 2c-1.398 1.1-3.02 2-3.605 2-.584 0-2.06-1.35-3.28-3s-2.753-3-3.408-3-1.752.678-2.44 1.507c-.996 1.2-1 2.402-.018 5.906.677 2.419 2.092 5.814 3.144 7.543l1.912 3.145z"/>
</svg>
