<svg xmlns="http://www.w3.org/2000/svg" width="512" height="512" viewBox="233.99998474121094 61.559906005859375 644.8408203125 792.4400634765625"><path fill-rule="evenodd" d="M464.62 853.864c-1.716-.075-4.177-.337-5.47-.583-2.309-.438-2.339-.596-1.74-9.114.336-4.767 1.072-18.117 1.636-29.667.565-11.55 1.937-30.225 3.05-41.5s2.4-22.975 2.861-26 .733-5.614.604-5.753-2.27.025-4.757.366l-4.523.62-1.157 9.634c-.636 5.298-1.828 16.608-2.649 25.133-.82 8.525-2.158 27.875-2.972 43s-1.485 28.288-1.491 29.25c-.008 1.198-.803 1.75-2.52 1.75-1.38 0-7.299-1.132-13.153-2.515-5.855-1.383-15.289-3.868-20.965-5.522-5.676-1.653-16.295-5.214-23.597-7.912s-18.434-7.21-24.738-10.025-14.808-6.966-18.898-9.224l-7.437-4.106.648-16.098c.356-8.854.88-19.923 1.164-24.598.509-8.375.495-8.437-.9-4.233-.778 2.347-2.85 12.022-4.605 21.5s-3.358 17.79-3.564 18.47c-.27.89-1.371.65-3.91-.848-2.93-1.728-3.537-2.661-3.537-5.437 0-1.842.69-8.66 1.533-15.15s3.376-21.023 5.628-32.293l4.094-20.49-2.735-18.01c-1.504-9.905-2.842-18.126-2.972-18.27s-2.163.42-4.518 1.25S315.952 699 312.534 699s-9.72-.897-14.004-1.992c-4.284-1.096-11.815-4.023-16.735-6.504s-10.978-5.91-13.462-7.619c-2.484-1.71-6.838-5.15-9.675-7.646s-7.515-7.283-10.395-10.638c-2.88-3.356-6.776-9.251-8.659-13.101-1.882-3.85-3.913-9.385-4.513-12.3-.6-2.914-1.091-8.804-1.091-13.09 0-4.545.842-11.085 2.022-15.7 1.113-4.35 2.907-10.274 3.987-13.163s3.378-8.064 5.106-11.5 5.1-9.286 7.494-13 7.738-10.37 11.873-14.792 7.518-8.512 7.518-9.089 4.746-7.983 10.547-16.457c5.8-8.475 10.863-15.419 11.25-15.431s1.711-.8 2.944-1.75l2.24-1.728-1.89-13c-1.04-7.15-1.533-13.381-1.095-13.847.439-.466 8.157-1.879 17.15-3.14l16.354-2.294 4-4.835c2.2-2.66 7.6-8.672 12-13.36s11.922-12.288 16.717-16.89c4.794-4.6 11.769-10.817 15.5-13.814s10.6-8.006 15.265-11.13c4.664-3.126 14.794-8.872 22.51-12.77s18.75-8.907 24.52-11.13c5.768-2.225 14.988-5.264 20.488-6.755s10.9-3.06 12.002-3.488c1.1-.428 5.574-3.341 9.94-6.474 4.367-3.133 14.941-9.189 23.499-13.458s19.272-8.825 23.809-10.125 8.25-2.905 8.25-3.568-1.053-1.47-2.339-1.792-5.674-2.771-9.75-5.44-10.179-7.823-13.561-11.452c-4.84-5.192-6.818-8.328-9.282-14.719-1.723-4.467-3.79-12.486-4.594-17.82s-1.465-14.122-1.468-19.527.489-15.247 1.093-21.87c1.036-11.36.987-12.194-.868-14.703-1.082-1.463-2.93-4.55-4.109-6.86s-2.674-7.617-3.323-11.793c-.916-5.89-.908-9.204.034-14.77.668-3.947 2.334-9.48 3.702-12.297 1.51-3.113 3.974-6.153 6.28-7.75 2.086-1.446 4.749-2.629 5.917-2.629s2.832-.707 3.697-1.571c.864-.865 1.571-2.164 1.571-2.889s1.143-5.304 2.539-10.178 3.668-11.853 5.048-15.508c1.702-4.51 3.145-6.812 4.49-7.164 1.78-.466 1.921-.147 1.385 3.146-.328 2.015-.842 4.97-1.142 6.564-.473 2.517-.299 2.805 1.318 2.181 1.024-.396 4.06-1.138 6.748-1.65s7.776-.931 11.308-.931 8.431.506 10.89 1.125c2.62.66 5.285 2.164 6.442 3.635 1.155 1.47 1.974 4.04 1.974 6.2 0 2.545-.7 4.338-2.25 5.773-2.058 1.904-3.658 2.108-18.75 2.388-11.58.215-17.15-.055-18.682-.906-2.112-1.174-2.235-.964-3.826 6.536-.905 4.262-1.844 8.37-2.087 9.13s-1.797 9.986-3.452 20.5c-1.654 10.516-3.284 25.194-3.621 32.619-.391 8.596-.171 16.612.604 22.066.67 4.711 1.57 9.134 2 9.83.536.868 1.575-.09 3.322-3.066 1.397-2.382 4.48-6.248 6.851-8.592s6.204-5.18 8.519-6.3 5.813-2.298 7.774-2.616 3.963-1.083 4.449-1.7 1.905-4.272 3.153-8.122c1.25-3.85 6.07-17.35 10.713-30s8.768-23.34 9.166-23.754c.399-.414 1.598-.115 2.666.666 1.904 1.392 1.88 1.604-1.221 10.754-1.74 5.134-5.715 16.309-8.834 24.834-3.12 8.525-6.534 18.134-7.587 21.354-1.609 4.914-1.715 6.265-.662 8.41.69 1.406 2.39 3.395 3.776 4.42 2.466 1.824 2.76 1.818 13.486-.277 7.737-1.512 12.736-1.96 16.98-1.525 3.62.372 8.49 1.83 12.237 3.667 3.824 1.875 7.557 4.678 9.683 7.272 1.903 2.322 4.84 6.845 6.526 10.052 1.687 3.207 3.067 6.433 3.067 7.17 0 .736.445 1.614.988 1.95s3.208-1.467 5.921-4.005c3.007-2.812 6.49-7.617 8.918-12.302 2.19-4.227 5.127-11.511 6.524-16.186s3.007-11.2 3.575-14.5 1.725-11.993 2.571-19.317 1.965-21.897 2.487-32.383c.523-10.487 1.11-19.228 1.306-19.423.196-.196 1.118.202 2.05.883 1.033.757 2.108 3.772 2.759 7.74.667 4.068.806 12.386.37 22.23l-.695 15.731 7.214-3.73 7.214-3.731 5.486-12.43 5.486-12.43-2.337-1.77c-1.285-.974-6.837-4.42-12.337-7.658-5.5-3.237-13.038-7.557-16.75-9.598s-6.75-4.306-6.75-5.033c0-.726 1.372-5.938 3.048-11.581 1.677-5.644 2.914-10.855 2.75-11.58-.164-.726-3.861-4.964-8.216-9.417l-7.919-8.096-4.93.297c-4.77.286-4.972.425-6.29 4.296-.75 2.2-3.305 5.843-5.68 8.095-2.408 2.284-6.96 5.128-10.29 6.43-4.97 1.944-7.82 2.336-16.973 2.338-8.942.001-12.216-.43-17.5-2.303-3.575-1.268-9.165-3.704-12.422-5.414s-8.336-5.314-11.285-8.01c-2.95-2.695-5.53-4.728-5.733-4.518-.204.21-2.343 3.082-4.753 6.382s-5.421 7.698-6.691 9.774-3.69 4.488-5.376 5.36c-2.08 1.076-4.747 1.447-8.287 1.154-3.927-.326-6.425-1.295-10.086-3.914-2.751-1.968-6.239-5.761-8.023-8.726-1.876-3.118-3.608-7.842-4.272-11.654-.89-5.111-.823-7.816.329-13.341.795-3.812 2.383-8.768 3.528-11.014s3.5-5.697 5.232-7.67 4.862-4.46 6.954-5.528c2.093-1.068 4.858-1.941 6.145-1.941s2.88.54 3.54 1.2 1.2 1.994 1.2 2.965-.895 2.244-1.99 2.83-2.739 2.513-3.654 4.284c-.916 1.77-1.636 5.122-1.601 7.447.041 2.75.824 5.198 2.238 7.001 1.196 1.525 3.15 3.32 4.341 3.988s4.485 1.23 7.32 1.25l5.154.035-2.009-5.25c-1.525-3.987-1.899-6.818-1.554-11.766.25-3.584 1.416-8.69 2.591-11.347 1.23-2.78 4.628-7.23 8.005-10.484 3.436-3.31 8.934-7.183 13.264-9.343 4.067-2.03 11.22-4.73 15.895-6 7.576-2.059 10.619-2.303 28-2.242 18.283.063 20.062.238 28.5 2.803 4.95 1.504 11.991 4.504 15.647 6.666s7.89 5.4 9.409 7.197c1.518 1.796 3.634 5.231 4.701 7.634 1.114 2.508 1.998 6.872 2.076 10.25l.135 5.882h4.298c2.364 0 5.965-.696 8.002-1.548 2.038-.851 4.71-2.492 5.94-3.647 1.228-1.154 2.737-3.623 3.351-5.485.945-2.862.802-4.024-.927-7.518-1.125-2.274-1.813-4.509-1.53-4.968.284-.459 1.607-.834 2.941-.834s3.81 1.237 5.503 2.75c2.19 1.958 3.24 3.957 3.64 6.94.308 2.304.28 5.307-.062 6.673-.343 1.365-1.805 3.887-3.248 5.602s-2.456 3.213-2.25 3.327c.206.115 2.534 1.295 5.175 2.624s5.974 3.804 7.41 5.5 3.774 5.559 5.199 8.584c2.384 5.063 2.586 6.532 2.535 18.5-.042 9.846-.582 15.116-2.224 21.72-1.193 4.796-4.228 14.246-6.745 21s-7.035 17.411-10.04 23.682c-3.006 6.272-5.346 11.447-5.2 11.5s2.064 1.062 4.264 2.241 5.22 3.654 6.713 5.5c1.492 1.846 3.444 6.22 4.337 9.72 1.323 5.185 1.425 7.5.553 12.5-.589 3.376-2.722 9.49-4.74 13.586-2.574 5.225-5.688 9.44-10.429 14.116-3.718 3.667-8.936 7.884-11.597 9.372-2.66 1.489-7.41 3.574-10.555 4.635-3.146 1.06-7.276 1.928-9.18 1.928-3.412 0-3.476.08-4.616 5.75-.635 3.162-1.844 8.225-2.687 11.25s-3.001 8.712-4.798 12.638-5.16 9.644-7.47 12.706c-2.313 3.062-3.96 5.963-3.66 6.447.3.485.655 2.53.791 4.545.228 3.39.482 3.664 3.393 3.664 1.731 0 5.338 1.165 8.016 2.589s7.646 4.799 11.042 7.501 8.585 7.522 11.53 10.711c2.947 3.19 8.17 9.53 11.607 14.092 3.438 4.562 6.25 8.684 6.25 9.162 0 .477 1.913 1.354 4.25 1.948 2.337.595 7.85 2.24 12.25 3.657s13.4 4.729 20 7.36c6.6 2.63 19.425 8.25 28.5 12.487s20.775 10.197 26 13.244 12.95 7.954 17.166 10.904 9.617 7.534 12.001 10.186c2.385 2.652 5.596 7.313 7.136 10.357 1.697 3.355 3.554 9.714 4.713 16.138 1.051 5.831 2.82 12.303 3.928 14.383 1.11 2.08 3.263 5.442 4.786 7.472 1.524 2.03 4.33 5.854 6.236 8.5s10.702 12.009 19.546 20.809c9.41 9.363 18.245 19.188 21.3 23.685 2.87 4.227 7.015 11.431 9.213 16.01 2.413 5.03 4.633 11.688 5.606 16.816 1.09 5.739 1.436 11.243 1.068 16.989-.336 5.259-1.46 11.024-2.95 15.12-1.323 3.64-3.563 8.59-4.977 11-1.414 2.409-4.444 6.507-6.735 9.106-2.29 2.599-8.001 7.687-12.691 11.307s-12.137 8.579-16.548 11.019-11.61 6.057-15.997 8.038-12.522 5.132-18.077 7.003c-5.555 1.87-13.665 4.078-18.022 4.904-4.358.827-10.91 1.499-14.562 1.493-4.911-.007-7.994-.64-11.84-2.43-2.86-1.332-7.588-4.815-10.507-7.74-2.919-2.926-6.264-6.67-7.434-8.32s-2.314-2.775-2.543-2.5-.104 5.225.278 11 .742 21.457.8 34.849-.59 36.792-1.443 52c-.851 15.208-1.736 28.211-1.966 28.896-.23.684-5.171 4.377-10.98 8.206s-16.551 10.366-23.871 14.528c-7.32 4.161-19.345 10.307-26.722 13.657s-17.687 7.673-22.912 9.607-14.827 5.241-21.338 7.35c-6.51 2.107-18.66 5.396-27 7.308s-16.287 3.617-17.662 3.788l-2.5.311-.84-12c-.558-7.964-.39-19.903.5-35.5.737-12.925 1.332-34.975 1.322-49s-.296-26.192-.637-27.037c-.45-1.12-1.696-1.435-4.583-1.16l-3.965.379-.016 21.159c-.01 11.637-.751 29.399-1.65 39.47-.953 10.702-1.631 28.256-1.631 42.25V854h-11.263l.45-29.75.451-29.75-9.569.33c-5.263.183-16.302-.18-24.53-.806-8.23-.626-20.323-2.049-26.875-3.162s-14.96-2.823-18.684-3.8l-6.772-1.779-.612 7.109c-.337 3.91-1.06 16.783-1.605 28.608s-1.274 24.087-1.62 27.25c-.621 5.676-.67 5.748-3.75 5.614m59.88-71.455c8.25-.266 19.427-1.066 24.838-1.78 5.881-.774 10.169-1.831 10.662-2.628.453-.733 1.15-6.546 1.55-12.917s.446-17.166.102-23.988-.768-12.545-.942-12.719-10.417 1.025-22.763 2.665c-12.346 1.639-22.897 3.125-23.446 3.302s-1.738 7.878-2.641 17.113c-1.133 11.585-2.064 17.057-3.001 17.651-.748.474-1.76.868-2.252.877-.505.008-.61-3.572-.241-8.235.358-4.538.939-12.413 1.29-17.5.596-8.644.514-9.249-1.26-9.233-1.042.009-7.89.866-15.217 1.904s-13.49 2.056-13.695 2.262-1.298 7.56-2.427 16.345-2.054 16.325-2.055 16.758 1.972 1.631 4.385 2.666 7.835 2.848 12.049 4.03 10.452 2.546 13.863 3.03 12.951.662 21.201.397m1.5-25.944c-1.391.299-3.998-.211-5.877-1.15-1.87-.935-3.936-3.018-4.63-4.672-.83-1.97-.964-4-.398-5.974.471-1.644 1.846-4.042 3.055-5.33 1.577-1.677 3.303-2.339 6.101-2.339 2.98 0 4.594.691 6.826 2.923 2.136 2.136 2.923 3.882 2.923 6.484 0 2.496-.823 4.453-2.75 6.542-1.513 1.639-3.875 3.221-5.25 3.516m-1.656-7.658c1.551-.22 2.156-1.009 2.156-2.807 0-1.802-.605-2.586-2.164-2.808-1.468-.21-2.374.351-2.815 1.74-.357 1.128-.354 2.53.009 3.116.362.587 1.629.928 2.814.76m-177.015-6.82c.644-.006 8.146-.9 16.671-1.986s24.725-3.115 36-4.51 49.3-6.1 84.5-10.46c35.2-4.358 97.508-12.041 138.463-17.073l74.463-9.149 6.85 3.7c3.767 2.035 7.158 3.39 7.535 3.014s-.522-1.565-1.997-2.64-3.14-3.4-3.7-5.168c-.558-1.768-2.638-13.79-4.621-26.715s-3.849-24.491-4.146-25.703c-.429-1.748-1.502-2.334-5.194-2.833-2.559-.347-8.478-1.29-13.153-2.096s-9.85-1.965-11.5-2.576-4.237-2.248-5.75-3.639c-2.146-1.972-2.75-3.432-2.75-6.649 0-2.267.63-4.984 1.4-6.038 1.313-1.794 1.036-2.028-4.355-3.683-3.166-.972-6.935-2.946-8.376-4.387s-2.908-4.152-3.26-6.025c-.364-1.947-.108-4.683.6-6.392.68-1.644 2.804-4.364 4.72-6.045 1.914-1.682 3.321-3.176 3.126-3.322s-2.014-1.262-4.041-2.48c-2.39-1.437-4.088-3.433-4.828-5.674-.855-2.592-.855-4.326.003-6.925.63-1.907 2.552-4.652 4.271-6.099 1.72-1.447 4.278-3.093 5.684-3.659s3.906-1.35 5.556-1.743l3-.716-4.483-1.26c-2.466-.692-6.618-2.34-9.227-3.663-2.762-1.4-5.38-3.634-6.267-5.349-.838-1.62-1.523-4.376-1.523-6.126 0-2.324.918-4.048 3.405-6.393 1.873-1.767 5.586-3.845 8.25-4.619 3.046-.884 9.187-1.372 16.538-1.314l11.694.091-.444-2.591c-.244-1.426-1.1-6.642-1.904-11.592s-3.543-22.5-6.088-39-4.752-30.127-4.905-30.282c-.152-.156-9.45.851-20.662 2.237A37262 37262 0 0 1 585 462.011a42217 42217 0 0 1-75 9.026c-18.425 2.195-69.944 8.533-114.486 14.085l-80.986 10.094-5.352-1.687c-2.943-.927-5.65-1.365-6.014-.97-.364.393-.212.886.338 1.094s1.612.767 2.36 1.24c.889.563 2.838 10.008 5.622 27.234 2.343 14.505 4.569 28.494 4.945 31.087.682 4.692.7 4.71 3.879 4 1.757-.393 9.269-.703 16.694-.689 11.355.021 14.55.384 20.108 2.284 3.634 1.243 7.609 3.325 8.832 4.627s2.463 4.153 2.756 6.336c.473 3.527.123 4.423-3.145 8.04-2.053 2.272-5.67 4.832-8.186 5.793l-4.508 1.721 7.322 2.128c4.026 1.171 8.513 2.92 9.97 3.886s3.199 3.086 3.871 4.709c.969 2.338.962 3.581-.034 5.985-.691 1.669-2.416 3.946-3.833 5.06-2.128 1.674-2.322 2.187-1.114 2.951.803.508 1.701.931 1.995.94s1.307 1.322 2.25 2.92 1.716 4.037 1.716 5.423c0 1.385-1.182 3.923-2.626 5.64-1.444 1.715-4.481 4.076-6.75 5.245l-4.124 2.124 3.167.839c1.742.461 4.33 2.22 5.75 3.908 1.487 1.767 2.583 4.309 2.583 5.99 0 1.961-1.21 4.26-3.687 7-2.027 2.245-5.84 5.172-8.471 6.506s-8.735 3.325-13.563 4.424-9.791 2.233-11.029 2.517c-1.733.398-2.25 1.223-2.25 3.59 0 1.691 2.476 17.995 5.502 36.232s5.761 34.394 6.079 35.907 1.105 2.744 1.748 2.738m64.171-52.04c-1.65-.02-4.627-.616-6.615-1.327-1.988-.71-4.994-2.273-6.68-3.474-1.685-1.2-4.027-3.74-5.205-5.646s-2.395-5.93-2.706-8.944c-.48-4.641-.148-6.335 2.169-11.069 1.799-3.677 4.048-6.458 6.575-8.13 2.112-1.399 5.725-2.966 8.03-3.483 3.113-.7 5.533-.55 9.43.582 2.882.838 5.723 2.105 6.313 2.816.792.955.372 2.38-1.613 5.468-2.318 3.605-3.028 4.082-5.191 3.49-1.379-.378-3.828-.645-5.443-.593-1.867.06-3.779 1.074-5.25 2.785-1.428 1.66-2.314 3.979-2.314 6.057 0 2.164.925 4.467 2.589 6.444 1.92 2.283 3.434 3.077 5.865 3.077 1.802 0 4.46-.932 5.908-2.07l2.632-2.07 2.842 2.023c1.563 1.113 3.351 2.638 3.974 3.388.86 1.035.745 1.919-.47 3.654-.882 1.259-3.907 3.361-6.722 4.672s-6.468 2.368-8.118 2.35m29.199-5.341c-3.153.37-5.706.273-5.715-.218-.008-.489-1.358-8.313-2.999-17.388s-2.984-17.737-2.984-19.25c0-2.228.45-2.75 2.374-2.75 1.306 0 3.717-.268 5.358-.597 2.517-.503 3.077-.239 3.581 1.69l.598 2.288 2.06-2.618c1.133-1.44 3.68-3.153 5.662-3.807 2.93-.967 3.765-.934 4.47.177.476.752.872 3.519.88 6.148.012 3.682-.387 4.911-1.734 5.344-.962.31-2.993 1.027-4.513 1.595-1.64.613-3.016 2.043-3.386 3.518-.343 1.366.166 7.407 1.13 13.422.965 6.016 1.565 11.127 1.335 11.357s-2.983.72-6.117 1.089M302.153 683c.419 0-1.527-2.138-4.324-4.75s-6.853-7.35-9.014-10.529c-2.16-3.178-5.258-8.902-6.882-12.72-1.625-3.817-3.89-11.004-5.033-15.97S274.578 630 274.281 630s-.237 3.068.132 6.819c.37 3.75 1.27 9.037 2 11.75.732 2.712 2.448 7.406 3.815 10.431s4.662 8.378 7.323 11.895c2.66 3.517 6.862 7.68 9.338 9.25 2.477 1.57 4.845 2.855 5.264 2.855M484 679.249c-1.925.283-5.075.199-7-.188s-4.909-1.443-6.63-2.346c-1.723-.904-4.293-3.023-5.712-4.71-1.42-1.687-3.046-4.74-3.614-6.786s-1.035-5.543-1.038-7.773c-.004-2.331 1.049-6.155 2.477-9 1.425-2.839 4.032-5.994 6.119-7.406 2.646-1.791 5.362-2.57 9.984-2.865 5.469-.348 6.965-.042 10.807 2.21 3.332 1.952 5.128 3.98 7.108 8.027 1.515 3.097 2.51 6.625 2.324 8.244-.32 2.787-.502 2.86-12.107 4.952-6.48 1.168-12.017 2.358-12.303 2.644s.69 1.471 2.167 2.634c1.478 1.163 3.995 2.114 5.593 2.114s4.705-.919 6.906-2.042l4.002-2.041 2.903 2.291c1.597 1.26 2.928 2.77 2.959 3.354.03.584-1.183 1.977-2.695 3.095s-4.1 2.718-5.75 3.554c-1.65.837-4.575 1.754-6.5 2.038m-173.5-4.275c1.1.01 3.474-.88 5.275-1.978s3.712-3.147 4.246-4.552.86-3.924.725-5.598l-.246-3.043 20.87-6.854c11.477-3.77 21.715-7.62 22.75-8.557 1.034-.936 1.88-2.038 1.88-2.45 0-.41-1.394-1.232-3.098-1.826-2.154-.751-6.649-.79-14.75-.126-6.409.525-15.245 1.456-19.637 2.068s-9.567 1.69-11.5 2.393c-1.933.704-4.206 1.576-5.05 1.939-.907.39-2.442-.185-3.75-1.404-1.218-1.135-2.215-2.462-2.215-2.948s3.071-2.926 6.825-5.422 8.95-5.448 11.548-6.562 7.29-2.667 10.425-3.452 10.427-1.953 16.202-2.594c5.775-.642 11.928-1.841 13.673-2.665s3.404-2.1 3.686-2.836c.317-.825-.902-2.026-3.173-3.127-2.822-1.37-6.898-1.884-17.384-2.196-10.228-.305-15.549.004-21.008 1.218-4.021.895-11.772 3.636-17.225 6.092-7.49 3.373-10.238 4.195-11.241 3.363-.73-.606-1.328-1.692-1.328-2.412 0-.721 1.913-2.862 4.25-4.757 2.337-1.896 6.253-4.457 8.702-5.69 2.448-1.235 6.948-3.141 10-4.237 4.416-1.586 9.424-2.14 24.548-2.719 10.45-.399 19.8-1.075 20.778-1.502.978-.426 2.21-1.584 2.74-2.573.808-1.51.264-2.136-3.393-3.907-2.396-1.16-7.454-2.778-11.24-3.596s-11.236-1.773-16.554-2.122c-6.164-.404-11.963-.189-16 .595-3.482.676-9.031 2.58-12.331 4.232-3.3 1.651-8.12 4.35-10.712 5.996-3.16 2.008-5.383 2.781-6.75 2.347-1.12-.356-2.038-1.479-2.038-2.495s2.736-4.325 6.08-7.351 9.081-7.07 12.75-8.986c3.668-1.916 8.47-3.987 10.67-4.602s10.3-1.587 18-2.16c7.7-.571 15.575-1.465 17.5-1.985s4.625-1.824 6-2.897c1.958-1.529 2.277-2.313 1.472-3.615-.565-.915-3.715-2.576-7-3.691-4.82-1.636-8.671-2.04-19.972-2.097-11.922-.06-15.113.272-21.5 2.238-4.125 1.27-10.972 4.064-15.215 6.21-4.244 2.144-10.094 5.425-13 7.29-2.907 1.864-6.1 4.297-7.097 5.406-1.046 1.165-2.045 4.28-2.364 7.376-.305 2.948-.04 8.732.587 12.854s2.488 12.778 4.134 19.236c1.646 6.46 4.166 15.01 5.6 19 1.433 3.992 4.186 10.405 6.117 14.252 1.93 3.847 4.68 8.53 6.11 10.405s4.408 4.23 6.615 5.233 4.913 1.831 6.013 1.841m212.11-1.983c-3.657-.007-6.294-.72-9.273-2.505-2.907-1.743-4.943-4.062-6.75-7.687-1.965-3.944-2.587-6.716-2.587-11.535 0-4.323.623-7.565 1.956-10.178 1.076-2.109 3.294-4.96 4.929-6.336 1.634-1.375 4.537-2.794 6.45-3.153 2.11-.396 5.13-.082 7.69.8l4.212 1.45-.638-3.673c-.351-2.02-.913-6.419-1.25-9.773-.581-5.813-.498-6.13 1.77-6.737 1.31-.35 3.972-.643 5.917-.65l3.535-.014 4.322 27.625c3.359 21.47 4.044 27.796 3.076 28.394-.684.423-3.095 1.068-5.357 1.433-3.024.488-4.352.287-5.02-.757-.756-1.181-1.493-1.023-4.39.942-2.543 1.727-4.858 2.36-8.592 2.354m35.067-5.42c-1.037.397-1.663-.284-2.067-2.25-.319-1.552-1.756-10.389-3.194-19.639s-2.457-16.972-2.265-17.161 2.718-.774 5.614-1.299c4.93-.894 5.294-.82 5.74 1.162.263 1.164 1.829 9.966 3.48 19.56 2.344 13.607 2.73 17.618 1.76 18.235-.685.435-2.67.797-4.413.806-1.743.008-3.838.272-4.655.586m204.613-1.153c1.216-.38 4.07-1.966 6.345-3.524 2.274-1.557 5.339-4.263 6.81-6.012 1.472-1.749 4.035-5.87 5.695-9.159 1.66-3.288 3.65-8.959 4.422-12.601s1.411-11.195 1.42-16.784c.01-5.59-.656-13.69-1.48-18-.84-4.401-3.192-11.346-5.362-15.838-2.126-4.4-5.826-10.206-8.222-12.903-2.396-2.696-6.125-6.184-8.287-7.75-3.013-2.182-5.045-2.847-8.7-2.847-2.622 0-5.435.256-6.251.57-1.102.422-.332 1.631 2.99 4.693 3.03 2.793 5.892 7.048 8.868 13.18 2.416 4.982 5.353 12.882 6.526 17.557 1.61 6.416 2.261 12.828 2.656 26.154.422 14.244.202 19.097-1.139 25.126-.962 4.326-3.102 9.864-5.082 13.151-3.172 5.268-3.26 5.628-1.209 4.987M592 663.266c-1.375.226-3.625.217-5-.019s-3.334-1.175-4.352-2.086c-1.02-.91-2.428-2.782-3.13-4.159-.704-1.376-1.803-5.877-2.443-10.002s-1.378-8.513-1.639-9.75c-.358-1.697-1.175-2.25-3.33-2.25-2.399 0-2.956-.5-3.481-3.125-.344-1.719-.625-3.92-.625-4.892 0-1.05 1.014-2.02 2.5-2.394 2.278-.571 2.5-1.103 2.5-5.991 0-4.718.271-5.437 2.25-5.968 1.237-.331 3.895-.609 5.906-.616 3.632-.014 3.661.02 4.344 4.986l.688 5h4.29c3.602 0 4.385.36 4.892 2.25.331 1.237.609 3.44.616 4.893.008 1.497-.672 2.906-1.568 3.25-.87.334-2.692.607-4.05.607-2.433 0-2.458.087-1.784 6.25.376 3.438 1.192 7.825 1.814 9.75 1.031 3.192 1.467 3.5 4.95 3.5 3.389 0 3.98.38 5.236 3.365.779 1.85 1.416 3.47 1.416 3.598s-1.687.944-3.75 1.813c-2.062.868-4.875 1.764-6.25 1.99M524.881 662c1.584 0 3.67-.964 4.87-2.25 1.156-1.237 2.392-3.424 2.748-4.858.373-1.507.018-4.113-.843-6.172-.819-1.96-2.648-4.324-4.065-5.252-1.619-1.061-3.498-1.457-5.056-1.066-1.364.342-3.431 1.63-4.594 2.86-1.735 1.835-2.033 3.127-1.657 7.18.352 3.782 1.088 5.481 3.143 7.25 1.477 1.269 3.931 2.308 5.454 2.308m93.401-3.04c-3.73-.02-8.227-.667-9.993-1.435l-3.212-1.396 1.577-4.627c1.215-3.566 1.951-4.484 3.21-4.001.897.345 3.741 1.079 6.32 1.632 3.344.717 5.298.68 6.813-.131 1.168-.625 1.978-1.891 1.8-2.813-.245-1.277-2.154-1.929-8.019-2.74-4.802-.665-8.45-1.747-9.7-2.878-1.101-.997-2.505-3.335-3.119-5.195s-.818-4.742-.453-6.403c.365-1.662 1.842-4.421 3.282-6.133s4.088-3.726 5.883-4.476c1.796-.75 5.462-1.364 8.148-1.364s6.3.494 8.032 1.098 3.149 1.661 3.149 2.35-.485 2.645-1.078 4.346c-1.049 3.008-1.212 3.077-5.917 2.52-2.66-.315-6.03-.273-7.488.092-1.758.442-2.542 1.228-2.328 2.336.177.919 1.444 1.983 2.816 2.364 1.372.382 4.227.74 6.344.794s5.317.797 7.111 1.648c1.795.852 3.775 2.673 4.401 4.047.627 1.375 1.139 4.468 1.139 6.875 0 3.297-.667 5.169-2.703 7.59-1.487 1.766-4.173 3.826-5.968 4.576-1.796.75-6.317 1.346-10.047 1.325M474.451 655c1.348 0 4.75-.493 7.558-1.095 4.89-1.05 5.049-1.185 3.714-3.196-.767-1.154-2.638-2.514-4.157-3.02-1.889-.63-3.488-.533-5.054.305-1.26.674-2.79 2.322-3.402 3.663-.61 1.34-1.11 2.64-1.11 2.89s1.103.453 2.45.453m254.349-6.004c2.364.002 5.56-.648 7.101-1.445s4.157-2.992 5.813-4.878c2.042-2.325 3.6-5.802 4.842-10.801 1.29-5.194 1.813-10.917 1.77-19.372-.033-6.612-.841-16.49-1.8-22-.957-5.5-3.514-15.85-5.68-23-2.168-7.15-4.62-15.109-5.452-17.686-1.392-4.314-2.317-5.222-11.615-11.412-5.557-3.7-12.686-9.31-15.843-12.466-3.53-3.53-6.942-8.258-8.86-12.278-1.984-4.155-3.905-6.786-5.272-7.22-1.504-.478-2.574-.12-3.556 1.19-.963 1.283-1.22 3.271-.818 6.324.323 2.448 1.523 6.385 2.667 8.748s3.793 6.37 5.888 8.904c2.095 2.535 7.065 7.06 11.045 10.053 3.98 2.995 9.427 6.554 12.103 7.91 2.677 1.357 4.867 3.079 4.867 3.827 0 .749-.663 1.911-1.473 2.584-1.194.99-3.301.438-11.108-2.91-5.299-2.274-12.849-4.99-16.777-6.039s-10.583-2.438-14.788-3.088c-4.206-.65-12.08-.99-17.5-.755-6.78.293-10.888.973-13.168 2.179-1.822.964-3.14 2.288-2.926 2.944.213.655 1.535 1.75 2.936 2.434s6.094 1.718 10.427 2.298 12.535 1.737 18.228 2.57c5.693.834 14.243 2.881 19 4.55 4.757 1.668 11.18 4.372 14.274 6.008s7.05 4.18 8.793 5.653c2.988 2.526 3.08 2.802 1.617 4.859l-1.552 2.181-10.07-3.391c-5.54-1.866-13.592-3.93-17.894-4.59-5.926-.907-10.478-.927-18.766-.083-6.019.613-13.402 2.034-16.408 3.159-3.005 1.124-6.303 2.658-7.328 3.407-1.773 1.296-1.723 1.455 1.016 3.25 2.547 1.667 5.03 1.897 21.424 1.977 16.4.08 19.352.352 25.543 2.36 3.85 1.247 10.32 3.905 14.377 5.907 4.057 2 7.606 4.236 7.886 4.968.28.73-.19 2.03-1.045 2.885-1.408 1.408-2.492 1.281-11.387-1.328-8.615-2.526-11.315-2.867-21.831-2.754-8.766.094-14.144.703-19.955 2.261-4.375 1.173-9.435 3.14-11.243 4.371-1.809 1.232-3.291 2.6-3.295 3.04s1.666 1.5 3.71 2.354c3.093 1.293 6.323 1.435 19.25.85 13.803-.626 16.507-.473 24.276 1.375 4.809 1.143 11.017 3.232 13.797 4.64 2.78 1.409 5.32 3.253 5.644 4.098s-.106 2.232-.956 3.082c-1.393 1.394-2.167 1.331-7.886-.637-3.488-1.2-9.492-2.436-13.342-2.748-4.641-.375-9.651-.017-14.868 1.062-4.327.895-9.623 2.614-11.768 3.82s-3.746 2.667-3.556 3.248c.19.58 2.007 1.609 4.038 2.286 2.031.676 9.872 1.707 17.423 2.29 7.552.583 16.128 1.74 19.058 2.57 5.05 1.431 5.454 1.795 7.742 6.969 1.594 3.604 3.522 6.134 5.673 7.446 1.912 1.166 5.034 1.988 7.558 1.99m-175.005-26.028c-1.262-.017-3.009-.58-3.882-1.25-.872-.67-2.12-2.221-2.774-3.447-.653-1.227-.9-3.375-.549-4.774s1.587-3.208 2.747-4.02S552.662 608 554.15 608c1.731 0 3.451.949 4.777 2.635 1.14 1.449 2.073 3.72 2.073 5.045 0 1.326-1.105 3.515-2.455 4.865s-3.487 2.44-4.75 2.423M403.087 614c-1.593 0-2.098-1.192-3.07-7.25-.64-3.987-1.185-7.7-1.21-8.25s.01-1.534.075-2.186c.065-.653 3.47-5.475 7.568-10.717 4.097-5.241 10.348-13.482 13.89-18.313 3.543-4.831 7.477-10.775 8.743-13.21 1.465-2.815 2.302-6.164 2.302-9.208 0-3.322-.594-5.45-1.943-6.963-1.068-1.198-3.421-2.805-5.229-3.57-2.515-1.064-4.195-1.146-7.158-.348-2.288.616-5.12 2.464-6.922 4.516-1.677 1.91-3.535 5.279-4.13 7.486s-1.4 4.019-1.792 4.026c-.39.007-4.649-1.19-9.461-2.658-8.58-2.618-8.75-2.731-8.75-5.816 0-1.73 1.143-5.44 2.54-8.243s4.786-7.198 7.532-9.766c2.745-2.569 7.565-5.849 10.71-7.29 4.208-1.928 7.866-2.734 13.85-3.05 5.846-.308 9.529.035 13.09 1.218 2.727.906 6.816 3.013 9.087 4.683 2.822 2.075 5.167 5.145 7.41 9.701 2.881 5.854 3.281 7.643 3.281 14.687 0 7.146-.392 8.839-3.59 15.521-1.976 4.125-7.756 12.82-12.845 19.323-5.089 6.502-8.999 12.076-8.689 12.386s6.99-.38 14.844-1.533 15.63-2.228 17.28-2.387l2.999-.289 1.188 7.5c.653 4.125 1.216 8.257 1.25 9.183.035.925-.725 1.919-1.687 2.208s-6.925 1.205-13.25 2.034c-6.325.83-19.264 2.648-28.753 4.041S404.136 614 403.087 614m464.423-2.5c.74-1.65 1.855-5.947 2.475-9.549.798-4.631.833-8.9.12-14.58-.553-4.418-1.943-10.537-3.089-13.598s-3.807-8.199-5.915-11.419-5.424-7.654-7.368-9.854-3.79-3.75-4.105-3.445c-.314.306 1.037 2.945 3.004 5.865 1.966 2.92 5.108 8.536 6.98 12.48 1.972 4.151 4.033 10.734 4.896 15.635.819 4.656 1.526 13.64 1.572 19.965.075 10.497.2 11.238 1.43 8.5M509.5 600.275c-2.2.261-5.925.102-8.277-.353-2.353-.455-6.52-2.048-9.261-3.54s-7.25-5.109-10.021-8.038-6.351-8.143-7.956-11.585-3.72-9.184-4.701-12.759c-1.33-4.844-1.774-10.067-1.746-20.5.032-12.149.337-14.754 2.303-19.702 1.247-3.136 4.289-7.95 6.76-10.7 2.548-2.833 6.871-6.16 9.985-7.684 3.707-1.814 7.718-2.846 12.346-3.177 4.955-.355 8.477.013 12.711 1.327 4.734 1.47 7.12 3.076 12.446 8.377 4.362 4.342 7.632 8.756 9.676 13.059 1.698 3.575 4.02 10.072 5.16 14.438 1.504 5.754 2.075 11.023 2.075 19.145 0 8.431-.502 12.832-2.027 17.77-1.115 3.61-3.493 8.494-5.283 10.855-1.791 2.36-5.42 5.748-8.066 7.528-2.645 1.78-6.455 3.648-8.467 4.15-2.011.503-5.457 1.128-7.657 1.39m80.11-11.644c-5.988.384-8.042.062-13.017-2.04-3.249-1.372-7.524-3.782-9.5-5.355-1.976-1.572-5.467-5.627-7.757-9.009s-5.08-8.599-6.2-11.592-2.789-9.157-3.708-13.695c-1.202-5.929-1.535-11.232-1.186-18.845.347-7.567 1.112-12.225 2.676-16.297 1.204-3.136 4.168-7.901 6.585-10.59 2.89-3.214 6.555-5.872 10.697-7.757 5.19-2.362 7.622-2.86 13.8-2.828 5.393.028 8.83.63 12.233 2.144 2.604 1.158 6.292 3.295 8.198 4.748 1.905 1.453 5.522 5.654 8.037 9.336s5.682 9.88 7.036 13.774 2.91 10.183 3.46 13.977c.548 3.794 1.005 9.628 1.016 12.964s-.458 8.652-1.042 11.812-1.92 7.747-2.968 10.193-3.962 6.644-6.475 9.33c-2.665 2.85-6.693 5.798-9.67 7.08-2.997 1.288-8.038 2.382-12.214 2.65m-82.31-7.635c.99.002 3.123-.68 4.74-1.517s3.827-3.258 4.91-5.381 2.243-6.727 2.577-10.23c.379-3.965.04-9.519-.896-14.718-.85-4.722-2.998-11.497-4.944-15.594-2.08-4.38-4.638-8.097-6.468-9.4-1.665-1.186-4.546-2.156-6.4-2.156-1.856 0-4.423.735-5.705 1.633-1.282.897-3.172 3.485-4.2 5.75-1.342 2.954-1.876 6.484-1.892 12.493-.013 5.026.802 11.885 2.037 17.148 1.184 5.041 3.301 10.73 4.98 13.376 1.606 2.532 4.391 5.502 6.19 6.598s4.08 1.996 5.07 1.998m-226.55-5.88c.962-.525 5.8-3.405 10.75-6.399 8.263-4.998 9.15-5.843 10.836-10.33 1.01-2.688 2.497-8.262 3.304-12.387.843-4.31 1.198-9.36.834-11.871-.412-2.844-1.53-5.203-3.2-6.75-1.411-1.309-3.175-2.379-3.92-2.379-.941 0-1.354 1.394-1.354 4.574 0 2.515-1.123 7.918-2.495 12.006s-3.928 10.018-5.678 13.176a575 575 0 0 1-7.005 12.18c-2.102 3.541-3.822 7.044-3.822 7.786 0 .981.477 1.088 1.75.394m307.967-6.156c2.354.03 4.124-.868 6.602-3.345 1.862-1.862 3.677-4.844 4.033-6.625.356-1.782.632-6.671.613-10.865s-.617-10.325-1.328-13.625c-.71-3.3-2.565-8.831-4.12-12.292-1.555-3.46-4.121-7.38-5.702-8.71s-4.476-2.719-6.434-3.086c-2.701-.507-4.203-.2-6.22 1.274-1.464 1.069-3.516 3.665-4.561 5.77-1.4 2.821-1.897 5.958-1.887 11.936.008 4.46.545 10.808 1.195 14.108s1.912 8.025 2.803 10.5c.892 2.475 2.749 6.213 4.126 8.308s3.666 4.438 5.084 5.21c1.418.77 4.026 1.42 5.796 1.442M275.35 556c.282 0 2.945-3.487 5.919-7.75s5.73-8.312 6.127-9c.397-.687.27-1.25-.284-1.25-.553 0-2.535 2.362-4.404 5.25-1.87 2.888-4.406 6.938-5.635 9s-2.005 3.75-1.723 3.75m516.253-.2c3.357.11 8.857-.088 12.223-.44 3.366-.351 5.918-.965 5.672-1.363s-5.445-1.3-11.554-2.003c-6.26-.721-14.67-1.012-19.275-.666-4.493.338-9.969 1.19-12.169 1.893-3.862 1.235-3.603 1.298 7.5 1.83 6.325.302 14.246.64 17.603.75M829.15 530c1.018 0 1.85-.14 1.85-.31s-2.178-2.568-4.839-5.329-6.808-7.684-9.214-10.94c-2.407-3.257-6.118-7.866-8.248-10.243s-4.91-6.666-6.177-9.532-3.051-9.696-3.964-15.178c-.932-5.597-2.802-12.344-4.265-15.387-1.648-3.427-5.217-7.91-9.714-12.201-3.91-3.73-9.578-8.496-12.594-10.588-3.017-2.093-6.725-4.602-8.24-5.575l-2.755-1.77-2.984 4.704c-1.64 2.588-2.787 4.901-2.547 5.141s1.645-.515 3.123-1.678S762.048 439 763 439c.951 0 4.206 1.688 7.233 3.75s7.362 5.436 9.634 7.497 5.731 5.973 7.686 8.694 4.006 6.435 4.557 8.253 1.654 7.79 2.451 13.269c.954 6.557 2.472 12.147 4.44 16.352 1.644 3.514 5.32 9.381 8.168 13.037 2.849 3.657 6.788 8.39 8.755 10.519s5.331 5.166 7.476 6.75 4.733 2.879 5.75 2.879m-386.079-63c.51 0 .929-1.722.929-3.826 0-2.693.666-4.432 2.25-5.875 1.238-1.127 3.301-2.592 4.586-3.255 1.284-.663 2.115-1.426 1.847-1.694-.269-.27-3.243.053-6.61.715-3.367.663-6.353 1.579-6.635 2.036s.21 3.321 1.095 6.365S442.56 467 443.071 467m78.435-9.419c3.297-.402 19.269-2.392 35.494-4.421l29.5-3.69 2.894-5.386 2.895-5.386-4.395.668c-2.417.368-8.557.952-13.644 1.298-6.442.439-9.25.296-9.25-.47 0-.605.484-2.163 1.076-3.462s4.842-4.808 9.444-7.797c5.783-3.756 8.209-5.898 7.853-6.935-.283-.825-.754-3.525-1.047-6-.492-4.166-.297-4.672 2.63-6.824 2.296-1.687 3.508-2.036 4.427-1.273.696.577 4.102 5.673 7.57 11.323s8.61 14.01 11.426 18.575l5.121 8.302 5-.624c2.75-.343 5.827-.859 6.837-1.146 1.65-.47 1.752-1.154 1-6.678-.46-3.385-.697-21.866-.527-41.069.17-19.202.019-36.64-.338-38.75-.359-2.125-1.222-3.836-1.935-3.836-.708 0-1.572 1.426-1.921 3.17s-2.168 5.906-4.043 9.25-6.259 9.315-9.741 13.27c-3.483 3.954-8.807 9.146-11.832 11.54-3.025 2.392-8.485 6.455-12.134 9.027-3.649 2.573-7.84 6.112-9.315 7.865-1.474 1.752-4.2 6.202-6.057 9.889-1.856 3.687-4.356 9.805-5.555 13.596-1.2 3.791-2.749 7.5-3.444 8.242-1.033 1.102-1.954-.723-5.043-10-2.078-6.242-6-16.299-8.715-22.349s-6.466-14.92-8.336-19.712-3.401-10.53-3.401-12.75c0-2.772-.434-4.038-1.384-4.038-.76 0-3.05 1.845-5.087 4.1s-6.085 7.767-8.996 12.25c-2.91 4.482-8.407 14.225-12.215 21.65s-8.52 17.325-10.474 22c-1.953 4.675-3.886 9.557-4.296 10.849-.672 2.116-.513 2.277 1.603 1.622 1.292-.4 4.67-1.586 7.507-2.636 4.669-1.729 5.561-2.587 9.398-9.045 2.331-3.925 8.036-12.345 12.676-18.713 4.641-6.367 8.753-11.695 9.138-11.839.386-.144 2.396 1.475 4.469 3.597 3.741 3.831 3.76 3.89 2.618 8.423l-1.15 4.564 7.647 9.188c4.206 5.053 7.463 9.705 7.238 10.339-.225.633-1.823 1.037-3.55.897-1.728-.14-3.142.05-3.142.421 0 .372.686 1.434 1.525 2.36 1.367 1.512 1.366 1.818-.01 2.96-1.266 1.051-2.88.77-9.245-1.607-4.24-1.584-7.971-3-8.29-3.147-.32-.146-1.377 1.54-2.351 3.748-.974 2.207-4.099 6.56-6.944 9.673l-5.172 5.66zM393.354 453c.229 0 .46-4.341.513-9.648.054-5.306.38-11.156.727-13 .346-1.843.323-3.352-.05-3.352-.372 0-2.335 1.22-4.36 2.71-2.027 1.49-7.425 5.812-11.997 9.603-4.573 3.792-8.09 7.117-7.817 7.39s3.906-1.884 8.073-4.794c4.584-3.2 7.919-4.918 8.443-4.35.477.518 1.838 3.641 3.025 6.941s2.353 6.563 2.592 7.25.622 1.25.85 1.25m288.341-16c.463 0 2.52-1.141 4.573-2.536s3.732-3.207 3.732-4.028-2.953-7.197-6.563-14.17-9.47-16.973-13.022-22.222-7.571-10.894-8.932-12.544c-1.36-1.65-2.468-2.55-2.46-2 .006.55 3.633 7.3 8.058 15 4.426 7.7 10.268 18.588 12.983 24.196S685 429.531 685 430.311s-.933 2.605-2.073 4.054-1.694 2.635-1.232 2.635M454.9 434c1.036 0 .966-.516-.305-2.25-.908-1.238-2.982-4.24-4.608-6.674l-2.958-4.424 2.701-3.576c1.486-1.967 5.111-6.432 8.057-9.922 2.945-3.49 5.119-6.583 4.83-6.87-.288-.29-2.301.883-4.474 2.604-2.173 1.72-6.694 6.223-10.046 10.004-3.353 3.782-6.096 7.346-6.096 7.921s2.6 3.777 5.777 7.116c3.177 3.34 6.382 6.071 7.122 6.071m291.018-2.302c.78-.109 1.587-.708 1.795-1.332s-4.111-3.44-9.597-6.258c-5.487-2.818-13.704-6.72-18.261-8.67s-14.188-5.772-21.402-8.492S684.798 402 684.142 402c-.86 0-.784.792.274 2.837 1.01 1.955 3.117 3.473 6.775 4.881 2.92 1.124 16.109 6.574 29.309 12.111s24.638 9.979 25.417 9.87M560.604 412.5c.784-1.1 2.899-4.025 4.7-6.5 1.8-2.475 6.027-6.525 9.392-9A1309 1309 0 0 1 585 389.5c2.301-1.65 7.384-6.26 11.294-10.243s8.557-9.384 10.326-12c1.77-2.617 4.017-7.106 4.995-9.977.978-2.87 1.549-5.45 1.267-5.731-.28-.281-2.99.464-6.02 1.657-3.812 1.5-6.409 3.364-8.427 6.047-1.604 2.133-4.868 5.17-7.253 6.75-2.802 1.856-6.345 3.126-10.01 3.588-3.288.415-8.52.23-12.446-.438-3.726-.635-9.75-2.504-13.388-4.154S548.336 362 547.862 362s-.862.951-.862 2.114-1.004 3.9-2.23 6.082l-2.23 3.968 2.858 8.068c1.571 4.438 4.87 12.388 7.332 17.668 2.46 5.28 4.918 10.725 5.461 12.1.97 2.457 1.012 2.465 2.413.5m-10.888-112.523c2.319.013 5.78-.723 7.693-1.635 3.237-1.544 3.775-1.544 7.817 0 2.387.912 6.576 1.658 9.307 1.657 3.4 0 6.86-.904 10.967-2.862 3.32-1.584 7.005-4.246 8.25-5.959 1.237-1.703 2.25-3.565 2.25-4.138 0-.572-.59-1.04-1.313-1.04-.722 0-2.635 1.391-4.25 3.092-1.615 1.7-4.623 3.958-6.684 5.018s-5.726 2.199-8.145 2.53c-3.425.47-5.581.065-9.753-1.83l-5.355-2.434-3.5 2.4c-2.755 1.89-4.404 2.302-7.744 1.936-2.539-.278-5.705-1.58-7.884-3.242-2.003-1.527-4.368-4.055-5.257-5.617s-2.226-2.843-2.973-2.847c-.98-.004-1.17.76-.681 2.744.372 1.512 2.06 4.187 3.75 5.944s4.47 3.883 6.18 4.727c1.71.843 5.006 1.544 7.325 1.556m97.776-18.223c2.39-.27 7.306-1.875 10.922-3.567s8.186-4.306 10.155-5.808c1.97-1.502 5.531-5.464 7.915-8.805 2.383-3.34 5.157-8.099 6.163-10.574 1.138-2.797 1.822-6.96 1.808-11-.015-4.225-.63-7.634-1.76-9.74-.955-1.783-2.91-4.01-4.346-4.95-1.434-.94-4.057-1.71-5.828-1.71-2.224 0-5.966 1.779-12.1 5.753l-8.881 5.752-2.184 13.698c-1.202 7.533-3.09 17.69-4.198 22.569l-2.013 8.872zM656.324 270c-1.128 0-1.097-.539.176-3 .853-1.65 1.918-3 2.365-3s1.352-1.18 2.009-2.623c.974-2.138.911-3.056-.34-4.965-.843-1.288-2.447-2.83-3.562-3.427s-1.764-1.513-1.441-2.035 1.649-.95 2.946-.95 3.088.28 3.978.621c.89.342 2.317 1.971 3.17 3.622 1.019 1.968 1.332 4.172.912 6.41-.46 2.452-1.789 4.241-4.738 6.378-2.255 1.633-4.718 2.969-5.475 2.969m-87.193-8c-.988 0-2.098-.3-2.464-.667-.367-.366-.667-1.686-.667-2.932 0-1.448.785-2.515 2.174-2.956 1.505-.478 2.57-.149 3.461 1.07.908 1.242.993 2.31.291 3.623-.548 1.024-1.806 1.862-2.795 1.862m104.067-18c-1.026 0-2.165-.3-2.531-.667-.367-.366-.667-1.443-.667-2.393s.755-2.016 1.678-2.37c.931-.357 2.326.005 3.136.816.803.802 1.187 2.169.854 3.036-.333.868-1.444 1.578-2.47 1.578m-77.398-3.063c-.165-.035-1.284-.46-2.488-.945-1.333-.537-2.584-2.316-3.202-4.554-.665-2.409-.684-5.411-.056-8.723.527-2.778 1.75-6.407 2.719-8.065.986-1.689 3.008-3.349 4.598-3.774 2.275-.608 3.312-.284 5.233 1.637 1.95 1.95 2.396 3.425 2.396 7.921 0 3.04-.73 7.352-1.624 9.584-.979 2.446-2.747 4.64-4.45 5.52-1.555.804-2.962 1.433-3.126 1.399m-95.254-8.15c.22-.22 1.087-3.666 1.927-7.659s1.527-7.68 1.527-8.193c0-.514-.675-.935-1.5-.935s-1.493-.787-1.485-1.75.387-2.336.842-3.053c.454-.716 1.44-1.166 2.192-1 .893.198 1.815-1.428 2.663-4.697.714-2.75 1.183-5.605 1.043-6.345-.185-.977-1.043-.724-3.13.921-1.582 1.247-3.71 4.102-4.729 6.345-1.268 2.794-1.857 6.442-1.868 11.579-.01 4.125.463 9.23 1.05 11.344s1.248 3.663 1.468 3.443m37.406.213c-.882 0-2.582-1.042-3.778-2.314-1.572-1.675-2.174-3.57-2.174-6.851 0-2.495.512-6.066 1.139-7.936.626-1.87 2.054-4.411 3.174-5.649 1.177-1.301 3.203-2.25 4.805-2.25 1.727 0 3.354.836 4.325 2.223.935 1.334 1.557 4.344 1.557 7.532 0 2.92-.627 6.811-1.394 8.646s-2.442 4.071-3.723 4.968-3.05 1.631-3.931 1.631m75.477-20.35c-.511.147-2.279-1.626-3.929-3.941s-3.16-4.579-3.357-5.03 1.109-.677 2.901-.5c2.166.213 3.953 1.255 5.33 3.107 1.569 2.111 1.818 3.187 1.027 4.44-.574.91-1.462 1.776-1.972 1.923m-61.115-9.916c-.653.214-1.973-.875-2.935-2.422-.961-1.547-2.633-3.813-3.713-5.036-1.644-1.86-1.724-2.316-.488-2.79.812-.313 2.652-.12 4.089.425 1.436.546 3.117 1.938 3.735 3.093.618 1.154.983 3.053.81 4.22-.171 1.165-.846 2.295-1.498 2.51m72.137-6.005c-2.666.154-5.565-.62-8.912-2.377-2.73-1.433-7.254-3.394-10.057-4.358-2.802-.964-7.505-2.085-10.45-2.49-3.58-.492-6.13-1.511-7.694-3.075-1.68-1.68-2.338-3.476-2.338-6.384 0-2.636.66-4.705 1.894-5.94 1.042-1.041 3.648-2.19 5.791-2.552s7.029-.175 10.856.415 9.858 2.077 13.401 3.303 7.886 3.59 9.65 5.253c1.846 1.74 3.7 4.847 4.364 7.313.999 3.709.904 4.72-.7 7.476-1.536 2.64-2.534 3.226-5.805 3.416M589 138.593c3.939-.185 8.566-1.197 11.743-2.569 3.536-1.527 5.935-3.385 7.37-5.708 1.678-2.714 2.027-4.51 1.646-8.473-.371-3.864-1.173-5.718-3.46-8.005-1.636-1.636-4.623-3.347-6.637-3.801s-3.662-.601-3.662-.326c0 .276 1.092 1.36 2.428 2.41s2.942 3.471 3.572 5.379.828 4.488.441 5.734-1.612 3.556-2.723 5.133-3.865 3.704-6.12 4.728c-2.253 1.023-5.578 1.871-7.388 1.883s-4.96-.839-7-1.89c-2.04-1.052-5.124-3.415-6.852-5.25-1.728-1.836-4.193-5.363-5.477-7.838-1.838-3.542-2.335-6.097-2.337-12-.002-5.565.555-8.718 2.157-12.22 1.188-2.595 4.23-6.732 6.763-9.193 2.531-2.46 6.95-5.581 9.82-6.936 2.868-1.354 7.466-2.756 10.216-3.114l5-.651-5.79 3.225c-3.186 1.774-8.154 5.512-11.041 8.307s-6.107 6.882-7.154 9.082-2.07 6.7-2.274 10c-.296 4.811.09 6.877 1.945 10.428 1.273 2.435 3.36 5.099 4.637 5.92l2.322 1.492-2.187-4.196c-1.754-3.365-2.108-5.431-1.785-10.42.32-4.945 1.08-7.255 3.697-11.241 1.811-2.76 5.562-6.697 8.336-8.749 2.773-2.051 7.959-4.631 11.523-5.732 4.503-1.39 9.304-2.002 15.727-2.002 5.085 0 10.686.502 12.446 1.116 1.76.613 3.468.847 3.795.52.328-.328-2.748-2.184-6.836-4.125-4.087-1.94-10.79-4.251-14.896-5.134-4.572-.984-12.503-1.627-20.465-1.66-7.15-.03-15.7.476-19 1.124s-9.253 2.723-13.23 4.61c-3.976 1.887-9.47 5.527-12.208 8.088s-5.897 6.554-7.02 8.874c-1.256 2.595-2.042 6.227-2.042 9.435 0 2.869.657 6.788 1.46 8.71.803 1.921 3.668 5.645 6.368 8.275s8.006 6.388 11.79 8.35c3.785 1.964 9.166 4.311 11.957 5.216s7.067 2.063 9.5 2.572c2.434.51 7.35.79 10.925.622m-77.562-3.798c1.684-.526 3.85-1.198 4.812-1.493.962-.294 1.75-.933 1.75-1.419 0-.485-.562-.892-1.25-.902s-3.399-1.368-6.025-3.018-5.67-4.453-6.763-6.23-2.27-4.957-2.615-7.064c-.43-2.615-.896-3.409-1.472-2.5-.465.732-.851 3.776-.86 6.765-.01 3.503.731 6.976 2.084 9.77 1.154 2.385 3.264 4.946 4.688 5.692 1.877.984 3.43 1.094 5.65.4m181.371-1.25c.17-.77-.677-3.69-1.882-6.492-1.303-3.03-3.722-6.307-5.97-8.088-2.08-1.646-5.283-3.62-7.119-4.384s-5.432-1.703-7.991-2.085c-3.132-.467-6.402-.184-10 .866-2.941.857-7.26 2.803-9.597 4.322s-4.25 3.092-4.25 3.495 1.857.077 4.126-.723c2.269-.801 7.455-1.456 11.525-1.456 4.819 0 9.37.693 13.05 1.986 3.109 1.093 7.439 3.225 9.622 4.738 2.184 1.513 4.917 4.206 6.074 5.985 1.292 1.987 2.222 2.695 2.412 1.835M550.592 116c-.892 0-2.513-1.463-3.603-3.25-1.314-2.155-1.983-5.032-1.985-8.54-.003-3.391.753-6.8 2.106-9.5 1.16-2.315 3.27-5.447 4.687-6.96s3.158-2.75 3.868-2.75c.818 0 .216 1.695-1.642 4.625-1.613 2.544-3.429 7.013-4.035 9.932-.805 3.879-.802 6.42.01 9.438.612 2.271 1.361 4.777 1.664 5.568.34.885-.07 1.437-1.07 1.437"/></svg>