<svg xmlns="http://www.w3.org/2000/svg" width="512" height="512" viewBox="196.501 194.5 639.311 723.435"><path fill-rule="evenodd" d="M616.884 917.933c-1.861-.037-5.26-.653-7.553-1.37s-9.004-3.863-14.913-6.99-13.796-7.662-17.527-10.075c-4.107-2.657-7.464-5.691-8.51-7.693-1.242-2.378-1.93-7.09-2.45-16.805-.4-7.425-1.037-15.3-1.417-17.5l-.691-4-11.759-.136c-9.417-.108-12.668-.537-16.327-2.156-2.512-1.112-5.285-3.115-6.162-4.453-.876-1.337-2.458-6.442-3.516-11.343-1.057-4.902-2.617-14.087-3.467-20.412s-2.662-22.3-4.028-35.5-3.183-33-4.038-44-1.815-22.138-2.134-24.75-.92-4.75-1.334-4.75-1.05 6.413-1.412 14.25-1.325 30-2.14 49.25c-.814 19.25-1.976 40.85-2.58 48-.606 7.15-1.479 15.025-1.941 17.5-.463 2.475-1.304 5.716-1.87 7.202s-2.51 3.511-4.322 4.5c-2.847 1.555-5.904 1.798-22.586 1.798-18.49 0-19.31.083-19.698 2-.223 1.1-.582 8.75-.798 17-.29 11.076-.803 15.785-1.963 18-.863 1.65-2.847 4.186-4.409 5.635-1.561 1.45-7.789 5.977-13.839 10.061-6.05 4.085-14.456 8.862-18.68 10.615-4.842 2.01-9.382 3.189-12.283 3.189-2.53 0-6.05-.613-7.82-1.362-1.769-.75-4.024-2.268-5.01-3.376s-2.052-3.616-2.37-5.574c-.407-2.505.042-4.837 1.515-7.874 1.152-2.373 4.468-7.33 7.37-11.018 2.903-3.687 7.833-9.987 10.956-14s8.227-9.989 11.343-13.28c5.12-5.41 5.612-6.31 5.115-9.374-.303-1.864-.757-3.596-1.009-3.848s-3.983-.89-8.292-1.417c-4.31-.527-9.286-1.602-11.059-2.389-2.059-.914-3.467-2.4-3.897-4.115-.37-1.477-.387-8.676-.036-15.999s1.34-19.515 2.195-27.094c.856-7.579 3.619-28.855 6.139-47.28s4.636-35.525 4.702-38l.121-4.5-50-.584c-31.143-.364-51.131-.985-53-1.645-1.65-.584-6.341-2.829-10.425-4.99-6.404-3.39-7.61-4.461-8.763-7.795-.736-2.126-1.779-9.967-2.317-17.426-.537-7.458-.954-38.985-.924-70.06s.405-59.65.836-63.5 1.11-7.746 1.51-8.658c.668-1.525.383-1.54-3.564-.18-2.404.829-5.672 1.22-7.434.889-1.73-.325-3.95-1.48-4.933-2.567-.984-1.087-2.872-4.565-4.197-7.73-1.324-3.165-2.88-8.229-3.456-11.254s-1.165-9.325-1.307-14c-.2-6.595.178-9.543 1.689-13.152 1.07-2.558 3.016-5.656 4.324-6.884 2.055-1.931 3.025-2.138 7.169-1.53 2.636.387 9.517 1.036 15.292 1.443 8.508.598 11.49 1.25 15.713 3.429 2.867 1.48 6.818 4.1 8.779 5.821l3.566 3.13 20.72-5.183c11.397-2.85 25.612-6.486 31.588-8.078s10.944-3.03 11.04-3.195 1.407-1.975 2.913-4.022l2.739-3.721-6.28-3.141c-3.453-1.728-7.117-3.879-8.143-4.78-1.025-.9-2.237-2.611-2.693-3.802-.458-1.2-.406-3.69.117-5.587.52-1.882 2.694-5.92 4.832-8.97 2.138-3.053 9.158-13.813 15.6-23.914 6.442-10.1 12.567-19.583 13.611-21.074 1.044-1.49 1.898-3.107 1.898-3.595 0-.487-.884-1.685-1.964-2.662-1.08-.978-2.714-3.742-3.63-6.142-1.214-3.178-1.482-5.764-.984-9.514.376-2.833 1.792-7.339 3.147-10.012s5.493-8.079 9.197-12.011c3.704-3.933 9.818-9.614 13.586-12.626a743 743 0 0 1 13.5-10.492c3.657-2.758 8.372-6.64 10.48-8.626s4.903-5.42 6.212-7.633 2.883-6.37 3.498-9.238c.887-4.135.788-7.548-.476-16.477-.876-6.194-1.814-12.245-2.082-13.445-.269-1.201-1.405-2.475-2.525-2.83s-3.126-2.298-4.459-4.317c-1.332-2.018-2.944-6.11-3.582-9.094-.895-4.192-.877-6.69.08-11 .681-3.067 2.135-7.343 3.23-9.503s4.299-6.364 7.117-9.344 8.056-7.154 11.64-9.275c4.482-2.654 8.566-4.181 13.09-4.897 5.254-.83 7.75-.733 12.439.489 5.405 1.408 5.939 1.396 6.802-.146.515-.92 2.495-3.399 4.4-5.507s6.01-5.084 9.123-6.613c5.099-2.504 6.703-2.78 16.161-2.78 9.455 0 11.12.286 16.722 2.874 3.99 1.843 8.047 4.803 11.304 8.248 2.795 2.955 6.16 7.736 7.477 10.625s2.864 8.212 3.438 11.83c.573 3.616 1.561 8.116 2.196 10 .634 1.882 1.549 3.932 2.032 4.554s6.097 4.211 12.475 7.975c8.15 4.811 13.143 8.554 16.804 12.6 2.865 3.165 6.47 8.332 8.012 11.48 1.765 3.604 2.985 7.992 3.294 11.842a32.8 32.8 0 0 1-1.21 11.97c-.936 3.219-3.95 10.333-6.698 15.81-3.429 6.831-4.816 10.675-4.422 12.247.317 1.26 1.71 3.638 3.095 5.285s7.029 5.31 12.541 8.142c6.823 3.505 11.867 6.962 15.803 10.833 3.35 3.295 7.012 8.207 8.709 11.685 2.538 5.2 2.928 7.132 2.926 14.5-.002 7.758-.297 9.044-3.382 14.737-1.86 3.43-5.464 8.185-8.01 10.567-2.545 2.38-5.473 4.802-6.506 5.38-1.775.993-1.696 1.32 1.437 5.934 1.823 2.685 6.992 9.832 11.486 15.882s8.915 12.44 9.824 14.2 1.653 4.495 1.653 6.076c0 1.711-.91 3.7-2.25 4.914-1.237 1.12-5.288 3.713-9 5.76s-6.75 4.185-6.75 4.75 1.192 3.22 2.65 5.898 3.595 5.481 4.75 6.23 7.05 2.986 13.1 4.971 19.55 6.148 30 9.25 20.021 6.29 21.27 7.082c2.06 1.308 2.567 1.217 5.5-.98 1.776-1.333 5.255-3.486 7.73-4.787 3.94-2.07 5.933-2.373 16-2.44 6.325-.042 13.876-.423 16.78-.848 3.836-.56 5.71-.414 6.855.536.867.72 2.653 3.744 3.97 6.722 1.87 4.227 2.395 7.154 2.395 13.34 0 4.681-.556 9.03-1.357 10.626-.747 1.485-1.65 4.275-2.006 6.2-.357 1.925-2.072 6.502-3.812 10.172-1.819 3.836-4.176 7.213-5.546 7.946-1.31.702-3.925 1.232-5.81 1.178-1.884-.053-5.568-1.134-8.186-2.401s-6.225-3.9-8.017-5.85c-1.79-1.95-3.259-4.107-3.261-4.795s.725-1.25 1.617-1.25c1.37 0 1.417-.248.304-1.589-.725-.874-1.41-3.378-1.521-5.566-.112-2.187-.47-4.243-.795-4.568s-2.733-.982-5.35-1.46c-2.618-.479-9.26-1.29-14.76-1.805s-27.55-1.622-49-2.461c-21.45-.84-52.95-1.988-70-2.553s-51.25-1.489-76-2.054-82.176-1.301-127.614-1.637c-75.798-.56-82.81-.474-84.973 1.041-1.297.909-1.808 1.652-1.136 1.652s1.223.675 1.223 1.5-.953 2.453-2.118 3.618c-1.627 1.627-1.82 2.303-.83 2.915 1.024.632.941 1.329-.404 3.382-.932 1.422-2.084 2.585-2.562 2.585s-1.029 24.413-1.227 54.25c-.197 29.837-.304 63.925-.236 75.75.067 11.825.599 24.807 1.181 28.848s1.352 7.642 1.71 8c.357.359 43.476.976 95.818 1.371 52.342.396 117.668 1.19 145.168 1.766 27.5.575 65.75 1.724 85 2.553s47.825 1.609 63.5 1.734c15.675.126 30.979-.128 34.009-.564s6.089-1.15 6.799-1.59c1.007-.622 1.5-12.49 2.249-54.207.527-29.376 1.23-64.323 1.563-77.661.333-13.337.892-24.248 1.242-24.245.351.003 1.9 1.015 3.442 2.25 2.596 2.078 2.881 3.026 3.84 12.745.569 5.775 1.094 21.975 1.166 36 .073 14.025-.445 40.35-1.152 58.5s-1.687 37.275-2.18 42.5c-.788 8.342-1.207 9.769-3.439 11.703-1.398 1.212-4.23 2.672-6.29 3.245-2.184.606-15.02 1.03-30.749 1.015-14.85-.014-40.266-.433-56.48-.93-16.215-.498-29.658-.728-29.875-.512-.216.217.328 5.25 1.21 11.187.883 5.935 2.934 19.117 4.56 29.292 1.624 10.175 4.344 28.33 6.043 40.345s3.372 28.077 3.718 35.692c.544 11.962.402 14.195-1.043 16.4-.92 1.404-3.126 3.16-4.903 3.901-1.776.742-7.28 2.127-12.23 3.078-4.95.95-9.788 1.95-10.75 2.223-1.144.324-1.75 1.488-1.75 3.36 0 2.147 1.276 4.07 5.094 7.683 2.802 2.65 10.34 10.825 16.75 18.167s12.893 15.172 14.406 17.4c1.95 2.872 2.75 5.309 2.75 8.367 0 3.352-.658 5.064-2.952 7.677-1.624 1.849-4.713 3.89-6.866 4.534-2.153.645-5.437 1.143-7.298 1.106m2.616-6.588c1.65-.298 4.013-1.183 5.25-1.966 1.61-1.02 2.25-2.389 2.25-4.812 0-2.454-1.083-4.72-3.93-8.227a427 427 0 0 0-7.322-8.749l-3.391-3.908-4.171 3.768c-2.694 2.434-4.743 3.55-5.785 3.15-1.15-.442-1.434-1.334-.988-3.11.344-1.37.424-2.491.177-2.491-.246 0-1.15.704-2.01 1.564-.861.86-2.018 1.283-2.572.94S596 886.036 596 885s.45-2.16 1-2.5 1-1.041 1-1.559-.527-.941-1.171-.941-1.985.736-2.98 1.636c-1.675 1.516-1.855 1.513-2.452-.044-.354-.923-.384-3.286-.065-5.25.548-3.378.483-3.484-1.205-1.957-.981.888-2.285 1.615-2.897 1.615s-1.382-.437-1.712-.97c-.33-.534.098-2.321.951-3.971.854-1.65 2.417-3.463 3.476-4.03 1.058-.566 2.89-1.029 4.073-1.029 1.289 0 1.971-.5 1.705-1.25-.244-.687-1.518-1.123-2.832-.968s-3.963 1.545-5.89 3.088c-1.925 1.543-4.525 3.35-5.777 4.017-1.92 1.022-2.728.89-5.155-.838-1.583-1.127-3.314-2.049-3.848-2.049-.592 0-.781 3.607-.485 9.25.28 5.372 1.069 10.182 1.879 11.472.767 1.223 3.98 3.894 7.14 5.936s10.47 6.2 16.245 9.239 12.525 6.08 15 6.757c2.475.678 5.85.989 7.5.691m-214-3.023c2.2-.246 6.7-1.822 10-3.503 3.3-1.68 8.475-4.682 11.5-6.669s8.5-5.787 12.167-8.444 6.985-5.59 7.374-6.518c.388-.929.94-6.403 1.224-12.166l.517-10.477-3.676 3.227c-2.021 1.776-4.222 3.218-4.89 3.206-.67-.012-2.341-.902-3.716-1.978s-3.274-1.966-4.22-1.978c-1.486-.019-1.384.473.75 3.618 1.359 2.001 2.47 4 2.47 4.44s-.44 1.074-.98 1.407c-.538.333-1.927.098-3.085-.522s-2.375-.858-2.704-.53c-.329.33-.065 1.13.586 1.782.65.65 1.183 1.966 1.183 2.924s-.437 2.011-.972 2.342-2.033-.095-3.33-.945-2.63-1.272-2.964-.939c-.333.334-.167 1.763.37 3.176.538 1.414.74 3.187.452 3.94-.396 1.033-1.008 1.114-2.475.328-1.072-.574-2.204-1.043-2.515-1.043s-.566.9-.566 2-.605 2-1.345 2-2.021-.788-2.848-1.75-1.797-2.575-2.156-3.583c-.358-1.008-1.214-1.65-1.902-1.427-.687.224-3.86 3.749-7.052 7.833-3.192 4.085-6.713 9.162-7.825 11.283l-2.021 3.856 2.199 2.341c1.21 1.287 3.155 2.538 4.324 2.778s3.926.237 6.126-.009M609.028 881c.5 0 .651-.672.336-1.494-.316-.822-.984-1.241-1.485-.931s-.653.982-.336 1.494c.316.512.984.931 1.485.931m-3.322-3c.803 0 1.284-.53 1.068-1.179-.216-.648-1.132-1.644-2.036-2.214-.903-.57-1.953-.726-2.333-.346s-.12 1.377.575 2.215c.696.838 1.922 1.524 2.726 1.524m-191.328-2c.757 0 1.904-.635 2.548-1.411.837-1.008.86-1.604.079-2.086-.601-.371-1.748-.131-2.549.533-.8.665-1.456 1.604-1.456 2.086 0 .483.62.878 1.378.878m183.431-4.015c.38-.009 1.362-.44 2.183-.959 1.16-.733 1.224-1.21.292-2.142s-1.54-.916-2.73.072c-.843.699-1.285 1.67-.984 2.157s.859.88 1.239.872M420.5 869c1.556 0 2.5-.567 2.5-1.5 0-.825-.413-1.5-.918-1.5s-1.63.273-2.5.607-1.582 1.009-1.582 1.5 1.125.893 2.5.893m159.34-3c.768 0 2.934-1.35 4.813-3s3.908-3 4.51-3c.724 0 .865-1.421.419-4.212-.37-2.317-.827-4.366-1.015-4.554-.187-.187-4.216.201-8.954.864L571 853.303v3.157c0 1.737.563 3.853 1.25 4.703s2.363 2.285 3.723 3.19c1.36.906 3.1 1.647 3.867 1.647m-152.002-3.828c.187-.73.108-1.56-.174-1.842s-1.447-.216-2.589.146-2.075 1.047-2.075 1.522 1.012 1.007 2.25 1.182c1.258.18 2.4-.266 2.588-1.008m14.444-2.038c.98-.826 2.628-2.882 3.661-4.568 1.034-1.686 2.032-3.951 2.218-5.033.308-1.789-.544-2.061-9.411-3.009l-9.75-1.041v3.177c0 1.747-.216 3.776-.48 4.508-.309.854 1.756 2.434 5.75 4.4 5.624 2.77 6.403 2.922 8.012 1.566m30.433-22.273c16.41.125 18.307-.034 19.147-1.611.513-.962 1.434-7.6 2.047-14.75s1.56-23.274 2.103-35.832.935-30.557.87-40l-.118-17.168-1.302 9.5c-.716 5.225-2.019 16.925-2.895 26-.877 9.075-2.034 21-2.573 26.5s-1.691 16.525-2.56 24.5c-.87 7.975-1.772 15.472-2.004 16.659-.356 1.821-1.48 2.324-7.176 3.21-3.715.58-10.579 1.458-15.254 1.952-7.866.833-7.141.91 9.715 1.04m138.728-1.876c1.131-.009 2.668-.403 3.416-.877.95-.602 1.179-2.024.76-4.734l-4.176-26.874c-1.967-12.65-5.14-31.55-7.053-42-1.912-10.45-3.686-19.45-3.942-20-.255-.55-.237 3.5.042 9s1.359 16.525 2.4 24.5 2.93 24.962 4.195 37.75c2.184 22.063 2.406 23.25 4.358 23.235m102.608-72.516c-.523.323-1.226-1.113-1.564-3.191s-1.03-4.797-1.536-6.043c-.507-1.245-1.94-2.68-3.186-3.186-1.246-.507-3.965-1.198-6.043-1.536s-3.55-.982-3.272-1.432 2.363-1.115 4.633-1.478c2.534-.405 5.19-1.721 6.875-3.408 1.876-1.876 2.995-4.325 3.526-7.72.686-4.385.875-4.678 1.593-2.475.449 1.375 1.294 4.366 1.88 6.646.904 3.521 1.667 4.387 5.074 5.75 2.205.882 4.9 1.604 5.99 1.604 1.088 0 1.979.43 1.979.955s-1.687 1.228-3.75 1.563-4.786 1.032-6.052 1.548-2.954 2.498-3.75 4.404-1.448 4.354-1.448 5.44-.427 2.237-.95 2.56M288.07 746c-.414 0-1.316-2.517-2.004-5.592-.689-3.076-2.043-6.384-3.01-7.352-.968-.967-4.077-2.066-6.908-2.442s-5.149-1.132-5.149-1.68.563-1.158 1.25-1.355 3.32-1.095 5.851-1.995c2.86-1.017 5.006-2.523 5.67-3.98.587-1.289 1.38-4.433 1.764-6.986.382-2.553 1.08-4.88 1.551-5.171.47-.29 1.139.727 1.485 2.262s1.052 4.48 1.569 6.544 1.933 4.403 3.15 5.2c1.215.795 4.132 1.753 6.482 2.128s4.498 1.046 4.773 1.492c.276.446-2.263 1.586-5.642 2.534-5.206 1.46-6.337 2.195-7.411 4.808-.698 1.697-1.583 4.998-1.968 7.335s-1.039 4.25-1.453 4.25m32.953-14c-.996 0-2.017-.562-2.27-1.25s-.263-1.812-.023-2.5 1.25-1.25 2.245-1.25 2.017.563 2.27 1.25.263 1.813.023 2.5-1.25 1.25-2.245 1.25m434.66-.079c-.1-.043-.859-.327-1.684-.63-.825-.304-2.288-1.238-3.25-2.076-.992-.864-1.75-2.926-1.75-4.76 0-1.778.83-4.258 1.844-5.51 1.211-1.497 2.923-2.278 4.987-2.278 1.729 0 4.004.779 5.056 1.731s2.125 2.539 2.383 3.525-.127 3.21-.856 4.943c-.733 1.744-2.489 3.592-3.934 4.142-1.436.545-2.693.956-2.795.913m.876-4.921c1.224 0 2.485-.675 2.802-1.5.316-.825.33-2.14.03-2.923s-1.244-1.69-2.096-2.017-2.167-.082-2.923.545c-.755.627-1.373 1.91-1.373 2.85 0 .942.3 2.012.667 2.378.366.367 1.668.667 2.893.667m-520.895-21c-1.246 0-2.805-.54-3.465-1.2s-1.2-2.145-1.2-3.3.54-2.64 1.2-3.3 2.245-1.2 3.521-1.2c1.473 0 2.717.868 3.403 2.374.785 1.722.77 2.956-.056 4.5-.647 1.207-2.117 2.126-3.403 2.126m570.585-24.244c-.854.28-1.25-.803-1.249-3.423 0-2.108.448-14.408.995-27.333s1.143-36.074 1.326-51.442c.218-18.306.694-28.063 1.38-28.292.577-.192 1.345.907 1.706 2.442.362 1.536.92 15.617 1.24 31.292.338 16.552.12 36.465-.522 47.5-.607 10.45-1.672 21.215-2.365 23.923s-1.823 5.108-2.511 5.333M775.264 670c-1.396 0-1.502-1.8-.927-15.75.357-8.663.95-29.813 1.317-47 .499-23.308.974-31.25 1.871-31.25.673 0 1.483 2.044 1.84 4.64.349 2.551.627 18.189.618 34.75-.01 16.56-.458 34.385-.997 39.61-.54 5.225-1.242 10.737-1.562 12.25-.337 1.591-1.247 2.75-2.16 2.75m-25.28-3.235c-1.285.247-1.394-1.714-.806-14.49.374-8.126.93-19.95 1.235-26.275s.562-15.888.57-21.25c.014-7.68.314-9.75 1.416-9.75 1.086 0 1.553 2.746 2.085 12.25.377 6.737.175 21.025-.45 31.75s-1.458 21.295-1.85 23.49c-.414 2.309-1.34 4.109-2.2 4.275M210.31 658c-1.184 0-1.4-.742-.948-3.25.321-1.788 1.027-13.825 1.568-26.75a16035 16035 0 0 0 1.633-40.25c.357-9.212.999-16.75 1.426-16.75s1.048 1.013 1.38 2.25.608 14.4.616 29.25c.007 14.85-.449 31.95-1.012 38-.564 6.05-1.498 12.462-2.077 14.25-.582 1.797-1.738 3.25-2.586 3.25m29.29-.162c-1.643.317-1.762-.214-1.232-5.494.323-3.214.815-10.119 1.094-15.344s.751-16.475 1.05-25c.298-8.525.643-22.587.765-31.25.155-11.017.565-15.75 1.365-15.75.629 0 1.416.712 1.75 1.582s.603 13.807.597 28.75c-.005 14.942-.475 33.468-1.044 41.168s-1.37 15.572-1.78 17.494c-.471 2.21-1.414 3.623-2.565 3.844m25.281.162c-.856 0-.997-2.86-.53-10.75.35-5.913 1.126-24.475 1.725-41.25s1.301-30.711 1.56-30.97.89.19 1.402.999c.514.812.937 13.568.945 28.471.008 14.85-.444 31.83-1.004 37.734s-1.448 11.867-1.974 13.25c-.526 1.384-1.482 2.516-2.124 2.516M667 628.37c-2.475.3-6.525-.002-9-.67-4.33-1.17-4.49-1.347-4.214-4.693.157-1.913.613-3.806 1.013-4.206s2.522-.09 4.714.692c2.193.78 4.688 1.439 5.546 1.463.857.024 2.432-.603 3.5-1.395 1.718-1.273 1.768-1.6.441-2.84-.825-.77-3.57-2.16-6.1-3.086-2.529-.927-5.62-2.772-6.868-4.101-1.635-1.74-2.253-3.574-2.212-6.556.031-2.278.744-5.19 1.583-6.47.84-1.281 3.162-2.87 5.16-3.529 2-.66 6.514-1.016 10.033-.792 3.52.224 6.84.85 7.381 1.39.644.644.635 2.245-.027 4.64-.966 3.499-1.136 3.614-3.898 2.651-1.59-.554-4.388-.863-6.22-.687-2.493.239-3.332.797-3.332 2.217 0 1.407 1.37 2.344 5.305 3.627 2.917.95 6.405 2.763 7.75 4.026 1.781 1.674 2.445 3.354 2.445 6.19 0 2.14-.444 4.72-.987 5.735s-2.456 2.746-4.25 3.847-5.288 2.247-7.763 2.546m-28-.387c-1.925.005-4.974-.889-6.775-1.987s-3.714-3.151-4.25-4.562c-.536-1.41-.975-6.554-.975-11.43 0-8.432-.11-8.88-2.25-9.184-1.905-.271-2.25-.933-2.25-4.32 0-3.6.27-4.031 2.695-4.311 2.39-.276 2.73-.786 3-4.5l.305-4.189 4.75-.305 4.75-.305V592h8v9h-7.767l-.461 6.75c-.254 3.712-.092 7.763.359 9 .632 1.735 1.602 2.25 4.237 2.25 2.194 0 3.635.566 4.025 1.582.334.87.607 2.617.607 3.883 0 1.542-.743 2.5-2.25 2.905-1.237.331-3.825.607-5.75.613m-62.461-1.022c-1.122-.022-3.389-.64-5.039-1.373s-3.983-2.403-5.183-3.71c-1.201-1.308-2.664-3.645-3.25-5.193-.587-1.548-1.06-5.373-1.05-8.5.011-4.028.671-6.842 2.265-9.655 1.237-2.184 3.817-5.03 5.733-6.326 2.665-1.802 4.426-2.249 7.485-1.901 2.2.25 4.993.78 6.206 1.18 2.134.704 2.216.471 2.5-7.128l.294-7.855 4.75-.305 4.75-.305v9.896c0 5.443-.295 16.718-.656 25.055L594.688 626h-3.876c-2.35 0-4.08-.537-4.398-1.364-.424-1.106-1.218-1.01-4.18.5-2.011 1.025-4.574 1.846-5.695 1.825M486 625.46c-.825.157-3.217-.04-5.315-.44s-4.995-1.609-6.438-2.686-3.537-3.183-4.654-4.679c-1.458-1.953-2.122-4.615-2.352-9.438-.264-5.552.078-7.412 1.974-10.718 1.477-2.577 3.893-4.823 6.79-6.314 3.627-1.867 5.7-2.244 10.742-1.953 3.436.199 6.726.84 7.31 1.424.75.75.66 2.049-.305 4.416-1.307 3.202-1.578 3.34-6.032 3.066-3.875-.238-5.091.141-7.192 2.242-1.933 1.933-2.528 3.557-2.528 6.9 0 3.384.572 4.907 2.532 6.75 2.079 1.952 3.513 2.356 8 2.25 4.491-.105 5.47.171 5.482 1.546.007.92.277 2.657.6 3.859.51 1.904.09 2.27-3.264 2.837-2.118.359-4.525.78-5.35.938m57 .511c-2.475-.009-6.343-.853-8.595-1.876-2.534-1.15-5.007-3.334-6.485-5.726-1.817-2.94-2.393-5.303-2.405-9.868-.01-4.032.641-7.31 1.985-9.989 1.1-2.193 3.513-4.994 5.362-6.225 1.849-1.232 4.941-2.536 6.872-2.898 2.418-.453 4.952-.07 8.139 1.234 3.679 1.504 5.095 2.812 6.91 6.384 1.595 3.138 2.198 5.848 2 8.992l-.283 4.5-10.25.285c-7.639.212-10.25.619-10.25 1.595 0 .72.788 2.02 1.75 2.887s2.89 1.861 4.283 2.209c1.393.347 4.439.203 6.77-.32 3.668-.824 4.367-.706 5.216.88.54 1.008.981 2.74.981 3.851 0 1.481-.999 2.296-3.75 3.06-2.062.573-5.775 1.034-8.25 1.025m67 .028h-5l.005-7.25c.003-3.987.296-11.638.651-17l.646-9.75H615v34zm-218.256-1.386c-2.334.201-5.36-.103-6.723-.677-1.364-.573-3.325-1.806-4.357-2.74-1.032-.933-2.807-3.497-3.944-5.697-1.579-3.057-2.069-5.886-2.077-12-.006-4.4.565-10.009 1.27-12.464.763-2.664 2.805-5.99 5.065-8.25 3.46-3.458 4.26-3.786 9.256-3.786 4.001 0 6.383.605 8.868 2.251 1.886 1.25 4.466 4.405 5.798 7.092 1.943 3.918 2.4 6.396 2.4 13.015 0 6.043-.53 9.373-2.031 12.767-1.117 2.526-3.663 5.836-5.657 7.357-2.278 1.738-5.201 2.901-7.868 3.132m37.69.384c-1.614 0-4.5-.788-6.414-1.75-1.914-.961-4.475-3.238-5.692-5.06-1.216-1.821-2.739-5.851-3.383-8.955s-.89-8.044-.545-10.978 1.574-7.348 2.73-9.81c1.158-2.462 3.364-5.373 4.903-6.469 1.54-1.096 4.17-2.267 5.847-2.602s4.627-.314 6.555.048 4.838 1.778 6.465 3.147c1.732 1.458 3.686 4.654 4.714 7.71 1.114 3.311 1.711 7.913 1.634 12.581-.094 5.73-.697 8.538-2.724 12.68-2.044 4.178-3.52 5.764-6.879 7.39-2.352 1.138-5.597 2.07-7.21 2.068M506 625h-5v-12.86c0-7.074.286-14.949.636-17.5.632-4.61.661-4.64 4.5-4.64 3.197 0 3.864.345 3.864 2 0 1.1.308 2 .686 2 .377 0 1.662-.918 2.856-2.04s3.81-2.305 5.815-2.63c3.487-.566 3.642-.468 3.63 2.29-.008 1.584-.263 3.807-.568 4.94-.378 1.409-1.94 2.432-4.934 3.233-3.86 1.032-4.506 1.62-5.428 4.94-.575 2.072-1.048 7.48-1.051 12.017L511 625zm-156.21-1.116c-3.46-.064-7.19-.332-8.29-.597s-2.384-.844-2.854-1.288-.538-2.681-.15-4.972c.566-3.353 1.025-4.03 2.354-3.477.907.379 3.337 1.14 5.4 1.69 2.731.73 4.574.661 6.788-.256 1.671-.692 3.509-2.137 4.084-3.212.744-1.39.702-2.783-.146-4.83-.655-1.581-2.069-3.154-3.142-3.495-1.073-.34-4.062-.347-6.642-.014s-5.302.203-6.048-.289c-1.116-.735-1.16-2.693-.25-11.058.608-5.59 1.106-10.836 1.106-11.656 0-1.256 1.933-1.447 12.25-1.21l12.25.28v8l-8.25.29-8.25.29v3.46c0 3.331.14 3.46 3.75 3.462 2.063 0 5.325.788 7.25 1.75 2.002 1 4.248 3.246 5.248 5.248.962 1.925 1.75 4.98 1.75 6.79.001 1.81-.904 5.066-2.011 7.236a13.8 13.8 0 0 1-5.96 5.96c-2.83 1.444-5.728 1.981-10.237 1.898M580 617.938c.825-.001 2.288-.6 3.25-1.33 1.394-1.058 1.75-2.86 1.75-8.861 0-5.947-.333-7.66-1.582-8.14-.87-.334-2.637-.607-3.927-.607-1.343 0-3.232 1.126-4.418 2.635-1.425 1.811-2.068 4.078-2.058 7.25.009 2.538.346 5.103.75 5.7s1.635 1.596 2.735 2.22 2.675 1.134 3.5 1.133m-148.917-1.982c1.043-.558 2.576-2.33 3.407-3.936.958-1.853 1.51-5.698 1.51-10.52 0-4.714-.556-8.674-1.463-10.428-.805-1.557-2.191-3.11-3.082-3.45-.89-.342-2.021-.622-2.514-.622s-1.61 1.09-2.483 2.424c-.874 1.333-1.984 5.22-2.467 8.64-.493 3.488-.503 8.224-.023 10.795.51 2.727 1.738 5.294 3.037 6.346 1.646 1.333 2.646 1.517 4.078.75M390.37 616c1.275 0 3.11-.874 4.076-1.942 1.025-1.132 2.06-4.504 2.483-8.092.398-3.383.424-8.133.057-10.554-.368-2.421-1.485-5.305-2.483-6.407S391.93 587 391 587s-2.547.946-3.595 2.103c-1.519 1.677-1.974 3.982-2.247 11.371-.262 7.1.036 10.001 1.276 12.397 1.106 2.14 2.35 3.129 3.937 3.129m151.379-12.2c5.111-.267 5.715-.522 5.43-2.3-.175-1.1-1.048-2.562-1.94-3.25-.892-.687-2.436-1.25-3.431-1.25s-2.709.9-3.809 2-2 2.697-2 3.55c0 1.255 1.094 1.493 5.75 1.25M611 587c-1.1 0-2.9-.9-4-2s-2-2.814-2-3.809.563-2.524 1.25-3.399c.688-.874 2.192-1.868 3.343-2.209 1.348-.398 3.038.126 4.75 1.472 1.461 1.15 2.657 2.957 2.657 4.018s-.9 2.827-2 3.927-2.9 2-4 2m220.721-39c-1.276 0-2.861-.54-3.521-1.2s-1.2-2.245-1.2-3.521c0-1.517.882-2.724 2.542-3.48 2.178-.992 2.85-.852 4.68.979s1.971 2.502.98 4.68c-.757 1.66-1.964 2.542-3.48 2.542m-83.542-6.027c1.473.015 3.385-.68 4.25-1.544.864-.865 1.571-1.912 1.571-2.327s-1.237-.577-2.75-.36c-1.513.218-4.55-.047-6.75-.59s-5.462-1.441-7.25-1.999c-1.788-.557-3.25-.66-3.25-.23 0 .432 2.587 2.188 5.75 3.904s6.955 3.132 8.429 3.146m-538.03-5.565c-.469.29-1.381-1.24-2.028-3.399s-1.607-4.191-2.133-4.517c-.527-.325-2.877-.95-5.223-1.39l-4.265-.798 4.606-2.054c2.533-1.13 4.895-2.81 5.25-3.734.354-.924.644-2.966.644-4.539s.403-3.108.895-3.412c.493-.305 1.168.156 1.5 1.023s.605 2.369.605 3.339.844 2.527 1.876 3.46c1.032.935 3.498 1.962 5.48 2.283 1.982.322 3.383.943 3.113 1.38-.27.438-1.836 1.091-3.48 1.452-1.642.361-3.662 1.62-4.488 2.8-.825 1.179-1.501 3.366-1.501 4.861 0 1.496-.383 2.956-.852 3.245m540.111-3.826c2.838-.173 5.564-1.018 6.75-2.091 1.095-.99 1.988-2.069 1.987-2.396-.002-.327-5.627-.65-12.5-.718s-12.497.201-12.497.598 1.688 1.443 3.75 2.326 4.65 1.822 5.75 2.088c1.1.265 4.142.352 6.76.193m-468.206-6.645c.854.034 3.855-1.084 6.667-2.485 2.813-1.402 5.617-3.154 6.231-3.894.934-1.126.497-1.125-2.668.004-2.081.743-6.807 1.37-10.503 1.394-5.708.037-6.627.282-6.11 1.628.334.87 1.557 1.967 2.718 2.436 1.161.47 2.81.882 3.665.917M748 522.822c5.926.135 8.182-.245 10.75-1.811 2.51-1.53 3.25-2.668 3.25-4.996 0-1.658-.18-3.015-.398-3.015s-2.356 1.12-4.75 2.488c-3.702 2.116-5.636 2.49-12.947 2.5-7.223.01-8.875.321-10.349 1.95-1.706 1.885-1.636 1.948 2.595 2.325 2.392.213 7.724.465 11.849.559m-463.5-6.425c2.2-.266 5.688-.986 7.75-1.599s3.75-1.493 3.75-1.956-4.163-.858-9.25-.877c-6.127-.024-10.094-.518-11.75-1.465-1.375-.786-2.837-1.445-3.25-1.465s-.75.81-.75 1.843.678 2.44 1.506 3.127c.829.688 2.966 1.616 4.75 2.063s5.044.595 7.244.329m445-.566c.55.054 2.125-.545 3.5-1.331 1.63-.932 5.565-1.441 11.316-1.465 4.848-.02 9.798-.541 11-1.16s3.197-2.047 4.434-3.174c1.297-1.182 2.25-3.221 2.25-4.816 0-1.522-.487-3.068-1.081-3.435-.595-.368-2.282.45-3.75 1.819-1.468 1.367-3.652 2.992-4.853 3.609-1.202.617-3.313 1.122-4.691 1.122-1.379 0-2.808-.486-3.175-1.081-.377-.61-1.77-.804-3.196-.447-1.39.35-4.021 1.774-5.847 3.167s-3.79 2.242-4.364 1.888-1.043-1.21-1.043-1.899 1.237-2.434 2.75-3.877 4.017-3.102 5.565-3.687 4.248-1.068 6-1.074c1.752-.005 5.613-1.14 8.58-2.521 2.968-1.381 5.218-2.67 5-2.864s-7.145-.033-15.395.358c-10.344.49-16.188 1.222-18.827 2.355-2.105.905-5.842 3.004-8.304 4.666-4.41 2.976-4.548 3-9.173 1.59-2.583-.787-10.321-3.063-17.196-5.058s-19.025-5.668-27-8.163-16.38-5.62-18.678-6.945c-2.298-1.324-4.557-2.408-5.02-2.408s-3.532 2.02-6.822 4.49c-3.289 2.469-6.317 4.494-6.73 4.5-.413.005-.75-.395-.75-.89 0-.496 2.9-3.254 6.443-6.13 5.786-4.693 6.287-5.383 4.912-6.758-.842-.842-2.592-3.211-3.888-5.265l-2.357-3.733-14.055 6.933c-7.73 3.813-14.053 7.027-14.05 7.143s1.087 5.307 2.41 11.536c1.322 6.23 2.557 11.477 2.744 11.662.188.184 10.016.835 21.841 1.445s32.975 1.796 47 2.635c14.025.84 29.44 1.96 34.257 2.49s11.117 1.799 14 2.82c2.884 1.02 5.693 1.9 6.243 1.953M800.655 514c-.74 0-2.172-.914-3.182-2.03-1.454-1.606-1.639-2.6-.887-4.75.654-1.871 1.764-2.815 3.557-3.024 1.435-.168 3.336.426 4.231 1.321.894.894 1.626 2.269 1.626 3.054 0 .786-.9 2.329-2 3.429s-2.605 2-3.345 2m-512.905-7.04c6.523.026 10.25-.342 10.25-1.011 0-.578-1.56-1.703-3.468-2.5S288.821 502 286.08 502s-6.244-.547-7.782-1.216-4.26-2.297-6.047-3.619l-3.25-2.402v2.684c0 1.476.485 3.592 1.079 4.7.593 1.109 2.506 2.637 4.25 3.395 1.99.866 6.99 1.394 13.421 1.419m21.75-5.416c4.4-.266 31.063-.795 59.25-1.174s51.25-.868 51.25-1.087c0-.22.935-4.912 2.079-10.429 1.143-5.517 1.93-10.137 1.75-10.266-.181-.13-2.698-1.665-5.594-3.412s-5.546-3.176-5.89-3.176-1.158.73-1.811 1.623c-.737 1.007-1.919 1.39-3.12 1.009-1.062-.338-4.383-2.228-7.38-4.201-5.167-3.404-5.516-3.494-6.813-1.76-.752 1.006-1.8 2.617-2.33 3.579-.67 1.22-.605 1.75.216 1.75.648 0 3.588 2.06 6.535 4.577s5.358 4.993 5.358 5.5c0 .508-.39.923-.868.923s-3.74-2.206-7.25-4.901l-6.382-4.902-9 2.967c-4.95 1.632-20.219 5.831-33.93 9.332l-24.93 6.365-4.878-4.385c-2.683-2.412-7.365-5.603-10.406-7.09-4.482-2.193-7.549-2.837-16.192-3.403-5.865-.383-11.457-1.036-12.425-1.451-1.302-.558-1.617-.377-1.206.692.305.796 2.039 2.155 3.852 3.02 1.814.865 5.876 1.895 9.027 2.288 3.903.488 6.674 1.511 8.695 3.211 1.63 1.372 3.624 3.77 4.429 5.326.805 1.558 1.464 3.079 1.464 3.381 0 .303-.487.55-1.082.55s-3.003-1.575-5.353-3.5-4.986-3.5-5.859-3.5-1.866.45-2.206 1-1.604.998-2.809.996-3.541-.836-5.191-1.855c-1.65-1.018-4.225-3.09-5.722-4.604l-2.722-2.754-1.231 2.702c-1.009 2.213-.963 3.178.252 5.343.816 1.453 3.246 3.631 5.402 4.84 2.466 1.384 6.619 2.452 11.201 2.881 4.213.395 8.66 1.483 10.551 2.581 2.711 1.575 4.635 1.816 11.269 1.414M257.571 465c-.785 0-2.135-.707-3-1.571-.864-.865-1.571-2.37-1.571-3.345s.823-2.519 1.829-3.429 2.51-1.655 3.345-1.655c.834 0 2.26.823 3.171 1.829.91 1.006 1.655 2.356 1.655 3s-.9 2.071-2 3.171-2.643 2-3.429 2m531.77-1.28c-.636.212-1.45-.088-1.808-.667s-.373-1.503-.033-2.053 1.3-1 2.132-1c.876 0 1.378.703 1.191 1.667-.178.917-.844 1.84-1.481 2.053m-48.294-19.385c-.45.46-1.544-1.228-2.432-3.75l-3.249-9.22c-.899-2.548-2.811-5.935-4.25-7.527-2.02-2.235-3.98-3.113-8.616-3.86-3.3-.531-8.362-.969-11.25-.972-3.535-.004-5.247-.414-5.242-1.256.005-.687 3.68-2.813 8.167-4.724s9.658-4.89 11.492-6.618l3.333-3.144v-12.132c0-6.673.4-12.132.89-12.132.489 0 2.803 4.482 5.142 9.96 2.339 5.477 5.2 10.85 6.36 11.938 1.16 1.09 4.133 2.446 6.608 3.017s7.96 1.047 12.191 1.06c4.23.014 7.964.467 8.299 1.008s-4.546 3.414-10.845 6.385c-7.131 3.364-11.9 6.24-12.64 7.623-.654 1.22-1.628 7.01-2.165 12.864s-1.344 11.02-1.793 11.48M822.619 438c-1.78 0-3.992-.562-4.914-1.25-.923-.687-1.944-2.607-2.27-4.266-.433-2.207-.015-3.748 1.56-5.75 1.58-2.008 3.04-2.734 5.505-2.734 2.433 0 3.924.724 5.427 2.635 1.14 1.449 2.073 3.413 2.073 4.365s-.933 2.916-2.073 4.365c-1.476 1.877-3.003 2.635-5.308 2.635m-599.616-3c-.455 0-1.122-1.913-1.483-4.25-.36-2.337-1.289-6.53-2.063-9.318-.937-3.374-2.167-5.454-3.682-6.226-1.251-.637-5.602-2.059-9.667-3.158-4.066-1.1-7.629-2.235-7.917-2.524a.747.747 0 0 1 .005-1.053c.29-.29 4.438-1.605 9.217-2.92 4.778-1.314 9.267-2.87 9.975-3.458s1.78-2.762 2.382-4.831 1.633-6.574 2.292-10.012c.66-3.437 1.558-6.25 1.997-6.25s1.31 2.587 1.935 5.75c.624 3.163 1.832 7.932 2.684 10.598 1.264 3.958 2.186 5.115 5.023 6.3 1.911.8 6.023 1.916 9.137 2.483s6.045 1.4 6.513 1.85.018 1.052-1 1.336c-1.018.283-5.395 1.535-9.727 2.782-6.23 1.793-8.227 2.844-9.553 5.025-.923 1.517-2.48 6.16-3.46 10.317S223.457 435 223.003 435m601.135-1.074c1.024-.548 1.855-1.543 1.847-2.211s-.4-1.822-.87-2.563-1.652-1.192-2.628-1c-.975.191-2.27 1.162-2.88 2.157-.883 1.442-.725 2.092.781 3.21 1.353 1.006 2.416 1.121 3.75.407M295.531 423c-1.45 0-3.718-1.096-5.076-2.455-1.353-1.352-2.455-3.626-2.455-5.065 0-1.436.517-3.594 1.15-4.796.632-1.201 1.645-2.515 2.25-2.919s2.718-.741 4.695-.75c2.219-.01 4.224.68 5.238 1.8.904 1 1.926 3.231 2.272 4.96.524 2.622.124 3.65-2.411 6.185-1.841 1.841-4.074 3.04-5.663 3.04m-.098-5c1.373 0 2.924-.8 3.447-1.776.603-1.126.598-2.406-.014-3.5-.531-.948-1.827-1.724-2.88-1.724-1.054 0-2.416.935-3.028 2.078s-.866 2.718-.566 3.5S294.06 418 295.433 418m502.988-34.03c-.506-.017-1.709-.49-2.671-1.05s-1.743-2.01-1.735-3.22.346-2.702.75-3.315c.404-.614 1.7-1.416 2.88-1.784 1.376-.43 2.72-.093 3.75.936.883.883 1.605 2.404 1.605 3.38 0 .975-.823 2.518-1.829 3.428s-2.243 1.641-2.75 1.625m-282.747-2.106c1.745.075 5.448-.389 8.227-1.03 4.767-1.1 5.014-1.314 4.361-3.75-.38-1.421-.66-6.186-.62-10.589.04-4.402.839-10.638 1.775-13.857.936-3.22 1.537-6.018 1.335-6.219s-1.942.705-3.868 2.014-6.55 3.997-10.276 5.973c-4.49 2.383-8.111 3.594-10.74 3.594-2.182 0-5.407-.725-7.168-1.612-1.76-.887-4.563-2.903-6.228-4.481l-3.028-2.87-7.432 3.025c-4.088 1.664-7.586 3.179-7.774 3.367s1.856 2.983 4.542 6.21c2.686 3.228 8.03 7.98 11.875 10.56s9.227 5.572 11.96 6.65c2.732 1.076 6.074 2.164 7.426 2.418 1.353.253 3.887.522 5.633.597m-104.815-2.277c.475-.293 1.095-3.422 1.378-6.953.304-3.787 1.462-8.314 2.823-11.04 1.269-2.54 5.271-7.544 8.894-11.12s9.867-8.937 13.877-11.916c4.01-2.978 9.278-7.247 11.707-9.487 2.43-2.239 3.811-4.071 3.07-4.071-.74 0-6.917 4.138-13.727 9.195S423.575 346.347 420 349.961c-3.575 3.613-7.738 9.044-9.25 12.069-1.512 3.024-2.75 7.15-2.75 9.17 0 2.018.45 4.851.998 6.295.55 1.444 1.387 2.385 1.861 2.092m229.21.413c.447 0 1.068-.412 1.38-.916.31-.504.08-3.182-.514-5.951-.636-2.964-2.53-6.934-4.605-9.652-1.94-2.54-3.708-4.436-3.93-4.214-.223.223.938 2.84 2.579 5.819 1.64 2.978 3.275 7.551 3.63 10.164.357 2.613 1.014 4.75 1.46 4.75m-382.426-14.758c-1.934 3.992-3.557 7.033-3.605 6.758s-.278-3.58-.51-7.344-1.102-7.884-1.934-9.153c-.833-1.272-4.224-3.36-7.553-4.65-3.323-1.289-6.041-2.63-6.041-2.981 0-.352 3.037-.963 6.75-1.358s7.586-1.165 8.608-1.71 3.487-4.436 5.477-8.647l3.619-7.657.588 7.264c.408 5.037 1.211 8.103 2.62 10 1.205 1.623 4.23 3.516 7.435 4.654 2.971 1.054 5.59 2.067 5.82 2.25.229.182.164.584-.144.892s-3.569.987-7.246 1.507c-3.677.521-7.514 1.39-8.526 1.933-1.013.541-3.424 4.25-5.358 8.242m45.699.478c-.637.212-1.452-.088-1.81-.667-.357-.58-.372-1.503-.032-2.053s1.3-1 2.132-1c.876 0 1.378.703 1.191 1.667-.178.917-.844 1.84-1.481 2.053M604.624 364c.728 0-.726-2.05-3.23-4.554s-5.511-6.667-6.682-9.25c-1.412-3.117-2.128-6.714-2.128-10.696 0-4.03.718-7.584 2.185-10.826 1.36-3.004 1.722-4.675.958-4.426-.675.22-2.284 2.298-3.576 4.619-1.384 2.487-2.57 6.664-2.888 10.173-.48 5.29-.18 6.688 2.691 12.518 2.197 4.463 4.53 7.504 7.289 9.503 2.231 1.616 4.653 2.939 5.38 2.939m-44.446-17.035c.38-4.145 1.616-10.011 2.748-13.036s3.299-7.372 4.816-9.658c1.517-2.287 4.258-5.983 6.092-8.214s2.895-4.057 2.358-4.057-3.179 1.98-5.871 4.402c-2.693 2.42-6.11 6.63-7.592 9.355-1.483 2.724-3.42 7.78-4.306 11.235-1.068 4.17-1.377 7.834-.919 10.895.38 2.537.982 5.063 1.338 5.613s.957-2.39 1.336-6.535m-97.678-2.027c.55.024 3.314-1.284 6.143-2.907 2.83-1.622 6.092-4.483 7.25-6.358S478 331.77 478 331.169c0-.603-2.587 1.502-5.75 4.678-3.163 3.175-6.875 6.51-8.25 7.41s-2.05 1.657-1.5 1.681m51.2-.005c.661.037 3.361-.402 6-.976 2.64-.573 6.96-2.619 9.6-4.546 2.79-2.035 6.601-6.311 9.1-10.207 2.366-3.687 5.042-8.729 5.947-11.204s2.358-7.645 3.227-11.49c.87-3.844 1.937-12.844 2.373-20 .436-7.155.57-15.597.299-18.76l-.494-5.75-4.126-.008c-2.27-.004-7.051-.47-10.626-1.037-3.575-.566-8.882-2.222-11.794-3.678-2.911-1.457-7.046-4.55-9.187-6.872-2.142-2.324-5.117-6.628-6.612-9.565l-2.719-5.34-1.87 5.5c-1.03 3.025-3.577 7.975-5.661 11-2.155 3.127-6.717 7.657-10.575 10.5l-6.786 5 .52 19c.338 12.347 1.073 21.2 2.098 25.281.868 3.455 2.545 8.18 3.728 10.5s3.647 6.178 5.475 8.573 5.335 5.923 7.795 7.839 6.41 4.089 8.78 4.828c2.37.74 4.848 1.375 5.509 1.412m.149-21.973c-1.842-.022-4.575-.706-6.074-1.519s-3.202-2.37-3.785-3.46-.84-1.981-.57-1.981 2.149 1.125 4.175 2.5 4.79 2.5 6.143 2.5 3.928-.697 5.722-1.548 3.852-2.764 4.571-4.25c1.026-2.118 1.394-2.335 1.702-1.004.216.933-.07 2.562-.635 3.62-.566 1.056-2.575 2.655-4.465 3.552-1.89.896-4.942 1.612-6.784 1.59M511.976 308c-.415 0-1.726-.788-2.914-1.75-2.141-1.734-2.146-1.83-.611-10.631.852-4.885 1.549-12.01 1.549-15.833 0-5.116.33-6.843 1.25-6.539.838.278 1.344 3.222 1.537 8.937.158 4.688-.139 11.177-.66 14.42-.548 3.423-.573 6.285-.06 6.822.538.562 1.614.267 2.738-.75 1.019-.922 2.155-1.676 2.524-1.676s.671.642.671 1.427c0 .786-1.186 2.36-2.635 3.5s-2.974 2.073-3.39 2.073M536 304c-.55 0-1-.45-1-1s.45-1 1-1 1 .45 1 1-.45 1-1 1m73.373-4.973c.653-.653 1.127-4.576 1.127-9.327 0-6.737-.445-9.092-2.493-13.2-1.372-2.75-5.026-7.475-8.12-10.5-3.096-3.025-9.399-7.72-14.008-10.431-4.608-2.712-9.824-6.015-11.59-7.339s-3.484-3.268-3.817-4.319-1.003-1.911-1.487-1.911-.43 1.295.122 2.877c.552 1.583 1.99 3.765 3.198 4.849 1.207 1.083 6.16 4.336 11.008 7.227s11.202 7.59 14.121 10.44 6.35 7.19 7.623 9.645c1.785 3.443 2.413 6.593 2.75 13.79.325 6.92.73 9.036 1.566 8.2M497 299c-.55 0-1-.423-1-.941s.45-1.22 1-1.559c.55-.34 1 .084 1 .941s-.45 1.559-1 1.559m-4.15-1.517c-.284.284-.817.217-1.183-.15-.367-.366-.667-1.131-.667-1.7 0-.626.466-.567 1.183.15.651.651.951 1.416.667 1.7m39.21.517c-.4 0-1.014-.288-1.366-.64-.352-.351-.4-1.026-.108-1.5.293-.473 1.166-.86 1.942-.86.842 0 1.178.604.834 1.5-.317.825-.903 1.5-1.302 1.5m6.44-1c-.917 0-1.505-.484-1.308-1.075s.785-1.075 1.308-1.075 1.111.484 1.308 1.075S539.417 297 538.5 297m-38.628-2.214c-.988.19-1.852-.58-2.23-1.988-.338-1.264-.62-3.705-.628-5.426-.008-1.72.684-3.706 1.536-4.414 1.277-1.06 1.828-1.009 3.125.288 1.27 1.271 1.404 2.505.692 6.402-.578 3.167-1.437 4.934-2.495 5.138m58.337-2.858c1.578-1.886 3.141-4.504 3.474-5.818.332-1.315.202-3.519-.29-4.897-.49-1.378-1.659-2.987-2.595-3.574-.936-.588-1.895-.86-2.13-.604s-.63 4.482-.878 9.393l-.45 8.927zM529 293.993c-.275 0-1.85-.834-3.5-1.854-1.65-1.019-3.86-2.82-4.91-4.002s-1.596-2.465-1.21-2.85c.385-.386 2.627.351 4.981 1.637 3.712 2.028 4.597 2.169 6.668 1.06 1.314-.703 3.16-2.224 4.105-3.38 1.534-1.88 1.787-1.925 2.369-.432.358.92.138 2.631-.49 3.803-.627 1.173-2.574 3.006-4.327 4.075-1.752 1.068-3.411 1.943-3.686 1.943M474.089 292c.501 0 .911-.423.911-.941s-.457-1.224-1.016-1.57c-.56-.345-.8-.977-.536-1.405.264-.427.731-3.546 1.038-6.93.538-5.932.474-6.154-1.764-6.154-1.277 0-2.862.54-3.522 1.2s-1.2 3.1-1.2 5.423c0 3.085.698 5.053 2.589 7.3 1.424 1.692 2.999 3.077 3.5 3.077m-1.422-4c-.184 0-.634-.3-1-.667-.367-.366-.667-2.166-.667-4 0-1.833.45-3.333 1-3.333s1 1.8 1 4-.15 4-.333 4m26.833-16c-.825 0-1.5-.177-1.5-.393s.675-.652 1.5-.969 1.5-.14 1.5.393-.675.969-1.5.969m44.616-.572c-.49.303-1.385-.047-1.99-.777-.607-.73-2.963-1.885-5.237-2.566-2.47-.74-6.044-.976-8.876-.587-3.722.512-4.865.33-5.318-.85-.317-.826.054-2.025.825-2.665s3.21-1.405 5.422-1.702c2.265-.304 5.448.026 7.29.755 1.797.711 4.097 2.002 5.11 2.868 1.014.865 2.253 2.339 2.753 3.274.53.988.538 1.93.021 2.25M485.378 271c-.758 0-1.378-.39-1.378-.865 0-.476.942-2.062 2.092-3.525s3.681-3.324 5.623-4.135c1.94-.811 5.444-1.475 7.785-1.475 2.546 0 4.75.597 5.49 1.487.678.818.976 2.16.66 2.983-.41 1.069-1.424 1.325-3.555.9-1.639-.329-5.234-.056-7.988.604-2.754.661-5.535 1.837-6.18 2.614s-1.792 1.412-2.55 1.412m-28.509-12c.506 0 1.088-3.488 1.294-7.75.297-6.138.995-8.97 3.356-13.618 1.64-3.228 5.105-7.785 7.701-10.126 2.596-2.342 6.792-5.231 9.324-6.422s7.159-2.764 10.28-3.497c5.213-1.225 5.448-1.395 2.879-2.08-1.539-.411-4.67-.448-6.958-.082s-5.99 1.475-8.227 2.464c-2.237.99-6.848 4.374-10.247 7.521-3.957 3.663-7.276 7.914-9.226 11.816-2.238 4.48-3.045 7.49-3.045 11.369 0 2.901.439 6.43.975 7.84.537 1.41 1.389 2.565 1.894 2.565m88.881-5.012c5.14.008 7.25-.352 7.25-1.238 0-.855-1.817-1.25-5.75-1.25-4.061 0-7.194-.71-10.665-2.42-2.704-1.33-6.683-4.24-8.843-6.465-2.16-2.226-5-6.163-6.31-8.748-1.31-2.586-2.677-6.549-3.038-8.807s-1.116-4.388-1.678-4.736c-.675-.417-.834 1.443-.468 5.478.384 4.233 1.486 7.735 3.589 11.403 1.67 2.912 4.526 6.727 6.349 8.476s5.339 4.332 7.814 5.738c3.676 2.089 5.828 2.56 11.75 2.569m18.082-29.983c.191-.575-.63-2.95-1.826-5.276s-4.049-6.18-6.34-8.563-6.416-5.495-9.166-6.914c-3.656-1.886-7.016-2.696-12.5-3.014-5.951-.344-8.652.001-13.08 1.672-3.068 1.158-7.477 3.73-9.797 5.717s-4.017 3.812-3.77 4.06c.246.246 2.63-.646 5.298-1.981 2.667-1.336 7.25-3.215 10.183-4.176 3.707-1.214 7.366-1.616 12-1.32 4.083.26 8.453 1.288 11.276 2.652 2.536 1.225 6.641 4.258 9.124 6.74 2.482 2.483 5.354 6.074 6.381 7.982 1.027 1.907 2.025 2.997 2.217 2.421"/></svg>