<svg version="1.1" xmlns="http://www.w3.org/2000/svg" width="1024" height="1024">
<path d="M0 0 C337.92 0 675.84 0 1024 0 C1024 337.92 1024 675.84 1024 1024 C686.08 1024 348.16 1024 0 1024 C0 686.08 0 348.16 0 0 Z " fill="#FEFEFE" transform="translate(0,0)"/>
<path d="M0 0 C1.98 0 3.96 0 6 0 C6 185.13 6 370.26 6 561 C14.94 560.246 14.94 560.246 22.547 557.332 C23.711 556.775 24.875 556.219 26.074 555.646 C27.3 555.036 28.525 554.425 29.75 553.812 C30.697 553.348 30.697 553.348 31.663 552.874 C44.029 546.797 55.581 539.708 67 532 C68.233 531.187 69.467 530.375 70.703 529.566 C74.492 527.078 78.247 524.542 82 522 C83.024 521.307 84.049 520.614 85.104 519.9 C98.177 511.056 111.234 502.19 124.224 493.224 C126.05 491.966 127.878 490.711 129.707 489.457 C140.506 482.052 151.254 474.573 161.999 467.089 C164.959 465.028 167.921 462.969 170.883 460.91 C186.814 449.836 202.729 438.74 218.57 427.536 C223.166 424.287 227.776 421.06 232.391 417.839 C240.45 412.216 248.458 406.531 256.413 400.761 C262.198 396.568 268.023 392.436 273.865 388.323 C284.938 380.554 284.938 380.554 295.882 372.605 C300.787 369 300.787 369 303 369 C302.94 367.634 302.94 367.634 302.879 366.24 C302.516 357.607 302.243 348.976 302.067 340.337 C301.974 335.896 301.847 331.462 301.642 327.024 C300.355 298.459 300.355 298.459 304.673 291.181 C308.718 286.836 313.423 284.258 318.842 281.954 C321.636 280.719 323.912 279.049 326.309 277.168 C328.377 275.675 330.445 274.182 332.514 272.689 C333.209 272.187 333.905 271.685 334.621 271.168 C335.334 270.673 336.048 270.177 336.783 269.667 C339.078 268.016 339.078 268.016 341.19 265.854 C350.353 257.567 360.894 259.07 372.5 259.438 C374.611 259.476 376.722 259.511 378.833 259.543 C383.967 259.631 389.099 259.767 394.232 259.921 C397.477 260.014 400.723 260.08 403.968 260.143 C407.084 260.205 410.198 260.288 413.312 260.375 C414.4 260.405 415.488 260.435 416.609 260.467 C417.58 260.506 418.551 260.545 419.551 260.586 C420.372 260.617 421.194 260.649 422.04 260.681 C424 261 424 261 426 263 C426.625 265.125 426.625 265.125 427 267 C436.058 260.075 436.058 260.075 445 253 C448.712 250.012 452.467 247.085 456.25 244.188 C461.336 240.291 466.387 236.351 471.419 232.385 C476.241 228.588 481.088 224.824 485.938 221.062 C491.517 216.733 497.062 212.367 502.562 207.938 C508.454 203.197 514.431 198.58 520.447 194 C532.833 184.568 545.082 174.958 557.314 165.327 C560.794 162.588 564.277 159.853 567.76 157.118 C570.627 154.865 573.494 152.611 576.359 150.355 C583.662 144.608 590.989 138.893 598.327 133.192 C602.896 129.642 607.454 126.079 612 122.5 C622.512 114.226 633.065 106.005 643.688 97.875 C648.987 93.808 654.206 89.648 659.413 85.463 C663.954 81.819 668.543 78.247 673.167 74.71 C677.031 71.753 680.866 68.761 684.688 65.75 C686.458 64.357 688.229 62.965 690 61.573 C691.437 60.443 692.873 59.312 694.308 58.181 C696.744 56.263 699.184 54.35 701.625 52.438 C702.781 51.525 702.781 51.525 703.96 50.595 C704.687 50.026 705.415 49.457 706.164 48.871 C707.13 48.112 707.13 48.112 708.116 47.338 C710.006 45.996 711.902 44.978 714 44 C715.485 45.485 715.485 45.485 717 47 C715.454 51.29 712.2 53.48 708.688 56.125 C708.059 56.608 707.431 57.091 706.784 57.589 C704.861 59.066 702.931 60.533 701 62 C699.938 62.815 698.877 63.632 697.816 64.449 C695.727 66.06 693.636 67.668 691.543 69.273 C681.417 77.054 671.354 84.917 661.324 92.821 C658.125 95.339 654.915 97.844 651.695 100.336 C644.272 106.083 636.889 111.865 629.625 117.812 C624.15 122.293 618.603 126.62 612.918 130.832 C603.395 137.908 594.084 145.266 584.766 152.609 C581.846 154.909 578.923 157.204 576 159.5 C574.833 160.417 573.667 161.333 572.5 162.25 C570.167 164.083 567.833 165.917 565.5 167.75 C564.634 168.431 564.634 168.431 563.75 169.125 C562.584 170.041 561.418 170.957 560.252 171.873 C557.321 174.175 554.392 176.479 551.465 178.785 C545.299 183.641 539.112 188.464 532.883 193.24 C528.422 196.664 523.997 200.134 519.58 203.615 C514.758 207.412 509.912 211.176 505.062 214.938 C499.483 219.267 493.938 223.633 488.438 228.062 C482.48 232.859 476.425 237.517 470.336 242.145 C465.052 246.17 459.856 250.293 454.686 254.463 C449.104 258.95 443.424 263.304 437.721 267.637 C437.047 268.148 436.374 268.66 435.68 269.188 C435.089 269.635 434.499 270.082 433.89 270.543 C433.266 271.024 432.643 271.505 432 272 C430.717 272.834 430.717 272.834 429.407 273.684 C426.734 275.802 426.734 275.802 426.468 278.982 C426.51 280.145 426.552 281.308 426.594 282.506 C426.61 283.15 426.625 283.795 426.641 284.459 C426.675 285.856 426.72 287.253 426.775 288.649 C426.856 290.872 426.897 293.091 426.925 295.314 C427.006 301.632 427.123 307.947 427.36 314.262 C428.363 342.311 428.363 342.311 422.628 348.632 C419.392 351.358 415.953 353.255 412.101 354.972 C408.5 356.734 405.463 359.234 402.312 361.688 C381.355 377.128 381.355 377.128 373.043 377.114 C372.328 377.114 371.612 377.114 370.875 377.114 C368.502 377.113 366.13 377.105 363.758 377.098 C362.111 377.096 360.464 377.094 358.818 377.093 C354.476 377.09 350.134 377.08 345.792 377.069 C341.381 377.058 336.97 377.054 332.559 377.049 C324.798 377.039 317.037 377.025 309.277 377.007 C302.764 376.987 302.764 376.987 297.211 380.043 C296.279 380.698 295.346 381.353 294.385 382.028 C293.392 382.741 292.399 383.453 291.375 384.188 C290.346 384.915 289.317 385.642 288.257 386.392 C285.164 388.584 282.08 390.789 279 393 C277.739 393.903 277.739 393.903 276.452 394.824 C271.285 398.527 266.139 402.259 261 406 C251.729 412.743 242.439 419.439 232.973 425.905 C223.44 432.419 214.028 439.106 204.646 445.837 C198.605 450.17 192.512 454.419 186.376 458.618 C180.953 462.333 175.567 466.098 170.188 469.875 C159.735 477.209 149.197 484.414 138.646 491.604 C130.793 496.958 122.947 502.319 115.184 507.801 C104.426 515.388 93.515 522.721 82.516 529.952 C79.669 531.825 76.825 533.704 73.982 535.584 C61.532 543.796 48.952 551.599 36 559 C262.71 559 489.42 559 723 559 C721.68 557.02 720.36 555.04 719 553 C719 551.68 719 550.36 719 549 C724.559 549.506 728.464 551.624 733.188 554.375 C733.898 554.775 734.609 555.174 735.342 555.586 C741.55 559.137 741.55 559.137 744 562 C743.93 564.008 743.93 564.008 743 566 C737.018 571.314 727.026 578 719 578 C719.652 573.564 720.845 571.311 723 567 C484.41 567 245.82 567 0 567 C0 379.89 0 192.78 0 0 Z " fill="#3B393B" transform="translate(142,252)"/>
<path d="M0 0 C10.797 -0.031 10.797 -0.031 21.812 -0.062 C24.041 -0.072 26.27 -0.081 28.566 -0.09 C30.404 -0.093 32.243 -0.096 34.082 -0.098 C34.978 -0.103 35.874 -0.108 36.797 -0.113 C46.25 -0.114 55.511 0.501 65 1 C65 24.43 65 47.86 65 72 C43.55 71.67 22.1 71.34 0 71 C0 47.57 0 24.14 0 0 Z " fill="#FCFCFC" transform="translate(451,552)"/>
<path d="M0 0 C5.559 0.506 9.464 2.624 14.188 5.375 C15.254 5.974 15.254 5.974 16.342 6.586 C22.55 10.137 22.55 10.137 25 13 C24.93 15.008 24.93 15.008 24 17 C18.018 22.314 8.026 29 0 29 C0.695 24.41 2.05 21.549 4 17 C-218.09 17 -440.18 17 -669 17 C-669 16.67 -669 16.34 -669 16 C-668.374 15.998 -667.748 15.997 -667.104 15.995 C-630.019 15.892 -592.934 15.784 -555.849 15.669 C-551.397 15.655 -546.945 15.641 -542.492 15.628 C-541.606 15.625 -540.72 15.622 -539.806 15.619 C-525.452 15.575 -511.098 15.535 -496.744 15.495 C-482.016 15.455 -467.289 15.411 -452.561 15.363 C-443.473 15.334 -434.385 15.307 -425.296 15.285 C-419.065 15.269 -412.833 15.25 -406.602 15.227 C-403.006 15.215 -399.411 15.203 -395.815 15.197 C-391.916 15.189 -388.016 15.174 -384.117 15.158 C-382.982 15.157 -381.847 15.156 -380.677 15.155 C-379.628 15.15 -378.58 15.144 -377.5 15.139 C-376.6 15.136 -375.701 15.133 -374.774 15.131 C-371.498 14.976 -368.247 14.464 -365 14 C-470.6 13.67 -576.2 13.34 -685 13 C-685 12.67 -685 12.34 -685 12 C-457.3 12 -229.6 12 5 12 C2.525 8.04 2.525 8.04 0 4 C0 2.68 0 1.36 0 0 Z " fill="#232325" transform="translate(861,801)"/>
<path d="M0 0 C0.443 8.883 0.779 17.763 0.984 26.655 C1.083 30.786 1.216 34.91 1.433 39.037 C2.792 65.555 2.792 65.555 -1.756 72.796 C-6.067 77.317 -11.089 80.191 -16.691 82.858 C-19.788 84.39 -22.245 86.274 -24.941 88.43 C-25.728 89.016 -26.515 89.603 -27.326 90.207 C-28.886 91.37 -30.443 92.537 -31.998 93.707 C-32.763 94.276 -33.528 94.844 -34.316 95.43 C-34.981 95.927 -35.646 96.425 -36.33 96.937 C-38 98 -38 98 -40 98 C-40.373 89.212 -40.656 80.427 -40.829 71.632 C-40.912 67.547 -41.025 63.467 -41.207 59.385 C-42.451 30.811 -42.451 30.811 -36.73 24.385 C-33.455 21.608 -29.913 19.684 -26.004 17.94 C-23.173 16.613 -20.839 14.796 -18.387 12.871 C-16.005 11.129 -13.622 9.39 -11.236 7.654 C-10.461 7.086 -9.686 6.519 -8.887 5.934 C-8.208 5.439 -7.53 4.945 -6.831 4.435 C-4.962 3.039 -4.962 3.039 -3.382 1.317 C-2 0 -2 0 0 0 Z " fill="#FBFBFB" transform="translate(562,523)"/>
<path d="M0 0 C1.96 0.042 3.92 0.079 5.881 0.111 C17.164 0.334 28.429 0.938 39.688 1.688 C36.829 4.625 34.03 7.334 30.684 9.703 C29.948 10.228 29.213 10.753 28.455 11.294 C27.686 11.836 26.917 12.379 26.125 12.938 C24.519 14.082 22.913 15.228 21.309 16.375 C20.525 16.934 19.741 17.494 18.933 18.07 C14.861 21.003 10.868 24.039 6.875 27.078 C3.284 29.72 1.239 29.816 -3.199 29.82 C-5.051 29.823 -5.051 29.823 -6.941 29.826 C-8.294 29.822 -9.647 29.817 -11 29.812 C-11.679 29.812 -12.358 29.811 -13.058 29.81 C-28.487 29.786 -43.896 29.289 -59.312 28.688 C-55.237 24.321 -50.743 20.944 -45.875 17.5 C-45.156 16.986 -44.438 16.473 -43.697 15.943 C-42.138 14.83 -40.567 13.732 -38.988 12.648 C-36.194 10.668 -36.194 10.668 -33.378 8.057 C-23.002 -0.936 -13.244 -0.544 0 0 Z " fill="#FAFAFA" transform="translate(516.3125,517.3125)"/>
<path d="M0 0 C1.65 0 3.3 0 5 0 C5 184.14 5 368.28 5 558 C4.67 558 4.34 558 4 558 C3.67 374.85 3.34 191.7 3 3 C2.67 188.46 2.34 373.92 2 565 C1.34 565 0.68 565 0 565 C0 378.55 0 192.1 0 0 Z " fill="#201C20" transform="translate(142,253)"/>
<path d="M0 0 C1.32 0.66 2.64 1.32 4 2 C4 6 4 6 2.722 7.505 C1.831 8.204 1.831 8.204 0.922 8.918 C-0.068 9.709 -0.068 9.709 -1.078 10.515 C-1.795 11.067 -2.511 11.619 -3.25 12.188 C-3.984 12.767 -4.717 13.347 -5.473 13.944 C-10.504 17.899 -15.607 21.758 -20.75 25.566 C-30.883 33.105 -40.756 41.005 -50.676 48.82 C-53.875 51.339 -57.085 53.844 -60.305 56.336 C-67.752 62.101 -75.154 67.904 -82.438 73.875 C-88.469 78.82 -94.611 83.52 -101 88 C-101.66 87.34 -102.32 86.68 -103 86 C-102.34 85.01 -101.68 84.02 -101 83 C-101.33 82.01 -101.66 81.02 -102 80 C-101.564 79.669 -101.127 79.338 -100.677 78.997 C-92.126 72.504 -83.62 65.967 -75.263 59.224 C-70.553 55.424 -65.782 51.708 -61 48 C-59.593 46.904 -58.187 45.808 -56.781 44.711 C-55.354 43.599 -53.927 42.487 -52.5 41.375 C-51.727 40.773 -50.955 40.171 -50.159 39.551 C-45.62 36.021 -41.063 32.518 -36.484 29.04 C-28.718 23.139 -21.106 17.077 -13.559 10.898 C-9.923 7.925 -6.231 5.029 -2.504 2.172 C-1.039 1.08 -1.039 1.08 0 0 Z " fill="#323133" transform="translate(854,296)"/>
<path d="M0 0 C1 1 1 1 1.062 4.562 C1.042 5.697 1.021 6.831 1 8 C1.99 8 2.98 8 4 8 C4 5.36 4 2.72 4 0 C4.99 0 5.98 0 7 0 C8.589 3.177 8.41 6.54 8 10 C6.5 12.5 6.5 12.5 5 14 C5.99 15.485 5.99 15.485 7 17 C7.344 19.748 7.46 21.313 5.898 23.645 C3.068 25.665 0.738 25.289 -2.688 25.188 C-4.457 25.147 -4.457 25.147 -6.262 25.105 C-7.165 25.071 -8.069 25.036 -9 25 C-9 24.01 -9 23.02 -9 22 C-5.04 22 -1.08 22 3 22 C2.34 20.35 1.68 18.7 1 17 C-1.97 16.67 -4.94 16.34 -8 16 C-8.33 14.68 -8.66 13.36 -9 12 C-8.01 11.67 -7.02 11.34 -6 11 C-6.495 10.608 -6.99 10.216 -7.5 9.812 C-9 8 -9 8 -9.375 5.5 C-9 3 -9 3 -7.875 1.188 C-5.198 -0.508 -3.099 -0.269 0 0 Z " fill="#393839" transform="translate(101,539)"/>
<path d="M0 0 C0.99 0 1.98 0 3 0 C4.98 3.63 6.96 7.26 9 11 C12.14 5.575 12.14 5.575 15 0 C19.875 0.875 19.875 0.875 21 2 C21.087 3.416 21.107 4.836 21.098 6.254 C21.094 7.108 21.091 7.962 21.088 8.842 C21.08 9.74 21.071 10.637 21.062 11.562 C21.058 12.464 21.053 13.366 21.049 14.295 C21.037 16.53 21.021 18.765 21 21 C19.68 21 18.36 21 17 21 C16.505 14.565 16.505 14.565 16 8 C15.258 9.32 14.515 10.64 13.75 12 C12.484 14.25 12.484 14.25 11 16 C9.68 16 8.36 16 7 16 C6.34 14.68 5.68 13.36 5 12 C4.34 14.97 3.68 17.94 3 21 C2.01 21 1.02 21 0 21 C0 14.07 0 7.14 0 0 Z " fill="#454344" transform="translate(709,586)"/>
<path d="M0 0 C1.32 0 2.64 0 4 0 C4 7.59 4 15.18 4 23 C-0.708 23.942 -3.41 24.126 -8 23 C-10.153 20.566 -10.027 18.695 -10.312 15.438 C-10 12 -10 12 -8.938 10.062 C-5.988 8.445 -3.291 8.814 0 9 C0 6.03 0 3.06 0 0 Z " fill="#353335" transform="translate(760,583)"/>
<path d="M0 0 C0.66 0.33 1.32 0.66 2 1 C2 1.99 2 2.98 2 4 C0.721 4.124 -0.558 4.247 -1.875 4.375 C-5.348 4.69 -5.348 4.69 -8 7 C-8.281 9.141 -8.281 9.141 -8.188 11.5 C-8.181 12.294 -8.175 13.088 -8.168 13.906 C-8.127 16.058 -8.127 16.058 -7 18 C-4.69 18 -2.38 18 0 18 C0 16.68 0 15.36 0 14 C-1.65 14 -3.3 14 -5 14 C-5 12.68 -5 11.36 -5 10 C1.152 9.902 1.152 9.902 3 10 C4 11 4 11 4.098 13.941 C4.086 15.136 4.074 16.331 4.062 17.562 C4.053 18.76 4.044 19.958 4.035 21.191 C4.024 22.118 4.012 23.045 4 24 C3.01 24 2.02 24 1 24 C1 23.34 1 22.68 1 22 C0.397 22.119 -0.207 22.237 -0.828 22.359 C-7.401 23.419 -7.401 23.419 -10.5 21.25 C-13.498 16.753 -13.524 12.233 -13 7 C-10.143 0.606 -6.76 -0.369 0 0 Z " fill="#3B373C" transform="translate(289,852)"/>
<path d="M0 0 C0.33 0 0.66 0 1 0 C1.33 3.63 1.66 7.26 2 11 C2.33 11 2.66 11 3 11 C3.33 9.02 3.66 7.04 4 5 C4.33 5 4.66 5 5 5 C5.099 16.776 5.142 28.546 4.625 40.312 C4.594 41.147 4.563 41.981 4.531 42.841 C4.339 46.677 4.173 48.741 2 52 C1.634 54.417 1.634 54.417 1.586 57.105 C1.547 58.088 1.509 59.071 1.469 60.084 C1.438 61.108 1.407 62.132 1.375 63.188 C1.336 64.223 1.298 65.259 1.258 66.326 C1.164 68.884 1.078 71.442 1 74 C0.67 74 0.34 74 0 74 C0 49.58 0 25.16 0 0 Z " fill="#211C1F" transform="translate(446,546)"/>
<path d="M0 0 C0.99 0 1.98 0 3 0 C3 7.92 3 15.84 3 24 C-0.3 24 -3.6 24 -7 24 C-10 21 -10 21 -10.438 17.062 C-10.315 14.038 -10.066 13.098 -8.312 10.5 C-5.62 8.754 -4.148 8.65 -1 9 C-1.021 7.701 -1.041 6.401 -1.062 5.062 C-1.084 3.708 -1.071 2.352 -1 1 C-0.67 0.67 -0.34 0.34 0 0 Z " fill="#4C494B" transform="translate(794,581)"/>
<path d="M0 0 C3.042 -0.054 6.083 -0.094 9.125 -0.125 C9.981 -0.142 10.837 -0.159 11.719 -0.176 C16.566 -0.213 20.447 0.104 25 2 C24.875 4.312 24.875 4.312 24 7 C20.139 9.514 16.545 10.459 12 11 C12.33 11.66 12.66 12.32 13 13 C15.349 13.689 15.349 13.689 18.062 14.125 C19.441 14.376 19.441 14.376 20.848 14.633 C21.913 14.815 21.913 14.815 23 15 C23 15.99 23 16.98 23 18 C12.99 18.621 12.99 18.621 9.312 16.312 C7.756 13.57 7.429 12.101 8 9 C11.162 6.892 12.507 6.662 16.188 6.375 C17.089 6.3 17.99 6.225 18.918 6.148 C19.605 6.099 20.292 6.05 21 6 C21 5.34 21 4.68 21 4 C14.4 4 7.8 4 1 4 C0.67 2.68 0.34 1.36 0 0 Z " fill="#3F3D3D" transform="translate(83,458)"/>
<path d="M0 0 C8 0 8 0 11 1.562 C13 4 13 4 13.625 7.5 C13 11 13 11 10.75 13.438 C8 15 8 15 4 15 C4 17.64 4 20.28 4 23 C2.68 23 1.36 23 0 23 C0 15.41 0 7.82 0 0 Z " fill="#3E3C3D" transform="translate(696,635)"/>
<path d="M0 0 C3.5 0.562 3.5 0.562 5.438 2.062 C6.952 5.626 7.063 8.749 6.5 12.562 C5.375 15.062 5.375 15.062 3.5 16.562 C-0.111 17.177 -1.801 17.022 -4.875 15 C-7.118 11.636 -6.988 9.536 -6.5 5.562 C-5.003 1.422 -4.413 0.709 0 0 Z " fill="#454245" transform="translate(186.5,278.4375)"/>
<path d="M0 0 C7.266 -0.606 7.266 -0.606 10.5 2.062 C12.382 5.748 12.585 7.908 12 12 C10.204 14.753 8.947 16.526 6 18 C1.08 18.531 -2.773 18.751 -7.062 16.125 C-10.694 12.142 -10.084 9.207 -10 4 C-9.01 3.67 -8.02 3.34 -7 3 C-6.805 5.018 -6.609 7.036 -6.414 9.055 C-6.136 11.227 -6.136 11.227 -4 13 C-1.859 13.281 -1.859 13.281 0.5 13.188 C1.691 13.178 1.691 13.178 2.906 13.168 C5.058 13.127 5.058 13.127 7 12 C7 10.02 7 8.04 7 6 C4.69 5.34 2.38 4.68 0 4 C0 2.68 0 1.36 0 0 Z " fill="#3E3A3D" transform="translate(97,596)"/>
<path d="M0 0 C2.976 1.253 3.927 2.105 5.375 5 C5.904 9.155 5.786 11.284 3.688 14.938 C1.375 17 1.375 17 -1.125 17.625 C-3.625 17 -3.625 17 -5.938 15 C-8.285 10.827 -8.304 8.755 -7.625 4 C-5.141 1.09 -3.862 0 0 0 Z " fill="#424042" transform="translate(741.625,591)"/>
<path d="M0 0 C8.806 0 8.806 0 12 3 C12.625 6.438 12.625 6.438 12 10 C9.75 12.438 9.75 12.438 7 14 C5.68 14 4.36 14 3 14 C3 16.64 3 19.28 3 22 C2.01 22.33 1.02 22.66 0 23 C0 15.41 0 7.82 0 0 Z " fill="#464246" transform="translate(167,272)"/>
<path d="M0 0 C3.438 0.875 3.438 0.875 5.438 3.875 C6.102 10.853 6.102 10.853 3.812 14.375 C0.734 16.319 -0.987 16.484 -4.562 15.875 C-6.5 14.438 -6.5 14.438 -7.562 11.875 C-7.668 7.964 -7.626 4.3 -5.23 1.09 C-3.562 -0.125 -3.562 -0.125 0 0 Z " fill="#4A4447" transform="translate(768.5625,633.125)"/>
<path d="M0 0 C1.32 0 2.64 0 4 0 C4.33 2.64 4.66 5.28 5 8 C6.98 5.69 8.96 3.38 11 1 C11.99 1.33 12.98 1.66 14 2 C12.02 4.64 10.04 7.28 8 10 C9.489 12.977 10.539 14.834 12.625 17.25 C13.409 18.158 14.192 19.065 15 20 C14.01 20.33 13.02 20.66 12 21 C9.957 19.785 9.957 19.785 7.812 18.062 C7.097 17.497 6.382 16.931 5.645 16.348 C5.102 15.903 4.559 15.458 4 15 C4 17.64 4 20.28 4 23 C3.01 22.67 2.02 22.34 1 22 C0.059 19.176 -0.117 17.471 -0.098 14.551 C-0.094 13.703 -0.091 12.856 -0.088 11.982 C-0.08 11.101 -0.071 10.22 -0.062 9.312 C-0.058 8.42 -0.053 7.527 -0.049 6.607 C-0.037 4.405 -0.021 2.202 0 0 Z " fill="#302E30" transform="translate(281,273)"/>
<path d="M0 0 C3.438 0.5 3.438 0.5 5.375 1.688 C6.815 4.145 6.868 5.702 6.438 8.5 C2.793 10.929 0.725 10.662 -3.562 10.5 C-2.572 11.985 -2.572 11.985 -1.562 13.5 C0.415 13.863 0.415 13.863 2.562 13.688 C3.841 13.626 5.12 13.564 6.438 13.5 C6.438 14.49 6.438 15.48 6.438 16.5 C3.299 18.069 0.899 17.852 -2.562 17.5 C-5.5 15.438 -5.5 15.438 -7.562 12.5 C-8.229 8.35 -7.974 6.274 -6 2.562 C-3.562 0.5 -3.562 0.5 0 0 Z " fill="#393637" transform="translate(337.5625,857.5)"/>
<path d="M0 0 C1.457 -0.081 2.916 -0.139 4.375 -0.188 C5.187 -0.222 5.999 -0.257 6.836 -0.293 C7.55 -0.196 8.264 -0.1 9 0 C11.103 3.154 11.398 5.285 11.781 8.992 C12.04 11.364 12.49 13.671 13 16 C12.01 16 11.02 16 10 16 C10 15.34 10 14.68 10 14 C9.278 14.351 8.556 14.701 7.812 15.062 C4.67 16.11 3.127 15.955 0 15 C-1 14 -1 14 -1.375 11.688 C-1 9 -1 9 1.375 6.688 C4 5 4 5 6 5 C6 4.34 6 3.68 6 3 C3.69 3.33 1.38 3.66 -1 4 C-0.67 2.68 -0.34 1.36 0 0 Z " fill="#5E5D60" transform="translate(384,278)"/>
<path d="M0 0 C0.99 0 1.98 0 3 0 C2.524 7.938 0.463 17.608 -4.527 23.938 C-6 25 -6 25 -8.188 24.688 C-8.786 24.461 -9.384 24.234 -10 24 C-10 23.34 -10 22.68 -10 22 C-9.505 21.587 -9.01 21.175 -8.5 20.75 C-6.775 19.042 -6.775 19.042 -6.562 16.375 C-7.07 12.463 -8.38 9.559 -10.125 6.051 C-11 4 -11 4 -11 1 C-10.01 1 -9.02 1 -8 1 C-6.68 3.64 -5.36 6.28 -4 9 C-2.68 6.03 -1.36 3.06 0 0 Z " fill="#393537" transform="translate(392,858)"/>
<path d="M0 0 C2.291 -0.054 4.583 -0.093 6.875 -0.125 C8.789 -0.16 8.789 -0.16 10.742 -0.195 C14 0 14 0 16 2 C16.407 5.659 16.602 8.038 14.617 11.211 C10.538 13.999 6.563 13.425 1.75 13.25 C0.814 13.232 -0.122 13.214 -1.086 13.195 C-3.392 13.148 -5.695 13.083 -8 13 C-8 12.01 -8 11.02 -8 10 C1.9 9.505 1.9 9.505 12 9 C11.34 7.68 10.68 6.36 10 5 C7.815 4.301 7.815 4.301 5.375 4.25 C4.149 4.165 4.149 4.165 2.898 4.078 C2.272 4.052 1.645 4.027 1 4 C0.67 2.68 0.34 1.36 0 0 Z " fill="#413F3E" transform="translate(92,569)"/>
<path d="M0 0 C1.938 1.188 1.938 1.188 3 3 C3 5.562 3 5.562 2 8 C-0.889 9.597 -2.691 10 -6 10 C-5.67 10.66 -5.34 11.32 -5 12 C-2.36 12 0.28 12 3 12 C2 15 2 15 0 16 C-3.503 16.381 -5.363 16.402 -8.375 14.5 C-10.654 10.994 -10.818 8.071 -10 4 C-7.302 -0.15 -4.809 -0.716 0 0 Z " fill="#282728" transform="translate(851,631)"/>
<path d="M0 0 C5.538 -0.286 9.248 -0.245 14 3 C15.125 4.875 15.125 4.875 15 7 C13.602 9.613 13.602 9.613 11 12 C7.733 12.626 4.561 12.471 1.25 12.312 C0.362 12.29 -0.526 12.267 -1.441 12.244 C-3.629 12.185 -5.814 12.103 -8 12 C-8.33 10.68 -8.66 9.36 -9 8 C-2.73 7.67 3.54 7.34 10 7 C10 6.34 10 5.68 10 5 C6.7 4.01 3.4 3.02 0 2 C0 1.34 0 0.68 0 0 Z " fill="#3B393B" transform="translate(94,505)"/>
<path d="M0 0 C1.279 -0.062 2.558 -0.124 3.875 -0.188 C4.954 -0.24 4.954 -0.24 6.055 -0.293 C6.697 -0.196 7.339 -0.1 8 0 C9.963 2.944 10.255 3.802 10.5 7.125 C10.665 8.404 10.83 9.683 11 11 C11.66 11.33 12.32 11.66 13 12 C12.67 13.32 12.34 14.64 12 16 C11.113 15.814 10.226 15.629 9.312 15.438 C6.082 14.827 6.082 14.827 3.25 15.562 C2.508 15.707 1.765 15.851 1 16 C0.34 15.34 -0.32 14.68 -1 14 C-0.938 11.062 -0.938 11.062 0 8 C2.5 6.25 2.5 6.25 5 5 C5.33 4.34 5.66 3.68 6 3 C3.69 3.33 1.38 3.66 -1 4 C-0.67 2.68 -0.34 1.36 0 0 Z " fill="#444444" transform="translate(800,632)"/>
<path d="M0 0 C1.812 1.188 1.812 1.188 3 3 C3.375 5.562 3.375 5.562 3 8 C0.082 9.945 -1.625 10.453 -5 11 C-4.67 11.99 -4.34 12.98 -4 14 C-1.36 13.67 1.28 13.34 4 13 C3.34 14.32 2.68 15.64 2 17 C-4.266 17.602 -4.266 17.602 -7.438 15 C-9.598 10.852 -9.591 8.655 -9 4 C-6.502 0.3 -4.43 -0.795 0 0 Z " fill="#6D6C6D" transform="translate(777,590)"/>
<path d="M0 0 C2.22 2.3 2.957 3.587 3.293 6.797 C3.258 7.771 3.223 8.746 3.188 9.75 C3.16 10.735 3.133 11.72 3.105 12.734 C3.071 13.482 3.036 14.23 3 15 C1.68 15.33 0.36 15.66 -1 16 C-1.33 12.04 -1.66 8.08 -2 4 C-3.32 4.33 -4.64 4.66 -6 5 C-6.33 8.63 -6.66 12.26 -7 16 C-7.99 16 -8.98 16 -10 16 C-11.141 12.578 -11.098 9.913 -11.062 6.312 C-11.053 5.133 -11.044 3.954 -11.035 2.738 C-11.024 1.835 -11.012 0.931 -11 0 C-3.736 -1.313 -3.736 -1.313 0 0 Z " fill="#2C292C" transform="translate(362,278)"/>
<path d="M0 0 C2.875 1.5 2.875 1.5 5 4 C5.605 7.478 5.608 10.784 4 14 C3.34 14 2.68 14 2 14 C1.34 11.03 0.68 8.06 0 5 C-1.32 4.67 -2.64 4.34 -4 4 C-3.01 5.485 -3.01 5.485 -2 7 C-2.359 9.961 -2.847 10.847 -5 13 C-7.812 13.438 -7.812 13.438 -11 13 C-13.875 10.75 -13.875 10.75 -16 8 C-16 6.68 -16 5.36 -16 4 C-15.01 4 -14.02 4 -13 4 C-12.67 5.32 -12.34 6.64 -12 8 C-9.69 8.33 -7.38 8.66 -5 9 C-5.495 8.423 -5.99 7.845 -6.5 7.25 C-8 5 -8 5 -8 1 C-5.147 -0.427 -3.165 -0.31 0 0 Z " fill="#383537" transform="translate(105,442)"/>
<path d="M0 0 C0.99 0 1.98 0 3 0 C2.594 7.991 0.847 18.153 -5 24 C-6.32 24 -7.64 24 -9 24 C-8.691 23.484 -8.381 22.969 -8.062 22.438 C-6.661 19.221 -6.184 16.505 -6 13 C-7.355 10.463 -7.355 10.463 -9 8 C-9.688 4.188 -9.688 4.188 -10 1 C-7.507 1.997 -6.225 2.651 -4.75 4.938 C-4 7 -4 7 -4 10 C-3.34 10 -2.68 10 -2 10 C-1.856 8.907 -1.711 7.814 -1.562 6.688 C-1 3 -1 3 0 0 Z " fill="#312D30" transform="translate(264,278)"/>
<path d="M0 0 C0.959 0.278 0.959 0.278 1.938 0.562 C2.958 0.779 2.958 0.779 4 1 C4.33 0.67 4.66 0.34 5 0 C7.312 -0.375 7.312 -0.375 10 0 C12.312 1.875 12.312 1.875 14 5 C14.323 8.362 14.235 11.634 14 15 C12.68 15 11.36 15 10 15 C9.67 11.7 9.34 8.4 9 5 C7.68 5.33 6.36 5.66 5 6 C4.67 9.3 4.34 12.6 4 16 C3.01 16 2.02 16 1 16 C0.147 12.326 -0.108 8.955 -0.062 5.188 C-0.053 4.212 -0.044 3.236 -0.035 2.23 C-0.024 1.494 -0.012 0.758 0 0 Z " fill="#484648" transform="translate(744,633)"/>
<path d="M0 0 C3.619 -0.329 5.395 -0.446 8.375 1.75 C10 4 10 4 10 8 C6.565 10.29 5.015 10.178 1 10 C1 10.99 1 11.98 1 13 C3.97 13 6.94 13 10 13 C9.67 13.99 9.34 14.98 9 16 C5.812 16.812 5.812 16.812 2 17 C-0.938 14.938 -0.938 14.938 -3 12 C-3.312 8.688 -3.312 8.688 -3 6 C-0.03 6.33 2.94 6.66 6 7 C5.67 6.01 5.34 5.02 5 4 C3.02 4.33 1.04 4.66 -1 5 C-0.67 3.35 -0.34 1.7 0 0 Z " fill="#3D3B3D" transform="translate(337,278)"/>
<path d="M0 0 C0.99 0 1.98 0 3 0 C3 2.64 3 5.28 3 8 C4.114 8.124 5.227 8.248 6.375 8.375 C10 9 10 9 12 11 C12.125 14.625 12.125 14.625 12 18 C11.34 18.33 10.68 18.66 10 19 C9.34 17.02 8.68 15.04 8 13 C6.35 12.67 4.7 12.34 3 12 C3 14.97 3 17.94 3 21 C4.32 21 5.64 21 7 21 C7 21.99 7 22.98 7 24 C5 24.043 3 24.041 1 24 C0 23 0 23 -0.114 20.775 C-0.108 19.817 -0.103 18.858 -0.098 17.871 C-0.094 16.837 -0.091 15.802 -0.088 14.736 C-0.08 13.648 -0.071 12.559 -0.062 11.438 C-0.058 10.345 -0.053 9.253 -0.049 8.127 C-0.037 5.418 -0.021 2.709 0 0 Z " fill="#322E31" transform="translate(238,270)"/>
<path d="M0 0 C0.892 0.102 1.784 0.204 2.703 0.309 C3.379 0.392 4.054 0.476 4.75 0.562 C6.336 4.032 7.253 6.736 6.75 10.562 C5.648 12.199 5.648 12.199 3.75 13.562 C0.613 13.855 0.613 13.855 -2.938 13.75 C-4.707 13.709 -4.707 13.709 -6.512 13.668 C-7.415 13.633 -8.319 13.598 -9.25 13.562 C-9.25 12.572 -9.25 11.582 -9.25 10.562 C-5.29 10.562 -1.33 10.562 2.75 10.562 C2.09 8.913 1.43 7.263 0.75 5.562 C-2.22 5.232 -5.19 4.903 -8.25 4.562 C-8.58 3.242 -8.91 1.923 -9.25 0.562 C-5.981 -0.469 -3.39 -0.401 0 0 Z " fill="#575554" transform="translate(101.25,550.4375)"/>
<path d="M0 0 C7.52 -0.391 7.52 -0.391 10 0 C12.421 2.212 12.951 3.531 13.293 6.797 C13.258 7.771 13.223 8.746 13.188 9.75 C13.16 10.735 13.133 11.72 13.105 12.734 C13.071 13.482 13.036 14.23 13 15 C11.68 15 10.36 15 9 15 C8.67 11.37 8.34 7.74 8 4 C6.02 4.99 6.02 4.99 4 6 C3.298 8.417 3.298 8.417 3.25 11.125 C3.193 12.035 3.137 12.945 3.078 13.883 C3.039 14.931 3.039 14.931 3 16 C2.01 15.67 1.02 15.34 0 15 C0 10.05 0 5.1 0 0 Z " fill="#484649" transform="translate(816,631)"/>
<path d="M0 0 C3.63 0 7.26 0 11 0 C10.082 4.592 9.66 5.895 6.938 9.312 C6.39 10.01 5.842 10.707 5.277 11.426 C4.856 11.945 4.434 12.465 4 13 C6.64 13 9.28 13 12 13 C12 13.99 12 14.98 12 16 C8.04 16 4.08 16 0 16 C0 10.375 0 10.375 2.5 7.188 C2.964 6.583 3.428 5.978 3.906 5.355 C4.267 4.908 4.628 4.461 5 4 C3.02 4 1.04 4 -1 4 C-0.67 2.68 -0.34 1.36 0 0 Z " fill="#383738" transform="translate(728,633)"/>
<path d="M0 0 C1.32 0.33 2.64 0.66 4 1 C4.25 3.812 4.25 3.812 4 7 C0.69 10.564 -3.829 11.899 -8.609 12.121 C-11.076 12.125 -13.535 12.088 -16 12 C-16.33 10.35 -16.66 8.7 -17 7 C-15.645 6.909 -15.645 6.909 -14.262 6.816 C-13.082 6.733 -11.903 6.649 -10.688 6.562 C-8.93 6.441 -8.93 6.441 -7.137 6.316 C-3.974 6.113 -3.974 6.113 -1 5 C-0.67 3.35 -0.34 1.7 0 0 Z " fill="#4E4C4D" transform="translate(104,522)"/>
<path d="M0 0 C3.63 0 7.26 0 11 0 C9.864 5.681 8.717 6.902 5 11 C7.31 11.33 9.62 11.66 12 12 C12 12.99 12 13.98 12 15 C8.04 15 4.08 15 0 15 C0.981 10.097 1.699 8.501 5 5 C5.66 5 6.32 5 7 5 C7 4.34 7 3.68 7 3 C4.69 3 2.38 3 0 3 C0 2.01 0 1.02 0 0 Z " fill="#3E3D3E" transform="translate(223,279)"/>
<path d="M0 0 C1.918 0.283 3.834 0.577 5.75 0.875 C7.351 1.119 7.351 1.119 8.984 1.367 C11.677 1.932 13.636 2.634 16 4 C15.867 6.324 15.867 6.324 15 9 C12.383 10.582 12.383 10.582 9.125 11.812 C8.055 12.231 6.985 12.65 5.883 13.082 C3 14 3 14 0 14 C0.215 12.109 0.215 12.109 1 10 C3.897 8.533 6.856 7.885 10 7 C6.7 5.35 3.4 3.7 0 2 C0 1.34 0 0.68 0 0 Z " fill="#373432" transform="translate(92,488)"/>
<path d="M0 0 C0.99 0 1.98 0 3 0 C3 1.98 3 3.96 3 6 C4.32 6.33 5.64 6.66 7 7 C7 7.66 7 8.32 7 9 C5.68 9 4.36 9 3 9 C3.114 10.647 3.241 12.292 3.375 13.938 C3.445 14.854 3.514 15.771 3.586 16.715 C3.723 17.469 3.859 18.223 4 19 C4.66 19.33 5.32 19.66 6 20 C6 20.66 6 21.32 6 22 C3.625 21.688 3.625 21.688 1 21 C-1.679 16.981 -1.156 14.758 -1 10 C-1.66 10 -2.32 10 -3 10 C-3 9.01 -3 8.02 -3 7 C-2.34 7 -1.68 7 -1 7 C-1.021 6.031 -1.041 5.061 -1.062 4.062 C-1 1 -1 1 0 0 Z " fill="#565253" transform="translate(780,626)"/>
<path d="M0 0 C0.99 0.33 1.98 0.66 3 1 C3 2.65 3 4.3 3 6 C3.99 6 4.98 6 6 6 C6 6.99 6 7.98 6 9 C5.01 9 4.02 9 3 9 C3.141 10.605 3.288 12.209 3.438 13.812 C3.519 14.706 3.6 15.599 3.684 16.52 C3.935 19.127 3.935 19.127 5 22 C2.563 21.625 2.563 21.625 0 21 C-1.262 18.475 -1.099 16.688 -1.062 13.875 C-1.053 12.965 -1.044 12.055 -1.035 11.117 C-1.024 10.419 -1.012 9.72 -1 9 C-1.99 9 -2.98 9 -4 9 C-3.67 8.01 -3.34 7.02 -3 6 C-2.34 6 -1.68 6 -1 6 C-1.021 5.196 -1.041 4.391 -1.062 3.562 C-1 1 -1 1 0 0 Z " fill="#4C4949" transform="translate(199,273)"/>
<path d="M0 0 C0.99 0 1.98 0 3 0 C3 2.31 3 4.62 3 7 C4.65 7 6.3 7 8 7 C8 7.99 8 8.98 8 10 C6.35 10 4.7 10 3 10 C3 13.3 3 16.6 3 20 C4.32 20.33 5.64 20.66 7 21 C7 21.66 7 22.32 7 23 C4.625 23.125 4.625 23.125 2 23 C-0.926 20.074 -0.427 17.217 -0.656 13.215 C-0.826 12.118 -0.826 12.118 -1 11 C-1.66 10.67 -2.32 10.34 -3 10 C-3 9.01 -3 8.02 -3 7 C-2.01 7 -1.02 7 0 7 C0 4.69 0 2.38 0 0 Z " fill="#2E2C2D" transform="translate(300,852)"/>
<path d="M0 0 C2 2 2 2 2 5 C-0.64 4.67 -3.28 4.34 -6 4 C-6 6.31 -6 8.62 -6 11 C-3.237 11.597 -0.84 12 2 12 C1.67 13.32 1.34 14.64 1 16 C-6.483 16.368 -6.483 16.368 -8.734 14.766 C-11.072 11.505 -10.615 7.829 -10 4 C-7.332 -0.207 -4.822 -0.629 0 0 Z " fill="#333135" transform="translate(375,858)"/>
<path d="M0 0 C0.99 0.33 1.98 0.66 3 1 C3 2.65 3 4.3 3 6 C4.32 6 5.64 6 7 6 C7 6.99 7 7.98 7 9 C5.35 9 3.7 9 2 9 C2 12.3 2 15.6 2 19 C3.32 19.33 4.64 19.66 6 20 C6 20.66 6 21.32 6 22 C3.625 22.125 3.625 22.125 1 22 C-1 20 -1 20 -1.195 17.398 C-1.172 16.401 -1.149 15.403 -1.125 14.375 C-1.107 13.372 -1.089 12.369 -1.07 11.336 C-1.047 10.565 -1.024 9.794 -1 9 C-1.99 9 -2.98 9 -4 9 C-4 8.34 -4 7.68 -4 7 C-3.34 6.67 -2.68 6.34 -2 6 C-1.273 4.021 -0.602 2.02 0 0 Z " fill="#3E3B3E" transform="translate(372,272)"/>
<path d="M0 0 C0.959 0.278 0.959 0.278 1.938 0.562 C2.958 0.779 2.958 0.779 4 1 C4.33 0.67 4.66 0.34 5 0 C7 -0.041 9 -0.043 11 0 C11.33 1.32 11.66 2.64 12 4 C11.031 4.124 10.061 4.247 9.062 4.375 C7.547 4.684 7.547 4.684 6 5 C4.783 7.434 4.68 9.418 4.438 12.125 C4.354 13.035 4.27 13.945 4.184 14.883 C4.123 15.581 4.062 16.28 4 17 C3.01 17 2.02 17 1 17 C0.096 13.163 -0.106 9.625 -0.062 5.688 C-0.053 4.619 -0.044 3.55 -0.035 2.449 C-0.024 1.641 -0.012 0.833 0 0 Z " fill="#3A383A" transform="translate(349,858)"/>
<path d="M0 0 C1.32 0 2.64 0 4 0 C4 7.92 4 15.84 4 24 C2.68 23.67 1.36 23.34 0 23 C0 15.41 0 7.82 0 0 Z " fill="#444045" transform="translate(309,271)"/>
<path d="M0 0 C0.33 1.32 0.66 2.64 1 4 C-0.65 4.33 -2.3 4.66 -4 5 C-4.66 8.63 -5.32 12.26 -6 16 C-7.32 15.67 -8.64 15.34 -10 15 C-10 10.38 -10 5.76 -10 1 C-4 0 -4 0 0 0 Z " fill="#474546" transform="translate(219,278)"/>
<path d="M0 0 C1.65 0 3.3 0 5 0 C5 1.32 5 2.64 5 4 C3.35 4.66 1.7 5.32 0 6 C-0.33 9.3 -0.66 12.6 -1 16 C-2.32 16 -3.64 16 -5 16 C-5 11.05 -5 6.1 -5 1 C-2.525 1.495 -2.525 1.495 0 2 C0 1.34 0 0.68 0 0 Z " fill="#444141" transform="translate(718,634)"/>
<path d="M0 0 C2.375 -0.125 2.375 -0.125 5 0 C7.139 2.139 7.427 3.133 8 6 C8.33 4.02 8.66 2.04 9 0 C9.33 0 9.66 0 10 0 C10.312 3.188 10.312 3.188 10 7 C7.5 9.938 7.5 9.938 5 12 C4.67 11.01 4.34 10.02 4 9 C2.68 9 1.36 9 0 9 C0 6.03 0 3.06 0 0 Z " fill="#5F5C5D" transform="translate(241,282)"/>
<path d="M0 0 C0.66 0.66 1.32 1.32 2 2 C5.583 2.167 5.583 2.167 9 2 C9 2.99 9 3.98 9 5 C6.69 5 4.38 5 2 5 C2.99 6.485 2.99 6.485 4 8 C5.977 8.363 5.977 8.363 8.125 8.188 C9.404 8.126 10.683 8.064 12 8 C12 8.99 12 9.98 12 11 C8.943 12.528 6.37 12.232 3 12 C0.562 11 0.562 11 -1 9 C-1.393 6.202 -1.23 3.857 -1 1 C-0.67 0.67 -0.34 0.34 0 0 Z " fill="#2E2D30" transform="translate(332,863)"/>
<path d="M0 0 C0.66 0 1.32 0 2 0 C2.082 1.258 2.165 2.516 2.25 3.812 C2.616 6.576 2.785 7.733 4.562 9.938 C8.036 11.452 11.226 11.685 15 12 C15 12.99 15 13.98 15 15 C6.025 15.627 6.025 15.627 1.938 13.125 C-1.692 9.144 -1.166 6.217 -1 1 C-0.67 0.67 -0.34 0.34 0 0 Z " fill="#373535" transform="translate(88,599)"/>
<path d="M0 0 C3.663 -0.215 6.468 -0.193 9.938 1.062 C12 3 12 3 12.438 6.562 C12 10 12 10 10 12 C9.01 11.67 8.02 11.34 7 11 C7.66 10.01 8.32 9.02 9 8 C8.67 7.01 8.34 6.02 8 5 C4.992 3.775 4.992 3.775 2 3 C2.041 4.093 2.083 5.186 2.125 6.312 C2 10 2 10 0 13 C0 8.71 0 4.42 0 0 Z " fill="#292629" transform="translate(167,272)"/>
<path d="M0 0 C0.99 0 1.98 0 3 0 C3 8.25 3 16.5 3 25 C2.01 24.67 1.02 24.34 0 24 C0 16.08 0 8.16 0 0 Z " fill="#292425" transform="translate(322,850)"/>
<path d="M0 0 C0.99 0 1.98 0 3 0 C3 8.25 3 16.5 3 25 C2.01 24.67 1.02 24.34 0 24 C0 16.08 0 8.16 0 0 Z " fill="#363134" transform="translate(300,270)"/>
<path d="M0 0 C0.99 0 1.98 0 3 0 C3 7.92 3 15.84 3 24 C1.35 23.67 -0.3 23.34 -2 23 C-1.844 22.397 -1.688 21.793 -1.527 21.172 C-1.333 20.373 -1.138 19.573 -0.938 18.75 C-0.74 17.961 -0.543 17.172 -0.34 16.359 C0.023 13.838 -0.364 12.432 -1 10 C-0.918 8.246 -0.769 6.494 -0.562 4.75 C-0.461 3.858 -0.359 2.966 -0.254 2.047 C-0.17 1.371 -0.086 0.696 0 0 Z " fill="#2B292A" transform="translate(794,581)"/>
<path d="M0 0 C1.98 0 3.96 0 6 0 C6 0.66 6 1.32 6 2 C5.01 2.495 5.01 2.495 4 3 C3.527 5.313 3.527 5.313 3.375 8.062 C3.302 9.05 3.228 10.037 3.152 11.055 C2.963 14.715 2.931 18.336 3 22 C2.01 22 1.02 22 0 22 C0 14.74 0 7.48 0 0 Z " fill="#2E2C2C" transform="translate(696,636)"/>
<path d="M0 0 C2.939 0.318 4.551 0.543 6.656 2.688 C8.336 5.578 8.306 7.432 8.188 10.75 C8.16 11.735 8.133 12.72 8.105 13.734 C8.071 14.482 8.036 15.23 8 16 C6.68 16.33 5.36 16.66 4 17 C3.963 16.169 3.925 15.337 3.887 14.48 C3.821 13.394 3.755 12.307 3.688 11.188 C3.629 10.109 3.571 9.03 3.512 7.918 C2.957 4.754 2.367 4.012 0 2 C0 1.34 0 0.68 0 0 Z " fill="#4A4749" transform="translate(357,277)"/>
<path d="M0 0 C-0.875 3.875 -0.875 3.875 -2 5 C-3.489 5.087 -4.981 5.107 -6.473 5.098 C-7.372 5.094 -8.271 5.091 -9.197 5.088 C-10.143 5.08 -11.088 5.071 -12.062 5.062 C-13.012 5.058 -13.961 5.053 -14.939 5.049 C-17.293 5.037 -19.646 5.021 -22 5 C-22 4.01 -22 3.02 -22 2 C-20.724 1.939 -19.448 1.879 -18.133 1.816 C-16.464 1.732 -14.794 1.647 -13.125 1.562 C-12.283 1.523 -11.441 1.484 -10.574 1.443 C-9.769 1.401 -8.963 1.36 -8.133 1.316 C-7.017 1.261 -7.017 1.261 -5.879 1.205 C-3.655 0.962 -2.262 0 0 0 Z " fill="#232223" transform="translate(106,577)"/>
<path d="M0 0 C0.66 0 1.32 0 2 0 C2.33 1.98 2.66 3.96 3 6 C4.32 5.67 5.64 5.34 7 5 C7.33 3.35 7.66 1.7 8 0 C8.99 0 9.98 0 11 0 C11.322 3.537 11.413 5.396 9.375 8.375 C6.352 10.444 4.594 10.469 1 10 C-1 8 -1 8 -1.188 4.438 C-1 1 -1 1 0 0 Z " fill="#2F2C2F" transform="translate(763,639)"/>
<path d="M0 0 C1.207 0.031 1.207 0.031 2.438 0.062 C2.107 1.383 1.778 2.702 1.438 4.062 C0.117 4.062 -1.202 4.062 -2.562 4.062 C-2.562 4.722 -2.562 5.383 -2.562 6.062 C-1.572 6.393 -0.582 6.722 0.438 7.062 C-0.553 7.062 -1.543 7.062 -2.562 7.062 C-2.232 7.722 -1.903 8.383 -1.562 9.062 C1.077 9.062 3.717 9.062 6.438 9.062 C5.438 12.062 5.438 12.062 3.438 13.062 C-0.614 13.321 -2.106 13.367 -5.562 11.062 C-5.255 9.416 -4.941 7.77 -4.625 6.125 C-4.451 5.208 -4.277 4.292 -4.098 3.348 C-3.354 0.17 -3.317 0.081 0 0 Z " fill="#8B8C8D" transform="translate(847.5625,633.9375)"/>
<path d="M0 0 C0.99 0 1.98 0 3 0 C3.33 1.65 3.66 3.3 4 5 C3.34 5 2.68 5 2 5 C2.33 5.66 2.66 6.32 3 7 C3.071 9.374 3.084 11.75 3.062 14.125 C3.053 15.406 3.044 16.688 3.035 18.008 C3.024 18.995 3.012 19.983 3 21 C2.01 21 1.02 21 0 21 C0 14.07 0 7.14 0 0 Z " fill="#363135" transform="translate(709,586)"/>
<path d="M0 0 C6.152 -0.098 6.152 -0.098 8 0 C9 1 9 1 9.098 3.941 C9.086 5.136 9.074 6.331 9.062 7.562 C9.053 8.76 9.044 9.958 9.035 11.191 C9.024 12.118 9.012 13.045 9 14 C8.34 14 7.68 14 7 14 C7 13.01 7 12.02 7 11 C6.34 10.67 5.68 10.34 5 10 C5.33 8.02 5.66 6.04 6 4 C4.02 4 2.04 4 0 4 C0 2.68 0 1.36 0 0 Z " fill="#302E2F" transform="translate(284,862)"/>
<path d="M0 0 C2.64 0.33 5.28 0.66 8 1 C7.361 1.619 6.721 2.237 6.062 2.875 C3.252 7.133 3.194 10.994 3 16 C2.01 15.67 1.02 15.34 0 15 C0 10.05 0 5.1 0 0 Z " fill="#2A2628" transform="translate(816,631)"/>
<path d="M0 0 C0.99 0 1.98 0 3 0 C2.959 0.908 2.918 1.815 2.875 2.75 C2.995 5.878 3.391 7.386 5 10 C7.64 9.67 10.28 9.34 13 9 C12.34 10.32 11.68 11.64 11 13 C4.734 13.602 4.734 13.602 1.562 11 C-0.517 7.008 -0.302 4.459 0 0 Z " fill="#272527" transform="translate(768,594)"/>
<path d="M0 0 C1.32 0.33 2.64 0.66 4 1 C4 5.62 4 10.24 4 15 C2.68 15 1.36 15 0 15 C0 10.05 0 5.1 0 0 Z " fill="#525052" transform="translate(326,278)"/>
<path d="M0 0 C3.875 4.75 3.875 4.75 5 7 C5.66 6.67 6.32 6.34 7 6 C7 7.98 7 9.96 7 12 C5.68 12 4.36 12 3 12 C2.34 10.68 1.68 9.36 1 8 C0.67 10.31 0.34 12.62 0 15 C-0.33 15 -0.66 15 -1 15 C-1.33 10.38 -1.66 5.76 -2 1 C-1.34 0.67 -0.68 0.34 0 0 Z " fill="#4A474A" transform="translate(713,590)"/>
<path d="M0 0 C0 0.66 0 1.32 0 2 C-2 3.625 -2 3.625 -4 5 C-2.35 5.33 -0.7 5.66 1 6 C0.67 6.99 0.34 7.98 0 9 C-2.875 9.625 -2.875 9.625 -6 10 C-8 8 -8 8 -8.312 5.562 C-8 3 -8 3 -6.812 1.188 C-4.44 -0.367 -2.78 -0.225 0 0 Z " fill="#2E2C2F" transform="translate(391,284)"/>
<path d="M0 0 C3.619 -0.329 5.395 -0.446 8.375 1.75 C10 4 10 4 10 8 C8.02 8.33 6.04 8.66 4 9 C3.67 8.34 3.34 7.68 3 7 C3.99 7 4.98 7 6 7 C5.67 6.01 5.34 5.02 5 4 C3.02 4.33 1.04 4.66 -1 5 C-0.67 3.35 -0.34 1.7 0 0 Z " fill="#2A2828" transform="translate(337,278)"/>
<path d="M0 0 C0.66 0 1.32 0 2 0 C2.361 4.453 2.361 4.453 0.906 6.656 C-1.932 8.657 -4.266 8.289 -7.688 8.188 C-9.457 8.147 -9.457 8.147 -11.262 8.105 C-12.165 8.071 -13.069 8.036 -14 8 C-14 7.01 -14 6.02 -14 5 C-13.157 4.974 -12.314 4.948 -11.445 4.922 C-10.35 4.865 -9.254 4.808 -8.125 4.75 C-7.034 4.704 -5.944 4.657 -4.82 4.609 C-1.867 4.312 -1.867 4.312 -0.617 1.953 C-0.414 1.309 -0.21 0.664 0 0 Z " fill="#292525" transform="translate(106,556)"/>
<path d="M0 0 C3.375 -0.125 3.375 -0.125 7 0 C7.66 0.66 8.32 1.32 9 2 C8.977 4.164 8.977 4.164 8.625 6.625 C8.459 7.851 8.459 7.851 8.289 9.102 C8.146 10.041 8.146 10.041 8 11 C7.67 11 7.34 11 7 11 C6.34 8.69 5.68 6.38 5 4 C4.01 4 3.02 4 2 4 C1.34 4.66 0.68 5.32 0 6 C-0.66 5.67 -1.32 5.34 -2 5 C-1.34 3.35 -0.68 1.7 0 0 Z " fill="#312D30" transform="translate(183,279)"/>
<path d="M0 0 C5.28 0 10.56 0 16 0 C16 0.99 16 1.98 16 3 C10.72 3 5.44 3 0 3 C0 2.01 0 1.02 0 0 Z " fill="#2E2D2E" transform="translate(92,588)"/>
<path d="M0 0 C0.99 0 1.98 0 3 0 C3 5.28 3 10.56 3 16 C2.01 16 1.02 16 0 16 C0 10.72 0 5.44 0 0 Z " fill="#2F292F" transform="translate(318,278)"/>
<path d="M0 0 C3.63 0 7.26 0 11 0 C10.67 1.65 10.34 3.3 10 5 C9.01 4.67 8.02 4.34 7 4 C6.01 4.495 6.01 4.495 5 5 C2.992 4.719 0.99 4.389 -1 4 C-0.67 2.68 -0.34 1.36 0 0 Z " fill="#545252" transform="translate(728,633)"/>
<path d="M0 0 C1.32 0 2.64 0 4 0 C4 7.59 4 15.18 4 23 C3.67 23 3.34 23 3 23 C2.67 18.05 2.34 13.1 2 8 C1.01 8.495 1.01 8.495 0 9 C0 6.03 0 3.06 0 0 Z " fill="#555455" transform="translate(760,583)"/>
<path d="M0 0 C-1 3 -1 3 -3 4 C-4.874 4.07 -6.75 4.084 -8.625 4.062 C-9.628 4.053 -10.631 4.044 -11.664 4.035 C-12.435 4.024 -13.206 4.012 -14 4 C-14 3.01 -14 2.02 -14 1 C-9.328 -0.206 -4.785 -0.094 0 0 Z " fill="#403F40" transform="translate(106,478)"/>
<path d="M0 0 C3.613 -0.336 5.626 -0.195 8.875 1.5 C11.167 4.196 11.326 4.767 11.375 8.125 C11 12 11 12 10 14 C9.34 14 8.68 14 8 14 C7.67 10.37 7.34 6.74 7 3 C4.69 2.34 2.38 1.68 0 1 C0 0.67 0 0.34 0 0 Z " fill="#3B3A3B" transform="translate(99,442)"/>
<path d="M0 0 C0.66 0.33 1.32 0.66 2 1 C1.67 1.33 1.34 1.66 1 2 C0.928 3.686 0.916 5.375 0.938 7.062 C0.947 7.982 0.956 8.901 0.965 9.848 C0.976 10.558 0.988 11.268 1 12 C1.66 12.33 2.32 12.66 3 13 C3 13.66 3 14.32 3 15 C-1.875 14.125 -1.875 14.125 -3 13 C-3.203 10.82 -3.203 10.82 -3.25 8.125 C-3.276 7.241 -3.302 6.356 -3.328 5.445 C-2.945 2.59 -2.215 1.76 0 0 Z " fill="#3C3A3B" transform="translate(783,633)"/>
<path d="M0 0 C2.062 0.438 2.062 0.438 4 1 C4 3.64 4 6.28 4 9 C2.062 9.562 2.062 9.562 0 10 C-1 9 -1 9 -1.133 7.188 C-1.13 6.466 -1.128 5.744 -1.125 5 C-1.128 4.278 -1.13 3.556 -1.133 2.812 C-1 1 -1 1 0 0 Z " fill="#F7F7F7" transform="translate(185,282)"/>
<path d="M0 0 C1.98 0.495 1.98 0.495 4 1 C4 3.64 4 6.28 4 9 C2.062 9.562 2.062 9.562 0 10 C-1 9 -1 9 -1.125 5.562 C-1 2 -1 2 0 0 Z " fill="#EFEFEF" transform="translate(766,636)"/>
<path d="M0 0 C2.475 0.495 2.475 0.495 5 1 C5 3.31 5 5.62 5 8 C3.02 8.99 3.02 8.99 1 10 C0 9 0 9 -0.098 6.934 C-0.086 6.11 -0.074 5.286 -0.062 4.438 C-0.053 3.611 -0.044 2.785 -0.035 1.934 C-0.024 1.296 -0.012 0.657 0 0 Z " fill="#F5F5F5" transform="translate(738,595)"/>
<path d="M0 0 C2.97 0.33 5.94 0.66 9 1 C9.33 1.99 9.66 2.98 10 4 C7.03 3.505 7.03 3.505 4 3 C4.99 4.485 4.99 4.485 6 6 C5.625 8.188 5.625 8.188 5 10 C4.01 10 3.02 10 2 10 C2.66 8.68 3.32 7.36 4 6 C2.68 5.34 1.36 4.68 0 4 C0 2.68 0 1.36 0 0 Z " fill="#2C2B2D" transform="translate(97,443)"/>
<path d="M0 0 C0.99 0 1.98 0 3 0 C2.25 7.625 2.25 7.625 0 11 C-1.667 11 -3.333 11 -5 11 C-4.732 10.484 -4.464 9.969 -4.188 9.438 C-2.677 6.336 -1.344 3.177 0 0 Z " fill="#494748" transform="translate(392,858)"/>
<path d="M0 0 C3.692 0.692 3.692 0.692 5 2 C5.125 4.5 5.125 4.5 5 7 C4 8 4 8 1.438 8.062 C0.633 8.042 -0.171 8.021 -1 8 C-1.042 5.667 -1.041 3.333 -1 1 C-0.67 0.67 -0.34 0.34 0 0 Z " fill="#EBECED" transform="translate(700,638)"/>
<path d="M0 0 C0.66 0 1.32 0 2 0 C2 2.97 2 5.94 2 9 C3.32 9.33 4.64 9.66 6 10 C6 10.66 6 11.32 6 12 C3.625 12.125 3.625 12.125 1 12 C-1 10 -1 10 -1.23 7.871 C-1.209 6.666 -1.209 6.666 -1.188 5.438 C-1.181 4.632 -1.175 3.826 -1.168 2.996 C-1 1 -1 1 0 0 Z " fill="#333031" transform="translate(372,282)"/>
<path d="M0 0 C0.99 0 1.98 0 3 0 C3 4.62 3 9.24 3 14 C2.01 14 1.02 14 0 14 C0 9.38 0 4.76 0 0 Z " fill="#373434" transform="translate(833,632)"/>
<path d="M0 0 C1.32 0 2.64 0 4 0 C4 2.64 4 5.28 4 8 C2.062 8.562 2.062 8.562 0 9 C-1 8 -1 8 -1.125 4.5 C-1 1 -1 1 0 0 Z " fill="#EEEEEE" transform="translate(755,595)"/>
<path d="M0 0 C-1 3 -1 3 -2.742 3.949 C-3.798 4.315 -3.798 4.315 -4.875 4.688 C-5.923 5.065 -5.923 5.065 -6.992 5.449 C-9 6 -9 6 -12 6 C-11.812 4.125 -11.812 4.125 -11 2 C-7.338 -0.092 -4.155 -0.193 0 0 Z " fill="#2D2B2C" transform="translate(104,496)"/>
<path d="M0 0 C0 0.99 0 1.98 0 3 C-1.32 3.33 -2.64 3.66 -4 4 C-4 4.66 -4 5.32 -4 6 C-4.66 6 -5.32 6 -6 6 C-6 6.66 -6 7.32 -6 8 C-5.34 8.33 -4.68 8.66 -4 9 C-4.99 9 -5.98 9 -7 9 C-7.33 6.69 -7.66 4.38 -8 2 C-4.772 -0.152 -3.716 -0.201 0 0 Z " fill="#3D3B3B" transform="translate(99,465)"/>
<path d="M0 0 C0.33 0 0.66 0 1 0 C1.33 5.28 1.66 10.56 2 16 C2.66 15.67 3.32 15.34 4 15 C4 17.64 4 20.28 4 23 C3.01 22.67 2.02 22.34 1 22 C0.059 19.176 -0.117 17.471 -0.098 14.551 C-0.094 13.703 -0.091 12.856 -0.088 11.982 C-0.08 11.101 -0.071 10.22 -0.062 9.312 C-0.058 8.42 -0.053 7.527 -0.049 6.607 C-0.037 4.405 -0.021 2.202 0 0 Z " fill="#6E6C6E" transform="translate(281,273)"/>
<path d="M0 0 C2.475 0.495 2.475 0.495 5 1 C5 3.31 5 5.62 5 8 C3.35 8 1.7 8 0 8 C0 5.36 0 2.72 0 0 Z " fill="#F7F7F7" transform="translate(242,282)"/>
<path d="M0 0 C0.66 0 1.32 0 2 0 C2.182 0.615 2.364 1.23 2.551 1.863 C2.802 2.672 3.054 3.48 3.312 4.312 C3.556 5.113 3.8 5.914 4.051 6.738 C5.042 9.1 6.081 10.339 8 12 C5.688 12.25 5.688 12.25 3 12 C1.188 10.5 1.188 10.5 0 8 C-0.239 5.279 -0.137 2.742 0 0 Z " fill="#252326" transform="translate(734,595)"/>
<path d="M0 0 C0.25 2.562 0.25 2.562 0 5 C-1 6 -1 6 -4.062 6.062 C-5.032 6.042 -6.001 6.021 -7 6 C-7.33 5.34 -7.66 4.68 -8 4 C-6.35 3.67 -4.7 3.34 -3 3 C-4.255 0.489 -5.501 0.129 -8 -1 C-3.375 -2.25 -3.375 -2.25 0 0 Z " fill="#1C1A1D" transform="translate(780,593)"/>
<path d="M0 0 C3.63 0 7.26 0 11 0 C10.67 1.65 10.34 3.3 10 5 C6.7 4.34 3.4 3.68 0 3 C0 2.01 0 1.02 0 0 Z " fill="#272525" transform="translate(223,279)"/>
<path d="M0 0 C0.33 0 0.66 0 1 0 C1 1.98 1 3.96 1 6 C1.66 6 2.32 6 3 6 C3 7.65 3 9.3 3 11 C0.36 11 -2.28 11 -5 11 C-5.33 10.34 -5.66 9.68 -6 9 C-5.34 8.34 -4.68 7.68 -4 7 C-3.01 7 -2.02 7 -1 7 C-0.67 4.69 -0.34 2.38 0 0 Z " fill="#403E3E" transform="translate(759,596)"/>
<path d="M0 0 C1.32 0 2.64 0 4 0 C4 2.31 4 4.62 4 7 C2.062 7.562 2.062 7.562 0 8 C-1 7 -1 7 -1.125 4 C-1 1 -1 1 0 0 Z " fill="#FAFAFA" transform="translate(789,594)"/>
<path d="M0 0 C0.66 0.66 1.32 1.32 2 2 C5.583 2.167 5.583 2.167 9 2 C9 2.99 9 3.98 9 5 C7.721 5.144 6.442 5.289 5.125 5.438 C2.743 5.706 1.155 5.922 -1 7 C-1.043 5 -1.041 3 -1 1 C-0.67 0.67 -0.34 0.34 0 0 Z " fill="#1F1D1E" transform="translate(332,863)"/>
<path d="M0 0 C0.33 0 0.66 0 1 0 C1.25 2.312 1.25 2.312 1 5 C-1 6.812 -1 6.812 -3 8 C-2.34 8.33 -1.68 8.66 -1 9 C-2.32 9 -3.64 9 -5 9 C-5 11.64 -5 14.28 -5 17 C-5.33 17 -5.66 17 -6 17 C-6.33 13.37 -6.66 9.74 -7 6 C-5.546 5.629 -5.546 5.629 -4.062 5.25 C-2.547 4.631 -2.547 4.631 -1 4 C-0.031 1.968 -0.031 1.968 0 0 Z " fill="#575758" transform="translate(705,641)"/>
<path d="M0 0 C0.33 0 0.66 0 1 0 C1.317 4.041 1.358 6.378 -0.688 9.938 C-3 12 -3 12 -5.75 12.312 C-6.864 12.158 -6.864 12.158 -8 12 C-7.361 11.278 -6.721 10.556 -6.062 9.812 C-4.013 7.018 -3.387 5.383 -3 2 C-2.67 3.32 -2.34 4.64 -2 6 C-1.34 6 -0.68 6 0 6 C0 4.02 0 2.04 0 0 Z " fill="#4B494A" transform="translate(746,596)"/>
<path d="M0 0 C0.99 0 1.98 0 3 0 C2.886 1.459 2.758 2.917 2.625 4.375 C2.555 5.187 2.486 5.999 2.414 6.836 C2 9 2 9 0 11 C-0.66 10.67 -1.32 10.34 -2 10 C-1.542 6.531 -1.109 3.326 0 0 Z " fill="#403D40" transform="translate(264,278)"/>
<path d="M0 0 C0.66 0 1.32 0 2 0 C2.33 1.98 2.66 3.96 3 6 C4.98 5.67 6.96 5.34 9 5 C7 8 7 8 3.438 8.75 C1.736 8.874 1.736 8.874 0 9 C-1 8 -1 8 -1.125 4.5 C-1 1 -1 1 0 0 Z " fill="#373437" transform="translate(763,639)"/>
<path d="M0 0 C3.63 0 7.26 0 11 0 C10.67 0.99 10.34 1.98 10 3 C5.545 3.495 5.545 3.495 1 4 C0.67 2.68 0.34 1.36 0 0 Z " fill="#1D191D" transform="translate(87,530)"/>
<path d="M0 0 C0.33 0 0.66 0 1 0 C1.049 0.603 1.098 1.207 1.148 1.828 C1.223 2.627 1.298 3.427 1.375 4.25 C1.445 5.039 1.514 5.828 1.586 6.641 C2.015 9.086 2.786 10.848 4 13 C2.35 12.67 0.7 12.34 -1 12 C-1.027 10.188 -1.046 8.375 -1.062 6.562 C-1.074 5.553 -1.086 4.544 -1.098 3.504 C-1 1 -1 1 0 0 Z " fill="#292628" transform="translate(200,282)"/>
<path d="M0 0 C1.65 0 3.3 0 5 0 C5.625 1.875 5.625 1.875 6 4 C5.34 4.66 4.68 5.32 4 6 C2.68 6 1.36 6 0 6 C0 4.02 0 2.04 0 0 Z " fill="#F7F8F8" transform="translate(170,276)"/>
<path d="M0 0 C1.98 0 3.96 0 6 0 C6 4 6 4 5 7 C3.68 7 2.36 7 1 7 C1.206 6.216 1.412 5.433 1.625 4.625 C1.749 3.759 1.873 2.893 2 2 C1.34 1.34 0.68 0.68 0 0 Z " fill="#828180" transform="translate(95,539)"/>
<path d="M0 0 C2.97 0 5.94 0 9 0 C8.67 1.65 8.34 3.3 8 5 C7.67 4.34 7.34 3.68 7 3 C4.36 3.33 1.72 3.66 -1 4 C-0.67 2.68 -0.34 1.36 0 0 Z " fill="#302B2F" transform="translate(384,278)"/>
<path d="M0 0 C0.99 0.495 0.99 0.495 2 1 C3.373 1.069 4.75 1.085 6.125 1.062 C7.404 1.042 8.683 1.021 10 1 C9 4 9 4 7 5 C5 5.04 3 5.043 1 5 C0.67 3.35 0.34 1.7 0 0 Z " fill="#28262A" transform="translate(844,642)"/>
<path d="M0 0 C0.33 0 0.66 0 1 0 C1.074 3.343 1.065 5.804 0 9 C-1.98 9 -3.96 9 -6 9 C-6.33 7.35 -6.66 5.7 -7 4 C-4.03 4.495 -4.03 4.495 -1 5 C-0.67 3.35 -0.34 1.7 0 0 Z " fill="#3E3C3D" transform="translate(793,596)"/>
<path d="M0 0 C5.673 -0.293 8.991 -0.006 14 3 C13.67 3.99 13.34 4.98 13 6 C12.526 5.526 12.051 5.051 11.562 4.562 C7.884 2.319 4.238 2.263 0 2 C0 1.34 0 0.68 0 0 Z " fill="#2E2B2D" transform="translate(94,505)"/>
<path d="M0 0 C1.875 0.625 1.875 0.625 4 2 C5.25 5.125 5.25 5.125 6 8 C4.35 7.67 2.7 7.34 1 7 C0.67 4.69 0.34 2.38 0 0 Z " fill="#3E373A" transform="translate(254,279)"/>
<path d="M0 0 C0 0.99 0 1.98 0 3 C-1.969 4.605 -1.969 4.605 -4.5 6.188 C-5.335 6.717 -6.171 7.247 -7.031 7.793 C-7.681 8.191 -8.331 8.59 -9 9 C-9.66 8.34 -10.32 7.68 -11 7 C-7.37 4.69 -3.74 2.38 0 0 Z " fill="#3C3B3F" transform="translate(218,778)"/>
<path d="M0 0 C-1.098 2.993 -1.677 3.846 -4.625 5.25 C-5.409 5.497 -6.192 5.745 -7 6 C-7.33 4.35 -7.66 2.7 -8 1 C-5.237 0.403 -2.84 0 0 0 Z " fill="#818081" transform="translate(807,641)"/>
<path d="M0 0 C2.64 0 5.28 0 8 0 C8 0.99 8 1.98 8 3 C3.545 3.495 3.545 3.495 -1 4 C-0.67 2.68 -0.34 1.36 0 0 Z " fill="#2F2C2B" transform="translate(800,632)"/>
<path d="M0 0 C1.125 1.625 1.125 1.625 2 4 C1.125 7.25 1.125 7.25 0 10 C-0.66 10 -1.32 10 -2 10 C-2 9.34 -2 8.68 -2 8 C-4.64 8 -7.28 8 -10 8 C-10 7.67 -10 7.34 -10 7 C-7.03 6.34 -4.06 5.68 -1 5 C-0.67 3.35 -0.34 1.7 0 0 Z " fill="#4F4E4D" transform="translate(105,603)"/>
<path d="M0 0 C0.66 0 1.32 0 2 0 C2 3.3 2 6.6 2 10 C1.01 9.67 0.02 9.34 -1 9 C-1.098 2.848 -1.098 2.848 -1 1 C-0.67 0.67 -0.34 0.34 0 0 Z " fill="#212022" transform="translate(88,599)"/>
<path d="M0 0 C0.33 0 0.66 0 1 0 C1 5.61 1 11.22 1 17 C0.67 17 0.34 17 0 17 C0 15.35 0 13.7 0 12 C-0.66 12 -1.32 12 -2 12 C-2 10.02 -2 8.04 -2 6 C-1.67 6 -1.34 6 -1 6 C-0.67 4.02 -0.34 2.04 0 0 Z " fill="#1E1D1D" transform="translate(762,590)"/>
<path d="M0 0 C0 1.98 0 3.96 0 6 C-2.31 5.34 -4.62 4.68 -7 4 C-7 3.34 -7 2.68 -7 2 C-7.66 1.67 -8.32 1.34 -9 1 C-1.125 0 -1.125 0 0 0 Z " fill="#2B2929" transform="translate(762,591)"/>
<path d="M0 0 C0.99 0 1.98 0 3 0 C3 0.66 3 1.32 3 2 C5.64 2 8.28 2 11 2 C11 2.66 11 3.32 11 4 C7.37 4 3.74 4 0 4 C0 2.68 0 1.36 0 0 Z " fill="#131214" transform="translate(223,290)"/>
<path d="M0 0 C0.33 0 0.66 0 1 0 C1.33 2.97 1.66 5.94 2 9 C2.33 9 2.66 9 3 9 C3.33 11.31 3.66 13.62 4 16 C3.01 16 2.02 16 1 16 C-0.141 12.578 -0.098 9.913 -0.062 6.312 C-0.053 5.133 -0.044 3.954 -0.035 2.738 C-0.024 1.835 -0.012 0.931 0 0 Z " fill="#646060" transform="translate(351,278)"/>
<path d="M0 0 C0.33 0.99 0.66 1.98 1 3 C1.99 2.34 2.98 1.68 4 1 C6.188 1.375 6.188 1.375 8 2 C8 2.99 8 3.98 8 5 C1.25 5.125 1.25 5.125 -1 4 C-0.67 2.68 -0.34 1.36 0 0 Z " fill="#9B9B9B" transform="translate(335,280)"/>
<path d="M0 0 C0.33 0.99 0.66 1.98 1 3 C-3.75 6 -3.75 6 -6 6 C-6.33 6.66 -6.66 7.32 -7 8 C-7.33 6.68 -7.66 5.36 -8 4 C-5.36 2.68 -2.72 1.36 0 0 Z " fill="#2F2E2E" transform="translate(808,636)"/>
<path d="M0 0 C1.98 0.99 1.98 0.99 4 2 C3.34 2 2.68 2 2 2 C2.021 3.217 2.041 4.434 2.062 5.688 C2.068 8.92 1.788 11.849 1 15 C0.67 15 0.34 15 0 15 C0 10.05 0 5.1 0 0 Z " fill="#413C3E" transform="translate(816,631)"/>
<path d="M0 0 C-0.476 0.828 -0.476 0.828 -0.961 1.672 C-2.127 4.285 -2.4 6.406 -2.625 9.25 C-2.7 10.142 -2.775 11.034 -2.852 11.953 C-2.901 12.629 -2.95 13.304 -3 14 C-3.99 13.67 -4.98 13.34 -6 13 C-5.34 13 -4.68 13 -4 13 C-4.33 9.04 -4.66 5.08 -5 1 C-2 0 -2 0 0 0 Z " fill="#39383A" transform="translate(751,635)"/>
<path d="M0 0 C0.66 0 1.32 0 2 0 C1.34 3.3 0.68 6.6 0 10 C-0.66 10 -1.32 10 -2 10 C-2.195 3.945 -2.195 3.945 -2 2 C-1.34 1.34 -0.68 0.68 0 0 Z " fill="#1D1A1E" transform="translate(843,633)"/>
<path d="M0 0 C0.99 0 1.98 0 3 0 C1.25 4.875 1.25 4.875 -1 6 C-1.656 8.527 -1.656 8.527 -2 11 C-2.33 11 -2.66 11 -3 11 C-2.886 9.541 -2.758 8.083 -2.625 6.625 C-2.555 5.813 -2.486 5.001 -2.414 4.164 C-2 2 -2 2 0 0 Z " fill="#4F4C4D" transform="translate(764,634)"/>
<path d="M0 0 C0.188 3.312 0.188 3.312 0 7 C-0.99 7.99 -1.98 8.98 -3 10 C-3.33 7.03 -3.66 4.06 -4 1 C-2 0 -2 0 0 0 Z " fill="#2B2A2B" transform="translate(109,601)"/>
<path d="M0 0 C2 3 2 3 1.812 5.5 C0.956 8.137 0.11 9.257 -2 11 C-2.286 3.571 -2.286 3.571 0 0 Z " fill="#383737" transform="translate(722,590)"/>
<path d="M0 0 C3.63 0.33 7.26 0.66 11 1 C11 1.66 11 2.32 11 3 C7.7 3 4.4 3 1 3 C0.67 2.01 0.34 1.02 0 0 Z " fill="#282425" transform="translate(92,552)"/>
<path d="M0 0 C0.99 0.33 1.98 0.66 3 1 C3 3.64 3 6.28 3 9 C2.01 9 1.02 9 0 9 C0 6.03 0 3.06 0 0 Z " fill="#252223" transform="translate(210,285)"/>
<path d="M0 0 C0.99 0 1.98 0 3 0 C3 1.98 3 3.96 3 6 C2.34 6 1.68 6 1 6 C0.67 6.99 0.34 7.98 0 9 C-0.99 8.34 -1.98 7.68 -3 7 C-2.01 7 -1.02 7 0 7 C0 4.69 0 2.38 0 0 Z " fill="#353435" transform="translate(300,852)"/>
<path d="M0 0 C0.99 0.33 1.98 0.66 3 1 C3 3.64 3 6.28 3 9 C2.34 9 1.68 9 1 9 C0.639 7.689 0.286 6.376 -0.062 5.062 C-0.358 3.966 -0.358 3.966 -0.66 2.848 C-0.772 2.238 -0.884 1.628 -1 1 C-0.67 0.67 -0.34 0.34 0 0 Z " fill="#232324" transform="translate(743,593)"/>
<path d="M0 0 C0.33 0 0.66 0 1 0 C0.979 0.908 0.959 1.815 0.938 2.75 C0.989 5.427 1.222 7.47 2 10 C1.67 9.34 1.34 8.68 1 8 C-1.314 7.269 -3.648 6.599 -6 6 C-2.25 4 -2.25 4 0 4 C0 2.68 0 1.36 0 0 Z " fill="#5A5958" transform="translate(289,866)"/>
<path d="M0 0 C0.33 0 0.66 0 1 0 C1.197 1.415 1.382 2.832 1.562 4.25 C1.667 5.039 1.771 5.828 1.879 6.641 C2 9.005 1.696 10.751 1 13 C-0.551 11.824 -0.551 11.824 -2 10 C-1.855 7.52 -1.855 7.52 -1.188 4.812 C-0.975 3.911 -0.762 3.01 -0.543 2.082 C-0.364 1.395 -0.185 0.708 0 0 Z " fill="#4B484D" transform="translate(279,861)"/>
<path d="M0 0 C0.66 0.33 1.32 0.66 2 1 C1.25 3.438 1.25 3.438 0 6 C-2.125 6.812 -2.125 6.812 -4 7 C-2.926 4.085 -2.222 2.222 0 0 Z " fill="#282627" transform="translate(735,636)"/>
<path d="M0 0 C2.125 0.375 2.125 0.375 4 1 C3.67 1.66 3.34 2.32 3 3 C2.01 3 1.02 3 0 3 C0.33 3.99 0.66 4.98 1 6 C0.01 6.33 -0.98 6.66 -2 7 C-2.125 4.625 -2.125 4.625 -2 2 C-1.34 1.34 -0.68 0.68 0 0 Z " fill="#322F30" transform="translate(94,540)"/>
<path d="M0 0 C0.99 0 1.98 0 3 0 C3.66 2.31 4.32 4.62 5 7 C3.68 6.67 2.36 6.34 1 6 C0.67 4.02 0.34 2.04 0 0 Z " fill="#272428" transform="translate(89,446)"/>
<path d="M0 0 C1.32 0.66 2.64 1.32 4 2 C4 3.32 4 4.64 4 6 C2.68 6.33 1.36 6.66 0 7 C0.66 5.35 1.32 3.7 2 2 C0.68 2.33 -0.64 2.66 -2 3 C-1.34 2.01 -0.68 1.02 0 0 Z " fill="#4A4A4D" transform="translate(854,296)"/>
<path d="M0 0 C0.33 0.99 0.66 1.98 1 3 C-1.957 4.478 -4.742 4.06 -8 4 C-6 1 -6 1 -2.875 0.312 C-1.926 0.209 -0.978 0.106 0 0 Z " fill="#363335" transform="translate(343,871)"/>
<path d="M0 0 C1.32 0 2.64 0 4 0 C4 1.32 4 2.64 4 4 C2.02 4 0.04 4 -2 4 C-1.34 2.68 -0.68 1.36 0 0 Z " fill="#CFCFCF" transform="translate(336,861)"/>
<path d="M0 0 C1.98 0 3.96 0 6 0 C6.33 1.32 6.66 2.64 7 4 C5.35 4 3.7 4 2 4 C2 3.01 2 2.02 2 1 C1.34 0.67 0.68 0.34 0 0 Z " fill="#464345" transform="translate(354,858)"/>
<path d="M0 0 C0.33 0.66 0.66 1.32 1 2 C1.66 2 2.32 2 3 2 C3 2.66 3 3.32 3 4 C3.99 4.33 4.98 4.66 6 5 C5.67 6.32 5.34 7.64 5 9 C4.01 9 3.02 9 2 9 C2.66 7.68 3.32 6.36 4 5 C2.68 4.34 1.36 3.68 0 3 C0 2.01 0 1.02 0 0 Z " fill="#232022" transform="translate(97,444)"/>
<path d="M0 0 C2.962 0.613 4.381 1.254 7 3 C5.02 3 3.04 3 1 3 C0.67 3.66 0.34 4.32 0 5 C-0.66 4.67 -1.32 4.34 -2 4 C-1.34 2.68 -0.68 1.36 0 0 Z " fill="#404040" transform="translate(337,285)"/>
<path d="M0 0 C2.64 0 5.28 0 8 0 C6.02 0.99 6.02 0.99 4 2 C4.33 2.66 4.66 3.32 5 4 C3.35 4 1.7 4 0 4 C0 2.68 0 1.36 0 0 Z " fill="#535153" transform="translate(284,862)"/>
<path d="M0 0 C0 0.99 0 1.98 0 3 C-2.25 5.25 -2.25 5.25 -5 7 C-6.32 6.67 -7.64 6.34 -9 6 C-6.03 4.02 -3.06 2.04 0 0 Z " fill="#37363B" transform="translate(320,708)"/>
<path d="M0 0 C2 0 2 0 4.125 1.875 C6 4 6 4 6 6 C4.35 5.67 2.7 5.34 1 5 C0.67 3.35 0.34 1.7 0 0 Z " fill="#272426" transform="translate(780,642)"/>
<path d="M0 0 C1.65 1.32 3.3 2.64 5 4 C3.02 4.99 3.02 4.99 1 6 C0.01 4.68 -0.98 3.36 -2 2 C-1.34 2 -0.68 2 0 2 C0 1.34 0 0.68 0 0 Z " fill="#2C2B2D" transform="translate(90,607)"/>
<path d="M0 0 C-0.66 1.32 -1.32 2.64 -2 4 C-4.31 4 -6.62 4 -9 4 C-7 1 -7 1 -5.062 0.312 C-3 0 -3 0 0 0 Z " fill="#474444" transform="translate(781,603)"/>
<path d="M0 0 C0.99 0.33 1.98 0.66 3 1 C2.34 2.32 1.68 3.64 1 5 C1.99 5.33 2.98 5.66 4 6 C4 6.99 4 7.98 4 9 C3.01 8.67 2.02 8.34 1 8 C-0.354 5.291 -0.065 2.991 0 0 Z " fill="#222022" transform="translate(334,284)"/>
<path d="M0 0 C0.784 0.041 1.567 0.082 2.375 0.125 C2.375 0.785 2.375 1.445 2.375 2.125 C-0.125 3.75 -0.125 3.75 -2.625 5.125 C-3.285 4.135 -3.945 3.145 -4.625 2.125 C-2.625 0.125 -2.625 0.125 0 0 Z " fill="#363335" transform="translate(388.625,283.875)"/>
<path d="M0 0 C0.99 0 1.98 0 3 0 C2.67 1.65 2.34 3.3 2 5 C1.01 5.33 0.02 5.66 -1 6 C-1.043 4.334 -1.041 2.666 -1 1 C-0.67 0.67 -0.34 0.34 0 0 Z " fill="#3C383A" transform="translate(392,858)"/>
<path d="M0 0 C1.98 0.66 3.96 1.32 6 2 C6 2.66 6 3.32 6 4 C4.35 4 2.7 4 1 4 C0.67 2.68 0.34 1.36 0 0 Z " fill="#393839" transform="translate(301,871)"/>
<path d="M0 0 C6.523 -0.369 6.523 -0.369 8.938 1.5 C9.288 1.995 9.639 2.49 10 3 C9.34 3.66 8.68 4.32 8 5 C8 4.34 8 3.68 8 3 C5.36 2.34 2.72 1.68 0 1 C0 0.67 0 0.34 0 0 Z " fill="#525152" transform="translate(96,507)"/>
<path d="M0 0 C2.31 0.33 4.62 0.66 7 1 C7 1.66 7 2.32 7 3 C4.69 3 2.38 3 0 3 C0 2.01 0 1.02 0 0 Z " fill="#201E1F" transform="translate(223,279)"/>
<path d="M0 0 C0.33 0 0.66 0 1 0 C1 2.64 1 5.28 1 8 C0.01 8 -0.98 8 -2 8 C-1.477 5.237 -0.891 2.674 0 0 Z " fill="#343133" transform="translate(352,867)"/>
<path d="M0 0 C1.32 0 2.64 0 4 0 C4 1.65 4 3.3 4 5 C3.01 5.495 3.01 5.495 2 6 C1.67 5.01 1.34 4.02 1 3 C0.34 2.34 -0.32 1.68 -1 1 C-0.67 0.67 -0.34 0.34 0 0 Z " fill="#252324" transform="translate(288,863)"/>
<path d="M0 0 C0 0.33 0 0.66 0 1 C-1.072 1.289 -2.145 1.577 -3.25 1.875 C-6.094 2.728 -8.435 3.564 -11 5 C-9.071 -0.787 -5.39 -0.203 0 0 Z " fill="#59555A" transform="translate(289,852)"/>
<path d="M0 0 C0 0.99 0 1.98 0 3 C-3.333 6 -3.333 6 -6 6 C-4.755 2.264 -3.366 1.812 0 0 Z " fill="#363539" transform="translate(339,695)"/>
<path d="M0 0 C1.125 1.75 1.125 1.75 2 4 C1.125 6.25 1.125 6.25 0 8 C-1.32 8 -2.64 8 -4 8 C-3 6 -3 6 -1 5 C-0.344 2.473 -0.344 2.473 0 0 Z " fill="#262525" transform="translate(706,641)"/>
<path d="M0 0 C0.99 0.33 1.98 0.66 3 1 C3 1.99 3 2.98 3 4 C2.34 4 1.68 4 1 4 C1.33 5.32 1.66 6.64 2 8 C1.34 8 0.68 8 0 8 C0 5.36 0 2.72 0 0 Z " fill="#252225" transform="translate(710,587)"/>
<path d="M0 0 C0.99 0.33 1.98 0.66 3 1 C2.67 2.65 2.34 4.3 2 6 C2.66 6.33 3.32 6.66 4 7 C3.01 7 2.02 7 1 7 C0.67 4.69 0.34 2.38 0 0 Z " fill="#2E2C2C" transform="translate(91,467)"/>
</svg>