<svg version="1.1" xmlns="http://www.w3.org/2000/svg" width="1024" height="1024">
<path d="M0 0 C337.92 0 675.84 0 1024 0 C1024 337.92 1024 675.84 1024 1024 C686.08 1024 348.16 1024 0 1024 C0 686.08 0 348.16 0 0 Z " fill="#E7E6E6" transform="translate(0,0)"/>
<path d="M0 0 C2.768 0.836 5.472 1.775 8.185 2.774 C9.672 3.309 9.672 3.309 11.189 3.855 C25.84 9.261 39.788 15.808 52.658 24.685 C57.95 28.028 61.975 27.154 67.935 26.024 C100.902 19.891 135.829 23.121 167.373 34.399 C168.218 34.692 169.063 34.984 169.934 35.286 C187.588 41.431 204.188 49.42 219.373 60.399 C220.346 61.076 221.319 61.753 222.322 62.45 C252.196 84.153 272.578 115.134 285.373 149.399 C285.786 150.497 285.786 150.497 286.207 151.616 C291.535 166.119 293.972 181.184 296.373 196.399 C296.563 197.49 296.754 198.58 296.95 199.704 C298.44 208.8 298.649 217.69 298.578 226.879 C298.56 229.358 298.558 231.837 298.558 234.315 C298.553 235.915 298.547 237.515 298.541 239.114 C298.539 239.844 298.538 240.573 298.537 241.324 C298.496 245.787 298.093 250.008 297.373 254.399 C298.212 254.295 298.212 254.295 299.068 254.188 C308.871 253.527 318.253 257.472 325.81 263.649 C334.17 271.794 340.835 282.802 341.576 294.649 C341.68 302.99 340.973 310.418 338.373 318.399 C338.117 319.227 337.862 320.055 337.599 320.907 C331.272 338.959 315.962 353.441 299.06 361.587 C281.634 369.261 281.634 369.261 272.373 368.399 C272.298 369.368 272.223 370.336 272.146 371.333 C271.44 376.197 269.303 380.171 266.998 384.462 C266.554 385.294 266.111 386.126 265.654 386.983 C261.348 394.828 256.201 401.641 250.373 408.399 C249.634 409.289 248.895 410.178 248.134 411.095 C231.152 430.903 207.138 445.253 183.373 455.399 C186.042 458.153 188.788 460.603 191.81 462.962 C198.123 467.964 204.268 473.147 210.373 478.399 C211.182 479.094 211.992 479.789 212.826 480.505 C224.949 491.164 236.488 502.627 246.373 515.399 C247.02 516.168 247.667 516.936 248.333 517.728 C256.452 527.418 263.871 538.533 268.373 550.399 C268.728 551.17 269.084 551.941 269.451 552.735 C270.545 555.898 270.638 558.495 270.623 561.837 C270.628 562.929 270.633 564.021 270.638 565.146 C270.197 570.547 268.504 574.604 265.435 579.024 C264.931 579.759 264.427 580.494 263.908 581.251 C262.426 583.324 260.912 585.368 259.373 587.399 C259.869 587.717 260.365 588.034 260.876 588.36 C269.958 594.598 275.984 603.607 278.373 614.399 C278.863 620.324 278.767 625.93 277.373 631.712 C276.993 635.35 276.993 635.35 278.982 637.45 C280.417 638.841 281.876 640.207 283.357 641.548 C286.913 644.814 288.246 647.549 288.576 652.368 C288.695 660.754 288.695 660.754 287.373 663.399 C287.108 665.481 286.861 667.565 286.623 669.649 C285.365 678.098 282.196 681.33 275.373 686.399 C279.243 687.797 283.123 688.831 287.123 689.774 C302.085 693.468 302.085 693.468 305.373 698.399 C305.435 700.837 305.435 700.837 304.373 703.399 C294.937 710.225 283.032 711.244 271.799 712.707 C269.404 713.02 267.011 713.349 264.619 713.681 C263.037 713.893 261.455 714.104 259.873 714.313 C258.845 714.456 258.845 714.456 257.797 714.601 C241.634 716.666 225.183 716.667 208.916 716.954 C207.765 716.975 206.614 716.996 205.429 717.018 C171.239 717.621 137.043 717.551 102.849 717.528 C95.556 717.524 88.263 717.527 80.97 717.532 C73.772 717.536 66.573 717.537 59.375 717.534 C55.145 717.533 50.915 717.532 46.685 717.536 C29.388 717.548 12.106 717.419 -5.185 716.942 C-5.932 716.922 -6.678 716.901 -7.447 716.881 C-67.908 715.204 -67.908 715.204 -81.42 703.899 C-82.627 702.399 -82.627 702.399 -82.69 699.962 C-81.185 696.332 -79.078 694.982 -75.627 693.399 C-65.685 689.746 -55.283 686.926 -44.627 687.399 C-45.37 686.678 -46.112 685.956 -46.877 685.212 C-52.985 678.966 -54.716 675.48 -55.346 666.931 C-55.479 664.409 -55.479 664.409 -56.627 662.399 C-57.586 654.735 -56.853 649.094 -52.483 642.669 C-49.595 639.137 -46.479 635.88 -42.627 633.399 C-41.637 633.399 -40.647 633.399 -39.627 633.399 C-39.68 632.491 -39.68 632.491 -39.733 631.563 C-40.105 620.051 -36.518 610.025 -28.811 601.356 C-23.604 596.422 -17.142 592.557 -9.827 592.302 C-9.101 592.334 -8.375 592.366 -7.627 592.399 C-8.061 591.707 -8.494 591.015 -8.94 590.302 C-14.433 580.651 -15.337 571.334 -12.69 560.524 C-7.751 546.65 0.782 534.224 9.373 522.399 C10.112 521.375 10.852 520.35 11.615 519.294 C20.326 507.471 29.57 496.041 39.678 485.384 C42.341 482.623 42.341 482.623 44.373 479.399 C43.58 479.446 42.787 479.492 41.97 479.54 C8.963 480.561 -28.893 469.896 -54.065 447.837 C-64.91 437.618 -64.91 437.618 -66.323 433.251 C-67.603 430.996 -67.603 430.996 -71.12 430.599 C-72.58 430.419 -74.041 430.249 -75.502 430.087 C-88.604 428.191 -98.295 421.748 -106.272 411.231 C-115.012 398.022 -117.358 382.927 -115.627 367.399 C-113.478 356.951 -107.401 347.509 -98.627 341.399 C-97.307 340.707 -95.977 340.033 -94.627 339.399 C-95.15 338.583 -95.672 337.767 -96.209 336.927 C-112.892 310.308 -122.881 282.378 -127.627 251.399 C-127.896 249.755 -127.896 249.755 -128.169 248.077 C-128.683 243.953 -128.825 239.925 -128.866 235.774 C-128.876 234.959 -128.885 234.143 -128.896 233.302 C-129.064 215.687 -129.134 198.557 -124.627 181.399 C-124.381 180.449 -124.134 179.498 -123.88 178.519 C-118.464 158.238 -110.468 137.014 -97.752 120.087 C-94.769 116.045 -93.921 112.833 -93.237 107.917 C-88.635 88.901 -58.524 71.464 -43.248 62.133 C-20.978 48.881 13.616 29.673 40.373 31.399 C40.373 30.739 40.373 30.079 40.373 29.399 C39.7 29.299 39.027 29.199 38.334 29.096 C30.081 27.8 21.982 26.051 13.863 24.105 C11.68 23.586 9.495 23.085 7.308 22.585 C-11.52 18.159 -11.52 18.159 -16.627 10.399 C-17.249 7.481 -16.967 5.451 -16.627 2.399 C-11.964 -2.21 -6.009 -1.374 0 0 Z " fill="#FDE0CC" transform="translate(451.62744140625,177.6005859375)"/>
<path d="M0 0 C2.768 0.836 5.472 1.775 8.185 2.774 C9.672 3.309 9.672 3.309 11.189 3.855 C25.84 9.261 39.788 15.808 52.658 24.685 C57.95 28.028 61.975 27.154 67.935 26.024 C100.902 19.891 135.829 23.121 167.373 34.399 C168.218 34.692 169.063 34.984 169.934 35.286 C187.588 41.431 204.188 49.42 219.373 60.399 C220.346 61.076 221.319 61.753 222.322 62.45 C252.196 84.153 272.578 115.134 285.373 149.399 C285.786 150.497 285.786 150.497 286.207 151.616 C291.535 166.119 293.972 181.184 296.373 196.399 C296.563 197.49 296.754 198.58 296.95 199.704 C298.44 208.8 298.649 217.69 298.578 226.879 C298.56 229.358 298.558 231.837 298.558 234.315 C298.553 235.915 298.547 237.515 298.541 239.114 C298.539 239.844 298.538 240.573 298.537 241.324 C298.496 245.787 298.093 250.008 297.373 254.399 C298.212 254.295 298.212 254.295 299.068 254.188 C308.871 253.527 318.253 257.472 325.81 263.649 C334.17 271.794 340.835 282.802 341.576 294.649 C341.68 302.99 340.973 310.418 338.373 318.399 C338.117 319.227 337.862 320.055 337.599 320.907 C331.272 338.959 315.962 353.441 299.06 361.587 C281.634 369.261 281.634 369.261 272.373 368.399 C272.298 369.368 272.223 370.336 272.146 371.333 C271.44 376.197 269.303 380.171 266.998 384.462 C266.554 385.294 266.111 386.126 265.654 386.983 C261.348 394.828 256.201 401.641 250.373 408.399 C249.634 409.289 248.895 410.178 248.134 411.095 C231.152 430.903 207.138 445.253 183.373 455.399 C186.042 458.153 188.788 460.603 191.81 462.962 C198.123 467.964 204.268 473.147 210.373 478.399 C211.182 479.094 211.992 479.789 212.826 480.505 C224.949 491.164 236.488 502.627 246.373 515.399 C247.02 516.168 247.667 516.936 248.333 517.728 C256.452 527.418 263.871 538.533 268.373 550.399 C268.728 551.17 269.084 551.941 269.451 552.735 C270.545 555.898 270.638 558.495 270.623 561.837 C270.628 562.929 270.633 564.021 270.638 565.146 C270.197 570.547 268.504 574.604 265.435 579.024 C264.931 579.759 264.427 580.494 263.908 581.251 C262.426 583.324 260.912 585.368 259.373 587.399 C259.869 587.717 260.365 588.034 260.876 588.36 C269.958 594.598 275.984 603.607 278.373 614.399 C278.863 620.324 278.767 625.93 277.373 631.712 C276.993 635.35 276.993 635.35 278.982 637.45 C280.417 638.841 281.876 640.207 283.357 641.548 C286.913 644.814 288.246 647.549 288.576 652.368 C288.695 660.754 288.695 660.754 287.373 663.399 C287.108 665.481 286.861 667.565 286.623 669.649 C285.365 678.098 282.196 681.33 275.373 686.399 C279.243 687.797 283.123 688.831 287.123 689.774 C302.085 693.468 302.085 693.468 305.373 698.399 C305.435 700.837 305.435 700.837 304.373 703.399 C294.937 710.225 283.032 711.244 271.799 712.707 C269.404 713.02 267.011 713.349 264.619 713.681 C263.037 713.893 261.455 714.104 259.873 714.313 C258.845 714.456 258.845 714.456 257.797 714.601 C241.634 716.666 225.183 716.667 208.916 716.954 C207.765 716.975 206.614 716.996 205.429 717.018 C171.239 717.621 137.043 717.551 102.849 717.528 C95.556 717.524 88.263 717.527 80.97 717.532 C73.772 717.536 66.573 717.537 59.375 717.534 C55.145 717.533 50.915 717.532 46.685 717.536 C29.388 717.548 12.106 717.419 -5.185 716.942 C-5.932 716.922 -6.678 716.901 -7.447 716.881 C-67.908 715.204 -67.908 715.204 -81.42 703.899 C-82.627 702.399 -82.627 702.399 -82.69 699.962 C-81.185 696.332 -79.078 694.982 -75.627 693.399 C-65.685 689.746 -55.283 686.926 -44.627 687.399 C-45.37 686.678 -46.112 685.956 -46.877 685.212 C-52.985 678.966 -54.716 675.48 -55.346 666.931 C-55.479 664.409 -55.479 664.409 -56.627 662.399 C-57.586 654.735 -56.853 649.094 -52.483 642.669 C-49.595 639.137 -46.479 635.88 -42.627 633.399 C-41.637 633.399 -40.647 633.399 -39.627 633.399 C-39.68 632.491 -39.68 632.491 -39.733 631.563 C-40.105 620.051 -36.518 610.025 -28.811 601.356 C-23.604 596.422 -17.142 592.557 -9.827 592.302 C-9.101 592.334 -8.375 592.366 -7.627 592.399 C-8.061 591.707 -8.494 591.015 -8.94 590.302 C-14.433 580.651 -15.337 571.334 -12.69 560.524 C-7.751 546.65 0.782 534.224 9.373 522.399 C10.112 521.375 10.852 520.35 11.615 519.294 C20.326 507.471 29.57 496.041 39.678 485.384 C42.341 482.623 42.341 482.623 44.373 479.399 C43.58 479.446 42.787 479.492 41.97 479.54 C8.963 480.561 -28.893 469.896 -54.065 447.837 C-64.91 437.618 -64.91 437.618 -66.323 433.251 C-67.603 430.996 -67.603 430.996 -71.12 430.599 C-72.58 430.419 -74.041 430.249 -75.502 430.087 C-88.604 428.191 -98.295 421.748 -106.272 411.231 C-115.012 398.022 -117.358 382.927 -115.627 367.399 C-113.478 356.951 -107.401 347.509 -98.627 341.399 C-97.307 340.707 -95.977 340.033 -94.627 339.399 C-95.15 338.583 -95.672 337.767 -96.209 336.927 C-112.892 310.308 -122.881 282.378 -127.627 251.399 C-127.896 249.755 -127.896 249.755 -128.169 248.077 C-128.683 243.953 -128.825 239.925 -128.866 235.774 C-128.876 234.959 -128.885 234.143 -128.896 233.302 C-129.064 215.687 -129.134 198.557 -124.627 181.399 C-124.381 180.449 -124.134 179.498 -123.88 178.519 C-118.464 158.238 -110.468 137.014 -97.752 120.087 C-94.769 116.045 -93.921 112.833 -93.237 107.917 C-88.635 88.901 -58.524 71.464 -43.248 62.133 C-20.978 48.881 13.616 29.673 40.373 31.399 C40.373 30.739 40.373 30.079 40.373 29.399 C39.7 29.299 39.027 29.199 38.334 29.096 C30.081 27.8 21.982 26.051 13.863 24.105 C11.68 23.586 9.495 23.085 7.308 22.585 C-11.52 18.159 -11.52 18.159 -16.627 10.399 C-17.249 7.481 -16.967 5.451 -16.627 2.399 C-11.964 -2.21 -6.009 -1.374 0 0 Z M59.373 40.399 C56.176 40.968 52.964 41.4 49.748 41.837 C37.91 43.427 37.91 43.427 26.373 46.399 C26.043 47.059 25.713 47.719 25.373 48.399 C26.159 48.389 26.946 48.378 27.756 48.368 C31.336 48.326 34.917 48.3 38.498 48.274 C39.735 48.258 40.973 48.241 42.248 48.224 C44.046 48.214 44.046 48.214 45.88 48.204 C46.98 48.194 48.08 48.183 49.213 48.172 C52.557 48.413 55.25 49.21 58.373 50.399 C58.935 53.024 58.935 53.024 58.373 56.399 C52.963 61.12 46.093 64.228 39.677 67.341 C37.819 68.257 35.961 69.173 34.103 70.09 C33.145 70.559 32.188 71.028 31.202 71.512 C14.629 79.647 -1.788 87.895 -17.627 97.399 C-18.448 97.89 -19.268 98.38 -20.113 98.885 C-28.073 103.661 -35.948 108.568 -43.768 113.571 C-47.507 115.962 -51.25 118.343 -55.002 120.712 C-55.681 121.145 -56.36 121.578 -57.06 122.025 C-64.325 126.599 -69.95 128.277 -78.627 127.399 C-82.19 125.899 -82.19 125.899 -84.627 124.399 C-85.287 124.399 -85.947 124.399 -86.627 124.399 C-88.602 126.831 -90.135 129.596 -91.752 132.274 C-92.49 133.494 -92.49 133.494 -93.241 134.738 C-117.005 174.885 -122.459 225.791 -111.034 270.806 C-103.684 298.177 -90.82 322.014 -74.942 345.292 C-71.507 350.403 -68.814 355.65 -66.627 361.399 C-66.283 362.248 -65.939 363.097 -65.584 363.971 C-64.375 368.305 -64.367 372.242 -64.389 376.716 C-64.374 378.551 -64.357 380.386 -64.34 382.222 C-64.324 385.083 -64.315 387.943 -64.322 390.804 C-64.333 402.375 -64.018 411.915 -58.627 422.399 C-58.151 423.329 -57.675 424.259 -57.184 425.217 C-45.937 446.159 -20.549 456.918 1.06 463.524 C9.37 465.818 17.836 467.253 26.373 468.399 C27.449 468.545 27.449 468.545 28.546 468.694 C36.793 469.665 45.08 469.64 53.373 469.649 C54.163 469.651 54.954 469.653 55.769 469.654 C69.231 469.656 82.366 468.699 95.7 466.775 C98.152 466.43 100.603 466.132 103.064 465.86 C111.342 464.945 119.299 463.43 127.373 461.399 C128.464 461.158 129.556 460.917 130.681 460.669 C178.184 449.778 227.236 426.753 254.373 384.399 C259.757 375.167 259.757 375.167 262.994 365.103 C264.373 362.399 264.373 362.399 266.235 361.5 C268.804 360.72 271.376 360.108 273.998 359.524 C288.281 355.892 300.383 350.406 311.373 340.399 C311.993 339.882 312.613 339.366 313.251 338.833 C319.226 333.5 322.78 326.438 326.373 319.399 C326.953 318.274 326.953 318.274 327.544 317.126 C331.097 308.647 330.807 296.018 328.248 287.274 C324.328 277.914 316.49 269.942 307.095 266.091 C299.779 264.233 290.264 263.922 283.267 267.169 C273.753 273.348 266.823 282.014 262.373 292.399 C262.373 293.389 262.373 294.379 262.373 295.399 C261.383 295.399 260.393 295.399 259.373 295.399 C260.414 282.605 264.604 270.852 274.244 262.005 C277.172 259.797 280.26 258.132 283.587 256.603 C285.482 255.577 285.482 255.577 285.969 253.807 C286.534 250.437 286.575 247.089 286.611 243.681 C286.621 242.919 286.63 242.157 286.64 241.371 C287.18 187.983 274.767 135.025 238.373 94.399 C237.6 93.506 236.828 92.613 236.033 91.692 C226.999 81.357 216.777 72.967 205.373 65.399 C204.751 64.985 204.129 64.572 203.488 64.145 C180.05 48.829 152.017 39.998 124.373 36.399 C123.684 36.305 122.995 36.211 122.285 36.114 C101.643 33.518 79.388 34.677 59.373 40.399 Z " fill="#4B0615" transform="translate(451.62744140625,177.6005859375)"/>
<path d="M0 0 C0.341 0.679 0.683 1.358 1.035 2.057 C12.785 28.045 12.785 28.045 33 47 C31.851 50.447 31.117 50.881 28.25 52.938 C4.832 70.706 -16.229 98.049 -21.457 127.582 C-21.693 129.382 -21.858 131.191 -22 133 C-38.05 139.088 -52.72 141.292 -69.875 141.312 C-71.835 141.32 -71.835 141.32 -73.834 141.329 C-85.334 141.245 -95.783 139.772 -106.625 135.938 C-107.413 135.669 -108.2 135.4 -109.012 135.123 C-114.592 133.204 -114.592 133.204 -117 132 C-117.49 130.042 -117.49 130.042 -117.871 127.52 C-118.859 122.129 -120.661 117.592 -123.062 112.688 C-123.46 111.866 -123.857 111.045 -124.266 110.199 C-129.436 99.776 -135.941 90.751 -143.906 82.254 C-145.748 80.271 -147.429 78.231 -149.125 76.125 C-155.185 69.138 -163.344 62.588 -171.422 58.098 C-174 56 -174 56 -174.762 52.637 C-174.418 34.36 -167.234 16.488 -156 2 C-152.368 2.491 -148.991 3.301 -145.5 4.375 C-127.474 9.283 -108.861 9.502 -90.312 9.375 C-89.126 9.371 -87.939 9.367 -86.716 9.363 C-69.652 9.296 -52.844 8.978 -36 6 C-35.056 5.834 -34.113 5.668 -33.141 5.498 C-26.621 4.319 -20.131 3.015 -13.696 1.434 C-8.992 0.305 -4.839 -0.206 0 0 Z " fill="#82C9EC" transform="translate(638,719)"/>
<path d="M0 0 C2.463 1.589 4.244 2.948 6.312 4.938 C7.328 5.865 8.345 6.791 9.363 7.715 C9.925 8.234 10.487 8.753 11.065 9.288 C13.28 11.247 15.589 13.056 17.91 14.887 C25.064 20.704 31.512 27.212 38.007 33.747 C40.121 35.871 42.246 37.985 44.371 40.098 C51.705 47.423 58.653 54.792 65 63 C65.553 63.689 66.107 64.377 66.677 65.087 C76.928 77.85 87.297 91.961 86 109 C84.037 115.121 79.413 119.237 73.785 122.145 C66.206 124.472 55.797 124.377 48.5 121.125 C38.451 114.733 32.491 104.493 26.75 94.375 C26.015 93.1 25.279 91.826 24.542 90.552 C19.28 81.416 14.201 72.18 9.286 62.853 C4.671 52.399 4.671 52.399 -3.18 45.257 C-4.081 45.13 -4.081 45.13 -5 45 C-2.168 52.769 0.929 60.114 4.961 67.344 C6.156 70.399 5.952 71.909 5 75 C-5.488 77.093 -15.976 79.096 -26.562 80.625 C-27.314 80.736 -28.065 80.846 -28.839 80.96 C-31.556 81.34 -34.275 81.676 -37 82 C-37.685 82.082 -38.37 82.164 -39.076 82.249 C-51.991 83.766 -64.751 84.366 -77.75 84.312 C-78.661 84.311 -79.572 84.31 -80.511 84.308 C-100.539 84.249 -119.685 82.596 -139 77 C-137.328 72.003 -134.46 67.911 -131.562 63.562 C-125.477 55.658 -125.477 55.658 -123.312 46.625 C-123.539 46.089 -123.766 45.553 -124 45 C-127.898 46.299 -128.534 47.853 -130.812 51.25 C-131.192 51.813 -131.572 52.376 -131.963 52.956 C-132.826 54.238 -133.685 55.524 -134.542 56.812 C-136.145 59.218 -137.766 61.613 -139.387 64.008 C-159.866 93.788 -159.866 93.788 -170 128 C-175.175 122.935 -178.107 119.266 -178.5 111.875 C-177.893 94.481 -163.664 76.092 -153.348 62.745 C-152.031 61.04 -150.73 59.323 -149.434 57.602 C-144.612 51.229 -139.599 45.033 -134.449 38.922 C-131.313 35.181 -128.255 31.38 -125.203 27.57 C-124.476 26.722 -123.749 25.874 -123 25 C-122.583 24.461 -122.166 23.922 -121.737 23.366 C-119.688 20.957 -118.097 19.263 -114.961 18.512 C-112.44 18.356 -109.963 18.377 -107.438 18.438 C-76.795 18.082 -43.418 12.943 -14.742 2.184 C-9.566 0.283 -5.525 -0.73 0 0 Z " fill="#FCDFCB" transform="translate(626,638)"/>
<path d="M0 0 C0.341 0.679 0.683 1.358 1.035 2.057 C12.785 28.045 12.785 28.045 33 47 C31.851 50.447 31.117 50.881 28.25 52.938 C4.832 70.706 -16.229 98.049 -21.457 127.582 C-21.693 129.382 -21.858 131.191 -22 133 C-38.05 139.088 -52.72 141.292 -69.875 141.312 C-71.835 141.32 -71.835 141.32 -73.834 141.329 C-85.334 141.245 -95.783 139.772 -106.625 135.938 C-107.413 135.669 -108.2 135.4 -109.012 135.123 C-114.592 133.204 -114.592 133.204 -117 132 C-117.422 130.207 -117.422 130.207 -117.75 127.812 C-119.001 120.747 -122.031 114.48 -125 108 C-123.925 108.435 -123.925 108.435 -122.828 108.879 C-118.256 110.691 -113.629 112.342 -109 114 C-108.209 114.294 -107.417 114.588 -106.602 114.891 C-105.867 115.154 -105.132 115.417 -104.375 115.688 C-103.743 115.918 -103.112 116.149 -102.461 116.387 C-83.322 121.156 -57.288 120.206 -39 113 C-37.837 112.554 -36.675 112.108 -35.477 111.648 C-23.733 106.458 -17.928 96.768 -11.75 85.938 C-6.413 76.785 -0.759 68.224 5.805 59.914 C8.356 56.528 9.099 54.111 9.316 49.988 C9.358 49.231 9.4 48.474 9.443 47.693 C9.483 46.908 9.522 46.122 9.562 45.312 C9.627 44.117 9.627 44.117 9.693 42.896 C9.799 40.931 9.9 38.966 10 37 C9.34 37 8.68 37 8 37 C7.34 33.7 6.68 30.4 6 27 C4.208 27.309 2.416 27.622 0.625 27.938 C-0.373 28.112 -1.37 28.286 -2.398 28.465 C-4.969 28.877 -4.969 28.877 -7 30 C-8.93 30.346 -10.868 30.651 -12.809 30.934 C-13.98 31.107 -15.152 31.281 -16.359 31.46 C-17.56 31.639 -18.762 31.817 -20 32 C-22.179 32.342 -24.357 32.687 -26.535 33.035 C-28.711 33.378 -30.887 33.72 -33.062 34.062 C-34.684 34.323 -34.684 34.323 -36.338 34.588 C-37.414 34.756 -38.489 34.924 -39.598 35.098 C-40.541 35.247 -41.485 35.397 -42.457 35.551 C-51.576 36.707 -60.673 37.176 -69.859 37.273 C-71.504 37.292 -71.504 37.292 -73.181 37.311 C-76.704 37.343 -80.227 37.362 -83.75 37.375 C-85.55 37.382 -85.55 37.382 -87.387 37.389 C-109.266 37.419 -130.925 36.521 -151.875 29.58 C-155.01 28.724 -157.772 28.789 -161 29 C-161.873 35.068 -162.213 40.997 -162.25 47.125 C-162.271 47.993 -162.291 48.86 -162.312 49.754 C-162.345 55.06 -161.615 58.272 -159 63 C-159.33 63.99 -159.66 64.98 -160 66 C-161.584 64.897 -163.167 63.792 -164.75 62.688 C-166.073 61.765 -166.073 61.765 -167.422 60.824 C-168.273 60.222 -169.123 59.62 -170 59 C-170.757 58.578 -171.513 58.157 -172.293 57.723 C-175.001 54.99 -174.566 52.509 -174.562 48.75 C-174.276 32.297 -166.02 14.923 -156 2 C-152.368 2.491 -148.991 3.301 -145.5 4.375 C-127.474 9.283 -108.861 9.502 -90.312 9.375 C-89.126 9.371 -87.939 9.367 -86.716 9.363 C-69.652 9.296 -52.844 8.978 -36 6 C-35.056 5.834 -34.113 5.668 -33.141 5.498 C-26.621 4.319 -20.131 3.015 -13.696 1.434 C-8.992 0.305 -4.839 -0.206 0 0 Z " fill="#6596B2" transform="translate(638,719)"/>
<path d="M0 0 C2.251 1.438 4.352 2.956 6.449 4.609 C7.144 5.153 7.839 5.697 8.555 6.258 C12.06 9.127 12.06 9.127 13.449 10.609 C13.449 11.269 13.449 11.929 13.449 12.609 C14.109 12.609 14.769 12.609 15.449 12.609 C15.82 11.65 15.82 11.65 16.199 10.672 C17.449 8.609 17.449 8.609 19.574 7.859 C20.193 7.777 20.812 7.694 21.449 7.609 C20.574 15.234 20.574 15.234 19.449 18.609 C20.377 17.949 21.305 17.289 22.262 16.609 C25.449 14.609 25.449 14.609 28.449 14.609 C28.449 17.909 28.449 21.209 28.449 24.609 C30.759 24.279 33.069 23.949 35.449 23.609 C35.832 28.841 34.668 31.987 32.449 36.609 C34.099 36.609 35.749 36.609 37.449 36.609 C38.199 38.234 38.199 38.234 38.449 40.609 C36.128 44.894 33.505 47.905 29.449 50.609 C28.459 50.609 27.469 50.609 26.449 50.609 C24.906 48.462 23.573 46.391 22.262 44.109 C21.894 43.489 21.526 42.869 21.146 42.23 C20.238 40.696 19.342 39.153 18.449 37.609 C18.449 39.891 18.506 42.173 18.59 44.453 C18.847 53.561 18.784 61.345 14.449 69.609 C14.025 70.419 13.601 71.228 13.164 72.062 C9.664 77.951 5.479 81.445 -0.551 84.609 C-1.328 85.023 -2.105 85.437 -2.906 85.863 C-12.138 89.971 -23.897 90.357 -33.645 87.797 C-36.215 86.626 -38.295 85.306 -40.551 83.609 C-41.387 83.024 -42.224 82.439 -43.086 81.836 C-53.813 73.391 -59.012 60.531 -61.152 47.34 C-62.762 32.271 -61.255 19.309 -52.551 6.609 C-39.367 -8.713 -16.998 -9.267 0 0 Z " fill="#4C0515" transform="translate(614.55078125,438.390625)"/>
<path d="M0 0 C4.858 0.862 9.561 1.76 14.188 3.5 C39.914 12.178 70.611 7.557 96 0 C96.184 0.606 96.369 1.212 96.559 1.836 C100.082 12.016 106.185 19.08 115.812 24 C131.554 31.468 151.069 30.825 167.352 25.186 C185.376 18.568 185.376 18.568 200.562 7.438 C202.82 5.32 203.647 5 206.805 5.004 C209.936 5.5 212.937 6.188 216 7 C216.726 7.152 217.451 7.304 218.199 7.461 C232.333 10.5 232.333 10.5 236 16 C236.062 18.438 236.062 18.438 235 21 C225.564 27.826 213.66 28.844 202.426 30.308 C200.031 30.621 197.639 30.95 195.246 31.281 C193.664 31.493 192.082 31.704 190.5 31.914 C189.815 32.009 189.13 32.104 188.424 32.201 C172.261 34.266 155.81 34.267 139.543 34.555 C137.817 34.586 137.817 34.586 136.056 34.618 C101.866 35.221 67.671 35.151 33.477 35.129 C26.184 35.124 18.89 35.127 11.597 35.132 C4.399 35.137 -2.799 35.137 -9.997 35.135 C-14.228 35.133 -18.458 35.133 -22.688 35.136 C-39.985 35.148 -57.267 35.02 -74.558 34.542 C-75.304 34.522 -76.051 34.502 -76.82 34.481 C-137.281 32.804 -137.281 32.804 -150.793 21.5 C-152 20 -152 20 -152.062 17.562 C-150.556 13.928 -148.445 12.597 -145 11 C-140.749 9.327 -136.432 8.086 -132 7 C-131.233 6.809 -130.465 6.618 -129.675 6.421 C-115.291 3.006 -115.291 3.006 -110.641 5.023 C-108.938 6.688 -108.938 6.688 -107.25 8.695 C-98.505 17.653 -83.675 23.016 -72 27 C-71.041 27.339 -70.082 27.678 -69.094 28.027 C-61.474 30.25 -53.83 30.336 -45.938 30.438 C-44.849 30.46 -43.761 30.482 -42.639 30.505 C-30.225 30.47 -18.807 26.52 -9.223 18.516 C-4.236 13.39 -2.26 6.649 0 0 Z " fill="#969192" transform="translate(521,860)"/>
<path d="M0 0 C1.803 1.072 3.579 2.193 5.312 3.375 C5.962 3.797 6.612 4.218 7.281 4.652 C20.176 14.294 28.019 33.065 30.312 48.375 C31.316 58.757 29.19 67.734 23.117 76.27 C16.948 83.467 8.864 88.639 -0.645 89.566 C-12.524 90.393 -21.816 89.715 -31.688 82.375 C-38.828 75.553 -43.306 67.901 -45.688 58.375 C-46.017 61.345 -46.348 64.315 -46.688 67.375 C-50.632 67.633 -52.907 67.046 -56.312 65.062 C-57.068 64.633 -57.823 64.204 -58.602 63.762 C-60.588 62.441 -62.155 61.201 -63.688 59.375 C-63.625 57.375 -63.625 57.375 -62.688 55.375 C-60.625 53.625 -60.625 53.625 -58.688 52.375 C-59.657 51.859 -60.626 51.344 -61.625 50.812 C-64.688 48.375 -64.688 48.375 -65.562 44.625 C-65.604 43.553 -65.645 42.48 -65.688 41.375 C-62.058 41.375 -58.428 41.375 -54.688 41.375 C-54.697 40.455 -54.706 39.534 -54.715 38.586 C-54.425 26.194 -51.051 16.635 -42.375 7.312 C-31.213 -2.969 -13.962 -6.786 0 0 Z " fill="#4C0C17" transform="translate(479.6875,463.625)"/>
<path d="M0 0 C6.543 5.181 11.352 10.844 12.41 19.266 C12.848 29.631 10.36 36.59 3.438 44.25 C-4.184 51.341 -13.956 54.878 -24 57 C-25.282 57.278 -25.282 57.278 -26.59 57.562 C-31.623 58.208 -36.619 58.184 -41.688 58.188 C-42.713 58.2 -43.738 58.212 -44.795 58.225 C-56.107 58.246 -66.921 57.25 -75.75 49.625 C-80.062 44.594 -82.793 41.117 -82.441 34.355 C-80.268 22.758 -69.877 14.391 -60.719 8.113 C-57.866 5.896 -55.829 3.554 -53.562 0.75 C-40.493 -14.233 -14.767 -9.444 0 0 Z " fill="#F8967A" transform="translate(691,505)"/>
<path d="M0 0 C1.149 0.77 1.149 0.77 2.321 1.556 C8.631 5.497 15.282 7.506 22.348 9.689 C31.558 12.685 38.837 17.041 43.813 25.619 C45.768 30.154 45.665 35.359 43.899 39.951 C37.197 51.528 25.16 57.261 12.739 60.767 C11.797 61.047 10.854 61.327 9.884 61.615 C-3.833 65.278 -17.527 65.745 -30.261 58.767 C-36.701 54.641 -41.185 49.186 -43.261 41.767 C-44.465 30.054 -42.886 21.266 -35.335 11.974 C-27.547 3.687 -11.497 -6.269 0 0 Z " fill="#F8967A" transform="translate(438.260986328125,545.23291015625)"/>
<path d="M0 0 C8.032 4.559 13.082 10.635 16.266 19.262 C17.472 23.917 18.157 29.482 15.949 33.898 C15.165 33.733 14.382 33.568 13.574 33.398 C12.378 33.233 11.182 33.068 9.949 32.898 C9.245 32.795 8.542 32.692 7.816 32.586 C-4.636 31.6 -15.097 40.171 -24.15 47.722 C-47.031 67.234 -47.031 67.234 -59.66 93.523 C-59.707 94.637 -59.753 95.751 -59.801 96.898 C-59.857 98.033 -59.914 99.167 -59.973 100.336 C-59.998 101.182 -60.024 102.027 -60.051 102.898 C-66.912 99.109 -73.316 92.926 -75.648 85.242 C-78.859 66.541 -70.554 49.718 -60.219 34.68 C-47.208 16.475 -25.104 -9.065 0 0 Z " fill="#FCDEC9" transform="translate(702.05078125,773.1015625)"/>
<path d="M0 0 C0.507 1.321 0.507 1.321 1.023 2.668 C1.469 3.829 1.915 4.991 2.375 6.188 C2.816 7.336 3.257 8.485 3.711 9.668 C4.494 11.693 5.322 13.702 6.227 15.676 C7.09 18.269 6.936 19.473 6 22 C-3.421 24.64 -12.839 26.59 -22.5 28.125 C-23.494 28.283 -24.489 28.441 -25.513 28.604 C-28.673 29.092 -31.836 29.546 -35 30 C-36.151 30.182 -37.301 30.365 -38.487 30.553 C-49.707 32.186 -60.827 32.306 -72.153 32.261 C-75.363 32.25 -78.572 32.261 -81.781 32.273 C-94.003 32.282 -105.893 31.656 -118 30 C-119.941 29.763 -121.883 29.526 -123.824 29.289 C-145.557 26.397 -145.557 26.397 -154 23 C-155.417 18.75 -153.774 15.896 -152 12 C-150.411 8.953 -148.737 5.965 -147 3 C-142.681 3.48 -138.465 4.085 -134.211 4.973 C-95.932 12.42 -53.079 10.209 -15.109 1.867 C-10.064 0.771 -5.175 0 0 0 Z " fill="#99D7FA" transform="translate(633,720)"/>
<path d="M0 0 C22.089 12.706 41.538 36.177 49.625 60.438 C51.063 76.64 51.063 76.64 45.473 83.539 C40.869 88.269 36.927 92.177 30.625 94.438 C30.747 93.256 30.747 93.256 30.871 92.051 C31.681 78.088 24.723 69.055 15.878 59.105 C14.143 57.201 12.39 55.315 10.625 53.438 C10.048 52.822 9.47 52.206 8.875 51.571 C-9.473 31.968 -9.473 31.968 -33.562 22.875 C-34.649 22.791 -35.736 22.707 -36.855 22.621 C-38.103 22.53 -38.103 22.53 -39.375 22.438 C-40.287 15.444 -37.523 10.959 -33.375 5.438 C-24.518 -4.021 -11.632 -5.6 0 0 Z " fill="#FCDEC9" transform="translate(462.375,784.5625)"/>
<path d="M0 0 C1.001 3.194 1.133 4.661 -0.109 7.824 C-0.651 8.769 -1.192 9.714 -1.75 10.688 C-2.281 11.64 -2.812 12.593 -3.359 13.574 C-5 16 -5 16 -8 18 C-13.556 17.444 -13.556 17.444 -15 16 C-14.505 17.98 -14.505 17.98 -14 20 C-10.688 20.771 -10.688 20.771 -7 21 C-4.83 19.56 -4.83 19.56 -3 18 C-0.83 18.248 0.442 18.442 2 20 C8.182 20.651 11.205 19.759 16.141 15.996 C18 15 18 15 20.172 15.285 C22 16 22 16 23 17 C23.29 19.759 23.438 21.378 21.812 23.688 C18.926 25.778 16.431 27.204 12.812 26.688 C11 26 11 26 9 25 C9.495 27.475 9.495 27.475 10 30 C10.699 30.061 11.397 30.121 12.117 30.184 C13.027 30.267 13.937 30.351 14.875 30.438 C15.78 30.519 16.685 30.6 17.617 30.684 C20 31 20 31 22 32 C22.125 34.875 22.125 34.875 22 38 C20 40 20 40 17.125 40.25 C14.144 40.012 12.511 39.545 10 38 C10 37.01 10 36.02 10 35 C9.01 35 8.02 35 7 35 C7.256 37.343 7.593 39.678 8 42 C8.66 42.33 9.32 42.66 10 43 C5.429 53.09 -7.413 58.849 -17.301 62.773 C-29.502 67.35 -45.319 72.694 -58.125 67.75 C-61.557 65.661 -63.547 63.811 -64.539 59.844 C-64.932 49.116 -58.474 41.265 -51.562 33.688 C-47.906 29.799 -44.103 26.123 -40.008 22.699 C-37.703 20.748 -35.519 18.686 -33.312 16.625 C-11.64 -2.91 -11.64 -2.91 0 0 Z " fill="#FCDEC9" transform="translate(710,814)"/>
<path d="M0 0 C16.097 1.463 32.747 21.39 43.438 32.312 C44.262 33.117 45.087 33.921 45.938 34.75 C60.631 49.811 60.631 49.811 60.875 59.125 C60.776 62.321 60.21 64.625 58.438 67.312 C49.196 72.756 37.881 70.591 28.06 68.222 C12.028 64.003 -2.85 55.874 -15.562 45.312 C-14.572 44.199 -14.572 44.199 -13.562 43.062 C-11.17 40.34 -11.17 40.34 -11.562 36.312 C-12.223 35.982 -12.882 35.653 -13.562 35.312 C-13.892 36.303 -14.223 37.293 -14.562 38.312 C-18.485 39.62 -21.423 39.51 -25.562 39.312 C-26.223 38.653 -26.882 37.992 -27.562 37.312 C-27.007 32.757 -27.007 32.757 -25.562 31.312 C-23.936 31.371 -22.311 31.459 -20.688 31.562 C-18.002 31.647 -18.002 31.647 -15.562 31.312 C-12.77 28.351 -12.131 25.289 -11.562 21.312 C-7.943 19.996 -5.467 19.312 -1.562 19.312 C-0.902 19.972 -0.243 20.633 0.438 21.312 C5.236 21.861 5.236 21.861 9.375 19.812 C9.726 19.317 10.076 18.822 10.438 18.312 C10.108 17.982 9.778 17.653 9.438 17.312 C8.447 17.808 8.447 17.808 7.438 18.312 C4.562 18.75 4.562 18.75 1.438 18.312 C-3.208 12.663 -3.789 8.325 -3.562 1.312 C-2.562 0.312 -2.562 0.312 0 0 Z " fill="#FBDDC9" transform="translate(429.5625,814.6875)"/>
<path d="M0 0 C1.957 0.158 1.957 0.158 4 0.125 C5.021 0.129 5.021 0.129 6.062 0.133 C8.219 0.066 8.219 0.066 11 -1 C21.513 -2.696 32.388 -2.096 43 -2 C43 -1.34 43 -0.68 43 0 C36.511 5.334 28.061 8.186 20.395 11.392 C13.898 14.13 7.549 17.083 1.25 20.25 C0.454 20.65 -0.343 21.05 -1.164 21.462 C-9.425 25.658 -17.463 30.223 -25.438 34.938 C-26.18 35.376 -26.922 35.814 -27.687 36.265 C-29.146 37.128 -30.606 37.991 -32.064 38.854 C-33.651 39.793 -35.239 40.729 -36.828 41.664 C-42.12 44.8 -47.29 48.11 -52.451 51.455 C-74.413 65.622 -74.413 65.622 -82 65 C-84.897 63.743 -87.746 62.254 -90 60 C-90.21 54.229 -88.93 51.411 -85.125 47.062 C-80.113 41.901 -74.734 37.333 -69 33 C-68.349 32.506 -67.697 32.012 -67.026 31.503 C-17.451 -5.817 -17.451 -5.817 0 0 Z " fill="#481B18" transform="translate(458,234)"/>
<path d="M0 0 C1.302 1.302 2.604 2.604 3.906 3.906 C1.607 7.355 0.714 7.584 -3.094 8.844 C-6.677 10.047 -10.168 11.35 -13.652 12.809 C-19.684 15.241 -25.871 16.89 -32.156 18.531 C-33.276 18.83 -34.395 19.129 -35.549 19.438 C-49.165 23.047 -61.09 25.159 -75.215 24.477 C-78.765 24.361 -82.316 24.259 -85.867 24.158 C-88.309 24.073 -90.75 23.964 -93.19 23.83 C-106.171 22.555 -106.171 22.555 -118.153 26.311 C-121.445 29.726 -123.47 33.592 -125.263 37.949 C-127.614 43.487 -131.052 48.384 -134.594 53.219 C-159.588 87.26 -159.588 87.26 -172.094 126.906 C-177.269 121.841 -180.201 118.172 -180.594 110.781 C-179.987 93.387 -165.758 74.998 -155.442 61.651 C-154.124 59.946 -152.824 58.229 -151.527 56.508 C-146.706 50.135 -141.693 43.94 -136.543 37.828 C-133.407 34.087 -130.349 30.286 -127.297 26.477 C-126.57 25.628 -125.843 24.78 -125.094 23.906 C-124.677 23.367 -124.26 22.828 -123.83 22.273 C-121.782 19.864 -120.19 18.169 -117.055 17.418 C-114.534 17.262 -112.057 17.284 -109.531 17.344 C-78.889 16.988 -45.512 11.85 -16.836 1.09 C-11.369 -0.918 -5.523 -2.885 0 0 Z " fill="#F6A589" transform="translate(628.09375,639.09375)"/>
<path d="M0 0 C0.981 -0.028 1.962 -0.057 2.973 -0.086 C11.281 -0.108 16.66 2.409 23.062 7.562 C25.376 12.29 25.431 17.353 24.5 22.5 C21.766 26.971 18.074 29.249 13.562 31.688 C12.955 32.03 12.347 32.372 11.721 32.725 C1.835 38.217 -8.289 39.539 -19.258 36.438 C-25.871 33.614 -32.116 30.094 -35.5 23.5 C-36.17 20.427 -35.784 18.355 -34.5 15.5 C-26.52 3.353 -13.825 -0.036 0 0 Z " fill="#491C1A" transform="translate(601.5,485.5)"/>
<path d="M0 0 C1.977 1.836 1.977 1.836 3.625 4.375 C4.174 5.187 4.723 5.999 5.289 6.836 C5.854 7.88 6.418 8.924 7 10 C7.355 10.626 7.71 11.252 8.076 11.897 C12.319 20.587 11.639 30.055 11.688 39.5 C11.726 42.948 11.775 46.396 11.824 49.844 C11.839 51.065 11.839 51.065 11.854 52.31 C11.935 57.924 12.292 63.426 13 69 C2.418 67.214 -4.91 61.379 -11.465 53.164 C-18.405 43.165 -20.44 30.916 -19 19 C-17.119 11.518 -13.996 6.142 -8.16 1.109 C-5.199 -0.411 -3.282 -0.492 0 0 Z " fill="#F6A789" transform="translate(366,529)"/>
<path d="M0 0 C4.692 2.657 7.994 5.926 9.652 11.121 C11.115 20.298 7.669 28.531 2.445 35.922 C-3.105 42.73 -11.042 50.26 -20.066 51.492 C-22.579 51.554 -24.874 51.565 -27.348 51.121 C-28.008 50.461 -28.668 49.801 -29.348 49.121 C-29.057 46.429 -28.413 44.269 -27.32 41.793 C-25.689 37.311 -25.859 32.827 -26.348 28.121 C-27.121 26.605 -27.121 26.605 -27.91 25.059 C-30.118 20.547 -29.949 16.856 -28.348 12.121 C-21.683 2.284 -12.112 -4.534 0 0 Z " fill="#FAAA8C" transform="translate(758.34765625,463.87890625)"/>
<path d="M0 0 C3.562 2.871 5.653 5.733 6.391 10.262 C5.953 12.574 5.953 12.574 4.828 14.387 C2.074 16.131 0.195 15.815 -3.047 15.574 C-5.704 14.715 -8.22 13.81 -10.797 12.762 C-12.231 12.206 -13.666 11.653 -15.102 11.102 C-15.787 10.836 -16.472 10.57 -17.179 10.296 C-25.017 7.266 -32.46 6.022 -40.804 5.308 C-48.411 4.616 -48.411 4.616 -51.047 2.574 C-51.797 -1.051 -51.797 -1.051 -52.047 -4.426 C-50.824 -5.248 -49.593 -6.058 -48.359 -6.863 C-47.333 -7.542 -47.333 -7.542 -46.285 -8.234 C-31.907 -15.888 -12.253 -8.505 0 0 Z " fill="#4C0515" transform="translate(608.046875,344.42578125)"/>
<path d="M0 0 C1.789 1.398 1.789 1.398 3.375 2.875 C4.16 3.544 4.16 3.544 4.961 4.227 C7.783 7.017 8.755 9.531 9 13.375 C8.733 18.318 6.9 20.518 3.375 23.875 C0.122 25.501 -3.123 25.587 -6.625 24.875 C-8.579 23.439 -10.224 21.837 -11.965 20.152 C-13.697 18.551 -13.697 18.551 -16.812 18.875 C-19.541 19.768 -19.541 19.768 -21.625 20.938 C-24.512 22.291 -26.48 22.334 -29.625 21.875 C-32.731 19.178 -33.532 17.512 -34.125 13.438 C-33.353 7.936 -30.687 4.661 -26.625 1.062 C-19.863 -3.868 -7.241 -4.328 0 0 Z " fill="#FCFBFB" transform="translate(476.625,478.125)"/>
<path d="M0 0 C4.81 2.742 8.63 5.682 10.867 10.867 C11.591 14.766 11.801 18.213 9.809 21.742 C6.983 25.23 5.095 26.699 0.68 27.305 C-3.385 26.838 -3.83 26.539 -6.57 23.867 C-9.379 21.209 -9.912 20.892 -14.008 20.43 C-16.213 20.589 -18.352 20.903 -20.535 21.254 C-26.666 22.178 -26.666 22.178 -29.195 20.492 C-30.631 16.472 -31.108 13.065 -30.133 8.867 C-23.43 -1.883 -11.621 -4.202 0 0 Z " fill="#FBFAFB" transform="translate(599.1328125,449.1328125)"/>
<path d="M0 0 C1.727 1.637 1.727 1.637 2.289 4.074 C1.49 7.713 -0.265 8.496 -3.273 10.637 C-5.574 11.868 -7.873 13.045 -10.211 14.199 C-21 19.748 -30.639 27.117 -38.527 36.371 C-40.273 37.637 -40.273 37.637 -42.863 37.465 C-45.273 36.637 -45.273 36.637 -47.273 34.637 C-48.214 28.054 -45.925 23.875 -42.273 18.637 C-36.843 11.56 -31.186 6.715 -23.273 2.637 C-22.18 2.039 -21.087 1.44 -19.961 0.824 C-14.23 -1.708 -5.617 -3.368 0 0 Z " fill="#4C0516" transform="translate(451.2734375,364.36328125)"/>
<path d="M0 0 C1.021 0.433 1.021 0.433 2.062 0.875 C1.721 3.947 1.075 4.863 -1.25 7 C-6.773 12.908 -8.046 20.017 -9.312 27.812 C-11.139 38.608 -15.308 46.129 -23.691 53.316 C-29.98 57.68 -36.508 57.72 -43.938 56.875 C-50.411 54.755 -54.777 50.865 -57.938 44.875 C-61.135 37.986 -60.815 30.821 -58.438 23.688 C-57.954 22.41 -57.461 21.136 -56.938 19.875 C-55.288 19.545 -53.637 19.215 -51.938 18.875 C-50.812 22.625 -50.812 22.625 -51.938 24.875 C-52.087 27.142 -52.159 29.415 -52.188 31.688 C-52.213 32.911 -52.239 34.134 -52.266 35.395 C-51.787 40.473 -49.761 42.948 -46.438 46.688 C-42.772 49.593 -39.086 49.458 -34.559 49.23 C-29.923 48.602 -27.133 47.036 -23.812 43.812 C-19.528 37.099 -17.645 29.944 -15.938 22.25 C-13.986 13.58 -11.93 6.655 -4.688 0.863 C-2.938 -0.125 -2.938 -0.125 0 0 Z " fill="#500E1A" transform="translate(468.9375,271.125)"/>
<path d="M0 0 C0.33 0 0.66 0 1 0 C1.43 4.299 1.422 6.386 -1.065 10.001 C-3.953 13.254 -7.349 15.073 -11.266 16.859 C-12.7 17.545 -14.134 18.23 -15.568 18.916 C-16.669 19.432 -16.669 19.432 -17.793 19.959 C-21.316 21.621 -24.805 23.351 -28.297 25.078 C-28.984 25.417 -29.672 25.755 -30.38 26.104 C-46.932 34.255 -63.388 42.439 -78.477 53.145 C-79.559 53.91 -79.559 53.91 -80.664 54.692 C-81.998 55.648 -83.321 56.621 -84.629 57.613 C-89.101 60.869 -92.471 61.689 -98 62 C-98.077 62.58 -98.155 63.16 -98.234 63.758 C-99.107 67.764 -99.958 70.261 -103.379 72.688 C-106.544 74.238 -109.761 75.612 -113 77 C-114.214 77.628 -115.421 78.269 -116.621 78.922 C-128.189 85.195 -128.189 85.195 -135 84 C-138.846 82.824 -142.646 81.401 -145 78 C-145.688 75.312 -145.688 75.312 -146 73 C-140.25 74.875 -140.25 74.875 -138 76 C-125.372 77.788 -116.361 71.091 -106.371 64.258 C-93.397 55.462 -79.632 47.719 -66 40 C-65.219 39.556 -64.437 39.113 -63.632 38.656 C-53.998 33.217 -44.232 28.084 -34.328 23.156 C-33.476 22.732 -32.625 22.308 -31.747 21.872 C-27.448 19.736 -23.145 17.61 -18.835 15.498 C-17.232 14.707 -15.63 13.916 -14.027 13.125 C-13.292 12.768 -12.556 12.411 -11.798 12.044 C-7.815 10.071 -4.279 8.063 -1 5 C-0.121 2.365 -0.121 2.365 0 0 Z " fill="#F6AA8D" transform="translate(511,229)"/>
<path d="M0 0 C3.367 1.058 4.085 2.144 5.922 5.258 C6.544 6.541 7.153 7.83 7.75 9.125 C8.066 9.784 8.382 10.442 8.707 11.121 C9.482 12.742 10.243 14.37 11 16 C10.397 16.29 9.793 16.58 9.172 16.879 C5.905 18.565 4.202 20.003 2 23 C0.677 29.077 1.579 33.998 4.625 39.375 C6.605 42.359 8.534 44.641 11.375 46.812 C14 49 14 49 14.375 51.812 C14.251 52.534 14.127 53.256 14 54 C14.66 54 15.32 54 16 54 C19 60.625 19 60.625 19 64 C11.285 63.614 6.252 58.555 1.25 53.125 C-1.905 49.34 -4.169 45.568 -6 41 C-6.299 40.274 -6.598 39.549 -6.906 38.801 C-10.796 27.904 -10.181 16.97 -5.484 6.488 C-3.935 3.891 -2.227 2.032 0 0 Z " fill="#FADCC6" transform="translate(356,532)"/>
<path d="M0 0 C4.75 0.75 4.75 0.75 7 3 C7.814 10.869 5.358 16.166 0.562 22.312 C-1.851 24.843 -3.869 26.477 -7 28 C-7.66 28 -8.32 28 -9 28 C-8.954 28.568 -8.907 29.137 -8.859 29.723 C-8.577 35.765 -9.495 39.052 -13 44 C-16.244 45.622 -19.505 45.702 -23 45 C-26.476 41.959 -27.884 40.257 -28.312 35.625 C-28.209 34.759 -28.106 33.893 -28 33 C-29.155 33.082 -30.31 33.165 -31.5 33.25 C-37.312 33.219 -41.473 31.131 -45.871 27.422 C-47.573 25.677 -48.867 24.159 -50 22 C-49.875 18.062 -49.875 18.062 -49 15 C-47.344 14.618 -45.675 14.286 -44 14 C-43 15 -43 15 -42.938 18.562 C-42.958 19.697 -42.979 20.831 -43 22 C-35.004 26.146 -27.859 27.523 -18.949 25.207 C-11.611 22.615 -5.721 20.176 -2 13 C-1.558 10.705 -1.319 8.48 -1.176 6.148 C-1 4.003 -0.576 2.07 0 0 Z " fill="#510E1C" transform="translate(567,557)"/>
<path d="M0 0 C0.33 0 0.66 0 1 0 C1 1.98 1 3.96 1 6 C0.34 6 -0.32 6 -1 6 C-1.172 6.547 -1.345 7.095 -1.522 7.659 C-3.054 12.403 -4.787 16.969 -6.803 21.527 C-13.469 36.619 -17.684 52.056 -21.312 68.125 C-21.567 69.251 -21.822 70.377 -22.084 71.537 C-24.604 83.087 -25.205 94.324 -25.562 106.125 C-25.606 107.477 -25.649 108.828 -25.693 110.18 C-25.799 113.453 -25.901 116.726 -26 120 C-26.66 120 -27.32 120 -28 120 C-29.632 116.736 -29.163 113.134 -29.168 109.547 C-29.171 108.695 -29.175 107.843 -29.178 106.966 C-29.183 105.153 -29.185 103.341 -29.185 101.528 C-29.187 98.803 -29.206 96.077 -29.225 93.352 C-29.276 77.614 -27.191 63.174 -23 48 C-22.739 47.03 -22.739 47.03 -22.474 46.04 C-18.264 30.567 -11.568 11.568 0 0 Z " fill="#F7F3F2" transform="translate(365,303)"/>
<path d="M0 0 C6.193 5.747 9.899 12.691 14 20 C14.632 21.092 15.263 22.184 15.914 23.309 C20.402 31.827 21.483 39.573 20 49 C17.08 56.502 10.199 62.988 3 66.438 C2.34 66.623 1.68 66.809 1 67 C1.33 64.03 1.66 61.06 2 58 C2.99 58 3.98 58 5 58 C5.103 57.402 5.206 56.804 5.312 56.188 C6.113 53.641 7.133 52.867 9 51 C12.86 44.385 12.838 38.487 12 31 C10.046 23.827 6.828 17.514 3.07 11.145 C1.281 7.56 0.686 3.93 0 0 Z " fill="#F5A487" transform="translate(492,812)"/>
<path d="M0 0 C3.25 2 3.25 2 5 4 C4.71 7.482 4.272 8.742 1.688 11.188 C-2.757 14.185 -5.559 15.292 -11 15.312 C-12.547 15.338 -12.547 15.338 -14.125 15.363 C-17.355 14.955 -18.716 14.289 -21 12 C-21.562 9.062 -21.562 9.062 -21 6 C-14.801 -0.199 -8.49 -0.996 0 0 Z " fill="#FB9F83" transform="translate(547,539)"/>
<path d="M0 0 C0.66 0 1.32 0 2 0 C3.967 2.332 5.502 4.983 7.125 7.562 C7.593 8.267 8.061 8.971 8.543 9.697 C12.094 15.314 12.705 19.319 11.438 25.938 C8.632 31.915 3.566 37.444 -2 41 C-2.99 40.67 -3.98 40.34 -5 40 C-3.181 34.392 -3.181 34.392 -1.977 31.785 C2.229 22.107 2.513 10.256 0 0 Z " fill="#F6F1F0" transform="translate(631,474)"/>
<path d="M0 0 C0.722 0.763 1.444 1.526 2.188 2.312 C4.787 4.796 6.839 6.348 10 8 C10.567 8.353 11.134 8.706 11.719 9.07 C19.062 13.109 27.864 13.559 36 12 C42.828 9.7 49.03 5.98 55 2 C57.188 2.375 57.188 2.375 59 3 C53.735 10.678 44.955 15.06 36 17 C25.784 18.157 15.484 18.501 7 12 C3.485 9.173 0.063 6.318 -3 3 C-3 2.34 -3 1.68 -3 1 C-2.01 0.67 -1.02 0.34 0 0 Z " fill="#4D0B16" transform="translate(567,510)"/>
<path d="M0 0 C1.088 3.23 1.007 6.206 0.884 9.584 C0.637 16.87 0.995 22.728 5 29 C5.432 29.679 5.864 30.359 6.309 31.059 C8.632 34.586 8.632 34.586 12 37 C12 40.3 12 43.6 12 47 C5.139 43.211 -1.265 37.028 -3.598 29.344 C-5.389 18.911 -3.65 9.809 0 0 Z " fill="#F3A98C" transform="translate(630,829)"/>
<path d="M0 0 C1.001 3.194 1.133 4.661 -0.109 7.824 C-0.651 8.769 -1.192 9.714 -1.75 10.688 C-2.281 11.64 -2.812 12.593 -3.359 13.574 C-5 16 -5 16 -8 18 C-13.556 17.444 -13.556 17.444 -15 16 C-15.66 16.66 -16.32 17.32 -17 18 C-16.858 16.583 -16.711 15.166 -16.562 13.75 C-16.481 12.961 -16.4 12.172 -16.316 11.359 C-16.024 9.176 -15.579 7.123 -15 5 C-15.66 4.67 -16.32 4.34 -17 4 C-6.811 -1.925 -6.811 -1.925 0 0 Z " fill="#F3A286" transform="translate(710,814)"/>
<path d="M0 0 C4.479 0.407 8.211 0.986 11.438 4.312 C12.436 8.329 12.541 12.187 12.438 16.312 C8.529 17.953 5.713 19.04 1.438 18.312 C-3.208 12.663 -3.789 8.325 -3.562 1.312 C-2.562 0.312 -2.562 0.312 0 0 Z " fill="#F7A88B" transform="translate(429.5625,814.6875)"/>
<path d="M0 0 C2 1 2 1 2.789 3.117 C3.065 4.027 3.341 4.937 3.625 5.875 C6.793 14.887 11.792 22.698 20.531 27 C21.016 27.33 21.501 27.66 22 28 C22 28.99 22 29.98 22 31 C13.895 30.867 8.259 28.168 2 23 C-0.628 19.055 -0.153 15.601 0 11 C-0.99 10.67 -1.98 10.34 -3 10 C-2.01 10 -1.02 10 0 10 C0 6.7 0 3.4 0 0 Z " fill="#F7F3EC" transform="translate(433,521)"/>
<path d="M0 0 C12.666 1.305 25.278 1.877 38 2.188 C39.675 2.231 41.35 2.274 43.025 2.318 C47.079 2.424 51.133 2.526 55.188 2.625 C55.188 2.955 55.188 3.285 55.188 3.625 C46.607 3.955 38.028 4.285 29.188 4.625 C47.503 5.12 47.503 5.12 66.188 5.625 C66.188 5.955 66.188 6.285 66.188 6.625 C58.863 6.702 51.539 6.754 44.215 6.79 C41.732 6.805 39.25 6.825 36.768 6.851 C21.601 7.008 7.104 6.491 -7.812 3.625 C-7.483 2.635 -7.152 1.645 -6.812 0.625 C-4.247 -0.658 -2.844 -0.308 0 0 Z " fill="#67A3C3" transform="translate(513.8125,749.375)"/>
<path d="M0 0 C6.778 4.784 9.769 10.015 12 18 C12.478 22.124 12.893 26.214 11 30 C6.71 29.34 2.42 28.68 -2 28 C-0.68 27.67 0.64 27.34 2 27 C4.005 15.504 4.005 15.504 0 5 C-0.188 2.188 -0.188 2.188 0 0 Z " fill="#EFA58A" transform="translate(707,777)"/>
<path d="M0 0 C3.967 1.568 5.783 4.317 7.688 8.062 C8.062 10.938 8.062 10.938 7.688 13.062 C6.688 14.062 6.688 14.062 4.562 14.562 C0.56 13.866 -1.266 11.863 -3.988 8.945 C-5.312 7.062 -5.312 7.062 -5.375 4.25 C-3.988 1.394 -3.292 0.089 0 0 Z " fill="#F3AE8D" transform="translate(415.3125,818.9375)"/>
<path d="M0 0 C1.824 0.711 1.824 0.711 2.824 1.711 C3.115 4.47 3.262 6.089 1.637 8.398 C-1.214 10.463 -3.72 11.882 -7.301 11.461 C-9.176 10.711 -9.176 10.711 -12.176 8.711 C-12.176 8.051 -12.176 7.391 -12.176 6.711 C-13.826 6.711 -15.476 6.711 -17.176 6.711 C-17.176 6.381 -17.176 6.051 -17.176 5.711 C-16.186 5.649 -15.196 5.587 -14.176 5.523 C-10.064 4.981 -7.362 3.099 -4.07 0.672 C-2.176 -0.289 -2.176 -0.289 0 0 Z " fill="#EFA486" transform="translate(730.17578125,829.2890625)"/>
<path d="M0 0 C2 1 4 2 6 3 C5.917 5.813 5.382 7.552 3.551 9.703 C1.768 11.359 0.097 12.764 -2 14 C-4.938 13.875 -4.938 13.875 -7 13 C-7.33 12.01 -7.66 11.02 -8 10 C-6.855 8.027 -6.855 8.027 -5.188 5.938 C-4.373 4.899 -4.373 4.899 -3.543 3.84 C-2 2 -2 2 0 0 Z " fill="#F4AF96" transform="translate(719,818)"/>
<path d="M0 0 C15.51 0 31.02 0 47 0 C40.991 4.006 32.851 3.167 25.812 3.125 C24.587 3.12 24.587 3.12 23.336 3.115 C2.943 2.943 2.943 2.943 0 0 Z " fill="#350308" transform="translate(524,722)"/>
<path d="M0 0 C5.262 1.412 8.722 3.749 13 7 C12 9 12 9 10 11 C5.508 11.57 3.259 11.85 -0.5 9.312 C-2.273 6.579 -2.505 5.198 -2 2 C-1.34 1.34 -0.68 0.68 0 0 Z " fill="#F39F85" transform="translate(404,830)"/>
<path d="M0 0 C0.99 1.32 1.98 2.64 3 4 C2.01 4.495 2.01 4.495 1 5 C0.67 5.99 0.34 6.98 0 8 C-3.923 9.308 -6.86 9.197 -11 9 C-11.66 8.34 -12.32 7.68 -13 7 C-12.444 2.444 -12.444 2.444 -11 1 C-8.412 0.928 -5.838 1.004 -3.25 1.062 C-1.03 1.259 -1.03 1.259 0 0 Z " fill="#EDA689" transform="translate(415,845)"/>
<path d="M0 0 C1.792 0.141 3.584 0.288 5.375 0.438 C6.872 0.559 6.872 0.559 8.398 0.684 C11 1 11 1 13 2 C13.125 4.875 13.125 4.875 13 8 C11 10 11 10 8.125 10.25 C5.144 10.012 3.511 9.545 1 8 C1 7.01 1 6.02 1 5 C0.34 4.67 -0.32 4.34 -1 4 C-0.67 2.68 -0.34 1.36 0 0 Z " fill="#E9A98A" transform="translate(719,844)"/>
<path d="M0 0 C5.823 5.138 10.96 11.776 11.812 19.688 C11.884 21.125 11.947 22.562 12 24 C12.17 25.356 12.356 26.711 12.562 28.062 C12.707 29.032 12.851 30.001 13 31 C10.68 28.68 10.211 27.034 9.188 23.938 C7.873 20.161 6.426 16.805 4.375 13.375 C1.81 9.011 0.868 4.972 0 0 Z " fill="#FDAF97" transform="translate(492,812)"/>
<path d="M0 0 C-0.99 0 -1.98 0 -3 0 C-3.66 1.65 -4.32 3.3 -5 5 C-12.92 5.33 -20.84 5.66 -29 6 C-28.67 5.34 -28.34 4.68 -28 4 C-25.747 3.298 -25.747 3.298 -22.793 2.676 C-21.731 2.452 -20.67 2.228 -19.576 1.998 C-18.458 1.772 -17.34 1.546 -16.188 1.312 C-15.081 1.075 -13.974 0.837 -12.834 0.592 C-11.769 0.372 -10.703 0.152 -9.605 -0.074 C-8.138 -0.377 -8.138 -0.377 -6.641 -0.686 C-4.062 -0.993 -2.437 -0.824 0 0 Z " fill="#EBDACC" transform="translate(506,220)"/>
<path d="M0 0 C1.98 0 3.96 0 6 0 C6.504 2.27 7.003 4.541 7.5 6.812 C7.778 8.077 8.057 9.342 8.344 10.645 C9 14 9 14 9 17 C7.35 16.67 5.7 16.34 4 16 C3.248 12.345 2.6 8.683 2 5 C1.34 5 0.68 5 0 5 C0 3.35 0 1.7 0 0 Z " fill="#F4B69A" transform="translate(370,581)"/>
<path d="M0 0 C6.27 0.33 12.54 0.66 19 1 C18.67 1.66 18.34 2.32 18 3 C2.16 3 -13.68 3 -30 3 C-30 2.67 -30 2.34 -30 2 C-15.15 1.505 -15.15 1.505 0 1 C0 0.67 0 0.34 0 0 Z " fill="#A49F9F" transform="translate(460,891)"/>
<path d="M0 0 C2.468 1.152 4.048 2.048 6 4 C8.688 4.27 11.291 4.087 14 4 C13.34 5.32 12.68 6.64 12 8 C10.35 8 8.7 8 7 8 C7 9.65 7 11.3 7 13 C6.34 13 5.68 13 5 13 C5 11.68 5 10.36 5 9 C2.077 6.718 2.077 6.718 -1 5 C-0.67 3.35 -0.34 1.7 0 0 Z " fill="#45090C" transform="translate(411,828)"/>
<path d="M0 0 C0.33 0.66 0.66 1.32 1 2 C2.454 1.969 2.454 1.969 3.938 1.938 C7 2 7 2 8 3 C11.948 3.263 14.604 3.09 18 1 C17.688 3.375 17.688 3.375 17 6 C13.263 8.492 11.427 8.458 7 8 C4.25 6.062 4.25 6.062 2 4 C1.01 3.67 0.02 3.34 -1 3 C-0.67 2.01 -0.34 1.02 0 0 Z " fill="#471115" transform="translate(423,829)"/>
<path d="M0 0 C0.66 0.33 1.32 0.66 2 1 C-5.26 8.26 -12.52 15.52 -20 23 C-20.66 22.67 -21.32 22.34 -22 22 C-6.937 5.536 -6.937 5.536 0 0 Z " fill="#410E1D" transform="translate(664,772)"/>
<path d="M0 0 C0.688 2.312 0.688 2.312 1 5 C-0.188 6.875 -0.188 6.875 -2 8 C-4.062 7.875 -4.062 7.875 -6 7 C-8 4 -8 4 -8 1 C-5.072 0.024 -3.044 -0.082 0 0 Z " fill="#8F2839" transform="translate(552,589)"/>
<path d="M0 0 C0.583 0.205 1.165 0.41 1.766 0.621 C8.505 2.836 14.929 3.648 22 4 C22 4.33 22 4.66 22 5 C4.144 6.702 4.144 6.702 -4 3 C-2.68 2.67 -1.36 2.34 0 2 C0 1.34 0 0.68 0 0 Z " fill="#F8E4D5" transform="translate(455,550)"/>
<path d="M0 0 C1.231 -0.014 2.462 -0.028 3.73 -0.043 C6.812 0.188 6.812 0.188 8.812 2.188 C7.655 2.236 6.497 2.285 5.305 2.336 C3.766 2.411 2.227 2.487 0.688 2.562 C-0.453 2.609 -0.453 2.609 -1.617 2.656 C-6.16 2.891 -9.874 3.629 -14.188 5.188 C-16.562 4.812 -16.562 4.812 -18.188 4.188 C-11.923 0.837 -7.081 0.037 0 0 Z " fill="#4E1114" transform="translate(576.1875,333.8125)"/>
<path d="M0 0 C-5.382 2.241 -10.157 2.237 -15.875 2.125 C-16.754 2.116 -17.633 2.107 -18.539 2.098 C-20.693 2.074 -22.846 2.038 -25 2 C-25 1.67 -25 1.34 -25 1 C-21.586 0.438 -18.169 -0.096 -14.75 -0.625 C-13.782 -0.785 -12.814 -0.945 -11.816 -1.109 C-10.882 -1.251 -9.947 -1.393 -8.984 -1.539 C-8.126 -1.675 -7.267 -1.811 -6.382 -1.952 C-3.678 -2.007 -2.285 -1.392 0 0 Z " fill="#6A1D29" transform="translate(609,525)"/>
<path d="M0 0 C5.456 1.504 8.857 5.302 12.812 9.125 C13.852 10.113 13.852 10.113 14.912 11.121 C16.614 12.741 18.31 14.367 20 16 C19.34 16.66 18.68 17.32 18 18 C16.661 16.715 15.329 15.421 14 14.125 C13.258 13.406 12.515 12.686 11.75 11.945 C10 10 10 10 10 8 C9.196 7.732 8.391 7.464 7.562 7.188 C6.717 6.796 5.871 6.404 5 6 C4.67 5.01 4.34 4.02 4 3 C2 1.791 2 1.791 0 1 C0 0.67 0 0.34 0 0 Z " fill="#F0E5D9" transform="translate(667,252)"/>
<path d="M0 0 C0.804 0.495 0.804 0.495 1.625 1 C4.051 2.211 4.051 2.211 7.125 1.938 C8.074 1.958 9.023 1.979 10 2 C10.99 3.485 10.99 3.485 12 5 C9 7 9 7 5.438 6.75 C2 6 2 6 0 4 C0 2.68 0 1.36 0 0 Z " fill="#55131F" transform="translate(694,829)"/>
<path d="M0 0 C-1.579 3.805 -3.987 6.287 -6.875 9.188 C-7.739 10.068 -8.602 10.948 -9.492 11.855 C-11.831 13.855 -13.005 14.645 -16 15 C-3.5 0 -3.5 0 0 0 Z " fill="#EDD4BF" transform="translate(665,784)"/>
<path d="M0 0 C0.66 0 1.32 0 2 0 C3.672 2.388 5.195 4.754 6.688 7.25 C7.33 8.273 7.33 8.273 7.986 9.316 C8.387 9.98 8.787 10.644 9.199 11.328 C9.569 11.936 9.938 12.543 10.319 13.169 C11.176 15.474 10.791 16.715 10 19 C9.67 17.68 9.34 16.36 9 15 C8.34 15 7.68 15 7 15 C5.539 12.353 5 11.106 5 8 C4.34 8 3.68 8 3 8 C0 2.25 0 2.25 0 0 Z " fill="#F2E9DC" transform="translate(703,291)"/>
<path d="M0 0 C0.99 0.33 1.98 0.66 3 1 C-0.2 3.743 -3.005 5.63 -7 7 C-7.99 6.01 -8.98 5.02 -10 4 C-6.889 1.235 -5.117 0.777 -1 1 C-0.67 0.67 -0.34 0.34 0 0 Z " fill="#F6AD93" transform="translate(424,284)"/>
<path d="M0 0 C0.99 0.66 1.98 1.32 3 2 C2.072 2.402 2.072 2.402 1.125 2.812 C-1.3 3.956 -1.3 3.956 -3 7 C-5.301 8.071 -7.634 9.08 -10 10 C-10.33 9.01 -10.66 8.02 -11 7 C-3.702 1.629 -3.702 1.629 0 0 Z " fill="#E79676" transform="translate(413,288)"/>
<path d="M0 0 C3.903 1.587 6.335 4.134 9.25 7.125 C10.142 8.035 11.034 8.945 11.953 9.883 C12.629 10.581 13.304 11.28 14 12 C13.34 12.66 12.68 13.32 12 14 C9.994 12.048 7.995 10.089 6 8.125 C5.428 7.569 4.855 7.014 4.266 6.441 C2.805 4.999 1.399 3.503 0 2 C0 1.34 0 0.68 0 0 Z " fill="#DBD2D1" transform="translate(685,248)"/>
<path d="M0 0 C-0.99 0 -1.98 0 -3 0 C-3.66 1.65 -4.32 3.3 -5 5 C-7.97 5 -10.94 5 -14 5 C-13.01 4.34 -12.02 3.68 -11 3 C-12.32 2.34 -13.64 1.68 -15 1 C-13.252 0.635 -11.502 0.284 -9.75 -0.062 C-8.288 -0.358 -8.288 -0.358 -6.797 -0.66 C-4.132 -0.984 -2.511 -0.855 0 0 Z " fill="#DBBAAB" transform="translate(506,220)"/>
<path d="M0 0 C0.593 0.222 1.186 0.443 1.797 0.672 C-1.068 4.75 -3.634 6.699 -8.203 8.672 C-8.203 5.191 -7.792 4.807 -5.453 2.422 C-4.943 1.88 -4.432 1.339 -3.906 0.781 C-2.203 -0.328 -2.203 -0.328 0 0 Z " fill="#5A0E19" transform="translate(624.203125,512.328125)"/>
<path d="M0 0 C0.66 0.33 1.32 0.66 2 1 C-0.937 5.038 -4.315 8.142 -8.098 11.352 C-9.812 12.837 -11.419 14.375 -13 16 C-13.66 15.67 -14.32 15.34 -15 15 C-10.05 10.05 -5.1 5.1 0 0 Z " fill="#4D1215" transform="translate(675,822)"/>
<path d="M0 0 C4.194 0.671 7.403 2.856 11 5 C11 5.99 11 6.98 11 8 C6.514 6.748 3.407 5.206 0 2 C0 1.34 0 0.68 0 0 Z " fill="#5F1321" transform="translate(572,518)"/>
<path d="M0 0 C0.66 0.33 1.32 0.66 2 1 C0.637 4.118 -0.851 6.047 -3.438 8.25 C-4.034 8.771 -4.631 9.292 -5.246 9.828 C-7 11 -7 11 -10 11 C-8.654 6.963 -5.969 5.375 -2.559 3.148 C-0.844 2.068 -0.844 2.068 0 0 Z " fill="#F4E5D8" transform="translate(625,513)"/>
<path d="M0 0 C1.98 0.99 1.98 0.99 4 2 C4 2.66 4 3.32 4 4 C4.99 4 5.98 4 7 4 C7.33 5.32 7.66 6.64 8 8 C7.01 8.33 6.02 8.66 5 9 C1.908 6.47 1.091 3.775 0 0 Z " fill="#440408" transform="translate(421,823)"/>
<path d="M0 0 C0.33 1.32 0.66 2.64 1 4 C-3.308 7.077 -3.308 7.077 -6.812 6.688 C-7.534 6.461 -8.256 6.234 -9 6 C-6.455 3.031 -3.51 1.638 0 0 Z " fill="#EC9E7F" transform="translate(465,258)"/>
<path d="M0 0 C-0.875 4.75 -0.875 4.75 -2 7 C-3.65 6.67 -5.3 6.34 -7 6 C-6.67 4.35 -6.34 2.7 -6 1 C-3 0 -3 0 0 0 Z " fill="#511118" transform="translate(649,859)"/>
<path d="M0 0 C0.33 0 0.66 0 1 0 C1.43 4.297 1.414 7.012 -1.312 10.375 C-4 13 -4 13 -7 14 C-5.782 9.434 -4.715 7.756 -1 5 C-0.196 2.401 -0.196 2.401 0 0 Z " fill="#F3B798" transform="translate(511,229)"/>
<path d="M0 0 C-3.41 2.865 -6.907 4.347 -11 6 C-10.625 3.562 -10.625 3.562 -10 1 C-6.785 -0.607 -3.564 -0.057 0 0 Z " fill="#FAB190" transform="translate(477,256)"/>
<path d="M0 0 C0.66 0.66 1.32 1.32 2 2 C-3.445 4.475 -3.445 4.475 -9 7 C-9.33 5.68 -9.66 4.36 -10 3 C-5.05 1.515 -5.05 1.515 0 0 Z " fill="#FAAD8D" transform="translate(491,247)"/>
<path d="M0 0 C0 1.32 0 2.64 0 4 C-8.036 6.277 -8.036 6.277 -12 5 C-10.378 4.162 -8.752 3.33 -7.125 2.5 C-6.22 2.036 -5.315 1.572 -4.383 1.094 C-2 0 -2 0 0 0 Z " fill="#EB9D80" transform="translate(497,243)"/>
<path d="M0 0 C0 0.33 0 0.66 0 1 C-4.95 1.66 -9.9 2.32 -15 3 C-15 2.01 -15 1.02 -15 0 C-9.624 -0.849 -5.346 -1.002 0 0 Z " fill="#D4CBC9" transform="translate(523,203)"/>
<path d="M0 0 C0 0.66 0 1.32 0 2 C-5.911 2.773 -11.131 3.148 -17 2 C-17 1.67 -17 1.34 -17 1 C-11.305 0.358 -5.733 -0.125 0 0 Z " fill="#4B151B" transform="translate(596,719)"/>
<path d="M0 0 C0.99 0 1.98 0 3 0 C1.349 4.292 -1.738 6.879 -5 10 C-5.66 9.67 -6.32 9.34 -7 9 C-5.908 7.491 -4.801 5.993 -3.688 4.5 C-3.073 3.665 -2.458 2.829 -1.824 1.969 C-1.222 1.319 -0.62 0.669 0 0 Z " fill="#471416" transform="translate(482,673)"/>
<path d="M0 0 C1.32 0.33 2.64 0.66 4 1 C3.67 3.97 3.34 6.94 3 10 C2.01 9.67 1.02 9.34 0 9 C0 6.03 0 3.06 0 0 Z " fill="#3F020C" transform="translate(642,865)"/>
<path d="M0 0 C0.185 9.41 0.185 9.41 -1 14 C-1.33 14 -1.66 14 -2 14 C-2.33 9.71 -2.66 5.42 -3 1 C-1 0 -1 0 0 0 Z " fill="#E3D0CC" transform="translate(340,422)"/>
<path d="M0 0 C2.873 2.422 3.708 4.597 4.688 8.188 C4.939 9.089 5.19 9.99 5.449 10.918 C5.631 11.605 5.813 12.292 6 13 C5.01 13.495 5.01 13.495 4 14 C3.327 12.231 2.662 10.46 2 8.688 C1.629 7.701 1.258 6.715 0.875 5.699 C0 3 0 3 0 0 Z " fill="#F1EEEC" transform="translate(735,321)"/>
<path d="M0 0 C3.288 3.288 3.576 6.558 4.082 10.977 C4 13 4 13 2 15 C0.737 9.925 -0.27 5.272 0 0 Z " fill="#601222" transform="translate(554,482)"/>
<path d="M0 0 C3.813 1.446 5.327 3.302 7 7 C6.688 9.312 6.688 9.312 6 11 C0 3.286 0 3.286 0 0 Z " fill="#5A0A1D" transform="translate(710,299)"/>
<path d="M0 0 C2.61 1.929 3.017 3.076 3.75 6.312 C3.986 9.789 3.744 12.611 3 16 C2.67 16 2.34 16 2 16 C1.909 14.935 1.909 14.935 1.816 13.848 C1.733 12.929 1.649 12.009 1.562 11.062 C1.481 10.146 1.4 9.229 1.316 8.285 C1.24 6.038 1.24 6.038 0 5 C-0.041 3.334 -0.043 1.666 0 0 Z " fill="#E3DCDC" transform="translate(720,727)"/>
<path d="M0 0 C0.33 0 0.66 0 1 0 C1.081 1.77 1.139 3.541 1.188 5.312 C1.24 6.792 1.24 6.792 1.293 8.301 C1 11 1 11 -0.512 12.855 C-1.003 13.233 -1.494 13.611 -2 14 C-1.859 12.229 -1.712 10.458 -1.562 8.688 C-1.481 7.701 -1.4 6.715 -1.316 5.699 C-1 3 -1 3 0 0 Z " fill="#45020A" transform="translate(492,867)"/>
<path d="M0 0 C4.01 3.676 6.453 7.19 9 12 C7.68 11.67 6.36 11.34 5 11 C4.67 9.35 4.34 7.7 4 6 C3.01 5.67 2.02 5.34 1 5 C0.67 3.35 0.34 1.7 0 0 Z " fill="#F19886" transform="translate(492,812)"/>
<path d="M0 0 C0.66 0.33 1.32 0.66 2 1 C1.34 1.66 0.68 2.32 0 3 C0.33 3.99 0.66 4.98 1 6 C-0.98 6.99 -0.98 6.99 -3 8 C-3.66 7.34 -4.32 6.68 -5 6 C-5 5.34 -5 4.68 -5 4 C-3.374 2.618 -1.707 1.281 0 0 Z " fill="#510F13" transform="translate(722,827)"/>
<path d="M0 0 C4.274 1.583 6.265 4.506 9 8 C6 8 6 8 4.395 6.758 C3.872 6.219 3.35 5.68 2.812 5.125 C2.283 4.591 1.753 4.058 1.207 3.508 C0 2 0 2 0 0 Z " fill="#E2DBD8" transform="translate(673,665)"/>
<path d="M0 0 C5.28 0.33 10.56 0.66 16 1 C16 1.33 16 1.66 16 2 C11.05 2.33 6.1 2.66 1 3 C0.67 2.01 0.34 1.02 0 0 Z " fill="#FEF2DD" transform="translate(461,553)"/>
<path d="M0 0 C1.812 0.188 1.812 0.188 4 1 C5.812 3.375 5.812 3.375 7 6 C6.67 6.99 6.34 7.98 6 9 C3.599 6.119 1.527 3.436 0 0 Z " fill="#600E20" transform="translate(699,282)"/>
<path d="M0 0 C0.99 0.33 1.98 0.66 3 1 C3.082 1.784 3.165 2.567 3.25 3.375 C3.728 6.147 3.728 6.147 6.062 7.312 C6.702 7.539 7.341 7.766 8 8 C3.551 8.361 3.551 8.361 1.188 6.812 C-0.367 4.44 -0.225 2.78 0 0 Z " fill="#F7AE90" transform="translate(402,832)"/>
<path d="M0 0 C0.33 0.99 0.66 1.98 1 3 C0.01 4.485 0.01 4.485 -1 6 C-3.31 5.34 -5.62 4.68 -8 4 C-8 3.67 -8 3.34 -8 3 C-6.866 2.691 -5.731 2.381 -4.562 2.062 C-1.212 1.371 -1.212 1.371 0 0 Z " fill="#5E1A1C" transform="translate(440,830)"/>
<path d="M0 0 C2.25 -0.25 2.25 -0.25 5 0 C7.312 2 7.312 2 9 4 C8.67 4.99 8.34 5.98 8 7 C6.664 6.025 5.331 5.045 4 4.062 C3.258 3.517 2.515 2.972 1.75 2.41 C1.173 1.945 0.595 1.479 0 1 C0 0.67 0 0.34 0 0 Z " fill="#5E1622" transform="translate(600,450)"/>
<path d="M0 0 C0.66 0.33 1.32 0.66 2 1 C-0.31 3.64 -2.62 6.28 -5 9 C-5.66 8.34 -6.32 7.68 -7 7 C-4.69 4.69 -2.38 2.38 0 0 Z " fill="#51171D" transform="translate(418,373)"/>
<path d="M0 0 C3.3 0.33 6.6 0.66 10 1 C10 1.66 10 2.32 10 3 C6.7 2.67 3.4 2.34 0 2 C0 1.34 0 0.68 0 0 Z " fill="#E4C7B3" transform="translate(493,715)"/>
<path d="M0 0 C0.99 0.33 1.98 0.66 3 1 C2.288 1.619 2.288 1.619 1.562 2.25 C-0.163 4.182 -0.566 5.482 -1 8 C-1.66 8 -2.32 8 -3 8 C-2.744 5.657 -2.407 3.322 -2 1 C-1.34 0.67 -0.68 0.34 0 0 Z " fill="#64262B" transform="translate(520,571)"/>
<path d="M0 0 C-2.762 2.762 -5.207 2.579 -9 3 C-9 2.34 -9 1.68 -9 1 C-5.649 -1.11 -3.779 -1.05 0 0 Z " fill="#5A101F" transform="translate(616,521)"/>
<path d="M0 0 C3 1 3 1 4.25 2.812 C5.116 5.339 4.885 6.522 4 9 C1.314 6.314 0.94 3.624 0 0 Z " fill="#5D0D1F" transform="translate(717,312)"/>
<path d="M0 0 C1.65 0.99 3.3 1.98 5 3 C4.67 4.32 4.34 5.64 4 7 C3.01 6.67 2.02 6.34 1 6 C0.67 4.02 0.34 2.04 0 0 Z " fill="#2E0607" transform="translate(718,838)"/>
<path d="M0 0 C0.33 0 0.66 0 1 0 C1.081 1.437 1.139 2.874 1.188 4.312 C1.24 5.513 1.24 5.513 1.293 6.738 C0.938 9.479 0.106 10.292 -2 12 C-1.858 10.562 -1.711 9.125 -1.562 7.688 C-1.481 6.887 -1.4 6.086 -1.316 5.262 C-1 3 -1 3 0 0 Z " fill="#E49571" transform="translate(628,834)"/>
<path d="M0 0 C0.99 0 1.98 0 3 0 C1.951 2.622 1.351 3.794 -1.125 5.25 C-1.744 5.497 -2.363 5.745 -3 6 C-2.427 3.133 -2.139 2.139 0 0 Z " fill="#F4E5D3" transform="translate(432,787)"/>
<path d="M0 0 C-1.438 1.562 -1.438 1.562 -4 3 C-7.054 2.968 -9.997 2.533 -13 2 C-13 1.67 -13 1.34 -13 1 C-8.606 0.143 -4.474 -0.089 0 0 Z " fill="#4E151C" transform="translate(629,714)"/>
<path d="M0 0 C0.99 0.33 1.98 0.66 3 1 C2.048 2.006 1.088 3.005 0.125 4 C-0.409 4.557 -0.942 5.114 -1.492 5.688 C-3 7 -3 7 -5 7 C-3.707 4.116 -2.341 2.128 0 0 Z " fill="#4C131C" transform="translate(349,522)"/>
<path d="M0 0 C0.66 0 1.32 0 2 0 C2.33 2.97 2.66 5.94 3 9 C2.01 9.495 2.01 9.495 1 10 C0.67 6.7 0.34 3.4 0 0 Z " fill="#E5CCBA" transform="translate(732,363)"/>
<path d="M0 0 C0.66 0.66 1.32 1.32 2 2 C1.625 4.625 1.625 4.625 1 7 C0.01 7 -0.98 7 -2 7 C-1.34 4.69 -0.68 2.38 0 0 Z " fill="#EBC0A0" transform="translate(630,706)"/>
<path d="M0 0 C0.99 0.33 1.98 0.66 3 1 C1.02 2.98 -0.96 4.96 -3 7 C-3.66 6.67 -4.32 6.34 -5 6 C-3.35 4.02 -1.7 2.04 0 0 Z " fill="#581A21" transform="translate(566,441)"/>
<path d="M0 0 C0 0.66 0 1.32 0 2 C-6.286 4.429 -6.286 4.429 -10 3 C-6.27 0.966 -4.331 0 0 0 Z " fill="#53171D" transform="translate(568,335)"/>
<path d="M0 0 C0.33 0 0.66 0 1 0 C1 2.31 1 4.62 1 7 C-0.98 7.66 -2.96 8.32 -5 9 C-5 8.34 -5 7.68 -5 7 C-4.01 7 -3.02 7 -2 7 C-1.34 4.69 -0.68 2.38 0 0 Z " fill="#608899" transform="translate(615,845)"/>
<path d="M0 0 C2.75 0.25 2.75 0.25 5 1 C2.238 3.762 -0.207 3.579 -4 4 C-2.312 1.938 -2.312 1.938 0 0 Z " fill="#621E27" transform="translate(483,549)"/>
<path d="M0 0 C-0.66 0.66 -1.32 1.32 -2 2 C-4.729 1.967 -7.297 1.436 -10 1 C-10 0.67 -10 0.34 -10 0 C-6.337 -0.749 -3.576 -1.238 0 0 Z " fill="#50171C" transform="translate(679,882)"/>
<path d="M0 0 C0.66 0.33 1.32 0.66 2 1 C-1.5 5.875 -1.5 5.875 -6 7 C-4.02 4.69 -2.04 2.38 0 0 Z " fill="#561D1F" transform="translate(675,822)"/>
<path d="M0 0 C1.485 0.99 1.485 0.99 3 2 C3.188 5.125 3.188 5.125 3 8 C1.5 6.812 1.5 6.812 0 5 C-0.188 2.312 -0.188 2.312 0 0 Z " fill="#F3BBA4" transform="translate(707,777)"/>
<path d="M0 0 C-1.393 3.367 -2.979 4.986 -6 7 C-5.372 3.355 -4.147 0 0 0 Z " fill="#F2D8BE" transform="translate(358,532)"/>
<path d="M0 0 C0.66 0 1.32 0 2 0 C1.812 1.875 1.812 1.875 1 4 C-1.5 5.125 -1.5 5.125 -4 6 C-4.33 6.66 -4.66 7.32 -5 8 C-4.603 5.122 -4.239 4.195 -1.938 2.312 C-0.978 1.663 -0.978 1.663 0 1 C0 0.67 0 0.34 0 0 Z " fill="#6E333A" transform="translate(421,515)"/>
<path d="M0 0 C2.062 0.438 2.062 0.438 4 1 C2.71 2.376 1.373 3.708 0 5 C-0.66 5 -1.32 5 -2 5 C-1.125 1.125 -1.125 1.125 0 0 Z " fill="#471019" transform="translate(437,178)"/>
<path d="M0 0 C1.848 0.34 1.848 0.34 4.062 0.938 C5.163 1.229 5.163 1.229 6.285 1.527 C7.134 1.761 7.134 1.761 8 2 C7.67 2.66 7.34 3.32 7 4 C1.25 3.25 1.25 3.25 -1 1 C-0.67 0.67 -0.34 0.34 0 0 Z " fill="#DED8D6" transform="translate(454,177)"/>
</svg>