<svg version="1.1" xmlns="http://www.w3.org/2000/svg" width="1024" height="1024">
<path d="M0 0 C337.92 0 675.84 0 1024 0 C1024 337.92 1024 675.84 1024 1024 C686.08 1024 348.16 1024 0 1024 C0 686.08 0 348.16 0 0 Z " fill="#FEFEFE" transform="translate(0,0)"/>
<path d="M0 0 C8.672 6.103 13.813 14.643 16.551 24.906 C17.383 31.062 17.176 37.319 17.176 43.531 C82.186 43.201 147.196 42.871 214.176 42.531 C215.661 37.581 215.661 37.581 217.176 32.531 C219.732 27.771 222.363 25.034 227.176 22.531 C230.998 21.894 232.754 22.324 236.238 24.031 C242.405 29.279 244.321 34.874 246.176 42.531 C280.261 43.251 314.344 43.763 348.436 44.063 C352.945 44.104 357.454 44.148 361.963 44.192 C390.034 44.463 418.103 44.596 446.176 44.531 C446.294 43.309 446.412 42.086 446.534 40.827 C446.701 39.2 446.868 37.572 447.035 35.945 C447.112 35.142 447.188 34.339 447.267 33.512 C448.431 22.419 452.726 12.322 461.125 4.781 C468.729 -1.244 475.604 -2.24 485.176 -1.469 C492.246 -0.223 497.402 4.371 502.176 9.531 C504.745 13.659 505.022 17.792 504.176 22.531 C501.612 25.788 498.515 29.168 494.238 29.832 C488.619 29.864 488.619 29.864 486.176 28.031 C485.846 27.536 485.516 27.041 485.176 26.531 C486.176 23.531 486.176 23.531 488.238 22.344 C488.878 22.076 489.517 21.808 490.176 21.531 C490.594 19.201 490.594 19.201 490.176 16.531 C487.951 13.591 486.058 12.691 482.453 12.039 C476.974 11.693 473.037 11.951 468.676 15.469 C458.268 26.265 458.876 42.294 458.543 56.359 C458.502 57.844 458.46 59.329 458.417 60.814 C458.308 64.681 458.208 68.547 458.111 72.414 C458.01 76.376 457.899 80.339 457.789 84.301 C457.575 92.044 457.372 99.788 457.176 107.531 C465.835 107.423 474.494 107.31 483.152 107.192 C487.174 107.137 491.196 107.084 495.218 107.034 C499.108 106.986 502.999 106.933 506.889 106.878 C508.364 106.858 509.839 106.839 511.314 106.822 C519.972 106.72 528.556 106.4 537.176 105.531 C539.489 109 539.601 110.453 539.176 114.531 C535.709 119.177 529.55 119.586 524.176 120.531 C519.992 120.906 515.847 120.933 511.649 120.904 C509.846 120.909 509.846 120.909 508.006 120.914 C504.707 120.921 501.408 120.914 498.108 120.901 C494.54 120.89 490.971 120.895 487.403 120.898 C480.437 120.901 473.47 120.886 466.504 120.864 C460.85 120.847 455.196 120.837 449.543 120.831 C378.745 120.749 307.961 119.764 237.176 118.531 C237.724 119.207 238.273 119.883 238.837 120.579 C239.557 121.472 240.277 122.364 241.019 123.283 C242.089 124.607 242.089 124.607 243.18 125.957 C245.77 129.298 247.87 132.75 249.863 136.469 C250.27 137.216 250.677 137.964 251.095 138.734 C272.257 178.214 300.917 235.125 297.176 281.531 C294.326 288.785 286.97 291.802 280.219 294.879 C249.504 307.024 207.735 307.14 177.176 294.531 C170.923 291.495 166.138 288.283 162.176 282.531 C161.003 279.014 161.043 276.174 161.051 272.469 C161.048 271.22 161.046 269.971 161.043 268.684 C161.176 265.531 161.176 265.531 162.176 263.531 C162.427 261.805 162.651 260.075 162.863 258.344 C169.406 214.836 188.232 151.19 220.176 119.531 C219.315 119.533 219.315 119.533 218.437 119.535 C184.34 119.602 150.244 119.653 116.148 119.684 C112.044 119.688 107.94 119.692 103.837 119.696 C102.611 119.697 102.611 119.697 101.361 119.698 C88.174 119.711 74.987 119.735 61.8 119.763 C48.245 119.791 34.69 119.807 21.136 119.814 C12.787 119.818 4.439 119.83 -3.909 119.855 C-9.652 119.871 -15.395 119.876 -21.137 119.872 C-24.439 119.87 -27.741 119.874 -31.043 119.889 C-43.036 119.939 -54.895 119.834 -66.801 118.26 C-67.663 118.152 -68.526 118.044 -69.414 117.933 C-73.116 117.367 -75.331 116.904 -78.361 114.615 C-80.374 111.748 -80.334 109.956 -79.824 106.531 C-78.682 104.829 -78.682 104.829 -76.824 103.531 C-74.047 103.446 -74.047 103.446 -70.666 103.824 C-65.4 104.32 -60.192 104.664 -54.901 104.737 C-54.218 104.747 -53.535 104.757 -52.831 104.768 C-50.675 104.798 -48.519 104.823 -46.363 104.848 C-44.836 104.868 -43.309 104.889 -41.782 104.911 C-37.814 104.965 -33.846 105.015 -29.877 105.063 C-25.807 105.114 -21.738 105.17 -17.668 105.225 C-9.72 105.331 -1.772 105.433 6.176 105.531 C6.091 97.281 5.996 89.03 5.888 80.78 C5.839 76.948 5.792 73.115 5.754 69.283 C5.717 65.574 5.67 61.865 5.618 58.156 C5.599 56.752 5.584 55.348 5.572 53.943 C5.65 32.473 5.65 32.473 -3.887 13.969 C-9.037 9.695 -14.382 9.976 -20.824 10.531 C-23.373 11.704 -24.887 12.594 -26.824 14.531 C-26.865 16.197 -26.867 17.865 -26.824 19.531 C-25.504 20.191 -24.184 20.851 -22.824 21.531 C-23.137 23.906 -23.137 23.906 -23.824 26.531 C-27.562 29.023 -29.398 28.989 -33.824 28.531 C-37.05 26.452 -38.691 24.731 -40.824 21.531 C-41.468 15.201 -40.5 10.769 -36.824 5.531 C-27.508 -4.917 -12.119 -7.141 0 0 Z " fill="#040405" transform="translate(288.82421875,421.46875)"/>
<path d="M0 0 C7.255 -0.026 14.51 -0.043 21.765 -0.055 C24.226 -0.06 26.688 -0.067 29.149 -0.075 C32.714 -0.088 36.279 -0.093 39.844 -0.098 C40.92 -0.103 41.997 -0.108 43.107 -0.113 C48.743 -0.114 54.312 0.069 59.934 0.486 C72.291 1.36 84.693 1.231 97.075 1.303 C100.704 1.325 104.333 1.353 107.961 1.379 C114.807 1.429 121.652 1.474 128.497 1.517 C136.302 1.567 144.106 1.622 151.91 1.677 C167.94 1.79 183.97 1.897 200 2 C199.67 18.83 199.34 35.66 199 53 C158.295 53.139 117.609 52.644 76.908 52.109 C67.514 51.986 58.121 51.866 48.727 51.746 C29.484 51.501 10.242 51.252 -9 51 C-9.149 46.162 -9.258 41.326 -9.33 36.486 C-9.36 34.843 -9.4 33.2 -9.453 31.557 C-9.93 16.141 -9.93 16.141 -6.094 11.156 C-5.562 10.628 -5.03 10.101 -4.482 9.557 C-1.898 6.843 -1.131 3.518 0 0 Z " fill="#FBFBFB" transform="translate(534,476)"/>
<path d="M0 0 C0.831 0.001 1.662 0.002 2.518 0.003 C12.199 0.013 21.881 0.032 31.562 0.062 C31.909 1.041 31.909 1.041 32.262 2.039 C32.588 2.913 32.914 3.787 33.25 4.688 C33.563 5.546 33.876 6.405 34.199 7.289 C35.497 10.261 35.497 10.261 38.177 12.897 C41.061 16.725 41.217 19.488 41.051 24.086 C41.04 25.205 41.04 25.205 41.029 26.347 C41.002 28.712 40.939 31.074 40.875 33.438 C40.85 35.048 40.827 36.659 40.807 38.27 C40.752 42.201 40.666 46.132 40.562 50.062 C22.917 50.237 5.271 50.403 -12.375 50.562 C-13.688 50.574 -15.002 50.586 -16.355 50.598 C-53.654 50.934 -90.95 51.158 -128.25 51.125 C-129.214 51.124 -130.178 51.123 -131.171 51.122 C-142.594 51.111 -154.015 51.089 -165.438 51.062 C-165.438 34.562 -165.438 18.062 -165.438 1.062 C-147.229 0.891 -129.021 0.723 -110.812 0.562 C-109.801 0.554 -109.801 0.554 -108.77 0.544 C-72.513 0.225 -36.258 -0.038 0 0 Z " fill="#FEFEFE" transform="translate(472.4375,475.9375)"/>
<path d="M0 0 C1.342 4.026 0.25 5.346 -1.375 9.25 C-6.182 21.345 -9.471 33.97 -13.003 46.481 C-13.814 49.343 -14.639 52.2 -15.477 55.055 C-18.457 65.316 -20.785 75.697 -23.034 86.142 C-23.275 87.26 -23.517 88.379 -23.766 89.531 C-23.98 90.537 -24.194 91.543 -24.415 92.58 C-25 95 -25 95 -26 97 C-26.66 97 -27.32 97 -28 97 C-28.249 90.536 -27.36 84.797 -25.938 78.5 C-25.713 77.497 -25.489 76.495 -25.259 75.462 C-19.353 49.708 -11.099 24.003 0 0 Z " fill="#E1E1E1" transform="translate(489,598)"/>
<path d="M0 0 C1.342 4.026 0.25 5.346 -1.375 9.25 C-4.801 17.819 -7.337 26.638 -9.875 35.5 C-10.08 36.213 -10.284 36.927 -10.495 37.662 C-11.672 41.772 -12.839 45.885 -14 50 C-14.99 50 -15.98 50 -17 50 C-18 48 -18 48 -17.323 45.412 C-16.949 44.329 -16.576 43.245 -16.191 42.129 C-15.57 40.319 -15.57 40.319 -14.937 38.473 C-14.479 37.17 -14.021 35.866 -13.562 34.562 C-13.223 33.586 -13.223 33.586 -12.877 32.59 C-9.029 21.532 -4.768 10.695 0 0 Z " fill="#C7C7C7" transform="translate(489,598)"/>
<path d="M0 0 C1.373 4.12 -0.196 6.723 -1.75 10.562 C-2.312 12 -2.872 13.439 -3.43 14.879 C-3.701 15.58 -3.973 16.282 -4.253 17.004 C-5.724 20.935 -6.891 24.954 -8 29 C-9.125 27.366 -9.125 27.366 -10 25 C-9.309 22.251 -9.309 22.251 -8.008 19.141 C-7.55 18.026 -7.093 16.911 -6.621 15.762 C-6.127 14.603 -5.634 13.444 -5.125 12.25 C-4.639 11.076 -4.153 9.901 -3.652 8.691 C-2.449 5.788 -1.231 2.892 0 0 Z " fill="#A2A3A0" transform="translate(489,598)"/>
<path d="M0 0 C0.33 0 0.66 0 1 0 C0.913 1.459 0.805 2.918 0.688 4.375 C0.629 5.187 0.571 5.999 0.512 6.836 C0 9 0 9 -3 11 C-2.25 3.375 -2.25 3.375 0 0 Z " fill="#D2D2D1" transform="translate(479,625)"/>
<path d="M0 0 C0.66 0 1.32 0 2 0 C1.25 6.625 1.25 6.625 -1 10 C-2.467 6.185 -1.433 3.71 0 0 Z " fill="#B8B8B7" transform="translate(481,617)"/>
<path d="M0 0 C0.33 0 0.66 0 1 0 C1.125 5.75 1.125 5.75 0 8 C-0.66 8 -1.32 8 -2 8 C-1.125 1.125 -1.125 1.125 0 0 Z " fill="#F7F7F7" transform="translate(463,687)"/>
</svg>