<svg version="1.1" xmlns="http://www.w3.org/2000/svg" width="1024" height="1024">
<path d="M0 0 C337.92 0 675.84 0 1024 0 C1024 337.92 1024 675.84 1024 1024 C686.08 1024 348.16 1024 0 1024 C0 686.08 0 348.16 0 0 Z " fill="#364E79" transform="translate(0,0)"/>
<path d="M0 0 C2.5 1.562 2.5 1.562 4 4 C4.62 8.261 4.493 10.244 2.125 13.875 C0 16 0 16 -2 17 C-3.519 20.856 -4.364 24.594 -4.938 28.688 C-5.102 29.813 -5.267 30.938 -5.438 32.098 C-5.623 33.385 -5.809 34.673 -6 36 C-7.483 46.172 -8.973 56.149 -12 66 C-11.437 66.15 -10.874 66.301 -10.294 66.456 C0.12 69.263 10.195 72.136 19.992 76.703 C23.042 78.102 23.042 78.102 26.586 78.973 C29.943 79.983 31.976 81.097 34.75 83.188 C38.28 85.775 41.842 88.195 45.562 90.5 C49.953 93.253 53.981 96.273 58.012 99.523 C60.079 101.173 60.079 101.173 63.125 102.375 C66.781 104.442 68.594 107.058 70.996 110.453 C72.686 112.601 74.38 114.407 76.328 116.309 C95.271 134.958 109.272 161.933 115.231 187.704 C115.721 189.806 116.235 191.902 116.779 193.99 C119.252 204.12 119.554 213.867 119.5 224.25 C119.499 225.125 119.498 226 119.497 226.902 C119.423 247.357 116.503 266.868 109 286 C108.381 287.609 108.381 287.609 107.75 289.25 C105.272 295.446 102.444 301.287 99 307 C98.499 307.839 97.997 308.678 97.48 309.543 C89.926 321.803 80.903 332.602 71 343 C70.002 344.077 70.002 344.077 68.984 345.176 C59.821 354.782 47.047 365.567 34 369 C34 369.66 34 370.32 34 371 C33.261 371.303 32.523 371.606 31.762 371.918 C26.554 374.069 21.401 376.266 16.312 378.688 C12.235 380.573 8.397 381.79 3.973 382.543 C1.949 382.927 1.949 382.927 0.078 383.988 C-2.387 385.188 -4.608 385.572 -7.312 386 C-10.346 386.485 -13.098 387.033 -16.013 388.023 C-20.881 389.426 -25.717 389.249 -30.746 389.195 C-31.757 389.192 -32.768 389.19 -33.81 389.187 C-37.019 389.176 -40.228 389.151 -43.438 389.125 C-45.622 389.115 -47.806 389.106 -49.99 389.098 C-55.327 389.076 -60.663 389.042 -66 389 C-66 390.32 -66 391.64 -66 393 C-66.66 393 -67.32 393 -68 393 C-67.983 393.706 -67.965 394.412 -67.947 395.139 C-67.838 403.14 -68.518 410.879 -69.5 418.812 C-71.875 430.313 -71.875 430.313 -69.5 441 C-67.212 444.05 -67.545 446.295 -68 450 C-69.5 452.938 -69.5 452.938 -72 455 C-74.826 455.712 -77.174 455.712 -80 455 C-83.25 452.319 -83.896 450.649 -84.562 446.5 C-84 443 -84 443 -81.566 441.09 C-77.244 436.992 -77.788 430.643 -77.375 425.062 C-77.15 422.548 -76.922 420.034 -76.691 417.52 C-76.581 416.262 -76.47 415.005 -76.356 413.709 C-75.827 408.201 -75.089 402.728 -74.312 397.25 C-74.181 396.31 -74.049 395.371 -73.914 394.403 C-73.613 392.268 -73.307 390.134 -73 388 C-73.984 387.792 -74.967 387.585 -75.98 387.371 C-104.846 381.064 -135.756 369.222 -156.613 347.305 C-158.083 345.739 -158.083 345.739 -161 345 C-161.667 343.333 -162.333 341.667 -163 340 C-163.99 339.67 -164.98 339.34 -166 339 C-168.548 336.53 -170.74 333.733 -173 331 C-173.656 330.219 -174.312 329.438 -174.988 328.633 C-179.85 322.724 -184.025 316.534 -188 310 C-191.444 311.294 -194.516 312.796 -197.652 314.715 C-198.512 315.236 -199.371 315.758 -200.256 316.295 C-201.141 316.837 -202.026 317.379 -202.938 317.938 C-213.574 324.434 -213.574 324.434 -219 327 C-219 327.66 -219 328.32 -219 329 C-215.363 331.227 -212.524 332.864 -208.375 333.938 C-203.263 335.547 -201.049 338.752 -197.688 342.75 C-195.465 347.03 -195.087 350.273 -196 355 C-198.048 360.057 -201.377 364.204 -205.984 367.148 C-209.994 368.843 -213.769 368.826 -218 368 C-223.186 365.854 -226.651 363.183 -229 358 C-229.21 355.143 -229.286 352.528 -229.188 349.688 C-229.174 348.947 -229.16 348.206 -229.146 347.443 C-229.111 345.629 -229.058 343.814 -229 342 C-229.579 341.744 -230.157 341.489 -230.754 341.225 C-247.308 332.195 -260.172 311.18 -269 295 C-269.866 295.165 -270.732 295.33 -271.625 295.5 C-277.698 296.393 -283.88 296.076 -290 296 C-290.133 296.835 -290.266 297.671 -290.402 298.531 C-290.802 300.853 -291.254 303.167 -291.754 305.469 C-297.443 332.778 -296.044 362.98 -280.734 386.984 C-277.766 391.709 -277.394 394.55 -278 400 C-280.025 405.437 -283.211 409.373 -288.25 412.312 C-293.094 413.523 -297.809 413.458 -302.688 412.438 C-307.041 409.732 -310.38 405.861 -312 401 C-312.542 394.599 -311.484 390.416 -308 385 C-307.34 384.34 -306.68 383.68 -306 383 C-306.471 375.586 -308.451 368.423 -310.184 361.221 C-314.986 340.773 -315.696 315.088 -309 295 C-310.918 294.66 -310.918 294.66 -312.875 294.312 C-317.676 293.289 -321.523 291.299 -325.738 288.828 C-327.949 287.768 -327.949 287.768 -330.062 288.582 C-332.403 290.295 -333.927 292.131 -335.688 294.438 C-336.736 295.787 -336.736 295.787 -337.805 297.164 C-338.529 298.1 -339.254 299.036 -340 300 C-362.364 327.771 -362.364 327.771 -372.789 337.602 C-373.462 338.245 -374.134 338.888 -374.827 339.551 C-376.156 340.816 -377.5 342.065 -378.86 343.296 C-383.181 347.423 -385.036 350.906 -386.368 356.74 C-387.693 361.479 -390.733 364.136 -394.75 366.875 C-399.567 368.543 -404.119 369.051 -408.992 367.273 C-413.333 364.982 -417.096 361.926 -418.582 357.117 C-419.615 351.885 -419.761 347.495 -417.312 342.688 C-414.555 339.483 -411.798 336.899 -408 335 C-406.614 335.052 -406.614 335.052 -405.199 335.105 C-398.472 335.263 -393.887 334.59 -388.827 330.149 C-386.113 327.523 -383.544 324.789 -381 322 C-380.211 321.201 -379.422 320.402 -378.609 319.578 C-365.879 306.298 -356.385 289.711 -347 274 C-347.66 274 -348.32 274 -349 274 C-350.621 272.391 -350.621 272.391 -352.438 270.25 C-353.034 269.554 -353.631 268.858 -354.246 268.141 C-355.891 266.133 -357.461 264.089 -359 262 C-364.353 262.597 -369.062 263.876 -374.133 265.66 C-375.742 266.21 -377.352 266.758 -378.963 267.305 C-379.804 267.593 -380.646 267.88 -381.513 268.176 C-400.548 274.638 -419.605 279.438 -439.33 283.245 C-448.11 284.639 -448.11 284.639 -454.75 290 C-457.49 293.618 -459.562 295.619 -464.148 296.336 C-469.628 296.432 -472.698 295.702 -477 292 C-480.565 288.039 -482.808 285.033 -483.312 279.688 C-482.839 274.097 -481.348 269.887 -477.062 266.188 C-472.556 262.969 -469.887 261.521 -464.166 261.587 C-461.574 262.081 -460.278 263.111 -458.164 264.668 C-451.549 268.462 -445.124 266.335 -438.062 264.75 C-436.639 264.453 -435.216 264.158 -433.792 263.865 C-429.514 262.967 -425.256 261.995 -421 261 C-419.772 260.715 -418.544 260.43 -417.278 260.136 C-403.564 256.869 -390.685 252.641 -377.857 246.802 C-375.292 245.694 -372.667 244.826 -370 244 C-370.151 243.447 -370.303 242.893 -370.459 242.323 C-371.152 239.76 -371.826 237.193 -372.5 234.625 C-372.858 233.32 -372.858 233.32 -373.223 231.988 C-373.448 231.118 -373.674 230.248 -373.906 229.352 C-374.116 228.566 -374.325 227.781 -374.541 226.971 C-375.209 222.649 -375.084 218.365 -375 214 C-376.966 214.031 -376.966 214.031 -378.972 214.063 C-383.874 214.136 -388.775 214.182 -393.677 214.22 C-395.791 214.24 -397.905 214.267 -400.02 214.302 C-403.073 214.351 -406.126 214.373 -409.18 214.391 C-410.112 214.411 -411.045 214.432 -412.006 214.453 C-419.714 214.456 -427.266 212.825 -433.094 207.457 C-433.888 206.584 -434.682 205.712 -435.5 204.812 C-439.654 200.045 -439.654 200.045 -445.598 198.762 C-458.449 198.439 -465.483 200.874 -475.934 208.512 C-479.749 211.26 -482.283 211.393 -487 211 C-491.337 208.748 -494.169 206.577 -496 202 C-496.706 197.293 -496.453 193.941 -494.375 189.625 C-490.734 185.601 -487.78 184.153 -482.375 183.688 C-479.181 183.983 -477.768 184.616 -475 186 C-471.595 185.488 -468.406 184.522 -465.125 183.5 C-458.147 181.543 -451.212 181.282 -444 181 C-444.585 160.922 -444.585 160.922 -447 141 C-447.186 139.88 -447.371 138.76 -447.562 137.605 C-447.707 136.746 -447.851 135.886 -448 135 C-448.652 135.035 -449.305 135.07 -449.977 135.105 C-455.442 135.275 -459.38 135.255 -464 132 C-468.699 127.224 -471.151 124.069 -471.312 117.25 C-471.262 111.969 -470.694 108.994 -467 105 C-462.277 100.749 -458.694 98.43 -452.152 98.625 C-446.64 99.585 -442.737 102.853 -439.449 107.215 C-437.019 110.756 -435.372 114.44 -434 118.5 C-433.752 119.232 -433.504 119.963 -433.249 120.717 C-427.651 137.891 -425.349 154.755 -424.72 172.73 C-424.522 183.914 -424.522 183.914 -419.603 193.676 C-416.959 195.86 -413.898 195.438 -410.625 195.375 C-409.521 195.365 -409.521 195.365 -408.395 195.355 C-399.597 195.151 -390.945 193.769 -382.272 192.364 C-379.187 191.87 -376.095 191.432 -373 191 C-372.907 189.422 -372.907 189.422 -372.812 187.812 C-371.646 178.581 -367.662 170.259 -362 163 C-360.597 160.7 -359.301 158.361 -358 156 C-357.34 156 -356.68 156 -356 156 C-355.752 155.423 -355.505 154.845 -355.25 154.25 C-353.833 151.7 -352.124 149.982 -350 148 C-351.301 145.263 -352.743 142.825 -354.512 140.367 C-361.855 129.991 -368.438 119.359 -374.622 108.25 C-384.08 91.237 -384.08 91.237 -398 78 C-401.441 77.772 -404.607 77.901 -408.029 78.156 C-413.291 78.396 -415.944 77.301 -420 74 C-423.736 70.166 -424.381 66.816 -424.688 61.625 C-424.511 55.678 -423.153 52.536 -418.859 48.457 C-414.83 45.3 -411.283 44.481 -406.121 44.617 C-401.016 45.538 -397.203 48.797 -393.625 52.375 C-392 55 -392 55 -391.25 58.328 C-389.808 62.565 -387.732 64.626 -384.375 67.375 C-375.49 74.935 -368.954 83.12 -363.062 93.188 C-361.838 95.232 -360.613 97.277 -359.387 99.32 C-358.803 100.299 -358.22 101.278 -357.619 102.286 C-352.481 110.9 -347.153 119.119 -340.688 126.812 C-340.183 127.418 -339.679 128.024 -339.16 128.649 C-336.586 131.615 -334.922 133.436 -331 134 C-328.592 133.265 -328.592 133.265 -326.25 132.062 C-325.051 131.492 -325.051 131.492 -323.828 130.91 C-323.225 130.61 -322.622 130.309 -322 130 C-322.453 125.848 -322.994 121.912 -324.062 117.875 C-326.759 105.816 -324.38 94.155 -321.688 82.375 C-321.374 80.951 -321.062 79.526 -320.752 78.102 C-319.155 70.837 -317.439 63.611 -315.527 56.422 C-314.764 52.914 -314.927 50.421 -316 47 C-316.827 45.896 -317.684 44.814 -318.562 43.75 C-321.579 39.866 -321.667 36.395 -321.41 31.582 C-320.678 26.976 -318.767 24.5 -315.27 21.531 C-311.07 18.514 -307.425 17.183 -302.234 17.523 C-296.431 18.761 -292.368 22.016 -289 26.812 C-286.761 30.886 -285.732 34.438 -287 39 C-289.381 43.212 -291.971 46.314 -296 49 C-296.749 51.835 -297.32 54.556 -297.812 57.438 C-298.935 63.598 -300.137 69.713 -301.59 75.805 C-305.839 93.631 -307.961 105.116 -302 123 C-292.76 123 -283.52 123 -274 123 C-272.68 119.7 -271.36 116.4 -270 113 C-257.686 90.209 -234.858 76.698 -212.061 65.971 C-209.799 64.905 -207.548 63.82 -205.297 62.734 C-203.74 61.989 -202.183 61.244 -200.625 60.5 C-199.893 60.149 -199.16 59.798 -198.406 59.437 C-193.234 57 -193.234 57 -191 57 C-190.996 56.147 -190.996 56.147 -190.992 55.277 C-190.71 49.638 -189.486 46.562 -185.668 42.41 C-181.063 38.517 -176.77 38.574 -170.914 38.688 C-165.591 39.258 -163.131 41.78 -159.625 45.562 C-157.308 50.463 -157.131 54.673 -158 60 C-160.241 65.731 -163.578 69.071 -169 72 C-172.53 72.621 -176.062 72.507 -179.635 72.488 C-185.249 72.599 -188.271 73.971 -193 77 C-194.442 77.602 -195.9 78.169 -197.375 78.688 C-216.604 86.211 -242.205 99.108 -251.781 118.102 C-253.68 122.617 -254.947 127.223 -256 132 C-255.301 132.085 -254.603 132.17 -253.883 132.258 C-244.123 134.77 -235.978 143.641 -229.438 150.91 C-227.214 153.175 -227.214 153.175 -224.562 153.434 C-221.557 152.925 -218.884 151.995 -216 151 C-214.395 150.6 -212.785 150.219 -211.172 149.852 C-210.289 149.65 -209.406 149.449 -208.496 149.242 C-206.682 148.834 -204.867 148.431 -203.051 148.031 C-192.266 146.07 -192.266 146.07 -183.713 140.199 C-182.745 138.076 -182.745 138.076 -182 135 C-181.34 135 -180.68 135 -180 135 C-179.66 133.952 -179.66 133.952 -179.312 132.883 C-177.723 129.392 -175.498 126.737 -173 123.875 C-170.52 120.991 -168.115 118.173 -166 115 C-165.34 115 -164.68 115 -164 115 C-164 114.34 -164 113.68 -164 113 C-162.355 111.309 -162.355 111.309 -160.188 109.438 C-159.48 108.817 -158.772 108.197 -158.043 107.559 C-156 106 -156 106 -153 105 C-153 104.34 -153 103.68 -153 103 C-150.974 101.244 -148.948 99.613 -146.812 98 C-146.234 97.549 -145.656 97.098 -145.061 96.633 C-141.835 94.169 -138.899 92.292 -135 91 C-135 90.34 -135 89.68 -135 89 C-114.18 77.624 -88.49 64.074 -64 65 C-63.67 63.68 -63.34 62.36 -63 61 C-63 61.99 -63 62.98 -63 64 C-48.48 64 -33.96 64 -19 64 C-16.547 53.574 -14.17 43.266 -12.25 32.75 C-12.03 31.581 -11.809 30.412 -11.582 29.207 C-11.374 28.082 -11.167 26.956 -10.953 25.797 C-10.769 24.8 -10.585 23.803 -10.396 22.776 C-10.016 20.114 -9.813 17.683 -10 15 C-10.773 14.072 -10.773 14.072 -11.562 13.125 C-13 11 -13 11 -12.938 7.5 C-11.032 0.386 -6.941 -1.38 0 0 Z " fill="#37385A" transform="translate(696,274)"/>
<path d="M0 0 C0.807 0.003 1.613 0.007 2.445 0.01 C15.233 0.087 27.399 0.876 39.75 4.438 C40.62 4.684 41.489 4.931 42.385 5.185 C67.066 12.381 89.049 24.723 107.75 42.438 C108.612 43.235 109.475 44.033 110.363 44.855 C128.66 62.358 142.744 85.035 149.75 109.438 C150.114 110.663 150.477 111.889 150.852 113.152 C154.596 126.419 156.081 139.137 156 152.938 C156.008 154.248 156.015 155.559 156.023 156.91 C155.948 195.018 140.062 233.051 113.75 260.438 C112.412 261.87 112.412 261.87 111.047 263.332 C95.928 279.24 77.177 290.603 56.75 298.438 C55.774 298.818 55.774 298.818 54.777 299.207 C16.08 314.049 -26.496 311.49 -64.262 295.336 C-74.644 290.707 -84.051 285.094 -93.25 278.438 C-94.076 277.843 -94.903 277.249 -95.754 276.637 C-106.092 268.888 -117.987 259.189 -125.25 248.438 C-125.25 247.778 -125.25 247.118 -125.25 246.438 C-124.586 246.291 -123.922 246.144 -123.238 245.992 C-116.907 244.384 -113.796 242.979 -110.25 237.438 C-108.261 233.559 -107.757 229.747 -107.25 225.438 C-106.765 225.726 -106.281 226.015 -105.781 226.312 C-99.968 229.532 -95.678 230.373 -89.18 229 C-82.346 226.921 -79.076 222.177 -75.25 216.438 C-74.248 208.268 -75.511 202.455 -80.125 195.688 C-84.085 191.494 -86.874 190.243 -92.625 190.062 C-98.475 190.266 -102.874 191.104 -107.195 195.348 C-111.562 200.218 -113.322 202.973 -113.812 209.562 C-113.896 210.658 -113.98 211.754 -114.066 212.883 C-114.157 214.147 -114.157 214.147 -114.25 215.438 C-114.797 215.276 -115.343 215.115 -115.906 214.949 C-118.573 214.367 -121.021 214.269 -123.75 214.25 C-124.688 214.236 -125.627 214.222 -126.594 214.207 C-129.239 214.263 -129.239 214.263 -131.281 215.512 C-134.03 216.804 -135.386 216.366 -138.25 215.438 C-145.963 211.317 -150.041 206.328 -152.688 198.188 C-153.65 194.96 -154.475 191.715 -155.25 188.438 C-155.457 187.579 -155.665 186.721 -155.878 185.837 C-158.633 174.072 -160.186 162.527 -159.25 150.438 C-156.843 148.03 -150.731 149.204 -147.5 149.188 C-145.996 149.157 -145.996 149.157 -144.461 149.125 C-135.064 149.075 -135.064 149.075 -131.25 152.438 C-130.023 153.909 -128.797 155.383 -127.607 156.886 C-125.256 159.574 -122.419 161.533 -119.5 163.562 C-118.883 163.996 -118.266 164.43 -117.631 164.877 C-111.976 168.772 -106.472 171.69 -99.75 173.25 C-95.607 174.656 -93.137 176.803 -89.793 179.555 C-78.407 187.985 -67.238 189.419 -53.582 188.199 C-44.308 186.527 -34.803 181.095 -29.25 173.438 C-21.923 160.867 -17.88 149.003 -20.902 134.254 C-24.475 122.461 -31.155 112.585 -41.25 105.438 C-52.562 99.397 -65.407 96.336 -78.141 99.055 C-89.549 102.738 -98.495 109.945 -104.25 120.438 C-109.303 130.408 -109.267 140.597 -107.25 151.438 C-108.604 150.813 -109.931 150.132 -111.25 149.438 C-112.302 148.922 -113.354 148.406 -114.438 147.875 C-117.805 144.957 -117.805 144.957 -118.5 141.625 C-119.193 125.963 -104.967 107.298 -95.25 96.438 C-94.642 95.735 -94.033 95.032 -93.406 94.309 C-88.048 88.476 -82.714 86.84 -75.062 85.5 C-69.626 84.483 -66.853 82.482 -63.438 78.125 C-61.892 74.626 -61.85 72.235 -62.25 68.438 C-63.702 64.843 -65.18 61.868 -68.25 59.438 C-71.704 58.286 -74.551 58.33 -78.188 58.25 C-84.72 57.853 -84.72 57.853 -86.988 56.074 C-88 54.438 -88 54.438 -89.25 51.438 C-93.487 49.319 -98.66 49.815 -103.25 50.438 C-107.133 52.454 -109.546 55.056 -111.523 58.938 C-113.814 62.254 -116.14 63.162 -119.812 64.75 C-120.969 65.262 -122.125 65.774 -123.316 66.301 C-126.25 67.438 -126.25 67.438 -128.25 67.438 C-116.152 40.81 -83.788 20.659 -57.467 10.267 C-53.458 8.767 -49.403 7.447 -45.312 6.188 C-44.563 5.953 -43.814 5.719 -43.042 5.478 C-28.809 1.299 -14.766 -0.121 0 0 Z " fill="#4AC1BE" transform="translate(651.25,346.5625)"/>
<path d="M0 0 C0.946 -0.01 1.892 -0.02 2.867 -0.031 C22.921 0.219 41.384 10.456 55.25 24.438 C70.699 40.725 76.909 60.379 76.719 82.399 C76.159 103.346 68.755 121.828 53.91 136.797 C36.799 152.908 17.038 159.288 -6.129 158.809 C-24.041 157.955 -39.536 149.147 -52.75 137.438 C-53.777 136.552 -53.777 136.552 -54.824 135.648 C-68.28 123.224 -76.211 105.39 -77.355 87.238 C-78.148 62.915 -72.529 42.643 -56.22 23.994 C-41.39 8.293 -21.401 0.177 0 0 Z " fill="#FDFDFD" transform="translate(405.75,404.5625)"/>
<path d="M0 0 C1.129 0.008 1.129 0.008 2.281 0.017 C15.054 0.295 25.493 5.674 34.867 14.27 C44.588 24.817 47.242 35.285 47.051 49.129 C46.528 60.343 41.459 71.349 33.801 79.5 C21.832 90.078 9.352 93.181 -6.237 92.487 C-10.753 92.095 -14.35 90.524 -18.25 88.312 C-19.163 87.815 -20.075 87.317 -21.016 86.805 C-32.96 79.788 -40.62 69.706 -44.25 56.312 C-45.491 45.028 -45.134 34.258 -39.25 24.312 C-38.742 23.433 -38.234 22.554 -37.711 21.648 C-32.091 12.833 -23.977 6.18 -14.25 2.312 C-13.353 1.955 -12.456 1.598 -11.531 1.23 C-7.649 0.144 -3.998 -0.031 0 0 Z " fill="#F14859" transform="translate(407.25,436.6875)"/>
<path d="M0 0 C0.807 0.003 1.613 0.007 2.445 0.01 C15.233 0.087 27.399 0.876 39.75 4.438 C40.62 4.684 41.489 4.931 42.385 5.185 C67.066 12.381 89.049 24.723 107.75 42.438 C108.612 43.235 109.475 44.033 110.363 44.855 C128.66 62.358 142.744 85.035 149.75 109.438 C150.114 110.663 150.477 111.889 150.852 113.152 C154.596 126.419 156.081 139.137 156 152.938 C156.008 154.248 156.015 155.559 156.023 156.91 C155.948 195.018 140.062 233.051 113.75 260.438 C112.412 261.87 112.412 261.87 111.047 263.332 C95.928 279.24 77.177 290.603 56.75 298.438 C55.774 298.818 55.774 298.818 54.777 299.207 C16.08 314.049 -26.496 311.49 -64.262 295.336 C-74.644 290.707 -84.051 285.094 -93.25 278.438 C-94.076 277.843 -94.903 277.249 -95.754 276.637 C-106.092 268.888 -117.987 259.189 -125.25 248.438 C-125.25 247.778 -125.25 247.118 -125.25 246.438 C-121.72 245.086 -118.977 244.684 -115.25 245.438 C-111.278 248.813 -108.113 252.734 -104.769 256.716 C-93.554 269.426 -77.259 278.538 -62.046 285.603 C-60.484 286.329 -58.932 287.078 -57.383 287.832 C-40.342 295.611 -21.828 298.625 -3.261 298.623 C-1.085 298.625 1.091 298.643 3.268 298.662 C42.684 298.823 78.899 281.582 106.75 254.438 C132.351 228.92 146.072 192.69 146.254 156.928 C146.182 114.594 131.769 80.168 102.375 49.75 C83.809 31.632 60.025 18.973 34.75 13.438 C33.898 13.25 33.046 13.062 32.168 12.869 C-5.972 4.724 -45.956 10.488 -79.25 31.438 C-84.819 35.142 -90.071 39.211 -95.25 43.438 C-96.232 44.232 -96.232 44.232 -97.234 45.043 C-99.168 46.618 -101.088 48.21 -103 49.812 C-103.573 50.288 -104.145 50.764 -104.736 51.253 C-107.456 53.591 -109.288 55.497 -111.227 58.578 C-113.722 62.104 -115.932 63.13 -119.875 64.812 C-121.022 65.315 -122.17 65.818 -123.352 66.336 C-126.25 67.438 -126.25 67.438 -128.25 67.438 C-116.152 40.81 -83.788 20.659 -57.467 10.267 C-53.458 8.767 -49.403 7.447 -45.312 6.188 C-44.563 5.953 -43.814 5.719 -43.042 5.478 C-28.809 1.299 -14.766 -0.121 0 0 Z " fill="#F7F9FA" transform="translate(651.25,346.5625)"/>
<path d="M0 0 C4.34 5.276 8.248 10.855 12.223 16.406 C15.057 20.352 17.912 24.246 21 28 C19.528 31.615 17.585 33.406 14.5 35.75 C13.706 36.364 12.912 36.977 12.094 37.609 C10 39 10 39 8 39 C8 39.66 8 40.32 8 41 C6.355 42.691 6.355 42.691 4.188 44.562 C3.48 45.183 2.772 45.803 2.043 46.441 C0 48 0 48 -3 49 C-3 49.66 -3 50.32 -3 51 C-4.319 52.347 -5.657 53.677 -7 55 C-8.892 57.267 -10.694 59.602 -12.5 61.938 C-13.448 63.155 -14.396 64.373 -15.344 65.59 C-16.021 66.466 -16.021 66.466 -16.711 67.359 C-17.849 68.807 -19.031 70.221 -20.219 71.629 C-22.11 73.884 -22.11 73.884 -22.833 76.514 C-24 79 -24 79 -26.005 80.271 C-32.181 82.484 -38.343 84.216 -44.75 85.625 C-46.558 86.031 -48.365 86.44 -50.172 86.852 C-51.432 87.138 -51.432 87.138 -52.717 87.431 C-55.199 88.014 -55.199 88.014 -58.328 89.148 C-61.236 90.075 -62.989 90.568 -66 90 C-68.002 88.237 -69.682 86.544 -71.438 84.562 C-77.927 77.638 -85.871 71.043 -95 68 C-93.893 55.266 -87.695 45.953 -78.204 37.782 C-74.745 34.985 -71.087 32.596 -67.312 30.25 C-66.505 29.744 -65.698 29.238 -64.866 28.717 C-53.394 21.642 -41.435 15.212 -29 10 C-28.367 9.615 -27.734 9.229 -27.082 8.832 C-23.736 7.495 -20.243 7.743 -16.688 7.688 C-10.012 7.456 -5.851 6.972 -1 2 C-0.67 1.34 -0.34 0.68 0 0 Z " fill="#374E76" transform="translate(535,338)"/>
<path d="M0 0 C12.717 7.864 20.203 19.793 24.887 33.785 C27.885 48.356 25.162 62.46 17.637 75.254 C11.933 83.505 4.927 88.637 -4.113 92.785 C-4.965 93.199 -5.817 93.613 -6.695 94.039 C-15.685 97.907 -26.847 98.569 -36.176 95.348 C-37.183 94.936 -37.183 94.936 -38.211 94.516 C-40.203 93.751 -42 93.42 -44.113 93.16 C-47.113 92.785 -47.113 92.785 -48.113 91.785 C-54.645 91.198 -60.409 91.275 -66.113 94.785 C-71.392 99.969 -74.122 103.476 -74.676 110.91 C-74.76 112.006 -74.843 113.102 -74.93 114.23 C-75.021 115.495 -75.021 115.495 -75.113 116.785 C-75.66 116.624 -76.206 116.463 -76.77 116.297 C-79.436 115.715 -81.885 115.616 -84.613 115.598 C-85.552 115.583 -86.49 115.569 -87.457 115.555 C-90.102 115.611 -90.102 115.611 -92.145 116.859 C-94.893 118.152 -96.25 117.714 -99.113 116.785 C-106.826 112.665 -110.904 107.676 -113.551 99.535 C-114.513 96.308 -115.338 93.062 -116.113 89.785 C-116.321 88.927 -116.528 88.069 -116.742 87.185 C-119.496 75.42 -121.049 63.875 -120.113 51.785 C-117.706 49.378 -111.594 50.552 -108.363 50.535 C-106.859 50.504 -106.859 50.504 -105.324 50.473 C-95.928 50.423 -95.928 50.423 -92.113 53.785 C-90.886 55.257 -89.66 56.731 -88.471 58.233 C-86.119 60.921 -83.282 62.88 -80.363 64.91 C-79.746 65.344 -79.129 65.778 -78.494 66.225 C-72.839 70.119 -67.335 73.037 -60.613 74.598 C-56.471 76.003 -54.001 78.151 -50.656 80.902 C-39.271 89.332 -28.101 90.767 -14.445 89.547 C-5.171 87.874 4.333 82.443 9.887 74.785 C17.213 62.215 21.257 50.35 18.234 35.602 C14.661 23.809 7.982 13.932 -2.113 6.785 C-13.425 0.745 -26.27 -2.316 -39.004 0.402 C-50.412 4.086 -59.359 11.292 -65.113 21.785 C-70.166 31.755 -70.13 41.945 -68.113 52.785 C-69.467 52.16 -70.794 51.479 -72.113 50.785 C-73.165 50.27 -74.217 49.754 -75.301 49.223 C-78.668 46.304 -78.668 46.304 -79.363 42.973 C-79.926 30.261 -69.608 14.312 -62.113 4.598 C-59.488 1.76 -56.845 0.593 -53.188 -0.535 C-50.369 -1.459 -47.865 -2.834 -45.266 -4.25 C-30.558 -10.843 -13.713 -7.296 0 0 Z " fill="#4BBFBE" transform="translate(612.11328125,445.21484375)"/>
<path d="M0 0 C1.129 0.008 1.129 0.008 2.281 0.017 C15.054 0.295 25.493 5.674 34.867 14.27 C44.588 24.817 47.242 35.285 47.051 49.129 C46.528 60.343 41.459 71.349 33.801 79.5 C21.832 90.078 9.352 93.181 -6.237 92.487 C-10.753 92.095 -14.35 90.524 -18.25 88.312 C-19.163 87.815 -20.075 87.317 -21.016 86.805 C-32.96 79.788 -40.62 69.706 -44.25 56.312 C-45.491 45.028 -45.134 34.258 -39.25 24.312 C-38.742 23.433 -38.234 22.554 -37.711 21.648 C-32.091 12.833 -23.977 6.18 -14.25 2.312 C-13.353 1.955 -12.456 1.598 -11.531 1.23 C-7.649 0.144 -3.998 -0.031 0 0 Z M-28.5 21.625 C-35.864 30.692 -38.028 39.872 -37.25 51.312 C-35.016 63.43 -28.643 73.003 -18.699 80.145 C-9.173 85.77 1.371 85.831 11.996 83.645 C21.215 80.65 29.504 75.225 34.5 66.809 C39.261 57.302 41.349 47.942 39.75 37.312 C35.11 23.73 27.229 16.175 14.703 9.66 C-1.39 2.316 -17.293 9.503 -28.5 21.625 Z " fill="#413E61" transform="translate(407.25,436.6875)"/>
<path d="M0 0 C5.824 3.343 9.034 7.874 11.938 13.812 C13.566 22.118 13.244 28.846 8.562 36 C8.026 36.887 7.49 37.774 6.938 38.688 C1.278 44.198 -4.706 46.33 -12.562 46.625 C-20.154 46.312 -24.137 44.314 -29.402 39.027 C-35.415 32.449 -36.899 28.247 -36.758 19.266 C-36.316 14.764 -34.96 11.696 -32.438 8 C-31.901 7.113 -31.365 6.226 -30.812 5.312 C-22.378 -2.9 -10.768 -4.76 0 0 Z " fill="#D1BB98" transform="translate(683.4375,543)"/>
<path d="M0 0 C12.717 7.864 20.203 19.793 24.887 33.785 C27.885 48.356 25.162 62.46 17.637 75.254 C11.933 83.505 4.927 88.637 -4.113 92.785 C-4.965 93.199 -5.817 93.613 -6.695 94.039 C-15.591 97.867 -26.589 98.46 -35.926 95.66 C-37.342 95.083 -38.738 94.454 -40.113 93.785 C-40.994 93.36 -41.874 92.934 -42.781 92.496 C-50.702 88.41 -58.078 83.401 -64.113 76.785 C-64.113 76.125 -64.113 75.465 -64.113 74.785 C-58.009 74.915 -55.266 77.019 -50.656 80.867 C-39.357 89.39 -28.063 90.763 -14.445 89.547 C-5.171 87.874 4.333 82.443 9.887 74.785 C17.213 62.215 21.257 50.35 18.234 35.602 C14.661 23.809 7.982 13.932 -2.113 6.785 C-13.425 0.745 -26.27 -2.316 -39.004 0.402 C-50.412 4.086 -59.359 11.292 -65.113 21.785 C-70.166 31.755 -70.13 41.945 -68.113 52.785 C-69.467 52.16 -70.794 51.479 -72.113 50.785 C-73.691 50.012 -73.691 50.012 -75.301 49.223 C-78.668 46.304 -78.668 46.304 -79.363 42.973 C-79.926 30.261 -69.608 14.312 -62.113 4.598 C-59.488 1.76 -56.845 0.593 -53.188 -0.535 C-50.369 -1.459 -47.865 -2.834 -45.266 -4.25 C-30.558 -10.843 -13.713 -7.296 0 0 Z " fill="#F3F7F8" transform="translate(612.11328125,445.21484375)"/>
<path d="M0 0 C0.99 0.66 1.98 1.32 3 2 C2.563 6.903 0.074 9.708 -3 13.312 C-11.594 23.843 -17.672 35.483 -22.794 48.037 C-24.802 52.901 -24.802 52.901 -27 54 C-28.34 53.696 -29.673 53.358 -31 53 C-32.513 52.859 -34.029 52.755 -35.547 52.684 C-36.813 52.621 -36.813 52.621 -38.105 52.557 C-38.978 52.517 -39.851 52.478 -40.75 52.438 C-41.638 52.394 -42.526 52.351 -43.441 52.307 C-45.627 52.201 -47.814 52.099 -50 52 C-50.473 42.569 -47.592 34.27 -44.738 25.371 C-44.155 23.497 -43.657 21.597 -43.191 19.691 C-41.965 15.931 -40.586 13.878 -37.068 11.93 C-32.033 9.563 -26.834 7.715 -21.575 5.913 C-19.174 5.062 -16.836 4.132 -14.492 3.137 C-13.813 2.849 -13.134 2.561 -12.435 2.265 C-11.796 1.992 -11.158 1.719 -10.5 1.438 C-3.519 -1.536 -3.519 -1.536 0 0 Z " fill="#4CBFBE" transform="translate(544,424)"/>
<path d="M0 0 C4.798 2.803 7.511 6.798 10.562 11.375 C11.454 18.957 11.362 26.162 6.562 32.375 C1.758 37.385 -2.708 39.677 -9.625 39.875 C-16.437 39.753 -20.554 38.096 -25.438 33.375 C-29.64 29.014 -30.803 24.951 -31.125 18.938 C-30.798 11.317 -28.13 6.862 -22.68 1.715 C-16.12 -3.212 -7.374 -3.303 0 0 Z " fill="#D0BA98" transform="translate(652.4375,388.625)"/>
<path d="M0 0 C6.307 2.504 10.956 5.912 14 12 C15.67 17.614 16.138 23.245 13.871 28.734 C10.302 35.034 6.957 38.681 0 41 C-6.308 41.682 -12.226 42.231 -17.562 38.375 C-22.192 34.244 -25.678 29.654 -26.238 23.293 C-26.435 15.044 -25.137 11.458 -19.562 5.312 C-13.391 -0.257 -8.157 -1.246 0 0 Z " fill="#D1BB98" transform="translate(731,472)"/>
<path d="M0 0 C5.761 2.949 7.492 6.147 9.625 11.938 C9.919 12.697 10.212 13.457 10.515 14.24 C11.369 16.485 12.19 18.739 13 21 C13.607 22.671 13.607 22.671 14.227 24.375 C19.023 38.727 20.342 53.267 20.622 68.321 C20.806 76.426 21.496 83.04 26 90 C26 90.66 26 91.32 26 92 C26.577 92.289 27.155 92.577 27.75 92.875 C30 94 30 94 31.684 95.051 C40.457 98.646 52.595 95.737 61.492 93.734 C66.324 92.723 71.079 92.337 76 92 C76 95.3 76 98.6 76 102 C68.554 103.204 61.166 103.294 53.64 103.35 C52.01 103.367 50.38 103.394 48.751 103.432 C38.237 103.676 29.411 103.706 21.113 96.32 C10.948 86.025 12.779 68.954 12.482 55.656 C12.13 43.467 11.302 32.655 5 22 C4.192 22.046 3.384 22.093 2.551 22.141 C-6.22 22.437 -6.22 22.437 -10.125 20.25 C-12.718 17.139 -13.789 15.187 -14.5 11.188 C-13.788 6.646 -11.291 4.095 -8 1 C-5.134 -0.433 -3.187 -0.306 0 0 Z " fill="#E5485B" transform="translate(245,380)"/>
<path d="M0 0 C8.596 5.197 14.424 12.15 16.91 21.992 C18.376 31.41 15.508 39.477 10.371 47.352 C5.509 53.481 -0.772 56.553 -8.09 58.992 C-18.964 59.775 -26.854 59.003 -35.34 51.93 C-42.182 45.428 -46.149 37.514 -46.527 28.055 C-46.432 19.526 -43.629 12.975 -37.969 6.605 C-35.771 4.545 -33.536 2.747 -31.09 0.992 C-30.487 0.538 -29.883 0.085 -29.262 -0.383 C-20.916 -5.608 -8.465 -4.082 0 0 Z M-34.59 12.992 C-39.417 19.952 -40.048 26.674 -39.09 34.992 C-36.62 41.989 -30.377 47.259 -24.258 51.16 C-18.425 53.399 -11.072 52.847 -5.16 51.152 C1.751 48.033 5.852 43.37 9.047 36.574 C11.189 30.167 10.604 22.909 7.871 16.766 C4.19 9.973 -0.754 6.345 -8.09 3.992 C-18.555 2.402 -27.869 4.441 -34.59 12.992 Z " fill="#32395D" transform="translate(686.08984375,537.0078125)"/>
<path d="M0 0 C6.77 4.008 11.196 10.434 13.426 17.934 C13.58 19.264 13.58 19.264 13.738 20.621 C13.826 21.245 13.914 21.869 14.004 22.512 C14.584 29.841 11.653 35.564 7.738 41.621 C5.631 44.082 3.456 45.871 0.738 47.621 C0.144 48.031 -0.45 48.441 -1.062 48.863 C-7.572 52.772 -14.76 52.703 -22.008 50.961 C-30.025 48.142 -34.973 43.268 -39.199 35.996 C-42.335 29.142 -42.572 22.065 -40.445 14.852 C-37.004 7.045 -31.124 1.91 -23.887 -2.379 C-15.263 -4.758 -8.1 -3.709 0 0 Z M-31.762 12.684 C-35.106 18.166 -35.241 23.377 -34.262 29.621 C-32.453 35.934 -28.523 39.876 -23.262 43.621 C-18.352 46.076 -11.053 45.286 -5.836 44.043 C0.564 41.309 3.728 35.641 6.738 29.621 C7.338 23.317 6.926 18.226 3.738 12.621 C-0.35 7.738 -4.737 4.145 -11.098 3.199 C-20.492 2.773 -25.998 5.311 -31.762 12.684 Z " fill="#323A5D" transform="translate(739.26171875,468.37890625)"/>
<path d="M0 0 C5.621 3.713 10.373 8.319 12 15 C12.843 23.512 13.269 31.803 8 39 C7.443 39.887 6.886 40.774 6.312 41.688 C-0.268 48.268 -7.999 50.383 -17.092 50.453 C-24.697 50.263 -29.593 47.458 -34.836 42.137 C-39.886 35.991 -42.786 28.471 -42.477 20.461 C-41.034 13.01 -37.039 5.733 -30.91 1.18 C-20.227 -5.418 -11.323 -5.661 0 0 Z M-31.664 10.723 C-35.417 15.66 -35.804 20.732 -35.543 26.809 C-34.414 33.442 -30.712 38.042 -25.438 42.062 C-19.966 45.076 -14.044 44.929 -8 44 C-1.786 41.74 1.631 37.513 5 32 C6.924 26.229 7.419 19.132 4.871 13.508 C1.226 8.464 -3.062 4.979 -9 3 C-18.809 1.836 -24.81 3.628 -31.664 10.723 Z " fill="#32395E" transform="translate(657,384)"/>
<path d="M0 0 C3.853 0.062 4.525 0.306 7.688 2.875 C8.678 4.143 8.678 4.143 9.688 5.438 C10.183 5.933 10.183 5.933 10.688 6.438 C11.082 10.539 11.138 12.739 8.875 16.25 C4.835 20.29 2.581 20.587 -2.98 20.602 C-12.28 20.956 -19.487 24.595 -27.625 28.812 C-29.084 29.548 -30.544 30.282 -32.005 31.014 C-57.573 43.949 -77.034 55.773 -87.312 83.438 C-89.623 83.438 -91.933 83.438 -94.312 83.438 C-92.142 67.856 -80.362 55.06 -68.495 45.821 C-55.246 35.983 -27.467 15.438 -10.312 15.438 C-10.395 14.406 -10.478 13.375 -10.562 12.312 C-10.15 5.923 -6.736 0.192 0 0 Z " fill="#D44A5C" transform="translate(521.3125,319.5625)"/>
<path d="M0 0 C2.31 0 4.62 0 7 0 C6.731 1.521 6.46 3.042 6.188 4.562 C6.008 5.586 5.829 6.61 5.645 7.664 C5.228 9.818 4.75 11.962 4.199 14.086 C-0.193 31.946 0.314 52.257 5 70 C5.204 70.842 5.408 71.684 5.618 72.551 C8.886 86.515 8.886 86.515 16.703 98.289 C18 100 18 100 18.188 103.75 C16.644 107.975 14.827 110.721 11.125 113.312 C8.157 114.273 6.106 114.444 3 114 C-0.773 110.814 -2.796 108.737 -3.375 103.812 C-2.993 99.928 -2.829 99.48 -0.5 96.75 C2.478 92.924 2.65 89.828 2.43 85.062 C1.79 80.502 0.43 76.233 -0.91 71.836 C-7.478 48.72 -7.026 22.973 0 0 Z " fill="#E74B5E" transform="translate(394,567)"/>
<path d="M0 0 C5.675 1.892 9.326 5.653 12 11 C12.59 16.676 12.314 21.189 9 26 C4.607 30.424 1.095 33.102 -5.312 33.312 C-11.04 33.247 -14.017 30.708 -18.25 27.062 C-21.095 23.709 -21.891 20.978 -22.375 16.625 C-21.761 10.688 -19.006 6.729 -14.938 2.562 C-10.383 -1.108 -5.578 -0.835 0 0 Z " fill="#CEB997" transform="translate(607,568)"/>
<path d="M0 0 C4.427 0.773 6.031 1.283 8.938 4.688 C9.35 6.073 9.721 7.471 10.062 8.875 C11.969 15.549 17.63 18.675 22.938 22.688 C33.373 31.324 39.809 44.404 46.5 55.938 C51.093 63.832 55.76 70.929 61.938 77.688 C62.706 78.561 63.474 79.435 64.266 80.336 C66.141 82.467 68.031 84.584 69.938 86.688 C69.442 88.173 69.442 88.173 68.938 89.688 C66.375 90.875 66.375 90.875 63.938 91.688 C53.716 81.094 46.582 68.22 39.415 55.481 C36.283 49.947 33.031 44.539 29.5 39.25 C29.111 38.666 28.723 38.082 28.322 37.48 C24.338 31.617 20.447 26.607 14.438 22.75 C13.52 22.143 12.602 21.536 11.656 20.91 C8.455 19.471 7.237 19.707 3.938 20.688 C1.19 21.052 -1.327 21.196 -4.062 20.688 C-7.649 17.788 -9.756 15.573 -10.5 11 C-9.962 6.927 -8.685 5.01 -5.91 2.051 C-3.805 0.498 -2.596 0.133 0 0 Z " fill="#EA4B5B" transform="translate(288.0625,325.3125)"/>
<path d="M0 0 C3 0 3 0 5.188 2 C5.786 2.66 6.384 3.32 7 4 C5.199 8.157 2.463 11.596 -0.25 15.188 C-0.777 15.887 -1.304 16.586 -1.848 17.306 C-31.201 55.918 -31.201 55.918 -46.438 66.438 C-49.808 69.808 -50.174 72.914 -51.246 77.461 C-52 80 -52 80 -54.125 82.688 C-58.177 84.537 -61.635 85.034 -66 84 C-69.563 81.019 -70.778 79.108 -71.688 74.562 C-70.907 70.518 -69.936 68.276 -67.152 65.27 C-64.204 63.531 -62.254 63.938 -58.875 64.25 C-53.89 64.522 -51.234 64.036 -47.416 60.691 C-45.381 58.707 -43.415 56.672 -41.488 54.582 C-40.031 53.033 -38.523 51.575 -36.969 50.125 C-23.203 37.181 -13.583 21.009 -3.429 5.214 C-2.301 3.466 -1.154 1.731 0 0 Z " fill="#E24A5C" transform="translate(355,551)"/>
<path d="M0 0 C0.33 0 0.66 0 1 0 C1 1.98 1 3.96 1 6 C1.796 5.984 2.592 5.969 3.412 5.952 C7.066 5.889 10.72 5.851 14.375 5.812 C15.627 5.787 16.878 5.762 18.168 5.736 C30.585 5.639 38.075 7.415 47 16 C59.965 28.012 59.965 28.012 76.844 31.602 C80.393 30.611 82.507 28.166 85.094 25.641 C88.007 23.133 90.215 22.79 94 23 C99.468 25.937 99.468 25.937 101 29 C101.702 36.132 101.702 36.132 98.625 39.938 C94.561 43.13 92.202 43.529 87 43 C86.299 42.196 85.597 41.391 84.875 40.562 C81.446 37.506 80.224 37.635 75.75 37.438 C62.872 36.859 51.901 29.3 43.125 20.125 C42.468 19.385 41.81 18.645 41.133 17.883 C36.636 13.913 31.489 13.745 25.703 13.734 C24.691 13.732 24.691 13.732 23.658 13.729 C22.243 13.727 20.828 13.731 19.413 13.739 C17.242 13.75 15.073 13.739 12.902 13.727 C11.523 13.728 10.145 13.73 8.766 13.734 C7.516 13.737 6.265 13.739 4.978 13.741 C1.883 13.689 1.883 13.689 0 16 C0 10.72 0 5.44 0 0 Z " fill="#D24A61" transform="translate(482,477)"/>
<path d="M0 0 C0.495 2.475 0.495 2.475 1 5 C-2.77 6.418 -6.541 7.834 -10.312 9.25 C-11.365 9.646 -12.418 10.041 -13.502 10.449 C-15.63 11.248 -17.759 12.044 -19.889 12.838 C-21.871 13.578 -23.851 14.327 -25.826 15.086 C-32.452 17.591 -39.09 19.392 -46 20.938 C-47.104 21.189 -48.208 21.441 -49.346 21.7 C-61.031 24.315 -72.8 26.461 -84.594 28.523 C-89.058 29.396 -89.058 29.396 -91.938 32.875 C-92.618 33.906 -93.299 34.938 -94 36 C-96.652 38.841 -97.981 38.998 -101.938 39.5 C-105.453 39.382 -106.003 38.997 -108.938 36.625 C-111.907 32.846 -112.557 30.826 -112 26 C-110.187 23.071 -108.127 20.564 -105 19 C-102.25 18.688 -102.25 18.688 -99 19 C-98.154 19.681 -97.309 20.361 -96.438 21.062 C-84.596 27.737 -60.019 18.431 -47.688 15.062 C-44.119 14.062 -40.559 13.035 -37 12 C-35.872 11.681 -35.872 11.681 -34.722 11.355 C-25.833 8.836 -8.286 -2.486 0 0 Z " fill="#EB4959" transform="translate(332,524)"/>
<path d="M0 0 C3.912 2.436 5.658 3.975 7.125 8.375 C6.96 13.157 5.749 15.105 3 19 C2.01 19.66 1.02 20.32 0 21 C-1.007 23.901 -1.007 23.901 -1.684 27.379 C-1.824 28.018 -1.965 28.658 -2.109 29.316 C-2.564 31.396 -3.001 33.479 -3.438 35.562 C-3.897 37.705 -4.36 39.846 -4.824 41.987 C-5.128 43.396 -5.431 44.805 -5.732 46.214 C-6.684 50.642 -7.753 55.019 -8.918 59.394 C-11.912 70.811 -12.768 82.665 -8.668 93.906 C-7.671 97.031 -7.788 99.748 -8 103 C-9.98 103 -11.96 103 -14 103 C-19.75 82.542 -16.54 66.286 -11.802 45.889 C-8.444 33.556 -8.444 33.556 -8 21 C-9.113 19.254 -9.113 19.254 -10.5 17.562 C-12.99 14.371 -13.887 12.002 -13.617 7.934 C-11.756 2.103 -5.87 -1.374 0 0 Z " fill="#E64C5D" transform="translate(395,299)"/>
<path d="M0 0 C3.605 0.303 5.287 1.953 7.723 4.5 C8.42 5.218 9.118 5.936 9.837 6.676 C10.938 7.826 10.938 7.826 12.062 9 C18.421 15.49 24.725 21.536 32 27 C32.574 27.445 33.148 27.89 33.74 28.349 C35.605 29.793 37.487 31.212 39.375 32.625 C39.959 33.076 40.542 33.527 41.143 33.992 C43.804 35.932 45.416 37.021 48.762 36.902 C51.187 36.061 51.187 36.061 53.438 33.938 C56.597 31.548 58.122 31.505 62 32 C64.864 32.9 65.864 33.83 67.75 36.188 C69.341 39.768 69.486 42.115 69 46 C66.879 49.409 64.882 51.814 61 53 C55.834 53.656 55.834 53.656 53 53 C50.25 50.25 50.25 50.25 48 47 C45.191 43.925 42.256 41.733 38.75 39.5 C27.963 32.428 17.505 24.732 8 16 C7.134 15.236 6.267 14.471 5.375 13.684 C-1.745 7.383 -1.745 7.383 -4 4 C-2.25 1.938 -2.25 1.938 0 0 Z " fill="#D84D62" transform="translate(468,534)"/>
<path d="M0 0 C6.403 3.445 10.509 8.196 13.07 15.008 C14.501 22.966 12.336 29.609 7.945 36.195 C3.018 41.532 -2.61 44.294 -9.867 44.695 C-17.088 44.364 -22.67 41.506 -27.59 36.227 C-32.46 29.752 -33.88 23.975 -32.93 16.008 C-30.851 8.668 -25.379 3.829 -19.094 -0.156 C-13.222 -2.424 -5.881 -1.992 0 0 Z M-23.93 12.008 C-26.87 16.418 -27.494 19.742 -26.93 25.008 C-24.888 30.892 -20.479 35.233 -14.93 38.008 C-9.254 38.598 -4.741 38.322 0.07 35.008 C4.494 30.615 7.173 27.103 7.383 20.695 C7.323 16.066 6.136 13.571 3.07 10.008 C-2.066 5.373 -6.281 4.477 -13.066 4.531 C-18.019 5.356 -20.815 8.237 -23.93 12.008 Z " fill="#323A5F" transform="translate(611.9296875,562.9921875)"/>
<path d="M0 0 C1.65 0 3.3 0 5 0 C5.496 1.039 5.993 2.078 6.504 3.148 C15.828 22.408 30.914 45.106 51.562 53.438 C54.978 54.99 56.869 55.931 59 59 C59.489 62.843 59.356 65.216 57.75 68.75 C54.874 72.448 53.315 73.833 48.562 74.438 C44.449 73.932 42.895 72.895 40 70 C38.491 66.981 38.825 64.327 39 61 C39.66 60.01 40.32 59.02 41 58 C40.526 53.295 37.1 50.961 33.75 48 C33.176 47.479 32.603 46.958 32.012 46.422 C29.487 44.145 26.94 41.952 24.277 39.836 C13.909 31.477 3.294 16.552 -1 4 C-0.645 1.664 -0.645 1.664 0 0 Z " fill="#E04C5F" transform="translate(434,561)"/>
<path d="M0 0 C4.781 1.721 8.731 4.345 11 9 C11.781 13.598 11.596 17.557 9.812 21.875 C6.935 25.248 3.633 28.568 -0.883 29.309 C-6.708 29.643 -9.956 28.424 -14.402 24.641 C-17.51 21.45 -17.902 18.901 -18.375 14.562 C-17.802 9.116 -15.413 6.245 -11.375 2.688 C-7.365 -0.161 -4.95 -0.33 0 0 Z " fill="#CFBA97" transform="translate(560,542)"/>
<path d="M0 0 C5.287 3.799 9.341 8.354 10.645 14.871 C11.36 20.707 11.53 25.425 7.957 30.309 C3.327 35.611 -1.096 39.27 -8.305 40.094 C-13.069 40.302 -16.205 39.402 -20.355 36.871 C-20.685 36.541 -21.015 36.211 -21.355 35.871 C-21.685 37.851 -22.015 39.831 -22.355 41.871 C-22.685 41.871 -23.015 41.871 -23.355 41.871 C-23.685 37.911 -24.015 33.951 -24.355 29.871 C-25.345 29.541 -26.335 29.211 -27.355 28.871 C-30.634 23.953 -30.129 18.606 -29.355 12.871 C-27.858 9.622 -25.922 7.338 -23.355 4.871 C-22.83 4.357 -22.304 3.842 -21.762 3.312 C-16.06 -1.822 -7.08 -3.393 0 0 Z M-21.668 11.496 C-24.517 15.506 -24.685 17.921 -24.355 22.871 C-22.771 27.532 -20.439 30.303 -16.383 32.953 C-12.705 34.618 -9.279 34.657 -5.355 33.871 C-0.711 31.377 2.958 28.93 4.645 23.871 C5.234 19.606 5.585 15.6 3.48 11.73 C-0.388 7.009 -3.698 5.161 -9.793 4.496 C-15.24 5.069 -18.111 7.458 -21.668 11.496 Z " fill="#333D60" transform="translate(566.35546875,537.12890625)"/>
<path d="M0 0 C3.283 1.142 3.972 2.207 5.875 5 C5.321 5.615 4.766 6.23 4.195 6.863 C3.471 7.672 2.746 8.48 2 9.312 C0.921 10.513 0.921 10.513 -0.18 11.738 C-2.241 14.042 -2.241 14.042 -4.125 17 C-5.208 16.474 -5.208 16.474 -6.312 15.938 C-11.408 14.239 -15.778 16.52 -20.625 18.375 C-21.29 18.628 -21.955 18.882 -22.64 19.143 C-24.203 19.738 -25.766 20.335 -27.328 20.933 C-30.581 22.174 -33.839 23.404 -37.098 24.633 C-38.988 25.347 -40.878 26.061 -42.767 26.775 C-44.047 27.258 -45.327 27.741 -46.606 28.223 C-55.444 31.549 -55.444 31.549 -64.188 35.113 C-65.232 35.554 -65.232 35.554 -66.299 36.004 C-68.029 36.745 -69.752 37.506 -71.473 38.27 C-74.125 39 -74.125 39 -76.371 38.324 C-78.125 37 -78.125 37 -80.125 34 C-80.125 33.01 -80.125 32.02 -80.125 31 C-76.435 29.901 -72.771 28.9 -69.004 28.102 C-56.157 25.272 -43.629 21.463 -31.5 16.383 C-25.417 13.891 -19.157 11.89 -12.852 10.039 C-11.952 9.696 -11.052 9.353 -10.125 9 C-9.019 6.609 -9.019 6.609 -8.125 4 C-5.341 1.061 -4.095 0 0 0 Z " fill="#D64859" transform="translate(554.125,402)"/>
<path d="M0 0 C2.97 0 5.94 0 9 0 C9.039 1.441 9.039 1.441 9.078 2.91 C9.913 25.53 14.64 45.829 25 66 C18.871 64.95 13.78 60.8 10 56 C6.902 50.423 5.458 44.164 4 38 C3.793 37.142 3.585 36.284 3.372 35.4 C0.589 23.514 -0.575 12.188 0 0 Z " fill="#F3F6F7" transform="translate(492,497)"/>
<path d="M0 0 C2.5 1.562 2.5 1.562 4 4 C4.62 8.261 4.493 10.244 2.125 13.875 C0 16 0 16 -2 17 C-3.519 20.856 -4.364 24.594 -4.938 28.688 C-5.102 29.813 -5.268 30.938 -5.438 32.098 C-5.623 33.385 -5.809 34.673 -6 36 C-8.989 56.498 -8.989 56.498 -12 66 C-13.98 66 -15.96 66 -18 66 C-17.394 59.99 -16.544 54.126 -15.371 48.203 C-15.055 46.569 -14.74 44.935 -14.424 43.301 C-13.929 40.764 -13.433 38.227 -12.936 35.691 C-12.452 33.217 -11.974 30.741 -11.496 28.266 C-11.346 27.51 -11.196 26.755 -11.042 25.977 C-10.332 22.288 -9.658 18.759 -10 15 C-10.773 14.072 -10.773 14.072 -11.562 13.125 C-13 11 -13 11 -12.938 7.5 C-11.032 0.386 -6.941 -1.38 0 0 Z " fill="#EDBF58" transform="translate(696,274)"/>
<path d="M0 0 C2.5 1.5 2.5 1.5 4 4 C4.673 8.286 4.462 11.307 2 15 C1.584 26.118 3.691 37.279 5.627 48.18 C6.677 54.227 7.198 59.862 7 66 C5.02 66 3.04 66 1 66 C-0.759 55.42 -2.339 44.828 -3.688 34.188 C-3.819 33.168 -3.95 32.149 -4.085 31.1 C-4.672 26.371 -5.17 21.777 -5 17 C-5.598 16.918 -6.196 16.835 -6.812 16.75 C-9.797 15.727 -10.558 14.813 -12 12 C-12.684 7.984 -12.617 5.028 -10.5 1.5 C-6.964 -0.622 -4.021 -0.791 0 0 Z " fill="#CFBC98" transform="translate(624,273)"/>
<path d="M0 0 C11.223 4.752 18.039 18.929 22.609 29.68 C26 38.232 26 38.232 26 42 C22.142 43.815 19.233 44.094 15 44 C14.72 43.201 14.441 42.402 14.152 41.578 C9.433 28.65 2.977 18.341 -6 8 C-4.589 4.117 -3.536 2.239 0 0 Z " fill="#F9FCFB" transform="translate(744,422)"/>
<path d="M0 0 C1.98 0 3.96 0 6 0 C4.069 25.547 4.069 25.547 2.61 37.251 C1.251 44.998 1.251 44.998 3.5 52 C5.788 55.05 5.455 57.295 5 61 C3.5 63.938 3.5 63.938 1 66 C-1.826 66.712 -4.174 66.712 -7 66 C-10.25 63.319 -10.896 61.649 -11.562 57.5 C-11 54 -11 54 -8.566 52.094 C-4.233 47.986 -4.788 41.592 -4.375 36 C-4.15 33.484 -3.922 30.968 -3.691 28.453 C-3.581 27.202 -3.47 25.951 -3.356 24.662 C-2.838 19.333 -2.102 14.045 -1.312 8.75 C-1.115 7.412 -1.115 7.412 -0.914 6.047 C-0.613 4.031 -0.308 2.015 0 0 Z " fill="#EDC060" transform="translate(623,663)"/>
<path d="M0 0 C1.98 0 3.96 0 6 0 C6.262 1.14 6.524 2.279 6.794 3.453 C7.774 7.71 8.755 11.967 9.735 16.223 C10.158 18.06 10.581 19.897 11.004 21.734 C11.614 24.385 12.225 27.036 12.836 29.688 C13.022 30.499 13.209 31.311 13.401 32.147 C13.757 33.691 14.117 35.234 14.482 36.776 C14.833 38.285 15.169 39.797 15.492 41.312 C15.918 43.226 16.451 45.117 17 47 C19.429 48.389 19.429 48.389 22 49 C24.5 52.75 24.536 54.559 24 59 C21.938 61.938 21.938 61.938 19 64 C15.074 64.62 12.999 64.589 9.562 62.562 C7.29 58.836 7.472 55.27 8 51 C8.495 50.505 8.495 50.505 9 50 C9.26 44.489 8.714 39.938 7.285 34.57 C7.11 33.895 6.935 33.22 6.754 32.524 C6.199 30.389 5.632 28.257 5.062 26.125 C2.749 17.435 0.556 9.021 0 0 Z " fill="#F4F4F6" transform="translate(677,662)"/>
<path d="M0 0 C4.107 0.856 5.554 2.244 8 5.625 C8.625 9.125 8.625 9.125 8 12.625 C4.277 17.382 4.277 17.382 0.977 18.01 C-1.134 18.454 -1.134 18.454 -2.278 20.34 C-2.642 21.084 -3.007 21.828 -3.382 22.594 C-3.802 23.435 -4.222 24.276 -4.655 25.142 C-5.094 26.055 -5.532 26.969 -5.984 27.91 C-6.445 28.841 -6.905 29.772 -7.38 30.731 C-8.85 33.71 -10.3 36.698 -11.75 39.688 C-12.742 41.707 -13.736 43.726 -14.73 45.744 C-17.168 50.697 -19.59 55.658 -22 60.625 C-24.438 60.25 -24.438 60.25 -27 59.625 C-27.33 58.965 -27.66 58.305 -28 57.625 C-26.75 54.781 -25.432 52.051 -24.012 49.293 C-23.593 48.464 -23.175 47.635 -22.744 46.782 C-21.399 44.121 -20.044 41.467 -18.688 38.812 C-17.344 36.168 -16.003 33.522 -14.663 30.876 C-13.828 29.227 -12.99 27.58 -12.149 25.934 C-10.259 22.217 -8.454 18.541 -7 14.625 C-7.33 14.295 -7.66 13.965 -8 13.625 C-8.701 6.615 -8.701 6.615 -5.875 2.625 C-3 0.625 -3 0.625 0 0 Z " fill="#F2F3F5" transform="translate(750,293.375)"/>
<path d="M0 0 C6.134 1.257 12.05 2.868 18 4.812 C26.958 7.694 35.962 10.385 45 13 C45 12.34 45 11.68 45 11 C48.518 8.655 49.858 8.42 54 9 C57.635 11.608 58.834 13.07 59.625 17.5 C58.829 21.959 57.692 23.408 54 26 C50.5 26.625 50.5 26.625 47 26 C44.062 23.625 44.062 23.625 42 21 C42 20.34 42 19.68 42 19 C36.102 17.211 30.193 15.476 24.26 13.805 C15.762 11.41 7.331 8.932 -1 6 C-0.67 4.02 -0.34 2.04 0 0 Z " fill="#F4F4F6" transform="translate(800,569)"/>
<path d="M0 0 C2.5 1.625 2.5 1.625 4 4 C4.078 8.309 3.441 10.404 0.875 13.875 C-2 16 -2 16 -5.383 16.328 C-9.864 17.161 -10.882 18.401 -13.75 21.875 C-14.673 22.955 -15.602 24.03 -16.535 25.102 C-17.063 25.708 -17.59 26.314 -18.133 26.938 C-21.99 31.197 -26.11 35.205 -30.188 39.25 C-31.05 40.108 -31.913 40.967 -32.802 41.851 C-34.866 43.903 -36.932 45.953 -39 48 C-40.32 47.01 -41.64 46.02 -43 45 C-41.459 41.287 -39.192 39.019 -36.312 36.25 C-32.656 32.672 -29.224 29.038 -25.934 25.125 C-23.948 22.943 -21.814 20.977 -19.645 18.98 C-14.111 14.015 -14.111 14.015 -12.125 7.062 C-12.13 6.344 -12.135 5.626 -12.141 4.887 C-12 3 -12 3 -9.875 0.375 C-6.051 -1.454 -4.039 -1.175 0 0 Z " fill="#E6C067" transform="translate(805,335)"/>
<path d="M0 0 C2.5 0.312 2.5 0.312 5 1 C5.495 1.99 5.495 1.99 6 3 C4.784 5.781 3.501 8.455 2.125 11.156 C1.296 12.835 0.468 14.515 -0.359 16.195 C-1.673 18.842 -2.993 21.485 -4.33 24.12 C-5.617 26.664 -6.873 29.221 -8.125 31.781 C-8.527 32.555 -8.929 33.328 -9.343 34.125 C-11.882 39.385 -12.242 43.029 -11.16 48.783 C-10.967 51.462 -11.424 52.479 -13 54.625 C-16 57 -16 57 -19.562 57.625 C-23 57 -23 57 -25.438 55.562 C-27.746 51.777 -27.927 48.316 -27 44 C-24.75 41.438 -24.75 41.438 -22 40 C-20.68 40 -19.36 40 -18 40 C-17.741 39.17 -17.482 38.34 -17.215 37.486 C-15.867 33.62 -14.26 29.95 -12.559 26.23 C-12.231 25.509 -11.903 24.787 -11.565 24.044 C-10.877 22.53 -10.187 21.016 -9.495 19.503 C-8.434 17.179 -7.378 14.852 -6.322 12.525 C-5.651 11.052 -4.98 9.579 -4.309 8.105 C-3.992 7.408 -3.675 6.71 -3.349 5.991 C-1.115 1.115 -1.115 1.115 0 0 Z " fill="#F4F5F7" transform="translate(576,647)"/>
<path d="M0 0 C2.875 1.438 2.875 1.438 5 4 C5.589 7.081 5.678 9.932 5 13 C3.499 15.012 2.488 15.842 0.098 16.617 C-4.678 17.222 -6.135 16.928 -10 14 C-18.372 13.487 -26.6 14.862 -34.875 16 C-36.995 16.287 -39.115 16.573 -41.235 16.856 C-43.142 17.112 -45.049 17.372 -46.957 17.633 C-50 18 -50 18 -53 18 C-53 15.69 -53 13.38 -53 11 C-47.983 10.426 -42.966 9.857 -37.949 9.291 C-36.244 9.098 -34.538 8.904 -32.833 8.709 C-30.376 8.428 -27.919 8.151 -25.461 7.875 C-24.326 7.744 -24.326 7.744 -23.169 7.61 C-19.088 7.156 -15.114 6.909 -11 7 C-10.732 6.402 -10.464 5.804 -10.188 5.188 C-7.582 0.388 -5.581 -0.781 0 0 Z " fill="#CFB992" transform="translate(868,470)"/>
<path d="M0 0 C2.375 1.562 2.375 1.562 4 4 C4.712 8.35 4.532 10.235 2 13.875 C-0.963 15.974 -1.784 16.284 -5.188 16.562 C-6.446 16.707 -7.704 16.851 -9 17 C-10.032 18.775 -10.032 18.775 -11 21 C-12.451 22.732 -13.935 24.437 -15.438 26.125 C-25.823 38.253 -33.108 52.245 -39 67 C-39.391 67.973 -39.781 68.946 -40.184 69.949 C-40.453 70.626 -40.722 71.303 -41 72 C-41.99 71.34 -42.98 70.68 -44 70 C-43.496 64.569 -42.038 60.345 -39.5 55.5 C-38.969 54.467 -38.969 54.467 -38.428 53.414 C-25.712 29.012 -25.712 29.012 -15.805 20.004 C-13.716 17.684 -13.518 16.687 -13.438 13.625 C-13.069 8.534 -11.804 4.866 -8.188 1.125 C-5.208 -0.407 -3.307 -0.482 0 0 Z " fill="#E04657" transform="translate(568,412)"/>
<path d="M0 0 C3.853 0.116 5.681 1.404 8.27 4.062 C9.461 5.365 10.642 6.678 11.812 8 C12.433 8.677 13.053 9.354 13.692 10.051 C16.355 12.971 18.932 15.916 21.41 18.996 C24.529 23.263 24.529 23.263 29.082 25.398 C31.058 25.318 33.029 25.162 35 25 C37.938 26.562 37.938 26.562 40 29 C40.936 32.495 41.374 34.846 40.25 38.312 C39 40 39 40 36 42 C32.277 42.406 29.954 42.61 26.75 40.562 C25.065 38.096 24.674 36.813 24 34 C22.007 27.281 16.388 23.039 11.439 18.39 C8.939 15.975 6.72 13.334 4.469 10.691 C2.424 8.337 0.238 6.17 -2 4 C-1.34 2.68 -0.68 1.36 0 0 Z " fill="#D1BB92" transform="translate(751,630)"/>
<path d="M0 0 C2.192 0.341 2.192 0.341 4 1 C4 5.846 2.42 7.232 -0.75 10.5 C-1.236 11.021 -1.723 11.542 -2.224 12.079 C-4.851 14.867 -7.551 17.541 -10.367 20.137 C-17.142 25.894 -17.142 25.894 -19.938 33.938 C-19.923 34.646 -19.909 35.355 -19.895 36.086 C-20 38 -20 38 -22.125 41.062 C-25.804 43.542 -27.645 43.778 -32 43 C-35 40.938 -35 40.938 -37 38 C-37.069 34.06 -36.601 31.879 -34.375 28.625 C-32 27 -32 27 -28.668 26.723 C-24.071 25.817 -22.905 24.373 -19.938 20.812 C-19 19.729 -18.06 18.649 -17.117 17.57 C-16.621 16.996 -16.124 16.421 -15.612 15.829 C-12.694 12.519 -9.643 9.346 -6.562 6.188 C-5.971 5.559 -5.38 4.93 -4.771 4.282 C-3.066 2.543 -3.066 2.543 0 0 Z " fill="#CEBD9D" transform="translate(535,619)"/>
<path d="M0 0 C4.079 2.944 6.801 6.19 9.5 10.375 C9.92 11.013 10.34 11.651 10.773 12.308 C14.579 18.167 18.058 24.208 21.562 30.25 C26.155 38.144 30.822 45.242 37 52 C37.768 52.874 38.537 53.748 39.328 54.648 C41.204 56.78 43.094 58.896 45 61 C44.67 61.99 44.34 62.98 44 64 C41.438 65.188 41.438 65.188 39 66 C28.79 55.418 21.606 42.544 14.489 29.792 C10.985 23.563 7.228 17.606 2.945 11.881 C0.043 7.81 -0.426 4.945 0 0 Z " fill="#D74B61" transform="translate(313,351)"/>
<path d="M0 0 C4.034 0.84 5.451 2.439 8 5.625 C8.27 6.437 8.54 7.249 8.818 8.085 C10.354 11.386 12.022 12.267 15.156 14.07 C16.178 14.672 17.201 15.274 18.254 15.895 C19.325 16.507 20.396 17.119 21.5 17.75 C23.618 18.976 25.733 20.207 27.844 21.445 C28.784 21.984 29.724 22.523 30.693 23.079 C33 24.625 33 24.625 35 27.625 C33.68 28.945 32.36 30.265 31 31.625 C30.324 31.206 29.648 30.787 28.952 30.356 C25.888 28.461 22.819 26.574 19.75 24.688 C18.687 24.028 17.623 23.369 16.527 22.689 C15.503 22.061 14.478 21.433 13.422 20.785 C12.479 20.204 11.537 19.623 10.565 19.024 C6.687 16.909 4.92 16.424 0.562 17.375 C-3 17.625 -3 17.625 -5.938 15.625 C-8.517 11.873 -8.798 10.093 -8 5.625 C-5.554 2.244 -4.107 0.856 0 0 Z " fill="#CEBC99" transform="translate(478,384.375)"/>
<path d="M0 0 C2.868 2.014 4.616 3.454 5.48 6.934 C5.771 11.081 5.311 12.615 2.625 15.938 C-1.439 19.13 -3.798 19.529 -9 19 C-9.701 18.196 -10.403 17.391 -11.125 16.562 C-15.167 12.96 -18.67 13.354 -23.941 13.238 C-27.741 12.942 -29.847 11.947 -32.75 9.562 C-34 8 -34 8 -34 5 C-31.237 5.523 -28.674 6.109 -26 7 C-21.759 7.736 -18.378 7.916 -14.703 5.473 C-13.31 4.23 -11.949 2.949 -10.629 1.629 C-7.195 -1.805 -4.559 -1.082 0 0 Z " fill="#E44A5C" transform="translate(578,501)"/>
<path d="M0 0 C0.495 2.475 0.495 2.475 1 5 C-2.77 6.418 -6.541 7.834 -10.312 9.25 C-11.365 9.646 -12.418 10.041 -13.502 10.449 C-15.632 11.249 -17.762 12.045 -19.894 12.839 C-21.861 13.574 -23.824 14.319 -25.782 15.077 C-32.815 17.752 -39.91 19.556 -47.25 21.188 C-48.948 21.577 -48.948 21.577 -50.68 21.975 C-56.105 23.204 -61.476 24.337 -67 25 C-67 23.68 -67 22.36 -67 21 C-67.66 20.67 -68.32 20.34 -69 20 C-68.328 19.855 -67.655 19.71 -66.962 19.56 C-45.852 14.961 -25.319 9.883 -6 0 C-3.509 -1.245 -2.589 -0.777 0 0 Z " fill="#D4475B" transform="translate(332,524)"/>
<path d="M0 0 C0.495 2.475 0.495 2.475 1 5 C0.175 5.014 -0.65 5.028 -1.5 5.043 C-11.246 5.445 -23.411 6.449 -31.273 12.852 C-33.066 14.898 -33.066 14.898 -35 18 C-38.129 19.564 -40.556 19.356 -44 19 C-47.225 16.272 -47.913 14.621 -48.5 10.438 C-48 7 -48 7 -46.438 4.562 C-43.116 2.433 -40.873 2.577 -37 3 C-36.01 3.66 -35.02 4.32 -34 5 C-28.525 5.652 -24.059 3.832 -19 2 C-12.611 -0.29 -6.702 -0.198 0 0 Z " fill="#EF4A59" transform="translate(253,461)"/>
<path d="M0 0 C2.864 0.9 3.864 1.83 5.75 4.188 C7.341 7.768 7.486 10.115 7 14 C4.879 17.409 2.882 19.814 -1 21 C-6.143 21.653 -6.143 21.653 -9 21 C-12.382 17.839 -14.894 14.546 -16 10 C-15.34 9.01 -14.68 8.02 -14 7 C-13.34 7 -12.68 7 -12 7 C-11.753 6.402 -11.505 5.804 -11.25 5.188 C-8.48 0.34 -5.438 -0.566 0 0 Z " fill="#E94A5C" transform="translate(530,566)"/>
<path d="M0 0 C-0.392 1.176 -0.784 2.351 -1.188 3.562 C-1.461 4.389 -1.734 5.215 -2.016 6.066 C-2.719 8.163 -3.44 10.253 -4.172 12.34 C-7.434 21.773 -9.865 31.253 -12 41 C-14.64 41 -17.28 41 -20 41 C-20.331 34.398 -19.196 28.937 -17.312 22.625 C-17.039 21.699 -16.766 20.773 -16.484 19.819 C-12.361 6.226 -12.361 6.226 -9 2 C-5.639 0.252 -3.742 0 0 0 Z " fill="#F2F5F7" transform="translate(514,435)"/>
<path d="M0 0 C3.853 0.062 4.525 0.306 7.688 2.875 C8.347 3.721 9.008 4.566 9.688 5.438 C10.018 5.767 10.347 6.098 10.688 6.438 C11.082 10.539 11.138 12.739 8.875 16.25 C5.874 19.251 4.42 20.397 0.113 20.633 C-1.258 20.62 -2.629 20.596 -4 20.562 C-4.702 20.553 -5.404 20.544 -6.127 20.535 C-7.856 20.512 -9.584 20.476 -11.312 20.438 C-11.144 19.857 -10.975 19.277 -10.801 18.68 C-10.156 16.188 -10.156 16.188 -10.5 12.562 C-10.573 8.2 -9.066 5.839 -6.312 2.438 C-3.942 0.067 -3.249 0.093 0 0 Z " fill="#EA4858" transform="translate(521.3125,319.5625)"/>
<path d="M0 0 C3.107 0.652 3.107 0.652 5.438 -0.25 C6.335 -0.405 6.335 -0.405 7.25 -0.562 C9.5 1.375 9.5 1.375 11.25 3.438 C4.625 6.438 4.625 6.438 1.25 6.438 C1.157 7.551 1.157 7.551 1.062 8.688 C-0.038 12.413 -1.422 13.484 -4.75 15.438 C-8.679 15.989 -10.786 16.031 -14.188 13.938 C-16.391 10.412 -16.547 7.487 -15.75 3.438 C-12.179 -2.515 -5.952 -0.893 0 0 Z " fill="#D2BD99" transform="translate(484.75,568.5625)"/>
<path d="M0 0 C0.99 0.99 1.98 1.98 3 3 C2.406 3.657 1.811 4.315 1.199 4.992 C-10.271 18.157 -18.542 32.826 -25 49 C-25.586 50.46 -25.586 50.46 -26.184 51.949 C-26.453 52.626 -26.722 53.303 -27 54 C-27.99 53.34 -28.98 52.68 -30 52 C-29.496 46.569 -28.038 42.345 -25.5 37.5 C-24.969 36.467 -24.969 36.467 -24.428 35.414 C-17.712 22.526 -10.468 10.237 0 0 Z " fill="#BA4B5E" transform="translate(554,430)"/>
<path d="M0 0 C0.66 0.66 1.32 1.32 2 2 C3.32 2 4.64 2 6 2 C6.33 1.34 6.66 0.68 7 0 C7 0.66 7 1.32 7 2 C7.784 2.268 8.567 2.536 9.375 2.812 C12 4 12 4 14 7 C14.566 11.363 14.493 13.298 11.938 16.938 C8.259 19.52 6.408 19.721 2 19 C-0.438 17.562 -0.438 17.562 -2 15 C-2.799 9.667 -2.047 4.99 0 0 Z " fill="#D1BE9C" transform="translate(687,707)"/>
<path d="M0 0 C1.668 1.43 1.668 1.43 2.668 4.43 C1.88 4.903 1.093 5.376 0.281 5.863 C-6.851 10.193 -13.713 14.73 -20.457 19.645 C-23.245 21.376 -25.077 22.206 -28.332 22.43 C-30.645 20.992 -30.645 20.992 -32.332 19.43 C-31.132 15.829 -29.881 15.432 -26.62 13.777 C-25.642 13.296 -25.642 13.296 -24.645 12.805 C-18.403 9.645 -12.579 6.141 -6.902 2.048 C-2.884 -0.705 -2.884 -0.705 0 0 Z " fill="#EABE60" transform="translate(508.33203125,583.5703125)"/>
<path d="M0 0 C4.18 0.768 5.588 2.141 8.062 5.562 C8.688 9.062 8.688 9.062 8.062 12.562 C5.47 16.254 4.021 17.391 -0.438 18.188 C-4.775 17.413 -6.249 15.984 -8.938 12.562 C-8.938 11.903 -8.938 11.242 -8.938 10.562 C-9.597 10.232 -10.258 9.903 -10.938 9.562 C-9.947 9.562 -8.957 9.562 -7.938 9.562 C-7.814 8.449 -7.814 8.449 -7.688 7.312 C-6.468 2.84 -4.578 0.877 0 0 Z " fill="#CDB997" transform="translate(850.9375,577.4375)"/>
<path d="M0 0 C3.853 0.116 5.681 1.404 8.27 4.062 C9.462 5.365 10.642 6.678 11.812 8 C12.427 8.677 13.041 9.354 13.674 10.051 C15.461 12.024 17.232 14.01 19 16 C19.897 16.999 20.794 17.998 21.691 18.996 C23.473 20.988 25.243 22.987 27 25 C26.34 26.32 25.68 27.64 25 29 C22 29 22 29 19.328 26.656 C18.294 25.612 17.268 24.56 16.25 23.5 C15.446 22.68 15.446 22.68 14.627 21.844 C11.114 18.233 7.736 14.527 4.469 10.691 C2.424 8.337 0.238 6.17 -2 4 C-1.34 2.68 -0.68 1.36 0 0 Z " fill="#E6BD66" transform="translate(751,630)"/>
<path d="M0 0 C4.782 5.88 9.198 12.021 13.649 18.152 C14.854 19.8 16.08 21.432 17.309 23.062 C17.949 23.929 18.59 24.795 19.25 25.688 C19.812 26.434 20.374 27.18 20.953 27.949 C22 30 22 30 21.859 32.207 C21.576 32.799 21.292 33.39 21 34 C19.515 34.495 19.515 34.495 18 35 C11.941 27.829 6.361 20.451 0.969 12.773 C-0.736 10.209 -0.736 10.209 -2 9 C-1.302 2.605 -1.302 2.605 0 0 Z " fill="#CDBC9F" transform="translate(538,332)"/>
<path d="M0 0 C2.5 1.625 2.5 1.625 4 4 C4.078 8.271 3.43 10.4 0.938 13.875 C-2.891 16.644 -5.33 16.763 -10 17 C-10.124 16.361 -10.247 15.721 -10.375 15.062 C-10.581 14.382 -10.788 13.701 -11 13 C-11.66 12.67 -12.32 12.34 -13 12 C-12.812 4.003 -12.812 4.003 -9.875 0.375 C-6.051 -1.454 -4.039 -1.175 0 0 Z " fill="#D1BC94" transform="translate(805,335)"/>
<path d="M0 0 C4.107 0.856 5.554 2.244 8 5.625 C8.625 9.125 8.625 9.125 8 12.625 C5.593 15.789 4.023 17.33 0.188 18.438 C-0.534 18.499 -1.256 18.561 -2 18.625 C-2 17.965 -2 17.305 -2 16.625 C-2.804 16.316 -3.609 16.006 -4.438 15.688 C-7 14.625 -7 14.625 -8 13.625 C-8.701 6.615 -8.701 6.615 -5.875 2.625 C-3 0.625 -3 0.625 0 0 Z " fill="#CFBD9C" transform="translate(750,293.375)"/>
<path d="M0 0 C0.66 0.99 1.32 1.98 2 3 C2.99 3.33 3.98 3.66 5 4 C7.361 7.541 7.573 8.828 7 13 C4.938 16.375 4.938 16.375 2 19 C-1.957 19.694 -3.971 19.607 -7.438 17.562 C-9.746 13.777 -9.927 10.316 -9 6 C-6.75 3.438 -6.75 3.438 -4 2 C-2.68 2 -1.36 2 0 2 C0 1.34 0 0.68 0 0 Z " fill="#D0BD9D" transform="translate(558,685)"/>
<path d="M0 0 C1.051 0.018 2.101 0.036 3.184 0.055 C3.969 0.078 4.754 0.101 5.562 0.125 C6.058 2.6 6.058 2.6 6.562 5.125 C5.738 5.139 4.912 5.153 4.062 5.168 C-6.117 5.588 -16.237 7.525 -25.438 12.125 C-26.097 10.145 -26.757 8.165 -27.438 6.125 C-22.771 4.792 -18.104 3.458 -13.438 2.125 C-12.262 1.754 -11.086 1.382 -9.875 1 C-6.422 0.121 -3.551 -0.08 0 0 Z " fill="#D34959" transform="translate(247.4375,460.875)"/>
<path d="M0 0 C-1.148 7.099 -3.115 13.417 -6 20 C-7.42 17.186 -8.802 14.361 -10.125 11.5 C-10.478 10.747 -10.831 9.994 -11.195 9.219 C-12 7 -12 7 -12 3 C-10.376 2.497 -8.751 1.997 -7.125 1.5 C-6.22 1.222 -5.315 0.943 -4.383 0.656 C-2 0 -2 0 0 0 Z " fill="#384971" transform="translate(494,442)"/>
<path d="M0 0 C2.75 0.125 2.75 0.125 6 1 C8.792 4.079 9.977 5.877 10.062 10.062 C8.741 13.715 6.97 15.537 4 18 C3.34 18 2.68 18 2 18 C2.023 17.12 2.046 16.239 2.07 15.332 C2.088 14.171 2.106 13.009 2.125 11.812 C2.148 10.664 2.171 9.515 2.195 8.332 C2.005 5.083 1.394 2.913 0 0 Z " fill="#B3A595" transform="translate(575,409)"/>
<path d="M0 0 C0.66 0.33 1.32 0.66 2 1 C0.35 2.98 -1.3 4.96 -3 7 C-2.34 7 -1.68 7 -1 7 C-0.879 7.687 -0.758 8.374 -0.633 9.082 C-0.465 9.983 -0.298 10.884 -0.125 11.812 C0.037 12.706 0.2 13.599 0.367 14.52 C0.912 17.227 0.912 17.227 3 20 C2.67 20.99 2.34 21.98 2 23 C-1.015 22.104 -2.718 21.321 -4.812 18.938 C-6.456 14.871 -6.707 11.327 -6 7 C-3.073 1.537 -3.073 1.537 0 0 Z " fill="#2B304F" transform="translate(206,460)"/>
<path d="M0 0 C0.66 0 1.32 0 2 0 C1.354 3.948 0.14 7.329 -1.438 11 C-2.998 14.653 -4.54 18.306 -6 22 C-6.99 21.34 -7.98 20.68 -9 20 C-8.404 14.162 -7.623 8.16 -2.875 4.25 C-2.256 3.837 -1.638 3.425 -1 3 C-0.67 2.01 -0.34 1.02 0 0 Z " fill="#CC545F" transform="translate(533,462)"/>
<path d="M0 0 C0.33 0 0.66 0 1 0 C1.133 0.88 1.266 1.761 1.402 2.668 C1.579 3.829 1.756 4.991 1.938 6.188 C2.112 7.336 2.286 8.485 2.465 9.668 C2.914 12.463 3.421 15.229 4 18 C1.562 17.062 1.562 17.062 -1 15 C-2.657 9.72 -2.207 5.063 0 0 Z " fill="#6DC1BB" transform="translate(535,477)"/>
<path d="M0 0 C0.66 0.66 1.32 1.32 2 2 C0.904 3.963 -0.202 5.92 -1.312 7.875 C-1.927 8.966 -2.542 10.056 -3.176 11.18 C-5 14 -5 14 -8 16 C-6.43 10.033 -3.25 5.171 0 0 Z " fill="#593354" transform="translate(542,451)"/>
<path d="M0 0 C-0.99 0.66 -1.98 1.32 -3 2 C-2.01 3.485 -2.01 3.485 -1 5 C-1.699 4.988 -2.397 4.977 -3.117 4.965 C-4.027 4.956 -4.937 4.947 -5.875 4.938 C-6.78 4.926 -7.685 4.914 -8.617 4.902 C-11.017 4.838 -11.017 4.838 -13 6 C-13.66 5.34 -14.32 4.68 -15 4 C-12.879 3.137 -10.753 2.284 -8.625 1.438 C-6.85 0.724 -6.85 0.724 -5.039 -0.004 C-2 -1 -2 -1 0 0 Z " fill="#B14158" transform="translate(528,418)"/>
<path d="M0 0 C0.66 0.33 1.32 0.66 2 1 C1.67 1.66 1.34 2.32 1 3 C1.66 3.66 2.32 4.32 3 5 C1.02 5.66 -0.96 6.32 -3 7 C-3 6.34 -3 5.68 -3 5 C-4.98 5 -6.96 5 -9 5 C-6.066 3.044 -3.218 1.438 0 0 Z " fill="#BF4557" transform="translate(539,412)"/>
<path d="M0 0 C0.99 0.33 1.98 0.66 3 1 C1.793 2.052 1.793 2.052 0.562 3.125 C-2.234 6.263 -2.713 7.888 -3 12 C-3.66 12 -4.32 12 -5 12 C-5.353 9.032 -5.542 6.844 -3.887 4.266 C-2.645 2.797 -1.327 1.393 0 0 Z " fill="#E25360" transform="translate(225,544)"/>
<path d="M0 0 C0.66 0.33 1.32 0.66 2 1 C0.403 2.819 -1.202 4.63 -2.812 6.438 C-3.264 6.954 -3.716 7.47 -4.182 8.002 C-6.43 10.513 -7.745 11.915 -11 13 C-9.464 9.319 -7.218 7.012 -4.375 4.25 C-3.558 3.451 -2.74 2.652 -1.898 1.828 C-0.959 0.923 -0.959 0.923 0 0 Z " fill="#ECC15C" transform="translate(773,367)"/>
<path d="M0 0 C0.33 0 0.66 0 1 0 C1.433 1.64 1.433 1.64 1.875 3.312 C2.819 7.04 2.819 7.04 5 10 C4.34 10.66 3.68 11.32 3 12 C0.938 10.5 0.938 10.5 -1 8 C-1.059 5.176 -0.56 2.798 0 0 Z " fill="#413551" transform="translate(204,470)"/>
<path d="M0 0 C1.32 0.66 2.64 1.32 4 2 C2.026 4.523 1.033 4.993 -2.188 5.688 C-3.58 5.842 -3.58 5.842 -5 6 C-3.35 4.02 -1.7 2.04 0 0 Z " fill="#84D2D0" transform="translate(558,441)"/>
<path d="M0 0 C0.66 1.32 1.32 2.64 2 4 C0.737 5.176 -0.535 6.34 -1.812 7.5 C-2.52 8.15 -3.228 8.799 -3.957 9.469 C-6 11 -6 11 -9 11 C-8.518 10.457 -8.036 9.915 -7.539 9.355 C-6.907 8.64 -6.276 7.925 -5.625 7.188 C-4.685 6.126 -4.685 6.126 -3.727 5.043 C-1.859 2.912 -1.859 2.912 0 0 Z " fill="#694667" transform="translate(468,530)"/>
<path d="M0 0 C-2.595 2.595 -4.399 2.7 -8 3 C-8.66 2.34 -9.32 1.68 -10 1 C-6.218 -0.837 -4.054 -1.158 0 0 Z " fill="#44456B" transform="translate(605,353)"/>
<path d="M0 0 C4.455 2.97 4.455 2.97 9 6 C7.68 6.33 6.36 6.66 5 7 C2.25 5.25 2.25 5.25 0 3 C0 2.01 0 1.02 0 0 Z " fill="#C9435D" transform="translate(473,607)"/>
<path d="M0 0 C-2 1.5 -2 1.5 -4 3 C-4.701 3.557 -5.403 4.114 -6.125 4.688 C-8 6 -8 6 -10 6 C-7.823 0.976 -5.414 -0.293 0 0 Z " fill="#C1B292" transform="translate(803,334)"/>
<path d="M0 0 C0.66 0 1.32 0 2 0 C0.725 2.844 -0.451 5.138 -3 7 C-5.188 6.688 -5.188 6.688 -7 6 C-6.031 5.381 -5.061 4.763 -4.062 4.125 C-0.972 2.343 -0.972 2.343 0 0 Z " fill="#283154" transform="translate(694,583)"/>
<path d="M0 0 C0.99 0.33 1.98 0.66 3 1 C1.812 2.562 1.812 2.562 0 4 C-2.625 3.812 -2.625 3.812 -5 3 C-5.33 2.34 -5.66 1.68 -6 1 C-4.793 1.031 -4.793 1.031 -3.562 1.062 C-1.066 1.296 -1.066 1.296 0 0 Z " fill="#FAD161" transform="translate(484,602)"/>
<path d="M0 0 C2.31 0.33 4.62 0.66 7 1 C7 1.66 7 2.32 7 3 C7.99 3.33 8.98 3.66 10 4 C3.477 3.385 3.477 3.385 1.062 1.438 C0.712 0.963 0.361 0.489 0 0 Z " fill="#CC4459" transform="translate(272,479)"/>
<path d="M0 0 C0.99 0.33 1.98 0.66 3 1 C1.377 2.709 -0.293 4.374 -2 6 C-2.66 6 -3.32 6 -4 6 C-2.848 3.532 -1.952 1.952 0 0 Z " fill="#C9B99F" transform="translate(473,568)"/>
<path d="M0 0 C0.66 0 1.32 0 2 0 C2 1.65 2 3.3 2 5 C1.01 5 0.02 5 -1 5 C-1 1 -1 1 0 0 Z " fill="#D65D64" transform="translate(526,478)"/>
<path d="M0 0 C-2.97 2.475 -2.97 2.475 -6 5 C-6 3.35 -6 1.7 -6 0 C-3.509 -1.245 -2.589 -0.777 0 0 Z " fill="#57BABD" transform="translate(519,434)"/>
</svg>