<svg version="1.1" xmlns="http://www.w3.org/2000/svg" width="1024" height="1024">
<path d="M0 0 C337.92 0 675.84 0 1024 0 C1024 337.92 1024 675.84 1024 1024 C686.08 1024 348.16 1024 0 1024 C0 686.08 0 348.16 0 0 Z " fill="#F1F6FA" transform="translate(0,0)"/>
<path d="M0 0 C1.015 0.502 2.03 1.003 3.076 1.52 C8.239 4.099 13.23 6.821 18.125 9.875 C22.131 12.319 25.741 13.628 30.301 14.711 C39.542 17.032 48.394 20.297 57.312 23.625 C58.148 23.935 58.983 24.244 59.844 24.563 C72.341 29.202 84.643 34.076 96.625 39.938 C97.645 40.427 97.645 40.427 98.686 40.926 C103.377 43.179 108.013 45.526 112.625 47.938 C113.301 48.288 113.978 48.639 114.675 49 C130.361 57.201 145.213 66.985 159.465 77.469 C169.393 84.695 179.281 89.772 190.82 94.073 C198.439 97.005 203.337 99.934 206.797 107.5 C207.083 108.707 207.083 108.707 207.375 109.938 C207.607 110.891 207.839 111.845 208.078 112.828 C208.625 115.938 208.625 115.938 208.859 119.172 C209.763 131.131 214.79 140.31 220.122 150.881 C222.597 155.913 224.837 161.041 227.062 166.188 C227.463 167.103 227.863 168.018 228.275 168.961 C232.787 179.398 236.383 190.046 239.625 200.938 C239.955 202.005 240.285 203.072 240.625 204.172 C243.192 212.717 245.013 221.322 246.695 230.078 C246.852 230.879 247.008 231.68 247.169 232.506 C247.473 234.128 247.753 235.756 248.009 237.387 C249.149 244.153 251.611 249.771 254.688 255.875 C255.596 257.717 256.504 259.559 257.41 261.402 C257.811 262.203 258.212 263.003 258.625 263.828 C260.883 268.593 261.342 272.75 260.625 277.938 C259.209 281.787 257.32 285.361 255.438 289 C249.934 300.25 247.323 311.036 245.131 323.291 C243.848 330 241.745 336.455 239.625 342.938 C239.294 343.969 238.963 345.001 238.622 346.064 C232.523 364.954 226.017 384.694 215.414 401.602 C210.419 409.589 209.448 417.093 208.773 426.364 C208.228 432.914 207.236 438.027 202.625 442.938 C200.265 444.7 197.82 445.892 195.125 447.062 C194.422 447.392 193.718 447.723 192.993 448.062 C189.71 449.593 186.392 451.039 183.074 452.492 C175.468 455.862 169.211 459.879 162.625 464.938 C129.531 489.396 93.017 507.931 54.393 521.933 C51.887 522.842 49.386 523.767 46.887 524.695 C40.224 527.141 33.681 529.215 26.75 530.75 C17.813 532.76 9.982 536.852 1.808 540.877 C-1.263 542.369 -4.348 543.749 -7.5 545.062 C-8.431 545.457 -9.361 545.851 -10.32 546.258 C-18.348 548.044 -24.924 545.162 -32.062 541.688 C-33.843 540.857 -35.626 540.03 -37.41 539.207 C-38.268 538.811 -39.125 538.415 -40.008 538.006 C-48.158 534.326 -56.698 531.828 -65.242 529.254 C-91.561 521.295 -116.114 511.306 -140.575 498.853 C-142.213 498.02 -143.854 497.194 -145.495 496.368 C-163.884 487.056 -181.425 475.574 -197.973 463.284 C-205.139 457.976 -212.02 453.853 -220.375 450.562 C-237.254 443.727 -237.254 443.727 -240.375 436.938 C-241.289 433.738 -241.289 433.738 -242 430.25 C-242.24 429.112 -242.48 427.974 -242.727 426.801 C-243.375 422.938 -243.375 422.938 -243.48 420.625 C-243.837 413.319 -246.41 408.516 -250.125 402.312 C-255.682 392.573 -260.22 382.71 -264.375 372.312 C-264.642 371.649 -264.908 370.985 -265.183 370.3 C-270.634 356.679 -275.593 343.088 -279.062 328.812 C-279.357 327.641 -279.652 326.469 -279.955 325.262 C-281.317 319.748 -282.505 314.312 -283.301 308.688 C-284.21 302.915 -286.201 298.223 -288.875 293.062 C-296.924 277.067 -296.924 277.067 -295.375 267.938 C-292.946 260.608 -289.348 253.678 -285.625 246.938 C-283.305 242.379 -282.445 237.874 -281.595 232.853 C-276.188 201.041 -265.461 169.782 -249.875 141.5 C-245.428 133.377 -243.514 126.487 -242.438 117.312 C-241.397 108.924 -239.873 103.586 -233.172 98.182 C-229.913 95.925 -226.333 94.461 -222.688 92.938 C-220.4 91.956 -218.114 90.973 -215.827 89.989 C-214.141 89.266 -212.45 88.552 -210.757 87.847 C-203.465 84.704 -197.094 80.677 -190.562 76.188 C-188.43 74.747 -186.297 73.307 -184.164 71.867 C-182.234 70.557 -180.305 69.248 -178.375 67.938 C-149.15 48.163 -117.424 33.928 -84.375 21.938 C-83.139 21.485 -81.904 21.032 -80.631 20.566 C-79.405 20.122 -78.18 19.677 -76.918 19.219 C-75.817 18.818 -74.717 18.418 -73.583 18.006 C-70.392 16.943 -67.213 16.131 -63.938 15.375 C-51.718 12.02 -40.582 4.97 -29.582 -1.18 C-28.586 -1.719 -27.589 -2.257 -26.562 -2.812 C-25.772 -3.261 -24.982 -3.71 -24.168 -4.172 C-15.108 -7.061 -8.114 -4.174 0 0 Z " fill="#151D4B" transform="translate(531.375,260.0625)"/>
<path d="M0 0 C2.058 1.619 2.814 2.859 3.684 5.324 C3.684 6.644 3.684 7.964 3.684 9.324 C5.334 9.324 6.984 9.324 8.684 9.324 C8.787 8.417 8.89 7.509 8.996 6.574 C9.688 3.305 10.505 1.787 12.684 -0.676 C16.594 0.014 19.781 1.879 23.184 3.824 C23.865 4.211 24.547 4.598 25.249 4.996 C35.314 10.765 45.187 16.862 55.085 22.909 C59.399 25.544 63.721 28.166 68.047 30.781 C93.521 46.185 93.521 46.185 105.805 54.115 C107.526 55.223 109.259 56.314 110.992 57.402 C117.216 61.463 117.216 61.463 119.246 65.199 C120.512 74.24 120.847 83.039 120.852 92.164 C120.855 93.613 120.858 95.063 120.862 96.512 C120.868 99.551 120.869 102.589 120.869 105.628 C120.869 108.687 120.876 111.745 120.889 114.804 C120.956 129.899 120.938 145.003 120.109 160.078 C120.074 161.125 120.038 162.171 120.001 163.249 C119.64 168.478 119.009 171.581 115.263 175.383 C114.093 176.391 112.901 177.375 111.684 178.324 C110.792 179.083 109.9 179.843 108.98 180.625 C108.14 181.289 107.3 181.953 106.434 182.637 C102.563 185.751 98.837 188.958 95.184 192.324 C90.795 196.359 86.275 200.163 81.637 203.906 C78.25 206.679 74.934 209.526 71.621 212.387 C66.905 216.453 62.125 220.408 57.238 224.27 C54.196 226.716 51.22 229.233 48.246 231.762 C42.449 236.688 36.606 241.549 30.684 246.324 C30.104 246.795 29.524 247.265 28.926 247.75 C27.059 249.261 25.185 250.762 23.309 252.262 C22.725 252.735 22.142 253.208 21.541 253.695 C18.392 256.194 15.515 258.069 11.684 259.324 C9.343 253.919 8.991 249.166 8.684 243.324 C8.618 242.527 8.552 241.73 8.484 240.909 C7.204 224.763 7.204 224.763 10.527 219.285 C13.111 216.971 15.745 215.162 18.684 213.324 C20.431 211.93 22.16 210.513 23.871 209.074 C24.788 208.332 25.704 207.589 26.648 206.824 C32.096 202.337 37.394 197.678 42.713 193.04 C46.01 190.169 49.316 187.31 52.621 184.449 C56.338 181.23 60.052 178.008 63.746 174.762 C68.105 170.934 72.523 167.173 76.938 163.41 C81.635 159.998 81.635 159.998 83.962 155.148 C83.975 154.246 83.989 153.344 84.002 152.416 C84.022 151.395 84.042 150.374 84.063 149.322 C84.074 148.217 84.086 147.111 84.098 145.973 C84.117 144.843 84.136 143.714 84.156 142.551 C84.216 138.934 84.263 135.317 84.309 131.699 C84.347 129.251 84.386 126.803 84.426 124.355 C84.522 118.345 84.607 112.335 84.684 106.324 C77.087 111.744 69.493 117.166 61.934 122.637 C60.401 123.745 58.869 124.853 57.336 125.961 C56.185 126.793 56.185 126.793 55.011 127.642 C52.696 129.315 50.38 130.986 48.062 132.656 C46.54 133.754 45.018 134.852 43.496 135.949 C42.751 136.487 42.005 137.024 41.237 137.578 C37.04 140.609 32.861 143.662 28.699 146.741 C26.279 148.528 23.848 150.3 21.412 152.066 C20.256 152.908 19.104 153.754 17.955 154.605 C16.336 155.801 14.698 156.969 13.059 158.137 C12.138 158.803 11.218 159.47 10.27 160.156 C7.684 161.324 7.684 161.324 5.359 160.887 C1.554 158.664 -1.964 156.132 -5.504 153.512 C-7.118 152.331 -8.733 151.15 -10.348 149.969 C-11.171 149.364 -11.995 148.759 -12.844 148.135 C-16.714 145.301 -20.61 142.502 -24.504 139.699 C-30.56 135.33 -36.594 130.93 -42.609 126.505 C-48.49 122.185 -54.407 117.915 -60.328 113.65 C-61.05 113.13 -61.772 112.61 -62.516 112.074 C-63.153 111.615 -63.791 111.156 -64.448 110.684 C-66.419 109.25 -68.368 107.788 -70.316 106.324 C-70.52 113.298 -70.66 120.271 -70.756 127.247 C-70.796 129.618 -70.851 131.988 -70.92 134.358 C-71.017 137.775 -71.062 141.188 -71.098 144.605 C-71.139 145.658 -71.18 146.71 -71.223 147.795 C-71.226 153.61 -70.607 156.697 -66.44 160.909 C-65.091 162.078 -63.719 163.22 -62.316 164.324 C-61.404 165.104 -60.491 165.884 -59.551 166.688 C-58.321 167.652 -58.321 167.652 -57.066 168.637 C-53.003 171.897 -49.125 175.276 -45.316 178.824 C-40.707 183.114 -35.939 187.128 -31.031 191.078 C-28.21 193.413 -25.51 195.844 -22.816 198.324 C-19.238 201.618 -15.601 204.771 -11.816 207.824 C-10.923 208.565 -10.03 209.307 -9.109 210.07 C-7.182 211.626 -5.2 213.115 -3.18 214.547 C1.2 217.906 4.251 220.314 5.441 225.848 C5.501 230.089 5.173 234.119 4.684 238.324 C4.529 240.052 4.378 241.78 4.23 243.508 C3.042 256.608 3.042 256.608 1.684 259.324 C-1.552 258.724 -3.422 257.692 -5.934 255.586 C-6.616 255.019 -7.298 254.452 -8.001 253.868 C-8.724 253.255 -9.447 252.643 -10.191 252.012 C-10.944 251.383 -11.696 250.754 -12.471 250.107 C-17.824 245.622 -23.132 241.084 -28.418 236.521 C-31.922 233.5 -35.471 230.548 -39.066 227.637 C-43.448 224.082 -47.634 220.357 -51.805 216.559 C-54.318 214.323 -56.89 212.19 -59.504 210.074 C-65.94 204.862 -72.165 199.417 -78.411 193.979 C-80.849 191.861 -83.294 189.75 -85.748 187.65 C-86.917 186.642 -88.078 185.625 -89.231 184.598 C-91.969 182.184 -94.581 180.091 -97.789 178.336 C-101.438 176.096 -104.209 174.059 -106.316 170.324 C-107.273 166.265 -107.451 162.228 -107.633 158.07 C-107.702 156.846 -107.772 155.623 -107.844 154.362 C-108.59 139.772 -108.581 125.169 -108.512 110.564 C-108.501 107.629 -108.502 104.693 -108.502 101.757 C-108.502 98.875 -108.496 95.993 -108.489 93.111 C-108.485 91.121 -108.483 89.132 -108.481 87.142 C-108.45 81.133 -108.338 75.128 -108.044 69.127 C-107.997 68.094 -107.95 67.062 -107.902 65.998 C-107.187 62.733 -106.147 61.736 -103.504 59.762 C-101.461 58.581 -99.394 57.442 -97.316 56.324 C-95.818 55.432 -94.325 54.532 -92.836 53.625 C-89.403 51.535 -85.96 49.465 -82.504 47.414 C-77.92 44.69 -73.362 41.925 -68.816 39.137 C-56.34 31.493 -43.83 23.906 -31.316 16.324 C-30.494 15.826 -29.671 15.327 -28.823 14.813 C-25.751 12.953 -22.674 11.103 -19.586 9.27 C-17.194 7.846 -14.821 6.403 -12.453 4.941 C-11.179 4.173 -9.904 3.404 -8.629 2.637 C-6.952 1.61 -6.952 1.61 -5.242 0.562 C-2.316 -0.676 -2.316 -0.676 0 0 Z " fill="#EEF9FD" transform="translate(510.31640625,423.67578125)"/>
<path d="M0 0 C3.107 2.421 3.582 4.724 4.223 8.563 C4.966 14.891 4.811 21.257 4.793 27.619 C4.793 29.059 4.793 30.498 4.794 31.938 C4.794 35.826 4.788 39.714 4.781 43.601 C4.775 47.672 4.774 51.743 4.773 55.813 C4.77 63.512 4.762 71.211 4.752 78.911 C4.741 87.68 4.735 96.449 4.73 105.218 C4.72 123.248 4.702 141.278 4.68 159.309 C1.308 158.004 -1.439 156.686 -4.332 154.508 C-5.08 153.95 -5.829 153.391 -6.6 152.816 C-7.394 152.216 -8.189 151.615 -9.008 150.996 C-10.718 149.719 -12.429 148.443 -14.141 147.168 C-15.006 146.522 -15.871 145.875 -16.763 145.209 C-20.609 142.351 -24.493 139.545 -28.383 136.746 C-29.118 136.216 -29.854 135.686 -30.611 135.14 C-32.098 134.068 -33.586 132.997 -35.073 131.926 C-38.886 129.181 -42.697 126.433 -46.508 123.684 C-47.171 123.206 -47.834 122.728 -48.518 122.236 C-55.817 116.97 -63.066 111.636 -70.32 106.309 C-70.524 113.282 -70.664 120.255 -70.76 127.231 C-70.8 129.602 -70.854 131.973 -70.924 134.343 C-71.021 137.759 -71.066 141.173 -71.102 144.59 C-71.143 145.642 -71.184 146.695 -71.227 147.779 C-71.23 153.595 -70.611 156.681 -66.444 160.893 C-65.095 162.062 -63.723 163.204 -62.32 164.309 C-61.408 165.088 -60.495 165.868 -59.555 166.672 C-58.325 167.637 -58.325 167.637 -57.07 168.621 C-53.007 171.882 -49.129 175.26 -45.32 178.809 C-40.711 183.098 -35.942 187.113 -31.035 191.062 C-28.214 193.397 -25.514 195.828 -22.82 198.309 C-19.242 201.602 -15.605 204.755 -11.82 207.809 C-10.927 208.55 -10.034 209.291 -9.113 210.055 C-7.186 211.61 -5.204 213.099 -3.184 214.531 C1.196 217.89 4.247 220.298 5.438 225.832 C5.497 230.073 5.169 234.104 4.68 238.309 C4.525 240.036 4.374 241.764 4.227 243.492 C3.038 256.593 3.038 256.593 1.68 259.309 C-1.556 258.709 -3.426 257.676 -5.938 255.57 C-6.62 255.003 -7.302 254.436 -8.005 253.852 C-8.728 253.24 -9.451 252.627 -10.195 251.996 C-10.948 251.367 -11.7 250.739 -12.475 250.091 C-17.828 245.606 -23.136 241.068 -28.422 236.505 C-31.926 233.485 -35.474 230.532 -39.07 227.621 C-43.452 224.066 -47.637 220.341 -51.809 216.543 C-54.322 214.307 -56.893 212.175 -59.508 210.059 C-65.944 204.846 -72.169 199.401 -78.415 193.964 C-80.853 191.845 -83.298 189.734 -85.752 187.634 C-86.921 186.627 -88.082 185.609 -89.235 184.583 C-91.973 182.169 -94.585 180.076 -97.793 178.32 C-101.442 176.08 -104.213 174.043 -106.32 170.309 C-107.277 166.25 -107.455 162.212 -107.637 158.055 C-107.706 156.831 -107.776 155.607 -107.848 154.346 C-108.594 139.757 -108.585 125.153 -108.516 110.549 C-108.505 107.613 -108.505 104.677 -108.506 101.742 C-108.506 98.86 -108.5 95.978 -108.493 93.096 C-108.488 91.106 -108.487 89.116 -108.485 87.126 C-108.454 81.117 -108.342 75.113 -108.048 69.111 C-108.001 68.079 -107.954 67.046 -107.905 65.983 C-107.191 62.717 -106.151 61.72 -103.508 59.746 C-101.465 58.566 -99.398 57.426 -97.32 56.309 C-95.822 55.417 -94.329 54.516 -92.84 53.609 C-89.407 51.519 -85.964 49.449 -82.508 47.398 C-77.924 44.674 -73.366 41.91 -68.82 39.121 C-56.344 31.477 -43.834 23.89 -31.32 16.309 C-30.497 15.81 -29.675 15.311 -28.827 14.797 C-25.755 12.938 -22.678 11.087 -19.59 9.254 C-17.198 7.831 -14.825 6.388 -12.457 4.926 C-11.183 4.157 -9.908 3.389 -8.633 2.621 C-6.956 1.594 -6.956 1.594 -5.246 0.547 C-2.32 -0.691 -2.32 -0.691 0 0 Z " fill="#FDFDFD" transform="translate(510.3203125,423.69140625)"/>
<path d="M0 0 C5.966 3.72 11.806 7.438 17.312 11.812 C21.7 15.252 26.139 18.588 30.688 21.812 C31.262 22.22 31.836 22.627 32.428 23.047 C33.641 23.907 34.854 24.766 36.066 25.625 C39.619 28.151 43.153 30.7 46.688 33.25 C47.432 33.786 48.177 34.323 48.945 34.875 C53.066 37.851 57.161 40.859 61.23 43.906 C62.09 44.548 62.95 45.19 63.835 45.851 C65.497 47.093 67.154 48.341 68.807 49.595 C69.935 50.437 69.935 50.437 71.086 51.297 C71.746 51.795 72.407 52.294 73.087 52.808 C75.154 54.096 76.572 54.769 79 55 C80.981 54.176 80.981 54.176 82.879 52.746 C83.625 52.229 84.372 51.711 85.141 51.178 C85.94 50.603 86.739 50.029 87.562 49.438 C88.401 48.849 89.239 48.261 90.103 47.654 C97.588 42.373 104.961 36.937 112.312 31.473 C118.323 27.008 124.399 22.634 130.477 18.262 C133.668 15.965 136.849 13.653 140.023 11.332 C140.846 10.733 141.668 10.133 142.515 9.516 C144.097 8.363 145.676 7.207 147.252 6.049 C147.962 5.532 148.671 5.016 149.402 4.484 C150.026 4.028 150.65 3.571 151.293 3.101 C153 2 153 2 156 1 C156.178 8.135 156.3 15.269 156.385 22.405 C156.42 24.831 156.467 27.257 156.528 29.682 C156.613 33.175 156.653 36.666 156.684 40.16 C156.72 41.24 156.756 42.319 156.793 43.431 C156.796 48.87 156.547 52.126 152.626 56.096 C151.442 57.094 150.235 58.066 149 59 C148.108 59.759 147.216 60.519 146.297 61.301 C145.456 61.965 144.616 62.629 143.75 63.312 C139.879 66.427 136.154 69.633 132.5 73 C128.03 77.114 123.41 80.971 118.684 84.785 C116.053 86.956 113.521 89.202 111 91.5 C107.604 94.596 104.138 97.552 100.562 100.438 C95.629 104.423 90.957 108.62 86.312 112.934 C84 115 84 115 81 117 C80.616 119.61 80.397 122.006 80.312 124.625 C80.278 125.331 80.244 126.038 80.209 126.766 C80.126 128.51 80.062 130.255 80 132 C79.34 130.68 78.68 129.36 78 128 C77.34 129.32 76.68 130.64 76 132 C76.067 131.045 76.134 130.09 76.203 129.105 C76.313 120.944 76.313 120.944 72.648 113.871 C70.141 111.448 67.428 109.303 64.634 107.22 C62.166 105.377 59.811 103.4 57.438 101.438 C56.539 100.714 55.641 99.991 54.715 99.246 C50.934 96.118 47.355 92.787 43.746 89.465 C41.081 87.073 38.352 84.807 35.562 82.562 C31.031 78.907 26.749 75.06 22.492 71.095 C18.374 67.283 14.077 63.739 9.668 60.266 C8.788 59.518 7.907 58.77 7 58 C6.417 57.559 5.833 57.118 5.232 56.664 C2.28 54.174 0.292 52.233 -0.615 48.403 C-0.809 45.3 -0.788 42.268 -0.684 39.16 C-0.674 38.038 -0.664 36.916 -0.654 35.76 C-0.615 32.193 -0.527 28.629 -0.438 25.062 C-0.402 22.637 -0.37 20.212 -0.342 17.787 C-0.265 11.857 -0.148 5.929 0 0 Z " fill="#161F4D" transform="translate(439,529)"/>
<path d="M0 0 C4.649 0.342 6.911 2.325 10.312 5.375 C33.252 25.289 61.853 40.065 90 51 C91.172 51.458 92.344 51.915 93.551 52.387 C103.176 55.972 113.06 58.679 122.954 61.415 C124.649 61.9 126.327 62.442 128 63 C128 70.26 128 77.52 128 85 C121.881 84.32 117.731 83.832 112.176 81.953 C111.56 81.746 110.944 81.539 110.31 81.326 C108.306 80.646 106.309 79.95 104.312 79.25 C103.617 79.009 102.922 78.767 102.206 78.519 C59.891 63.773 18.292 43.164 -16 14 C-14.597 9.791 -11.519 8.278 -8 5.875 C-3.813 3.16 -3.813 3.16 0 0 Z " fill="#379ACF" transform="translate(354,689)"/>
<path d="M0 0 C1.65 0 3.3 0 5 0 C4.67 7.59 4.34 15.18 4 23 C2.234 23.485 0.468 23.969 -1.352 24.469 C-40.142 35.238 -78.393 50.233 -109.805 76.109 C-110.434 76.623 -111.062 77.136 -111.71 77.664 C-112.917 78.657 -114.113 79.663 -115.296 80.685 C-117.692 82.662 -119.324 83.969 -122.484 84.113 C-125.956 82.577 -128.768 80.381 -131.688 78 C-135.644 74.698 -135.644 74.698 -140 72 C-138.909 68.727 -138.413 68.287 -135.738 66.355 C-134.696 65.598 -134.696 65.598 -133.632 64.826 C-132.866 64.285 -132.101 63.745 -131.312 63.188 C-130.112 62.333 -130.112 62.333 -128.888 61.461 C-98.503 40.057 -64.324 19.925 -28.318 9.72 C-25.909 8.972 -23.63 8.057 -21.312 7.062 C-16.297 4.979 -11.172 3.62 -5.913 2.307 C-2.686 1.693 -2.686 1.693 0 0 Z " fill="#379ACE" transform="translate(478,291)"/>
<path d="M0 0 C8.175 1.247 15.843 3.348 23.688 5.938 C24.763 6.285 25.839 6.632 26.947 6.99 C65.218 19.435 101.967 38.732 134 63 C135.646 64.229 137.291 65.459 138.938 66.688 C139.948 67.451 140.959 68.214 142 69 C140.455 73.333 137.117 75.542 133.562 78.188 C132.684 78.863 132.684 78.863 131.787 79.553 C129.211 81.503 127.085 82.972 124 84 C122.337 83.079 122.337 83.079 120.516 81.605 C119.835 81.067 119.155 80.528 118.455 79.974 C117.727 79.384 117 78.795 116.25 78.188 C108.413 72.02 100.406 66.359 92 61 C90.904 60.287 89.809 59.574 88.68 58.84 C80.579 53.695 72.063 49.442 63.438 45.25 C62.326 44.707 61.215 44.164 60.069 43.604 C53.197 40.319 46.276 37.565 39.075 35.083 C36.716 34.252 34.455 33.376 32.18 32.348 C28.239 30.677 24.252 29.548 20.125 28.438 C19.373 28.229 18.622 28.021 17.848 27.807 C12.599 26.371 7.321 25.136 2 24 C1.662 20.938 1.331 17.875 1 14.812 C0.905 13.948 0.809 13.084 0.711 12.193 C0.621 11.352 0.53 10.511 0.438 9.645 C0.354 8.875 0.27 8.105 0.184 7.312 C-0.011 4.865 -0.03 2.453 0 0 Z " fill="#379BCF" transform="translate(549,291)"/>
<path d="M0 0 C2.321 0.897 3.986 2.01 5.96 3.522 C7.024 4.33 7.024 4.33 8.109 5.153 C9.203 5.999 9.203 5.999 10.32 6.862 C11.065 7.43 11.81 7.998 12.578 8.583 C14.413 9.983 16.243 11.389 18.07 12.8 C-9.202 42.416 -55.319 61.09 -92.209 74.788 C-94.505 75.642 -96.794 76.511 -99.083 77.386 C-103.568 79.066 -108.116 80.536 -112.68 81.987 C-113.517 82.26 -114.353 82.533 -115.215 82.813 C-116.428 83.199 -116.428 83.199 -117.665 83.593 C-118.389 83.825 -119.113 84.057 -119.859 84.297 C-121.93 84.8 -121.93 84.8 -125.93 84.8 C-125.787 82.654 -125.64 80.508 -125.493 78.362 C-125.411 77.167 -125.33 75.972 -125.247 74.741 C-124.899 70.415 -124.434 66.11 -123.93 61.8 C-122.718 61.448 -121.507 61.096 -120.258 60.733 C-78.985 48.628 -36.968 31.195 -4.704 1.874 C-1.93 -0.2 -1.93 -0.2 0 0 Z " fill="#379ACE" transform="translate(674.93017578125,689.2001953125)"/>
<path d="M0 0 C4.641 2.097 7.733 5.328 11.312 8.875 C11.971 9.5 12.629 10.125 13.307 10.77 C13.923 11.379 14.54 11.989 15.176 12.617 C15.742 13.17 16.308 13.723 16.892 14.292 C18 16 18 16 17.815 17.923 C16.912 20.225 15.898 22.408 14.777 24.613 C4.056 46.095 -2.839 67.586 -8 91 C-8.388 92.742 -8.776 94.484 -9.164 96.227 C-9.44 97.472 -9.716 98.717 -10 100 C-17.394 100.246 -26.249 100.376 -33 97 C-30.329 63.969 -16.847 28.354 0 0 Z " fill="#3699CD" transform="translate(301,405)"/>
<path d="M0 0 C4.066 3.474 5.935 7.425 8.125 12.188 C8.7 13.424 8.7 13.424 9.286 14.686 C20.17 38.458 27.889 62.447 33.898 87.844 C34.218 89.192 34.218 89.192 34.544 90.568 C35 93 35 93 35 97 C32.5 97.312 30 97.625 27.5 97.938 C26.804 98.025 26.108 98.112 25.391 98.201 C22.488 98.564 19.586 98.927 16.684 99.29 C15.953 99.381 15.222 99.472 14.469 99.566 C13.324 99.709 12.179 99.853 11 100 C10.901 99.369 10.802 98.739 10.7 98.089 C6.344 71.259 -1.591 44.609 -14.816 20.719 C-16.145 17.667 -16.119 17.016 -15 14 C-13.725 12.368 -13.725 12.368 -12.129 10.801 C-11.555 10.232 -10.98 9.663 -10.389 9.076 C-9.786 8.494 -9.183 7.912 -8.562 7.312 C-7.964 6.719 -7.365 6.125 -6.748 5.514 C-2.31 1.155 -2.31 1.155 0 0 Z " fill="#369ACE" transform="translate(726,406)"/>
<path d="M0 0 C0.22 1.493 0.22 1.493 0.445 3.016 C4.122 26.477 11.984 49.328 24.026 69.823 C27.083 75.236 27.083 75.236 26.719 78.578 C24.139 82.213 21.082 85.23 17.875 88.312 C17.216 88.958 16.558 89.603 15.879 90.268 C14.259 91.852 12.633 93.429 11 95 C6.649 91.318 4.395 86.664 1.812 81.688 C1.335 80.773 0.857 79.859 0.365 78.917 C-4.52 69.344 -8.364 59.42 -12.098 49.353 C-12.854 47.38 -13.697 45.441 -14.559 43.512 C-16.478 38.836 -17.762 34.066 -19.062 29.188 C-19.318 28.254 -19.574 27.32 -19.838 26.357 C-24.169 10.314 -24.169 10.314 -24 3 C-15.96 1.22 -8.29 -0.436 0 0 Z " fill="#369ACD" transform="translate(292,563)"/>
<path d="M0 0 C5.731 -0.155 10.893 0.348 16.5 1.5 C17.227 1.643 17.954 1.786 18.703 1.934 C20.47 2.282 22.235 2.64 24 3 C23.636 12.024 21.522 20.26 18.938 28.875 C18.736 29.555 18.535 30.234 18.328 30.935 C11.83 52.865 3.619 74.226 -8 94 C-13.102 92.498 -16.188 89.396 -19.875 85.75 C-20.784 84.909 -20.784 84.909 -21.711 84.051 C-25.96 79.87 -25.96 79.87 -26.137 76.051 C-24.739 72.3 -22.923 68.898 -20.938 65.438 C-15.558 55.677 -11.695 45.494 -8 35 C-7.589 33.862 -7.178 32.724 -6.754 31.551 C-3.321 21.331 -1.777 10.607 0 0 Z " fill="#369ACD" transform="translate(736,563)"/>
<path d="M0 0 C9.322 4.333 19.667 12.525 24 22 C26.947 33.138 25.141 45.719 24 57 C17.4 57 10.8 57 4 57 C4 54.69 4 52.38 4 50 C1.525 50.495 1.525 50.495 -1 51 C-1.33 52.98 -1.66 54.96 -2 57 C-8.6 57 -15.2 57 -22 57 C-22.162 52.301 -22.301 47.612 -22.385 42.913 C-22.42 41.318 -22.467 39.724 -22.528 38.13 C-23.085 23.18 -23.085 23.18 -18.969 18.406 C-17.674 17.239 -16.35 16.103 -15 15 C-13.667 13.657 -12.346 12.302 -11.035 10.938 C-9.714 9.622 -8.389 8.31 -7.062 7 C-6.379 6.321 -5.695 5.641 -4.99 4.941 C-3.329 3.292 -1.666 1.645 0 0 Z " fill="#29CCF8" transform="translate(515,342)"/>
<path d="M0 0 C0.058 3.375 0.094 6.75 0.125 10.125 C0.142 11.076 0.159 12.028 0.176 13.008 C0.223 19.823 0.153 24.651 -4.652 29.895 C-5.736 30.88 -6.832 31.852 -7.938 32.812 C-8.815 33.599 -8.815 33.599 -9.71 34.401 C-14.016 38.23 -18.482 41.844 -22.977 45.449 C-27.536 49.296 -31.847 53.398 -36.167 57.509 C-40.677 61.796 -45.285 65.941 -50 70 C-50.568 70.49 -51.137 70.981 -51.722 71.486 C-53.266 72.811 -54.82 74.125 -56.375 75.438 C-57.154 76.106 -57.154 76.106 -57.949 76.787 C-61.769 80 -61.769 80 -64 80 C-64.274 75.02 -64.472 70.044 -64.604 65.059 C-64.659 63.366 -64.734 61.675 -64.83 59.984 C-65.602 45.984 -65.602 45.984 -61.801 41.276 C-58.965 39.214 -56.117 37.599 -53 36 C-51.531 34.974 -50.081 33.92 -48.656 32.832 C-40.151 26.645 -31.568 20.598 -22.864 14.694 C-17.227 10.865 -11.667 6.943 -6.187 2.894 C-2.215 0 -2.215 0 0 0 Z " fill="#3698CE" transform="translate(584,552)"/>
<path d="M0 0 C3.65 1.76 6.854 3.937 10.125 6.312 C11.027 6.962 11.027 6.962 11.947 7.625 C13.261 8.572 14.574 9.52 15.886 10.47 C18.101 12.073 20.318 13.671 22.535 15.27 C31.243 21.549 31.243 21.549 33.647 23.352 C36.023 25.081 36.023 25.081 38.851 26.555 C44.476 29.875 47.434 32.751 49.11 39.024 C49.958 42.912 50.589 46.817 51.188 50.75 C51.47 52.367 51.758 53.983 52.049 55.598 C54 66.684 54 66.684 54 72 C49.667 70.307 46.731 67.102 43.438 63.938 C39.28 60.003 35.112 56.186 30.625 52.625 C25.088 48.196 19.965 43.375 14.833 38.491 C14.193 37.883 13.553 37.275 12.895 36.648 C11.946 35.727 11.946 35.727 10.979 34.786 C9.029 32.95 9.029 32.95 6.767 31.454 C3.28 28.95 1.31 27.281 0.277 23.014 C-0.01 19.505 -0.058 16.082 0 12.562 C-0.012 11.354 -0.023 10.146 -0.035 8.9 C-0.059 5.932 -0.046 2.968 0 0 Z " fill="#3699CB" transform="translate(450,551)"/>
<path d="M0 0 C1.887 0.031 1.887 0.031 3.812 0.062 C4.607 2.562 5.398 5.062 6.188 7.562 C6.409 8.259 6.631 8.955 6.859 9.672 C12.408 27.296 14.106 44.537 14.125 62.938 C14.128 63.728 14.132 64.518 14.135 65.333 C14.16 75.416 13.579 85.105 11.812 95.062 C11.661 95.939 11.51 96.816 11.354 97.719 C10.936 100.029 10.481 102.327 10 104.625 C9.834 105.421 9.668 106.217 9.497 107.036 C7.963 114.024 5.686 120.502 2.812 127.062 C-0.487 126.403 -3.788 125.743 -7.188 125.062 C-6.27 120.614 -5.308 116.371 -3.781 112.094 C7.551 78.457 5.33 39.713 -6.016 6.605 C-7.188 3.062 -7.188 3.062 -7.188 1.062 C-4.437 0.146 -2.828 -0.046 0 0 Z " fill="#29C7F2" transform="translate(670.1875,468.9375)"/>
<path d="M0 0 C4.343 -0.167 7.21 -0.13 11 2 C10.834 2.558 10.668 3.115 10.497 3.69 C-0.298 40.139 -4.087 78.124 8.949 114.73 C10.05 118.156 10.587 121.431 11 125 C6.05 125.99 6.05 125.99 1 127 C-2.208 118.429 -5.152 109.98 -7 101 C-7.28 99.726 -7.559 98.453 -7.848 97.141 C-14.285 64.293 -9.859 31.512 0 0 Z " fill="#29CAF5" transform="translate(356,469)"/>
<path d="M0 0 C6.294 3.103 10.401 7.04 14 13 C15.194 16.582 15.169 19.536 15.188 23.312 C15.202 24.608 15.216 25.904 15.23 27.238 C15 31 15 31 13 37 C2.44 37 -8.12 37 -19 37 C-20.916 33.169 -20.402 28.591 -20.5 24.375 C-20.554 23.402 -20.608 22.429 -20.664 21.426 C-20.768 15.917 -20.317 12.684 -16.645 8.441 C-7.264 -0.924 -7.264 -0.924 0 0 Z " fill="#F5BB39" transform="translate(519,279)"/>
<path d="M0 0 C4.613 0.62 6.819 3.67 9.75 7 C10.275 7.583 10.8 8.166 11.341 8.766 C12.902 10.504 14.452 12.251 16 14 C17.268 15.417 17.268 15.417 18.562 16.863 C20.383 18.902 22.196 20.947 24 23 C20.563 31.215 11.084 38.756 4 44 C3.34 44 2.68 44 2 44 C0.631 42.444 -0.669 40.827 -1.938 39.188 C-9.882 28.796 -9.882 28.796 -20 21 C-16.904 14.101 -10.436 9.405 -4.797 4.578 C-2.968 3.051 -2.968 3.051 -1.516 1.234 C-1.015 0.827 -0.515 0.42 0 0 Z " fill="#3699CE" transform="translate(633,431)"/>
<path d="M0 0 C3.108 1.391 5.321 3.03 7.785 5.371 C8.828 6.356 8.828 6.356 9.893 7.361 C10.967 8.389 10.967 8.389 12.062 9.438 C13.142 10.459 13.142 10.459 14.244 11.502 C17.197 14.302 20.133 17.112 23 20 C19.652 23.439 16.336 26.776 12.562 29.75 C7.791 33.719 4.482 38.917 1 44 C-3.047 42.308 -6.15 39.516 -9.438 36.688 C-9.998 36.214 -10.558 35.74 -11.135 35.252 C-12.774 33.854 -14.389 32.431 -16 31 C-16.981 30.14 -17.962 29.28 -18.973 28.395 C-19.642 27.604 -20.311 26.814 -21 26 C-20.66 22.787 -19.403 20.961 -17.305 18.574 C-16.477 17.626 -16.477 17.626 -15.633 16.658 C-15.053 16.008 -14.473 15.358 -13.875 14.688 C-13.318 14.049 -12.761 13.41 -12.188 12.752 C-8.294 8.325 -4.215 4.121 0 0 Z " fill="#3699CD" transform="translate(396,431)"/>
<path d="M0 0 C0.65 1.415 1.295 2.832 1.938 4.25 C2.477 5.433 2.477 5.433 3.027 6.641 C5.17 11.839 6.083 16.855 4.199 22.324 C-0.185 31.921 -7.818 40.671 -17 46 C-20.675 47.341 -24.376 47.098 -28.25 47.062 C-29.513 47.053 -30.777 47.044 -32.078 47.035 C-33.042 47.024 -34.007 47.012 -35 47 C-35.504 44.897 -36.003 42.792 -36.5 40.688 C-36.778 39.516 -37.057 38.344 -37.344 37.137 C-38 34 -38 34 -38 31 C-37.203 30.974 -36.407 30.948 -35.586 30.922 C-28.181 30.526 -23.614 29.828 -18.348 24.25 C-14.311 19.691 -12.775 17.284 -12.832 10.965 C-13.033 8.608 -13.802 7.021 -15 5 C-15 4.01 -15 3.02 -15 2 C-9.775 0.533 -5.419 -0.226 0 0 Z " fill="#2BCAF6" transform="translate(381,402)"/>
<path d="M0 0 C2.149 0.064 4.295 0.201 6.438 0.375 C8.199 0.51 8.199 0.51 9.996 0.648 C13 1 13 1 15 2 C14.125 6.875 14.125 6.875 13 8 C12.209 12.53 12.166 16.461 14.387 20.559 C18.18 25.569 21.677 29.454 28.113 30.512 C29.169 30.57 30.225 30.628 31.312 30.688 C32.915 30.786 32.915 30.786 34.551 30.887 C35.359 30.924 36.167 30.961 37 31 C36.693 33.48 36.379 35.959 36.062 38.438 C35.932 39.498 35.932 39.498 35.799 40.58 C35.113 45.887 35.113 45.887 34 47 C18.765 48.418 18.765 48.418 13.312 44.312 C12.173 43.245 11.064 42.143 10 41 C9.134 40.196 8.268 39.391 7.375 38.562 C6.199 37.294 6.199 37.294 5 36 C4.506 35.488 4.013 34.976 3.504 34.449 C-1.49 29.032 -5.103 23.072 -5.5 15.562 C-5.28 10.564 -3.644 3.644 0 0 Z " fill="#2BCAF6" transform="translate(651,402)"/>
<path d="M0 0 C11.22 0 22.44 0 34 0 C34.858 21.596 34.858 21.596 29.91 27.363 C25.599 31.057 21.621 33.949 15.812 34.062 C9.017 31.495 3.276 26.553 0 20 C-0.084 18.479 -0.107 16.953 -0.098 15.43 C-0.095 14.623 -0.093 13.815 -0.09 12.984 C-0.081 11.958 -0.072 10.932 -0.062 9.875 C-0.042 6.616 -0.021 3.357 0 0 Z " fill="#F7BC39" transform="translate(499,754)"/>
<path d="M0 0 C0.866 0.01 1.733 0.019 2.625 0.029 C8.956 0.143 8.956 0.143 10.125 1.312 C10.225 3.434 10.256 5.559 10.258 7.684 C10.26 9.628 10.26 9.628 10.262 11.611 C10.26 12.29 10.258 12.969 10.255 13.668 C10.25 15.738 10.255 17.807 10.262 19.877 C10.26 21.174 10.259 22.472 10.258 23.809 C10.257 25.007 10.256 26.205 10.254 27.439 C10.125 30.312 10.125 30.312 9.125 32.312 C2.577 34.495 -6.176 34.644 -12.719 32.289 C-17.991 29.021 -22.553 24.117 -24.875 18.312 C-24.624 14.306 -23.18 11.882 -20.75 8.75 C-20.191 8.006 -19.631 7.262 -19.055 6.496 C-13.102 0.533 -8.101 -0.279 0 0 Z " fill="#F3B838" transform="translate(276.875,517.6875)"/>
<path d="M0 0 C3.962 3.21 7.466 7.044 9.895 11.535 C9.434 18.013 5.438 22.205 0.77 26.348 C-4.073 30.487 -7.314 30.691 -13.605 30.66 C-14.391 30.664 -15.176 30.668 -15.984 30.672 C-21.852 30.662 -21.852 30.662 -24.105 29.535 C-25.141 25.872 -25.223 22.367 -25.203 18.578 C-25.2 17.466 -25.197 16.354 -25.193 15.209 C-25.185 14.058 -25.177 12.908 -25.168 11.723 C-25.163 10.553 -25.159 9.383 -25.154 8.178 C-25.143 5.297 -25.126 2.416 -25.105 -0.465 C-16.92 -3.019 -7.776 -4.568 0 0 Z " fill="#F5BA37" transform="translate(766.10546875,520.46484375)"/>
<path d="M0 0 C27.474 0.999 58.303 21.008 78 39 C76.35 41.31 74.7 43.62 73 46 C68.247 45.513 65.246 43.254 61.562 40.438 C54.682 35.372 47.573 30.955 40 27 C39.292 26.63 38.585 26.26 37.856 25.878 C27.133 20.354 16.431 16.298 4.805 13.094 C1 12 1 12 0 11 C-0.072 9.147 -0.084 7.292 -0.062 5.438 C-0.053 4.426 -0.044 3.414 -0.035 2.371 C-0.024 1.589 -0.012 0.806 0 0 Z " fill="#2ACCF7" transform="translate(555,370)"/>
<path d="M0 0 C14.69 -1.033 14.69 -1.033 19.375 2.438 C20.617 3.59 21.824 4.781 23 6 C23.748 6.677 24.495 7.354 25.266 8.051 C31.464 13.828 37.307 19.828 38.469 28.5 C38.634 35.014 38.253 40.307 35 46 C29.211 46.207 24.571 45.592 19 44 C19.523 41.237 20.109 38.674 21 36 C21.834 30.04 20.188 26.702 16.758 22.02 C12.471 17.095 8.494 15.877 2.062 15.25 C0.376 15.15 -1.312 15.061 -3 15 C-3.315 9.01 -2.682 5.364 0 0 Z " fill="#2BCAF4" transform="translate(346,614)"/>
<path d="M0 0 C4.164 2.733 8.181 5.6 12.188 8.562 C29.425 20.987 48.243 30.556 68.727 36.309 C71 37 71 37 72 38 C72.072 39.686 72.084 41.375 72.062 43.062 C72.053 43.982 72.044 44.901 72.035 45.848 C72.024 46.558 72.012 47.268 72 48 C66.041 48.38 61.598 47.136 56.062 45 C55.231 44.685 54.4 44.371 53.544 44.046 C45.407 40.894 37.681 37.125 30 33 C29.35 32.657 28.699 32.315 28.029 31.962 C19.942 27.687 12.254 22.984 4.75 17.75 C4.035 17.255 3.319 16.759 2.582 16.249 C-1.247 13.517 -4.249 10.886 -7 7 C-4.69 4.69 -2.38 2.38 0 0 Z " fill="#2BC9F4" transform="translate(404,649)"/>
<path d="M0 0 C0.027 1.437 0.046 2.875 0.062 4.312 C0.074 5.113 0.086 5.914 0.098 6.738 C0 9 0 9 -1 12 C-3.389 12.915 -5.667 13.641 -8.125 14.312 C-31.495 21.199 -52.243 32.397 -71 48 C-74.328 46.448 -76.486 44.694 -79 42 C-73.22 26.897 -43.621 15.388 -30.012 9.164 C-23.484 6.279 -16.852 3.991 -10 2 C-8.77 1.629 -7.54 1.257 -6.273 0.875 C-3 0 -3 0 0 0 Z " fill="#2CC9F4" transform="translate(477,369)"/>
<path d="M0 0 C1.06 0.007 1.06 0.007 2.141 0.014 C3.885 0.025 5.63 0.043 7.375 0.062 C8.376 3.373 8.479 6.363 8.438 9.812 C8.428 10.797 8.419 11.782 8.41 12.797 C8.399 13.545 8.387 14.292 8.375 15.062 C7.602 15.126 6.828 15.189 6.031 15.254 C-1.795 16.174 -6.51 17.974 -11.625 24.062 C-14.875 28.836 -15.084 32.457 -14.625 38.062 C-13.965 39.053 -13.305 40.043 -12.625 41.062 C-12.625 42.053 -12.625 43.043 -12.625 44.062 C-18.005 45.253 -23.078 46.354 -28.625 46.062 C-31.932 38.586 -34.269 32.604 -31.312 24.438 C-24.791 12.555 -14.175 -0.17 0 0 Z " fill="#2BCAF5" transform="translate(679.625,613.9375)"/>
<path d="M0 0 C3.309 1.557 4.914 4.114 7.125 7 C-10.259 23.773 -34.08 35.867 -56.84 43.306 C-59.583 44.242 -62.259 45.333 -64.936 46.445 C-66.875 47 -66.875 47 -71.875 47 C-71.875 43.37 -71.875 39.74 -71.875 36 C-70.435 35.527 -68.995 35.054 -67.512 34.566 C-45.513 27.21 -25.78 18.074 -7.336 3.883 C-2.261 0 -2.261 0 0 0 Z " fill="#2BCBF4" transform="translate(626.875,650)"/>
<path d="M0 0 C4.315 1.67 7.183 5.683 10.284 8.999 C11.021 9.755 11.757 10.511 12.516 11.29 C15.556 14.514 17.798 16.947 19.257 21.171 C19.096 23.811 19.096 23.811 18.05 25.534 C10.718 31.301 1.604 36.219 -7.904 36.096 C-11.108 35.64 -12.728 34.115 -14.904 31.811 C-17.438 28.312 -17.255 25.03 -16.904 20.811 C-15.114 12.838 -9.944 6.781 -4.216 1.186 C-1.904 -0.189 -1.904 -0.189 0 0 Z " fill="#F5BB3A" transform="translate(327.903564453125,654.188720703125)"/>
<path d="M0 0 C1.65 0 3.3 0 5 0 C4.998 1.099 4.996 2.199 4.993 3.332 C4.973 13.704 4.958 24.077 4.948 34.45 C4.943 39.782 4.936 45.115 4.925 50.447 C4.914 55.595 4.908 60.743 4.905 65.892 C4.903 67.854 4.9 69.816 4.894 71.777 C4.887 74.53 4.886 77.283 4.886 80.035 C4.883 80.842 4.879 81.649 4.876 82.481 C4.884 87.092 5.237 91.451 6 96 C6.763 95.196 7.526 94.391 8.312 93.562 C11 91 11 91 14 90 C17.22 91.416 19.693 93.354 22 96 C23.056 99.226 23.033 101.77 22 105 C20.169 107.26 18.488 108.393 16 110 C11.3 108.192 8.487 106.734 5 103 C5.005 103.644 5.01 104.289 5.016 104.953 C5.037 107.927 5.05 110.901 5.062 113.875 C5.071 114.888 5.079 115.901 5.088 116.945 C5.106 122.619 4.861 128.144 4.225 133.781 C3.925 136.736 3.903 139.657 3.938 142.625 C3.947 143.649 3.956 144.672 3.965 145.727 C3.976 146.477 3.988 147.227 4 148 C15.682 141.276 26.479 133.496 37.105 125.242 C46.455 118 46.455 118 49 118 C47.901 121.296 47.446 121.666 44.711 123.531 C44.024 124.007 43.337 124.482 42.63 124.972 C41.514 125.728 41.514 125.728 40.375 126.5 C38.816 127.577 37.257 128.655 35.699 129.734 C34.911 130.279 34.122 130.824 33.31 131.385 C29.889 133.777 26.538 136.26 23.188 138.75 C16.927 143.383 10.531 147.756 4 152 C2.68 151.34 1.36 150.68 0 150 C0 100.5 0 51 0 0 Z " fill="#21BEF4" transform="translate(514,433)"/>
<path d="M0 0 C7.196 2.378 11.852 8.535 15.5 15 C17.415 19.3 17.845 23.37 17 28 C15.675 31.313 14.311 34.345 11 36 C0.454 37.021 -8.242 32.755 -16.574 26.527 C-18.315 24.663 -18.679 23.518 -19 21 C-17.247 18.535 -15.525 16.408 -13.5 14.188 C-12.95 13.566 -12.4 12.945 -11.833 12.304 C-8.037 8.048 -4.126 3.939 0 0 Z " fill="#F5BA38" transform="translate(702,654)"/>
<path d="M0 0 C9.299 1.578 16.501 5.843 23.039 12.516 C22.45 15.618 21.562 17.42 19.492 19.793 C18.977 20.389 18.461 20.985 17.93 21.6 C17.388 22.211 16.847 22.823 16.289 23.453 C15.5 24.365 15.5 24.365 14.695 25.295 C5.862 35.429 5.862 35.429 2.664 35.766 C-5.071 32.082 -9.93 24.285 -12.961 16.516 C-13.946 11.616 -13.892 7.197 -11.148 2.891 C-7.18 -0.066 -4.857 -0.288 0 0 Z " fill="#F5B938" transform="translate(323.9609375,373.484375)"/>
<path d="M0 0 C3.074 1.808 4.43 2.86 6 6 C7.173 14.863 4.529 20.329 -0.715 27.27 C-3.747 30.952 -6.187 33.833 -11 35 C-12.104 33.896 -13.207 32.793 -14.309 31.688 C-15.587 30.412 -16.872 29.142 -18.16 27.875 C-27.363 18.78 -27.363 18.78 -30 15 C-29.67 11.71 -28.542 10.169 -26.062 8.062 C-18.069 1.678 -10.381 -1.7 0 0 Z " fill="#F6BB38" transform="translate(713,374)"/>
<path d="M0 0 C0.135 0.563 0.271 1.127 0.41 1.707 C2.232 8.207 5.103 11.897 10 16.438 C10.944 17.353 10.944 17.353 11.906 18.287 C14.523 20.801 16.969 22.979 20 25 C18.467 28.781 16.168 30.894 13.125 33.562 C12.261 34.327 11.398 35.091 10.508 35.879 C9.68 36.579 8.853 37.279 8 38 C7.317 38.607 6.634 39.214 5.93 39.84 C4 41 4 41 2.082 40.768 C-0.383 39.858 -1.478 38.803 -3.242 36.867 C-3.834 36.225 -4.426 35.583 -5.035 34.922 C-5.642 34.246 -6.249 33.571 -6.875 32.875 C-7.474 32.223 -8.074 31.57 -8.691 30.898 C-12.553 26.676 -16.296 22.361 -20 18 C-18.148 13.926 -15.427 11.372 -12.125 8.438 C-11.595 7.956 -11.065 7.475 -10.52 6.979 C-2.783 0 -2.783 0 0 0 Z " fill="#379ACD" transform="translate(393,593)"/>
<path d="M0 0 C5.046 1.501 8.11 4.567 11.812 8.125 C12.709 8.97 12.709 8.97 13.623 9.832 C15.088 11.215 16.545 12.607 18 14 C17.179 17.946 15.651 19.795 12.875 22.75 C11.659 24.063 11.659 24.063 10.418 25.402 C9.62 26.26 8.822 27.117 8 28 C4.214 32.241 0.501 36.519 -3 41 C-8.046 39.499 -11.11 36.433 -14.812 32.875 C-15.41 32.312 -16.007 31.748 -16.623 31.168 C-18.088 29.785 -19.545 28.393 -21 27 C-19.871 23.613 -19.271 23.248 -16.438 21.312 C-8.227 15.313 -3.066 9.844 0 0 Z " fill="#3999CD" transform="translate(641,594)"/>
<path d="M0 0 C4.842 2.285 8.718 5.248 11.875 9.562 C15.403 13.609 19.676 15.495 24.875 16.625 C32.393 15.121 38.071 10.463 42.691 4.547 C44.497 2.412 46.489 1.186 49 0 C49.66 0 50.32 0 51 0 C51.625 6.002 51.131 10.117 47.605 15.094 C42.01 21.738 33.543 29.487 24.625 30.312 C14.63 26.694 6.432 21.224 0.828 12.09 C-0.19 9.52 -0.197 7.505 -0.125 4.75 C-0.098 3.412 -0.098 3.412 -0.07 2.047 C-0.047 1.371 -0.024 0.696 0 0 Z " fill="#2CCAF5" transform="translate(491,683)"/>
<path d="M0 0 C2.267 1.085 4.445 2.264 6.628 3.507 C7.378 3.911 8.128 4.315 8.9 4.732 C15.302 8.25 15.302 8.25 17.816 11.195 C17.816 11.855 17.816 12.515 17.816 13.195 C18.476 13.195 19.136 13.195 19.816 13.195 C18.376 16.554 16.692 18.911 13.816 21.195 C8.805 20.698 4.353 17.163 0.105 14.691 C-3.447 13.075 -5.342 12.638 -9.184 13.195 C-12.096 14.608 -12.096 14.608 -14.809 16.57 C-17.923 18.689 -20.8 20.502 -24.184 22.195 C-26.494 20.215 -28.804 18.235 -31.184 16.195 C-26.062 5.95 -11.713 -4.319 0 0 Z " fill="#29C8F5" transform="translate(522.18408203125,721.805419921875)"/>
<path d="M0 0 C0.985 0.018 1.97 0.036 2.984 0.055 C4.106 0.089 4.106 0.089 5.25 0.125 C5.25 1.445 5.25 2.765 5.25 4.125 C6.57 4.455 7.89 4.785 9.25 5.125 C9.672 11.246 9.377 14.275 5.25 19.125 C4.725 19.761 4.201 20.396 3.66 21.051 C0.533 24.35 -1.567 25.972 -6.16 26.566 C-9.386 26.563 -12.54 26.433 -15.75 26.125 C-18.134 12.415 -18.134 12.415 -15.328 7.773 C-10.677 2.308 -7.317 -0.174 0 0 Z " fill="#181E47" transform="translate(359.75,405.875)"/>
<path d="M0 0 C5.447 -0.838 8.596 1.088 12.875 4.16 C17.296 7.988 19.7 11.822 20.5 17.625 C19.959 21.276 18.857 23.828 17 27 C16.01 27 15.02 27 14 27 C12.762 27.082 11.525 27.165 10.25 27.25 C5.649 27.225 2.509 25.967 -1 23 C-6.083 16.874 -5.416 10.69 -5 3 C-3.35 2.67 -1.7 2.34 0 2 C0 1.34 0 0.68 0 0 Z " fill="#17214A" transform="translate(348,629)"/>
<path d="M0 0 C0.33 0 0.66 0 1 0 C1.01 0.761 1.021 1.522 1.031 2.307 C1.129 9.501 1.232 16.695 1.339 23.889 C1.394 27.587 1.448 31.285 1.497 34.983 C1.545 38.555 1.598 42.128 1.653 45.701 C1.673 47.06 1.692 48.419 1.709 49.778 C1.733 51.69 1.764 53.602 1.795 55.514 C1.81 56.6 1.826 57.686 1.842 58.804 C2.012 62.25 2.464 65.593 3 69 C3.763 68.196 4.526 67.391 5.312 66.562 C8 64 8 64 11 63 C14.22 64.416 16.693 66.354 19 69 C20.056 72.226 20.033 74.77 19 78 C17.169 80.26 15.488 81.393 13 83 C8.3 81.192 5.487 79.734 2 76 C2.005 76.665 2.01 77.331 2.016 78.016 C2.037 81.052 2.05 84.089 2.062 87.125 C2.071 88.172 2.079 89.218 2.088 90.297 C2.104 95.309 2.082 100.077 1 105 C0.67 105 0.34 105 0 105 C0 70.35 0 35.7 0 0 Z " fill="#5BD6FB" transform="translate(517,460)"/>
<path d="M0 0 C4.364 2.432 6.638 4.834 8.125 9.625 C8 13 8 13 7.062 15.438 C4.461 17.409 2.298 17.614 -0.93 17.465 C-4.58 16.645 -6.414 14.649 -9 12 C-10.525 8.95 -10.236 6.358 -10 3 C-7.766 -1.073 -4.215 -0.632 0 0 Z " fill="#F3B636" transform="translate(426,363)"/>
<path d="M0 0 C2 2 2 2 2.438 5.812 C2.36 9.354 2.054 9.932 -0.312 12.875 C-4.849 16.462 -7.152 17.627 -13 17 C-15.505 14.899 -15.916 13.345 -16.688 10.188 C-15.752 5.849 -13.702 4.094 -10.305 1.355 C-6.593 -0.828 -4.219 -0.655 0 0 Z " fill="#F2B834" transform="translate(613,363)"/>
<path d="M0 0 C4.379 0.438 6.367 1.621 9.75 4.375 C12.213 8.07 12.14 10.008 11.75 14.375 C10.688 16.312 10.688 16.312 8.75 17.375 C5.451 17.873 3.003 18.093 0.031 16.391 C-2.809 14.135 -5.285 11.913 -6.25 8.375 C-5.843 3.291 -5.507 0.635 0 0 Z " fill="#F1B535" transform="translate(603.25,684.625)"/>
<path d="M0 0 C1.052 -0.021 1.052 -0.021 2.125 -0.043 C4 0.188 4 0.188 6 2.188 C6.776 8.84 6.776 8.84 4.949 12.012 C2.663 14.797 0.805 16.992 -2.875 17.391 C-3.927 17.414 -3.927 17.414 -5 17.438 C-5.701 17.463 -6.402 17.489 -7.125 17.516 C-7.744 17.407 -8.363 17.299 -9 17.188 C-11.513 13.419 -11.53 11.656 -11 7.188 C-8.224 2.554 -5.431 0.05 0 0 Z " fill="#F4B639" transform="translate(427,684.8125)"/>
<path d="M0 0 C2.794 1.987 4.649 3.501 5.453 6.938 C5.647 10.597 5.149 12.714 3.438 16 C1 18 1 18 -2.5 18.625 C-6 18 -6 18 -8.375 15.875 C-10.167 12.704 -10.924 10.644 -11 7 C-8.698 1.936 -5.77 -0.962 0 0 Z " fill="#F5B738" transform="translate(336,526)"/>
<path d="M0 0 C2.75 2.438 2.75 2.438 5 5 C5.33 5.33 5.66 5.66 6 6 C6.574 10.116 6.134 11.781 3.938 15.375 C1 18 1 18 -2.625 18.562 C-6.182 17.97 -6.953 17.806 -9 15 C-9.82 10.161 -9.955 5.52 -7.312 1.312 C-4.46 -0.306 -3.222 -0.707 0 0 Z " fill="#F0B333" transform="translate(698,526)"/>
<path d="M0 0 C0.33 0 0.66 0 1 0 C1.33 29.7 1.66 59.4 2 90 C13.779 82.504 25.097 74.792 36.105 66.242 C45.455 59 45.455 59 48 59 C46.901 62.296 46.446 62.666 43.711 64.531 C43.024 65.007 42.337 65.482 41.63 65.972 C40.514 66.728 40.514 66.728 39.375 67.5 C37.816 68.577 36.257 69.655 34.699 70.734 C33.517 71.551 33.517 71.551 32.31 72.385 C28.889 74.777 25.538 77.26 22.188 79.75 C15.927 84.383 9.531 88.756 3 93 C1.68 92.34 0.36 91.68 -1 91 C-0.67 60.97 -0.34 30.94 0 0 Z " fill="#80D8F8" transform="translate(515,492)"/>
<path d="M0 0 C3.375 0.688 3.375 0.688 4.375 1.688 C4.859 8.096 4.859 8.096 2.867 10.531 C0.858 13.435 1.106 15.386 1.25 18.875 C1.32 20.812 1.369 22.75 1.375 24.688 C0.375 25.688 0.375 25.688 -2.188 25.75 C-2.992 25.729 -3.796 25.709 -4.625 25.688 C-4.602 24.712 -4.579 23.736 -4.555 22.73 C-4.537 21.458 -4.519 20.186 -4.5 18.875 C-4.477 17.61 -4.454 16.346 -4.43 15.043 C-4.349 11.554 -4.349 11.554 -6.625 8.688 C-6.938 5.125 -6.938 5.125 -6.625 1.688 C-3.625 -0.312 -3.625 -0.312 0 0 Z " fill="#0D1B47" transform="translate(517.625,360.3125)"/>
<path d="M0 0 C2.375 1.562 2.375 1.562 4 4 C4.568 7.975 4.623 10.065 2.375 13.438 C-0.717 15.472 -2.364 15.606 -6 15 C-8.375 13.438 -8.375 13.438 -10 11 C-10.568 7.025 -10.623 4.935 -8.375 1.562 C-5.283 -0.472 -3.636 -0.606 0 0 Z " fill="#1C2453" transform="translate(508,525)"/>
<path d="M0 0 C1.938 1.188 1.938 1.188 3 3 C3.5 5.875 3.5 5.875 3 9 C0.683 12.046 -0.778 13.732 -4.562 14.562 C-7.935 13.784 -9.057 12.878 -11 10 C-11.59 7.038 -11.393 5.098 -11 2 C-7.943 -2.036 -4.558 -1.16 0 0 Z " fill="#121B4A" transform="translate(533,526)"/>
<path d="M0 0 C9.73 -0.623 9.73 -0.623 14.438 1.688 C17.536 4.483 20.125 7.25 22 11 C22.406 19.391 22.406 19.391 20 23 C19.01 23 18.02 23 17 23 C16.951 22.264 16.902 21.528 16.852 20.77 C16.777 19.794 16.702 18.818 16.625 17.812 C16.555 16.85 16.486 15.887 16.414 14.895 C15.973 11.814 15.629 9.666 14 7 C10.924 5.74 10.924 5.74 7.375 5.188 C6.186 4.954 4.998 4.721 3.773 4.48 C2.858 4.322 1.943 4.163 1 4 C0.67 2.68 0.34 1.36 0 0 Z " fill="#DEA82C" transform="translate(667,406)"/>
<path d="M0 0 C1.32 0.66 2.64 1.32 4 2 C4.578 7.819 4.892 12.59 1.375 17.5 C-1.896 21.23 -5.036 23.769 -10.156 24.168 C-12.105 24.185 -14.054 24.101 -16 24 C-16 22.68 -16 21.36 -16 20 C-15.325 19.841 -14.649 19.683 -13.953 19.52 C-8.469 18.085 -5.026 17.13 -2 12 C-0.783 9.566 -0.68 7.582 -0.438 4.875 C-0.354 3.965 -0.27 3.055 -0.184 2.117 C-0.093 1.069 -0.093 1.069 0 0 Z " fill="#E4A824" transform="translate(685,632)"/>
<path d="M0 0 C1.32 0 2.64 0 4 0 C4.026 0.724 4.052 1.449 4.078 2.195 C4.429 8.177 4.839 12.363 9 17 C12.48 19.61 16.788 19.579 21 20 C20.34 21.32 19.68 22.64 19 24 C12.905 24.428 8.769 24.032 4 20 C-1.083 13.874 -0.416 7.69 0 0 Z " fill="#E8AA25" transform="translate(343,632)"/>
<path d="M0 0 C0.985 0.018 1.97 0.036 2.984 0.055 C4.106 0.089 4.106 0.089 5.25 0.125 C5.25 1.115 5.25 2.105 5.25 3.125 C4.43 3.284 3.61 3.442 2.766 3.605 C-3.939 4.923 -3.939 4.923 -9.438 8.688 C-11.281 12.111 -11.964 14.368 -12.312 18.25 C-12.438 19.615 -12.438 19.615 -12.566 21.008 C-12.627 21.706 -12.688 22.405 -12.75 23.125 C-13.74 23.125 -14.73 23.125 -15.75 23.125 C-17.22 18.715 -17.591 14.718 -16.75 10.125 C-12.646 3.304 -7.998 -0.19 0 0 Z " fill="#E6B339" transform="translate(359.75,405.875)"/>
<path d="M0 0 C2 0 2 0 3.543 1.355 C7.946 6.26 7.946 6.26 8.188 9.562 C6.543 12.937 4.598 15.275 2 18 C1.34 18 0.68 18 0 18 C0 12.06 0 6.12 0 0 Z " fill="#29C1E8" transform="translate(301,526)"/>
<path d="M0 0 C0 5.94 0 11.88 0 18 C-6.686 12.651 -6.686 12.651 -7.934 10.062 C-8.032 7.01 -6.673 5.935 -4.625 3.75 C-3.654 2.69 -3.654 2.69 -2.664 1.609 C-1 0 -1 0 0 0 Z " fill="#2AC7E9" transform="translate(727,526)"/>
<path d="M0 0 C1.65 0 3.3 0 5 0 C5.172 9.04 4.633 17.989 4 27 C1.209 23.842 0.605 21.762 0.488 17.578 C0.453 16.553 0.417 15.529 0.381 14.473 C0.358 13.409 0.336 12.346 0.312 11.25 C0.278 10.171 0.244 9.092 0.209 7.98 C0.127 5.32 0.057 2.661 0 0 Z " fill="#1CABDE" transform="translate(514,433)"/>
<path d="M0 0 C0.33 0 0.66 0 1 0 C1.33 2.31 1.66 4.62 2 7 C2.763 6.196 3.526 5.391 4.312 4.562 C7 2 7 2 10 1 C10.66 1.66 11.32 2.32 12 3 C8.535 4.485 8.535 4.485 5 6 C4.586 11.22 4.586 11.22 6.062 16.062 C9.243 17.601 11.663 16.834 15 16 C16.923 14.584 16.923 14.584 18 13 C17.651 16.255 16.979 17.019 14.438 19.25 C13.633 19.827 12.829 20.405 12 21 C7.355 19.214 4.377 17.767 1 14 C0.67 14 0.34 14 0 14 C0 9.38 0 4.76 0 0 Z " fill="#7ED6EF" transform="translate(518,522)"/>
<path d="M0 0 C0.33 0.99 0.66 1.98 1 3 C-5.93 7.29 -12.86 11.58 -20 16 C-20.33 15.01 -20.66 14.02 -21 13 C-5.077 0 -5.077 0 0 0 Z " fill="#212B5C" transform="translate(491,430)"/>
<path d="M0 0 C1.32 0 2.64 0 4 0 C4.33 6.27 4.66 12.54 5 19 C0.033 14.033 0.033 14.033 -0.098 9.961 C-0.086 8.778 -0.074 7.594 -0.062 6.375 C-0.053 5.186 -0.044 3.998 -0.035 2.773 C-0.024 1.858 -0.012 0.943 0 0 Z " fill="#EAAC2D" transform="translate(343,632)"/>
<path d="M0 0 C-1.126 3.378 -1.742 3.799 -4.57 5.742 C-5.303 6.251 -6.035 6.761 -6.789 7.285 C-7.945 8.072 -7.945 8.072 -9.125 8.875 C-10.628 9.914 -12.13 10.953 -13.633 11.992 C-14.363 12.493 -15.093 12.994 -15.845 13.511 C-18.923 15.638 -21.962 17.816 -25 20 C-25.66 19.67 -26.32 19.34 -27 19 C-2.929 0 -2.929 0 0 0 Z " fill="#C6ECF4" transform="translate(563,551)"/>
<path d="M0 0 C1.32 0.99 2.64 1.98 4 3 C3.01 3.495 3.01 3.495 2 4 C1.67 19.51 1.34 35.02 1 51 C0.67 51 0.34 51 0 51 C0 34.17 0 17.34 0 0 Z " fill="#303765" transform="translate(439,529)"/>
<path d="M0 0 C1.418 0.115 2.834 0.243 4.25 0.375 C5.039 0.445 5.828 0.514 6.641 0.586 C9 1 9 1 13 3 C9.7 3 6.4 3 3 3 C2.67 5.31 2.34 7.62 2 10 C2.99 9.67 3.98 9.34 5 9 C7.188 9.938 7.188 9.938 9 11 C9 11.66 9 12.32 9 13 C1.125 12.125 1.125 12.125 0 11 C-0.072 9.147 -0.084 7.292 -0.062 5.438 C-0.053 4.426 -0.044 3.414 -0.035 2.371 C-0.024 1.589 -0.012 0.806 0 0 Z " fill="#1DBCE6" transform="translate(555,370)"/>
<path d="M0 0 C3.668 1.539 5.986 3.755 8.766 6.57 C9.655 7.466 10.545 8.362 11.461 9.285 C12.381 10.222 13.302 11.159 14.25 12.125 C15.195 13.08 16.14 14.034 17.086 14.988 C19.395 17.321 21.7 19.658 24 22 C23.67 22.66 23.34 23.32 23 24 C11 12 11 12 8.867 9.656 C8.086 8.821 7.305 7.986 6.5 7.125 C5.768 6.323 5.036 5.521 4.281 4.695 C2.098 2.681 2.098 2.681 -0.781 3.242 C-1.513 3.492 -2.246 3.742 -3 4 C-2.01 2.68 -1.02 1.36 0 0 Z " fill="#1FCFF2" transform="translate(515,342)"/>
<path d="M0 0 C1.051 0.018 2.101 0.036 3.184 0.055 C3.969 0.078 4.754 0.101 5.562 0.125 C5.562 0.455 5.562 0.785 5.562 1.125 C4.838 1.162 4.114 1.2 3.367 1.238 C2.4 1.304 1.434 1.37 0.438 1.438 C-0.989 1.525 -0.989 1.525 -2.445 1.613 C-6.087 2.087 -6.087 2.087 -11.438 5.125 C-11.768 12.385 -12.097 19.645 -12.438 27.125 C-12.768 27.125 -13.097 27.125 -13.438 27.125 C-13.438 18.875 -13.438 10.625 -13.438 2.125 C-8.097 0.599 -5.229 -0.118 0 0 Z " fill="#C09237" transform="translate(754.4375,517.875)"/>
<path d="M0 0 C0.99 0.33 1.98 0.66 3 1 C-0.12 3.174 -3.247 5.338 -6.375 7.5 C-7.264 8.12 -8.154 8.74 -9.07 9.379 C-10.346 10.259 -10.346 10.259 -11.648 11.156 C-12.434 11.701 -13.219 12.246 -14.029 12.807 C-16 14 -16 14 -18 14 C-16.714 10.141 -15.246 9.643 -11.812 7.562 C-8.635 5.621 -5.512 3.689 -2.5 1.5 C-1.675 1.005 -0.85 0.51 0 0 Z " fill="#40C7EA" transform="translate(534,571)"/>
<path d="M0 0 C0.66 0.66 1.32 1.32 2 2 C2.66 1.67 3.32 1.34 4 1 C4 5.62 4 10.24 4 15 C3.34 13.68 2.68 12.36 2 11 C1.34 12.32 0.68 13.64 0 15 C0 10.05 0 5.1 0 0 Z " fill="#344067" transform="translate(515,646)"/>
<path d="M0 0 C-0.33 4.95 -0.66 9.9 -1 15 C-1.99 15 -2.98 15 -4 15 C-4.081 13.063 -4.139 11.125 -4.188 9.188 C-4.222 8.109 -4.257 7.03 -4.293 5.918 C-4 3 -4 3 -2.551 1.113 C-1 0 -1 0 0 0 Z " fill="#F8B72B" transform="translate(348,414)"/>
<path d="M0 0 C0.66 0 1.32 0 2 0 C0.172 5.818 -3.452 9.198 -8.562 12.312 C-12 14 -12 14 -16 14 C-16 13.34 -16 12.68 -16 12 C-12.535 11.505 -12.535 11.505 -9 11 C-9 10.34 -9 9.68 -9 9 C-6 7 -6 7 -3 7 C-2.691 6.216 -2.381 5.433 -2.062 4.625 C-1 2 -1 2 0 0 Z " fill="#EBB42E" transform="translate(530,774)"/>
<path d="M0 0 C4.423 0.583 7.516 2.268 11.312 4.562 C12.381 5.203 13.45 5.844 14.551 6.504 C15.359 6.998 16.167 7.491 17 8 C16.34 8.66 15.68 9.32 15 10 C14.319 9.567 13.639 9.134 12.938 8.688 C9.72 6.839 6.412 5.453 3 4 C2.01 3.34 1.02 2.68 0 2 C0 1.34 0 0.68 0 0 Z " fill="#22CAF5" transform="translate(595,385)"/>
<path d="M0 0 C0 0.66 0 1.32 0 2 C-2.599 3.199 -5.203 4.385 -7.812 5.562 C-8.55 5.905 -9.288 6.247 -10.049 6.6 C-10.761 6.919 -11.473 7.238 -12.207 7.566 C-12.862 7.865 -13.516 8.163 -14.191 8.471 C-16 9 -16 9 -19 8 C-13.807 4.07 -6.661 0 0 0 Z " fill="#29D4F9" transform="translate(459,384)"/>
<path d="M0 0 C0.66 0 1.32 0 2 0 C3.04 3.416 3.134 6.564 3.125 10.125 C3.129 11.707 3.129 11.707 3.133 13.32 C3 16 3 16 2 18 C1.34 18 0.68 18 0 18 C0 12.06 0 6.12 0 0 Z " fill="#22AAD0" transform="translate(301,526)"/>
<path d="M0 0 C0.66 0 1.32 0 2 0 C2.534 7.245 1.716 11.729 -2 18 C-3.516 14.025 -2.499 10.795 -1.562 6.75 C-1.275 5.487 -0.988 4.223 -0.691 2.922 C-0.463 1.958 -0.235 0.993 0 0 Z " fill="#E2AF2C" transform="translate(717,380)"/>
<path d="M0 0 C0.66 0 1.32 0 2 0 C3.823 6.154 4.236 11.596 4 18 C0.432 12.648 -0.327 6.37 0 0 Z " fill="#22C4EE" transform="translate(358,566)"/>
<path d="M0 0 C3.688 1.229 4.724 2.939 7 6 C7.66 5.01 8.32 4.02 9 3 C9.66 3.33 10.32 3.66 11 4 C10.34 5.98 9.68 7.96 9 10 C7.35 10 5.7 10 4 10 C3.795 9.446 3.59 8.891 3.379 8.32 C3.109 7.596 2.84 6.871 2.562 6.125 C2.296 5.406 2.029 4.686 1.754 3.945 C1.021 1.964 1.021 1.964 0 0 Z " fill="#1C3A6C" transform="translate(510,423)"/>
<path d="M0 0 C0 3.699 -0.858 4.402 -3.25 7.125 C-3.853 7.829 -4.457 8.533 -5.078 9.258 C-7.105 11.095 -8.33 11.61 -11 12 C-11 11.01 -11 10.02 -11 9 C-8.594 6.738 -8.594 6.738 -5.5 4.312 C-4.479 3.504 -3.458 2.696 -2.406 1.863 C-1.612 1.248 -0.818 0.634 0 0 Z " fill="#2E3163" transform="translate(567,647)"/>
<path d="M0 0 C2.968 1.457 5.864 3.012 8.75 4.625 C9.949 5.294 9.949 5.294 11.172 5.977 C11.775 6.314 12.378 6.652 13 7 C12.67 7.99 12.34 8.98 12 10 C10.181 8.906 8.37 7.8 6.562 6.688 C5.553 6.073 4.544 5.458 3.504 4.824 C1 3 1 3 0 0 Z " fill="#26315B" transform="translate(577,452)"/>
<path d="M0 0 C1.65 0 3.3 0 5 0 C4.67 2.97 4.34 5.94 4 9 C3.01 9 2.02 9 1 9 C0.67 6.03 0.34 3.06 0 0 Z " fill="#1593C5" transform="translate(514,433)"/>
<path d="M0 0 C1.916 -0.081 3.833 -0.139 5.75 -0.188 C7.351 -0.24 7.351 -0.24 8.984 -0.293 C12.3 0.029 13.59 0.771 16 3 C15.67 3.66 15.34 4.32 15 5 C13.02 4.34 11.04 3.68 9 3 C9 2.34 9 1.68 9 1 C6.03 1.66 3.06 2.32 0 3 C0 2.01 0 1.02 0 0 Z " fill="#F1B62C" transform="translate(701,374)"/>
<path d="M0 0 C3.777 1.813 7.373 3.907 11 6 C9.02 6.99 9.02 6.99 7 8 C5.825 7.242 4.66 6.468 3.5 5.688 C2.525 5.044 2.525 5.044 1.531 4.387 C1.026 3.929 0.521 3.471 0 3 C0 2.01 0 1.02 0 0 Z " fill="#24C4EC" transform="translate(415,658)"/>
<path d="M0 0 C0.66 0.66 1.32 1.32 2 2 C-2.29 4.97 -6.58 7.94 -11 11 C-11.66 10.67 -12.32 10.34 -13 10 C-8.71 6.7 -4.42 3.4 0 0 Z " fill="#90D7EF" transform="translate(549,560)"/>
<path d="M0 0 C0.33 0 0.66 0 1 0 C1.082 1.416 1.139 2.833 1.188 4.25 C1.222 5.039 1.257 5.828 1.293 6.641 C0.936 9.517 -0.118 10.846 -2 13 C-2.054 11.209 -2.093 9.417 -2.125 7.625 C-2.148 6.627 -2.171 5.63 -2.195 4.602 C-2 2 -2 2 0 0 Z " fill="#0A1A45" transform="translate(687,530)"/>
<path d="M0 0 C0.722 0.103 1.444 0.206 2.188 0.312 C1.569 0.395 0.95 0.477 0.312 0.562 C-1.966 1.105 -1.966 1.105 -2.875 3.188 C-3.339 4.239 -3.339 4.239 -3.812 5.312 C-4.792 6.333 -5.791 7.334 -6.812 8.312 C-7.473 9.303 -8.132 10.293 -8.812 11.312 C-8.541 7.416 -8.002 5.554 -5.562 2.438 C-2.812 0.312 -2.812 0.312 0 0 Z " fill="#D09C34" transform="translate(333.8125,525.6875)"/>
<path d="M0 0 C1.98 0 3.96 0 6 0 C5.34 1.32 4.68 2.64 4 4 C1.36 4 -1.28 4 -4 4 C-3.01 3.67 -2.02 3.34 -1 3 C-0.67 2.01 -0.34 1.02 0 0 Z " fill="#D99E1F" transform="translate(358,652)"/>
<path d="M0 0 C0.66 0 1.32 0 2 0 C0.514 4.593 -1.85 7.436 -5 11 C-5.66 10.01 -6.32 9.02 -7 8 C-5.882 6.661 -4.755 5.329 -3.625 4 C-2.685 2.886 -2.685 2.886 -1.727 1.75 C-1.157 1.173 -0.587 0.595 0 0 Z " fill="#EFB62E" transform="translate(337,396)"/>
<path d="M0 0 C8.571 -0.286 8.571 -0.286 12 2 C12 2.99 12 3.98 12 5 C10.561 4.547 9.124 4.088 7.688 3.625 C6.887 3.37 6.086 3.115 5.262 2.852 C3 2 3 2 0 0 Z " fill="#1FBBEB" transform="translate(570,385)"/>
<path d="M0 0 C0.66 0.33 1.32 0.66 2 1 C-0.79 4.487 -3.252 7.502 -7 10 C-7.66 9.67 -8.32 9.34 -9 9 C-6.319 5.426 -3.574 2.681 0 0 Z " fill="#23275D" transform="translate(537,672)"/>
<path d="M0 0 C0.66 0 1.32 0 2 0 C1.344 4.485 0.299 8.669 -1 13 C-1.66 13 -2.32 13 -3 13 C-2.01 8.71 -1.02 4.42 0 0 Z " fill="#222A54" transform="translate(772,590)"/>
<path d="M0 0 C0.33 0.99 0.66 1.98 1 3 C-2.699 6.699 -2.699 6.699 -5 8 C-8.375 7.312 -8.375 7.312 -11 6 C-11 5.34 -11 4.68 -11 4 C-9.928 4.082 -8.855 4.165 -7.75 4.25 C-3.96 4.362 -3.96 4.362 -1.562 2 C-1.047 1.34 -0.531 0.68 0 0 Z " fill="#98E3F5" transform="translate(535,535)"/>
<path d="M0 0 C0.99 0.33 1.98 0.66 3 1 C3.125 8.75 3.125 8.75 2 11 C1.34 11 0.68 11 0 11 C0 7.37 0 3.74 0 0 Z " fill="#E4AD33" transform="translate(338,530)"/>
<path d="M0 0 C0.66 0 1.32 0 2 0 C2.688 3.312 2.688 3.312 3 7 C1.562 8.938 1.562 8.938 0 10 C-1.231 6.306 -0.644 3.794 0 0 Z " fill="#DCA82C" transform="translate(431,369)"/>
<path d="M0 0 C-0.577 0.247 -1.155 0.495 -1.75 0.75 C-4.387 2.215 -6.074 3.675 -8 6 C-8.797 8.642 -8.797 8.642 -9 11 C-9.33 11 -9.66 11 -10 11 C-10.483 4.724 -10.483 4.724 -8.375 1.562 C-5.397 -0.396 -3.496 -0.318 0 0 Z " fill="#363D6E" transform="translate(508,525)"/>
<path d="M0 0 C1.98 0 3.96 0 6 0 C6 3.3 6 6.6 6 10 C3.848 6.772 3.799 5.716 4 2 C2.68 2 1.36 2 0 2 C0 1.34 0 0.68 0 0 Z " fill="#FEC326" transform="translate(280,519)"/>
<path d="M0 0 C3.083 1.199 6.063 2.477 9 4 C9 4.99 9 5.98 9 7 C5.005 5.63 2.2 3.743 -1 1 C-0.67 0.67 -0.34 0.34 0 0 Z " fill="#25305C" transform="translate(593,462)"/>
<path d="M0 0 C0.66 0.33 1.32 0.66 2 1 C0.876 2.292 -0.249 3.584 -1.375 4.875 C-2.001 5.594 -2.628 6.314 -3.273 7.055 C-4.474 8.408 -5.721 9.721 -7 11 C-7.99 10.67 -8.98 10.34 -10 10 C-9.529 9.613 -9.059 9.227 -8.574 8.828 C-5.318 6.105 -2.345 3.587 0 0 Z " fill="#0C1B4C" transform="translate(366,420)"/>
<path d="M0 0 C0.33 0 0.66 0 1 0 C1.186 0.928 1.371 1.856 1.562 2.812 C3.107 6.238 3.386 6.521 6.625 7.875 C7.739 8.246 8.852 8.618 10 9 C10 9.33 10 9.66 10 10 C3.578 10.485 3.578 10.485 1.062 8.375 C-0.251 5.44 -0.217 3.181 0 0 Z " fill="#D79F36" transform="translate(597,370)"/>
<path d="M0 0 C0 0.66 0 1.32 0 2 C-4.455 3.485 -4.455 3.485 -9 5 C-9 4.01 -9 3.02 -9 2 C-5.629 0.502 -3.796 0 0 0 Z " fill="#1B215C" transform="translate(599,775)"/>
<path d="M0 0 C0.99 0 1.98 0 3 0 C1.25 3.875 1.25 3.875 -1 5 C-3.672 5.134 -6.323 5.043 -9 5 C-9 4.67 -9 4.34 -9 4 C-7.886 3.711 -6.772 3.423 -5.625 3.125 C-1.997 2.308 -1.997 2.308 0 0 Z " fill="#E3A730" transform="translate(427,697)"/>
<path d="M0 0 C3.937 1.312 6.227 2.919 9 6 C8.01 6.495 8.01 6.495 7 7 C4.525 5.886 2.321 4.418 0 3 C0 2.01 0 1.02 0 0 Z " fill="#283160" transform="translate(564,444)"/>
<path d="M0 0 C0.66 0.66 1.32 1.32 2 2 C0.062 2.562 0.062 2.562 -2 3 C-2.33 2.67 -2.66 2.34 -3 2 C-4.65 2.66 -6.3 3.32 -8 4 C-8.33 3.01 -8.66 2.02 -9 1 C-5.987 -0.507 -3.317 -0.178 0 0 Z " fill="#EAAE2B" transform="translate(426,363)"/>
<path d="M0 0 C0.33 0.99 0.66 1.98 1 3 C-4.445 4.485 -4.445 4.485 -10 6 C-10 5.34 -10 4.68 -10 4 C-6.7 2.68 -3.4 1.36 0 0 Z " fill="#1D2157" transform="translate(579,781)"/>
<path d="M0 0 C0.66 0.33 1.32 0.66 2 1 C1.67 1.99 1.34 2.98 1 4 C-1.562 5.188 -1.562 5.188 -4 6 C-4 5.01 -4 4.02 -4 3 C-2 1.312 -2 1.312 0 0 Z " fill="#252C5B" transform="translate(447,456)"/>
<path d="M0 0 C0.66 0.33 1.32 0.66 2 1 C0.02 3.31 -1.96 5.62 -4 8 C-5.32 7.67 -6.64 7.34 -8 7 C-5.36 4.69 -2.72 2.38 0 0 Z " fill="#343768" transform="translate(592,626)"/>
<path d="M0 0 C-2.937 1.523 -5.917 2.801 -9 4 C-9 3.01 -9 2.02 -9 1 C-5.649 -1.11 -3.779 -1.05 0 0 Z " fill="#1F255E" transform="translate(554,791)"/>
<path d="M0 0 C2.438 0.75 2.438 0.75 5 2 C5.33 3.32 5.66 4.64 6 6 C3.36 4.68 0.72 3.36 -2 2 C-1.34 1.34 -0.68 0.68 0 0 Z " fill="#2D3662" transform="translate(556,439)"/>
<path d="M0 0 C3.718 1.239 4.674 2.923 7 6 C7.66 6.66 8.32 7.32 9 8 C5.029 8 3.835 6.686 1 4 C0.188 1.75 0.188 1.75 0 0 Z " fill="#1FCCF0" transform="translate(664,423)"/>
<path d="M0 0 C2.31 0 4.62 0 7 0 C6.67 0.99 6.34 1.98 6 3 C4.02 3 2.04 3 0 3 C0 2.01 0 1.02 0 0 Z " fill="#F8BC34" transform="translate(667,406)"/>
<path d="M0 0 C0.99 0.33 1.98 0.66 3 1 C-0.465 3.97 -0.465 3.97 -4 7 C-4 4 -4 4 -2 1.812 C-1.34 1.214 -0.68 0.616 0 0 Z " fill="#36D5F8" transform="translate(402,651)"/>
<path d="M0 0 C0.99 0 1.98 0 3 0 C3.33 2.31 3.66 4.62 4 7 C3.01 7.495 3.01 7.495 2 8 C1.34 5.36 0.68 2.72 0 0 Z " fill="#29D5FB" transform="translate(671,469)"/>
<path d="M0 0 C4.75 0.75 4.75 0.75 7 3 C6.67 3.66 6.34 4.32 6 5 C3.562 4.188 3.562 4.188 1 3 C0.67 2.01 0.34 1.02 0 0 Z " fill="#1FC1ED" transform="translate(595,385)"/>
<path d="M0 0 C2.31 0 4.62 0 7 0 C5.68 0.33 4.36 0.66 3 1 C3 1.66 3 2.32 3 3 C1.35 3.33 -0.3 3.66 -2 4 C-1.34 2.68 -0.68 1.36 0 0 Z " fill="#EAAA32" transform="translate(600,685)"/>
<path d="M0 0 C0.66 0 1.32 0 2 0 C2.33 0.99 2.66 1.98 3 3 C1.35 3.66 -0.3 4.32 -2 5 C-2 2 -2 2 0 0 Z " fill="#202757" transform="translate(456,450)"/>
<path d="M0 0 C1.65 0 3.3 0 5 0 C4.67 1.32 4.34 2.64 4 4 C3.01 4 2.02 4 1 4 C0.01 4.495 0.01 4.495 -1 5 C-0.67 3.35 -0.34 1.7 0 0 Z " fill="#1F366A" transform="translate(514,392)"/>
<path d="M0 0 C0.66 0.33 1.32 0.66 2 1 C0.25 6.75 0.25 6.75 -2 9 C-2.25 3.375 -2.25 3.375 0 0 Z " fill="#EDB52E" transform="translate(716,389)"/>
<path d="M0 0 C0.66 0 1.32 0 2 0 C1.688 1.875 1.688 1.875 1 4 C0.01 4.66 -0.98 5.32 -2 6 C-2.99 5.67 -3.98 5.34 -5 5 C-4 3 -4 3 -1 2 C-0.67 1.34 -0.34 0.68 0 0 Z " fill="#EDB22A" transform="translate(611,373)"/>
<path d="M0 0 C0.66 0.66 1.32 1.32 2 2 C-1.96 3.98 -1.96 3.98 -6 6 C-3.75 1.5 -3.75 1.5 0 0 Z " fill="#E8EAEE" transform="translate(384,307)"/>
<path d="M0 0 C0.33 0 0.66 0 1 0 C1 2.31 1 4.62 1 7 C1.66 7 2.32 7 3 7 C2.67 8.32 2.34 9.64 2 11 C1.34 11 0.68 11 0 11 C0 7.37 0 3.74 0 0 Z " fill="#1EB2DE" transform="translate(555,686)"/>
</svg>