<svg version="1.1" xmlns="http://www.w3.org/2000/svg" width="1024" height="1024">
<path d="M0 0 C337.92 0 675.84 0 1024 0 C1024 337.92 1024 675.84 1024 1024 C686.08 1024 348.16 1024 0 1024 C0 686.08 0 348.16 0 0 Z " fill="#CCB4B6" transform="translate(0,0)"/>
<path d="M0 0 C0.11 0.946 0.219 1.892 0.332 2.867 C5.842 49.354 18.37 102.25 56.84 132.766 C75.369 145.867 95.234 153.383 118 153 C118.437 151.79 118.437 151.79 118.883 150.555 C120 148 120 148 121.875 147.125 C124 147 124 147 125.884 147.589 C128.517 148.1 129.58 147.603 131.977 146.453 C132.731 146.102 133.485 145.752 134.262 145.391 C135.432 144.826 135.432 144.826 136.625 144.25 C169.143 128.739 208.202 132.959 243.109 135.711 C256.957 136.79 270.734 137.334 284.625 137.375 C285.484 137.382 286.344 137.39 287.229 137.398 C298.839 137.482 309.636 136.326 321 134 C323.121 133.616 325.244 133.238 327.367 132.867 C329.203 132.537 331.039 132.206 332.875 131.875 C333.822 131.706 334.77 131.537 335.746 131.363 C336.652 131.2 337.559 131.036 338.492 130.867 C339.29 130.724 340.088 130.581 340.91 130.433 C343.179 130.006 343.179 130.006 346 129 C349.25 128.438 349.25 128.438 353 129 C354.911 130.727 356.4 132.628 357.996 134.648 C361.763 139.069 366.415 142.47 371 146 C371.723 146.574 372.446 147.147 373.191 147.738 C394.159 163.454 422.266 174.579 448.586 175.316 C449.639 175.348 449.639 175.348 450.713 175.379 C452.933 175.444 455.154 175.503 457.375 175.562 C458.889 175.606 460.404 175.649 461.918 175.693 C465.612 175.8 469.306 175.901 473 176 C478.708 193.123 471.248 214.99 463.812 230.516 C456.357 244.849 443.673 259.681 429 267 C428.34 267 427.68 267 427 267 C428.365 262.105 430.598 258.354 433.5 254.25 C444.042 238.843 457.789 218.322 457 199 C455.68 198.67 454.36 198.34 453 198 C452.683 199.212 452.366 200.423 452.039 201.672 C447.058 219.884 439.101 235.548 428.467 251.115 C421.457 261.431 421.457 261.431 419.449 273.461 C422.194 286.113 431.773 297.251 439.185 307.489 C440.904 309.867 442.607 312.255 444.305 314.648 C455.195 329.944 466.582 344.907 479 359 C479.648 359.757 480.297 360.513 480.965 361.293 C487.971 368.951 497.442 373.316 506.673 377.744 C517.511 382.971 517.511 382.971 521 388 C521.663 391.022 521.467 392.836 521 396 C519.465 397.738 519.465 397.738 518 399 C517.469 398.518 516.938 398.036 516.391 397.539 C515.331 396.592 515.331 396.592 514.25 395.625 C513.554 394.999 512.858 394.372 512.141 393.727 C508.026 390.407 505.292 389.759 500 390 C501.203 393.61 502.154 393.989 505.312 395.938 C508.595 398.033 511.4 400.061 514 403 C513.34 404.32 512.68 405.64 512 407 C511.34 407 510.68 407 510 407 C508.333 405.333 506.667 403.667 505 402 C502 399.951 499.513 398.802 496 398 C496.41 398.531 496.82 399.062 497.242 399.609 C497.781 400.316 498.32 401.022 498.875 401.75 C499.676 402.794 499.676 402.794 500.492 403.859 C501.892 405.847 502.979 407.798 504 410 C496.842 414.581 490.38 415.015 482 414 C466.676 410.13 454.561 398.023 443.483 387.402 C441.623 385.644 439.699 383.972 437.75 382.312 C433.852 378.956 430.275 375.309 426.688 371.625 C424.687 369.671 422.691 367.866 420.566 366.059 C414.707 360.978 409.29 355.439 403.818 349.948 C401.942 348.067 400.06 346.19 398.178 344.314 C392.751 338.891 387.371 333.481 382.399 327.631 C380.262 325.139 377.96 322.806 375.688 320.438 C362.125 305.82 354.878 288.912 348.488 270.285 C346.947 265.805 345.297 261.37 343.625 256.938 C343.23 255.891 343.23 255.891 342.828 254.824 C342.22 253.216 341.61 251.608 341 250 C339.68 250 338.36 250 337 250 C336.612 256.039 337.955 260.661 340 266.312 C340.565 267.912 341.128 269.512 341.688 271.113 C341.939 271.812 342.19 272.511 342.449 273.232 C343 275 343 275 343 277 C334.832 277.452 327.521 275.753 319.625 273.812 C318.27 273.487 316.916 273.162 315.561 272.838 C304.231 270.112 292.964 267.174 281.723 264.105 C236.179 248.522 236.179 248.522 191 254 C180.316 260.225 174.087 269.04 167.631 279.327 C158.229 294.275 148.249 302.904 130.954 307.413 C125.926 308.412 120.986 308.444 115.875 308.375 C114.778 308.365 113.68 308.355 112.549 308.344 C98.022 308.069 84.79 304.879 70.839 300.982 C62.323 298.547 62.323 298.547 53.875 300.375 C48.957 304.865 47.399 309.81 46.582 316.344 C46.196 325.778 48.646 332.517 52.924 340.786 C61.108 356.653 61.108 356.653 59 366 C57.461 367.828 57.461 367.828 56 369 C55.818 368.313 55.636 367.626 55.449 366.918 C55.198 366.017 54.946 365.116 54.688 364.188 C54.444 363.294 54.2 362.401 53.949 361.48 C52.971 358.925 52.149 357.663 50 356 C49.34 356 48.68 356 48 356 C48.165 356.784 48.33 357.567 48.5 358.375 C49.13 362.94 49.082 367.401 49 372 C42.622 372.456 38.275 371.739 33 368 C26.283 362.078 21.763 353.783 20 345 C18.41 316.871 17.336 276.537 35 253 C37.843 249.828 40.265 248.223 44.527 247.676 C47.75 247.614 50.764 247.672 53.891 248.502 C57.499 249.354 61.12 249.268 64.812 249.312 C65.594 249.342 66.376 249.371 67.182 249.4 C72.955 249.463 76.314 248.434 81 245 C82.562 242.97 82.562 242.97 83.312 240.688 C83.597 239.969 83.882 239.251 84.176 238.512 C84.448 237.683 84.72 236.854 85 236 C85.52 234.43 85.52 234.43 86.051 232.828 C87.191 228.228 87.534 223.777 87.875 219.062 C89.333 202.271 93.406 186.497 102.809 172.262 C104.235 169.555 103.87 168.815 103 166 C102.354 165.991 101.708 165.981 101.042 165.972 C81.189 165.616 61.245 164.19 42 159 C41.363 158.836 40.725 158.672 40.068 158.503 C13.91 151.721 -10.043 138.225 -25 115 C-36.484 95.192 -40.009 74.458 -34.543 52.021 C-30.927 38.575 -16.75 0 0 0 Z " fill="#FDFCF3" transform="translate(250,463)"/>
<path d="M0 0 C0.994 -0.008 1.988 -0.015 3.012 -0.023 C17.437 0.015 30.618 4.734 41.5 14.25 C42.449 14.972 43.398 15.694 44.375 16.438 C46.459 18.215 47.966 19.99 49.5 22.25 C52.635 20.807 55.196 19.023 57.938 16.938 C69.437 8.936 80.759 6.645 94.5 8.25 C104.834 10.315 113.455 15.443 120.5 23.25 C120.981 23.727 121.462 24.204 121.957 24.695 C128.016 31.046 131.8 39.164 131.812 48 C131.734 49.418 131.641 50.836 131.5 52.25 C132.469 52.333 133.439 52.415 134.438 52.5 C145.678 54.215 153.863 61.465 160.812 70.125 C170.169 83.458 172.73 99.688 170.113 115.602 C168.053 125.196 164.472 133.404 158.5 141.25 C158.028 141.902 157.556 142.555 157.07 143.227 C149.531 152.896 137.436 159.009 125.5 161.25 C123.584 161.317 121.667 161.335 119.75 161.312 C118.765 161.303 117.78 161.294 116.766 161.285 C116.018 161.274 115.27 161.262 114.5 161.25 C114.535 161.928 114.57 162.606 114.605 163.305 C114.806 170.203 114.004 175.822 111.5 182.25 C111.194 183.051 110.889 183.851 110.574 184.676 C103.553 200.685 88.353 211.157 72.598 217.486 C51.307 225.237 29.844 223.219 9.348 214.168 C5.125 212.171 1.555 209.642 -1.934 206.535 C-3.42 205.039 -3.42 205.039 -5.5 205.25 C-6.325 206.261 -7.15 207.271 -8 208.312 C-13.742 215.156 -21.156 219.284 -29.125 223.062 C-29.734 223.353 -30.343 223.643 -30.97 223.941 C-44.703 230.195 -61.385 230.435 -75.613 225.613 C-78.092 224.443 -80.042 223.192 -82.277 221.641 C-86.773 218.761 -90.52 218.626 -95.75 218.688 C-112.014 218.327 -125.209 212.025 -136.5 200.25 C-146.239 188.65 -151.094 174.72 -150.812 159.656 C-149.647 146.947 -143.952 136.627 -134.5 128.25 C-133.84 128.25 -133.18 128.25 -132.5 128.25 C-132.933 127.299 -132.933 127.299 -133.375 126.328 C-137.781 115.252 -138.73 101.616 -134.938 90.188 C-128.416 75.559 -119.015 65.826 -104.5 59.25 C-92.341 54.747 -76.49 53.921 -64.5 59.25 C-64.463 58.644 -64.425 58.038 -64.387 57.414 C-63.119 41.251 -55.97 27.46 -44.098 16.395 C-31.003 5.584 -16.907 -0.132 0 0 Z " fill="#FD8850" transform="translate(308.5,130.75)"/>
<path d="M0 0 C5.493 3.897 10.014 9.007 12.07 15.469 C12.309 17.758 12.309 17.758 12.383 20.094 C12.795 25.145 14.41 28.961 16.719 33.438 C20.452 41.811 21.596 49.456 21.508 58.594 C21.501 59.69 21.494 60.785 21.487 61.915 C21.243 74.339 18.665 84.789 13.145 95.98 C12.08 98.446 11.631 100.509 11.258 103.156 C9.273 114.786 1.929 125.962 -5.93 134.469 C-6.752 135.371 -7.575 136.273 -8.422 137.203 C-14.926 144.028 -21.928 149.51 -29.93 154.469 C-30.539 154.848 -31.149 155.227 -31.777 155.617 C-41.426 161.521 -51.351 165.871 -61.97 169.722 C-63.74 170.396 -65.468 171.177 -67.188 171.969 C-72.322 174.205 -77.81 175.314 -83.242 176.594 C-84.319 176.858 -85.396 177.122 -86.506 177.395 C-92.973 178.938 -99.294 180.02 -105.93 180.469 C-106.26 182.449 -106.59 184.429 -106.93 186.469 C-104.95 186.139 -102.97 185.809 -100.93 185.469 C-99.674 189.485 -100.336 192.119 -101.441 196.098 C-103.009 203.709 -102.087 211.109 -99.93 218.469 C-99.573 220.465 -99.23 222.464 -98.93 224.469 C-101.315 226.361 -103.001 227.493 -105.93 228.469 C-105.89 229.501 -105.89 229.501 -105.85 230.554 C-105.353 245.694 -105.842 259.135 -110.93 273.469 C-111.176 274.171 -111.421 274.874 -111.675 275.598 C-113.877 281.759 -116.212 287.669 -119.93 293.094 C-122.277 296.175 -122.277 296.175 -121.405 298.809 C-119.527 302.195 -117.072 304.718 -114.328 307.398 C-113.773 307.952 -113.218 308.505 -112.645 309.075 C-111.47 310.244 -110.292 311.409 -109.11 312.57 C-107.325 314.324 -105.55 316.089 -103.777 317.855 C-97.993 323.6 -92.134 329.175 -85.93 334.469 C-84.154 336.088 -82.383 337.713 -80.617 339.344 C-75.212 344.264 -69.654 348.926 -63.93 353.469 C-62.76 354.47 -62.76 354.47 -61.566 355.492 C-54.659 361.066 -47.177 364.079 -38.897 367.148 C-30.985 370.149 -24.569 374.076 -19.055 380.594 C-18.223 381.557 -18.223 381.557 -17.375 382.539 C-14.124 386.88 -13.383 389.999 -13.93 395.469 C-16.316 403.14 -21.686 408.071 -28.543 411.945 C-34.535 414.844 -40.304 416.813 -46.93 417.469 C-47.6 417.535 -48.271 417.602 -48.962 417.67 C-62.097 418.793 -70.918 416.537 -81.93 409.469 C-82.834 408.889 -83.738 408.31 -84.669 407.713 C-90.833 403.722 -96.917 399.622 -102.979 395.479 C-107.44 392.44 -111.934 389.455 -116.43 386.469 C-117.899 385.49 -119.367 384.511 -120.836 383.531 C-121.857 382.851 -122.878 382.17 -123.93 381.469 C-119.847 386.966 -115.654 392.33 -111.277 397.598 C-109.728 399.493 -108.213 401.417 -106.738 403.371 C-98.512 414.1 -88.11 419.106 -76.098 424.742 C-68.978 428.162 -62.267 432.292 -58.594 439.559 C-57.01 444.113 -57.137 448.23 -58.742 452.762 C-62.682 460.71 -69.347 466.117 -76.93 470.469 C-75.94 471.459 -74.95 472.449 -73.93 473.469 C-91.886 487.09 -135.629 482.798 -157.129 483.574 C-158.261 483.616 -159.393 483.658 -160.559 483.701 C-191.566 484.816 -222.578 484.822 -253.601 484.784 C-256.749 484.78 -259.897 484.779 -263.044 484.778 C-318.739 484.752 -374.361 483.866 -430.014 481.588 C-432.974 481.467 -435.935 481.347 -438.895 481.227 C-452.471 480.676 -466.044 480.087 -479.617 479.469 C-480.485 479.43 -481.352 479.39 -482.246 479.35 C-500.461 478.526 -518.65 477.524 -536.824 476.031 C-537.529 475.976 -538.234 475.92 -538.961 475.863 C-546.625 475.251 -554.184 474.369 -561.749 472.996 C-562.425 472.876 -563.101 472.756 -563.797 472.632 C-567.095 471.998 -569.089 471.363 -571.93 469.469 C-571.652 467.573 -571.652 467.573 -570.93 465.469 C-565.621 462.972 -560.53 461.875 -554.742 461.188 C-553.976 461.089 -553.209 460.99 -552.42 460.889 C-549.924 460.571 -547.427 460.269 -544.93 459.969 C-543.164 459.751 -541.398 459.533 -539.633 459.315 C-515.821 456.406 -491.99 454.388 -468.055 452.844 C-467.105 452.781 -466.155 452.719 -465.177 452.654 C-430.245 450.377 -395.296 450.265 -360.305 450.281 C-359.18 450.281 -358.055 450.281 -356.897 450.282 C-322.963 450.286 -289.109 450.553 -255.214 452.301 C-251.681 452.481 -248.148 452.654 -244.615 452.826 C-175.558 456.19 -175.558 456.19 -150.565 458.86 C-145.655 459.373 -140.867 459.547 -135.93 459.469 C-137.093 458.278 -138.26 457.091 -139.43 455.906 C-140.079 455.245 -140.729 454.584 -141.398 453.902 C-143.438 451.942 -145.504 450.08 -147.641 448.229 C-161.229 436.37 -173.964 423.594 -186.697 410.832 C-188.575 408.951 -190.454 407.07 -192.336 405.193 C-195.101 402.434 -197.861 399.673 -200.621 396.91 C-201.453 396.08 -202.286 395.249 -203.143 394.394 C-215.585 381.902 -226.644 368.697 -235.055 353.16 C-235.387 352.551 -235.719 351.941 -236.061 351.313 C-236.93 349.469 -236.93 349.469 -237.953 345.625 C-239.56 342.341 -239.56 342.341 -242.196 341.642 C-245.313 341.069 -248.401 340.714 -251.555 340.406 C-253.924 340.109 -256.293 339.803 -258.66 339.488 C-259.87 339.329 -261.079 339.17 -262.326 339.006 C-275.81 336.995 -289.055 333.213 -301.979 328.937 C-310.43 326.199 -319.02 324.001 -327.617 321.781 C-328.723 321.493 -328.723 321.493 -329.852 321.198 C-340.145 318.519 -350.451 316.298 -360.93 314.469 C-361.094 315.016 -361.258 315.564 -361.428 316.128 C-366.288 331.574 -376.059 349.637 -390.895 357.512 C-391.566 357.828 -392.238 358.143 -392.93 358.469 C-393.632 358.857 -394.335 359.245 -395.059 359.645 C-405.249 364.404 -419.521 363.829 -430.441 361.824 C-433.176 361.151 -433.176 361.151 -435.93 363.469 C-435.655 369.516 -434.875 374.642 -430.93 379.469 C-429.662 380.601 -428.369 381.704 -427.055 382.781 C-421.836 387.16 -417.813 392.266 -416.387 399.051 C-416.099 404.116 -416.933 408.45 -419.965 412.574 C-427.439 419.78 -435.993 422.161 -446.117 422.281 C-456.803 422.064 -463.804 418.976 -471.305 411.281 C-480.758 399.778 -485.397 383.182 -484.93 368.469 C-485.478 368.504 -486.025 368.538 -486.59 368.574 C-497.881 368.96 -508.744 366.216 -519.246 362.238 C-522.28 361.368 -524.788 361.248 -527.93 361.469 C-531.066 363.74 -531.702 366.271 -532.414 370.016 C-533.427 382.234 -527.636 391.716 -522.053 402.239 C-519.09 408.121 -518.889 414.732 -520.648 421.051 C-522.555 425.688 -524.516 428.842 -528.93 431.469 C-536.214 434.364 -544.888 434.902 -552.473 432.746 C-554.454 431.799 -556.156 430.76 -557.93 429.469 C-558.94 428.767 -559.951 428.066 -560.992 427.344 C-570.976 418.506 -575.205 406.354 -576.155 393.401 C-577.104 366.506 -575.456 333.565 -561.93 309.469 C-561.479 308.65 -561.027 307.832 -560.562 306.988 C-557.366 301.692 -554.006 297.331 -547.93 295.469 C-540.821 294.863 -533.93 294.986 -526.93 296.469 C-522.435 296.834 -518.311 296.91 -513.992 295.531 C-508.209 289.748 -508.039 279.534 -506.992 271.844 C-504.562 255.326 -500.45 241.381 -492.93 226.469 C-494.165 226.492 -495.4 226.515 -496.672 226.539 C-508.244 226.691 -519.485 226.217 -530.93 224.469 C-531.713 224.35 -532.496 224.232 -533.303 224.11 C-566.084 218.92 -596.839 204.052 -616.727 176.824 C-620.622 171.085 -623.387 164.901 -625.93 158.469 C-626.188 157.839 -626.446 157.21 -626.712 156.562 C-635.606 134.181 -631.818 109.031 -622.767 87.381 C-616.275 72.55 -604.836 52.768 -588.93 46.469 C-585.951 45.93 -583.999 46.045 -580.93 46.469 C-578.435 50.21 -578.52 53.371 -578.242 57.719 C-577.477 67.111 -575.657 76.179 -573.555 85.344 C-573.262 86.625 -572.97 87.907 -572.669 89.228 C-569.958 100.819 -567.113 112.291 -562.332 123.219 C-561.294 125.625 -560.314 128.025 -559.371 130.469 C-553.685 145.076 -546.422 157.728 -535.93 169.469 C-535.381 170.1 -534.831 170.732 -534.266 171.383 C-518.732 188.14 -493.406 198.417 -471.082 201.047 C-468.93 201.469 -468.93 201.469 -466.93 203.469 C-467.465 207.004 -467.465 207.004 -468.93 208.469 C-490.614 210.248 -514.218 201.108 -530.828 187.297 C-531.522 186.694 -532.215 186.09 -532.93 185.469 C-534.125 184.471 -534.125 184.471 -535.344 183.453 C-550.34 170.546 -560.211 154.479 -567.93 136.469 C-568.369 135.454 -568.369 135.454 -568.816 134.419 C-574.215 121.774 -577.707 108.813 -580.93 95.469 C-581.327 93.862 -581.724 92.255 -582.121 90.648 C-585.086 78.523 -587.33 67.01 -586.93 54.469 C-606.602 69.03 -617.611 90.806 -622.242 114.531 C-625.135 135.116 -621.02 155.472 -608.93 172.469 C-607.614 174.149 -606.282 175.818 -604.93 177.469 C-604.411 178.149 -603.893 178.83 -603.359 179.531 C-590.935 195.015 -571.591 204.849 -552.93 210.469 C-551.782 210.814 -550.635 211.16 -549.453 211.516 C-528.065 217.369 -506.022 219.149 -483.93 219.469 C-481.745 223.855 -481.745 223.855 -482.557 226.558 C-482.961 227.239 -483.365 227.92 -483.781 228.621 C-484.219 229.39 -484.657 230.159 -485.107 230.952 C-485.585 231.762 -486.063 232.572 -486.555 233.406 C-493.791 246.426 -496.34 258.805 -497.93 273.469 C-500.272 292.988 -500.272 292.988 -506.43 300.531 C-509.983 303.285 -512.583 304.726 -517.117 304.699 C-517.898 304.697 -518.68 304.695 -519.484 304.693 C-520.291 304.681 -521.098 304.669 -521.93 304.656 C-522.737 304.656 -523.544 304.655 -524.375 304.654 C-528.094 304.627 -531.326 304.432 -534.93 303.469 C-536.55 303.306 -538.177 303.204 -539.805 303.156 C-540.627 303.119 -541.45 303.081 -542.297 303.043 C-545.995 303.641 -548.032 305.121 -550.93 307.469 C-558.227 317.673 -560.663 330.372 -562.93 342.469 C-563.095 343.341 -563.26 344.213 -563.43 345.111 C-565.563 356.958 -566.255 368.828 -566.401 380.844 C-566.42 382.32 -566.446 383.796 -566.48 385.272 C-566.744 398.362 -564.306 410.682 -554.93 420.469 C-549.882 424.929 -544.407 425.593 -537.93 426.469 C-538.428 421.1 -538.952 415.776 -539.93 410.469 C-538.94 410.139 -537.95 409.809 -536.93 409.469 C-532.494 412.987 -531.409 417.223 -529.93 422.469 C-527.375 417.36 -528.266 410.544 -529.949 405.285 C-531.323 402.1 -532.804 399.003 -534.367 395.906 C-535.387 393.801 -536.407 391.696 -537.426 389.59 C-537.881 388.676 -538.337 387.763 -538.806 386.822 C-542.083 379.957 -541.964 371.791 -540.211 364.465 C-538.067 358.664 -535.564 355.286 -529.93 352.469 C-523.129 352.28 -516.767 353.961 -510.305 355.844 C-488.386 362.136 -464.5 365.813 -442.93 356.469 C-442.054 356.108 -441.179 355.747 -440.277 355.375 C-430.193 350.548 -424.537 341.076 -418.867 331.906 C-410.364 318.154 -401.25 307.559 -384.93 303.469 C-381.996 303.062 -379.138 302.991 -376.18 303.031 C-375.358 303.04 -374.536 303.049 -373.69 303.059 C-349.709 303.712 -324.493 311.78 -301.554 318.433 C-294.646 320.407 -287.697 322.228 -280.742 324.031 C-279.979 324.23 -279.216 324.428 -278.43 324.632 C-267.01 327.584 -255.662 330.106 -243.93 331.469 C-244.184 330.779 -244.438 330.089 -244.699 329.379 C-245.418 327.417 -246.131 325.454 -246.84 323.488 C-247.504 321.649 -248.176 319.812 -248.863 317.98 C-250.57 313.253 -251.251 309.496 -250.93 304.469 C-249.28 304.139 -247.63 303.809 -245.93 303.469 C-243.052 308.585 -241.125 313.734 -239.43 319.344 C-237.552 325.536 -235.481 331.516 -232.93 337.469 C-232.421 338.716 -231.914 339.963 -231.406 341.211 C-224.426 358.099 -213.757 372.186 -200.594 384.804 C-198.986 386.412 -197.534 388.078 -196.07 389.816 C-191.086 395.548 -185.683 400.865 -180.305 406.223 C-178.496 408.027 -176.692 409.837 -174.889 411.646 C-169.579 416.959 -164.269 422.196 -158.547 427.07 C-156.218 429.085 -154.077 431.264 -151.93 433.469 C-147.751 437.686 -143.45 441.626 -138.93 445.469 C-137.963 446.325 -136.996 447.181 -136 448.062 C-128.753 454.427 -121.425 459.822 -112.93 464.469 C-112.236 464.85 -111.543 465.232 -110.828 465.625 C-104.202 468.67 -95.413 468.709 -88.473 466.789 C-86.393 465.943 -86.393 465.943 -83.93 464.469 C-85.104 461.693 -86.599 459.604 -88.555 457.344 C-90.93 454.469 -90.93 454.469 -90.93 452.469 C-85.07 452.762 -81.074 455.503 -76.93 459.469 C-76.93 460.129 -76.93 460.789 -76.93 461.469 C-75.94 460.809 -74.95 460.149 -73.93 459.469 C-76.343 453.325 -82.737 450.134 -87.93 446.469 C-87.6 445.479 -87.27 444.489 -86.93 443.469 C-79.743 442.57 -75.336 446.614 -69.93 450.781 C-69.27 451.338 -68.61 451.895 -67.93 452.469 C-66.26 449.129 -66.109 446.039 -66.93 442.469 C-71.193 435.731 -79.983 432.967 -86.925 429.803 C-92.965 427.02 -98.07 424.066 -102.93 419.469 C-103.71 418.755 -104.489 418.04 -105.293 417.305 C-111.692 411.194 -117.058 404.465 -122.405 397.451 C-124.011 395.363 -125.643 393.299 -127.281 391.238 C-134.556 382.058 -141.359 372.664 -147.891 362.941 C-150.193 359.522 -152.582 356.186 -155.037 352.875 C-169.505 333.267 -169.505 333.267 -168.602 323.852 C-166.172 315.235 -161.244 307.794 -156.18 300.531 C-147.236 287.602 -140.006 272.799 -136.499 257.432 C-136.027 255.477 -136.027 255.477 -134.93 252.469 C-132.926 251.398 -132.926 251.398 -130.93 251.469 C-128.93 253.469 -128.93 253.469 -128.68 256.66 C-130.062 277.715 -145.93 299.56 -157.145 316.703 C-158.886 319.291 -158.886 319.291 -159.93 321.469 C-137.541 308.556 -124.239 289.769 -116.938 265.285 C-116.605 264.026 -116.272 262.766 -115.93 261.469 C-115.647 260.446 -115.647 260.446 -115.359 259.402 C-113.786 253.204 -113.695 247.276 -113.805 240.906 C-113.818 239.393 -113.818 239.393 -113.832 237.85 C-113.855 235.389 -113.888 232.929 -113.93 230.469 C-114.8 230.49 -115.669 230.511 -116.566 230.532 C-148.955 231.208 -148.955 231.208 -164.93 226.469 C-166.14 226.141 -167.351 225.814 -168.598 225.477 C-185.917 220.301 -202.931 211.941 -216.93 200.469 C-217.864 199.707 -217.864 199.707 -218.817 198.93 C-229.982 189.755 -229.982 189.755 -232.641 186.145 C-233.883 184.128 -233.883 184.128 -236.867 184.031 C-240.152 184.218 -243.188 184.994 -246.363 185.828 C-280.585 194.497 -314.237 193.483 -349.174 190.76 C-403.907 186.482 -403.907 186.482 -455.68 201.906 C-459.12 203.56 -459.559 203.59 -462.93 202.469 C-462.93 198.469 -462.93 198.469 -461.602 196.941 C-451.634 189.628 -439.941 185.977 -427.93 183.469 C-427.085 183.288 -426.241 183.107 -425.371 182.92 C-414.296 180.876 -403.151 181.166 -391.93 181.219 C-390.302 181.221 -390.302 181.221 -388.642 181.224 C-374.912 181.25 -361.255 181.58 -347.555 182.469 C-333.694 183.35 -319.852 183.778 -305.963 183.878 C-303.781 183.896 -301.599 183.923 -299.417 183.96 C-283.62 184.211 -269.262 182.194 -253.93 178.469 C-252.285 178.075 -250.639 177.688 -248.991 177.306 C-248.301 177.144 -247.612 176.982 -246.902 176.815 C-244.93 176.469 -244.93 176.469 -240.93 176.469 C-241.59 175.479 -242.25 174.489 -242.93 173.469 C-243.379 170.516 -243.379 170.516 -242.93 167.469 C-240.762 165.484 -240.762 165.484 -237.742 163.719 C-236.085 162.683 -234.427 161.647 -232.774 160.605 C-231.586 159.873 -230.386 159.163 -229.171 158.478 C-221.785 154.357 -221.785 154.357 -217.272 147.53 C-216.402 142.164 -216.88 136.796 -217.305 131.406 C-217.484 128.229 -217.628 125.051 -217.766 121.871 C-217.804 121.122 -217.842 120.373 -217.882 119.602 C-218.109 113.851 -217.3 109.674 -214.93 104.469 C-213.28 104.139 -211.63 103.809 -209.93 103.469 C-208.841 107.099 -209.187 110.004 -209.663 113.752 C-210.198 119.204 -210.077 124.683 -210.055 130.156 C-210.05 131.396 -210.045 132.636 -210.04 133.914 C-210.476 146.307 -210.476 146.307 -208.93 158.469 C-207.237 159.628 -207.237 159.628 -204.93 160.469 C-203.353 161.554 -201.777 162.64 -200.212 163.743 C-174.143 181.946 -145.249 188.452 -113.93 189.469 C-113.988 188.889 -114.046 188.309 -114.105 187.711 C-114.354 183.406 -114.192 180.962 -112.125 177.082 C-108.269 173.166 -103.002 172.657 -97.805 171.656 C-78.006 167.36 -58.64 161.442 -40.93 151.469 C-39.848 150.884 -38.767 150.298 -37.652 149.695 C-23.344 141.72 -7.317 129.632 -1.93 113.469 C-3.094 114.248 -3.094 114.248 -4.281 115.043 C-15.727 122.432 -25.911 126.872 -39.68 126.969 C-40.543 126.975 -41.406 126.982 -42.295 126.988 C-57.193 126.692 -70.213 119.514 -80.93 109.469 C-90.615 99.068 -90.615 99.068 -90.93 93.469 C-90.27 92.809 -89.61 92.149 -88.93 91.469 C-87.066 91.527 -87.066 91.527 -84.93 92.469 C-82.887 94.691 -82.887 94.691 -80.742 97.531 C-72.514 107.86 -63.221 115.645 -49.93 118.469 C-34.275 119.92 -21.913 118.581 -8.992 109.031 C-7.619 107.866 -6.263 106.679 -4.93 105.469 C-4.306 104.925 -3.682 104.381 -3.039 103.82 C7.156 94.379 12.76 81.145 13.52 67.402 C13.861 55.379 13.54 44.408 8.07 33.469 C7.511 33.685 6.951 33.902 6.375 34.125 C-1.876 36.99 -10.651 38.327 -19.059 35.367 C-24.619 32.538 -29.798 29.003 -32.93 23.469 C-33.578 20.754 -33.578 20.754 -33.93 18.469 C-34.421 18.74 -34.913 19.012 -35.42 19.292 C-54.712 29.873 -71.676 36.912 -93.992 36.719 C-95.025 36.712 -95.025 36.712 -96.079 36.704 C-100.697 36.667 -105.313 36.581 -109.93 36.469 C-111.293 36.439 -111.293 36.439 -112.684 36.409 C-126.911 35.937 -138.865 29.783 -151.508 23.766 C-162.644 18.693 -171.958 19.704 -183.23 23.883 C-187.967 25.795 -192.213 28.46 -196.441 31.309 C-198.93 32.469 -198.93 32.469 -201.199 31.91 C-203.269 30.186 -203.579 29.096 -203.93 26.469 C-191.979 16.557 -179.009 11.179 -163.52 11.07 C-155.576 11.952 -148.163 15.49 -140.805 18.469 C-139.95 18.812 -139.095 19.155 -138.215 19.508 C-137.376 19.846 -136.536 20.183 -135.672 20.531 C-134.856 20.859 -134.041 21.187 -133.2 21.524 C-131.242 22.339 -129.318 23.234 -127.402 24.145 C-123.077 25.794 -119.082 26.278 -114.492 26.656 C-113.592 26.735 -112.692 26.814 -111.764 26.896 C-104.594 27.463 -97.434 27.677 -90.242 27.719 C-88.775 27.733 -88.775 27.733 -87.278 27.747 C-64.739 27.649 -44.576 15.467 -27.594 1.465 C-19.778 -4.391 -8.606 -4.446 0 0 Z " fill="#322A2C" transform="translate(836.9296875,408.53125)"/>
<path d="M0 0 C0.329 0.779 0.329 0.779 0.664 1.574 C2.982 6.673 5.296 9.743 10 13 C10.552 13.393 11.103 13.786 11.672 14.191 C18.701 18.502 27.293 18.03 35.125 16.316 C37.458 15.624 39.731 14.878 42 14 C49.369 27.755 50.773 44.865 46.902 60.062 C42.237 75.149 32.47 87.613 18.848 95.613 C10.73 99.566 4.166 101.683 -4.938 101.5 C-6.388 101.482 -6.388 101.482 -7.868 101.463 C-14.886 101.268 -20.764 100.393 -27 97 C-27.843 96.576 -28.686 96.152 -29.555 95.715 C-39.023 90.549 -45.906 82.771 -52 74 C-53.32 74.33 -54.64 74.66 -56 75 C-55.056 82.834 -48.852 88.457 -43.191 93.504 C-28.273 105.213 -13.614 108.865 5 107 C15.008 104.967 23.702 99.771 32 94 C32.66 93.67 33.32 93.34 34 93 C25.155 116.476 2.773 130.12 -19 140 C-33.048 146.35 -48.115 150.914 -63.18 154.156 C-64.348 154.408 -64.348 154.408 -65.54 154.666 C-66.964 154.962 -68.392 155.239 -69.824 155.495 C-73.005 156.141 -74.915 156.927 -77.391 159.055 C-79.536 162.981 -79.807 166.581 -80 171 C-113.547 172.014 -145.35 162.91 -172 142 C-172.99 141.34 -173.98 140.68 -175 140 C-180.203 123.806 -177.652 102.641 -176 86 C-177.32 85.67 -178.64 85.34 -180 85 C-178.526 81.849 -176.722 79.111 -174.75 76.25 C-170.256 69.278 -167.662 61.804 -165 54 C-164.626 53.015 -164.252 52.03 -163.867 51.016 C-160.52 39.377 -162.891 29.273 -168.566 18.977 C-170 16 -170 16 -169 13 C-168.334 12.915 -167.667 12.83 -166.98 12.742 C-163.079 11.771 -159.851 9.997 -156.312 8.125 C-145.323 2.513 -134.651 -1.794 -122.264 2.207 C-118.252 3.797 -114.345 5.608 -110.438 7.438 C-109.073 8.057 -107.708 8.675 -106.342 9.291 C-103.856 10.412 -101.379 11.547 -98.904 12.693 C-81.565 20.496 -50.682 19.976 -32.633 14.402 C-22.626 10.539 -12.736 6.364 -3.531 0.812 C-2 0 -2 0 0 0 Z " fill="#FDFCF2" transform="translate(803,427)"/>
<path d="M0 0 C12.184 9.16 21.671 23.728 24 39 C24.231 43.67 24.189 48.325 24.125 53 C24.116 54.252 24.107 55.503 24.098 56.793 C24.074 59.862 24.041 62.931 24 66 C27.929 64.752 30.869 63.623 34.062 61 C39.454 56.59 44.208 55.477 51.09 55.625 C58.224 56.544 64.479 60.486 69.332 65.707 C77.587 77.056 80.529 89.109 79 103 C75.992 114.735 69.231 123.38 58.902 129.5 C38.562 140.012 18.921 138.444 -2.36 131.877 C-7.382 130.208 -12.227 128.201 -17.039 126.004 C-21.799 124.39 -24.082 125.556 -28.531 127.707 C-29.855 128.408 -31.178 129.109 -32.5 129.812 C-49.426 138.383 -68.797 141.834 -87.418 135.973 C-88.27 135.652 -89.122 135.331 -90 135 C-90.986 134.648 -91.972 134.296 -92.988 133.934 C-99.402 131.464 -104.812 128.349 -110.332 124.258 C-115.959 121.605 -121.782 124.469 -127.312 126.438 C-141.032 131.137 -154.656 133.964 -168.32 127.477 C-178.934 121.628 -187.131 113.4 -191.152 101.801 C-193.293 92.203 -193.924 80.208 -189.449 71.195 C-182.976 61.39 -173.741 52.683 -162.219 49.438 C-155.46 48.105 -150.721 48.551 -144.824 52.223 C-142.494 53.215 -141.376 52.691 -139 52 C-139.002 51.095 -139.002 51.095 -139.003 50.171 C-138.897 25.924 -138.897 25.924 -129.953 15.648 C-121.561 7.465 -113.033 5.374 -101.622 5.454 C-93.448 5.78 -87.78 8.507 -81.625 13.812 C-79.057 16.427 -79.057 16.427 -75 16 C-73.483 14.526 -73.483 14.526 -72.25 12.5 C-64.498 1.566 -54.183 -6.51 -40.906 -9.562 C-25.994 -11.807 -12.506 -8.325 0 0 Z " fill="#FDFCF3" transform="translate(811,142)"/>
<path d="M0 0 C0.994 -0.008 1.988 -0.015 3.012 -0.023 C17.437 0.015 30.618 4.734 41.5 14.25 C42.449 14.972 43.398 15.694 44.375 16.438 C46.459 18.215 47.966 19.99 49.5 22.25 C52.635 20.807 55.196 19.023 57.938 16.938 C69.437 8.936 80.759 6.645 94.5 8.25 C104.834 10.315 113.455 15.443 120.5 23.25 C120.981 23.727 121.462 24.204 121.957 24.695 C128.016 31.046 131.8 39.164 131.812 48 C131.734 49.418 131.641 50.836 131.5 52.25 C132.469 52.333 133.439 52.415 134.438 52.5 C145.678 54.215 153.863 61.465 160.812 70.125 C170.169 83.458 172.73 99.688 170.113 115.602 C168.053 125.196 164.472 133.404 158.5 141.25 C158.028 141.902 157.556 142.555 157.07 143.227 C149.531 152.896 137.436 159.009 125.5 161.25 C123.584 161.317 121.667 161.335 119.75 161.312 C118.765 161.303 117.78 161.294 116.766 161.285 C116.018 161.274 115.27 161.262 114.5 161.25 C114.535 161.928 114.57 162.606 114.605 163.305 C114.806 170.203 114.004 175.822 111.5 182.25 C111.194 183.051 110.889 183.851 110.574 184.676 C103.553 200.685 88.353 211.157 72.598 217.486 C51.307 225.237 29.844 223.219 9.348 214.168 C5.125 212.171 1.555 209.642 -1.934 206.535 C-3.42 205.039 -3.42 205.039 -5.5 205.25 C-6.325 206.261 -7.15 207.271 -8 208.312 C-13.742 215.156 -21.156 219.284 -29.125 223.062 C-29.734 223.353 -30.343 223.643 -30.97 223.941 C-44.703 230.195 -61.385 230.435 -75.613 225.613 C-78.092 224.443 -80.042 223.192 -82.277 221.641 C-86.773 218.761 -90.52 218.626 -95.75 218.688 C-112.014 218.327 -125.209 212.025 -136.5 200.25 C-146.239 188.65 -151.094 174.72 -150.812 159.656 C-149.647 146.947 -143.952 136.627 -134.5 128.25 C-133.84 128.25 -133.18 128.25 -132.5 128.25 C-132.933 127.299 -132.933 127.299 -133.375 126.328 C-137.781 115.252 -138.73 101.616 -134.938 90.188 C-128.416 75.559 -119.015 65.826 -104.5 59.25 C-92.341 54.747 -76.49 53.921 -64.5 59.25 C-64.463 58.644 -64.425 58.038 -64.387 57.414 C-63.119 41.251 -55.97 27.46 -44.098 16.395 C-31.003 5.584 -16.907 -0.132 0 0 Z M-44.516 30.613 C-52.55 41.288 -56.573 51.604 -58.062 64.938 C-58.5 68.25 -58.5 68.25 -60.5 70.25 C-62.95 70.027 -65.109 69.398 -67.406 68.53 C-73.179 66.38 -78.3 65.738 -84.438 65.812 C-85.757 65.824 -85.757 65.824 -87.103 65.835 C-93.6 66.001 -98.858 66.854 -104.5 70.25 C-105.262 70.686 -106.024 71.121 -106.809 71.57 C-117.271 78.028 -124.348 86.406 -128.137 98.238 C-129.8 107.447 -128.378 114.958 -124.496 123.375 C-123.379 126.6 -123.282 128.079 -124.5 131.25 C-126.102 132.664 -126.102 132.664 -128.125 133.875 C-134.431 138.265 -137.97 144.658 -140.938 151.625 C-143.036 165.151 -140.612 176.612 -133.688 188.312 C-125.76 198.958 -115.148 208.952 -101.5 211.25 C-99.537 211.191 -97.573 211.128 -95.612 211.032 C-87.957 210.707 -83.147 211.173 -76.727 215.715 C-70.365 220.101 -63.373 220.506 -55.875 220.562 C-55.17 220.568 -54.466 220.574 -53.74 220.58 C-39.057 220.377 -24.15 213.923 -13.836 203.578 C-12.14 201.807 -10.467 200.013 -8.824 198.191 C-6.5 196.25 -6.5 196.25 -3.961 195.738 C-0.809 196.394 0.329 197.577 2.562 199.875 C15.142 211.661 31.925 214.587 48.605 214.391 C66.448 213.746 82.828 207.044 95.5 194.25 C104.579 183.459 106.908 172.565 108.105 158.898 C108.5 155.25 108.5 155.25 109.5 154.25 C111.771 154.283 114.042 154.352 116.312 154.438 C127.494 154.611 136.747 151.246 145.5 144.25 C146.177 143.721 146.854 143.193 147.551 142.648 C156.721 134.565 162.694 121.359 163.5 109.25 C163.58 108.225 163.66 107.2 163.742 106.145 C164.276 92.993 160.061 81.129 151.652 71.031 C144.289 63.185 137.588 59.791 126.809 59.293 C126.047 59.279 125.285 59.265 124.5 59.25 C124.474 58.428 124.448 57.605 124.422 56.758 C123.78 44.132 120.394 35.397 111.5 26.25 C102.411 18.471 92.202 16.381 80.469 16.844 C70.078 17.907 61.948 23.141 54.5 30.25 C53.466 31.557 52.453 32.883 51.5 34.25 C48.985 33.873 47.781 33.558 46.043 31.648 C45.596 30.981 45.148 30.313 44.688 29.625 C36.997 19.006 26.681 12.144 13.875 8.75 C-8.491 5.276 -29.954 13.46 -44.516 30.613 Z " fill="#2F2729" transform="translate(308.5,130.75)"/>
<path d="M0 0 C6.275 5.568 9.215 13.749 9.755 21.948 C9.916 31.956 6.924 40.672 2.977 49.754 C2.559 50.735 2.141 51.716 1.711 52.727 C-6.885 71.265 -23.368 86.563 -42.398 93.637 C-52.772 96.427 -64.627 96.14 -74.023 90.754 C-81.401 86.071 -87.455 80.238 -89.582 71.445 C-91.681 58.65 -88.755 48.904 -81.523 38.316 C-66.351 18.589 -27.142 -14.588 0 0 Z " fill="#8F472A" transform="translate(632.0234375,442.24609375)"/>
<path d="M0 0 C3.165 1.37 4.954 2.838 7.125 5.5 C12.548 11.898 18.451 17.812 24.785 23.309 C29.882 27.734 34.753 32.388 39.645 37.039 C43.757 40.934 47.933 44.728 52.214 48.437 C54.486 50.425 56.675 52.496 58.875 54.562 C66.559 61.413 74.402 65.225 83.938 68.875 C93.324 72.481 103.34 76.425 108 86 C107.781 90.231 107.361 92.458 105 96 C102 95 102 95 100.188 92.188 C97.784 88.686 95.715 87.012 92 85 C90.68 85 89.36 85 88 85 C88.705 89.474 91.134 91.231 94.406 94.121 C96.323 96.38 96.641 98.096 97 101 C95.44 101.651 93.877 102.296 92.312 102.938 C91.007 103.477 91.007 103.477 89.676 104.027 C84.588 105.877 79.694 106.236 74.312 106.312 C73.327 106.356 73.327 106.356 72.322 106.4 C61.502 106.536 52.736 100.275 44 94.562 C42.905 93.855 41.81 93.147 40.682 92.417 C33.416 87.683 26.331 82.75 19.353 77.604 C12.964 72.907 6.361 68.593 -0.328 64.34 C-0.955 63.936 -1.582 63.533 -2.228 63.117 C-3.81 62.12 -5.428 61.183 -7.051 60.254 C-11.195 57.086 -13.922 53.222 -16.938 49 C-17.55 48.155 -18.162 47.31 -18.793 46.44 C-31 29.409 -31 29.409 -31 25 C-29.271 23.91 -27.488 22.905 -25.688 21.938 C-16.946 16.979 -4.676 9.352 0 0 Z " fill="#FDFBF1" transform="translate(708,713)"/>
<path d="M0 0 C11.667 9.129 20.76 25.486 23.237 40.072 C23.541 42.59 23.786 45.105 24 47.633 C24.082 48.498 24.164 49.364 24.248 50.256 C24.446 52.36 24.63 54.465 24.812 56.57 C25.395 56.282 25.978 55.993 26.578 55.695 C34.726 52.006 41.88 50.765 50.441 53.898 C62.953 59.506 70.34 67.922 75.664 80.598 C77.802 86.371 78.357 91.689 78.312 97.82 C78.308 98.738 78.303 99.656 78.297 100.602 C78.009 111.922 74.379 121.058 66.812 129.57 C66.132 130.44 66.132 130.44 65.438 131.328 C61.643 135.735 57.12 138.234 52 140.82 C51.349 141.15 50.697 141.479 50.026 141.818 C40.303 146.501 31.413 148.155 20.625 148.133 C18.797 148.13 18.797 148.13 16.932 148.128 C2.104 147.839 -13.113 144.705 -26.102 137.258 C-28.233 136.339 -28.233 136.339 -30.602 137.262 C-31.455 137.694 -32.308 138.125 -33.188 138.57 C-34.11 139.033 -35.033 139.496 -35.984 139.973 C-36.959 140.479 -37.933 140.986 -38.938 141.508 C-50.803 147.484 -61.092 148.767 -74.312 148.82 C-76.196 148.851 -76.196 148.851 -78.117 148.883 C-89.449 148.93 -99.278 146.837 -109.562 142.133 C-110.221 141.846 -110.88 141.559 -111.559 141.264 C-114.798 139.818 -117.428 138.394 -120.316 136.277 C-123.037 134.291 -123.037 134.291 -126.004 134.766 C-127.363 135.226 -127.363 135.226 -128.75 135.695 C-130.113 136.132 -130.113 136.132 -131.504 136.578 C-133.156 137.189 -134.795 137.842 -136.402 138.562 C-149.955 143.467 -167.315 144.097 -180.52 138.066 C-184.398 135.891 -187.807 133.448 -191.188 130.57 C-192.033 129.993 -192.879 129.415 -193.75 128.82 C-202.974 120.306 -207.606 108.359 -208.426 95.969 C-208.794 82.661 -205.651 72.165 -197.188 61.57 C-190.642 55.105 -180.876 47.008 -171.195 46.457 C-170.087 46.465 -170.087 46.465 -168.957 46.473 C-167.753 46.477 -167.753 46.477 -166.525 46.482 C-165.275 46.495 -165.275 46.495 -164 46.508 C-163.155 46.512 -162.31 46.517 -161.439 46.521 C-159.355 46.533 -157.271 46.551 -155.188 46.57 C-155.124 45.65 -155.061 44.73 -154.996 43.781 C-153.845 31.879 -150.507 20.304 -141.203 12.027 C-129.828 3.804 -119 1.683 -105.188 2.57 C-100.021 3.487 -95.757 5.122 -91.312 7.883 C-90.281 8.44 -89.25 8.997 -88.188 9.57 C-84.656 8.419 -82.745 6.161 -80.312 3.445 C-57.136 -20.149 -25.696 -16.794 0 0 Z M-78.094 13.141 C-80.127 15.5 -81.678 17.852 -83.188 20.57 C-87.864 20.278 -90.467 18.024 -93.93 15.141 C-99.846 11.026 -104.947 10.037 -112 10.133 C-112.795 10.142 -113.589 10.151 -114.408 10.16 C-124.133 10.446 -131.118 13.37 -138.141 20.219 C-147.593 31.079 -147.213 42.806 -147.188 56.57 C-150.959 57.667 -150.959 57.667 -153.012 56.793 C-153.934 56.219 -153.934 56.219 -154.875 55.633 C-160.39 52.712 -164.887 52.763 -170.887 54.23 C-182.229 57.885 -191.111 65.776 -197.574 75.699 C-202.077 84.784 -201.466 96.646 -199.375 106.336 C-195.52 117.634 -187.578 125.916 -177.188 131.57 C-176.43 131.983 -175.672 132.395 -174.891 132.82 C-160.538 139.574 -144.627 134.253 -130.562 129.258 C-129.663 128.911 -128.763 128.564 -127.836 128.207 C-123.305 127.118 -120.26 127.96 -116.25 130.242 C-115.239 130.928 -114.229 131.614 -113.188 132.32 C-97.5 142.529 -77.864 145.454 -59.488 142.074 C-50.942 139.905 -42.961 136.378 -35.449 131.77 C-32.824 130.377 -31.174 129.721 -28.188 129.57 C-25.402 130.512 -22.81 131.525 -20.125 132.695 C0.328 141.042 21.515 145.96 42.812 137.57 C54.64 132.486 61.473 126.808 67.812 115.57 C68.362 114.615 68.362 114.615 68.922 113.641 C72.606 105.821 71.857 94.355 69.688 86.195 C66.132 76.309 60.095 67.01 50.562 62.133 C44.397 59.725 38.306 59.329 32.031 61.559 C27.528 63.698 24.275 65.979 20.812 69.57 C19.157 69.957 17.49 70.297 15.812 70.57 C15.833 69.82 15.854 69.071 15.876 68.298 C16.835 48.947 16.835 48.947 11.812 30.57 C11.327 29.493 10.841 28.415 10.34 27.305 C2.387 11.135 -8.787 2.7 -25.305 -3.449 C-45.615 -10.357 -63.913 -1.27 -78.094 13.141 Z " fill="#352D30" transform="translate(819.1875,137.4296875)"/>
<path d="M0 0 C4.041 2.931 6.828 5.274 7.719 10.328 C7.6 22.642 3.726 30.427 -4.812 39.312 C-11.809 45.143 -19.035 47.94 -28.195 47.676 C-35.239 46.698 -40.469 43.333 -44.938 37.875 C-48.871 31.638 -49.008 25.46 -47.812 18.312 C-46.663 15.067 -45.133 12.837 -42.812 10.312 C-41.993 9.392 -41.993 9.392 -41.156 8.453 C-31.237 -1.382 -13.157 -5.989 0 0 Z " fill="#FB8551" transform="translate(739.8125,451.6875)"/>
<path d="M0 0 C6.275 5.568 9.215 13.749 9.755 21.948 C9.916 31.956 6.924 40.672 2.977 49.754 C2.559 50.735 2.141 51.716 1.711 52.727 C-6.885 71.265 -23.368 86.563 -42.398 93.637 C-52.772 96.427 -64.627 96.14 -74.023 90.754 C-81.401 86.071 -87.455 80.238 -89.582 71.445 C-91.681 58.65 -88.755 48.904 -81.523 38.316 C-66.351 18.589 -27.142 -14.588 0 0 Z M-73.836 38.629 C-80.707 48.265 -84.852 56.672 -83.023 68.754 C-80.771 76.257 -76.707 80.821 -70.023 84.754 C-69.182 85.319 -69.182 85.319 -68.324 85.895 C-64.695 87.25 -61.114 87.042 -57.273 87.004 C-56.5 87.012 -55.727 87.019 -54.93 87.027 C-41.498 86.982 -30.981 81.31 -21.359 72.145 C-8.561 59.047 1.824 41.063 2.477 22.441 C2.241 15.13 0.495 10.806 -4.086 5.254 C-25.51 -5.686 -61.87 23.346 -73.836 38.629 Z " fill="#32282A" transform="translate(632.0234375,442.24609375)"/>
<path d="M0 0 C5.135 2.859 8.022 6.696 9.75 12.312 C9.75 13.632 9.75 14.952 9.75 16.312 C10.637 16.416 11.524 16.519 12.438 16.625 C18.314 17.845 21.292 20.496 24.75 25.312 C26.744 29.3 26.265 33.978 25.75 38.312 C23.574 43.988 20.089 47.411 14.75 50.312 C8.736 52.317 2.036 52.333 -3.75 49.75 C-7.99 45.616 -10.12 42.361 -10.5 36.375 C-10.376 34.859 -10.376 34.859 -10.25 33.312 C-11.261 33.271 -12.271 33.23 -13.312 33.188 C-18.123 32.503 -21.06 29.83 -24.25 26.312 C-27.073 21.893 -26.999 16.388 -26.25 11.312 C-24 5.664 -20.605 2.223 -15.25 -0.688 C-9.819 -2.498 -5.153 -2.388 0 0 Z " fill="#F9814B" transform="translate(458.25,361.6875)"/>
<path d="M0 0 C0.423 1.855 0.846 3.711 1.27 5.566 C3.329 12.429 5.85 16.387 11.062 21.188 C18.638 28.277 18.638 28.277 19.266 33 C19.236 36.818 19.192 39.711 17 43 C16.34 43 15.68 43 15 43 C14.83 42.408 14.66 41.817 14.484 41.207 C13.028 36.457 11.764 32.441 8 29 C4.861 28.114 4.861 28.114 2 28 C2.618 31.46 3.982 33.572 6.062 36.375 C8.617 40.064 9.708 42.401 9 47 C2.386 48.971 -5.373 49.283 -11.895 46.977 C-21.365 41.71 -26.398 33.641 -30 23.641 C-31.771 17.194 -32.428 10.646 -33 4 C-31.828 3.963 -30.656 3.925 -29.449 3.887 C-21.394 3.57 -13.882 3.181 -6.164 0.621 C-4 0 -4 0 0 0 Z " fill="#FBFAF1" transform="translate(393,775)"/>
<path d="M0 0 C2.854 2.069 5.163 4.168 7.5 6.812 C8.263 7.638 9.026 8.462 9.812 9.312 C12.686 15.272 12.528 21.849 10.875 28.223 C8.552 33.605 4.468 36.864 -0.5 39.812 C-6.304 41.747 -13.678 41.876 -19.438 39.625 C-25.44 36.073 -29.384 31.455 -31.5 24.812 C-32.536 18.232 -32.006 13.056 -28.066 7.602 C-20.436 -1.114 -11.358 -3.854 0 0 Z " fill="#944C2F" transform="translate(494.5,607.1875)"/>
<path d="M0 0 C1.659 0.01 1.659 0.01 3.352 0.02 C5.871 0.159 7.975 0.456 10.375 1.188 C8.529 14.657 -2.158 30.242 -12.41 38.688 C-23.753 46.369 -34.449 47.139 -47.625 45.188 C-46.054 41.676 -43.931 38.895 -41.562 35.875 C-37.98 31.238 -34.924 26.449 -32 21.375 C-24.868 9.153 -14.925 -0.192 0 0 Z " fill="#C2C7BC" transform="translate(458.625,718.8125)"/>
<path d="M0 0 C0.876 -0.004 1.752 -0.008 2.655 -0.012 C10.712 0.13 17.21 2.058 24.5 5.438 C24.5 5.768 24.5 6.097 24.5 6.438 C23.679 6.417 22.858 6.396 22.012 6.374 C18.913 6.305 15.814 6.255 12.714 6.218 C10.734 6.188 8.755 6.137 6.775 6.086 C-6.597 5.951 -16.507 9.422 -26.5 18.438 C-34.826 27.873 -37.02 36.551 -36.809 48.969 C-36.437 53.141 -35.35 55.738 -33.5 59.438 C-33.817 63.751 -35.407 65.841 -38.25 69 C-47.703 80.612 -48.796 91.946 -47.5 106.438 C-46.014 116.168 -40.502 126.591 -33.5 133.438 C-25.624 139.139 -18.805 142.284 -9.125 143.562 C-7.257 143.814 -7.257 143.814 -5.352 144.07 C-4.411 144.191 -3.47 144.313 -2.5 144.438 C-2.5 144.768 -2.5 145.097 -2.5 145.438 C-16.075 146.151 -25.687 143.702 -36.5 135.438 C-37.19 134.913 -37.879 134.388 -38.59 133.848 C-48.405 125.841 -54.799 115.011 -56.5 102.438 C-57.452 90.275 -55.238 80.857 -47.383 71.387 C-44.665 68.573 -41.802 66.526 -38.5 64.438 C-38.936 60.406 -40.026 57.088 -41.562 53.375 C-45.005 44.082 -44.534 35.052 -40.762 25.934 C-38.779 22.011 -36.399 18.729 -33.5 15.438 C-32.73 14.529 -32.73 14.529 -31.945 13.602 C-23.504 4.352 -12.303 0.037 0 0 Z " fill="#F5BA6F" transform="translate(223.5,196.5625)"/>
<path d="M0 0 C8.565 5.061 15.323 13.219 18.512 22.707 C19.582 27.733 19.774 32.878 20 38 C20.75 38.003 21.5 38.005 22.273 38.008 C33.325 38.425 40.669 42.757 48.184 50.742 C57.065 61.782 59.907 74.087 59 88 C58.942 88.893 58.884 89.787 58.824 90.707 C57.24 103.434 50.067 116.16 40 124 C31.388 130.229 22.668 133.593 12 133 C11.67 132.34 11.34 131.68 11 131 C12.017 130.654 12.017 130.654 13.055 130.301 C27.798 125.134 39.065 118.959 47 105 C53.332 90.945 55.068 79.14 49.543 64.523 C45.259 54.741 37.896 48.685 29 43.125 C25.039 41.64 21.201 41.271 17 41 C15.58 37.246 14.799 33.703 14.25 29.75 C12.678 20.778 7.42 12.36 0 7 C-11.442 0.426 -21.74 -0.57 -34.5 2.25 C-39.01 3.51 -42.362 5.069 -46 8 C-44.537 4.245 -42.699 2.871 -39.25 0.875 C-38.41 0.377 -37.569 -0.12 -36.703 -0.633 C-25.353 -6.373 -11.298 -5.55 0 0 Z " fill="#F6BB6B" transform="translate(413,152)"/>
<path d="M0 0 C5.135 2.859 8.022 6.696 9.75 12.312 C9.75 13.632 9.75 14.952 9.75 16.312 C10.637 16.416 11.524 16.519 12.438 16.625 C18.314 17.845 21.292 20.496 24.75 25.312 C26.744 29.3 26.265 33.978 25.75 38.312 C23.574 43.988 20.089 47.411 14.75 50.312 C8.736 52.317 2.036 52.333 -3.75 49.75 C-7.99 45.616 -10.12 42.361 -10.5 36.375 C-10.376 34.859 -10.376 34.859 -10.25 33.312 C-11.261 33.271 -12.271 33.23 -13.312 33.188 C-18.123 32.503 -21.06 29.83 -24.25 26.312 C-27.073 21.893 -26.999 16.388 -26.25 11.312 C-24 5.664 -20.605 2.223 -15.25 -0.688 C-9.819 -2.498 -5.153 -2.388 0 0 Z M-20.25 10.312 C-21.86 13.532 -21.712 16.821 -21.25 20.312 C-18.845 25.215 -16.349 27.4 -11.25 29.312 C-9.93 29.312 -8.61 29.312 -7.25 29.312 C-7.308 29.893 -7.366 30.473 -7.426 31.07 C-7.674 35.364 -7.765 38.338 -4.938 41.75 C-1.575 44.956 0.434 46.601 5.062 46.625 C9.311 46.515 12.166 45.729 15.75 43.312 C18.855 39.872 20.625 37.64 21.062 33 C20.701 28.737 19.73 27.293 16.75 24.312 C13.46 22.668 10.018 22.996 6.5 23.875 C4.75 24.312 4.75 24.312 2.75 23.312 C2.82 22.36 2.889 21.407 2.961 20.426 C3.449 13.674 3.449 13.674 1.766 7.27 C-1.096 4.528 -4.392 3.921 -8.188 3.625 C-13.657 3.881 -16.779 6.215 -20.25 10.312 Z " fill="#392D2D" transform="translate(458.25,361.6875)"/>
<path d="M0 0 C6.308 5.151 11.057 10.902 15 18 C11.96 16.612 9.617 14.955 7.062 12.812 C-7.777 1.16 -23.32 -2.737 -41.855 -0.684 C-56.07 1.825 -69.084 8.455 -79 19 C-80.545 21.276 -81.746 23.543 -83 26 C-83.99 26.495 -83.99 26.495 -85 27 C-85.783 28.993 -86.48 31.021 -87.125 33.062 C-87.478 34.167 -87.831 35.272 -88.195 36.41 C-88.461 37.265 -88.726 38.119 -89 39 C-89.33 39 -89.66 39 -90 39 C-90.683 27.546 -83.421 17.667 -76.184 9.332 C-67.964 0.553 -58.683 -5.069 -47 -8 C-45.762 -8.392 -44.525 -8.784 -43.25 -9.188 C-27.885 -12.85 -13.047 -8.063 0 0 Z " fill="#F7BB6F" transform="translate(343,149)"/>
<path d="M0 0 C2 1 2 1 3.375 3.875 C5.897 8.724 8.972 10.184 14 12 C12.858 15.425 11.885 16.113 9.125 18.312 C5.681 21.213 3.664 23.736 2 28 C1.34 28 0.68 28 0 28 C-0.371 27.092 -0.742 26.185 -1.125 25.25 C-3.911 20.422 -8.041 18.289 -13 16 C-13 15.34 -13 14.68 -13 14 C-11.426 13.027 -11.426 13.027 -9.312 11.938 C-4.355 9.014 -2.327 5.134 0 0 Z " fill="#FCD269" transform="translate(914,296)"/>
<path d="M0 0 C2.149 2.149 2.689 3.573 3.75 6.375 C5.715 11.012 7.696 12.554 12 15 C12 15.66 12 16.32 12 17 C11.336 17.208 10.672 17.415 9.988 17.629 C3.365 19.94 0.656 22.058 -3 28 C-3.66 28 -4.32 28 -5 28 C-5.203 27.112 -5.203 27.112 -5.41 26.207 C-7.165 19.765 -9.25 17.363 -15 14 C-14 11 -14 11 -12.363 10.078 C-11.687 9.805 -11.01 9.532 -10.312 9.25 C-5.672 7.109 -3.006 4.053 0 0 Z " fill="#FDF4B5" transform="translate(540,124)"/>
<path d="M0 0 C0.392 0.557 0.784 1.114 1.188 1.688 C5.212 6.823 9.301 9.983 15 13 C14.278 13.536 13.556 14.072 12.812 14.625 C8.27 18.461 4.894 22.822 2 28 C-1 24 -1 24 -2.125 22 C-5.099 18.827 -9.005 17.575 -13 16 C-10.924 13.848 -8.956 11.969 -6.5 10.25 C-3.217 7.295 -1.74 4.005 0 0 Z " fill="#FCD15F" transform="translate(135,124)"/>
<path d="M0 0 C2.553 1.277 2.591 2.209 3.625 4.812 C5.901 9.651 9.124 11.201 14 13 C14 13.66 14 14.32 14 15 C12.928 15.557 11.855 16.114 10.75 16.688 C5.988 19.41 3.22 23.005 1 28 C0.34 27.67 -0.32 27.34 -1 27 C-1.351 25.928 -1.701 24.855 -2.062 23.75 C-4.022 18.749 -8.34 17.12 -13 15 C-13 14.34 -13 13.68 -13 13 C-7.25 10 -7.25 10 -5 10 C-4.732 9.278 -4.464 8.556 -4.188 7.812 C-3.01 5.024 -1.609 2.559 0 0 Z " fill="#FCD15F" transform="translate(171,416)"/>
<path d="M0 0 C0.99 0.495 0.99 0.495 2 1 C-6.004 10.814 -14.389 16.144 -26 21 C-26.812 21.353 -27.624 21.706 -28.461 22.07 C-45.094 28.161 -65.038 25.927 -81 19 C-92.058 13.571 -92.058 13.571 -95 10 C-95 9.34 -95 8.68 -95 8 C-92.074 9.375 -89.556 10.986 -86.938 12.875 C-72.6 22.568 -53.698 23.032 -37.062 20.316 C-24.493 17.797 -14.308 12.884 -5.059 3.953 C-3 2 -3 2 0 0 Z " fill="#F3B964" transform="translate(405,320)"/>
<path d="M0 0 C3.764 2.019 6.014 3.379 8.418 6.984 C8.043 9.672 8.043 9.672 7.418 11.984 C3.694 11.656 2.405 10.973 -0.457 8.422 C-3.387 5.763 -3.387 5.763 -6.957 5.297 C-11.309 6.122 -13.485 7.82 -16.785 10.672 C-18.582 11.984 -18.582 11.984 -21.582 11.984 C-22.457 9.297 -22.457 9.297 -22.582 5.984 C-16.26 -0.485 -8.851 -3.482 0 0 Z " fill="#3C373A" transform="translate(824.58203125,205.015625)"/>
<path d="M0 0 C1.65 0 3.3 0 5 0 C6.603 3.206 6.345 6.514 6 10 C4.509 14.472 2.255 17.482 -1.621 20.094 C-6.777 22.058 -12.584 21.508 -18 21 C-19 20 -19 20 -19.062 17.438 C-19.042 16.633 -19.021 15.829 -19 15 C-18.276 14.974 -17.551 14.948 -16.805 14.922 C-8.594 14.516 -8.594 14.516 -2 10 C-0.938 6.7 -0.381 3.441 0 0 Z " fill="#3E2923" transform="translate(730,458)"/>
<path d="M0 0 C2.969 0.639 5.416 1.641 8.125 3 C20.051 8.335 36.324 6.706 49 5 C43.066 10.934 33.469 10.291 25.616 10.321 C16.087 10.17 7.988 7.083 0 2 C0 1.34 0 0.68 0 0 Z " fill="#F8B969" transform="translate(225,341)"/>
<path d="M0 0 C0.99 0 1.98 0 3 0 C2.066 5.611 -0.302 10.193 -2.812 15.25 C-3.251 16.173 -3.69 17.096 -4.143 18.047 C-4.576 18.923 -5.01 19.8 -5.457 20.703 C-6.044 21.904 -6.044 21.904 -6.644 23.13 C-8 25 -8 25 -10.159 25.769 C-11.07 25.883 -11.07 25.883 -12 26 C-11.527 19.974 -8.836 15.391 -6 10.188 C-5.536 9.317 -5.072 8.446 -4.594 7.549 C-1.177 1.177 -1.177 1.177 0 0 Z " fill="#F9CD5E" transform="translate(808,84)"/>
<path d="M0 0 C1.32 0 2.64 0 4 0 C4 9.24 4 18.48 4 28 C2.68 28 1.36 28 0 28 C0 18.76 0 9.52 0 0 Z " fill="#F9CD5F" transform="translate(742,74)"/>
<path d="M0 0 C0 0.99 0 1.98 0 3 C-2.125 5.016 -2.125 5.016 -5 7.25 C-9.276 10.616 -13.368 14.071 -17.344 17.785 C-19 19 -19 19 -22 19 C-19.769 10.82 -8.44 0 0 0 Z " fill="#F4CB65" transform="translate(854,114)"/>
<path d="M0 0 C2.926 1.375 5.444 2.986 8.062 4.875 C19.167 12.338 32.022 14.183 45.125 14.625 C46.56 14.683 46.56 14.683 48.023 14.742 C50.349 14.835 52.674 14.921 55 15 C46.636 19.583 33.906 17.347 25 15 C16.61 12.507 5.737 8.964 0 2 C0 1.34 0 0.68 0 0 Z " fill="#E4B269" transform="translate(310,328)"/>
<path d="M0 0 C4.631 1.007 8.511 3.135 12.688 5.312 C13.472 5.704 14.256 6.095 15.064 6.498 C15.81 6.887 16.556 7.275 17.324 7.676 C18.006 8.026 18.687 8.375 19.389 8.736 C21.414 10.325 21.636 11.502 22 14 C16.27 13.497 12.06 11.169 7.125 8.438 C5.949 7.8 5.949 7.8 4.75 7.15 C2.829 6.108 0.913 5.058 -1 4 C-0.67 2.68 -0.34 1.36 0 0 Z " fill="#FAD166" transform="translate(640,134)"/>
<path d="M0 0 C3.694 0.597 3.93 0.904 6.324 4.203 C7.125 5.544 7.912 6.894 8.688 8.25 C9.09 8.919 9.493 9.588 9.908 10.277 C11.986 13.821 13.525 16.847 14 21 C11.558 20.623 10.311 20.344 8.628 18.481 C8.23 17.842 7.832 17.202 7.422 16.543 C6.984 15.842 6.545 15.142 6.094 14.42 C5.65 13.683 5.207 12.947 4.75 12.188 C4.291 11.462 3.832 10.737 3.359 9.99 C0 4.526 0 4.526 0 0 Z " fill="#F7CF64" transform="translate(678,93)"/>
<path d="M0 0 C7.11 -0.482 7.11 -0.482 11 1.625 C13 4 13 4 13.5 7.062 C12.969 10.181 12.483 11.138 10 13 C9.01 12.67 8.02 12.34 7 12 C6.67 10.02 6.34 8.04 6 6 C4.02 5.34 2.04 4.68 0 4 C0 2.68 0 1.36 0 0 Z " fill="#413C3A" transform="translate(687,185)"/>
<path d="M0 0 C0 3.681 -0.722 4.096 -3.188 6.688 C-8.936 13.062 -12.341 19.257 -15.105 27.387 C-15.987 29.963 -16.969 32.48 -18 35 C-18.33 35 -18.66 35 -19 35 C-19.695 23.348 -12.287 13.686 -5.016 5.207 C-3.384 3.421 -1.735 1.685 0 0 Z " fill="#E1BA7A" transform="translate(272,153)"/>
<path d="M0 0 C2.933 0.646 5.472 1.599 8.188 2.875 C14.606 5.778 20.981 8.1 28 9 C28 9.33 28 9.66 28 10 C17.657 10.69 8.685 7.527 0 2 C0 1.34 0 0.68 0 0 Z " fill="#EABD69" transform="translate(225,341)"/>
<path d="M0 0 C0.66 0.33 1.32 0.66 2 1 C-4.27 7.27 -10.54 13.54 -17 20 C-17.33 19.34 -17.66 18.68 -18 18 C-4.766 2.383 -4.766 2.383 0 0 Z " fill="#292022" transform="translate(570,461)"/>
<path d="M0 0 C-1.29 0.504 -2.582 1.003 -3.875 1.5 C-4.954 1.918 -4.954 1.918 -6.055 2.344 C-8 3 -8 3 -10 3 C-10 3.66 -10 4.32 -10 5 C-11.238 5.433 -12.475 5.866 -13.75 6.312 C-16.916 7.491 -19.431 8.752 -22 11 C-19.863 5.514 -14.981 3.613 -10 1 C-6.005 -0.702 -4.095 -1.194 0 0 Z " fill="#E6AE69" transform="translate(389,149)"/>
<path d="M0 0 C1.675 0.286 3.344 0.618 5 1 C5 2.65 5 4.3 5 6 C3.344 6.382 1.675 6.714 0 7 C-1 6 -1 6 -1.125 3.5 C-1 1 -1 1 0 0 Z " fill="#3A3837" transform="translate(830,468)"/>
<path d="M0 0 C1.207 0.031 1.207 0.031 2.438 0.062 C2.768 1.712 3.097 3.363 3.438 5.062 C1.457 5.392 -0.523 5.723 -2.562 6.062 C-2.945 4.406 -3.276 2.738 -3.562 1.062 C-2.562 0.062 -2.562 0.062 0 0 Z " fill="#3A3837" transform="translate(831.5625,457.9375)"/>
<path d="M0 0 C0.66 0.33 1.32 0.66 2 1 C-1.075 11.558 -1.075 11.558 -3 16 C-3.33 16 -3.66 16 -4 16 C-4.533 9.741 -2.818 5.549 0 0 Z " fill="#E5AA6B" transform="translate(257,172)"/>
<path d="M0 0 C0 0.33 0 0.66 0 1 C-11.385 0.505 -11.385 0.505 -23 0 C-23 -0.33 -23 -0.66 -23 -1 C-14.883 -2.031 -7.865 -2.568 0 0 Z " fill="#AB9395" transform="translate(494,591)"/>
<path d="M0 0 C-3.412 2.275 -4.36 2.196 -8.324 1.977 C-9.352 1.925 -10.38 1.873 -11.439 1.82 C-12.511 1.756 -13.583 1.691 -14.688 1.625 C-16.313 1.54 -16.313 1.54 -17.971 1.453 C-20.648 1.312 -23.324 1.16 -26 1 C-26 0.67 -26 0.34 -26 0 C-22.98 -0.196 -19.959 -0.382 -16.938 -0.562 C-16.09 -0.619 -15.242 -0.675 -14.369 -0.732 C-9.397 -1.02 -4.902 -0.898 0 0 Z " fill="#FDB66A" transform="translate(370,342)"/>
<path d="M0 0 C2.144 3.216 2.676 5.191 3 9 C2.34 9.66 1.68 10.32 1 11 C0.01 10.67 -0.98 10.34 -2 10 C-2 8.02 -2 6.04 -2 4 C-1.34 4 -0.68 4 0 4 C0 2.68 0 1.36 0 0 Z " fill="#F3AE65" transform="translate(187,251)"/>
<path d="M0 0 C1.65 0 3.3 0 5 0 C5 1.65 5 3.3 5 5 C3.125 5.625 3.125 5.625 1 6 C0.34 5.34 -0.32 4.68 -1 4 C-0.625 1.875 -0.625 1.875 0 0 Z " fill="#363332" transform="translate(828,480)"/>
<path d="M0 0 C0.66 0.33 1.32 0.66 2 1 C-0.64 3.97 -3.28 6.94 -6 10 C-6.66 9.67 -7.32 9.34 -8 9 C-6.417 4.726 -3.494 2.735 0 0 Z " fill="#ECB56A" transform="translate(405,320)"/>
<path d="M0 0 C0.99 0.33 1.98 0.66 3 1 C-0.3 4.3 -3.6 7.6 -7 11 C-7.33 10.01 -7.66 9.02 -8 8 C-5.36 5.36 -2.72 2.72 0 0 Z " fill="#F7C57A" transform="translate(196,206)"/>
<path d="M0 0 C0.33 0 0.66 0 1 0 C1.061 0.987 1.121 1.975 1.184 2.992 C1.267 4.274 1.351 5.555 1.438 6.875 C1.519 8.151 1.6 9.427 1.684 10.742 C1.792 13.883 1.792 13.883 3 16 C1.35 15.67 -0.3 15.34 -2 15 C-1.847 14.459 -1.693 13.917 -1.535 13.359 C-0.921 10.653 -0.668 8.015 -0.438 5.25 C-0.354 4.265 -0.27 3.28 -0.184 2.266 C-0.123 1.518 -0.062 0.77 0 0 Z " fill="#ECAB61" transform="translate(431,177)"/>
<path d="M0 0 C2.31 0 4.62 0 7 0 C7.33 1.32 7.66 2.64 8 4 C2.25 3.125 2.25 3.125 0 2 C0 1.34 0 0.68 0 0 Z " fill="#FAD353" transform="translate(654,144)"/>
<path d="M0 0 C5.75 0.75 5.75 0.75 8 3 C7.01 3 6.02 3 5 3 C4.67 3.99 4.34 4.98 4 6 C2.624 4.71 1.292 3.373 0 2 C0 1.34 0 0.68 0 0 Z " fill="#443C3B" transform="translate(746,861)"/>
<path d="M0 0 C0.66 0.66 1.32 1.32 2 2 C1.602 2.459 1.203 2.918 0.793 3.391 C-1.911 6.523 -4.58 9.639 -7 13 C-6.66 7.558 -3.297 4.063 0 0 Z " fill="#FCAD66" transform="translate(266,162)"/>
<path d="M0 0 C0.33 0.99 0.66 1.98 1 3 C-0.119 4.173 -1.245 5.338 -2.375 6.5 C-3.001 7.15 -3.628 7.799 -4.273 8.469 C-6 10 -6 10 -8 10 C-8 8 -8 8 -5.688 5.562 C-4.801 4.717 -3.914 3.871 -3 3 C-2.402 2.402 -1.804 1.804 -1.188 1.188 C-0.796 0.796 -0.404 0.404 0 0 Z " fill="#E48D59" transform="translate(366,158)"/>
<path d="M0 0 C5.192 -0.212 9.127 0.409 14 2 C14 2.33 14 2.66 14 3 C4.59 3.369 4.59 3.369 0 1 C0 0.67 0 0.34 0 0 Z " fill="#E0AF66" transform="translate(239,348)"/>
<path d="M0 0 C0.66 0 1.32 0 2 0 C3.478 2.957 3.06 5.742 3 9 C2.01 8.34 1.02 7.68 0 7 C-0.188 3.375 -0.188 3.375 0 0 Z " fill="#2C2927" transform="translate(449,398)"/>
<path d="M0 0 C3.3 0 6.6 0 10 0 C10 0.33 10 0.66 10 1 C8.329 1.402 8.329 1.402 6.625 1.812 C2.782 2.658 2.782 2.658 1 6 C0.67 4.02 0.34 2.04 0 0 Z " fill="#F0EFEA" transform="translate(360,779)"/>
<path d="M0 0 C0 0.66 0 1.32 0 2 C-2.64 2 -5.28 2 -8 2 C-8.33 1.34 -8.66 0.68 -9 0 C-5.931 -1.534 -3.299 -0.55 0 0 Z " fill="#DCAD68" transform="translate(433,283)"/>
<path d="M0 0 C1.32 1.32 2.64 2.64 4 4 C1.03 4 -1.94 4 -5 4 C-2 2 -2 2 0 2 C0 1.34 0 0.68 0 0 Z " fill="#BBA3A5" transform="translate(698,865)"/>
<path d="M0 0 C0 0.66 0 1.32 0 2 C-2.709 3.354 -5.009 3.065 -8 3 C-8 2.34 -8 1.68 -8 1 C-5.237 0.403 -2.84 0 0 0 Z " fill="#474045" transform="translate(859,276)"/>
</svg>