<svg version="1.1" xmlns="http://www.w3.org/2000/svg" width="1024" height="1024">
<path d="M0 0 C337.92 0 675.84 0 1024 0 C1024 337.92 1024 675.84 1024 1024 C686.08 1024 348.16 1024 0 1024 C0 686.08 0 348.16 0 0 Z " fill="#FECC7A" transform="translate(0,0)"/>
<path d="M0 0 C0.912 0 1.824 0 2.764 0.001 C13.638 0.267 24.866 3.037 34.469 8.238 C38.103 9.894 40.957 9.898 44.938 9.938 C56.751 10.371 67.555 14.541 76.375 22.562 C79.408 26.031 81.949 29.65 84.375 33.562 C85.059 34.607 85.059 34.607 85.758 35.672 C89.92 43.181 89.913 53.486 87.833 61.704 C86.001 67.404 83.651 72.746 80.199 77.66 C78.255 80.754 77.943 82.229 77.938 85.812 C77.442 94.289 73.406 101.672 67.375 107.562 C63.925 109.685 60.476 111.269 56.562 112.312 C53.679 113.96 52.879 115.965 51.871 119.062 C50.872 124.098 50.024 130.861 52.375 135.562 C52.415 137.895 52.418 140.23 52.375 142.562 C53.464 142.539 53.464 142.539 54.575 142.515 C57.883 142.452 61.191 142.413 64.5 142.375 C65.642 142.35 66.784 142.325 67.961 142.299 C75.145 142.236 79.966 142.498 85.5 147.473 C88.831 151.296 91.753 155.015 94.25 159.438 C98.999 167.735 105.846 174.509 113.125 180.629 C115.478 182.651 117.742 184.748 120.007 186.866 C135.058 201.274 135.058 201.274 152.375 212.562 C152.342 211.946 152.308 211.329 152.274 210.693 C151.972 200.006 153.708 189.609 155.25 179.062 C155.523 177.147 155.795 175.232 156.066 173.316 C156.704 168.834 157.363 164.355 158.033 159.877 C158.338 157.816 158.626 155.752 158.911 153.688 C159.145 152.094 159.145 152.094 159.383 150.469 C159.505 149.595 159.628 148.722 159.754 147.822 C160.375 145.563 160.375 145.563 162.062 143.568 C162.495 142.906 162.929 142.244 163.375 141.562 C162.468 137.776 160.605 135.387 157.961 132.602 C157.282 131.882 156.602 131.163 155.902 130.422 C155.192 129.685 154.482 128.947 153.75 128.188 C153.063 127.458 152.376 126.728 151.668 125.977 C146.624 120.677 141.349 115.723 135.621 111.168 C130.346 106.961 130.346 106.961 129.375 103.562 C128.712 96.601 128.712 96.601 131.25 92.625 C134.555 89.417 137.103 89.121 141.711 89.129 C146.836 89.963 151.01 92.889 155.375 95.562 C156.081 88.528 156.452 81.573 156.297 74.504 C156.284 73.819 156.272 73.134 156.259 72.429 C156.205 69.61 156.147 66.791 156.053 63.973 C155.624 50.53 155.624 50.53 158.672 46.652 C162.043 44.046 164.131 43.562 168.375 43.562 C171.313 44.5 171.313 44.5 173.375 45.562 C173.704 44.783 173.704 44.783 174.039 43.988 C176.382 38.836 178.484 35.536 183.375 32.562 C187.265 32.497 189.368 32.623 192.25 35.312 C193.464 37.74 194.003 39.882 194.375 42.562 C195.011 41.895 195.011 41.895 195.66 41.215 C200.482 36.562 200.482 36.562 205.188 36.562 C208.375 37.562 208.375 37.562 210.375 39.562 C210.57 42.164 210.57 42.164 210.5 45.188 C210.482 46.19 210.464 47.193 210.445 48.227 C210.411 49.383 210.411 49.383 210.375 50.562 C211.035 50.233 211.695 49.903 212.375 49.562 C214.25 49.395 214.25 49.395 216.375 49.375 C217.076 49.361 217.778 49.347 218.5 49.332 C220.375 49.562 220.375 49.562 222.375 51.562 C223.746 60.99 218.325 67.897 213 75.25 C210.115 79.503 209.511 82.525 210.375 87.562 C210.697 88.919 211.031 90.273 211.375 91.625 C212.967 98.084 213.637 106.921 211.879 113.385 C210.699 118.48 211.103 123.92 211.062 129.125 C211.033 130.37 211.004 131.614 210.975 132.896 C210.966 134.087 210.958 135.277 210.949 136.504 C210.935 137.594 210.92 138.684 210.905 139.807 C211.087 142.69 211.087 142.69 213.366 144.192 C214.029 144.644 214.692 145.097 215.375 145.562 C215.905 147.444 215.905 147.444 215.949 149.547 C215.977 150.318 216.005 151.089 216.033 151.883 C216.043 152.685 216.053 153.486 216.062 154.312 C216.105 155.891 216.151 157.469 216.199 159.047 C216.21 159.745 216.222 160.444 216.233 161.163 C216.345 163.704 216.345 163.704 216.873 166.755 C217.458 171.194 217.555 175.521 217.578 179.992 C217.585 180.892 217.592 181.791 217.599 182.718 C217.616 185.625 217.623 188.531 217.625 191.438 C217.626 192.427 217.628 193.416 217.629 194.435 C217.625 208.83 217.172 222.881 214.785 237.108 C214.389 239.477 214.049 241.848 213.719 244.227 C212.076 255.268 208.661 264.898 199.723 272.062 C188.138 279.464 175.785 281.213 162.428 278.538 C145.912 274.824 131.621 267.374 117.185 258.726 C108.029 253.262 98.53 247.948 88.375 244.562 C87.85 247.692 87.958 249.849 89.575 252.616 C91.298 254.949 93.093 257.199 94.938 259.438 C95.547 260.202 96.156 260.966 96.783 261.754 C100.35 266.2 104.048 270.516 107.819 274.789 C111.463 278.942 114.904 283.266 118.375 287.562 C118.846 288.145 119.318 288.727 119.803 289.327 C123.353 293.719 126.875 298.131 130.375 302.562 C131.183 303.585 131.991 304.607 132.824 305.66 C138.678 313.251 143.75 321.177 148.375 329.562 C148.855 330.425 149.334 331.287 149.828 332.176 C153.749 340.391 154.01 350.349 151.305 358.977 C146.374 369.618 139.429 375.974 128.652 380.492 C116.247 384.543 102.455 378.973 90.375 375.625 C82.515 373.485 74.556 371.932 66.557 370.401 C47.238 366.673 47.238 366.673 42.125 363.625 C39.376 358.813 39.987 353.975 40.375 348.562 C36.745 348.233 33.115 347.902 29.375 347.562 C29.004 349.573 29.004 349.573 28.625 351.625 C24.259 373.036 17.811 397.105 1.375 412.562 C0.811 412.896 0.247 413.23 -0.334 413.574 C-4.12 415.85 -4.12 415.85 -6.435 419.492 C-6.95 421.929 -7.278 424.338 -7.562 426.812 C-9.054 436.886 -11.195 446.683 -13.625 456.562 C-13.961 457.946 -14.297 459.329 -14.633 460.712 C-16.196 467.1 -17.856 473.445 -19.703 479.758 C-21.591 486.262 -23.051 492.799 -24.375 499.438 C-24.595 500.519 -24.816 501.601 -25.043 502.715 C-25.575 505.33 -26.103 507.946 -26.625 510.562 C-25.546 510.611 -24.467 510.66 -23.355 510.711 C-7.114 511.497 8.673 512.959 24.559 516.508 C29.29 517.563 34.044 518.443 38.812 519.312 C45.685 520.577 52.509 522.019 59.324 523.559 C60.117 523.737 60.909 523.916 61.726 524.1 C65.711 525 69.694 525.91 73.674 526.833 C85.402 529.794 85.402 529.794 97.375 530.562 C98.035 529.903 98.695 529.242 99.375 528.562 C104.375 527.463 108.584 528.253 112.938 530.875 C124.452 539.436 130.276 553.098 132.546 566.862 C135.762 589.217 135.762 589.217 129.859 597.215 C126.238 600.502 122.678 601.132 117.922 600.992 C108.445 599.393 98.844 591.461 92.375 584.562 C91.66 583.466 91.66 583.466 90.931 582.348 C87.832 577.536 87.832 577.536 83.019 574.755 C80.231 574.488 77.572 574.497 74.773 574.613 C73.752 574.62 72.731 574.627 71.678 574.635 C68.367 574.67 65.06 574.771 61.75 574.875 C59.46 574.917 57.171 574.955 54.881 574.991 C48.376 575.111 41.876 575.318 35.375 575.562 C34.567 575.592 33.759 575.621 32.926 575.652 C-8.918 576.977 -8.918 576.977 -49.625 585.562 C-59.559 586.475 -69.84 586.759 -78.625 581.562 C-79.411 581.115 -80.198 580.668 -81.008 580.207 C-90.075 574.626 -95.144 567.599 -98.625 557.562 C-100.631 547.932 -100.945 538.304 -100.875 528.5 C-100.873 527.833 -100.871 527.166 -100.869 526.478 C-100.818 512.744 -100.029 499.099 -97.625 485.562 C-99.69 487.163 -101.753 488.767 -103.812 490.375 C-104.447 490.87 -105.081 491.365 -105.734 491.875 C-109.42 494.77 -113.018 497.735 -116.55 500.815 C-122.518 506.016 -128.673 510.372 -135.434 514.492 C-141.096 518.165 -145.098 521.821 -148.75 527.5 C-158.066 541.496 -169.854 553.933 -182.617 564.836 C-184.887 566.788 -187.098 568.798 -189.312 570.812 C-194.755 575.722 -200.345 580.445 -205.956 585.16 C-208.663 587.435 -211.363 589.717 -214.062 592 C-214.86 592.674 -214.86 592.674 -215.675 593.362 C-220.315 597.288 -224.921 601.253 -229.528 605.218 C-233.079 608.265 -236.673 611.247 -240.312 614.188 C-245 617.989 -249.44 622.011 -253.879 626.098 C-256.544 628.49 -259.273 630.755 -262.062 633 C-266.105 636.258 -269.953 639.653 -273.75 643.188 C-277.286 646.458 -280.839 649.693 -284.562 652.75 C-285.232 653.3 -285.901 653.851 -286.59 654.418 C-289.177 655.873 -290.699 655.996 -293.625 655.562 C-295.426 654.25 -295.426 654.25 -296.938 652.562 C-297.449 652.006 -297.961 651.449 -298.488 650.875 C-299.051 650.225 -299.051 650.225 -299.625 649.562 C-302.961 651.014 -305.15 652.842 -307.707 655.414 C-308.475 656.184 -309.242 656.953 -310.033 657.746 C-310.827 658.552 -311.62 659.357 -312.438 660.188 C-313.61 661.361 -313.61 661.361 -314.807 662.559 C-319.034 666.818 -323.088 671.169 -327.006 675.714 C-329.482 678.541 -332.095 681.217 -334.75 683.875 C-335.249 684.386 -335.748 684.897 -336.262 685.424 C-340.155 689.332 -343.432 692.19 -348.938 693.125 C-356.998 691.896 -362.621 684.74 -367.875 678.938 C-374.955 671.257 -382.268 663.846 -389.71 656.515 C-393.996 652.273 -398.113 647.968 -402.041 643.392 C-403.952 641.185 -405.944 639.067 -407.949 636.948 C-412.76 631.852 -417.337 626.62 -421.688 621.125 C-422.14 620.558 -422.593 619.992 -423.06 619.408 C-427.465 613.751 -430.282 608.965 -430.051 601.746 C-429.31 597.948 -427.4 596.208 -424.625 593.562 C-420.309 590.685 -416.69 590.875 -411.625 591.562 C-405.947 593.532 -400.997 596.944 -395.938 600.125 C-383.216 608.055 -369.751 615.048 -355.938 620.875 C-355.249 621.171 -354.561 621.467 -353.853 621.772 C-351.355 622.781 -349.213 623.584 -346.496 623.484 C-343.811 622.161 -341.677 620.408 -339.375 618.5 C-338.483 617.767 -337.591 617.033 -336.672 616.277 C-335.659 615.428 -335.659 615.428 -334.625 614.562 C-335.306 613.511 -335.986 612.459 -336.688 611.375 C-338.178 609.071 -338.659 607.988 -338.438 605.223 C-337.413 601.868 -335.915 600.41 -333.398 597.98 C-332.531 597.13 -331.663 596.28 -330.77 595.404 C-329.856 594.528 -328.942 593.652 -328 592.75 C-326.214 591.017 -324.43 589.281 -322.648 587.543 C-321.854 586.779 -321.059 586.015 -320.24 585.227 C-318.196 583.144 -316.293 581.045 -314.393 578.836 C-310.974 574.914 -307.4 571.195 -303.715 567.523 C-303.064 566.87 -302.412 566.217 -301.741 565.544 C-299.612 563.411 -297.48 561.281 -295.348 559.152 C-293.852 557.656 -292.357 556.16 -290.861 554.663 C-287.737 551.537 -284.611 548.413 -281.484 545.291 C-277.492 541.304 -273.504 537.313 -269.518 533.321 C-266.434 530.233 -263.347 527.148 -260.26 524.064 C-258.789 522.594 -257.319 521.123 -255.85 519.651 C-253.791 517.589 -251.728 515.53 -249.664 513.472 C-249.068 512.874 -248.472 512.276 -247.858 511.66 C-244.182 508.002 -240.382 504.537 -236.451 501.154 C-228.347 494.089 -221.215 486.393 -214.934 477.668 C-207.841 468.128 -199.643 459.323 -191.625 450.562 C-190.31 449.12 -190.31 449.12 -188.968 447.648 C-178.465 436.22 -167.485 425.269 -156.5 414.308 C-153.774 411.587 -151.052 408.862 -148.332 406.136 C-146.204 404.004 -144.074 401.875 -141.944 399.747 C-140.939 398.743 -139.935 397.739 -138.932 396.734 C-133.334 391.125 -127.67 385.687 -121.625 380.562 C-120.414 379.519 -119.203 378.475 -117.992 377.43 C-116.828 376.432 -115.664 375.434 -114.5 374.438 C-113.919 373.939 -113.337 373.44 -112.738 372.926 C-112.162 372.432 -111.586 371.938 -110.992 371.43 C-110.153 370.705 -110.153 370.705 -109.296 369.967 C-108.195 369.041 -107.071 368.141 -105.926 367.27 C-102.373 364.534 -100.842 362.586 -99.75 358.25 C-98.178 352.921 -96.119 348.13 -93.625 343.188 C-93.293 342.522 -92.96 341.856 -92.618 341.171 C-90.538 337.098 -88.231 333.32 -85.625 329.562 C-99.288 328.168 -115.343 336.374 -126.098 344.41 C-126.767 344.955 -127.436 345.501 -128.125 346.062 C-130.753 348.129 -131.746 348.588 -135.188 349.312 C-143.798 347.434 -148.025 339.457 -152.625 332.562 C-155.077 328.721 -157.454 324.837 -159.812 320.938 C-160.415 319.953 -161.018 318.968 -161.639 317.953 C-172.092 300.741 -172.092 300.741 -170.625 292.562 C-169.125 289.5 -169.125 289.5 -166.625 286.562 C-166.112 285.959 -165.599 285.356 -165.07 284.734 C-148.051 266.181 -116.976 254.42 -92.625 250.562 C-90.792 250.535 -88.958 250.513 -87.125 250.5 C-84.726 250.41 -84.726 250.41 -82.625 249.562 C-78.037 244.101 -76.44 236.334 -74.625 229.562 C-80.534 232.09 -86.214 234.847 -91.812 238 C-92.567 238.422 -93.322 238.844 -94.099 239.278 C-101.441 243.408 -108.691 247.693 -115.925 252.008 C-129.221 259.932 -139.789 266.103 -155.875 262.938 C-179.889 254.132 -195.344 223.798 -207.312 202.875 C-207.747 202.133 -208.181 201.39 -208.629 200.626 C-210.941 196.49 -212.365 193.437 -211.625 188.562 C-209.625 186.688 -209.625 186.688 -207.625 185.562 C-208.217 181.516 -209.515 178.626 -211.574 175.105 C-212.176 174.075 -212.777 173.044 -213.396 171.982 C-214.029 170.916 -214.661 169.849 -215.312 168.75 C-215.925 167.695 -216.538 166.64 -217.17 165.553 C-223.768 153.991 -223.768 153.991 -233.25 144.875 C-239.65 140.083 -239.65 140.083 -241.625 136.562 C-241.93 133.804 -241.814 131.353 -241.625 128.562 C-240.635 128.233 -239.645 127.903 -238.625 127.562 C-238.712 126.658 -238.712 126.658 -238.801 125.734 C-239.17 119.2 -239.17 119.2 -236.438 116 C-233.497 114.497 -231.87 114.192 -228.625 114.562 C-228.625 113.903 -228.625 113.243 -228.625 112.562 C-225.16 112.067 -225.16 112.067 -221.625 111.562 C-221.481 110.923 -221.336 110.284 -221.188 109.625 C-220.625 107.562 -220.625 107.562 -219.625 106.562 C-218.106 106.491 -216.583 106.479 -215.062 106.5 C-213.823 106.514 -213.823 106.514 -212.559 106.527 C-211.601 106.545 -211.601 106.545 -210.625 106.562 C-210.254 104.954 -210.254 104.954 -209.875 103.312 C-208.603 99.498 -207.896 97.834 -204.625 95.562 C-200.516 94.758 -199.011 95.308 -195.5 97.625 C-192.334 100.549 -190.49 103.69 -188.625 107.562 C-188.625 108.553 -188.625 109.543 -188.625 110.562 C-187.965 110.233 -187.305 109.903 -186.625 109.562 C-183.25 109.188 -183.25 109.188 -179.625 109.562 C-174.647 113.868 -173.868 119.535 -173.367 125.77 C-173.124 133.134 -173.985 139.007 -176.75 145.844 C-177.747 148.941 -177.925 151.328 -177.625 154.562 C-175.386 157.249 -173.059 159.243 -170.25 161.312 C-167.194 163.932 -164.989 166.812 -162.57 170.016 C-160.526 172.692 -158.4 175.283 -156.25 177.875 C-151.513 183.631 -147.052 189.566 -142.625 195.562 C-137.992 195.018 -134.685 193.773 -130.625 191.5 C-129.497 190.873 -128.37 190.245 -127.208 189.599 C-126.013 188.921 -124.819 188.242 -123.625 187.562 C-122.396 186.871 -121.167 186.179 -119.938 185.487 C-111.633 180.794 -103.538 175.897 -95.625 170.562 C-94.434 169.833 -93.242 169.106 -92.047 168.383 C-81.597 161.859 -73.252 153.559 -64.869 144.623 C-58.597 138.012 -52.578 132.503 -43.312 131.039 C-42.426 131.088 -41.539 131.137 -40.625 131.188 C-39.264 131.238 -39.264 131.238 -37.875 131.289 C-35.625 131.562 -35.625 131.562 -33.625 132.562 C-31.885 132.647 -30.141 132.67 -28.398 132.66 C-27.367 132.657 -26.336 132.654 -25.273 132.65 C-24.193 132.642 -23.113 132.634 -22 132.625 C-20.912 132.62 -19.824 132.616 -18.703 132.611 C-16.01 132.6 -13.318 132.583 -10.625 132.562 C-11.414 131.781 -12.203 131 -13.016 130.195 C-19.259 123.896 -19.901 118.934 -19.951 110.327 C-19.854 103.513 -18.202 97.855 -15.625 91.562 C-14.946 89.567 -14.277 87.567 -13.625 85.562 C-13.955 85.233 -14.285 84.903 -14.625 84.562 C-14.984 81.805 -14.984 81.805 -14.625 78.562 C-12.578 76.07 -12.578 76.07 -9.875 73.688 C-5.477 69.557 -2.879 66.091 -0.625 60.562 C0.21 59.047 0.21 59.047 1.062 57.5 C2.55 54.172 3.014 51.175 3.375 47.562 C2.571 47.727 1.766 47.892 0.938 48.062 C-6.857 49.157 -13.006 49.31 -19.625 44.562 C-25.257 39.415 -28.667 33.469 -29.125 25.75 C-28.878 18.977 -26.28 13.463 -21.723 8.484 C-14.94 2.288 -9.114 -0.023 0 0 Z " fill="#170D3C" transform="translate(620.625,187.4375)"/>
<path d="M0 0 C3.499 -0.205 6.997 -0.328 10.5 -0.438 C11.482 -0.496 12.465 -0.555 13.477 -0.615 C18.86 -0.741 22.259 -0.398 26.469 3.129 C29.548 6.25 31.873 9.529 34 13.375 C38.877 21.681 44.644 27.861 51.873 34.126 C55.271 37.119 58.532 40.254 61.812 43.375 C67.135 48.402 72.528 53.234 78.258 57.797 C82.164 60.935 85.962 64.196 89.762 67.46 C92.699 69.995 92.699 69.995 96 72 C96.344 74.328 96.344 74.328 96.5 77.25 C96.715 81.228 97.131 84.439 99 88 C99.99 88.33 100.98 88.66 102 89 C104.897 81.365 106.057 73.896 107.062 65.812 C107.235 64.481 107.407 63.149 107.58 61.818 C108.715 52.929 109.657 44.028 110.317 35.091 C110.746 29.585 111.661 24.359 113 19 C116.206 19.364 119.212 19.748 122.293 20.734 C133.25 24.165 144.643 23.269 156 23 C156.63 69.791 156.63 69.791 153 92 C152.793 93.453 152.586 94.906 152.379 96.359 C150.906 105.034 147.957 111.046 141.012 116.586 C132.625 122.22 123.892 122.857 114 122 C109.519 121.014 105.293 119.609 101 118 C100.161 117.7 99.322 117.399 98.457 117.09 C87.777 113.065 77.854 107.552 68.062 101.75 C57.395 95.436 46.247 90.191 35 85 C34.98 84.239 34.96 83.477 34.94 82.693 C34.845 79.232 34.735 75.772 34.625 72.312 C34.579 70.515 34.579 70.515 34.531 68.682 C34.493 67.525 34.454 66.368 34.414 65.176 C34.367 63.581 34.367 63.581 34.319 61.954 C33.996 58.967 33.252 56.717 32 54 C31.34 54 30.68 54 30 54 C29.708 58.264 29.424 62.528 29.146 66.793 C29.05 68.236 28.953 69.679 28.854 71.121 C28.564 75.364 28.309 79.607 28.104 83.855 C28.034 85.292 27.958 86.728 27.876 88.165 C27.408 96.946 27.408 103.838 33 111 C33.521 111.692 34.043 112.384 34.58 113.097 C36.254 115.236 37.987 117.308 39.75 119.375 C41 120.866 42.25 122.357 43.5 123.848 C44.102 124.561 44.704 125.274 45.324 126.008 C47.494 128.588 49.624 131.197 51.75 133.812 C53.919 136.471 56.099 139.117 58.312 141.738 C93.205 183.062 93.205 183.062 92.383 200.555 C91.132 208.548 86.612 215.306 80.352 220.32 C76.51 223 76.51 223 74 223 C73.853 222.031 73.706 221.061 73.555 220.062 C69.83 197.154 59.623 177.738 45.298 159.657 C44.238 158.303 43.216 156.919 42.207 155.527 C35.061 145.7 25.758 137.13 16.514 129.299 C0.261 115.355 -1.749 87.869 -6 68 C-8.326 57.248 -11.206 46.924 -14.828 36.535 C-16 33 -16 33 -16 31 C-17.65 31.66 -19.3 32.32 -21 33 C-20.759 33.883 -20.518 34.767 -20.269 35.677 C-16.066 51.133 -11.941 66.561 -8.688 82.25 C-6.495 92.795 -4.296 103.137 -0.387 113.207 C-0.106 113.931 0.174 114.655 0.463 115.401 C1.014 116.802 1.578 118.198 2.158 119.587 C3.726 123.502 4.422 125.988 3 130 C2.056 132.048 1.048 134.066 0 136.062 C-2.951 141.799 -5.682 147.609 -8.312 153.5 C-8.685 154.329 -9.057 155.158 -9.44 156.011 C-11.539 160.697 -13.608 165.394 -15.656 170.102 C-16.542 172.109 -17.427 174.117 -18.312 176.125 C-18.721 177.08 -19.129 178.034 -19.55 179.018 C-19.942 179.901 -20.334 180.785 -20.738 181.695 C-21.079 182.479 -21.42 183.263 -21.771 184.071 C-23.328 186.515 -24.17 187.298 -27 188 C-29.995 187.025 -29.995 187.025 -33.512 185.301 C-34.149 184.994 -34.787 184.688 -35.444 184.372 C-36.817 183.711 -38.187 183.042 -39.554 182.366 C-42.417 180.952 -45.296 179.572 -48.175 178.191 C-49.639 177.488 -51.101 176.784 -52.563 176.079 C-59.44 172.765 -66.385 169.631 -73.375 166.562 C-74.425 166.097 -75.475 165.631 -76.557 165.152 C-77.516 164.732 -78.474 164.312 -79.461 163.879 C-80.294 163.514 -81.127 163.148 -81.986 162.772 C-83.952 161.881 -83.952 161.881 -86 162 C-86.817 163.748 -87.628 165.499 -88.438 167.25 C-89.116 168.712 -89.116 168.712 -89.809 170.203 C-90.789 172.505 -91.436 174.58 -92 177 C-90.182 177.555 -90.182 177.555 -88.328 178.121 C-81.908 180.265 -75.864 183.178 -69.75 186.062 C-68.517 186.64 -67.285 187.217 -66.052 187.794 C-55.343 192.81 -44.662 197.885 -34 203 C-35.607 221.264 -42.165 243.153 -56.207 255.793 C-62.954 261.124 -69.945 266.088 -77 271 C-77.939 271.655 -78.878 272.31 -79.845 272.985 C-84.777 276.426 -89.715 279.858 -94.656 283.285 C-111.907 295.262 -128.916 307.6 -145.344 320.687 C-147.014 322.011 -148.693 323.324 -150.375 324.633 C-156.9 329.716 -163.323 334.904 -169.688 340.188 C-185.752 353.473 -185.752 353.473 -194.688 357.812 C-201.062 361.162 -204.177 366.054 -208 372 C-219.896 389.596 -235.577 403.524 -251.565 417.296 C-255.17 420.402 -258.732 423.545 -262.25 426.75 C-265.543 429.739 -268.913 432.584 -272.375 435.375 C-276.928 439.056 -281.234 442.926 -285.517 446.911 C-289.628 450.714 -293.923 454.243 -298.285 457.754 C-301.107 460.088 -303.806 462.52 -306.5 465 C-310.966 469.111 -315.584 472.964 -320.305 476.777 C-325.46 481.028 -330.388 485.551 -335.262 490.121 C-335.959 490.762 -336.656 491.402 -337.375 492.062 C-338.284 492.915 -338.284 492.915 -339.211 493.785 C-341 495 -341 495 -345 495 C-346.628 493.842 -346.628 493.842 -348.207 492.219 C-348.79 491.628 -349.372 491.038 -349.973 490.43 C-350.58 489.793 -351.187 489.156 -351.812 488.5 C-352.76 487.529 -352.76 487.529 -353.727 486.539 C-357.286 482.869 -360.723 479.129 -364 475.203 C-365.792 473.229 -367.64 471.392 -369.562 469.547 C-370.53 468.611 -370.53 468.611 -371.518 467.656 C-372.824 466.4 -374.14 465.155 -375.467 463.922 C-376.066 463.344 -376.664 462.767 -377.281 462.172 C-378.102 461.4 -378.102 461.4 -378.939 460.612 C-380 459 -380 459 -379.92 457.068 C-378.717 454.364 -377.116 452.796 -374.992 450.734 C-374.17 449.926 -373.347 449.118 -372.5 448.285 C-371.634 447.449 -370.767 446.612 -369.875 445.75 C-368.182 444.101 -366.492 442.45 -364.805 440.797 C-364.052 440.068 -363.299 439.34 -362.523 438.589 C-360.552 436.567 -358.719 434.529 -356.887 432.387 C-352.881 427.795 -348.616 423.504 -344.286 419.22 C-343.443 418.381 -342.599 417.543 -341.731 416.679 C-339.439 414.4 -337.144 412.123 -334.85 409.847 C-332.431 407.446 -330.016 405.04 -327.601 402.635 C-319.396 394.463 -311.187 386.296 -302.968 378.139 C-298.416 373.623 -293.871 369.101 -289.331 364.573 C-286.938 362.187 -284.542 359.804 -282.141 357.427 C-268.7 344.161 -268.7 344.161 -256.845 329.505 C-254.685 326.572 -252.28 324.105 -249.645 321.605 C-247.817 319.821 -246.164 317.937 -244.5 316 C-242.254 313.394 -239.954 310.911 -237.5 308.5 C-235.189 306.23 -233.031 303.909 -230.938 301.438 C-227.486 297.423 -223.761 293.721 -220 290 C-214.585 284.655 -214.585 284.655 -209.5 279 C-202.442 270.685 -194.445 262.938 -186.121 255.902 C-183.129 253.218 -180.326 250.357 -177.5 247.5 C-173.48 243.439 -169.438 239.497 -165.078 235.797 C-162.919 233.93 -160.824 232.001 -158.733 230.059 C-153.557 225.256 -148.271 220.666 -142.766 216.238 C-139.889 213.91 -137.071 211.52 -134.25 209.125 C-130.892 206.301 -127.512 203.614 -123.941 201.062 C-123.256 200.572 -122.57 200.082 -121.864 199.578 C-120.521 198.626 -119.17 197.685 -117.812 196.754 C-114.29 194.421 -114.29 194.421 -112.315 190.847 C-112.159 189.933 -112.159 189.933 -112 189 C-118.969 190.855 -124.139 193.813 -129.875 198.125 C-131.349 199.214 -132.826 200.3 -134.305 201.383 C-134.944 201.861 -135.583 202.34 -136.242 202.833 C-138 204 -138 204 -141 205 C-138.655 193.901 -131.319 185.012 -124.241 176.517 C-123.177 175.217 -122.167 173.874 -121.168 172.523 C-119.687 170.562 -119.687 170.562 -117 168 C-112.23 167.675 -107.697 170.265 -103.367 172.16 C-100.79 173.223 -100.79 173.223 -97 173 C-89.755 157.221 -89.755 157.221 -86.549 140.251 C-85.668 129.484 -81.941 120.827 -77.423 111.098 C-74.71 105.19 -72.145 99.216 -69.562 93.25 C-69.147 92.294 -69.147 92.294 -68.724 91.319 C-63.223 78.648 -57.975 65.888 -53 53 C-52.668 52.15 -52.336 51.3 -51.995 50.424 C-51.103 48.123 -50.234 45.814 -49.375 43.5 C-49.127 42.86 -48.879 42.22 -48.623 41.561 C-46.849 36.624 -46.747 32.162 -47 27 C-45.281 25.962 -43.55 24.945 -41.812 23.938 C-40.85 23.369 -39.887 22.801 -38.895 22.215 C-35.619 20.84 -34.302 20.802 -31 22 C-28.313 24.437 -28.313 24.437 -26 27 C-24.182 29.196 -24.182 29.196 -21.652 29.434 C-17.86 28.814 -16.876 27.068 -14.562 24.062 C-13.786 23.056 -13.01 22.049 -12.211 21.012 C-7.218 14.211 -3.334 7.753 0 0 Z " fill="#FDFDFD" transform="translate(673,337)"/>
<path d="M0 0 C1.79 0.035 3.579 0.067 5.369 0.096 C9.727 0.172 14.081 0.293 18.438 0.438 C17.436 2.445 16.431 4.451 15.402 6.445 C12.656 12.105 11.699 17.171 11.438 23.438 C13.418 23.438 15.398 23.438 17.438 23.438 C17.768 24.428 18.097 25.418 18.438 26.438 C19.486 26.095 19.486 26.095 20.555 25.746 C21.465 25.459 22.375 25.171 23.312 24.875 C24.217 24.585 25.122 24.295 26.055 23.996 C28.438 23.438 28.438 23.438 30.438 24.438 C30.438 25.098 30.438 25.757 30.438 26.438 C29.447 26.767 28.457 27.098 27.438 27.438 C26.613 29.424 26.613 29.424 26.125 31.938 C17.058 67.975 -0.648 110.107 -30.562 133.438 C-32.504 135.078 -34.442 136.724 -36.375 138.375 C-44.981 145.549 -54.079 151.919 -63.562 157.875 C-70.984 162.545 -77.776 167.898 -84.562 173.438 C-85.284 174.015 -86.006 174.592 -86.75 175.188 C-92.178 179.646 -96.551 184.929 -100.934 190.395 C-102.142 191.901 -102.142 191.901 -103.375 193.438 C-104.124 194.386 -104.873 195.335 -105.645 196.312 C-106.277 197.014 -106.91 197.715 -107.562 198.438 C-108.222 198.438 -108.882 198.438 -109.562 198.438 C-114.885 192.028 -119.005 184.554 -123.188 177.375 C-123.734 176.446 -124.281 175.517 -124.844 174.561 C-125.917 172.731 -126.983 170.897 -128.04 169.058 C-129.036 167.343 -130.058 165.644 -131.108 163.961 C-133.226 160.471 -134.544 158.282 -134.633 154.145 C-130.021 142.481 -112.225 134.906 -101.342 130.165 C-86.104 123.741 -70.943 118.955 -54.438 117.16 C-50.948 116.283 -49.152 114.906 -46.562 112.438 C-36.035 94.672 -34.193 74.099 -32.375 54 C-32.197 52.093 -32.018 50.186 -31.838 48.279 C-31.405 43.666 -30.981 39.052 -30.562 34.438 C-31.553 34.438 -32.543 34.438 -33.562 34.438 C-35.233 39.685 -36.754 44.962 -38.062 50.312 C-38.474 51.946 -38.474 51.946 -38.895 53.613 C-39.434 56.701 -39.605 59.2 -39.574 62.293 C-39.659 67.665 -39.888 72.666 -42.562 77.438 C-48.311 82.509 -56.004 84.908 -62.991 87.808 C-69.385 90.725 -75.252 94.506 -81.188 98.25 C-109.622 116.145 -109.622 116.145 -122.562 114.438 C-138.84 108.019 -148.764 91.21 -158.125 77.312 C-158.788 76.335 -158.788 76.335 -159.464 75.338 C-162.562 70.679 -162.562 70.679 -162.562 68.438 C-160.34 66.886 -158.11 65.434 -155.812 64 C-149.24 59.786 -143.637 55.127 -138.051 49.688 C-135.904 47.746 -134.212 46.529 -131.562 45.438 C-130.85 46.283 -130.137 47.129 -129.402 48 C-123.152 55.413 -123.152 55.413 -116.812 62.75 C-116.27 63.373 -115.727 63.995 -115.168 64.637 C-114.089 65.847 -112.986 67.037 -111.863 68.207 C-106.209 74.243 -102.471 81.209 -98.562 88.438 C-97.903 88.438 -97.243 88.438 -96.562 88.438 C-95.378 79.975 -99.654 73.618 -103.562 66.438 C-104.233 65.106 -104.901 63.773 -105.562 62.438 C-104.96 62.101 -104.358 61.765 -103.737 61.419 C-90.511 54.025 -77.368 46.542 -64.562 38.438 C-63.893 38.014 -63.223 37.59 -62.532 37.153 C-50.621 29.561 -39.44 21.708 -30.988 10.176 C-30.188 9.272 -29.387 8.369 -28.562 7.438 C-28.04 6.819 -27.517 6.201 -26.978 5.564 C-19.419 -1.873 -9.851 -0.337 0 0 Z " fill="#FCFCFD" transform="translate(591.5625,328.5625)"/>
<path d="M0 0 C2.984 1.909 5.813 3.925 8.633 6.066 C9.335 6.563 10.038 7.059 10.762 7.57 C22.198 16.419 28.819 30.992 35.215 43.55 C41.878 56.586 49.589 68.556 58.633 80.066 C59.301 80.928 59.968 81.789 60.656 82.676 C64.738 87.871 69.035 92.821 73.484 97.703 C75.374 99.782 77.23 101.882 79.07 104.004 C81.831 107.179 84.661 110.282 87.508 113.379 C91.589 117.86 95.509 122.432 99.301 127.16 C100.904 129.159 102.534 131.137 104.184 133.098 C117.356 148.96 139.633 179.308 139.633 201.066 C131.996 201.943 127.382 200.277 121.337 195.528 C116.165 191.093 111.474 186.12 106.746 181.223 C103.496 177.876 100.097 174.8 96.559 171.764 C93.435 169.011 90.544 166.04 87.633 163.066 C82.793 158.182 77.898 153.494 72.633 149.066 C71.61 148.181 70.588 147.294 69.566 146.406 C31.736 113.583 -11.104 84.49 -56.742 63.691 C-66.5 59.236 -75.868 54.224 -80.742 44.254 C-82.525 35.16 -79.097 27.795 -74.367 20.066 C-72.367 19.066 -72.367 19.066 -70.574 19.544 C-69.855 19.828 -69.136 20.111 -68.395 20.402 C-67.182 20.879 -67.182 20.879 -65.944 21.365 C-65.073 21.72 -64.202 22.075 -63.305 22.441 C-62.407 22.806 -61.508 23.171 -60.583 23.548 C-40.514 31.873 -22.879 43.239 -6.771 57.8 C-5.626 58.833 -4.462 59.846 -3.293 60.852 C7.131 70.352 13.783 84.043 18.633 97.066 C18.633 97.726 18.633 98.386 18.633 99.066 C19.293 99.066 19.953 99.066 20.633 99.066 C21.039 84.243 14.217 71.994 4.633 61.066 C4.103 60.406 3.573 59.746 3.027 59.066 C-14.364 37.915 -44.614 21.479 -71.367 16.066 C-66.245 5.124 -55.634 -2.41 -44.719 -7.062 C-29.145 -11.11 -13.645 -7.836 0 0 Z " fill="#FDFDFD" transform="translate(382.3671875,76.93359375)"/>
<path d="M0 0 C-1.114 12.704 -4.133 24.838 -7.609 37.062 C-11.372 50.323 -14.845 63.67 -17.707 77.154 C-18.123 79.106 -18.561 81.053 -19 83 C-19.396 84.835 -19.396 84.835 -19.801 86.707 C-21.208 90.571 -22.779 92.104 -25.938 94.688 C-30.459 98.399 -30.459 98.399 -34 103 C-33.778 105.698 -33.778 105.698 -33 108 C-28.007 107.55 -25.624 106.301 -22 102.875 C-21.196 102.13 -20.391 101.385 -19.562 100.617 C-17.084 98.236 -17.084 98.236 -15.732 96.154 C-13.656 93.236 -12.204 91.302 -8.642 90.409 C-5.792 90.235 -3.039 90.289 -0.188 90.438 C0.831 90.465 1.849 90.493 2.898 90.522 C11.67 90.824 20.327 91.678 29 93 C30.201 93.179 31.403 93.358 32.641 93.543 C40.592 94.796 40.592 94.796 43 96 C44.196 96.103 45.393 96.206 46.625 96.312 C53.253 96.984 59.624 98.837 66.056 100.503 C68.737 101.188 71.428 101.818 74.125 102.438 C75.158 102.675 76.19 102.912 77.254 103.156 C80.26 103.833 83.268 104.497 86.277 105.156 C96.041 107.31 105.627 109.461 115 113 C115.273 119.069 114.461 123.776 112.5 129.5 C112.262 130.227 112.023 130.954 111.777 131.703 C111.195 133.472 110.599 135.237 110 137 C108.948 137.015 108.948 137.015 107.875 137.031 C101.184 137.13 94.493 137.233 87.803 137.339 C84.365 137.394 80.928 137.447 77.49 137.497 C49.395 137.901 49.395 137.901 21.438 140.5 C14.356 141.399 7.318 142.209 0.188 142.562 C-7.58 142.968 -15.115 143.879 -22.602 146.039 C-27.985 147.398 -33.349 147.406 -38.875 147.438 C-39.9 147.47 -40.925 147.503 -41.98 147.537 C-51.203 147.602 -58.044 144.9 -64.875 138.688 C-71.987 130.957 -74.312 121.384 -74.301 111.066 C-74.307 110.323 -74.312 109.58 -74.318 108.814 C-74.33 106.397 -74.324 103.98 -74.312 101.562 C-74.31 100.734 -74.307 99.905 -74.304 99.051 C-74.246 87.59 -73.993 76.132 -73.153 64.7 C-73.052 63.288 -72.963 61.876 -72.887 60.463 C-72.196 48.294 -72.196 48.294 -67.426 44 C-65.975 42.965 -64.498 41.965 -63 41 C-61.572 39.921 -60.149 38.836 -58.73 37.746 C-57.219 36.639 -55.704 35.537 -54.188 34.438 C-52.514 33.216 -50.841 31.995 -49.168 30.773 C-48.316 30.153 -47.465 29.533 -46.587 28.894 C-44.024 27.017 -41.473 25.125 -38.926 23.227 C-7.742 0 -7.742 0 0 0 Z " fill="#FDFCFD" transform="translate(603,617)"/>
<path d="M0 0 C4.726 0.004 9.452 0.006 14.179 0.007 C87.154 0.035 160.13 0.28 233.105 0.519 C243.633 0.554 254.161 0.586 264.69 0.618 C279.501 0.663 294.313 0.712 309.125 0.765 C316.395 0.792 323.665 0.817 330.935 0.838 C337.689 0.857 344.443 0.882 351.197 0.909 C353.647 0.919 356.096 0.926 358.545 0.932 C371.982 0.966 385.354 1.239 398.769 2.024 C403.318 2.266 407.872 2.321 412.427 2.375 C414.453 2.406 416.479 2.438 418.505 2.47 C420.035 2.493 420.035 2.493 421.596 2.517 C436.617 2.753 451.625 3.02 466.614 4.066 C467.735 4.141 468.855 4.216 470.009 4.293 C477.351 4.87 477.351 4.87 480.739 7.129 C480.739 7.789 480.739 8.449 480.739 9.129 C475.115 10.517 469.678 11.465 463.878 11.688 C463.083 11.724 462.288 11.76 461.469 11.797 C458.559 11.921 455.65 12.027 452.739 12.129 C451.564 12.17 450.388 12.212 449.177 12.255 C438.628 12.617 428.078 12.909 417.526 13.177 C416.655 13.199 415.783 13.221 414.886 13.244 C366.803 14.454 318.72 14.408 270.625 14.368 C257.606 14.357 244.587 14.357 231.568 14.358 C207.64 14.358 183.712 14.348 159.784 14.333 C138.046 14.32 116.309 14.313 94.571 14.314 C93.166 14.314 91.762 14.314 90.358 14.314 C89.316 14.314 89.316 14.314 88.253 14.314 C84.756 14.314 81.258 14.314 77.761 14.315 C77.07 14.315 76.38 14.315 75.669 14.315 C53.388 14.315 31.108 14.308 8.827 14.3 C-0.209 14.297 -9.246 14.296 -18.283 14.296 C-29.279 14.295 -40.275 14.29 -51.272 14.281 C-56.862 14.277 -62.451 14.274 -68.041 14.275 C-147.331 14.289 -147.331 14.289 -161.261 10.129 C-161.921 9.139 -162.581 8.149 -163.261 7.129 C-156.372 3.9 -148.626 3.961 -141.143 3.629 C-140.287 3.588 -139.431 3.548 -138.549 3.506 C-135.828 3.377 -133.107 3.253 -130.386 3.129 C-127.713 3.005 -125.04 2.879 -122.367 2.754 C-120.579 2.67 -118.79 2.586 -117.001 2.504 C-112.371 2.287 -107.744 2.043 -103.118 1.754 C-68.786 -0.333 -34.379 -0.031 0 0 Z " fill="#100A3B" transform="translate(342.2606010437012,899.8712272644043)"/>
<path d="M0 0 C0.851 0.023 1.701 0.047 2.578 0.071 C5.431 0.169 8.275 0.326 11.125 0.5 C12.184 0.563 13.243 0.626 14.334 0.69 C47.492 2.776 47.492 2.776 56.762 12.156 C60.84 16.924 61.409 19.846 61.348 25.957 C60.978 30.179 59.186 32.985 56.812 36.375 C54.196 38.119 52.217 37.775 49.125 37.5 C46.238 35.969 46.238 35.969 43.438 34 C39.64 31.158 39.64 31.158 35.125 30.5 C35.675 35.147 35.675 35.147 36.938 39.625 C37.125 41.5 37.125 41.5 35.188 43.875 C32.867 46.36 32.867 46.36 32.75 49.625 C32.935 52.694 32.935 52.694 35.125 55.5 C35.26 57.401 35.26 57.401 35.102 59.512 C35.05 60.269 34.998 61.026 34.945 61.807 C34.881 62.592 34.816 63.378 34.75 64.188 C34.665 65.383 34.665 65.383 34.578 66.604 C34.437 68.57 34.282 70.535 34.125 72.5 C35.445 72.83 36.765 73.16 38.125 73.5 C38.352 72.923 38.579 72.345 38.812 71.75 C40.564 68.747 42.144 67.314 45.125 65.5 C47.982 65.05 50.192 65.212 53.125 65.5 C55.461 67.836 55.493 68.49 55.625 71.688 C55.519 76.376 54.085 78.772 50.832 82.062 C46.236 85.933 41.955 86.743 36.125 87.5 C33.2 94.914 30.87 101.125 31.281 109.13 C31.438 112.777 31.556 116.085 30.125 119.5 C26.042 123.739 20.449 126.03 15.186 128.479 C10.179 130.96 5.869 134.682 2.02 138.695 C0.125 140.5 0.125 140.5 -1.875 140.5 C-2.55 138.92 -3.215 137.336 -3.875 135.75 C-4.432 134.427 -4.432 134.427 -5 133.078 C-5.875 130.5 -5.875 130.5 -5.875 126.5 C-4.897 126.336 -4.897 126.336 -3.898 126.168 C3.397 124.845 9.119 123.507 13.848 117.344 C19.266 109.523 23.285 101.187 27.125 92.5 C26.401 93.231 25.676 93.962 24.93 94.715 C14.06 105.509 6.535 111.777 -9.198 111.889 C-14.111 111.786 -17.381 110.905 -21.359 108.082 C-25.136 104.14 -26.29 100.86 -26.25 95.438 C-26.041 86.648 -24.335 78.145 -19.875 70.5 C-18.502 70.517 -18.502 70.517 -17.102 70.535 C-15.913 70.544 -14.725 70.553 -13.5 70.562 C-12.317 70.574 -11.133 70.586 -9.914 70.598 C-6.956 70.715 -6.956 70.715 -4.875 69.5 C-4.38 68.015 -4.38 68.015 -3.875 66.5 C-7.175 66.5 -10.475 66.5 -13.875 66.5 C-14.205 65.84 -14.535 65.18 -14.875 64.5 C-14.367 63.871 -13.859 63.242 -13.336 62.594 C-3.479 51.789 -3.479 51.789 0.125 38.5 C-1.855 37.51 -3.835 36.52 -5.875 35.5 C-2.235 31.507 1.628 28.752 6.234 25.93 C8.42 24.557 8.42 24.557 9.125 21.5 C3.99 22.624 3.99 22.624 -0.875 24.5 C-7.926 25.078 -7.926 25.078 -11.75 22.75 C-15.019 19.289 -16.208 16.38 -16.438 11.625 C-16.501 10.803 -16.564 9.98 -16.629 9.133 C-14.357 1.2 -7.32 -0.392 0 0 Z " fill="#F9F9FA" transform="translate(633.875,204.5)"/>
<path d="M0 0 C5.511 1.482 8.816 5.362 12.688 9.312 C13.397 10.032 14.107 10.751 14.838 11.492 C31.924 29.065 52.085 55.986 53.098 81.457 C53.086 82.234 53.074 83.012 53.062 83.812 C53.053 84.603 53.044 85.393 53.035 86.207 C53.024 86.799 53.012 87.39 53 88 C46.303 87.641 40.374 85.96 34.041 83.877 C29.053 82.261 24.135 81.133 18.941 80.359 C17 80 17 80 16 79 C14.523 78.75 13.036 78.556 11.547 78.387 C10.623 78.275 9.699 78.163 8.747 78.048 C7.758 77.929 6.769 77.81 5.75 77.688 C-2.88 76.594 -10.82 75.041 -19 72 C-18.607 66.247 -17.749 60.804 -16.438 55.188 C-15.434 50.614 -14.91 46.74 -15.227 42.07 C-16.187 27.775 -12.585 19.674 -4.373 8.032 C-2.629 5.451 -1.294 2.829 0 0 Z " fill="#434256" transform="translate(687,473)"/>
<path d="M0 0 C4.677 0.282 7.592 1.736 11.438 4.312 C41.012 23.886 41.012 23.886 74.41 30.957 C80.107 28.852 84.611 24.092 89 20 C94.176 22.251 97.444 26.327 101.25 30.375 C101.995 31.143 102.74 31.912 103.508 32.703 C104.212 33.448 104.915 34.193 105.641 34.961 C106.285 35.639 106.93 36.318 107.595 37.017 C109 39 109 39 109 43 C107.826 44.612 107.826 44.612 106.184 46.172 C105.588 46.75 104.992 47.328 104.378 47.923 C103.738 48.526 103.097 49.129 102.438 49.75 C101.138 51.009 99.839 52.269 98.543 53.531 C97.922 54.133 97.301 54.735 96.662 55.355 C94.756 57.241 92.981 59.204 91.25 61.25 C87.125 66.118 82.541 70.525 78 75 C74.607 78.335 74.607 78.335 71.438 81.875 C70.963 82.246 70.489 82.618 70 83 C66.721 82.567 65.08 81.449 62.793 79.121 C62.21 78.534 61.628 77.947 61.027 77.342 C60.42 76.713 59.813 76.085 59.188 75.438 C58.556 74.795 57.924 74.152 57.273 73.49 C53.7 69.831 50.27 66.095 46.969 62.188 C43.515 58.35 39.793 54.774 36.124 51.144 C32.459 47.502 28.966 43.791 25.629 39.844 C23.722 37.685 21.688 35.697 19.625 33.688 C14.659 28.781 10.339 23.459 6 18 C5.312 17.19 4.623 16.381 3.914 15.547 C0.171 11.055 -2.122 7.968 -2 2 C-1.34 1.34 -0.68 0.68 0 0 Z " fill="#FCFCFC" transform="translate(203,788)"/>
<path d="M0 0 C0.66 0 1.32 0 2 0 C2.25 5.809 1.313 10.916 0 16.562 C-1.21 21.793 -2.281 26.587 -2 32 C-0.68 32.66 0.64 33.32 2 34 C2.186 33.178 2.186 33.178 2.375 32.34 C5.257 21.263 10.363 9.625 20 3 C19.363 9.955 16.049 15.962 13.15 22.213 C10.818 27.427 9.441 31.275 10 37 C11.941 36.843 11.941 36.843 14 36 C15.331 34 15.331 34 16.312 31.5 C19.299 25.066 23.022 18.985 29 15 C29.99 15 30.98 15 32 15 C30.943 18.178 29.564 20.733 27.617 23.426 C20.662 33.168 18.376 39.971 20 52 C20.172 52.649 20.343 53.298 20.52 53.967 C21.323 57.37 21.143 60.835 21.125 64.312 C21.129 65.047 21.133 65.781 21.137 66.537 C21.131 69.851 21.003 72.979 20.527 76.266 C19.768 81.641 19.634 87.016 19.438 92.438 C19.373 94.107 19.373 94.107 19.307 95.811 C19.201 98.54 19.099 101.27 19 104 C14.917 104.058 10.834 104.094 6.75 104.125 C5.591 104.142 4.432 104.159 3.238 104.176 C2.123 104.182 1.008 104.189 -0.141 104.195 C-1.167 104.206 -2.193 104.216 -3.251 104.227 C-6.084 103.993 -7.672 103.612 -10 102 C-10.854 100.155 -11.707 98.311 -12.559 96.465 C-15.426 91.562 -19.645 87.622 -23.555 83.539 C-25.796 81.152 -27.914 78.658 -30.062 76.188 C-33.982 71.848 -38.066 68.512 -42.969 65.34 C-45 64 -45 64 -47 62 C-47.188 59.438 -47.188 59.438 -47 57 C-46 56 -46 56 -43.438 55.562 C-39.712 56.037 -38.816 56.703 -36 59 C-33.26 61.222 -32.274 61.959 -28.688 62.5 C-25.788 62.143 -25.788 62.143 -23 60 C-18.423 50.728 -19.664 39.345 -19.812 29.312 C-19.828 27.532 -19.841 25.751 -19.854 23.971 C-19.886 19.647 -19.938 15.324 -20 11 C-18.68 11 -17.36 11 -16 11 C-13.895 13.105 -14.307 17.394 -14 20.312 C-13.836 21.851 -13.669 23.388 -13.5 24.926 C-13.392 25.953 -13.392 25.953 -13.281 27.001 C-12.993 29.051 -12.537 31.002 -12 33 C-11.01 33 -10.02 33 -9 33 C-8.9 32.452 -8.8 31.903 -8.696 31.339 C-4.598 9.196 -4.598 9.196 0 0 Z " fill="#FAF9FA" transform="translate(804,228)"/>
<path d="M0 0 C1.06 0.558 2.119 1.116 3.211 1.691 C4.167 2.136 5.124 2.581 6.109 3.039 C26.752 13.183 37.146 31.052 47.147 50.832 C51.376 59.179 55.826 67.038 61.211 74.691 C61.885 75.656 62.559 76.62 63.254 77.613 C73.715 92.263 85.57 105.823 97.766 119.039 C117.703 140.665 147.587 174.424 147.273 205.504 C147.264 206.665 147.255 207.827 147.246 209.023 C147.229 210.344 147.229 210.344 147.211 211.691 C146.551 211.691 145.891 211.691 145.211 211.691 C144.98 211.109 144.749 210.526 144.512 209.926 C134.551 184.887 123.256 161.026 105.211 140.691 C103.809 138.946 102.413 137.196 101.023 135.441 C96.506 129.893 91.633 124.706 86.702 119.524 C82.415 115.015 78.269 110.408 74.211 105.691 C73.464 104.829 73.464 104.829 72.701 103.948 C58.861 87.83 47.077 70.318 37.877 51.165 C34.525 44.194 30.831 37.919 26.211 31.691 C25.613 30.826 25.015 29.961 24.398 29.07 C15.549 16.957 0.694 8.316 -13.789 4.691 C-28.961 2.82 -41.423 4.558 -53.664 14.004 C-58.063 17.798 -61.64 21.815 -64.789 26.691 C-63.736 26.971 -62.683 27.251 -61.598 27.539 C-39.797 33.516 -20.151 44.234 -2.789 58.691 C-1.834 59.482 -0.879 60.272 0.105 61.086 C11.574 71.015 24.725 85.897 26.703 101.598 C26.71 104.678 26.588 107.637 26.211 110.691 C25.551 110.691 24.891 110.691 24.211 110.691 C23.726 109.531 23.242 108.371 22.742 107.176 C8.669 74.111 -18.517 51.218 -51.488 37.575 C-56.874 35.473 -62.313 33.543 -67.789 31.691 C-72.536 40.451 -75.859 49.201 -78.789 58.691 C-79.449 58.691 -80.109 58.691 -80.789 58.691 C-81.368 47.841 -81.111 39.472 -75.789 29.691 C-75.27 28.673 -74.75 27.655 -74.215 26.605 C-60.064 0.415 -27.666 -13.161 0 0 Z " fill="#18103E" transform="translate(376.7890625,65.30859375)"/>
<path d="M0 0 C13.526 10.065 24.207 23.112 33.622 36.951 C35.829 40.186 38.099 43.376 40.375 46.562 C40.986 47.419 40.986 47.419 41.609 48.293 C51.794 62.503 63.708 74.857 76.132 87.096 C76.885 87.84 77.638 88.585 78.414 89.352 C79.093 90.019 79.772 90.686 80.471 91.374 C83.635 94.731 83.145 97.591 83.062 102.062 C79.451 100.859 78.315 98.974 75.953 96.113 C73.893 93.879 71.712 92.116 69.312 90.25 C55.605 79.25 43.93 66.383 33.625 52.198 C30.909 48.486 28.109 44.838 25.312 41.188 C24.767 40.475 24.221 39.763 23.659 39.029 C8.106 18.762 -8.407 0.248 -34.938 -3.938 C-58.793 -6.101 -76.013 4.789 -95.532 16.738 C-103.05 21.273 -110.79 24.827 -118.938 28.062 C-119.734 28.408 -120.531 28.753 -121.352 29.109 C-132.006 33.037 -143.329 34.445 -154.625 34.5 C-155.532 34.51 -156.44 34.52 -157.375 34.53 C-163.207 34.455 -167.594 33.407 -172.938 31.062 C-172.938 30.733 -172.938 30.403 -172.938 30.062 C-171.668 29.953 -170.398 29.843 -169.09 29.73 C-139.592 27.072 -114.887 18.524 -90.017 2.503 C-82.588 -2.247 -75.019 -6.406 -66.938 -9.938 C-65.9 -10.391 -64.862 -10.845 -63.793 -11.312 C-41.656 -19.497 -18.975 -12.058 0 0 Z " fill="#140C3D" transform="translate(290.9375,217.9375)"/>
<path d="M0 0 C3.291 1.356 4.614 2.489 6.141 5.695 C6.663 6.768 6.663 6.768 7.195 7.863 C7.717 8.983 7.717 8.983 8.25 10.125 C8.614 10.879 8.977 11.633 9.352 12.41 C10.245 14.268 11.124 16.133 12 18 C12.99 18 13.98 18 15 18 C15.66 16.68 16.32 15.36 17 14 C17.99 14 18.98 14 20 14 C22.148 22.285 22.981 28.621 20 36.75 C17.839 42.877 16.858 48.54 18 55 C19.424 57.609 21.138 59.66 23 62 C22.922 65.42 22.217 66.757 19.926 69.316 C7.496 80 7.496 80 3 80 C2.634 79.21 2.268 78.42 1.891 77.605 C-1.675 70.178 -5.624 63.108 -10 56.125 C-10.486 55.341 -10.971 54.558 -11.472 53.751 C-16.017 46.602 -21.076 40.067 -27.938 35 C-28.71 34.423 -29.482 33.845 -30.277 33.25 C-31.13 32.631 -31.13 32.631 -32 32 C-31.505 30.515 -31.505 30.515 -31 29 C-30.01 29.217 -30.01 29.217 -29 29.438 C-25.344 30.123 -21.694 30.562 -18 31 C-18 29.68 -18 28.36 -18 27 C-21.63 25.02 -25.26 23.04 -29 21 C-29 20.34 -29 19.68 -29 19 C-23.106 19.393 -18.709 21.382 -13.453 24.039 C-10.926 25.331 -10.926 25.331 -8 24 C-8.458 19.076 -9.803 16.713 -13 13 C-13 12.34 -13 11.68 -13 11 C-10.084 11.088 -8.395 11.634 -6.25 13.625 C-5.06 14.897 -3.891 16.19 -2.746 17.504 C-0.877 19.434 -0.877 19.434 3 19 C2.552 15.867 2.016 13.045 0.938 10.062 C-0.128 6.581 -0.145 3.621 0 0 Z " fill="#F9F9FA" transform="translate(418,290)"/>
<path d="M0 0 C19.653 16.164 36.647 26.267 62.75 24.688 C65.906 24.246 68.677 23.573 71.75 22.688 C73.415 22.348 75.081 22.01 76.75 21.688 C75.322 25.287 73.773 26.586 70.375 28.375 C69.604 28.791 68.833 29.208 68.039 29.637 C58.535 33.999 43.165 33.233 33.375 30.25 C31.469 29.467 29.595 28.605 27.75 27.688 C27.151 27.392 26.551 27.096 25.934 26.792 C16.24 21.921 7.79 15.944 -0.566 9.069 C-22.425 -8.871 -42.791 -16.515 -71.25 -14.312 C-77.9 -13.247 -84.265 -11.276 -90.649 -9.168 C-94.948 -7.754 -99.288 -6.48 -103.625 -5.188 C-104.45 -4.94 -105.275 -4.692 -106.126 -4.437 C-108.499 -3.724 -110.874 -3.018 -113.25 -2.312 C-114.321 -1.991 -114.321 -1.991 -115.413 -1.662 C-124.267 0.958 -138.395 5.115 -147.25 0.688 C-147.25 0.027 -147.25 -0.632 -147.25 -1.312 C-146.082 -1.557 -144.914 -1.802 -143.711 -2.055 C-132.612 -4.49 -121.872 -7.64 -111.125 -11.312 C-69.381 -25.546 -36.192 -29.902 0 0 Z " fill="#181140" transform="translate(293.25,302.3125)"/>
<path d="M0 0 C3.379 -0.084 5.431 0.512 8.004 2.719 C18.884 14.445 22.559 27.9 22.25 43.625 C22.245 44.712 22.24 45.798 22.234 46.918 C22.155 54.845 22.155 54.845 21 56 C15.829 56.88 13.307 55.86 9 52.875 C7.316 51.606 5.648 50.315 4 49 C3.31 48.452 2.621 47.904 1.91 47.34 C-4.282 42.221 -4.282 42.221 -6 39 C-5.155 33.955 -2.9 29.098 -1.156 24.312 C0.611 19.248 1.136 15.348 1.125 9.938 C1.129 8.095 1.129 8.095 1.133 6.215 C1.148 2.982 1.148 2.982 0 0 Z " fill="#FAFAFB" transform="translate(723,724)"/>
<path d="M0 0 C2.673 0.906 5.22 1.846 7.812 2.938 C8.545 3.245 9.277 3.552 10.031 3.868 C38.444 16.125 67.401 36.413 79.376 66.023 C80.927 70.935 80.622 75.954 80 81 C79.34 81 78.68 81 78 81 C77.515 79.84 77.031 78.68 76.531 77.484 C62.436 44.37 35.436 21.894 2.596 7.981 C-1.892 6.19 -6.425 4.552 -11 3 C-10.34 2.67 -9.68 2.34 -9 2 C-9 1.34 -9 0.68 -9 0 C-5.847 -1.577 -3.412 -0.659 0 0 Z " fill="#1D1847" transform="translate(323,95)"/>
<path d="M0 0 C2.056 3.843 3.576 7.872 5.125 11.938 C5.541 12.992 5.541 12.992 5.965 14.068 C7.401 17.843 8.37 20.89 8 25 C10.419 23.119 12.729 21.285 14.844 19.062 C22.899 11.358 35.055 6.859 45 2 C46.461 6.297 45.255 8.48 43.371 12.43 C39.618 19.465 35.309 26.047 30 32 C29.299 31.278 28.597 30.556 27.875 29.812 C26.922 28.87 25.963 27.933 25 27 C24.496 26.511 23.992 26.023 23.473 25.52 C20.613 22.831 20.613 22.831 16.938 21.875 C14.175 23.479 12.223 25.721 10 28 C7.688 29.312 7.688 29.312 6 30 C4.434 28.434 4.389 26.575 3.938 24.438 C3.761 23.611 3.584 22.785 3.402 21.934 C3.27 21.296 3.137 20.657 3 20 C-2.192 19.788 -6.127 20.409 -11 22 C-10.432 13.104 -5.829 6.495 0 0 Z " fill="#F6F5F7" transform="translate(620,328)"/>
<path d="M0 0 C1.263 3.788 0.193 5.192 -1.503 8.647 C-2.09 9.812 -2.09 9.812 -2.688 11 C-3.519 12.712 -4.349 14.426 -5.176 16.141 C-5.628 17.075 -6.08 18.008 -6.545 18.971 C-17.372 40.648 -17.372 40.648 -23 64 C-23.196 65.485 -23.396 66.969 -23.598 68.453 C-24.111 72.298 -24.569 76.145 -25 80 C-28.55 79.401 -31.548 78.448 -34.812 76.938 C-35.603 76.575 -36.393 76.213 -37.207 75.84 C-38.095 75.424 -38.095 75.424 -39 75 C-38.821 73.027 -38.623 71.055 -38.375 69.09 C-38.173 67.424 -37.981 65.756 -37.852 64.083 C-36.833 51.182 -36.833 51.182 -32.555 46.09 C-31.04 44.81 -29.523 43.531 -27.966 42.302 C-15.355 32.158 -7.003 14.366 0 0 Z " fill="#F7F7F8" transform="translate(604,414)"/>
<path d="M0 0 C-1.01 7.082 -2.728 15.728 -8 21 C-9.828 21.308 -11.663 21.569 -13.5 21.812 C-29.342 24.221 -43.119 28.709 -57.796 35.124 C-59.853 35.941 -61.842 36.522 -64 37 C-64 36.34 -64 35.68 -64 35 C-64.976 35.023 -65.952 35.046 -66.957 35.07 C-68.229 35.088 -69.502 35.106 -70.812 35.125 C-72.709 35.16 -72.709 35.16 -74.645 35.195 C-78 35 -78 35 -81 33 C-79.368 33.087 -79.368 33.087 -77.703 33.176 C-60.819 33.819 -50.026 27.043 -35.848 18.504 C-30.109 15.05 -24.317 11.696 -18.5 8.375 C-17.634 7.879 -16.769 7.382 -15.877 6.871 C-3.836 0 -3.836 0 0 0 Z " fill="#F6C06F" transform="translate(546,417)"/>
<path d="M0 0 C2.529 0.23 2.529 0.23 5.109 0.465 C12.151 1.052 19.189 1.329 26.25 1.562 C27.484 1.606 28.717 1.649 29.988 1.693 C32.992 1.798 35.996 1.899 39 2 C39 6.62 39 11.24 39 16 C26.027 18.035 10.448 18.632 -1 11 C-0.67 7.37 -0.34 3.74 0 0 Z " fill="#F7F6F7" transform="translate(789,337)"/>
<path d="M0 0 C1 3 1 3 1 5 C1.99 5 2.98 5 4 5 C3.381 8.626 2.389 11.773 0.953 15.156 C0.313 16.67 0.313 16.67 -0.34 18.213 C-0.805 19.298 -1.271 20.383 -1.75 21.5 C-2.231 22.63 -2.712 23.759 -3.207 24.923 C-7.566 35.108 -12.087 45.218 -16.671 55.303 C-22.43 67.953 -22.43 67.953 -25 81.5 C-25.483 87.521 -26.679 92.4 -29 98 C-29.66 96.68 -30.32 95.36 -31 94 C-31.66 94.99 -32.32 95.98 -33 97 C-33.791 81.258 -29.893 68.462 -23.25 54.5 C-22.647 53.203 -22.045 51.904 -21.445 50.605 C-19.021 45.376 -16.564 40.163 -14.057 34.973 C-13.741 34.312 -13.425 33.651 -13.099 32.97 C-12.229 31.15 -11.35 29.334 -10.472 27.518 C-8.866 23.679 -7.961 20.044 -7 16 C-6.471 14.555 -5.905 13.122 -5.273 11.719 C-4.809 10.675 -4.809 10.675 -4.336 9.609 C-4.019 8.913 -3.702 8.217 -3.375 7.5 C-3.05 6.773 -2.725 6.046 -2.391 5.297 C-1.6 3.529 -0.801 1.764 0 0 Z " fill="#1D1841" transform="translate(613,393)"/>
<path d="M0 0 C3.8 1.493 5.835 3.553 8 7 C7.946 11.464 5.823 13.687 2.848 16.708 C2.279 17.258 1.711 17.808 1.125 18.375 C0.544 18.946 -0.038 19.516 -0.637 20.104 C-6.768 25.972 -13.383 31.707 -22 33 C-22.869 31.761 -23.72 30.508 -24.562 29.25 C-25.038 28.554 -25.514 27.858 -26.004 27.141 C-27 25 -27 25 -26.984 22.957 C-25.526 20.058 -23.451 19.097 -20.688 17.438 C-12.942 12.512 -6.478 6.478 0 0 Z " fill="#F8F8F9" transform="translate(446,358)"/>
<path d="M0 0 C1.593 2.389 2.587 4.342 3.688 6.938 C5.941 11.528 8.374 12.935 13 15 C15.27 15.76 15.27 15.76 17 16 C17 16.66 17 17.32 17 18 C16.325 18.219 15.649 18.438 14.953 18.664 C10.593 20.214 7.619 21.303 4.5 24.812 C2.896 28.22 1.877 31.345 1 35 C0.67 35 0.34 35 0 35 C-0.147 34.336 -0.294 33.672 -0.445 32.988 C-2.05 26.67 -3.388 23.453 -9 20 C-11.341 19.111 -13.542 18.541 -16 18 C-16 17.34 -16 16.68 -16 16 C-15.397 15.83 -14.793 15.66 -14.172 15.484 C-7.692 13.606 -7.692 13.606 -3 9 C-1.824 6.045 -0.863 3.06 0 0 Z " fill="#FEF2D1" transform="translate(319,389)"/>
<path d="M0 0 C1.596 2.393 2.628 4.401 3.75 7 C5.738 11.05 7.717 12.394 12 14 C13.333 14.667 14.667 15.333 16 16 C14.969 16.186 13.938 16.371 12.875 16.562 C8.141 17.916 5.62 20.958 3 25 C1.608 28.246 1.608 28.246 1 31 C-1 30 -1 30 -1.676 28.293 C-1.886 27.598 -2.096 26.903 -2.312 26.188 C-3.737 22.185 -5.315 20.281 -9 18 C-11.679 16.76 -11.679 16.76 -14 16 C-13.464 15.752 -12.928 15.505 -12.375 15.25 C-11.199 14.631 -11.199 14.631 -10 14 C-9.01 13.505 -8.02 13.01 -7 12.5 C-2.838 9.032 -1.641 5.058 0 0 Z " fill="#FEF2D2" transform="translate(486,277)"/>
<path d="M0 0 C3.598 0.589 5.458 1.999 8.125 4.438 C8.808 5.055 9.491 5.672 10.195 6.309 C11.485 7.517 12.751 8.751 14 10 C13.818 12.818 13.235 13.788 11.125 15.688 C9 17 9 17 6 18 C6.325 19.104 6.325 19.104 6.656 20.23 C6.935 21.206 7.213 22.182 7.5 23.188 C7.778 24.15 8.057 25.113 8.344 26.105 C8.967 28.853 9.123 31.196 9 34 C7.35 34 5.7 34 4 34 C3.131 31.609 2.279 29.213 1.438 26.812 C1.191 26.139 0.944 25.465 0.689 24.771 C-0.674 20.834 -1.464 17.984 0 14 C2.563 12.206 3.831 12 7 12 C6.237 11.237 5.474 10.474 4.688 9.688 C3.801 8.801 2.914 7.914 2 7 C1.381 6.484 0.763 5.969 0.125 5.438 C-0.246 4.963 -0.617 4.489 -1 4 C-0.688 1.812 -0.688 1.812 0 0 Z " fill="#211C46" transform="translate(673,361)"/>
<path d="M0 0 C1 3 1 3 1 5 C1.99 5 2.98 5 4 5 C3.067 10.195 1.286 14.811 -0.688 19.688 C-1.014 20.554 -1.341 21.421 -1.678 22.314 C-4.251 28.638 -4.251 28.638 -8.27 30.582 C-9.171 30.72 -10.072 30.858 -11 31 C-8.879 19.988 -4.602 10.163 0 0 Z " fill="#140F3D" transform="translate(613,393)"/>
<path d="M0 0 C2.642 2.371 3.811 3.923 4.426 7.43 C4 10 4 10 1.734 12.09 C0.75 12.7 -0.235 13.309 -1.25 13.938 C-2.225 14.565 -3.199 15.193 -4.203 15.84 C-7 17 -7 17 -9.359 16.191 C-10.171 15.602 -10.171 15.602 -11 15 C-9.502 10.338 -6.115 9.134 -2 7 C-4.97 6.67 -7.94 6.34 -11 6 C-11.33 4.68 -11.66 3.36 -12 2 C-7.879 0.002 -4.562 -0.581 0 0 Z " fill="#211E45" transform="translate(597,359)"/>
<path d="M0 0 C3.929 0.175 5.555 0.555 8.375 3.375 C10 6 10 6 10 9 C9.443 9.227 8.886 9.454 8.312 9.688 C5.772 10.97 5.772 10.97 3.562 13.688 C2.717 14.451 1.871 15.214 1 16 C-1.812 15.812 -1.812 15.812 -4 15 C-4.293 9.341 -4.035 5.978 -1 1 C-0.67 0.67 -0.34 0.34 0 0 Z " fill="#1B163F" transform="translate(642,249)"/>
<path d="M0 0 C0.33 1.32 0.66 2.64 1 4 C-0.937 4.814 -2.875 5.626 -4.812 6.438 C-6.431 7.116 -6.431 7.116 -8.082 7.809 C-12.047 9.427 -14.929 10.118 -19.188 10.062 C-20.539 10.049 -20.539 10.049 -21.918 10.035 C-22.605 10.024 -23.292 10.012 -24 10 C-24 8.68 -24 7.36 -24 6 C-23.371 5.818 -22.742 5.636 -22.094 5.449 C-17.904 4.219 -13.797 2.959 -9.75 1.312 C-6.186 0.065 -3.73 -0.28 0 0 Z " fill="#1D1749" transform="translate(668,224)"/>
<path d="M0 0 C4.122 -0.515 6.669 -0.808 10.277 1.383 C14.244 4.697 16.353 6.721 17 12 C14.785 12.699 14.785 12.699 12 13 C9.684 11.707 9.684 11.707 7.438 9.812 C6.694 9.2 5.95 8.588 5.184 7.957 C3.044 6.04 1.008 4.054 -1 2 C-0.67 1.34 -0.34 0.68 0 0 Z " fill="#131240" transform="translate(644,238)"/>
<path d="M0 0 C0.66 1.32 1.32 2.64 2 4 C2.99 4 3.98 4 5 4 C2.36 10.27 -0.28 16.54 -3 23 C-3.33 22.34 -3.66 21.68 -4 21 C-5.65 21.33 -7.3 21.66 -9 22 C-6.661 14.332 -3.452 7.229 0 0 Z " fill="#221E4A" transform="translate(592,443)"/>
<path d="M0 0 C1.32 0 2.64 0 4 0 C3.745 3.448 2.762 4.217 0.125 6.625 C-4.586 10.205 -6.956 11.504 -12.77 11.391 C-16.368 10.76 -17.926 8.877 -20 6 C-20 5.01 -20 4.02 -20 3 C-16.125 4.875 -16.125 4.875 -15 6 C-8.91 6.516 -5.879 6.046 -1 2 C-0.67 1.34 -0.34 0.68 0 0 Z " fill="#1E1C4B" transform="translate(638,282)"/>
<path d="M0 0 C-0.562 2.875 -0.562 2.875 -2 6 C-5.907 7.592 -8.779 8 -13 8 C-13.33 7.34 -13.66 6.68 -14 6 C-17.029 5.342 -17.029 5.342 -20 5 C-20 4.67 -20 4.34 -20 4 C-18.35 4 -16.7 4 -15 4 C-14.67 3.01 -14.34 2.02 -14 1 C-12.68 1 -11.36 1 -10 1 C-6.527 -0.158 -3.639 -0.069 0 0 Z " fill="#2B1F4F" transform="translate(623,347)"/>
<path d="M0 0 C1 3 1 3 1 5 C1.99 5 2.98 5 4 5 C3.345 9.058 2.054 12.54 0.438 16.312 C-0.018 17.381 -0.473 18.45 -0.941 19.551 C-1.465 20.763 -1.465 20.763 -2 22 C-2.33 22 -2.66 22 -3 22 C-2.835 20.907 -2.67 19.814 -2.5 18.688 C-1.933 15.125 -1.933 15.125 -2 12 C-2.66 12 -3.32 12 -4 12 C-4.103 12.743 -4.206 13.485 -4.312 14.25 C-5.043 17.17 -6.068 18.732 -8 21 C-7.325 16.181 -5.42 12.081 -3.438 7.688 C-2.943 6.577 -2.943 6.577 -2.439 5.443 C-1.631 3.627 -0.816 1.813 0 0 Z " fill="#433B62" transform="translate(613,393)"/>
<path d="M0 0 C0.585 0.219 1.17 0.438 1.773 0.664 C1.773 1.984 1.773 3.304 1.773 4.664 C-2.372 8.579 -5.516 10.664 -11.227 10.664 C-10.012 6.075 -7.496 3.76 -4.078 0.703 C-2.227 -0.336 -2.227 -0.336 0 0 Z " fill="#FEFAF3" transform="translate(435.2265625,250.3359375)"/>
<path d="M0 0 C1.437 -0.054 2.875 -0.093 4.312 -0.125 C5.113 -0.148 5.914 -0.171 6.738 -0.195 C9 0 9 0 12 2 C12 2.66 12 3.32 12 4 C5.486 5.67 -0.355 6.26 -7.062 6.125 C-7.928 6.116 -8.794 6.107 -9.686 6.098 C-11.79 6.074 -13.895 6.039 -16 6 C-16 5.67 -16 5.34 -16 5 C-14.796 4.963 -13.592 4.925 -12.352 4.887 C-10.776 4.821 -9.2 4.755 -7.625 4.688 C-6.831 4.665 -6.037 4.642 -5.219 4.619 C-3.138 4.522 -1.066 4.27 1 4 C1.66 3.01 2.32 2.02 3 1 C2.01 0.67 1.02 0.34 0 0 Z " fill="#281E36" transform="translate(811,905)"/>
<path d="M0 0 C3.692 0.692 3.692 0.692 5 2 C5.072 4.02 5.084 6.042 5.062 8.062 C5.053 9.167 5.044 10.272 5.035 11.41 C5.024 12.265 5.012 13.119 5 14 C1.156 12.352 1.156 12.352 -0.25 9.188 C-0.933 6.286 -1.254 3.959 -1 1 C-0.67 0.67 -0.34 0.34 0 0 Z " fill="#FEFBF5" transform="translate(402,244)"/>
<path d="M0 0 C0 0.99 0 1.98 0 3 C-4.226 4.177 -8.457 5.34 -12.688 6.5 C-13.886 6.834 -15.084 7.168 -16.318 7.512 C-18.054 7.985 -18.054 7.985 -19.824 8.469 C-21.419 8.909 -21.419 8.909 -23.046 9.357 C-25.81 9.959 -28.185 10.127 -31 10 C-31.33 10.66 -31.66 11.32 -32 12 C-32 11.01 -32 10.02 -32 9 C-31.386 8.834 -30.772 8.668 -30.139 8.497 C-27.301 7.728 -24.463 6.958 -21.625 6.188 C-20.659 5.926 -19.694 5.665 -18.699 5.396 C-12.435 3.694 -6.207 1.899 0 0 Z " fill="#E5D7BA" transform="translate(177,291)"/>
<path d="M0 0 C1.194 3.581 0.788 4.072 -0.801 7.344 C-1.201 8.178 -1.601 9.012 -2.014 9.871 C-2.442 10.739 -2.871 11.606 -3.312 12.5 C-3.938 13.801 -3.938 13.801 -4.576 15.129 C-6.244 18.572 -7.874 21.811 -10 25 C-10.99 25 -11.98 25 -13 25 C-11.326 20.35 -8.95 16.208 -6.5 11.938 C-5.697 10.53 -4.895 9.123 -4.094 7.715 C-3.74 7.097 -3.386 6.48 -3.021 5.844 C-1.957 3.922 -0.969 1.971 0 0 Z " fill="#D7D2DA" transform="translate(604,414)"/>
<path d="M0 0 C1.65 0.33 3.3 0.66 5 1 C5.33 2.98 5.66 4.96 6 7 C5.34 7 4.68 7 4 7 C4 6.34 4 5.68 4 5 C3.34 5 2.68 5 2 5 C1.67 6.32 1.34 7.64 1 9 C-0.65 9.33 -2.3 9.66 -4 10 C-2.796 7.506 -1.546 5.319 0 3 C0 2.01 0 1.02 0 0 Z " fill="#2D2750" transform="translate(678,275)"/>
<path d="M0 0 C3.875 1.875 3.875 1.875 5 3 C6.515 3.232 8.038 3.412 9.562 3.562 C10.389 3.646 11.215 3.73 12.066 3.816 C12.704 3.877 13.343 3.938 14 4 C13.67 4.99 13.34 5.98 13 7 C11.397 7.108 9.793 7.186 8.188 7.25 C7.294 7.296 6.401 7.343 5.48 7.391 C3 7 3 7 1.176 5.172 C0 3 0 3 0 0 Z " fill="#121146" transform="translate(618,285)"/>
<path d="M0 0 C-1.056 3.284 -2.617 4.572 -5.5 6.25 C-9 8 -9 8 -11 8 C-11 7.01 -11 6.02 -11 5 C-11.99 4.34 -12.98 3.68 -14 3 C-13.385 2.867 -12.77 2.734 -12.137 2.598 C-11.328 2.421 -10.52 2.244 -9.688 2.062 C-8.887 1.888 -8.086 1.714 -7.262 1.535 C-0.774 0 -0.774 0 0 0 Z " fill="#271B45" transform="translate(370,324)"/>
<path d="M0 0 C-0.66 1.98 -1.32 3.96 -2 6 C-3.98 6.33 -5.96 6.66 -8 7 C-8 5.68 -8 4.36 -8 3 C-8.66 2.34 -9.32 1.68 -10 1 C-6.527 -0.158 -3.639 -0.069 0 0 Z " fill="#241845" transform="translate(623,347)"/>
<path d="M0 0 C0.33 0.99 0.66 1.98 1 3 C-0.98 3.66 -2.96 4.32 -5 5 C-5 4.34 -5 3.68 -5 3 C-5.976 3.023 -6.952 3.046 -7.957 3.07 C-9.229 3.088 -10.502 3.106 -11.812 3.125 C-13.709 3.16 -13.709 3.16 -15.645 3.195 C-19 3 -19 3 -22 1 C-20.796 1.012 -19.592 1.023 -18.352 1.035 C-16.776 1.045 -15.201 1.054 -13.625 1.062 C-12.434 1.075 -12.434 1.075 -11.219 1.088 C-7.214 1.105 -3.835 0 0 0 Z " fill="#C39460" transform="translate(487,449)"/>
<path d="M0 0 C0.66 0.33 1.32 0.66 2 1 C-0.083 5.861 -3.139 8.917 -8 11 C-8.33 10.01 -8.66 9.02 -9 8 C-8 6 -8 6 -5.625 5.125 C-2.685 3.865 -1.685 2.661 0 0 Z " fill="#F6F5F7" transform="translate(634,347)"/>
<path d="M0 0 C0.99 0 1.98 0 3 0 C3 3.96 3 7.92 3 12 C2.67 12 2.34 12 2 12 C2 10.35 2 8.7 2 7 C1.01 7.33 0.02 7.66 -1 8 C-1.931 5.394 -2.149 4.358 -1.062 1.75 C-0.712 1.173 -0.361 0.595 0 0 Z " fill="#2B2451" transform="translate(558,363)"/>
<path d="M0 0 C0.33 0 0.66 0 1 0 C1 4.29 1 8.58 1 13 C0.34 13 -0.32 13 -1 13 C-1.99 10.03 -2.98 7.06 -4 4 C-3.34 4 -2.68 4 -2 4 C-1.34 2.68 -0.68 1.36 0 0 Z " fill="#20193A" transform="translate(523,264)"/>
<path d="M0 0 C0.66 0.33 1.32 0.66 2 1 C0.214 2.839 -1.578 4.672 -3.375 6.5 C-3.883 7.025 -4.391 7.549 -4.914 8.09 C-6.238 9.432 -7.616 10.72 -9 12 C-9.66 12 -10.32 12 -11 12 C-9.606 8.843 -7.964 6.719 -5.5 4.312 C-4.892 3.711 -4.283 3.109 -3.656 2.488 C-2 1 -2 1 0 0 Z " fill="#221538" transform="translate(319,73)"/>
<path d="M0 0 C0.66 0.33 1.32 0.66 2 1 C2.33 1.99 2.66 2.98 3 4 C1.732 4.506 0.46 5.005 -0.812 5.5 C-1.874 5.918 -1.874 5.918 -2.957 6.344 C-5 7 -5 7 -8 7 C-6.884 3.653 -6.487 3.379 -3.562 1.75 C-2.387 1.173 -1.211 0.595 0 0 Z " fill="#E6B66C" transform="translate(495,444)"/>
<path d="M0 0 C1 2 1 2 0.188 4.562 C-1 7 -1 7 -3 8 C-4.048 9.975 -5.052 11.975 -6 14 C-7.19 10.43 -6.758 9.754 -5.25 6.438 C-4.732 5.26 -4.732 5.26 -4.203 4.059 C-3 2 -3 2 0 0 Z " fill="#1D1445" transform="translate(612,403)"/>
<path d="M0 0 C0.895 2.97 1.033 5.256 0.66 8.328 C0.567 9.127 0.473 9.927 0.377 10.75 C0.273 11.575 0.169 12.4 0.062 13.25 C-0.087 14.511 -0.087 14.511 -0.24 15.797 C-0.487 17.865 -0.743 19.933 -1 22 C-1.33 22 -1.66 22 -2 22 C-2.194 20.522 -2.38 19.042 -2.562 17.562 C-2.667 16.739 -2.771 15.915 -2.879 15.066 C-2.919 14.384 -2.959 13.703 -3 13 C-2.67 12.67 -2.34 12.34 -2 12 C-2.021 10.928 -2.041 9.855 -2.062 8.75 C-2.003 5.198 -1.527 3.149 0 0 Z " fill="#37345D" transform="translate(783,373)"/>
<path d="M0 0 C4.449 1.483 6.746 5.083 9 9 C9 9.66 9 10.32 9 11 C4.551 9.517 2.254 5.917 0 2 C0 1.34 0 0.68 0 0 Z " fill="#F2BA66" transform="translate(329,261)"/>
<path d="M0 0 C-2.475 1.485 -2.475 1.485 -5 3 C-2.03 3.495 -2.03 3.495 1 4 C1 4.33 1 4.66 1 5 C-1.97 5 -4.94 5 -8 5 C-8.33 3.68 -8.66 2.36 -9 1 C-5.574 -0.618 -3.619 -1.341 0 0 Z " fill="#433F64" transform="translate(594,360)"/>
<path d="M0 0 C0.33 0.99 0.66 1.98 1 3 C-2.96 4.98 -2.96 4.98 -7 7 C-5.975 2.899 -4.646 0 0 0 Z " fill="#1E144A" transform="translate(515,372)"/>
<path d="M0 0 C0.742 0.082 1.485 0.165 2.25 0.25 C2.25 1.57 2.25 2.89 2.25 4.25 C-0.72 4.25 -3.69 4.25 -6.75 4.25 C-3.427 0.312 -3.427 0.312 0 0 Z " fill="#141141" transform="translate(593.75,359.75)"/>
<path d="M0 0 C0.99 0.33 1.98 0.66 3 1 C4.188 3.562 4.188 3.562 5 6 C4.34 5.67 3.68 5.34 3 5 C2.67 6.32 2.34 7.64 2 9 C1.34 9 0.68 9 0 9 C0 6.03 0 3.06 0 0 Z " fill="#1C1448" transform="translate(723,504)"/>
<path d="M0 0 C3.459 1.249 6.147 2.675 9 5 C8.67 5.99 8.34 6.98 8 8 C6.661 7.05 5.329 6.089 4 5.125 C3.257 4.591 2.515 4.058 1.75 3.508 C1.173 3.01 0.595 2.513 0 2 C0 1.34 0 0.68 0 0 Z " fill="#F2C367" transform="translate(388,70)"/>
<path d="M0 0 C-1.583 4.274 -4.506 6.265 -8 9 C-7.539 4.853 -4.484 0 0 0 Z " fill="#2C1C36" transform="translate(316,838)"/>
<path d="M0 0 C-0.33 1.32 -0.66 2.64 -1 4 C-1.722 4.103 -2.444 4.206 -3.188 4.312 C-6.245 5.06 -8.383 6.28 -11 8 C-11.33 7.34 -11.66 6.68 -12 6 C-10.378 4.995 -8.753 3.996 -7.125 3 C-5.768 2.165 -5.768 2.165 -4.383 1.312 C-2 0 -2 0 0 0 Z " fill="#DEA964" transform="translate(509,437)"/>
<path d="M0 0 C0.33 0 0.66 0 1 0 C1 2.31 1 4.62 1 7 C-1.64 6.67 -4.28 6.34 -7 6 C-7 5.34 -7 4.68 -7 4 C-5.02 4 -3.04 4 -1 4 C-0.67 2.68 -0.34 1.36 0 0 Z " fill="#DDAE6B" transform="translate(410,288)"/>
<path d="M0 0 C-1.441 3.362 -3.248 5.592 -6 8 C-6.66 8 -7.32 8 -8 8 C-6.483 4.46 -4.247 0 0 0 Z " fill="#23133F" transform="translate(604,193)"/>
<path d="M0 0 C0.66 0 1.32 0 2 0 C2 0.99 2 1.98 2 3 C2.99 3 3.98 3 5 3 C4 5 4 5 0.938 6.125 C-0.032 6.414 -1.001 6.702 -2 7 C-1.34 4.69 -0.68 2.38 0 0 Z " fill="#231B47" transform="translate(598,429)"/>
<path d="M0 0 C1.938 0.75 1.938 0.75 4 2 C4.75 4.125 4.75 4.125 5 6 C4.01 6 3.02 6 2 6 C0 3 0 3 0 0 Z " fill="#2D2959" transform="translate(618,285)"/>
<path d="M0 0 C0.99 0.33 1.98 0.66 3 1 C2.041 2.052 2.041 2.052 1.062 3.125 C-1.164 6.228 -1.651 8.246 -2 12 C-2.33 12 -2.66 12 -3 12 C-3.369 4.615 -3.369 4.615 -1.5 1.5 C-1.005 1.005 -0.51 0.51 0 0 Z " fill="#2B1F40" transform="translate(753,279)"/>
<path d="M0 0 C2.716 0.905 5.348 1.925 8 3 C8 3.33 8 3.66 8 4 C6.742 4.041 5.484 4.083 4.188 4.125 C3.48 4.148 2.772 4.171 2.043 4.195 C0 4 0 4 -3 2 C-2.01 1.34 -1.02 0.68 0 0 Z " fill="#332739" transform="translate(126,248)"/>
<path d="M0 0 C1.98 0 3.96 0 6 0 C5.688 1.938 5.688 1.938 5 4 C4.01 4.33 3.02 4.66 2 5 C1.34 4.34 0.68 3.68 0 3 C0 2.01 0 1.02 0 0 Z " fill="#30245A" transform="translate(637,226)"/>
<path d="M0 0 C0.66 0 1.32 0 2 0 C2.33 0.99 2.66 1.98 3 3 C1.02 3.99 -0.96 4.98 -3 6 C-2.427 3.133 -2.139 2.139 0 0 Z " fill="#1B1146" transform="translate(521,367)"/>
<path d="M0 0 C1.32 0.33 2.64 0.66 4 1 C3.062 3 3.062 3 1 5 C-2.025 5.365 -4.967 5.229 -8 5 C-8 4.67 -8 4.34 -8 4 C-5.36 4 -2.72 4 0 4 C0 2.68 0 1.36 0 0 Z " fill="#383765" transform="translate(631,288)"/>
<path d="M0 0 C0.99 0 1.98 0 3 0 C2.67 1.32 2.34 2.64 2 4 C0.35 4.33 -1.3 4.66 -3 5 C-1.125 1.125 -1.125 1.125 0 0 Z " fill="#1E1730" transform="translate(677,280)"/>
<path d="M0 0 C6.523 0.615 6.523 0.615 8.938 2.562 C9.288 3.037 9.639 3.511 10 4 C9.01 4.495 9.01 4.495 8 5 C6.055 4.223 6.055 4.223 3.875 3.062 C3.151 2.682 2.426 2.302 1.68 1.91 C1.125 1.61 0.571 1.309 0 1 C0 0.67 0 0.34 0 0 Z " fill="#201554" transform="translate(229,801)"/>
<path d="M0 0 C0.66 0 1.32 0 2 0 C2 1.98 2 3.96 2 6 C2.66 6 3.32 6 4 6 C4 6.66 4 7.32 4 8 C2.68 7.67 1.36 7.34 0 7 C0 4.69 0 2.38 0 0 Z " fill="#2B2245" transform="translate(813,258)"/>
<path d="M0 0 C0.66 0.33 1.32 0.66 2 1 C1.34 2.98 0.68 4.96 0 7 C-0.99 7 -1.98 7 -3 7 C-1.125 1.125 -1.125 1.125 0 0 Z " fill="#140F3E" transform="translate(603,425)"/>
<path d="M0 0 C0.66 0.33 1.32 0.66 2 1 C1 3 0 5 -1 7 C-1.99 7 -2.98 7 -4 7 C-2.796 4.506 -1.546 2.319 0 0 Z " fill="#DCDAE0" transform="translate(634,347)"/>
<path d="M0 0 C1.32 0 2.64 0 4 0 C3.67 1.32 3.34 2.64 3 4 C0 4 0 4 -2 3 C-1.34 2.01 -0.68 1.02 0 0 Z " fill="#2E2B4E" transform="translate(638,282)"/>
<path d="M0 0 C0 0.33 0 0.66 0 1 C-5.16 2.513 -8.66 3.335 -14 2 C-14 1.67 -14 1.34 -14 1 C-9.237 0.047 -4.833 -0.083 0 0 Z " fill="#B18A61" transform="translate(635,764)"/>
<path d="M0 0 C0.33 0 0.66 0 1 0 C1 1.98 1 3.96 1 6 C2.32 5.67 3.64 5.34 5 5 C5 5.99 5 6.98 5 8 C3.35 7.67 1.7 7.34 0 7 C0 4.69 0 2.38 0 0 Z " fill="#2F2B50" transform="translate(667,270)"/>
<path d="M0 0 C2.062 0.438 2.062 0.438 4 1 C2.625 3.5 2.625 3.5 1 6 C0.34 6 -0.32 6 -1 6 C-1.043 4.334 -1.041 2.666 -1 1 C-0.67 0.67 -0.34 0.34 0 0 Z " fill="#403966" transform="translate(669,234)"/>
</svg>