<svg version="1.1" xmlns="http://www.w3.org/2000/svg" width="1024" height="1024">
<path d="M0 0 C337.92 0 675.84 0 1024 0 C1024 337.92 1024 675.84 1024 1024 C686.08 1024 348.16 1024 0 1024 C0 686.08 0 348.16 0 0 Z " fill="#7282CD" transform="translate(0,0)"/>
<path d="M0 0 C2.032 3.048 2.567 4.464 1.906 8.055 C-0.198 12.571 -5.069 15.176 -9 18 C-11.005 19.536 -13.004 21.078 -15 22.625 C-16.11 23.477 -17.221 24.329 -18.332 25.18 C-24.792 30.139 -31.209 35.155 -37.634 40.159 C-40.022 42.017 -42.411 43.872 -44.801 45.727 C-51.747 51.118 -58.686 56.513 -65.535 62.027 C-68.57 64.456 -71.628 66.853 -74.688 69.25 C-79.672 73.156 -84.626 77.097 -89.562 81.062 C-94.687 85.177 -99.857 89.221 -105.082 93.207 C-109.962 96.942 -114.742 100.798 -119.524 104.658 C-124.24 108.444 -129.066 112.011 -134.023 115.477 C-136.109 116.855 -136.109 116.855 -137 119 C-136.348 119.111 -135.697 119.222 -135.025 119.337 C-124.31 121.218 -113.788 123.831 -103.228 126.43 C-100.817 127.021 -98.404 127.603 -95.99 128.178 C-92.481 129.015 -88.978 129.874 -85.477 130.738 C-84.399 130.991 -83.322 131.243 -82.213 131.503 C-72.144 134.041 -72.144 134.041 -69 139 C-68.374 142.032 -68.415 144.935 -68.512 148.02 C-68.519 148.878 -68.526 149.737 -68.533 150.621 C-68.561 153.353 -68.624 156.082 -68.688 158.812 C-68.713 160.669 -68.735 162.525 -68.756 164.381 C-68.811 168.921 -68.897 173.46 -69 178 C-68.01 178 -67.02 178 -66 178 C-66.004 177.444 -66.007 176.888 -66.011 176.314 C-66.1 162.768 -66.165 149.222 -66.207 135.675 C-66.228 129.124 -66.256 122.573 -66.302 116.022 C-66.345 109.701 -66.369 103.379 -66.38 97.057 C-66.387 94.645 -66.401 92.233 -66.423 89.821 C-66.452 86.443 -66.456 83.065 -66.454 79.687 C-66.468 78.689 -66.483 77.692 -66.498 76.664 C-66.463 70.78 -65.865 67.512 -62 63 C-56.172 57.907 -48.066 55.175 -41.062 52.125 C-39.868 51.602 -38.674 51.079 -37.444 50.54 C-35.061 49.499 -32.677 48.462 -30.291 47.429 C-27.432 46.188 -24.582 44.929 -21.734 43.664 C-20.261 43.025 -18.787 42.386 -17.312 41.75 C-16.674 41.463 -16.035 41.175 -15.377 40.879 C-7.55 37.579 -1.174 38.876 6.5 41.5 C7.304 41.764 8.108 42.028 8.936 42.3 C11.628 43.188 14.314 44.094 17 45 C19.039 45.68 21.078 46.36 23.117 47.039 C26.241 48.08 29.365 49.122 32.487 50.169 C37.744 51.93 43.005 53.647 48.312 55.25 C50.209 55.831 52.105 56.414 54 57 C55.016 57.313 56.032 57.626 57.078 57.949 C58.063 58.275 59.048 58.601 60.062 58.938 C60.92 59.215 61.777 59.492 62.66 59.777 C65.822 61.43 67.083 62.967 69 66 C69.586 69.005 69.564 71.959 69.546 75.013 C69.556 75.911 69.567 76.809 69.577 77.734 C69.607 80.694 69.608 83.653 69.609 86.613 C69.624 88.669 69.641 90.724 69.659 92.78 C69.703 98.184 69.723 103.587 69.738 108.991 C69.758 114.508 69.8 120.024 69.84 125.541 C69.915 136.361 69.965 147.18 70 158 C74.29 159.65 78.58 161.3 83 163 C82.98 160.818 82.98 160.818 82.96 158.592 C82.838 144.893 82.748 131.194 82.689 117.494 C82.658 110.451 82.616 103.408 82.547 96.365 C82.481 89.57 82.446 82.775 82.431 75.98 C82.42 73.385 82.398 70.791 82.366 68.197 C82.322 64.566 82.316 60.938 82.319 57.308 C82.297 56.232 82.276 55.156 82.253 54.047 C82.313 46.943 82.313 46.943 84.28 44.245 C87.428 41.538 91.059 39.861 94.895 38.352 C96.007 37.907 97.119 37.462 98.266 37.003 C99.436 36.548 100.607 36.094 101.812 35.625 C104.246 34.664 106.68 33.701 109.113 32.738 C110.294 32.274 111.474 31.809 112.69 31.331 C115.544 30.183 118.36 28.985 121.168 27.73 C131.469 23.138 139.566 20.996 150.434 25.098 C153.503 26.177 156.586 26.926 159.75 27.688 C167.291 29.522 174.784 31.532 182.269 33.583 C183.584 33.943 184.9 34.301 186.217 34.658 C188.088 35.166 189.958 35.681 191.828 36.195 C193.466 36.644 193.466 36.644 195.138 37.102 C197.623 37.882 199.774 38.656 202 40 C203.414 42.829 203.123 45.188 203.12 48.353 C203.121 49.012 203.122 49.671 203.123 50.35 C203.124 52.569 203.119 54.788 203.114 57.006 C203.113 58.593 203.113 60.179 203.114 61.766 C203.114 66.082 203.108 70.398 203.101 74.713 C203.095 79.22 203.095 83.727 203.093 88.234 C203.09 96.773 203.082 105.312 203.072 113.851 C203.061 123.57 203.055 133.289 203.05 143.009 C203.04 163.006 203.022 183.003 203 203 C203.742 203.2 204.483 203.4 205.247 203.607 C206.227 203.872 207.208 204.138 208.217 204.412 C209.186 204.674 210.154 204.936 211.152 205.206 C215.1 206.307 218.99 207.555 222.879 208.848 C223.658 209.105 224.436 209.362 225.239 209.628 C226.86 210.165 228.481 210.703 230.101 211.243 C232.587 212.071 235.075 212.888 237.564 213.705 C239.149 214.231 240.733 214.758 242.316 215.285 C243.059 215.528 243.802 215.771 244.567 216.021 C249.771 217.771 249.771 217.771 252 220 C252.098 221.873 252.13 223.75 252.125 225.625 C252.453 230.436 253.119 232.896 256.562 236.312 C258.018 237.569 259.503 238.793 261 240 C266.431 244.647 271.683 249.464 276.875 254.375 C282.039 259.239 287.236 264.052 292.527 268.777 C295.457 271.411 298.356 274.077 301.25 276.75 C301.791 277.25 302.332 277.75 302.89 278.265 C305.831 280.985 308.766 283.712 311.695 286.445 C312.31 287.018 312.924 287.591 313.558 288.181 C314.729 289.272 315.899 290.365 317.067 291.46 C319.889 294.09 322.746 296.621 325.727 299.07 C329.437 302.25 331.693 304.944 332.434 309.902 C332.442 316.172 332.316 320.116 328 325 C327.564 325.549 327.129 326.098 326.68 326.664 C324.13 329.827 321.409 332.593 318.32 335.23 C313.973 338.994 309.794 342.916 305.625 346.875 C300.269 351.94 294.886 356.961 289.383 361.867 C286.589 364.368 283.824 366.901 281.062 369.438 C265.403 383.812 265.403 383.812 258.027 390.223 C255.665 392.294 253.332 394.395 251 396.5 C245.664 401.31 240.284 406.06 234.812 410.715 C229.057 415.616 223.351 420.542 217.812 425.688 C214.166 429.075 210.444 432.319 206.562 435.438 C202.378 438.803 198.417 442.332 194.5 446 C189.739 450.459 184.835 454.638 179.746 458.723 C176.737 461.218 173.861 463.838 171 466.5 C166.368 470.81 161.579 474.851 156.648 478.82 C153.165 481.687 149.852 484.723 146.52 487.762 C143.968 490.028 141.348 492.175 138.688 494.312 C133.874 498.203 129.352 502.329 124.839 506.556 C120.626 510.479 116.236 514.119 111.746 517.723 C108.202 520.662 104.842 523.785 101.474 526.921 C98.306 529.852 95.059 532.62 91.688 535.312 C86.388 539.572 81.481 544.18 76.545 548.849 C72.989 552.196 69.388 555.395 65.562 558.438 C60.043 562.842 54.944 567.645 49.832 572.51 C43.728 578.312 37.4 583.826 30.979 589.273 C25.587 593.849 20.332 598.523 15.188 603.375 C1.202 616.499 1.202 616.499 -8.832 616.262 C-16.583 615.326 -21.222 610.017 -26.387 604.625 C-28.855 602.146 -31.384 599.982 -34.125 597.812 C-39.749 593.324 -44.956 588.451 -50.167 583.491 C-54.094 579.759 -58.088 576.131 -62.181 572.581 C-64.48 570.583 -66.742 568.545 -69 566.5 C-72.62 563.233 -76.27 560.005 -79.949 556.805 C-82.261 554.77 -84.535 552.698 -86.812 550.625 C-90.254 547.515 -93.763 544.535 -97.375 541.625 C-101.929 537.944 -106.236 534.072 -110.519 530.086 C-113.752 527.096 -117.067 524.262 -120.5 521.5 C-124.476 518.301 -128.267 514.974 -132 511.5 C-136.61 507.21 -141.378 503.196 -146.285 499.246 C-149.107 496.912 -151.806 494.48 -154.5 492 C-158.966 487.889 -163.584 484.036 -168.305 480.223 C-172.667 476.626 -176.818 472.802 -181 469 C-186.165 464.395 -191.443 459.928 -196.732 455.467 C-201.635 451.325 -206.487 447.127 -211.331 442.917 C-215.64 439.173 -219.971 435.456 -224.312 431.75 C-228.324 428.326 -232.287 424.863 -236.188 421.312 C-239.437 418.359 -242.759 415.556 -246.188 412.812 C-252.256 407.908 -257.887 402.572 -263.562 397.223 C-266.638 394.327 -269.779 391.525 -272.98 388.77 C-275.695 386.391 -278.346 383.945 -281 381.5 C-284.3 378.461 -287.609 375.438 -291 372.5 C-295.377 368.707 -299.622 364.773 -303.875 360.844 C-306.165 358.742 -308.495 356.693 -310.844 354.656 C-315.915 350.236 -320.77 345.596 -325.645 340.961 C-329.75 337.073 -333.911 333.286 -338.213 329.616 C-343.761 324.598 -347.069 320.458 -347.5 312.812 C-347.448 307.209 -345.915 304.7 -341.992 300.832 C-341.335 300.227 -340.677 299.623 -340 299 C-338.853 297.814 -337.707 296.627 -336.562 295.438 C-333.646 292.566 -330.6 289.885 -327.5 287.215 C-323.465 283.64 -319.553 279.935 -315.631 276.238 C-312.49 273.286 -309.319 270.387 -306.062 267.562 C-301.762 263.825 -297.628 259.925 -293.5 256 C-289.399 252.101 -285.294 248.222 -281.031 244.5 C-280.386 243.923 -279.741 243.346 -279.077 242.751 C-277 241 -277 241 -274.527 239.299 C-270.673 236.462 -268.346 234.521 -267.259 229.745 C-267.034 225.927 -267.052 222.197 -267.188 218.375 C-267.459 205.062 -267.459 205.062 -265.484 200.492 C-262.23 197.227 -258.781 194.467 -255.062 191.75 C-253.521 190.598 -251.979 189.446 -250.438 188.293 C-249.301 187.451 -249.301 187.451 -248.141 186.591 C-245.256 184.447 -242.408 182.259 -239.562 180.062 C-238.533 179.27 -237.503 178.477 -236.441 177.66 C-232.285 174.452 -228.143 171.225 -224 168 C-213.214 159.604 -202.375 151.281 -191.5 143 C-180.783 134.839 -170.087 126.657 -159.51 118.315 C-154.873 114.666 -150.193 111.077 -145.5 107.5 C-134.754 99.305 -124.154 90.936 -113.609 82.485 C-104.47 75.165 -95.254 67.949 -85.956 60.833 C-81.842 57.673 -77.79 54.441 -73.75 51.188 C-68.313 46.81 -62.808 42.535 -57.25 38.312 C-51.622 34.036 -46.096 29.671 -40.652 25.16 C-37.23 22.373 -33.722 19.704 -30.211 17.031 C-24.778 12.874 -19.485 8.549 -14.204 4.202 C-13.556 3.67 -12.907 3.138 -12.238 2.59 C-11.373 1.876 -11.373 1.876 -10.49 1.148 C-6.896 -1.622 -4.332 -0.928 0 0 Z " fill="#020512" transform="translate(520,193)"/>
<path d="M0 0 C2.993 1.402 5.595 3.034 8.25 5 C8.956 5.516 9.663 6.031 10.391 6.562 C11.187 7.274 11.187 7.274 12 8 C12 8.66 12 9.32 12 10 C12.541 10.084 13.083 10.168 13.641 10.254 C16.817 11.259 19.066 12.974 21.75 14.938 C22.735 15.648 23.72 16.358 24.734 17.09 C25.482 17.72 26.23 18.351 27 19 C27 19.66 27 20.32 27 21 C27.584 21.112 28.168 21.223 28.77 21.339 C31.222 22.066 32.663 23.024 34.68 24.582 C35.362 25.102 36.044 25.622 36.746 26.158 C37.449 26.704 38.151 27.25 38.875 27.812 C40.267 28.883 41.66 29.952 43.055 31.02 C43.721 31.531 44.387 32.042 45.073 32.569 C46.827 33.872 48.609 35.079 50.445 36.262 C53 38 53 38 54 40 C55.653 40.911 57.307 41.821 58.965 42.723 C61.253 44.159 63.131 45.805 65.125 47.625 C68 50.234 70.315 51.705 74 53 C75.674 54.324 77.339 55.659 79 57 C81.538 58.847 84.114 60.64 86.688 62.438 C91.962 66.136 97.206 69.868 102.404 73.673 C112.169 80.809 122.189 87.521 132.273 94.195 C137.718 97.802 143.114 101.474 148.477 105.2 C153.198 108.473 157.974 111.66 162.757 114.841 C166.014 117.01 169.266 119.187 172.516 121.367 C187.945 131.714 187.945 131.714 203.635 141.66 C207.925 144.307 212.131 147.058 216.312 149.875 C222.211 153.845 228.179 157.698 234.188 161.5 C235.409 162.275 235.409 162.275 236.656 163.066 C237.423 163.549 238.19 164.033 238.98 164.531 C239.66 164.96 240.34 165.388 241.04 165.83 C245.923 168.745 248.244 169.391 254 168 C256.735 166.747 259.222 165.187 261.75 163.562 C262.506 163.089 263.262 162.616 264.041 162.129 C272.434 156.826 280.677 151.278 288.905 145.723 C294.705 141.815 300.546 138.015 306.496 134.34 C315.706 128.638 324.675 122.585 333.645 116.515 C336.428 114.631 339.215 112.753 342.002 110.875 C351.873 104.213 361.669 97.459 371.379 90.564 C375.715 87.487 380.099 84.483 384.5 81.5 C398.145 72.205 411.577 62.611 425 53 C427.27 51.374 429.541 49.749 431.812 48.125 C432.386 47.715 432.96 47.304 433.551 46.881 C436.689 44.64 439.835 42.41 442.992 40.195 C458.139 29.567 472.991 18.549 487.777 7.426 C488.341 7.004 488.904 6.582 489.484 6.147 C490.774 5.171 492.047 4.172 493.316 3.168 C495 2 495 2 497 2 C497.948 6.599 498.093 10.412 497 15 C493.396 20.26 487.969 24.105 483 28 C481.124 29.541 479.249 31.083 477.375 32.625 C476.5 33.326 475.624 34.028 474.723 34.75 C470.594 38.162 466.694 41.808 462.766 45.445 C456.65 51.095 450.291 56.447 443.923 61.808 C440.515 64.687 437.173 67.621 433.875 70.625 C430.52 73.677 427.091 76.588 423.562 79.438 C418.789 83.298 414.266 87.374 409.75 91.531 C407.063 93.944 404.31 96.233 401.5 98.5 C396.682 102.39 392.099 106.485 387.539 110.672 C383.04 114.798 378.427 118.786 373.781 122.746 C367.237 128.328 360.777 133.968 354.434 139.777 C349.963 143.86 345.389 147.818 340.781 151.746 C334.237 157.328 327.777 162.968 321.434 168.777 C316.987 172.838 312.442 176.779 307.852 180.676 C301.269 186.273 294.802 191.957 288.478 197.846 C285.048 201.04 281.568 204.16 278.023 207.227 C275.485 209.451 272.994 211.725 270.5 214 C266.604 217.55 262.701 221.087 258.707 224.527 C257.222 225.808 255.765 227.12 254.312 228.438 C251.44 230.379 250.417 230.545 247 230 C244.741 228.25 242.821 226.563 240.812 224.562 C239.652 223.449 238.49 222.335 237.328 221.223 C236.76 220.671 236.192 220.12 235.607 219.551 C229.084 213.256 222.153 207.4 215.256 201.523 C210.563 197.512 205.986 193.392 201.434 189.223 C196.987 185.162 192.442 181.221 187.852 177.324 C180.713 171.254 173.74 165.05 166.879 158.668 C160.624 152.872 154.11 147.376 147.634 141.831 C129.456 126.261 129.456 126.261 121.75 119.25 C118.436 116.242 115.043 113.376 111.562 110.562 C106.789 106.702 102.266 102.626 97.75 98.469 C95.063 96.056 92.31 93.767 89.5 91.5 C85.715 88.447 82.078 85.293 78.5 82 C74.03 77.886 69.41 74.029 64.684 70.215 C62.053 68.044 59.521 65.798 57 63.5 C52.78 59.658 48.42 56.039 43.984 52.449 C39.996 49.176 36.093 45.807 32.188 42.436 C28.719 39.449 25.205 36.542 21.625 33.688 C19.747 32.128 17.873 30.565 16 29 C15.33 28.465 14.66 27.931 13.97 27.38 C-0.083 16.064 -0.083 16.064 -1.02 9.922 C-1.002 6.465 -0.748 3.37 0 0 Z " fill="#F97125" transform="translate(264,566)"/>
<path d="M0 0 C8.91 0 17.82 0 27 0 C28.37 3.823 29.74 7.645 31.108 11.469 C31.572 12.765 32.036 14.062 32.501 15.358 C34.843 21.89 37.178 28.421 39.345 35.013 C40.011 37.032 40.696 39.044 41.387 41.055 C41.603 41.689 41.819 42.323 42.041 42.977 C42.48 44.267 42.923 45.556 43.369 46.844 C44.336 49.699 45 51.962 45 55 C45.66 55 46.32 55 47 55 C47.116 54.316 47.232 53.631 47.352 52.926 C48.099 49.555 49.195 46.432 50.375 43.188 C50.795 42.026 51.215 40.865 51.648 39.668 C52.583 37.131 53.526 34.599 54.48 32.07 C56.025 27.963 57.487 23.829 58.938 19.688 C61.249 13.109 63.602 6.548 66 0 C73.26 0 80.52 0 88 0 C90.513 6.282 92.95 12.513 95.164 18.895 C95.442 19.69 95.72 20.485 96.007 21.304 C96.882 23.806 97.754 26.309 98.625 28.812 C99.504 31.333 100.384 33.854 101.264 36.374 C101.809 37.932 102.352 39.49 102.894 41.049 C103.928 44.01 104.971 46.931 106.181 49.827 C107 52 107 52 107 55 C107.66 55 108.32 55 109 55 C109.169 53.747 109.169 53.747 109.341 52.469 C110.064 48.662 111.229 45.134 112.547 41.504 C112.8 40.793 113.053 40.083 113.314 39.351 C114.121 37.086 114.935 34.824 115.75 32.562 C116.81 29.606 117.866 26.649 118.922 23.691 C119.309 22.609 119.309 22.609 119.704 21.504 C122.244 14.371 124.631 7.192 127 0 C135.91 0 144.82 0 154 0 C153.069 4.655 151.668 8.801 149.965 13.199 C149.654 14.011 149.344 14.823 149.023 15.66 C147.998 18.337 146.968 21.012 145.938 23.688 C145.223 25.55 144.51 27.413 143.797 29.276 C142.302 33.179 140.805 37.081 139.308 40.982 C135.899 49.865 132.512 58.756 129.126 67.647 C128.074 70.408 127.02 73.169 125.967 75.93 C125.323 77.619 124.679 79.308 124.035 80.996 C123.594 82.151 123.594 82.151 123.144 83.329 C122.048 86.207 120.974 89.079 120 92 C112.41 92 104.82 92 97 92 C96.024 89.35 95.048 86.699 94.043 83.969 C93.09 81.381 92.137 78.792 91.183 76.204 C90.525 74.416 89.866 72.627 89.208 70.839 C88.257 68.257 87.306 65.675 86.355 63.094 C86.065 62.304 85.774 61.514 85.474 60.7 C84.108 56.992 82.733 53.287 81.336 49.59 C79.901 45.735 78.928 41.998 78 38 C77.34 38 76.68 38 76 38 C75.841 38.727 75.683 39.454 75.52 40.203 C75.286 41.209 75.053 42.214 74.812 43.25 C74.482 44.712 74.482 44.712 74.145 46.203 C72.856 50.479 71.162 54.469 69.415 58.575 C66.805 64.891 64.518 71.327 62.188 77.75 C61.681 79.141 61.173 80.531 60.666 81.922 C59.441 85.28 58.22 88.64 57 92 C49.74 92 42.48 92 35 92 C30.5 82.999 30.5 82.999 28.777 78.471 C28.195 76.951 28.195 76.951 27.602 75.401 C27.194 74.323 26.787 73.246 26.367 72.137 C25.93 70.991 25.494 69.846 25.044 68.666 C24.119 66.238 23.196 63.81 22.275 61.381 C20.904 57.764 19.527 54.148 18.148 50.533 C13.496 38.316 8.887 26.082 4.32 13.832 C3.885 12.672 3.45 11.512 3.002 10.317 C2.41 8.721 2.41 8.721 1.805 7.093 C1.455 6.155 1.106 5.217 0.745 4.25 C0 2 0 2 0 0 Z " fill="#FBFBFB" transform="translate(307,471)"/>
<path d="M0 0 C7.59 0 15.18 0 23 0 C31.167 18.018 39.271 36.061 47.281 54.149 C50.23 60.804 53.192 67.45 56.234 74.062 C56.708 75.093 57.182 76.124 57.671 77.185 C58.528 79.041 59.391 80.895 60.259 82.746 C60.811 83.941 60.811 83.941 61.375 85.16 C61.692 85.837 62.009 86.514 62.336 87.211 C63 89 63 89 63 92 C54.75 92 46.5 92 38 92 C34 84 34 84 31 74 C18.13 74.33 5.26 74.66 -8 75 C-10.31 80.61 -12.62 86.22 -15 92 C-23.58 92 -32.16 92 -41 92 C-35.388 78.531 -35.388 78.531 -33.301 73.926 C-32.823 72.866 -32.344 71.806 -31.852 70.714 C-31.344 69.592 -30.836 68.469 -30.312 67.312 C-26.266 58.345 -22.268 49.357 -18.324 40.344 C-17.725 38.975 -17.725 38.975 -17.114 37.579 C-15.133 33.05 -13.155 28.52 -11.181 23.988 C-10.444 22.3 -9.706 20.613 -8.969 18.926 C-8.642 18.173 -8.315 17.419 -7.979 16.643 C-5.498 10.977 -2.777 5.553 0 0 Z " fill="#FBFBFB" transform="translate(493,471)"/>
<path d="M0 0 C7.92 0 15.84 0 24 0 C24.33 11.55 24.66 23.1 25 35 C29.188 30.812 33.025 26.818 36.848 22.371 C40.162 18.72 43.68 15.277 47.206 11.832 C48.003 11.047 48.003 11.047 48.816 10.246 C49.358 9.725 49.899 9.203 50.457 8.666 C52.059 7.041 52.059 7.041 53.215 5.055 C54.667 2.827 55.777 1.484 58 0 C62.969 -0.861 67.859 -0.661 72.875 -0.438 C74.245 -0.402 75.615 -0.37 76.984 -0.342 C80.325 -0.259 83.661 -0.144 87 0 C85.612 3.139 84.005 5.223 81.551 7.609 C80.867 8.282 80.183 8.955 79.479 9.648 C78.406 10.689 78.406 10.689 77.312 11.75 C72.556 16.387 68.005 21.08 63.677 26.121 C62.073 27.918 60.411 29.581 58.656 31.23 C58.133 31.724 57.61 32.217 57.07 32.725 C56.001 33.721 54.922 34.708 53.836 35.686 C50.824 38.535 50.824 38.535 49.777 42.414 C51.587 46.241 54.22 49.08 57.062 52.188 C58.263 53.534 59.462 54.882 60.66 56.23 C61.531 57.206 61.531 57.206 62.418 58.201 C64.358 60.408 66.191 62.685 68 65 C71.978 70.058 76.197 74.895 80.434 79.736 C89 89.537 89 89.537 89 92 C85.036 92.25 81.075 92.43 77.104 92.549 C75.101 92.624 73.1 92.751 71.1 92.879 C61.504 93.121 61.504 93.121 57.204 89.916 C54.915 87.385 52.935 84.808 51 82 C50.188 81.034 49.376 80.069 48.539 79.074 C47.592 77.893 47.592 77.893 46.625 76.688 C41.515 70.374 36.262 64.187 31 58 C28.107 59.546 26.817 60.338 25 63 C24.076 67.916 24.113 72.827 24.125 77.812 C24.107 79.187 24.086 80.561 24.062 81.936 C24.015 85.29 24.004 88.645 24 92 C16.08 92 8.16 92 0 92 C0 61.64 0 31.28 0 0 Z " fill="#FAFAFA" transform="translate(639,471)"/>
<path d="M0 0 C2 0 2 0 4.262 2.133 C5.165 3.079 6.069 4.025 7 5 C7.942 5.958 8.886 6.914 9.832 7.867 C10.559 8.601 10.559 8.601 11.3 9.351 C15.779 13.865 20.295 18.235 25.141 22.359 C27.81 24.715 30.278 27.252 32.75 29.812 C34.692 31.7 36.674 33.476 38.719 35.25 C43.838 39.696 48.732 44.368 53.645 49.039 C54.35 49.707 55.055 50.375 55.781 51.062 C56.82 52.049 56.82 52.049 57.879 53.055 C60.635 55.582 63.523 57.937 66.451 60.262 C68.479 62.537 68.932 63.956 69 67 C67.588 69.109 67.588 69.109 65.441 71.18 C64.662 71.944 63.883 72.709 63.08 73.496 C62.249 74.281 61.418 75.066 60.562 75.875 C59.767 76.652 58.971 77.43 58.15 78.23 C53.831 82.419 49.402 86.453 44.851 90.387 C42.01 92.863 39.257 95.431 36.5 98 C32.418 101.787 28.302 105.518 24.09 109.16 C21.356 111.567 18.679 114.033 16 116.5 C2.895 128.553 2.895 128.553 0 130 C0 87.1 0 44.2 0 0 Z " fill="#FAA203" transform="translate(771,441)"/>
<path d="M0 0 C0 42.57 0 85.14 0 129 C-7.865 122.259 -7.865 122.259 -11.051 119.23 C-11.744 118.574 -12.437 117.917 -13.152 117.241 C-13.865 116.563 -14.578 115.886 -15.312 115.188 C-20.686 110.105 -26.083 105.065 -31.605 100.145 C-34.469 97.58 -37.297 94.978 -40.125 92.375 C-43.362 89.398 -46.611 86.44 -49.938 83.562 C-50.546 83.029 -51.154 82.495 -51.781 81.945 C-53.045 80.837 -54.312 79.732 -55.586 78.636 C-57.383 77.084 -59.161 75.512 -60.938 73.938 C-61.518 73.443 -62.099 72.948 -62.697 72.438 C-65.329 70.078 -66.91 68.248 -68.125 64.906 C-68 62 -68 62 -66.41 59.691 C-65.635 58.989 -64.861 58.286 -64.062 57.562 C-63.311 56.863 -62.559 56.163 -61.785 55.441 C-60.251 54.096 -58.715 52.753 -57.175 51.415 C-52.391 47.253 -47.731 42.983 -43.125 38.625 C-38.014 33.81 -32.866 29.049 -27.625 24.375 C-24.192 21.269 -20.816 18.103 -17.438 14.938 C-1.477 0 -1.477 0 0 0 Z " fill="#FCA503" transform="translate(254,442)"/>
<path d="M0 0 C0 35.31 0 70.62 0 107 C-11.88 108.485 -11.88 108.485 -24 110 C-30.428 110.83 -30.428 110.83 -36.855 111.668 C-40 112 -40 112 -45 112 C-45 81.31 -45 50.62 -45 19 C-35.288 14.144 -25.672 9.365 -15.75 5 C-14.663 4.511 -13.577 4.023 -12.457 3.52 C-11.414 3.059 -10.371 2.599 -9.297 2.125 C-8.372 1.715 -7.448 1.305 -6.495 0.883 C-4 0 -4 0 0 0 Z " fill="#05A1E5" transform="translate(510,246)"/>
<path d="M0 0 C7.92 0 15.84 0 24 0 C24 23.43 24 46.86 24 71 C37.53 71 51.06 71 65 71 C65 77.93 65 84.86 65 92 C43.55 92 22.1 92 0 92 C0 61.64 0 31.28 0 0 Z " fill="#FAFAFB" transform="translate(564,471)"/>
<path d="M0 0 C0.99 0.495 0.99 0.495 2 1 C0.833 2.021 -0.333 3.042 -1.5 4.062 C-2.223 4.698 -2.946 5.334 -3.691 5.988 C-5.209 7.311 -6.738 8.621 -8.277 9.918 C-8.99 10.523 -9.703 11.127 -10.438 11.75 C-11.096 12.302 -11.755 12.853 -12.434 13.422 C-14.254 15.022 -14.254 15.022 -15 18 C-15.804 18.639 -16.609 19.279 -17.438 19.938 C-20.506 22.407 -21.793 24.261 -22.262 28.194 C-22.27 29.395 -22.27 29.395 -22.278 30.619 C-22.29 31.542 -22.301 32.464 -22.312 33.415 C-22.314 34.42 -22.317 35.425 -22.319 36.46 C-22.329 37.524 -22.339 38.587 -22.349 39.683 C-22.38 43.2 -22.397 46.717 -22.414 50.234 C-22.433 52.672 -22.452 55.111 -22.473 57.549 C-22.524 63.967 -22.564 70.385 -22.601 76.803 C-22.641 83.352 -22.692 89.9 -22.742 96.449 C-22.839 109.299 -22.924 122.15 -23 135 C-23.99 135 -24.98 135 -26 135 C-26.009 133.84 -26.019 132.679 -26.028 131.483 C-26.068 127.174 -26.134 122.866 -26.208 118.557 C-26.236 116.693 -26.257 114.829 -26.271 112.964 C-26.292 110.283 -26.339 107.603 -26.391 104.922 C-26.392 104.089 -26.393 103.257 -26.394 102.399 C-26.414 101.619 -26.434 100.838 -26.454 100.034 C-26.463 99.35 -26.472 98.666 -26.481 97.962 C-27.257 95.03 -28.642 93.87 -31 92 C-33.916 90.83 -33.916 90.83 -37.237 90.077 C-38.498 89.757 -39.759 89.437 -41.059 89.107 C-42.43 88.774 -43.801 88.442 -45.172 88.109 C-46.579 87.758 -47.986 87.405 -49.392 87.05 C-53.085 86.124 -56.781 85.214 -60.479 84.308 C-64.256 83.38 -68.028 82.435 -71.801 81.492 C-79.197 79.646 -86.597 77.817 -94 76 C-92.916 72.747 -92.44 72.313 -89.789 70.398 C-89.127 69.913 -88.466 69.428 -87.784 68.928 C-87.071 68.416 -86.359 67.903 -85.625 67.375 C-84.144 66.288 -82.665 65.2 -81.188 64.109 C-80.103 63.31 -80.103 63.31 -78.996 62.494 C-76.478 60.609 -74.044 58.636 -71.625 56.625 C-64.624 50.813 -57.4 45.288 -50.208 39.715 C-42.297 33.572 -34.437 27.364 -26.625 21.094 C-22.835 18.071 -19.018 15.082 -15.203 12.091 C-10.109 8.093 -5.046 4.058 0 0 Z " fill="#A6C1C7" transform="translate(477,236)"/>
<path d="M0 0 C7.495 4.485 7.495 4.485 9 9 C7.707 11.043 7.707 11.043 5.812 13.188 C5.2 13.903 4.588 14.618 3.957 15.355 C2 17 2 17 -2 17 C-3.684 15.906 -3.684 15.906 -5.438 14.5 C-10.902 10.902 -16.678 11.071 -23 12 C-25.485 13.078 -26.927 14.207 -29 16 C-29.66 16 -30.32 16 -31 16 C-31.289 16.577 -31.577 17.155 -31.875 17.75 C-32.558 19.115 -33.273 20.465 -34.047 21.781 C-36.212 26.821 -35.774 33.169 -34.348 38.387 C-32.123 43.398 -28.789 46.411 -24 49 C-18.626 50.791 -13.418 51.168 -8.227 48.66 C-6.501 47.585 -4.799 46.471 -3.129 45.312 C-1 44 -1 44 2 44 C4.043 45.531 4.043 45.531 6.188 47.5 C6.903 48.15 7.618 48.799 8.355 49.469 C8.898 49.974 9.441 50.479 10 51 C6.949 57.729 0.688 61.371 -6 64 C-14.438 66.109 -23.612 66.118 -31.582 62.465 C-40.854 56.848 -47.605 49.268 -50.457 38.773 C-52.448 28.604 -50.884 20.417 -45.562 11.625 C-34.527 -4.08 -17.003 -7.722 0 0 Z " fill="#F8F9F9" transform="translate(459,388)"/>
<path d="M0 0 C0.66 0 1.32 0 2 0 C2 17.16 2 34.32 2 52 C-19.45 52 -40.9 52 -63 52 C-63 51.34 -63 50.68 -63 50 C-61.227 48.328 -61.227 48.328 -58.625 46.25 C-57.618 45.444 -56.611 44.639 -55.574 43.809 C-49.201 38.788 -42.795 33.81 -36.38 28.844 C-26.902 21.502 -17.439 14.141 -8 6.75 C-7.127 6.069 -7.127 6.069 -6.237 5.374 C-4.052 3.66 -1.966 1.966 0 0 Z " fill="#08A2E6" transform="translate(328,351)"/>
<path d="M0 0 C7.53 -0.025 15.059 -0.043 22.589 -0.055 C25.153 -0.06 27.717 -0.067 30.281 -0.075 C33.957 -0.088 37.633 -0.093 41.309 -0.098 C42.463 -0.103 43.617 -0.108 44.806 -0.113 C46.398 -0.113 46.398 -0.113 48.021 -0.114 C48.961 -0.116 49.9 -0.118 50.868 -0.12 C53 0 53 0 54 1 C54.144 5.668 54.042 10.329 54 15 C47.4 15 40.8 15 34 15 C34 32.16 34 49.32 34 67 C29.38 67 24.76 67 20 67 C20 49.84 20 32.68 20 15 C13.4 15 6.8 15 0 15 C0 10.05 0 5.1 0 0 Z " fill="#F8F8F9" transform="translate(504,385)"/>
<path d="M0 0 C5.675 -1.15 11.474 -2.199 17 0 C21.953 4.612 24.984 10.908 27.941 16.915 C29.056 19.212 29.056 19.212 31 22 C31.66 22 32.32 22 33 22 C34.392 20.125 34.392 20.125 35.75 17.695 C36.276 16.802 36.802 15.909 37.344 14.988 C38.164 13.571 38.164 13.571 39 12.125 C40.081 10.272 41.164 8.42 42.25 6.57 C42.969 5.329 42.969 5.329 43.703 4.063 C45 2 45 2 47 0 C49.745 -0.145 52.385 -0.187 55.125 -0.125 C55.879 -0.116 56.633 -0.107 57.41 -0.098 C59.274 -0.074 61.137 -0.038 63 0 C61.173 3.921 58.856 7.529 56.562 11.188 C56.129 11.899 55.696 12.61 55.25 13.343 C52.993 17.012 50.688 20.465 47.93 23.777 C37.487 36.876 38.549 50.983 39 67 C34.38 67 29.76 67 25 67 C25.257 64.417 25.257 64.417 25.52 61.781 C26.871 37.338 15.934 22.305 1.197 3.727 C0 2 0 2 0 0 Z " fill="#F6F6F7" transform="translate(562,385)"/>
<path d="M0 0 C4.95 0 9.9 0 15 0 C15 22.11 15 44.22 15 67 C10.05 67 5.1 67 0 67 C0 44.89 0 22.78 0 0 Z " fill="#F4F5F6" transform="translate(479,385)"/>
<path d="M0 0 C18.326 0 18.326 0 24 5 C27.563 8.748 28.272 12.477 28.5 17.562 C28.306 22.453 27.35 25.288 24 29 C16.328 36.082 11.12 35 0 35 C0 23.45 0 11.9 0 0 Z " fill="#E9EAEC" transform="translate(512,590)"/>
<path d="M0 0 C1.282 -0.004 1.282 -0.004 2.59 -0.008 C5.062 0.125 5.062 0.125 7.129 0.695 C9.059 1.286 9.059 1.286 10.913 0.591 C13.466 0.037 14.886 0.379 17.387 1.094 C18.239 1.332 19.091 1.57 19.969 1.815 C21.345 2.216 21.345 2.216 22.75 2.625 C23.705 2.895 24.66 3.166 25.645 3.445 C27.701 4.027 29.756 4.613 31.81 5.202 C35.155 6.151 38.508 7.07 41.863 7.98 C44.096 8.591 46.329 9.202 48.562 9.812 C50.146 10.24 50.146 10.24 51.76 10.676 C64.57 14.221 64.57 14.221 67.875 18.438 C70.052 23.364 70.187 28.315 70.176 33.642 C70.176 35.581 70.176 35.581 70.176 37.559 C70.171 38.979 70.165 40.399 70.16 41.819 C70.158 43.324 70.157 44.829 70.156 46.334 C70.153 49.567 70.146 52.8 70.138 56.033 C70.124 61.142 70.118 66.251 70.114 71.36 C70.102 82.198 70.083 93.037 70.062 103.875 C70.04 115.59 70.02 127.304 70.009 139.019 C70.004 144.101 69.994 149.184 69.981 154.266 C69.973 157.42 69.97 160.575 69.968 163.729 C69.966 165.196 69.962 166.662 69.957 168.129 C69.95 170.125 69.949 172.121 69.949 174.116 C69.947 175.235 69.945 176.354 69.942 177.506 C69.884 180.106 69.884 180.106 71.062 182.125 C69.743 182.125 68.423 182.125 67.062 182.125 C66.732 128.335 66.403 74.545 66.062 19.125 C57.049 16.666 57.049 16.666 48.023 14.258 C46.791 13.932 45.56 13.606 44.29 13.27 C42.34 12.754 40.391 12.238 38.44 11.723 C25.62 8.338 25.62 8.338 19.715 6.492 C18.586 6.14 18.586 6.14 17.434 5.781 C15.552 5.181 13.676 4.56 11.801 3.938 C0.791 1.545 -7.082 4.249 -17.188 8.75 C-18.475 9.305 -19.763 9.858 -21.052 10.409 C-23.561 11.483 -26.066 12.566 -28.567 13.659 C-32.732 15.471 -36.917 17.228 -41.125 18.938 C-42.232 19.398 -43.34 19.858 -44.48 20.332 C-46.938 21.125 -46.938 21.125 -48.938 20.125 C-44.312 17.125 -44.312 17.125 -40.938 17.125 C-40.607 16.135 -40.278 15.145 -39.938 14.125 C-37.684 12.886 -35.548 11.859 -33.188 10.875 C-32.566 10.594 -31.945 10.313 -31.305 10.023 C-27.459 8.384 -24.945 7.81 -20.938 9.125 C-20.607 8.135 -20.278 7.145 -19.938 6.125 C-17.32 4.773 -17.32 4.773 -14.062 3.5 C-12.993 3.075 -11.923 2.649 -10.82 2.211 C-6.987 0.767 -4.083 -0.012 0 0 Z " fill="#AF6CB1" transform="translate(655.9375,213.875)"/>
<path d="M0 0 C4.724 1.181 6.253 3.236 9.125 6.875 C9.567 7.418 10.009 7.96 10.465 8.52 C12.432 10.95 14.264 13.396 16 16 C16.66 16 17.32 16 18 16 C19.35 14.484 19.35 14.484 20.68 12.5 C21.197 11.778 21.714 11.056 22.246 10.312 C23.329 8.775 24.408 7.233 25.48 5.688 C26 4.966 26.519 4.244 27.055 3.5 C27.524 2.83 27.993 2.159 28.476 1.469 C30 0 30 0 34 0 C34 11.55 34 23.1 34 35 C32.35 35 30.7 35 29 35 C28.505 23.615 28.505 23.615 28 12 C24.7 16.62 21.4 21.24 18 26 C12.069 23.034 9.777 18.413 6 13 C5.67 20.26 5.34 27.52 5 35 C3.35 35 1.7 35 0 35 C0 23.45 0 11.9 0 0 Z " fill="#F1F2F3" transform="translate(433,590)"/>
<path d="M0 0 C0.99 0 1.98 0 3 0 C4.817 3.753 6.632 7.506 8.444 11.261 C9.061 12.537 9.677 13.812 10.295 15.087 C11.185 16.926 12.073 18.766 12.961 20.605 C13.495 21.71 14.029 22.815 14.58 23.954 C18 31.289 18 31.289 18 35 C16.02 35 14.04 35 12 35 C11.01 32.03 10.02 29.06 9 26 C3.88 25.898 -0.974 25.949 -6 27 C-8.437 29.386 -9.328 31.687 -10 35 C-11.65 35 -13.3 35 -15 35 C-14.423 30.669 -13.362 27.08 -11.602 23.086 C-11.122 21.995 -10.643 20.905 -10.148 19.781 C-9.646 18.657 -9.143 17.533 -8.625 16.375 C-8.13 15.243 -7.635 14.111 -7.125 12.945 C-2.669 2.891 -2.669 2.891 0 0 Z " fill="#F2F2F3" transform="translate(581,590)"/>
<path d="M0 0 C7.59 0 15.18 0 23 0 C23 1.65 23 3.3 23 5 C17.39 5 11.78 5 6 5 C6 8.3 6 11.6 6 15 C10.62 15 15.24 15 20 15 C20 16.65 20 18.3 20 20 C15.38 20 10.76 20 6 20 C6 22.97 6 25.94 6 29 C11.28 29 16.56 29 22 29 C22 30.98 22 32.96 22 35 C14.74 35 7.48 35 0 35 C0 23.45 0 11.9 0 0 Z " fill="#E8E9EC" transform="translate(479,590)"/>
<path d="M0 0 C9.2 0 9.2 0 14 4 C16.828 8.242 16.781 12.019 16 17 C14.32 20.123 12.217 22.392 9 24 C6.03 24 3.06 24 0 24 C0 16.08 0 8.16 0 0 Z " fill="#050715" transform="translate(518,595)"/>
<path d="M0 0 C3.344 3.871 5.152 8.427 7.188 13.062 C7.556 13.878 7.924 14.693 8.303 15.533 C8.65 16.318 8.998 17.102 9.355 17.91 C9.83 18.98 9.83 18.98 10.313 20.071 C11 22 11 22 11 25 C4.07 25 -2.86 25 -10 25 C-9.269 21.345 -8.599 18.721 -7.188 15.391 C-6.834 14.554 -6.481 13.717 -6.117 12.855 C-5.749 11.996 -5.38 11.136 -5 10.25 C-4.447 8.937 -4.447 8.937 -3.883 7.598 C-1.139 1.139 -1.139 1.139 0 0 Z " fill="#080B17" transform="translate(504,501)"/>
<path d="M0 0 C0.99 0.495 0.99 0.495 2 1 C-4.885 7.432 -12.473 12.912 -20.022 18.523 C-28.897 25.15 -37.597 32.015 -46.336 38.819 C-50.819 42.308 -55.309 45.788 -59.812 49.25 C-60.83 50.032 -61.847 50.815 -62.895 51.621 C-65.096 53.307 -67.301 54.987 -69.512 56.66 C-70.095 57.104 -70.679 57.548 -71.28 58.005 C-72.893 59.231 -74.509 60.454 -76.125 61.676 C-82.047 66.4 -82.047 66.4 -85.812 72.812 C-86.204 73.864 -86.596 74.916 -87 76 C-88.169 72.493 -87.601 71.142 -86.047 67.883 C-82.311 61.164 -77.043 57.571 -70.6 53.624 C-66.133 50.848 -62.146 47.77 -58.188 44.312 C-45.223 33 -45.223 33 -41 33 C-41 32.34 -41 31.68 -41 31 C-37.538 28 -37.538 28 -35 28 C-34.505 26.515 -34.505 26.515 -34 25 C-32.223 23.613 -32.223 23.613 -30.062 22.312 C-29.352 21.876 -28.642 21.439 -27.91 20.988 C-26 20 -26 20 -24 20 C-24 19.34 -24 18.68 -24 18 C-23.34 18 -22.68 18 -22 18 C-22 17.34 -22 16.68 -22 16 C-17.955 11.697 -13.127 8.815 -8 6 C-7.34 5.34 -6.68 4.68 -6 4 C-5.01 4 -4.02 4 -3 4 C-3 3.34 -3 2.68 -3 2 C-2.01 1.34 -1.02 0.68 0 0 Z " fill="#71C0C1" transform="translate(339,326)"/>
<path d="M0 0 C0.33 0 0.66 0 1 0 C1 35.31 1 70.62 1 107 C-3.62 107 -8.24 107 -13 107 C-13 106.67 -13 106.34 -13 106 C-7.555 105.01 -7.555 105.01 -2 104 C-1.985 102.112 -1.985 102.112 -1.969 100.186 C-1.871 88.34 -1.768 76.495 -1.661 64.649 C-1.605 58.559 -1.552 52.469 -1.503 46.378 C-1.455 40.504 -1.403 34.629 -1.347 28.755 C-1.327 26.511 -1.308 24.266 -1.291 22.022 C-1.267 18.885 -1.237 15.749 -1.205 12.612 C-1.2 11.678 -1.194 10.745 -1.188 9.783 C-1.178 8.929 -1.168 8.075 -1.158 7.195 C-1.152 6.453 -1.145 5.711 -1.139 4.946 C-1 3 -1 3 0 0 Z " fill="#05A8EE" transform="translate(509,246)"/>
<path d="M0 0 C3.871 1.468 5.15 3.353 7 7 C7.43 9.556 7.43 9.556 7.507 12.309 C7.542 13.352 7.577 14.395 7.613 15.469 C7.635 16.596 7.657 17.722 7.68 18.883 C7.713 20.069 7.746 21.256 7.78 22.478 C8.103 35.306 8.151 48.138 8.13 60.97 C8.126 64.283 8.128 67.597 8.134 70.91 C8.138 74.125 8.135 77.34 8.133 80.555 C8.135 81.735 8.137 82.915 8.139 84.131 C8.136 85.224 8.133 86.318 8.129 87.445 C8.128 88.878 8.128 88.878 8.127 90.341 C8.001 92.988 7.59 95.42 7 98 C6.34 98 5.68 98 5 98 C4.995 96.291 4.995 96.291 4.989 94.548 C4.952 83.807 4.894 73.066 4.816 62.325 C4.777 56.803 4.744 51.281 4.729 45.759 C4.714 40.429 4.679 35.1 4.632 29.77 C4.617 27.738 4.609 25.705 4.608 23.672 C4.606 20.823 4.579 17.975 4.546 15.126 C4.551 14.288 4.556 13.449 4.561 12.585 C4.464 7.135 3.442 4.254 0 0 Z " fill="#A984AF" transform="translate(584,253)"/>
<path d="M0 0 C1.98 0 3.96 0 6 0 C6 11.55 6 23.1 6 35 C4.02 35 2.04 35 0 35 C0 23.45 0 11.9 0 0 Z " fill="#E1E1E5" transform="translate(550,590)"/>
<path d="M0 0 C4.732 1.597 6.444 5.193 8.785 9.352 C10.537 13.17 11.042 15.916 10 20 C8.116 24.775 6.078 29.703 2 33 C-0.188 32.688 -0.188 32.688 -2 32 C-0.958 28.714 0.171 25.632 1.625 22.5 C3.097 18.754 3.711 16.95 3 13 C1.522 10.575 -0.064 8.31 -1.785 6.051 C-2.186 5.374 -2.587 4.697 -3 4 C-2.67 3.01 -2.34 2.02 -2 1 C-1.34 0.67 -0.68 0.34 0 0 Z " fill="#030912" transform="translate(490,288)"/>
<path d="M0 0 C0.495 1.98 0.495 1.98 1 4 C0.212 4.727 -0.575 5.454 -1.387 6.203 C-1.906 6.683 -2.426 7.163 -2.962 7.657 C-4.127 8.733 -5.293 9.808 -6.458 10.884 C-9.443 13.638 -12.426 16.394 -15.406 19.152 C-20.181 23.57 -24.96 27.979 -29.812 32.312 C-34.998 36.955 -40.061 41.726 -45.116 46.509 C-49.002 50.173 -52.959 53.731 -56.992 57.232 C-60.395 60.228 -63.695 63.333 -67 66.438 C-67.679 67.074 -68.359 67.71 -69.059 68.365 C-70.707 69.909 -72.354 71.454 -74 73 C-74.33 72.01 -74.66 71.02 -75 70 C-69.921 64.762 -64.453 59.998 -58.812 55.375 C-56.029 53.092 -56.029 53.092 -53.75 50.75 C-51.451 48.451 -49.112 46.287 -46.688 44.125 C-41.916 39.858 -37.231 35.504 -32.562 31.125 C-31.864 30.47 -31.166 29.816 -30.446 29.141 C-26.852 25.795 -26.852 25.795 -23.41 22.296 C-22 21 -22 21 -20 21 C-20 20.34 -20 19.68 -20 19 C-18.496 17.484 -18.496 17.484 -16.438 15.75 C-15.712 15.135 -14.986 14.52 -14.238 13.887 C-13.5 13.264 -12.761 12.641 -12 12 C-11.334 11.408 -10.667 10.817 -9.98 10.207 C-9.368 9.664 -8.756 9.122 -8.125 8.562 C-7.571 8.069 -7.016 7.575 -6.445 7.066 C-5 6 -5 6 -3 6 C-3 5.34 -3 4.68 -3 4 C-2.34 4 -1.68 4 -1 4 C-0.67 2.68 -0.34 1.36 0 0 Z " fill="#41B6D1" transform="translate(252,422)"/>
<path d="M0 0 C2.126 3.473 2.243 6.204 2.227 10.237 C2.227 11.498 2.227 12.759 2.227 14.059 C2.216 15.43 2.206 16.801 2.195 18.172 C2.192 19.579 2.189 20.985 2.187 22.392 C2.179 26.088 2.159 29.783 2.137 33.479 C2.117 37.253 2.108 41.027 2.098 44.801 C2.077 52.201 2.038 59.6 2 67 C14.21 67 26.42 67 39 67 C39 67.33 39 67.66 39 68 C25.8 68 12.6 68 -1 68 C-1.021 59.88 -1.041 51.759 -1.052 43.639 C-1.057 39.857 -1.064 36.075 -1.075 32.294 C-1.086 28.65 -1.092 25.006 -1.095 21.362 C-1.097 19.973 -1.1 18.585 -1.106 17.196 C-1.113 15.248 -1.113 13.299 -1.114 11.351 C-1.116 10.243 -1.118 9.135 -1.12 7.993 C-1.009 5.213 -0.634 2.704 0 0 Z " fill="#000104" transform="translate(589,473)"/>
<path d="M0 0 C0.99 0.495 0.99 0.495 2 1 C-5.241 7.839 -12.5 14.519 -20.277 20.75 C-24.406 24.162 -28.306 27.808 -32.234 31.445 C-38.343 37.088 -44.691 42.441 -51.058 47.788 C-55.512 51.545 -59.816 55.439 -64.074 59.418 C-66 61 -66 61 -68 61 C-66.55 57.457 -64.76 55.799 -61.688 53.562 C-58.956 51.525 -56.409 49.536 -54.062 47.062 C-53.382 46.382 -52.701 45.701 -52 45 C-51.34 45 -50.68 45 -50 45 C-49.67 44.01 -49.34 43.02 -49 42 C-47.102 40.309 -47.102 40.309 -44.625 38.438 C-39.556 34.515 -34.907 30.299 -30.25 25.906 C-28 24 -28 24 -26 24 C-26 23.34 -26 22.68 -26 22 C-24.301 20.483 -22.539 19.035 -20.75 17.625 C-17.947 15.408 -15.263 13.269 -12.766 10.711 C-11 9 -11 9 -9 9 C-9 8.34 -9 7.68 -9 7 C-7.35 6.34 -5.7 5.68 -4 5 C-4 4.34 -4 3.68 -4 3 C-2 1.375 -2 1.375 0 0 Z " fill="#DC1460" transform="translate(759,580)"/>
<path d="M0 0 C3.454 1.226 5.029 2.971 7 6 C9.249 13.167 7.432 18.446 4.129 24.945 C3.756 25.623 3.384 26.301 3 27 C1.35 27 -0.3 27 -2 27 C-2.33 26.34 -2.66 25.68 -3 25 C-2.23 23.405 -1.384 21.847 -0.5 20.312 C1.319 16.8 1.997 15.167 2.062 11.125 C0.92 7.763 -0.259 6.21 -3 4 C-2.67 3.01 -2.34 2.02 -2 1 C-1.34 0.67 -0.68 0.34 0 0 Z " fill="#030810" transform="translate(478,293)"/>
<path d="M0 0 C0.901 0.009 1.802 0.018 2.73 0.027 C3.418 0.039 4.105 0.051 4.812 0.062 C4.812 0.393 4.812 0.722 4.812 1.062 C4.294 1.198 3.776 1.333 3.242 1.473 C-5.688 3.97 -14.176 7.569 -22.75 11.062 C-41.318 18.611 -41.318 18.611 -49.188 21.062 C-46.635 18.27 -44.964 17.573 -41.188 17.062 C-40.857 16.072 -40.528 15.083 -40.188 14.062 C-37.934 12.824 -35.798 11.797 -33.438 10.812 C-32.816 10.531 -32.195 10.25 -31.555 9.961 C-27.709 8.322 -25.195 7.747 -21.188 9.062 C-20.857 8.072 -20.528 7.083 -20.188 6.062 C-17.57 4.711 -17.57 4.711 -14.312 3.438 C-13.243 3.012 -12.173 2.587 -11.07 2.148 C-7.119 0.66 -4.209 -0.055 0 0 Z " fill="#C690C1" transform="translate(656.1875,213.9375)"/>
<path d="M0 0 C0.66 0.33 1.32 0.66 2 1 C-20.281 25.633 -20.281 25.633 -34 33 C-34.99 33 -35.98 33 -37 33 C-29.77 26.171 -22.524 19.495 -14.754 13.277 C-9.652 9.058 -4.838 4.517 0 0 Z M-39 34 C-38.34 34.33 -37.68 34.66 -37 35 C-38.616 37.041 -40.286 39.041 -42 41 C-42.66 41 -43.32 41 -44 41 C-42.707 38.116 -41.341 36.128 -39 34 Z " fill="#060309" transform="translate(730,607)"/>
<path d="M0 0 C0.33 0 0.66 0 1 0 C1 15.18 1 30.36 1 46 C0.01 46 -0.98 46 -2 46 C-2.05 40.574 -2.086 35.148 -2.11 29.722 C-2.12 27.878 -2.134 26.034 -2.151 24.191 C-2.175 21.532 -2.187 18.874 -2.195 16.215 C-2.206 15.398 -2.216 14.581 -2.227 13.739 C-2.228 8.773 -1.591 4.711 0 0 Z " fill="#8FB2C8" transform="translate(453,325)"/>
<path d="M0 0 C5.34 1.407 10.649 2.836 15.875 4.625 C18.903 5.661 21.839 6.458 25 7 C25.639 7.165 26.279 7.33 26.938 7.5 C28.649 7.915 30.386 8.222 32.125 8.5 C35 9 35 9 37 10 C37 10.66 37 11.32 37 12 C39.64 12.33 42.28 12.66 45 13 C45 13.66 45 14.32 45 15 C45.804 14.691 45.804 14.691 46.625 14.375 C49.833 13.869 52.013 14.846 55 16 C55 16.66 55 17.32 55 18 C46.52 17.515 38.869 14.921 30.875 12.25 C29.55 11.814 28.224 11.379 26.898 10.945 C22.928 9.642 18.964 8.322 15 7 C13.555 6.519 12.11 6.038 10.665 5.557 C7.11 4.373 3.555 3.187 0 2 C0 1.34 0 0.68 0 0 Z " fill="#B798BA" transform="translate(522,232)"/>
<path d="M0 0 C0 0.66 0 1.32 0 2 C-2.068 3.596 -4.14 5.055 -6.312 6.5 C-6.994 6.961 -7.676 7.422 -8.379 7.898 C-10.914 9.607 -13.456 11.304 -16 13 C-17.136 13.759 -18.272 14.519 -19.408 15.279 C-27.263 20.532 -35.128 25.771 -43 31 C-43 30.01 -43 29.02 -43 28 C-41.665 26.78 -41.665 26.78 -39.766 25.574 C-39.055 25.114 -38.345 24.654 -37.614 24.179 C-36.834 23.687 -36.054 23.195 -35.25 22.688 C-33.607 21.623 -31.965 20.557 -30.324 19.488 C-29.458 18.926 -28.593 18.363 -27.701 17.784 C-23.091 14.739 -18.578 11.557 -14.062 8.375 C-12.387 7.195 -10.711 6.016 -9.035 4.836 C-8.328 4.336 -7.62 3.837 -6.891 3.322 C-2.139 0 -2.139 0 0 0 Z " fill="#11090B" transform="translate(638,654)"/>
<path d="M0 0 C-0.25 1.875 -0.25 1.875 -1 4 C-2.625 5 -2.625 5 -5 6 C-9.153 8.23 -12.585 10.456 -16.193 13.513 C-19.876 16.544 -23.73 19.351 -27.562 22.188 C-28.4 22.816 -29.237 23.444 -30.1 24.092 C-30.914 24.694 -31.728 25.297 -32.566 25.918 C-33.298 26.462 -34.03 27.006 -34.783 27.567 C-37.111 29.072 -39.4 30.056 -42 31 C-37.817 26.515 -33.151 23.021 -28.188 19.438 C-26.494 18.205 -24.802 16.972 -23.109 15.738 C-22.259 15.119 -21.409 14.5 -20.533 13.862 C-18.094 12.069 -15.676 10.251 -13.266 8.418 C-12.534 7.862 -11.803 7.307 -11.05 6.735 C-9.664 5.679 -8.281 4.62 -6.901 3.556 C-2.22 0 -2.22 0 0 0 Z " fill="#DB1182" transform="translate(761,568)"/>
<path d="M0 0 C0.66 0.33 1.32 0.66 2 1 C-5.298 7.893 -12.609 14.643 -20.445 20.922 C-24.414 24.15 -28.21 27.566 -32 31 C-32.66 30.67 -33.32 30.34 -34 30 C-33.048 28.994 -32.088 27.995 -31.125 27 C-30.591 26.443 -30.058 25.886 -29.508 25.312 C-28 24 -28 24 -26 24 C-26 23.34 -26 22.68 -26 22 C-24.301 20.483 -22.539 19.035 -20.75 17.625 C-17.947 15.408 -15.263 13.269 -12.766 10.711 C-11 9 -11 9 -9 9 C-9 8.34 -9 7.68 -9 7 C-7.35 6.34 -5.7 5.68 -4 5 C-4 4.34 -4 3.68 -4 3 C-2 1.375 -2 1.375 0 0 Z " fill="#D80C77" transform="translate(759,580)"/>
<path d="M0 0 C0.66 0.33 1.32 0.66 2 1 C-4.228 6.274 -10.504 11.478 -16.938 16.5 C-17.468 16.921 -17.999 17.341 -18.546 17.775 C-21.563 20.108 -24.384 21.775 -28 23 C-27.67 22.34 -27.34 21.68 -27 21 C-26.34 21 -25.68 21 -25 21 C-24.771 20.426 -24.541 19.853 -24.305 19.262 C-22.66 16.41 -20.703 14.851 -18.125 12.812 C-16.829 11.77 -16.829 11.77 -15.508 10.707 C-13 9 -13 9 -10.742 8.449 C-10.167 8.301 -9.592 8.153 -9 8 C-8.67 7.01 -8.34 6.02 -8 5 C-4.938 3.812 -4.938 3.812 -2 3 C-2 2.34 -2 1.68 -2 1 C-1.34 0.67 -0.68 0.34 0 0 Z " fill="#78BBBC" transform="translate(374,299)"/>
<path d="M0 0 C0.66 0 1.32 0 2 0 C2 0.66 2 1.32 2 2 C0.519 3.341 0.519 3.341 -1.543 4.863 C-2.287 5.421 -3.032 5.978 -3.799 6.553 C-4.981 7.424 -4.981 7.424 -6.188 8.312 C-15.589 14.687 -15.589 14.687 -21.812 23.812 C-22.204 24.864 -22.596 25.916 -23 27 C-24.169 23.493 -23.601 22.142 -22.047 18.883 C-17.788 11.223 -11.237 7.289 -3.949 2.82 C-1.208 1.285 -1.208 1.285 0 0 Z " fill="#5CC6D0" transform="translate(275,375)"/>
<path d="M0 0 C0.66 0.33 1.32 0.66 2 1 C-2.021 5.795 -5.966 10.254 -11 14 C-11.66 14 -12.32 14 -13 14 C-13.389 14.876 -13.389 14.876 -13.785 15.77 C-15.087 18.16 -16.508 19.775 -18.438 21.688 C-19.034 22.289 -19.631 22.891 -20.246 23.512 C-22 25 -22 25 -25 26 C-23.406 22.088 -20.861 19.628 -17.875 16.688 C-17.385 16.204 -16.895 15.721 -16.39 15.222 C-12.923 11.828 -9.349 8.588 -5.66 5.438 C-3.675 3.718 -1.819 1.894 0 0 Z " fill="#060918" transform="translate(199,474)"/>
<path d="M0 0 C0.33 1.32 0.66 2.64 1 4 C-0.181 5.091 -0.181 5.091 -1.387 6.203 C-1.907 6.684 -2.427 7.164 -2.964 7.659 C-4.122 8.728 -5.281 9.798 -6.441 10.866 C-9.529 13.715 -12.613 16.569 -15.688 19.434 C-16.274 19.979 -16.861 20.525 -17.466 21.087 C-18.599 22.14 -19.731 23.196 -20.86 24.253 C-24.775 27.888 -24.775 27.888 -27 29 C-26.459 25.214 -24.883 23.446 -22 21 C-21.34 21 -20.68 21 -20 21 C-20 20.34 -20 19.68 -20 19 C-18.496 17.484 -18.496 17.484 -16.438 15.75 C-15.712 15.135 -14.986 14.52 -14.238 13.887 C-13.5 13.264 -12.761 12.641 -12 12 C-11.334 11.408 -10.667 10.817 -9.98 10.207 C-9.368 9.664 -8.756 9.122 -8.125 8.562 C-7.571 8.069 -7.016 7.575 -6.445 7.066 C-5 6 -5 6 -3 6 C-3 5.34 -3 4.68 -3 4 C-2.34 4 -1.68 4 -1 4 C-0.67 2.68 -0.34 1.36 0 0 Z " fill="#4DB8CC" transform="translate(252,422)"/>
<path d="M0 0 C0.66 0.33 1.32 0.66 2 1 C-3.57 7.447 -9.056 13.18 -15.871 18.344 C-17.737 19.796 -19.376 21.287 -21 23 C-21.66 22.67 -22.32 22.34 -23 22 C-17.597 15.61 -11.969 10.08 -5.383 4.91 C-3.446 3.358 -1.703 1.799 0 0 Z " fill="#0B0606" transform="translate(675,655)"/>
<path d="M0 0 C0.66 0.33 1.32 0.66 2 1 C-3.995 6.497 -10.331 11.35 -17 16 C-17.772 16.545 -18.544 17.091 -19.34 17.652 C-20.032 18.118 -20.724 18.583 -21.438 19.062 C-22.333 19.668 -22.333 19.668 -23.246 20.285 C-25.517 21.211 -26.694 20.664 -29 20 C-28.512 19.678 -28.025 19.357 -27.522 19.025 C-18.204 12.871 -8.941 6.696 0 0 Z " fill="#E3332F" transform="translate(659,640)"/>
<path d="M0 0 C0.66 0 1.32 0 2 0 C2.671 1.623 3.337 3.249 4 4.875 C4.557 6.232 4.557 6.232 5.125 7.617 C6 10 6 10 6 12 C2.7 12 -0.6 12 -4 12 C-2.667 8 -1.333 4 0 0 Z " fill="#28292D" transform="translate(581,599)"/>
<path d="M0 0 C-1.091 3.272 -1.613 3.729 -4.281 5.672 C-4.955 6.168 -5.628 6.665 -6.322 7.177 C-7.041 7.696 -7.76 8.215 -8.5 8.75 C-9.959 9.822 -11.417 10.895 -12.875 11.969 C-13.583 12.487 -14.29 13.005 -15.02 13.539 C-18.739 16.283 -22.372 19.138 -26 22 C-26 19 -26 19 -24.348 17.168 C-10.308 5 -10.308 5 -6 5 C-6 4.34 -6 3.68 -6 3 C-2.538 0 -2.538 0 0 0 Z " fill="#65C4C5" transform="translate(304,354)"/>
<path d="M0 0 C0.848 0.335 0.848 0.335 1.713 0.677 C0.115 1.852 -1.49 3.016 -3.099 4.177 C-3.993 4.826 -4.886 5.476 -5.806 6.145 C-8.287 7.677 -8.287 7.677 -11.287 7.677 C-11.287 8.337 -11.287 8.997 -11.287 9.677 C-12.834 10.512 -12.834 10.512 -14.412 11.364 C-17.061 12.855 -19.279 14.458 -21.537 16.489 C-22.444 17.211 -23.352 17.933 -24.287 18.677 C-25.277 18.347 -26.267 18.017 -27.287 17.677 C-22.434 13.674 -17.34 10.019 -12.224 6.364 C-11.327 5.706 -10.429 5.048 -9.504 4.37 C-8.637 3.753 -7.77 3.136 -6.877 2.501 C-6.092 1.934 -5.306 1.368 -4.498 0.785 C-2.287 -0.323 -2.287 -0.323 0 0 Z " fill="#EE522C" transform="translate(631.286865234375,661.323486328125)"/>
<path d="M0 0 C2.5 1.375 2.5 1.375 5 3 C5 3.66 5 4.32 5 5 C5.99 5.33 6.98 5.66 8 6 C8 6.66 8 7.32 8 8 C8.557 8.206 9.114 8.413 9.688 8.625 C13.59 10.946 16.047 14.366 18.312 18.25 C19.369 22.477 19.151 26.667 19 31 C18.34 31.33 17.68 31.66 17 32 C16.996 30.732 16.996 30.732 16.992 29.438 C16.719 21.424 15.783 16.634 10 11 C7.366 8.574 4.71 6.197 1.977 3.883 C1.324 3.261 0.672 2.64 0 2 C0 1.34 0 0.68 0 0 Z " fill="#A45CC2" transform="translate(835,481)"/>
<path d="M0 0 C0.33 0 0.66 0 1 0 C1.052 0.641 1.103 1.281 1.156 1.941 C2.012 8.466 3.718 11.467 8.906 15.48 C9.597 15.982 10.288 16.483 11 17 C14.814 20.025 18.08 23.07 21 27 C18 27 18 27 16.238 25.496 C15.603 24.817 14.967 24.137 14.312 23.438 C10.913 19.9 7.388 16.636 3.664 13.445 C0.023 10.283 0.023 10.283 -0.195 7.617 C-0.172 6.712 -0.149 5.807 -0.125 4.875 C-0.107 3.965 -0.089 3.055 -0.07 2.117 C-0.047 1.419 -0.024 0.72 0 0 Z " fill="#B066C3" transform="translate(773,416)"/>
<path d="M0 0 C0.66 0.33 1.32 0.66 2 1 C-1.68 5.465 -4.854 9.206 -10 12 C-10.99 13.485 -10.99 13.485 -12 15 C-12.99 14.67 -13.98 14.34 -15 14 C-10.209 9.074 -5.223 4.464 0 0 Z M-17 15 C-16.34 15.33 -15.68 15.66 -15 16 C-18.644 20.994 -22.52 23.361 -28 26 C-24.638 21.748 -21.252 18.362 -17 15 Z " fill="#11060C" transform="translate(730,607)"/>
<path d="M0 0 C6.1 1.608 12.112 3.331 18.078 5.383 C20.094 6.073 20.094 6.073 22.625 6.5 C25.982 7.207 28.874 8.59 32 10 C32 10.66 32 11.32 32 12 C25.43 10.322 19.076 8.363 12.727 5.984 C8.539 4.472 4.279 3.225 0 2 C0 1.34 0 0.68 0 0 Z " fill="#AD9AB7" transform="translate(522,232)"/>
<path d="M0 0 C-1.107 3.32 -1.745 3.837 -4.457 5.848 C-5.158 6.37 -5.858 6.893 -6.58 7.432 C-7.317 7.97 -8.053 8.508 -8.812 9.062 C-9.538 9.605 -10.263 10.147 -11.01 10.705 C-14.254 13.106 -17.34 15.273 -21 17 C-20.505 15.515 -20.505 15.515 -20 14 C-19.34 14 -18.68 14 -18 14 C-17.794 13.423 -17.587 12.845 -17.375 12.25 C-15.474 9.14 -13.082 7.94 -10 6 C-7.895 4.411 -5.811 2.798 -3.734 1.172 C-2 0 -2 0 0 0 Z " fill="#050D1A" transform="translate(293,378)"/>
<path d="M0 0 C0.33 0 0.66 0 1 0 C1 7.59 1 15.18 1 23 C0.67 23 0.34 23 0 23 C-0.33 17.06 -0.66 11.12 -1 5 C-2.423 7.166 -2.423 7.166 -3.875 9.375 C-5.485 11.825 -6.924 13.924 -9 16 C-9.99 15.67 -10.98 15.34 -12 15 C-11.34 15 -10.68 15 -10 15 C-9.754 14.459 -9.508 13.917 -9.254 13.359 C-7.713 10.461 -5.871 7.902 -3.938 5.25 C-3.225 4.265 -2.512 3.28 -1.777 2.266 C-1.191 1.518 -0.604 0.77 0 0 Z " fill="#393A3F" transform="translate(461,601)"/>
<path d="M0 0 C12.67 -0.554 12.67 -0.554 18 3 C18 3.66 18 4.32 18 5 C19.65 5.66 21.3 6.32 23 7 C22.67 7.66 22.34 8.32 22 9 C21.501 8.758 21.002 8.515 20.488 8.266 C13.851 5.167 7.026 3.041 0 1 C0 0.67 0 0.34 0 0 Z " fill="#A761B8" transform="translate(749,404)"/>
<path d="M0 0 C0.66 0.33 1.32 0.66 2 1 C-3.28 5.95 -8.56 10.9 -14 16 C-14.33 15.01 -14.66 14.02 -15 13 C-4.647 2.324 -4.647 2.324 0 0 Z " fill="#37A6C6" transform="translate(192,479)"/>
<path d="M0 0 C1.532 0.252 3.053 0.576 4.562 0.938 C5.389 1.132 6.215 1.327 7.066 1.527 C7.704 1.683 8.343 1.839 9 2 C9 2.99 9 3.98 9 5 C7 6 7 6 5.117 5.477 C4.377 5.196 3.637 4.915 2.875 4.625 C-1.457 3.087 -5.429 2.416 -10 2 C-10 1.67 -10 1.34 -10 1 C-9.362 1.012 -8.724 1.023 -8.066 1.035 C-7.24 1.044 -6.414 1.053 -5.562 1.062 C-4.327 1.08 -4.327 1.08 -3.066 1.098 C-1.008 1.233 -1.008 1.233 0 0 Z " fill="#BC7BB5" transform="translate(666,214)"/>
<path d="M0 0 C7.63 -0.349 13.924 -0.002 21 3 C20.34 3.66 19.68 4.32 19 5 C16.934 4.828 16.934 4.828 14.438 4.25 C13.552 4.051 12.666 3.853 11.754 3.648 C10.845 3.434 9.936 3.22 9 3 C7.292 2.624 5.584 2.249 3.875 1.875 C2.596 1.586 1.317 1.298 0 1 C0 0.67 0 0.34 0 0 Z " fill="#8AACBA" transform="translate(426,322)"/>
<path d="M0 0 C3.955 2.161 6.863 4.65 10 7.875 C10.825 8.718 11.65 9.561 12.5 10.43 C13.738 11.702 13.738 11.702 15 13 C16.664 14.669 18.33 16.336 20 18 C12.998 16.812 8.143 10.327 4 5 C3.257 4.443 2.515 3.886 1.75 3.312 C1.173 2.879 0.595 2.446 0 2 C0 1.34 0 0.68 0 0 Z " fill="#35A2C4" transform="translate(196,536)"/>
<path d="M0 0 C1.32 0.33 2.64 0.66 4 1 C4 1.66 4 2.32 4 3 C4.99 3.33 5.98 3.66 7 4 C7 4.66 7 5.32 7 6 C7.572 6.255 8.145 6.51 8.734 6.773 C11.242 8.131 13.133 9.72 15.25 11.625 C15.956 12.257 16.663 12.888 17.391 13.539 C17.922 14.021 18.453 14.503 19 15 C18.67 15.66 18.34 16.32 18 17 C15.557 14.923 13.121 12.838 10.688 10.75 C9.997 10.163 9.307 9.577 8.596 8.973 C7.929 8.399 7.262 7.825 6.574 7.234 C5.962 6.711 5.349 6.187 4.718 5.647 C2.898 3.902 1.458 2.053 0 0 Z " fill="#EB9209" transform="translate(403,699)"/>
<path d="M0 0 C-2.73 2.73 -5.973 3.787 -9.5 5.188 C-10.19 5.473 -10.879 5.759 -11.59 6.053 C-13.369 6.765 -15.183 7.39 -17 8 C-17.66 7.67 -18.32 7.34 -19 7 C-14.375 4 -14.375 4 -11 4 C-10.67 3.01 -10.34 2.02 -10 1 C-6.585 -1.53 -3.994 -0.908 0 0 Z " fill="#BB92BC" transform="translate(626,227)"/>
<path d="M0 0 C-0.33 0.99 -0.66 1.98 -1 3 C-6.963 4.001 -11.287 4.066 -17 2 C-17 1.67 -17 1.34 -17 1 C-11.28 0.168 -5.778 -0.12 0 0 Z " fill="#041524" transform="translate(508,353)"/>
<path d="M0 0 C0.99 0.33 1.98 0.66 3 1 C0.566 2.817 -1.872 4.629 -4.312 6.438 C-5.348 7.212 -5.348 7.212 -6.404 8.002 C-7.071 8.495 -7.738 8.988 -8.426 9.496 C-9.038 9.952 -9.651 10.407 -10.282 10.877 C-12 12 -12 12 -15 13 C-13.477 8.737 -10.665 7.181 -6.938 4.812 C-3.287 2.644 -3.287 2.644 0 0 Z " fill="#11070F" transform="translate(666,633)"/>
<path d="M0 0 C-1.123 3.37 -2.179 4.329 -4.812 6.625 C-5.5 7.236 -6.187 7.847 -6.895 8.477 C-8.995 9.997 -10.468 10.579 -13 11 C-5.397 0 -5.397 0 0 0 Z " fill="#0B0915" transform="translate(767,591)"/>
<path d="M0 0 C1.32 0.33 2.64 0.66 4 1 C4 1.66 4 2.32 4 3 C4.562 3.235 5.124 3.469 5.703 3.711 C8.546 5.307 10.481 7.289 12.75 9.625 C13.549 10.442 14.348 11.26 15.172 12.102 C16.077 13.041 16.077 13.041 17 14 C16.67 14.66 16.34 15.32 16 16 C15.587 15.576 15.175 15.152 14.75 14.715 C10.858 10.762 6.842 7.057 2.602 3.48 C1 2 1 2 0 0 Z " fill="#AD61C0" transform="translate(811,460)"/>
<path d="M0 0 C2.038 1.274 4.039 2.611 6 4 C6 4.66 6 5.32 6 6 C6.557 6.227 7.114 6.454 7.688 6.688 C10.632 8.359 12.682 10.553 15 13 C14.67 13.66 14.34 14.32 14 15 C12.415 13.585 10.832 12.168 9.25 10.75 C8.368 9.961 7.487 9.172 6.578 8.359 C1.903 4.081 1.903 4.081 0 2 C0 1.34 0 0.68 0 0 Z " fill="#B566C6" transform="translate(795,444)"/>
<path d="M0 0 C0.66 0.33 1.32 0.66 2 1 C0.09 2.655 -1.827 4.299 -3.75 5.938 C-4.289 6.406 -4.828 6.875 -5.383 7.357 C-10.372 11.586 -10.372 11.586 -14 12 C-13.67 11.01 -13.34 10.02 -13 9 C-11.667 8.667 -10.333 8.333 -9 8 C-8.67 7.01 -8.34 6.02 -8 5 C-4.938 3.812 -4.938 3.812 -2 3 C-2 2.34 -2 1.68 -2 1 C-1.34 0.67 -0.68 0.34 0 0 Z " fill="#85C6C5" transform="translate(374,299)"/>
<path d="M0 0 C5.111 3.658 9.663 7.446 14 12 C13.67 12.66 13.34 13.32 13 14 C11.228 12.397 9.458 10.792 7.688 9.188 C7.188 8.736 6.688 8.284 6.174 7.818 C3.726 5.598 1.305 3.368 -1 1 C-0.67 0.67 -0.34 0.34 0 0 Z " fill="#3A9EC7" transform="translate(225,562)"/>
<path d="M0 0 C-0.688 1.875 -0.688 1.875 -2 4 C-3.654 4.697 -5.323 5.361 -7 6 C-9.272 8.02 -9.272 8.02 -11 10 C-11.99 9.67 -12.98 9.34 -14 9 C-11.158 6.675 -8.272 4.423 -5.312 2.25 C-4.731 1.822 -4.15 1.394 -3.551 0.953 C-2 0 -2 0 0 0 Z " fill="#EB6426" transform="translate(618,670)"/>
<path d="M0 0 C0.66 0.33 1.32 0.66 2 1 C0.786 2.491 -0.447 3.968 -1.688 5.438 C-2.372 6.261 -3.056 7.085 -3.762 7.934 C-6.24 10.222 -7.691 10.681 -11 11 C-7.333 7.333 -3.667 3.667 0 0 Z " fill="#8D57BC" transform="translate(755,602)"/>
<path d="M0 0 C2.5 1.375 2.5 1.375 5 3 C5 3.66 5 4.32 5 5 C5.99 5.33 6.98 5.66 8 6 C8 6.66 8 7.32 8 8 C8.619 8.248 9.237 8.495 9.875 8.75 C12.375 10.22 12.833 11.414 14 14 C8.901 10.351 4.226 6.649 0 2 C0 1.34 0 0.68 0 0 Z " fill="#AF61CA" transform="translate(835,481)"/>
<path d="M0 0 C0.66 0.33 1.32 0.66 2 1 C-1.826 4.925 -5.62 8.682 -10 12 C-10.66 11.67 -11.32 11.34 -12 11 C-11.048 9.994 -10.088 8.995 -9.125 8 C-8.324 7.165 -8.324 7.165 -7.508 6.312 C-6 5 -6 5 -4 5 C-4 4.34 -4 3.68 -4 3 C-2 1.375 -2 1.375 0 0 Z " fill="#E60E75" transform="translate(737,599)"/>
<path d="M0 0 C0.66 0.33 1.32 0.66 2 1 C0.582 5.472 -1.113 9.711 -3 14 C-3.66 14 -4.32 14 -5 14 C-3.457 9.279 -1.922 4.583 0 0 Z " fill="#0D0E12" transform="translate(465,528)"/>
<path d="M0 0 C0.66 0.33 1.32 0.66 2 1 C0.381 2.506 -1.246 4.005 -2.875 5.5 C-4.232 6.753 -4.232 6.753 -5.617 8.031 C-8 10 -8 10 -10 10 C-8.574 6.548 -6.903 4.899 -3.875 2.75 C-3.151 2.229 -2.426 1.708 -1.68 1.172 C-1.125 0.785 -0.571 0.398 0 0 Z " fill="#D6203B" transform="translate(701,631)"/>
<path d="M0 0 C8.446 6.15 8.446 6.15 12 10 C11.67 10.66 11.34 11.32 11 12 C9.158 10.574 7.327 9.134 5.5 7.688 C4.479 6.887 3.458 6.086 2.406 5.262 C1.612 4.515 0.818 3.769 0 3 C0 2.01 0 1.02 0 0 Z " fill="#3996BF" transform="translate(279,610)"/>
<path d="M0 0 C5.992 1.883 9.466 5.978 13 11 C9.547 9.487 7.044 7.453 4.25 4.938 C3.451 4.225 2.652 3.512 1.828 2.777 C1.225 2.191 0.622 1.604 0 1 C0 0.67 0 0.34 0 0 Z " fill="#D8127B" transform="translate(278,592)"/>
<path d="M0 0 C0.99 0.33 1.98 0.66 3 1 C1.38 2.339 -0.246 3.671 -1.875 5 C-3.232 6.114 -3.232 6.114 -4.617 7.25 C-7 9 -7 9 -9 9 C-9 8.34 -9 7.68 -9 7 C-7.137 5.238 -7.137 5.238 -4.688 3.312 C-3.487 2.348 -3.487 2.348 -2.262 1.363 C-1.515 0.913 -0.769 0.464 0 0 Z " fill="#8CC0BF" transform="translate(390,286)"/>
<path d="M0 0 C0.66 0.33 1.32 0.66 2 1 C-0.31 3.64 -2.62 6.28 -5 9 C-5.99 8.67 -6.98 8.34 -8 8 C-5.36 5.36 -2.72 2.72 0 0 Z " fill="#0A101E" transform="translate(199,474)"/>
<path d="M0 0 C0.66 0.33 1.32 0.66 2 1 C0.591 2.321 -0.827 3.632 -2.25 4.938 C-3.039 5.668 -3.828 6.399 -4.641 7.152 C-6.89 8.914 -8.216 9.598 -11 10 C-7.506 6.404 -3.889 3.165 0 0 Z " fill="#B0B0BB" transform="translate(495,222)"/>
<path d="M0 0 C2.188 0.312 2.188 0.312 4 1 C3.67 1.66 3.34 2.32 3 3 C4.98 3 6.96 3 9 3 C8.34 3.66 7.68 4.32 7 5 C4.617 4.758 4.617 4.758 1.875 4.125 C0.965 3.921 0.055 3.718 -0.883 3.508 C-1.581 3.34 -2.28 3.173 -3 3 C-1.637 1.48 -1.637 1.48 0 0 Z " fill="#B673B3" transform="translate(699,223)"/>
<path d="M0 0 C0.33 0.99 0.66 1.98 1 3 C-0.48 2.886 -1.959 2.759 -3.438 2.625 C-4.261 2.555 -5.085 2.486 -5.934 2.414 C-6.616 2.277 -7.297 2.141 -8 2 C-8.33 1.34 -8.66 0.68 -9 0 C-5.931 -1.534 -3.299 -0.55 0 0 Z " fill="#D685C7" transform="translate(683,218)"/>
<path d="M0 0 C1.454 0.031 1.454 0.031 2.938 0.062 C-0.674 2.808 -4.366 5.433 -8.062 8.062 C-8.723 7.732 -9.382 7.403 -10.062 7.062 C-9.733 6.403 -9.402 5.743 -9.062 5.062 C-8.072 5.062 -7.082 5.062 -6.062 5.062 C-5.753 4.423 -5.444 3.784 -5.125 3.125 C-3.553 0.072 -3.553 0.072 0 0 Z " fill="#B4ACBF" transform="translate(514.0625,189.9375)"/>
<path d="M0 0 C3 3.75 3 3.75 3 6 C1.02 6.66 -0.96 7.32 -3 8 C-1.125 1.125 -1.125 1.125 0 0 Z " fill="#222125" transform="translate(504,501)"/>
<path d="M0 0 C0.99 0 1.98 0 3 0 C3 0.66 3 1.32 3 2 C1.355 3.543 1.355 3.543 -0.812 5.188 C-1.52 5.738 -2.228 6.288 -2.957 6.855 C-3.631 7.233 -4.305 7.611 -5 8 C-5.99 7.67 -6.98 7.34 -8 7 C-7.01 6.67 -6.02 6.34 -5 6 C-4.67 5.01 -4.34 4.02 -4 3 C-3.01 3 -2.02 3 -1 3 C-0.67 2.01 -0.34 1.02 0 0 Z " fill="#050D1A" transform="translate(307,365)"/>
<path d="M0 0 C0 3 0 3 -1.75 5.043 C-2.493 5.751 -3.235 6.458 -4 7.188 C-4.743 7.903 -5.485 8.618 -6.25 9.355 C-7.116 10.17 -7.116 10.17 -8 11 C-8.66 10.34 -9.32 9.68 -10 9 C-6.7 6.03 -3.4 3.06 0 0 Z " fill="#48C2DB" transform="translate(224,449)"/>
<path d="M0 0 C0.66 0.33 1.32 0.66 2 1 C-1.3 3.64 -4.6 6.28 -8 9 C-8.33 8.01 -8.66 7.02 -9 6 C-6.03 4.02 -3.06 2.04 0 0 Z " fill="#6FCAC9" transform="translate(313,346)"/>
<path d="M0 0 C0.572 0.215 1.145 0.431 1.734 0.652 C0.495 1.522 -0.758 2.372 -2.016 3.215 C-2.712 3.691 -3.408 4.166 -4.125 4.656 C-6.266 5.652 -6.266 5.652 -8.531 5.305 C-9.104 5.089 -9.676 4.874 -10.266 4.652 C-9.026 3.783 -7.774 2.932 -6.516 2.09 C-5.82 1.614 -5.123 1.139 -4.406 0.648 C-2.266 -0.348 -2.266 -0.348 0 0 Z " fill="#E6402A" transform="translate(640.265625,655.34765625)"/>
<path d="M0 0 C0.66 0.33 1.32 0.66 2 1 C1.01 1 0.02 1 -1 1 C-0.67 0.67 -0.34 0.34 0 0 Z M-3 2 C-2.34 2.33 -1.68 2.66 -1 3 C-2.65 4.98 -4.3 6.96 -6 9 C-6.99 8.67 -7.98 8.34 -9 8 C-7.02 6.02 -5.04 4.04 -3 2 Z " fill="#0A0F1B" transform="translate(213,462)"/>
<path d="M0 0 C0.99 0.33 1.98 0.66 3 1 C0.192 3.964 -2.183 6.445 -6 8 C-4.557 4.634 -2.667 2.49 0 0 Z " fill="#60B9C1" transform="translate(283,368)"/>
<path d="M0 0 C-1.491 3.795 -3.757 5.61 -7 8 C-7 5 -7 5 -4.625 2.312 C-2 0 -2 0 0 0 Z " fill="#080D1F" transform="translate(570,763)"/>
<path d="M0 0 C0.33 0.99 0.66 1.98 1 3 C-1.97 5.475 -1.97 5.475 -5 8 C-5.33 7.34 -5.66 6.68 -6 6 C-4 4 -2 2 0 0 Z " fill="#090F1A" transform="translate(261,388)"/>
<path d="M0 0 C0.99 0.33 1.98 0.66 3 1 C-1.75 5.875 -1.75 5.875 -4 7 C-3.688 4.625 -3.688 4.625 -3 2 C-2.01 1.34 -1.02 0.68 0 0 Z " fill="#50B6C0" transform="translate(262,384)"/>
<path d="M0 0 C0.99 0.33 1.98 0.66 3 1 C1.88 2.006 0.754 3.005 -0.375 4 C-1.001 4.557 -1.628 5.114 -2.273 5.688 C-4 7 -4 7 -6 7 C-4.62 3.665 -3.15 1.814 0 0 Z " fill="#8EB9B9" transform="translate(409,271)"/>
<path d="M0 0 C2 0 2 0 4.188 1.75 C5.085 2.864 5.085 2.864 6 4 C5.75 6.25 5.75 6.25 5 8 C2.5 5.688 2.5 5.688 0 3 C0 2.01 0 1.02 0 0 Z " fill="#EF078E" transform="translate(264,577)"/>
<path d="M0 0 C0.66 0.33 1.32 0.66 2 1 C1.049 2.173 0.089 3.338 -0.875 4.5 C-1.409 5.15 -1.942 5.799 -2.492 6.469 C-2.99 6.974 -3.487 7.479 -4 8 C-4.66 8 -5.32 8 -6 8 C-4.557 4.634 -2.667 2.49 0 0 Z " fill="#100E1E" transform="translate(846,517)"/>
<path d="M0 0 C0.99 0.33 1.98 0.66 3 1 C1.35 2.32 -0.3 3.64 -2 5 C-1.67 5.66 -1.34 6.32 -1 7 C-2.65 7 -4.3 7 -6 7 C-4.02 4.69 -2.04 2.38 0 0 Z " fill="#15AFEF" transform="translate(272,395)"/>
<path d="M0 0 C0.99 0.33 1.98 0.66 3 1 C2.34 1.66 1.68 2.32 1 3 C1.33 3.66 1.66 4.32 2 5 C0.02 5 -1.96 5 -4 5 C-3 2 -3 2 0 0 Z " fill="#94C9D0" transform="translate(387,307)"/>
<path d="M0 0 C0.33 1.32 0.66 2.64 1 4 C-2.3 3.34 -5.6 2.68 -9 2 C-9 1.67 -9 1.34 -9 1 C-5.942 0.456 -3.112 0 0 0 Z " fill="#B674B5" transform="translate(716,227)"/>
<path d="M0 0 C0.99 0 1.98 0 3 0 C1.902 2.993 1.323 3.846 -1.625 5.25 C-2.409 5.497 -3.192 5.745 -4 6 C-2.188 3 -2.188 3 0 0 Z " fill="#0C0A16" transform="translate(784,573)"/>
<path d="M0 0 C3.255 0.349 4.019 1.021 6.25 3.562 C6.827 4.367 7.405 5.171 8 6 C4.658 5.403 2.536 4.264 0 2 C0 1.34 0 0.68 0 0 Z " fill="#130E1C" transform="translate(817,468)"/>
<path d="M0 0 C4.419 1.35 6.343 3.261 9 7 C6.621 6.824 5.298 6.303 3.621 4.598 C2.379 3.094 1.186 1.549 0 0 Z " fill="#0D0A14" transform="translate(791,444)"/>
<path d="M0 0 C5.75 0.875 5.75 0.875 8 2 C8 2.66 8 3.32 8 4 C6.35 4 4.7 4 3 4 C3 3.34 3 2.68 3 2 C2.01 2 1.02 2 0 2 C0 1.34 0 0.68 0 0 Z " fill="#CAA1C3" transform="translate(551,240)"/>
<path d="M0 0 C0.33 0 0.66 0 1 0 C0.389 6.476 0.389 6.476 -1.438 8.938 C-3 10 -3 10 -5 10 C-3.848 7.532 -2.952 5.952 -1 4 C-0.357 1.931 -0.357 1.931 0 0 Z " fill="#18181C" transform="translate(521,196)"/>
<path d="M0 0 C-1.393 3.367 -2.979 4.986 -6 7 C-6 4 -6 4 -4.125 1.812 C-2 0 -2 0 0 0 Z " fill="#060B1B" transform="translate(534,795)"/>
<path d="M0 0 C-1.393 3.367 -2.979 4.986 -6 7 C-6 4 -6 4 -4.125 1.812 C-2 0 -2 0 0 0 Z " fill="#060C1F" transform="translate(543,787)"/>
<path d="M0 0 C-1.502 4.206 -4.286 5.739 -8 8 C-6.483 4.46 -4.247 0 0 0 Z " fill="#E19804" transform="translate(576,741)"/>
<path d="M0 0 C0.33 0.66 0.66 1.32 1 2 C-0.145 2.65 -0.145 2.65 -1.312 3.312 C-3.581 4.737 -5.22 6.033 -7 8 C-7.33 7.01 -7.66 6.02 -8 5 C-4.04 2.525 -4.04 2.525 0 0 Z " fill="#D96E15" transform="translate(603,679)"/>
<path d="M0 0 C0.99 0 1.98 0 3 0 C2.25 1.938 2.25 1.938 1 4 C-1.125 4.75 -1.125 4.75 -3 5 C-1.125 1.125 -1.125 1.125 0 0 Z " fill="#0C0916" transform="translate(775,581)"/>
<path d="M0 0 C-0.125 1.875 -0.125 1.875 -1 4 C-4.062 5.25 -4.062 5.25 -7 6 C-5.816 2.449 -3.994 0 0 0 Z " fill="#E6088D" transform="translate(761,568)"/>
<path d="M0 0 C3.829 1.453 5.121 3.429 7 7 C4.133 5.715 2.024 4.429 0 2 C0 1.34 0 0.68 0 0 Z " fill="#191123" transform="translate(843,491)"/>
<path d="M0 0 C0.99 0.33 1.98 0.66 3 1 C3 1.66 3 2.32 3 3 C5.475 3.99 5.475 3.99 8 5 C7.67 5.66 7.34 6.32 7 7 C3.535 5.02 3.535 5.02 0 3 C0 2.01 0 1.02 0 0 Z " fill="#B467C7" transform="translate(764,406)"/>
<path d="M0 0 C0 0.33 0 0.66 0 1 C-3.63 1.33 -7.26 1.66 -11 2 C-11 1.34 -11 0.68 -11 0 C-6.95 -1.35 -4.208 -0.621 0 0 Z " fill="#078DCB" transform="translate(486,355)"/>
<path d="M0 0 C0.99 0.33 1.98 0.66 3 1 C2.361 1.454 1.721 1.907 1.062 2.375 C-1.097 3.839 -1.097 3.839 -2 6 C-2.99 6 -3.98 6 -5 6 C-3.63 2.839 -3.011 2.007 0 0 Z " fill="#0F0F13" transform="translate(609,234)"/>
<path d="M0 0 C0.99 0.33 1.98 0.66 3 1 C0.36 2.98 -2.28 4.96 -5 7 C-4 3 -4 3 -2.125 1.188 C-1.424 0.796 -0.722 0.404 0 0 Z " fill="#D2342C" transform="translate(675,653)"/>
<path d="M0 0 C0.66 0.33 1.32 0.66 2 1 C0.25 6.75 0.25 6.75 -2 9 C-1.125 2.25 -1.125 2.25 0 0 Z " fill="#131519" transform="translate(457,546)"/>
<path d="M0 0 C2.884 1.293 4.872 2.659 7 5 C6.67 5.66 6.34 6.32 6 7 C3.959 5.384 1.959 3.714 0 2 C0 1.34 0 0.68 0 0 Z " fill="#A760B9" transform="translate(803,452)"/>
<path d="M0 0 C0.66 0.66 1.32 1.32 2 2 C-0.97 4.475 -0.97 4.475 -4 7 C-4.66 6.67 -5.32 6.34 -6 6 C-5.01 5.67 -4.02 5.34 -3 5 C-1.85 3.033 -1.85 3.033 -1 1 C-0.67 0.67 -0.34 0.34 0 0 Z " fill="#7DC3C5" transform="translate(352,315)"/>
<path d="M0 0 C1.32 0.33 2.64 0.66 4 1 C4 1.99 4 2.98 4 4 C1.69 3.67 -0.62 3.34 -3 3 C-2.01 2.67 -1.02 2.34 0 2 C0 1.34 0 0.68 0 0 Z " fill="#BE77B4" transform="translate(684,219)"/>
</svg>