<svg version="1.1" xmlns="http://www.w3.org/2000/svg" width="1024" height="1024">
<path d="M0 0 C337.92 0 675.84 0 1024 0 C1024 337.92 1024 675.84 1024 1024 C686.08 1024 348.16 1024 0 1024 C0 686.08 0 348.16 0 0 Z " fill="#FEFEFE" transform="translate(0,0)"/>
<path d="M0 0 C1.237 0.365 1.237 0.365 2.5 0.738 C17.796 5.91 28.331 18.157 35.337 32.102 C41.527 44.921 42.453 60.45 38.206 74.105 C33.197 88.079 23.929 99.229 12 108 C12.356 108.451 12.712 108.902 13.079 109.367 C32.588 134.133 49.817 159.953 66 187 C66.014 185.488 66.014 185.488 66.028 183.946 C66.069 180.162 66.134 176.379 66.208 172.596 C66.236 170.967 66.257 169.337 66.271 167.708 C66.385 155.297 67.139 145.193 76.082 135.754 C84.08 128.44 92.683 126.681 103.25 126.734 C104.536 126.732 104.536 126.732 105.849 126.729 C107.65 126.727 109.452 126.731 111.254 126.739 C113.992 126.75 116.73 126.739 119.469 126.727 C121.229 126.728 122.99 126.73 124.75 126.734 C125.559 126.73 126.367 126.726 127.2 126.722 C136.656 126.799 144.403 129.235 152 135 C159.171 142.411 161.448 149.946 161.432 160.007 C161.443 160.991 161.453 161.975 161.463 162.988 C161.493 166.249 161.503 169.509 161.512 172.77 C161.529 175.084 161.547 177.398 161.566 179.712 C161.614 185.839 161.643 191.967 161.67 198.094 C161.699 204.13 161.746 210.166 161.791 216.201 C162.011 247.134 162.042 278.067 162 309 C162.66 309 163.32 309 164 309 C163.99 307.973 163.979 306.945 163.968 305.887 C163.791 286.623 163.812 267.369 164.637 248.118 C164.712 246.342 164.781 244.566 164.843 242.79 C164.934 240.295 165.049 237.802 165.172 235.309 C165.195 234.583 165.218 233.858 165.242 233.11 C165.545 227.846 166.923 223.34 170 219 C175.31 214.941 180.677 214.393 187.188 214.562 C187.968 214.555 188.749 214.548 189.553 214.541 C195.048 214.602 198.493 215.569 202.547 219.5 C205.722 223.458 207.127 226.154 207.12 231.195 C207.122 232.049 207.123 232.903 207.124 233.783 C207.121 234.716 207.117 235.65 207.114 236.612 C207.114 237.598 207.114 238.583 207.114 239.599 C207.113 242.861 207.105 246.124 207.098 249.387 C207.096 251.647 207.094 253.907 207.093 256.167 C207.09 262.12 207.08 268.073 207.069 274.026 C207.058 280.099 207.054 286.171 207.049 292.244 C207.038 304.163 207.021 316.081 207 328 C207.726 327.979 208.452 327.958 209.2 327.937 C212.508 327.853 215.816 327.801 219.125 327.75 C220.267 327.716 221.409 327.683 222.586 327.648 C229.047 327.573 233.127 327.57 238 332 C238.66 332.66 239.32 333.32 240 334 C240.008 332.864 240.016 331.728 240.025 330.557 C240.102 319.803 240.19 309.05 240.288 298.296 C240.337 292.769 240.384 287.242 240.422 281.715 C240.459 276.372 240.505 271.029 240.558 265.686 C240.576 263.657 240.592 261.627 240.603 259.598 C240.788 228.754 240.788 228.754 248.066 220.719 C252.333 218.219 256.081 218.415 260.938 218.5 C261.819 218.485 262.7 218.469 263.607 218.453 C269.23 218.487 272.574 219.22 277 223 C281.967 229.176 282.131 235.134 282.316 242.805 C282.337 243.529 282.358 244.253 282.379 244.999 C282.444 247.291 282.503 249.583 282.562 251.875 C282.606 253.438 282.649 255 282.693 256.562 C282.8 260.375 282.901 264.187 283 268 C283.357 267.406 283.714 266.811 284.082 266.199 C285.734 263.461 287.398 260.731 289.062 258 C289.624 257.065 290.185 256.131 290.764 255.168 C300.784 238.792 300.784 238.792 309 235 C315.507 233.949 320.803 234.48 326.211 238.363 C331.003 242.748 335.088 247.814 335.434 254.426 C335.356 261.057 332.453 265.652 329.062 271.188 C328.182 272.689 328.182 272.689 327.285 274.22 C324.628 278.732 321.894 283.191 319.098 287.617 C318.675 288.294 318.253 288.97 317.818 289.667 C317.047 290.892 316.26 292.106 315.453 293.307 C313.729 296.018 312.995 297.734 313.051 300.973 C314.165 304.527 315.734 307.651 317.562 310.875 C318.292 312.202 319.02 313.53 319.746 314.859 C320.12 315.541 320.493 316.222 320.878 316.924 C323.75 322.24 326.405 327.668 329.06 333.095 C329.967 334.934 330.899 336.758 331.836 338.582 C337.592 350.189 337.592 350.189 336 357 C333.036 363.046 327.333 368.49 321 371 C315.665 371.639 310.702 371.753 305.75 369.562 C297.52 361.893 292.32 353.812 287 344 C285.678 341.66 284.34 339.33 283 337 C282.985 337.564 282.971 338.128 282.956 338.709 C282.881 341.307 282.784 343.903 282.688 346.5 C282.654 347.83 282.654 347.83 282.619 349.188 C282.344 355.989 281.64 362.289 276.688 367.375 C269.543 371.695 262.134 371.761 254 371 C250.002 369.827 247.153 368.076 244.125 365.25 C242.469 361.938 241.784 358.617 241 355 C240.74 355.575 240.479 356.15 240.211 356.742 C238.91 359.168 237.431 361.051 235.625 363.125 C235.04 363.808 234.455 364.491 233.852 365.195 C231.98 367.019 230.342 367.897 228 369 C228.598 369.596 229.197 370.192 229.813 370.806 C235.479 376.452 241.143 382.101 246.804 387.752 C249.713 390.656 252.624 393.56 255.537 396.461 C258.353 399.267 261.167 402.075 263.979 404.884 C265.047 405.95 266.116 407.015 267.185 408.08 C272.509 413.377 277.766 418.688 282.635 424.413 C284.48 426.558 286.47 428.53 288.5 430.5 C291.844 433.81 295.047 437.172 298.09 440.762 C299.592 442.521 301.134 444.246 302.691 445.957 C303.628 447.013 304.564 448.068 305.5 449.125 C306.377 450.097 307.253 451.069 308.156 452.07 C310 455 310 455 309.867 458.254 C308.972 461.089 308.374 462.265 306 464 C303.027 464.991 301.768 464.955 298.754 464.684 C294.012 464.637 291.946 466.024 288.623 469.279 C288.067 469.868 287.511 470.456 286.938 471.062 C285.802 472.201 284.665 473.337 283.527 474.473 C282.954 475.056 282.381 475.64 281.79 476.241 C279.977 478.023 278.098 479.679 276.168 481.332 C271.321 485.516 266.865 490.064 262.375 494.625 C253.27 503.873 253.27 503.873 249.625 506.848 C247.337 508.724 245.506 510.545 243.625 512.812 C241.19 515.671 238.679 518.368 236 521 C232.12 524.836 228.543 528.853 225 533 C224.071 534.077 223.141 535.154 222.211 536.23 C211.648 548.475 201.632 561.024 191.867 573.914 C191.222 574.759 190.577 575.605 189.913 576.476 C188.636 578.16 187.376 579.856 186.13 581.563 C180.635 588.97 180.635 588.97 175.875 590.5 C175.068 590.778 174.261 591.057 173.43 591.344 C154.999 596.322 134.107 594.146 115.135 594.131 C111.003 594.128 106.871 594.132 102.739 594.135 C94.669 594.139 86.599 594.138 78.529 594.135 C71.956 594.133 65.384 594.133 58.811 594.134 C57.871 594.134 56.931 594.134 55.962 594.134 C54.051 594.135 52.14 594.135 50.228 594.135 C32.352 594.138 14.476 594.135 -3.401 594.129 C-18.672 594.125 -33.943 594.126 -49.215 594.13 C-67.016 594.136 -84.817 594.138 -102.618 594.135 C-104.525 594.134 -106.432 594.134 -108.339 594.134 C-109.277 594.134 -110.215 594.134 -111.181 594.133 C-117.725 594.132 -124.268 594.134 -130.811 594.136 C-138.817 594.139 -146.822 594.138 -154.828 594.133 C-158.897 594.13 -162.965 594.129 -167.034 594.133 C-177.023 594.14 -187.011 594.102 -197 594 C-197.714 593.994 -198.427 593.987 -199.162 593.981 C-203.468 593.94 -207.772 593.877 -212.076 593.783 C-214.035 593.743 -215.994 593.722 -217.954 593.701 C-226.534 593.473 -233.217 592.321 -239.785 586.555 C-240.912 585.228 -240.912 585.228 -242.062 583.875 C-242.9 582.9 -243.738 581.926 -244.602 580.922 C-247.39 577.525 -250.159 574.116 -252.875 570.66 C-255.797 567.002 -258.832 563.445 -261.87 559.883 C-264.742 556.507 -267.545 553.087 -270.312 549.625 C-274.598 544.352 -279.193 539.406 -283.865 534.477 C-286.703 531.48 -289.484 528.458 -292.17 525.323 C-296.167 520.744 -300.412 516.444 -304.715 512.152 C-305.937 510.929 -305.937 510.929 -307.183 509.681 C-308.896 507.968 -310.609 506.256 -312.324 504.546 C-314.93 501.945 -317.531 499.339 -320.131 496.732 C-321.804 495.06 -323.478 493.387 -325.152 491.715 C-325.92 490.945 -326.688 490.175 -327.479 489.382 C-331.609 485.27 -335.816 481.324 -340.256 477.548 C-341.989 476.01 -343.547 474.383 -345.125 472.688 C-348.144 469.866 -350.127 469.179 -354 468 C-357.484 465.212 -359.418 462.164 -361 458 C-360.932 454.539 -360.699 452.78 -358.375 450.188 C-356 449 -356 449 -352.871 448.895 C-347.344 447.617 -344.604 444.452 -340.688 440.5 C-339.18 439.029 -337.673 437.559 -336.164 436.09 C-335.445 435.381 -334.726 434.672 -333.985 433.941 C-331.568 431.577 -329.088 429.311 -326.562 427.062 C-325.798 426.381 -325.034 425.699 -324.246 424.996 C-323.505 424.337 -322.764 423.679 -322 423 C-313.399 415.294 -304.856 407.527 -296.406 399.656 C-295.797 399.089 -295.189 398.523 -294.562 397.938 C-293.397 396.853 -292.234 395.767 -291.071 394.679 C-288.118 391.925 -285.128 389.226 -282.078 386.578 C-277.953 382.988 -273.97 379.261 -270 375.5 C-268.668 374.238 -267.335 372.978 -266 371.719 C-265.027 370.787 -265.027 370.787 -264.035 369.836 C-262 368 -262 368 -259.684 366.289 C-258.942 365.73 -258.201 365.17 -257.438 364.594 C-256.415 363.877 -256.415 363.877 -255.371 363.146 C-253.715 360.554 -253.973 359.853 -254.407 356.889 C-254.979 352.439 -255.136 348.116 -255.114 343.635 C-255.114 342.853 -255.114 342.071 -255.114 341.266 C-255.113 338.718 -255.106 336.169 -255.098 333.621 C-255.096 331.84 -255.094 330.06 -255.093 328.279 C-255.09 323.618 -255.08 318.958 -255.069 314.297 C-255.058 309.531 -255.054 304.764 -255.049 299.998 C-255.038 290.665 -255.021 281.333 -255 272 C-255.929 272.07 -256.859 272.139 -257.816 272.211 C-269.171 272.708 -269.171 272.708 -273.375 269 C-274.241 268.01 -275.107 267.02 -276 266 C-276.01 266.82 -276.021 267.64 -276.031 268.485 C-276.13 276.308 -276.233 284.13 -276.339 291.953 C-276.394 295.973 -276.447 299.992 -276.497 304.011 C-276.882 334.692 -276.882 334.692 -277.348 346.672 C-277.368 347.413 -277.388 348.154 -277.409 348.918 C-277.695 354.953 -278.871 361.383 -282.754 366.156 C-283.351 366.6 -283.948 367.043 -284.562 367.5 C-285.162 367.964 -285.761 368.428 -286.379 368.906 C-291.724 372.513 -298.798 371.467 -305 371 C-309.876 369.62 -313.303 367.326 -316 363 C-319.295 352.939 -319.406 342.778 -319.293 332.32 C-319.287 330.771 -319.283 329.221 -319.28 327.672 C-319.269 323.644 -319.239 319.617 -319.206 315.589 C-319.175 311.459 -319.162 307.329 -319.146 303.199 C-319.115 295.133 -319.064 287.066 -319 279 C-319.614 279.945 -320.227 280.89 -320.859 281.863 C-324.654 287.424 -329.406 290.572 -336 292 C-343.878 292.755 -350.682 293.17 -357 288 C-359.464 284.397 -359.433 280.476 -359.625 276.25 C-359.683 275.204 -359.683 275.204 -359.742 274.137 C-359.836 272.425 -359.919 270.712 -360 269 C-366.522 274.87 -367.361 282.584 -368 291 C-368.197 295.23 -368.275 299.454 -368.312 303.688 C-368.339 305.273 -368.339 305.273 -368.366 306.89 C-368.36 314.389 -367.386 321.228 -364 328 C-360.88 327.337 -360.88 327.337 -359.859 324.926 C-359.493 324.063 -359.127 323.201 -358.75 322.312 C-356.387 317.315 -353.661 313.993 -349 311 C-342.484 308.828 -335.887 309.202 -329.625 312 C-324.769 314.792 -321.732 317.599 -320 323 C-317.637 335.618 -322.897 345.38 -329.703 355.543 C-336.557 364.144 -347.321 369.807 -358 372 C-369.834 372.92 -379.785 371.354 -389.102 363.672 C-389.728 363.12 -390.355 362.568 -391 362 C-391.668 361.448 -392.335 360.897 -393.023 360.328 C-404.108 350.39 -410.013 333.455 -411.169 318.868 C-411.383 314.319 -411.385 309.775 -411.336 305.222 C-411.312 302.87 -411.316 300.52 -411.322 298.168 C-411.284 276.515 -406.684 255.402 -391.355 239.227 C-385.269 233.473 -379.016 230.237 -371 228 C-370.01 227.67 -369.02 227.34 -368 227 C-353.827 225.988 -341.871 227.824 -330.375 236.863 C-323.073 243.433 -318.013 252.125 -317 262 C-315.925 259.348 -314.905 256.716 -314 254 C-314.464 253.264 -314.928 252.528 -315.406 251.77 C-318.487 246.416 -317.661 239.97 -317 234 C-315.899 230.676 -314.415 228.51 -312 226 C-311.465 225.403 -310.93 224.806 -310.379 224.191 C-306.233 220.331 -302.62 219.535 -297 219.312 C-290.841 219.622 -286.333 220.446 -282 225 C-279.276 228.814 -277.092 232.816 -275 237 C-274.34 236.237 -273.68 235.474 -273 234.688 C-266.214 228.045 -257.594 228.581 -248.707 228.672 C-247.443 228.674 -246.179 228.676 -244.876 228.678 C-242.214 228.684 -239.553 228.696 -236.891 228.719 C-233.488 228.747 -230.086 228.758 -226.683 228.762 C-223.42 228.768 -220.157 228.782 -216.895 228.797 C-215.677 228.801 -214.459 228.805 -213.204 228.81 C-212.069 228.819 -210.934 228.829 -209.765 228.839 C-208.272 228.849 -208.272 228.849 -206.749 228.86 C-204.072 228.996 -201.61 229.402 -199 230 C-199.011 228.971 -199.022 227.943 -199.034 226.883 C-199.135 217.186 -199.21 207.49 -199.259 197.793 C-199.285 192.808 -199.321 187.824 -199.377 182.839 C-199.432 178.028 -199.461 173.217 -199.474 168.405 C-199.484 166.57 -199.502 164.735 -199.529 162.9 C-199.565 160.328 -199.57 157.759 -199.568 155.187 C-199.586 154.429 -199.604 153.67 -199.622 152.889 C-199.583 148.842 -199.167 147.199 -196.527 144.051 C-195.693 143.374 -194.859 142.697 -194 142 C-193.67 141.67 -193.34 141.34 -193 141 C-190.573 140.889 -188.174 140.843 -185.746 140.839 C-184.986 140.834 -184.227 140.829 -183.444 140.824 C-180.919 140.809 -178.393 140.802 -175.867 140.797 C-174.114 140.791 -172.361 140.785 -170.608 140.78 C-166.924 140.769 -163.241 140.763 -159.557 140.76 C-154.846 140.754 -150.135 140.73 -145.424 140.702 C-141.799 140.683 -138.173 140.678 -134.548 140.676 C-132.812 140.673 -131.076 140.665 -129.34 140.652 C-126.903 140.635 -124.467 140.637 -122.031 140.644 C-120.963 140.63 -120.963 140.63 -119.873 140.616 C-114.805 140.658 -111.424 141.7 -107 144 C-103.953 147.659 -103.599 150.714 -103.488 155.395 C-103.435 157.198 -103.435 157.198 -103.381 159.037 C-103.358 160.283 -103.336 161.529 -103.312 162.812 C-103.278 164.078 -103.244 165.343 -103.209 166.646 C-103.127 169.764 -103.057 172.882 -103 176 C-102.126 174.49 -102.126 174.49 -101.234 172.949 C-91.788 156.707 -82.039 140.897 -70.548 126.013 C-67.774 122.406 -65.045 118.764 -62.312 115.125 C-61.795 114.44 -61.277 113.756 -60.744 113.05 C-58.152 109.666 -58.152 109.666 -56 106 C-56.496 105.587 -56.993 105.175 -57.504 104.75 C-69.042 94.942 -79.865 81.238 -81.215 65.49 C-81.702 54.264 -82.05 43.289 -77 33 C-76.576 32.074 -76.152 31.149 -75.715 30.195 C-68.727 16.141 -56.252 4.914 -41.367 -0.293 C-40.586 -0.526 -39.805 -0.76 -39 -1 C-38.26 -1.223 -37.52 -1.446 -36.758 -1.676 C-24.755 -4.646 -11.655 -3.879 0 0 Z " fill="#080808" transform="translate(538,196)"/>
<path d="M0 0 C3.485 1.544 6.143 3.625 9.062 6.062 C13.344 9.628 13.344 9.628 17.672 13.137 C24.338 18.472 30.579 24.174 36.797 30.016 C39.127 32.2 41.495 34.315 43.938 36.375 C48.674 40.446 53.001 44.952 57.371 49.408 C60.49 52.57 63.65 55.605 67.023 58.496 C71.015 61.939 74.573 65.674 78.125 69.562 C83.092 74.941 88.15 80.185 93.375 85.312 C98.258 90.12 102.673 95.104 106.926 100.488 C108.993 102.992 111.173 105.238 113.5 107.5 C117.603 111.496 121.172 115.779 124.75 120.246 C126.926 122.909 129.182 125.46 131.5 128 C136.205 133.175 140.604 138.562 145 144 C146.011 145.231 147.023 146.462 148.035 147.691 C155.05 156.231 161.815 164.918 168.377 173.81 C170.172 176.233 171.982 178.644 173.793 181.055 C175.071 182.765 176.348 184.476 177.625 186.188 C178.229 186.99 178.834 187.792 179.457 188.618 C180.302 189.757 180.302 189.757 181.164 190.918 C181.664 191.586 182.163 192.254 182.678 192.942 C184.134 195.208 185.03 197.493 186 200 C146.094 200.023 106.189 200.041 66.283 200.051 C61.525 200.052 56.767 200.054 52.01 200.055 C50.589 200.055 50.589 200.055 49.14 200.056 C33.997 200.06 18.853 200.068 3.709 200.077 C-11.939 200.087 -27.586 200.092 -43.234 200.094 C-51.977 200.095 -60.72 200.098 -69.463 200.106 C-72.803 200.108 -76.143 200.111 -79.483 200.113 C-80.302 200.114 -81.121 200.115 -81.966 200.115 C-90.828 200.121 -99.691 200.116 -108.554 200.081 C-109.332 200.078 -110.111 200.075 -110.913 200.071 C-114.048 200.059 -117.183 200.046 -120.319 200.032 C-130.183 199.988 -140.045 200.013 -149.909 200.118 C-156.737 200.189 -163.564 200.22 -170.392 200.222 C-174.431 200.226 -178.467 200.25 -182.505 200.327 C-186.241 200.399 -189.974 200.414 -193.711 200.387 C-195.715 200.387 -197.719 200.447 -199.722 200.51 C-205.35 200.422 -208.673 200.167 -212.994 196.368 C-215.599 193.431 -217.81 190.256 -220 187 C-220.987 185.731 -221.983 184.47 -222.996 183.223 C-224.205 181.658 -224.205 181.658 -225.438 180.062 C-230.327 173.787 -235.402 167.693 -240.582 161.656 C-242.04 159.953 -243.489 158.243 -244.938 156.531 C-251.251 149.087 -257.736 141.835 -264.405 134.708 C-266.091 132.902 -267.769 131.088 -269.445 129.273 C-283.061 114.541 -283.061 114.541 -297.777 100.93 C-300.902 98.217 -303.952 95.424 -307 92.625 C-307.589 92.088 -308.178 91.551 -308.785 90.998 C-310.21 89.686 -311.608 88.346 -313 87 C-313 86.67 -313 86.34 -313 86 C-301.585 84.752 -290.138 84.694 -278.668 84.5 C-276.432 84.46 -274.195 84.419 -271.959 84.378 C-265.949 84.27 -259.938 84.167 -253.927 84.064 C-250.184 84 -246.441 83.933 -242.697 83.866 C-215.39 83.375 -188.085 82.957 -160.773 82.754 C-158.554 82.736 -156.335 82.719 -154.115 82.701 C-144.699 82.627 -135.282 82.56 -125.865 82.529 C-122.043 82.514 -118.221 82.487 -114.399 82.458 C-112.645 82.447 -110.89 82.441 -109.136 82.442 C-93.583 82.731 -93.583 82.731 -80.438 75.25 C-79.606 74.455 -78.775 73.659 -77.918 72.84 C-77.461 72.392 -77.004 71.945 -76.533 71.484 C-74.812 69.818 -73.06 68.191 -71.301 66.566 C-63.953 59.767 -56.774 52.832 -49.734 45.715 C-46.277 42.233 -42.736 38.939 -38.988 35.77 C-36.385 33.452 -33.947 30.98 -31.5 28.5 C-27.869 24.825 -24.169 21.306 -20.238 17.953 C-16.633 14.807 -13.149 11.53 -9.655 8.262 C-6.538 5.362 -3.365 2.615 0 0 Z " fill="#9FD7B2" transform="translate(520,575)"/>
<path d="M0 0 C0.33 0 0.66 0 1 0 C1.177 25.795 0.862 51.583 0.5 77.375 C0.488 78.227 0.476 79.08 0.464 79.958 C0.314 90.639 0.159 101.319 0 112 C-3.63 112.33 -7.26 112.66 -11 113 C-11 111.35 -11 109.7 -11 108 C-18.26 108 -25.52 108 -33 108 C-33.495 109.98 -33.495 109.98 -34 112 C-32.389 113.611 -30.605 113.166 -28.379 113.211 C-27.444 113.239 -26.508 113.268 -25.545 113.297 C-23.561 113.349 -21.576 113.393 -19.592 113.43 C-18.655 113.461 -17.719 113.492 -16.754 113.523 C-15.891 113.543 -15.028 113.563 -14.139 113.583 C-13.433 113.721 -12.727 113.858 -12 114 C-11.01 115.485 -11.01 115.485 -10 117 C-10.978 117.098 -11.957 117.196 -12.965 117.297 C-21.649 118.287 -29.49 119.299 -36.438 125 C-41.113 130.985 -40.564 136.825 -39.767 144.14 C-39.013 150.192 -38.097 156.22 -37.188 162.25 C-36.769 165.081 -36.353 167.912 -35.938 170.743 C-35.666 172.6 -35.392 174.457 -35.118 176.314 C-33.95 184.25 -32.893 192.198 -31.938 200.163 C-31.357 204.861 -30.505 209.405 -29.433 214.015 C-28.765 217.079 -28.56 220.129 -28.344 223.25 C-27.946 226.43 -27.261 229.488 -26.544 232.609 C-26.023 234.901 -25.54 237.197 -25.07 239.5 C-22.637 252.88 -22.637 252.88 -15.875 264.375 C-11.796 266.681 -7.522 267.841 -3 269 C-3.726 269.724 -4.451 270.449 -5.199 271.195 C-6.936 272.935 -8.669 274.679 -10.395 276.43 C-14.838 280.923 -19.336 285.247 -24.137 289.355 C-26.583 291.515 -28.844 293.831 -31.127 296.16 C-32.924 297.925 -34.776 299.564 -36.691 301.198 C-41.133 305.061 -45.291 309.164 -49.438 313.34 C-50.586 314.49 -50.586 314.49 -51.757 315.664 C-54.174 318.086 -56.587 320.512 -59 322.938 C-60.65 324.592 -62.299 326.246 -63.949 327.9 C-67.969 331.931 -71.986 335.964 -76 340 C-79.458 338.847 -79.662 338.365 -81.391 335.336 C-81.846 334.554 -82.302 333.772 -82.771 332.967 C-83.259 332.112 -83.747 331.256 -84.25 330.375 C-87.733 324.371 -91.299 318.477 -95.195 312.73 C-96.237 311.188 -96.237 311.188 -97.3 309.614 C-98.669 307.601 -100.052 305.598 -101.45 303.605 C-102.384 302.225 -102.384 302.225 -103.336 300.816 C-103.898 300.006 -104.461 299.196 -105.041 298.362 C-106 296 -106 296 -105.268 293.368 C-103.767 290.566 -102.118 287.887 -100.438 285.188 C-85.035 259.148 -80.652 228.152 -75.503 198.852 C-74.975 195.856 -74.44 192.86 -73.905 189.864 C-72.961 184.575 -72.03 179.283 -71.107 173.99 C-70.748 171.934 -70.385 169.878 -70.019 167.823 C-66.006 151.26 -66.006 151.26 -67.905 135.068 C-70.555 131.526 -73.991 129.678 -78 128 C-77.544 126.604 -77.085 125.208 -76.625 123.812 C-76.352 122.982 -76.078 122.152 -75.797 121.297 C-75 119 -75 119 -73.875 116.562 C-72.99 113.971 -72.877 112.031 -72.75 109.312 C-72.407 105.248 -71.478 102.685 -69.281 99.258 C-67.244 96.002 -65.268 92.747 -63.422 89.379 C-55.111 74.349 -45.698 60.155 -36 46 C-35.406 45.132 -34.812 44.265 -34.2 43.371 C-23.88 28.368 -12.911 12.911 0 0 Z " fill="#CDEDE8" transform="translate(506,298)"/>
<path d="M0 0 C5.204 0 10.408 -0.007 15.611 -0.021 C32.547 -0.063 49.48 -0.035 66.415 0.185 C67.397 0.198 68.38 0.21 69.392 0.223 C74.549 0.295 79.701 0.412 84.854 0.615 C86.307 0.669 87.76 0.71 89.213 0.737 C96.282 0.886 101.131 1.164 106.311 6.278 C107.381 7.551 108.43 8.844 109.415 10.185 C107.67 13.997 105.689 15.796 102.352 18.373 C97.847 21.954 93.752 25.692 89.778 29.849 C87.828 31.776 85.851 33.554 83.774 35.338 C78.739 39.706 74.053 44.401 69.352 49.123 C68.493 49.978 67.634 50.833 66.749 51.715 C62.322 56.148 58.041 60.644 53.959 65.396 C51.718 67.993 49.378 70.488 47.04 72.998 C42.747 77.644 38.681 82.426 34.715 87.357 C32.676 89.865 30.589 92.323 28.479 94.772 C22.167 102.111 16.351 109.774 10.61 117.565 C9.222 119.446 7.821 121.318 6.415 123.185 C2.69 121.944 2.424 120.947 0.477 117.623 C-3.955 110.402 -9.082 103.761 -14.203 97.02 C-15.993 94.644 -17.729 92.23 -19.46 89.81 C-30.146 75.042 -41.693 60.902 -53.5 47.022 C-56.412 43.594 -59.263 40.125 -62.085 36.623 C-66.208 31.554 -70.577 26.757 -75.019 21.97 C-77.149 19.659 -79.225 17.319 -81.273 14.935 C-84.349 11.366 -87.671 8.098 -91.082 4.849 C-92.585 3.185 -92.585 3.185 -92.585 1.185 C-61.724 0.214 -30.876 -0.003 0 0 Z " fill="#9DD5B0" transform="translate(711.58544921875,638.814697265625)"/>
<path d="M0 0 C3.293 1.229 5.392 2.783 7 6 C7.124 8.227 7.176 10.457 7.188 12.688 C7.202 13.888 7.216 15.088 7.23 16.324 C7.032 19.492 6.432 21.97 5.538 24.98 C4.524 28.788 3.982 32.68 3.379 36.57 C3.233 37.487 3.088 38.404 2.938 39.349 C2.631 41.29 2.326 43.232 2.023 45.173 C1.571 48.068 1.113 50.962 0.654 53.855 C-1.537 67.728 -3.555 81.622 -5.492 95.531 C-6.548 103.025 -7.995 110.448 -9.438 117.875 C-9.643 118.958 -9.848 120.041 -10.06 121.157 C-13.059 136.294 -13.059 136.294 -18 140 C-24.233 142.078 -33.081 142.466 -39.125 139.562 C-45.618 133.775 -46.82 125.192 -48.125 116.938 C-48.438 115.05 -48.753 113.164 -49.07 111.277 C-49.221 110.377 -49.373 109.478 -49.528 108.551 C-49.954 106.251 -50.466 104.012 -51.055 101.75 C-52.231 97.085 -52.825 92.426 -53.438 87.66 C-53.623 86.782 -53.809 85.904 -54 85 C-54.99 84.505 -54.99 84.505 -56 84 C-55.968 85.159 -55.937 86.318 -55.904 87.513 C-55.908 91.738 -56.575 95.692 -57.539 99.797 C-57.784 100.869 -57.784 100.869 -58.034 101.963 C-58.381 103.467 -58.732 104.969 -59.088 106.471 C-59.62 108.727 -60.125 110.988 -60.629 113.25 C-64.699 130.977 -64.699 130.977 -70 138 C-76.409 141.823 -82.947 142.162 -90.191 140.496 C-94.38 138.913 -96.54 136.64 -99 133 C-99.85 130.339 -100.542 127.838 -101.125 125.125 C-101.439 123.752 -101.754 122.38 -102.07 121.008 C-102.297 120.001 -102.297 120.001 -102.528 118.974 C-102.979 117.089 -103.519 115.227 -104.062 113.367 C-104.941 110.214 -105.47 107.244 -105.875 104 C-106.744 97.527 -107.847 91.116 -109 84.688 C-110.694 75.146 -111.968 65.631 -113 56 C-113.849 48.451 -114.785 40.953 -116.211 33.49 C-117.928 24.464 -119.576 15.376 -116.938 6.375 C-114.081 2.873 -110.397 1.404 -106.01 0.665 C-103.957 0.493 -101.936 0.443 -99.875 0.438 C-99.185 0.401 -98.496 0.364 -97.785 0.326 C-93.751 0.291 -92.157 0.861 -89.113 3.551 C-86.676 7.015 -85.847 10.601 -85.312 14.75 C-85.139 15.947 -85.139 15.947 -84.963 17.168 C-83.672 27.006 -83.282 36.937 -82.773 46.84 C-82.096 59.761 -80.803 72.555 -79.244 85.402 C-79.005 87.952 -78.957 90.44 -79 93 C-78.34 93 -77.68 93 -77 93 C-76.968 92.401 -76.935 91.801 -76.902 91.184 C-76.142 80.033 -74.275 69.035 -72.562 58 C-72.246 55.94 -71.931 53.88 -71.615 51.82 C-70.88 47.026 -70.131 42.233 -69.378 37.441 C-69.046 35.296 -68.728 33.151 -68.417 31.003 C-68.256 29.933 -68.095 28.864 -67.93 27.762 C-67.804 26.892 -67.679 26.023 -67.55 25.128 C-66.626 21.553 -64.979 20.107 -62 18 C-56.767 16.256 -50.1 15.63 -44.949 17.906 C-40.799 21.119 -39.47 25.027 -38.673 30.069 C-38.387 32.46 -38.153 34.851 -37.938 37.25 C-37.853 38.133 -37.768 39.017 -37.681 39.927 C-37.165 45.531 -36.815 51.128 -36.562 56.75 C-36.22 64.232 -35.422 71.631 -34.5 79.062 C-34.369 80.129 -34.238 81.195 -34.104 82.294 C-33.9 87.004 -33.9 87.004 -32 91 C-31.557 87.459 -31.121 83.917 -30.688 80.375 C-30.551 79.258 -30.414 78.141 -30.273 76.99 C-29.391 69.644 -28.641 62.296 -27.97 54.928 C-26.903 43.369 -25.529 31.938 -23.562 20.5 C-23.369 19.331 -23.176 18.162 -22.977 16.958 C-21.91 11.069 -20.957 6.574 -17 2 C-11.921 -1.386 -5.929 -0.571 0 0 Z " fill="#FBFBFB" transform="translate(589,421)"/>
<path d="M0 0 C3.338 1.669 4.528 2.278 6.777 4.879 C7.284 5.461 7.791 6.044 8.312 6.644 C8.849 7.277 9.385 7.91 9.938 8.562 C10.506 9.227 11.074 9.892 11.66 10.577 C18.075 18.155 24.093 26.023 30 34 C30.542 34.731 31.083 35.462 31.641 36.216 C39.777 47.249 47.515 58.516 55 70 C55.548 70.835 56.095 71.67 56.66 72.53 C68.324 90.351 78.722 108.809 88.688 127.625 C89.085 128.376 89.483 129.127 89.894 129.901 C96 141.577 96 141.577 96 146 C95.34 146 94.68 146 94 146 C93.731 146.563 93.461 147.127 93.184 147.707 C91.933 150.129 90.52 152.385 89.062 154.688 C83.546 163.954 81.8 172.123 83 183 C84.259 186.683 86.352 188.53 89.5 190.812 C91.695 191.855 93.619 192.559 96 193 C94.877 196.37 94.087 196.932 91.375 199.062 C82.899 206.323 76.889 215.853 75.793 227.13 C74.948 241.246 76.639 251.065 86 262 C87.005 263.329 88.006 264.662 89 266 C88.689 266.517 88.378 267.034 88.057 267.566 C81.671 278.179 75.321 288.81 69.059 299.496 C67.39 302.342 65.703 305.175 64 308 C60.742 307.415 59.074 306.456 56.715 304.156 C56.107 303.574 55.5 302.992 54.874 302.392 C54.235 301.767 53.596 301.143 52.938 300.5 C47.681 295.478 42.356 290.681 36.672 286.141 C33.76 283.808 30.913 281.407 28.062 279 C23.958 275.58 19.813 272.236 15.562 269 C14.141 267.917 14.141 267.917 12.691 266.812 C10.171 265.115 7.86 263.996 5 263 C5.714 257.485 7.353 252.393 9.062 247.125 C9.344 246.246 9.626 245.367 9.916 244.461 C10.607 242.306 11.302 240.153 12 238 C12.66 238 13.32 238 14 238 C14.136 238.61 14.272 239.22 14.411 239.848 C15.036 242.63 15.674 245.409 16.312 248.188 C16.526 249.147 16.739 250.107 16.959 251.096 C18.079 255.928 19.165 259.851 22 264 C22 264.66 22 265.32 22 266 C23.323 266.686 24.659 267.348 26 268 C26.699 268.347 27.397 268.694 28.117 269.051 C31.948 270.312 35.431 270.33 39.438 270.312 C40.544 270.337 40.544 270.337 41.674 270.361 C48.071 270.367 52.005 268.918 56.719 264.387 C59.65 260.56 60.545 256.468 61.5 251.812 C61.802 250.417 61.802 250.417 62.111 248.993 C64.907 235.445 66.602 221.685 68.457 207.984 C69.161 202.796 69.913 197.615 70.688 192.438 C70.795 191.703 70.902 190.968 71.012 190.21 C71.683 185.718 72.532 181.281 73.44 176.831 C74.821 169.849 75.999 162.826 77.232 155.816 C77.446 154.611 77.659 153.406 77.879 152.164 C78.07 151.076 78.262 149.987 78.459 148.866 C78.78 147.165 79.133 145.469 79.555 143.79 C80.971 138.093 80.796 131.857 78.5 126.5 C73.498 121.498 69.03 119.767 61.938 119.562 C55.402 119.809 51.481 121.083 46.25 125.125 C40.217 132.833 40.021 143.093 38.938 152.5 C38.624 155.22 38.298 157.938 37.965 160.656 C37.827 161.851 37.689 163.045 37.547 164.275 C37.366 165.175 37.186 166.074 37 167 C36.34 167.33 35.68 167.66 35 168 C34.902 166.721 34.804 165.442 34.703 164.125 C34.553 162.417 34.402 160.708 34.25 159 C34.188 158.161 34.126 157.322 34.062 156.457 C33.384 149.166 31.809 143.529 26.254 138.527 C22.386 136.712 19.124 136.441 14.938 136.562 C14.243 136.555 13.549 136.548 12.834 136.541 C8.345 136.596 5.662 137.467 2 140 C1.34 140 0.68 140 0 140 C0 93.8 0 47.6 0 0 Z " fill="#CCEDE7" transform="translate(521,296)"/>
<path d="M0 0 C4.875 2.75 4.875 2.75 6 5 C6.113 7.039 6.22 9.079 6.29 11.12 C6.582 23.936 6.582 23.936 12.5 34.938 C18.122 39.576 23.492 41.157 30.729 40.833 C38.314 40.508 43.871 41.055 49.737 46.187 C52.832 49.2 55.74 52.351 58.625 55.562 C59.833 56.843 61.046 58.12 62.262 59.393 C67.491 64.905 72.538 70.57 77.505 76.32 C80.044 79.174 82.769 81.832 85.5 84.5 C96.745 95.618 96.745 95.618 101 102 C99.851 101.999 99.851 101.999 98.679 101.997 C79.963 101.975 61.246 101.959 42.529 101.948 C33.478 101.943 24.426 101.936 15.375 101.925 C7.477 101.915 -0.421 101.908 -8.319 101.906 C-12.493 101.905 -16.667 101.902 -20.841 101.894 C-48.265 101.814 -48.265 101.814 -75.625 103.52 C-87.688 104.48 -87.688 104.48 -92.672 100.465 C-95.654 97.56 -98.008 94.661 -100 91 C-99.604 87.529 -97.928 85.009 -96.078 82.098 C-95.471 81.134 -94.865 80.171 -94.24 79.178 C-92.895 77.073 -91.55 74.968 -90.204 72.863 C-86.833 67.572 -83.554 62.282 -80.535 56.781 C-79.718 55.335 -79.718 55.335 -78.884 53.859 C-77.86 52.038 -76.869 50.198 -75.917 48.338 C-74.449 45.78 -73.248 43.916 -71 42 C-67.874 41.23 -65.058 41.071 -61.843 41.038 C-53.259 40.923 -45.318 35.407 -39 30 C-35.872 31.356 -35.047 31.926 -33.125 34.938 C-30.643 38.514 -28.994 39.373 -25 41 C-16.225 42.248 -8.224 41.394 -1 36 C1.343 33.359 1.961 32.4 2.312 28.812 C2.078 25.946 1.721 23.78 1 21.062 C-0.7 14.192 -0.155 7.024 0 0 Z " fill="#DA3389" transform="translate(696,525)"/>
<path d="M0 0 C3.032 1.244 4.493 3.501 6.525 6.03 C6.953 6.559 7.381 7.088 7.823 7.634 C9.194 9.339 10.549 11.058 11.9 12.78 C12.359 13.36 12.817 13.941 13.29 14.539 C21.751 25.282 21.751 25.282 24.9 30.78 C24.153 31.155 23.405 31.53 22.635 31.917 C16.594 35.056 12.035 37.51 8.9 43.78 C7.865 55.194 7.865 55.194 12.373 65.327 C17.664 70.361 23.616 70.292 30.604 70.147 C34.719 69.689 38.05 68.507 41.779 66.752 C43.82 65.817 45.723 65.292 47.9 64.78 C50.194 68.281 52.487 71.782 54.779 75.284 C55.555 76.47 56.332 77.656 57.109 78.842 C59.713 82.816 62.309 86.797 64.9 90.78 C65.6 91.849 66.3 92.918 67.021 94.02 C67.661 95.006 68.3 95.993 68.959 97.01 C69.528 97.884 70.097 98.759 70.683 99.659 C71.9 101.78 71.9 101.78 71.9 103.78 C70.895 103.786 70.895 103.786 69.869 103.793 C53.455 103.897 37.04 104.005 20.626 104.119 C12.688 104.174 4.749 104.227 -3.189 104.277 C-10.119 104.32 -17.049 104.367 -23.979 104.417 C-27.639 104.443 -31.298 104.468 -34.957 104.489 C-49.82 104.576 -64.655 104.76 -79.5 105.563 C-86.821 105.945 -94.146 105.889 -101.475 105.842 C-102.916 105.837 -104.357 105.833 -105.799 105.829 C-109.232 105.818 -112.666 105.801 -116.1 105.78 C-111.966 100.849 -107.668 96.212 -103.1 91.683 C-102.428 91.012 -101.756 90.341 -101.063 89.65 C-99.616 88.206 -98.167 86.764 -96.717 85.322 C-94.425 83.043 -92.136 80.76 -89.847 78.476 C-84.997 73.637 -80.142 68.802 -75.287 63.967 C-69.643 58.347 -64 52.724 -58.361 47.098 C-56.103 44.845 -53.841 42.596 -51.579 40.347 C-50.203 38.975 -48.827 37.602 -47.452 36.23 C-46.82 35.603 -46.188 34.976 -45.536 34.33 C-42.44 31.343 -42.44 31.343 -40.1 27.78 C-37.005 27.338 -33.94 27.04 -30.822 26.833 C-27.284 26.481 -25.16 25.822 -22.24 23.768 C-20.133 20.826 -19.797 19.783 -19.279 16.381 C-18.413 11.511 -16.33 9.564 -12.432 6.674 C-11.703 6.173 -10.975 5.671 -10.225 5.155 C-9.504 4.615 -8.783 4.075 -8.041 3.518 C-2.754 -0.289 -2.754 -0.289 0 0 Z " fill="#D93288" transform="translate(341.099609375,539.22021484375)"/>
<path d="M0 0 C0.974 -0.023 1.948 -0.046 2.952 -0.07 C12.24 0.03 18.954 3.802 25.75 9.969 C43.778 29.079 38.551 65.887 38.865 89.87 C38.916 93.71 38.974 97.55 39.031 101.391 C39.045 102.575 39.058 103.759 39.072 104.979 C39.089 106.072 39.106 107.164 39.123 108.29 C39.136 109.251 39.148 110.211 39.161 111.201 C39.217 113.767 39.217 113.767 40.312 116.625 C40.75 120 40.75 120 40.312 123.625 C37.1 127.099 34.914 128.884 30.148 129.254 C28.661 129.258 27.174 129.235 25.688 129.188 C24.937 129.198 24.187 129.209 23.414 129.221 C19.808 129.173 17.731 128.954 14.859 126.699 C11.562 122.278 10.555 117.948 9.312 112.625 C6.262 113.949 4.645 115.209 2.688 117.875 C-1.149 122.577 -8.276 128.16 -14.516 128.818 C-34.15 129.535 -34.15 129.535 -40.688 123.625 C-46.294 118.329 -50.679 112.573 -51.051 104.574 C-51.053 103.154 -51.036 101.733 -51 100.312 C-50.987 99.564 -50.975 98.816 -50.961 98.045 C-50.687 87.577 -48.709 80.325 -42.688 71.625 C-41.966 70.573 -41.244 69.521 -40.5 68.438 C-28.362 56.299 -10.88 51.624 5.312 47.625 C5.56 43.411 5.643 39.682 4.375 35.625 C1.589 32.924 -0.662 32.628 -4.477 32.449 C-6.853 32.512 -6.853 32.512 -9.438 33.875 C-12.259 37.324 -13.705 40.918 -15.281 45.066 C-17.004 48.201 -18.462 49.14 -21.688 50.625 C-25.328 51.617 -28.922 51.875 -32.688 52 C-33.698 52.049 -34.709 52.098 -35.75 52.148 C-39.85 51.418 -41.235 49.947 -43.688 46.625 C-45.502 36.764 -43.524 27.638 -38.18 19.262 C-28.55 5.937 -16.183 0.235 0 0 Z " fill="#FBFCFC" transform="translate(652.6875,432.375)"/>
<path d="M0 0 C3.872 0.826 6.933 2.099 10 4.688 C12.423 10.29 10.814 17.311 9.828 23.172 C9.706 23.928 9.584 24.683 9.458 25.462 C9.062 27.892 8.656 30.321 8.25 32.75 C7.972 34.437 7.694 36.123 7.416 37.81 C5.788 47.628 4.035 57.405 1.988 67.145 C1.209 70.881 0.52 74.628 -0.145 78.387 C-12.699 149.335 -12.699 149.335 -39 170 C-46.267 174.945 -53.294 176.048 -62 175 C-65.98 173.101 -68.379 170.056 -70 166 C-70.69 160.719 -71.069 155.757 -68.25 151.125 C-65.277 149.181 -62.397 147.751 -59.188 146.25 C-52.602 143.128 -47.307 138.615 -44 132 C-43.022 126.411 -45.459 123.355 -48.344 118.852 C-50.693 114.807 -52.234 110.564 -53.824 106.176 C-54.971 102.963 -54.971 102.963 -56.457 99.789 C-58.516 95.041 -59.722 90.066 -61 85.062 C-61.262 84.048 -61.524 83.033 -61.794 81.988 C-63.588 74.919 -65.116 67.852 -66.359 60.668 C-66.836 57.939 -67.355 55.239 -67.914 52.527 C-69.192 46.191 -70.249 39.819 -71.287 33.44 C-71.626 31.371 -71.973 29.303 -72.32 27.234 C-74.62 13.32 -74.62 13.32 -74 8 C-72.461 6.195 -72.461 6.195 -70.375 5.125 C-69.636 4.742 -68.898 4.359 -68.137 3.965 C-67.432 3.646 -66.726 3.328 -66 3 C-65.072 2.567 -64.144 2.134 -63.188 1.688 C-58.401 0.655 -53.855 0.164 -49 1 C-42.717 6.257 -41.899 13.588 -41 21.375 C-40.919 22.062 -40.838 22.749 -40.754 23.457 C-40.497 25.637 -40.248 27.819 -40 30 C-39.669 32.854 -39.334 35.708 -39 38.562 C-38.918 39.263 -38.836 39.963 -38.752 40.685 C-38.18 45.558 -37.576 50.427 -36.938 55.293 C-36.782 56.482 -36.626 57.67 -36.465 58.895 C-35.895 62.704 -35.008 66.284 -34 70 C-33.5 72.662 -33.019 75.326 -32.562 77.996 C-32.377 78.657 -32.191 79.319 -32 80 C-31.01 80.495 -31.01 80.495 -30 81 C-28.666 74.665 -27.572 68.357 -26.75 61.938 C-25.335 51.368 -23.893 40.802 -22.395 30.244 C-22.132 28.379 -21.874 26.513 -21.62 24.646 C-21.257 21.99 -20.88 19.337 -20.5 16.684 C-20.394 15.882 -20.288 15.081 -20.178 14.255 C-19.404 8.991 -17.845 5.538 -14.699 1.211 C-10.719 -1.625 -4.641 -0.405 0 0 Z " fill="#FBFCFC" transform="translate(424,430)"/>
<path d="M0 0 C3.403 1.573 5.304 3.609 7 7 C7.091 8.726 7.118 10.456 7.114 12.184 C7.113 13.265 7.113 14.346 7.113 15.46 C7.108 16.631 7.103 17.801 7.098 19.008 C7.096 20.204 7.095 21.399 7.093 22.631 C7.088 26.463 7.075 30.294 7.062 34.125 C7.057 36.717 7.053 39.31 7.049 41.902 C7.038 48.268 7.021 54.634 7 61 C11.688 59.335 13.08 57.91 15.488 53.504 C16.425 51.828 16.425 51.828 17.381 50.119 C18.026 48.934 18.67 47.749 19.312 46.562 C24.055 37.932 29.018 29.831 35 22 C35.784 20.948 36.567 19.896 37.375 18.812 C41.433 16.011 45.23 16.181 50 17 C54.838 19.329 57.636 22.181 60 27 C61.69 35.203 57.709 41.012 53.5 47.75 C52.864 48.808 52.228 49.866 51.572 50.957 C48.875 55.424 46.123 59.849 43.254 64.207 C42.875 64.791 42.496 65.374 42.105 65.976 C41.145 67.437 40.154 68.878 39.16 70.316 C37.64 73.832 38.029 76.404 39 80 C40.43 83.457 42.142 86.749 43.875 90.062 C44.602 91.488 44.602 91.488 45.343 92.942 C46.886 95.966 48.441 98.984 50 102 C52.053 105.973 54.093 109.953 56.125 113.938 C56.598 114.842 57.071 115.746 57.558 116.678 C60.026 121.52 61.764 125.536 62 131 C60.188 135.061 57.022 138.116 53.688 141 C49.622 142.513 46.269 142.765 42 142 C34.464 138.3 30.889 131.598 27 124.5 C26.094 122.903 26.094 122.903 25.17 121.273 C22.557 116.655 20 112.007 17.461 107.348 C17.1 106.694 16.739 106.041 16.367 105.367 C15.446 103.692 14.546 102.004 13.648 100.316 C11.759 97.661 11.064 97.574 8 97 C8.016 97.953 8.031 98.905 8.048 99.886 C8.102 103.459 8.137 107.032 8.165 110.605 C8.18 112.144 8.2 113.683 8.226 115.222 C8.497 131.574 8.497 131.574 5 139 C0.958 141.694 -2.131 141.367 -6.875 141.375 C-7.678 141.399 -8.481 141.424 -9.309 141.449 C-13.392 141.469 -15.476 141.331 -19.008 139.102 C-21.974 135.972 -22.127 134.269 -22.14 130.061 C-22.146 129.017 -22.152 127.972 -22.158 126.896 C-22.159 125.746 -22.16 124.595 -22.161 123.409 C-22.166 122.201 -22.171 120.993 -22.176 119.748 C-22.188 116.428 -22.196 113.107 -22.2 109.787 C-22.203 107.711 -22.207 105.636 -22.212 103.56 C-22.225 97.064 -22.235 90.567 -22.239 84.071 C-22.243 76.577 -22.261 69.084 -22.29 61.59 C-22.312 55.796 -22.322 50.001 -22.323 44.206 C-22.324 40.747 -22.33 37.288 -22.348 33.828 C-22.367 29.965 -22.363 26.101 -22.356 22.238 C-22.366 21.097 -22.375 19.956 -22.384 18.781 C-22.348 11.96 -22.053 6.371 -17.273 1.094 C-12.046 -1.421 -5.637 -0.674 0 0 Z " fill="#FBFBFC" transform="translate(807,420)"/>
<path d="M0 0 C7.258 4.761 11.943 11.701 14.637 19.949 C16.105 28.238 15.492 35.477 11.68 42.977 C9.025 46.174 6.106 47.73 1.955 48.263 C-0.289 48.366 -2.505 48.361 -4.75 48.312 C-5.9 48.317 -5.9 48.317 -7.074 48.322 C-12.732 48.268 -12.732 48.268 -15 46 C-15.309 43.391 -15.309 43.391 -15.438 40.25 C-15.829 34.414 -16.758 30.242 -21 26 C-23.37 25.332 -23.37 25.332 -26 26 C-34.654 34.242 -35.858 46.296 -36.227 57.688 C-36.504 71.854 -36.473 84.092 -28 96 C-24.669 96.135 -24.669 96.135 -21 95 C-18.875 92.581 -17.488 89.841 -16 87 C-13.649 83.225 -11.824 80.314 -8 78 C-2.781 77.193 3.04 76.862 7.625 79.812 C10.269 82.248 11.855 83.906 12.336 87.531 C12.483 98.679 9.592 107.715 2 116 C-6.512 124.635 -15.195 128.073 -27.25 128.312 C-36.96 128.217 -44.025 125.819 -51.121 119.109 C-63.693 104.995 -68.775 85.559 -68.562 67.062 C-68.559 66.397 -68.555 65.731 -68.552 65.045 C-68.401 45.427 -65.398 23.246 -52 8 C-51.477 7.384 -50.953 6.768 -50.414 6.133 C-38.027 -7.417 -15.433 -9.433 0 0 Z " fill="#FBFBFC" transform="translate(200,434)"/>
<path d="M0 0 C10.392 7.105 16.335 17.194 20.25 28.938 C21.705 43.796 19.731 56.553 10.93 68.934 C7.269 73.301 2.975 76.787 -1.75 79.938 C-7.069 79.41 -9.821 74.67 -13.064 70.861 C-17.073 66.306 -21.047 62.891 -27.086 61.336 C-33.711 61.26 -37.833 63.617 -42.75 67.938 C-46.229 71.49 -49.524 75.152 -52.75 78.938 C-64.162 71.546 -71.24 62.428 -74.366 49.017 C-76.626 36.774 -74.894 24.928 -68.105 14.383 C-66.419 12.122 -64.64 10.03 -62.75 7.938 C-62.002 7.017 -62.002 7.017 -61.238 6.078 C-45.996 -11.276 -18.683 -10.735 0 0 Z " fill="#DD338A" transform="translate(544.75,213.0625)"/>
<path d="M0 0 C3.223 3.233 4.2 5.881 4.194 10.294 C4.196 11.205 4.197 12.117 4.199 13.056 C4.195 14.058 4.191 15.061 4.188 16.094 C4.188 17.148 4.188 18.202 4.188 19.287 C4.187 22.783 4.18 26.278 4.172 29.773 C4.17 32.192 4.169 34.61 4.168 37.029 C4.164 43.404 4.154 49.78 4.143 56.155 C4.133 62.657 4.128 69.158 4.123 75.66 C4.112 88.424 4.095 101.189 4.074 113.953 C5.174 113.883 6.274 113.813 7.408 113.742 C8.864 113.65 10.321 113.558 11.778 113.466 C12.501 113.42 13.225 113.374 13.97 113.326 C18.78 113.024 23.569 112.766 28.387 112.703 C29.6 112.677 30.813 112.652 32.062 112.625 C35.074 112.953 35.074 112.953 36.961 113.957 C38.762 117.185 38.605 120.538 38.574 124.141 C38.568 124.907 38.563 125.674 38.557 126.463 C38.398 131.496 37.769 135.284 34.852 139.508 C29.427 143.919 23.844 144.394 17.141 144.316 C16.304 144.317 15.467 144.317 14.605 144.318 C12.844 144.316 11.084 144.306 9.323 144.289 C6.648 144.266 3.974 144.269 1.299 144.275 C-0.421 144.27 -2.14 144.263 -3.859 144.254 C-4.649 144.255 -5.439 144.256 -6.253 144.257 C-12.222 144.182 -18.409 143.874 -23.301 140.141 C-27.2 134.892 -27.21 130.066 -27.169 123.77 C-27.171 122.852 -27.172 121.934 -27.174 120.988 C-27.178 117.949 -27.167 114.91 -27.156 111.871 C-27.155 109.739 -27.155 107.606 -27.155 105.473 C-27.153 100.99 -27.145 96.507 -27.132 92.024 C-27.115 86.349 -27.111 80.673 -27.112 74.998 C-27.111 70.582 -27.106 66.166 -27.099 61.749 C-27.095 59.662 -27.093 57.574 -27.093 55.487 C-27.084 44.29 -26.939 33.105 -26.54 21.915 C-26.51 20.92 -26.48 19.925 -26.449 18.9 C-25.926 5.953 -25.926 5.953 -21.551 1.578 C-15.895 -1.923 -5.965 -3.243 0 0 Z " fill="#FCFCFC" transform="translate(734.92578125,417.046875)"/>
<path d="M0 0 C1.415 -0.002 2.831 -0.005 4.246 -0.009 C7.2 -0.013 10.155 -0.007 13.109 0.007 C16.892 0.024 20.675 0.015 24.457 -0.003 C27.375 -0.014 30.293 -0.011 33.21 -0.003 C34.605 -0.001 36.001 -0.003 37.396 -0.01 C39.343 -0.018 41.291 -0.004 43.239 0.01 C44.899 0.014 44.899 0.014 46.593 0.017 C49.808 0.445 51.206 1.085 53.457 3.398 C53.883 6.727 53.883 6.727 53.77 10.648 C53.733 12.574 53.733 12.574 53.695 14.539 C53.062 24.793 53.062 24.793 50.582 27.273 C47.444 28.935 44.944 29.522 41.445 29.496 C40.309 29.491 40.309 29.491 39.15 29.486 C38.365 29.478 37.579 29.47 36.77 29.461 C35.972 29.456 35.175 29.452 34.354 29.447 C32.388 29.435 30.423 29.418 28.457 29.398 C28.461 30.508 28.466 31.618 28.47 32.761 C28.511 43.237 28.541 53.712 28.561 64.188 C28.571 69.573 28.585 74.958 28.608 80.343 C28.63 85.543 28.642 90.743 28.647 95.943 C28.65 97.924 28.658 99.904 28.668 101.885 C28.683 104.666 28.685 107.447 28.684 110.229 C28.691 111.041 28.698 111.854 28.706 112.692 C28.685 118.388 28.435 124.553 25.085 129.371 C21.886 131.389 18.254 130.868 14.582 130.836 C13.779 130.856 12.976 130.876 12.148 130.896 C8.299 130.893 5.946 130.662 2.512 128.809 C-1.974 123.546 -1.829 117.115 -1.77 110.526 C-1.77 109.666 -1.771 108.807 -1.771 107.922 C-1.77 105.103 -1.754 102.284 -1.738 99.465 C-1.735 97.502 -1.732 95.539 -1.73 93.576 C-1.722 88.425 -1.702 83.275 -1.68 78.124 C-1.66 72.862 -1.651 67.6 -1.641 62.338 C-1.619 52.025 -1.585 41.712 -1.543 31.398 C-2.103 31.414 -2.663 31.43 -3.24 31.446 C-5.778 31.508 -8.316 31.547 -10.855 31.586 C-11.737 31.611 -12.618 31.636 -13.525 31.662 C-14.797 31.677 -14.797 31.677 -16.094 31.691 C-16.874 31.707 -17.654 31.723 -18.458 31.739 C-21.101 31.307 -21.927 30.498 -23.543 28.398 C-24.756 24.758 -24.765 21.378 -24.793 17.586 C-24.814 16.887 -24.834 16.187 -24.855 15.467 C-24.891 10.673 -24.357 7.316 -21.543 3.398 C-14.837 -0.664 -7.623 -0.038 0 0 Z " fill="#FCFCFC" transform="translate(290.54296875,430.6015625)"/>
<path d="M0 0 C10.89 0 21.78 0 33 0 C33.33 27.06 33.66 54.12 34 82 C35.65 82.33 37.3 82.66 39 83 C41.866 80.134 41.308 77.27 41.319 73.429 C41.334 72.258 41.334 72.258 41.349 71.064 C41.38 68.477 41.397 65.891 41.414 63.305 C41.433 61.514 41.452 59.723 41.473 57.932 C41.524 53.214 41.564 48.496 41.601 43.778 C41.641 38.965 41.692 34.152 41.742 29.34 C41.839 19.893 41.922 10.447 42 1 C49.59 1 57.18 1 65 1 C65.182 8.303 65.328 15.605 65.414 22.91 C65.456 26.303 65.512 29.695 65.604 33.088 C66.363 63.421 66.363 63.421 57 74 C55.042 75.394 53.046 76.739 51 78 C48.12 81.045 47.316 83.874 46.438 87.938 C46.06 89.666 46.06 89.666 45.676 91.43 C45.037 94.802 44.564 98.159 44.125 101.562 C43.183 108.219 40.857 113.949 38 120 C37.67 120 37.34 120 37 120 C36.023 114.629 35.047 109.258 34.07 103.887 C33.893 102.918 33.715 101.95 33.533 100.953 C33.173 98.961 32.825 96.968 32.487 94.973 C32.321 94.009 32.155 93.044 31.984 92.051 C31.767 90.756 31.767 90.756 31.546 89.435 C30.463 84.605 28.556 80.462 24.938 77.062 C19.793 74.241 14.112 74.159 8.516 75.672 C6.983 76.203 5.458 76.758 3.945 77.344 C2 78 2 78 -1 78 C-1.023 67.978 -1.041 57.955 -1.052 47.933 C-1.057 43.28 -1.064 38.627 -1.075 33.973 C-1.086 29.487 -1.092 25 -1.095 20.513 C-1.097 18.797 -1.1 17.082 -1.106 15.366 C-1.113 12.971 -1.114 10.577 -1.114 8.182 C-1.117 7.465 -1.121 6.749 -1.124 6.011 C-1.114 1.114 -1.114 1.114 0 0 Z " fill="#FBCF32" transform="translate(354,351)"/>
<path d="M0 0 C0.33 0 0.66 0 1 0 C1.177 25.795 0.862 51.583 0.5 77.375 C0.488 78.227 0.476 79.08 0.464 79.958 C0.314 90.639 0.159 101.319 0 112 C-3.63 112.33 -7.26 112.66 -11 113 C-11 111.35 -11 109.7 -11 108 C-18.26 108 -25.52 108 -33 108 C-33.495 109.98 -33.495 109.98 -34 112 C-32.389 113.611 -30.605 113.166 -28.379 113.211 C-27.444 113.239 -26.508 113.268 -25.545 113.297 C-23.561 113.349 -21.576 113.393 -19.592 113.43 C-18.655 113.461 -17.719 113.492 -16.754 113.523 C-15.891 113.543 -15.028 113.563 -14.139 113.583 C-13.433 113.721 -12.727 113.858 -12 114 C-11.01 115.485 -11.01 115.485 -10 117 C-11.468 117.164 -11.468 117.164 -12.965 117.332 C-20.284 118.2 -27.084 119.331 -34 122 C-34.33 121.34 -34.66 120.68 -35 120 C-31.629 118.502 -29.796 118 -26 118 C-26 117.34 -26 116.68 -26 116 C-27.733 116.031 -27.733 116.031 -29.5 116.062 C-32.516 116.073 -35.39 115.864 -38.375 115.438 C-41.826 114.683 -41.826 114.683 -44 116 C-44.408 110.815 -43.242 107.835 -40.75 103.312 C-40.4 102.677 -40.05 102.041 -39.69 101.386 C-33.246 89.875 -26.18 78.522 -18.207 68.008 C-16.812 65.688 -16.385 63.664 -16 61 C-20.962 62.244 -22.937 63.542 -25.625 67.875 C-26.299 68.95 -26.973 70.025 -27.668 71.133 C-28.447 72.421 -29.224 73.71 -30 75 C-30.954 76.56 -31.909 78.12 -32.863 79.68 C-43.491 97.027 -43.491 97.027 -53 115 C-57.741 113.647 -61.323 111.666 -65.375 108.875 C-66.435 108.151 -67.494 107.426 -68.586 106.68 C-69.383 106.125 -70.179 105.571 -71 105 C-61.439 80.248 -44.61 57.281 -29 36 C-28.495 35.311 -27.99 34.622 -27.469 33.912 C-18.869 22.225 -10.107 10.442 0 0 Z " fill="#FCFCFC" transform="translate(506,298)"/>
<path d="M0 0 C0.963 0.204 1.926 0.407 2.918 0.617 C4.442 0.647 5.968 0.641 7.492 0.609 C8.74 0.584 8.74 0.584 10.014 0.559 C11.753 0.514 13.493 0.462 15.232 0.402 C16.061 0.388 16.889 0.374 17.742 0.359 C18.873 0.326 18.873 0.326 20.026 0.292 C20.65 0.4 21.275 0.507 21.918 0.617 C24.443 4.404 24.199 7.415 24.177 11.801 C24.18 12.636 24.184 13.47 24.187 14.33 C24.196 17.095 24.19 19.86 24.184 22.625 C24.185 24.55 24.187 26.474 24.189 28.399 C24.192 32.439 24.188 36.479 24.179 40.52 C24.167 45.681 24.174 50.842 24.186 56.003 C24.193 59.982 24.191 63.961 24.186 67.94 C24.184 69.842 24.186 71.744 24.191 73.645 C24.196 76.316 24.188 78.986 24.177 81.657 C24.181 82.433 24.185 83.21 24.189 84.01 C24.139 90.627 23.668 97.127 19.793 102.641 C16.15 105.145 13.193 105.361 8.918 105.242 C8.219 105.262 7.521 105.281 6.801 105.301 C3.051 105.265 1.082 104.737 -1.957 102.516 C-5.906 97.13 -6.378 91.377 -6.325 84.869 C-6.327 84.128 -6.329 83.387 -6.331 82.623 C-6.334 80.192 -6.324 77.76 -6.312 75.328 C-6.311 73.62 -6.311 71.913 -6.311 70.205 C-6.31 66.629 -6.301 63.054 -6.288 59.478 C-6.271 54.929 -6.267 50.381 -6.268 45.832 C-6.268 42.304 -6.262 38.776 -6.255 35.248 C-6.252 33.573 -6.25 31.898 -6.249 30.223 C-6.227 7.058 -6.227 7.058 -5.082 1.617 C-2.082 -0.383 -2.082 -0.383 0 0 Z " fill="#FAFAFA" transform="translate(231.08203125,456.3828125)"/>
<path d="M0 0 C15.765 -1.033 15.765 -1.033 20.812 2.75 C22.52 4.297 22.52 4.297 24 6 C24.519 6.508 25.037 7.016 25.571 7.539 C27.748 11.289 27.394 14.822 27.341 19.083 C27.341 20.459 27.341 20.459 27.342 21.863 C27.34 24.893 27.316 27.923 27.293 30.953 C27.287 33.055 27.283 35.157 27.28 37.258 C27.269 42.789 27.239 48.319 27.206 53.849 C27.175 59.493 27.162 65.137 27.146 70.781 C27.114 81.854 27.063 92.927 27 104 C26.525 103.588 26.049 103.176 25.56 102.752 C24.933 102.211 24.307 101.671 23.661 101.114 C23.042 100.579 22.422 100.043 21.783 99.491 C19.684 97.735 17.495 96.221 15.188 94.75 C12.85 93.253 10.968 91.968 9 90 C10.114 89.876 11.227 89.752 12.375 89.625 C16.031 89.353 16.031 89.353 18 87 C18.167 83.917 18.167 83.917 18 81 C14.439 79.813 11.027 79.649 7.312 79.438 C6.611 79.394 5.909 79.351 5.186 79.307 C3.457 79.201 1.729 79.1 0 79 C0 75.04 0 71.08 0 67 C1.132 66.951 2.264 66.902 3.43 66.852 C4.911 66.777 6.393 66.701 7.875 66.625 C8.621 66.594 9.368 66.563 10.137 66.531 C14.535 66.444 14.535 66.444 18 64 C17.835 61.425 17.835 61.425 17 59 C13.958 57.479 10.72 57.626 7.375 57.438 C6.315 57.373 6.315 57.373 5.234 57.307 C3.49 57.201 1.745 57.1 0 57 C0 53.37 0 49.74 0 46 C1.048 45.951 2.096 45.902 3.176 45.852 C4.555 45.777 5.934 45.701 7.312 45.625 C8.003 45.594 8.693 45.563 9.404 45.531 C13.07 45.319 14.879 45.081 18 43 C17.67 41.02 17.34 39.04 17 37 C11.39 36.67 5.78 36.34 0 36 C0 32.04 0 28.08 0 24 C1.132 23.951 2.264 23.902 3.43 23.852 C4.911 23.777 6.393 23.701 7.875 23.625 C8.621 23.594 9.368 23.563 10.137 23.531 C14.535 23.444 14.535 23.444 18 21 C17.71 17.693 17.71 17.693 16 15 C13.308 14.763 10.635 14.578 7.938 14.438 C7.179 14.394 6.42 14.351 5.639 14.307 C3.759 14.2 1.88 14.1 0 14 C0 9.38 0 4.76 0 0 Z " fill="#FBCE2C" transform="translate(658,338)"/>
<path d="M0 0 C0.762 -0.031 1.524 -0.062 2.309 -0.094 C5.753 0.814 6.646 2.531 8.562 5.5 C9.956 8.384 11.147 11.33 12.312 14.312 C12.628 15.101 12.944 15.889 13.27 16.701 C14.041 18.631 14.803 20.565 15.562 22.5 C17.799 18.15 19.898 13.857 21.562 9.25 C24.296 2.442 24.296 2.442 27.562 0.5 C30.634 0.025 33.51 -0.124 36.562 0.5 C38.507 2.04 39.449 2.936 39.943 5.397 C39.947 6.466 39.947 6.466 39.951 7.557 C39.96 8.368 39.97 9.179 39.979 10.014 C39.973 10.886 39.967 11.758 39.961 12.656 C39.964 13.555 39.967 14.454 39.97 15.38 C39.972 17.279 39.966 19.179 39.954 21.079 C39.938 23.989 39.953 26.898 39.973 29.809 C39.971 31.654 39.967 33.499 39.961 35.344 C39.97 36.652 39.97 36.652 39.979 37.986 C39.97 38.797 39.96 39.608 39.951 40.443 C39.948 41.156 39.946 41.869 39.943 42.603 C39.441 45.106 38.602 45.996 36.562 47.5 C32.875 47.688 32.875 47.688 29.562 47.5 C28.388 45.151 28.362 43.549 28.246 40.93 C28.204 40.034 28.162 39.138 28.119 38.215 C28.08 37.278 28.041 36.341 28 35.375 C27.957 34.43 27.914 33.485 27.869 32.512 C27.763 30.175 27.661 27.837 27.562 25.5 C27.164 26.62 26.766 27.74 26.355 28.895 C25.821 30.367 25.286 31.84 24.75 33.312 C24.489 34.05 24.228 34.788 23.959 35.549 C23.698 36.261 23.437 36.973 23.168 37.707 C22.932 38.362 22.697 39.016 22.454 39.691 C21.43 41.768 20.335 43.017 18.562 44.5 C16.125 45.062 16.125 45.062 13.562 44.5 C8.794 39.285 6.93 32.04 4.562 25.5 C4.543 26.095 4.523 26.691 4.502 27.304 C4.407 29.995 4.298 32.685 4.188 35.375 C4.141 36.781 4.141 36.781 4.094 38.215 C4.036 39.559 4.036 39.559 3.977 40.93 C3.945 41.757 3.914 42.585 3.881 43.437 C3.562 45.5 3.562 45.5 1.562 47.5 C-1.938 47.812 -1.938 47.812 -5.438 47.5 C-7.463 44.462 -7.69 43.856 -7.712 40.443 C-7.722 39.632 -7.731 38.821 -7.741 37.986 C-7.74 37.114 -7.739 36.242 -7.738 35.344 C-7.743 34.445 -7.747 33.546 -7.751 32.62 C-7.757 30.721 -7.758 28.821 -7.753 26.921 C-7.75 24.011 -7.773 21.102 -7.799 18.191 C-7.801 16.346 -7.802 14.501 -7.801 12.656 C-7.81 11.784 -7.819 10.912 -7.829 10.014 C-7.822 9.203 -7.816 8.392 -7.81 7.557 C-7.81 6.844 -7.811 6.131 -7.812 5.397 C-6.962 1.089 -4.034 0.054 0 0 Z " fill="#060607" transform="translate(414.4375,810.5)"/>
<path d="M0 0 C0.965 -0.041 1.93 -0.082 2.924 -0.125 C10.278 -0.204 14.906 1.63 20.438 6.5 C24.631 12.004 24.668 17.586 24.75 24.25 C24.779 25.023 24.808 25.797 24.838 26.594 C24.907 32.946 23.416 38.275 19.025 43.03 C12.972 48.37 7.533 48.842 -0.188 48.812 C-1.475 48.837 -1.475 48.837 -2.789 48.861 C-3.614 48.862 -4.439 48.863 -5.289 48.863 C-6.038 48.866 -6.786 48.869 -7.557 48.872 C-10.158 48.389 -10.92 47.548 -12.562 45.5 C-12.937 43.52 -12.937 43.52 -12.935 41.244 C-12.941 40.39 -12.947 39.535 -12.954 38.655 C-12.944 37.737 -12.935 36.818 -12.926 35.871 C-12.926 34.926 -12.927 33.98 -12.927 33.006 C-12.925 31.008 -12.915 29.01 -12.899 27.012 C-12.875 23.946 -12.878 20.881 -12.885 17.814 C-12.879 15.875 -12.872 13.936 -12.863 11.996 C-12.864 11.075 -12.865 10.154 -12.866 9.206 C-12.857 8.355 -12.847 7.504 -12.837 6.627 C-12.833 5.876 -12.828 5.126 -12.823 4.353 C-11.991 -1.558 -4.469 0.046 0 0 Z " fill="#050505" transform="translate(519.5625,809.5)"/>
<path d="M0 0 C1.143 0.064 1.143 0.064 2.309 0.129 C3.073 0.148 3.837 0.168 4.625 0.188 C7.318 0.827 8.081 1.478 9.746 3.691 C13.212 10.631 15.968 17.849 18.027 25.324 C18.812 27.909 19.814 30.332 20.871 32.816 C22.666 37.218 23.662 40.921 23.746 45.691 C22.684 47.691 22.684 47.691 20.746 48.691 C17.809 49.254 17.809 49.254 14.746 48.691 C10.746 43.849 10.746 43.849 10.746 40.691 C5.466 40.691 0.186 40.691 -5.254 40.691 C-5.914 42.671 -6.574 44.651 -7.254 46.691 C-9.254 48.691 -9.254 48.691 -12.254 48.941 C-15.254 48.691 -15.254 48.691 -17.254 46.691 C-18.266 38.552 -15.543 31.613 -12.774 24.097 C-12.004 22.004 -11.258 19.902 -10.516 17.799 C-4.62 1.417 -4.62 1.417 0 0 Z " fill="#080809" transform="translate(594.25390625,809.30859375)"/>
<path d="M0 0 C1.072 0.004 2.145 0.008 3.25 0.012 C4.412 0.014 5.574 0.016 6.771 0.018 C7.99 0.031 9.209 0.043 10.465 0.055 C12.299 0.056 12.299 0.056 14.17 0.057 C23.262 0.103 23.262 0.103 24.402 1.243 C24.605 3.239 24.605 3.239 24.652 5.68 C24.678 6.484 24.704 7.287 24.73 8.114 C24.622 8.817 24.514 9.519 24.402 10.243 C20.721 12.697 17.959 12.471 13.715 12.368 C13.013 12.359 12.311 12.35 11.588 12.341 C9.859 12.317 8.13 12.281 6.402 12.243 C6.732 14.553 7.062 16.863 7.402 19.243 C8.468 19.334 8.468 19.334 9.554 19.427 C10.474 19.51 11.393 19.594 12.34 19.68 C13.714 19.802 13.714 19.802 15.117 19.927 C17.402 20.243 17.402 20.243 18.402 21.243 C18.675 26.979 18.675 26.979 18.402 29.243 C16.402 31.243 16.402 31.243 14.019 31.438 C13.114 31.415 12.209 31.392 11.277 31.368 C9.912 31.341 9.912 31.341 8.519 31.313 C7.821 31.29 7.122 31.267 6.402 31.243 C6.732 32.563 7.062 33.883 7.402 35.243 C8.45 35.269 9.498 35.294 10.578 35.321 C11.957 35.377 13.336 35.435 14.715 35.493 C15.75 35.514 15.75 35.514 16.806 35.536 C20.092 35.695 21.942 35.798 24.355 38.13 C25.67 40.783 25.926 42.322 25.402 45.243 C22.322 48.228 20.048 48.627 15.832 48.641 C14.24 48.647 14.24 48.647 12.617 48.653 C11.515 48.641 10.413 48.63 9.277 48.618 C8.167 48.63 7.057 48.641 5.914 48.653 C4.855 48.649 3.797 48.645 2.707 48.641 C1.737 48.638 0.768 48.635 -0.231 48.631 C-1.012 48.503 -1.793 48.375 -2.598 48.243 C-4.661 45.149 -4.849 44.488 -4.857 40.987 C-4.863 40.133 -4.869 39.278 -4.876 38.398 C-4.872 37.479 -4.868 36.561 -4.864 35.614 C-4.866 34.196 -4.866 34.196 -4.869 32.749 C-4.871 30.751 -4.867 28.753 -4.859 26.755 C-4.848 23.689 -4.859 20.623 -4.871 17.557 C-4.87 15.618 -4.867 13.678 -4.864 11.739 C-4.87 10.358 -4.87 10.358 -4.876 8.949 C-4.869 8.098 -4.863 7.246 -4.857 6.37 C-4.855 5.619 -4.854 4.869 -4.852 4.096 C-4.412 0.89 -3.071 0.287 0 0 Z " fill="#050505" transform="translate(470.597900390625,809.757080078125)"/>
<path d="M0 0 C3.63 0 7.26 0 11 0 C11 29.37 11 58.74 11 89 C5.555 89.99 5.555 89.99 0 91 C0 60.97 0 30.94 0 0 Z " fill="#F08211" transform="translate(637,338)"/>
<path d="M0 0 C0 17.82 0 35.64 0 54 C-3.3 54.66 -6.6 55.32 -10 56 C-11.65 56.66 -13.3 57.32 -15 58 C-15 39.19 -15 20.38 -15 1 C-7 0 -7 0 0 0 Z " fill="#FEFEFE" transform="translate(340,465)"/>
<path d="M0 0 C4.529 2.087 8.258 5.287 10 10 C10.677 16.228 10.732 21.724 7 27 C2.345 31.201 -0.533 32.36 -6.684 32.281 C-11.485 31.698 -14.236 28.867 -17.312 25.375 C-20.621 20.719 -20.621 16.605 -20 11 C-15.746 2.491 -9.289 -1.353 0 0 Z " fill="#F9F9F9" transform="translate(246,421)"/>
<path d="M0 0 C0 29.04 0 58.08 0 88 C-4.701 85.65 -6.685 79.632 -8.303 74.878 C-10.739 64.817 -9.984 53.78 -9.858 43.482 C-9.812 39.728 -9.825 35.977 -9.855 32.223 C-9.873 29.305 -9.862 26.389 -9.842 23.472 C-9.835 22.088 -9.837 20.704 -9.848 19.319 C-9.914 7.279 -9.914 7.279 -6.135 2.602 C-3.821 0.263 -3.427 0 0 0 Z " fill="#FBC021" transform="translate(629,340)"/>
<path d="M0 0 C0.66 0 1.32 0 2 0 C2.002 0.656 2.005 1.312 2.007 1.987 C2.067 18.043 2.142 34.098 2.236 50.153 C2.28 57.917 2.32 65.682 2.346 73.447 C2.37 80.225 2.403 87.003 2.449 93.781 C2.472 97.36 2.491 100.94 2.498 104.519 C1.32 129.853 1.32 129.853 7 154 C7.072 156.718 7.093 159.409 7.062 162.125 C7.058 162.879 7.053 163.633 7.049 164.41 C7.037 166.273 7.019 168.137 7 170 C6.34 170.33 5.68 170.66 5 171 C4.89 169.716 4.781 168.432 4.668 167.109 C3.843 157.758 2.907 148.425 1.625 139.125 C1.523 138.313 1.422 137.5 1.317 136.663 C0.423 130.51 -1.322 125.434 -6.062 121.125 C-10.583 119.394 -15.195 119.244 -20 119 C-20 118.67 -20 118.34 -20 118 C-16.535 117.505 -16.535 117.505 -13 117 C-13 116.67 -13 116.34 -13 116 C-13.595 115.98 -14.191 115.96 -14.804 115.94 C-17.495 115.845 -20.185 115.735 -22.875 115.625 C-23.812 115.594 -24.749 115.563 -25.715 115.531 C-26.611 115.493 -27.507 115.454 -28.43 115.414 C-29.671 115.367 -29.671 115.367 -30.937 115.319 C-33 115 -33 115 -35 113 C-34.464 109.464 -34.464 109.464 -33 108 C-31.535 107.901 -30.066 107.869 -28.598 107.867 C-27.708 107.866 -26.817 107.865 -25.9 107.863 C-24.496 107.869 -24.496 107.869 -23.062 107.875 C-22.13 107.871 -21.197 107.867 -20.236 107.863 C-19.345 107.865 -18.454 107.866 -17.535 107.867 C-16.714 107.868 -15.893 107.869 -15.047 107.871 C-13 108 -13 108 -11 109 C-11 110.65 -11 112.3 -11 114 C-5.555 113.505 -5.555 113.505 0 113 C0 75.71 0 38.42 0 0 Z " fill="#F4F5F7" transform="translate(506,297)"/>
<path d="M0 0 C3.5 0.25 3.5 0.25 5.5 2.25 C5.761 4.103 5.761 4.103 5.775 6.377 C5.784 7.228 5.794 8.079 5.804 8.956 C5.803 9.877 5.802 10.797 5.801 11.746 C5.805 12.691 5.809 13.635 5.814 14.608 C5.82 16.608 5.82 18.608 5.816 20.608 C5.813 23.672 5.836 26.735 5.861 29.799 C5.864 31.74 5.864 33.68 5.863 35.621 C5.872 36.54 5.882 37.459 5.891 38.405 C5.885 39.26 5.879 40.114 5.872 40.994 C5.873 41.745 5.874 42.496 5.874 43.27 C5.389 45.836 4.595 46.721 2.5 48.25 C-1.188 48.438 -1.188 48.438 -4.5 48.25 C-5.657 45.936 -5.633 44.591 -5.645 42.016 C-5.652 41.141 -5.658 40.267 -5.665 39.366 C-5.666 38.42 -5.667 37.475 -5.668 36.5 C-5.671 35.531 -5.675 34.562 -5.678 33.563 C-5.683 31.512 -5.685 29.461 -5.685 27.41 C-5.687 24.263 -5.706 21.116 -5.725 17.969 C-5.728 15.979 -5.73 13.99 -5.73 12 C-5.738 11.054 -5.745 10.108 -5.752 9.134 C-5.749 8.259 -5.746 7.385 -5.743 6.484 C-5.745 5.328 -5.745 5.328 -5.747 4.147 C-5.255 0.368 -3.538 0.253 0 0 Z " fill="#040404" transform="translate(560.5,809.75)"/>
<path d="M0 0 C3.242 0.287 4.677 0.674 7 3.02 C7.99 4.402 7.99 4.402 9 5.812 C9.373 6.331 9.746 6.849 10.131 7.384 C18.771 19.566 26.712 32.267 34.293 45.129 C35.476 47.118 36.716 49.074 38 51 C37.625 53.688 37.625 53.688 37 56 C34.723 55.836 34.723 55.836 32 55 C30.184 52.727 30.184 52.727 28.438 49.625 C27.748 48.438 27.056 47.252 26.363 46.066 C25.989 45.417 25.615 44.767 25.229 44.098 C22.946 40.2 20.534 36.383 18.125 32.562 C17.616 31.755 17.108 30.947 16.584 30.115 C11.502 22.109 6.196 14.154 0.203 6.793 C-1 5 -1 5 -0.688 2.25 C-0.461 1.507 -0.234 0.765 0 0 Z " fill="#0A0C0C" transform="translate(540,358)"/>
<path d="M0 0 C0.728 0.124 1.457 0.248 2.207 0.375 C2.207 5.585 0.792 8.24 -2.383 12.363 C-6.788 18.269 -10.605 24.414 -14.355 30.75 C-15.007 31.843 -15.659 32.935 -16.331 34.061 C-20.266 40.691 -24.075 47.353 -27.594 54.215 C-28.793 56.375 -28.793 56.375 -30.793 58.375 C-32.918 58 -32.918 58 -34.793 57.375 C-34.371 50.959 -32.024 46.464 -28.855 40.938 C-28.362 40.061 -27.868 39.184 -27.36 38.281 C-22.747 30.155 -17.924 22.183 -12.793 14.375 C-12.355 13.7 -11.918 13.026 -11.467 12.331 C-10.159 10.331 -8.825 8.351 -7.48 6.375 C-7.084 5.769 -6.688 5.162 -6.279 4.538 C-3.43 0.461 -3.43 0.461 0 0 Z " fill="#0B0B0C" transform="translate(487.79296875,358.625)"/>
<path d="M0 0 C1.057 0.015 2.114 0.031 3.203 0.047 C5.75 0.25 5.75 0.25 6.75 1.25 C7.44 5.244 7.471 8.824 5.621 12.484 C2.615 16.66 -0.527 20.07 -5.25 22.25 C-8.66 22.762 -11.877 23.039 -15.25 22.25 C-17.636 19.774 -18.216 18.425 -18.875 15 C-17.85 8.85 -13.822 5.133 -8.902 1.531 C-5.724 -0.004 -3.513 -0.087 0 0 Z " fill="#080809" transform="translate(652.25,503.75)"/>
<path d="M0 0 C9 0 9 0 12.062 1.625 C15.237 7.154 14.896 12.794 14 19 C12.062 22.375 12.062 22.375 9 24 C6.03 24 3.06 24 0 24 C0 16.08 0 8.16 0 0 Z " fill="#F0F1F1" transform="translate(518,822)"/>
<path d="M0 0 C1.875 0.312 1.875 0.312 4 1 C7.032 5.549 6.329 10.025 6.312 15.375 C6.329 16.417 6.345 17.458 6.361 18.531 C6.367 27.966 6.367 27.966 3 32 C0.625 31.688 0.625 31.688 -2 31 C-5.032 26.452 -4.368 21.976 -4.375 16.625 C-4.399 15.583 -4.424 14.542 -4.449 13.469 C-4.479 5.763 -4.479 5.763 -1.977 1.773 C-1.324 1.188 -0.672 0.603 0 0 Z " fill="#101011" transform="translate(514,145)"/>
<path d="M0 0 C6.278 0.211 9.308 2.273 13.75 6.312 C14.595 7.042 14.595 7.042 15.457 7.787 C18.309 10.292 21.029 12.734 23 16 C22.59 20.41 22.59 20.41 21 22 C14.515 21.853 11.362 19.413 6.688 15.125 C6.068 14.582 5.449 14.04 4.811 13.48 C2.1 11.073 0.03 9.045 -2 6 C-1.459 1.459 -1.459 1.459 0 0 Z " fill="#0D0D0D" transform="translate(438,184)"/>
<path d="M0 0 C1.354 -0.024 1.354 -0.024 2.734 -0.049 C3.606 -0.049 4.477 -0.05 5.375 -0.051 C6.166 -0.054 6.958 -0.057 7.773 -0.06 C10.515 0.399 11.92 1.517 14 3.312 C13.75 5.688 13.75 5.688 13 8.312 C8.638 11.149 4.027 10.68 -1 10.688 C-1.902 10.712 -2.805 10.736 -3.734 10.762 C-10.336 10.791 -10.336 10.791 -13.625 8.422 C-15 6.312 -15 6.312 -15 4.188 C-12.14 -1.175 -5.209 -0.019 0 0 Z " fill="#141415" transform="translate(601,233.6875)"/>
<path d="M0 0 C3.1 0.155 4.537 0.513 6.695 2.785 C11.206 9.97 14.875 16.254 14 25 C12 27 12 27 9.375 27.125 C8.591 27.084 7.808 27.042 7 27 C4.976 23.012 2.978 19.011 1 15 C0.648 14.292 0.296 13.585 -0.066 12.855 C-1.813 9.118 -2.478 6.115 -2 2 C-1.34 1.34 -0.68 0.68 0 0 Z " fill="#0D0D0E" transform="translate(473,158)"/>
<path d="M0 0 C0.958 -0.003 1.916 -0.006 2.902 -0.01 C9.983 0.045 9.983 0.045 12.25 2.312 C12.5 4.812 12.5 4.812 12.25 7.312 C8.605 10.958 2.695 9.893 -2.25 10.062 C-3.417 10.118 -4.583 10.173 -5.785 10.23 C-6.898 10.273 -8.01 10.316 -9.156 10.359 C-10.692 10.419 -10.692 10.419 -12.26 10.479 C-14.75 10.312 -14.75 10.312 -16.75 8.312 C-16.875 5.688 -16.875 5.688 -16.75 3.312 C-11.202 -0.215 -6.349 -0.109 0 0 Z " fill="#0C0C0D" transform="translate(434.75,233.6875)"/>
<path d="M0 0 C2 2 2 2 2.062 4.188 C-0.83 11.843 -10.086 18.188 -17 22 C-19.244 21.784 -20.404 21.596 -22 20 C-22.348 17.75 -22.348 17.75 -22 15 C-17.443 9.132 -8.275 -1.655 0 0 Z " fill="#09090A" transform="translate(594,184)"/>
<path d="M0 0 C4.875 0.875 4.875 0.875 6 2 C5.565 7.177 4.236 11.432 2.188 16.188 C1.686 17.377 1.185 18.567 0.668 19.793 C-0.935 22.876 -2.283 24.854 -5 27 C-7.75 26.75 -7.75 26.75 -10 26 C-10.782 17.867 -8.179 10.622 -3.555 3.898 C-2.432 2.545 -1.226 1.261 0 0 Z " fill="#0C0C0D" transform="translate(554,158)"/>
<path d="M0 0 C0.66 0 1.32 0 2 0 C2.002 0.656 2.005 1.312 2.007 1.987 C2.067 18.043 2.142 34.098 2.236 50.153 C2.28 57.917 2.32 65.682 2.346 73.447 C2.37 80.225 2.403 87.003 2.449 93.781 C2.472 97.36 2.491 100.94 2.498 104.519 C1.32 129.853 1.32 129.853 7 154 C7.072 156.718 7.093 159.409 7.062 162.125 C7.058 162.879 7.053 163.633 7.049 164.41 C7.037 166.273 7.019 168.137 7 170 C6.34 170.33 5.68 170.66 5 171 C4.89 169.728 4.781 168.455 4.668 167.145 C4.508 165.367 4.348 163.59 4.188 161.812 C4.117 160.987 4.047 160.161 3.975 159.311 C3.56 154.783 3.074 150.299 2.283 145.822 C-0.288 130.82 -0.4 116.006 -0.304 100.822 C-0.285 97.263 -0.284 93.703 -0.28 90.144 C-0.271 83.44 -0.246 76.737 -0.216 70.033 C-0.182 62.386 -0.166 54.739 -0.151 47.091 C-0.12 31.394 -0.067 15.697 0 0 Z " fill="#393C42" transform="translate(506,297)"/>
<path d="M0 0 C7.391 0.329 14.755 3.755 20 9 C19.444 13.556 19.444 13.556 18 15 C12.868 15.509 9.685 14.223 5.188 11.812 C4.047 11.221 2.906 10.629 1.73 10.02 C-1 8 -1 8 -2.012 5.449 C-2 3 -2 3 0 0 Z " fill="#101010" transform="translate(584,271)"/>
<path d="M0 0 C0.66 0.66 1.32 1.32 2 2 C1.922 4.426 1.922 4.426 1 7 C-1.109 8.73 -1.109 8.73 -3.75 10.188 C-4.611 10.676 -5.472 11.165 -6.359 11.668 C-10.744 13.88 -14.039 15.283 -19 15 C-19.66 13.68 -20.32 12.36 -21 11 C-16.707 4.05 -8.191 -0.865 0 0 Z " fill="#0E0E0F" transform="translate(449,271)"/>
<path d="M0 0 C1.03 -0.001 2.06 -0.003 3.121 -0.004 C4.747 0.002 4.747 0.002 6.406 0.008 C7.49 0.004 8.574 0 9.691 -0.004 C10.721 -0.003 11.751 -0.001 12.812 0 C14.24 0.002 14.24 0.002 15.697 0.003 C17.906 0.133 17.906 0.133 18.906 1.133 C18.947 2.799 18.949 4.467 18.906 6.133 C15.019 8.076 10.181 7.318 5.906 7.32 C4.883 7.333 3.859 7.345 2.805 7.357 C1.339 7.36 1.339 7.36 -0.156 7.363 C-1.055 7.367 -1.953 7.371 -2.879 7.376 C-5.094 7.133 -5.094 7.133 -7.094 5.133 C-6.315 -0.004 -4.927 0.006 0 0 Z " fill="#101313" transform="translate(543.09375,404.8671875)"/>
<path d="M0 0 C0.89 -0.001 1.78 -0.003 2.697 -0.004 C3.634 -0 4.57 0.004 5.535 0.008 C6.468 0.004 7.4 0 8.361 -0.004 C9.253 -0.003 10.144 -0.001 11.062 0 C11.884 0.001 12.705 0.002 13.551 0.003 C15.598 0.133 15.598 0.133 17.598 1.133 C16.723 6.008 16.723 6.008 15.598 7.133 C12.292 7.383 8.974 7.318 5.66 7.32 C4.261 7.339 4.261 7.339 2.834 7.357 C1.943 7.359 1.051 7.361 0.133 7.363 C-0.688 7.367 -1.509 7.371 -2.355 7.376 C-4.402 7.133 -4.402 7.133 -6.402 5.133 C-5.681 0.369 -4.616 0.006 0 0 Z " fill="#111112" transform="translate(477.40234375,404.8671875)"/>
<path d="M0 0 C0.577 0.227 1.155 0.454 1.75 0.688 C0.805 7.753 -4.362 12.102 -9.438 16.75 C-12.25 18.688 -12.25 18.688 -14.625 18.5 C-15.161 18.232 -15.697 17.964 -16.25 17.688 C-15.764 13.087 -14.059 10.904 -10.938 7.562 C-9.768 6.29 -9.768 6.29 -8.574 4.992 C-3.105 -0.431 -3.105 -0.431 0 0 Z " fill="#151415" transform="translate(731.25,319.3125)"/>
<path d="M0 0 C4.036 0.379 6.186 2.693 9.062 5.375 C10.348 6.562 10.348 6.562 11.66 7.773 C12.432 8.508 13.204 9.243 14 10 C14.593 10.535 15.186 11.07 15.797 11.621 C17 13 17 13 17.188 15.688 C17.095 16.832 17.095 16.832 17 18 C15.2 18.656 15.2 18.656 13 19 C11.368 18.028 11.368 18.028 9.801 16.508 C9.232 15.968 8.663 15.428 8.076 14.871 C7.494 14.295 6.912 13.719 6.312 13.125 C5.719 12.557 5.125 11.988 4.514 11.402 C-0.994 6.114 -0.994 6.114 -1.125 3.5 C-1 1 -1 1 0 0 Z " fill="#141415" transform="translate(298,319)"/>
<path d="M0 0 C2.643 2.643 2.959 5.407 3.75 8.938 C5.992 18.455 8.97 27.709 12 37 C11.34 37 10.68 37 10 37 C8.633 35.391 8.633 35.391 7.125 33.25 C5.496 30.947 4.078 29.067 1.922 27.232 C-0.549 24.363 -0.467 22.883 -0.391 19.141 C-0.378 18.026 -0.365 16.911 -0.352 15.762 C-0.318 14.603 -0.285 13.444 -0.25 12.25 C-0.232 11.076 -0.214 9.901 -0.195 8.691 C-0.148 5.793 -0.082 2.897 0 0 Z " fill="#DFBC2B" transform="translate(354,503)"/>
<path d="M0 0 C2.355 0.086 2.355 0.086 5 1 C9.126 6.674 11.961 12.956 11 20 C8.703 19.855 8.703 19.855 6 19 C4.234 16.488 4.234 16.488 2.75 13.312 C2.25 12.277 1.75 11.242 1.234 10.176 C0.026 7.067 -0.67 4.314 -1 1 C-0.67 0.67 -0.34 0.34 0 0 Z " fill="#0B0B0C" transform="translate(336,288)"/>
<path d="M0 0 C0.66 0 1.32 0 2 0 C4.072 9.631 4.189 18.924 3.977 28.703 C3.95 30.278 3.925 31.852 3.901 33.427 C3.835 37.531 3.756 41.634 3.674 45.737 C3.592 49.94 3.523 54.144 3.453 58.348 C3.314 66.565 3.162 74.783 3 83 C2.67 83 2.34 83 2 83 C1.992 82.082 1.984 81.164 1.975 80.218 C1.898 71.566 1.81 62.914 1.712 54.262 C1.663 49.814 1.616 45.366 1.578 40.918 C1.541 36.626 1.495 32.333 1.442 28.041 C1.423 26.403 1.408 24.765 1.397 23.127 C1.38 20.834 1.351 18.541 1.319 16.247 C1.299 14.288 1.299 14.288 1.278 12.29 C1.016 9.187 0.476 7.652 -1 5 C-0.625 2.25 -0.625 2.25 0 0 Z " fill="#6B6B6D" transform="translate(258,448)"/>
<path d="M0 0 C0.33 0 0.66 0 1 0 C1 23.76 1 47.52 1 72 C-6 66 -6 66 -8 63 C-7.216 63.33 -6.433 63.66 -5.625 64 C-3.157 65.119 -3.157 65.119 -1 65 C-0.67 43.55 -0.34 22.1 0 0 Z " fill="#EFC92E" transform="translate(684,370)"/>
<path d="M0 0 C0.33 0 0.66 0 1 0 C1.037 1.2 1.075 2.4 1.113 3.637 C1.464 13.043 2.153 22.305 3.5 31.625 C3.631 32.531 3.761 33.437 3.896 34.37 C4.483 38.825 4.483 38.825 6 43 C6.072 45.718 6.093 48.409 6.062 51.125 C6.058 51.879 6.053 52.633 6.049 53.41 C6.037 55.273 6.019 57.137 6 59 C5.01 59.495 5.01 59.495 4 60 C3.89 58.728 3.781 57.455 3.668 56.145 C3.509 54.367 3.349 52.59 3.188 50.812 C3.102 49.867 3.017 48.922 2.928 47.948 C2.385 42.232 1.656 36.588 0.735 30.921 C-0.971 20.383 -1.076 10.613 0 0 Z " fill="#869293" transform="translate(507,408)"/>
<path d="M0 0 C1.014 0.027 2.029 0.054 3.074 0.082 C4.042 0.122 5.01 0.162 6.008 0.203 C7.336 0.252 7.336 0.252 8.692 0.302 C10.875 0.75 10.875 0.75 12.875 3.75 C11.897 3.86 10.918 3.969 9.91 4.082 C2.591 4.95 -4.209 6.081 -11.125 8.75 C-11.455 8.09 -11.785 7.43 -12.125 6.75 C-8.754 5.252 -6.921 4.75 -3.125 4.75 C-3.125 4.09 -3.125 3.43 -3.125 2.75 C-4.363 2.791 -5.6 2.832 -6.875 2.875 C-10.141 2.887 -12.34 2.607 -15.125 0.75 C-10.117 -0.744 -5.166 -0.218 0 0 Z " fill="#E7FAFA" transform="translate(483.125,411.25)"/>
<path d="M0 0 C3.63 0.33 7.26 0.66 11 1 C11 3.97 11 6.94 11 10 C8 10 8 10 6 8.562 C1.531 6.235 -3.027 6.253 -8 6 C-8 5.67 -8 5.34 -8 5 C-4.535 4.505 -4.535 4.505 -1 4 C-0.67 2.68 -0.34 1.36 0 0 Z " fill="#C3DFE1" transform="translate(494,410)"/>
<path d="M0 0 C2.717 2.717 2.885 5.074 3.688 8.812 C3.959 10.036 4.231 11.259 4.512 12.52 C4.975 15.823 5.187 17.896 4 21 C2.02 21.99 2.02 21.99 0 23 C0 15.41 0 7.82 0 0 Z " fill="#FAD527" transform="translate(354,503)"/>
<path d="M0 0 C0.33 0 0.66 0 1 0 C1.74 4.91 2.47 9.821 3.191 14.734 C3.438 16.405 3.687 18.075 3.939 19.745 C4.301 22.146 4.654 24.55 5.004 26.953 C5.118 27.698 5.233 28.443 5.351 29.211 C5.851 32.706 6.261 35.642 5 39 C5 38.01 5 37.02 5 36 C4.34 36 3.68 36 3 36 C2.4 31.839 1.813 27.676 1.236 23.512 C1.038 22.098 0.838 20.684 0.634 19.27 C0.34 17.231 0.057 15.19 -0.223 13.148 C-0.395 11.923 -0.568 10.698 -0.746 9.435 C-0.995 6.064 -0.708 3.293 0 0 Z " fill="#B2D1CE" transform="translate(467,453)"/>
<path d="M0 0 C2.771 2.346 3.521 4.148 4.188 7.688 C4.346 8.496 4.505 9.304 4.668 10.137 C4.778 10.752 4.887 11.366 5 12 C2.36 12 -0.28 12 -3 12 C-2.401 7.805 -1.425 3.99 0 0 Z " fill="#E1E1E1" transform="translate(596,827)"/>
<path d="M0 0 C0.33 0 0.66 0 1 0 C1 5.94 1 11.88 1 18 C-5.75 12.375 -5.75 12.375 -8 9 C-6.824 9.495 -6.824 9.495 -5.625 10 C-3.157 11.119 -3.157 11.119 -1 11 C-0.67 7.37 -0.34 3.74 0 0 Z " fill="#E7C133" transform="translate(684,424)"/>
<path d="M0 0 C0.33 0 0.66 0 1 0 C1 4.95 1 9.9 1 15 C-1.66 13.67 -1.984 12.311 -3.188 9.625 C-3.552 8.834 -3.917 8.042 -4.293 7.227 C-5 5 -5 5 -4 2 C-3.34 3.32 -2.68 4.64 -2 6 C-1.34 4.02 -0.68 2.04 0 0 Z " fill="#ECC026" transform="translate(628,413)"/>
<path d="M0 0 C0.66 0 1.32 0 2 0 C2.33 3.3 2.66 6.6 3 10 C1.68 10.33 0.36 10.66 -1 11 C-2.601 6.998 -1.293 3.954 0 0 Z " fill="#AED0CE" transform="translate(533,534)"/>
<path d="M0 0 C1.666 -0.043 3.334 -0.041 5 0 C6 1 6 1 6.098 4.379 C6.091 5.773 6.079 7.168 6.062 8.562 C6.058 9.273 6.053 9.984 6.049 10.717 C6.037 12.478 6.019 14.239 6 16 C4.48 14.887 4.48 14.887 3 13 C2.926 10.082 2.926 10.082 3.312 6.812 C3.492 5.182 3.492 5.182 3.676 3.52 C3.783 2.688 3.89 1.857 4 1 C2.68 0.67 1.36 0.34 0 0 Z " fill="#DCF5F6" transform="translate(501,410)"/>
<path d="M0 0 C0.99 0.33 1.98 0.66 3 1 C2.67 3.97 2.34 6.94 2 10 C6.29 10 10.58 10 15 10 C15 10.33 15 10.66 15 11 C10.05 11 5.1 11 0 11 C0 7.37 0 3.74 0 0 Z " fill="#FDDA30" transform="translate(658,362)"/>
<path d="M0 0 C2.31 0.33 4.62 0.66 7 1 C7 1.33 7 1.66 7 2 C5.35 2 3.7 2 2 2 C2 4.64 2 7.28 2 10 C3.65 10 5.3 10 7 10 C7 10.33 7 10.66 7 11 C4.69 11 2.38 11 0 11 C0 7.37 0 3.74 0 0 Z " fill="#FED834" transform="translate(658,384)"/>
<path d="M0 0 C2.096 4.191 2.153 5.312 1.625 9.75 C1.514 10.735 1.403 11.72 1.289 12.734 C1.194 13.482 1.098 14.23 1 15 C0.01 15.33 -0.98 15.66 -2 16 C-1.34 10.72 -0.68 5.44 0 0 Z " fill="#BBD3D2" transform="translate(586,528)"/>
<path d="M0 0 C0.66 0 1.32 0 2 0 C1.913 2.126 1.805 4.251 1.688 6.375 C1.629 7.558 1.571 8.742 1.512 9.961 C1.343 10.964 1.174 11.967 1 13 C0.01 13.66 -0.98 14.32 -2 15 C-1.036 4.442 -1.036 4.442 0 0 Z " fill="#B2C8C7" transform="translate(439,447)"/>
<path d="M0 0 C2.18 3.271 2.221 3.764 1.75 7.438 C1.662 8.199 1.575 8.961 1.484 9.746 C0.98 12.094 0.163 13.908 -1 16 C-2.268 12.346 -1.757 9.509 -1.062 5.75 C-0.868 4.672 -0.673 3.595 -0.473 2.484 C-0.317 1.665 -0.161 0.845 0 0 Z " fill="#BCD4D4" transform="translate(436,465)"/>
<path d="M0 0 C0.33 0.99 0.66 1.98 1 3 C2.918 2.938 2.918 2.938 4.875 2.875 C7.055 2.805 7.055 2.805 9 3 C9.66 3.66 10.32 4.32 11 5 C6.38 5 1.76 5 -3 5 C-2.01 3.35 -1.02 1.7 0 0 Z " fill="#E1F9F6" transform="translate(579,410)"/>
<path d="M0 0 C2.09 4.181 2.227 4.588 1.125 8.75 C0.921 9.549 0.718 10.348 0.508 11.172 C0.34 11.775 0.173 12.378 0 13 C-0.99 13 -1.98 13 -3 13 C-2.01 8.71 -1.02 4.42 0 0 Z " fill="#C1D9D5" transform="translate(583,545)"/>
<path d="M0 0 C2.495 2.495 2.359 3.673 2.625 7.125 C2.7 8.035 2.775 8.945 2.852 9.883 C2.925 10.931 2.925 10.931 3 12 C2.01 12 1.02 12 0 12 C0 8.04 0 4.08 0 0 Z " fill="#DBC72B" transform="translate(354,503)"/>
<path d="M0 0 C0.33 0 0.66 0 1 0 C0.913 1.959 0.805 3.917 0.688 5.875 C0.629 6.966 0.571 8.056 0.512 9.18 C0.343 10.11 0.174 11.041 0 12 C-0.99 12.66 -1.98 13.32 -3 14 C-2.588 9.029 -2.204 4.555 0 0 Z " fill="#B8D0CF" transform="translate(429,511)"/>
<path d="M0 0 C0.33 0 0.66 0 1 0 C0.885 1.584 0.758 3.167 0.625 4.75 C0.521 6.073 0.521 6.073 0.414 7.422 C0.001 9.991 -0.712 11.758 -2 14 C-3.051 10.765 -2.919 8.603 -2.125 5.312 C-1.942 4.525 -1.759 3.737 -1.57 2.926 C-1 1 -1 1 0 0 Z " fill="#BBD3D1" transform="translate(602,437)"/>
<path d="M0 0 C0.66 0.66 1.32 1.32 2 2 C1.977 5.039 1.977 5.039 1.625 8.625 C1.514 9.814 1.403 11.002 1.289 12.227 C1.194 13.142 1.098 14.057 1 15 C0.34 14.67 -0.32 14.34 -1 14 C-1.027 12.417 -1.046 10.833 -1.062 9.25 C-1.074 8.368 -1.086 7.487 -1.098 6.578 C-1.008 4.218 -0.669 2.255 0 0 Z " fill="#E5C326" transform="translate(397,440)"/>
<path d="M0 0 C-0.349 3.255 -1.021 4.019 -3.562 6.25 C-4.367 6.827 -5.171 7.405 -6 8 C-6 4 -6 4 -4.125 1.75 C-2 0 -2 0 0 0 Z " fill="#E9B21A" transform="translate(628,340)"/>
<path d="M0 0 C0.99 0.33 1.98 0.66 3 1 C3 1.66 3 2.32 3 3 C3.928 3.371 3.928 3.371 4.875 3.75 C7.351 5.206 7.951 6.378 9 9 C5.181 7.444 2.74 5.044 0 2 C0 1.34 0 0.68 0 0 Z " fill="#E43891" transform="translate(481,281)"/>
<path d="M0 0 C0 1.98 0 3.96 0 6 C-2.64 4.68 -5.28 3.36 -8 2 C-8 1.67 -8 1.34 -8 1 C-1.125 0 -1.125 0 0 0 Z " fill="#E8BE1C" transform="translate(675,427)"/>
<path d="M0 0 C0.66 0 1.32 0 2 0 C2.928 4.333 2.928 7.667 2 12 C1.67 12 1.34 12 1 12 C1 9.03 1 6.06 1 3 C0.34 3 -0.32 3 -1 3 C-0.67 2.01 -0.34 1.02 0 0 Z " fill="#EED127" transform="translate(682,346)"/>
<path d="M0 0 C3.375 -0.125 3.375 -0.125 7 0 C7.66 0.66 8.32 1.32 9 2 C7.35 2.66 5.7 3.32 4 4 C4 3.34 4 2.68 4 2 C2.68 1.34 1.36 0.68 0 0 Z " fill="#B7D4D2" transform="translate(494,566)"/>
<path d="M0 0 C0.66 0 1.32 0 2 0 C2 2.97 2 5.94 2 9 C0.438 7.312 0.438 7.312 -1 5 C-0.688 2.25 -0.688 2.25 0 0 Z " fill="#C7C7C8" transform="translate(258,448)"/>
<path d="M0 0 C0.66 0.66 1.32 1.32 2 2 C-0.64 3.98 -3.28 5.96 -6 8 C-4.852 3.41 -3.71 2.663 0 0 Z " fill="#BEDDD8" transform="translate(571,415)"/>
<path d="M0 0 C0.66 0.33 1.32 0.66 2 1 C-1.465 3.97 -1.465 3.97 -5 7 C-5 6.01 -5 5.02 -5 4 C-2.5 1.812 -2.5 1.812 0 0 Z " fill="#D6F7F1" transform="translate(497,570)"/>
<path d="M0 0 C0.33 0 0.66 0 1 0 C1.33 2.97 1.66 5.94 2 9 C1.01 9.66 0.02 10.32 -1 11 C-0.67 7.37 -0.34 3.74 0 0 Z " fill="#E43899" transform="translate(471,244)"/>
</svg>