<svg version="1.1" xmlns="http://www.w3.org/2000/svg" width="1024" height="1024">
<path d="M0 0 C337.92 0 675.84 0 1024 0 C1024 337.92 1024 675.84 1024 1024 C686.08 1024 348.16 1024 0 1024 C0 686.08 0 348.16 0 0 Z " fill="#FEFEFE" transform="translate(0,0)"/>
<path d="M0 0 C8.818 -0.555 16.245 2.326 22.93 8.117 C28.085 13.735 29.191 19.76 29.539 27.246 C29.578 27.934 29.616 28.623 29.656 29.332 C29.75 31.011 29.833 32.691 29.914 34.371 C30.518 34.22 31.121 34.068 31.743 33.912 C57.662 27.489 57.662 27.489 67.914 30.371 C59.324 24.37 52.128 23.412 41.914 24.371 C39.606 24.835 39.606 24.835 37.914 25.371 C37.641 24.449 37.641 24.449 37.363 23.508 C37.112 22.7 36.861 21.891 36.602 21.059 C36.358 20.258 36.114 19.458 35.863 18.633 C34.872 16.271 33.833 15.032 31.914 13.371 C32.244 12.381 32.574 11.391 32.914 10.371 C36.856 10.64 38.479 10.925 41.289 13.809 C42.914 16.371 42.914 16.371 42.914 18.371 C44.097 18.313 45.281 18.255 46.5 18.195 C57.991 17.798 65.92 18.583 74.727 26.621 C75.823 27.842 76.886 29.093 77.914 30.371 C78.422 30.982 78.93 31.593 79.453 32.223 C83.431 37.978 83.31 43.425 82.818 50.167 C82.499 55.844 83.855 58.595 86.914 63.371 C91.754 76.864 86.045 91.908 80.914 104.371 C79.592 107.142 78.254 109.81 76.664 112.434 C75.646 115.063 76.142 116.704 76.914 119.371 C77.244 120.031 77.574 120.691 77.914 121.371 C78.74 126.903 78.412 131.351 75.477 136.184 C72.101 140.682 68.176 143.417 62.914 145.371 C61.718 145.454 60.522 145.536 59.289 145.621 C54.594 146.664 53.497 149.207 50.801 153.012 C46.61 158.253 40.444 161.887 33.914 163.371 C31.039 163.496 31.039 163.496 28.914 163.371 C28.926 163.998 28.937 164.624 28.949 165.27 C28.963 166.495 28.963 166.495 28.977 167.746 C28.988 168.558 29 169.37 29.012 170.207 C28.914 172.371 28.914 172.371 27.914 174.371 C28.497 174.325 29.079 174.278 29.68 174.23 C37.268 173.896 45.712 174.867 51.75 179.902 C54.732 183.419 55.948 186.07 56.164 190.559 C56.641 194.659 57.429 197.787 59.992 201.074 C63.535 203.465 67.602 203.125 71.758 203.105 C80.518 203.843 87.331 213.161 92.914 219.371 C125.914 258.531 125.914 258.531 125.914 271.371 C126.812 271.332 126.812 271.332 127.727 271.292 C154.365 270.281 154.365 270.281 165.383 279.838 C168.376 282.835 170.742 286.285 173.164 289.746 C173.731 290.544 174.297 291.342 174.881 292.164 C180.041 299.47 185.052 306.864 189.914 314.371 C190.419 315.147 190.924 315.923 191.444 316.722 C193.068 319.225 194.68 321.734 196.289 324.246 C196.789 325.019 197.29 325.792 197.805 326.588 C204.134 336.554 207.089 344.905 207.227 356.684 C207.256 357.5 207.285 358.317 207.314 359.158 C207.375 364.985 206.355 369.573 202.914 374.371 C194.941 381.017 183.672 379.501 173.914 379.434 C172.662 379.429 171.411 379.425 170.121 379.42 C167.052 379.408 163.983 379.392 160.914 379.371 C160.916 380.129 160.919 380.886 160.921 381.667 C160.941 388.803 160.956 395.939 160.966 403.076 C160.971 406.745 160.978 410.414 160.99 414.083 C161 417.623 161.006 421.163 161.009 424.703 C161.012 426.713 161.019 428.722 161.027 430.731 C161.027 431.952 161.028 433.173 161.028 434.431 C161.03 435.508 161.032 436.585 161.034 437.695 C160.914 440.371 160.914 440.371 159.914 443.371 C158.248 443.414 156.58 443.412 154.914 443.371 C153.914 442.371 153.914 442.371 153.794 439.897 C153.797 438.248 153.797 438.248 153.801 436.566 C153.801 435.325 153.801 434.084 153.801 432.805 C153.806 431.44 153.811 430.076 153.816 428.711 C153.818 427.322 153.82 425.934 153.821 424.545 C153.825 420.884 153.834 417.223 153.845 413.562 C153.856 409.828 153.86 406.095 153.865 402.361 C153.876 395.031 153.893 387.701 153.914 380.371 C150.944 380.371 147.974 380.371 144.914 380.371 C144.919 381.087 144.923 381.802 144.928 382.539 C144.968 389.292 144.998 396.046 145.018 402.799 C145.028 406.27 145.042 409.742 145.065 413.214 C145.091 417.208 145.101 421.201 145.109 425.195 C145.12 426.438 145.13 427.681 145.141 428.962 C145.141 430.122 145.141 431.283 145.141 432.479 C145.146 433.499 145.15 434.518 145.155 435.568 C144.901 438.519 144.152 440.695 142.914 443.371 C141.248 443.414 139.58 443.412 137.914 443.371 C136.914 442.371 136.914 442.371 136.794 439.897 C136.796 438.798 136.798 437.699 136.801 436.566 C136.801 435.325 136.801 434.084 136.801 432.805 C136.806 431.44 136.811 430.076 136.816 428.711 C136.818 427.322 136.82 425.934 136.821 424.545 C136.825 420.884 136.834 417.223 136.845 413.562 C136.856 409.828 136.86 406.095 136.865 402.361 C136.876 395.031 136.893 387.701 136.914 380.371 C133.944 380.371 130.974 380.371 127.914 380.371 C127.937 381.748 127.96 383.125 127.984 384.543 C128.101 394.345 128.16 403.772 125.914 413.371 C125.696 414.361 125.478 415.351 125.254 416.371 C120.592 436.342 120.592 436.342 114.914 441.371 C109.149 443.458 103.682 443.799 97.586 443.984 C95.94 444.04 95.94 444.04 94.261 444.097 C75.803 444.638 57.328 444.558 38.864 444.556 C33.275 444.556 27.686 444.57 22.098 444.587 C17.717 444.598 13.336 444.6 8.955 444.6 C6.897 444.601 4.838 444.605 2.78 444.613 C-7.868 444.65 -18.46 444.438 -29.079 443.607 C-29.982 443.546 -30.884 443.485 -31.814 443.422 C-38.141 442.855 -43.114 441.43 -47.688 436.723 C-55.354 423.788 -57.265 410.94 -57.273 396.184 C-57.286 395.028 -57.298 393.872 -57.311 392.682 C-57.342 373.865 -52.736 355.522 -40.062 341.062 C-18.225 320.24 13.099 318.213 41.602 318.121 C42.331 318.116 43.061 318.111 43.813 318.105 C71.078 317.953 71.078 317.953 77.914 321.371 C75.853 286.591 75.853 286.591 66.957 253.02 C64.581 246.666 62.858 240.184 61.164 233.621 C60.848 232.442 60.532 231.262 60.207 230.047 C58.731 224.365 57.467 219.251 57.914 213.371 C57.254 213.701 56.594 214.031 55.914 214.371 C53.917 214.496 51.915 214.547 49.914 214.559 C48.842 214.573 47.769 214.587 46.664 214.602 C43.706 214.42 41.355 214.046 38.512 213.375 C31.199 211.826 23.788 212.071 16.352 212.121 C15.594 212.123 14.836 212.125 14.055 212.126 C4.444 212.153 -4.95 212.533 -14.469 213.918 C-24.08 215.122 -33.732 215.044 -43.086 212.371 C-42.725 212.933 -42.364 213.495 -41.992 214.074 C-35.883 225.138 -36.6 238.602 -39.523 250.621 C-40.329 253.234 -41.173 255.796 -42.086 258.371 C-42.545 259.686 -42.545 259.686 -43.014 261.027 C-47.16 272.765 -51.689 284.285 -57.079 295.512 C-61.635 305.182 -63.544 315.081 -64.805 325.641 C-65.019 327.36 -65.019 327.36 -65.238 329.114 C-65.696 332.803 -66.142 336.493 -66.586 340.184 C-66.898 342.739 -67.21 345.295 -67.522 347.851 C-68.394 355.022 -69.245 362.196 -70.086 369.371 C-70.239 370.673 -70.239 370.673 -70.395 372.002 C-72.898 393.406 -74.084 414.854 -75.086 436.371 C-76.742 436.753 -78.411 437.085 -80.086 437.371 C-81.086 436.371 -81.086 436.371 -81.199 433.228 C-81.199 431.837 -81.194 430.446 -81.184 429.055 C-81.181 427.958 -81.181 427.958 -81.179 426.839 C-81.174 424.496 -81.161 422.152 -81.148 419.809 C-81.143 418.223 -81.139 416.638 -81.135 415.053 C-81.124 411.159 -81.106 407.265 -81.086 403.371 C-82.181 403.217 -83.277 403.063 -84.406 402.905 C-87.55 402.449 -90.652 401.896 -93.773 401.309 C-102.076 399.947 -110.762 398.533 -118.289 403.074 C-118.882 403.502 -119.475 403.93 -120.086 404.371 C-120.679 404.799 -121.272 405.227 -121.883 405.668 C-131.272 413.727 -134.661 426.798 -136.578 438.52 C-137.086 441.371 -137.086 441.371 -138.086 442.371 C-140.586 442.496 -140.586 442.496 -143.086 442.371 C-144.74 440.717 -144.337 438.837 -144.398 436.559 C-144.248 423.663 -137.767 410.544 -129.078 401.16 C-120.571 393.52 -113.028 392.212 -102.023 392.371 C-100.241 392.397 -98.458 392.418 -96.676 392.434 C-95.498 392.451 -95.498 392.451 -94.297 392.469 C-92.088 392.371 -90.214 391.945 -88.086 391.371 C-86.504 391.306 -84.919 391.285 -83.336 391.309 C-81.232 391.34 -81.232 391.34 -79.086 391.371 C-79.086 387.411 -79.086 383.451 -79.086 379.371 C-80.801 379.401 -82.517 379.431 -84.284 379.462 C-129.243 380.233 -174.188 380.507 -219.154 380.443 C-227.474 380.432 -235.795 380.426 -244.115 380.421 C-261.105 380.411 -278.096 380.394 -295.086 380.371 C-295.081 381.143 -295.077 381.916 -295.072 382.711 C-295.032 389.981 -295.002 397.25 -294.982 404.519 C-294.972 408.256 -294.958 411.994 -294.935 415.731 C-294.913 419.336 -294.901 422.941 -294.896 426.546 C-294.892 427.923 -294.885 429.3 -294.874 430.677 C-294.86 432.602 -294.859 434.528 -294.859 436.453 C-294.854 437.55 -294.85 438.647 -294.845 439.777 C-295.086 442.371 -295.086 442.371 -297.086 444.371 C-298.406 444.371 -299.726 444.371 -301.086 444.371 C-302.448 441.646 -302.206 439.503 -302.199 436.453 C-302.199 435.212 -302.199 433.97 -302.199 432.692 C-302.194 431.332 -302.189 429.973 -302.184 428.613 C-302.182 427.226 -302.18 425.839 -302.179 424.452 C-302.175 420.799 -302.166 417.146 -302.155 413.493 C-302.144 409.766 -302.14 406.039 -302.135 402.312 C-302.124 394.999 -302.107 387.685 -302.086 380.371 C-305.056 380.371 -308.026 380.371 -311.086 380.371 C-311.081 381.099 -311.077 381.827 -311.072 382.577 C-311.032 389.448 -311.002 396.319 -310.982 403.19 C-310.972 406.722 -310.958 410.254 -310.935 413.786 C-310.909 417.85 -310.899 421.913 -310.891 425.977 C-310.88 427.241 -310.87 428.506 -310.859 429.809 C-310.859 431.58 -310.859 431.58 -310.859 433.387 C-310.854 434.424 -310.85 435.462 -310.845 436.53 C-311.097 439.5 -311.838 441.679 -313.086 444.371 C-314.752 444.414 -316.42 444.412 -318.086 444.371 C-319.086 443.371 -319.086 443.371 -319.206 440.859 C-319.204 439.742 -319.202 438.625 -319.199 437.474 C-319.199 436.213 -319.199 434.952 -319.199 433.652 C-319.194 432.266 -319.189 430.879 -319.184 429.492 C-319.182 428.081 -319.18 426.67 -319.179 425.259 C-319.175 421.539 -319.166 417.818 -319.155 414.098 C-319.144 410.304 -319.14 406.511 -319.135 402.717 C-319.124 395.268 -319.107 387.82 -319.086 380.371 C-319.816 380.392 -320.546 380.413 -321.298 380.435 C-324.665 380.519 -328.031 380.57 -331.398 380.621 C-332.546 380.655 -333.694 380.688 -334.877 380.723 C-343.474 380.82 -352.085 380.079 -358.648 373.996 C-362.106 367.682 -362.396 362.099 -362.336 355.059 C-362.344 354.159 -362.351 353.26 -362.359 352.334 C-362.326 340.682 -359.151 332.802 -353.398 322.684 C-353.07 322.1 -352.742 321.516 -352.404 320.914 C-328.903 279.167 -328.903 279.167 -315.086 274.371 C-310.838 273.308 -306.71 273.236 -302.358 273.258 C-301.216 273.257 -301.216 273.257 -300.051 273.257 C-297.545 273.258 -295.04 273.266 -292.535 273.273 C-290.794 273.275 -289.052 273.277 -287.31 273.278 C-282.735 273.282 -278.16 273.291 -273.585 273.302 C-268.913 273.313 -264.241 273.317 -259.568 273.322 C-250.408 273.333 -241.247 273.35 -232.086 273.371 C-232.086 275.681 -232.086 277.991 -232.086 280.371 C-233.073 280.375 -234.059 280.378 -235.076 280.382 C-244.389 280.419 -253.702 280.477 -263.015 280.555 C-267.803 280.594 -272.59 280.627 -277.378 280.642 C-282.001 280.657 -286.624 280.692 -291.247 280.739 C-293.008 280.754 -294.769 280.762 -296.53 280.763 C-299.003 280.765 -301.475 280.792 -303.948 280.825 C-304.67 280.82 -305.393 280.815 -306.138 280.81 C-312.203 280.934 -316.578 282.836 -320.867 287.171 C-321.287 287.78 -321.707 288.389 -322.141 289.016 C-322.628 289.714 -323.115 290.412 -323.616 291.131 C-324.101 291.87 -324.586 292.61 -325.086 293.371 C-325.825 294.497 -325.825 294.497 -326.579 295.646 C-328.153 298.1 -329.687 300.574 -331.211 303.059 C-331.766 303.96 -332.32 304.861 -332.892 305.79 C-336.928 312.386 -340.858 319.041 -344.711 325.746 C-345.207 326.607 -345.704 327.467 -346.215 328.354 C-346.681 329.172 -347.146 329.99 -347.625 330.832 C-348.029 331.541 -348.434 332.251 -348.85 332.982 C-350.433 336.042 -351.74 339.201 -353.086 342.371 C-339.43 344.574 -325.919 344.717 -312.113 344.785 C-309.658 344.804 -307.203 344.824 -304.748 344.844 C-298.867 344.89 -292.986 344.928 -287.106 344.961 C-282.366 344.988 -277.627 345.019 -272.888 345.053 C-224.954 345.396 -177.021 345.501 -129.086 345.371 C-129.638 344.892 -130.191 344.414 -130.76 343.921 C-131.482 343.292 -132.205 342.663 -132.95 342.015 C-133.667 341.392 -134.385 340.769 -135.124 340.127 C-141.382 334.527 -145.993 327.547 -148.086 319.371 C-148.111 317.371 -148.114 315.371 -148.086 313.371 C-149.109 313.376 -150.132 313.38 -151.186 313.385 C-160.809 313.425 -170.433 313.455 -180.057 313.475 C-185.005 313.485 -189.953 313.499 -194.901 313.522 C-199.673 313.544 -204.445 313.556 -209.217 313.561 C-211.041 313.565 -212.865 313.572 -214.688 313.583 C-217.236 313.597 -219.784 313.599 -222.332 313.598 C-223.091 313.605 -223.851 313.613 -224.633 313.62 C-229.858 313.599 -229.858 313.599 -232.086 311.371 C-233.127 304.888 -231.378 299.001 -229.273 292.934 C-228.719 291.268 -228.166 289.603 -227.613 287.938 C-227.348 287.15 -227.082 286.363 -226.808 285.551 C-225.674 282.126 -224.695 278.659 -223.727 275.184 C-223.086 273.371 -223.086 273.371 -221.086 270.371 C-218.065 269.939 -218.065 269.939 -214.133 269.859 C-213.417 269.841 -212.7 269.823 -211.963 269.805 C-209.587 269.75 -207.212 269.716 -204.836 269.684 C-203.189 269.651 -201.541 269.617 -199.894 269.582 C-181.961 269.235 -164.021 269.273 -146.086 269.371 C-145.756 271.681 -145.426 273.991 -145.086 276.371 C-168.846 276.701 -192.606 277.031 -217.086 277.371 C-220.387 287.276 -223.218 297.332 -226.086 307.371 C-200.676 307.371 -175.266 307.371 -149.086 307.371 C-149.086 304.071 -149.086 300.771 -149.086 297.371 C-147.828 289.139 -144.698 282.29 -140.086 275.371 C-140.746 275.371 -141.406 275.371 -142.086 275.371 C-142.335 273.937 -142.56 272.498 -142.773 271.059 C-142.965 269.858 -142.965 269.858 -143.16 268.633 C-143.086 266.371 -143.086 266.371 -141.793 264.602 C-139.181 262.718 -137.212 262.98 -134.086 263.371 C-132.211 264.684 -132.211 264.684 -131.086 266.371 C-131.086 267.361 -131.086 268.351 -131.086 269.371 C-130.343 268.876 -129.601 268.381 -128.836 267.871 C-123.979 265.402 -118.383 265.974 -113.086 266.371 C-112.096 266.701 -111.106 267.031 -110.086 267.371 C-109.859 266.711 -109.632 266.051 -109.398 265.371 C-107.68 261.444 -105.418 257.958 -103.086 254.371 C-103.56 253.835 -104.035 253.299 -104.523 252.746 C-106.368 249.943 -106.711 247.675 -107.086 244.371 C-108.076 244.701 -109.066 245.031 -110.086 245.371 C-110.416 247.681 -110.746 249.991 -111.086 252.371 C-113.711 253.684 -113.711 253.684 -117.086 254.371 C-120.273 252.059 -120.273 252.059 -123.086 249.371 C-124.076 249.041 -125.066 248.711 -126.086 248.371 C-125.24 249.279 -124.395 250.186 -123.523 251.121 C-121.06 254.041 -121.06 254.041 -121.273 256.746 C-121.542 257.282 -121.81 257.819 -122.086 258.371 C-124.066 258.371 -126.046 258.371 -128.086 258.371 C-127.426 259.031 -126.766 259.691 -126.086 260.371 C-126.461 262.996 -126.461 262.996 -127.086 265.371 C-131.701 264.052 -135.185 262.158 -139.086 259.371 C-138.211 255.496 -138.211 255.496 -137.086 254.371 C-135.42 254.33 -133.752 254.328 -132.086 254.371 C-132.333 253.299 -132.581 252.226 -132.836 251.121 C-133.086 247.371 -133.086 247.371 -131.711 244.934 C-127.927 242.681 -124.393 242.719 -120.086 243.371 C-117.805 244.395 -117.805 244.395 -116.086 245.371 C-115.931 244.443 -115.931 244.443 -115.773 243.496 C-115.086 241.371 -115.086 241.371 -112.086 239.371 C-109.859 239.141 -109.859 239.141 -107.461 239.184 C-106.664 239.19 -105.868 239.196 -105.047 239.203 C-103.086 239.371 -103.086 239.371 -102.086 240.371 C-103.073 234.079 -104.425 227.917 -105.965 221.742 C-108.166 212.897 -109.899 204.522 -110.086 195.371 C-108.766 195.041 -107.446 194.711 -106.086 194.371 C-102.523 198.115 -102.052 202.285 -101.148 207.184 C-99.064 217.766 -96.58 228.152 -93.086 238.371 C-92.229 237.282 -92.229 237.282 -91.355 236.172 C-89.234 233.554 -87.04 231.051 -84.773 228.559 C-81.972 225.473 -79.219 222.362 -76.523 219.184 C-68.972 210.551 -61.302 204.145 -49.648 203.121 C-48.917 203.044 -48.185 202.966 -47.432 202.887 C-45.651 202.701 -43.869 202.534 -42.086 202.371 C-41.649 200.869 -41.649 200.869 -41.203 199.336 C-38.502 190.437 -36.207 183.785 -28.086 178.371 C-28.799 177.837 -29.512 177.304 -30.246 176.754 C-42.098 167.534 -49.281 156.953 -51.637 141.838 C-52.242 136.7 -52.229 131.581 -52.219 126.414 C-52.22 124.877 -52.22 124.877 -52.222 123.309 C-52.222 121.156 -52.221 119.004 -52.216 116.852 C-52.211 113.552 -52.216 110.251 -52.223 106.951 C-52.222 104.855 -52.221 102.76 -52.219 100.664 C-52.221 99.677 -52.223 98.689 -52.225 97.672 C-52.222 96.757 -52.219 95.842 -52.215 94.899 C-52.214 93.693 -52.214 93.693 -52.213 92.462 C-52.086 90.371 -52.086 90.371 -51.086 87.371 C-52.016 83.892 -53.62 80.654 -55.086 77.371 C-55.585 76.174 -56.084 74.976 -56.598 73.742 C-59.917 65.741 -59.917 65.741 -66.711 60.809 C-67.468 60.569 -68.224 60.329 -69.004 60.082 C-72.241 58.977 -73.978 56.99 -76.086 54.371 C-78.596 49.02 -78.941 44.192 -78.086 38.371 C-74.887 29.597 -69.348 23.37 -61.297 18.781 C-57.762 17.229 -54.502 16.531 -50.711 15.809 C-43.025 14.199 -36.086 11.435 -28.898 8.309 C-19.19 4.116 -10.536 1.267 0 0 Z " fill="#060606" transform="translate(640.0859375,397.62890625)"/>
<path d="M0 0 C3.733 0.011 7.465 -0 11.198 -0.013 C29.843 -0.024 48.451 -0.021 66.206 6.261 C66.823 6.477 67.44 6.694 68.076 6.917 C83.827 12.543 97.472 20.52 105.21 36.022 C105.539 36.761 105.867 37.5 106.206 38.261 C106.524 38.948 106.843 39.635 107.171 40.343 C112.463 54.268 109.996 70.931 104.182 84.24 C96.714 99.707 83.991 111.698 67.78 117.483 C66.931 117.74 66.081 117.996 65.206 118.261 C67.397 126.313 70.387 133.935 73.581 141.636 C74.05 142.778 74.519 143.92 75.003 145.097 C76.87 149.635 78.738 154.17 80.672 158.68 C81.129 159.751 81.586 160.821 82.058 161.925 C82.471 162.881 82.884 163.837 83.31 164.822 C84.206 167.261 84.206 167.261 84.206 170.261 C85.024 170.201 85.841 170.142 86.684 170.081 C107.687 168.591 128.56 167.972 149.612 168.029 C153.736 168.037 157.86 168.034 161.984 168.033 C169.087 168.032 176.189 168.038 183.291 168.049 C193.559 168.066 203.828 168.071 214.096 168.073 C230.765 168.078 247.435 168.091 264.105 168.11 C280.273 168.128 296.441 168.142 312.61 168.151 C313.611 168.151 314.611 168.152 315.643 168.152 C320.665 168.155 325.688 168.158 330.711 168.16 C372.209 168.181 413.708 168.216 455.206 168.261 C455.475 167.446 455.744 166.632 456.02 165.792 C456.376 164.719 456.732 163.645 457.098 162.539 C457.45 161.477 457.801 160.415 458.163 159.32 C459.504 155.388 461.022 151.554 462.624 147.722 C462.927 146.989 463.229 146.256 463.541 145.501 C464.488 143.211 465.441 140.923 466.394 138.636 C467.042 137.069 467.689 135.503 468.337 133.937 C473.002 122.669 473.002 122.669 474.206 120.261 C473.488 120.156 472.77 120.052 472.03 119.944 C461.174 117.317 451.185 107.187 445.269 98.073 C438.17 85.632 436.429 69.156 440.077 55.21 C443.424 46.048 448.952 37.79 456.206 31.261 C456.647 30.816 457.088 30.371 457.542 29.913 C471.442 16.684 491.697 11.943 510.206 10.261 C511.04 10.175 511.873 10.088 512.732 10 C523.974 8.962 535.239 9.064 546.519 9.073 C547.587 9.073 548.655 9.073 549.756 9.073 C582.826 9.1 619.09 9.735 644.347 34.347 C654.444 45.005 658.783 57.921 658.766 72.494 C658.29 85.097 653.536 97.783 645.206 107.261 C644.488 108.099 643.77 108.937 643.03 109.8 C636.615 116.75 629.531 121.024 621.206 125.261 C620.436 125.671 619.667 126.081 618.874 126.503 C600.611 135.512 577.194 136.661 557.261 136.237 C556.096 136.214 554.932 136.19 553.732 136.166 C548.974 136.057 544.219 135.929 539.463 135.747 C525.147 135.229 514.389 134.984 502.841 144.03 C500.109 146.086 497.149 147.731 494.187 149.429 C493.062 150.095 491.937 150.76 490.778 151.446 C489.103 152.437 489.103 152.437 487.394 153.448 C479.65 158.029 471.914 162.62 464.206 167.261 C464.979 167.281 465.751 167.3 466.547 167.321 C480.675 167.698 494.792 168.165 508.894 169.136 C509.99 169.202 511.087 169.268 512.217 169.336 C513.228 169.412 514.239 169.488 515.28 169.565 C516.604 169.658 516.604 169.658 517.955 169.752 C520.628 170.356 521.558 171.101 523.206 173.261 C524.329 176.63 524.351 179.21 524.38 182.762 C524.386 183.423 524.393 184.085 524.4 184.766 C524.414 186.213 524.426 187.66 524.436 189.106 C524.452 191.441 524.475 193.776 524.499 196.111 C524.533 199.477 524.565 202.844 524.595 206.21 C524.822 231.276 525.173 256.317 526.131 281.367 C527.156 308.451 527.486 335.52 527.569 362.621 C527.581 365.681 527.601 368.741 527.622 371.801 C527.656 376.631 527.668 381.46 527.665 386.289 C527.666 388.081 527.674 389.873 527.69 391.664 C527.709 394.14 527.704 396.615 527.692 399.091 C527.703 399.805 527.714 400.519 527.726 401.254 C527.659 406.668 526.132 410.789 523.206 415.261 C519.369 418.544 516.049 418.656 511.097 418.694 C510.416 418.701 509.736 418.708 509.035 418.715 C506.841 418.728 504.649 418.715 502.456 418.698 C501.344 418.697 501.344 418.697 500.209 418.695 C489.141 418.663 478.743 417.864 468.206 414.261 C468.206 413.601 468.206 412.941 468.206 412.261 C471.642 410.543 475.594 411.037 479.378 410.979 C480.751 410.952 480.751 410.952 482.151 410.924 C485.086 410.865 488.021 410.812 490.956 410.761 C494.805 410.693 498.654 410.619 502.503 410.542 C503.825 410.522 503.825 410.522 505.174 410.501 C509.617 410.412 513.832 410.142 518.206 409.261 C519.529 404.246 519.346 399.248 519.335 394.103 C519.337 393.081 519.339 392.059 519.341 391.006 C519.345 387.615 519.342 384.225 519.339 380.835 C519.34 378.453 519.341 376.07 519.342 373.688 C519.343 368.673 519.341 363.659 519.336 358.644 C519.331 352.314 519.334 345.983 519.34 339.653 C519.382 306.785 519.382 306.785 518.562 273.93 C517.907 255.874 518.096 237.799 518.137 219.734 C518.15 213.803 518.154 207.873 518.16 201.943 C518.169 193.049 518.188 184.155 518.206 175.261 C446.501 175.23 374.796 175.369 303.091 175.548 C299.098 175.558 295.105 175.568 291.113 175.578 C289.625 175.582 289.625 175.582 288.108 175.586 C272.041 175.625 255.973 175.658 239.905 175.688 C223.147 175.72 206.388 175.758 189.63 175.804 C180.325 175.828 171.02 175.85 161.715 175.864 C114.179 175.936 66.717 176.702 19.206 178.261 C19.206 191.461 19.206 204.661 19.206 218.261 C17.556 217.931 15.906 217.601 14.206 217.261 C12.558 213.965 13 210.299 12.968 206.675 C12.96 205.821 12.952 204.968 12.943 204.089 C12.929 202.282 12.919 200.474 12.911 198.667 C12.894 195.903 12.85 193.141 12.806 190.378 C12.796 188.623 12.787 186.868 12.78 185.112 C12.763 184.286 12.745 183.46 12.727 182.609 C12.741 179 12.788 176.899 14.795 173.833 C21.53 169.442 28.922 169.925 36.702 169.847 C37.891 169.827 39.08 169.808 40.304 169.788 C44.084 169.728 47.864 169.682 51.644 169.636 C54.213 169.598 56.783 169.558 59.353 169.519 C65.637 169.423 71.921 169.338 78.206 169.261 C77.093 168.607 75.979 167.953 74.832 167.28 C67.001 162.679 59.174 158.072 51.394 153.386 C50.577 152.895 49.761 152.405 48.92 151.899 C46.348 150.354 43.777 148.807 41.206 147.261 C37.602 145.093 33.998 142.927 30.394 140.761 C29.576 140.268 28.758 139.776 27.916 139.269 C27.139 138.802 26.362 138.335 25.562 137.854 C24.888 137.449 24.214 137.044 23.519 136.626 C22.756 136.175 21.993 135.725 21.206 135.261 C20.149 134.532 19.091 133.803 18.001 133.052 C13.604 130.561 9.963 131.236 5.124 131.999 C-5.784 133.398 -16.498 133.531 -27.481 133.448 C-29.422 133.44 -31.362 133.432 -33.302 133.424 C-43.635 133.37 -53.967 133.255 -64.294 132.886 C-65.215 132.855 -66.136 132.824 -67.086 132.793 C-77.456 132.325 -87.341 130.462 -97.169 127.136 C-98.072 126.83 -98.976 126.524 -99.906 126.209 C-116.052 120.533 -130.087 111.405 -138.794 96.261 C-144.919 83.451 -146.879 65.635 -142.231 52.011 C-141.114 49.593 -141.114 49.593 -139.794 47.261 C-139.296 46.357 -138.799 45.453 -138.286 44.522 C-126.202 24.204 -106.883 13.544 -84.606 7.511 C-57.124 0.546 -28.198 -0.097 0 0 Z " fill="#FBFBFB" transform="translate(240.7939453125,182.7392578125)"/>
<path d="M0 0 C0.983 0.001 1.965 0.001 2.978 0.002 C32.261 0.069 60.819 1.629 83.426 22.488 C94.871 34.241 99.37 48.098 99.25 64.25 C99.258 65.292 99.265 66.333 99.273 67.406 C99.233 83.554 93.063 99.647 83 112.25 C81.876 113.274 80.733 114.279 79.562 115.25 C76.202 119.185 75.75 122.189 75.586 127.293 C76.312 132.479 79.18 134.919 83 138.25 C84.056 139.29 84.056 139.29 85.133 140.352 C95.068 149.882 107.075 157.456 119 164.25 C118.67 164.91 118.34 165.57 118 166.25 C111.591 166.445 105.674 166.424 99.453 164.812 C96.443 164.122 93.439 163.76 90.375 163.375 C83.516 162.42 77.004 160.817 70.352 158.916 C67.614 158.141 64.87 157.392 62.125 156.645 C59.979 156.055 57.833 155.466 55.688 154.875 C54.606 154.579 53.525 154.283 52.411 153.978 C47.528 152.617 42.723 151.21 37.988 149.395 C28.867 145.898 22.337 144.706 12.648 146.504 C0.313 148.746 -12.621 148.456 -25.125 148.438 C-25.884 148.437 -26.642 148.436 -27.424 148.436 C-57.685 148.371 -88.878 145.997 -111.938 123.875 C-125.918 109.042 -129.548 90.762 -129.273 70.922 C-128.695 53.703 -120.988 40.259 -109 28.25 C-108.386 27.625 -107.773 27 -107.141 26.355 C-97.078 16.83 -83.994 11.454 -71 7.25 C-69.851 6.87 -68.703 6.489 -67.52 6.098 C-45.795 -0.18 -22.426 -0.022 0 0 Z " fill="#FBFBFB" transform="translate(182,387.75)"/>
<path d="M0 0 C1.241 -0.006 2.483 -0.011 3.762 -0.017 C6.374 -0.027 8.985 -0.033 11.597 -0.037 C15.525 -0.047 19.452 -0.078 23.379 -0.109 C50.039 -0.22 82.248 0.843 102.887 20.406 C112.233 30.565 116.192 40.902 115.848 54.75 C114.815 67.253 109.437 78.587 101.562 88.203 C100.944 89.069 100.325 89.936 99.688 90.828 C93.104 98.186 84.324 102.017 75.562 106.203 C74.227 106.866 72.893 107.531 71.562 108.203 C72.12 112.979 73.09 117.153 74.777 121.652 C75.216 122.83 75.655 124.007 76.107 125.221 C76.567 126.432 77.027 127.643 77.5 128.891 C78.184 130.725 78.184 130.725 78.881 132.596 C81.054 138.6 81.054 138.6 83.709 144.394 C84.562 146.203 84.562 146.203 84.562 149.203 C80.568 147.729 77.031 145.833 73.363 143.676 C72.775 143.331 72.186 142.985 71.58 142.63 C69.676 141.512 67.775 140.389 65.875 139.266 C64.567 138.496 63.258 137.726 61.95 136.957 C53.83 132.175 45.748 127.332 37.755 122.34 C32.255 118.924 28.772 118.065 22.312 118.078 C21.029 118.076 19.745 118.073 18.422 118.07 C14.68 118.118 14.68 118.118 11.495 118.701 C6.571 119.33 1.743 119.365 -3.215 119.371 C-4.258 119.374 -5.301 119.378 -6.375 119.381 C-8.587 119.386 -10.798 119.389 -13.01 119.388 C-16.305 119.391 -19.601 119.409 -22.896 119.428 C-33.757 119.458 -44.546 119.214 -55.375 118.355 C-56.326 118.283 -57.277 118.21 -58.257 118.136 C-79.84 116.221 -99.327 108.241 -114.203 92.312 C-123.669 80.934 -124.735 67.894 -123.724 53.677 C-123.093 48.229 -121.266 43.848 -118.438 39.203 C-117.93 38.338 -117.422 37.473 -116.898 36.582 C-104.912 17.921 -84.886 10.705 -64.187 5.946 C-51.761 3.483 -39.047 2.297 -26.438 1.203 C-25.478 1.117 -24.518 1.031 -23.528 0.943 C-15.676 0.283 -7.879 0.029 0 0 Z " fill="#FCFCFC" transform="translate(227.4375,189.796875)"/>
<path d="M0 0 C8.375 8.161 14.84 18.214 15.266 30.234 C15.275 31.74 15.269 33.245 15.25 34.75 C15.237 35.942 15.237 35.942 15.223 37.159 C14.908 53.221 9.372 66.34 -2 78 C-11.783 86.208 -22.826 90.613 -35 94 C-35.91 94.278 -36.82 94.557 -37.758 94.844 C-51.213 98.677 -66.053 99.52 -80 99 C-80.254 99.688 -80.508 100.377 -80.77 101.086 C-81.905 103.776 -83.225 106.266 -84.664 108.804 C-94.085 125.572 -98.741 143.665 -103.241 162.255 C-103.983 164.937 -104.915 167.44 -106 170 C-107.926 167.111 -108.404 165.767 -109.008 162.469 C-109.186 161.53 -109.364 160.591 -109.548 159.623 C-109.738 158.592 -109.929 157.562 -110.125 156.5 C-112.247 145.442 -114.655 134.47 -117.188 123.5 C-117.362 122.745 -117.536 121.991 -117.715 121.213 C-118.378 118.34 -119.042 115.468 -119.708 112.595 C-120.834 107.736 -121.93 102.872 -123 98 C-124.238 98.041 -125.475 98.082 -126.75 98.125 C-148.088 98.025 -171.698 88.944 -187 74 C-198.07 62.213 -201.864 47.898 -201.375 32.035 C-200.516 19.134 -192.465 7.637 -183.348 -1.059 C-165.424 -15.881 -142.515 -20.021 -120 -22 C-118.177 -22.168 -118.177 -22.168 -116.316 -22.34 C-79.116 -25.119 -29.227 -27.474 0 0 Z " fill="#FCFCFC" transform="translate(606,145)"/>
<path d="M0 0 C3.733 0.011 7.465 -0 11.198 -0.013 C29.843 -0.024 48.451 -0.021 66.206 6.261 C66.823 6.477 67.44 6.694 68.076 6.917 C83.827 12.543 97.472 20.52 105.21 36.022 C105.539 36.761 105.867 37.5 106.206 38.261 C106.524 38.948 106.843 39.635 107.171 40.343 C112.463 54.268 109.996 70.931 104.182 84.24 C96.714 99.707 83.991 111.698 67.78 117.483 C66.931 117.74 66.081 117.996 65.206 118.261 C67.397 126.313 70.387 133.935 73.581 141.636 C74.05 142.778 74.519 143.92 75.003 145.097 C76.87 149.635 78.738 154.17 80.672 158.68 C81.129 159.751 81.586 160.821 82.058 161.925 C82.471 162.881 82.884 163.837 83.31 164.822 C84.206 167.261 84.206 167.261 84.206 170.261 C85.024 170.201 85.841 170.142 86.684 170.081 C107.687 168.591 128.56 167.972 149.612 168.029 C153.736 168.037 157.86 168.034 161.984 168.033 C169.087 168.032 176.189 168.038 183.291 168.049 C193.559 168.066 203.828 168.071 214.096 168.073 C230.765 168.078 247.435 168.091 264.105 168.11 C280.273 168.128 296.441 168.142 312.61 168.151 C313.611 168.151 314.611 168.152 315.643 168.152 C320.665 168.155 325.688 168.158 330.711 168.16 C372.209 168.181 413.708 168.216 455.206 168.261 C455.475 167.446 455.744 166.632 456.02 165.792 C456.376 164.719 456.732 163.645 457.098 162.539 C457.45 161.477 457.801 160.415 458.163 159.32 C459.504 155.388 461.022 151.554 462.624 147.722 C462.927 146.989 463.229 146.256 463.541 145.501 C464.488 143.211 465.441 140.923 466.394 138.636 C467.042 137.069 467.689 135.503 468.337 133.937 C473.002 122.669 473.002 122.669 474.206 120.261 C473.488 120.156 472.77 120.052 472.03 119.944 C461.174 117.317 451.185 107.187 445.269 98.073 C438.17 85.632 436.429 69.156 440.077 55.21 C443.424 46.048 448.952 37.79 456.206 31.261 C456.647 30.816 457.088 30.371 457.542 29.913 C471.442 16.684 491.697 11.943 510.206 10.261 C511.04 10.175 511.873 10.088 512.732 10 C523.974 8.962 535.239 9.064 546.519 9.073 C547.587 9.073 548.655 9.073 549.756 9.073 C582.826 9.1 619.09 9.735 644.347 34.347 C654.444 45.005 658.783 57.921 658.766 72.494 C658.29 85.097 653.536 97.783 645.206 107.261 C644.488 108.099 643.77 108.937 643.03 109.8 C636.615 116.75 629.531 121.024 621.206 125.261 C620.436 125.671 619.667 126.081 618.874 126.503 C600.611 135.512 577.194 136.661 557.261 136.237 C556.096 136.214 554.932 136.19 553.732 136.166 C548.974 136.057 544.219 135.929 539.463 135.747 C525.147 135.229 514.389 134.984 502.841 144.03 C500.109 146.086 497.149 147.731 494.187 149.429 C493.062 150.095 491.937 150.76 490.778 151.446 C489.103 152.437 489.103 152.437 487.394 153.448 C479.65 158.029 471.914 162.62 464.206 167.261 C464.979 167.281 465.751 167.3 466.547 167.321 C480.675 167.698 494.792 168.165 508.894 169.136 C509.99 169.202 511.087 169.268 512.217 169.336 C513.228 169.412 514.239 169.488 515.28 169.565 C516.604 169.658 516.604 169.658 517.955 169.752 C520.628 170.356 521.558 171.101 523.206 173.261 C524.329 176.63 524.351 179.21 524.38 182.762 C524.386 183.423 524.393 184.085 524.4 184.766 C524.414 186.213 524.426 187.66 524.436 189.106 C524.452 191.441 524.475 193.776 524.499 196.111 C524.533 199.477 524.565 202.844 524.595 206.21 C524.822 231.276 525.173 256.317 526.131 281.367 C527.156 308.451 527.486 335.52 527.569 362.621 C527.581 365.681 527.601 368.741 527.622 371.801 C527.656 376.631 527.668 381.46 527.665 386.289 C527.666 388.081 527.674 389.873 527.69 391.664 C527.709 394.14 527.704 396.615 527.692 399.091 C527.703 399.805 527.714 400.519 527.726 401.254 C527.659 406.668 526.132 410.789 523.206 415.261 C519.369 418.544 516.049 418.656 511.097 418.694 C510.416 418.701 509.736 418.708 509.035 418.715 C506.841 418.728 504.649 418.715 502.456 418.698 C501.344 418.697 501.344 418.697 500.209 418.695 C489.141 418.663 478.743 417.864 468.206 414.261 C468.206 413.601 468.206 412.941 468.206 412.261 C471.642 410.543 475.594 411.037 479.378 410.979 C480.751 410.952 480.751 410.952 482.151 410.924 C485.086 410.865 488.021 410.812 490.956 410.761 C494.805 410.693 498.654 410.619 502.503 410.542 C503.825 410.522 503.825 410.522 505.174 410.501 C509.617 410.412 513.832 410.142 518.206 409.261 C519.529 404.246 519.346 399.248 519.335 394.103 C519.337 393.081 519.339 392.059 519.341 391.006 C519.345 387.615 519.342 384.225 519.339 380.835 C519.34 378.453 519.341 376.07 519.342 373.688 C519.343 368.673 519.341 363.659 519.336 358.644 C519.331 352.314 519.334 345.983 519.34 339.653 C519.382 306.785 519.382 306.785 518.562 273.93 C517.907 255.874 518.096 237.799 518.137 219.734 C518.15 213.803 518.154 207.873 518.16 201.943 C518.169 193.049 518.188 184.155 518.206 175.261 C446.501 175.23 374.796 175.369 303.091 175.548 C299.098 175.558 295.105 175.568 291.113 175.578 C289.625 175.582 289.625 175.582 288.108 175.586 C272.041 175.625 255.973 175.658 239.905 175.688 C223.147 175.72 206.388 175.758 189.63 175.804 C180.325 175.828 171.02 175.85 161.715 175.864 C114.179 175.936 66.717 176.702 19.206 178.261 C19.206 191.461 19.206 204.661 19.206 218.261 C17.556 217.931 15.906 217.601 14.206 217.261 C12.558 213.965 13 210.299 12.968 206.675 C12.96 205.821 12.952 204.968 12.943 204.089 C12.929 202.282 12.919 200.474 12.911 198.667 C12.894 195.903 12.85 193.141 12.806 190.378 C12.796 188.623 12.787 186.868 12.78 185.112 C12.763 184.286 12.745 183.46 12.727 182.609 C12.741 179 12.788 176.899 14.795 173.833 C21.53 169.442 28.922 169.925 36.702 169.847 C37.891 169.827 39.08 169.808 40.304 169.788 C44.084 169.728 47.864 169.682 51.644 169.636 C54.213 169.598 56.783 169.558 59.353 169.519 C65.637 169.423 71.921 169.338 78.206 169.261 C77.093 168.607 75.979 167.953 74.832 167.28 C67.001 162.679 59.174 158.072 51.394 153.386 C50.577 152.895 49.761 152.405 48.92 151.899 C46.348 150.354 43.777 148.807 41.206 147.261 C37.602 145.093 33.998 142.927 30.394 140.761 C29.576 140.268 28.758 139.776 27.916 139.269 C27.139 138.802 26.362 138.335 25.562 137.854 C24.888 137.449 24.214 137.044 23.519 136.626 C22.756 136.175 21.993 135.725 21.206 135.261 C20.149 134.532 19.091 133.803 18.001 133.052 C13.604 130.561 9.963 131.236 5.124 131.999 C-5.784 133.398 -16.498 133.531 -27.481 133.448 C-29.422 133.44 -31.362 133.432 -33.302 133.424 C-43.635 133.37 -53.967 133.255 -64.294 132.886 C-65.215 132.855 -66.136 132.824 -67.086 132.793 C-77.456 132.325 -87.341 130.462 -97.169 127.136 C-98.072 126.83 -98.976 126.524 -99.906 126.209 C-116.052 120.533 -130.087 111.405 -138.794 96.261 C-144.919 83.451 -146.879 65.635 -142.231 52.011 C-141.114 49.593 -141.114 49.593 -139.794 47.261 C-139.296 46.357 -138.799 45.453 -138.286 44.522 C-126.202 24.204 -106.883 13.544 -84.606 7.511 C-57.124 0.546 -28.198 -0.097 0 0 Z M-57.794 10.261 C-59.641 10.482 -61.489 10.701 -63.337 10.917 C-85.893 13.714 -111.776 19.781 -126.794 38.261 C-136.281 51.633 -138.271 64.173 -136.794 80.261 C-135.295 88.307 -131.191 95.22 -125.794 101.261 C-125.079 102.131 -125.079 102.131 -124.349 103.019 C-116.107 112.254 -103.293 117.471 -91.794 121.261 C-90.924 121.557 -90.054 121.854 -89.157 122.159 C-71.393 127.398 -51.345 126.573 -33.006 126.467 C-29.674 126.448 -26.342 126.446 -23.011 126.446 C-20.864 126.441 -18.718 126.436 -16.571 126.429 C-15.589 126.428 -14.607 126.426 -13.595 126.425 C-8.561 126.391 -3.773 126.087 1.206 125.261 C3.64 125.077 6.079 124.953 8.519 124.886 C9.732 124.837 10.945 124.788 12.194 124.737 C21.543 125.347 30.321 132.624 38.074 137.392 C39.923 138.529 41.776 139.661 43.629 140.792 C47.157 142.945 50.682 145.102 54.206 147.261 C57.244 149.121 60.285 150.976 63.331 152.823 C65.006 153.846 65.006 153.846 66.714 154.89 C69.024 156.421 69.024 156.421 71.206 156.261 C70.546 152.383 69.416 148.924 67.991 145.261 C67.552 144.126 67.113 142.992 66.661 141.823 C66.202 140.648 65.742 139.472 65.269 138.261 C64.585 136.497 64.585 136.497 63.888 134.698 C61.536 128.606 61.536 128.606 59.067 122.562 C58.104 119.988 58.05 117.986 58.206 115.261 C59.834 114.464 59.834 114.464 61.495 113.651 C62.941 112.938 64.386 112.224 65.831 111.511 C66.544 111.163 67.257 110.815 67.991 110.456 C84.162 102.445 93.805 91.009 100.206 74.261 C103.943 62.658 103.388 50.281 98.206 39.261 C90.102 24.961 76.218 16.468 60.671 11.843 C46.923 8.597 33.529 7.112 19.413 7.058 C18.201 7.051 16.988 7.044 15.739 7.037 C11.832 7.019 7.925 7.013 4.019 7.011 C3.024 7.01 3.024 7.01 2.009 7.009 C-18.119 6.99 -37.839 7.483 -57.794 10.261 Z M457.206 39.261 C447.815 50.196 444.955 62.102 445.979 76.209 C446.988 85.306 450.451 93.215 456.206 100.261 C456.758 100.936 457.309 101.612 457.878 102.308 C462.894 107.838 468.829 111.197 475.327 114.694 C478.206 116.261 478.206 116.261 479.206 117.261 C478.861 124.201 476.607 129.856 473.894 136.198 C473.502 137.136 473.111 138.074 472.708 139.04 C470.533 144.231 468.276 149.376 465.916 154.486 C465.082 156.252 465.082 156.252 465.206 158.261 C468.874 156.894 472.114 155.233 475.46 153.206 C476.482 152.59 477.503 151.974 478.556 151.339 C479.616 150.694 480.676 150.05 481.769 149.386 C484.97 147.45 488.172 145.519 491.397 143.623 C494.235 141.918 496.896 140.051 499.568 138.096 C513.547 128.25 525.17 127.843 541.894 128.698 C546.48 128.87 551.067 129.008 555.655 129.132 C556.776 129.166 557.896 129.2 559.05 129.235 C575.489 129.589 592.675 127.918 608.206 122.261 C609.235 121.891 610.263 121.521 611.323 121.14 C618.524 118.345 624.9 114.708 631.206 110.261 C631.865 109.801 632.523 109.34 633.202 108.866 C641.411 102.522 647.971 91.214 649.784 81.007 C651.389 66.758 650.677 55.464 641.956 43.511 C630.659 30.109 616.047 23.243 599.206 19.261 C598.373 19.063 597.54 18.866 596.682 18.662 C580.092 14.999 563.432 14.865 546.519 14.823 C544.912 14.814 544.912 14.814 543.273 14.805 C512.808 14.692 479.586 16.053 457.206 39.261 Z " fill="#0C0C0D" transform="translate(240.7939453125,182.7392578125)"/>
<path d="M0 0 C18.868 17.069 32.215 40.143 43.648 62.613 C44.326 63.934 45.003 65.255 45.682 66.576 C49.796 74.597 49.796 74.597 51.711 78.426 C53.196 78.921 53.196 78.921 54.711 79.426 C54.711 77.776 54.711 76.126 54.711 74.426 C60.244 79.426 62.955 86.004 64.203 93.305 C64.634 102.213 60.978 108.864 55.523 115.676 C52.076 119.443 48.133 121.809 43.652 124.199 C43.012 124.604 42.371 125.009 41.711 125.426 C41.711 126.086 41.711 126.746 41.711 127.426 C49.701 127.299 54.081 125.088 59.711 119.426 C66.727 111.019 69.358 102.511 69.055 91.621 C68.044 82.222 62.546 74.331 57.711 66.426 C68.2 66.073 75.715 66.138 83.693 73.377 C86.934 76.668 89.438 80.32 91.961 84.176 C92.786 85.409 92.786 85.409 93.628 86.667 C98.512 94.01 103.231 101.459 107.898 108.941 C109.725 111.867 111.576 114.773 113.461 117.66 C114.097 118.635 114.097 118.635 114.745 119.63 C115.534 120.835 116.326 122.039 117.122 123.24 C119.711 127.206 119.711 127.206 119.711 129.426 C117.858 129.91 116.003 130.388 114.148 130.863 C113.116 131.13 112.083 131.397 111.02 131.672 C99.133 134.38 86.895 133.762 74.768 133.831 C71.932 133.849 69.098 133.884 66.263 133.933 C62.169 134.005 58.075 134.028 53.98 134.047 C52.076 134.089 52.076 134.089 50.133 134.131 C41.576 134.111 41.576 134.111 39.054 132.114 C37.971 130.504 37.971 130.504 36.711 127.426 C29.986 118.625 19.168 114.16 8.711 111.426 C8.711 107.796 8.711 104.166 8.711 100.426 C11.021 101.086 13.331 101.746 15.711 102.426 C14.99 101.046 14.259 99.672 13.523 98.301 C12.914 97.152 12.914 97.152 12.293 95.98 C10.763 93.27 10.763 93.27 8.152 90.988 C4.071 86.195 4.405 79.551 3.836 73.551 C2.304 59.63 -0.93 46.73 -5.289 33.426 C-5.875 31.571 -6.459 29.716 -7.039 27.859 C-8.055 24.612 -9.083 21.368 -10.125 18.129 C-11.675 13.198 -12.408 9.367 -12.352 4.176 C-12.338 2.559 -12.338 2.559 -12.324 0.91 C-12.313 0.09 -12.301 -0.73 -12.289 -1.574 C-7.487 -2.809 -4.172 -2.869 0 0 Z " fill="#FAFAFB" transform="translate(717.2890625,610.57421875)"/>
<path d="M0 0 C4.765 1.554 6.615 5.656 8.875 9.938 C11.045 14.256 11.223 18.311 11.188 23.062 C11.182 24.194 11.182 24.194 11.177 25.348 C11.057 31.577 9.951 37.059 7.875 42.938 C7.44 44.276 7.005 45.615 6.57 46.953 C-17.998 120.515 -17.998 120.515 -40.941 134.676 C-47.509 137.279 -55.26 137.069 -62.008 135.094 C-74.216 129.43 -81.639 119.701 -86.5 107.438 C-88.141 102.143 -88.51 97.126 -88.562 91.625 C-88.573 90.872 -88.583 90.119 -88.593 89.344 C-88.465 81.19 -85.284 74.188 -79.523 68.301 C-73.421 62.749 -68.216 61.659 -60.125 61.938 C-61.465 64.98 -62.892 66.813 -65.375 69 C-74.343 77.763 -79.29 90.859 -79.5 103.25 C-79.359 108.155 -78.87 112.356 -77.125 116.938 C-75.805 117.268 -74.485 117.597 -73.125 117.938 C-73.197 117.366 -73.269 116.795 -73.344 116.207 C-75.048 101.322 -74.66 88.298 -65.125 75.938 C-64.125 77.938 -64.125 77.938 -65.062 81.062 C-65.413 82.011 -65.764 82.96 -66.125 83.938 C-62.283 82.468 -61.068 80.63 -59.164 77.047 C-58.617 76.038 -58.071 75.029 -57.507 73.99 C-56.927 72.9 -56.347 71.81 -55.75 70.688 C-20.476 6.143 -20.476 6.143 0 0 Z " fill="#FBFCFC" transform="translate(585.125,608.0625)"/>
<path d="M0 0 C1.322 0.318 1.322 0.318 2.67 0.643 C15.016 3.313 27.009 3.418 39.601 3.372 C41.941 3.375 44.282 3.378 46.623 3.383 C52.932 3.393 59.241 3.383 65.55 3.37 C71.493 3.36 77.436 3.362 83.38 3.364 C95.144 3.367 106.908 3.356 118.672 3.336 C130.079 3.317 141.486 3.31 152.893 3.316 C165.343 3.322 177.794 3.322 190.245 3.31 C196.826 3.304 203.408 3.301 209.989 3.303 C216.165 3.305 222.341 3.297 228.517 3.281 C230.786 3.277 233.054 3.276 235.323 3.279 C238.413 3.282 241.502 3.273 244.591 3.261 C245.946 3.266 245.946 3.266 247.329 3.272 C248.156 3.266 248.983 3.26 249.836 3.254 C250.548 3.254 251.261 3.253 251.996 3.252 C254.332 2.958 255.916 2.064 258 1 C258.99 1 259.98 1 261 1 C261 1.66 261 2.32 261 3 C266.61 3 272.22 3 278 3 C278.085 9.126 277.99 14.95 277 21 C275.449 22.551 273.989 22.127 271.829 22.129 C270.924 22.132 270.019 22.135 269.086 22.138 C268.081 22.137 267.075 22.135 266.038 22.134 C264.449 22.137 264.449 22.137 262.828 22.141 C259.247 22.147 255.667 22.146 252.086 22.145 C249.531 22.148 246.976 22.152 244.42 22.155 C238.18 22.163 231.94 22.166 225.699 22.167 C220.624 22.168 215.55 22.17 210.475 22.173 C196.088 22.182 181.702 22.186 167.315 22.185 C166.539 22.185 165.763 22.185 164.963 22.185 C164.185 22.185 163.408 22.185 162.607 22.185 C150.027 22.185 137.446 22.194 124.866 22.208 C111.95 22.223 99.034 22.23 86.118 22.229 C78.866 22.229 71.615 22.231 64.363 22.242 C57.536 22.252 50.71 22.252 43.884 22.245 C41.38 22.243 38.877 22.246 36.374 22.252 C32.95 22.26 29.528 22.255 26.104 22.247 C24.626 22.255 24.626 22.255 23.117 22.263 C15.759 22.226 8.102 22.134 1.895 17.863 C-0.504 14.238 -0.571 11.368 -0.312 7.188 C-0.207 4.792 -0.102 2.396 0 0 Z " fill="#FBFBFB" transform="translate(286,748)"/>
<path d="M0 0 C0.983 0.001 1.965 0.001 2.978 0.002 C32.261 0.069 60.819 1.629 83.426 22.488 C94.871 34.241 99.37 48.098 99.25 64.25 C99.258 65.292 99.265 66.333 99.273 67.406 C99.233 83.554 93.063 99.647 83 112.25 C81.876 113.274 80.733 114.279 79.562 115.25 C76.202 119.185 75.75 122.189 75.586 127.293 C76.312 132.479 79.18 134.919 83 138.25 C84.056 139.29 84.056 139.29 85.133 140.352 C95.068 149.882 107.075 157.456 119 164.25 C118.67 164.91 118.34 165.57 118 166.25 C111.591 166.445 105.674 166.424 99.453 164.812 C96.443 164.122 93.439 163.76 90.375 163.375 C83.516 162.42 77.004 160.817 70.352 158.916 C67.614 158.141 64.87 157.392 62.125 156.645 C59.979 156.055 57.833 155.466 55.688 154.875 C54.606 154.579 53.525 154.283 52.411 153.978 C47.528 152.617 42.723 151.21 37.988 149.395 C28.867 145.898 22.337 144.706 12.648 146.504 C0.313 148.746 -12.621 148.456 -25.125 148.438 C-25.884 148.437 -26.642 148.436 -27.424 148.436 C-57.685 148.371 -88.878 145.997 -111.938 123.875 C-125.918 109.042 -129.548 90.762 -129.273 70.922 C-128.695 53.703 -120.988 40.259 -109 28.25 C-108.386 27.625 -107.773 27 -107.141 26.355 C-97.078 16.83 -83.994 11.454 -71 7.25 C-69.851 6.87 -68.703 6.489 -67.52 6.098 C-45.795 -0.18 -22.426 -0.022 0 0 Z M-47 9.25 C-47.979 9.395 -48.957 9.539 -49.966 9.688 C-71.832 12.958 -90.983 19.233 -107 35.25 C-107.66 35.91 -108.32 36.57 -109 37.25 C-118.462 47.364 -122.565 60.078 -122.312 73.75 C-122.316 74.623 -122.319 75.495 -122.322 76.395 C-122.186 93.17 -116.552 108.682 -104.602 120.652 C-92.455 131.321 -77.629 136.901 -62 140.25 C-61.174 140.43 -60.348 140.611 -59.497 140.796 C-54.363 141.462 -49.265 141.413 -44.094 141.418 C-42.937 141.421 -41.78 141.425 -40.588 141.428 C-38.14 141.433 -35.693 141.435 -33.245 141.435 C-29.541 141.437 -25.837 141.456 -22.133 141.475 C-10.525 141.502 0.556 141.277 12 139.25 C21.66 137.68 28.722 138.801 37.888 142.22 C41.166 143.442 44.472 144.583 47.773 145.738 C48.411 145.964 49.049 146.19 49.707 146.423 C55.582 148.493 61.464 150.057 67.527 151.449 C71.385 152.339 75.185 153.382 79 154.438 C84.024 155.793 88.817 156.827 94 157.25 C90.981 154.182 87.907 151.23 84.699 148.357 C67.159 132.616 67.159 132.616 65 124.25 C65.134 120.741 65.713 119.536 68.223 117.031 C69.16 116.278 70.097 115.526 71.062 114.75 C83.559 104.055 90.475 87.485 92 71.25 C93.144 55.253 90.665 42.791 80 30.25 C79.354 29.457 78.708 28.664 78.043 27.848 C64.879 13.123 42.479 7.804 23.5 6.531 C-0.099 5.344 -23.626 5.576 -47 9.25 Z " fill="#0E0E0F" transform="translate(182,387.75)"/>
<path d="M0 0 C8.375 8.161 14.84 18.214 15.266 30.234 C15.275 31.74 15.269 33.245 15.25 34.75 C15.237 35.942 15.237 35.942 15.223 37.159 C14.908 53.221 9.372 66.34 -2 78 C-11.783 86.208 -22.826 90.613 -35 94 C-35.91 94.278 -36.82 94.557 -37.758 94.844 C-51.213 98.677 -66.053 99.52 -80 99 C-80.254 99.688 -80.508 100.377 -80.77 101.086 C-81.905 103.776 -83.225 106.266 -84.664 108.804 C-94.085 125.572 -98.741 143.665 -103.241 162.255 C-103.983 164.937 -104.915 167.44 -106 170 C-107.926 167.111 -108.404 165.767 -109.008 162.469 C-109.186 161.53 -109.364 160.591 -109.548 159.623 C-109.738 158.592 -109.929 157.562 -110.125 156.5 C-112.247 145.442 -114.655 134.47 -117.188 123.5 C-117.362 122.745 -117.536 121.991 -117.715 121.213 C-118.378 118.34 -119.042 115.468 -119.708 112.595 C-120.834 107.736 -121.93 102.872 -123 98 C-124.238 98.041 -125.475 98.082 -126.75 98.125 C-148.088 98.025 -171.698 88.944 -187 74 C-198.07 62.213 -201.864 47.898 -201.375 32.035 C-200.516 19.134 -192.465 7.637 -183.348 -1.059 C-165.424 -15.881 -142.515 -20.021 -120 -22 C-118.177 -22.168 -118.177 -22.168 -116.316 -22.34 C-79.116 -25.119 -29.227 -27.474 0 0 Z M-180.887 6.66 C-190.091 16.851 -194.907 27.495 -194.445 41.41 C-193.154 51.82 -189.056 60.344 -182 68 C-181.501 68.601 -181.002 69.201 -180.488 69.82 C-165.772 86.353 -139.856 90.488 -119 93 C-113.056 109.736 -109.544 126.442 -107 144 C-106.34 144 -105.68 144 -105 144 C-104.648 142.742 -104.296 141.484 -103.934 140.188 C-99.256 123.821 -93.366 108.318 -84 94 C-81.431 92.715 -79.116 92.842 -76.288 92.761 C-58.906 92.233 -41.028 90.042 -25 83 C-24.105 82.621 -23.211 82.242 -22.289 81.852 C-9.481 75.98 -0.94 66.894 4.938 54.188 C8.733 43.544 9.012 29.963 5.062 19.312 C-2.309 4.716 -15.793 -3.831 -30.848 -8.973 C-32.454 -9.455 -34.065 -9.92 -35.684 -10.359 C-38 -11 -38 -11 -40.711 -11.977 C-78.711 -23.801 -150.937 -22.786 -180.887 6.66 Z " fill="#0E0E0F" transform="translate(606,145)"/>
<path d="M0 0 C2 3 2 3 2 6 C2.66 6 3.32 6 4 6 C2.753 9.302 1.289 12.217 -0.5 15.25 C-4.015 22.578 -4.015 22.578 -5 38 C-30.41 38 -55.82 38 -82 38 C-80.994 31.963 -79.595 26.167 -78.062 20.25 C-77.798 19.197 -77.533 18.144 -77.26 17.059 C-77 16.054 -76.74 15.05 -76.473 14.016 C-76.238 13.101 -76.004 12.186 -75.762 11.243 C-75 9 -75 9 -73 7 C-70.026 6.759 -70.026 6.759 -66.164 6.773 C-65.461 6.773 -64.758 6.772 -64.035 6.772 C-61.708 6.773 -59.381 6.789 -57.055 6.805 C-55.443 6.808 -53.832 6.811 -52.22 6.813 C-47.976 6.821 -43.731 6.841 -39.486 6.863 C-35.156 6.883 -30.826 6.892 -26.496 6.902 C-17.997 6.924 -9.499 6.958 -1 7 C-1.495 4.03 -1.495 4.03 -2 1 C-1.34 0.67 -0.68 0.34 0 0 Z " fill="#F2F2F2" transform="translate(496,667)"/>
<path d="M0 0 C2.213 0.382 3.824 0.888 5.725 2.1 C7.682 5.016 7.421 8.012 7.406 11.406 C7.417 12.127 7.428 12.848 7.439 13.591 C7.485 16.674 7.496 19.756 7.511 22.839 C7.527 25.091 7.56 27.342 7.594 29.594 C7.591 30.291 7.588 30.988 7.585 31.706 C7.61 35.43 7.61 35.43 9.221 38.684 C11.555 40.41 12.958 40.374 15.846 40.372 C16.84 40.378 17.833 40.385 18.856 40.391 C19.939 40.382 21.021 40.373 22.137 40.363 C23.267 40.365 24.398 40.366 25.563 40.367 C29.271 40.366 32.979 40.34 36.688 40.312 C39.247 40.303 41.807 40.293 44.366 40.283 C67.242 40.153 90.097 39.438 112.897 37.508 C130.516 36.058 148.042 35.727 165.705 35.797 C169.498 35.81 173.291 35.811 177.084 35.813 C184.216 35.819 191.347 35.836 198.479 35.856 C206.62 35.879 214.761 35.889 222.902 35.899 C239.601 35.92 256.301 35.955 273 36 C273 38.64 273 41.28 273 44 C272.249 44.002 271.499 44.005 270.726 44.007 C252.146 44.067 233.566 44.143 214.985 44.236 C205.999 44.28 197.012 44.319 188.026 44.346 C151.254 44.459 114.559 44.647 77.847 46.929 C58.678 48.121 39.543 48.43 20.34 48.496 C19.049 48.503 19.049 48.503 17.732 48.509 C11.941 48.489 6.835 47.309 2 44 C-0.64 39.413 -0.262 34.277 -0.195 29.102 C-0.192 28.267 -0.19 27.432 -0.187 26.571 C-0.176 23.922 -0.151 21.274 -0.125 18.625 C-0.115 16.822 -0.106 15.018 -0.098 13.215 C-0.076 8.81 -0.041 4.405 0 0 Z " fill="#141414" transform="translate(254,553)"/>
<path d="M0 0 C2.52 0.016 5.039 0 7.56 -0.019 C28.663 -0.046 53.705 2.131 69.896 17.141 C81.724 30.008 82.89 47.258 82.896 63.891 C82.897 65.179 82.899 66.467 82.901 67.794 C82.82 74.625 82.313 80.794 80.521 87.391 C80.191 87.391 79.861 87.391 79.521 87.391 C79.536 86.465 79.552 85.538 79.568 84.584 C79.62 81.076 79.657 77.569 79.685 74.061 C79.7 72.556 79.721 71.051 79.747 69.546 C80.007 54.258 78.829 38.753 68.845 26.301 C63.176 20.754 55.816 18.175 48.521 15.391 C47.878 15.128 47.236 14.866 46.574 14.595 C42.029 12.779 37.651 11.703 32.771 11.204 C32.018 11.125 31.266 11.046 30.49 10.964 C-1.106 8.074 -38.02 8.558 -64.479 28.391 C-73.394 36.189 -78.333 49.019 -79.31 60.576 C-81.3 83.583 -81.3 83.583 -74.812 105.09 C-74.372 105.85 -73.932 106.609 -73.479 107.391 C-73.974 108.381 -73.974 108.381 -74.479 109.391 C-87.16 95.201 -87.416 78.574 -86.652 60.448 C-85.744 44.358 -81.94 29.608 -69.772 18.262 C-62.706 12.496 -55.02 8.959 -46.417 6.141 C-45.717 5.907 -45.018 5.673 -44.297 5.432 C-29.908 1.031 -14.963 -0.113 0 0 Z " fill="#F1F1F1" transform="translate(677.4794921875,723.60888671875)"/>
<path d="M0 0 C2.402 0.018 4.804 0.021 7.206 0.02 C27.989 0.066 27.989 0.066 33.521 2.956 C34.443 3.412 34.443 3.412 35.384 3.878 C37.966 5.758 39.503 7.485 41.208 10.206 C41.494 12.967 41.594 15.287 41.458 18.018 C41.44 18.711 41.422 19.404 41.404 20.118 C41.357 21.814 41.285 23.51 41.208 25.206 C36.742 25.374 32.848 25.192 28.486 24.218 C20.721 22.763 12.951 22.861 5.083 22.893 C3.904 22.893 3.904 22.893 2.701 22.893 C-10.547 22.905 -23.411 23.88 -36.5 26.044 C-39.103 26.228 -41.266 25.818 -43.792 25.206 C-42.576 11.095 -42.576 11.095 -38.667 6.956 C-26.928 -0.19 -13.316 -0.105 0 0 Z " fill="#F9F9F9" transform="translate(649.791748046875,577.794189453125)"/>
<path d="M0 0 C3.085 -0.433 5.02 -0.685 8 0 C11.982 3.18 15.189 6.874 16 12 C17.106 23.205 17.106 23.205 14 27.938 C11.361 31.056 8.142 33.025 4.574 34.957 C4.055 35.301 3.535 35.645 3 36 C3 36.66 3 37.32 3 38 C5.64 38 8.28 38 11 38 C11.208 38.629 11.415 39.258 11.629 39.906 C15.182 49.779 20.373 55.473 29.375 60.773 C36.809 64.247 43.824 64.404 51.938 64.625 C53.679 64.683 53.679 64.683 55.455 64.742 C58.303 64.836 61.151 64.922 64 65 C64 67.97 64 70.94 64 74 C63.31 74.025 62.619 74.05 61.908 74.076 C58.751 74.193 55.594 74.315 52.438 74.438 C51.351 74.477 50.265 74.516 49.146 74.557 C43.69 74.772 38.387 75.112 33 76 C24.753 76.811 19.126 74.071 12.539 69.168 C2.426 60.651 -2.541 49.781 -3.834 36.643 C-4.173 31.245 -4.101 25.843 -4.062 20.438 C-4.058 19.238 -4.053 18.039 -4.049 16.803 C-4.037 13.868 -4.021 10.934 -4 8 C-2 10 -2 10 -1.805 12.82 C-1.839 14.456 -1.839 14.456 -1.875 16.125 C-1.893 17.221 -1.911 18.316 -1.93 19.445 C-1.964 20.71 -1.964 20.71 -2 22 C1.122 20.691 1.122 20.691 3 18 C3.503 11.989 3.839 6.958 0 2 C0 1.34 0 0.68 0 0 Z " fill="#F5F5F5" transform="translate(598,497)"/>
<path d="M0 0 C0.108 2.772 0.187 5.54 0.25 8.312 C0.284 9.098 0.317 9.884 0.352 10.693 C0.449 16.408 0.449 16.408 -1.453 18.918 C-9.618 22.387 -17.85 22.269 -26.566 22.195 C-27.841 22.192 -29.116 22.19 -30.429 22.187 C-33.788 22.177 -37.146 22.16 -40.505 22.137 C-43.944 22.117 -47.383 22.108 -50.822 22.098 C-57.548 22.076 -64.274 22.041 -71 22 C-72.65 15.73 -74.3 9.46 -76 3 C-74.154 2.98 -72.309 2.96 -70.407 2.94 C-64.264 2.872 -58.122 2.795 -51.979 2.712 C-48.26 2.663 -44.541 2.616 -40.822 2.578 C-37.223 2.541 -33.625 2.494 -30.026 2.442 C-28.006 2.415 -25.985 2.397 -23.965 2.379 C-15.931 2.252 -7.879 0 0 0 Z " fill="#F9F9F9" transform="translate(838,748)"/>
<path d="M0 0 C4.512 0.488 4.512 0.488 6.438 2.508 C8.649 6.035 10.138 9.77 11.688 13.625 C12.008 14.401 12.328 15.177 12.658 15.977 C15 21.729 15 21.729 15 24 C16.32 24.33 17.64 24.66 19 25 C18.794 25.866 18.587 26.733 18.375 27.625 C17.954 31.415 18.719 33.457 20 37 C20.125 39.875 20.125 39.875 20 42 C17.525 42.495 17.525 42.495 15 43 C13.68 38.71 12.36 34.42 11 30 C5.06 30.33 -0.88 30.66 -7 31 C-8.32 35.29 -9.64 39.58 -11 44 C-12.65 44 -14.3 44 -16 44 C-15.94 34.6 -12.944 27.093 -9.125 18.625 C-8.575 17.369 -8.027 16.113 -7.48 14.855 C-5.22 9.722 -2.978 4.763 0 0 Z " fill="#131213" transform="translate(343,464)"/>
<path d="M0 0 C1.65 0 3.3 0 5 0 C8.68 6.88 11.486 13.746 13.812 21.188 C14.124 22.133 14.435 23.079 14.756 24.053 C16.397 29.23 17.383 33.569 17 39 C15.68 39 14.36 39 13 39 C10 32.5 10 32.5 10 28 C4.39 28 -1.22 28 -7 28 C-7.474 29.609 -7.949 31.217 -8.438 32.875 C-9.875 37.75 -9.875 37.75 -11 40 C-12.65 39.67 -14.3 39.34 -16 39 C-14.68 32.052 -12.533 25.962 -9.688 19.5 C-9.309 18.614 -8.931 17.729 -8.541 16.816 C-6.021 11.008 -3.179 5.474 0 0 Z " fill="#171718" transform="translate(334,394)"/>
<path d="M0 0 C1.32 0 2.64 0 4 0 C4.495 18.315 4.495 18.315 5 37 C4.01 37 3.02 37 2 37 C2 36.34 2 35.68 2 35 C1.216 35.66 0.433 36.32 -0.375 37 C-4.021 39.408 -7.343 39.705 -11.652 39.504 C-14.69 38.852 -16.496 37.509 -18.223 34.91 C-19.714 31.245 -19.759 27.855 -19 24 C-16.995 20.197 -15.573 18.382 -12 16 C-9.809 15.77 -9.809 15.77 -7.438 15.812 C-6.652 15.819 -5.867 15.825 -5.059 15.832 C-3 16 -3 16 -1 17 C-1.012 15.857 -1.023 14.713 -1.035 13.535 C-1.045 12.044 -1.054 10.553 -1.062 9.062 C-1.071 8.308 -1.079 7.553 -1.088 6.775 C-1.097 4.85 -1.052 2.925 -1 1 C-0.67 0.67 -0.34 0.34 0 0 Z " fill="#0D0C0D" transform="translate(389,466)"/>
<path d="M0 0 C1.32 0 2.64 0 4 0 C4.33 10.89 4.66 21.78 5 33 C3.35 32.67 1.7 32.34 0 32 C-1.674 32.987 -3.341 33.988 -5 35 C-8.508 35.439 -10.501 35.215 -13.75 33.812 C-17.405 30.868 -17.828 28.161 -18.5 23.625 C-17.829 18.759 -15.557 16.262 -12 13 C-9.014 11.507 -6.291 11.882 -3 12 C-2.34 12.33 -1.68 12.66 -1 13 C-1.012 12.145 -1.023 11.291 -1.035 10.41 C-1.044 9.305 -1.053 8.201 -1.062 7.062 C-1.074 5.96 -1.086 4.858 -1.098 3.723 C-1 1 -1 1 0 0 Z " fill="#0F0F10" transform="translate(419,469)"/>
<path d="M0 0 C1.32 0 2.64 0 4 0 C4.33 11.55 4.66 23.1 5 35 C3.68 34.67 2.36 34.34 1 34 C1 33.34 1 32.68 1 32 C0.34 32.66 -0.32 33.32 -1 34 C-4.376 36.251 -6.116 36.593 -10.066 36.398 C-13.124 35.768 -14.866 34.198 -17 32 C-18.614 28.771 -18.596 25.49 -18 22 C-16.264 18.975 -14.164 16.582 -11 15 C-9.125 14.867 -9.125 14.867 -7 14.875 C-5.948 14.871 -5.948 14.871 -4.875 14.867 C-3 15 -3 15 -1 16 C-1.012 14.929 -1.023 13.858 -1.035 12.754 C-1.045 11.357 -1.054 9.96 -1.062 8.562 C-1.071 7.855 -1.079 7.148 -1.088 6.42 C-1.097 4.613 -1.052 2.806 -1 1 C-0.67 0.67 -0.34 0.34 0 0 Z " fill="#111011" transform="translate(373,396)"/>
<path d="M0 0 C0 0.99 0 1.98 0 3 C-11.42 4.654 -22.79 5.227 -34.312 5.5 C-44.335 5.738 -54.253 6.162 -64.224 7.267 C-72.789 8.176 -81.366 8.421 -89.972 8.658 C-96.676 8.848 -103.332 9.208 -110.014 9.791 C-114.677 10.118 -119.329 10.084 -124 10 C-124 9.01 -124 8.02 -124 7 C-104.042 4.969 -84.123 3.515 -64.08 2.647 C-62.839 2.592 -62.839 2.592 -61.573 2.535 C-60.027 2.467 -58.481 2.402 -56.935 2.342 C-52.879 2.164 -48.996 1.694 -45 1 C-43.134 0.861 -41.265 0.757 -39.395 0.684 C-37.808 0.621 -37.808 0.621 -36.189 0.556 C-35.075 0.517 -33.96 0.478 -32.812 0.438 C-31.095 0.374 -31.095 0.374 -29.342 0.309 C-19.558 -0.03 -9.788 -0.106 0 0 Z " fill="#1D1D1D" transform="translate(486,517)"/>
<path d="M0 0 C0.99 0 1.98 0 3 0 C3.193 0.554 3.387 1.109 3.586 1.68 C3.977 2.766 3.977 2.766 4.375 3.875 C4.63 4.594 4.885 5.314 5.148 6.055 C5.939 8.182 5.939 8.182 8 10 C5.875 14.941 3.737 19.083 0 23 C-4.061 23.88 -7.298 23.724 -11.414 23.262 C-15.198 22.986 -17.522 23.572 -21 25 C-21.392 24.196 -21.784 23.391 -22.188 22.562 C-23.769 19.769 -23.769 19.769 -26.688 19.188 C-27.832 19.095 -27.832 19.095 -29 19 C-27.375 17.812 -27.375 17.812 -25 17 C-21.875 18.375 -21.875 18.375 -19 20 C-18.34 20 -17.68 20 -17 20 C-17.656 16.39 -17.656 16.39 -19 13 C-16.69 13 -14.38 13 -12 13 C-12.33 11.02 -12.66 9.04 -13 7 C-13.99 6.67 -14.98 6.34 -16 6 C-16 5.34 -16 4.68 -16 4 C-13.032 4.44 -11.92 5.071 -9.625 7.125 C-7.086 9.362 -7.086 9.362 -3.688 8.75 C-2.801 8.503 -1.914 8.255 -1 8 C-1.031 6.298 -1.031 6.298 -1.062 4.562 C-1 1 -1 1 0 0 Z " fill="#F1F2F2" transform="translate(530,642)"/>
<path d="M0 0 C3.375 2.062 3.375 2.062 6 5 C6.375 8.812 6.375 8.812 6 12 C1.03 14.434 -2.346 15.346 -8 15 C-7.01 16.485 -7.01 16.485 -6 18 C-1.147 18.324 3.22 17.956 8 17 C7.688 19.375 7.688 19.375 7 22 C2.556 24.963 -1.789 24.769 -7 24 C-9.897 21.798 -11.393 20.214 -13 17 C-13.374 11.388 -13.161 7.854 -10 3 C-6.885 -0.222 -4.402 -0.704 0 0 Z " fill="#131313" transform="translate(464,478)"/>
<path d="M0 0 C2.533 0.05 3.868 0.114 6.125 1.312 C7.671 4.309 7.365 6.944 7.125 10.25 C6.795 10.91 6.465 11.57 6.125 12.25 C6.785 12.786 7.445 13.322 8.125 13.875 C10.125 16.25 10.125 16.25 10.688 19.188 C9.907 23.437 8.667 24.792 5.125 27.25 C2.076 27.653 -0.82 27.549 -3.875 27.25 C-5.173 24.654 -5.005 22.743 -5.008 19.84 C-5.009 18.768 -5.01 17.696 -5.012 16.592 C-5.008 15.468 -5.004 14.345 -5 13.188 C-5.004 12.06 -5.008 10.933 -5.012 9.771 C-5.01 8.701 -5.009 7.63 -5.008 6.527 C-5.007 5.54 -5.006 4.552 -5.004 3.535 C-4.784 -0.354 -4.113 0.265 0 0 Z " fill="#181819" transform="translate(131.875,234.75)"/>
<path d="M0 0 C0.99 0 1.98 0 3 0 C3.65 1.727 4.295 3.457 4.938 5.188 C5.477 6.632 5.477 6.632 6.027 8.105 C6.912 10.737 7.526 13.269 8 16 C9.71 13.435 10.904 11.12 12.125 8.312 C12.478 7.504 12.831 6.696 13.195 5.863 C13.461 5.248 13.726 4.634 14 4 C15.32 4 16.64 4 18 4 C19.65 7.3 21.3 10.6 23 14 C24.617 9.379 25.852 4.754 27 0 C27.99 0 28.98 0 30 0 C30.613 7.698 29.683 15.1 26 22 C23.961 22.91 23.961 22.91 22 23 C19.078 20.977 18.052 18.318 17 15 C17 13.68 17 12.36 17 11 C16.34 11 15.68 11 15 11 C14.876 12.238 14.876 12.238 14.75 13.5 C13.836 17.768 12.078 21.192 10 25 C8.106 24.739 8.106 24.739 6 24 C4.995 22.329 4.995 22.329 4.297 20.176 C4.039 19.394 3.781 18.612 3.516 17.807 C3.263 16.984 3.01 16.161 2.75 15.312 C2.348 14.107 2.348 14.107 1.938 12.877 C0.522 8.461 -0.334 4.692 0 0 Z " fill="#1F1E20" transform="translate(454,165)"/>
<path d="M0 0 C4.351 0.363 5.747 1.224 8.75 4.312 C11.281 8.557 11.436 12.482 10.75 17.312 C9.114 20.527 7.777 22.559 4.875 24.688 C2.086 25.508 -0.361 25.505 -3.25 25.312 C-4.935 23.627 -4.38 21.525 -4.383 19.219 C-4.385 17.674 -4.385 17.674 -4.387 16.098 C-4.383 15.014 -4.379 13.929 -4.375 12.812 C-4.379 11.728 -4.383 10.644 -4.387 9.527 C-4.385 8.497 -4.384 7.467 -4.383 6.406 C-4.382 5.454 -4.381 4.502 -4.379 3.521 C-4.172 -0.018 -3.645 0.35 0 0 Z " fill="#1B1A1D" transform="translate(737.25,250.6875)"/>
<path d="M0 0 C3.525 0.641 5.605 1.459 8.438 3.625 C9.792 6.334 9.503 8.634 9.438 11.625 C8.024 12.133 6.606 12.631 5.188 13.125 C4.399 13.403 3.61 13.682 2.797 13.969 C0.438 14.625 0.438 14.625 -3.562 14.625 C-3.232 15.285 -2.903 15.945 -2.562 16.625 C-1.887 16.625 -1.212 16.625 -0.516 16.625 C3.469 16.625 7.453 16.625 11.438 16.625 C11.188 18.5 11.188 18.5 10.438 20.625 C6.081 23.406 1.435 23.304 -3.562 22.625 C-6.497 20.829 -8.035 19.681 -9.562 16.625 C-10.201 12.655 -10.321 9.115 -8.469 5.477 C-5.828 2.036 -4.358 0.765 0 0 Z " fill="#151516" transform="translate(533.5625,404.375)"/>
<path d="M0 0 C2.562 1.625 2.562 1.625 4 4 C4.562 7.062 4.562 7.062 4 10 C0.186 13.456 -4.07 13.582 -9 14 C-8.01 15.485 -8.01 15.485 -7 17 C-2.88 17.375 0.952 16.771 5 16 C5 17.32 5 18.64 5 20 C0.316 23.122 -4.527 22.819 -10 22 C-13.049 20.35 -13.378 19.303 -15 16 C-15.95 11.111 -15.484 7.903 -13.125 3.5 C-9.427 -0.851 -5.438 -0.686 0 0 Z " fill="#101010" transform="translate(421,408)"/>
<path d="M0 0 C3.488 2.695 4.853 4.168 5.629 8.559 C5.607 9.839 5.585 11.119 5.562 12.438 C5.564 14.354 5.564 14.354 5.566 16.309 C4.918 20.533 3.675 22.703 1 26 C-2 28 -2 28 -4.688 27.625 C-5.832 27.316 -5.832 27.316 -7 27 C-7 26.34 -7 25.68 -7 25 C-6.072 24.67 -5.144 24.34 -4.188 24 C0.207 21.242 0.557 18.891 2 14 C1.278 14.66 0.556 15.32 -0.188 16 C-3 18 -3 18 -5.562 18.562 C-8 18 -8 18 -10.312 15.875 C-12.319 12.456 -12.637 10.901 -12 7 C-8.726 1.215 -6.765 -0.796 0 0 Z " fill="#1B1A1C" transform="translate(237,457)"/>
<path d="M0 0 C3.674 0.601 4.959 0.844 7.438 3.562 C7.818 6.504 7.952 9.008 7.875 11.938 C7.882 12.693 7.889 13.448 7.896 14.227 C7.844 18.812 7.353 21.826 4.438 25.562 C1.431 27.599 0.247 27.562 -3.562 27.562 C-3.562 26.572 -3.562 25.582 -3.562 24.562 C-2.243 24.562 -0.923 24.562 0.438 24.562 C1.098 21.593 1.757 18.623 2.438 15.562 C1.447 16.222 0.457 16.882 -0.562 17.562 C-3.323 17.908 -4.925 17.914 -7.375 16.562 C-9.3 13.321 -9.273 10.156 -8.562 6.562 C-6.644 2.513 -4.522 0.714 0 0 Z " fill="#1C1B1D" transform="translate(304.5625,231.4375)"/>
<path d="M0 0 C0.99 0 1.98 0 3 0 C3.33 0.66 3.66 1.32 4 2 C4.866 1.649 5.733 1.299 6.625 0.938 C10.355 -0.099 12.315 -0.121 16 1 C19.327 3.588 20.72 6.031 22 10 C22.195 13.332 22.195 13.332 22.125 16.812 C22.107 17.974 22.089 19.135 22.07 20.332 C22.047 21.212 22.024 22.093 22 23 C20.35 22.67 18.7 22.34 17 22 C16.951 21.252 16.902 20.505 16.852 19.734 C16.777 18.75 16.702 17.765 16.625 16.75 C16.555 15.775 16.486 14.801 16.414 13.797 C16.015 11.104 15.365 9.33 14 7 C10.845 7.256 9.405 7.552 7.25 9.938 C5.503 14.217 5.258 18.415 5 23 C3.68 23 2.36 23 1 23 C-0.226 20.547 -0.114 18.949 -0.098 16.211 C-0.094 15.27 -0.091 14.329 -0.088 13.359 C-0.08 12.375 -0.071 11.39 -0.062 10.375 C-0.058 9.382 -0.053 8.39 -0.049 7.367 C-0.037 4.911 -0.021 2.456 0 0 Z " fill="#121213" transform="translate(477,477)"/>
<path d="M0 0 C0.99 0 1.98 0 3 0 C6.726 7.452 5.118 18.869 5 27 C4.196 27.144 3.391 27.289 2.562 27.438 C0.079 27.741 0.079 27.741 -1 29 C-6.338 29.464 -6.338 29.464 -8.672 27.828 C-10.492 25.322 -10.4 23.571 -10.375 20.5 C-10.383 19.541 -10.39 18.582 -10.398 17.594 C-10 15 -10 15 -8.707 13.168 C-5.953 11.284 -3.227 11.817 0 12 C0 8.04 0 4.08 0 0 Z " fill="#1A191A" transform="translate(136,454)"/>
<path d="M0 0 C0.99 0.33 1.98 0.66 3 1 C3 1.66 3 2.32 3 3 C3.681 2.484 4.361 1.969 5.062 1.438 C8.965 -0.472 10.864 -0.256 15 1 C17.956 3.539 19.762 6.285 21 10 C21.069 12.061 21.085 14.125 21.062 16.188 C21.053 17.274 21.044 18.361 21.035 19.48 C21.024 20.312 21.012 21.143 21 22 C19.68 22 18.36 22 17 22 C16.801 20.77 16.801 20.77 16.598 19.516 C16.421 18.438 16.244 17.36 16.062 16.25 C15.888 15.183 15.714 14.115 15.535 13.016 C15.113 10.637 14.628 8.331 14 6 C9.176 7.269 9.176 7.269 6 11 C5.544 13.509 5.544 13.509 5.375 16.188 C5.3 17.089 5.225 17.99 5.148 18.918 C5.099 19.605 5.05 20.292 5 21 C3.062 21.562 3.062 21.562 1 22 C-2.541 18.459 -1.121 8.073 -1.133 3.441 C-1 1 -1 1 0 0 Z " fill="#151516" transform="translate(432,407)"/>
<path d="M0 0 C1.32 0 2.64 0 4 0 C4.348 7.487 4.214 16.68 0 23 C-3.255 22.651 -4.019 21.979 -6.25 19.438 C-6.828 18.633 -7.405 17.829 -8 17 C-8.412 17.969 -8.825 18.939 -9.25 19.938 C-11 23 -11 23 -13.109 23.691 C-13.733 23.793 -14.357 23.895 -15 24 C-17.945 16.728 -20.56 9.723 -22 2 C-20.105 2.336 -20.105 2.336 -18 3 C-15.298 7.203 -14.493 11.068 -14 16 C-13.34 16 -12.68 16 -12 16 C-11.67 14.02 -11.34 12.04 -11 10 C-9.68 9.67 -8.36 9.34 -7 9 C-5.02 11.97 -5.02 11.97 -3 15 C-1.429 9.974 -0.551 5.239 0 0 Z " fill="#1B1A1C" transform="translate(130,425)"/>
<path d="M0 0 C0.99 0.33 1.98 0.66 3 1 C3.061 1.592 3.121 2.183 3.184 2.793 C3.62 6.91 4.087 10.955 5 15 C7.697 14.011 8.79 13.408 10.125 10.812 C11.138 7.555 12.097 4.289 13 1 C16.875 1.875 16.875 1.875 18 3 C18.073 5.863 18.092 8.701 18.062 11.562 C18.058 12.369 18.053 13.175 18.049 14.006 C18.037 16.004 18.019 18.002 18 20 C16.68 20 15.36 20 14 20 C13.34 19.34 12.68 18.68 12 18 C11.649 18.516 11.299 19.031 10.938 19.562 C9 21 9 21 5.5 21 C2 20 2 20 0.297 17.891 C-1.307 14.317 -1.332 11.654 -1.25 7.75 C-1.235 6.507 -1.219 5.265 -1.203 3.984 C-1 1 -1 1 0 0 Z " fill="#121213" transform="translate(478,407)"/>
<path d="M0 0 C1.32 0 2.64 0 4 0 C4 2.64 4 5.28 4 8 C5.98 8 7.96 8 10 8 C10.562 9.938 10.562 9.938 11 12 C10 13 10 13 6.938 13.062 C5.968 13.042 4.999 13.021 4 13 C4.33 16.3 4.66 19.6 5 23 C7.31 23 9.62 23 12 23 C12.188 25.375 12.188 25.375 12 28 C8.296 30.469 6.379 30.469 2 30 C-0.536 27.621 -0.977 26.254 -1.293 22.766 C-1.258 21.605 -1.223 20.445 -1.188 19.25 C-1.147 17.494 -1.147 17.494 -1.105 15.703 C-1.071 14.811 -1.036 13.919 -1 13 C-2.65 13 -4.3 13 -6 13 C-6 11.68 -6 10.36 -6 9 C-4.35 9 -2.7 9 -1 9 C-0.67 6.03 -0.34 3.06 0 0 Z " fill="#101011" transform="translate(461,398)"/>
<path d="M0 0 C1.766 0.121 1.766 0.121 4 1 C5.922 3.723 5.922 3.723 7.75 7.062 C8.364 8.167 8.977 9.272 9.609 10.41 C10.068 11.265 10.527 12.119 11 13 C13.183 8.729 15.313 4.498 17 0 C18.32 0 19.64 0 21 0 C20.25 8.103 18.75 16.214 14 23 C11.812 23 11.812 23 9 22 C4.522 16.745 0.314 8.844 -0.25 1.938 C-0.168 1.298 -0.085 0.659 0 0 Z " fill="#131314" transform="translate(382,408)"/>
<path d="M0 0 C1.32 0 2.64 0 4 0 C3.42 5.073 2.311 9.482 0.562 14.312 C-0.085 16.132 -0.085 16.132 -0.746 17.988 C-2 21 -2 21 -4 23 C-6.625 23.125 -6.625 23.125 -9 23 C-10.343 20.254 -11.674 17.504 -13 14.75 C-13.382 13.973 -13.763 13.195 -14.156 12.395 C-14.517 11.64 -14.878 10.886 -15.25 10.109 C-15.585 9.418 -15.92 8.727 -16.266 8.015 C-17 6 -17 6 -17 2 C-14.707 2.184 -14.707 2.184 -12 3 C-10.199 5.285 -10.199 5.285 -8.688 8.062 C-8.176 8.982 -7.664 9.901 -7.137 10.848 C-6.762 11.558 -6.386 12.268 -6 13 C-5.651 12.145 -5.301 11.291 -4.941 10.41 C-4.486 9.305 -4.031 8.201 -3.562 7.062 C-3.11 5.96 -2.658 4.858 -2.191 3.723 C-1 1 -1 1 0 0 Z " fill="#101010" transform="translate(444,479)"/>
<path d="M0 0 C1.65 0 3.3 0 5 0 C5 2.64 5 5.28 5 8 C6.423 7.969 6.423 7.969 7.875 7.938 C11 8 11 8 13 9 C12.67 10.32 12.34 11.64 12 13 C9.69 13 7.38 13 5 13 C5 19.27 5 25.54 5 32 C3.35 31.67 1.7 31.34 0 31 C0 25.39 0 19.78 0 14 C-1.65 14 -3.3 14 -5 14 C-5.33 12.35 -5.66 10.7 -6 9 C-4.02 9 -2.04 9 0 9 C0 6.03 0 3.06 0 0 Z " fill="#111112" transform="translate(526,466)"/>
<path d="M0 0 C12.172 -0.259 23.931 0.402 36 2 C36 2.99 36 3.98 36 5 C32.406 7.396 29.851 7.258 25.707 7.195 C25.001 7.192 24.295 7.19 23.568 7.187 C21.316 7.176 19.064 7.15 16.812 7.125 C15.285 7.115 13.757 7.106 12.229 7.098 C8.486 7.076 4.743 7.041 1 7 C0.67 4.69 0.34 2.38 0 0 Z " fill="#151415" transform="translate(541,590)"/>
<path d="M0 0 C3.812 0.375 3.812 0.375 4.812 1.375 C5.186 2.949 5.511 4.535 5.812 6.125 C5.977 6.986 6.143 7.847 6.312 8.734 C6.477 9.606 6.643 10.477 6.812 11.375 C7.144 13.042 7.477 14.709 7.812 16.375 C6.493 16.375 5.173 16.375 3.812 16.375 C3.812 15.715 3.812 15.055 3.812 14.375 C3.091 14.87 2.369 15.365 1.625 15.875 C-1.399 17.488 -2.837 18.08 -6.188 17.375 C-8.839 14.458 -9.195 12.821 -9.125 8.875 C-7.645 3.348 -6.003 0.097 0 0 Z " fill="#19181A" transform="translate(166.1875,241.625)"/>
<path d="M0 0 C2.275 3.412 2.566 5.657 3.125 9.688 C3.293 10.867 3.46 12.046 3.633 13.262 C3.754 14.165 3.875 15.069 4 16 C2.608 15.691 2.608 15.691 1.188 15.375 C-2.152 14.633 -2.152 14.633 -5 17 C-7.562 17.25 -7.562 17.25 -10 17 C-12.461 14.539 -12.377 13.593 -12.5 10.188 C-12.443 7.384 -12.388 5.606 -10.867 3.23 C-7.461 0.137 -4.48 -0.814 0 0 Z " fill="#191819" transform="translate(795,223)"/>
<path d="M0 0 C2 2 2 2 2 5 C0.02 5 -1.96 5 -4 5 C-2.805 8.226 -1.732 9.198 1.125 11.312 C4 14 4 14 4.688 17.562 C4 21 4 21 1.875 23.438 C-1.458 25.249 -3.263 25.569 -7 25 C-8.875 23.625 -8.875 23.625 -10 22 C-10 21.34 -10 20.68 -10 20 C-6.535 19.505 -6.535 19.505 -3 19 C-3 17.68 -3 16.36 -3 15 C-5.907 12.84 -5.907 12.84 -9 11 C-10.414 8.171 -10.319 6.126 -10 3 C-7.087 -0.361 -4.285 -0.466 0 0 Z " fill="#141415" transform="translate(514,475)"/>
<path d="M0 0 C3.5 0.562 3.5 0.562 5.938 2.312 C7.5 4.562 7.5 4.562 7.5 8.562 C3.77 10.597 1.831 11.562 -2.5 11.562 C-2.17 12.223 -1.84 12.882 -1.5 13.562 C1.8 13.562 5.1 13.562 8.5 13.562 C8.5 14.553 8.5 15.543 8.5 16.562 C4.763 19.054 2.927 19.02 -1.5 18.562 C-4.253 16.767 -6.026 15.51 -7.5 12.562 C-7.878 8.555 -7.844 6.209 -5.938 2.625 C-3.5 0.562 -3.5 0.562 0 0 Z " fill="#28282A" transform="translate(114.5,466.4375)"/>
<path d="M0 0 C2.438 1.688 2.438 1.688 4 4 C3.75 6.75 3.75 6.75 3 9 C-0.62 10.316 -3.096 11 -7 11 C-6.67 11.66 -6.34 12.32 -6 13 C-2.7 13 0.6 13 4 13 C4.33 13.99 4.66 14.98 5 16 C0.993 18.671 -2.291 18.816 -7 18 C-10.337 15.314 -10.908 13.736 -11.438 9.5 C-10.979 5.834 -10.228 3.913 -8 1 C-5.159 -0.42 -3.145 -0.315 0 0 Z " fill="#282829" transform="translate(568,171)"/>
<path d="M0 0 C0.99 0.33 1.98 0.66 3 1 C3.061 2.048 3.121 3.096 3.184 4.176 C3.268 5.555 3.353 6.934 3.438 8.312 C3.477 9.003 3.516 9.693 3.557 10.404 C3.749 13.472 4.023 16.07 5 19 C5.99 19 6.98 19 8 19 C8.99 15.37 9.98 11.74 11 8 C12.32 8.33 13.64 8.66 15 9 C15.33 13.95 15.66 18.9 16 24 C15.01 24 14.02 24 13 24 C12.34 23.34 11.68 22.68 11 22 C10.34 22.66 9.68 23.32 9 24 C6.204 24.358 4.652 24.459 2.312 22.812 C-0.928 18.337 -1.25 14.246 -1.188 8.812 C-1.181 7.581 -1.175 6.35 -1.168 5.082 C-1 2 -1 2 0 0 Z " fill="#212122" transform="translate(218,230)"/>
<path d="M0 0 C0.562 1.938 0.562 1.938 1 4 C0 5 0 5 -3.5 5.438 C-5.232 5.716 -5.232 5.716 -7 6 C-8.633 9.265 -8.398 12.862 -8.621 16.469 C-9 19 -9 19 -11 21 C-11.99 21 -12.98 21 -14 21 C-15.089 18.822 -15.28 17.28 -15.535 14.867 C-15.622 14.062 -15.709 13.256 -15.799 12.426 C-15.886 11.584 -15.973 10.742 -16.062 9.875 C-16.153 9.026 -16.244 8.176 -16.338 7.301 C-16.562 5.201 -16.781 3.1 -17 1 C-14.667 1 -12.333 1 -10 1 C-6.15 -1.567 -4.414 -0.833 0 0 Z " fill="#141415" transform="translate(520,406)"/>
<path d="M0 0 C3 0.562 3 0.562 5.438 2.25 C7 4.562 7 4.562 7.062 7.188 C6 9.562 6 9.562 3.688 10.875 C1 11.562 1 11.562 -3 11.562 C-2.01 13.048 -2.01 13.048 -1 14.562 C3.455 14.067 3.455 14.067 8 13.562 C7.67 14.882 7.34 16.202 7 17.562 C3.779 19.173 0.483 19.154 -3 18.562 C-5.634 16.455 -6.73 14.957 -7.375 11.625 C-7.6 7.917 -7.169 5.875 -5.375 2.562 C-3 0.562 -3 0.562 0 0 Z " fill="#232323" transform="translate(188,426.4375)"/>
<path d="M0 0 C0.66 1.32 1.32 2.64 2 4 C0.866 4.309 -0.269 4.619 -1.438 4.938 C-4.788 5.629 -4.788 5.629 -6 7 C-6.073 9.186 -6.084 11.375 -6.062 13.562 C-6.053 14.76 -6.044 15.958 -6.035 17.191 C-6.024 18.118 -6.012 19.045 -6 20 C-0.449 19.256 -0.449 19.256 5 18 C4.695 20.944 4.165 21.859 1.875 23.812 C-1.902 25.373 -4.09 25.086 -8 24 C-11.276 20.724 -12.164 17.227 -12.312 12.688 C-12.268 8.093 -11.023 5.542 -8 2 C-4.772 -0.152 -3.716 -0.201 0 0 Z " fill="#232224" transform="translate(756,216)"/>
<path d="M0 0 C1.98 0.99 1.98 0.99 4 2 C4.66 1.34 5.32 0.68 6 0 C8.875 -0.375 8.875 -0.375 12 0 C14.303 1.867 15.678 3.356 17 6 C17.07 7.874 17.084 9.75 17.062 11.625 C17.053 12.628 17.044 13.631 17.035 14.664 C17.024 15.435 17.012 16.206 17 17 C15.68 17 14.36 17 13 17 C12.67 13.37 12.34 9.74 12 6 C10.68 5.67 9.36 5.34 8 5 C4.85 8.423 4.438 11.443 4 16 C2.68 16.33 1.36 16.66 0 17 C0 11.39 0 5.78 0 0 Z " fill="#181819" transform="translate(538,171)"/>
<path d="M0 0 C3.5 0.938 3.5 0.938 5.438 2.812 C7.029 7.493 6.732 12.04 6.5 16.938 C5.51 16.938 4.52 16.938 3.5 16.938 C2.51 12.977 1.52 9.018 0.5 4.938 C-0.82 5.268 -2.14 5.597 -3.5 5.938 C-4.648 8.234 -4.808 10.014 -5.062 12.562 C-5.146 13.38 -5.23 14.197 -5.316 15.039 C-5.377 15.666 -5.438 16.292 -5.5 16.938 C-6.82 16.608 -8.14 16.278 -9.5 15.938 C-10.823 10.977 -10.589 6.026 -10.5 0.938 C-9.902 1.144 -9.304 1.35 -8.688 1.562 C-5.241 2.153 -3.789 -0.068 0 0 Z " fill="#1A1A1B" transform="translate(194.5,239.0625)"/>
<path d="M0 0 C3.773 5.542 4.543 9.345 4 16 C2.68 16 1.36 16 0 16 C-0.049 15.385 -0.098 14.77 -0.148 14.137 C-0.223 13.328 -0.298 12.52 -0.375 11.688 C-0.445 10.887 -0.514 10.086 -0.586 9.262 C-0.896 6.728 -0.896 6.728 -3 4 C-6.118 4.646 -6.118 4.646 -7 7 C-7.225 8.537 -7.408 10.08 -7.562 11.625 C-7.646 12.442 -7.73 13.26 -7.816 14.102 C-7.877 14.728 -7.938 15.355 -8 16 C-9.32 16.33 -10.64 16.66 -12 17 C-13.323 12.039 -13.089 7.089 -13 2 C-8.503 -0.248 -4.921 -0.167 0 0 Z " fill="#201F20" transform="translate(219,459)"/>
<path d="M0 0 C1.32 0.33 2.64 0.66 4 1 C4.33 0.67 4.66 0.34 5 0 C11.19 -0.584 11.19 -0.584 14.215 1.598 C16.594 4.799 16.408 6.808 16.25 10.75 C16.214 11.92 16.178 13.091 16.141 14.297 C16.071 15.635 16.071 15.635 16 17 C15.01 17 14.02 17 13 17 C12.927 15.969 12.927 15.969 12.852 14.918 C12.739 13.566 12.739 13.566 12.625 12.188 C12.555 11.294 12.486 10.401 12.414 9.48 C12.134 6.756 12.134 6.756 10 4 C6.987 4.671 6.987 4.671 5.875 6.625 C4.738 9.71 4.376 12.743 4 16 C2.68 16 1.36 16 0 16 C0 10.72 0 5.44 0 0 Z " fill="#171618" transform="translate(833,258)"/>
<path d="M0 0 C3.107 0.682 4.689 1.986 6.625 4.496 C8.496 8.62 7.917 13.141 7.562 17.562 C6.572 17.562 5.582 17.562 4.562 17.562 C4.514 16.948 4.465 16.333 4.414 15.699 C4.339 14.891 4.265 14.083 4.188 13.25 C4.118 12.449 4.048 11.649 3.977 10.824 C3.667 8.29 3.667 8.29 1.562 5.562 C0.572 5.562 -0.418 5.562 -1.438 5.562 C-3.461 8.598 -3.759 9.757 -4.062 13.25 C-4.137 14.058 -4.212 14.866 -4.289 15.699 C-4.338 16.314 -4.387 16.929 -4.438 17.562 C-5.428 17.562 -6.418 17.562 -7.438 17.562 C-8.29 13.889 -8.545 10.518 -8.5 6.75 C-8.491 5.774 -8.482 4.798 -8.473 3.793 C-8.461 3.057 -8.449 2.321 -8.438 1.562 C-7.777 1.562 -7.118 1.562 -6.438 1.562 C-6.438 2.222 -6.438 2.882 -6.438 3.562 C-5.881 3.067 -5.324 2.572 -4.75 2.062 C-2.438 0.562 -2.438 0.562 0 0 Z " fill="#121112" transform="translate(285.4375,233.4375)"/>
<path d="M0 0 C0.99 0.33 1.98 0.66 3 1 C3 3.31 3 5.62 3 8 C4.65 8 6.3 8 8 8 C7.67 9.32 7.34 10.64 7 12 C5.68 12 4.36 12 3 12 C3 16.29 3 20.58 3 25 C1.68 25 0.36 25 -1 25 C-1 20.71 -1 16.42 -1 12 C-2.65 11.67 -4.3 11.34 -6 11 C-5.67 10.01 -5.34 9.02 -5 8 C-3.68 8 -2.36 8 -1 8 C-1.021 6.866 -1.041 5.731 -1.062 4.562 C-1 1 -1 1 0 0 Z " fill="#201F21" transform="translate(519,163)"/>
<path d="M0 0 C1.32 0 2.64 0 4 0 C4 1.98 4 3.96 4 6 C5.98 6 7.96 6 10 6 C9.67 7.32 9.34 8.64 9 10 C7.68 10 6.36 10 5 10 C5.164 10.541 5.327 11.083 5.496 11.641 C6.086 14.402 6.096 16.928 6.062 19.75 C6.053 20.735 6.044 21.72 6.035 22.734 C6.024 23.482 6.012 24.23 6 25 C5.01 25 4.02 25 3 25 C2.662 23.418 2.33 21.834 2 20.25 C1.722 18.927 1.722 18.927 1.438 17.578 C1 15 1 15 1 11 C-0.65 10.67 -2.3 10.34 -4 10 C-3.67 9.01 -3.34 8.02 -3 7 C-2.01 7 -1.02 7 0 7 C0 4.69 0 2.38 0 0 Z " fill="#272627" transform="translate(155,456)"/>
<path d="M0 0 C0.99 0.33 1.98 0.66 3 1 C3 2.65 3 4.3 3 6 C4.65 6 6.3 6 8 6 C8 6.99 8 7.98 8 9 C6.35 9 4.7 9 3 9 C3.33 12.63 3.66 16.26 4 20 C5.98 19.34 7.96 18.68 10 18 C10 19.32 10 20.64 10 22 C9.34 22.66 8.68 23.32 8 24 C4.375 23.625 4.375 23.625 1 23 C-2.015 14.76 -2.526 8.368 0 0 Z " fill="#181819" transform="translate(178,455)"/>
<path d="M0 0 C1.32 0 2.64 0 4 0 C4 2.31 4 4.62 4 7 C5.65 7 7.3 7 9 7 C9 7.99 9 8.98 9 10 C7.35 10 5.7 10 4 10 C4 14.95 4 19.9 4 25 C3.01 25 2.02 25 1 25 C-0.442 22.116 -0.094 19.583 -0.062 16.375 C-0.053 15.186 -0.044 13.998 -0.035 12.773 C-0.024 11.858 -0.012 10.943 0 10 C-1.32 10 -2.64 10 -4 10 C-3.67 8.68 -3.34 7.36 -3 6 C-2.01 6 -1.02 6 0 6 C0 4.02 0 2.04 0 0 Z " fill="#232223" transform="translate(813,251)"/>
<path d="M0 0 C0.99 0 1.98 0 3 0 C3 6.27 3 12.54 3 19 C6.63 19 10.26 19 14 19 C14.33 20.32 14.66 21.64 15 23 C12.688 23.194 10.375 23.38 8.062 23.562 C6.131 23.719 6.131 23.719 4.16 23.879 C3.117 23.919 2.074 23.959 1 24 C0 23 0 23 -0.114 20.775 C-0.108 19.817 -0.103 18.858 -0.098 17.871 C-0.094 16.837 -0.091 15.802 -0.088 14.736 C-0.08 13.648 -0.071 12.559 -0.062 11.438 C-0.058 10.345 -0.053 9.253 -0.049 8.127 C-0.037 5.418 -0.021 2.709 0 0 Z " fill="#181819" transform="translate(765,217)"/>
<path d="M0 0 C1.671 0.062 1.671 0.062 3.375 0.125 C3.375 1.115 3.375 2.105 3.375 3.125 C1.395 4.115 1.395 4.115 -0.625 5.125 C0.365 5.826 1.355 6.528 2.375 7.25 C4.91 9.365 5.32 9.852 6 13.25 C5.375 16.125 5.375 16.125 3.688 18 C1.042 19.287 -0.719 19.367 -3.625 19.125 C-3.955 17.805 -4.285 16.485 -4.625 15.125 C-2.975 14.795 -1.325 14.465 0.375 14.125 C-0.367 10.934 -0.367 10.934 -3.188 9.25 C-5.625 7.125 -5.625 7.125 -6.062 4.5 C-5.305 0.389 -4.09 0.141 0 0 Z " fill="#191919" transform="translate(821.625,221.875)"/>
<path d="M0 0 C0.99 0 1.98 0 3 0 C3 2.31 3 4.62 3 7 C4.98 7 6.96 7 9 7 C7.25 10.875 7.25 10.875 5 12 C5 15.96 5 19.92 5 24 C3.68 24 2.36 24 1 24 C0.67 20.04 0.34 16.08 0 12 C-1.32 11.67 -2.64 11.34 -4 11 C-4 10.01 -4 9.02 -4 8 C-2.68 8 -1.36 8 0 8 C0 5.36 0 2.72 0 0 Z " fill="#1B1B1C" transform="translate(170,421)"/>
<path d="M0 0 C0.763 0.206 1.526 0.413 2.312 0.625 C2.643 1.615 2.972 2.605 3.312 3.625 C1.663 3.625 0.013 3.625 -1.688 3.625 C-0.904 4.409 -0.12 5.192 0.688 6 C2.229 7.542 3.771 9.083 5.312 10.625 C5.125 13.625 5.125 13.625 4.312 16.625 C0.462 19.192 -1.273 18.458 -5.688 17.625 C-5.688 16.635 -5.688 15.645 -5.688 14.625 C-3.378 14.625 -1.067 14.625 1.312 14.625 C0.529 13.862 -0.255 13.099 -1.062 12.312 C-5.555 7.713 -5.555 7.713 -6 4.062 C-5.897 3.258 -5.794 2.454 -5.688 1.625 C-2.688 -0.375 -2.688 -0.375 0 0 Z " fill="#232323" transform="translate(756.6875,257.375)"/>
<path d="M0 0 C1.32 0 2.64 0 4 0 C4 1.98 4 3.96 4 6 C5.65 6 7.3 6 9 6 C9 7.32 9 8.64 9 10 C7.35 10 5.7 10 4 10 C4 14.62 4 19.24 4 24 C3.01 24 2.02 24 1 24 C0.67 19.71 0.34 15.42 0 11 C-1.32 10.67 -2.64 10.34 -4 10 C-4 9.01 -4 8.02 -4 7 C-2.68 7 -1.36 7 0 7 C0 4.69 0 2.38 0 0 Z " fill="#1C1B1C" transform="translate(241,229)"/>
<path d="M0 0 C2.312 0.938 2.312 0.938 4.312 2.938 C4.216 6.512 3.286 7.971 1.062 10.812 C-1.688 12.938 -1.688 12.938 -4.438 12.812 C-6.688 11.938 -6.688 11.938 -7.688 10.938 C-8.245 6.847 -8.004 5.362 -5.5 2 C-2.688 -0.062 -2.688 -0.062 0 0 Z " fill="#EAEAEA" transform="translate(382.6875,487.0625)"/>
<path d="M0 0 C0.784 0.041 1.567 0.083 2.375 0.125 C2.705 1.115 3.035 2.105 3.375 3.125 C2.736 3.249 2.096 3.373 1.438 3.5 C0.757 3.706 0.076 3.912 -0.625 4.125 C-0.955 4.785 -1.285 5.445 -1.625 6.125 C-1.027 6.393 -0.429 6.661 0.188 6.938 C2.485 8.185 3.903 8.956 5.375 11.125 C5.25 14.188 5.25 14.188 4.375 17.125 C0.94 19.415 -0.61 19.303 -4.625 19.125 C-4.955 17.805 -5.285 16.485 -5.625 15.125 C-3.645 14.795 -1.665 14.465 0.375 14.125 C-0.854 10.437 -2.564 9.401 -5.625 7.125 C-4.534 0.216 -4.534 0.216 0 0 Z " fill="#1B1A1B" transform="translate(807.625,221.875)"/>
<path d="M0 0 C9.24 0 18.48 0 28 0 C28 0.99 28 1.98 28 3 C25.234 4.383 22.99 4.112 19.898 4.098 C18.687 4.094 17.475 4.091 16.227 4.088 C14.956 4.08 13.685 4.071 12.375 4.062 C11.096 4.058 9.817 4.053 8.5 4.049 C5.333 4.037 2.167 4.021 -1 4 C-0.67 2.68 -0.34 1.36 0 0 Z " fill="#3A3A39" transform="translate(463,687)"/>
<path d="M0 0 C-0.33 0.99 -0.66 1.98 -1 3 C-4.062 4.188 -4.062 4.188 -7 5 C-7.33 8.96 -7.66 12.92 -8 17 C-8.99 17 -9.98 17 -11 17 C-13.051 13.518 -13.568 10.227 -14.125 6.25 C-14.293 5.08 -14.46 3.909 -14.633 2.703 C-14.754 1.811 -14.875 0.919 -15 0 C-13.855 0.309 -13.855 0.309 -12.688 0.625 C-8.167 1.256 -5.257 -0.992 0 0 Z " fill="#1D1C1D" transform="translate(153,430)"/>
<path d="M0 0 C0 0.99 0 1.98 0 3 C-1.65 3.66 -3.3 4.32 -5 5 C-5 7.31 -5 9.62 -5 12 C-2.69 12.33 -0.38 12.66 2 13 C1.67 14.32 1.34 15.64 1 17 C-1.688 17.812 -1.688 17.812 -5 18 C-7.875 16.188 -7.875 16.188 -10 13 C-10.574 9.591 -10.69 6.394 -10 3 C-7.24 -0.804 -4.479 -0.254 0 0 Z " fill="#1E1D1E" transform="translate(774,258)"/>
<path d="M0 0 C0 0.99 0 1.98 0 3 C-1.65 3 -3.3 3 -5 3 C-4.567 3.447 -4.134 3.895 -3.688 4.355 C0.854 9.286 0.854 9.286 1.562 12.75 C0.875 15.5 0.406 16.476 -2 18 C-5.188 18.188 -5.188 18.188 -8 18 C-8.33 16.68 -8.66 15.36 -9 14 C-7.02 13.67 -5.04 13.34 -3 13 C-3.433 12.553 -3.866 12.105 -4.312 11.645 C-8.918 6.645 -8.918 6.645 -9.375 3.062 C-9.251 2.382 -9.128 1.701 -9 1 C-5.649 -1.11 -3.779 -1.05 0 0 Z " fill="#232324" transform="translate(807,258)"/>
<path d="M0 0 C0.66 0 1.32 0 2 0 C1.693 2.813 1.379 5.625 1.062 8.438 C0.932 9.641 0.932 9.641 0.799 10.869 C0.113 16.887 0.113 16.887 -1 18 C-3.02 18.072 -5.042 18.084 -7.062 18.062 C-8.167 18.053 -9.272 18.044 -10.41 18.035 C-11.692 18.018 -11.692 18.018 -13 18 C-12.154 17.072 -11.309 16.144 -10.438 15.188 C-6.943 11.153 -4.248 6.733 -1.516 2.16 C-1.015 1.447 -0.515 0.734 0 0 Z " fill="#E3E3E3" transform="translate(566,726)"/>
<path d="M0 0 C2.072 2.595 3.551 4.943 4.688 8.062 C4.939 8.734 5.19 9.406 5.449 10.098 C6 12 6 12 6 15 C2.04 15 -1.92 15 -6 15 C-5.167 10.836 -4.339 8.345 -2.438 4.688 C-1.982 3.804 -1.527 2.921 -1.059 2.012 C-0.535 1.016 -0.535 1.016 0 0 Z " fill="#EEEEEE" transform="translate(345,473)"/>
<path d="M0 0 C0.33 0.99 0.66 1.98 1 3 C-0.32 3.33 -1.64 3.66 -3 4 C-2.67 4.99 -2.34 5.98 -2 7 C-1.34 7.268 -0.68 7.536 0 7.812 C2 9 2 9 2.938 11.938 C3 15 3 15 1.938 16.875 C-0.759 18.441 -2.941 18.204 -6 18 C-6.33 17.01 -6.66 16.02 -7 15 C-5.35 14.67 -3.7 14.34 -2 14 C-2 13.34 -2 12.68 -2 12 C-2.804 11.588 -3.609 11.175 -4.438 10.75 C-7 9 -7 9 -8 6 C-8 3 -8 3 -6.875 1.125 C-4.463 -0.322 -2.765 -0.224 0 0 Z " fill="#151416" transform="translate(212,238)"/>
<path d="M0 0 C0 0.99 0 1.98 0 3 C-1.65 3.66 -3.3 4.32 -5 5 C-5.33 8.63 -5.66 12.26 -6 16 C-7.32 16.33 -8.64 16.66 -10 17 C-11.868 11.513 -12.236 6.778 -12 1 C-7.947 0.018 -4.161 -0.082 0 0 Z " fill="#262527" transform="translate(274,235)"/>
<path d="M0 0 C0.33 0.99 0.66 1.98 1 3 C0.216 3.248 -0.567 3.495 -1.375 3.75 C-4.456 5.217 -4.781 5.91 -6 9 C-6.448 11.356 -6.448 11.356 -6.625 13.75 C-6.7 14.549 -6.775 15.348 -6.852 16.172 C-6.901 16.775 -6.95 17.378 -7 18 C-8.32 17.67 -9.64 17.34 -11 17 C-11.33 11.72 -11.66 6.44 -12 1 C-11.01 1 -10.02 1 -9 1 C-9 1.66 -9 2.32 -9 3 C-8.443 2.505 -7.886 2.01 -7.312 1.5 C-4.618 -0.248 -3.146 -0.262 0 0 Z " fill="#1A191C" transform="translate(500,171)"/>
<path d="M0 0 C2.475 0.495 2.475 0.495 5 1 C7.46 4.69 7.692 7.716 7 12 C5.188 15 5.188 15 3 17 C2.01 17 1.02 17 0 17 C0 11.39 0 5.78 0 0 Z " fill="#F0F1F1" transform="translate(737,255)"/>
<path d="M0 0 C0.949 0.041 1.898 0.083 2.875 0.125 C2.875 1.115 2.875 2.105 2.875 3.125 C1.924 3.431 1.924 3.431 0.953 3.742 C-1.416 4.997 -1.416 4.997 -1.953 7.945 C-2.092 9.036 -2.232 10.126 -2.375 11.25 C-2.525 12.346 -2.674 13.441 -2.828 14.57 C-2.926 15.413 -3.024 16.256 -3.125 17.125 C-4.445 16.795 -5.765 16.465 -7.125 16.125 C-7.465 14.564 -7.796 13.001 -8.125 11.438 C-8.311 10.567 -8.496 9.697 -8.688 8.801 C-9.115 6.188 -9.201 3.767 -9.125 1.125 C-8.506 1.331 -7.887 1.537 -7.25 1.75 C-6.198 1.936 -6.198 1.936 -5.125 2.125 C-3.125 0.125 -3.125 0.125 0 0 Z " fill="#1C1B1D" transform="translate(153.125,241.875)"/>
<path d="M0 0 C3.401 0.34 4.733 0.921 7.125 3.312 C7.125 3.972 7.125 4.633 7.125 5.312 C7.443 6.982 7.775 8.649 8.125 10.312 C5.125 11.312 5.125 11.312 2.898 10.457 C2.107 10.017 1.315 9.578 0.5 9.125 C-0.297 8.698 -1.093 8.272 -1.914 7.832 C-3.875 6.312 -3.875 6.312 -4.773 4.262 C-4.807 3.618 -4.84 2.975 -4.875 2.312 C-2.875 0.312 -2.875 0.312 0 0 Z " fill="#1A1A1B" transform="translate(505.875,651.6875)"/>
<path d="M0 0 C0.325 3.578 0.43 5.395 -1.688 8.375 C-4.402 10.283 -5.751 10.439 -9 10 C-10 9 -10 9 -10.25 5.625 C-10 2 -10 2 -8.938 0 C-5.867 -1.585 -3.278 -0.68 0 0 Z " fill="#F4F4F5" transform="translate(417,488)"/>
<path d="M0 0 C0.99 0 1.98 0 3 0 C3.121 0.855 3.242 1.709 3.367 2.59 C3.535 3.695 3.702 4.799 3.875 5.938 C4.037 7.04 4.2 8.142 4.367 9.277 C4.68 10.625 4.68 10.625 5 12 C5.66 12.33 6.32 12.66 7 13 C7.33 11.68 7.66 10.36 8 9 C8.66 9 9.32 9 10 9 C10.625 11.875 10.625 11.875 11 15 C9 17 9 17 6.062 17.438 C3 17 3 17 1.32 14.867 C-0.209 11.546 -0.307 9.322 -0.188 5.688 C-0.16 4.619 -0.133 3.55 -0.105 2.449 C-0.071 1.641 -0.036 0.833 0 0 Z " fill="#181719" transform="translate(778,258)"/>
<path d="M0 0 C2.035 2.035 2.638 3.234 3.625 5.875 C3.885 6.553 4.146 7.231 4.414 7.93 C5 10 5 10 5 14 C1.37 14 -2.26 14 -6 14 C-4.414 8.939 -2.997 4.424 0 0 Z " fill="#F0F0F0" transform="translate(336,402)"/>
<path d="M0 0 C0.99 0 1.98 0 3 0 C3 8.25 3 16.5 3 25 C2.01 25 1.02 25 0 25 C-2.571 17.286 -1.078 7.95 0 0 Z " fill="#121112" transform="translate(792,251)"/>
<path d="M0 0 C9.24 0 18.48 0 28 0 C28 0.99 28 1.98 28 3 C18.76 3 9.52 3 0 3 C0 2.01 0 1.02 0 0 Z " fill="#171717" transform="translate(461,693)"/>
<path d="M0 0 C8.91 0 17.82 0 27 0 C27 0.99 27 1.98 27 3 C18.09 3 9.18 3 0 3 C0 2.01 0 1.02 0 0 Z " fill="#1F1F1F" transform="translate(464,682)"/>
<path d="M0 0 C3 0.188 3 0.188 5 1.188 C4.37 4.125 3.774 6.738 2 9.188 C-1.062 10 -1.062 10 -4 10.188 C-5 9.188 -5 9.188 -5.188 5.75 C-4.953 1.288 -4.522 0.283 0 0 Z " fill="#EFEFF0" transform="translate(366,415.8125)"/>
<path d="M0 0 C0.66 0.33 1.32 0.66 2 1 C2.413 4.37 2.616 6.963 0.84 9.953 C-2.032 13.449 -4.506 15.81 -9 17 C-7.58 13.241 -5.874 9.77 -3.938 6.25 C-3.147 4.804 -3.147 4.804 -2.34 3.328 C-1 1 -1 1 0 0 Z " fill="#DDDDDE" transform="translate(710,520)"/>
<path d="M0 0 C1.32 0.33 2.64 0.66 4 1 C4 6.28 4 11.56 4 17 C2.68 16.67 1.36 16.34 0 16 C0 10.72 0 5.44 0 0 Z " fill="#2B2A2C" transform="translate(506,172)"/>
<path d="M0 0 C0.99 0.33 1.98 0.66 3 1 C3 6.28 3 11.56 3 17 C1.68 16.67 0.36 16.34 -1 16 C-1.027 13.521 -1.047 11.042 -1.062 8.562 C-1.075 7.502 -1.075 7.502 -1.088 6.42 C-1.097 4.613 -1.052 2.806 -1 1 C-0.67 0.67 -0.34 0.34 0 0 Z " fill="#252526" transform="translate(530,172)"/>
<path d="M0 0 C1.32 0 2.64 0 4 0 C3.344 4.485 2.299 8.669 1 13 C-0.32 13.33 -1.64 13.66 -3 14 C-2.885 12.416 -2.758 10.833 -2.625 9.25 C-2.555 8.368 -2.486 7.487 -2.414 6.578 C-2.001 4.009 -1.288 2.242 0 0 Z " fill="#1D1C1E" transform="translate(503,557)"/>
<path d="M0 0 C0.99 0 1.98 0 3 0 C4.506 5.808 5.218 10.998 5 17 C3.68 17 2.36 17 1 17 C0.007 11.293 -0.105 5.786 0 0 Z " fill="#1F1D1F" transform="translate(145,465)"/>
<path d="M0 0 C0.99 0 1.98 0 3 0 C4.533 3.065 4.103 6.268 4.062 9.625 C4.058 10.331 4.053 11.038 4.049 11.766 C4.037 13.51 4.019 15.255 4 17 C3.01 17 2.02 17 1 17 C-0.135 13.39 -0.1 10.016 -0.062 6.25 C-0.053 5.08 -0.044 3.909 -0.035 2.703 C-0.024 1.811 -0.012 0.919 0 0 Z " fill="#1D1D1E" transform="translate(168,463)"/>
<path d="M0 0 C0.99 0 1.98 0 3 0 C4.502 3.003 4.093 5.791 4.062 9.125 C4.053 10.406 4.044 11.688 4.035 13.008 C4.024 13.995 4.012 14.983 4 16 C2.68 15.67 1.36 15.34 0 15 C0 10.05 0 5.1 0 0 Z " fill="#202022" transform="translate(254,236)"/>
<path d="M0 0 C0.99 0 1.98 0 3 0 C3.904 3.837 4.106 7.375 4.062 11.312 C4.053 12.381 4.044 13.45 4.035 14.551 C4.024 15.359 4.012 16.167 4 17 C3.01 17 2.02 17 1 17 C-0.187 13.44 -0.097 10.562 -0.062 6.812 C-0.053 5.54 -0.044 4.268 -0.035 2.957 C-0.024 1.981 -0.012 1.005 0 0 Z " fill="#141314" transform="translate(159,430)"/>
<path d="M0 0 C0.99 0 1.98 0 3 0 C4.502 3.003 4.093 5.791 4.062 9.125 C4.053 10.406 4.044 11.688 4.035 13.008 C4.024 13.995 4.012 14.983 4 16 C3.01 16 2.02 16 1 16 C0.147 12.326 -0.108 8.955 -0.062 5.188 C-0.053 4.212 -0.044 3.236 -0.035 2.23 C-0.024 1.494 -0.012 0.758 0 0 Z " fill="#0F0E0F" transform="translate(192,462)"/>
<path d="M0 0 C1.145 0.34 1.145 0.34 2.312 0.688 C1.562 6.438 1.562 6.438 -0.688 8.688 C-3.312 8.312 -3.312 8.312 -5.688 7.688 C-5.915 4.884 -6.028 3.226 -4.5 0.812 C-2.688 -0.312 -2.688 -0.312 0 0 Z " fill="#EBECED" transform="translate(234.6875,461.3125)"/>
<path d="M0 0 C1.32 0 2.64 0 4 0 C4.33 5.28 4.66 10.56 5 16 C3.68 16 2.36 16 1 16 C0.67 10.72 0.34 5.44 0 0 Z " fill="#1A1A1B" transform="translate(176,241)"/>
<path d="M0 0 C0.99 0 1.98 0 3 0 C3.993 5.707 4.105 11.214 4 17 C3.01 16.67 2.02 16.34 1 16 C-0.129 10.639 -0.097 5.447 0 0 Z " fill="#1F1E1F" transform="translate(201,460)"/>
<path d="M0 0 C-0.498 3.735 -0.875 5.812 -3 9 C-4.65 8.67 -6.3 8.34 -8 8 C-7.688 5.125 -7.688 5.125 -7 2 C-4 0 -4 0 0 0 Z " fill="#E7E8E8" transform="translate(307,236)"/>
<path d="M0 0 C5.61 0 11.22 0 17 0 C16.67 0.99 16.34 1.98 16 3 C10.72 3 5.44 3 0 3 C0 2.01 0 1.02 0 0 Z " fill="#272727" transform="translate(460,699)"/>
<path d="M0 0 C2.625 0.375 2.625 0.375 5 1 C4.125 6.875 4.125 6.875 3 8 C1.334 8.041 -0.334 8.043 -2 8 C-2.125 5.125 -2.125 5.125 -2 2 C-1.34 1.34 -0.68 0.68 0 0 Z " fill="#EAEAEB" transform="translate(131,470)"/>
<path d="M0 0 C0.99 0 1.98 0 3 0 C3 5.28 3 10.56 3 16 C2.01 16 1.02 16 0 16 C0 10.72 0 5.44 0 0 Z " fill="#0F0E10" transform="translate(825,259)"/>
<path d="M0 0 C-0.492 6.4 -0.492 6.4 -3.062 9.438 C-4.022 10.211 -4.022 10.211 -5 11 C-6.34 4.664 -6.34 4.664 -4.75 1.562 C-3 0 -3 0 0 0 Z " fill="#DADADB" transform="translate(167,245)"/>
<path d="M0 0 C0.99 0 1.98 0 3 0 C2.356 3.012 1.35 5.517 -0.062 8.25 C-0.425 8.956 -0.787 9.663 -1.16 10.391 C-1.437 10.922 -1.714 11.453 -2 12 C-2.66 11.67 -3.32 11.34 -4 11 C-3.495 6.658 -2.681 3.506 0 0 Z " fill="#2D2C2E" transform="translate(514,532)"/>
<path d="M0 0 C2.97 0.495 2.97 0.495 6 1 C6.625 2.875 6.625 2.875 7 5 C6.34 5.66 5.68 6.32 5 7 C3.68 7 2.36 7 1 7 C0.67 4.69 0.34 2.38 0 0 Z " fill="#F1F2F3" transform="translate(131,251)"/>
<path d="M0 0 C3.96 0 7.92 0 12 0 C12 0.99 12 1.98 12 3 C8.04 3 4.08 3 0 3 C0 2.01 0 1.02 0 0 Z " fill="#262627" transform="translate(464,677)"/>
<path d="M0 0 C-0.557 3.344 -1.352 6.033 -3 9 C-3.99 8.67 -4.98 8.34 -6 8 C-6.365 3.503 -6.365 3.503 -4.688 1.188 C-3 0 -3 0 0 0 Z " fill="#E7E8E8" transform="translate(792,227)"/>
<path d="M0 0 C3 1 3 1 4 3 C4.04 5.333 4.043 7.667 4 10 C3.01 9.67 2.02 9.34 1 9 C0.234 7.188 0.234 7.188 -0.25 5 C-0.42 4.278 -0.59 3.556 -0.766 2.812 C-0.843 2.214 -0.92 1.616 -1 1 C-0.67 0.67 -0.34 0.34 0 0 Z " fill="#2F2D31" transform="translate(486,534)"/>
<path d="M0 0 C1.65 0 3.3 0 5 0 C5 1.65 5 3.3 5 5 C3.35 5.66 1.7 6.32 0 7 C0 4.69 0 2.38 0 0 Z " fill="#DDDEE0" transform="translate(130,239)"/>
<path d="M0 0 C-1.37 3.161 -1.989 3.993 -5 6 C-5.99 6 -6.98 6 -8 6 C-7.688 4.125 -7.688 4.125 -7 2 C-4 0 -4 0 0 0 Z " fill="#272728" transform="translate(535,548)"/>
<path d="M0 0 C1.98 0 3.96 0 6 0 C6.33 0.99 6.66 1.98 7 3 C4.291 4.354 1.991 4.065 -1 4 C-0.67 2.68 -0.34 1.36 0 0 Z " fill="#CBCDCE" transform="translate(413,413)"/>
<path d="M0 0 C5.75 0.875 5.75 0.875 8 2 C8 2.66 8 3.32 8 4 C5.36 3.67 2.72 3.34 0 3 C0 2.01 0 1.02 0 0 Z " fill="#262425" transform="translate(466,553)"/>
<path d="M0 0 C1.65 0 3.3 0 5 0 C5.33 0.99 5.66 1.98 6 3 C3.36 3.33 0.72 3.66 -2 4 C-1.34 2.68 -0.68 1.36 0 0 Z " fill="#D6D8D9" transform="translate(459,484)"/>
<path d="M0 0 C2.31 0 4.62 0 7 0 C7 0.66 7 1.32 7 2 C4.291 3.354 1.991 3.065 -1 3 C-0.67 2.01 -0.34 1.02 0 0 Z " fill="#272627" transform="translate(536,574)"/>
<path d="M0 0 C1.98 0.495 1.98 0.495 4 1 C3.67 2.32 3.34 3.64 3 5 C1.68 4.67 0.36 4.34 -1 4 C-0.67 2.68 -0.34 1.36 0 0 Z " fill="#383738" transform="translate(192,453)"/>
<path d="M0 0 C3.6 5.4 3.6 5.4 5 8 C4.67 8.66 4.34 9.32 4 10 C0.389 6.124 0.389 6.124 -1 4 C-0.812 1.625 -0.812 1.625 0 0 Z " fill="#C9C9C9" transform="translate(599,823)"/>
<path d="M0 0 C1.65 0.33 3.3 0.66 5 1 C5 1.66 5 2.32 5 3 C2.69 3 0.38 3 -2 3 C-1.34 2.01 -0.68 1.02 0 0 Z " fill="#EFEFF0" transform="translate(532,410)"/>
</svg>