<svg version="1.1" xmlns="http://www.w3.org/2000/svg" width="1024" height="1024">
<path d="M0 0 C337.92 0 675.84 0 1024 0 C1024 337.92 1024 675.84 1024 1024 C686.08 1024 348.16 1024 0 1024 C0 686.08 0 348.16 0 0 Z " fill="#E7E8E8" transform="translate(0,0)"/>
<path d="M0 0 C4.437 0.005 8.875 -0.001 13.312 -0.006 C21.059 -0.014 28.806 -0.014 36.552 -0.008 C48.072 -0.001 59.591 -0.005 71.11 -0.011 C91.689 -0.021 112.267 -0.02 132.846 -0.015 C150.846 -0.01 168.847 -0.008 186.847 -0.011 C188.043 -0.011 189.24 -0.011 190.472 -0.011 C195.329 -0.012 200.187 -0.012 205.044 -0.013 C250.543 -0.019 296.042 -0.014 341.541 -0.003 C381.946 0.007 422.351 0.006 462.756 -0.004 C508.196 -0.015 553.636 -0.019 599.076 -0.013 C603.919 -0.012 608.763 -0.011 613.606 -0.011 C614.799 -0.011 615.991 -0.01 617.22 -0.01 C635.217 -0.008 653.214 -0.011 671.211 -0.016 C691.666 -0.021 712.121 -0.02 732.576 -0.009 C744.02 -0.003 755.464 -0.003 766.907 -0.01 C774.553 -0.015 782.199 -0.012 789.846 -0.003 C794.2 0.001 798.554 0.003 802.909 -0.004 C806.877 -0.011 810.845 -0.008 814.813 0.002 C816.233 0.004 817.652 0.003 819.072 -0.002 C845.386 -0.091 845.386 -0.091 851.29 5.257 C850.96 6.907 850.63 8.557 850.29 10.257 C848.686 10.285 847.082 10.304 845.477 10.319 C844.137 10.337 844.137 10.337 842.77 10.355 C839.991 10.277 837.343 10.058 834.585 9.759 C827.092 9.068 819.605 9.118 812.088 9.13 C810.455 9.129 808.822 9.127 807.189 9.125 C802.71 9.121 798.23 9.123 793.75 9.126 C788.881 9.128 784.011 9.125 779.142 9.122 C769.506 9.118 759.87 9.119 750.234 9.122 C742.247 9.124 734.261 9.124 726.274 9.122 C724.548 9.122 724.548 9.122 722.787 9.122 C720.441 9.121 718.095 9.121 715.749 9.12 C688.14 9.116 660.53 9.122 632.92 9.129 C619.907 9.132 606.893 9.134 593.88 9.136 C506.13 9.149 418.381 9.192 159.879 9.584 C144.478 9.617 129.077 9.646 113.676 9.673 C93.924 9.707 74.173 9.747 54.421 9.8 C44.962 9.825 35.503 9.847 26.045 9.86 C18.238 9.872 10.431 9.889 2.625 9.916 C-1.293 9.929 -5.211 9.94 -9.129 9.941 C-12.697 9.943 -16.264 9.953 -19.832 9.971 C-21.7 9.978 -23.568 9.976 -25.437 9.973 C-32.901 10.021 -40.063 10.705 -47.432 11.799 C-52.241 12.471 -57.024 12.641 -61.872 12.735 C-66.562 12.918 -69.607 14.071 -73.71 16.257 C-73.734 37.232 -73.751 58.207 -73.762 79.183 C-73.767 88.933 -73.774 98.683 -73.785 108.434 C-73.835 150.366 -73.76 192.292 -73.237 234.222 C-73.227 235.097 -73.216 235.972 -73.204 236.874 C-72.754 282.263 -72.754 282.263 -71.458 327.632 C-70.504 351.999 -70.593 376.359 -70.641 400.742 C-70.652 406.569 -70.656 412.396 -70.661 418.224 C-70.672 429.568 -70.689 440.913 -70.71 452.257 C-69.419 452.096 -68.129 451.934 -66.799 451.768 C-58.978 450.992 -51.136 451.096 -43.286 451.083 C-41.536 451.077 -39.785 451.07 -38.035 451.063 C-34.282 451.048 -30.53 451.037 -26.778 451.027 C-20.839 451.012 -14.9 450.988 -8.962 450.962 C7.92 450.891 24.802 450.831 41.683 450.78 C51.02 450.752 60.356 450.716 69.693 450.673 C75.591 450.647 81.49 450.629 87.388 450.617 C91.062 450.608 94.735 450.591 98.409 450.571 C100.107 450.564 101.804 450.56 103.501 450.559 C111.681 450.555 119.339 450.429 127.29 448.257 C131.836 447.924 136.371 447.927 140.927 447.941 C143.022 447.944 145.116 447.921 147.212 447.896 C148.587 447.893 149.962 447.893 151.337 447.894 C152.552 447.891 153.767 447.888 155.019 447.885 C158.478 448.043 161.534 448.836 164.868 449.748 C174.772 452.135 184.864 451.739 194.997 451.769 C197.176 451.786 199.354 451.804 201.533 451.823 C207.226 451.87 212.919 451.9 218.612 451.926 C224.437 451.956 230.263 452.003 236.089 452.048 C247.489 452.134 258.889 452.201 270.29 452.257 C269.96 451.267 269.63 450.277 269.29 449.257 C269.197 447.663 269.159 446.065 269.157 444.468 C269.156 443.526 269.155 442.583 269.153 441.612 C269.157 440.629 269.161 439.645 269.165 438.632 C269.161 437.672 269.157 436.711 269.153 435.722 C269.157 432.898 269.211 430.08 269.29 427.257 C269.3 426.483 269.311 425.708 269.321 424.91 C269.689 418.215 272.577 413.359 275.977 407.694 C276.556 406.702 277.135 405.71 277.731 404.687 C278.954 402.594 280.184 400.504 281.42 398.418 C283.246 395.33 285.049 392.23 286.845 389.124 C290.3 383.153 293.789 377.202 297.29 371.257 C297.815 370.363 298.34 369.469 298.88 368.548 C305.961 356.511 313.378 344.766 321.29 333.257 C321.959 332.278 321.959 332.278 322.642 331.279 C328.02 323.446 333.705 316.131 340.29 309.257 C341.437 308.016 341.437 308.016 342.606 306.749 C349.839 299.137 355.931 296.861 366.29 296.257 C366.393 295.246 366.496 294.236 366.602 293.194 C367.506 288.017 368.701 283.899 372.411 280.066 C376.037 277.788 378.97 277.801 383.102 278.007 C383.795 278.025 384.488 278.043 385.202 278.062 C386.899 278.108 388.594 278.18 390.29 278.257 C390.258 275.36 390.258 275.36 389.29 272.257 C386.677 270.323 386.677 270.323 383.352 268.944 C369.784 262.153 361.352 251.848 356.067 237.694 C354.864 233.922 354.042 230.144 353.29 226.257 C352.577 226.11 351.864 225.963 351.13 225.812 C342.895 223.883 337.411 221.101 332.852 213.819 C329.947 207.305 329.949 198.632 332.02 191.874 C334.008 188.126 336.575 185.233 340.29 183.257 C342.983 183.104 342.983 183.104 345.974 183.159 C347.465 183.18 347.465 183.18 348.987 183.202 C350.127 183.229 350.127 183.229 351.29 183.257 C351.315 182.664 351.34 182.071 351.366 181.46 C351.853 170.045 352.376 158.647 353.29 147.257 C352.393 147.138 351.496 147.02 350.571 146.898 C342.925 145.405 335.111 140.288 330.661 133.929 C325.864 126.208 323.102 119.463 324.29 110.257 C326.496 105.669 329.712 102.8 333.606 99.651 C336.566 97.2 338.718 94.693 340.852 91.507 C349.821 79.468 365.59 74.06 379.879 71.587 C399.719 68.874 419.337 72.441 436.29 83.257 C438.373 84.851 440.322 86.519 442.29 88.257 C442.29 85.947 442.29 83.637 442.29 81.257 C444.102 81.382 444.102 81.382 446.29 82.257 C450.375 87.655 449.571 93.821 449.29 100.257 C450.775 99.762 450.775 99.762 452.29 99.257 C454.724 99.11 457.164 99.036 459.602 99.007 C460.898 98.981 462.193 98.955 463.528 98.929 C470.066 99.499 474.076 102.36 478.29 107.257 C481.056 111.846 481.804 115.729 481.727 121.007 C481.723 121.706 481.72 122.406 481.715 123.126 C481.555 128.953 480.612 135.934 476.29 140.257 C476.251 141.925 476.278 143.594 476.333 145.261 C476.623 157.966 476.337 169.134 472.29 181.257 C473.446 181.435 473.446 181.435 474.626 181.616 C479.125 182.698 481.296 186.023 484.102 189.507 C486.635 195.373 485.642 200.869 483.727 206.819 C480.478 214.942 475.355 220.43 467.579 224.425 C463.991 225.729 461.07 225.601 457.29 225.257 C457.238 225.938 457.187 226.618 457.134 227.319 C455.701 239.563 449.822 253.089 440.29 261.257 C437.678 263.065 435.059 264.796 432.329 266.421 C429.637 268.845 429.557 270.726 429.29 274.257 C429.87 274.211 430.45 274.164 431.048 274.116 C435.049 273.931 437.807 274.052 441.54 275.632 C445.73 279.632 448.784 284.638 449.599 290.464 C449.602 292.382 449.602 292.382 449.29 295.257 C450.197 295.36 451.105 295.463 452.04 295.569 C467.74 297.904 473.609 303.124 483.29 315.257 C484.002 316.103 484.713 316.948 485.446 317.819 C496.184 330.58 505.318 344.426 513.807 358.755 C514.83 360.481 515.858 362.203 516.891 363.923 C523.718 375.299 530.264 386.812 536.426 398.561 C537.073 399.794 537.724 401.025 538.378 402.254 C542.688 410.375 545.927 418.369 548.29 427.257 C548.486 427.952 548.682 428.647 548.884 429.363 C549.329 431.438 549.419 433.324 549.423 435.444 C549.424 436.226 549.425 437.007 549.427 437.812 C549.423 438.619 549.419 439.426 549.415 440.257 C549.419 441.064 549.423 441.871 549.427 442.702 C549.425 443.483 549.424 444.265 549.423 445.069 C549.421 446.131 549.421 446.131 549.419 447.214 C549.285 449.336 548.829 451.205 548.29 453.257 C549.35 453.232 550.409 453.206 551.501 453.18 C580.003 452.51 608.504 452.114 637.012 451.821 C640.714 451.782 644.416 451.743 648.118 451.704 C664.398 451.532 680.677 451.361 696.957 451.207 C705.555 451.126 714.152 451.038 722.75 450.943 C727.26 450.892 731.771 450.846 736.282 450.808 C740.481 450.773 744.679 450.729 748.877 450.678 C750.413 450.661 751.95 450.647 753.487 450.637 C755.581 450.622 757.674 450.596 759.767 450.567 C760.938 450.555 762.108 450.543 763.314 450.531 C766.216 450.264 767.806 449.693 770.29 448.257 C772.393 447.998 772.393 447.998 774.626 447.991 C775.443 447.989 776.26 447.986 777.102 447.983 C777.948 447.991 778.794 447.999 779.665 448.007 C780.503 447.999 781.341 447.991 782.204 447.983 C785.842 447.995 788.791 448.09 792.263 449.253 C796.625 450.7 800.787 450.586 805.352 450.569 C806.237 450.586 807.122 450.602 808.034 450.618 C813.194 450.622 815.893 450.078 820.29 447.257 C823.849 446.858 823.849 446.858 827.727 446.882 C829.644 446.87 829.644 446.87 831.599 446.858 C835.537 447.284 837.788 448.495 841.29 450.257 C843.978 450.613 846.475 450.853 849.165 450.944 C849.853 450.979 850.542 451.013 851.251 451.048 C852.93 451.13 854.61 451.195 856.29 451.257 C856.278 450.074 856.267 448.89 856.255 447.671 C856.245 446.075 856.236 444.478 856.227 442.882 C856.219 442.107 856.211 441.332 856.202 440.534 C856.186 436.702 856.291 432.982 856.786 429.18 C857.662 420.677 857.454 412.111 857.458 403.573 C857.462 401.617 857.466 399.661 857.47 397.705 C857.48 392.487 857.481 387.269 857.479 382.051 C857.477 378.817 857.478 375.584 857.479 372.35 C857.477 335.243 857.136 298.139 854.786 261.093 C854.059 249.519 853.767 237.925 853.415 226.335 C853.295 222.404 853.168 218.473 853.04 214.542 C851.588 168.456 851.083 122.351 851.05 76.244 C851.045 70.323 851.026 64.403 851 58.482 C850.976 52.66 850.968 46.839 850.966 41.017 C850.963 38.582 850.955 36.147 850.942 33.711 C850.925 30.361 850.927 27.011 850.934 23.66 C850.92 22.18 850.92 22.18 850.906 20.671 C850.936 15.703 851.054 12.308 854.29 8.257 C856.932 10.435 858.173 11.639 858.821 15.056 C858.835 16.144 858.85 17.231 858.865 18.352 C858.891 19.605 858.917 20.859 858.945 22.151 C858.954 23.541 858.963 24.931 858.972 26.322 C858.995 27.792 859.021 29.263 859.048 30.733 C859.103 33.916 859.145 37.098 859.177 40.281 C859.229 45.387 859.309 50.493 859.391 55.599 C859.506 62.885 859.609 70.172 859.702 77.46 C859.849 88.809 860.023 100.158 860.206 111.506 C860.221 112.441 860.236 113.375 860.251 114.337 C860.327 119.034 860.403 123.73 860.48 128.427 C860.541 132.17 860.601 135.912 860.66 139.655 C861.132 169.408 861.799 199.144 862.852 228.882 C862.911 230.572 862.97 232.261 863.029 233.951 C863.517 247.885 864.034 261.817 864.678 275.744 C866.085 306.219 866.609 336.628 866.551 367.135 C866.539 373.243 866.546 379.351 866.558 385.459 C866.565 390.284 866.563 395.109 866.558 399.935 C866.556 402.187 866.558 404.439 866.563 406.691 C866.582 418.305 866.334 429.852 865.461 441.436 C865.392 442.435 865.323 443.433 865.252 444.462 C864.806 449.705 864.105 453.672 861.29 458.257 C857.99 458.257 854.69 458.257 851.29 458.257 C851.785 458.917 852.28 459.577 852.79 460.257 C854.773 464.223 854.514 466.86 854.29 471.257 C856.27 471.257 858.25 471.257 860.29 471.257 C859.96 472.577 859.63 473.897 859.29 475.257 C857.64 475.587 855.99 475.917 854.29 476.257 C851.862 481.398 852.416 485.66 852.997 491.132 C853.408 495.514 853.377 499.861 853.29 504.257 C854.197 504.484 855.105 504.711 856.04 504.944 C860.044 506.561 861.288 507.407 863.29 511.257 C864.365 518.78 863.671 525.901 859.29 532.257 C855.58 535.426 854.202 536.257 849.29 536.257 C849.042 537.309 848.795 538.361 848.54 539.444 C847.508 543.079 845.9 545.484 843.29 548.257 C842.63 548.587 841.97 548.917 841.29 549.257 C840.96 555.197 840.63 561.137 840.29 567.257 C842.6 567.257 844.91 567.257 847.29 567.257 C851.652 568.501 854.618 570.333 857.29 574.007 C858.52 578.005 858.505 581.09 858.29 585.257 C859.196 585.234 860.102 585.211 861.036 585.187 C875.611 584.971 884.599 588.581 897.29 595.257 C897.95 595.587 898.61 595.917 899.29 596.257 C898.929 595.377 898.568 594.496 898.196 593.589 C897.732 592.428 897.268 591.266 896.79 590.069 C896.326 588.921 895.862 587.772 895.384 586.589 C894.382 583.537 894.051 581.426 894.29 578.257 C893.718 578.577 893.145 578.896 892.556 579.226 C888.78 580.944 885.346 581.004 881.29 580.257 C875.269 577.332 870.939 572.355 868.29 566.257 C866.635 560.69 865.902 555.616 865.915 549.819 C865.917 548.705 865.917 548.705 865.92 547.568 C866.101 539.459 868.573 533.153 874.29 527.257 C875.606 526.558 876.938 525.885 878.29 525.257 C878.221 524.583 878.153 523.909 878.082 523.214 C877.324 515.095 877.04 507.006 876.995 498.857 C876.983 497.413 876.963 495.97 876.933 494.527 C876.749 485.416 877.285 477.639 881.29 469.257 C881.994 467.782 881.994 467.782 882.712 466.276 C887.059 459.052 892.472 451.936 900.29 448.257 C900.95 448.257 901.61 448.257 902.29 448.257 C902.29 579.267 902.29 710.277 902.29 845.257 C564.37 845.257 226.45 845.257 -121.71 845.257 C-121.71 721.507 -121.71 597.757 -121.71 470.257 C-118.298 469.575 -115.809 469.13 -112.46 469.124 C-111.687 469.123 -110.913 469.122 -110.116 469.12 C-109.322 469.124 -108.528 469.128 -107.71 469.132 C-106.916 469.128 -106.122 469.124 -105.304 469.12 C-102.015 469.126 -99.057 469.182 -95.831 469.878 C-93.449 470.547 -93.449 470.547 -90.773 468.444 C-89.762 467.723 -88.751 467.001 -87.71 466.257 C-79.166 462.677 -67.315 462.323 -58.601 465.577 C-47.657 470.447 -41.934 476.451 -37.655 487.487 C-34.566 496.539 -35.121 504.411 -38.71 513.257 C-33.66 507.726 -32.102 500.167 -32.362 492.866 C-33.604 483.547 -37.815 475.455 -44.933 469.351 C-55.392 461.527 -65.666 458.798 -78.71 460.257 C-81.49 461.063 -83.966 462.014 -86.562 463.284 C-88.927 464.355 -91.156 464.831 -93.71 465.257 C-94.205 463.277 -94.205 463.277 -94.71 461.257 C-89.365 456.756 -84.475 454.042 -77.71 452.257 C-77.951 451.262 -77.951 451.262 -78.196 450.247 C-78.818 446.628 -78.897 443.076 -78.937 439.415 C-78.95 438.631 -78.962 437.847 -78.975 437.039 C-79.015 434.414 -79.049 431.789 -79.083 429.164 C-79.111 427.279 -79.139 425.394 -79.167 423.509 C-79.228 419.444 -79.285 415.378 -79.341 411.313 C-79.429 404.84 -79.524 398.368 -79.619 391.896 C-79.77 381.607 -79.917 371.318 -80.062 361.029 C-80.319 342.746 -80.583 324.463 -80.85 306.18 C-80.943 299.793 -81.033 293.406 -81.122 287.019 C-81.192 282.015 -81.264 277.011 -81.337 272.008 C-81.351 271.038 -81.365 270.068 -81.38 269.069 C-81.566 256.427 -81.836 243.789 -82.177 231.15 C-82.757 209.52 -82.874 187.901 -82.877 166.265 C-82.878 163.208 -82.88 160.151 -82.883 157.094 C-82.892 146.384 -82.896 135.674 -82.895 124.964 C-82.895 115.039 -82.905 105.114 -82.921 95.189 C-82.934 86.585 -82.94 77.981 -82.939 69.378 C-82.939 64.273 -82.941 59.168 -82.952 54.063 C-82.962 49.291 -82.962 44.52 -82.955 39.748 C-82.954 38.006 -82.956 36.263 -82.962 34.521 C-83.035 12.1 -83.035 12.1 -79.061 7.24 C-71.906 1.205 -58.626 1.639 -49.601 1.085 C-48.362 1.006 -47.123 0.926 -45.847 0.844 C-30.573 -0.047 -15.294 -0.026 0 0 Z " fill="#2C2B2C" transform="translate(121.71005255542696,178.74306489154696)"/>
<path d="M0 0 C337.92 0 675.84 0 1024 0 C1024.186 103.331 1024.371 206.663 1024.562 313.125 C1024.644 345.804 1024.726 378.483 1024.811 412.153 C1024.851 451.926 1024.851 451.926 1024.859 470.519 C1024.868 484.422 1024.907 498.325 1024.96 512.227 C1025.014 526.394 1025.034 540.561 1025.021 554.728 C1025.015 563.158 1025.033 571.588 1025.087 580.018 C1025.125 586.23 1025.116 592.441 1025.088 598.653 C1025.084 601.173 1025.096 603.693 1025.124 606.213 C1025.16 609.633 1025.141 613.049 1025.107 616.47 C1025.131 617.46 1025.155 618.45 1025.179 619.47 C1025.117 622.259 1024.975 624.384 1024 627 C1021.277 629.603 1018.303 631.238 1015 633 C1006.51 640.625 1000.527 651.123 999.757 662.634 C999.761 663.903 999.765 665.173 999.77 666.48 C999.77 667.175 999.77 667.869 999.771 668.584 C999.774 670.045 999.782 671.507 999.794 672.968 C999.812 675.164 999.815 677.36 999.814 679.557 C999.836 687.003 1000.081 694.306 1001.099 701.698 C1001 704 1001 704 999.547 705.63 C997.812 706.75 997.812 706.75 995.855 707.789 C991.814 710.427 990.466 715.601 989 720 C988.349 731.727 988.045 743.498 996 753 C999.602 756.546 1002.561 758.308 1007.688 758.375 C1010.581 758.241 1013.209 757.769 1016 757 C1016.193 757.713 1016.387 758.426 1016.586 759.16 C1018.024 764.45 1019.479 769.733 1021 775 C1016.458 773.628 1012.555 771.727 1008.375 769.5 C999.335 764.956 989.965 764.496 980 764 C979.867 763.241 979.734 762.481 979.598 761.699 C979.421 760.705 979.244 759.711 979.062 758.688 C978.888 757.701 978.714 756.715 978.535 755.699 C978.043 752.918 978.043 752.918 977 750 C972.222 747.969 967.065 747.069 962 746 C961.865 743.103 961.766 740.212 961.688 737.312 C961.646 736.496 961.604 735.679 961.561 734.838 C961.471 730.424 961.445 728.653 964.402 725.176 C965.26 724.458 966.117 723.74 967 723 C968.139 720.928 968.139 720.928 968.875 718.875 C970.468 715.417 970.839 715.081 974.5 713.25 C975.655 712.837 976.81 712.425 978 712 C981.686 709.111 983.022 706.566 984 702 C984.722 694.163 984.722 694.163 982.312 686.875 C979.933 684.945 977.846 684.067 975 683 C974.662 680.459 974.329 677.917 974 675.375 C973.905 674.662 973.809 673.949 973.711 673.215 C972.797 666.101 972.31 660.49 976 654 C978.687 653.062 978.687 653.062 981 653 C981.33 652.01 981.66 651.02 982 650 C980.02 650 978.04 650 976 650 C975.867 649.313 975.734 648.626 975.598 647.918 C975.421 647.017 975.244 646.116 975.062 645.188 C974.888 644.294 974.714 643.401 974.535 642.48 C974.023 639.886 974.023 639.886 973 637 C976.3 636.67 979.6 636.34 983 636 C984.472 632.641 985.308 629.745 985.622 626.095 C985.705 625.151 985.787 624.207 985.872 623.234 C985.949 622.223 986.027 621.211 986.106 620.169 C986.19 619.105 986.275 618.041 986.361 616.945 C987.187 605.726 987.308 594.537 987.301 583.293 C987.306 581.065 987.311 578.838 987.317 576.61 C987.329 570.693 987.326 564.776 987.317 558.858 C987.312 555.156 987.311 551.454 987.31 547.752 C987.288 508.66 986.453 469.662 984.751 430.61 C983.053 391.602 981.875 352.605 981.219 313.566 C981.204 312.671 981.189 311.776 981.173 310.854 C980.892 294.229 980.624 277.604 980.367 260.979 C980.223 251.668 980.074 242.356 979.914 233.045 C979.825 227.817 979.744 222.59 979.67 217.362 C979.622 214.15 979.567 210.939 979.509 207.728 C979.484 206.241 979.462 204.754 979.444 203.267 C979.418 201.243 979.38 199.22 979.341 197.197 C979.323 196.065 979.306 194.934 979.287 193.768 C979.195 190.788 979.195 190.788 977 188 C975.68 188 974.36 188 973 188 C972.794 187.216 972.587 186.433 972.375 185.625 C971.228 182.821 971.228 182.821 968.562 181.75 C958.896 179.715 949.038 179.856 939.203 179.871 C937.722 179.87 936.241 179.868 934.76 179.866 C930.699 179.861 926.638 179.863 922.578 179.865 C918.156 179.867 913.734 179.863 909.313 179.859 C901.566 179.854 893.819 179.853 886.072 179.854 C874.551 179.855 863.03 179.851 851.509 179.846 C829.73 179.836 807.952 179.834 786.174 179.833 C769.348 179.832 752.522 179.83 735.696 179.827 C730.851 179.826 726.007 179.825 721.162 179.825 C719.957 179.824 718.753 179.824 717.512 179.824 C683.629 179.818 649.745 179.814 615.862 179.814 C613.946 179.814 613.946 179.814 611.99 179.814 C605.515 179.814 599.04 179.814 592.565 179.815 C590.636 179.815 590.636 179.815 588.668 179.815 C586.067 179.815 583.467 179.815 580.866 179.815 C540.437 179.815 500.008 179.808 459.579 179.794 C414.14 179.779 368.702 179.77 323.264 179.771 C318.413 179.771 313.563 179.771 308.713 179.771 C306.921 179.771 306.921 179.771 305.094 179.771 C285.913 179.771 266.732 179.765 247.551 179.756 C228.252 179.748 208.953 179.747 189.654 179.753 C178.204 179.757 166.755 179.755 155.305 179.746 C147.637 179.74 139.968 179.741 132.3 179.748 C127.944 179.752 123.588 179.753 119.232 179.745 C103.499 179.717 87.813 179.817 72.107 180.828 C70.98 180.897 69.853 180.966 68.692 181.037 C55.169 181.552 55.169 181.552 43.147 186.483 C37.78 193.581 39.718 206.395 39.741 214.898 C39.739 216.601 39.735 218.305 39.731 220.008 C39.722 224.637 39.725 229.266 39.732 233.895 C39.735 237.812 39.732 241.729 39.729 245.646 C39.719 257.204 39.728 268.762 39.742 280.319 C39.751 286.883 39.754 293.447 39.757 300.011 C39.786 352.211 39.968 404.386 41.284 456.571 C41.319 457.954 41.319 457.954 41.355 459.364 C41.402 461.228 41.449 463.092 41.497 464.956 C41.995 484.527 42.276 504.1 42.543 523.676 C42.565 525.292 42.587 526.909 42.61 528.525 C42.819 543.787 43.02 559.049 43.214 574.311 C43.29 580.302 43.369 586.294 43.451 592.286 C43.507 596.458 43.56 600.63 43.609 604.802 C43.647 607.954 43.691 611.107 43.735 614.26 C43.747 615.384 43.759 616.509 43.771 617.668 C43.794 619.216 43.794 619.216 43.817 620.795 C43.829 621.685 43.84 622.576 43.851 623.493 C44.004 626.074 44.434 628.48 45 631 C42.329 632.781 40.626 633.504 37.625 634.375 C33.739 635.63 30.895 637.012 28 640 C28 640.99 28 641.98 28 643 C31.473 642.421 34.224 641.48 37.375 639.938 C46.352 636.309 55.846 636.873 64.875 640.062 C72.559 643.399 79.224 648.019 84 655 C84.516 655.742 85.031 656.485 85.562 657.25 C90.081 665.894 91.566 674.324 88.812 683.812 C87.304 687.903 85.32 690.219 82 693 C82.217 692.394 82.433 691.788 82.656 691.164 C86.331 680.107 85.501 671.747 81 661 C76.909 653.383 70.314 648.292 62.43 644.918 C53.08 642.416 41.225 642.154 32.594 646.93 C32.068 647.283 31.542 647.636 31 648 C28 650 28 650 23 649 C15.41 649 7.82 649 0 649 C0 434.83 0 220.66 0 0 Z " fill="#FEFEFE" transform="translate(0,0)"/>
<path d="M0 0 C25.74 0 51.48 0 78 0 C78.99 5.94 78.99 5.94 80 12 C79.01 12.33 78.02 12.66 77 13 C76.267 15.015 76.267 15.015 76 17 C77.98 17 79.96 17 82 17 C82.605 19.104 83.209 21.208 83.812 23.312 C83.996 23.945 84.179 24.578 84.367 25.23 C85.497 29.157 86.519 33.097 87.5 37.062 C88.641 41.155 89.542 44.29 93 47 C97.568 47.866 100.954 47.249 105 45 C107.209 53.724 107.138 58.926 103.188 67 C100.919 72.732 101.06 79.18 103 85 C106.63 85 110.26 85 114 85 C114.351 85.969 114.701 86.939 115.062 87.938 C116.748 91.34 116.748 91.34 120.5 92.062 C123.879 92.343 123.879 92.343 125.668 90.755 C127.234 88.691 127.511 87.418 127.809 84.859 C127.966 83.634 127.966 83.634 128.127 82.384 C128.23 81.515 128.332 80.646 128.438 79.75 C129.604 71.007 130.996 62.33 134 54 C134.66 53.67 135.32 53.34 136 53 C135.914 54.171 135.829 55.341 135.74 56.547 C133.426 88.389 131.94 120.055 131.826 151.984 C131.817 154.356 131.805 156.728 131.791 159.099 C131.773 162.443 131.769 165.786 131.77 169.129 C131.762 170.137 131.755 171.145 131.748 172.183 C131.764 177.194 132.007 181.307 134 186 C134.66 186 135.32 186 136 186 C137.282 183.435 137.139 181.596 137.158 178.723 C137.168 177.608 137.178 176.493 137.189 175.344 C137.196 174.119 137.204 172.895 137.211 171.633 C137.23 169.673 137.249 167.713 137.27 165.754 C137.291 163.656 137.311 161.559 137.331 159.461 C137.557 136.465 138.093 113.525 139.438 90.562 C139.499 89.47 139.561 88.378 139.624 87.253 C139.801 84.169 139.989 81.087 140.184 78.004 C140.262 76.672 140.262 76.672 140.342 75.313 C140.722 69.701 141.661 64.466 143 59 C143.99 59.33 144.98 59.66 146 60 C150.329 60.486 153.82 60.702 157.625 58.438 C159.627 54.889 158.91 52.943 158 49 C156.595 46.119 154.894 43.481 153.125 40.812 C152.678 40.114 152.23 39.416 151.77 38.697 C150.016 35.978 148.325 33.374 146.199 30.93 C144.415 28.059 144.64 25.657 144.688 22.312 C144.691 21.154 144.695 19.995 144.699 18.801 C145 15 145 15 147 6 C164.49 6 181.98 6 200 6 C200.438 23.75 200.438 23.75 200.568 29.272 C200.784 37.879 201.125 46.43 202 55 C202.66 55 203.32 55 204 55 C204.33 39.16 204.66 23.32 205 7 C208.63 7 212.26 7 216 7 C217.585 8.585 217.164 10.229 217.205 12.428 C217.225 13.369 217.245 14.31 217.266 15.279 C217.291 16.814 217.291 16.814 217.316 18.379 C217.337 19.421 217.358 20.463 217.379 21.536 C217.445 24.878 217.504 28.22 217.562 31.562 C217.606 33.822 217.649 36.082 217.693 38.342 C217.801 43.894 217.902 49.447 218 55 C218.99 55 219.98 55 221 55 C221.495 31.735 221.495 31.735 222 8 C237.875 7.562 237.875 7.562 242.82 7.432 C249.584 7.236 256.294 6.975 263.023 6.212 C265.541 5.942 268.032 5.867 270.562 5.875 C271.802 5.871 271.802 5.871 273.066 5.867 C275 6 275 6 276 7 C276.879 11.975 277.441 16.981 278 22 C278.124 22.935 278.247 23.869 278.375 24.832 C279.032 33.31 274.106 38.897 269.199 45.379 C265.186 50.887 264.35 54.172 265 61 C270.772 62.924 275.4 61.998 281 60 C282.435 70.189 283.617 80.371 284.5 90.625 C284.595 91.706 284.595 91.706 284.691 92.809 C286.056 108.598 286.749 124.412 287.354 140.247 C287.409 141.652 287.409 141.652 287.465 143.086 C287.533 144.841 287.598 146.597 287.658 148.353 C287.824 152.662 288.274 156.744 289 161 C289.12 163.337 289.2 165.676 289.246 168.016 C289.279 169.363 289.312 170.711 289.346 172.059 C289.393 174.149 289.437 176.24 289.477 178.331 C289.62 185.574 289.874 192.572 291.503 199.658 C292.415 203.954 292.737 208.318 293.125 212.688 C293.211 213.585 293.298 214.483 293.387 215.408 C293.838 220.295 294.094 225.093 294 230 C288.039 234.032 281.716 233.476 274.727 233.512 C273.448 233.53 272.169 233.548 270.851 233.566 C267.468 233.611 264.085 233.643 260.701 233.67 C257.242 233.699 253.783 233.746 250.324 233.791 C243.55 233.876 236.775 233.944 230 234 C229.807 231.166 229.614 228.331 229.421 225.497 C229.328 224.133 229.328 224.133 229.233 222.742 C228.879 217.539 228.525 212.337 228.171 207.134 C228.019 204.893 227.866 202.652 227.714 200.411 C227.636 199.262 227.558 198.113 227.477 196.929 C226.993 189.816 226.508 182.703 226.021 175.59 C223.044 132.057 223.044 132.057 221.887 113.332 C221.753 111.163 221.617 108.994 221.481 106.824 C221.438 106.141 221.395 105.458 221.35 104.755 C221.309 104.089 221.267 103.423 221.224 102.737 C220.913 97.793 220.618 92.849 220.331 87.903 C220.195 85.73 220.059 83.556 219.922 81.383 C219.872 80.444 219.822 79.505 219.771 78.537 C219.378 72.573 218.098 67.603 216 62 C212.04 62 208.08 62 204 62 C203.699 70.625 203.408 79.25 203.125 87.875 C203.103 88.549 203.081 89.223 203.058 89.917 C202.417 109.461 201.886 129.005 201.457 148.555 C201.435 149.556 201.413 150.557 201.39 151.588 C201.172 161.598 200.96 171.607 200.757 181.617 C200.68 185.405 200.6 189.193 200.52 192.98 C200.467 195.565 200.417 198.15 200.367 200.735 C200.14 211.841 199.63 222.909 199 234 C190.42 234 181.84 234 173 234 C172.986 231.855 172.972 229.71 172.957 227.5 C172.926 225.398 172.887 223.297 172.847 221.195 C172.824 219.746 172.81 218.297 172.804 216.848 C172.849 206.012 172.849 206.012 168.395 196.328 C165.889 193.942 163.343 193.519 160 193 C158.494 192.738 158.494 192.738 156.958 192.471 C151.966 191.877 147.07 191.877 142.048 191.902 C140.967 191.904 139.887 191.905 138.773 191.907 C136.437 191.911 134.101 191.917 131.764 191.925 C128.071 191.938 124.377 191.944 120.684 191.949 C112.185 191.961 103.685 191.983 95.186 192.005 C86.761 192.027 78.335 192.045 69.909 192.056 C66.263 192.062 62.617 192.075 58.971 192.088 C56.749 192.091 54.527 192.095 52.305 192.098 C51.286 192.103 50.266 192.108 49.215 192.113 C48.289 192.113 47.362 192.113 46.407 192.114 C45.6 192.116 44.792 192.118 43.96 192.12 C42 192 42 192 40 191 C37.793 190.929 35.583 190.916 33.375 190.938 C32.186 190.947 30.998 190.956 29.773 190.965 C28.858 190.976 27.943 190.988 27 191 C26.841 190.455 26.683 189.909 26.52 189.348 C23.297 178.933 18.717 170.182 8.883 164.754 C6.327 163.731 3.787 163.739 1.066 163.547 C-3.117 162.44 -6.04 159.015 -9 156 C-7.609 151.954 -5.599 148.55 -3.27 144.992 C-1.846 142.828 -1.846 142.828 -0.312 139.688 C2.239 136.723 3.104 136.486 6.75 135.562 C13.686 133.778 17.875 130.231 21.793 124.273 C26.871 115.324 28.034 107.29 27 97 C24.985 91.465 22.093 88.833 17 86 C17.308 83.541 17.621 81.083 17.938 78.625 C18.025 77.926 18.112 77.228 18.201 76.508 C18.887 71.227 18.887 71.227 20 69 C21.072 61.564 21.217 54.192 21.25 46.688 C21.271 45.541 21.291 44.394 21.312 43.213 C21.348 35.365 20.209 28.515 18 21 C17.67 19.68 17.34 18.36 17 17 C43.73 16.505 43.73 16.505 71 16 C71.33 14.35 71.66 12.7 72 11 C71.264 11.016 70.528 11.031 69.769 11.047 C62.811 11.188 55.853 11.294 48.894 11.363 C45.316 11.399 41.74 11.448 38.163 11.528 C34.707 11.604 31.252 11.646 27.795 11.664 C25.843 11.683 23.892 11.738 21.941 11.793 C13.216 11.797 13.216 11.797 9.765 9.536 C7.949 7.707 7.949 7.707 6.534 5.898 C4.647 3.424 4.647 3.424 0 0 Z " fill="#FCFCFC" transform="translate(316,639)"/>
<path d="M0 0 C0.141 0.696 0.282 1.391 0.427 2.108 C1.073 5.281 1.724 8.453 2.375 11.625 C2.597 12.719 2.818 13.814 3.047 14.941 C3.266 16.005 3.485 17.068 3.711 18.164 C3.91 19.138 4.109 20.112 4.314 21.116 C5.036 24.151 5.973 27.056 7 30 C9.313 30.383 9.313 30.383 12 30 C14.36 28.066 14.36 28.066 16.438 25.438 C17.215 24.529 17.992 23.62 18.793 22.684 C20.114 21.077 21.431 19.466 22.738 17.848 C23.237 17.238 23.736 16.628 24.25 16 C24.668 15.464 25.085 14.928 25.516 14.375 C27.458 12.576 29.543 11.933 32 11 C31.909 12.235 31.818 13.47 31.725 14.743 C29.801 41.209 28.55 67.464 29 94 C33.29 94 37.58 94 42 94 C42.221 91.042 42.427 88.084 42.625 85.125 C42.689 84.283 42.754 83.441 42.82 82.574 C42.872 81.769 42.923 80.963 42.977 80.133 C43.029 79.389 43.081 78.646 43.135 77.879 C43.188 75.752 43.188 75.752 41 74 C36.855 73.714 36.855 73.714 33 75 C33 71.04 33 67.08 33 63 C35.018 63.326 37.036 63.651 39.055 63.977 C40.018 63.988 40.018 63.988 41 64 C43.325 62.116 43.325 62.116 43.188 59 C43.201 56.076 43.201 56.076 42 54 C39.03 54 36.06 54 33 54 C33 50.37 33 46.74 33 43 C34.32 43.66 35.64 44.32 37 45 C39.584 45.334 39.584 45.334 42 45 C44.325 43.116 44.325 43.116 44.188 40 C44.201 37.076 44.201 37.076 43 35 C40.36 35 37.72 35 35 35 C35 31.7 35 28.4 35 25 C35.66 25.33 36.32 25.66 37 26 C40.5 26.25 40.5 26.25 44 26 C44.66 25.34 45.32 24.68 46 24 C45.677 20.403 45.677 20.403 45 17 C40.469 16.066 40.469 16.066 36 17 C36.523 14.237 37.109 11.674 38 9 C48.614 8.227 48.614 8.227 53.25 10.812 C56.649 14.312 59.392 18.48 62.168 22.477 C62.773 23.309 63.377 24.142 64 25 C64.429 25.606 64.859 26.212 65.301 26.836 C68.049 28.718 70.779 28.182 74 28 C77.564 18.729 80.172 9.781 82 0 C89.167 -0.448 95.217 -0.074 100.961 4.594 C120.845 23.77 135.128 48.886 148.488 72.777 C150.918 77.11 153.4 81.409 155.918 85.691 C180.665 127.807 180.665 127.807 175.438 148.875 C171.06 164.737 164.502 179.92 158 195 C152.416 194.437 148.034 192.367 143.062 189.938 C142.236 189.54 141.409 189.142 140.557 188.733 C132.925 185.031 125.436 181.079 118 177 C118.676 172.176 120.569 168.082 122.562 163.688 C123.091 162.512 123.091 162.512 123.629 161.312 C132.486 141.771 132.486 141.771 137 135 C136.843 132.872 136.843 132.872 136 131 C135.34 130.67 134.68 130.34 134 130 C135.164 126.509 135.689 126.32 138.781 124.625 C139.541 124.197 140.3 123.769 141.082 123.328 C142.694 122.443 144.306 121.557 145.918 120.672 C146.677 120.244 147.436 119.816 148.219 119.375 C148.919 118.991 149.62 118.607 150.342 118.211 C152.317 117.014 152.317 117.014 153 114 C146.468 116.041 141.04 118.226 135.754 122.633 C133.923 124.06 132.084 124.992 130 126 C125.052 119.128 121.374 111.916 117.812 104.25 C116.78 102.046 115.744 99.843 114.707 97.641 C114.258 96.677 113.809 95.713 113.347 94.72 C112.06 91.988 112.06 91.988 110.409 89.557 C108.719 86.489 108.264 83.903 107.754 80.441 C107.556 79.167 107.358 77.893 107.154 76.58 C106.956 75.241 106.759 73.902 106.562 72.562 C104.468 57.492 104.468 57.492 100 43 C99.01 42.67 98.02 42.34 97 42 C98.455 56.088 100.653 70.048 102.886 84.031 C103.502 87.887 104.113 91.744 104.723 95.602 C105.117 98.086 105.511 100.57 105.906 103.055 C106.087 104.191 106.267 105.328 106.453 106.499 C106.713 108.127 106.713 108.127 106.979 109.789 C107.146 110.842 107.313 111.895 107.486 112.979 C107.813 114.9 108.172 116.816 108.575 118.722 C110.294 126.914 110 133.077 110 142 C63.14 142 16.28 142 -32 142 C-32 134.97 -31.711 128.82 -30.539 122.004 C-30.313 120.633 -30.313 120.633 -30.083 119.234 C-29.604 116.342 -29.115 113.452 -28.625 110.562 C-28.304 108.63 -27.984 106.697 -27.664 104.764 C-26.181 95.829 -24.673 86.901 -23 78 C-22.756 76.69 -22.756 76.69 -22.506 75.353 C-22.008 72.693 -21.505 70.034 -21 67.375 C-20.835 66.498 -20.67 65.622 -20.5 64.719 C-19.708 60.547 -18.874 56.398 -17.914 52.262 C-17.099 48.656 -16.63 45.132 -16.375 41.438 C-16.3 40.405 -16.225 39.372 -16.148 38.309 C-16.075 37.166 -16.075 37.166 -16 36 C-16.66 36 -17.32 36 -18 36 C-18.371 37.918 -18.371 37.918 -18.75 39.875 C-19.51 43.333 -20.526 46.444 -21.922 49.695 C-23.967 54.72 -25.338 59.709 -26.5 65 C-26.714 65.936 -26.929 66.871 -27.15 67.835 C-28.299 73.044 -29.197 78.21 -29.82 83.508 C-31.531 97.848 -34.352 111.63 -44 123 C-45.967 124.291 -45.967 124.291 -48 125 C-52.423 123.612 -55.773 121.516 -59.562 118.875 C-63.035 116.473 -65.687 115.221 -70 115 C-67.606 117.724 -65.658 119.665 -62.395 121.328 C-56.943 124.124 -53.707 126.383 -51.754 132.392 C-50.977 135.197 -50.262 138.014 -49.571 140.842 C-48.635 144.378 -47.365 147.773 -46.062 151.188 C-45.815 151.845 -45.568 152.503 -45.313 153.18 C-43.185 158.733 -40.716 164.084 -38.102 169.426 C-37 172 -37 172 -37 175 C-38.797 176.391 -38.797 176.391 -41.32 177.82 C-42.242 178.352 -43.164 178.883 -44.114 179.431 C-45.604 180.269 -45.604 180.269 -47.125 181.125 C-49.147 182.285 -51.168 183.448 -53.188 184.613 C-54.18 185.185 -55.173 185.757 -56.195 186.346 C-61.034 189.2 -65.678 192.328 -70.32 195.488 C-73 197 -73 197 -77 197 C-79.805 188.144 -82.322 179.249 -84.625 170.25 C-84.924 169.096 -85.223 167.943 -85.531 166.754 C-86.11 164.508 -86.682 162.259 -87.245 160.009 C-87.693 158.225 -88.152 156.443 -88.635 154.669 C-91.948 141.733 -93.103 123.275 -87.062 111.125 C-85.761 109.049 -84.407 107.006 -83 105 C-81.994 103.332 -80.988 101.663 -80 99.984 C-78.902 98.127 -77.775 96.289 -76.648 94.449 C-73.939 89.963 -71.416 85.38 -68.882 80.794 C-63.363 70.803 -57.711 61.078 -51.186 51.714 C-49.081 48.671 -47.046 45.582 -45 42.5 C-44.168 41.255 -43.336 40.01 -42.504 38.766 C-40.808 36.224 -39.131 33.671 -37.465 31.109 C-20.165 4.604 -20.165 4.604 -9.281 1.133 C-6.17 0.48 -3.181 0 0 0 Z " fill="#FCFCFC" transform="translate(488,482)"/>
<path d="M0 0 C28.451 -0.068 56.902 -0.122 85.354 -0.153 C88.712 -0.157 92.07 -0.161 95.428 -0.165 C96.431 -0.166 96.431 -0.166 97.454 -0.167 C108.283 -0.18 119.111 -0.204 129.939 -0.231 C141.048 -0.26 152.157 -0.276 163.266 -0.282 C169.507 -0.286 175.747 -0.295 181.987 -0.317 C187.859 -0.338 193.729 -0.344 199.601 -0.339 C201.758 -0.34 203.915 -0.346 206.072 -0.358 C209.013 -0.373 211.954 -0.369 214.895 -0.361 C215.752 -0.37 216.609 -0.378 217.492 -0.387 C222.181 -0.352 225.134 0.042 229 3 C228.83 3.927 228.66 4.854 228.484 5.809 C228.025 9.004 227.984 12.06 228.078 15.285 C228.117 16.7 228.117 16.7 228.156 18.143 C228.219 20.094 228.297 22.044 228.391 23.994 C228.565 31.977 228.565 31.977 225.609 35.434 C224.748 36.281 223.887 37.127 223 38 C220.051 42.669 220.519 47.655 221 53 C222.481 59.423 225.449 64.299 231 68 C233.615 68.016 233.615 68.016 236.438 67.75 C239.41 67.695 239.41 67.695 242 68 C244.375 70.625 244.375 70.625 246 74 C246.846 74.866 247.691 75.732 248.562 76.625 C252.273 80.885 252.927 86.609 254 92 C253.469 92.231 252.938 92.461 252.391 92.699 C247.864 94.789 244.459 96.476 242 101 C241.402 104.329 241.131 107.622 241 111 C240.212 111.098 239.425 111.196 238.613 111.297 C221.447 113.653 207.267 118.486 195 131 C194.364 131.648 193.728 132.297 193.073 132.965 C186.098 140.365 180.638 148.603 175.062 157.062 C173.649 159.199 172.233 161.333 170.812 163.464 C169.936 164.778 169.064 166.096 168.198 167.417 C165.224 171.888 165.224 171.888 163 173 C163 172.01 163 171.02 163 170 C158.786 170.095 154.573 170.201 150.36 170.317 C148.931 170.355 147.503 170.39 146.074 170.422 C137.562 170.613 129.34 171.114 121 173 C121.026 172.436 121.052 171.872 121.079 171.291 C121.184 168.694 121.249 166.098 121.312 163.5 C121.354 162.613 121.396 161.726 121.439 160.812 C121.559 154.319 120.283 149.971 116 145 C115.051 144.319 114.102 143.639 113.125 142.938 C112.424 142.298 111.722 141.659 111 141 C110.757 135.158 113.497 130.121 115.844 124.867 C118.149 119.151 118.212 113.712 118.25 107.625 C118.271 106.8 118.291 105.975 118.312 105.125 C118.318 104.313 118.323 103.501 118.328 102.664 C118.342 101.573 118.342 101.573 118.356 100.459 C117.981 97.125 117.981 97.125 115 91 C114.67 99.25 114.34 107.5 114 116 C113.67 116 113.34 116 113 116 C112.986 115.103 112.972 114.206 112.957 113.281 C112.315 96.478 107.825 81.238 95.375 69.188 C87.52 62.875 77.854 58.785 68.109 56.508 C66 56 66 56 64 55 C60.151 54.756 56.293 54.815 52.438 54.812 C50.847 54.794 50.847 54.794 49.225 54.775 C44.264 54.766 39.711 54.923 34.883 56.117 C32.961 56.554 32.961 56.554 31 57 C28.438 55.312 28.438 55.312 26 53 C20.085 49.708 13.644 48.965 7 50 C2.782 51.69 -0.784 53.784 -4 57 C-7.125 57.125 -7.125 57.125 -10 57 C-10.124 55.948 -10.247 54.896 -10.375 53.812 C-11.609 48.59 -14.983 44.855 -18.457 40.921 C-22.029 36.68 -22.705 33.534 -23 28 C-22.004 28.031 -22.004 28.031 -20.988 28.062 C-19.664 28.032 -19.664 28.032 -18.312 28 C-17.442 28 -16.572 28 -15.676 28 C-10.868 26.203 -8.962 21.035 -6.848 16.562 C-5.758 14.055 -4.713 11.534 -3.688 9 C-3.328 8.13 -2.969 7.26 -2.6 6.363 C-1.727 4.245 -0.86 2.124 0 0 Z " fill="#FEFEFE" transform="translate(661,656)"/>
<path d="M0 0 C0.992 -0.005 1.984 -0.011 3.006 -0.016 C8.271 -0.043 13.536 -0.062 18.802 -0.077 C23.075 -0.09 27.347 -0.118 31.62 -0.159 C72.818 -0.546 72.818 -0.546 93.055 2.547 C93.722 2.649 94.389 2.75 95.076 2.855 C112.466 5.6 130.684 8.748 142.949 22.273 C156.259 40.598 149.949 77.608 149.949 93.273 C67.119 93.273 -15.711 93.273 -101.051 93.273 C-101.051 32.669 -101.051 32.669 -87.305 17.324 C-74.398 4.954 -53.156 2.675 -36.051 1.273 C-35.063 1.192 -34.076 1.11 -33.058 1.026 C-22.039 0.203 -11.047 0.056 0 0 Z " fill="#FAFBFA" transform="translate(676.05078125,930.7265625)"/>
<path d="M0 0 C25.936 0 25.936 0 37.562 0.938 C46.428 1.601 55.258 2.076 64.148 2.215 C65.433 2.237 65.433 2.237 66.744 2.26 C70.949 2.33 75.153 2.378 79.36 2.394 C88.45 2.488 95.069 2.817 102.293 8.945 C108.808 16.441 114.531 24.46 120.267 32.56 C123.195 36.682 126.162 40.777 129.125 44.875 C129.941 46.007 129.941 46.007 130.774 47.162 C131.285 47.869 131.795 48.576 132.32 49.305 C132.766 49.923 133.213 50.542 133.672 51.179 C135.005 53.055 135.005 53.055 136.644 54.928 C138.284 57.433 138.369 58.879 138.371 61.852 C138.388 62.786 138.406 63.721 138.424 64.684 C138.433 66.621 138.438 68.559 138.439 70.496 C138.623 79.752 140.959 87.765 147.449 94.594 C152.433 99.113 156.966 99.311 163.414 99.203 C165.732 99.021 167.773 98.648 170 98 C170.614 106.939 170.614 106.939 168.625 110.375 C161.555 114.751 153.355 116.907 145.375 119 C144.422 119.253 143.469 119.507 142.488 119.768 C140.566 120.277 138.644 120.783 136.721 121.286 C134.243 121.936 131.769 122.602 129.297 123.273 C127.907 123.642 126.516 124.009 125.125 124.375 C123.931 124.692 122.738 125.009 121.508 125.336 C117.411 126.112 114.164 126.361 110 126 C101.339 120.095 95.78 105.677 90.65 96.829 C88.126 92.503 85.542 88.215 82.938 83.938 C82.497 83.207 82.056 82.476 81.602 81.723 C77.783 74.886 77.783 74.886 72 70 C72.944 73.933 73.576 76.448 76.062 79.688 C81.213 88.494 79.301 102.625 79.562 112.75 C79.606 114.333 79.649 115.917 79.693 117.5 C79.799 121.333 79.901 125.167 80 129 C80.681 128.01 80.681 128.01 81.375 127 C81.911 126.34 82.448 125.68 83 125 C83.66 125 84.32 125 85 125 C85.33 118.07 85.66 111.14 86 104 C88.932 106.932 91.018 109.255 93.25 112.625 C94.031 113.789 94.031 113.789 94.828 114.977 C96 117 96 117 96 119 C94.178 120.235 92.27 121.245 90.336 122.293 C84.089 126.858 80.043 133.695 75.938 140.125 C75.211 141.245 75.211 141.245 74.471 142.387 C68.168 152.166 62.124 162.108 56 172 C37.52 172 19.04 172 0 172 C0 115.24 0 58.48 0 0 Z " fill="#FEFEFE" transform="translate(0,852)"/>
<path d="M0 0 C31.35 0 62.7 0 95 0 C93.929 2.141 92.854 4.28 91.746 6.402 C91.314 7.239 90.882 8.076 90.438 8.938 C90.003 9.772 89.569 10.606 89.121 11.465 C78.727 34.97 92.592 74.569 101.059 97.207 C105.687 108.968 111.77 119.378 119.738 129.168 C122.021 132.027 124.014 134.932 126 138 C123.938 140.062 123.938 140.062 121 142 C117.723 141.688 117.723 141.688 114 141 C95.086 137.403 95.086 137.403 77.145 142.402 C68.636 148.741 65.56 156.997 62.012 166.703 C60.623 169.856 58.509 171.67 56 174 C55.237 174.763 54.474 175.526 53.688 176.312 C53.131 176.869 52.574 177.426 52 178 C51.67 177.01 51.34 176.02 51 175 C35.772 173.034 20.654 172.583 5.312 172.375 C2.942 172.337 0.572 172.298 -1.799 172.258 C-7.532 172.163 -13.266 172.078 -19 172 C-17.889 175.098 -17.294 176.746 -15 179 C-10.956 180.074 -6.952 179.905 -2.789 179.832 C-0.988 179.843 -0.988 179.843 0.85 179.855 C4.692 179.873 8.533 179.845 12.375 179.812 C16.21 179.806 20.044 179.81 23.879 179.824 C26.265 179.829 28.651 179.822 31.037 179.8 C41.009 179.776 41.009 179.776 46 182 C46.027 183.437 46.046 184.875 46.062 186.312 C46.074 187.113 46.086 187.914 46.098 188.738 C46 191 46 191 45 194 C44.975 196.042 44.954 198.083 44.938 200.125 C44.447 207.695 41.321 210.973 36 216 C35.34 216.99 34.68 217.98 34 219 C30.063 217.688 28.701 215.173 26.375 211.938 C19.643 202.925 12.08 194.433 0.4 192.59 C-2.259 192.39 -4.897 192.293 -7.562 192.25 C-8.476 192.22 -9.389 192.191 -10.33 192.16 C-12.553 192.09 -14.776 192.037 -17 192 C-17.014 191.154 -17.028 190.309 -17.043 189.438 C-17.398 180.997 -18.523 175.477 -24.559 169.441 C-26.961 167.326 -28.95 166.017 -32 165 C-32 164.34 -32 163.68 -32 163 C-30.371 161.919 -28.695 160.911 -27 159.938 C-17.717 154.162 -12.263 146.981 -8 137 C-7.47 135.801 -7.47 135.801 -6.93 134.578 C-5.037 129.329 -4.863 124.229 -4.875 118.688 C-4.872 117.454 -4.87 116.22 -4.867 114.949 C-4.663 112.112 -4.663 112.112 -6 111 C-5.856 109.783 -5.711 108.566 -5.562 107.312 C-4.149 95.298 -4.085 84.372 -11 74 C-11.581 69.417 -11.724 64.819 -11.895 60.206 C-11.997 58.069 -12.177 55.951 -12.375 53.82 C-12.615 50.026 -12.729 46.734 -12 43 C-9.942 40.806 -8.014 39.725 -5.332 38.387 C-1.361 36.025 0.361 32.208 2 28 C2.895 24.438 3.191 21.043 3.25 17.375 C3.289 15.963 3.289 15.963 3.328 14.523 C2.868 9.578 1.307 4.792 0 0 Z " fill="#FDFDFD" transform="translate(92,656)"/>
<path d="M0 0 C4.596 3.934 7.848 8.367 10.953 13.527 C11.597 14.597 11.597 14.597 12.254 15.688 C21.657 32.886 16.433 54.393 12.953 72.527 C12.689 73.935 12.689 73.935 12.419 75.371 C11.34 81.107 10.188 86.823 8.953 92.527 C8.638 94.003 8.638 94.003 8.316 95.508 C4.424 111.5 -2.919 127.836 -12.047 141.527 C-15.684 140.968 -18.833 139.86 -22.208 138.407 C-40.147 130.701 -60.622 129.747 -79.047 136.527 C-80.626 137.263 -82.193 138.028 -83.734 138.84 C-87.047 140.527 -87.047 140.527 -89.086 140.301 C-100.083 135.963 -108.371 114.678 -112.914 104.562 C-122.921 81.401 -134.573 47.368 -125.047 22.527 C-121.031 13.982 -114.782 6.541 -106.047 2.527 C-102.358 1.865 -101.258 2.384 -98.109 4.527 C-94.699 6.754 -93.027 6.906 -89.047 6.527 C-90.685 3.017 -92.078 0.072 -95.047 -2.473 C-93.414 -6.26 -91.644 -7.701 -87.859 -9.461 C-59.336 -19.722 -24.991 -18.14 0 0 Z " fill="#EAEAEA" transform="translate(314.046875,649.47265625)"/>
<path d="M0 0 C1.776 0.004 3.553 0.007 5.329 0.009 C9.965 0.016 14.601 0.036 19.237 0.058 C23.984 0.079 28.73 0.088 33.477 0.098 C42.76 0.119 52.044 0.153 61.328 0.195 C59.12 1.307 56.91 2.388 54.664 3.422 C47.374 6.865 41.359 10.859 35.328 16.195 C34.703 16.715 34.078 17.234 33.434 17.77 C19.7 30.077 14.404 50.571 13.187 68.238 C12.927 73.179 12.811 78.124 12.703 83.07 C12.665 84.548 12.626 86.026 12.586 87.504 C12.492 91.068 12.407 94.631 12.328 98.195 C11.243 98.201 11.243 98.201 10.135 98.206 C3.294 98.244 -3.546 98.301 -10.387 98.379 C-13.904 98.419 -17.42 98.451 -20.936 98.466 C-24.985 98.484 -29.033 98.534 -33.082 98.586 C-34.336 98.587 -35.591 98.588 -36.883 98.59 C-43.641 98.703 -48.236 99.014 -53.672 103.195 C-55.889 107.63 -55.254 113.189 -53.908 117.831 C-52.815 120.606 -51.62 123.304 -50.359 126.008 C-49.912 126.999 -49.464 127.99 -49.002 129.011 C-34.502 163.068 -34.502 163.068 -7.672 186.195 C-7.672 192.465 -7.672 198.735 -7.672 205.195 C-32.422 205.195 -57.172 205.195 -82.672 205.195 C-82.672 196.945 -82.672 188.695 -82.672 180.195 C-78.377 176.33 -76.61 175.241 -71.672 173.195 C-63.66 166.63 -59.599 157.724 -58.16 147.59 C-57.652 136.865 -60.586 126.068 -66.752 117.206 C-69.623 112.193 -69.188 106.998 -69.098 101.367 C-69.094 100.224 -69.091 99.08 -69.088 97.902 C-69.072 94.249 -69.028 90.598 -68.984 86.945 C-68.973 84.536 -68.963 82.128 -68.955 79.719 C-68.902 69.307 -68.754 58.904 -68.23 48.504 C-68.195 47.777 -68.159 47.051 -68.122 46.302 C-67.469 35 -66.628 22.67 -57.922 14.566 C-41.283 1.182 -20.451 -0.128 0 0 Z " fill="#F8F8F8" transform="translate(933.671875,818.8046875)"/>
<path d="M0 0 C0.534 0.217 1.067 0.433 1.617 0.656 C8.357 3.175 15.039 4.32 22 2 C29.289 0.824 36.7 0.896 44.062 0.875 C45.003 0.87 45.944 0.866 46.914 0.861 C48.242 0.864 48.242 0.864 49.598 0.867 C50.397 0.868 51.196 0.869 52.02 0.871 C54 1 54 1 56 2 C55.907 2.608 55.814 3.217 55.719 3.844 C55.015 12.391 58.118 17.903 62.023 25.188 C65.54 31.783 67.197 38.61 68 46 C68.66 46 69.32 46 70 46 C70.495 52.93 70.495 52.93 71 60 C72.485 60.495 72.485 60.495 74 61 C74.557 59.175 74.557 59.175 75.125 57.312 C76.878 52.68 78.8 50.635 83 48 C86.062 47.375 86.062 47.375 89 48 C91.812 50.437 91.812 50.437 94 53 C94.33 53.33 94.66 53.66 95 54 C95.73 61.331 94.936 67.121 90.383 73.137 C85.184 79.351 85.184 79.351 81 81 C76.349 81.338 73.239 80.832 69 79 C68.865 79.897 68.729 80.794 68.59 81.719 C66.12 96.035 61.342 111.598 49.535 120.953 C38.122 128.747 26.623 131.36 13 130 C1.993 127.569 -8.032 120.817 -15 112 C-20.924 101.9 -25.627 90.917 -25 79 C-26.65 79 -28.3 79 -30 79 C-30 79.66 -30 80.32 -30 81 C-34.388 81.428 -37.552 80.836 -41.32 78.449 C-45.33 74.99 -47.556 70.589 -48.445 65.402 C-48.706 59.65 -47.706 56.38 -44 52 C-43 51 -43 51 -39.125 50.75 C-35.309 50.825 -35.309 50.825 -33.125 52.062 C-31.482 54.892 -30.776 57.838 -30 61 C-29.34 61 -28.68 61 -28 61 C-26.811 58.621 -26.768 56.93 -26.611 54.275 C-26.521 52.804 -26.521 52.804 -26.429 51.303 C-26.339 49.71 -26.339 49.71 -26.246 48.086 C-26.181 47.001 -26.116 45.916 -26.049 44.799 C-25.841 41.324 -25.639 37.85 -25.438 34.375 C-25.298 32.023 -25.158 29.672 -25.018 27.32 C-24.674 21.547 -24.335 15.774 -24 10 C-23.469 9.802 -22.938 9.603 -22.392 9.399 C-17.596 7.604 -12.82 5.77 -8.062 3.875 C-7.392 3.611 -6.721 3.346 -6.029 3.074 C-2.771 1.941 -2.771 1.941 0 0 Z " fill="#FBFBFB" transform="translate(506,317)"/>
<path d="M0 0 C4.437 0.005 8.875 -0.001 13.312 -0.006 C21.059 -0.014 28.806 -0.014 36.552 -0.008 C48.072 -0.001 59.591 -0.005 71.11 -0.011 C91.689 -0.021 112.267 -0.02 132.846 -0.015 C150.846 -0.01 168.847 -0.008 186.847 -0.011 C188.043 -0.011 189.24 -0.011 190.472 -0.011 C195.329 -0.012 200.187 -0.012 205.044 -0.013 C250.543 -0.019 296.042 -0.014 341.541 -0.003 C381.946 0.007 422.351 0.006 462.756 -0.004 C508.196 -0.015 553.636 -0.019 599.076 -0.013 C603.919 -0.012 608.763 -0.011 613.606 -0.011 C614.799 -0.011 615.991 -0.01 617.22 -0.01 C635.217 -0.008 653.214 -0.011 671.211 -0.016 C691.666 -0.021 712.121 -0.02 732.576 -0.009 C744.02 -0.003 755.464 -0.003 766.907 -0.01 C774.553 -0.015 782.199 -0.012 789.846 -0.003 C794.2 0.001 798.554 0.003 802.909 -0.004 C806.877 -0.011 810.845 -0.008 814.813 0.002 C816.233 0.004 817.652 0.003 819.072 -0.002 C845.386 -0.091 845.386 -0.091 851.29 5.257 C850.96 6.907 850.63 8.557 850.29 10.257 C848.686 10.285 847.082 10.304 845.477 10.319 C844.137 10.337 844.137 10.337 842.77 10.355 C839.991 10.277 837.343 10.058 834.585 9.759 C827.092 9.068 819.605 9.118 812.088 9.13 C810.455 9.129 808.822 9.127 807.189 9.125 C802.71 9.121 798.23 9.123 793.75 9.126 C788.881 9.128 784.011 9.125 779.142 9.122 C769.506 9.118 759.87 9.119 750.234 9.122 C742.247 9.124 734.261 9.124 726.274 9.122 C724.548 9.122 724.548 9.122 722.787 9.122 C720.441 9.121 718.095 9.121 715.749 9.12 C688.14 9.116 660.53 9.122 632.92 9.129 C619.907 9.132 606.893 9.134 593.88 9.136 C506.13 9.149 418.381 9.192 159.879 9.584 C144.478 9.617 129.077 9.646 113.676 9.673 C93.924 9.707 74.173 9.747 54.421 9.8 C44.962 9.825 35.503 9.847 26.045 9.86 C18.238 9.872 10.431 9.889 2.625 9.916 C-1.293 9.929 -5.211 9.94 -9.129 9.941 C-12.697 9.943 -16.264 9.953 -19.832 9.971 C-21.7 9.978 -23.568 9.976 -25.437 9.973 C-32.901 10.021 -40.063 10.705 -47.432 11.799 C-52.241 12.471 -57.024 12.641 -61.872 12.735 C-66.562 12.918 -69.607 14.071 -73.71 16.257 C-73.734 37.232 -73.751 58.207 -73.762 79.183 C-73.767 88.933 -73.774 98.683 -73.785 108.434 C-73.835 150.366 -73.76 192.292 -73.237 234.222 C-73.227 235.097 -73.216 235.972 -73.204 236.874 C-72.752 282.272 -72.752 282.272 -71.458 327.649 C-70.512 351.857 -70.593 376.055 -70.641 400.278 C-70.652 406.045 -70.656 411.812 -70.661 417.579 C-70.672 428.805 -70.689 440.031 -70.71 451.257 C-72.69 451.257 -74.67 451.257 -76.71 451.257 C-79.114 447.528 -79.027 443.826 -79.058 439.535 C-79.071 438.752 -79.084 437.969 -79.098 437.162 C-79.14 434.534 -79.168 431.906 -79.197 429.278 C-79.224 427.393 -79.252 425.508 -79.281 423.623 C-79.358 418.489 -79.423 413.354 -79.486 408.22 C-79.554 402.809 -79.634 397.399 -79.712 391.989 C-79.86 381.693 -79.999 371.397 -80.134 361.101 C-80.33 346.155 -80.538 331.208 -80.749 316.262 C-80.764 315.15 -80.78 314.039 -80.796 312.893 C-80.828 310.669 -80.859 308.445 -80.89 306.22 C-80.98 299.829 -81.067 293.438 -81.15 287.047 C-81.216 282.039 -81.284 277.031 -81.353 272.024 C-81.366 271.053 -81.379 270.083 -81.393 269.083 C-81.57 256.435 -81.833 243.792 -82.174 231.148 C-82.756 209.519 -82.874 187.9 -82.877 166.265 C-82.878 163.208 -82.88 160.151 -82.883 157.094 C-82.892 146.384 -82.896 135.674 -82.895 124.964 C-82.895 115.039 -82.905 105.114 -82.921 95.189 C-82.934 86.585 -82.94 77.981 -82.939 69.378 C-82.939 64.273 -82.941 59.168 -82.952 54.063 C-82.962 49.291 -82.962 44.52 -82.955 39.748 C-82.954 38.006 -82.956 36.263 -82.962 34.521 C-83.035 12.1 -83.035 12.1 -79.061 7.24 C-71.906 1.205 -58.626 1.639 -49.601 1.085 C-48.362 1.006 -47.123 0.926 -45.847 0.844 C-30.573 -0.047 -15.294 -0.026 0 0 Z " fill="#272628" transform="translate(121.71005255542696,178.74306489154696)"/>
<path d="M0 0 C0 29.04 0 58.08 0 88 C-4.455 88.495 -4.455 88.495 -9 89 C-9.277 88.301 -9.554 87.603 -9.84 86.883 C-10.383 85.518 -10.383 85.518 -10.938 84.125 C-11.477 82.768 -11.477 82.768 -12.027 81.383 C-12.949 79.039 -12.949 79.039 -14 77 C-14.99 77 -15.98 77 -17 77 C-16.856 78.196 -16.711 79.393 -16.562 80.625 C-16.481 81.298 -16.4 81.971 -16.316 82.664 C-15.939 85.454 -15.473 88.225 -15 91 C-16.027 91.413 -17.055 91.825 -18.113 92.25 C-35.214 99.3 -46.757 107.839 -54.233 125.117 C-59.238 137.41 -59.951 150.615 -61.05 163.701 C-61.161 165.015 -61.272 166.329 -61.387 167.684 C-61.529 169.471 -61.529 169.471 -61.675 171.295 C-62 174 -62 174 -63 175 C-68.039 175.292 -73.08 175.314 -78.127 175.35 C-79.825 175.367 -81.523 175.394 -83.221 175.432 C-85.673 175.487 -88.122 175.509 -90.574 175.523 C-91.328 175.546 -92.081 175.569 -92.857 175.592 C-96.833 175.576 -99.257 175.188 -102.393 172.643 C-107.212 167.757 -110.501 161.857 -114 156 C-114.462 155.231 -114.924 154.461 -115.4 153.668 C-121.431 143.559 -127.028 133.268 -132.188 122.688 C-132.657 121.739 -133.127 120.791 -133.611 119.815 C-136.175 114.44 -137.644 109.956 -138 104 C-134.722 102.049 -132.288 101.756 -128.497 101.773 C-127.396 101.773 -126.295 101.773 -125.161 101.773 C-123.388 101.789 -123.388 101.789 -121.578 101.805 C-119.755 101.809 -119.755 101.809 -117.896 101.813 C-114.014 101.824 -110.132 101.85 -106.25 101.875 C-103.618 101.885 -100.987 101.894 -98.355 101.902 C-91.904 101.924 -85.452 101.958 -79 102 C-78.975 103.191 -78.95 104.382 -78.924 105.608 C-78.83 110.029 -78.73 114.45 -78.628 118.87 C-78.584 120.783 -78.543 122.696 -78.503 124.608 C-78.445 127.359 -78.381 130.109 -78.316 132.859 C-78.3 133.714 -78.283 134.568 -78.266 135.448 C-78.236 136.649 -78.236 136.649 -78.205 137.874 C-78.182 138.927 -78.182 138.927 -78.158 140 C-77.993 142.092 -77.564 143.983 -77 146 C-75.032 145.969 -75.032 145.969 -73 145 C-70.935 140.154 -70.398 135.302 -69.91 130.113 C-69.784 128.812 -69.784 128.812 -69.656 127.484 C-68.697 116.736 -68.577 105.971 -68.438 95.188 C-67.608 38.101 -67.608 38.101 -47 18 C-46.421 17.377 -45.842 16.755 -45.246 16.113 C-36.622 7.528 -21.878 1.417 -9.875 0.375 C-8.665 0.263 -8.665 0.263 -7.43 0.148 C-4.957 -0.003 -2.477 0 0 0 Z " fill="#EAEAEA" transform="translate(1024,822)"/>
<path d="M0 0 C0.66 0 1.32 0 2 0 C2.135 0.634 2.271 1.268 2.41 1.922 C4.003 8.828 6.05 15.536 8.312 22.25 C8.72 23.508 8.72 23.508 9.135 24.792 C11.802 32.523 15.99 39.494 23 44 C26.927 45.747 30.83 46.957 35 48 C35 51.96 35 55.92 35 60 C31.757 58.379 29.45 56.862 26.625 54.688 C13.695 45.73 0.345 44.491 -15 46 C-17.733 46.533 -20.323 47.219 -23 48 C-22.67 49.32 -22.34 50.64 -22 52 C-21.346 52.04 -20.693 52.079 -20.019 52.12 C-1.721 53.285 12.751 54.944 28.052 65.648 C30.932 67.647 33.86 69.575 36.783 71.51 C39.108 73.051 41.426 74.602 43.742 76.156 C46.258 77.841 48.781 79.507 51.32 81.156 C57.549 85.209 63.42 89.565 69.194 94.233 C72.339 96.763 75.481 99.02 79 101 C76.436 93.074 70.679 88.744 64.305 83.832 C62.39 82.31 60.679 80.772 59 79 C67.065 79.414 72.97 84.624 78.25 90.312 C86.671 100.371 92.016 113.093 91.371 126.414 C90.025 135.791 85.447 142.259 78 148 C72.653 151.131 68.224 153.129 62 153 C61.966 152.417 61.931 151.835 61.896 151.234 C60.738 132.973 58.832 114.26 45 100.812 C33.366 91.134 18.313 86.272 3.52 84.395 C1 84 1 84 0 83 C-0.451 79.325 -0.819 75.651 -1.162 71.965 C-1.653 67.104 -2.272 62.589 -4 58 C-4.99 57.67 -5.98 57.34 -7 57 C-6.928 57.799 -6.856 58.598 -6.781 59.422 C-6.143 66.973 -5.902 74.425 -6 82 C-6.917 81.929 -7.835 81.859 -8.78 81.786 C-20.025 80.994 -31.214 80.853 -42.484 80.867 C-44.435 80.867 -46.385 80.866 -48.335 80.864 C-52.406 80.863 -56.477 80.865 -60.548 80.87 C-65.678 80.875 -70.808 80.872 -75.937 80.866 C-102.619 80.833 -102.619 80.833 -129.293 81.422 C-130.371 81.457 -131.449 81.493 -132.559 81.53 C-144.335 82.006 -155.604 84.04 -166.898 87.449 C-169 88 -169 88 -172 88 C-172.758 65.872 -172.758 65.872 -167 56.875 C-164.227 54.275 -162.747 53.02 -158.875 52.918 C-150.551 53.497 -142.393 54.418 -134.176 55.895 C-119.864 58.389 -105.353 58.203 -90.875 58.188 C-89.356 58.187 -89.356 58.187 -87.806 58.186 C-75.459 58.166 -63.137 58.051 -50.812 57.25 C-49.748 57.188 -48.684 57.127 -47.587 57.063 C-40.718 56.526 -34.167 55.196 -28 52 C-24.679 47.16 -24.061 41.744 -25 36 C-27.734 30.759 -31.635 29.699 -37 28 C-36.125 26.833 -35.25 25.667 -34.375 24.5 C-33.831 23.773 -33.287 23.046 -32.727 22.297 C-31.603 20.802 -30.473 19.312 -29.336 17.828 C-28.813 17.142 -28.289 16.457 -27.75 15.75 C-27.27 15.126 -26.791 14.502 -26.297 13.859 C-24.983 11.976 -23.974 10.076 -23 8 C-22.505 8.165 -22.01 8.33 -21.5 8.5 C-15.757 9.649 -11.73 9.778 -6.688 6.75 C-3.857 4.806 -1.917 2.875 0 0 Z " fill="#FAFAFA" transform="translate(776,841)"/>
<path d="M0 0 C0.66 0 1.32 0 2 0 C3.685 16.416 4.868 32.846 5.938 49.312 C6.068 51.297 6.199 53.282 6.33 55.266 C7.321 70.282 8.275 85.3 9.197 100.32 C9.612 107.077 10.037 113.834 10.468 120.59 C10.77 125.345 11.068 130.1 11.354 134.855 C11.641 139.581 11.945 144.305 12.263 149.029 C12.378 150.779 12.486 152.53 12.588 154.281 C12.728 156.672 12.89 159.06 13.059 161.449 C13.094 162.146 13.129 162.842 13.166 163.56 C13.525 168.186 14.666 170.768 18 174 C21.139 174.886 21.139 174.886 24 175 C24.121 176.293 24.242 177.586 24.367 178.918 C25.3 188.669 26.343 198.341 28 208 C27.396 207.979 26.793 207.958 26.171 207.937 C7.615 207.05 7.615 207.05 -9.062 214.188 C-17.938 227.071 -16.672 248.796 -14.65 263.555 C-12.313 274.937 -5.718 282.901 3.625 289.438 C7.338 291.821 10.809 293.204 15 295 C15 302.26 15 309.52 15 317 C-4.14 317 -23.28 317 -43 317 C-42.812 294.313 -42.812 294.313 -42.73 287.173 C-42.721 285.299 -42.713 283.425 -42.707 281.551 C-42.692 280.583 -42.676 279.615 -42.661 278.619 C-42.659 273.499 -42.808 270.234 -46 266 C-46 265.34 -46 264.68 -46 264 C-53.005 261.187 -59.473 260.433 -67 260 C-67 255.71 -67 251.42 -67 247 C-60.386 245.843 -53.794 244.836 -47.125 244.062 C-37.541 242.925 -28.133 241.181 -19 238 C-16.568 228.883 -16.592 219.675 -16.438 210.312 C-16.378 207.204 -16.314 204.096 -16.246 200.988 C-16.23 200.236 -16.214 199.483 -16.198 198.708 C-16.025 191.454 -15.558 184.234 -15 177 C-12.982 176.382 -10.964 175.763 -8.945 175.145 C-6.189 173.523 -5.943 172.041 -5 169 C-4.789 166.447 -4.675 163.995 -4.656 161.441 C-4.635 160.311 -4.635 160.311 -4.614 159.157 C-4.584 157.505 -4.559 155.852 -4.536 154.2 C-4.472 149.549 -4.374 144.9 -4.277 140.25 C-4.257 139.255 -4.237 138.261 -4.217 137.236 C-3.998 126.929 -3.6 116.631 -3.192 106.329 C-2.233 82.099 -1.516 57.866 -0.875 33.625 C-0.853 32.784 -0.83 31.942 -0.808 31.075 C-0.534 20.717 -0.265 10.359 0 0 Z " fill="#FBFAFA" transform="translate(526,707)"/>
<path d="M0 0 C5.097 4.3 7.668 9.467 9.949 15.645 C9.949 16.305 9.949 16.965 9.949 17.645 C10.483 17.356 11.017 17.067 11.566 16.77 C17.389 13.868 22.449 12.539 28.949 13.645 C34.082 16.258 37.129 19.184 38.949 24.645 C40.11 34.726 37.787 41.847 32.949 50.645 C29.533 50.819 26.118 50.925 22.699 51.02 C21.731 51.07 20.763 51.12 19.766 51.172 C17.039 51.228 14.618 51.215 11.949 50.645 C9.59 47.746 9.59 47.746 7.949 44.645 C4.493 42.858 1.606 42.389 -2.254 42.379 C-3.235 42.376 -4.216 42.374 -5.227 42.371 C-6.241 42.379 -7.256 42.387 -8.301 42.395 C-9.799 42.383 -9.799 42.383 -11.328 42.371 C-16.801 42.385 -21.734 42.848 -27.041 44.177 C-33.277 45.627 -39.833 45.854 -45.488 42.77 C-48.488 39.626 -50.569 35.733 -52.656 31.949 C-55.123 27.872 -56.303 26.831 -61.051 25.645 C-59.071 28.285 -57.091 30.925 -55.051 33.645 C-55.546 34.635 -55.546 34.635 -56.051 35.645 C-56.553 35.375 -57.056 35.106 -57.573 34.829 C-64.185 31.563 -70.45 30.66 -77.738 29.957 C-79.93 29.725 -82.121 29.492 -84.312 29.258 C-85.75 29.115 -85.75 29.115 -87.218 28.97 C-90.184 28.629 -93.11 28.159 -96.051 27.645 C-91.786 31.027 -88.741 31.722 -83.3 31.884 C-71.574 32.267 -62.668 34.219 -54.051 42.645 C-56.066 46.676 -62.636 47.913 -66.766 49.359 C-74.315 51.777 -80.997 51.897 -88.301 48.645 C-96.364 44.055 -102.53 37.367 -105.801 28.645 C-105.883 27.985 -105.966 27.325 -106.051 26.645 C-106.195 25.551 -106.34 24.458 -106.488 23.332 C-105.871 18.131 -104.036 15.944 -100.051 12.645 C-89.797 5.551 -76.794 -0.985 -64.051 -0.355 C-64.051 -1.345 -64.051 -2.335 -64.051 -3.355 C-66.447 -3.045 -68.843 -2.732 -71.238 -2.418 C-71.912 -2.331 -72.585 -2.244 -73.279 -2.154 C-76.902 -1.677 -80.479 -1.125 -84.051 -0.355 C-64.299 -21.99 -21.212 -16.093 0 0 Z " fill="#E3E4E3" transform="translate(557.05078125,270.35546875)"/>
<path d="M0 0 C11.362 -0.023 22.725 -0.041 34.087 -0.052 C39.364 -0.057 44.642 -0.064 49.919 -0.075 C55.022 -0.086 60.125 -0.092 65.228 -0.095 C67.164 -0.097 69.101 -0.1 71.037 -0.106 C102.348 -0.19 102.348 -0.19 110 4 C110.448 46.809 110.448 46.809 108 64 C107.814 65.312 107.814 65.312 107.624 66.651 C106.782 71.672 106.075 75.597 102 79 C99.337 79.711 97.2 80.101 94.5 80.312 C93.797 80.384 93.095 80.455 92.371 80.529 C86.251 81.102 80.143 81.209 74 81 C73.781 80.189 73.562 79.378 73.336 78.543 C68.087 60.216 58.388 46.682 41.961 36.77 C39.588 35.838 37.966 36.067 35.438 36.25 C31.429 35.921 30.179 35.18 27.289 32.281 C24.87 29.264 22.641 26.112 20.413 22.952 C18.149 19.825 15.683 16.881 13.188 13.938 C12.756 13.414 12.324 12.891 11.879 12.353 C8.495 8.333 4.751 4.375 0 2 C0 1.34 0 0.68 0 0 Z " fill="#FBFBFB" transform="translate(372,837)"/>
<path d="M0 0 C0.495 1.485 0.495 1.485 1 3 C2.221 2.942 3.441 2.884 4.699 2.824 C15.367 2.473 23.323 3.141 33 8 C34.607 8.559 34.607 8.559 36.246 9.129 C39.305 11.207 39.461 11.561 40.172 14.977 C40.392 16.522 40.583 18.072 40.75 19.625 C41.104 22.437 41.517 25.204 42 28 C42.66 28.33 43.32 28.66 44 29 C44 24.38 44 19.76 44 15 C49 16 49 16 51 18 C51.195 20.383 51.195 20.383 51.125 23.125 C51.107 24.035 51.089 24.945 51.07 25.883 C51.047 26.581 51.024 27.28 51 28 C50.385 28.291 49.77 28.583 49.137 28.883 C43.976 31.5 40.915 33.255 39 39 C38.301 41.736 38.301 41.736 38 44 C37.199 43.895 37.199 43.895 36.382 43.787 C28.196 42.831 20.022 42.836 11.793 42.832 C10.221 42.829 8.649 42.825 7.077 42.822 C3.788 42.816 0.499 42.814 -2.79 42.815 C-6.119 42.815 -9.447 42.808 -12.776 42.794 C-45.074 42.529 -45.074 42.529 -77 47 C-77.875 47.188 -78.751 47.376 -79.652 47.57 C-81.771 48.034 -83.886 48.515 -86 49 C-87.33 46.34 -87.412 43.965 -87.719 41.004 C-87.91 39.207 -87.91 39.207 -88.105 37.373 C-88.236 36.116 -88.366 34.858 -88.5 33.562 C-88.757 31.084 -89.018 28.606 -89.281 26.129 C-89.395 25.026 -89.509 23.923 -89.627 22.787 C-89.922 19.922 -89.922 19.922 -91 17 C-91.04 14.667 -91.044 12.333 -91 10 C-89.866 9.734 -88.731 9.469 -87.562 9.195 C-86.042 8.839 -84.521 8.482 -83 8.125 C-82.256 7.951 -81.512 7.777 -80.746 7.598 C-77.175 6.759 -73.61 5.906 -70.055 5 C-46.745 -0.807 -23.864 -0.436 0 0 Z " fill="#FCFCFC" transform="translate(973,768)"/>
<path d="M0 0 C21.444 -0.07 42.888 -0.123 64.333 -0.155 C74.289 -0.171 84.246 -0.192 94.203 -0.226 C102.879 -0.256 111.556 -0.276 120.233 -0.282 C124.829 -0.286 129.424 -0.295 134.02 -0.317 C138.344 -0.338 142.667 -0.344 146.991 -0.339 C148.58 -0.34 150.168 -0.346 151.756 -0.358 C153.923 -0.373 156.088 -0.369 158.255 -0.361 C160.075 -0.365 160.075 -0.365 161.931 -0.369 C165.263 0.032 166.66 0.631 169 3 C169.47 5.41 169.47 5.41 169.426 8.277 C169.417 9.35 169.409 10.424 169.4 11.529 C169.371 12.654 169.342 13.779 169.312 14.938 C169.303 15.996 169.293 17.055 169.283 18.146 C169.144 28.441 168.55 38.721 168 49 C160.203 49.256 152.406 49.451 144.606 49.57 C140.983 49.627 137.363 49.705 133.741 49.83 C130.239 49.95 126.741 50.015 123.237 50.044 C121.264 50.074 119.292 50.159 117.32 50.246 C111.941 50.25 108.433 50.243 104.265 46.627 C101.991 43.844 100.008 40.977 98 38 C82.49 21.319 56.141 15.785 34.207 14.645 C30.447 14.626 26.751 14.748 23 15 C21.568 15.081 20.135 15.162 18.703 15.242 C15.132 15.454 11.566 15.713 8 16 C7.914 15.408 7.827 14.817 7.738 14.207 C6.742 8.602 5.482 5.793 1 2 C0.67 1.34 0.34 0.68 0 0 Z " fill="#FDFDFD" transform="translate(307,975)"/>
<path d="M0 0 C0 34.32 0 68.64 0 104 C-16.5 104 -33 104 -50 104 C-50.161 59.827 -50.161 59.827 -49 45 C-48.912 43.846 -48.825 42.693 -48.734 41.504 C-47.519 31.347 -42.697 20.326 -34.938 13.449 C-24.943 5.973 -12.769 0 0 0 Z " fill="#FAFAFA" transform="translate(1024,920)"/>
<path d="M0 0 C2.748 11.927 4.019 23.813 5 36 C4.287 36.401 3.574 36.802 2.84 37.215 C-5.495 42.162 -11.741 47.37 -14.812 56.812 C-15.239 58.534 -15.635 60.264 -16 62 C-16.192 62.822 -16.384 63.645 -16.582 64.492 C-18.014 71.6 -18.274 78.696 -18.555 85.926 C-18.62 87.525 -18.62 87.525 -18.687 89.157 C-18.794 91.771 -18.898 94.386 -19 97 C-25.85 97.076 -32.7 97.129 -39.551 97.165 C-41.879 97.18 -44.208 97.2 -46.537 97.226 C-49.891 97.263 -53.244 97.28 -56.598 97.293 C-57.633 97.308 -58.669 97.324 -59.736 97.34 C-67.063 97.342 -71.975 96.522 -77.75 91.707 C-83.518 84.767 -86.131 75.013 -88.875 66.5 C-89.198 65.513 -89.198 65.513 -89.527 64.507 C-90.744 60.562 -91.216 57.12 -91 53 C-86.856 51.012 -83.521 50.766 -78.949 50.805 C-78.29 50.808 -77.632 50.81 -76.953 50.813 C-74.864 50.824 -72.776 50.849 -70.688 50.875 C-69.265 50.885 -67.842 50.894 -66.42 50.902 C-62.946 50.924 -59.473 50.959 -56 51 C-57.859 55.773 -57.859 55.773 -59.125 57.812 C-60.506 61.265 -60.741 64.4 -60 68 C-58.38 71.027 -56.303 73.468 -54 76 C-53.459 76.61 -52.917 77.219 -52.359 77.848 C-44.983 85.69 -35.823 91.68 -25 93 C-28.159 89.529 -31.704 87.213 -35.688 84.812 C-43.386 80.019 -50.963 74.363 -55 66 C-54.545 62.624 -53.054 60.228 -51.227 57.395 C-50.368 56.055 -50.368 56.055 -49.493 54.688 C-48.568 53.265 -48.568 53.265 -47.625 51.812 C-46.994 50.834 -46.364 49.855 -45.714 48.847 C-44.426 46.848 -43.136 44.851 -41.844 42.856 C-40.185 40.286 -38.541 37.707 -36.906 35.121 C-31.994 27.38 -26.944 20.003 -21 13 C-20.514 12.37 -20.028 11.739 -19.527 11.09 C-14.839 5.147 -8.027 -2.518 0 0 Z " fill="#FCFBFC" transform="translate(877,784)"/>
<path d="M0 0 C0.66 0 1.32 0 2 0 C2.217 0.637 2.433 1.274 2.656 1.93 C3.841 4.24 3.841 4.24 6.469 4.758 C7.469 4.879 8.469 5 9.5 5.125 C13.324 5.638 17.053 6.197 20.812 7.062 C34.463 9.783 48.756 9.157 62.603 9.13 C65.9 9.125 69.197 9.13 72.494 9.137 C83.42 9.141 94.335 9.007 105.254 8.617 C106.248 8.587 107.241 8.556 108.265 8.525 C113.224 8.322 117.327 7.82 122 6 C124.633 5.569 127.23 5.188 129.875 4.875 C130.908 4.745 130.908 4.745 131.961 4.613 C133.64 4.403 135.32 4.201 137 4 C137.33 2.68 137.66 1.36 138 0 C141.812 -0.059 145.625 -0.094 149.438 -0.125 C150.507 -0.142 151.576 -0.159 152.678 -0.176 C160.119 -0.221 167.222 -0.053 173.875 3.562 C176.895 7.026 177.847 10.61 179 15 C179.206 15.733 179.413 16.467 179.625 17.223 C180.54 20.622 181 23.456 181 27 C114.01 27 47.02 27 -22 27 C-22 10.453 -22 10.453 -17.871 4.324 C-14.985 2.282 -11.803 2.204 -8.375 1.875 C-3.815 1.777 -3.815 1.777 0 0 Z " fill="#FCFCFC" transform="translate(179,997)"/>
<path d="M0 0 C-0.298 0.66 -0.596 1.32 -0.902 2 C-2.223 5.609 -2.915 9.227 -3.562 13 C-3.701 13.747 -3.839 14.494 -3.981 15.263 C-4.811 19.985 -5.015 24.38 -4.938 29.188 C-5.117 32.332 -5.117 32.332 -6 35 C-8.818 37.175 -11.562 38.375 -14.859 39.703 C-24.074 43.508 -28.794 51.308 -33 60 C-37.751 71.536 -38.223 84.692 -39 97 C-53.828 97.331 -64.263 97.311 -76 87 C-83.686 78.328 -84.618 66.426 -84.412 55.344 C-84.375 53.304 -84.371 51.265 -84.371 49.225 C-84.31 42.241 -84.192 35.666 -82 29 C-79.842 26.887 -78.534 26.073 -75.526 25.659 C-74.626 25.675 -73.725 25.691 -72.797 25.707 C-71.327 25.722 -71.327 25.722 -69.828 25.736 C-68.304 25.774 -68.304 25.774 -66.75 25.812 C-65.203 25.833 -65.203 25.833 -63.625 25.854 C-61.083 25.889 -58.542 25.938 -56 26 C-59.191 29.798 -62.376 33.478 -66 36.875 C-72.981 43.829 -76.806 50.137 -78 60 C-74.496 58.832 -73.981 57.93 -71.875 55 C-68.01 49.858 -63.612 45.466 -59 41 C-56.026 38.046 -53.081 35.065 -50.145 32.074 C-13.968 -4.656 -13.968 -4.656 0 0 Z " fill="#FBFBFB" transform="translate(603,898)"/>
<path d="M0 0 C7.351 0.368 7.351 0.368 10.5 3.438 C12 6 12 6 12 8 C13.323 8.686 14.659 9.348 16 10 C16.701 10.371 17.403 10.742 18.125 11.125 C23.643 12.805 29.491 12.985 34.75 10.438 C38.519 8.77 40.092 8.895 44 10 C44.763 10.351 45.526 10.701 46.312 11.062 C54.819 14.03 62.848 10.811 71 8 C71.99 7.67 72.98 7.34 74 7 C76.336 11.672 75.294 18.02 75.312 23.188 C75.315 23.871 75.318 24.554 75.32 25.258 C75.326 37.829 74.995 49.656 67 60 C64.781 61.426 64.781 61.426 62.5 62.312 C61.747 62.618 60.994 62.924 60.219 63.238 C54.427 65.227 49.024 65.219 42.938 65.25 C41.951 65.271 40.964 65.291 39.947 65.312 C30.65 65.361 21.336 64.488 14.368 57.74 C11.968 54.687 10.918 51.453 9.875 47.75 C9.517 46.581 9.517 46.581 9.151 45.389 C8.408 42.933 7.701 40.468 7 38 C6.529 36.391 6.057 34.781 5.586 33.172 C2.382 22.077 -0.446 11.642 0 0 Z " fill="#E4E4E3" transform="translate(894,663)"/>
<path d="M0 0 C-0.793 0.621 -1.586 1.242 -2.403 1.882 C-6.905 5.554 -9.975 10.185 -10.812 16 C-10.874 16.99 -10.936 17.98 -11 19 C-11.575 18.677 -12.15 18.354 -12.742 18.021 C-20.304 14.602 -32.782 16.185 -40.438 18.625 C-42.31 19.373 -44.165 20.166 -46 21 C-46.993 21.424 -47.985 21.848 -49.008 22.285 C-59.791 27.236 -69.257 35.015 -77 44 C-77.307 44.855 -77.613 45.709 -77.929 46.59 C-80 49 -80 49 -82.125 49.439 C-85.026 49.581 -87.889 49.561 -90.793 49.488 C-92.385 49.478 -92.385 49.478 -94.009 49.467 C-97.402 49.439 -100.794 49.376 -104.188 49.312 C-106.486 49.287 -108.785 49.265 -111.084 49.244 C-116.723 49.189 -122.361 49.105 -128 49 C-126.365 44.706 -124.213 41.089 -121.625 37.312 C-120.726 35.986 -119.828 34.659 -118.93 33.332 C-118.455 32.633 -117.98 31.934 -117.491 31.213 C-115.938 28.907 -114.408 26.587 -112.883 24.262 C-112.361 23.469 -111.84 22.677 -111.302 21.86 C-110.294 20.327 -109.289 18.792 -108.288 17.255 C-99.961 4.654 -99.961 4.654 -94.438 2.812 C-91 3 -91 3 -88.707 4.98 C-83.685 8.727 -77.003 7.691 -71 7 C-68.32 6.452 -65.706 5.869 -63.062 5.188 C-42.223 -0.161 -21.359 -0.429 0 0 Z " fill="#FCFCFC" transform="translate(192,975)"/>
<path d="M0 0 C11.985 1.902 22.85 6.027 30.312 16.062 C37.571 28.33 36.364 42.585 36.188 56.312 C36.126 63.139 36.064 69.966 36 77 C9.6 77 -16.8 77 -44 77 C-39 72 -39 72 -36.625 69.688 C-33.268 66.25 -30.134 62.64 -27 59 C-26.46 59.159 -25.92 59.317 -25.363 59.48 C-19.56 60.756 -12.516 61.259 -7.125 58.438 C0.715 52.322 5.071 44.811 7 35 C7.643 25.762 7.277 17.767 1.938 10 C0.156 7.94 0.156 7.94 -2 7 C-1.34 4.69 -0.68 2.38 0 0 Z " fill="#EFEFEE" transform="translate(338,891)"/>
<path d="M0 0 C0 3.96 0 7.92 0 12 C-70.95 12 -141.9 12 -215 12 C-214.254 8.269 -213.468 5.426 -212 2 C-210.232 1.985 -210.232 1.985 -208.429 1.969 C-193.307 1.836 -178.185 1.7 -163.062 1.562 C-161.849 1.551 -160.636 1.54 -159.386 1.529 C-121.075 1.182 -121.075 1.182 -82.766 0.711 C-81.933 0.699 -81.101 0.688 -80.243 0.676 C-72.633 0.569 -65.023 0.457 -57.413 0.337 C-38.273 0.037 -19.142 -0.05 0 0 Z " fill="#E5E7E7" transform="translate(879,638)"/>
<path d="M0 0 C1.03 0.199 2.06 0.397 3.121 0.602 C10.516 2.129 15.418 3.538 20.875 8.812 C22.483 11.938 22.261 14.546 22 18 C12.286 27.714 -30.368 22.101 -43.812 22.125 C-45.131 22.129 -45.131 22.129 -46.477 22.133 C-48.991 22.139 -51.505 22.137 -54.02 22.133 C-54.781 22.135 -55.542 22.137 -56.327 22.139 C-59.487 22.125 -61.979 22.007 -65 21 C-66.655 20.863 -68.313 20.776 -69.973 20.719 C-70.956 20.681 -71.938 20.644 -72.951 20.605 C-74.491 20.553 -74.491 20.553 -76.062 20.5 C-83.413 20.244 -90.69 19.832 -98 19 C-98.417 14.158 -98.586 11.952 -96 7.75 C-91.761 3.392 -86.807 0.8 -80.688 0.625 C-76.313 0.828 -72.088 1.653 -67.797 2.488 C-49.513 5.834 -27.859 5.245 -10.016 -0.113 C-6.171 -1.244 -3.934 -0.825 0 0 Z " fill="#F9F9F9" transform="translate(286,976)"/>
<path d="M0 0 C13.412 -0.403 25.032 0.663 38 4 C38.976 4.238 39.952 4.477 40.957 4.723 C49.856 7.123 59.07 10.842 66 17 C67.382 19.765 67.095 22.046 67.062 25.125 C67.053 26.221 67.044 27.316 67.035 28.445 C67.024 29.288 67.012 30.131 67 31 C65.105 31.084 63.209 31.14 61.312 31.188 C59.729 31.24 59.729 31.24 58.113 31.293 C54.689 31.207 51.677 30.42 48.375 29.531 C38.929 27.238 29.36 27.429 19.688 27.312 C17.771 27.279 15.855 27.245 13.939 27.209 C9.293 27.123 4.647 27.062 0 27 C0 18.09 0 9.18 0 0 Z " fill="#FBFBFB" transform="translate(0,817)"/>
<path d="M0 0 C45.54 0 91.08 0 138 0 C137.01 2.64 136.02 5.28 135 8 C132.852 8.163 130.703 8.326 128.555 8.488 C125.895 8.872 125.895 8.872 123.497 10.504 C118.755 12.533 114.606 12.451 109.5 12.452 C108.455 12.463 107.411 12.475 106.334 12.487 C102.89 12.521 99.445 12.531 96 12.539 C93.602 12.551 91.203 12.564 88.805 12.577 C83.781 12.599 78.758 12.609 73.734 12.611 C67.298 12.616 60.862 12.668 54.426 12.73 C49.475 12.771 44.523 12.78 39.571 12.781 C37.198 12.786 34.825 12.803 32.452 12.832 C29.134 12.868 25.818 12.861 22.5 12.842 C21.032 12.873 21.032 12.873 19.534 12.904 C12.977 12.804 12.977 12.804 10.138 10.469 C8.555 8.596 8.555 8.596 7.273 6.734 C5.309 4.059 2.797 2.731 0 1 C0 0.67 0 0.34 0 0 Z " fill="#E5E7E6" transform="translate(76,638)"/>
<path d="M0 0 C0.737 0.267 1.475 0.534 2.234 0.809 C2.9 1.057 3.565 1.306 4.25 1.562 C9.25 3.229 14.452 2.747 19.688 2.75 C21.376 2.768 21.376 2.768 23.1 2.787 C32.514 2.803 41.485 2.174 50.25 -1.438 C57.259 -2.345 63.716 -0.985 70.25 1.562 C71.25 2.562 71.25 2.562 71.348 4.629 C71.336 5.453 71.324 6.276 71.312 7.125 C71.303 7.951 71.294 8.778 71.285 9.629 C71.274 10.267 71.262 10.905 71.25 11.562 C62.287 14.924 52.961 14.834 43.5 15.125 C42.839 15.146 42.177 15.167 41.496 15.188 C30.102 15.539 18.711 15.669 7.312 15.688 C6.574 15.69 5.835 15.693 5.075 15.695 C-22.387 15.772 -22.387 15.772 -29.75 13.562 C-29.804 11.938 -29.843 10.313 -29.875 8.688 C-29.898 7.783 -29.921 6.878 -29.945 5.945 C-29.75 3.562 -29.75 3.562 -27.75 1.562 C-25.178 0.927 -22.666 0.398 -20.062 -0.062 C-19.367 -0.197 -18.672 -0.331 -17.955 -0.469 C-11.794 -1.596 -5.995 -2.222 0 0 Z " fill="#F7F7F7" transform="translate(672.75,876.4375)"/>
<path d="M0 0 C3 1 3 1 4.188 3.062 C4.456 3.702 4.724 4.341 5 5 C5.676 5.008 6.351 5.016 7.048 5.025 C14.088 5.111 21.129 5.21 28.169 5.317 C30.796 5.356 33.422 5.39 36.049 5.422 C39.827 5.468 43.605 5.526 47.383 5.586 C48.555 5.597 49.727 5.609 50.935 5.621 C61.012 5.803 61.012 5.803 66 8 C66.027 9.437 66.046 10.875 66.062 12.312 C66.074 13.113 66.086 13.914 66.098 14.738 C66 17 66 17 65 20 C64.975 22.042 64.954 24.083 64.938 26.125 C64.447 33.695 61.321 36.973 56 42 C55.34 42.99 54.68 43.98 54 45 C50.063 43.688 48.701 41.173 46.375 37.938 C39.643 28.925 32.08 20.433 20.4 18.59 C17.741 18.39 15.103 18.293 12.438 18.25 C11.524 18.22 10.611 18.191 9.67 18.16 C7.447 18.09 5.224 18.037 3 18 C2.927 16.679 2.927 16.679 2.852 15.332 C2.777 14.171 2.702 13.009 2.625 11.812 C2.555 10.664 2.486 9.515 2.414 8.332 C2.025 5.2 1.319 2.847 0 0 Z " fill="#F7F7F7" transform="translate(72,830)"/>
<path d="M0 0 C5.197 1.491 9.5 3.847 14.125 6.562 C15.521 7.381 16.919 8.195 18.32 9.004 C18.931 9.363 19.543 9.722 20.172 10.092 C22.095 11.047 23.905 11.556 26 12 C26.147 13.251 26.147 13.251 26.297 14.527 C27.825 26.027 30.704 33.027 38.391 41.738 C40 44 40 44 40 48 C38.25 47.875 38.25 47.875 36 47 C34 44.25 34 44.25 32 41 C30.055 38.171 30.055 38.171 28 36 C27.01 36 26.02 36 25 36 C25.655 39.075 26.732 41.627 28.125 44.438 C29.505 47.445 30.024 48.701 29.75 52.062 C29.503 52.702 29.255 53.341 29 54 C26.14 51.484 24.585 48.661 22.812 45.312 C22.283 44.319 21.753 43.325 21.207 42.301 C20.809 41.542 20.41 40.782 20 40 C19.34 40 18.68 40 18 40 C18.401 43.931 18.975 46.946 20.625 50.562 C22.133 54.333 22.036 56.139 21 60 C18.303 57.631 17.064 55.313 15.66 52.027 C15.237 51.044 14.813 50.062 14.377 49.049 C13.943 48.022 13.509 46.995 13.062 45.938 C12.633 44.938 12.203 43.938 11.76 42.908 C9.374 37.337 7.094 31.745 4.99 26.061 C3.926 23.846 2.923 22.523 1 21 C-3.129 21.159 -5.081 22.65 -7.938 25.5 C-11.205 28.532 -13.394 29.885 -18 30 C-17.348 26.591 -16.025 24.129 -14.199 21.191 C-13.634 20.279 -13.069 19.367 -12.486 18.428 C-11.893 17.482 -11.299 16.537 -10.688 15.562 C-10.105 14.621 -9.523 13.679 -8.924 12.709 C-6.16 8.273 -3.417 3.973 0 0 Z " fill="#F8F8F8" transform="translate(605,665)"/>
<path d="M0 0 C0.33 0 0.66 0 1 0 C1 3.96 1 7.92 1 12 C0.505 11.01 0.505 11.01 0 10 C-0.99 10.66 -1.98 11.32 -3 12 C-6.185 12.452 -9.345 12.785 -12.551 13.035 C-15.733 13.368 -17.585 13.588 -19.898 15.883 C-23.468 22.744 -23.345 29.136 -24 37 C-38.85 37 -53.7 37 -69 37 C-67.081 32.203 -65.081 29.609 -61.5 26.125 C-60.962 25.598 -60.425 25.07 -59.871 24.527 C-51.91 16.87 -43.09 11.469 -33 7 C-32.236 6.657 -31.471 6.314 -30.684 5.961 C-24.899 3.808 -19.165 3.727 -13.062 3.688 C-12.221 3.682 -11.379 3.676 -10.511 3.67 C-4.385 3.744 -4.385 3.744 -1 6 C-0.67 4.02 -0.34 2.04 0 0 Z " fill="#313031" transform="translate(181,987)"/>
<path d="M0 0 C0.897 0.489 1.794 0.977 2.719 1.48 C5.721 2.871 7.28 3.388 10.5 3.312 C11.212 3.309 11.923 3.305 12.656 3.301 C15.599 2.923 18.216 2.004 21 1 C21.401 1.69 21.802 2.379 22.215 3.09 C26.4 10.007 31.051 15.537 37 21 C34.685 23.315 33.828 23.332 30.688 23.812 C26.101 24.787 23.723 26 21 30 C20.546 32.274 20.546 32.274 20.375 34.684 C20.3 35.492 20.225 36.301 20.148 37.135 C20.099 37.75 20.05 38.366 20 39 C19.415 38.995 18.83 38.99 18.228 38.984 C15.568 38.963 12.909 38.95 10.25 38.938 C8.869 38.925 8.869 38.925 7.461 38.912 C6.571 38.909 5.682 38.906 4.766 38.902 C3.54 38.894 3.54 38.894 2.29 38.886 C-0.01 38.912 -0.01 38.912 -2.173 39.631 C-2.776 39.753 -3.379 39.875 -4 40 C-4.66 39.34 -5.32 38.68 -6 38 C-11.901 37.398 -16.576 38.934 -22 41 C-22 38.69 -22 36.38 -22 34 C-21.227 33.841 -20.453 33.683 -19.656 33.52 C-11.964 31.796 -5.65 29.65 0 24 C0.278 21.476 0.278 21.476 0.195 18.555 C0.189 17.478 0.182 16.402 0.176 15.293 C0.159 14.165 0.142 13.037 0.125 11.875 C0.116 10.739 0.107 9.604 0.098 8.434 C0.074 5.622 0.041 2.811 0 0 Z " fill="#FAFAFA" transform="translate(616,848)"/>
<path d="M0 0 C0.348 0.771 0.696 1.542 1.055 2.336 C4.09 8.409 8.249 13.891 12.082 19.477 C12.697 20.384 13.312 21.292 13.945 22.227 C14.508 23.047 15.07 23.868 15.649 24.713 C16.918 26.86 17.557 28.563 18 31 C15.812 31.312 15.812 31.312 13 31 C10.5 28.75 10.5 28.75 8 26 C4.707 22.765 4.707 22.765 0.375 21.875 C-3.081 23.512 -3.501 25.498 -5 29 C-5.987 32.178 -6.787 35.39 -7.562 38.625 C-7.779 39.506 -7.995 40.388 -8.218 41.296 C-9.79 47.825 -11.093 54.342 -12 61 C-12.99 61 -13.98 61 -15 61 C-15.115 53.59 -14.912 46.358 -14 39 C-15.32 39 -16.64 39 -18 39 C-18.266 39.695 -18.531 40.39 -18.805 41.105 C-20.106 44.257 -21.587 47.27 -23.125 50.312 C-23.933 51.915 -23.933 51.915 -24.758 53.551 C-25.373 54.763 -25.373 54.763 -26 56 C-26.99 55.67 -27.98 55.34 -29 55 C-29.524 48.934 -27.204 44.757 -24.488 39.566 C-21.332 33.266 -21.49 28.983 -23.5 22.375 C-24.541 18.933 -25 16.66 -25 13 C-24.01 12.481 -23.02 11.961 -22 11.426 C-13.456 6.955 -13.456 6.955 -5.188 2 C-2 0 -2 0 0 0 Z " fill="#F7F7F7" transform="translate(451,663)"/>
<path d="M0 0 C5.28 0 10.56 0 16 0 C16.137 14.022 15.603 27.992 15 42 C0.491 46.023 -13.866 48.588 -29 48 C-29 46.68 -29 45.36 -29 44 C-27.831 43.613 -26.662 43.227 -25.457 42.828 C-23.909 42.303 -22.361 41.777 -20.812 41.25 C-20.044 40.997 -19.275 40.745 -18.482 40.484 C-13.276 38.697 -9 36.822 -5.707 32.176 C-0.697 21.74 -0.539 11.412 0 0 Z " fill="#F7F7F7" transform="translate(488,886)"/>
<path d="M0 0 C0.547 0.325 1.093 0.65 1.656 0.984 C4.433 2.188 6.483 2.267 9.5 2.25 C10.908 2.258 10.908 2.258 12.344 2.266 C15.04 1.996 16.689 1.373 19 0 C19.783 10.218 17.12 18.084 10.691 26.059 C5.318 32.227 -0.091 38.209 -8 41 C-11.135 41 -13.05 40.757 -16 40 C-17.119 39.751 -18.238 39.502 -19.391 39.246 C-22.602 38.527 -25.802 37.775 -29 37 C-28.67 36.34 -28.34 35.68 -28 35 C-26.476 34.521 -24.929 34.116 -23.375 33.75 C-14.741 31.253 -10.607 26.207 -6.285 18.52 C-3.363 12.791 -1.786 7.418 -1 1 C-0.67 0.67 -0.34 0.34 0 0 Z " fill="#F8F8F8" transform="translate(62,776)"/>
<path d="M0 0 C3.323 1.776 4.71 4.711 6.047 8.094 C7.995 20.82 4.561 32.956 1.047 45.094 C-1.953 45.094 -1.953 45.094 -3.439 43.657 C-3.949 42.999 -4.459 42.342 -4.984 41.664 C-5.548 40.951 -6.111 40.238 -6.691 39.504 C-7.273 38.75 -7.854 37.996 -8.453 37.219 C-9.606 35.739 -10.762 34.263 -11.922 32.789 C-12.432 32.129 -12.942 31.469 -13.467 30.79 C-16.409 27.433 -18.869 26.802 -23.141 26.469 C-24.042 26.394 -24.943 26.319 -25.871 26.242 C-26.558 26.193 -27.245 26.144 -27.953 26.094 C-24.717 18.548 -17.006 12.96 -10.867 7.738 C-9.565 6.62 -8.289 5.469 -7.039 4.293 C-6.433 3.732 -5.827 3.171 -5.203 2.594 C-4.672 2.088 -4.141 1.583 -3.594 1.062 C-1.953 0.094 -1.953 0.094 0 0 Z " fill="#F8F8F8" transform="translate(557.953125,459.90625)"/>
<path d="M0 0 C6.106 2.329 9.731 8.485 13.573 13.542 C15.12 15.397 16.908 16.696 18.867 18.094 C18.867 18.754 18.867 19.414 18.867 20.094 C17.753 20.568 16.64 21.043 15.492 21.531 C6.22 26.176 -0.964 34.769 -8.133 42.094 C-13.246 36.98 -11.377 24.154 -11.445 17.219 C-11.474 16.213 -11.503 15.208 -11.533 14.172 C-11.571 9.74 -11.58 6.897 -9.395 2.973 C-6.14 0.269 -4.174 -0.149 0 0 Z " fill="#FBFBFB" transform="translate(507.1328125,461.90625)"/>
<path d="M0 0 C3.527 1.924 6.357 5.073 7.674 8.903 C8.195 11.884 8.399 14.839 8.598 17.859 C8.685 19.155 8.772 20.45 8.861 21.785 C8.949 23.148 9.037 24.512 9.125 25.875 C9.216 27.254 9.308 28.633 9.4 30.012 C9.624 33.383 9.845 36.754 10.062 40.125 C6.492 42.045 4.163 42.627 0.062 42.125 C-4.839 39.615 -6.909 35.297 -8.984 30.398 C-11.123 23.054 -11.49 14.489 -8.188 7.438 C-3.725 0.24 -3.725 0.24 0 0 Z " fill="#F6F6F6" transform="translate(1003.9375,709.875)"/>
<path d="M0 0 C4.805 5.18 4.548 10.121 4.375 16.938 C4.374 17.901 4.372 18.865 4.371 19.857 C4.213 32.667 4.213 32.667 -0.312 37.438 C-3.385 39.224 -4.539 39.844 -8 39 C-11.818 36.311 -13.667 34.723 -14.566 30.073 C-14.773 26.53 -14.769 23.047 -14.688 19.5 C-14.702 18.29 -14.717 17.079 -14.732 15.832 C-14.64 5.992 -14.64 5.992 -11.582 2.219 C-7.407 -1.369 -5.378 -1.391 0 0 Z " fill="#F8F8F8" transform="translate(77,735)"/>
<path d="M0 0 C14.29 1.163 25.211 6.262 35.109 16.668 C37 19 37 19 39 23 C27.78 23 16.56 23 5 23 C0.5 6.125 0.5 6.125 0 0 Z " fill="#FAFAFA" transform="translate(363,1001)"/>
<path d="M0 0 C2.851 1.425 3.084 3.173 4.277 6.102 C4.709 7.15 5.14 8.198 5.584 9.277 C6.031 10.382 6.477 11.487 6.938 12.625 C7.821 14.784 8.706 16.943 9.59 19.102 C10.214 20.637 10.214 20.637 10.851 22.204 C11.791 24.491 12.759 26.76 13.754 29.023 C15.853 34.038 15.853 34.038 16 36 C14.754 38.706 13.209 41.129 11.641 43.66 C7.292 52.513 6.522 61.191 6.625 70.938 C6.613 72.027 6.602 73.117 6.59 74.24 C6.619 82.366 7.342 90.8 11.1 98.152 C12 100 12 100 12 103 C9.03 103.99 9.03 103.99 6 105 C4.63 91.939 3.844 78.94 3.562 65.812 C3.262 51.858 2.325 38.024 1.016 24.128 C0.266 16.068 -0.201 8.104 0 0 Z " fill="#F5F5F5" transform="translate(605,696)"/>
<path d="M0 0 C3.833 -0.061 7.665 -0.098 11.499 -0.125 C12.747 -0.139 13.995 -0.152 15.281 -0.166 C22.026 -0.171 28.161 0.032 34.624 2.062 C36.624 5.062 36.624 5.062 36.624 9.062 C35.426 9.082 34.228 9.102 32.994 9.122 C28.446 9.2 23.898 9.288 19.351 9.379 C17.402 9.417 15.453 9.452 13.504 9.484 C0.113 9.705 -13.072 10.516 -26.376 12.062 C-26.376 9.752 -26.376 7.442 -26.376 5.062 C-18.043 -0.21 -9.569 0.176 0 0 Z " fill="#FBFBFB" transform="translate(936.37646484375,751.93798828125)"/>
<path d="M0 0 C3.465 0.962 4.918 1.902 7.27 4.688 C10.511 10.892 10.46 18.336 8.376 24.994 C5.846 31.383 2.918 37.184 -3 41 C-5.457 41.609 -5.457 41.609 -7.812 41.75 C-8.603 41.807 -9.393 41.863 -10.207 41.922 C-10.799 41.948 -11.39 41.973 -12 42 C-13.199 40.488 -13.199 40.488 -14 38 C-13.065 35.231 -12.074 32.8 -10.812 30.188 C-10.173 28.806 -9.534 27.425 -8.895 26.043 C-8.416 25.023 -8.416 25.023 -7.927 23.982 C-5.322 18.414 -3.311 13.004 -1.812 7.062 C-1.635 6.379 -1.458 5.695 -1.275 4.99 C-0.845 3.328 -0.422 1.664 0 0 Z " fill="#F8F8F8" transform="translate(330,904)"/>
<path d="M0 0 C0.135 0.562 0.271 1.124 0.41 1.703 C2.107 8.328 4.211 14.788 6.438 21.25 C6.726 22.101 7.014 22.952 7.311 23.829 C9.093 28.931 11.259 33.35 14 38 C14 38.66 14 39.32 14 40 C9.553 41.482 5.401 42.158 1.098 40.082 C-4.608 35.825 -7.195 29.731 -9 23 C-10.055 14.979 -9.484 8.79 -5 2 C-2 0 -2 0 0 0 Z " fill="#F7F6F6" transform="translate(153,904)"/>
<path d="M0 0 C0.598 0.227 1.196 0.454 1.812 0.688 C2.092 1.79 2.372 2.892 2.66 4.027 C5.037 13.105 7.802 21.726 11.664 30.291 C13.913 35.386 13.913 35.386 12.812 38.688 C9.491 40.348 6.359 40.571 2.812 39.688 C-2.953 35.198 -5.886 29.185 -7.875 22.312 C-8.795 14.585 -8.758 7.4 -3.832 0.898 C-2.188 -0.312 -2.188 -0.312 0 0 Z " fill="#F8F8F8" transform="translate(619.1875,805.3125)"/>
<path d="M0 0 C8.91 0 17.82 0 27 0 C27 10 27 10 24.438 12.699 C22.736 13.683 22.736 13.683 21 14.688 C19.806 15.415 18.615 16.147 17.426 16.883 C16.841 17.234 16.257 17.585 15.655 17.946 C12.102 20.209 9.06 23.125 6 26 C3.06 23.512 1.228 21.824 0.188 18.062 C-0.293 12.077 -0.057 5.995 0 0 Z " fill="#F7F7F7" transform="translate(558,882)"/>
<path d="M0 0 C0 4.62 0 9.24 0 14 C-1.772 14.061 -3.545 14.121 -5.371 14.184 C-7.727 14.268 -10.082 14.353 -12.438 14.438 C-13.602 14.477 -14.767 14.516 -15.967 14.557 C-22.36 14.791 -28.653 15.192 -35 16 C-36.32 11.05 -37.64 6.1 -39 1 C-36.03 1.495 -36.03 1.495 -33 2 C-29.21 2.207 -25.421 2.185 -21.625 2.188 C-20.121 2.206 -20.121 2.206 -18.586 2.225 C-12.207 2.237 -6.134 0 0 0 Z " fill="#FAFAFA" transform="translate(956,731)"/>
<path d="M0 0 C3.202 0.599 3.919 0.913 6.25 3.438 C9.697 10.455 8.476 18.736 6 26 C1.328 36.235 1.328 36.235 -3 39 C-6.031 39.31 -8.966 39.233 -12 39 C-11.333 34.413 -9.541 30.454 -7.688 26.25 C-4.022 17.702 -1.833 9.096 0 0 Z " fill="#F7F7F7" transform="translate(769,805)"/>
<path d="M0 0 C0.66 0 1.32 0 2 0 C2.654 1.268 2.654 1.268 3.32 2.562 C8.463 13.794 8.463 13.794 17 22 C14.826 27.593 12.574 33.142 9 38 C5.312 39.125 5.312 39.125 2 39 C0.515 39.495 0.515 39.495 -1 40 C-0.67 40.99 -0.34 41.98 0 43 C1.98 43.33 3.96 43.66 6 44 C5.547 45.439 5.088 46.876 4.625 48.312 C4.37 49.113 4.115 49.914 3.852 50.738 C3 53 3 53 1 56 C0.01 56 -0.98 56 -2 56 C-4.158 49.93 -4.209 44.406 -4 38 C-2.866 37.526 -1.731 37.051 -0.562 36.562 C2.757 35.364 2.757 35.364 4 34 C4.425 26.697 3.17 19.692 2 12.5 C1.714 10.694 1.714 10.694 1.422 8.852 C0.953 5.9 0.479 2.95 0 0 Z " fill="#D7D9D7" transform="translate(601,594)"/>
<path d="M0 0 C13.2 0 26.4 0 40 0 C40 2.64 40 5.28 40 8 C38.317 9.683 36.231 9.13 33.926 9.133 C32.344 9.136 32.344 9.136 30.73 9.139 C29.602 9.134 28.475 9.13 27.312 9.125 C26.179 9.123 25.045 9.121 23.877 9.119 C15.877 9.078 7.964 8.798 0 8 C0 5.36 0 2.72 0 0 Z " fill="#F3F3F4" transform="translate(505,631)"/>
<path d="M0 0 C17.225 1.544 26.615 11.147 37.41 23.832 C38.845 25.611 40.272 27.396 41.691 29.188 C44.341 32.415 47.145 35.456 50 38.5 C55.274 44.129 60.203 49.955 65 56 C62 56 62 56 60.086 54.427 C59.38 53.705 58.673 52.982 57.945 52.238 C56.775 51.054 56.775 51.054 55.582 49.846 C54.771 49.01 53.96 48.174 53.125 47.312 C52.322 46.496 51.519 45.679 50.691 44.838 C49.13 43.249 47.571 41.658 46.015 40.063 C43.696 37.689 41.349 35.345 39 33 C37.545 31.523 36.091 30.045 34.637 28.566 C32.987 26.898 31.337 25.23 29.688 23.562 C28.871 22.729 28.054 21.896 27.213 21.037 C19.31 13.072 12.452 6.321 1 5 C0.67 3.35 0.34 1.7 0 0 Z " fill="#F0F0F1" transform="translate(344,836)"/>
<path d="M0 0 C-0.66 6.93 -1.32 13.86 -2 21 C-10.25 21 -18.5 21 -27 21 C-22.81 15.413 -19.871 11.61 -14.5 7.688 C-13.957 7.272 -13.415 6.856 -12.855 6.428 C-4.292 0 -4.292 0 0 0 Z " fill="#F7F7F7" transform="translate(151,1003)"/>
<path d="M0 0 C3.387 2.681 4.694 4.179 5.406 8.414 C5.633 14.67 4.257 18.819 0.625 23.938 C-1 25 -1 25 -3.5 24.938 C-6.68 23.745 -7.535 23.084 -9 20 C-9.799 14.242 -9.09 10.021 -6 5 C-9.628 6.866 -9.628 6.866 -12 10 C-12.66 10 -13.32 10 -14 10 C-14.375 7.812 -14.375 7.812 -14 5 C-9.621 0.073 -6.526 -1.14 0 0 Z " fill="#353434" transform="translate(550,358)"/>
<path d="M0 0 C2.68 0.37 3.81 0.805 5.723 2.773 C8.358 7.366 7.592 12.563 6.379 17.559 C3.735 25.089 -1.223 32.372 -8.5 36.062 C-9.325 36.372 -10.15 36.681 -11 37 C-10.388 32.213 -8.971 28.014 -7.188 23.562 C-4.179 15.835 -1.967 8.054 0 0 Z " fill="#DDDEDE" transform="translate(331,734)"/>
<path d="M0 0 C1.895 1.305 1.895 1.305 3 3 C2.875 6.562 2.875 6.562 2 10 C-1.51 12.34 -3.4 12.344 -7.562 12.562 C-11.94 12.668 -11.94 12.668 -16 14 C-18.672 14.134 -21.323 14.043 -24 14 C-24.75 11.812 -24.75 11.812 -25 9 C-19.858 -0.166 -9.626 -1.462 0 0 Z " fill="#313131" transform="translate(516,335)"/>
<path d="M0 0 C0.762 -0.019 1.524 -0.039 2.309 -0.059 C5.499 0.644 6.636 1.822 8.562 4.438 C9.515 9.858 9.785 16.317 6.875 21.188 C4.562 23.438 4.562 23.438 2.062 24.5 C-1.16 24.419 -2.167 23.699 -4.438 21.438 C-4.934 18.695 -4.934 18.695 -4.875 15.562 C-4.874 14.534 -4.872 13.505 -4.871 12.445 C-4.392 9.122 -3.34 7.173 -1.438 4.438 C-2.221 5.098 -3.005 5.757 -3.812 6.438 C-6.438 8.438 -6.438 8.438 -8.438 8.438 C-7.675 2.793 -5.958 0.01 0 0 Z " fill="#333233" transform="translate(507.4375,358.5625)"/>
<path d="M0 0 C1.32 0.33 2.64 0.66 4 1 C4.915 12.329 2.371 22.257 -1 33 C-1.495 33.495 -1.495 33.495 -2 34 C-2.041 36 -2.043 38 -2 40 C1.63 40 5.26 40 9 40 C8 44 8 44 6.438 45.25 C2.898 46.339 -0.335 46.586 -4 46 C-6.5 44.5 -6.5 44.5 -8 42 C-8.382 36.128 -7.54 31.597 -5.688 26.062 C-2.976 17.485 -1.367 8.88 0 0 Z " fill="#3D3B3D" transform="translate(523,354)"/>
<path d="M0 0 C6.364 0.092 10.991 1.369 15.938 5.438 C17.988 7.827 18.874 8.907 19.25 12.062 C18.938 14.438 18.938 14.438 16.938 16.438 C13.277 16.031 9.991 14.802 6.562 13.5 C3.354 12.3 0.189 11.181 -3.125 10.312 C-6.062 9.438 -6.062 9.438 -8.062 7.438 C-8.312 4.938 -8.312 4.938 -8.062 2.438 C-5.354 -0.271 -3.784 0.075 0 0 Z " fill="#323032" transform="translate(542.0625,336.5625)"/>
<path d="M0 0 C0 4.29 0 8.58 0 13 C-17.672 13.617 -35.314 14.179 -53 14 C-53 13.34 -53 12.68 -53 12 C-52.331 11.98 -51.661 11.96 -50.971 11.94 C-47.876 11.843 -44.782 11.734 -41.688 11.625 C-40.635 11.594 -39.582 11.563 -38.498 11.531 C-25.31 11.044 -10.184 0 0 0 Z " fill="#D9D9D9" transform="translate(436,954)"/>
<path d="M0 0 C2.883 8.253 5.634 16.332 7 25 C4.312 25.312 4.312 25.312 1 25 C-3.034 21.699 -5.74 18.601 -6.266 13.344 C-6.26 12.405 -6.255 11.467 -6.25 10.5 C-6.255 9.562 -6.26 8.623 -6.266 7.656 C-5.993 4.925 -5.481 3.294 -4 1 C-2 0 -2 0 0 0 Z " fill="#F4F4F4" transform="translate(893,694)"/>
<path d="M0 0 C0.99 0 1.98 0 3 0 C2.147 5.063 -0.991 7.126 -5 10 C-10.832 13.365 -16.413 13.974 -23 13 C-28.424 11.086 -33.315 8.523 -37 4 C-36.67 3.01 -36.34 2.02 -36 1 C-31.993 1.617 -29.321 3.786 -26 6 C-19.219 8.149 -12.863 7.76 -6.5 4.625 C-3.919 3.229 -2.08 2.08 0 0 Z " fill="#464445" transform="translate(544,408)"/>
<path d="M0 0 C3.96 0 7.92 0 12 0 C12 5.28 12 10.56 12 16 C8.04 16 4.08 16 0 16 C0 10.72 0 5.44 0 0 Z " fill="#525354" transform="translate(950,1008)"/>
<path d="M0 0 C-2.992 6.702 -9.269 11.602 -15 16 C-15.66 16 -16.32 16 -17 16 C-18.588 14.31 -20.097 12.547 -21.562 10.75 C-22.368 9.775 -23.174 8.801 -24.004 7.797 C-25.75 5.351 -26.604 3.921 -27 1 C-25.824 1.495 -25.824 1.495 -24.625 2 C-17.261 4.031 -10.893 3.387 -3.812 0.656 C-2 0 -2 0 0 0 Z " fill="#F6F6F6" transform="translate(546,461)"/>
<path d="M0 0 C0.66 0.66 1.32 1.32 2 2 C1.67 3.32 1.34 4.64 1 6 C-6.92 6 -14.84 6 -23 6 C-23 3.69 -23 1.38 -23 -1 C-15.851 -3.383 -6.978 -2.791 0 0 Z " fill="#363537" transform="translate(23,640)"/>
<path d="M0 0 C6.661 0.749 10.542 5.337 15 10 C19.515 15.948 21.143 20.446 21 28 C19.68 28 18.36 28 17 28 C16.816 27.25 16.631 26.5 16.441 25.727 C13.726 16.146 8.839 10.573 1.719 3.844 C0 2 0 2 0 0 Z " fill="#282729" transform="translate(517,277)"/>
<path d="M0 0 C4.022 6.033 3.22 12.467 3.24 19.527 C3.25 21.559 3.281 23.591 3.312 25.623 C3.32 27.544 3.32 27.544 3.328 29.504 C3.337 30.678 3.347 31.851 3.356 33.061 C3 36 3 36 1.604 37.906 C-0 39 -0 39 -2 39 C-1.34 26.13 -0.68 13.26 0 0 Z " fill="#EBEAEB" transform="translate(7,741)"/>
<path d="M0 0 C2.932 2.932 5.018 5.255 7.25 8.625 C7.771 9.401 8.292 10.177 8.828 10.977 C10 13 10 13 10 15 C8.426 16.078 8.426 16.078 6.312 17.25 C2.25 19.668 -0.19 22.224 -3 26 C-3.66 25.67 -4.32 25.34 -5 25 C-4.34 23.68 -3.68 22.36 -3 21 C-2.34 21 -1.68 21 -1 21 C-0.67 14.07 -0.34 7.14 0 0 Z " fill="#F5F5F5" transform="translate(86,956)"/>
<path d="M0 0 C0 0.66 0 1.32 0 2 C-1.166 3.069 -2.385 4.08 -3.625 5.062 C-14.672 14.528 -18.051 27.049 -20 41 C-20.328 43.001 -20.66 45.001 -21 47 C-21.33 47 -21.66 47 -22 47 C-22.651 31.733 -20.955 19.356 -11 7 C-3.561 0 -3.561 0 0 0 Z " fill="#E8E8E8" transform="translate(640,724)"/>
<path d="M0 0 C-11.656 7.844 -28.494 7.173 -42 7 C-42 6.01 -42 5.02 -42 4 C-40.704 3.89 -39.409 3.781 -38.074 3.668 C-27.928 2.774 -17.9 1.662 -7.868 -0.122 C-2.202 -1.101 -2.202 -1.101 0 0 Z " fill="#E3E3E3" transform="translate(501,938)"/>
<path d="M0 0 C1.134 3.403 0.71 5.53 0 9 C-0.068 11.781 -0.095 14.534 -0.062 17.312 C-0.058 18.053 -0.053 18.794 -0.049 19.557 C-0.037 21.371 -0.019 23.186 0 25 C1.98 25.66 3.96 26.32 6 27 C4.312 27.75 4.312 27.75 2 28 C-2.559 25.835 -3.757 22.593 -5.375 18.062 C-6.735 13.957 -7.396 11.154 -6 7 C-4.59 4.98 -4.59 4.98 -2.938 3.188 C-2.39 2.583 -1.842 1.978 -1.277 1.355 C-0.856 0.908 -0.434 0.461 0 0 Z " fill="#E2E3E1" transform="translate(450,606)"/>
<path d="M0 0 C2.352 3.528 2.283 5.251 2.438 9.438 C2.865 16.797 3.696 24.491 7.098 31.148 C8 33 8 33 8 36 C6.02 36.66 4.04 37.32 2 38 C0.756 25.309 -0.363 12.76 0 0 Z " fill="#CBCACB" transform="translate(609,763)"/>
<path d="M0 0 C3.875 1.875 3.875 1.875 5 3 C5.67 8.534 5.907 13.487 2.625 18.188 C1.759 19.116 0.893 20.044 0 21 C-0.66 21 -1.32 21 -2 21 C-1.442 13.985 -0.816 6.99 0 0 Z " fill="#D0D0CF" transform="translate(975,689)"/>
<path d="M0 0 C7.354 3.51 11.564 8.435 15.875 15.125 C16.465 16.04 16.465 16.04 17.067 16.974 C18.898 19.911 20.468 22.548 21 26 C18.098 23.269 15.593 20.539 13.25 17.312 C10.095 12.979 6.518 9.107 2.855 5.199 C1 3 1 3 0 0 Z " fill="#A3A3A3" transform="translate(413,884)"/>
<path d="M0 0 C6.97 3.335 9.139 10.253 12 17 C14.055 23.012 14.2 28.686 14 35 C13.67 35 13.34 35 13 35 C12.88 34.416 12.76 33.832 12.636 33.231 C9.444 17.766 9.444 17.766 2 4 C1.309 2.679 0.634 1.349 0 0 Z " fill="#BBBBBB" transform="translate(324,813)"/>
<path d="M0 0 C2 2 2 2 2 5 C-0.97 4.67 -3.94 4.34 -7 4 C-7.33 4.66 -7.66 5.32 -8 6 C-6.68 6.66 -5.36 7.32 -4 8 C-4 9.32 -4 10.64 -4 12 C-6.494 10.796 -8.681 9.546 -11 8 C-10.082 1.572 -6.256 -0.816 0 0 Z " fill="#4C494B" transform="translate(596,371)"/>
<path d="M0 0 C1.316 0.953 2.628 1.913 3.938 2.875 C4.668 3.409 5.399 3.942 6.152 4.492 C8 6 8 6 9 8 C4.38 8 -0.24 8 -5 8 C-3.35 5.36 -1.7 2.72 0 0 Z " fill="#EEEEEC" transform="translate(179,959)"/>
<path d="M0 0 C0.697 0.005 1.395 0.009 2.113 0.014 C3.826 0.025 5.538 0.043 7.25 0.062 C7.25 1.053 7.25 2.043 7.25 3.062 C-2.155 3.558 -2.155 3.558 -11.75 4.062 C-11.75 3.072 -11.75 2.082 -11.75 1.062 C-7.883 -0.203 -4.018 -0.049 0 0 Z " fill="#E2E2E3" transform="translate(11.75,644.9375)"/>
<path d="M0 0 C0.99 0.33 1.98 0.66 3 1 C2.783 2.054 2.783 2.054 2.562 3.129 C1.989 6.058 1.485 8.992 1 11.938 C0.835 12.937 0.67 13.936 0.5 14.965 C0.335 15.966 0.17 16.968 0 18 C-0.333 20 -0.666 22 -1 24 C-1.33 24 -1.66 24 -2 24 C-2.054 21.312 -2.094 18.626 -2.125 15.938 C-2.142 15.185 -2.159 14.433 -2.176 13.658 C-2.219 8.707 -1.584 4.696 0 0 Z " fill="#D9D8D9" transform="translate(620,747)"/>
<path d="M0 0 C-5.278 3.519 -10.613 5.387 -17 5 C-17 4.34 -17 3.68 -17 3 C-18.32 2.67 -19.64 2.34 -21 2 C-17.877 1.469 -14.751 0.952 -11.625 0.438 C-10.736 0.286 -9.846 0.135 -8.93 -0.021 C-8.079 -0.16 -7.228 -0.299 -6.352 -0.441 C-5.566 -0.572 -4.781 -0.703 -3.971 -0.838 C-2 -1 -2 -1 0 0 Z " fill="#D1D1D1" transform="translate(501,938)"/>
<path d="M0 0 C1.65 0 3.3 0 5 0 C5 2.97 5 5.94 5 9 C3.35 9 1.7 9 0 9 C0 6.03 0 3.06 0 0 Z " fill="#E3E4E5" transform="translate(551,630)"/>
<path d="M0 0 C0.99 0.99 1.98 1.98 3 3 C3.99 3.33 4.98 3.66 6 4 C5.67 5.65 5.34 7.3 5 9 C3.35 9.33 1.7 9.66 0 10 C0 6.7 0 3.4 0 0 Z " fill="#EBEBEB" transform="translate(521,563)"/>
<path d="M0 0 C2.992 1.364 5.29 2.949 7.75 5.125 C8.67 5.933 8.67 5.933 9.609 6.758 C10.068 7.168 10.527 7.578 11 8 C10.34 9.32 9.68 10.64 9 12 C7.682 10.568 6.371 9.129 5.062 7.688 C4.332 6.887 3.601 6.086 2.848 5.262 C1 3 1 3 0 0 Z " fill="#83827F" transform="translate(413,884)"/>
<path d="M0 0 C1.32 0 2.64 0 4 0 C4 3.3 4 6.6 4 10 C2.68 10 1.36 10 0 10 C0 6.7 0 3.4 0 0 Z " fill="#DBDCDD" transform="translate(492,629)"/>
<path d="M0 0 C2.312 -0.25 2.312 -0.25 5 0 C6.812 1.75 6.812 1.75 8 4 C8 5.32 8 6.64 8 8 C6.35 8.66 4.7 9.32 3 10 C3.33 8.02 3.66 6.04 4 4 C2.68 3.34 1.36 2.68 0 2 C0 1.34 0 0.68 0 0 Z " fill="#433F40" transform="translate(464,371)"/>
<path d="M0 0 C0.33 0 0.66 0 1 0 C1 3.96 1 7.92 1 12 C0.34 12 -0.32 12 -1 12 C-4 6.375 -4 6.375 -4 3 C-3.01 2.67 -2.02 2.34 -1 2 C-0.67 1.34 -0.34 0.68 0 0 Z " fill="#CFCFCD" transform="translate(456,634)"/>
<path d="M0 0 C0 2.64 0 5.28 0 8 C-1.98 8 -3.96 8 -6 8 C-3.739 0 -3.739 0 0 0 Z " fill="#EEEEEF" transform="translate(1024,804)"/>
<path d="M0 0 C0 2 0 2 -1.645 3.727 C-2.36 4.353 -3.075 4.98 -3.812 5.625 C-4.874 6.572 -4.874 6.572 -5.957 7.539 C-8 9 -8 9 -11 9 C-9.559 4.678 -4.74 0 0 0 Z " fill="#D9D8D8" transform="translate(640,724)"/>
<path d="M0 0 C0.33 1.32 0.66 2.64 1 4 C0.113 4.577 -0.774 5.155 -1.688 5.75 C-4.59 7.681 -7.308 9.783 -10 12 C-8.653 9.066 -7.114 6.749 -5 4.312 C-4.484 3.711 -3.969 3.109 -3.438 2.488 C-2 1 -2 1 0 0 Z " fill="#DADADA" transform="translate(1023,640)"/>
<path d="M0 0 C0.33 0.66 0.66 1.32 1 2 C-0.215 4.602 -0.215 4.602 -1.938 7.625 C-2.786 9.129 -2.786 9.129 -3.652 10.664 C-4.097 11.435 -4.542 12.206 -5 13 C-5.948 10.458 -6.187 9.411 -5.039 6.895 C-4.572 6.207 -4.106 5.52 -3.625 4.812 C-2.933 3.77 -2.933 3.77 -2.227 2.707 C-1 1 -1 1 0 0 Z " fill="#D5D5D6" transform="translate(152,834)"/>
<path d="M0 0 C1.46 0.282 2.918 0.576 4.375 0.875 C5.187 1.037 5.999 1.2 6.836 1.367 C9 2 9 2 11 4 C2.429 4.286 2.429 4.286 -1 2 C-0.67 1.34 -0.34 0.68 0 0 Z " fill="#B9B7B8" transform="translate(806,877)"/>
<path d="M0 0 C0.33 0.99 0.66 1.98 1 3 C-1.64 5.97 -4.28 8.94 -7 12 C-7.33 11.34 -7.66 10.68 -8 10 C-5.36 6.7 -2.72 3.4 0 0 Z " fill="#D9D9D9" transform="translate(139,872)"/>
<path d="M0 0 C0.33 0 0.66 0 1 0 C1.33 3.63 1.66 7.26 2 11 C3.98 11.66 5.96 12.32 8 13 C6.312 13.75 6.312 13.75 4 14 C1.188 12.688 1.188 12.688 -1 10 C-1.129 6.577 -0.647 3.356 0 0 Z " fill="#BFBFBE" transform="translate(448,620)"/>
<path d="M0 0 C3.34 0.596 5.505 1.683 8 4 C8 4.99 8 5.98 8 7 C6 7 6 7 3.438 4.625 C1 2 1 2 0 0 Z " fill="#C2C3C4" transform="translate(931,634)"/>
<path d="M0 0 C0.99 0.33 1.98 0.66 3 1 C3 2.32 3 3.64 3 5 C1.35 4.67 -0.3 4.34 -2 4 C-1.34 2.68 -0.68 1.36 0 0 Z " fill="#D0D0D0" transform="translate(525,538)"/>
<path d="M0 0 C0.99 0.33 1.98 0.66 3 1 C1.35 2.98 -0.3 4.96 -2 7 C-2.66 6.67 -3.32 6.34 -4 6 C-3.34 4.68 -2.68 3.36 -2 2 C-1.34 2 -0.68 2 0 2 C0 1.34 0 0.68 0 0 Z " fill="#D8D7D7" transform="translate(85,975)"/>
<path d="M0 0 C1.65 1.65 3.3 3.3 5 5 C4.34 5.66 3.68 6.32 3 7 C1.5 5.75 1.5 5.75 0 4 C0 2.68 0 1.36 0 0 Z " fill="#9A9998" transform="translate(423,893)"/>
<path d="M0 0 C3.571 1.879 5.547 3.171 7 7 C6.01 7 5.02 7 4 7 C0 2.657 0 2.657 0 0 Z " fill="#C6C7C7" transform="translate(324,813)"/>
<path d="M0 0 C2 1 2 1 3 3 C0.03 3.66 -2.94 4.32 -6 5 C-2.25 1.125 -2.25 1.125 0 0 Z " fill="#CACBCC" transform="translate(479,265)"/>
</svg>