<svg version="1.1" xmlns="http://www.w3.org/2000/svg" width="1024" height="1024">
<path d="M0 0 C337.92 0 675.84 0 1024 0 C1024 337.92 1024 675.84 1024 1024 C686.08 1024 348.16 1024 0 1024 C0 686.08 0 348.16 0 0 Z " fill="#FEFEFE" transform="translate(0,0)"/>
<path d="M0 0 C28.877 -0.914 52.802 5.713 74.548 25.666 C76.456 27.466 78.345 29.284 80.235 31.103 C80.881 31.674 81.527 32.245 82.192 32.833 C99.058 48.199 110.206 74.907 112.009 97.293 C112.146 99.201 112.146 99.201 113.235 101.103 C113.928 100.353 114.62 99.603 115.333 98.83 C127.974 85.471 143.756 74.235 162.235 71.103 C162.565 69.783 162.895 68.463 163.235 67.103 C163.235 68.093 163.235 69.083 163.235 70.103 C164.051 69.886 164.867 69.67 165.708 69.447 C175.949 67.04 193.536 63.253 203.235 68.103 C203.565 67.113 203.895 66.123 204.235 65.103 C204.235 66.093 204.235 67.083 204.235 68.103 C204.928 68.178 205.62 68.253 206.333 68.33 C227.528 71.178 247.15 82.521 260.243 99.365 C264.965 105.855 268.53 112.435 271.548 119.853 C271.803 120.479 272.058 121.105 272.32 121.75 C279.005 138.9 276.083 159.507 269.235 176.103 C270.116 175.984 270.996 175.866 271.903 175.744 C273.065 175.615 274.226 175.486 275.423 175.353 C277.146 175.144 277.146 175.144 278.903 174.931 C283.062 175.146 284.334 176.182 287.235 179.103 C296.206 190.033 299.37 200.688 298.522 214.787 C297.393 223.899 293.473 233.035 289.235 241.103 C290.277 241.01 291.318 240.917 292.392 240.822 C305.346 240.028 314.806 243.286 325.024 251.287 C330.231 256.171 334.093 261.714 337.235 268.103 C337.649 268.914 338.063 269.725 338.489 270.56 C344.602 285.108 342.902 304.64 337.1 319.082 C327.817 340.789 312.976 359.75 291.235 370.103 C287.61 370.978 287.61 370.978 285.235 371.103 C285.798 371.942 285.798 371.942 286.372 372.798 C290.887 379.872 293.727 387.114 296.235 395.103 C296.484 395.861 296.733 396.619 296.989 397.4 C301.892 415.091 296.777 435.021 288.31 450.763 C278.808 466.063 266.328 478.37 251.235 488.103 C250.187 488.781 249.139 489.459 248.06 490.158 C218.336 507.552 177.662 515.27 144.106 506.55 C137.69 504.746 131.398 502.648 125.235 500.103 C124.965 500.99 124.694 501.877 124.415 502.791 C116.06 526.251 92.255 542.959 70.835 553.323 C41.172 567.062 3.585 570.117 -27.292 558.876 C-37.668 554.883 -47.894 549.842 -56.765 543.103 C-57.742 542.363 -58.719 541.623 -59.726 540.861 C-68.053 534.349 -74.592 526.922 -78.765 517.103 C-78.765 516.443 -78.765 515.783 -78.765 515.103 C-79.682 515.706 -80.6 516.31 -81.546 516.931 C-87.806 521.019 -93.948 524.993 -100.765 528.103 C-101.837 528.619 -102.91 529.134 -104.015 529.666 C-115.717 534.566 -128.014 535.283 -140.515 535.291 C-141.618 535.303 -142.722 535.315 -143.858 535.328 C-168.626 535.371 -189.453 525.003 -207.14 508.103 C-212.056 502.958 -217.019 497.172 -218.952 490.228 C-221.535 485.775 -224.584 485.673 -229.378 484.302 C-247.499 477.886 -260.573 460.254 -268.577 443.541 C-272.311 434.767 -275.422 425.685 -275.765 416.103 C-275.842 414.202 -275.842 414.202 -275.921 412.263 C-276.609 387.316 -267.42 365.691 -252.804 345.904 C-250.804 343.318 -250.804 343.318 -249.765 341.103 C-250.685 341.184 -251.605 341.265 -252.554 341.349 C-265.063 341.973 -273.716 338.465 -283.64 330.478 C-294.372 320.166 -299.633 306.635 -300.108 291.988 C-300.391 271.852 -291.98 255.062 -278.765 240.103 C-265.939 226.984 -249.931 216.783 -232.702 210.478 C-231.668 210.088 -231.668 210.088 -230.612 209.691 C-225.963 208.095 -222.526 207.92 -217.765 209.103 C-215.577 210.294 -215.577 210.294 -213.765 211.666 C-209.945 214.209 -207.419 214.793 -202.765 214.103 C-199.413 212.721 -199.413 212.721 -196.765 211.103 C-197.656 210.61 -197.656 210.61 -198.565 210.107 C-215.832 200.198 -227.016 187.242 -234.765 169.103 C-235.222 168.04 -235.68 166.976 -236.151 165.88 C-243.69 144.534 -238.785 120.4 -229.702 100.416 C-220.115 80.525 -205.425 64.887 -185.765 54.853 C-185.125 54.524 -184.484 54.194 -183.825 53.855 C-167.642 45.871 -149.927 45.824 -132.9 51.348 C-118.457 56.478 -107.479 64.275 -96.765 75.103 C-96.152 75.714 -95.54 76.325 -94.909 76.955 C-94.531 77.334 -94.154 77.713 -93.765 78.103 C-93.208 76.587 -93.208 76.587 -92.64 75.041 C-92.22 73.94 -92.22 73.94 -91.792 72.818 C-91.035 70.818 -90.301 68.808 -89.581 66.794 C-79.49 39.781 -60.056 19.396 -33.845 7.21 C-30.213 5.651 -26.518 4.336 -22.765 3.103 C-21.61 2.691 -20.455 2.278 -19.265 1.853 C-12.881 0.485 -6.504 0.242 0 0 Z " fill="#FEFEFE" transform="translate(500.7646484375,174.89697265625)"/>
<path d="M0 0 C1.126 0.001 2.252 0.001 3.412 0.002 C11.656 0.047 11.656 0.047 13.938 1.188 C15.455 1.155 15.455 1.155 17.004 1.121 C21.57 1.198 25.487 2.067 29.875 3.25 C30.705 3.473 31.536 3.697 32.392 3.927 C51.853 9.389 68.608 19.003 82.938 33.188 C83.738 33.927 84.539 34.667 85.363 35.43 C98.341 47.668 107.647 64.651 113.938 81.188 C114.417 82.437 114.417 82.437 114.906 83.711 C115.596 85.532 116.269 87.359 116.938 89.188 C117.667 88.703 118.397 88.218 119.148 87.719 C136.973 76.276 157.475 67.655 178.938 67.188 C180.914 67.095 180.914 67.095 182.93 67 C208.269 66.118 233.973 74.82 253.188 91.562 C254.79 93.085 256.374 94.626 257.938 96.188 C258.697 96.935 259.456 97.683 260.238 98.453 C269.979 108.615 276.629 120.84 280.938 134.188 C281.256 135.103 281.574 136.018 281.902 136.961 C285.846 149.938 284.918 165.094 281.938 178.188 C282.672 178.438 283.407 178.688 284.164 178.945 C293.645 183.192 300.206 194.032 303.785 203.407 C305.896 209.736 306.396 215.546 306.312 222.188 C306.324 223.108 306.336 224.028 306.348 224.977 C306.32 231.492 305.126 237.06 302.938 243.188 C304.247 243.358 304.247 243.358 305.582 243.531 C319.608 246.274 330.986 256.864 339 268.141 C341.856 272.632 344.129 277.184 345.938 282.188 C346.325 283.21 346.325 283.21 346.72 284.252 C349.25 291.593 349.439 298.597 349.375 306.312 C349.367 307.599 349.358 308.886 349.35 310.211 C348.853 338.243 335.452 359.935 315.848 379.246 C302.842 391.188 302.842 391.188 296.938 391.188 C297.275 391.912 297.613 392.636 297.961 393.383 C302.66 403.568 302.66 403.568 303.938 408.188 C304.122 408.831 304.306 409.474 304.496 410.137 C310.091 432.864 303.065 457.075 291.32 476.68 C271.59 506.724 236.877 525.511 202.449 533.246 C177.322 538.393 150.012 538.714 125.938 529.188 C125.698 529.887 125.458 530.587 125.211 531.309 C113.805 557.094 82.845 574.237 58.062 584.164 C52.611 585.95 47.033 587.179 41.43 588.391 C38.108 589.003 38.108 589.003 35.938 590.188 C3.424 597.072 -33.529 591.615 -61.566 573.559 C-65.921 570.64 -70.11 567.638 -74.062 564.188 C-75 563.37 -75.937 562.553 -76.902 561.711 C-81.342 557.756 -85.446 553.925 -89.062 549.188 C-93.111 550.491 -97.024 551.959 -100.938 553.625 C-102.979 554.479 -105.021 555.333 -107.062 556.188 C-107.755 556.48 -108.447 556.773 -109.16 557.074 C-119.799 561.343 -130.551 562.684 -141.946 562.579 C-143.995 562.563 -146.043 562.579 -148.092 562.598 C-157.075 562.612 -165.369 561.434 -174.062 559.188 C-175.19 558.898 -176.318 558.608 -177.48 558.309 C-198.225 552.749 -218.653 538.369 -230.125 520.125 C-230.632 519.247 -231.138 518.369 -231.66 517.465 C-234.304 513.172 -237.001 511.595 -241.562 509.5 C-265.331 497.874 -282.159 477.075 -291.062 452.418 C-293.288 445.109 -293.837 437.791 -294.062 430.188 C-294.09 429.384 -294.117 428.581 -294.145 427.753 C-294.847 404.233 -288.795 385.933 -278.062 365.188 C-278.769 364.921 -279.475 364.654 -280.203 364.379 C-295.785 357.886 -307.293 346.462 -313.875 330.938 C-314.63 329.031 -315.36 327.114 -316.062 325.188 C-316.417 324.223 -316.771 323.259 -317.137 322.266 C-322.613 304.057 -318.85 284.456 -310.336 267.919 C-306.868 261.523 -302.713 255.779 -298.062 250.188 C-297.342 249.315 -296.621 248.442 -295.879 247.543 C-281.851 231.264 -260.283 217.085 -239.062 212.188 C-239.631 211.363 -240.199 210.538 -240.785 209.688 C-255.609 187.719 -262.008 163.509 -256.931 137.05 C-252.756 118.12 -244.974 99.789 -232.062 85.188 C-231.352 84.357 -230.642 83.527 -229.91 82.672 C-215.142 65.749 -195.297 50.666 -172.058 48.968 C-146.607 48.057 -125.112 52.906 -105.062 69.188 C-103.351 66.62 -101.979 64.056 -100.603 61.302 C-86.956 34.411 -62.349 14.416 -33.783 4.954 C-22.494 1.391 -11.85 -0.133 0 0 Z M-10.287 14.255 C-17.626 14.506 -24.179 15.636 -31.062 18.188 C-31.973 18.515 -32.883 18.842 -33.82 19.18 C-54.104 27.023 -72.349 40.784 -84.062 59.188 C-85.054 60.731 -85.054 60.731 -86.066 62.305 C-91.65 71.48 -94.99 80.923 -98.062 91.188 C-100.062 91.188 -100.062 91.188 -102.094 89.246 C-102.908 88.381 -103.723 87.516 -104.562 86.625 C-119.743 71.228 -140.523 61.813 -162.188 61.562 C-181.447 61.802 -197.847 70.596 -212.062 83.188 C-212.724 83.755 -213.385 84.322 -214.066 84.906 C-231.387 100.862 -243.155 126.186 -244.539 149.574 C-245.313 172.522 -239.721 191.778 -224.105 209.098 C-217.782 215.745 -210.37 221.288 -202.062 225.188 C-206.639 227.867 -209.77 228.981 -215.062 228.188 C-217.602 226.716 -219.977 225.142 -222.34 223.402 C-227.672 221.023 -233.368 223.054 -238.641 224.949 C-264.777 234.986 -287.15 251.912 -299.672 277.473 C-303.306 285.927 -305.445 293.747 -305.375 302.938 C-305.369 303.725 -305.364 304.512 -305.358 305.323 C-305.065 319.524 -300.196 332.744 -290.336 343.152 C-286.275 346.788 -281.804 349.532 -277.062 352.188 C-275.99 352.827 -274.918 353.466 -273.812 354.125 C-267.681 355.862 -261.386 355.407 -255.062 355.188 C-258.412 360.543 -261.767 365.823 -265.562 370.875 C-278.93 389.83 -283.244 414.044 -280.438 436.75 C-277.562 452.927 -269.853 467.922 -259.062 480.188 C-258.396 480.949 -257.73 481.711 -257.043 482.496 C-250.049 489.983 -240.809 497.506 -230.562 499.5 C-227.325 500.291 -226.364 500.716 -224.539 503.566 C-223.607 505.632 -222.697 507.707 -221.805 509.789 C-212.717 527.516 -192.476 539.171 -174.586 546.18 C-165.124 548.886 -155.799 549.507 -146 549.438 C-144.906 549.445 -143.812 549.453 -142.686 549.461 C-123.463 549.415 -105.934 543.893 -90.062 533.188 C-89.393 532.745 -88.724 532.303 -88.035 531.848 C-86.706 530.969 -85.383 530.08 -84.062 529.188 C-83.856 529.992 -83.65 530.796 -83.438 531.625 C-80.73 538.641 -76.429 543.99 -71.062 549.188 C-69.908 550.355 -69.908 550.355 -68.73 551.547 C-57.396 562.471 -43.752 568.923 -29.062 574.188 C-28.205 574.505 -27.348 574.822 -26.465 575.148 C-6.131 582.005 17.247 580.219 37.938 576.188 C38.994 575.987 38.994 575.987 40.073 575.782 C69.21 570.03 96.254 552.785 112.938 528.188 C117.764 521.632 117.764 521.632 119.938 514.188 C120.462 514.43 120.987 514.672 121.527 514.922 C127.052 517.312 132.597 518.986 138.438 520.375 C139.468 520.625 139.468 520.625 140.519 520.88 C174.267 528.617 213.059 521.379 242.855 504.148 C259.17 493.769 273.199 481.021 282.938 464.188 C283.389 463.445 283.84 462.702 284.305 461.938 C293.457 445.565 295.567 426.028 290.858 408.024 C288.472 399.89 284.633 392.23 279.938 385.188 C281.218 385.062 281.218 385.062 282.523 384.934 C286.437 384.078 289.285 382.447 292.562 380.25 C293.169 379.848 293.776 379.446 294.401 379.032 C314.635 365.385 330.709 345.102 335.57 320.657 C338.02 304.197 336.865 288.841 327.562 274.75 C326.379 273.21 325.172 271.687 323.938 270.188 C323.462 269.565 322.986 268.942 322.496 268.301 C316.804 261.687 307.21 256.099 298.542 254.839 C293.643 254.525 288.822 254.752 283.938 255.188 C284.336 254.293 284.734 253.398 285.145 252.477 C291.551 237.949 296.628 223.242 290.984 207.43 C288.036 201.115 284.053 195.877 278.938 191.188 C278.278 190.528 277.617 189.868 276.938 189.188 C273.802 189.166 273.802 189.166 270.312 189.562 C269.124 189.673 267.935 189.784 266.711 189.898 C265.338 190.042 265.338 190.042 263.938 190.188 C264.287 189.079 264.636 187.97 264.996 186.828 C265.456 185.365 265.915 183.901 266.375 182.438 C266.605 181.708 266.835 180.978 267.072 180.227 C267.295 179.518 267.517 178.809 267.746 178.078 C267.95 177.429 268.155 176.779 268.365 176.11 C273.733 158.081 269.646 139.078 261.062 122.906 C258.489 118.264 255.407 114.193 251.938 110.188 C251.338 109.393 250.739 108.599 250.121 107.781 C237.812 93.161 219.25 85.698 200.938 82.188 C200.277 82.188 199.618 82.188 198.938 82.188 C198.608 81.197 198.277 80.207 197.938 79.188 C197.938 80.178 197.938 81.168 197.938 82.188 C197.277 81.858 196.618 81.528 195.938 81.188 C183.09 80.202 170.39 80.883 157.938 84.188 C157.608 83.197 157.277 82.207 156.938 81.188 C156.938 82.507 156.938 83.827 156.938 85.188 C155.783 85.353 154.628 85.517 153.438 85.688 C135.679 89.68 120.044 102.208 107.938 115.188 C106.631 112.575 106.61 110.29 106.312 107.375 C102.306 78.861 86.54 53.205 64.375 35.094 C57.617 30.203 50.265 26.155 42.938 22.188 C42.18 21.774 41.422 21.36 40.641 20.934 C24.513 12.964 7.204 13.725 -10.287 14.255 Z " fill="#1B1A1B" transform="translate(506.0625,160.8125)"/>
<path d="M0 0 C0.33 0 0.66 0 1 0 C0.67 2.97 0.34 5.94 0 9 C-1.052 8.814 -2.104 8.629 -3.188 8.438 C-6.571 8.049 -8.764 8.118 -12 9 C-12.33 6.69 -12.66 4.38 -13 2 C-9.531 2.458 -6.326 2.891 -3 4 C-2.01 4 -1.02 4 0 4 C0 2.68 0 1.36 0 0 Z " fill="#363536" transform="translate(201,473)"/>
<path d="M0 0 C0.99 0.66 1.98 1.32 3 2 C3 2.66 3 3.32 3 4 C2.197 4.803 1.354 5.565 0.5 6.312 C-1.183 8.205 -1.575 9.535 -2 12 C-3.65 12 -5.3 12 -7 12 C-7 8.197 -5.862 7.223 -3.5 4.312 C-2.85 3.504 -2.201 2.696 -1.531 1.863 C-1.026 1.248 -0.521 0.634 0 0 Z " fill="#454546" transform="translate(419,202)"/>
<path d="M0 0 C0 0.33 0 0.66 0 1 C-4.62 1 -9.24 1 -14 1 C-13.67 2.98 -13.34 4.96 -13 7 C-13.66 7 -14.32 7 -15 7 C-15 6.34 -15 5.68 -15 5 C-19.555 2.796 -24.029 2.412 -29 2 C-29 1.67 -29 1.34 -29 1 C-19.335 -0.192 -9.718 -0.096 0 0 Z " fill="#59595B" transform="translate(703,228)"/>
<path d="M0 0 C2.97 0.495 2.97 0.495 6 1 C6.33 2.65 6.66 4.3 7 6 C5.68 5.34 4.36 4.68 3 4 C2.67 4.66 2.34 5.32 2 6 C1.34 4.02 0.68 2.04 0 0 Z " fill="#312F2F" transform="translate(219,621)"/>
<path d="M0 0 C0.99 0.33 1.98 0.66 3 1 C2.67 2.32 2.34 3.64 2 5 C0.35 5 -1.3 5 -3 5 C-3 4.01 -3 3.02 -3 2 C-2.01 2 -1.02 2 0 2 C0 1.34 0 0.68 0 0 Z " fill="#5A5C5D" transform="translate(415,209)"/>
<path d="M0 0 C1.32 0.66 2.64 1.32 4 2 C4 2.66 4 3.32 4 4 C1.69 4.66 -0.62 5.32 -3 6 C-2.67 4.68 -2.34 3.36 -2 2 C-2 2.66 -2 3.32 -2 4 C-1.34 4 -0.68 4 0 4 C0 2.68 0 1.36 0 0 Z " fill="#414142" transform="translate(737,239)"/>
<path d="M0 0 C0.99 0.33 1.98 0.66 3 1 C2.34 1 1.68 1 1 1 C1.33 2.98 1.66 4.96 2 7 C0.68 7.33 -0.64 7.66 -2 8 C-1.125 1.125 -1.125 1.125 0 0 Z " fill="#56585B" transform="translate(462,729)"/>
<path d="M0 0 C1.062 1.875 1.062 1.875 2 4 C1.67 4.66 1.34 5.32 1 6 C-2.062 6.625 -2.062 6.625 -5 7 C-3.35 4.69 -1.7 2.38 0 0 Z " fill="#4D5157" transform="translate(277,242)"/>
<path d="M0 0 C0.66 0.33 1.32 0.66 2 1 C2 1.66 2 2.32 2 3 C1.01 3 0.02 3 -1 3 C-1.33 3.99 -1.66 4.98 -2 6 C-3.32 5.34 -4.64 4.68 -6 4 C-4.02 2.68 -2.04 1.36 0 0 Z " fill="#464548" transform="translate(231,390)"/>
<path d="M0 0 C0.99 0.66 1.98 1.32 3 2 C3 2.66 3 3.32 3 4 C2.34 4 1.68 4 1 4 C1 4.99 1 5.98 1 7 C0.01 6.67 -0.98 6.34 -2 6 C-1.34 4.02 -0.68 2.04 0 0 Z " fill="#3C3D3F" transform="translate(409,215)"/>
<path d="M0 0 C0.66 0 1.32 0 2 0 C2.66 1.98 3.32 3.96 4 6 C2.062 5.688 2.062 5.688 0 5 C-0.33 4.01 -0.66 3.02 -1 2 C-0.67 1.34 -0.34 0.68 0 0 Z " fill="#4D4D4B" transform="translate(421,209)"/>
<path d="M0 0 C0.33 0 0.66 0 1 0 C0.67 2.97 0.34 5.94 0 9 C-0.99 8.34 -1.98 7.68 -3 7 C-3 6.01 -3 5.02 -3 4 C-2.01 4 -1.02 4 0 4 C0 2.68 0 1.36 0 0 Z " fill="#4A4849" transform="translate(201,473)"/>
</svg>