<svg version="1.1" xmlns="http://www.w3.org/2000/svg" width="1024" height="1024">
<path d="M0 0 C337.92 0 675.84 0 1024 0 C1024 337.92 1024 675.84 1024 1024 C686.08 1024 348.16 1024 0 1024 C0 686.08 0 348.16 0 0 Z " fill="#FEFEFE" transform="translate(0,0)"/>
<path d="M0 0 C2.168 0.011 4.335 0 6.502 -0.013 C40.33 -0.048 71.107 12.651 95.936 35.261 C96.912 36.131 96.912 36.131 97.909 37.019 C117.934 55.861 133.747 86.233 135.11 113.782 C135.167 117.569 135.16 121.349 135.124 125.136 C135.123 126.427 135.122 127.719 135.122 129.05 C135.068 140.569 135.068 140.569 133.936 144.261 C131.626 145.462 129.633 146.278 127.186 147.073 C116.856 150.811 106.511 156.157 98.936 164.261 C98.426 167.575 98.445 169.279 99.936 172.261 C105.115 172.706 108.192 171.311 112.499 168.698 C118.678 165.183 124.941 162.622 131.686 160.386 C132.536 160.1 133.386 159.815 134.262 159.52 C156.962 152.223 183.625 152.463 205.267 163.118 C231.151 176.848 247.397 201.619 256.324 228.961 C260.608 243.317 262.336 258.016 262.382 272.965 C262.46 277.121 262.63 279.693 264.631 283.405 C266.772 285.47 266.772 285.47 269.432 285.53 C270.403 285.379 271.373 285.229 272.374 285.073 C297.721 282.165 319.811 286.223 340.354 302.085 C359.35 318.092 372.727 341.426 375.936 366.261 C377.014 380.401 376.767 394.549 372.936 408.261 C372.743 409.104 372.549 409.947 372.35 410.815 C365.353 438.532 345.172 458.55 321.456 472.729 C319.082 474.036 319.082 474.036 317.936 475.261 C317.774 476.883 317.658 478.509 317.561 480.136 C315.807 500.731 305.337 518.803 290.374 532.698 C277.347 543.642 262.343 551.671 245.936 556.261 C245.307 556.453 244.678 556.645 244.03 556.843 C235.9 559.016 227.298 558.918 218.936 559.261 C217.093 563.45 215.418 567.636 213.896 571.956 C204.4 598.625 185.227 617.852 159.987 629.921 C150.487 634.093 141.096 636.867 130.92 638.683 C128.023 639.105 128.023 639.105 125.936 640.261 C117.141 641.5 108.347 641.413 99.483 641.391 C96.914 641.386 94.345 641.391 91.776 641.397 C90.142 641.397 88.508 641.396 86.874 641.394 C86.106 641.396 85.338 641.398 84.547 641.4 C79.166 641.376 79.166 641.376 76.936 640.261 C75.149 639.941 73.356 639.654 71.561 639.386 C62.89 637.968 54.789 636.181 46.749 632.573 C37.925 628.797 32.363 629.912 23.526 633.108 C19.108 634.527 14.664 635.509 10.124 636.448 C8.923 636.698 8.923 636.698 7.698 636.953 C-11.046 640.756 -31.841 641.806 -50.064 635.261 C-51.121 634.887 -52.178 634.513 -53.267 634.128 C-77.468 624.758 -96.379 606.851 -109.498 584.851 C-110.829 582.416 -110.829 582.416 -112.064 581.261 C-117.594 581.576 -121.154 583.236 -125.564 586.386 C-132.732 591.236 -140.124 594.852 -148.064 598.261 C-149.562 598.938 -149.562 598.938 -151.091 599.628 C-173.446 609.087 -203.16 613.628 -226.353 604.866 C-227.596 604.344 -228.833 603.809 -230.064 603.261 C-230.704 602.977 -231.345 602.693 -232.004 602.4 C-241.63 597.971 -249.987 592.071 -258.064 585.261 C-258.716 584.712 -259.368 584.162 -260.041 583.597 C-270.801 573.652 -278.037 560.852 -283.064 547.261 C-283.696 545.592 -283.696 545.592 -284.341 543.89 C-286.821 536.68 -287.584 530.032 -287.791 522.476 C-288.048 519.452 -288.382 517.749 -290.064 515.261 C-292.978 513.804 -295.558 514.133 -298.81 514.12 C-300.21 514.106 -301.61 514.09 -303.01 514.073 C-303.743 514.064 -304.477 514.055 -305.233 514.045 C-318.757 513.839 -331.289 513.114 -344.064 508.261 C-345.103 507.869 -345.103 507.869 -346.164 507.47 C-365.03 500.161 -381.377 489.145 -396.064 475.261 C-396.886 474.503 -397.709 473.745 -398.556 472.964 C-415.6 456.716 -425.868 435.751 -432.064 413.261 C-432.269 412.527 -432.475 411.793 -432.686 411.037 C-434.523 403.388 -434.401 395.604 -434.38 387.785 C-434.376 385.397 -434.4 383.011 -434.425 380.624 C-434.462 371.728 -433.775 363.813 -431.064 355.261 C-430.629 353.753 -430.629 353.753 -430.186 352.214 C-422.859 327.167 -404.676 306.726 -382.208 294.03 C-378.25 291.893 -374.204 290.019 -370.064 288.261 C-369.432 287.988 -368.801 287.716 -368.15 287.435 C-347.337 278.87 -321.487 281.427 -300.897 289.54 C-293.744 292.535 -287.386 296.388 -281.198 301.06 C-276.993 304.118 -274.214 304.801 -269.064 304.261 C-267.726 303.945 -266.392 303.615 -265.064 303.261 C-265.074 302.374 -265.085 301.487 -265.096 300.574 C-265.13 297.238 -265.155 293.902 -265.174 290.565 C-265.184 289.13 -265.197 287.695 -265.215 286.26 C-265.312 278.06 -265.22 270.238 -263.064 262.261 C-262.768 261.129 -262.768 261.129 -262.466 259.975 C-256.545 238.449 -246.52 220.443 -231.064 204.261 C-230.165 203.249 -230.165 203.249 -229.248 202.218 C-217.046 189.015 -199.208 180.31 -182.314 174.886 C-181.199 174.528 -181.199 174.528 -180.061 174.162 C-169.314 170.912 -158.82 169.951 -147.626 170.073 C-146.482 170.074 -145.338 170.075 -144.16 170.075 C-139.295 170.101 -134.827 170.238 -130.064 171.261 C-128.025 171.375 -125.982 171.435 -123.939 171.448 C-122.905 171.462 -121.871 171.477 -120.806 171.491 C-117.847 171.465 -117.847 171.465 -115.064 169.261 C-114.48 166.804 -114.48 166.804 -115.064 164.261 C-119.863 158.835 -129.261 157.809 -136.064 157.261 C-176.191 155.331 -210.946 166.394 -241.064 193.261 C-242.143 194.195 -242.143 194.195 -243.244 195.147 C-253.335 204.465 -260.679 216.735 -266.564 229.011 C-266.961 229.837 -267.358 230.663 -267.767 231.513 C-273.265 243.471 -275.883 255.659 -277.814 268.573 C-278.036 270.008 -278.258 271.442 -278.482 272.876 C-279.019 276.336 -279.545 279.798 -280.064 283.261 C-281.14 282.73 -282.217 282.199 -283.326 281.651 C-295.313 275.821 -307.426 270.13 -321.033 270.261 C-335.451 270.346 -335.451 270.346 -339.56 267.581 C-341.124 265.199 -342.079 262.933 -343.064 260.261 C-344.147 258.27 -345.251 256.291 -346.376 254.323 C-347.632 251.98 -348.875 249.638 -350.064 247.261 C-347.754 247.261 -345.444 247.261 -343.064 247.261 C-343.185 246.58 -343.306 245.899 -343.431 245.198 C-345.765 231.7 -347.409 218.526 -347.325 204.833 C-347.314 202.761 -347.325 200.689 -347.337 198.616 C-347.354 185.358 -346.396 172.286 -341.939 159.698 C-341.633 158.813 -341.326 157.928 -341.01 157.017 C-336.162 143.48 -329.217 132.28 -320.064 121.261 C-319.395 120.438 -318.726 119.616 -318.037 118.769 C-300.379 97.897 -272.108 83.575 -245.064 80.261 C-240.553 80.026 -236.056 79.972 -231.539 80 C-229.501 80.011 -227.463 80 -225.425 79.987 C-218.044 80.002 -211.222 80.443 -204.064 82.261 C-203.133 82.461 -202.203 82.66 -201.244 82.866 C-181.105 87.952 -164.724 98.888 -150.064 113.261 C-149.364 113.934 -148.664 114.607 -147.943 115.3 C-145.205 117.973 -142.746 120.646 -140.439 123.698 C-138.327 126.488 -138.327 126.488 -135.376 126.761 C-132.882 126.44 -132.882 126.44 -131.064 124.261 C-130.726 122.116 -130.726 122.116 -130.72 119.64 C-130.678 118.245 -130.678 118.245 -130.635 116.822 C-130.612 115.832 -130.588 114.843 -130.564 113.823 C-129.354 81.002 -113.745 56.193 -90.113 34.103 C-84.782 29.31 -79.078 25.15 -73.064 21.261 C-72.451 20.863 -71.839 20.465 -71.208 20.056 C-57.796 11.538 -41.684 4.381 -25.794 2.612 C-22.855 2.296 -22.855 2.296 -19.255 1.237 C-12.909 -0.205 -6.471 -0.038 0 0 Z " fill="#FEFEFE" transform="translate(526.06396484375,179.7392578125)"/>
<path d="M0 0 C2.578 0.016 5.154 0 7.732 -0.019 C24.03 -0.04 39.081 2.827 54.712 7.391 C55.886 7.726 55.886 7.726 57.083 8.067 C90.585 18.39 117.991 41.333 134.479 72.032 C140.68 83.779 145.438 95.168 148.4 108.141 C148.612 109.034 148.824 109.928 149.042 110.848 C150.72 118.033 151.799 125.027 152.029 132.418 C152.092 134.347 152.092 134.347 152.156 136.315 C152.196 137.653 152.235 138.991 152.275 140.329 C152.318 141.694 152.362 143.059 152.406 144.424 C152.511 147.746 152.614 151.069 152.712 154.391 C156.505 155.425 156.505 155.425 160.115 154.168 C160.951 153.561 161.788 152.954 162.65 152.329 C173.456 145.072 185.378 141.308 197.817 137.92 C199.524 137.444 201.215 136.913 202.904 136.375 C213.625 133.605 224.188 133.044 235.195 133.075 C237.512 133.079 239.827 133.055 242.144 133.03 C252.352 132.987 261.748 134.147 271.712 136.391 C272.39 136.541 273.067 136.69 273.765 136.844 C313.051 145.534 350.683 167.409 373.093 201.487 C382.241 215.872 389.228 231.675 392.712 248.391 C392.882 249.155 393.052 249.919 393.227 250.706 C398.314 275.432 393.729 298.623 385.559 321.934 C384.471 325.092 383.462 328.273 382.465 331.461 C381.712 333.391 381.712 333.391 379.462 336.641 C377.453 339.177 377.453 339.177 377.931 341.704 C378.811 344.729 380.048 347.326 381.462 350.141 C394.168 377.172 395.644 409.439 385.982 437.692 C377.469 460.813 362.377 483.9 339.938 495.464 C334.467 498 334.467 498 330.748 502.43 C330.545 504.601 330.545 504.601 330.677 506.872 C330.878 521.291 320.086 539.093 310.712 549.391 C310.002 550.23 309.292 551.069 308.56 551.934 C299.711 562.214 289.535 569.012 277.712 575.391 C276.517 576.085 276.517 576.085 275.298 576.793 C263.596 583.265 247.545 587.905 234.212 589.016 C233.356 589.091 232.501 589.166 231.619 589.243 C230.99 589.292 230.361 589.341 229.712 589.391 C229.456 590.553 229.199 591.714 228.935 592.911 C227.841 597.266 226.19 601.091 224.15 605.079 C223.8 605.768 223.45 606.457 223.089 607.167 C215.115 622.48 204.418 634.936 190.712 645.391 C189.934 645.997 189.155 646.603 188.353 647.227 C181.013 652.671 172.961 656.543 164.712 660.391 C164.059 660.706 163.406 661.021 162.733 661.346 C128.304 677.802 86.403 675.68 50.712 664.391 C49.256 663.858 47.804 663.314 46.357 662.758 C41.435 660.912 38.512 660.584 33.681 662.75 C29.034 664.799 24.21 665.88 19.275 667.016 C18.372 667.233 17.469 667.449 16.539 667.672 C-14.978 675.066 -48.642 671.047 -76.528 654.483 C-91.118 645.431 -105.461 632.197 -114.288 617.391 C-119.04 618.845 -123.402 620.832 -127.85 623.016 C-141.564 629.576 -155.491 635.433 -170.549 637.918 C-173.241 638.247 -173.241 638.247 -175.288 639.391 C-205.127 643.535 -232.067 638.026 -256.792 620.629 C-277.62 604.682 -292.824 582.928 -298.948 557.192 C-299.426 553.254 -299.361 549.352 -299.288 545.391 C-300.193 545.407 -300.193 545.407 -301.117 545.423 C-325.797 545.795 -345.602 541.235 -367.288 529.391 C-368.334 528.825 -369.381 528.259 -370.459 527.676 C-381.551 521.441 -391.828 514.089 -401.124 505.399 C-402.979 503.678 -404.875 502.095 -406.85 500.516 C-430.052 480.621 -443.298 446.758 -446.085 417.035 C-448.604 384.198 -441.131 351.752 -419.743 326.062 C-402.259 305.991 -377.559 287.194 -350.35 283.579 C-348.834 283.486 -348.834 283.486 -347.288 283.391 C-347.651 282.227 -347.651 282.227 -348.022 281.04 C-359.357 244.507 -359.357 244.507 -359.526 226.344 C-359.534 225.493 -359.542 224.642 -359.55 223.765 C-359.564 221.966 -359.575 220.168 -359.583 218.369 C-359.594 216.572 -359.614 214.775 -359.644 212.978 C-359.924 196.077 -358.257 179.477 -351.413 163.829 C-351.062 162.996 -350.711 162.164 -350.349 161.306 C-336.867 129.824 -312.32 107.092 -281.124 93.508 C-271.429 89.689 -261.479 86.574 -251.288 84.391 C-250.356 84.185 -249.424 83.979 -248.463 83.766 C-218.506 78.127 -187.175 85.05 -162.031 102.142 C-154.632 107.443 -147.978 113.272 -142.288 120.391 C-142.213 119.445 -142.138 118.499 -142.061 117.524 C-139.058 85.436 -120.776 56.601 -96.471 36.004 C-80.082 22.938 -61.633 12.509 -41.663 6.079 C-40.948 5.848 -40.233 5.618 -39.497 5.38 C-26.274 1.358 -13.74 -0.101 0 0 Z M-93.288 56.391 C-94.183 57.223 -95.079 58.054 -96.002 58.911 C-117.196 79.212 -128.035 104.548 -128.805 133.737 C-128.839 134.691 -128.873 135.646 -128.909 136.629 C-128.934 137.496 -128.959 138.363 -128.985 139.256 C-129.288 141.391 -129.288 141.391 -131.288 143.391 C-133.499 143.946 -133.499 143.946 -136.288 143.391 C-138.785 141.359 -140.814 138.949 -142.913 136.516 C-144.168 135.125 -145.425 133.737 -146.686 132.352 C-147.302 131.671 -147.918 130.99 -148.552 130.289 C-164.51 112.84 -188.46 99.305 -212.288 97.391 C-228.818 96.669 -245.406 96.19 -261.288 101.391 C-261.962 101.605 -262.637 101.82 -263.333 102.041 C-279.031 107.142 -292.645 114.837 -305.288 125.391 C-306.222 126.149 -307.157 126.907 -308.12 127.688 C-330.26 146.566 -342.945 174.717 -345.288 203.391 C-345.552 208.199 -345.578 213.004 -345.548 217.818 C-345.538 219.891 -345.548 221.963 -345.561 224.036 C-345.575 237.692 -343.68 250.952 -341.288 264.391 C-343.598 264.391 -345.908 264.391 -348.288 264.391 C-347.065 266.749 -345.835 269.102 -344.6 271.454 C-344.091 272.439 -344.091 272.439 -343.571 273.444 C-342.514 275.449 -341.406 277.42 -340.288 279.391 C-339.944 280.062 -339.601 280.734 -339.247 281.425 C-337.59 284.275 -336.449 286.073 -333.181 286.967 C-330.59 287.167 -328.072 287.154 -325.475 287.079 C-308.034 287.255 -293.756 292.63 -278.288 300.391 C-278.168 299.546 -278.048 298.701 -277.924 297.831 C-272.284 258.837 -260.078 224.889 -227.522 200.078 C-213.893 190.08 -198.713 183.513 -182.6 178.641 C-181.948 178.442 -181.296 178.243 -180.624 178.039 C-169.87 174.935 -159.322 174.069 -148.163 174.141 C-146.965 174.133 -145.768 174.126 -144.534 174.118 C-135.758 174.137 -127.624 175.071 -119.288 177.891 C-118.205 178.247 -118.205 178.247 -117.1 178.61 C-115.288 179.391 -115.288 179.391 -113.288 181.391 C-112.975 183.891 -112.975 183.891 -113.288 186.391 C-116.743 188.695 -118.098 188.634 -122.163 188.579 C-123.706 188.569 -123.706 188.569 -125.28 188.559 C-128.288 188.391 -128.288 188.391 -130.625 187.893 C-159.036 182.535 -190.024 192.098 -213.672 207.805 C-238.406 225.022 -253.749 250.585 -261.288 279.391 C-261.586 280.494 -261.586 280.494 -261.89 281.618 C-263.764 289.517 -263.511 297.457 -263.413 305.516 C-263.403 306.964 -263.393 308.412 -263.385 309.86 C-263.363 313.37 -263.329 316.881 -263.288 320.391 C-268.696 321.834 -272.66 322.32 -277.69 319.45 C-278.876 318.587 -280.054 317.713 -281.225 316.829 C-302.571 301.78 -328.414 296.816 -354.24 300.853 C-378.438 305.943 -401.836 322.368 -415.538 342.766 C-425.168 357.619 -432.339 374.204 -432.526 392.157 C-432.534 392.908 -432.542 393.66 -432.55 394.435 C-432.564 396.028 -432.575 397.622 -432.583 399.215 C-432.594 400.811 -432.614 402.407 -432.644 404.002 C-433.257 436.824 -419.356 466.634 -396.931 490.146 C-381.579 505.817 -362.919 517.851 -342.288 525.391 C-341.652 525.628 -341.017 525.866 -340.362 526.11 C-327.546 530.711 -314.787 531.012 -301.322 531.027 C-300.616 531.032 -299.91 531.038 -299.183 531.043 C-297.241 531.055 -295.298 531.047 -293.356 531.038 C-290.288 531.391 -290.288 531.391 -288.422 532.787 C-285.99 536.226 -286.161 538.836 -286.038 543.016 C-284.939 563.705 -274.575 582.03 -261.288 597.391 C-260.705 598.076 -260.122 598.76 -259.522 599.465 C-251.214 608.466 -239.532 615.759 -228.288 620.391 C-227.13 620.877 -225.972 621.363 -224.78 621.864 C-198.36 631.789 -167.337 624.777 -142.417 613.801 C-133.989 609.929 -125.686 605.575 -118.163 600.129 C-115.124 598.292 -113.752 597.651 -110.288 598.391 C-108.733 600.008 -108.733 600.008 -107.413 602.266 C-106.903 603.092 -106.394 603.919 -105.87 604.77 C-105.348 605.635 -104.825 606.5 -104.288 607.391 C-88.811 631.366 -65.966 648.143 -38.288 655.391 C-31.756 656.649 -25.356 656.575 -18.725 656.579 C-17.526 656.591 -16.326 656.603 -15.09 656.616 C-4.302 656.633 6.008 655.351 16.4 652.454 C17.654 652.109 18.908 651.765 20.201 651.411 C23.186 650.544 26.133 649.607 29.087 648.641 C37.732 646.082 43.25 647.354 51.396 651.016 C60.125 654.635 69.321 656.595 78.712 657.391 C79.372 657.721 80.032 658.051 80.712 658.391 C83.367 658.49 85.995 658.531 88.65 658.524 C89.445 658.525 90.239 658.526 91.058 658.527 C92.746 658.528 94.434 658.526 96.122 658.521 C98.674 658.516 101.227 658.521 103.779 658.528 C118.72 658.679 118.72 658.679 133.337 655.954 C136.406 655.052 139.452 654.213 142.564 653.465 C167.347 647.324 190.976 632.822 205.099 611.165 C210.882 601.223 215.42 591.203 218.802 580.208 C219.712 577.391 219.712 577.391 220.712 576.391 C222.62 576.296 224.528 576.207 226.438 576.152 C249.838 575.435 271.759 566.324 289.712 551.391 C290.635 550.652 290.635 550.652 291.576 549.899 C305.252 538.679 316.582 521.189 318.712 503.391 C318.72 502.014 318.72 502.014 318.728 500.61 C318.846 493.316 318.846 493.316 321.353 490.641 C323.738 489.062 326.184 487.728 328.712 486.391 C341.753 478.366 352.332 469.33 360.712 456.391 C361.526 455.14 361.526 455.14 362.357 453.864 C376.674 430.92 381.94 402.017 376.431 375.419 C372.412 359.142 364.861 342.98 353.712 330.391 C352.882 329.451 352.052 328.512 351.197 327.543 C338.334 313.872 319.371 302.302 300.302 301.259 C290.535 300.965 280.876 301.158 271.208 302.661 C268.712 302.391 268.712 302.391 266.408 300.536 C264.013 296.094 264.165 292.238 264.15 287.266 C263.416 258.466 255.94 227.727 236.712 205.391 C235.635 204.111 235.635 204.111 234.537 202.805 C226.934 194.06 218.966 186.861 208.712 181.391 C207.905 180.949 207.098 180.507 206.267 180.051 C184.703 169.203 157.565 169.487 135.041 176.903 C126.356 179.892 118.338 183.329 110.474 188.106 C107.331 189.569 105.139 189.639 101.712 189.391 C100.191 186.348 100.136 184.785 100.712 181.391 C107.729 172.02 122.793 165.383 133.771 162.438 C134.412 162.093 135.052 161.747 135.712 161.391 C143.003 135.382 133.56 105.189 121.184 82.322 C104.652 52.924 76.768 31.04 44.42 21.731 C-5.127 8.41 -56.159 21.238 -93.288 56.391 Z " fill="#060606" transform="translate(524.28759765625,162.60888671875)"/>
<path d="M0 0 C2.269 -0.01 4.538 -0.04 6.807 -0.072 C33.352 -0.266 62.684 8.445 84.202 24.24 C85.185 24.931 86.169 25.622 87.182 26.334 C111.008 43.746 128.564 67.358 138.202 95.24 C138.444 95.891 138.687 96.543 138.937 97.213 C143.021 108.404 143.678 119.437 143.702 131.24 C143.706 131.95 143.711 132.66 143.715 133.392 C143.738 142.068 143.079 149.999 140.202 158.24 C139.779 159.452 139.356 160.664 138.92 161.912 C138.518 162.928 138.116 163.944 137.702 164.99 C137.275 166.072 136.848 167.153 136.409 168.268 C135.05 171.613 133.661 174.937 132.202 178.24 C131.542 178.24 130.882 178.24 130.202 178.24 C128.756 176.771 128.756 176.771 127.077 174.74 C113.058 158.429 93.696 145.988 72.202 142.24 C71.203 142.065 70.204 141.89 69.174 141.709 C63.575 140.934 57.907 140.873 52.264 140.678 C50.523 140.613 50.523 140.613 48.747 140.547 C45.898 140.441 43.05 140.339 40.202 140.24 C40.192 139.648 40.183 139.056 40.173 138.446 C39.457 101.989 29.274 63.741 3.069 36.986 C-10.791 23.712 -29.682 14 -48.798 11.24 C-46.064 9.014 -43.72 7.687 -40.349 6.67 C-39.5 6.413 -38.651 6.157 -37.777 5.893 C-36.897 5.636 -36.017 5.38 -35.111 5.115 C-34.25 4.851 -33.39 4.587 -32.503 4.314 C-26.908 2.653 -21.603 1.798 -15.798 1.24 C-11.268 -1.025 -5.041 0.013 0 0 Z " fill="#FDFDFD" transform="translate(760.79833984375,310.759765625)"/>
</svg>