<svg version="1.1" xmlns="http://www.w3.org/2000/svg" width="1024" height="1024">
<path d="M0 0 C337.92 0 675.84 0 1024 0 C1024 337.92 1024 675.84 1024 1024 C686.08 1024 348.16 1024 0 1024 C0 686.08 0 348.16 0 0 Z " fill="#FEFEFE" transform="translate(0,0)"/>
<path d="M0 0 C2.774 2.189 5.371 4.47 7.953 6.883 C8.484 7.378 9.015 7.874 9.562 8.384 C20.233 18.433 27.733 29.111 34.953 41.883 C37.39 41.612 37.39 41.612 39.953 40.883 C42.233 38.007 42.233 38.007 42.168 34.457 C42.953 30.883 42.953 30.883 45.832 28.59 C47.046 27.932 48.275 27.302 49.516 26.695 C50.157 26.359 50.799 26.022 51.461 25.675 C53.282 24.725 55.117 23.803 56.953 22.883 C57.696 22.469 58.438 22.055 59.203 21.629 C77.594 11.522 106.29 10.327 126.453 15.508 C128.639 16.245 130.807 17.037 132.953 17.883 C134.217 18.337 135.481 18.788 136.746 19.238 C158.854 27.347 178.287 42.52 188.953 63.883 C198.596 84.897 201.425 106.73 193.953 128.883 C192.653 132.082 191.309 135.222 189.809 138.332 C188.818 141.286 189.086 142.93 189.953 145.883 C194.604 146.152 194.604 146.152 198.953 144.883 C207.262 143.724 213.593 146.262 220.953 149.883 C222.042 150.414 223.132 150.945 224.254 151.492 C231.53 155.22 237.842 159.46 243.953 164.883 C244.93 165.718 244.93 165.718 245.926 166.57 C265.698 184.759 277.773 213.683 279.122 240.194 C279.588 254.65 279.528 268.814 275.953 282.883 C275.675 283.988 275.396 285.092 275.109 286.23 C266.963 315.129 250.077 340.898 223.716 355.964 C212.371 362.235 200.895 365.896 187.953 366.883 C187.913 367.602 187.874 368.322 187.833 369.063 C186.299 395.537 186.299 395.537 181.953 405.883 C181.699 406.513 181.444 407.144 181.182 407.793 C175.845 420.982 169.392 432.132 159.953 442.883 C159.276 443.656 158.6 444.43 157.902 445.227 C143.525 460.606 122.281 470.247 101.891 474.508 C100.765 474.748 99.64 474.987 98.48 475.234 C61.619 482.011 19.512 475.794 -11.703 454.316 C-15.35 451.706 -18.888 448.971 -22.359 446.133 C-23.196 445.461 -23.196 445.461 -24.05 444.776 C-26.418 442.764 -27.911 441.289 -28.906 438.312 C-29.034 436.106 -29.084 433.965 -28.984 431.758 C-28.698 427.819 -28.698 427.819 -31.047 424.883 C-34.394 425.169 -35.751 425.576 -38.117 428.035 C-38.795 428.954 -39.473 429.873 -40.172 430.82 C-56.739 451.918 -81.791 464.657 -108.047 468.883 C-113.181 469.294 -118.273 469.36 -123.422 469.32 C-124.099 469.318 -124.776 469.315 -125.474 469.312 C-135.871 469.249 -145.245 468.511 -155.047 464.883 C-156.088 464.521 -157.13 464.158 -158.203 463.785 C-176.767 456.728 -194.162 443.294 -205.109 426.695 C-205.492 426.125 -205.874 425.555 -206.268 424.968 C-208.201 421.897 -209.07 419.709 -209.543 416.082 C-209.714 412.869 -209.714 412.869 -211.742 411.285 C-215.131 410.694 -216.89 411.877 -219.922 413.445 C-243.722 425.067 -269.537 429.195 -295.047 420.883 C-296.05 420.571 -297.053 420.259 -298.086 419.938 C-320.603 412.39 -338.155 395.688 -348.641 374.691 C-352.047 367.434 -352.047 367.434 -352.047 364.883 C-352.872 364.899 -353.697 364.914 -354.547 364.93 C-387.073 365.468 -415.496 361.184 -440.047 337.883 C-456.641 321.698 -465.882 300.071 -466.398 277.005 C-466.472 267.201 -466.085 258.26 -463.047 248.883 C-462.78 247.933 -462.513 246.983 -462.238 246.004 C-458.142 232.332 -451.606 220.461 -442.047 209.883 C-441.349 209.044 -440.652 208.204 -439.934 207.34 C-426.783 191.833 -406.072 178.211 -385.465 176.43 C-381.327 176.14 -377.194 175.982 -373.047 175.883 C-372.931 171.856 -372.845 168.68 -374.547 165.008 C-379.566 150.887 -375.393 134.616 -369.209 121.598 C-363.807 110.711 -357.401 101.739 -349.047 92.883 C-348.494 92.265 -347.941 91.648 -347.371 91.012 C-330.109 72.465 -302.503 62.404 -277.689 61.498 C-266.14 61.272 -255.972 63.256 -245.047 66.883 C-244.039 67.205 -243.031 67.527 -241.992 67.859 C-236.37 69.873 -231.951 72.895 -227.273 76.59 C-225.177 78.097 -225.177 78.097 -222.997 77.681 C-222.353 77.417 -221.71 77.154 -221.047 76.883 C-219.936 74.169 -219.088 71.627 -218.297 68.82 C-212.474 49.951 -202.722 34.147 -189.047 19.883 C-188.239 19 -187.43 18.117 -186.598 17.207 C-140.784 -31.209 -54.157 -37.632 0 0 Z " fill="#FEFEFE" transform="translate(597.046875,272.1171875)"/>
<path d="M0 0 C9.372 8.226 17.908 17.038 24.726 27.515 C25.19 27.247 25.654 26.978 26.132 26.702 C28.647 25.276 31.182 23.891 33.726 22.515 C34.299 22.204 34.873 21.893 35.464 21.573 C60.651 8.077 90.987 2.305 119.056 10.167 C135.78 15.231 150.148 22.525 163.726 33.515 C164.741 34.317 164.741 34.317 165.776 35.136 C184.617 50.551 196.587 74.83 200.726 98.515 C201.698 113.264 201.137 127.376 196.726 141.515 C197.752 141.635 198.778 141.754 199.835 141.878 C223.646 145.775 245.274 164.343 259.101 183.39 C274.542 205.526 283.166 232.005 282.931 258.915 C282.913 261.078 282.911 263.24 282.911 265.403 C282.84 295.277 275.121 324.507 256.726 348.515 C255.997 349.493 255.269 350.471 254.519 351.479 C237.836 372.911 215.553 384.655 189.726 391.515 C189.639 392.628 189.553 393.742 189.464 394.89 C188.516 405.683 186.484 415.364 182.726 425.515 C182.477 426.204 182.228 426.894 181.972 427.604 C176.308 443.09 168.407 456.763 156.726 468.515 C155.859 469.402 154.993 470.288 154.101 471.202 C153.317 471.965 152.533 472.728 151.726 473.515 C151.264 474.021 150.803 474.528 150.327 475.05 C129.712 497.123 95.262 507.695 65.933 508.858 C24.658 509.764 -12.923 496.327 -44.274 469.515 C-45.502 468.492 -46.731 467.471 -47.962 466.452 C-48.725 465.813 -49.488 465.173 -50.274 464.515 C-51.182 465.319 -52.089 466.123 -53.024 466.952 C-80.396 490.226 -110.239 500.734 -146.274 498.515 C-176.651 495.045 -204.445 480.33 -223.637 456.287 C-226.814 452.187 -229.575 448.45 -231.274 443.515 C-232.339 443.913 -233.404 444.311 -234.501 444.722 C-263.941 455.542 -294.195 457.442 -323.353 444.599 C-347.536 433.164 -363.733 415.206 -375.274 391.515 C-376.114 391.511 -376.954 391.506 -377.819 391.502 C-415.05 391.184 -443.722 382.026 -470.606 355.187 C-487.556 337.284 -496.696 313.101 -496.524 288.64 C-496.532 287.545 -496.54 286.451 -496.548 285.323 C-496.484 258.22 -485.859 232.931 -468.274 212.515 C-467.497 211.576 -466.72 210.638 -465.919 209.671 C-450.61 191.89 -427.029 175.851 -403.274 173.515 C-403.295 172.866 -403.316 172.218 -403.338 171.55 C-403.702 158.549 -403.828 146.854 -399.274 134.515 C-398.889 133.463 -398.504 132.411 -398.106 131.327 C-386.434 101.711 -363.885 79.797 -335.274 66.515 C-330.676 64.565 -326.05 62.973 -321.274 61.515 C-320.109 61.121 -318.944 60.728 -317.743 60.323 C-299.327 54.676 -274.273 54.757 -256.274 61.515 C-255.585 61.771 -254.895 62.028 -254.185 62.293 C-249.834 63.93 -245.543 65.675 -241.274 67.515 C-241.18 66.852 -241.086 66.189 -240.989 65.507 C-233.946 36.025 -207.234 9.793 -182.352 -5.681 C-128.132 -38.41 -50.475 -42.548 0 0 Z M-140.149 -5.86 C-140.971 -5.61 -141.793 -5.36 -142.639 -5.102 C-155.996 -0.845 -168.823 5.424 -180.274 13.515 C-181.643 14.441 -181.643 14.441 -183.04 15.386 C-206.403 31.908 -223.436 55.301 -231.198 82.84 C-231.853 85.042 -231.853 85.042 -233.274 88.515 C-235.237 89.308 -235.237 89.308 -237.274 89.515 C-239.29 88.292 -239.29 88.292 -241.524 86.452 C-248.202 81.525 -255.441 79.02 -263.274 76.515 C-264.324 76.172 -265.373 75.829 -266.454 75.476 C-289.923 68.953 -316.623 74.827 -337.524 86.265 C-344.724 90.345 -351.199 94.863 -357.274 100.515 C-358.219 101.391 -359.164 102.268 -360.138 103.171 C-373.427 115.818 -382.877 131.676 -387.274 149.515 C-387.466 150.291 -387.659 151.067 -387.856 151.866 C-389.196 160.356 -389.604 170.534 -385.931 178.46 C-384.966 181.48 -385.184 184.371 -385.274 187.515 C-386.889 187.553 -386.889 187.553 -388.536 187.593 C-413.56 188.445 -433.404 199.919 -451.028 217.218 C-453.223 219.58 -455.275 221.986 -457.274 224.515 C-458.172 225.642 -458.172 225.642 -459.087 226.792 C-474.85 247.938 -481.261 273.82 -477.97 299.932 C-477.146 304.599 -475.813 309.029 -474.274 313.515 C-473.953 314.471 -473.953 314.471 -473.625 315.446 C-466.21 337.06 -450.489 355.615 -429.963 365.851 C-413.151 373.829 -397.096 376.877 -378.524 376.64 C-377.134 376.63 -375.743 376.62 -374.353 376.612 C-370.993 376.589 -367.634 376.556 -364.274 376.515 C-363.997 377.393 -363.997 377.393 -363.715 378.29 C-356.496 400.653 -339.958 417.236 -319.505 427.968 C-297.777 438.53 -272.26 439.578 -249.274 432.515 C-243.462 430.423 -237.842 427.934 -232.229 425.365 C-229.632 424.235 -226.979 423.348 -224.274 422.515 C-222.274 424.515 -222.274 424.515 -221.712 428.327 C-218.473 443.754 -202.163 457.236 -189.614 465.487 C-166.015 479.812 -137.611 485.163 -110.399 478.952 C-107.647 478.251 -104.962 477.43 -102.274 476.515 C-101.562 476.273 -100.849 476.032 -100.115 475.783 C-78.973 468.349 -60.484 454.678 -47.274 436.515 C-44.837 436.89 -44.837 436.89 -42.274 437.515 C-40.665 440.733 -41.422 444.154 -41.63 447.69 C-40.792 454.345 -34.288 458.249 -29.317 462.135 C-2.771 482.267 27.884 488.589 60.538 488.765 C61.729 488.774 62.921 488.783 64.148 488.793 C75.9 488.751 87.296 487.374 98.538 483.89 C99.381 483.63 100.223 483.371 101.091 483.104 C128.991 474.183 150.311 457.156 163.997 431.001 C170.659 417.937 174.017 405.469 174.913 390.827 C174.995 389.637 175.077 388.446 175.161 387.22 C175.359 384.319 175.547 381.417 175.726 378.515 C176.636 378.423 177.545 378.332 178.483 378.238 C200.443 375.881 219.472 365.157 234.726 349.515 C235.4 348.838 236.074 348.161 236.769 347.464 C246.159 337.429 252.318 325.001 257.726 312.515 C258.31 311.242 258.31 311.242 258.905 309.944 C271.037 282.2 270.271 246.39 259.507 218.465 C254.915 207.006 249.732 196.996 241.726 187.515 C240.97 186.62 240.215 185.725 239.437 184.804 C227.828 171.519 213.532 162.117 196.726 156.515 C195.04 156.422 193.351 156.385 191.663 156.39 C190.785 156.387 189.907 156.384 189.003 156.382 C186.694 156.366 186.694 156.366 184.726 157.515 C182.393 157.555 180.059 157.558 177.726 157.515 C176.471 153.242 177 151.169 178.913 147.202 C187.893 126.609 188.387 105.181 180.418 84.102 C170.571 59.35 152.559 43.364 128.726 32.515 C127.806 32.092 126.887 31.669 125.94 31.233 C114.923 26.504 103.922 25.048 91.995 25.233 C89.963 25.265 87.933 25.274 85.901 25.28 C75.772 25.36 66.656 25.819 57.038 29.077 C56.267 29.335 55.496 29.593 54.702 29.859 C46.005 32.913 38.382 37.411 30.726 42.515 C30.004 44.635 30.004 44.635 29.663 47.015 C28.931 51.309 28.931 51.309 26.726 53.515 C24.354 53.593 24.354 53.593 21.726 52.515 C20.158 50.096 18.91 47.84 17.663 45.265 C13.507 37.293 8.433 31.178 2.08 24.872 C0.904 23.693 -0.232 22.474 -1.36 21.249 C-15.294 6.316 -35.73 -2.616 -55.274 -7.485 C-56.018 -7.68 -56.762 -7.875 -57.528 -8.075 C-70.152 -11.262 -82.635 -11.878 -95.587 -11.923 C-96.338 -11.929 -97.089 -11.935 -97.862 -11.942 C-112.321 -12.018 -126.289 -10.115 -140.149 -5.86 Z " fill="#050506" transform="translate(609.2744140625,260.4853515625)"/>
</svg>