<svg version="1.1" xmlns="http://www.w3.org/2000/svg" width="1024" height="1024">
<path d="M0 0 C337.92 0 675.84 0 1024 0 C1024 337.92 1024 675.84 1024 1024 C686.08 1024 348.16 1024 0 1024 C0 686.08 0 348.16 0 0 Z " fill="#FEFEFE" transform="translate(0,0)"/>
<path d="M0 0 C1.194 -0.015 2.389 -0.031 3.619 -0.047 C14.879 0.002 24.359 3.189 34.312 8.25 C35.325 8.76 35.325 8.76 36.359 9.28 C42.237 12.339 47.217 16.127 52.188 20.5 C53.849 21.84 55.514 23.175 57.188 24.5 C48.249 11.981 48.249 11.981 35.047 5.086 C33.094 4.891 31.141 4.695 29.188 4.5 C29.517 3.84 29.848 3.18 30.188 2.5 C39.21 1.663 45.12 2.683 52.188 8.5 C60.729 16.441 65.78 24.681 67.656 36.176 C68.476 39.762 70.257 42.386 72.188 45.5 C73.674 49.34 73.255 53.438 73.188 57.5 C73.868 57.706 74.549 57.913 75.25 58.125 C81.644 61.118 86.001 65.67 89.254 71.91 C90.958 76.639 91.095 81.511 91.188 86.5 C91.753 76.472 90.76 69.166 85.375 60.625 C82.553 57.884 79.677 56.312 76.188 54.5 C76.517 53.84 76.848 53.18 77.188 52.5 C80.822 51.97 83.017 51.806 86.223 53.707 C92.457 58.836 98.572 66.529 99.426 74.812 C99.73 85.825 96.33 94.191 89.188 102.5 C89.827 102.644 90.466 102.789 91.125 102.938 C93.188 103.5 93.188 103.5 94.188 104.5 C93.745 111.878 91.146 116.969 85.75 121.812 C83.082 124.072 80.468 125.302 77.188 126.5 C77.327 129.729 77.475 132.958 77.625 136.188 C77.664 137.1 77.704 138.012 77.744 138.951 C77.786 139.837 77.828 140.724 77.871 141.637 C77.908 142.448 77.944 143.26 77.982 144.096 C78.198 146.621 78.646 149.026 79.188 151.5 C79.626 151.139 80.064 150.778 80.516 150.406 C86.52 146.013 91.886 145.434 99.188 146.5 C104.896 148.265 108.347 152.441 111.188 157.5 C114.074 166.159 113.126 175.721 109.312 183.875 C103.743 193.702 96.101 201.843 85.188 205.5 C81.562 205.812 81.562 205.812 79.188 205.5 C79.209 206.493 79.231 207.485 79.254 208.508 C78.862 232.058 68.534 250.727 52.051 267.047 C49.171 269.514 46.316 271.241 43 273.062 C40.248 274.543 40.248 274.543 38.188 276.5 C37.277 280.006 37.484 282.969 38.188 286.5 C38.854 286.067 39.52 285.634 40.207 285.188 C46.929 281.126 52.311 279.048 60.188 280.5 C68.747 284.537 72.735 291.98 76.109 300.438 C77.281 303.766 78.252 307.099 79.188 310.5 C79.982 310.595 80.777 310.69 81.596 310.788 C109.761 314.223 127.95 318.132 146.254 341.355 C153.592 350.805 160.593 360.503 167.558 370.229 C169.733 373.26 171.923 376.281 174.113 379.301 C176.288 382.306 178.456 385.317 180.623 388.328 C181.635 389.733 182.649 391.137 183.666 392.539 C192.373 404.557 200.377 416.987 208.304 429.53 C209.983 432.178 211.678 434.814 213.383 437.445 C220.343 448.234 226.656 459.323 232.871 470.555 C235.618 475.509 238.462 480.392 241.375 485.25 C245.19 491.642 248.73 498.158 252.188 504.75 C252.657 505.644 253.126 506.539 253.61 507.46 C258.309 516.507 261.235 524.005 258.418 534.316 C251.695 551.396 240.872 567.082 231.091 582.498 C229.28 585.354 227.477 588.215 225.676 591.078 C222.211 596.572 218.707 602.041 215.188 607.5 C214.202 609.034 214.202 609.034 213.197 610.599 C191.87 643.684 191.87 643.684 180.188 649.5 C176.778 649.898 174.424 649.925 171.188 648.812 C169.153 648.278 169.153 648.278 167.484 649.504 C166.974 650.018 166.463 650.533 165.938 651.062 C165.417 651.559 164.896 652.055 164.359 652.566 C162.085 656.319 163.062 659.945 163.992 664.051 C164.345 665.292 164.699 666.534 165.062 667.812 C165.433 669.151 165.803 670.489 166.172 671.828 C166.507 673.04 166.842 674.252 167.188 675.5 C168.886 682.086 169.834 688.72 170.723 695.461 C171.105 698.535 171.105 698.535 172.188 701.5 C172.465 704.787 172.465 708.078 172.5 711.375 C172.544 712.723 172.544 712.723 172.588 714.098 C172.628 718.276 172.578 720.818 170.469 724.5 C161.878 732.032 147.057 732.697 136.188 734.5 C136.575 735.719 136.575 735.719 136.97 736.963 C139.62 745.696 141.314 754.303 142.516 763.344 C142.806 765.511 143.116 767.674 143.43 769.838 C145.427 784.413 146.168 798.719 147.188 813.5 C66.337 813.5 -14.513 813.5 -97.812 813.5 C-97.812 762.5 -97.812 762.5 -95.812 739.5 C-98.452 738.84 -101.092 738.18 -103.812 737.5 C-106.682 736.394 -109.385 735.017 -112.125 733.625 C-112.827 733.286 -113.529 732.947 -114.252 732.598 C-119.201 730.116 -121.665 728.049 -123.977 722.914 C-125.129 718.206 -125.194 713.707 -125.188 708.875 C-125.189 707.869 -125.19 706.863 -125.191 705.826 C-125.072 697.156 -123.677 689.067 -121.688 680.652 C-120.909 677.18 -120.336 674.07 -120.812 670.5 C-122.336 668.467 -122.336 668.467 -124.5 666.938 C-127.068 664.904 -129.393 662.955 -131.562 660.5 C-132.305 659.84 -133.048 659.18 -133.812 658.5 C-137.143 658.832 -138.909 660.203 -141.312 662.438 C-144.522 665.406 -147.076 667.461 -151.562 667.562 C-163.866 663.54 -173.26 648.13 -180.965 638.16 C-182.864 635.704 -184.793 633.278 -186.754 630.871 C-197.585 617.58 -207.188 603.519 -216.735 589.291 C-217.604 587.995 -218.475 586.7 -219.347 585.406 C-241.145 553.03 -241.145 553.03 -238.812 533.5 C-232.183 504.569 -210.137 476.613 -194.363 451.934 C-192.682 449.294 -191.012 446.648 -189.344 444 C-182.82 433.663 -176.19 423.433 -169.165 413.429 C-167.778 411.45 -166.402 409.464 -165.027 407.477 C-151.555 388.093 -137.103 369.208 -121.965 351.09 C-120.546 349.382 -119.162 347.645 -117.816 345.879 C-103.919 328.618 -75.273 323.252 -54.812 317.5 C-54.703 316.377 -54.593 315.254 -54.48 314.098 C-52.493 294.85 -52.493 294.85 -47.562 288.688 C-41.819 284.119 -37.762 281.658 -30.32 281.988 C-25.896 282.891 -22.682 285.036 -19.812 288.5 C-18.938 292.312 -18.938 292.312 -18.812 295.5 C-18.153 295.83 -17.493 296.16 -16.812 296.5 C-17.04 293.705 -17.293 290.916 -17.562 288.125 C-17.624 287.331 -17.686 286.537 -17.75 285.719 C-18.04 281.242 -18.04 281.242 -20.715 277.938 C-23.614 277.333 -25.915 277.932 -28.812 278.5 C-29.885 278.459 -30.957 278.418 -32.062 278.375 C-39.704 278.63 -45.862 281.067 -52.023 285.512 C-57.099 291.152 -58.7 298.228 -60.062 305.5 C-60.322 306.805 -60.322 306.805 -60.586 308.137 C-61.005 310.256 -61.41 312.378 -61.812 314.5 C-62.344 314.664 -62.875 314.829 -63.422 314.998 C-68.991 316.722 -74.555 318.46 -80.117 320.207 C-82.188 320.855 -84.261 321.5 -86.335 322.141 C-89.329 323.068 -92.319 324.007 -95.309 324.949 C-96.225 325.23 -97.141 325.51 -98.084 325.799 C-112.32 330.326 -120.192 337.907 -128.875 349.75 C-129.523 350.625 -130.171 351.5 -130.838 352.401 C-132.18 354.214 -133.519 356.03 -134.856 357.847 C-136.684 360.325 -138.525 362.793 -140.371 365.258 C-149.214 377.096 -157.579 389.232 -165.812 401.5 C-166.524 402.56 -166.524 402.56 -167.25 403.641 C-171.083 409.361 -174.893 415.096 -178.668 420.855 C-184.037 429.018 -189.574 436.96 -195.508 444.722 C-199.61 450.128 -203.292 455.736 -206.898 461.48 C-209.081 464.923 -211.393 468.222 -213.812 471.5 C-216.067 467.87 -216.273 464.273 -216.523 460.113 C-216.576 459.34 -216.629 458.567 -216.684 457.77 C-216.861 455.118 -217.025 452.466 -217.188 449.812 C-217.311 447.898 -217.435 445.983 -217.558 444.069 C-219.075 419.98 -220.182 395.865 -221.327 371.757 C-221.493 368.27 -221.66 364.783 -221.827 361.295 C-221.942 358.883 -222.054 356.471 -222.166 354.059 C-222.512 346.734 -222.946 339.431 -223.594 332.124 C-223.919 328.228 -224.09 324.332 -224.242 320.426 C-224.314 318.716 -224.387 317.006 -224.459 315.295 C-224.496 314.405 -224.533 313.515 -224.571 312.598 C-225.282 295.592 -226.212 278.61 -227.312 261.625 C-228.63 241.241 -229.491 220.855 -230.166 200.44 C-230.238 198.279 -230.31 196.118 -230.383 193.957 C-230.417 192.921 -230.451 191.885 -230.487 190.818 C-230.664 185.739 -230.921 180.693 -231.363 175.629 C-232.257 164.332 -231.916 152.948 -231.875 141.625 C-231.87 139.184 -231.865 136.742 -231.861 134.301 C-231.85 128.367 -231.834 122.434 -231.812 116.5 C-227.476 113.813 -224.356 112.025 -219.18 111.707 C-218.139 111.635 -217.098 111.562 -216.025 111.488 C-214.373 111.401 -214.373 111.401 -212.688 111.312 C-210.939 111.203 -210.939 111.203 -209.154 111.09 C-206.791 110.945 -204.426 110.808 -202.062 110.679 C-199.343 110.529 -196.629 110.353 -193.914 110.16 C-174.599 108.9 -155.158 109.413 -135.812 109.5 C-135.631 110.296 -135.449 111.092 -135.262 111.912 C-131.335 128.456 -122.384 139.909 -108.023 148.84 C-106.493 149.764 -104.948 150.663 -103.387 151.533 C-98.021 154.694 -98.021 154.694 -96.82 159.328 C-96.818 160.375 -96.815 161.422 -96.812 162.5 C-97.681 162.924 -98.55 163.348 -99.445 163.785 C-107.691 167.982 -113.082 171.676 -117.688 179.812 C-120.144 187.865 -119.255 195.85 -115.812 203.5 C-109.89 213.782 -101.785 220.518 -90.73 224.754 C-87.674 225.535 -84.796 225.823 -81.66 226.072 C-72.72 226.808 -72.72 226.808 -69.922 228.941 C-68.591 231.067 -67.715 233.159 -66.812 235.5 C-59.684 250.143 -50.66 261.696 -36.812 270.5 C-35.822 270.83 -34.832 271.16 -33.812 271.5 C-34.465 270.981 -35.117 270.461 -35.789 269.926 C-36.663 269.228 -37.537 268.531 -38.438 267.812 C-39.296 267.128 -40.155 266.444 -41.039 265.738 C-41.954 265 -42.87 264.261 -43.812 263.5 C-44.812 262.716 -45.811 261.933 -46.84 261.125 C-49.926 258.4 -52.384 255.529 -54.75 252.188 C-55.175 251.589 -55.601 250.991 -56.039 250.375 C-61.684 242.13 -66.564 232.487 -67.812 222.5 C-68.803 222.83 -69.793 223.16 -70.812 223.5 C-82.341 224.713 -90.032 222.323 -99.383 215.672 C-105.856 210.417 -109.203 204.329 -111.812 196.5 C-112.485 187.693 -111.69 179.49 -105.812 172.5 C-100.758 168.58 -96.834 167.941 -90.48 168.16 C-86.782 168.631 -84.092 169.751 -80.812 171.5 C-85.583 158.507 -91.236 150.993 -102.812 143.5 C-110.557 138.366 -116.563 133.22 -121.812 125.5 C-122.341 124.765 -122.87 124.03 -123.414 123.273 C-126.784 117.795 -127.288 112.665 -127.375 106.375 C-127.39 105.623 -127.405 104.871 -127.42 104.096 C-127.294 97.244 -125.052 92.237 -120.734 86.961 C-116.005 82.419 -111.202 78.245 -105.812 74.5 C-112.674 74.852 -117.86 78.573 -122.617 83.289 C-126.894 88.459 -128.452 94.008 -129.812 100.5 C-130.472 100.5 -131.132 100.5 -131.812 100.5 C-134.345 96.701 -134.613 93.884 -133.812 89.5 C-128.976 76.847 -119.567 70.3 -107.812 64.5 C-107.812 63.874 -107.812 63.247 -107.812 62.602 C-107.812 59.568 -107.812 56.534 -107.812 53.5 C-109.132 56.14 -110.452 58.78 -111.812 61.5 C-112.472 61.5 -113.132 61.5 -113.812 61.5 C-114.308 58.035 -114.308 58.035 -114.812 54.5 C-118.128 58.885 -119.362 61.875 -119.812 67.5 C-121.298 67.995 -121.298 67.995 -122.812 68.5 C-124.07 63.471 -124.064 60.169 -121.48 55.602 C-114.245 46.485 -98.996 37.417 -87.812 34.5 C-84.156 34.199 -84.156 34.199 -80.312 34.188 C-79.044 34.171 -77.776 34.154 -76.469 34.137 C-72.591 34.522 -70.152 35.547 -66.812 37.5 C-66.936 36.696 -67.06 35.891 -67.188 35.062 C-66.34 27.008 -60.041 21.225 -54.098 16.215 C-50.843 13.773 -47.567 12.042 -43.812 10.5 C-42.937 10.14 -42.062 9.781 -41.16 9.41 C-39.416 8.707 -37.667 8.013 -35.914 7.332 C-33.803 6.531 -33.803 6.531 -31.812 5.5 C-29.74 5.303 -27.669 5.183 -25.59 5.074 C-22.924 4.523 -21.259 3.726 -18.867 2.488 C-12.725 -0.337 -6.653 -0.085 0 0 Z " fill="#040404" transform="translate(386.8125,210.5)"/>
<path d="M0 0 C4.444 -0.015 8.888 -0.041 13.332 -0.091 C17.734 -0.14 22.137 -0.165 26.54 -0.172 C28.195 -0.179 29.849 -0.194 31.504 -0.218 C33.787 -0.25 36.068 -0.25 38.352 -0.242 C40.29 -0.255 40.29 -0.255 42.267 -0.267 C45.518 0.341 45.518 0.341 47.903 2.628 C60.203 23.299 53.707 69.287 54.319 93.601 C54.971 119.405 55.843 145.194 56.956 170.982 C56.987 171.714 57.019 172.447 57.051 173.202 C57.467 182.844 57.892 192.487 58.32 202.129 C61.415 271.863 61.415 271.863 62.574 304.38 C62.659 306.782 62.747 309.185 62.835 311.588 C63.288 323.947 63.61 336.303 63.694 348.67 C63.714 350.316 63.714 350.316 63.735 351.995 C63.738 353.016 63.74 354.037 63.742 355.089 C63.747 355.985 63.753 356.88 63.758 357.804 C63.488 360.655 62.771 362.773 61.518 365.341 C56.063 369.293 49.353 370.103 42.811 370.556 C41.874 370.631 40.938 370.705 39.972 370.782 C26.948 371.726 13.882 371.77 0.831 371.904 C-3.046 371.948 -6.922 371.995 -10.798 372.046 C-13.184 372.078 -15.571 372.105 -17.957 372.127 C-22.883 372.188 -27.74 372.322 -32.64 372.839 C-39.862 373.559 -47.093 373.543 -54.344 373.601 C-57.001 373.623 -59.659 373.65 -62.316 373.678 C-67.976 373.737 -73.635 373.79 -79.294 373.841 C-86.718 373.909 -94.141 373.98 -101.564 374.06 C-102.901 374.074 -102.901 374.074 -104.265 374.089 C-116.631 374.226 -128.973 374.501 -141.321 375.22 C-145.248 375.44 -149.178 375.606 -153.107 375.779 C-153.797 375.826 -154.488 375.873 -155.199 375.922 C-157.146 375.962 -157.146 375.962 -160.482 375.341 C-164.482 370.624 -164.482 370.624 -164.482 367.341 C-153.94 367.023 -143.399 366.711 -132.857 366.404 C-131.672 366.369 -131.672 366.369 -130.464 366.334 C-106.598 365.639 -82.734 365.049 -58.86 364.683 C-56.86 364.651 -54.861 364.62 -52.861 364.587 C-51.874 364.571 -50.887 364.555 -49.871 364.539 C-43.088 364.418 -36.311 364.203 -29.532 363.957 C-11.78 363.318 5.944 363.218 23.705 363.272 C27.542 363.283 31.379 363.287 35.215 363.292 C42.65 363.303 50.084 363.32 57.518 363.341 C57.518 358.391 57.518 353.441 57.518 348.341 C55.797 348.473 54.076 348.606 52.302 348.742 C34.401 350.074 16.52 350.845 -1.424 351.319 C-5.114 351.418 -8.804 351.524 -12.494 351.629 C-19.446 351.827 -26.399 352.02 -33.351 352.21 C-45.819 352.551 -58.288 352.898 -70.756 353.252 C-75.11 353.375 -79.464 353.495 -83.818 353.613 C-85.873 353.668 -87.928 353.725 -89.984 353.783 C-92.466 353.853 -94.949 353.92 -97.431 353.985 C-104.407 354.185 -111.346 354.573 -118.304 355.113 C-126.712 355.716 -135.145 355.805 -143.571 355.911 C-145.86 355.948 -148.148 356.003 -150.436 356.075 C-153.775 356.178 -157.11 356.223 -160.451 356.255 C-161.469 356.298 -162.488 356.342 -163.538 356.386 C-170.446 356.368 -170.446 356.368 -173.369 353.47 C-174.924 351.158 -176.221 348.824 -177.482 346.341 C-178.129 345.366 -178.775 344.391 -179.441 343.386 C-180.004 342.536 -180.566 341.686 -181.146 340.81 C-189.074 328.852 -197.077 316.97 -205.482 305.341 C-206.031 304.58 -206.579 303.819 -207.145 303.034 C-214.816 292.419 -222.768 282.105 -231.11 272.009 C-232.924 269.804 -234.705 267.575 -236.482 265.341 C-240.52 260.276 -244.611 255.254 -248.7 250.23 C-251.691 246.555 -254.663 242.867 -257.607 239.154 C-258.897 237.548 -260.189 235.944 -261.482 234.341 C-261.902 233.813 -262.322 233.286 -262.754 232.742 C-273.136 219.753 -281.68 214.41 -298.462 212.392 C-300.864 212.137 -303.266 211.891 -305.669 211.654 C-307.527 211.459 -307.527 211.459 -309.421 211.261 C-312.441 210.946 -315.461 210.64 -318.482 210.341 C-318.965 209.153 -318.965 209.153 -319.457 207.94 C-326.118 191.001 -326.118 191.001 -339.482 179.341 C-342.361 179.108 -345.223 178.921 -348.107 178.779 C-349.31 178.714 -349.31 178.714 -350.537 178.648 C-352.518 178.542 -354.5 178.441 -356.482 178.341 C-353.43 175.239 -350.32 172.255 -347.08 169.347 C-332.719 156.436 -323.239 141.539 -319.482 122.341 C-319.438 121.462 -319.394 120.583 -319.349 119.677 C-319.142 116.774 -318.837 114.936 -317.482 112.341 C-314.154 109.708 -310.693 107.611 -307.033 105.482 C-296.038 99.054 -288.38 87.089 -284.794 75.029 C-283.879 67.158 -283.652 60.01 -288.482 53.341 C-294.759 47.227 -301.534 44.234 -309.927 42.032 C-312.482 41.341 -312.482 41.341 -313.482 40.341 C-313.554 38.822 -313.566 37.299 -313.544 35.779 C-313.535 34.952 -313.526 34.126 -313.517 33.275 C-313.505 32.637 -313.494 31.998 -313.482 31.341 C-312.492 31.011 -311.502 30.681 -310.482 30.341 C-310.399 29.681 -310.317 29.021 -310.232 28.341 C-309.422 25.101 -308.142 22.593 -306.517 19.697 C-305.556 17.509 -304.979 15.508 -304.417 13.194 C-304.109 11.922 -303.8 10.651 -303.482 9.341 C-291.891 8.649 -280.31 8.123 -268.702 7.8 C-267.114 7.754 -265.526 7.708 -263.938 7.662 C-260.551 7.563 -257.165 7.466 -253.778 7.37 C-248.366 7.217 -242.953 7.06 -237.54 6.902 C-224.073 6.511 -210.606 6.124 -197.139 5.738 C-183.96 5.36 -170.782 4.98 -157.603 4.595 C-156.689 4.568 -155.774 4.542 -154.832 4.514 C-128.162 3.735 -101.506 2.796 -74.85 1.649 C-49.908 0.585 -24.963 0.086 0 0 Z " fill="#B2B2B2" transform="translate(789.4819145202637,307.6589546203613)"/>
<path d="M0 0 C1.67 -0.003 1.67 -0.003 3.374 -0.006 C27.494 -0.042 51.614 0.06 75.734 0.125 C75.734 57.215 75.734 114.305 75.734 173.125 C58.079 173.455 40.424 173.785 22.234 174.125 C9.695 174.378 -2.844 174.635 -15.383 174.926 C-16.639 174.955 -16.639 174.955 -17.921 174.984 C-51.874 175.772 -85.817 176.844 -119.76 177.97 C-123.844 178.106 -127.927 178.241 -132.011 178.376 C-156.704 179.192 -181.397 180.013 -206.089 180.876 C-221.744 181.423 -237.399 181.96 -253.055 182.48 C-254.304 182.522 -255.554 182.564 -256.841 182.606 C-301.326 184.079 -345.76 184.638 -390.266 184.125 C-391.423 180.652 -391.334 177.764 -391.266 174.125 C-390.305 174.359 -390.305 174.359 -389.324 174.598 C-382 176.246 -376.593 176.767 -369.953 172.75 C-352.732 160.312 -342.379 138.921 -331.237 121.366 C-326.997 114.72 -322.593 108.23 -318.016 101.812 C-298.404 75.438 -298.404 75.438 -293.266 44.125 C-296.201 34.405 -301.059 25.168 -305.775 16.214 C-308.266 11.432 -308.266 11.432 -308.266 8.125 C-285.382 6.671 -262.528 5.701 -239.604 5.18 C-235.435 5.084 -231.265 4.981 -227.096 4.879 C-225.374 4.837 -223.652 4.794 -221.93 4.752 C-221.073 4.731 -220.216 4.71 -219.333 4.689 C-216.73 4.625 -214.128 4.562 -211.525 4.5 C-200.377 4.231 -189.229 3.939 -178.082 3.625 C-177.349 3.604 -176.615 3.584 -175.86 3.562 C-175.126 3.542 -174.393 3.521 -173.637 3.5 C-172.155 3.458 -170.673 3.416 -169.191 3.375 C-168.091 3.344 -168.091 3.344 -166.969 3.312 C-154.575 2.964 -142.181 2.641 -129.786 2.321 C-125.534 2.21 -121.283 2.099 -117.031 1.986 C-78.023 0.946 -39.023 0.073 0 0 Z " fill="#B0B1B1" transform="translate(946.265625,688.875)"/>
<path d="M0 0 C0.182 0.796 0.364 1.592 0.551 2.412 C4.477 18.956 13.429 30.409 27.79 39.34 C29.319 40.264 30.865 41.163 32.425 42.033 C37.791 45.194 37.791 45.194 38.992 49.828 C38.995 50.875 38.997 51.922 39 53 C38.131 53.424 37.262 53.848 36.367 54.285 C28.122 58.482 22.731 62.176 18.125 70.312 C15.668 78.365 16.558 86.35 20 94 C25.922 104.282 34.027 111.018 45.082 115.254 C48.139 116.035 51.017 116.323 54.152 116.572 C63.092 117.308 63.092 117.308 65.891 119.441 C67.222 121.567 68.098 123.659 69 126 C77.059 142.555 87.938 156.068 105 164 C106.331 164.342 107.664 164.678 109 165 C109.99 165.66 110.98 166.32 112 167 C109.059 168.426 107.114 169.002 103.812 168.938 C96.142 169.063 89.962 171.559 83.789 176.012 C78.714 181.652 77.113 188.728 75.75 196 C75.491 197.305 75.491 197.305 75.227 198.637 C74.807 200.756 74.402 202.878 74 205 C73.469 205.164 72.938 205.329 72.39 205.498 C66.821 207.222 61.257 208.96 55.696 210.707 C53.624 211.355 51.551 212 49.478 212.641 C46.483 213.568 43.493 214.507 40.504 215.449 C39.588 215.73 38.672 216.01 37.728 216.299 C23.493 220.826 15.621 228.407 6.938 240.25 C5.966 241.562 5.966 241.562 4.975 242.901 C3.633 244.714 2.293 246.53 0.957 248.347 C-0.871 250.825 -2.712 253.293 -4.559 255.758 C-13.401 267.596 -21.766 279.732 -30 292 C-30.711 293.06 -30.711 293.06 -31.437 294.141 C-35.271 299.861 -39.081 305.596 -42.855 311.355 C-48.225 319.518 -53.761 327.46 -59.695 335.222 C-63.798 340.628 -67.479 346.236 -71.086 351.98 C-73.268 355.423 -75.58 358.722 -78 362 C-80.255 358.37 -80.46 354.773 -80.711 350.613 C-80.764 349.84 -80.817 349.067 -80.871 348.27 C-81.049 345.618 -81.212 342.966 -81.375 340.312 C-81.499 338.398 -81.622 336.483 -81.746 334.569 C-83.262 310.48 -84.37 286.365 -85.515 262.257 C-85.681 258.77 -85.848 255.283 -86.015 251.795 C-86.129 249.383 -86.241 246.971 -86.353 244.559 C-86.7 237.234 -87.133 229.931 -87.781 222.624 C-88.106 218.728 -88.277 214.832 -88.43 210.926 C-88.502 209.216 -88.574 207.506 -88.646 205.795 C-88.683 204.905 -88.72 204.015 -88.759 203.098 C-89.47 186.092 -90.4 169.11 -91.5 152.125 C-92.818 131.741 -93.679 111.355 -94.354 90.94 C-94.426 88.779 -94.498 86.618 -94.57 84.457 C-94.622 82.903 -94.622 82.903 -94.674 81.318 C-94.851 76.239 -95.108 71.193 -95.551 66.129 C-96.444 54.832 -96.103 43.448 -96.062 32.125 C-96.057 29.684 -96.053 27.242 -96.049 24.801 C-96.038 18.867 -96.021 12.934 -96 7 C-91.664 4.313 -88.543 2.525 -83.367 2.207 C-81.806 2.099 -81.806 2.099 -80.213 1.988 C-78.561 1.901 -78.561 1.901 -76.875 1.812 C-75.709 1.739 -74.543 1.666 -73.342 1.59 C-70.978 1.445 -68.614 1.308 -66.249 1.179 C-63.531 1.029 -60.817 0.853 -58.102 0.66 C-38.786 -0.6 -19.346 -0.087 0 0 Z " fill="#B1B1B1" transform="translate(251,320)"/>
<path d="M0 0 C0.33 0 0.66 0 1 0 C1.219 1.289 1.438 2.578 1.664 3.906 C1.984 5.771 2.304 7.636 2.625 9.5 C2.8 10.52 2.976 11.539 3.156 12.59 C4.202 18.604 5.298 24.605 6.461 30.598 C9.474 46.141 12.023 61.636 14.008 77.352 C14.932 84.636 16.016 91.893 17.12 99.152 C21.187 126.002 24.269 152.994 26.977 180.013 C27.627 186.489 28.339 192.953 29.121 199.414 C33.214 233.403 34.911 267.483 36.37 301.666 C36.536 305.532 36.707 309.397 36.878 313.262 C36.996 315.971 37.106 318.68 37.215 321.389 C37.778 334.636 38.969 347.654 41.633 360.668 C42.023 363.147 42.062 365.494 42 368 C33.243 370.068 24.444 371.643 15.562 373.062 C14.047 373.306 14.047 373.306 12.5 373.554 C10.424 373.881 8.346 374.199 6.267 374.509 C4.066 374.84 1.868 375.19 -0.328 375.557 C-10.796 377.179 -21.124 377.306 -31.698 377.261 C-34.693 377.25 -37.687 377.261 -40.682 377.273 C-50.306 377.279 -59.58 377.194 -69 375 C-69.242 339.874 -68.407 304.794 -66.932 269.701 C-66.012 247.476 -65.568 225.247 -65.122 203.009 C-64.498 172.014 -63.683 141.039 -62.438 110.062 C-62.405 109.257 -62.373 108.451 -62.34 107.621 C-61.964 98.246 -61.57 88.872 -61.154 79.499 C-61.018 76.416 -60.888 73.333 -60.758 70.25 C-60.217 57.901 -59.158 45.618 -58 33.312 C-57.82 31.36 -57.64 29.408 -57.461 27.455 C-56.707 19.295 -55.925 11.143 -55 3 C-54.022 3.307 -54.022 3.307 -53.023 3.621 C-51.712 4.025 -51.712 4.025 -50.375 4.438 C-49.087 4.838 -49.087 4.838 -47.773 5.246 C-36.04 8.436 -21.685 8.388 -10 5 C-9.071 4.736 -8.141 4.471 -7.184 4.199 C-4.779 3.494 -2.387 2.762 0 2 C0 1.34 0 0.68 0 0 Z " fill="#D2D3D2" transform="translate(434,561)"/>
<path d="M0 0 C-0.818 4.586 -2.448 8.534 -4.375 12.75 C-11.595 28.909 -15.19 44.362 -8.833 61.439 C-3.601 74.477 3.958 86.536 12 98 C12.903 99.305 13.805 100.609 14.707 101.914 C28.451 121.685 43.085 141.101 59.826 158.448 C62.69 161.443 65.032 164.347 67 168 C65.165 169.835 62.221 169.199 59.756 169.25 C59.095 169.264 58.435 169.279 57.754 169.295 C56.298 169.327 54.842 169.357 53.387 169.385 C51.015 169.431 48.643 169.482 46.271 169.535 C42.817 169.612 39.362 169.687 35.907 169.759 C26.569 169.956 17.232 170.17 7.895 170.391 C6.437 170.425 6.437 170.425 4.951 170.46 C-9.866 170.813 -24.677 171.267 -39.488 171.797 C-40.451 171.831 -41.413 171.865 -42.404 171.901 C-50.851 172.201 -59.298 172.505 -67.744 172.832 C-68.627 172.866 -69.51 172.9 -70.421 172.935 C-72.024 172.997 -73.628 173.06 -75.232 173.124 C-99.531 174.064 -123.645 174 -148 174 C-148 117.9 -148 61.8 -148 4 C-139.695 3.407 -131.433 2.828 -123.121 2.5 C-122.131 2.46 -121.14 2.419 -120.12 2.378 C-116.892 2.248 -113.665 2.123 -110.438 2 C-108.757 1.935 -108.757 1.935 -107.042 1.869 C-71.387 0.509 -35.683 -0.311 0 0 Z " fill="#B0B1B1" transform="translate(154,710)"/>
<path d="M0 0 C0.075 0.862 0.15 1.725 0.227 2.613 C1.834 17.535 6.515 31.122 12.562 44.812 C12.926 45.642 13.29 46.472 13.664 47.327 C15.899 52.208 18.253 56.132 22 60 C24.955 61.25 24.955 61.25 28 60 C31.879 55.621 34.56 50.287 37 45 C37.33 45 37.66 45 38 45 C38.231 51.203 38.029 57.246 37.357 63.409 C35.708 78.591 35.154 93.834 34.531 109.085 C34.436 111.401 34.339 113.718 34.241 116.035 C33.23 140.028 32.542 164.014 32.136 188.025 C32.002 195.657 31.711 203.278 31.375 210.903 C30.824 224.057 30.632 237.224 30.393 250.387 C30.233 258.784 30.04 267.164 29.52 275.547 C29.042 283.273 28.804 290.997 28.605 298.734 C28.538 301.324 28.471 303.914 28.404 306.503 C28.378 307.504 28.378 307.504 28.352 308.524 C27.665 334.886 26.593 361.208 25.073 387.536 C24.938 389.873 24.804 392.21 24.671 394.547 C24.461 398.221 24.245 401.894 24.025 405.568 C23.905 407.565 23.789 409.562 23.672 411.56 C23.598 412.75 23.525 413.941 23.449 415.167 C23.386 416.203 23.323 417.239 23.259 418.306 C23.034 420.646 22.65 422.747 22 425 C-4.225 427.119 -38.104 413.373 -59.687 399.24 C-62 397 -62 397 -62.647 394.281 C-62.655 392.728 -62.655 392.728 -62.664 391.145 C-62.674 389.977 -62.684 388.81 -62.695 387.607 C-62.672 386.355 -62.649 385.103 -62.625 383.812 C-62.612 382.52 -62.598 381.227 -62.585 379.895 C-62.165 362.548 -58.084 346.069 -53.262 329.484 C-51.789 324.36 -50.543 319.187 -49.312 314 C-49.11 313.151 -48.908 312.303 -48.699 311.429 C-47.516 306.404 -47.516 306.404 -46.557 301.333 C-45.67 296.061 -44.779 292.779 -40.875 288.875 C-40.151 288.13 -39.426 287.385 -38.68 286.617 C-38.125 286.084 -37.571 285.55 -37 285 C-38.312 281.559 -39.666 278.865 -42 276 C-41.67 275.67 -41.34 275.34 -41 275 C-40.77 273.406 -40.602 271.803 -40.459 270.199 C-40.366 269.173 -40.272 268.147 -40.176 267.09 C-40.078 265.967 -39.98 264.844 -39.879 263.688 C-39.774 262.531 -39.669 261.374 -39.561 260.182 C-39.224 256.455 -38.893 252.728 -38.562 249 C-38.129 244.146 -37.693 239.291 -37.254 234.438 C-37.147 233.253 -37.04 232.069 -36.929 230.848 C-36.356 224.593 -35.731 218.351 -34.961 212.117 C-34.195 205.88 -33.579 199.643 -33.035 193.383 C-32.955 192.464 -32.875 191.545 -32.792 190.598 C-32.465 186.832 -32.141 183.065 -31.825 179.298 C-30.797 167.097 -29.383 155.066 -27.335 142.994 C-25.146 129.977 -23.444 117.217 -24 104 C-24.99 105.32 -25.98 106.64 -27 108 C-26.995 106.927 -26.99 105.855 -26.984 104.75 C-26.966 100.696 -26.954 96.642 -26.945 92.589 C-26.94 90.848 -26.933 89.107 -26.925 87.367 C-26.616 65.626 -26.616 65.626 -30.625 44.375 C-30.886 43.486 -31.148 42.597 -31.417 41.682 C-33.721 34.205 -36.861 27.655 -41 21 C-42 19.334 -43 17.667 -44 16 C-38.752 13.271 -33.601 11.009 -28 9.125 C-21.308 6.828 -14.679 4.407 -8.09 1.829 C-5.23 0.731 -3.093 0 0 0 Z " fill="#FDFDFD" transform="translate(332,535)"/>
<path d="M0 0 C10.485 8.131 16.419 19.078 21.024 31.336 C26.031 44.539 33.997 58.998 46 67 C46.54 69.861 46.889 72.548 47.125 75.438 C47.198 76.175 47.272 76.913 47.348 77.674 C48.935 94.679 49.212 111.723 49.24 128.791 C49.25 132.391 49.281 135.99 49.312 139.59 C49.418 162.212 49.418 162.212 46 172 C45.734 172.767 45.468 173.534 45.194 174.324 C44.429 176.341 43.592 178.292 42.688 180.25 C42.381 180.927 42.075 181.604 41.759 182.301 C34.137 198.75 21.531 211.98 4.664 219.035 C-10.774 224.626 -27.572 223.007 -42.441 216.492 C-50.109 212.6 -56.609 207.721 -63 202 C-63.634 201.46 -64.268 200.92 -64.922 200.363 C-80.437 186.236 -85.859 164.512 -90.938 145 C-91.198 144.001 -91.459 143.002 -91.728 141.973 C-93.507 135.09 -95.118 128.186 -96.593 121.232 C-97.591 116.593 -98.843 112.099 -100.25 107.562 C-103.66 95.711 -103.66 95.711 -102 90 C-100.134 88.301 -98.311 87.342 -96.043 86.246 C-91.754 83.63 -90.518 78.555 -89 74 C-88.264 62.705 -88.264 62.705 -91 52 C-92.336 40.162 -92.336 40.162 -89.648 35.812 C-82.504 29.518 -74.113 29.613 -65.062 29.625 C-63.249 29.627 -63.249 29.627 -61.399 29.63 C-49.787 29.789 -39.89 31.864 -29.379 36.93 C-25.106 38.852 -20.65 40.294 -16.227 41.828 C-13.788 42.714 -11.558 43.653 -9.25 44.812 C-3.238 47.009 2.573 46.964 8.438 44.312 C11.789 42.362 13.666 40.753 15 37 C15.764 30.333 14.429 25.412 11.438 19.5 C10.901 18.396 10.901 18.396 10.354 17.269 C7.837 12.245 4.967 7.806 1.25 3.566 C0 2 0 2 0 0 Z " fill="#FBFBFB" transform="translate(410,266)"/>
<path d="M0 0 C8.953 1.538 17.774 3.37 26.578 5.613 C27.49 5.844 28.402 6.074 29.342 6.311 C31.562 6.872 33.781 7.435 36 8 C36.025 9.289 36.05 10.577 36.076 11.905 C36.172 16.788 36.271 21.672 36.372 26.555 C36.415 28.649 36.457 30.743 36.497 32.838 C36.885 52.768 37.62 72.507 39.938 92.312 C40.109 93.829 40.28 95.345 40.451 96.861 C41.367 104.934 42.379 112.99 43.471 121.041 C44.077 125.573 44.65 130.108 45.219 134.645 C45.431 136.327 45.643 138.01 45.855 139.693 C46.18 142.264 46.503 144.835 46.823 147.407 C48.348 159.781 48.348 159.781 50.607 172.038 C51.169 174.846 51.386 177.645 51.562 180.5 C51.731 184.399 51.731 184.399 53 188 C53.245 189.736 53.441 191.478 53.613 193.223 C53.781 194.848 53.781 194.848 53.951 196.506 C54.071 197.68 54.19 198.853 54.312 200.062 C55.301 209.428 56.505 218.712 58.062 228 C59.266 235.179 60.324 242.314 61 249.562 C61.761 257.689 63.064 265.672 64.464 273.711 C65.906 282.106 67.008 290.519 67.961 298.983 C68.599 304.485 69.593 309.645 71 315 C71.304 317.214 71.488 319.402 71.656 321.629 C71.966 324.156 71.966 324.156 72.92 327.137 C74.073 331.111 74.868 335.114 75.621 339.18 C75.767 339.951 75.912 340.722 76.062 341.516 C76.368 343.145 76.673 344.773 76.977 346.402 C77.43 348.834 77.887 351.265 78.346 353.695 C79.095 357.678 79.832 361.664 80.564 365.65 C80.996 367.979 81.44 370.305 81.885 372.632 C83.297 380.134 84.457 387.399 84.188 395.062 C84.167 396.235 84.167 396.235 84.146 397.432 C84.112 399.288 84.059 401.144 84 403 C83.448 403.131 82.895 403.261 82.326 403.396 C73.187 405.557 64.048 407.72 54.938 410 C53.678 410.315 52.419 410.629 51.121 410.953 C48.024 411.733 44.935 412.543 41.848 413.359 C40.96 413.59 40.073 413.821 39.158 414.059 C37.437 414.506 35.717 414.962 34 415.426 C28.845 416.756 24.324 417.22 19 417 C13.984 392.098 12.484 366.718 11.056 341.406 C10.859 337.935 10.655 334.465 10.451 330.994 C10.127 325.463 9.805 319.932 9.484 314.401 C9.444 313.716 9.404 313.032 9.364 312.326 C9.113 307.995 8.869 303.664 8.629 299.332 C8.465 296.381 8.295 293.431 8.125 290.48 C8.046 289.096 7.969 287.712 7.895 286.328 C7.443 277.955 6.661 269.722 5.461 261.43 C4.694 255.724 4.324 249.992 3.938 244.25 C3.783 241.984 3.626 239.718 3.465 237.453 C3.399 236.475 3.333 235.497 3.265 234.489 C3.076 231.872 3.076 231.872 2 229 C1.693 226.706 1.428 224.406 1.184 222.104 C1.109 221.406 1.034 220.708 0.957 219.989 C0.709 217.675 0.466 215.361 0.223 213.047 C0.05 211.428 -0.123 209.809 -0.297 208.19 C-0.754 203.915 -1.208 199.64 -1.661 195.365 C-2.381 188.565 -3.105 181.766 -3.832 174.968 C-4.083 172.614 -4.331 170.259 -4.579 167.905 C-6.313 151.197 -6.313 151.197 -9 134.625 C-9.818 130.323 -10.347 126.042 -10.812 121.688 C-12.136 109.548 -14.366 97.537 -16.413 85.504 C-17.191 80.863 -17.912 76.214 -18.625 71.562 C-20.369 60.337 -22.529 49.254 -25.547 38.293 C-26 36 -26 36 -25 34 C-24.297 34.711 -24.297 34.711 -23.579 35.437 C-21.451 37.586 -19.319 39.73 -17.188 41.875 C-16.45 42.621 -15.712 43.368 -14.951 44.137 C-13.883 45.21 -13.883 45.21 -12.793 46.305 C-12.138 46.965 -11.484 47.624 -10.809 48.304 C-8.905 50.182 -8.905 50.182 -6 52 C-2.899 51.845 -1.494 51.535 0.634 49.231 C2.187 46.695 2.374 45.368 2.363 42.422 C2.364 41.519 2.365 40.616 2.365 39.686 C2.339 38.233 2.339 38.233 2.312 36.75 C2.304 35.75 2.296 34.749 2.287 33.719 C2.112 22.438 1.121 11.22 0 0 Z " fill="#FCFCFC" transform="translate(467,529)"/>
<path d="M0 0 C0.815 -0.003 1.63 -0.007 2.469 -0.01 C4.202 -0.015 5.934 -0.017 7.667 -0.017 C10.247 -0.019 12.828 -0.038 15.408 -0.057 C54.595 -0.192 93.906 9.162 122.836 37.168 C147.454 61.992 158.746 95.77 158.746 130.168 C102.316 130.168 45.886 130.168 -12.254 130.168 C-12.254 87.598 -12.254 45.028 -12.254 1.168 C-8.075 0.123 -4.267 0.006 0 0 Z " fill="#010101" transform="translate(18.25390625,893.83203125)"/>
<path d="M0 0 C0 13.2 0 26.4 0 40 C-6.478 40.02 -12.956 40.04 -19.631 40.06 C-41.523 40.128 -63.415 40.206 -85.307 40.288 C-87.989 40.298 -90.671 40.307 -93.353 40.317 C-94.353 40.321 -94.353 40.321 -95.372 40.325 C-105.234 40.361 -115.096 40.393 -124.958 40.422 C-140.304 40.467 -155.65 40.521 -170.996 40.586 C-172.899 40.594 -172.899 40.594 -174.841 40.602 C-217.599 40.788 -260.34 41.38 -303.088 42.32 C-307.131 42.409 -311.173 42.497 -315.215 42.584 C-316.649 42.616 -316.649 42.616 -318.111 42.648 C-335.076 43.013 -352.032 43.118 -369 43 C-369.931 40.888 -370.862 38.776 -371.793 36.665 C-372.311 35.489 -372.83 34.313 -373.364 33.101 C-374.183 31.242 -375.001 29.383 -375.818 27.523 C-376.57 25.812 -377.326 24.103 -378.082 22.395 C-378.813 20.737 -378.813 20.737 -379.558 19.046 C-380.932 15.997 -380.932 15.997 -382.682 13.288 C-384 11 -384 11 -384 8 C-361.116 6.546 -338.262 5.576 -315.339 5.055 C-311.169 4.959 -307 4.856 -302.83 4.754 C-301.108 4.712 -299.386 4.669 -297.664 4.627 C-296.807 4.606 -295.95 4.585 -295.067 4.564 C-292.465 4.5 -289.862 4.437 -287.26 4.375 C-276.111 4.106 -264.964 3.814 -253.816 3.5 C-253.083 3.479 -252.35 3.459 -251.594 3.437 C-250.86 3.417 -250.127 3.396 -249.371 3.375 C-247.889 3.333 -246.408 3.291 -244.926 3.25 C-243.826 3.219 -243.826 3.219 -242.704 3.187 C-230.31 2.839 -217.915 2.516 -205.52 2.196 C-201.269 2.085 -197.017 1.974 -192.765 1.861 C-128.499 0.147 -64.288 -0.229 0 0 Z " fill="#AEAEAD" transform="translate(1022,689)"/>
<path d="M0 0 C0 38.61 0 77.22 0 117 C-34.32 117 -68.64 117 -104 117 C-104 83.372 -88.149 53.185 -64.742 29.738 C-50.931 16.679 -34.067 7.504 -15.938 2 C-15.26 1.792 -14.582 1.584 -13.883 1.37 C-8.891 -0.035 -5.467 0 0 0 Z " fill="#010101" transform="translate(1022,907)"/>
<path d="M0 0 C4.444 -0.015 8.888 -0.041 13.332 -0.091 C17.734 -0.14 22.137 -0.165 26.54 -0.172 C28.195 -0.179 29.849 -0.194 31.504 -0.218 C33.787 -0.25 36.068 -0.25 38.352 -0.242 C40.29 -0.255 40.29 -0.255 42.267 -0.267 C45.518 0.341 45.518 0.341 47.903 2.628 C60.203 23.299 53.707 69.287 54.319 93.601 C54.971 119.405 55.843 145.194 56.956 170.982 C56.987 171.714 57.019 172.447 57.051 173.202 C57.467 182.844 57.892 192.487 58.32 202.129 C61.415 271.863 61.415 271.863 62.574 304.38 C62.659 306.782 62.747 309.185 62.835 311.588 C63.288 323.947 63.61 336.303 63.694 348.67 C63.714 350.316 63.714 350.316 63.735 351.995 C63.738 353.016 63.74 354.037 63.742 355.089 C63.747 355.985 63.753 356.88 63.758 357.804 C63.488 360.655 62.771 362.773 61.518 365.341 C56.063 369.293 49.353 370.103 42.811 370.556 C41.874 370.631 40.938 370.705 39.972 370.782 C26.948 371.726 13.882 371.77 0.831 371.904 C-3.046 371.948 -6.922 371.995 -10.798 372.046 C-13.184 372.078 -15.571 372.105 -17.957 372.127 C-22.883 372.188 -27.74 372.322 -32.64 372.839 C-39.862 373.559 -47.093 373.543 -54.344 373.601 C-57.001 373.623 -59.659 373.65 -62.316 373.678 C-67.976 373.737 -73.635 373.79 -79.294 373.841 C-86.718 373.909 -94.141 373.98 -101.564 374.06 C-102.901 374.074 -102.901 374.074 -104.265 374.089 C-116.631 374.226 -128.973 374.501 -141.321 375.22 C-145.248 375.44 -149.178 375.606 -153.107 375.779 C-153.797 375.826 -154.488 375.873 -155.199 375.922 C-157.146 375.962 -157.146 375.962 -160.482 375.341 C-164.482 370.624 -164.482 370.624 -164.482 367.341 C-153.94 367.023 -143.399 366.711 -132.857 366.404 C-131.672 366.369 -131.672 366.369 -130.464 366.334 C-106.598 365.639 -82.734 365.049 -58.86 364.683 C-56.86 364.651 -54.861 364.62 -52.861 364.587 C-51.874 364.571 -50.887 364.555 -49.871 364.539 C-43.088 364.418 -36.311 364.203 -29.532 363.957 C-11.78 363.318 5.944 363.218 23.705 363.272 C27.542 363.283 31.379 363.287 35.215 363.292 C42.65 363.303 50.084 363.32 57.518 363.341 C57.518 358.391 57.518 353.441 57.518 348.341 C55.797 348.473 54.076 348.606 52.302 348.742 C34.401 350.074 16.52 350.845 -1.424 351.319 C-5.114 351.418 -8.804 351.524 -12.494 351.629 C-19.446 351.827 -26.399 352.02 -33.351 352.21 C-45.819 352.551 -58.288 352.898 -70.756 353.252 C-75.11 353.375 -79.464 353.495 -83.818 353.613 C-85.873 353.668 -87.928 353.725 -89.984 353.783 C-92.466 353.853 -94.949 353.92 -97.431 353.985 C-104.406 354.185 -111.343 354.575 -118.299 355.121 C-123.424 355.475 -128.545 355.542 -133.681 355.579 C-134.764 355.587 -135.847 355.595 -136.963 355.604 C-139.22 355.617 -141.478 355.628 -143.736 355.636 C-146.045 355.648 -148.354 355.669 -150.662 355.698 C-154.023 355.74 -157.383 355.757 -160.744 355.767 C-162.295 355.793 -162.295 355.793 -163.878 355.82 C-164.833 355.817 -165.789 355.814 -166.774 355.811 C-167.613 355.817 -168.452 355.823 -169.317 355.829 C-171.482 355.341 -171.482 355.341 -173.276 353.437 C-174.482 351.341 -174.482 351.341 -174.482 349.341 C-166.787 348.454 -159.118 348.056 -151.379 347.784 C-150.104 347.737 -148.83 347.69 -147.516 347.641 C-144.761 347.539 -142.006 347.439 -139.25 347.34 C-134.871 347.183 -130.491 347.022 -126.112 346.86 C-119.164 346.604 -112.216 346.351 -105.268 346.099 C-92.879 345.649 -80.49 345.195 -68.101 344.74 C-63.771 344.58 -59.441 344.423 -55.111 344.266 C-42.145 343.797 -29.183 343.303 -16.225 342.662 C-10.006 342.356 -3.79 342.142 2.436 342.025 C3.429 342.004 4.422 341.983 5.445 341.962 C7.504 341.919 9.563 341.878 11.621 341.838 C14.714 341.778 17.806 341.713 20.899 341.648 C32.774 341.404 44.641 341.282 56.518 341.341 C56.421 339.496 56.421 339.496 56.322 337.614 C54.34 299.637 52.647 261.647 51.018 223.654 C50.964 222.393 50.91 221.132 50.854 219.833 C49.075 178.244 47.599 136.651 46.418 95.04 C46.391 94.067 46.363 93.095 46.334 92.094 C46.207 87.612 46.081 83.131 45.961 78.649 C45.758 71.261 45.508 63.883 45.124 56.502 C44.561 45.667 44.396 34.876 44.456 24.029 C44.461 22.39 44.465 20.751 44.469 19.113 C44.48 15.189 44.497 11.265 44.518 7.341 C43.747 7.374 42.975 7.407 42.18 7.441 C31.939 7.879 21.698 8.303 11.456 8.716 C10.608 8.75 9.76 8.784 8.887 8.82 C-19.939 9.978 -48.764 10.795 -77.607 11.404 C-101.261 11.903 -124.904 12.42 -148.544 13.404 C-149.57 13.446 -150.596 13.489 -151.652 13.533 C-156.335 13.729 -161.017 13.93 -165.699 14.134 C-211.595 16.133 -257.548 16.547 -303.482 16.341 C-303.482 14.031 -303.482 11.721 -303.482 9.341 C-291.891 8.649 -280.31 8.123 -268.702 7.8 C-267.114 7.754 -265.526 7.708 -263.938 7.662 C-260.551 7.563 -257.165 7.466 -253.778 7.37 C-248.366 7.217 -242.953 7.06 -237.54 6.902 C-224.073 6.511 -210.606 6.124 -197.139 5.738 C-183.96 5.36 -170.782 4.98 -157.603 4.595 C-156.689 4.568 -155.774 4.542 -154.832 4.514 C-128.162 3.735 -101.506 2.796 -74.85 1.649 C-49.908 0.585 -24.963 0.086 0 0 Z " fill="#0D0D0D" transform="translate(789.4819145202637,307.6589546203613)"/>
<path d="M0 0 C0.17 0.773 0.34 1.547 0.516 2.344 C0.758 3.385 1 4.427 1.25 5.5 C1.482 6.521 1.714 7.542 1.953 8.594 C3.204 12.662 4.998 16.256 7 20 C5.903 20.025 4.807 20.05 3.677 20.076 C-36.222 20.949 -36.222 20.949 -76 24 C-75.67 24.99 -75.34 25.98 -75 27 C-74.892 29.528 -74.838 32.033 -74.824 34.562 C-74.804 36.206 -74.783 37.849 -74.76 39.493 C-74.744 40.826 -74.744 40.826 -74.727 42.187 C-74.448 62.203 -73.444 82.15 -72.188 102.125 C-71.828 107.864 -71.471 113.604 -71.117 119.344 C-71.049 120.45 -71.049 120.45 -70.979 121.579 C-69.824 140.379 -68.867 159.188 -67.942 178.001 C-67.816 180.564 -67.687 183.127 -67.557 185.69 C-66.529 206.034 -65.75 226.367 -65.34 246.734 C-65.111 257.916 -64.689 269.079 -64.125 280.25 C-64.084 281.065 -64.043 281.88 -64 282.719 C-63.549 291.579 -62.893 300.365 -61.887 309.18 C-61.618 311.688 -61.353 314.197 -61.087 316.705 C-60.821 319.051 -60.499 321.385 -60.174 323.724 C-59.273 331.316 -59.414 336.293 -64.242 342.711 C-65.825 344.477 -67.41 346.24 -69 348 C-70.641 350.572 -72.133 353.177 -73.613 355.844 C-75.153 358.238 -76.929 360.057 -79 362 C-80.122 358.26 -80.351 354.487 -80.613 350.613 C-80.668 349.84 -80.722 349.067 -80.778 348.27 C-80.961 345.618 -81.137 342.965 -81.312 340.312 C-81.375 339.384 -81.437 338.455 -81.502 337.498 C-83.171 312.437 -84.323 287.345 -85.515 262.257 C-85.68 258.77 -85.848 255.283 -86.015 251.795 C-86.129 249.383 -86.241 246.971 -86.353 244.559 C-86.7 237.234 -87.133 229.931 -87.781 222.624 C-88.106 218.728 -88.277 214.832 -88.43 210.926 C-88.502 209.216 -88.574 207.506 -88.646 205.795 C-88.683 204.905 -88.72 204.015 -88.759 203.098 C-89.47 186.092 -90.4 169.11 -91.5 152.125 C-92.818 131.741 -93.679 111.355 -94.354 90.94 C-94.426 88.779 -94.498 86.618 -94.57 84.457 C-94.622 82.903 -94.622 82.903 -94.674 81.318 C-94.851 76.239 -95.108 71.193 -95.551 66.129 C-96.444 54.832 -96.103 43.448 -96.062 32.125 C-96.057 29.684 -96.053 27.242 -96.049 24.801 C-96.038 18.867 -96.021 12.934 -96 7 C-91.664 4.313 -88.543 2.525 -83.367 2.207 C-81.806 2.099 -81.806 2.099 -80.213 1.988 C-78.561 1.901 -78.561 1.901 -76.875 1.812 C-75.709 1.739 -74.543 1.666 -73.342 1.59 C-70.978 1.445 -68.614 1.308 -66.249 1.179 C-63.531 1.029 -60.817 0.853 -58.102 0.66 C-38.786 -0.6 -19.346 -0.087 0 0 Z " fill="#C1C2C2" transform="translate(251,320)"/>
<path d="M0 0 C1.24 0.002 2.481 0.003 3.759 0.005 C6.787 0.009 9.815 0.015 12.843 0.023 C12.86 0.566 12.877 1.109 12.894 1.669 C15.668 90.639 18.748 179.59 22.53 268.523 C22.561 269.247 22.592 269.97 22.623 270.716 C23.372 288.956 23.372 288.956 24.421 307.179 C24.817 313.138 24.966 319.052 24.905 325.023 C24.901 325.905 24.896 326.786 24.892 327.695 C24.88 329.804 24.862 331.914 24.843 334.023 C20.553 334.023 16.263 334.023 11.843 334.023 C11.853 332.404 11.864 330.786 11.875 329.118 C12.191 281.16 12.191 281.16 9.61 233.284 C8.937 225.155 8.6 217.053 8.41 208.9 C8.375 207.537 8.341 206.175 8.306 204.813 C8.231 201.902 8.159 198.991 8.088 196.081 C7.974 191.436 7.854 186.792 7.732 182.148 C7.388 168.948 7.048 155.748 6.723 142.548 C6.543 135.239 6.356 127.931 6.161 120.622 C6.058 116.782 5.959 112.941 5.87 109.1 C5.484 92.557 4.757 76.098 3.366 59.605 C3.271 58.476 3.271 58.476 3.174 57.325 C2.425 48.574 1.547 39.85 0.343 31.148 C0.238 30.386 0.132 29.625 0.024 28.84 C-0.675 24.445 -1.609 20.706 -4.157 17.023 C-6.734 16.066 -6.734 16.066 -9.845 16.148 C-11.118 16.112 -12.392 16.076 -13.704 16.039 C-15.188 16.032 -16.673 16.027 -18.157 16.023 C-19.787 15.997 -21.418 15.971 -23.048 15.945 C-48.937 15.653 -74.871 16.723 -100.731 17.835 C-126.658 18.943 -152.59 19.758 -178.529 20.493 C-182.87 20.616 -187.212 20.744 -191.553 20.871 C-232.396 22.067 -273.231 23.221 -314.095 23.085 C-316.868 23.08 -319.64 23.076 -322.413 23.072 C-328.994 23.061 -335.576 23.045 -342.157 23.023 C-341.529 19.673 -340.794 16.928 -339.22 13.898 C-338.881 13.235 -338.542 12.573 -338.192 11.89 C-337.265 10.218 -336.218 8.614 -335.157 7.023 C-335.157 7.683 -335.157 8.343 -335.157 9.023 C-265.524 7.847 -265.524 7.847 -195.907 5.96 C-194.688 5.92 -193.469 5.88 -192.213 5.839 C-188.793 5.725 -185.374 5.608 -181.954 5.488 C-180.557 5.439 -180.557 5.439 -179.132 5.39 C-173.93 5.198 -168.733 4.948 -163.535 4.657 C-153.877 4.122 -144.229 3.797 -134.559 3.608 C-131.927 3.556 -129.296 3.501 -126.664 3.444 C-122.907 3.364 -119.15 3.285 -115.393 3.207 C-86.882 2.613 -58.38 2.013 -29.893 0.633 C-19.922 0.163 -9.984 -0.026 0 0 Z " fill="#C1C2C2" transform="translate(821.1572265625,314.97705078125)"/>
<path d="M0 0 C0.182 0.843 0.364 1.686 0.551 2.555 C0.802 3.65 1.054 4.746 1.312 5.875 C1.556 6.966 1.8 8.056 2.051 9.18 C2.779 12.294 2.779 12.294 6 14 C14.53 14.814 22.173 14.033 30.391 11.668 C33.735 10.812 36.572 10.766 40 11 C42.154 18.712 43.56 26.307 44.473 34.262 C44.853 36.959 45.319 39.429 45.957 42.059 C47.42 48.421 47.974 54.889 48.625 61.375 C48.826 63.251 48.826 63.251 49.031 65.164 C49.158 66.396 49.284 67.629 49.414 68.898 C49.527 69.998 49.64 71.099 49.756 72.232 C50.074 77.145 50 82.077 50 87 C17.99 87 -14.02 87 -47 87 C-48.32 81.06 -49.64 75.12 -51 69 C-52.1 65.002 -53.217 61.031 -54.401 57.061 C-55.121 54.583 -55.801 52.095 -56.48 49.605 C-56.742 48.66 -57.003 47.714 -57.272 46.74 C-57.79 44.863 -58.301 42.986 -58.806 41.106 C-59.047 40.244 -59.287 39.381 -59.535 38.492 C-59.745 37.722 -59.956 36.953 -60.172 36.16 C-61.067 33.53 -61.067 33.53 -64 30 C-65.65 33.3 -67.3 36.6 -69 40 C-69.33 40 -69.66 40 -70 40 C-70.164 33.301 -69.576 27.044 -68.5 20.438 C-68.357 19.524 -68.214 18.611 -68.066 17.67 C-67.717 15.446 -67.361 13.222 -67 11 C-66.245 10.92 -65.49 10.839 -64.712 10.756 C-61.224 10.383 -57.737 10.004 -54.25 9.625 C-53.063 9.499 -51.876 9.372 -50.652 9.242 C-40.14 8.093 -29.922 6.654 -19.75 3.727 C-15.942 2.721 -12.099 2.065 -8.215 1.43 C-0.845 0 -0.845 0 0 0 Z " fill="#FDFDFD" transform="translate(477,937)"/>
<path d="M0 0 C1.625 0.141 3.25 0.288 4.875 0.438 C5.78 0.519 6.685 0.6 7.617 0.684 C10 1 10 1 12 2 C14.854 2.348 17.702 2.657 20.562 2.938 C26.835 3.588 32.883 4.414 39 6 C38.276 21.719 36.531 37.351 34.938 53 C33.968 62.57 32.999 72.14 32 82 C-0.67 82 -33.34 82 -67 82 C-67 32.739 -67 32.739 -65 12 C-58.89 12.971 -53.105 14.174 -47.27 16.233 C-33.929 20.742 -20.065 23.225 -6 22 C-3.828 21.16 -3.828 21.16 -2.945 18.957 C-1.751 15.221 -1.299 11.576 -0.875 7.688 C-0.745 6.577 -0.745 6.577 -0.613 5.443 C-0.403 3.63 -0.2 1.815 0 0 Z " fill="#FDFDFD" transform="translate(364,942)"/>
<path d="M0 0 C1.549 0.021 3.098 0.029 4.647 0.022 C6.639 0.014 8.631 0.053 10.623 0.095 C11.659 0.107 12.695 0.118 13.763 0.13 C17.048 1.266 18.074 2.943 19.586 6.01 C20.882 9.344 21.482 12.695 21.935 16.22 C22.041 17.022 22.147 17.824 22.257 18.65 C25.479 44.306 26.839 70.07 27.419 95.904 C27.508 99.763 27.611 103.621 27.712 107.479 C27.923 115.566 28.121 123.654 28.316 131.742 C28.61 143.932 28.914 156.121 29.23 168.31 C29.329 172.112 29.424 175.914 29.512 179.716 C29.888 195.951 30.509 212.115 31.909 228.301 C33.521 247.205 33.535 266.203 33.503 285.162 C33.497 289.047 33.503 292.931 33.509 296.816 C33.509 299.293 33.507 301.77 33.505 304.248 C33.507 305.406 33.509 306.564 33.512 307.757 C33.508 308.817 33.505 309.877 33.502 310.97 C33.501 312.369 33.501 312.369 33.5 313.796 C33.373 316.033 33.373 316.033 32.373 318.033 C30.723 318.033 29.073 318.033 27.373 318.033 C25.632 313.476 25.065 309.543 24.902 304.678 C24.875 303.963 24.849 303.248 24.822 302.511 C24.737 300.146 24.664 297.781 24.591 295.416 C24.533 293.74 24.474 292.065 24.415 290.39 C24.257 285.909 24.11 281.428 23.964 276.947 C23.811 272.27 23.647 267.593 23.484 262.917 C23.419 261.048 23.354 259.179 23.289 257.31 C23.257 256.391 23.225 255.471 23.192 254.523 C23.095 251.747 23 248.972 22.905 246.196 C22.485 233.937 21.991 221.683 21.43 209.43 C20.544 189.941 20.029 170.449 19.556 150.947 C18.917 124.616 18.211 98.289 17.175 71.97 C17.057 68.984 16.946 65.998 16.842 63.011 C16.186 44.435 14.557 26.358 11.373 8.033 C-30.49 7.717 -30.49 7.717 -72.292 9.611 C-89.117 10.796 -106.002 11.217 -122.857 11.798 C-126.833 11.935 -130.81 12.074 -134.786 12.216 C-197.754 14.462 -260.62 15.479 -323.627 15.033 C-323.627 12.723 -323.627 10.413 -323.627 8.033 C-322.466 8.014 -321.304 7.996 -320.107 7.977 C-266.886 7.13 -213.67 6.191 -160.465 4.627 C-157.316 4.535 -154.167 4.443 -151.017 4.352 C-126.497 3.638 -101.985 2.771 -77.477 1.723 C-51.691 0.624 -25.813 -0.426 0 0 Z " fill="#090909" transform="translate(800.62744140625,329.96728515625)"/>
<path d="M0 0 C0 2.64 0 5.28 0 8 C-10.275 8.393 -20.55 8.784 -30.826 9.173 C-35.598 9.354 -40.37 9.535 -45.141 9.718 C-49.751 9.895 -54.361 10.07 -58.972 10.243 C-60.725 10.31 -62.479 10.377 -64.233 10.444 C-66.7 10.539 -69.167 10.632 -71.635 10.725 C-72.708 10.767 -72.708 10.767 -73.803 10.81 C-78.872 10.996 -83.928 11.022 -89 11 C-88.845 12.284 -88.689 13.568 -88.529 14.891 C-87.981 19.839 -87.722 24.769 -87.535 29.742 C-87.479 31.144 -87.479 31.144 -87.422 32.574 C-87.299 35.674 -87.181 38.775 -87.062 41.875 C-86.975 44.109 -86.887 46.343 -86.798 48.577 C-86.341 60.288 -85.927 72 -85.566 83.715 C-84.684 112.164 -83.496 140.578 -82 169 C-81.958 169.802 -81.916 170.605 -81.872 171.431 C-81.098 186.144 -80.304 200.856 -79.445 215.564 C-79.399 216.35 -79.354 217.135 -79.307 217.944 C-79.09 221.668 -78.871 225.392 -78.648 229.115 C-78.117 238.097 -77.779 247.068 -77.562 256.062 C-77.229 268.968 -76.512 281.833 -75.705 294.717 C-75.177 303.185 -74.671 311.654 -74.17 320.123 C-74.06 321.98 -73.949 323.837 -73.837 325.694 C-73.558 330.347 -73.303 335 -73.096 339.656 C-73.003 341.622 -72.884 343.585 -72.764 345.549 C-72.395 354.925 -72.395 354.925 -75.5 359.332 C-76.738 360.653 -76.738 360.653 -78 362 C-80.255 358.37 -80.46 354.773 -80.711 350.613 C-80.764 349.84 -80.817 349.067 -80.871 348.27 C-81.049 345.618 -81.212 342.966 -81.375 340.312 C-81.499 338.398 -81.622 336.483 -81.746 334.569 C-83.262 310.48 -84.37 286.365 -85.515 262.257 C-85.681 258.77 -85.848 255.283 -86.015 251.795 C-86.129 249.383 -86.241 246.971 -86.353 244.559 C-86.7 237.234 -87.133 229.931 -87.781 222.624 C-88.106 218.728 -88.277 214.832 -88.43 210.926 C-88.502 209.216 -88.574 207.506 -88.646 205.795 C-88.683 204.905 -88.72 204.015 -88.759 203.098 C-89.47 186.092 -90.4 169.11 -91.5 152.125 C-92.818 131.741 -93.679 111.355 -94.354 90.94 C-94.426 88.779 -94.498 86.618 -94.57 84.457 C-94.622 82.903 -94.622 82.903 -94.674 81.318 C-94.851 76.239 -95.108 71.193 -95.551 66.129 C-96.444 54.832 -96.103 43.448 -96.062 32.125 C-96.057 29.684 -96.053 27.242 -96.049 24.801 C-96.038 18.867 -96.021 12.934 -96 7 C-91.664 4.313 -88.543 2.525 -83.367 2.207 C-81.806 2.099 -81.806 2.099 -80.213 1.988 C-78.561 1.901 -78.561 1.901 -76.875 1.812 C-75.709 1.739 -74.543 1.666 -73.342 1.59 C-70.978 1.445 -68.614 1.308 -66.249 1.179 C-63.531 1.029 -60.817 0.853 -58.102 0.66 C-38.786 -0.6 -19.346 -0.087 0 0 Z " fill="#0C0C0D" transform="translate(251,320)"/>
<path d="M0 0 C4.481 -0.154 8.961 -0.26 13.444 -0.341 C15.253 -0.38 17.063 -0.432 18.871 -0.498 C33.433 -1.011 33.433 -1.011 37.98 1.949 C42.237 6.727 42.237 6.727 42.237 9.163 C23.874 10.08 5.558 10.288 -12.825 10.226 C-15.457 10.221 -18.09 10.216 -20.722 10.212 C-27.069 10.201 -33.416 10.184 -39.763 10.163 C-39.38 36.941 -39.38 36.941 -37.566 63.646 C-36.747 71.933 -36.198 80.227 -35.7 88.538 C-35.657 89.247 -35.615 89.955 -35.571 90.685 C-35.02 99.882 -34.585 109.079 -34.263 118.288 C-33.999 125.689 -33.576 133.039 -32.888 140.413 C-29.712 175.445 -28.251 210.417 -27.547 245.576 C-27.466 249.603 -27.38 253.629 -27.29 257.655 C-27.273 258.428 -27.256 259.201 -27.238 259.997 C-26.977 271.268 -26.338 282.438 -25.167 293.656 C-23.941 306.068 -23.941 306.068 -27.638 311.163 C-28.171 311.926 -28.705 312.689 -29.255 313.476 C-30.001 314.311 -30.001 314.311 -30.763 315.163 C-31.423 315.163 -32.083 315.163 -32.763 315.163 C-35.451 285.356 -37.543 255.563 -38.088 225.632 C-38.609 198.373 -40.085 171.157 -41.496 143.933 C-41.769 138.637 -42.036 133.342 -42.304 128.047 C-43.999 94.327 -43.999 94.327 -46.16 60.636 C-46.961 49.028 -47.208 37.42 -47.388 25.788 C-47.426 23.66 -47.465 21.533 -47.505 19.405 C-47.598 14.325 -47.683 9.244 -47.763 4.163 C-44.468 3.671 -41.172 3.188 -37.876 2.706 C-36.957 2.569 -36.037 2.431 -35.09 2.29 C-27.26 1.152 -19.465 0.464 -11.552 0.312 C-7.7 0.233 -3.85 0.135 0 0 Z " fill="#090909" transform="translate(222.7626953125,339.8369140625)"/>
<path d="M0 0 C7.752 4.323 10.163 12.901 12.508 21.035 C14.194 27.397 15.256 33.802 16.188 40.312 C16.449 42.126 16.449 42.126 16.716 43.976 C18.2 55.027 18.409 65.873 18 77 C15 77 15 77 12.145 74.402 C11.027 73.254 9.917 72.098 8.812 70.938 C7.635 69.73 6.455 68.524 5.273 67.32 C4.706 66.741 4.138 66.161 3.554 65.563 C0.527 62.517 -2.707 59.751 -6 57 C-6.947 56.187 -7.895 55.373 -8.871 54.535 C-18.42 45.95 -18.42 45.95 -30 41 C-30 41.99 -30 42.98 -30 44 C-29.459 44.24 -28.917 44.48 -28.359 44.727 C-25.391 46.329 -22.889 48.274 -20.25 50.375 C-19.265 51.146 -18.28 51.917 -17.266 52.711 C-15 55 -15 55 -15 59 C-16.519 59.63 -18.04 60.253 -19.562 60.875 C-20.409 61.223 -21.256 61.571 -22.129 61.93 C-28.981 64.484 -34.873 65.354 -42.125 65.312 C-43.046 65.311 -43.968 65.31 -44.917 65.309 C-52.289 65.205 -58.937 64.202 -66 62 C-64.609 57.295 -62.598 53.211 -60.125 49 C-59.786 48.41 -59.447 47.819 -59.098 47.211 C-56.873 43.371 -54.495 39.67 -52 36 C-46.545 42.636 -43 53.428 -43 62 C-41.515 61.505 -41.515 61.505 -40 61 C-37.178 54.412 -35.955 47.64 -35.57 40.545 C-35.01 31.357 -32.47 26.971 -25.828 20.715 C-21.343 16.41 -18.132 11.326 -14.793 6.117 C-10.835 -0.02 -7.002 -1.105 0 0 Z " fill="#F9F9FA" transform="translate(446,498)"/>
<path d="M0 0 C1.504 0.014 1.504 0.014 3.039 0.027 C3.81 0.039 4.581 0.051 5.375 0.062 C5.623 1.114 5.87 2.166 6.125 3.25 C9.831 15.916 26.464 24.59 37.332 30.734 C38.006 31.173 38.68 31.611 39.375 32.062 C39.375 32.722 39.375 33.383 39.375 34.062 C38.47 34.276 37.565 34.49 36.633 34.711 C25.461 39.346 18.758 60.974 13.787 71.175 C11.761 75.318 9.694 79.441 7.625 83.562 C6.984 84.844 6.343 86.125 5.703 87.406 C5.265 88.283 4.827 89.159 4.375 90.062 C0.133 86.494 -1.786 82.18 -4.062 77.25 C-4.456 76.407 -4.849 75.564 -5.254 74.696 C-11.993 59.968 -15.993 45.775 -15.875 29.5 C-15.883 28.428 -15.89 27.356 -15.898 26.252 C-15.857 9.504 -15.857 9.504 -10.625 4.062 C-10.109 3.506 -9.594 2.949 -9.062 2.375 C-6.15 -0.284 -3.823 -0.044 0 0 Z " fill="#FBFBFB" transform="translate(354.625,499.9375)"/>
<path d="M0 0 C3.165 0.002 6.331 0.003 9.496 0.003 C100.417 0.024 100.417 0.024 143.116 1.252 C143.116 3.232 143.116 5.212 143.116 7.252 C141.467 7.257 141.467 7.257 139.786 7.262 C112.46 7.344 85.134 7.437 57.809 7.539 C55.127 7.549 52.444 7.559 49.762 7.569 C48.763 7.573 48.763 7.573 47.743 7.577 C37.881 7.613 28.02 7.645 18.158 7.674 C2.812 7.719 -12.534 7.773 -27.88 7.838 C-29.784 7.846 -29.784 7.846 -31.725 7.854 C-74.483 8.039 -117.224 8.632 -159.973 9.572 C-164.015 9.661 -168.057 9.749 -172.099 9.836 C-173.055 9.857 -174.011 9.878 -174.995 9.899 C-191.96 10.265 -208.916 10.37 -225.884 10.252 C-226.544 7.942 -227.204 5.632 -227.884 3.252 C-210.219 2.699 -192.552 2.205 -174.884 1.752 C-173.845 1.725 -173.845 1.725 -172.784 1.698 C-115.191 0.228 -57.61 -0.034 0 0 Z " fill="#0B0B0B" transform="translate(878.8843994140625,721.7483329772949)"/>
<path d="M0 0 C0 2.31 0 4.62 0 7 C-0.913 7.005 -0.913 7.005 -1.845 7.01 C-67.714 7.37 -133.579 7.758 -199.438 9 C-200.559 9.021 -201.681 9.042 -202.837 9.064 C-221.907 9.422 -240.978 9.785 -260.046 10.281 C-283.814 10.894 -307.564 11.16 -331.34 11.13 C-336.111 11.125 -340.881 11.128 -345.652 11.134 C-349.387 11.138 -353.123 11.136 -356.859 11.134 C-358.623 11.133 -360.386 11.134 -362.15 11.136 C-364.575 11.139 -367 11.135 -369.426 11.129 C-370.495 11.132 -370.495 11.132 -371.586 11.136 C-374.869 11.121 -377.86 11.012 -381 10 C-381 9.34 -381 8.68 -381 8 C-374.151 7.239 -367.336 6.769 -360.451 6.518 C-358.944 6.459 -358.944 6.459 -357.407 6.4 C-354.094 6.273 -350.782 6.152 -347.469 6.031 C-346.311 5.988 -345.153 5.945 -343.96 5.901 C-317.412 4.921 -290.859 4.228 -264.302 3.591 C-260.414 3.498 -256.527 3.404 -252.64 3.31 C-241.984 3.052 -231.328 2.794 -220.672 2.542 C-207.805 2.237 -194.939 1.925 -182.073 1.592 C-121.375 0.019 -60.716 -0.243 0 0 Z " fill="#131313" transform="translate(1022,689)"/>
<path d="M0 0 C1.061 3.264 0.907 5.435 0.145 8.762 C-0.064 9.703 -0.272 10.644 -0.487 11.613 C-0.718 12.628 -0.949 13.642 -1.188 14.688 C-6.623 39.735 -10.002 64.726 -10.375 90.375 C-10.401 91.391 -10.427 92.407 -10.454 93.453 C-10.47 100.411 -9.031 105.745 -6 112 C-6.66 112 -7.32 112 -8 112 C-8.427 111.198 -8.853 110.396 -9.293 109.57 C-18.167 93.433 -29.21 78.073 -42.086 64.859 C-43.812 63.062 -43.812 63.062 -46 60 C-44.931 54.514 -41.771 50.379 -38.562 45.938 C-38.03 45.192 -37.497 44.446 -36.948 43.677 C-32.751 37.875 -28.279 32.374 -23.578 26.977 C-21.172 24.199 -18.86 21.368 -16.562 18.5 C-11.334 12.065 -5.675 6.04 0 0 Z " fill="#F4F4F5" transform="translate(294,690)"/>
<path d="M0 0 C1.98 0 3.96 0 6 0 C8.154 8.41 10.214 16.829 12.062 25.312 C13.12 30.161 14.215 34.971 15.562 39.75 C17.899 48.073 19.52 56.556 21.195 65.031 C21.517 66.657 21.517 66.657 21.846 68.316 C22.271 70.465 22.693 72.615 23.111 74.766 C24.337 80.992 25.76 87.133 27.331 93.281 C28.186 96.756 28.828 100.223 29.438 103.75 C30.493 109.628 31.809 115.385 33.311 121.168 C35.348 129.15 37.009 137.213 38.705 145.272 C39.907 150.967 41.135 156.649 42.496 162.309 C42.729 163.284 42.962 164.26 43.201 165.265 C43.633 167.057 44.074 168.847 44.527 170.633 C46.008 176.82 46.231 182.651 46 189 C45.34 189 44.68 189 44 189 C37.595 176.146 33.438 163.308 30.801 149.195 C29.869 144.211 28.775 139.264 27.688 134.312 C27.256 132.34 26.825 130.367 26.395 128.395 C26.17 127.365 25.945 126.336 25.713 125.276 C24.424 119.353 23.148 113.427 21.875 107.5 C21.618 106.301 21.36 105.102 21.095 103.867 C19.809 97.857 18.554 91.844 17.375 85.812 C16.368 80.676 15.218 75.589 14 70.5 C12.494 64.207 11.156 57.902 9.914 51.551 C8.677 45.311 7.332 39.095 6 32.875 C5.751 31.707 5.501 30.54 5.245 29.337 C3.78 22.511 2.234 15.717 0.551 8.942 C-0.02 5.895 -0.097 3.093 0 0 Z " fill="#111112" transform="translate(407,0)"/>
<path d="M0 0 C1.98 0 3.96 0 6 0 C5.401 11.748 4.456 23.424 3.25 35.125 C3.073 36.866 2.897 38.607 2.72 40.348 C1.202 55.271 -0.391 70.185 -1.999 85.098 C-3.161 95.916 -4.281 106.737 -5.349 117.565 C-5.547 119.571 -5.746 121.578 -5.945 123.584 C-6.01 124.245 -6.076 124.906 -6.144 125.587 C-6.276 126.919 -6.408 128.251 -6.541 129.583 C-6.863 132.835 -7.182 136.088 -7.495 139.341 C-10.943 175.095 -10.943 175.095 -17 187 C-17.66 187 -18.32 187 -19 187 C-19.527 172.238 -18.464 158.137 -16.424 143.517 C-16.284 142.509 -16.284 142.509 -16.141 141.48 C-15.998 140.459 -15.998 140.459 -15.853 139.416 C-14.704 131.049 -13.857 122.651 -13 114.25 C-12.672 111.045 -12.342 107.841 -12.012 104.637 C-11.93 103.842 -11.848 103.048 -11.764 102.23 C-11.177 96.593 -10.549 90.962 -9.895 85.332 C-9.803 84.548 -9.712 83.763 -9.619 82.955 C-9.187 79.246 -8.75 75.538 -8.307 71.831 C-7.544 65.37 -6.898 58.929 -6.508 52.434 C-6.046 44.899 -5.11 37.473 -4.062 30 C-3.893 28.762 -3.723 27.525 -3.549 26.25 C-3.209 23.769 -2.867 21.289 -2.524 18.809 C-1.662 12.542 -0.831 6.271 0 0 Z " fill="#100F10" transform="translate(596,0)"/>
<path d="M0 0 C5.329 1.783 8.512 5.024 11 10 C14.371 20.639 16.217 31.998 18 43 C8.08 43.714 0.959 43.54 -7 37 C-8.002 36.188 -8.002 36.188 -9.023 35.359 C-14.276 30.617 -17.416 25.278 -18.379 18.227 C-18.646 11.939 -17.781 8.041 -14 3 C-9.658 -0.918 -5.604 -0.769 0 0 Z " fill="#F8F8F8" transform="translate(299,385)"/>
<path d="M0 0 C1.32 0.33 2.64 0.66 4 1 C4.922 4.165 5.837 7.332 6.75 10.5 C7.024 11.451 7.299 12.402 7.582 13.382 C9.235 19.165 10.745 24.959 12.125 30.812 C13.767 37.502 15.413 43.269 20.25 48.375 C22.936 52.404 22.766 56.301 22 61 C19.763 64.893 17.162 67.318 13 69 C8.338 69.723 3.967 70.125 -0.234 67.723 C-2.667 65.667 -4.569 63.861 -6 61 C-6.52 54.451 -5.535 49.905 -2.973 43.871 C-0.923 37.821 -0.839 31.34 -0.684 25 C-0.663 24.279 -0.642 23.558 -0.621 22.815 C-0.556 20.543 -0.497 18.272 -0.438 16 C-0.394 14.447 -0.351 12.893 -0.307 11.34 C-0.2 7.56 -0.099 3.78 0 0 Z " fill="#141415" transform="translate(383,354)"/>
<path d="M0 0 C1.938 1.625 1.938 1.625 3.938 3.625 C3.637 7.763 3.259 10.143 0.938 13.625 C1.48 13.928 2.023 14.231 2.582 14.543 C10.31 19.068 10.31 19.068 11.938 23.625 C11.868 27.518 11.333 29.945 9.375 33.312 C3.779 38.621 -2.667 40.581 -10.25 40.812 C-14.062 40.625 -14.062 40.625 -16.062 38.625 C-16.655 36.032 -17.143 33.496 -17.562 30.875 C-17.689 30.117 -17.816 29.36 -17.947 28.579 C-18.329 26.262 -18.698 23.944 -19.062 21.625 C-19.226 20.599 -19.226 20.599 -19.392 19.551 C-20.338 13.532 -21.181 7.73 -21.062 1.625 C-14.412 -1.922 -7.069 -3.174 0 0 Z " fill="#FAFAFA" transform="translate(617.0625,369.375)"/>
<path d="M0 0 C4.974 2.487 8.186 5.719 10 11 C11.484 19.005 8.928 26.067 5 33 C0.596 39.02 -4.866 45.245 -12 48 C-13.666 48.03 -15.334 48.032 -17 48 C-17.392 42.434 -17.715 36.869 -17.977 31.295 C-18.075 29.401 -18.192 27.509 -18.327 25.618 C-19.438 9.859 -19.438 9.859 -15.831 5.196 C-13.268 3.391 -10.921 2.118 -8 1 C-5.134 -0.433 -3.187 -0.306 0 0 Z " fill="#F7F7F7" transform="translate(483,362)"/>
<path d="M0 0 C0.453 0.406 0.906 0.813 1.373 1.231 C4.588 4.06 7.518 6.626 11.5 8.312 C12.191 8.618 12.882 8.924 13.594 9.238 C19.133 10.992 24.731 11.137 30.5 11.125 C31.748 11.128 32.996 11.13 34.281 11.133 C37.953 11.002 41.38 10.588 45 10 C45.846 13.071 46.282 15.815 46 19 C44.118 22.15 41.677 24.514 39 27 C33.457 32.42 31.881 35.487 30.875 43.25 C30.707 44.513 30.54 45.777 30.367 47.078 C30.246 48.042 30.125 49.007 30 50 C27.247 47.247 26.538 44.151 25.293 40.508 C22.595 35.275 16.866 32.546 12 29.5 C10.201 28.374 8.411 27.243 6.643 26.067 C5.165 25.107 3.626 24.242 2.082 23.391 C-1.318 19.487 -0.528 15.229 -0.312 10.25 C-0.29 9.266 -0.267 8.283 -0.244 7.27 C-0.185 4.845 -0.103 2.423 0 0 Z " fill="#F8F8F8" transform="translate(375,493)"/>
<path d="M0 0 C-0.33 1.65 -0.66 3.3 -1 5 C-15.632 5.741 -30.261 6.168 -44.906 6.494 C-58.503 6.802 -72.084 7.321 -85.671 7.923 C-106.463 8.844 -127.188 9.271 -148 9 C-148 7.35 -148 5.7 -148 4 C-135.495 2.972 -122.974 2.48 -110.438 2 C-108.757 1.935 -108.757 1.935 -107.042 1.869 C-71.387 0.509 -35.683 -0.311 0 0 Z " fill="#0E0D0E" transform="translate(154,710)"/>
<path d="M0 0 C1.179 0.091 1.179 0.091 2.383 0.184 C9.957 1.35 22.412 6.767 27 13 C27.651 19.078 27.651 19.078 25.797 21.703 C23.389 23.441 21.816 23.336 18.875 23.25 C17.541 23.227 17.541 23.227 16.18 23.203 C14 23 14 23 13 22 C11.62 21.809 10.232 21.677 8.844 21.57 C7.985 21.497 7.127 21.423 6.242 21.348 C4.446 21.202 2.649 21.061 0.852 20.926 C-6.102 20.317 -13.172 19.483 -18.562 14.75 C-20.463 11.114 -20.723 9.047 -20 5 C-15.011 -1.896 -7.83 -0.63 0 0 Z " fill="#060606" transform="translate(416,318)"/>
<path d="M0 0 C2.562 1.5 2.562 1.5 4 4 C4.589 7.318 4.862 8.887 4 12 C-1.398 17.785 -7.881 20.556 -15.106 23.58 C-17.004 24.377 -18.889 25.2 -20.773 26.027 C-21.983 26.542 -23.192 27.056 -24.438 27.586 C-26.075 28.283 -26.075 28.283 -27.746 28.994 C-31.368 30.114 -34.23 30.323 -38 30 C-40 28 -40 28 -40.438 24.188 C-40.336 20.886 -40.097 20.127 -38 17.375 C-37.01 16.591 -36.02 15.808 -35 15 C-34.442 14.541 -33.884 14.082 -33.309 13.609 C-23.909 6.152 -12.535 -1.855 0 0 Z " fill="#060606" transform="translate(366,324)"/>
<path d="M0 0 C1.06 3.18 0.956 4.199 0.328 7.383 C0.16 8.288 -0.009 9.193 -0.183 10.125 C-0.37 11.115 -0.557 12.105 -0.75 13.125 C-2.651 23.715 -3.825 34.29 -4.75 45 C-4.815 45.747 -4.879 46.494 -4.946 47.264 C-5.31 51.508 -5.66 55.754 -6 60 C-8.978 57.053 -11.751 54.176 -14.25 50.812 C-18.215 45.613 -22.574 40.808 -27 36 C-25.708 31.332 -23.963 28.348 -20.812 24.688 C-17.961 21.322 -15.163 17.955 -12.5 14.438 C-8.607 9.381 -4.32 4.693 0 0 Z " fill="#B3B4B3" transform="translate(282,713)"/>
<path d="M0 0 C3 1 3 1 4 3 C4.242 4.608 4.439 6.223 4.613 7.84 C6.002 21.698 6.002 21.698 10.133 34.914 C11.104 37.251 11.572 39.512 12 42 C8.397 42.412 7.216 42.154 4.188 40 C3.466 39.34 2.744 38.68 2 38 C1.794 38.598 1.587 39.196 1.375 39.812 C-0.602 42.958 -2.529 43.756 -6 45 C-10.495 45 -12.39 44.504 -15.875 41.625 C-18.88 37.912 -19.361 34.874 -19.273 30.129 C-18.803 26.468 -17.459 23.742 -15 21 C-9.866 17.9 -6.769 18.007 -1 19 C-1.012 17.712 -1.023 16.424 -1.035 15.098 C-1.045 13.419 -1.054 11.741 -1.062 10.062 C-1.071 9.212 -1.079 8.362 -1.088 7.486 C-1.093 6.273 -1.093 6.273 -1.098 5.035 C-1.106 3.912 -1.106 3.912 -1.114 2.766 C-1 1 -1 1 0 0 Z " fill="#FBFBFA" transform="translate(680,359)"/>
<path d="M0 0 C4.583 2.591 5.601 5.07 7 10 C11.141 33.004 11.141 33.004 6 42 C4.082 44.287 2.826 44.892 -0.117 45.277 C-3.755 45.426 -6.29 45.364 -9.562 43.688 C-11 42 -11 42 -11 39 C-6.71 39 -2.42 39 2 39 C2.791 32.67 3.048 27.288 2 21 C1.299 21.66 0.597 22.32 -0.125 23 C-3.496 25.345 -4.981 25.513 -9 25 C-12.155 24.098 -12.906 23.141 -14.75 20.375 C-16.231 16.377 -16.764 13.208 -16 9 C-12.258 1.918 -8.248 -1.459 0 0 Z " fill="#FAFAFA" transform="translate(659,429)"/>
<path d="M0 0 C5 4.333 5.326 12.153 5.836 18.391 C5.89 19.252 5.944 20.113 6 21 C6.054 21.84 6.108 22.681 6.164 23.547 C6.392 30.223 5.668 36.739 1.312 42.062 C-2.289 43.523 -5.116 43.308 -9 43 C-9.99 42.34 -10.98 41.68 -12 41 C-12 40.01 -12 39.02 -12 38 C-10.935 37.801 -10.935 37.801 -9.848 37.598 C-8.929 37.421 -8.009 37.244 -7.062 37.062 C-6.146 36.888 -5.229 36.714 -4.285 36.535 C-2.047 36.223 -2.047 36.223 -1 35 C-0.765 32.65 -0.586 30.294 -0.438 27.938 C-0.354 26.647 -0.27 25.357 -0.184 24.027 C-0.093 22.529 -0.093 22.529 0 21 C-1.031 21.516 -2.062 22.031 -3.125 22.562 C-6.782 24.114 -9.142 24.286 -13 23 C-15.81 20.722 -16.849 19.453 -18 16 C-18.481 11.001 -17.939 7.678 -15.258 3.516 C-10.934 -1.695 -6.012 -1.478 0 0 Z " fill="#FAFAFA" transform="translate(745,424)"/>
<path d="M0 0 C2.388 2.876 3.56 5.242 4.465 8.859 C4.706 9.803 4.947 10.747 5.195 11.719 C5.44 12.72 5.685 13.72 5.938 14.75 C6.195 15.774 6.453 16.798 6.719 17.853 C7.24 19.923 7.757 21.995 8.27 24.067 C8.924 26.693 9.595 29.314 10.277 31.934 C13 42.478 13 42.478 13 47 C6.4 47 -0.2 47 -7 47 C-7 39.004 -6.672 31.264 -5.938 23.331 C-5.812 21.937 -5.694 20.543 -5.583 19.148 C-5.421 17.102 -5.237 15.059 -5.047 13.016 C-4.942 11.812 -4.837 10.608 -4.729 9.368 C-3.858 5.344 -2.459 3.256 0 0 Z " fill="#FAFAFB" transform="translate(410,977)"/>
<path d="M0 0 C3.429 2.017 6.209 4.418 8 8 C8.57 12.675 8.438 16.123 6.312 20.375 C3.507 23.56 1.392 25.65 -2.922 26.281 C-7.433 26.485 -10.378 25.898 -14 23 C-16.885 19.703 -17.897 17.087 -18.312 12.688 C-17.884 7.628 -15.924 4.711 -12.16 1.363 C-8.321 -1.06 -4.365 -0.85 0 0 Z " fill="#FAFAFA" transform="translate(650,381)"/>
<path d="M0 0 C3.319 1.687 3.937 2.809 5.125 6.398 C5.432 7.721 5.723 9.046 6 10.375 C7.085 15.516 8.496 18.985 12 23 C12 23.66 12 24.32 12 25 C6.585 25.369 6.585 25.369 3.625 23.5 C3.089 23.005 2.553 22.51 2 22 C0.701 23.238 0.701 23.238 -0.625 24.5 C-2.97 26.431 -3.984 26.997 -7.062 27.625 C-10.978 26.792 -12.474 25.031 -15 22 C-16.86 18.28 -16.438 14.059 -16 10 C-14.718 6.238 -12.752 3.63 -9.688 1.062 C-6.224 -0.307 -3.695 -0.403 0 0 Z " fill="#FAFAFA" transform="translate(597,433)"/>
<path d="M0 0 C4.049 4.049 4.919 8.908 6.273 14.363 C7.15 17.545 8.377 20.14 10 23 C7.75 23.688 7.75 23.688 5 24 C2.688 22.562 2.688 22.562 1 21 C0.34 21.846 -0.32 22.691 -1 23.562 C-4.458 26.372 -4.458 26.372 -8.125 26 C-10.57 25.512 -11.886 25.081 -13.938 23.625 C-16.964 18.997 -16.553 13.299 -16 8 C-14.391 4.725 -13.09 2.856 -10.25 0.625 C-6.752 -0.347 -3.579 -0.804 0 0 Z " fill="#FAFAFA" transform="translate(716,425)"/>
<path d="M0 0 C3.704 2.027 5.654 3.48 8 7 C8.801 10.974 8.846 14.559 6.762 18.109 C4.283 21.087 2.733 22.756 -1 24 C-5.988 24.369 -9.05 24.182 -13 21 C-15.734 17.902 -16.229 15.575 -16 11.562 C-15.273 6.722 -13.516 4.349 -10 1 C-6.381 -0.206 -3.808 -0.323 0 0 Z " fill="#F9F9F9" transform="translate(648,535)"/>
<path d="M0 0 C9.7 8.521 11.865 31.18 14.812 43.312 C15.032 44.202 15.251 45.091 15.476 46.007 C16.444 50.069 17.304 53.791 17 58 C14.69 58 12.38 58 10 58 C9.779 57.063 9.557 56.126 9.329 55.161 C8.492 51.626 7.648 48.093 6.802 44.56 C6.439 43.042 6.078 41.523 5.72 40.004 C3.127 23.69 3.127 23.69 -5 11 C-4.549 9.539 -4.089 8.082 -3.625 6.625 C-3.37 5.813 -3.115 5.001 -2.852 4.164 C-2 2 -2 2 0 0 Z " fill="#0F0F10" transform="translate(413,966)"/>
<path d="M0 0 C2.062 0.438 2.062 0.438 4 1 C4.118 5.083 4.188 9.166 4.25 13.25 C4.3 14.959 4.3 14.959 4.352 16.703 C4.47 27.096 2.517 36.686 -4 45 C-5 46 -5 46 -8.062 46.062 C-9.032 46.042 -10.001 46.021 -11 46 C-11.33 45.34 -11.66 44.68 -12 44 C-11.613 43.55 -11.227 43.1 -10.828 42.637 C-6.403 37.172 -4.088 31.682 -2 25 C-2.556 24.776 -3.111 24.551 -3.684 24.32 C-9.861 20.799 -15.656 13.98 -18.125 7.312 C-18.558 5.673 -18.558 5.673 -19 4 C-17.68 3.34 -16.36 2.68 -15 2 C-14.325 2.904 -13.649 3.807 -12.953 4.738 C-12.052 5.93 -11.151 7.121 -10.25 8.312 C-9.585 9.205 -9.585 9.205 -8.906 10.115 C-6.525 13.249 -4.349 15.833 -1 18 C-1.012 16.784 -1.023 15.569 -1.035 14.316 C-1.045 12.732 -1.054 11.147 -1.062 9.562 C-1.071 8.76 -1.079 7.958 -1.088 7.131 C-1.097 5.087 -1.052 3.043 -1 1 C-0.67 0.67 -0.34 0.34 0 0 Z " fill="#FBFBFB" transform="translate(711,373)"/>
<path d="M0 0 C1.063 3.19 0.973 3.982 0.18 7.105 C-0.024 7.917 -0.227 8.729 -0.437 9.565 C-0.664 10.431 -0.891 11.296 -1.125 12.188 C-1.351 13.072 -1.578 13.957 -1.811 14.868 C-3.928 23.002 -6.379 31.016 -9 39 C-11 39 -11 39 -13.125 37 C-14.084 36.001 -15.042 35.001 -16 34 C-17.435 32.56 -18.872 31.122 -20.312 29.688 C-21.542 28.458 -22.771 27.229 -24 26 C-22.415 22.137 -19.94 19.711 -16.992 16.797 C-16.507 16.314 -16.021 15.832 -15.521 15.334 C-13.977 13.801 -12.426 12.276 -10.875 10.75 C-9.824 9.709 -8.773 8.667 -7.723 7.625 C-5.154 5.078 -2.579 2.537 0 0 Z " fill="#F4F4F4" transform="translate(279,836)"/>
<path d="M0 0 C4.579 3.561 5.155 8.946 6.289 14.355 C6.8 17.133 6.8 17.133 9 19 C8.625 21.125 8.625 21.125 8 23 C7.051 22.67 6.102 22.34 5.125 22 C2.229 20.898 2.229 20.898 0 21 C-0.577 21.516 -1.155 22.031 -1.75 22.562 C-4 24 -4 24 -7 24 C-10.97 22.677 -12.058 21.734 -14 18 C-14.727 13.533 -15.099 9.089 -12.941 4.988 C-9.034 0.199 -6.069 -0.628 0 0 Z " fill="#FAFAFA" transform="translate(720,530)"/>
<path d="M0 0 C2.061 3.091 2.595 5.102 3.375 8.688 C4.858 14.849 6.394 20.746 11.312 25 C13.314 27.373 13.259 28.053 13.062 31.062 C12.506 33.936 12.153 34.842 10.062 37 C5.645 38.442 1.593 38.812 -3 38 C-5.688 35.938 -5.688 35.938 -7 33 C-6.924 28.997 -6.031 26.078 -4.547 22.363 C-2.818 17.822 -2.026 13.291 -1.312 8.5 C-1.183 7.678 -1.053 6.855 -0.92 6.008 C-0.606 4.006 -0.302 2.003 0 0 Z " fill="#F5F5F5" transform="translate(388,380)"/>
<path d="M0 0 C2.698 1.4 3.896 2.64 6 5 C6.138 8.459 5.757 10.117 3.5 12.75 C-0.167 14.583 -3.985 15.271 -8 16 C-8 16.99 -8 17.98 -8 19 C-4.578 20.141 -1.913 20.098 1.688 20.062 C2.867 20.053 4.046 20.044 5.262 20.035 C6.165 20.024 7.069 20.012 8 20 C7.67 21.65 7.34 23.3 7 25 C1.385 26.872 -4.071 26.912 -9.438 24.375 C-12.874 21.19 -14.889 18.609 -15.094 13.789 C-14.759 8.751 -13.785 5.569 -10 2 C-6.734 -0.286 -3.925 -0.55 0 0 Z " fill="#FAFAFA" transform="translate(769,421)"/>
<path d="M0 0 C4.042 0.957 6.038 4.075 8.18 7.395 C10.317 13.271 10.039 19.296 9.93 25.457 C7.992 26.02 7.992 26.02 5.93 26.457 C3.622 24.149 3.713 18.605 3.211 15.359 C2.704 12.398 2.235 9.924 0.578 7.387 C-1.058 6.271 -1.058 6.271 -3.152 6.559 C-5.482 7.408 -5.482 7.408 -6.758 10.832 C-8.461 15.923 -8.786 21.126 -9.07 26.457 C-10.39 26.457 -11.71 26.457 -13.07 26.457 C-16.423 18.076 -18.4 10.522 -18.07 1.457 C-13.32 2.207 -13.32 2.207 -11.07 4.457 C-10.41 3.797 -9.75 3.137 -9.07 2.457 C-5.713 0.219 -3.94 -0.201 0 0 Z " fill="#FBFBFB" transform="translate(629.0703125,430.54296875)"/>
<path d="M0 0 C4.313 0.847 5.77 2.315 8.5 5.688 C10.604 9.896 10.024 15.116 9.5 19.688 C8.2 22.735 7.212 23.565 4.5 25.688 C1.5 26.375 1.5 26.375 -1.5 25.688 C-5.414 22.485 -8.079 19.373 -8.871 14.32 C-8.985 10.032 -9.021 6.632 -6.438 3.062 C-3.5 0.688 -3.5 0.688 0 0 Z " fill="#0B0A0B" transform="translate(423.5,365.3125)"/>
<path d="M0 0 C3.498 2.226 5.457 4.181 7 8 C7.739 13.151 8.095 18.35 4.875 22.688 C2 25 2 25 -1 25.688 C-6.028 24.535 -8.238 21.142 -11 17 C-11.761 11.378 -12.029 6.574 -8.875 1.75 C-5.463 -0.327 -3.92 -0.735 0 0 Z " fill="#09090A" transform="translate(365,374)"/>
<path d="M0 0 C0.66 0 1.32 0 2 0 C3.121 1.477 3.121 1.477 4.438 3.625 C6.424 6.754 8.516 9.685 10.875 12.539 C11.378 13.152 11.882 13.765 12.401 14.396 C13.415 15.62 14.442 16.834 15.48 18.038 C18.962 22.269 18.962 22.269 19.125 25.434 C17.487 29.169 15.357 32.449 13.062 35.812 C12.607 36.505 12.151 37.198 11.682 37.912 C10.513 39.649 9.262 41.33 8 43 C7.34 43 6.68 43 6 43 C5.902 41.991 5.804 40.981 5.703 39.941 C4.337 26.54 2.218 13.284 0 0 Z " fill="#EDEDED" transform="translate(524,710)"/>
<path d="M0 0 C6.629 -0.282 11.65 0.496 17.875 2.688 C19.557 3.247 21.241 3.803 22.926 4.355 C24.197 4.774 24.197 4.774 25.495 5.201 C38.133 9.233 51.178 12.026 64.106 14.945 C69.455 16.157 74.748 17.417 80 19 C79.67 19.66 79.34 20.32 79 21 C57.857 19.49 37.37 14.769 17.062 8.812 C15.926 8.48 14.789 8.147 13.617 7.804 C4.238 4.961 4.238 4.961 0 2 C0 1.34 0 0.68 0 0 Z " fill="#555555" transform="translate(374,807)"/>
<path d="M0 0 C1.32 0.66 2.64 1.32 4 2 C2.903 8.315 -2.464 13.026 -7.375 16.812 C-11.271 19.425 -15.505 20.77 -20 22 C-20.581 22.184 -21.163 22.369 -21.762 22.559 C-31.328 24.445 -42.579 24.173 -51 19 C-60.369 12.597 -60.369 12.597 -61.84 8.875 C-62 7 -62 7 -61 5 C-58.142 6.305 -56.037 7.733 -53.75 9.875 C-45.637 17.027 -37.577 18.501 -27 18 C-18.958 17.106 -9.166 13.061 -3.875 6.875 C-2.402 4.617 -1.049 2.481 0 0 Z " fill="#151415" transform="translate(423,426)"/>
<path d="M0 0 C0.806 0.003 1.611 0.006 2.441 0.01 C3.704 0.022 3.704 0.022 4.992 0.035 C5.842 0.04 6.691 0.044 7.566 0.049 C9.667 0.061 11.767 0.079 13.867 0.098 C13.537 1.418 13.207 2.738 12.867 4.098 C8.247 4.098 3.627 4.098 -1.133 4.098 C-1.133 6.738 -1.133 9.378 -1.133 12.098 C2.827 12.098 6.787 12.098 10.867 12.098 C11.197 13.418 11.527 14.738 11.867 16.098 C8.852 17.103 6.825 17.201 3.68 17.16 C2.779 17.151 1.878 17.142 0.949 17.133 C0.262 17.121 -0.425 17.11 -1.133 17.098 C-0.803 20.068 -0.473 23.038 -0.133 26.098 C0.795 25.85 0.795 25.85 1.742 25.598 C6.122 24.897 10.441 25.02 14.867 25.098 C14.537 26.418 14.207 27.738 13.867 29.098 C8.504 30.46 3.439 31.655 -2.133 31.098 C-4.554 29.564 -5.012 28.586 -5.697 25.816 C-6.135 23.087 -6.247 20.558 -6.23 17.797 C-6.227 16.82 -6.224 15.844 -6.221 14.838 C-6.212 13.83 -6.204 12.823 -6.195 11.785 C-6.191 10.758 -6.186 9.732 -6.182 8.674 C-6.17 6.148 -6.153 3.623 -6.133 1.098 C-3.836 -0.051 -2.55 -0.018 0 0 Z " fill="#F8F8F7" transform="translate(616.1328125,477.90234375)"/>
<path d="M0 0 C-0.66 2.31 -1.32 4.62 -2 7 C-12.189 7.795 -22.342 8.108 -32.562 8.125 C-33.668 8.13 -34.773 8.134 -35.912 8.139 C-41.703 8.128 -47.273 7.875 -53 7 C-52.67 6.01 -52.34 5.02 -52 4 C-34.595 0.537 -17.713 -0.186 0 0 Z " fill="#0E0E0D" transform="translate(143,738)"/>
<path d="M0 0 C2 0.312 2 0.312 4 1 C6.582 6.164 5.408 13.512 3.812 18.875 C2.266 22.863 0.595 25.523 -3 28 C-5.835 28.696 -8.167 28.713 -11 28 C-15.784 24.386 -18.302 19.918 -19.688 14.125 C-20.062 10.384 -20.065 6.759 -20 3 C-18.125 2.375 -18.125 2.375 -16 2 C-13.727 4.273 -13.626 5.053 -13.148 8.133 C-13.02 8.938 -12.891 9.744 -12.758 10.574 C-12.631 11.416 -12.505 12.258 -12.375 13.125 C-12.174 14.399 -12.174 14.399 -11.969 15.699 C-11.639 17.798 -11.318 19.899 -11 22 C-8.69 22 -6.38 22 -4 22 C-1.957 16.68 -1.598 11.78 -1.346 6.127 C-1.09 1.09 -1.09 1.09 0 0 Z " fill="#F8F8F8" transform="translate(690,426)"/>
<path d="M0 0 C1.32 0.66 2.64 1.32 4 2 C4 2.66 4 3.32 4 4 C4.66 4 5.32 4 6 4 C6.33 3.01 6.66 2.02 7 1 C10.221 -0.61 13.508 -0.45 17 0 C20.198 1.563 21.541 2.953 22.969 6.211 C24.759 11.599 25.314 16.35 25 22 C23.35 22.33 21.7 22.66 20 23 C19.89 22.108 19.781 21.216 19.668 20.297 C19.509 19.126 19.351 17.956 19.188 16.75 C19.037 15.59 18.886 14.43 18.73 13.234 C18.004 10.016 17.183 8.417 15 6 C13.35 6.33 11.7 6.66 10 7 C8.895 10.315 8.679 13.204 8.438 16.688 C8.354 17.867 8.27 19.046 8.184 20.262 C8.123 21.165 8.062 22.069 8 23 C6.35 22.67 4.7 22.34 3 22 C2.326 19.439 1.661 16.877 1 14.312 C0.714 13.231 0.714 13.231 0.422 12.127 C-0.542 8.359 -1.36 4.924 -1 1 C-0.67 0.67 -0.34 0.34 0 0 Z " fill="#FAFAFA" transform="translate(661,533)"/>
<path d="M0 0 C5.384 2.826 9.562 6.05 13.938 10.25 C14.82 11.081 14.82 11.081 15.721 11.93 C17.153 13.28 18.577 14.639 20 16 C18.424 19.873 15.923 22.247 12.938 25.125 C9.535 28.241 9.535 28.241 7 32 C6.34 32 5.68 32 5 32 C4.914 31.435 4.829 30.87 4.74 30.288 C4.351 27.733 3.957 25.179 3.562 22.625 C3.428 21.736 3.293 20.846 3.154 19.93 C3.022 19.079 2.89 18.228 2.754 17.352 C2.633 16.566 2.513 15.781 2.389 14.971 C2.078 12.934 2.078 12.934 1 11 C0.772 9.129 0.59 7.253 0.438 5.375 C0.354 4.372 0.27 3.369 0.184 2.336 C0.123 1.565 0.062 0.794 0 0 Z " fill="#F4F5F5" transform="translate(541,828)"/>
<path d="M0 0 C0.99 0 1.98 0 3 0 C7.129 8.257 3.454 22.776 1 31 C-0.082 33.949 -0.976 35.513 -3 38 C-6.25 38.938 -6.25 38.938 -9 39 C-9 37.68 -9 36.36 -9 35 C-8.381 34.443 -7.763 33.886 -7.125 33.312 C-3.816 29.712 -3 24.85 -3 20 C-3.584 19.747 -4.168 19.495 -4.77 19.234 C-8.71 17.054 -11.431 13.651 -14 10 C-14.938 6.5 -14.938 6.5 -15 4 C-13.68 4 -12.36 4 -11 4 C-9.113 5.934 -9.113 5.934 -7.312 8.438 C-6.711 9.261 -6.109 10.085 -5.488 10.934 C-4.997 11.616 -4.506 12.297 -4 13 C-3.67 13.33 -3.34 13.66 -3 14 C-2.867 13.073 -2.734 12.146 -2.598 11.191 C-2.421 9.994 -2.244 8.796 -2.062 7.562 C-1.888 6.368 -1.714 5.173 -1.535 3.941 C-1 1 -1 1 0 0 Z " fill="#F7F7F7" transform="translate(648,482)"/>
<path d="M0 0 C3.875 0.688 3.875 0.688 6.375 2.375 C8.168 5.139 8.455 6.456 7.875 9.688 C6.227 11.836 5.278 12.596 2.613 13.199 C1.813 13.257 1.012 13.315 0.188 13.375 C-1.025 13.474 -1.025 13.474 -2.262 13.574 C-2.877 13.612 -3.491 13.649 -4.125 13.688 C-3.135 15.173 -3.135 15.173 -2.125 16.688 C0.542 17.052 0.542 17.052 3.5 16.875 C4.503 16.848 5.506 16.821 6.539 16.793 C7.695 16.741 7.695 16.741 8.875 16.688 C9.205 18.007 9.535 19.327 9.875 20.688 C5.827 23.386 2.628 23.344 -2.125 22.688 C-5.655 20.954 -7.53 19.716 -9.5 16.312 C-10.444 12.346 -11.109 9.482 -9.062 5.75 C-6.476 2.264 -4.462 0.226 0 0 Z " fill="#F9F9F8" transform="translate(665.125,481.3125)"/>
<path d="M0 0 C1.134 3.403 0.85 5.008 0.258 8.508 C0.079 9.576 -0.101 10.645 -0.285 11.746 C-0.48 12.861 -0.674 13.976 -0.875 15.125 C-1.062 16.248 -1.249 17.371 -1.441 18.527 C-2.863 26.863 -2.863 26.863 -4 28 C-5.343 28.086 -6.69 28.107 -8.035 28.098 C-8.844 28.094 -9.653 28.091 -10.486 28.088 C-11.336 28.08 -12.187 28.071 -13.062 28.062 C-13.917 28.058 -14.771 28.053 -15.65 28.049 C-17.767 28.037 -19.883 28.019 -22 28 C-16.22 17.465 -8.092 8.819 0 0 Z " fill="#B3B3B3" transform="translate(282,713)"/>
<path d="M0 0 C0.99 0.66 1.98 1.32 3 2 C3 3.32 3 4.64 3 6 C2.408 5.954 1.817 5.907 1.207 5.859 C-3.02 5.666 -5.325 5.578 -9 7.875 C-12.488 11.581 -12.404 14.643 -12.34 19.578 C-12.175 22.23 -12.175 22.23 -9.938 24.625 C-4.63 27.109 0.405 26.092 6 25 C5.75 27.375 5.75 27.375 5 30 C0.881 32.649 -3.259 32.66 -8 32 C-12.817 29.637 -15.637 26.817 -18 22 C-19.031 16.327 -18.013 11.714 -15.211 6.727 C-11.272 1.11 -6.623 -0.414 0 0 Z " fill="#F9F9F9" transform="translate(622,527)"/>
<path d="M0 0 C1.32 0 2.64 0 4 0 C4.873 10.707 5.089 21.257 5 32 C10.94 32 16.88 32 23 32 C23 33.65 23 35.3 23 37 C19.731 37.284 16.461 37.521 13.188 37.75 C12.259 37.831 11.33 37.912 10.373 37.996 C9.034 38.083 9.034 38.083 7.668 38.172 C6.846 38.235 6.024 38.298 5.177 38.362 C3 38 3 38 1.227 36.479 C-0.466 33.058 -0.373 29.901 -0.293 26.172 C-0.289 25.423 -0.284 24.674 -0.28 23.902 C-0.263 21.518 -0.226 19.134 -0.188 16.75 C-0.172 15.13 -0.159 13.51 -0.146 11.891 C-0.113 7.927 -0.062 3.964 0 0 Z " fill="#FBFBFA" transform="translate(555,425)"/>
<path d="M0 0 C2.625 1.75 2.625 1.75 4 4 C4.25 6.438 4.25 6.438 3 9 C-1.885 13.306 -6.609 14.658 -13 15 C-15.296 5.59 -15.296 5.59 -15 1 C-9.815 -1.26 -5.412 -1.415 0 0 Z " fill="#B9B9B8" transform="translate(619,390)"/>
<path d="M0 0 C1.32 0.33 2.64 0.66 4 1 C4 4.63 4 8.26 4 12 C5.98 12 7.96 12 10 12 C10.562 13.938 10.562 13.938 11 16 C10.67 16.33 10.34 16.66 10 17 C8.02 17 6.04 17 4 17 C5.32 22.94 6.64 28.88 8 35 C6.35 34.67 4.7 34.34 3 34 C0.231 28.461 -0.588 23.135 -1 17 C-2.32 17 -3.64 17 -5 17 C-5 15.68 -5 14.36 -5 13 C-3.68 13 -2.36 13 -1 13 C-1.012 12.145 -1.023 11.291 -1.035 10.41 C-1.049 8.753 -1.049 8.753 -1.062 7.062 C-1.074 5.96 -1.086 4.858 -1.098 3.723 C-1 1 -1 1 0 0 Z " fill="#FAFAF9" transform="translate(692,521)"/>
<path d="M0 0 C1.32 0 2.64 0 4 0 C4.33 3.96 4.66 7.92 5 12 C6.98 12 8.96 12 11 12 C11.562 13.938 11.562 13.938 12 16 C11 17 11 17 7.938 17.062 C6.968 17.042 5.999 17.021 5 17 C5.477 19.271 5.957 21.542 6.438 23.812 C6.704 25.077 6.971 26.342 7.246 27.645 C7.934 30.97 7.934 30.97 9 34 C6.525 34.495 6.525 34.495 4 35 C0.631 28.702 -0.14 24.119 0 17 C-1.32 16.67 -2.64 16.34 -4 16 C-3.67 15.01 -3.34 14.02 -3 13 C-2.01 13 -1.02 13 0 13 C0 8.71 0 4.42 0 0 Z " fill="#F9F9F9" transform="translate(754,517)"/>
<path d="M0 0 C0.33 1.65 0.66 3.3 1 5 C0.434 5.121 -0.132 5.242 -0.715 5.367 C-1.448 5.535 -2.182 5.702 -2.938 5.875 C-3.668 6.037 -4.399 6.2 -5.152 6.367 C-7.207 6.83 -7.207 6.83 -8 9 C-8.187 11.69 -8.086 14.297 -8 17 C-6.337 18.663 -4.217 18.36 -1.938 18.562 C-1.018 18.646 -0.099 18.73 0.848 18.816 C1.913 18.907 1.913 18.907 3 19 C3 20.32 3 21.64 3 23 C-0.457 24.729 -4.22 24.49 -8 24 C-10.87 22.206 -12.491 21.017 -14 18 C-14.553 12.584 -14.503 8.411 -11 4 C-7.779 0.242 -4.823 -0.13 0 0 Z " fill="#F8F8F7" transform="translate(745,528)"/>
<path d="M0 0 C2.375 1.562 2.375 1.562 4 4 C4.559 7.915 4.633 10.038 2.438 13.375 C-0.77 15.513 -3.164 15.93 -7 16 C-9.163 14.438 -9.896 13.507 -10.434 10.879 C-10.444 4.7 -10.444 4.7 -8.375 1.438 C-5.275 -0.439 -3.567 -0.595 0 0 Z " fill="#B8B7B7" transform="translate(648,386)"/>
<path d="M0 0 C0.33 0.66 0.66 1.32 1 2 C-1.424 8.006 -4.706 12.098 -9.094 16.812 C-11.596 19.684 -13.272 22.616 -15 26 C-16.32 25.67 -17.64 25.34 -19 25 C-19 17.779 -17.423 14.329 -12.41 9.152 C-8.541 5.697 -4.37 2.785 0 0 Z " fill="#ECEDED" transform="translate(343,225)"/>
<path d="M0 0 C2.312 1 2.312 1 4.312 4 C4.839 7.949 4.442 9.755 2.562 13.312 C0.312 16 0.312 16 -1.688 17.125 C-3.688 17 -3.688 17 -5.938 15.562 C-7.924 12.654 -8.325 10.494 -8.141 6.977 C-7.142 2.62 -4.454 0 0 0 Z " fill="#B8B8B7" transform="translate(674.6875,382)"/>
<path d="M0 0 C1.095 -0.018 1.095 -0.018 2.213 -0.037 C10.279 -0.059 17.322 2.184 24.812 5 C25.507 5.26 26.202 5.52 26.918 5.788 C31.972 7.735 36.378 10.046 40.812 13.188 C38.812 14.188 38.812 14.188 36.937 13.583 C36.189 13.248 35.442 12.914 34.672 12.57 C33.848 12.211 33.024 11.851 32.176 11.48 C31.313 11.095 30.451 10.71 29.562 10.312 C27.873 9.559 26.18 8.811 24.484 8.07 C23.733 7.734 22.981 7.398 22.206 7.051 C17.205 5.247 12.157 5.034 6.883 4.871 C4.949 4.808 4.949 4.808 2.977 4.744 C1.63 4.704 0.284 4.665 -1.062 4.625 C-2.432 4.582 -3.802 4.538 -5.172 4.494 C-8.51 4.388 -11.849 4.286 -15.188 4.188 C-10.231 0.256 -6.17 0.005 0 0 Z " fill="#DEDFDF" transform="translate(383.1875,215.8125)"/>
<path d="M0 0 C3.538 0.277 4.869 0.575 7.188 3.25 C7.75 6.125 7.75 6.125 7.188 9.25 C5.033 11.943 3.192 13.732 0.125 15.312 C-1.812 15.25 -1.812 15.25 -4 13.625 C-6.027 10.969 -6.731 9.584 -6.812 6.25 C-3.859 0.343 -3.859 0.343 0 0 Z " fill="#BABABA" transform="translate(643.8125,539.75)"/>
<path d="M0 0 C4.757 1.797 7.673 5.57 10 10 C10.312 12.938 10.312 12.938 10 15 C8.68 15 7.36 15 6 15 C4.438 13.32 4.438 13.32 3 11.125 C0.956 8.026 -0.494 6.336 -4 5 C-8.626 4.389 -11.206 4.833 -14.938 7.5 C-15.948 8.325 -16.959 9.15 -18 10 C-17.702 6.422 -17.258 5.238 -14.562 2.75 C-9.728 -0.551 -5.757 -0.483 0 0 Z " fill="#141415" transform="translate(361,358)"/>
<path d="M0 0 C5.296 1.908 8.46 4.921 11 10 C11.25 13.375 11.25 13.375 11 16 C10.01 16.33 9.02 16.66 8 17 C7.613 16.385 7.227 15.77 6.828 15.137 C6.307 14.328 5.787 13.52 5.25 12.688 C4.74 11.887 4.229 11.086 3.703 10.262 C1.97 7.96 0.442 6.514 -2 5 C-5.515 4.561 -7.275 4.517 -10.25 6.5 C-10.827 6.995 -11.405 7.49 -12 8 C-12.66 8 -13.32 8 -14 8 C-13.686 5.068 -12.961 3.958 -10.938 1.75 C-7.206 -0.473 -4.187 -0.78 0 0 Z " fill="#161617" transform="translate(422,350)"/>
<path d="M0 0 C7.666 0.423 14.518 2.107 21.812 4.438 C23.327 4.906 23.327 4.906 24.873 5.385 C29.324 6.774 33.685 8.227 38 10 C38 10.33 38 10.66 38 11 C31.1 11.253 25.125 10.406 18.438 8.75 C17.544 8.545 16.65 8.34 15.729 8.129 C10.005 6.747 5.168 4.822 0 2 C0 1.34 0 0.68 0 0 Z " fill="#525252" transform="translate(371,854)"/>
<path d="M0 0 C1 1 1 1 1.25 4.125 C0.956 8.682 0.283 11.064 -2 15 C-4.688 15.938 -4.688 15.938 -7 16 C-9.469 12.297 -9.561 9.295 -9 5 C-6.753 0.199 -5.223 -1.685 0 0 Z " fill="#BEBEBD" transform="translate(595,439)"/>
<path d="M0 0 C2.312 0.375 2.312 0.375 3.312 1.375 C3.906 6.085 3.948 9.402 1.312 13.438 C0.653 14.077 -0.008 14.716 -0.688 15.375 C-3.125 15 -3.125 15 -5.688 14.375 C-7.238 11.275 -6.977 8.796 -6.688 5.375 C-4.759 2.018 -3.902 0.544 0 0 Z " fill="#BDBDBC" transform="translate(654.6875,433.625)"/>
<path d="M0 0 C8.763 4.13 16.065 11.776 21 20 C20.67 20.66 20.34 21.32 20 22 C19.539 21.504 19.077 21.007 18.602 20.496 C11.357 12.95 3.467 7.407 -6 3 C-7.335 2.337 -8.669 1.671 -10 1 C-6.705 -0.648 -3.548 -0.627 0 0 Z " fill="#E2E3E3" transform="translate(424,215)"/>
<path d="M0 0 C4.95 0 9.9 0 15 0 C15 1.98 15 3.96 15 6 C14 7 14 7 12.234 7.114 C11.485 7.108 10.736 7.103 9.965 7.098 C9.156 7.094 8.347 7.091 7.514 7.088 C6.664 7.08 5.813 7.071 4.938 7.062 C4.083 7.058 3.229 7.053 2.35 7.049 C0.233 7.037 -1.883 7.019 -4 7 C-2.68 4.69 -1.36 2.38 0 0 Z " fill="#100F10" transform="translate(264,734)"/>
<path d="M0 0 C1.65 0.33 3.3 0.66 5 1 C5.286 6.538 5.245 10.248 2 15 C-0.188 15.875 -0.188 15.875 -2 16 C-4.452 12.322 -4.715 9.274 -4 5 C-2 2 -2 2 0 0 Z " fill="#BABAB9" transform="translate(709,430)"/>
<path d="M0 0 C2.375 0.875 2.375 0.875 4.375 2.875 C4.923 8.901 4.923 8.901 3.25 11.875 C0.357 13.418 -1.561 12.788 -4.625 11.875 C-6.791 8.627 -7.177 7.644 -6.625 3.875 C-4.538 0.938 -3.678 -0.175 0 0 Z " fill="#101010" transform="translate(347.625,892.125)"/>
<path d="M0 0 C0.66 0.33 1.32 0.66 2 1 C-11.86 14.86 -25.72 28.72 -40 43 C-40 40 -40 40 -37.621 37.363 C-36.567 36.339 -35.506 35.322 -34.438 34.312 C-31.044 31.064 -27.773 27.793 -24.711 24.227 C-20.436 19.273 -15.823 14.677 -11.188 10.062 C-10.33 9.201 -9.472 8.339 -8.588 7.451 C-7.769 6.633 -6.949 5.815 -6.105 4.973 C-5.364 4.233 -4.624 3.493 -3.86 2.731 C-2 1 -2 1 0 0 Z " fill="#303333" transform="translate(285,820)"/>
<path d="M0 0 C2.5 0.125 2.5 0.125 3.5 1.125 C4.093 8.236 4.093 8.236 1.5 12.125 C0.84 12.785 0.18 13.445 -0.5 14.125 C-2.15 13.795 -3.8 13.465 -5.5 13.125 C-6.851 6.86 -6.851 6.86 -5.125 3.25 C-2.745 0.137 -2.745 0.137 0 0 Z " fill="#B8B8B7" transform="translate(738.5,428.875)"/>
<path d="M0 0 C0.99 0.66 1.98 1.32 3 2 C2.649 4.834 2.215 5.816 0.004 7.703 C-0.802 8.214 -1.607 8.724 -2.438 9.25 C-3.241 9.771 -4.044 10.292 -4.871 10.828 C-7 12 -7 12 -9 12 C-10.176 8.326 -10.074 4.831 -10 1 C-6.873 -0.564 -3.42 -0.4 0 0 Z " fill="#B8B8B7" transform="translate(612,373)"/>
<path d="M0 0 C2 2 2 2 2.312 5.438 C2 9 2 9 0.812 10.938 C-1.688 12.403 -3.151 12.499 -6 12 C-8.286 9.872 -8.923 8.526 -9.375 5.438 C-9 3 -9 3 -7.875 1.188 C-5.166 -0.528 -3.137 -0.334 0 0 Z " fill="#0C0C0D" transform="translate(352,827)"/>
<path d="M0 0 C1.666 -0.043 3.334 -0.041 5 0 C5.33 0.33 5.66 0.66 6 1 C5.96 5.967 5.656 10.344 2 14 C0.68 13.67 -0.64 13.34 -2 13 C-3.199 7.551 -2.914 4.778 0 0 Z " fill="#BFBFBE" transform="translate(713,535)"/>
<path d="M0 0 C0.66 0.33 1.32 0.66 2 1 C1.67 1.66 1.34 2.32 1 3 C1.087 4.712 1.241 6.422 1.438 8.125 C1.539 9.035 1.641 9.945 1.746 10.883 C1.83 11.581 1.914 12.28 2 13 C1.34 13 0.68 13 0 13 C-0.33 10.69 -0.66 8.38 -1 6 C-4.316 10.385 -5.55 13.375 -6 19 C-6.99 19.33 -7.98 19.66 -9 20 C-10.33 14.679 -9.991 11.677 -7.324 6.867 C-5.262 3.96 -2.875 2.091 0 0 Z " fill="#262526" transform="translate(273,259)"/>
<path d="M0 0 C3.062 0.25 3.062 0.25 6 1 C7.509 4.018 7.5 5.623 7 9 C4.907 11.909 2.525 14.462 0 17 C-0.99 16.67 -1.98 16.34 -3 16 C-2.381 15.319 -1.762 14.639 -1.125 13.938 C1.332 10.541 2.049 8.04 3 4 C0.69 4.66 -1.62 5.32 -4 6 C-2.848 3.532 -1.952 1.952 0 0 Z " fill="#1A1A1B" transform="translate(473,377)"/>
<path d="M0 0 C4.522 1.478 6.771 4.063 9.25 8.062 C10.125 11.5 10.125 11.5 10.25 14.062 C9.26 14.062 8.27 14.062 7.25 14.062 C6.039 12.348 6.039 12.348 4.875 10.125 C2.964 6.771 2.964 6.771 -0.375 4.938 C-3.02 4.874 -3.02 4.874 -5.75 7.062 C-4.652 0.106 -4.652 0.106 0 0 Z " fill="#1B1B1B" transform="translate(298.75,396.9375)"/>
<path d="M0 0 C0.66 0.33 1.32 0.66 2 1 C1.613 1.473 1.227 1.946 0.828 2.434 C-7.22 12.653 -8.841 20.36 -7.5 33.125 C-7.252 35.043 -7.252 35.043 -7 37 C-10.766 33.398 -11.195 31.222 -11.312 26 C-11.192 15.097 -6.979 8.116 0 0 Z " fill="#AEAFAF" transform="translate(276,293)"/>
<path d="M0 0 C-0.33 0.99 -0.66 1.98 -1 3 C-2.848 3.73 -2.848 3.73 -5.062 4.188 C-5.796 4.346 -6.529 4.505 -7.285 4.668 C-8.134 4.832 -8.134 4.832 -9 5 C-6.965 -0.67 -5.879 -1.392 0 0 Z " fill="#BEBDBE" transform="translate(769,427)"/>
<path d="M0 0 C0.99 0.495 0.99 0.495 2 1 C2.668 3.145 2.668 3.145 3.188 5.812 C3.367 6.685 3.546 7.558 3.73 8.457 C3.997 10.974 3.783 12.617 3 15 C-0.778 10.278 -0.301 5.741 0 0 Z " fill="#CECFCF" transform="translate(265,315)"/>
<path d="M0 0 C3.3 0.33 6.6 0.66 10 1 C9.34 2.32 8.68 3.64 8 5 C4.625 4.453 2.918 3.945 0 2 C0 1.34 0 0.68 0 0 Z " fill="#575656" transform="translate(371,854)"/>
<path d="M0 0 C4.062 0.578 6.848 1.891 10.312 4.062 C11.196 4.61 12.079 5.158 12.988 5.723 C13.652 6.144 14.316 6.566 15 7 C14.01 7.495 14.01 7.495 13 8 C10.564 7.092 8.238 6.132 5.875 5.062 C5.216 4.772 4.558 4.481 3.879 4.182 C2.25 3.461 0.624 2.732 -1 2 C-0.67 1.34 -0.34 0.68 0 0 Z " fill="#C3C5C6" transform="translate(409,222)"/>
<path d="M0 0 C1.32 0 2.64 0 4 0 C4 2.31 4 4.62 4 7 C3.01 7.33 2.02 7.66 1 8 C0.67 5.36 0.34 2.72 0 0 Z " fill="#3E3E3E" transform="translate(529,731)"/>
<path d="M0 0 C1.675 0.286 3.344 0.618 5 1 C5 1.66 5 2.32 5 3 C2.353 4.461 1.106 5 -2 5 C-1.125 1.125 -1.125 1.125 0 0 Z " fill="#C1BFBF" transform="translate(663,486)"/>
<path d="M0 0 C4.47 2.503 8.769 5.111 13 8 C12.01 8.495 12.01 8.495 11 9 C8.18 7.566 8.18 7.566 4.875 5.562 C3.779 4.904 2.684 4.245 1.555 3.566 C0.712 3.049 -0.131 2.533 -1 2 C-0.67 1.34 -0.34 0.68 0 0 Z " fill="#E0E2E3" transform="translate(345,476)"/>
<path d="M0 0 C2.97 0.495 2.97 0.495 6 1 C5.67 1.99 5.34 2.98 5 4 C3.35 4 1.7 4 0 4 C0 2.68 0 1.36 0 0 Z " fill="#4C4B4B" transform="translate(379,856)"/>
<path d="M0 0 C0.835 0.371 0.835 0.371 1.688 0.75 C-3.586 3.973 -3.586 3.973 -5.312 4.75 C-5.973 4.42 -6.632 4.09 -7.312 3.75 C-2.882 -0.312 -2.882 -0.312 0 0 Z " fill="#DEDFDF" transform="translate(356.3125,222.25)"/>
<path d="M0 0 C0.66 0.33 1.32 0.66 2 1 C1 3 0 5 -1 7 C-1.99 7 -2.98 7 -4 7 C-2.926 4.085 -2.222 2.222 0 0 Z " fill="#E0E0E1" transform="translate(434,480)"/>
</svg>