<svg version="1.1" xmlns="http://www.w3.org/2000/svg" width="1024" height="1024">
<path d="M0 0 C337.92 0 675.84 0 1024 0 C1024 337.92 1024 675.84 1024 1024 C686.08 1024 348.16 1024 0 1024 C0 686.08 0 348.16 0 0 Z " fill="#FEFEFE" transform="translate(0,0)"/>
<path d="M0 0 C3.136 1.517 5.418 3.052 7.926 5.492 C11.092 7.554 12.181 7.332 15.863 7.117 C21.39 6.908 24.377 8.245 28.766 11.52 C30.613 13.242 30.613 13.242 32.613 16.43 C34.862 19.592 35.424 19.688 38.988 20.617 C43.665 21.925 45.595 23.988 48.324 27.914 C52.155 34.833 53.166 39.98 53.113 47.867 C53.108 48.842 53.103 49.817 53.098 50.821 C52.828 62.034 49.428 69.981 42.891 79.062 C41.052 82.2 40.651 85.287 40.082 88.84 C38.425 97.335 32.13 105.716 25.422 110.953 C22.515 112.805 19.891 114.149 16.613 115.242 C14.898 118.745 14.898 118.745 13.613 122.242 C14.376 122.366 15.14 122.49 15.926 122.617 C18.613 123.242 18.613 123.242 21.613 125.242 C24.327 125.088 26.874 124.83 29.551 124.43 C30.625 124.286 30.625 124.286 31.721 124.139 C35.63 123.603 35.63 123.603 39.476 122.738 C66.968 116.362 99.984 119.534 127.863 121.555 C128.703 121.613 129.542 121.672 130.407 121.733 C140.742 122.475 150.519 123.846 160.613 126.242 C162.032 126.523 163.452 126.795 164.875 127.051 C181.775 130.153 196.636 136.06 206.898 150.445 C215.529 163.2 220.447 176.476 221.402 191.965 C221.541 194.405 221.541 194.405 222.613 197.242 C222.683 199.637 222.698 202.034 222.676 204.43 C222.667 205.702 222.658 206.974 222.648 208.285 C222.631 209.749 222.631 209.749 222.613 211.242 C223.768 211.407 224.923 211.572 226.113 211.742 C243.812 215.743 259.137 228.793 272.613 240.242 C273.783 241.209 273.783 241.209 274.977 242.195 C288.038 253.294 299.56 269.002 302.613 286.242 C303.401 303.526 302.231 318.946 290.238 332.492 C288.713 334.092 287.172 335.676 285.613 337.242 C284.894 337.976 284.175 338.709 283.434 339.465 C280.719 342.205 278.051 344.888 275.049 347.314 C271.781 351.243 271.816 354.011 271.726 358.979 C271.691 359.849 271.656 360.72 271.62 361.618 C271.51 364.503 271.433 367.388 271.355 370.273 C271.282 372.304 271.207 374.335 271.129 376.366 C270.929 381.733 270.756 387.101 270.591 392.47 C270.293 401.989 269.954 411.506 269.605 421.023 C269.568 422.044 269.531 423.064 269.493 424.115 C269.035 436.51 268.426 448.854 267.168 461.195 C267.055 462.315 266.943 463.434 266.826 464.588 C265.172 479.121 260.429 492.079 248.801 501.555 C240.512 507.36 231.61 509.258 221.676 509.805 C220.936 509.847 220.196 509.89 219.434 509.933 C212.49 510.303 205.567 510.341 198.613 510.242 C198.625 511.417 198.636 512.591 198.648 513.801 C198.707 522.14 198.677 530.473 198.301 538.805 C198.278 539.524 198.256 540.243 198.233 540.984 C198.125 542.996 198.125 542.996 197.613 546.242 C191.794 550.122 184.359 549.479 177.551 549.555 C176.679 549.584 175.807 549.613 174.908 549.643 C169.329 549.697 165.848 549.238 161.613 545.242 C157.994 539.774 156.012 533.268 153.863 527.117 C153.547 526.25 153.232 525.382 152.906 524.488 C152.608 523.641 152.311 522.794 152.004 521.922 C151.736 521.166 151.468 520.411 151.192 519.632 C150.502 516.782 150.576 514.166 150.613 511.242 C142.093 511.351 133.572 511.464 125.051 511.582 C121.092 511.636 117.134 511.689 113.175 511.74 C91.126 511.995 91.126 511.995 69.097 512.904 C61.413 513.338 53.746 513.395 46.051 513.367 C45.328 513.366 44.606 513.365 43.862 513.365 C26.771 513.34 9.693 512.832 -7.387 512.242 C-7.563 512.806 -7.739 513.37 -7.92 513.952 C-9.565 519.076 -11.467 523.81 -13.887 528.617 C-14.182 529.219 -14.477 529.821 -14.781 530.441 C-17.733 536.306 -17.733 536.306 -20.387 538.242 C-27.671 540.063 -34.087 536.539 -40.387 533.242 C-39.916 539.229 -38.661 543.486 -35.824 548.742 C-35.1 550.137 -34.376 551.531 -33.652 552.926 C-33.279 553.635 -32.906 554.343 -32.521 555.074 C-30.661 558.628 -28.869 562.216 -27.074 565.805 C-26.749 566.447 -26.424 567.089 -26.09 567.75 C-21.696 576.485 -19.247 583.301 -20.387 593.242 C-22.971 598.908 -26.91 601.841 -32.645 604.152 C-40.127 606.674 -47.392 607.706 -54.887 604.742 C-71.945 596.138 -85.303 578.196 -92.574 560.801 C-96.287 549.11 -90.672 535.169 -86.387 524.242 C-86.387 523.252 -86.387 522.262 -86.387 521.242 C-88.384 519.86 -90.474 518.822 -92.637 517.719 C-93.214 517.231 -93.792 516.744 -94.387 516.242 C-94.387 514.592 -94.387 512.942 -94.387 511.242 C-99.997 511.242 -105.607 511.242 -111.387 511.242 C-110.387 507.242 -110.387 507.242 -109.387 505.242 C-104.107 505.242 -98.827 505.242 -93.387 505.242 C-93.057 503.592 -92.727 501.942 -92.387 500.242 C-91.449 498.037 -90.462 495.852 -89.449 493.68 C-82.023 477.215 -76.109 459.933 -71.531 442.469 C-70.293 437.778 -68.814 433.171 -67.324 428.555 C-65.051 421.504 -63.045 414.432 -61.246 407.246 C-60.508 404.666 -59.619 402.602 -58.387 400.242 C-59.212 400.267 -59.212 400.267 -60.053 400.293 C-67.84 400.42 -75.464 399.625 -83.199 398.805 C-95.585 397.531 -107.94 396.645 -120.387 396.242 C-120.266 397.139 -120.144 398.037 -120.02 398.961 C-119.568 402.323 -119.121 405.685 -118.678 409.047 C-118.486 410.497 -118.292 411.945 -118.096 413.394 C-117.813 415.489 -117.537 417.584 -117.262 419.68 C-117.094 420.937 -116.927 422.193 -116.754 423.488 C-116.366 427.453 -116.325 431.262 -116.387 435.242 C-115.77 435.232 -115.153 435.221 -114.517 435.21 C-99.995 434.998 -85.813 435.559 -71.387 437.242 C-73.262 444.117 -73.262 444.117 -74.387 445.242 C-83.659 445.751 -92.959 444.961 -102.199 444.242 C-103.476 444.147 -104.753 444.051 -106.068 443.953 C-109.175 443.72 -112.281 443.483 -115.387 443.242 C-115.296 443.973 -115.205 444.704 -115.111 445.457 C-113.256 460.815 -112.068 476.019 -112.012 491.492 C-112 492.568 -112 492.568 -111.989 493.666 C-111.826 512.65 -111.826 512.65 -117.762 520.305 C-120.489 522.318 -122.112 522.711 -125.387 523.242 C-124.971 525.055 -124.554 526.867 -124.137 528.68 C-123.867 529.86 -123.598 531.041 -123.32 532.258 C-122.681 535.028 -122 537.785 -121.297 540.539 C-116.813 558.287 -116.813 558.287 -118.387 563.242 C-122.459 567.545 -127.584 569.022 -133.074 570.805 C-134.079 571.135 -135.085 571.466 -136.12 571.807 C-147.02 575.288 -158.074 578.208 -169.137 581.117 C-170.048 581.358 -170.959 581.599 -171.898 581.847 C-180.883 584.211 -189.803 586.546 -199.01 587.881 C-202.07 588.346 -205.054 589.038 -208.059 589.777 C-214.488 591.061 -220.849 591.448 -227.387 591.492 C-228.52 591.523 -228.52 591.523 -229.676 591.555 C-236.493 591.602 -241.953 590.262 -247.324 585.805 C-250.849 581.426 -250.948 576.548 -250.816 571.043 C-250.008 565.775 -247.478 563.461 -243.387 560.242 C-240.805 558.591 -238.148 557.097 -235.465 555.617 C-234.682 555.184 -233.899 554.751 -233.093 554.305 C-223.487 549.088 -213.509 544.709 -203.512 540.305 C-200.676 539.051 -197.842 537.795 -195.01 536.533 C-193.27 535.758 -191.527 534.987 -189.782 534.222 C-184.232 531.81 -184.232 531.81 -179.387 528.242 C-178.59 526.148 -178.59 526.148 -178.387 524.242 C-179.544 524.289 -180.702 524.335 -181.895 524.383 C-183.434 524.42 -184.973 524.457 -186.512 524.492 C-187.272 524.526 -188.033 524.559 -188.816 524.594 C-194.191 524.686 -197.092 523.758 -201.387 520.242 C-204.194 517.528 -204.374 516.497 -204.574 512.492 C-204.512 511.42 -204.45 510.347 -204.387 509.242 C-205.377 509.902 -206.367 510.562 -207.387 511.242 C-213.571 512.862 -220.053 512.624 -226.406 512.797 C-227.145 512.818 -227.884 512.839 -228.646 512.86 C-253.082 513.529 -277.533 513.392 -301.976 513.371 C-306.696 513.367 -311.417 513.368 -316.137 513.373 C-360.243 513.411 -404.311 512.922 -448.387 511.242 C-448.33 512.237 -448.273 513.232 -448.215 514.258 C-448.402 518.605 -449.511 522.023 -451.137 525.992 C-451.695 527.398 -452.252 528.804 -452.809 530.211 C-453.218 531.236 -453.218 531.236 -453.635 532.281 C-454.982 535.794 -456.062 539.403 -457.137 543.008 C-458.959 546.266 -460.927 547.986 -464.387 549.242 C-468.731 549.795 -473.013 549.755 -477.387 549.68 C-478.549 549.687 -479.712 549.694 -480.91 549.701 C-492.013 549.619 -492.013 549.619 -496.387 546.242 C-498.503 542.185 -498.621 538.722 -498.582 534.191 C-498.578 533.203 -498.578 533.203 -498.573 532.195 C-498.562 530.106 -498.537 528.018 -498.512 525.93 C-498.502 524.507 -498.493 523.085 -498.484 521.662 C-498.462 518.189 -498.428 514.715 -498.387 511.242 C-499.012 511.256 -499.637 511.27 -500.281 511.284 C-508.228 511.38 -516.042 510.82 -523.949 510.055 C-525.199 509.953 -526.449 509.852 -527.736 509.748 C-539.231 508.631 -548.542 504.965 -556.387 496.242 C-558.39 493.373 -559.921 490.416 -561.387 487.242 C-561.745 486.528 -562.103 485.814 -562.473 485.078 C-569.113 470.548 -568.921 453.531 -569.741 437.855 C-569.777 437.158 -569.814 436.461 -569.852 435.742 C-569.951 433.831 -570.044 431.919 -570.137 430.008 C-570.312 427.367 -570.565 424.84 -570.911 422.227 C-571.604 416.215 -571.474 410.201 -571.433 404.158 C-571.414 400.463 -571.429 396.769 -571.439 393.074 C-571.452 388.4 -571.453 383.726 -571.411 379.052 C-571.377 375.248 -571.383 371.446 -571.414 367.642 C-571.419 366.203 -571.41 364.765 -571.386 363.327 C-571.272 356.07 -571.278 350.646 -576.193 345.006 C-577.549 343.706 -578.947 342.448 -580.387 341.242 C-581.102 340.633 -581.818 340.023 -582.556 339.395 C-583.18 338.87 -583.805 338.345 -584.449 337.805 C-593.406 330.112 -599.391 319.395 -600.673 307.607 C-601.968 288.576 -598.529 272.852 -585.738 258.145 C-583.023 255.11 -580.23 252.156 -577.387 249.242 C-576.584 248.404 -576.584 248.404 -575.766 247.548 C-571.59 243.256 -567.168 239.528 -562.387 235.93 C-561.65 235.372 -560.913 234.814 -560.154 234.24 C-531.445 212.711 -531.445 212.711 -517.387 212.242 C-517.439 210.662 -517.439 210.662 -517.492 209.051 C-517.946 189.445 -513.933 170.752 -501.387 155.242 C-500.781 154.462 -500.175 153.682 -499.551 152.879 C-487.498 138.243 -469.275 132.875 -451.387 129.242 C-450.598 129.077 -449.809 128.912 -448.996 128.742 C-443.17 127.542 -437.339 126.568 -431.449 125.742 C-430.089 125.551 -430.089 125.551 -428.701 125.356 C-412.953 123.183 -397.273 121.809 -381.387 121.242 C-380.185 121.197 -378.984 121.152 -377.746 121.105 C-358.661 120.414 -339.576 120.123 -320.48 120.066 C-318.207 120.059 -315.934 120.048 -313.661 120.034 C-293.059 119.918 -272.789 121.388 -252.387 124.242 C-251.586 124.352 -250.785 124.461 -249.96 124.574 C-239.121 126.069 -228.596 127.883 -218.062 130.91 C-211.393 132.747 -207.253 131.288 -200.887 128.93 C-199.624 128.476 -198.361 128.025 -197.098 127.574 C-194.868 126.774 -192.643 125.963 -190.426 125.129 C-158.528 114.055 -114.638 115.871 -83.117 127.047 C-78.331 128.576 -74.585 128.275 -69.914 126.699 C-65.731 124.287 -63.205 120.693 -60.395 116.836 C-58.387 114.242 -58.387 114.242 -56.238 112.691 C-53.895 110.858 -53.456 109.383 -52.637 106.555 C-52.394 105.746 -52.152 104.938 -51.902 104.105 C-51.732 103.491 -51.562 102.876 -51.387 102.242 C-52.17 101.809 -52.954 101.376 -53.762 100.93 C-56.387 99.242 -56.387 99.242 -58.387 96.242 C-58.88 91.225 -58.943 88.086 -55.797 83.926 C-54.686 82.6 -53.567 81.281 -52.445 79.965 C-44.131 70.027 -42.794 60.808 -41.387 48.242 C-42.004 48.216 -42.622 48.191 -43.258 48.164 C-51.107 47.638 -57.324 45.914 -63.324 40.68 C-67.387 35.879 -67.387 35.879 -67.387 31.242 C-64.417 31.242 -61.447 31.242 -58.387 31.242 C-58.387 30.912 -58.387 30.582 -58.387 30.242 C-59.335 30.283 -60.284 30.325 -61.262 30.367 C-64.387 30.242 -64.387 30.242 -66.387 28.242 C-66.524 24.739 -66.205 22.304 -64.023 19.473 C-54.483 10.422 -39.812 3.785 -26.648 4.039 C-24.465 4.235 -22.492 4.645 -20.387 5.242 C-20.139 4.623 -19.892 4.005 -19.637 3.367 C-15.964 -2.877 -6.057 -1.923 0 0 Z " fill="#070707" transform="translate(657.38671875,322.7578125)"/>
<path d="M0 0 C3.837 0 7.674 -0.007 11.511 -0.021 C64.64 -0.205 64.64 -0.205 82.788 3.739 C86.208 4.431 89.649 4.731 93.12 5.06 C101.895 5.987 112.023 7.2 119.995 11.185 C120.018 31.77 120.036 52.355 120.046 72.941 C120.052 82.5 120.059 92.059 120.07 101.619 C120.08 109.957 120.086 118.296 120.089 126.635 C120.09 131.044 120.093 135.453 120.1 139.862 C120.107 144.025 120.109 148.188 120.108 152.351 C120.108 153.867 120.11 155.382 120.114 156.898 C120.139 167.036 119.738 177.077 118.995 187.185 C118.321 187.041 117.647 186.897 116.952 186.748 C101.372 183.442 85.734 181.411 69.877 180.033 C68.879 179.946 67.88 179.858 66.851 179.769 C42.061 177.664 17.307 177.683 -7.554 177.852 C-12.312 177.88 -17.07 177.888 -21.829 177.896 C-27.587 177.906 -33.345 177.926 -39.103 177.947 C-40.701 177.952 -40.701 177.952 -42.331 177.957 C-52.627 177.997 -62.863 178.063 -73.125 178.969 C-77.751 179.317 -82.37 179.27 -87.005 179.185 C-87.005 179.845 -87.005 180.505 -87.005 181.185 C-87.686 181.139 -88.367 181.092 -89.068 181.045 C-101.496 180.582 -113.246 182.786 -123.087 190.697 C-125.005 192.185 -125.005 192.185 -128.005 193.185 C-128.005 193.845 -128.005 194.505 -128.005 195.185 C-128.665 195.185 -129.325 195.185 -130.005 195.185 C-129.999 194.363 -129.999 194.363 -129.992 193.525 C-129.367 159.587 -129.367 159.587 -131.698 125.774 C-132.038 122.907 -132.299 120.037 -132.56 117.162 C-132.768 115.169 -132.979 113.177 -133.193 111.185 C-133.269 110.294 -133.346 109.402 -133.425 108.484 C-134.374 100.708 -138.145 96.245 -144.185 91.458 C-151.159 86.388 -159.495 82.63 -168.005 81.185 C-168.261 59.654 -165.17 39.891 -149.677 23.541 C-136.051 11.528 -116.816 7.019 -99.123 5.431 C-96.827 5.165 -94.635 4.692 -92.38 4.185 C-86.734 2.987 -81.074 2.721 -75.326 2.431 C-72.22 2.304 -72.22 2.304 -70.136 1.689 C-65.386 0.566 -60.349 0.787 -55.49 0.635 C-54.18 0.593 -52.87 0.551 -51.521 0.508 C-34.352 -0.002 -17.175 -0.002 0 0 Z " fill="#FEFEFE" transform="translate(318.00537109375,452.814697265625)"/>
<path d="M0 0 C1.202 0.905 2.402 1.811 3.602 2.719 C4.536 3.419 4.536 3.419 5.489 4.133 C12.157 9.146 18.532 14.009 23.602 20.719 C22.998 20.514 22.395 20.309 21.773 20.098 C20.974 19.828 20.175 19.559 19.352 19.281 C18.563 19.014 17.774 18.748 16.961 18.473 C2.514 13.856 -15.986 15.886 -29.398 22.719 C-32.884 24.869 -36.153 27.224 -39.398 29.719 C-40.038 30.192 -40.677 30.665 -41.336 31.152 C-53.113 40.432 -58.648 54.452 -61.398 68.719 C-57.732 65.492 -55.726 61.84 -53.586 57.531 C-45.29 41.498 -34.076 30.846 -16.715 25.086 C-11.215 23.497 -5.978 23.142 -0.273 23.156 C0.725 23.158 1.723 23.16 2.752 23.161 C14.433 23.442 24.974 26.534 33.602 34.719 C35.211 37.148 35.211 37.148 36.352 39.594 C36.932 40.796 36.932 40.796 37.523 42.023 C40.186 48.68 40.941 54.507 40.914 61.594 C40.93 62.441 40.946 63.288 40.963 64.16 C40.968 70.206 39.856 75.125 37.602 80.719 C37.188 81.759 36.774 82.799 36.348 83.871 C32.679 91.679 27.925 96.936 21.602 102.719 C15.089 108.694 12.15 114.459 10.906 123.033 C10.785 123.815 10.664 124.598 10.54 125.404 C9.316 133.813 8.964 142.211 8.723 150.695 C8.666 152.361 8.607 154.026 8.548 155.692 C8.396 160.032 8.257 164.373 8.121 168.714 C7.879 176.458 7.618 184.202 7.348 191.945 C7.319 192.771 7.29 193.597 7.26 194.447 C6.902 204.554 6.446 214.637 5.621 224.719 C5.546 225.651 5.471 226.582 5.393 227.542 C4.366 238.911 1.511 251.939 -7.645 259.598 C-9.85 261.101 -12.049 262.454 -14.398 263.719 C-15.012 264.06 -15.626 264.4 -16.258 264.751 C-20.053 266.466 -24.1 266.489 -28.211 266.844 C-29.469 266.973 -29.469 266.973 -30.752 267.105 C-41.6 268.084 -52.517 267.798 -63.398 267.719 C-63.58 259.865 -63.743 252.011 -63.898 244.156 C-63.923 242.929 -63.948 241.702 -63.973 240.438 C-64.302 223.569 -64.427 206.709 -64.359 189.836 C-64.353 188.052 -64.347 186.268 -64.341 184.484 C-64.314 176.559 -64.277 168.634 -64.206 160.709 C-64.179 157.382 -64.165 154.054 -64.153 150.726 C-64.145 149.182 -64.131 147.638 -64.112 146.094 C-63.966 134.517 -64.284 122.979 -70.049 112.624 C-73.152 106.905 -73.087 101.629 -72.992 95.23 C-72.992 93.462 -72.992 93.462 -72.992 91.658 C-72.987 89.169 -72.969 86.681 -72.94 84.192 C-72.899 80.455 -72.899 76.72 -72.906 72.982 C-72.862 56.265 -72.127 39.838 -67.398 23.719 C-66.63 17.134 -68.315 13.183 -71.219 7.285 C-72.524 4.445 -73.146 1.834 -73.398 -1.281 C-72.367 -1.611 -71.336 -1.941 -70.273 -2.281 C-66.754 -3.575 -63.645 -5.268 -60.437 -7.203 C-38.24 -20.587 -19.752 -14.664 0 0 Z " fill="#FCFCFC" transform="translate(910.3984375,557.28125)"/>
<path d="M0 0 C1.664 1.004 3.329 2.007 5 3 C4.379 7.237 2.866 10.506 0.938 14.312 C-2.564 21.795 -2.602 26.061 -0.983 34.09 C0.024 39.593 0.275 44.859 0.23 50.441 C0.231 51.879 0.231 51.879 0.231 53.345 C0.228 56.418 0.209 59.49 0.188 62.562 C0.182 63.609 0.177 64.655 0.171 65.733 C0.139 71.917 0.087 78.1 0.023 84.284 C0.002 86.717 -0.008 89.151 -0.01 91.584 C-0.019 95.183 -0.063 98.778 -0.125 102.375 C-0.121 103.848 -0.121 103.848 -0.116 105.35 C-0.292 111.457 -1.785 115.071 -5.523 119.917 C-13.336 130.938 -10.178 151.574 -10.26 164.571 C-10.282 167.943 -10.309 171.315 -10.337 174.687 C-10.396 181.854 -10.449 189.021 -10.5 196.188 C-10.56 204.49 -10.623 212.793 -10.692 221.096 C-10.718 224.375 -10.739 227.655 -10.76 230.935 C-10.861 244.311 -11.294 257.642 -12 271 C-13.377 271.021 -14.753 271.041 -16.13 271.062 C-16.897 271.073 -17.663 271.085 -18.453 271.097 C-26.906 271.207 -35.321 270.949 -43.75 270.312 C-45.105 270.232 -45.105 270.232 -46.487 270.151 C-54.325 269.478 -60.337 266.398 -65.688 260.562 C-77.601 246.119 -76.593 223.69 -77.562 206.062 C-77.628 204.919 -77.694 203.776 -77.762 202.598 C-78.532 189.105 -79.095 175.628 -79.273 162.113 C-79.29 160.912 -79.306 159.71 -79.324 158.472 C-79.397 152.689 -79.441 146.908 -79.446 141.125 C-79.462 139.018 -79.479 136.912 -79.496 134.805 C-79.488 133.87 -79.479 132.936 -79.471 131.973 C-79.573 122.979 -81.868 114.298 -88.312 107.75 C-89.098 106.93 -89.883 106.11 -90.691 105.266 C-92.099 103.884 -93.521 102.516 -94.965 101.172 C-99.765 96.677 -102.489 92.072 -105 86 C-105.321 85.252 -105.642 84.505 -105.973 83.734 C-110.476 71.417 -109.127 55.55 -103.812 43.75 C-99.597 35.909 -93.327 31.798 -85 29 C-69.556 24.551 -54.272 25.934 -40 33 C-26.259 40.601 -17.23 53.547 -11.398 67.863 C-10.36 71.084 -10.36 71.084 -8 72 C-10.21 55.413 -16.305 43.118 -29.305 32.035 C-43.102 21.699 -59.036 18.264 -76 20 C-79.172 20.848 -82.011 21.869 -84.996 23.223 C-85.657 23.479 -86.319 23.736 -87 24 C-87.66 23.67 -88.32 23.34 -89 23 C-60.971 -1.711 -35.402 -22.664 0 0 Z " fill="#FCFCFC" transform="translate(174,554)"/>
<path d="M0 0 C1.615 -0.003 3.23 -0.007 4.845 -0.01 C8.214 -0.016 11.584 -0.018 14.953 -0.017 C18.365 -0.017 21.777 -0.024 25.189 -0.038 C61.718 -0.182 61.718 -0.182 78.027 2.168 C79.759 2.411 79.759 2.411 81.525 2.659 C84.411 3.095 87.28 3.584 90.152 4.105 C91.075 4.262 91.998 4.419 92.949 4.58 C109.319 7.474 123.462 13.077 133.855 26.535 C141.275 37.665 146.227 54.954 146.125 68.375 C146.122 69.126 146.119 69.877 146.115 70.65 C146.107 71.419 146.098 72.188 146.09 72.98 C146.085 73.769 146.081 74.557 146.076 75.369 C146.064 77.302 146.047 79.235 146.027 81.168 C145.012 81.376 143.996 81.583 142.949 81.797 C131.066 84.389 121.282 88.575 112.332 97.102 C96.986 121.407 100.568 166.742 100.027 194.168 C99.098 193.625 98.169 193.083 97.211 192.523 C95.962 191.801 94.714 191.078 93.465 190.355 C92.856 189.999 92.247 189.643 91.619 189.275 C68.544 175.967 32.698 176.75 7.355 183.086 C3.892 184.056 0.462 185.102 -2.973 186.168 C-5.095 186.76 -7.22 187.345 -9.348 187.918 C-10.242 188.16 -11.137 188.403 -12.059 188.652 C-12.69 188.822 -13.322 188.993 -13.973 189.168 C-15.473 187.793 -15.473 187.793 -16.973 186.168 C-16.973 185.508 -16.973 184.848 -16.973 184.168 C-15.457 183.364 -15.457 183.364 -13.91 182.543 C-1.097 175.118 5.848 163.122 10.027 149.168 C15.708 127.686 17.063 104.743 17.816 82.621 C17.925 79.714 18.163 76.873 18.531 73.988 C19.284 67.607 19.291 61.212 19.34 54.793 C19.369 53.543 19.398 52.292 19.428 51.004 C19.501 40.156 17.429 30.752 10.309 22.289 C-0.162 12.554 -16.335 6.831 -29.973 3.168 C-29.973 2.508 -29.973 1.848 -29.973 1.168 C-19.972 0.221 -10.034 0.005 0 0 Z " fill="#FDFDFD" transform="translate(723.97265625,452.83203125)"/>
<path d="M0 0 C4.835 1.934 9.282 4.212 13.867 6.66 C19.337 9 25.206 9.148 31.094 9.557 C32.1 9.628 32.1 9.628 33.127 9.7 C34.571 9.801 36.015 9.902 37.459 10.001 C39.752 10.159 42.044 10.32 44.336 10.481 C49.203 10.824 54.07 11.162 58.938 11.5 C64.579 11.892 70.22 12.286 75.861 12.683 C78.107 12.841 80.354 12.995 82.601 13.15 C93.908 13.939 93.908 13.939 98.576 14.568 C101.977 14.997 105.207 15.098 108.633 15.062 C109.973 15.054 111.313 15.045 112.654 15.037 C113.735 15.027 113.735 15.027 114.837 15.018 C155.596 14.701 196.462 15.259 237.188 16.938 C238.607 16.994 238.607 16.994 240.055 17.051 C252.435 17.554 264.694 18.562 277 20 C278.306 30.735 279.331 41.464 280.125 52.25 C280.212 53.396 280.3 54.543 280.39 55.724 C280.966 63.827 281.097 71.878 281 80 C252.923 80.659 224.853 81.109 196.768 81.123 C194.745 81.125 192.722 81.129 190.699 81.133 C186.919 81.138 183.139 81.137 179.359 81.133 C178.22 81.135 177.081 81.137 175.907 81.139 C174.875 81.136 173.843 81.133 172.78 81.129 C171.425 81.128 171.425 81.128 170.041 81.127 C168 81 168 81 167 80 C165.609 79.895 164.214 79.858 162.819 79.849 C161.915 79.84 161.012 79.832 160.081 79.823 C159.08 79.819 158.079 79.815 157.047 79.811 C155.998 79.802 154.948 79.794 153.867 79.785 C151.568 79.768 149.269 79.753 146.97 79.74 C143.276 79.718 139.583 79.691 135.889 79.663 C128.633 79.608 121.376 79.56 114.12 79.513 C103.187 79.442 92.254 79.364 81.32 79.281 C80.058 79.272 78.796 79.262 77.495 79.253 C51.657 79.055 25.833 78.559 0 78 C0 52.26 0 26.52 0 0 Z " fill="#FDFDFD" transform="translate(171,747)"/>
<path d="M0 0 C2.433 -0.001 4.866 -0.002 7.299 -0.003 C12.402 -0.004 17.504 -0.002 22.607 0.002 C29.01 0.008 35.412 0.005 41.814 -0.001 C124.443 -0.065 124.443 -0.065 157.645 3.07 C159.592 3.243 161.539 3.414 163.486 3.584 C169.062 4.076 174.635 4.6 180.207 5.133 C181.125 5.219 182.042 5.306 182.988 5.395 C185.685 5.65 188.382 5.91 191.078 6.172 C191.873 6.247 192.668 6.323 193.487 6.4 C204.695 7.509 215.453 9.779 226.207 13.133 C226.787 18.678 227.356 24.224 227.916 29.771 C228.107 31.651 228.301 33.53 228.498 35.409 C229.715 47.035 230.507 58.438 230.207 70.133 C228.977 70.047 227.747 69.962 226.48 69.873 C183.117 66.955 139.762 66.678 96.315 66.526 C91.253 66.507 86.19 66.482 81.128 66.456 C77.651 66.442 74.175 66.438 70.698 66.435 C57.077 66.389 43.599 65.722 30.025 64.593 C22.9 64.004 15.791 63.78 8.645 63.633 C-29.803 62.555 -29.803 62.555 -37.793 54.133 C-44.919 43.383 -44.985 35.713 -44.793 23.133 C-44.786 22.239 -44.778 21.346 -44.771 20.425 C-44.743 17.826 -44.679 15.231 -44.605 12.633 C-44.6 11.827 -44.594 11.02 -44.588 10.19 C-44.5 7.914 -44.5 7.914 -43.793 4.133 C-33.704 -3.692 -12.166 -0.012 0 0 Z " fill="#FEFEFE" transform="translate(215.79296875,686.8671875)"/>
<path d="M0 0 C1.268 1.083 1.268 1.083 2.562 2.188 C6.209 2.708 8.416 2.052 11.562 0.188 C15.406 2.976 17.694 5.573 20.043 9.688 C20.649 10.739 21.256 11.791 21.881 12.875 C22.498 13.968 23.114 15.061 23.75 16.188 C24.378 17.281 25.007 18.374 25.654 19.5 C30.505 27.966 30.505 27.966 32.562 32.188 C31.758 32.806 30.954 33.425 30.125 34.062 C27.524 35.929 27.524 35.929 26.562 38.188 C25.983 44.566 27.774 49.71 29.875 55.688 C30.184 56.599 30.492 57.51 30.811 58.449 C32.146 62.345 33.504 66.133 35.293 69.844 C38.266 77.674 35.912 85.006 33.875 92.812 C33.465 94.407 33.465 94.407 33.047 96.034 C29.862 108.186 26.012 119.328 19.562 130.188 C17.458 130.215 15.354 130.234 13.25 130.25 C12.078 130.262 10.906 130.273 9.699 130.285 C6.562 130.188 6.562 130.188 3.562 129.188 C3.852 131.99 4.349 133.002 6.5 134.875 C10.773 136.706 14.955 136.928 19.562 137.188 C20.106 143.441 18.667 148.707 15.562 154.188 C11.655 157.552 7.567 159.867 2.438 160.688 C-5.536 159.659 -13.033 155.991 -19.438 151.188 C-19.125 154.327 -18.794 155.828 -16.539 158.102 C-11.097 161.861 -6.373 164.035 0.07 165.504 C3.857 166.543 6.772 168.397 9.562 171.188 C9.512 173.113 9.512 173.113 9.25 175.5 C9.171 176.28 9.093 177.06 9.012 177.863 C8.547 180.27 7.756 182.059 6.562 184.188 C-0.492 185.019 -5.261 182.149 -11.375 178.875 C-22.605 172.618 -22.605 172.618 -34.938 169.5 C-36.67 169.345 -36.67 169.345 -38.438 169.188 C-38.498 168.475 -38.559 167.762 -38.621 167.027 C-38.705 166.07 -38.789 165.112 -38.875 164.125 C-38.959 163.122 -39.043 162.119 -39.129 161.086 C-39.38 158.727 -39.784 156.554 -40.312 154.25 C-40.354 153.239 -40.395 152.229 -40.438 151.188 C-39.343 150.348 -39.343 150.348 -38.227 149.492 C-34.642 146.53 -33.012 143.353 -30.938 139.25 C-30.547 138.488 -30.156 137.726 -29.753 136.94 C-19.021 115.683 -14.061 91.999 -14.067 68.229 C-14.063 66.188 -14.026 64.15 -13.988 62.109 C-13.91 52.74 -15.497 45.048 -18.438 36.188 C-18.786 34.858 -19.128 33.526 -19.438 32.188 C-20.097 32.188 -20.757 32.188 -21.438 32.188 C-21.365 32.92 -21.293 33.652 -21.219 34.406 C-18.073 71.107 -23.099 102.807 -38.438 136.188 C-40.438 133.188 -40.438 133.188 -41.664 130.918 C-45.981 123.067 -50.996 118.25 -59.335 114.779 C-63.599 113.58 -67.984 113.883 -72.375 114 C-73.345 114.014 -74.315 114.027 -75.314 114.041 C-77.689 114.076 -80.063 114.125 -82.438 114.188 C-81.942 115.178 -81.942 115.178 -81.438 116.188 C-78.948 116.511 -76.499 116.743 -74 116.938 C-66.756 117.662 -61.11 119.359 -55.438 124.188 C-53.676 126.383 -53.676 126.383 -52.438 128.188 C-55.727 127.118 -58.847 126.001 -62 124.562 C-68.875 121.976 -77.123 122.107 -84.062 124.438 C-87.242 126.086 -88.73 127.092 -90.438 130.188 C-89.241 129.692 -88.045 129.197 -86.812 128.688 C-77.94 125.804 -69.283 125.862 -60.812 129.875 C-55.413 132.738 -52.321 135.763 -50.207 141.562 C-49.891 142.759 -49.575 143.955 -49.25 145.188 C-48.926 146.384 -48.603 147.58 -48.27 148.812 C-47.995 149.926 -47.72 151.04 -47.438 152.188 C-47.236 152.954 -47.035 153.721 -46.828 154.512 C-46.221 158.668 -46.334 162.806 -46.375 167 C-46.38 167.884 -46.384 168.767 -46.389 169.678 C-46.4 171.848 -46.418 174.018 -46.438 176.188 C-48.668 174.003 -50.503 171.797 -52.312 169.25 C-56.304 163.896 -60.823 159.871 -67.438 158.188 C-76.155 157.139 -83.362 158.98 -91.438 162.188 C-96.414 151.943 -102.144 138.82 -100.438 127.188 C-99.304 124.452 -97.742 122.118 -96.062 119.688 C-95.131 118.268 -94.2 116.849 -93.27 115.43 C-92.793 114.718 -92.317 114.006 -91.827 113.272 C-89.748 110.152 -87.741 106.989 -85.75 103.812 C-85.348 103.171 -84.945 102.529 -84.531 101.868 C-75.855 87.913 -67.817 73.551 -59.901 59.155 C-54.285 48.946 -48.554 38.825 -42.546 28.843 C-41.819 27.634 -41.094 26.424 -40.372 25.212 C-31.834 10.907 -25.202 3.992 -9.125 -0.875 C-3.962 -2.089 -3.962 -2.089 0 0 Z " fill="#FCFCFC" transform="translate(591.4375,459.8125)"/>
<path d="M0 0 C0.723 -0.001 1.446 -0.002 2.19 -0.003 C24.225 0 24.225 0 34.812 3.25 C36.613 3.793 36.613 3.793 38.449 4.348 C39.774 4.763 39.774 4.763 41.125 5.188 C41.125 8.912 40.375 9.291 37.938 12 C30.839 20.596 25.638 30.537 20.125 40.188 C19.512 41.259 19.512 41.259 18.887 42.353 C16.269 46.947 13.694 51.566 11.125 56.188 C-0.435 76.968 -12.04 97.719 -24.75 117.824 C-26.648 120.828 -28.527 123.84 -30.375 126.875 C-30.818 127.601 -31.262 128.326 -31.719 129.074 C-36.172 137.214 -35.637 144.051 -33.131 152.765 C-32.079 156.25 -30.975 159.717 -29.875 163.188 C-29.533 164.519 -29.197 165.851 -28.875 167.188 C-29.963 167.346 -31.051 167.505 -32.172 167.668 C-45.011 169.657 -58.834 172.457 -67.438 183.125 C-68.618 184.788 -69.751 186.485 -70.875 188.188 C-71.205 188.188 -71.535 188.188 -71.875 188.188 C-72.848 128.847 -73.658 69.522 -71.875 10.188 C-47.882 2.333 -25.221 -0.002 0 0 Z " fill="#FDFDFD" transform="translate(518.875,452.8125)"/>
<path d="M0 0 C0.883 0.387 1.766 0.773 2.676 1.172 C10.916 4.749 10.916 4.749 19.312 7.938 C47.431 17.992 47.431 17.992 57 31 C62.172 46.517 57.448 68.418 56.083 84.389 C55.751 88.297 55.439 92.206 55.129 96.115 C54.097 108.741 52.83 121.306 51.031 133.848 C50.802 135.487 50.802 135.487 50.568 137.16 C48.573 150.337 44.126 161.898 34 171 C33.412 171.532 32.824 172.065 32.219 172.613 C28.905 175.287 25.64 176.949 21.293 177.277 C17.226 176.785 13.705 174.958 10.02 173.242 C7.143 172.059 4.88 171.627 1.812 171.312 C-4.925 170.096 -8.212 165.366 -12 160 C-21.028 146.333 -26.789 131.163 -31.043 115.414 C-32.058 111.792 -33.227 108.249 -34.438 104.688 C-37.2 96.527 -39.608 88.276 -42 80 C-43.412 75.135 -44.823 70.375 -46.75 65.688 C-48.043 61.873 -48.428 60.665 -47 57 C-44.857 55.496 -42.992 54.411 -40.656 53.301 C-40.013 52.98 -39.37 52.659 -38.707 52.328 C-37.343 51.651 -35.974 50.983 -34.602 50.324 C-32.525 49.325 -30.466 48.297 -28.406 47.264 C-21.735 43.963 -15.422 41.141 -8 40 C-7.417 41.116 -6.835 42.233 -6.234 43.383 C-3.999 47.655 -1.749 51.92 0.507 56.181 C1.487 58.032 2.466 59.884 3.442 61.737 C9.245 72.722 15.36 83.3 22.258 93.634 C38.163 117.712 38.163 117.712 38.098 127.449 C38.093 128.721 38.093 128.721 38.088 130.018 C38.075 131.339 38.075 131.339 38.062 132.688 C38.058 133.58 38.053 134.473 38.049 135.393 C38.037 137.595 38.021 139.798 38 142 C41.017 140.652 41.017 140.652 43.219 138.273 C46.232 129.504 44.136 120.336 40.305 112.234 C36.091 104.268 31.286 96.614 26.598 88.922 C23.83 84.379 21.099 79.829 18.5 75.188 C17.711 73.786 17.711 73.786 16.906 72.355 C16 70 16 70 16.059 67.91 C19.419 61.091 29.679 56.937 36.25 53.625 C36.911 53.291 37.571 52.958 38.252 52.614 C42.428 50.58 46.5 49.154 51 48 C51 47.34 51 46.68 51 46 C36.735 46.056 24.342 53.798 14.344 63.628 C13.9 64.081 13.457 64.534 13 65 C11.099 61.398 9.205 57.793 7.312 54.188 C6.782 53.183 6.252 52.178 5.705 51.143 C4.64 49.111 3.589 47.073 2.549 45.029 C1.529 43.034 0.475 41.057 -0.616 39.1 C-4.189 32.279 -4.189 32.279 -3.664 28.72 C-3.117 27.244 -2.524 25.784 -1.888 24.344 C-0.203 19.896 -0.422 15.146 -0.312 10.438 C-0.278 9.429 -0.244 8.42 -0.209 7.381 C-0.127 4.921 -0.058 2.461 0 0 Z " fill="#FCFCFC" transform="translate(678,455)"/>
<path d="M0 0 C0 24.75 0 49.5 0 75 C-10.476 75.091 -10.476 75.091 -21.164 75.184 C-25.612 75.224 -30.06 75.265 -34.508 75.307 C-41.554 75.373 -48.6 75.438 -55.646 75.497 C-61.333 75.545 -67.019 75.598 -72.706 75.653 C-74.866 75.673 -77.025 75.692 -79.185 75.709 C-89.38 75.791 -99.494 75.946 -109.66 76.782 C-116.325 77.217 -123.004 77.122 -129.68 77.098 C-131.229 77.096 -132.779 77.094 -134.328 77.093 C-138.356 77.09 -142.383 77.08 -146.411 77.069 C-150.541 77.058 -154.671 77.054 -158.801 77.049 C-166.867 77.038 -174.934 77.021 -183 77 C-182.253 72.959 -181.074 69.562 -179.41 65.793 C-179.15 65.199 -178.89 64.604 -178.622 63.992 C-177.773 62.055 -176.918 60.121 -176.062 58.188 C-174.873 55.49 -173.687 52.79 -172.504 50.09 C-172.207 49.412 -171.909 48.734 -171.603 48.035 C-169.685 43.637 -167.859 39.214 -166.09 34.754 C-165.65 33.652 -165.209 32.55 -164.756 31.415 C-163.935 29.345 -163.127 27.27 -162.336 25.188 C-161.783 23.803 -161.783 23.803 -161.219 22.391 C-160.754 21.185 -160.754 21.185 -160.279 19.954 C-158.537 17.293 -157.032 16.851 -154 16 C-151.382 15.637 -151.382 15.637 -148.555 15.473 C-147.492 15.404 -146.43 15.336 -145.335 15.266 C-143.622 15.165 -143.622 15.165 -141.875 15.062 C-132.482 14.447 -123.158 13.621 -113.812 12.5 C-94.383 10.221 -74.855 9.226 -55.312 8.5 C-29.36 8.101 -29.36 8.101 -4.754 0.875 C-3 0 -3 0 0 0 Z " fill="#FDFDFD" transform="translate(838,750)"/>
<path d="M0 0 C5.429 0.017 10.857 0.007 16.286 -0.01 C37.528 -0.067 58.678 0.201 79.868 1.79 C81.122 1.883 81.122 1.883 82.401 1.979 C95.551 2.99 108.761 4.08 121.458 7.829 C122.186 8.033 122.914 8.237 123.665 8.448 C128.575 9.853 133.32 11.547 138.083 13.391 C138.017 14.098 137.951 14.805 137.884 15.533 C137.186 23.399 136.793 31.25 136.52 39.141 C136.477 40.327 136.434 41.513 136.389 42.735 C136.285 45.62 136.183 48.506 136.083 51.391 C130.788 50.871 125.662 50.15 120.458 49.016 C100.854 45.104 80.364 44.287 60.436 43.037 C59.309 42.966 58.181 42.894 57.02 42.821 C55.549 42.732 55.549 42.732 54.048 42.641 C51.99 42.467 49.938 42.213 47.897 41.895 C43.952 41.374 40.063 41.171 36.091 41.081 C35.311 41.061 34.53 41.041 33.725 41.02 C31.109 40.954 28.492 40.897 25.876 40.84 C24.953 40.82 24.029 40.799 23.078 40.777 C-1.559 40.233 -26.2 40.204 -50.843 40.206 C-57.381 40.206 -63.919 40.192 -70.457 40.175 C-75.578 40.164 -80.699 40.162 -85.82 40.162 C-88.233 40.161 -90.645 40.157 -93.057 40.149 C-105.84 40.111 -118.281 40.309 -130.917 42.391 C-123.462 27.769 -112.458 12.136 -96.917 5.391 C-86.941 3.105 -76.448 2.57 -66.257 1.79 C-64.982 1.692 -64.982 1.692 -63.681 1.592 C-42.467 0.01 -21.262 -0.067 0 0 Z " fill="#FDFDFD" transform="translate(304.917236328125,638.60888671875)"/>
<path d="M0 0 C0.936 -0.01 1.871 -0.02 2.835 -0.03 C10.49 0.066 17.7 1.656 25.125 3.438 C25.227 9.736 25.297 16.035 25.345 22.334 C25.365 24.476 25.392 26.617 25.427 28.759 C25.475 31.842 25.498 34.924 25.516 38.008 C25.536 38.961 25.557 39.915 25.578 40.897 C25.58 46.615 24.981 49.919 21.125 54.438 C10.628 64.696 -9.366 63.08 -23.078 63.717 C-40.428 64.533 -57.727 65.59 -75 67.438 C-76.186 67.564 -76.186 67.564 -77.397 67.693 C-85.159 68.53 -92.912 69.438 -100.664 70.359 C-101.852 70.5 -103.041 70.64 -104.265 70.785 C-106.395 71.04 -108.525 71.302 -110.653 71.574 C-117.091 72.365 -123.391 72.579 -129.875 72.438 C-127.254 64.305 -124.289 56.307 -121.314 48.299 C-120.44 45.944 -119.57 43.587 -118.701 41.23 C-117.349 37.572 -115.967 33.926 -114.57 30.285 C-113.968 28.685 -113.407 27.071 -112.853 25.454 C-110.885 20.144 -110.885 20.144 -108.221 18.281 C-106.146 17.36 -104.136 16.753 -101.938 16.188 C-101.149 15.956 -100.36 15.725 -99.548 15.487 C-97 14.758 -94.443 14.091 -91.875 13.438 C-90.609 13.105 -90.609 13.105 -89.317 12.767 C-83.2 11.177 -77.051 9.778 -70.875 8.438 C-70.084 8.26 -69.293 8.082 -68.479 7.899 C-46.243 2.953 -22.783 0.135 0 0 Z " fill="#FCFCFC" transform="translate(813.875,685.5625)"/>
<path d="M0 0 C-1.215 3.992 -2.749 7.661 -4.61 11.393 C-17.409 37.171 -27.059 64.535 -37 91.5 C-37.447 92.71 -37.893 93.92 -38.353 95.166 C-42.985 107.733 -47.556 120.307 -51.669 133.055 C-53.247 137.912 -55.032 142.636 -56.956 147.366 C-58.86 152.169 -60.547 157.048 -62.258 161.922 C-62.647 163.025 -63.036 164.129 -63.437 165.266 C-64.668 168.76 -65.897 172.255 -67.125 175.75 C-67.957 178.111 -68.789 180.471 -69.621 182.832 C-70.417 185.091 -71.212 187.35 -72.008 189.609 C-72.379 190.663 -72.75 191.716 -73.132 192.801 C-74.791 197.522 -76.44 202.244 -78 207 C-87.364 204.273 -87.364 204.273 -90.625 202.875 C-94.043 201.616 -97.379 201.368 -101 201 C-100.7 196.504 -99.732 193.194 -97.758 189.137 C-94.664 182.47 -92.345 175.602 -90.062 168.625 C-89.621 167.29 -89.18 165.956 -88.739 164.621 C-86.004 156.3 -83.457 147.939 -81.12 139.497 C-79.376 133.217 -77.443 127.013 -75.438 120.812 C-73.028 113.361 -70.815 105.888 -68.771 98.329 C-67.514 93.725 -66.106 89.206 -64.562 84.688 C-62.515 78.694 -60.718 72.659 -59 66.562 C-44.956 16.836 -44.956 16.836 -25.562 5.688 C-17.037 1.33 -9.579 -0.55 0 0 Z " fill="#FBFBFB" transform="translate(674,631)"/>
<path d="M0 0 C2.09 0.011 4.18 0 6.271 -0.013 C23 -0.031 40.859 0.884 54.724 11.261 C55.39 11.752 56.057 12.243 56.743 12.749 C64.824 19.223 70.289 28.553 73.724 38.261 C73.724 38.921 73.724 39.581 73.724 40.261 C72.877 40.098 72.031 39.936 71.159 39.769 C67.636 39.248 64.311 39.131 60.751 39.128 C59.439 39.127 58.128 39.125 56.776 39.124 C55.763 39.127 55.763 39.127 54.728 39.13 C52.663 39.136 50.599 39.13 48.534 39.124 C47.224 39.125 45.914 39.127 44.563 39.128 C43.371 39.129 42.179 39.13 40.95 39.131 C38.071 39.247 35.526 39.638 32.724 40.261 C30.537 40.389 28.349 40.489 26.161 40.573 C2.785 41.856 -22.216 45.708 -44.451 53.352 C-47.537 54.344 -50.055 54.414 -53.276 54.261 C-50.907 41.969 -50.907 41.969 -47.589 36.323 C-42.84 27.541 -45.012 17.513 -47.276 8.261 C-44.406 7.288 -41.531 6.332 -38.651 5.386 C-37.862 5.116 -37.074 4.847 -36.261 4.569 C-24.41 0.713 -12.377 -0.075 0 0 Z " fill="#FCFCFC" transform="translate(762.2763671875,639.7392578125)"/>
<path d="M0 0 C-1.349 2.751 -2.786 5.425 -4.312 8.082 C-4.966 9.233 -4.966 9.233 -5.633 10.408 C-6.539 12.002 -7.451 13.593 -8.367 15.182 C-12.959 23.312 -14.32 30.112 -14.188 39.375 C-14.178 40.351 -14.169 41.327 -14.159 42.333 C-14.122 45.222 -14.065 48.111 -14 51 C-13.979 52.127 -13.979 52.127 -13.958 53.277 C-13.674 65.631 -11.637 77.68 -9.544 89.836 C-9.026 92.846 -8.523 95.858 -8.023 98.871 C-6.25 109.447 -4.223 119.949 -2.003 130.44 C6.224 169.396 6.224 169.396 8 187 C8.83 186.979 9.66 186.958 10.516 186.937 C30.094 186.507 46.714 186.219 64 197 C63.67 197.99 63.34 198.98 63 200 C62.357 199.685 61.714 199.371 61.051 199.047 C42.39 190.209 23.013 187.729 3 194 C-1.147 195.769 -5.083 197.771 -9 200 C-9.66 200.33 -10.32 200.66 -11 201 C-11.055 199.754 -11.111 198.508 -11.168 197.224 C-11.374 192.593 -11.586 187.961 -11.8 183.33 C-11.891 181.327 -11.981 179.325 -12.07 177.322 C-12.198 174.439 -12.331 171.558 -12.465 168.676 C-12.503 167.783 -12.542 166.89 -12.582 165.97 C-12.642 164.709 -12.642 164.709 -12.703 163.423 C-12.736 162.688 -12.769 161.953 -12.804 161.196 C-13.023 158.746 -13.513 156.41 -14 154 C-14.18 152.396 -14.334 150.79 -14.465 149.181 C-14.58 147.79 -14.58 147.79 -14.698 146.37 C-14.816 144.886 -14.816 144.886 -14.938 143.371 C-15.112 141.264 -15.286 139.156 -15.461 137.049 C-15.732 133.735 -16.001 130.421 -16.271 127.108 C-16.532 123.904 -16.797 120.7 -17.062 117.496 C-17.142 116.504 -17.221 115.513 -17.302 114.491 C-17.379 113.566 -17.456 112.642 -17.535 111.689 C-17.601 110.878 -17.667 110.067 -17.735 109.232 C-17.991 107.08 -18.458 105.095 -19 103 C-21.255 83.918 -22.302 64.642 -22.421 45.434 C-22.432 43.66 -22.449 41.885 -22.473 40.111 C-22.628 27.13 -21.522 17.379 -13.008 6.984 C-9.658 3.673 -4.898 0 0 0 Z " fill="#F6F6F7" transform="translate(472,632)"/>
<path d="M0 0 C0.66 0 1.32 0 2 0 C2.172 0.638 2.343 1.276 2.52 1.934 C4.557 9.459 6.686 16.955 8.875 24.438 C9.201 25.575 9.527 26.713 9.863 27.885 C12.955 38.428 17.019 48.431 21.938 58.25 C22.275 58.928 22.613 59.606 22.961 60.305 C25.232 64.761 27.733 68.779 30.969 72.617 C32 74 32 74 32 76 C31.201 76.208 30.402 76.415 29.578 76.629 C19.209 79.538 10.205 83.95 2 91 C1.67 91.66 1.34 92.32 1 93 C-1.592 93.411 -1.592 93.411 -5.004 93.633 C-6.219 93.717 -7.434 93.8 -8.686 93.887 C-9.965 93.965 -11.244 94.044 -12.562 94.125 C-13.846 94.211 -15.129 94.298 -16.451 94.387 C-19.634 94.6 -22.816 94.804 -26 95 C-25.67 94.01 -25.34 93.02 -25 92 C-24.88 90.044 -24.825 88.084 -24.812 86.125 C-24.798 85.096 -24.784 84.068 -24.77 83.008 C-24.882 79.572 -24.882 79.572 -27 75 C-23.7 72.03 -20.4 69.06 -17 66 C-15.68 66.66 -14.36 67.32 -13 68 C-10.128 68.167 -7.367 68.234 -4.5 68.188 C-3.741 68.187 -2.981 68.186 -2.199 68.186 C1.362 68.157 4.574 67.957 8 67 C8 66.01 8 65.02 8 64 C7.41 63.945 6.82 63.889 6.212 63.832 C3.537 63.579 0.862 63.321 -1.812 63.062 C-2.741 62.975 -3.67 62.888 -4.627 62.799 C-5.52 62.712 -6.412 62.625 -7.332 62.535 C-8.154 62.457 -8.976 62.378 -9.823 62.297 C-12 62 -12 62 -15 61 C-15.079 51.173 -14.75 43.229 -9.947 34.423 C-4.511 23.892 -2.617 11.482 0 0 Z " fill="#FAFAFA" transform="translate(631,548)"/>
<path d="M0 0 C0.014 0.675 0.028 1.351 0.043 2.047 C0.245 7.946 0.245 7.946 3.562 12.625 C4.367 13.079 5.171 13.533 6 14 C5.948 13.095 5.948 13.095 5.895 12.172 C5.671 5.563 5.671 5.563 7.5 2.438 C7.995 1.963 8.49 1.489 9 1 C9.99 1.33 10.98 1.66 12 2 C11.67 2.66 11.34 3.32 11 4 C10.575 9.029 10.642 13.432 13 18 C12.34 18.66 11.68 19.32 11 20 C10.816 21.942 10.816 21.942 11.023 24.133 C11.075 24.938 11.127 25.744 11.18 26.574 C11.244 27.416 11.309 28.258 11.375 29.125 C11.432 29.974 11.488 30.824 11.547 31.699 C11.689 33.8 11.843 35.9 12 38 C12.99 38.495 12.99 38.495 14 39 C12.338 43.398 10.298 47.556 8.188 51.75 C7.834 52.456 7.48 53.162 7.115 53.889 C4.539 58.999 1.864 64.043 -1 69 C-4.619 65.798 -6.993 62.083 -9.535 58.023 C-11.006 55.744 -11.006 55.744 -14 54 C-16.625 53.833 -16.625 53.833 -19 54 C-19.99 56.475 -19.99 56.475 -21 59 C-21.436 58.602 -21.871 58.203 -22.32 57.793 C-27.801 52.917 -32.557 49.886 -40 49 C-38.289 44.441 -36.132 40.151 -33.938 35.812 C-33.573 35.089 -33.209 34.365 -32.834 33.619 C-31.891 31.745 -30.946 29.873 -30 28 C-28.396 24.791 -28.509 21.481 -29 18 C-30.497 15.343 -31.847 13.153 -34 11 C-34.041 9 -34.043 7 -34 5 C-33.416 4.991 -32.832 4.981 -32.231 4.972 C-18.061 5.019 -18.061 5.019 -4.742 0.84 C-3 0 -3 0 0 0 Z " fill="#F8F8F8" transform="translate(655,369)"/>
<path d="M0 0 C6.756 3.184 11.724 8.524 16.738 13.926 C18.952 15.956 20.071 16.645 23 17 C22.357 15.686 21.71 14.374 21.062 13.062 C20.523 11.966 20.523 11.966 19.973 10.848 C19.136 9.038 19.136 9.038 18 8 C17.959 6.334 17.957 4.666 18 3 C26.015 6.115 30.327 17.861 33.844 25.184 C35.512 29.248 35.981 32.632 36 37 C36.007 37.674 36.014 38.348 36.021 39.042 C36.069 44.029 36.052 49.013 36 54 C34.949 54.459 33.899 54.918 32.816 55.391 C31.802 55.835 31.802 55.835 30.767 56.287 C29.294 56.93 27.821 57.572 26.347 58.211 C21.763 60.203 17.243 62.281 12.797 64.566 C11 65 11 65 9.079 64.35 C6.341 62.572 5.447 60.72 3.934 57.836 C3.364 56.796 2.795 55.755 2.209 54.684 C1.044 52.507 -0.11 50.325 -1.252 48.137 C-5.803 39.887 -11.424 33.466 -20.47 30.074 C-22.851 29.417 -22.851 29.417 -26 29 C-26 28.01 -26 27.02 -26 26 C-22.878 23.919 -22.067 23.726 -18.5 23.75 C-17.727 23.745 -16.953 23.74 -16.156 23.734 C-14 24 -14 24 -11 26 C-9.68 26 -8.36 26 -7 26 C-7.946 23.634 -8.617 22.26 -10.75 20.812 C-13.473 19.829 -16.137 19.39 -19 19 C-18 17 -18 17 -16 15 C-9.812 14.056 -6.55 15.389 -1.469 18.906 C-0.984 19.267 -0.499 19.628 0 20 C-1.117 16.86 -1.956 14.562 -4.98 12.934 C-6.959 12.209 -8.979 11.596 -11 11 C-10.67 10.01 -10.34 9.02 -10 8 C-3.632 8.029 -0.04 9.071 4.492 13.625 C6.067 15.248 6.067 15.248 9 16 C6.6 10.9 2.859 7.701 -2 5 C-4.773 4.275 -7.111 4.103 -10 4 C-10 3.34 -10 2.68 -10 2 C-6.155 -0.563 -4.578 -0.591 0 0 Z " fill="#F9F9FA" transform="translate(620,424)"/>
<path d="M0 0 C6.67 5.223 10.673 15.065 13.293 22.926 C14.176 31.752 12.52 38.2 7.543 45.488 C7.13 45.963 6.718 46.437 6.293 46.926 C4.313 46.431 4.313 46.431 2.293 45.926 C3.047 40.394 3.047 40.394 4.293 38.02 C5.418 35.664 5.689 33.767 5.918 31.176 C5.993 30.377 6.067 29.577 6.145 28.754 C6.194 28.151 6.243 27.547 6.293 26.926 C5.55 26.823 4.808 26.72 4.043 26.613 C1.293 25.926 1.293 25.926 -0.582 24.363 C-3.83 22.166 -5.866 22.34 -9.707 22.926 C-15.656 26.237 -19.227 32.206 -22.91 37.73 C-23.503 38.455 -24.096 39.179 -24.707 39.926 C-25.697 39.926 -26.687 39.926 -27.707 39.926 C-27.276 30.021 -21.193 22.906 -14.246 16.324 C-13.738 15.863 -13.23 15.401 -12.707 14.926 C-13.697 14.596 -14.687 14.266 -15.707 13.926 C-26.45 20.477 -31.485 33.065 -36.707 43.926 C-37.697 43.926 -38.687 43.926 -39.707 43.926 C-40.264 34.806 -35.919 27.081 -30.461 20.02 C-28.598 17.921 -26.709 15.891 -24.707 13.926 C-27.902 10.326 -31.057 9.612 -35.707 8.926 C-41.067 8.812 -44.438 11.42 -48.461 14.676 C-51.729 17.949 -53.936 21.656 -56.199 25.668 C-57.707 27.926 -57.707 27.926 -60.707 28.926 C-61.399 22.423 -59.57 18.162 -55.707 12.926 C-52.696 9.84 -49.586 6.865 -45.707 4.926 C-44.256 4.91 -42.804 4.96 -41.355 5.047 C-40.505 5.095 -39.654 5.144 -38.777 5.193 C-37.888 5.249 -36.998 5.306 -36.082 5.363 C-35.185 5.415 -34.288 5.468 -33.363 5.521 C-31.144 5.651 -28.926 5.786 -26.707 5.926 C-26.707 4.276 -26.707 2.626 -26.707 0.926 C-18.81 -2.19 -8.034 -3.188 0 0 Z " fill="#F4F4F5" transform="translate(529.70703125,625.07421875)"/>
<path d="M0 0 C2 2 2 2 2.438 5.562 C2.213 13.308 -3.059 19.754 -8.047 25.316 C-10.161 27.139 -11.875 27.853 -14.5 28.75 C-20.136 30.841 -21.961 35.279 -24.59 40.418 C-26 43 -26 43 -28 44 C-29.427 41.733 -30.052 40.469 -29.754 37.769 C-28.286 32.379 -25.45 27.51 -22.9 22.562 C-21.884 20.58 -20.891 18.586 -19.898 16.592 C-10.637 -1.668 -10.637 -1.668 0 0 Z " fill="#F2F2F2" transform="translate(689,404)"/>
<path d="M0 0 C-0.33 0.99 -0.66 1.98 -1 3 C-3.32 4.119 -5.519 5.023 -7.938 5.875 C-8.657 6.135 -9.376 6.396 -10.118 6.664 C-17.424 9.251 -24.849 11.317 -32.339 13.292 C-35.327 14.087 -38.308 14.906 -41.289 15.727 C-51.195 18.444 -61.099 21.133 -71.125 23.375 C-71.816 23.53 -72.507 23.686 -73.219 23.846 C-82.302 25.811 -90.985 26.182 -100.25 26.188 C-102.006 26.206 -102.006 26.206 -103.797 26.225 C-104.921 26.227 -106.045 26.228 -107.203 26.23 C-108.221 26.235 -109.238 26.239 -110.286 26.243 C-113.026 25.998 -114.663 25.406 -117 24 C-117 23.34 -117 22.68 -117 22 C-116.046 22.047 -116.046 22.047 -115.073 22.095 C-96.606 22.875 -79.902 20.44 -62 16 C-61.205 15.803 -60.41 15.607 -59.591 15.404 C-56.575 14.644 -53.576 13.836 -50.582 12.992 C-46.118 11.756 -41.624 10.664 -37.125 9.562 C-29.25 7.62 -21.464 5.455 -13.699 3.113 C-12.478 2.746 -11.258 2.379 -10 2 C-8.748 1.622 -7.497 1.245 -6.207 0.855 C-3 0 -3 0 0 0 Z " fill="#E1E1E2" transform="translate(532,880)"/>
<path d="M0 0 C4.096 2.601 7.95 6.292 10.375 10.5 C10.059 12.75 10.059 12.75 9.375 14.5 C8.616 14.006 7.856 13.513 7.074 13.004 C5.583 12.043 5.583 12.043 4.062 11.062 C3.076 10.424 2.09 9.786 1.074 9.129 C-5.307 5.278 -13.371 5.676 -20.625 6.5 C-30.683 9.494 -36.635 18.854 -41.625 27.5 C-42.285 27.17 -42.945 26.84 -43.625 26.5 C-44.26 19.515 -42.806 15.143 -38.625 9.5 C-29.136 -0.98 -13.575 -5.951 0 0 Z " fill="#111111" transform="translate(917.625,604.5)"/>
<path d="M0 0 C5.018 4.015 11.292 9.575 12.043 16.32 C11.924 22.028 11.924 22.028 10.812 24.25 C10.153 24.25 9.493 24.25 8.812 24.25 C8.533 23.609 8.253 22.969 7.965 22.309 C3.591 12.871 -1.485 7.157 -11.223 3.137 C-18.269 1.029 -24.704 1.072 -31.25 4.562 C-33.373 5.879 -35.04 7.092 -36.746 8.918 C-38.188 10.25 -38.188 10.25 -41.188 10.25 C-41.116 7.259 -40.818 5.038 -38.914 2.656 C-26.784 -8.506 -13.633 -7.485 0 0 Z " fill="#101010" transform="translate(131.1875,607.75)"/>
<path d="M0 0 C0.495 2.475 0.495 2.475 1 5 C0.3 5.332 -0.399 5.664 -1.12 6.006 C-4.353 7.543 -7.583 9.084 -10.812 10.625 C-11.913 11.147 -13.013 11.669 -14.146 12.207 C-20.462 15.225 -26.578 18.382 -32.569 22.009 C-35.491 23.2 -37.023 22.896 -40 22 C-40.33 20.35 -40.66 18.7 -41 17 C-19.169 5.468 -19.169 5.468 -10.375 1.188 C-9.434 0.727 -8.493 0.267 -7.523 -0.207 C-4.601 -1.125 -2.907 -0.855 0 0 Z " fill="#F1F2F2" transform="translate(665,483)"/>
<path d="M0 0 C13.923 3.298 28.683 18.528 38 29 C40.447 33.893 38.404 40.607 36.957 45.594 C34.818 51.753 32.53 57.51 29 63 C28.67 63 28.34 63 28 63 C28.449 57.704 29.257 52.781 30.562 47.625 C32.205 40.8 33.26 33.779 31 27 C30.432 26.722 29.863 26.443 29.277 26.156 C26.103 24.545 23.977 22.054 21.562 19.5 C15.301 13.043 8.12 6.06 0 2 C0 1.34 0 0.68 0 0 Z " fill="#E8E9E9" transform="translate(557,641)"/>
<path d="M0 0 C8.474 0.042 14.431 3.454 20.363 9.387 C20.796 10.15 21.23 10.913 21.676 11.699 C21.346 12.689 21.016 13.679 20.676 14.699 C20.084 14.289 19.492 13.879 18.883 13.457 C18.093 12.918 17.302 12.379 16.488 11.824 C15.711 11.291 14.934 10.757 14.133 10.207 C10.233 7.814 6.969 6.418 2.363 6.574 C1.146 6.615 -0.07 6.657 -1.324 6.699 C-0.334 8.349 0.656 9.999 1.676 11.699 C0.859 11.374 0.041 11.05 -0.801 10.715 C-4.905 9.532 -8.459 9.404 -12.699 9.449 C-13.774 9.438 -13.774 9.438 -14.871 9.426 C-19.984 9.444 -24.408 10.301 -29.324 11.699 C-29.324 12.689 -29.324 13.679 -29.324 14.699 C-31.242 14.514 -31.242 14.514 -33.199 14.324 C-38.6 14.264 -41.908 16.482 -46.258 19.484 C-46.94 19.885 -47.622 20.286 -48.324 20.699 C-48.984 20.369 -49.644 20.039 -50.324 19.699 C-43.315 12.341 -34.828 8.867 -25.324 5.699 C-23.973 5.675 -22.619 5.707 -21.27 5.777 C-20.49 5.803 -19.71 5.829 -18.906 5.855 C-17.275 5.918 -15.645 5.996 -14.016 6.09 C-8.786 6.241 -8.786 6.241 -4.547 3.227 C-2.324 0.699 -2.324 0.699 0 0 Z " fill="#EBEBEB" transform="translate(646.32421875,328.30078125)"/>
<path d="M0 0 C0.33 0 0.66 0 1 0 C1.052 0.559 1.103 1.119 1.156 1.695 C3.301 16.852 16.083 34.932 28 44.375 C30.009 45.837 30.009 45.837 32 47 C32.572 47.371 33.145 47.742 33.734 48.125 C37.151 49.445 40.631 49.472 44.25 49.625 C44.995 49.664 45.74 49.702 46.508 49.742 C48.338 49.836 50.169 49.919 52 50 C48.817 53.183 45.257 53.227 40.875 53.438 C30.49 53.245 23.714 46.313 16.766 39.317 C11.207 33.453 7.038 26.982 3 20 C2.63 19.411 2.26 18.822 1.879 18.215 C-0.341 14.598 -1.507 12.005 -1.312 7.75 C-1.288 6.92 -1.264 6.09 -1.238 5.234 C-1 3 -1 3 0 0 Z " fill="#E3E3E3" transform="translate(573,869)"/>
<path d="M0 0 C2.64 0 5.28 0 8 0 C8.075 3.898 7.946 7.241 7 11 C6.859 12.513 6.755 14.029 6.684 15.547 C6.642 16.391 6.6 17.236 6.557 18.105 C6.517 18.978 6.478 19.851 6.438 20.75 C6.373 22.082 6.373 22.082 6.307 23.441 C6.201 25.627 6.099 27.814 6 30 C4.02 30 2.04 30 0 30 C0 20.1 0 10.2 0 0 Z " fill="#F0F1F1" transform="translate(166,834)"/>
<path d="M0 0 C0.99 0.33 1.98 0.66 3 1 C2.685 1.534 2.371 2.067 2.047 2.617 C-2.606 10.718 -5.804 18.832 -8.148 27.863 C-9.193 31.711 -10.368 35.509 -11.562 39.312 C-11.773 39.982 -11.983 40.652 -12.199 41.342 C-13.428 45.241 -14.696 49.125 -16 53 C-16.33 53 -16.66 53 -17 53 C-17.212 45.372 -15.725 38.581 -13.857 31.219 C-13.316 29.075 -12.799 26.926 -12.283 24.775 C-10.004 15.523 -7.53 6.415 0 0 Z " fill="#E5E5E6" transform="translate(706,668)"/>
<path d="M0 0 C1.052 0.247 2.104 0.495 3.188 0.75 C2.122 3.462 1.286 4.679 -1.109 6.41 C-5.044 9.816 -7.052 13.995 -9.506 18.525 C-12.379 23.608 -12.379 23.608 -14.949 24.452 C-15.564 24.551 -16.179 24.649 -16.812 24.75 C-16.942 16.239 -14.147 10.323 -8.812 3.75 C-4.491 -0.294 -4.491 -0.294 0 0 Z " fill="#F1F1F1" transform="translate(496.8125,637.25)"/>
<path d="M0 0 C4.556 -0.249 7.571 0.366 11.688 2.312 C12.619 2.742 13.551 3.171 14.512 3.613 C18.48 5.825 18.48 5.825 20 8 C19.688 10.188 19.688 10.188 19 12 C11.563 12.62 6.043 11.401 0.254 6.531 C-0.16 6.026 -0.574 5.521 -1 5 C-0.688 2.312 -0.688 2.312 0 0 Z " fill="#0E0E0F" transform="translate(636,387)"/>
<path d="M0 0 C0.75 0.005 1.499 0.009 2.271 0.014 C4.119 0.025 5.966 0.043 7.812 0.062 C7.812 1.053 7.812 2.043 7.812 3.062 C6.15 3.262 6.15 3.262 4.453 3.465 C2.99 3.643 1.526 3.821 0.062 4 C-0.667 4.087 -1.397 4.174 -2.148 4.264 C-5.563 4.683 -8.864 5.18 -12.188 6.062 C-12.188 7.053 -12.188 8.043 -12.188 9.062 C-14.106 8.877 -14.106 8.877 -16.062 8.688 C-21.464 8.628 -24.771 10.846 -29.121 13.848 C-29.803 14.249 -30.485 14.649 -31.188 15.062 C-31.847 14.733 -32.508 14.402 -33.188 14.062 C-24.502 4.945 -12.511 -0.142 0 0 Z " fill="#E4E4E5" transform="translate(629.1875,333.9375)"/>
<path d="M0 0 C0.66 0 1.32 0 2 0 C3.512 3.024 3.582 4.639 3 8 C-2.141 13.151 -9.036 16.297 -15.5 19.438 C-16.461 19.911 -17.422 20.384 -18.412 20.871 C-39.615 31.228 -39.615 31.228 -50 34 C-47.277 30.705 -43.659 29.196 -39.875 27.418 C-39.173 27.081 -38.471 26.745 -37.747 26.398 C-35.501 25.322 -33.251 24.254 -31 23.188 C-14.968 16.587 -14.968 16.587 -1 7 C-0.6 4.677 -0.26 2.343 0 0 Z " fill="#D2D3D3" transform="translate(487,847)"/>
<path d="M0 0 C2.339 1.755 2.952 2.741 3.492 5.652 C2.803 10.343 0.636 13.602 -1.875 17.562 C-2.792 19.041 -3.706 20.521 -4.617 22.004 C-5.042 22.694 -5.467 23.383 -5.905 24.094 C-7.179 26.312 -8.059 28.625 -9 31 C-11 31.938 -11 31.938 -13 32 C-13.66 31.34 -14.32 30.68 -15 30 C-15 24.703 -11.35 21.506 -8 17.812 C-6.894 16.57 -5.79 15.327 -4.688 14.082 C-4.196 13.538 -3.705 12.994 -3.199 12.433 C-1.026 9.836 -0.767 7.672 -0.438 4.375 C-0.354 3.558 -0.27 2.74 -0.184 1.898 C-0.123 1.272 -0.062 0.645 0 0 Z " fill="#ECECED" transform="translate(619,386)"/>
<path d="M0 0 C0.99 0 1.98 0 3 0 C4.65 4.249 6.294 8.499 7.938 12.75 C8.64 14.56 8.64 14.56 9.357 16.406 C9.805 17.566 10.253 18.727 10.715 19.922 C11.129 20.99 11.542 22.058 11.969 23.159 C12.797 25.44 13.479 27.635 14 30 C12.188 29.812 12.188 29.812 10 29 C6.695 24.484 5.121 19.175 3.312 13.938 C2.992 13.04 2.672 12.142 2.342 11.217 C1.888 9.916 1.888 9.916 1.426 8.59 C1.152 7.805 0.877 7.02 0.595 6.211 C0 4 0 4 0 0 Z " fill="#E7E7E8" transform="translate(815,834)"/>
<path d="M0 0 C6.621 1.615 10.941 5.297 15 10.625 C16 13 16 13 15.688 15.312 C15.461 15.869 15.234 16.426 15 17 C14.6 16.518 14.201 16.036 13.789 15.539 C11.569 13.629 10.265 13.554 7.375 13.375 C3.083 13.083 3.083 13.083 2 12 C1.604 9.987 1.257 7.964 0.938 5.938 C0.761 4.833 0.584 3.728 0.402 2.59 C0.27 1.735 0.137 0.881 0 0 Z " fill="#E7E7E7" transform="translate(672,334)"/>
<path d="M0 0 C1.938 0.812 1.938 0.812 4 2 C4.33 2.99 4.66 3.98 5 5 C7.64 5 10.28 5 13 5 C13 5.66 13 6.32 13 7 C11.36 7.619 11.36 7.619 9.688 8.25 C6.397 9.631 5.093 11.109 3 14 C1.68 14 0.36 14 -1 14 C-0.753 13.041 -0.753 13.041 -0.5 12.062 C0.159 8.024 0.08 4.082 0 0 Z " fill="#161516" transform="translate(636,402)"/>
<path d="M0 0 C1.32 0 2.64 0 4 0 C2.635 3.666 0.972 6.911 -1.062 10.25 C-1.59 11.121 -2.117 11.993 -2.66 12.891 C-4 15 -4 15 -5 16 C-6.666 16.041 -8.334 16.043 -10 16 C-8.712 13.706 -7.42 11.415 -6.125 9.125 C-5.578 8.149 -5.578 8.149 -5.02 7.152 C-3.513 4.496 -2.17 2.17 0 0 Z " fill="#191819" transform="translate(681,410)"/>
<path d="M0 0 C11.366 3.254 21.742 7.047 32 13 C27.95 14.35 26.595 13.189 22.75 11.438 C21.503 10.88 20.256 10.324 19.008 9.77 C18.357 9.479 17.707 9.188 17.036 8.889 C13.598 7.388 10.113 6.006 6.625 4.625 C5.965 4.363 5.304 4.1 4.624 3.83 C3.083 3.218 1.542 2.609 0 2 C0 1.34 0 0.68 0 0 Z " fill="#D4D4D3" transform="translate(601,838)"/>
<path d="M0 0 C0.669 4.459 -0.215 6.736 -2.812 10.25 C-4.806 12.789 -6.263 14.175 -9 16 C-10 13 -10 13 -9.398 11.133 C-3.724 0 -3.724 0 0 0 Z " fill="#E5E5E6" transform="translate(530,657)"/>
<path d="M0 0 C-3.589 3.033 -7.538 4.727 -11.812 6.562 C-12.842 7.018 -12.842 7.018 -13.893 7.482 C-18.201 9.353 -22.457 10.806 -27 12 C-23.325 7.892 -18.402 6.073 -13.5 3.75 C-12.537 3.278 -11.574 2.806 -10.582 2.32 C-9.658 1.879 -8.734 1.439 -7.781 0.984 C-6.936 0.579 -6.091 0.174 -5.221 -0.243 C-3 -1 -3 -1 0 0 Z " fill="#C5C7C7" transform="translate(464,869)"/>
<path d="M0 0 C3.884 0.883 5.704 1.665 8.375 4.688 C10.211 8.431 10.329 10.884 10 15 C8 12 8 12 6.625 8.938 C4.956 5.92 4.181 5.097 1 4 C0.01 4.66 -0.98 5.32 -2 6 C-1.125 1.125 -1.125 1.125 0 0 Z " fill="#E0E1E1" transform="translate(693,349)"/>
<path d="M0 0 C5.685 1.646 10.767 4.29 16 7 C15.67 7.99 15.34 8.98 15 10 C14.276 9.662 13.551 9.325 12.805 8.977 C7.933 6.729 3.155 4.533 -2 3 C-1.34 2.01 -0.68 1.02 0 0 Z " fill="#D6D6D7" transform="translate(520,822)"/>
<path d="M0 0 C0.33 0 0.66 0 1 0 C1.054 1.625 1.093 3.25 1.125 4.875 C1.148 5.78 1.171 6.685 1.195 7.617 C1 10 1 10 -1 12 C-2.98 10.35 -4.96 8.7 -7 7 C-4.667 4.667 -2.333 2.333 0 0 Z " fill="#DDDEDE" transform="translate(672,468)"/>
<path d="M0 0 C0.99 0 1.98 0 3 0 C1.334 6.164 -1.878 11.483 -5 17 C-6.302 13.994 -5.965 12.906 -4.785 9.766 C-4.217 8.605 -3.648 7.445 -3.062 6.25 C-2.214 4.494 -2.214 4.494 -1.348 2.703 C-0.903 1.811 -0.458 0.919 0 0 Z " fill="#D0D0D0" transform="translate(582,843)"/>
<path d="M0 0 C-0.66 1.32 -1.32 2.64 -2 4 C-7.28 4 -12.56 4 -18 4 C-18 3.34 -18 2.68 -18 2 C-15.375 1.665 -12.75 1.332 -10.125 1 C-9.379 0.905 -8.632 0.809 -7.863 0.711 C-2.227 0 -2.227 0 0 0 Z " fill="#E3E3E4" transform="translate(625,647)"/>
<path d="M0 0 C0.99 0 1.98 0 3 0 C3 3.3 3 6.6 3 10 C2.01 10.495 2.01 10.495 1 11 C0.67 7.37 0.34 3.74 0 0 Z " fill="#EDEEEF" transform="translate(486,831)"/>
<path d="M0 0 C3 3 3 3 3.188 6.188 C3.126 7.116 3.064 8.044 3 9 C1.68 9.33 0.36 9.66 -1 10 C-0.67 6.7 -0.34 3.4 0 0 Z " fill="#CFD0D0" transform="translate(619,386)"/>
<path d="M0 0 C0.66 0.33 1.32 0.66 2 1 C2 1.66 2 2.32 2 3 C0.32 4.324 0.32 4.324 -1.875 5.688 C-2.594 6.145 -3.314 6.603 -4.055 7.074 C-5.018 7.532 -5.018 7.532 -6 8 C-6.66 7.67 -7.32 7.34 -8 7 C-5.36 4.69 -2.72 2.38 0 0 Z " fill="#DDDEDE" transform="translate(604,341)"/>
<path d="M0 0 C1.98 0.66 3.96 1.32 6 2 C6 2.99 6 3.98 6 5 C3.36 4.34 0.72 3.68 -2 3 C-1.34 2.01 -0.68 1.02 0 0 Z " fill="#BDBEBD" transform="translate(520,822)"/>
<path d="M0 0 C2.97 0.99 5.94 1.98 9 3 C9 3.33 9 3.66 9 4 C5.7 3.67 2.4 3.34 -1 3 C-0.67 2.01 -0.34 1.02 0 0 Z " fill="#EAE9E9" transform="translate(512,820)"/>
<path d="M0 0 C0.949 0.041 1.898 0.082 2.875 0.125 C1.688 1.688 1.688 1.688 -0.125 3.125 C-2.812 2.812 -2.812 2.812 -5.125 2.125 C-3.125 0.125 -3.125 0.125 0 0 Z " fill="#CBCCCC" transform="translate(603.125,357.875)"/>
</svg>