<svg version="1.1" xmlns="http://www.w3.org/2000/svg" width="1024" height="1024">
<path d="M0 0 C337.92 0 675.84 0 1024 0 C1024 337.92 1024 675.84 1024 1024 C686.08 1024 348.16 1024 0 1024 C0 686.08 0 348.16 0 0 Z " fill="#282527" transform="translate(0,0)"/>
<path d="M0 0 C260.7 0 521.4 0 790 0 C790 289.41 790 578.82 790 877 C755.35 877 720.7 877 685 877 C680 830 680 830 678.5 815.562 C674.432 777.914 669.414 740.324 663 703 C662.827 701.973 662.654 700.947 662.476 699.889 C653.434 644.503 653.434 644.503 618 603 C614.875 600.909 611.712 598.882 608.507 596.917 C604.098 594.197 604.098 594.197 603 592 C610.333 588.333 617.667 584.667 625 581 C625 581.99 625 582.98 625 584 C634.689 583.687 641.445 580.007 648.125 573 C655.01 564.741 659.783 554.766 664.383 545.109 C665.78 542.422 667.287 539.912 668.887 537.344 C672.111 532.027 674.38 526.508 676.688 520.75 C681.493 509.229 687.523 498.32 698 491 C700.312 491.25 700.312 491.25 702 492 C702.33 493.32 702.66 494.64 703 496 C702.381 496.247 701.763 496.495 701.125 496.75 C698.532 498.275 698.278 499.31 697 502 C696.474 502.873 695.948 503.745 695.406 504.645 C685.956 520.349 676.783 538.739 674 557 C676.46 554.794 677.698 552.829 678.945 549.781 C679.295 548.941 679.646 548.1 680.006 547.234 C680.376 546.332 680.745 545.429 681.125 544.5 C694.967 511.543 694.967 511.543 702 504 C702.99 503.67 703.98 503.34 705 503 C702.795 510.725 700.174 518.262 697.438 525.812 C696.551 528.281 695.665 530.75 694.781 533.219 C694.555 533.851 694.328 534.483 694.095 535.134 C691.739 541.718 689.403 548.308 687.102 554.911 C686.451 556.774 685.794 558.634 685.136 560.493 C683.223 566.003 681.485 571.173 681 577 C683.869 575.566 684.074 573.799 685.25 570.84 C685.689 569.748 686.127 568.656 686.579 567.531 C687.282 565.752 687.282 565.752 688 563.938 C688.742 562.088 689.484 560.238 690.227 558.389 C690.735 557.125 691.242 555.861 691.748 554.596 C694.192 548.498 696.713 542.434 699.25 536.375 C700.068 534.417 700.886 532.458 701.703 530.5 C702.089 529.576 702.475 528.651 702.873 527.699 C704.587 523.593 706.298 519.486 708 515.375 C708.279 514.706 708.558 514.038 708.845 513.349 C712.466 504.961 712.466 504.961 713 496 C712.01 495.34 711.02 494.68 710 494 C709.322 491.67 708.656 489.336 708 487 C706.391 484.877 705.425 484.113 702.836 483.426 C697.206 483.167 694.322 484.02 690.062 487.812 C688.685 489.185 687.328 490.579 686 492 C685.002 493.002 684.003 494.003 683 495 C682.875 488.375 682.875 488.375 684 485 C686.292 455.139 672.308 429.345 653.438 407.062 C643.167 395.264 631.857 384.19 620 374 C601.426 357.668 581.923 336.543 579.794 310.48 C578.896 285.001 585.129 261.486 593.125 237.438 C596.538 227.073 598.59 216.454 600.511 205.726 C600.906 203.523 601.326 201.325 601.754 199.129 C604.91 180.389 604.578 159.438 600 141 C599.772 139.997 599.544 138.994 599.309 137.961 C595.46 122.347 587.264 104.852 575 94 C574.34 94 573.68 94 573 94 C573.459 99.833 575.15 103.56 578.188 108.5 C585.863 121.564 591.764 135.747 592.789 151.004 C592.89 153.071 592.89 153.071 594 155 C594.281 159.743 594.245 164.499 594.25 169.25 C594.251 169.95 594.252 170.649 594.253 171.37 C594.241 183.778 593.296 195.796 591 208 C590.866 208.728 590.732 209.455 590.594 210.205 C588.433 221.597 585.189 232.723 582.077 243.883 C570.074 284.635 570.074 284.635 575 326 C575.209 326.647 575.418 327.294 575.633 327.96 C583.114 350.922 597.762 368.682 615.98 384.266 C619.186 387.018 622.308 389.861 625.438 392.699 C627.087 394.18 628.752 395.643 630.438 397.082 C649.008 413.123 671.415 440.556 673.865 465.924 C674.601 477.263 674.652 488.108 671 499 C670.67 499 670.34 499 670 499 C669.89 497.851 669.781 496.703 669.668 495.52 C667.089 469.706 659.29 446.466 643 426 C642.224 425.02 641.448 424.041 640.648 423.031 C631.12 411.285 620.285 400.501 608.851 390.617 C591.014 375.032 576.812 356.248 571 333 C570.63 331.809 570.26 330.618 569.879 329.391 C563.087 305.968 566.002 279.199 572 256 C572.509 253.96 573.018 251.919 573.527 249.879 C575.289 242.93 577.148 236.009 579.094 229.109 C581.306 221.152 583.06 213.159 584.688 205.062 C584.902 203.995 585.117 202.928 585.338 201.829 C592.521 165.321 586.453 129.285 566.035 97.988 C561.51 91.564 556.427 85.676 551 80 C550.144 79.098 550.144 79.098 549.271 78.179 C544.369 73.127 539.157 68.804 533.5 64.625 C532.192 63.652 532.192 63.652 530.857 62.66 C523.732 57.421 516.435 52.582 508.823 48.083 C507.07 47.042 505.335 45.969 503.602 44.895 C478.718 29.901 450.694 22.407 422.004 29.356 C416.922 30.673 411.925 32.176 407 34 C410.88 29.756 415.043 26.891 420 24 C414.164 24.469 410.195 26.163 405.188 29.125 C404.146 29.725 404.146 29.725 403.084 30.338 C397.51 33.593 392.171 37.134 387 41 C384.506 39.796 382.319 38.546 380 37 C377.425 36.72 377.425 36.72 374.625 36.812 C373.221 36.822 373.221 36.822 371.789 36.832 C369.104 36.994 366.619 37.405 364 38 C364 37.01 364 36.02 364 35 C327.805 25.911 291.097 37.317 259.574 55.488 C245.796 63.749 233.572 73.908 222 85 C221.47 85.503 220.94 86.005 220.395 86.523 C212.094 94.432 204.828 102.796 198 112 C197.083 113.207 197.083 113.207 196.148 114.438 C163.532 158.957 155.769 211.047 155.875 264.812 C155.876 266.158 155.878 267.503 155.879 268.848 C155.896 286.797 156.041 304.742 156.438 322.688 C156.457 323.625 156.477 324.562 156.497 325.528 C156.553 328.127 156.616 330.725 156.684 333.324 C156.7 334.083 156.717 334.841 156.734 335.623 C156.788 339.438 156.788 339.438 158 343 C158.66 343 159.32 343 160 343 C160.309 342.01 160.619 341.02 160.938 340 C161.112 339.443 161.286 338.886 161.465 338.312 C162.923 332.01 163.136 325.768 163.066 319.334 C163.061 318.507 163.057 317.68 163.052 316.827 C163.041 315.04 163.029 313.253 163.014 311.466 C162.992 308.611 162.978 305.755 162.966 302.899 C162.933 294.782 162.892 286.664 162.829 278.547 C162.662 256.487 162.543 234.851 166 213 C166.227 211.423 166.453 209.846 166.676 208.269 C174.126 157.73 203.448 108.47 244.242 77.723 C269.941 58.866 300.834 42.623 333.5 42.938 C335.341 42.951 335.341 42.951 337.219 42.965 C338.595 42.982 338.595 42.982 340 43 C340 43.33 340 43.66 340 44 C339.337 44.12 338.674 44.24 337.991 44.364 C305.715 50.29 275.588 61.37 249 81 C247.991 81.712 246.981 82.423 245.941 83.156 C230.958 94.081 217.695 107.865 207 123 C206.26 124.045 205.52 125.091 204.758 126.168 C193.817 142.463 184.86 160.261 179 179 C178.767 179.741 178.535 180.481 178.295 181.245 C169.661 209.503 169.402 237.777 169.378 267.037 C169.369 275.207 169.334 283.376 169.286 291.546 C169.274 294.357 169.274 297.168 169.276 299.98 C169.163 351.252 145.782 397.899 120.101 441.033 C105.261 465.959 90.922 490.897 83 519 C82.791 519.71 82.582 520.419 82.367 521.15 C79.037 532.901 78.588 544.618 78.5 556.75 C78.489 557.485 78.479 558.22 78.468 558.977 C78.316 572.669 80.17 586.112 86.688 598.375 C87.029 599.034 87.371 599.694 87.723 600.373 C96.178 616.018 113.254 628.943 129.938 635.062 C134.007 636.223 137.791 636.23 142 636 C142 634.68 142 633.36 142 632 C144.97 632.66 147.94 633.32 151 634 C148.988 638.025 146.7 640.37 143.5 643.375 C114.209 671.964 105.154 718.072 104.569 757.589 C104.51 764.153 104.548 770.716 104.609 777.279 C104.631 780.257 104.63 783.234 104.629 786.212 C104.63 801.217 104.918 816.064 106.764 830.976 C107.378 836.237 107.686 841.531 108.062 846.812 C108.597 854.748 108.597 854.748 109.559 862.637 C110.139 867.056 110 871.543 110 876 C73.7 876 37.4 876 0 876 C0 586.92 0 297.84 0 0 Z " fill="#FEFEFE" transform="translate(117,73)"/>
<path d="M0 0 C337.92 0 675.84 0 1024 0 C1024 337.92 1024 675.84 1024 1024 C953.38 1024 882.76 1024 810 1024 C808.35 1009.81 806.7 995.62 805 981 C804.67 979.35 804.34 977.7 804 976 C804 971.38 804 966.76 804 962 C841.29 961.67 878.58 961.34 917 961 C917.33 667.96 917.66 374.92 918 73 C926.25 73 934.5 73 943 73 C943.002 74.948 943.003 76.897 943.005 78.904 C943.082 164.727 943.16 250.55 943.244 336.374 C943.245 337.672 943.246 338.97 943.248 340.308 C943.274 367.831 943.302 395.354 943.329 422.878 C943.343 436.703 943.357 450.528 943.37 464.354 C943.372 466.439 943.374 468.525 943.376 470.61 C943.408 502.737 943.439 534.864 943.468 566.991 C943.468 567.682 943.469 568.373 943.47 569.085 C943.48 580.229 943.489 591.372 943.499 602.516 C943.527 634.6 943.556 666.684 943.588 698.768 C943.59 700.086 943.591 701.404 943.592 702.762 C943.606 715.918 943.619 729.074 943.633 742.23 C943.64 748.702 943.646 755.174 943.653 761.645 C943.655 763.556 943.655 763.556 943.657 765.506 C943.678 786.055 943.696 806.604 943.712 827.153 C943.729 847.785 943.749 868.417 943.773 889.049 C943.787 901.324 943.798 913.599 943.805 925.874 C943.811 934.058 943.819 942.241 943.831 950.425 C943.838 955.098 943.843 959.771 943.843 964.445 C943.844 968.686 943.849 972.928 943.858 977.169 C943.86 978.704 943.861 980.238 943.86 981.772 C943.858 983.838 943.863 985.904 943.869 987.97 C943.87 989.119 943.872 990.269 943.873 991.452 C943.711 993.935 943.711 993.935 945 995 C948.63 995 952.26 995 956 995 C955.67 687.11 955.34 379.22 955 62 C808.501 61.979 662.001 61.959 511.062 61.938 C464.712 61.928 418.361 61.919 370.606 61.91 C329.254 61.907 329.254 61.907 287.903 61.905 C268.185 61.904 248.467 61.899 228.749 61.893 C208.668 61.887 188.587 61.885 168.506 61.887 C156.549 61.887 144.591 61.885 132.633 61.879 C124.755 61.875 116.877 61.875 108.999 61.878 C104.5 61.88 100.002 61.88 95.504 61.875 C91.414 61.871 87.323 61.872 83.233 61.876 C81.753 61.877 80.273 61.876 78.794 61.873 C76.802 61.869 74.81 61.872 72.818 61.876 C71.71 61.876 70.602 61.875 69.461 61.875 C67.055 61.722 67.055 61.722 66 63 C65.902 65.049 65.876 67.101 65.876 69.152 C65.875 69.806 65.873 70.46 65.872 71.133 C65.869 73.357 65.873 75.58 65.877 77.803 C65.876 79.408 65.875 81.012 65.873 82.616 C65.87 87.066 65.874 91.515 65.878 95.965 C65.881 100.79 65.879 105.616 65.877 110.441 C65.875 118.911 65.877 127.382 65.881 135.852 C65.887 148.447 65.887 161.043 65.886 173.638 C65.885 194.822 65.888 216.006 65.894 237.19 C65.9 258.175 65.904 279.161 65.905 300.146 C65.905 301.449 65.905 302.752 65.905 304.095 C65.906 310.712 65.906 317.329 65.906 323.947 C65.907 337.405 65.908 350.863 65.909 364.321 C65.909 364.995 65.909 365.668 65.909 366.362 C65.912 399.137 65.918 431.912 65.925 464.687 C65.927 476.063 65.929 487.44 65.931 498.817 C65.932 499.875 65.932 499.875 65.932 500.955 C65.938 533.742 65.942 566.528 65.945 599.315 C65.945 601.443 65.945 603.571 65.945 605.699 C65.947 619.801 65.948 633.903 65.949 648.005 C65.952 676.065 65.955 704.126 65.957 732.186 C65.958 733.522 65.958 734.859 65.958 736.195 C65.967 825.13 65.983 914.065 66 1003 C69.3 1002.67 72.6 1002.34 76 1002 C76.33 695.43 76.66 388.86 77 73 C85.58 73 94.16 73 103 73 C103.002 74.876 103.003 76.753 103.005 78.686 C103.082 161.341 103.16 243.995 103.244 326.649 C103.245 327.899 103.246 329.15 103.248 330.438 C103.275 357.607 103.303 384.776 103.331 411.945 C103.344 424.598 103.357 437.251 103.37 449.904 C103.372 451.913 103.374 453.921 103.376 455.93 C103.408 486.871 103.439 517.811 103.468 548.752 C103.468 549.417 103.469 550.083 103.47 550.769 C103.48 561.501 103.489 572.233 103.499 582.965 C103.54 627.817 103.584 672.669 103.633 717.521 C103.64 723.754 103.646 729.987 103.653 736.22 C103.654 737.446 103.656 738.673 103.657 739.937 C103.678 759.728 103.696 779.518 103.712 799.308 C103.729 819.179 103.749 839.049 103.773 858.919 C103.787 870.741 103.798 882.563 103.805 894.385 C103.811 902.266 103.819 910.148 103.831 918.029 C103.838 922.53 103.843 927.03 103.843 931.531 C103.844 935.616 103.849 939.701 103.858 943.786 C103.86 945.264 103.861 946.741 103.86 948.219 C103.858 950.209 103.864 952.199 103.869 954.188 C103.87 955.295 103.872 956.402 103.873 957.542 C103.722 959.945 103.722 959.945 105 961 C106.594 961.108 108.192 961.147 109.79 961.158 C110.826 961.168 111.862 961.178 112.93 961.188 C114.077 961.194 115.223 961.199 116.405 961.205 C118.204 961.22 118.204 961.22 120.04 961.235 C123.34 961.262 126.639 961.283 129.939 961.303 C133.383 961.325 136.828 961.353 140.273 961.379 C146.8 961.429 153.327 961.474 159.854 961.517 C167.283 961.567 174.712 961.622 182.142 961.677 C197.428 961.791 212.714 961.898 228 962 C228.558 967.615 229.108 973.23 229.654 978.846 C229.84 980.746 230.027 982.647 230.216 984.547 C230.491 987.317 230.76 990.088 231.027 992.859 C231.11 993.675 231.192 994.49 231.277 995.331 C232.188 1004.888 232.519 1014.376 233 1024 C156.11 1024 79.22 1024 0 1024 C0 686.08 0 348.16 0 0 Z " fill="#FEFEFE" transform="translate(0,0)"/>
<path d="M0 0 C6.257 -0.536 10.121 1.078 15.562 4.062 C16.291 4.433 17.02 4.804 17.771 5.186 C22.776 7.865 27.052 11.045 30 16 C30.054 19.167 29.798 21.029 29 24 C28.82 24.862 28.639 25.725 28.453 26.613 C23.947 46.917 14.767 65.671 1.299 81.475 C0.112 82.869 -1.049 84.285 -2.207 85.703 C-16.263 102.289 -35.387 112.875 -56 119 C-56.999 119.315 -56.999 119.315 -58.018 119.637 C-87.848 128.828 -122.003 122.87 -149.938 110.266 C-154.026 108.576 -156.63 108.704 -161 109 C-161.99 109.495 -161.99 109.495 -163 110 C-161.853 113.441 -161.456 113.606 -158.414 115.234 C-157.657 115.64 -156.901 116.046 -156.121 116.465 C-154.886 117.101 -154.886 117.101 -153.625 117.75 C-152.777 118.19 -151.93 118.631 -151.056 119.084 C-132.178 128.655 -113.061 134.176 -91.875 134.188 C-90.728 134.2 -89.58 134.212 -88.398 134.225 C-80.412 134.238 -72.856 133.388 -65 132 C-63.113 131.735 -63.113 131.735 -61.188 131.465 C-36.558 127.39 -16.108 113.57 1 96 C1.495 95.55 1.99 95.1 2.5 94.637 C21.265 77.131 33.257 49.988 37 25 C37.534 25.182 38.067 25.364 38.617 25.551 C42.766 26.95 46.919 28.281 51.125 29.5 C55.236 30.714 59.058 32.311 63 34 C64.558 34.475 66.121 34.932 67.688 35.375 C73.668 37.12 79.29 39.527 85 42 C86.182 42.492 87.364 42.985 88.582 43.492 C104.603 50.226 120.671 57.699 134 69 C134.878 69.728 135.756 70.457 136.66 71.207 C158.798 90.273 164.151 117.997 167.414 145.918 C168.108 151.228 169.282 156.448 170.375 161.688 C172.943 174.11 174.782 186.585 176.472 199.153 C176.857 201.957 177.253 204.757 177.661 207.558 C179.63 221.063 181.374 234.592 183.052 248.137 C183.498 251.732 183.946 255.327 184.395 258.922 C185.128 264.81 185.855 270.699 186.579 276.589 C186.989 279.908 187.403 283.227 187.819 286.545 C189.39 299.215 190.678 311.879 191.707 324.604 C193.029 340.882 194.565 357.11 196.605 373.314 C198.01 384.542 198.973 395.701 200 407 C19.16 407 -161.68 407 -348 407 C-348.66 397.76 -349.32 388.52 -350 379 C-350.686 365.24 -350.686 365.24 -352.502 351.534 C-353.033 348.832 -353.258 346.225 -353.43 343.477 C-353.501 342.389 -353.573 341.301 -353.646 340.18 C-353.722 339.007 -353.797 337.834 -353.875 336.625 C-354.59 326.065 -355.466 315.534 -356.5 305 C-356.629 303.689 -356.757 302.378 -356.89 301.028 C-357.439 295.485 -358.001 289.944 -358.602 284.406 C-359.945 271.945 -360.72 259.532 -361 247 C-361.025 245.921 -361.025 245.921 -361.051 244.821 C-362.121 197.141 -359.573 146.861 -327 109 C-326.23 108.029 -326.23 108.029 -325.445 107.039 C-322.657 103.557 -319.546 100.441 -316.25 97.438 C-315.492 96.735 -314.734 96.032 -313.953 95.309 C-309.361 93.274 -305.712 94.734 -301 96 C-299.341 96.398 -297.681 96.793 -296.02 97.184 C-294.758 97.49 -294.758 97.49 -293.471 97.802 C-274.048 102.445 -255.232 104.378 -235.293 104.066 C-234.029 104.047 -232.764 104.027 -231.461 104.008 C-230.335 103.983 -229.209 103.959 -228.048 103.934 C-225 104 -225 104 -222.652 104.485 C-218.809 105.231 -215.013 105.203 -211.105 105.238 C-210.24 105.246 -209.375 105.254 -208.484 105.263 C-206.651 105.277 -204.818 105.287 -202.985 105.295 C-201.139 105.307 -199.294 105.327 -197.449 105.357 C-176.315 105.697 -157.477 101.65 -140 89 C-139.506 88.415 -139.013 87.83 -138.504 87.227 C-137 86 -137 86 -134.828 86.156 C-133.895 86.435 -132.962 86.713 -132 87 C-131.39 87.18 -130.779 87.361 -130.15 87.547 C-127.289 88.401 -124.437 89.283 -121.59 90.184 C-94.013 98.581 -63.113 93.151 -38.064 79.982 C-17.033 68.314 -3.215 51.514 5 29 C6.085 24.866 6.231 20.829 6.312 16.562 C6.35 15.285 6.387 14.008 6.426 12.691 C5.932 8.413 4.694 6.313 2 3 C1.34 2.67 0.68 2.34 0 2 C0 1.34 0 0.68 0 0 Z " fill="#FEFEFE" transform="translate(596,617)"/>
<path d="M0 0 C22.122 8.245 44.555 24.861 61.707 40.863 C63.28 42.329 64.884 43.763 66.512 45.168 C72.777 50.589 77.942 56.45 83 63 C84.094 64.371 84.094 64.371 85.211 65.77 C100.729 85.67 110.283 107.185 114.341 132.047 C116.569 145.698 120.08 158.746 124 172 C125.029 175.539 126.048 179.082 127.062 182.625 C127.424 183.887 127.424 183.887 127.794 185.175 C137.055 217.66 144.181 250.162 138 284 C137.725 285.626 137.725 285.626 137.445 287.285 C131.807 317.044 117.08 347.571 91.676 365.441 C84.48 370.016 76.857 373.708 69 377 C68.279 377.307 67.559 377.614 66.816 377.93 C35.105 389.922 -3.23 382.819 -33.429 369.966 C-43.542 365.397 -53.004 359.702 -61.938 353.125 C-64.619 351.264 -65.946 350.62 -69 350 C-68.79 355.152 -67.825 358.181 -64.16 362.062 C-44.848 379.384 -18.411 392.011 7.336 395.074 C8.075 395.164 8.814 395.254 9.575 395.347 C11.383 395.567 13.191 395.784 15 396 C15.067 397.72 15.067 397.72 15.136 399.475 C16.052 425.853 16.052 425.853 18.438 452.125 C18.547 453.038 18.657 453.952 18.771 454.893 C19.511 460.284 20.638 465.075 23 470 C24.32 470.33 25.64 470.66 27 471 C27 464.73 27 458.46 27 452 C33.655 454.218 39.922 456.939 46.312 459.812 C47.517 460.334 48.722 460.855 49.963 461.393 C51.106 461.909 52.248 462.425 53.426 462.957 C54.995 463.653 54.995 463.653 56.595 464.363 C59 466 59 466 59.897 468.506 C60.459 482.17 47.653 497.596 39.062 507.156 C23.478 523.494 -1.138 532.589 -23.555 533.203 C-36.933 533.365 -50.177 533.274 -63 529 C-62.34 526.03 -61.68 523.06 -61 520 C-61.808 520.445 -62.616 520.889 -63.449 521.348 C-65.052 522.197 -65.052 522.197 -66.688 523.062 C-67.743 523.631 -68.799 524.199 -69.887 524.785 C-73.329 526.129 -74.576 526.245 -78 525 C-80.457 523.59 -80.457 523.59 -82.812 521.938 C-83.603 521.39 -84.393 520.842 -85.207 520.277 C-85.799 519.856 -86.39 519.434 -87 519 C-84.575 517.78 -82.143 516.596 -79.688 515.438 C-67.573 508.371 -62.387 491.998 -58.848 479.266 C-54.653 461.999 -55.225 442.134 -60 425 C-60.34 423.77 -60.681 422.54 -61.031 421.273 C-63.922 411.84 -67.875 399.676 -74.593 392.236 C-76.591 389.061 -76.379 386.593 -76.385 382.858 C-76.39 382.145 -76.396 381.432 -76.401 380.698 C-76.411 379.149 -76.414 377.6 -76.411 376.051 C-76.406 373.573 -76.42 371.097 -76.439 368.62 C-76.476 363.33 -76.49 358.04 -76.5 352.75 C-76.444 321.961 -76.444 321.961 -79.622 291.372 C-79.975 289.16 -80.29 286.946 -80.585 284.726 C-81.087 280.978 -81.628 277.239 -82.188 273.5 C-82.286 272.839 -82.384 272.179 -82.485 271.498 C-84.603 257.406 -87.393 243.457 -90.321 229.514 C-93.159 215.922 -94.227 202.896 -94.295 189.021 C-94.307 187.384 -94.327 185.746 -94.357 184.109 C-94.595 170.786 -92.909 160.008 -85.938 148.375 C-85.599 147.778 -85.261 147.181 -84.912 146.566 C-83.155 143.555 -81.953 141.969 -79 140 C-78.34 140.99 -77.68 141.98 -77 143 C-72.164 142.507 -68.965 140.125 -65.125 137.375 C-48.526 125.988 -30.517 120.053 -10.405 118.719 C-5.331 118.345 -1.521 117.398 3 115 C5.315 111.527 5.255 110.073 5 106 C4.67 105.01 4.34 104.02 4 103 C-9.903 97.01 -26.183 102.717 -39.457 107.973 C-47.783 111.499 -55.752 115.548 -63 121 C-63.66 120.67 -64.32 120.34 -65 120 C-60.751 114.765 -56.489 109.553 -52.093 104.441 C-25.744 73.714 -5.448 40.741 0 0 Z " fill="#FDC9A6" transform="translate(531,163)"/>
<path d="M0 0 C0.99 0 1.98 0 3 0 C5.854 6.634 7.975 13.133 9.5 20.188 C9.709 21.127 9.917 22.066 10.132 23.033 C11.855 30.951 13.271 38.913 14.612 46.903 C15.859 54.323 17.322 61.664 19 69 C21.082 62.916 22.962 56.798 24.753 50.622 C27.558 40.962 30.428 31.33 33.688 21.812 C34.079 20.64 34.079 20.64 34.478 19.444 C36.241 14.415 38.282 8.914 42 5 C43.32 5 44.64 5 46 5 C46.898 17.352 42.44 29.681 39 41.41 C37.889 45.398 36.929 49.404 36 53.438 C34.177 61.342 32.147 69.177 30 77 C29.787 77.782 29.573 78.564 29.354 79.37 C28.676 81.852 27.995 84.332 27.312 86.812 C26.991 87.988 26.991 87.988 26.662 89.187 C25.116 94.768 25.116 94.768 24 97 C24.055 104.905 25.59 112.648 27.184 120.359 C29.756 134.093 30.676 148.081 31.625 162 C31.724 163.425 31.724 163.425 31.825 164.88 C33.017 182.28 33.337 199.566 33 217 C28.71 217 24.42 217 20 217 C18.991 208.935 18.667 200.914 18.395 192.795 C18.215 187.903 17.938 183.118 17.263 178.264 C16.692 173.35 16.48 168.399 16.184 163.462 C15.564 153.154 14.887 142.851 14 132.562 C13.929 131.721 13.858 130.879 13.785 130.011 C12.366 114.046 9.913 98.192 7.596 82.338 C7.065 78.706 6.537 75.073 6.01 71.439 C4.392 60.327 2.769 49.218 0.948 38.137 C-0.172 31.237 -1.124 24.345 -1.133 17.344 C-1.134 16.385 -1.135 15.426 -1.137 14.438 C-1.133 13.468 -1.129 12.499 -1.125 11.5 C-1.129 10.5 -1.133 9.499 -1.137 8.469 C-1.135 7.52 -1.134 6.571 -1.133 5.594 C-1.132 4.735 -1.131 3.875 -1.129 2.99 C-1 1 -1 1 0 0 Z " fill="#2E2B2D" transform="translate(668,807)"/>
<path d="M0 0 C5.022 1.918 6.172 5.477 8.381 10.131 C11.394 17.081 13.613 24.342 15.897 31.556 C16.754 34.262 17.624 36.963 18.496 39.664 C19.055 41.406 19.614 43.148 20.172 44.891 C20.427 45.687 20.682 46.483 20.945 47.303 C22.483 52.166 23.81 57.04 25 62 C25.824 56.81 26.24 51.708 26.465 46.461 C26.543 44.811 26.622 43.161 26.701 41.512 C26.82 38.952 26.937 36.392 27.05 33.832 C28.264 6.617 28.264 6.617 32 0 C33.32 0.33 34.64 0.66 36 1 C37.624 9.273 38.297 17.191 38.266 25.613 C38.268 27.37 38.268 27.37 38.271 29.163 C38.273 31.631 38.269 34.099 38.261 36.568 C38.25 40.265 38.261 43.961 38.273 47.658 C38.28 60.896 37.793 73.929 36.429 87.098 C35.775 93.743 35.651 100.229 36.875 106.812 C37.25 108.875 37.625 110.938 38 113 C38.158 113.831 38.316 114.661 38.479 115.517 C39.975 123.798 40.604 132.043 41.062 140.438 C41.146 141.873 41.229 143.308 41.312 144.744 C42.111 158.821 42.596 172.906 43 187 C38.38 187 33.76 187 29 187 C27.953 180.872 27.787 174.832 27.625 168.625 C27.256 157.218 26.613 145.838 25.814 134.453 C25.69 132.674 25.569 130.895 25.451 129.116 C24.727 118.199 23.525 107.671 21 97 C20.68 95.636 20.68 95.636 20.353 94.245 C18.788 87.614 17.178 80.994 15.549 74.378 C14.695 70.904 13.848 67.429 13.002 63.953 C9.998 51.678 6.816 39.484 3.26 27.357 C0.698 18.597 -1.614 10.203 -1 1 C-0.67 0.67 -0.34 0.34 0 0 Z " fill="#2F2C2E" transform="translate(366,837)"/>
<path d="M0 0 C7.496 4.936 12.163 10.474 16.23 18.469 C16.572 19.127 16.914 19.786 17.266 20.465 C20.6 27.924 20.324 36.322 17.543 43.906 C15.707 47.918 13.734 50.698 10.23 53.469 C9.282 54.232 8.333 54.995 7.355 55.781 C1.778 58.888 -5.579 57.756 -11.77 57.469 C-12.1 56.479 -12.43 55.489 -12.77 54.469 C-10.13 53.809 -7.49 53.149 -4.77 52.469 C-6.007 51.757 -6.007 51.757 -7.27 51.031 C-14.926 45.86 -20.656 38.506 -22.77 29.469 C-23.77 21.505 -22.666 15.448 -18.77 8.469 C-18.44 7.809 -18.11 7.149 -17.77 6.469 C-29.872 7.074 -40.19 11.89 -48.77 20.469 C-51.006 23.349 -52.966 26.301 -54.77 29.469 C-57.207 29.094 -57.207 29.094 -59.77 28.469 C-61.568 24.872 -61.466 21.382 -60.77 17.469 C-56.003 7.192 -46.614 0.896 -36.52 -3.531 C-24.234 -7.88 -11.136 -6.593 0 0 Z " fill="#2B2729" transform="translate(527.76953125,319.53125)"/>
<path d="M0 0 C10.604 9.96 13.756 32.647 14.414 46.441 C14.748 60.512 14.157 75.067 8 88 C7.578 88.895 7.157 89.789 6.723 90.711 C3.378 97.329 -0.236 102.618 -7 106 C-11.966 106.497 -14.021 106.61 -18.312 103.938 C-23.911 97.818 -24.643 92.49 -24.395 84.355 C-23.728 78.687 -21.504 74.061 -19 69 C-17.615 66.135 -16.237 63.267 -14.861 60.398 C-13.89 58.381 -12.911 56.368 -11.923 54.36 C-3.456 36.983 -1.548 19.051 0 0 Z " fill="#F9C7A4" transform="translate(454,566)"/>
<path d="M0 0 C13.882 16.748 16.713 52.072 16 73 C6.037 73.77 -0.451 72.051 -8.504 66.172 C-18.922 57.107 -25.259 44.356 -26.238 30.668 C-26.475 19.546 -24.37 12.775 -16.711 4.664 C-12.033 0.114 -6.49 -1.868 0 0 Z " fill="#FAC8A4" transform="translate(389,354)"/>
<path d="M0 0 C9.548 5.78 14.293 13.741 18.438 23.938 C20.679 34.267 19.608 42.936 14.688 52.25 C11.927 55.547 9.565 57.743 5.438 58.938 C0.75 59.256 -3.873 59.172 -8.562 58.938 C-8.893 57.947 -9.222 56.957 -9.562 55.938 C-6.592 55.938 -3.622 55.938 -0.562 55.938 C-1.251 55.176 -1.251 55.176 -1.953 54.398 C-9.573 45.85 -15.157 38.201 -15 26.5 C-14.997 25.754 -14.994 25.007 -14.99 24.239 C-14.846 18.569 -13.798 14.689 -10.562 9.938 C-18.82 11.248 -25.059 13.816 -30.578 20.309 C-33.939 24.948 -36.578 29.568 -38.562 34.938 C-39.553 34.938 -40.543 34.938 -41.562 34.938 C-44.166 29.731 -43.447 21.659 -41.691 16.258 C-33.527 0.785 -16.733 -7.701 0 0 Z " fill="#2B2829" transform="translate(630.5625,297.0625)"/>
<path d="M0 0 C1.227 0.009 2.454 0.018 3.719 0.027 C5.095 0.045 5.095 0.045 6.5 0.062 C6.5 0.392 6.5 0.722 6.5 1.062 C5.505 1.243 5.505 1.243 4.491 1.426 C-27.785 7.353 -57.912 18.433 -84.5 38.062 C-85.509 38.774 -86.519 39.486 -87.559 40.219 C-102.542 51.143 -115.805 64.928 -126.5 80.062 C-127.24 81.108 -127.98 82.153 -128.742 83.23 C-139.683 99.526 -148.64 117.324 -154.5 136.062 C-154.733 136.803 -154.965 137.544 -155.205 138.307 C-163.839 166.565 -164.098 194.839 -164.122 224.099 C-164.131 232.269 -164.166 240.439 -164.214 248.608 C-164.226 251.42 -164.226 254.231 -164.224 257.042 C-164.254 270.261 -165.162 283.135 -168.125 296.062 C-168.385 297.217 -168.646 298.373 -168.914 299.562 C-169.204 300.8 -169.204 300.8 -169.5 302.062 C-170.49 301.402 -171.48 300.743 -172.5 300.062 C-172.285 298.787 -172.285 298.787 -172.066 297.485 C-170.547 287.532 -170.268 277.846 -170.38 267.789 C-170.411 264.962 -170.427 262.135 -170.44 259.308 C-170.479 251.28 -170.544 243.252 -170.616 235.225 C-170.806 213.284 -170.937 191.797 -167.5 170.062 C-167.272 168.485 -167.047 166.907 -166.824 165.329 C-159.374 114.792 -130.051 65.532 -89.258 34.785 C-63.559 15.929 -32.666 -0.314 0 0 Z " fill="#EDECED" transform="translate(450.5,115.9375)"/>
<path d="M0 0 C3.484 2.217 5.554 4.147 7 8 C8.328 22.304 5.083 34.16 -0.45 47.304 C-1.946 50.859 -3.413 54.426 -4.878 57.993 C-6.316 61.493 -7.759 64.991 -9.201 68.489 C-9.938 70.278 -10.674 72.069 -11.408 73.86 C-15.235 83.19 -19.117 92.495 -23.293 101.676 C-23.607 102.39 -23.922 103.103 -24.246 103.839 C-25.586 106.724 -26.529 108.692 -29.232 110.458 C-29.815 110.637 -30.399 110.816 -31 111 C-30.486 104.972 -29.126 100.221 -26.75 94.688 C-8.116 54.545 -8.116 54.545 -1 12 C-1.495 11.01 -1.495 11.01 -2 10 C-4.392 10.374 -5.668 10.629 -7.309 12.463 C-10.638 18.112 -13.393 23.924 -16 29.938 C-16.466 31.002 -16.933 32.067 -17.413 33.164 C-21.706 43.081 -25.617 53.137 -29.52 63.211 C-33.485 73.427 -37.693 83.396 -43 93 C-43.66 92.67 -44.32 92.34 -45 92 C-44.451 84.463 -42.127 77.745 -39.688 70.625 C-39.296 69.457 -38.905 68.289 -38.502 67.086 C-36.512 61.198 -34.409 55.392 -32.056 49.641 C-30.797 46.493 -29.622 43.318 -28.449 40.137 C-27.761 38.281 -27.072 36.425 -26.383 34.57 C-25.693 32.703 -25.012 30.833 -24.33 28.963 C-12.604 -2.466 -12.604 -2.466 0 0 Z " fill="#343032" transform="translate(858,572)"/>
<path d="M0 0 C5.327 17.842 -17.633 51.557 -25.408 66.842 C-29.765 75.484 -33.884 84.242 -38 93 C-38.429 93.907 -38.858 94.813 -39.3 95.748 C-48.782 115.842 -57.114 136.275 -62 158 C-62.243 159.012 -62.243 159.012 -62.492 160.044 C-67.521 181.251 -67.019 204.693 -58.672 224.926 C-58 227 -58 227 -59 229 C-73.845 209.663 -75.34 188.121 -72.418 164.449 C-66.669 127.435 -47.05 93.959 -28.954 61.768 C-17.729 41.789 -8.515 21.246 0 0 Z " fill="#F4F3F4" transform="translate(279,451)"/>
<path d="M0 0 C1.938 0.375 1.938 0.375 4 1 C7.552 8.103 3.304 19.829 1 27 C0.672 28.049 0.344 29.097 0.006 30.178 C-5.481 47.17 -12.084 63.806 -18.499 80.463 C-18.971 81.69 -18.971 81.69 -19.453 82.941 C-19.729 83.655 -20.004 84.37 -20.288 85.106 C-20.896 86.724 -21.453 88.36 -22 90 C-26.638 89.704 -29.707 88.784 -33.754 86.449 C-34.553 85.992 -35.351 85.536 -36.174 85.065 C-36.777 84.714 -37.379 84.362 -38 84 C-37.76 83.466 -37.52 82.931 -37.272 82.381 C-32.132 70.882 -27.286 59.311 -22.814 47.539 C-18.826 37.048 -14.701 26.663 -10.062 16.438 C-9.626 15.463 -9.19 14.489 -8.74 13.485 C-6.352 8.326 -3.877 4.168 0 0 Z " fill="#F8C7A4" transform="translate(853,581)"/>
<path d="M0 0 C-0.361 0.727 -0.722 1.454 -1.094 2.203 C-5.319 11.358 -6.848 19.389 -3.562 29.125 C-0.136 36.701 5.735 43.015 13 47 C8.766 49.822 5.045 50.161 0 50 C-14.693 46.639 -26.866 37.563 -36.102 25.957 C-37.351 23.235 -36.93 21.811 -36 19 C-29.924 9.256 -19.383 4.072 -8.824 0.629 C-5.801 -0.044 -3.088 -0.114 0 0 Z " fill="#FBFBFB" transform="translate(511,325)"/>
<path d="M0 0 C0.99 0 1.98 0 3 0 C5.816 5.389 8.393 10.853 10.806 16.432 C20.569 38.927 34.034 58.374 53.229 73.816 C57.369 77.204 61.184 80.737 62.531 86.125 C62.421 92.732 59.85 96.15 55.188 100.812 C51.648 103.242 49.242 103.746 45 104 C44.285 101.746 44.285 101.746 44 99 C45.434 96.973 45.434 96.973 47.438 95.062 C49.777 92.544 50.917 91.27 51.938 87.938 C50.193 82.471 45.243 79.666 40.781 76.352 C19.778 60.599 5.656 33.397 0 8 C-0.146 5.307 -0.095 2.701 0 0 Z " fill="#302B2D" transform="translate(560,301)"/>
<path d="M0 0 C0.958 0.01 1.916 0.019 2.903 0.029 C16.251 0.414 27.96 4.188 38.148 13.051 C39.438 14.562 39.438 14.562 39.75 17.625 C39.438 20.562 39.438 20.562 37.438 22.562 C33.857 22.307 31.149 21.44 27.836 20.035 C23.093 18.237 18.717 18.106 13.688 18.188 C12.809 18.193 11.93 18.199 11.024 18.205 C5.057 18.324 -0.278 19.185 -6.016 20.879 C-9.892 21.919 -13.6 22.316 -17.562 21.562 C-20.433 19.769 -22.054 18.58 -23.562 15.562 C-23.955 12.028 -23.846 10.081 -22.125 6.938 C-15.738 1.018 -8.45 -0.136 0 0 Z " fill="#2B2629" transform="translate(595.5625,251.4375)"/>
<path d="M0 0 C-0.309 0.763 -0.619 1.526 -0.938 2.312 C-4.151 10.44 -4.497 20.151 -1.906 28.543 C0.775 34.17 3.975 38.601 8.68 42.695 C9.115 43.126 9.551 43.556 10 44 C10 44.66 10 45.32 10 46 C-0.681 47.432 -8.445 44.059 -17 38 C-20.276 35.204 -23.166 32.236 -26 29 C-26.992 27.992 -27.989 26.989 -29 26 C-25.215 14.738 -19.573 6.738 -9 1 C-5.804 -0.065 -3.343 -0.074 0 0 Z " fill="#FAF9F9" transform="translate(620,307)"/>
<path d="M0 0 C16.802 13.386 32.479 29.159 41.25 49.125 C40.92 49.785 40.59 50.445 40.25 51.125 C39.656 50.265 39.061 49.405 38.449 48.52 C15.173 15.184 -16.865 -12.284 -57.238 -21.688 C-74.591 -24.57 -93.828 -24.727 -110.723 -19.652 C-113.75 -18.875 -113.75 -18.875 -116.75 -19.875 C-103.56 -24.622 -103.56 -24.622 -97.75 -26.625 C-96.791 -26.958 -96.791 -26.958 -95.812 -27.297 C-62.35 -36.677 -26.19 -19.766 0 0 Z " fill="#EDEDED" transform="translate(636.75,138.875)"/>
<path d="M0 0 C2.438 1.5 2.438 1.5 4 3 C3.73 9.481 1.409 13.293 -3 18 C-10.383 23.726 -16.835 24.888 -26 24 C-38.905 21.131 -38.905 21.131 -42 17 C-42.062 14.625 -42.062 14.625 -41 12 C-36.209 7.209 -30.908 3.869 -23.938 3.75 C-20 4 -20 4 -16.812 4.75 C-13.836 5.314 -13.836 5.314 -11.25 3.125 C-10.508 2.424 -9.765 1.723 -9 1 C-5.943 -0.528 -3.37 -0.232 0 0 Z " fill="#2D282A" transform="translate(614,442)"/>
<path d="M0 0 C11.952 4.862 21.214 24.959 26.004 36.297 C29.249 45.104 30.263 53.418 30.312 62.75 C30.318 63.625 30.324 64.5 30.329 65.402 C30.265 71.199 29.427 76.381 28 82 C27.34 82 26.68 82 26 82 C25.875 76.25 25.875 76.25 27 74 C28.463 55.414 24.189 39.05 15 23 C14.482 22.055 13.964 21.11 13.43 20.137 C10.332 14.695 6.669 9.914 2.637 5.129 C1 3 1 3 0 0 Z " fill="#E7E6E7" transform="translate(690,532)"/>
<path d="M0 0 C-1.889 6.112 -4.13 12.061 -6.5 18 C-6.797 18.766 -7.093 19.533 -7.399 20.322 C-8.181 22.251 -9.082 24.131 -10 26 C-10.99 26.33 -11.98 26.66 -13 27 C-13.342 21.061 -12.185 16.304 -10.312 10.688 C-10.068 9.877 -9.824 9.067 -9.572 8.232 C-7.65 2.389 -7.65 2.389 -4.418 0.457 C-2 0 -2 0 0 0 Z " fill="#383638" transform="translate(811,623)"/>
<path d="M0 0 C0.66 0.99 1.32 1.98 2 3 C-7.154 11.29 -7.154 11.29 -11 13 C-13.312 12.688 -13.312 12.688 -15 12 C-15.375 9.812 -15.375 9.812 -15 7 C-10.545 2.646 -6.445 -0.848 0 0 Z " fill="#373032" transform="translate(594,396)"/>
<path d="M0 0 C0.66 0 1.32 0 2 0 C0.028 6.097 -2.415 11.927 -4.938 17.812 C-5.38 18.874 -5.823 19.936 -6.279 21.029 C-6.712 22.037 -7.144 23.044 -7.59 24.082 C-8.176 25.462 -8.176 25.462 -8.773 26.87 C-10 29 -10 29 -13 30 C-12.699 24.189 -11.56 19.004 -9.688 13.5 C-9.279 12.293 -8.87 11.087 -8.449 9.844 C-7 7 -7 7 -4.941 6.285 C-3.98 6.144 -3.98 6.144 -3 6 C-1.216 3.016 -1.216 3.016 0 0 Z " fill="#3E3B3E" transform="translate(804,600)"/>
<path d="M0 0 C9.692 5.91 16.02 13.821 20.375 24.312 C21.613 31.616 22.199 39.17 19 46 C18.34 46 17.68 46 17 46 C17.165 45.237 17.33 44.474 17.5 43.688 C19.156 31.477 17.1 22.108 9.562 12.125 C7.356 9.459 5.035 6.983 2.562 4.562 C1.717 3.717 0.871 2.871 0 2 C0 1.34 0 0.68 0 0 Z " fill="#E7E6E7" transform="translate(648,596)"/>
<path d="M0 0 C-1.433 4.641 -3.286 8.968 -5.438 13.312 C-5.887 14.261 -5.887 14.261 -6.346 15.229 C-7.152 16.86 -8.07 18.436 -9 20 C-9.99 20.33 -10.98 20.66 -12 21 C-11.563 13.569 -9.374 6.64 -6 0 C-3 -1 -3 -1 0 0 Z " fill="#373636" transform="translate(839,662)"/>
<path d="M0 0 C3 1.25 3 1.25 5 3 C5.33 4.32 5.66 5.64 6 7 C-0.27 6.34 -6.54 5.68 -13 5 C-9.936 -1.128 -6.355 -0.615 0 0 Z " fill="#3D3639" transform="translate(394,389)"/>
<path d="M0 0 C5.031 0.022 8.828 0.257 12.562 3.875 C15 7 15 7 15 10 C10.773 9.444 8.143 8.025 4.688 5.562 C3.804 4.945 2.921 4.328 2.012 3.691 C1.348 3.133 0.684 2.575 0 2 C0 1.34 0 0.68 0 0 Z " fill="#2B282B" transform="translate(381,368)"/>
<path d="M0 0 C2.51 3.766 2.302 6.766 2.25 11.125 C2.246 11.887 2.242 12.649 2.238 13.433 C2.155 18.866 1.523 23.764 0 29 C-0.66 29 -1.32 29 -2 29 C-2.125 23.25 -2.125 23.25 -1 21 C-0.848 19.407 -0.751 17.809 -0.684 16.211 C-0.642 15.27 -0.6 14.329 -0.557 13.359 C-0.517 12.375 -0.478 11.39 -0.438 10.375 C-0.394 9.382 -0.351 8.39 -0.307 7.367 C-0.2 4.912 -0.098 2.456 0 0 Z " fill="#F6F5F6" transform="translate(718,585)"/>
<path d="M0 0 C0.66 0 1.32 0 2 0 C0.36 5.233 -1.39 10.152 -4 15 C-4.66 15 -5.32 15 -6 15 C-6.193 10.176 -5.757 6.504 -4 2 C-3.01 2 -2.02 2 -1 2 C-0.67 1.34 -0.34 0.68 0 0 Z " fill="#434142" transform="translate(804,635)"/>
<path d="M0 0 C0.33 0 0.66 0 1 0 C1.339 4 1.67 8 2 12 C2.143 13.688 2.143 13.688 2.289 15.41 C2.771 21.297 3.116 27.094 3 33 C2.67 33 2.34 33 2 33 C1.67 31.02 1.34 29.04 1 27 C0.67 27 0.34 27 0 27 C0 22.71 0 18.42 0 14 C-0.33 14 -0.66 14 -1 14 C-0.67 9.38 -0.34 4.76 0 0 Z " fill="#5A5659" transform="translate(244,971)"/>
<path d="M0 0 C7.021 4.281 12.788 9.254 16 17 C13.454 16.623 12.268 16.294 10.508 14.363 C10.051 13.687 9.595 13.01 9.125 12.312 C7.133 9.482 5.128 7.016 2.625 4.625 C1.759 3.759 0.893 2.893 0 2 C0 1.34 0 0.68 0 0 Z " fill="#E5E3E4" transform="translate(648,596)"/>
<path d="M0 0 C0.33 0 0.66 0 1 0 C1.677 2.205 2.341 4.414 3 6.625 C3.371 7.855 3.742 9.085 4.125 10.352 C4.937 13.738 5.17 16.539 5 20 C2.348 17.724 1.546 16.108 0.938 12.688 C0.221 9.003 -0.729 5.541 -2 2 C-1.34 1.34 -0.68 0.68 0 0 Z " fill="#E1B896" transform="translate(647,310)"/>
<path d="M0 0 C1.564 3.974 0.361 6.814 -0.938 10.75 C-1.318 11.92 -1.698 13.091 -2.09 14.297 C-2.39 15.189 -2.691 16.081 -3 17 C-3.99 17 -4.98 17 -6 17 C-4.338 11.143 -2.53 5.541 0 0 Z " fill="#CBC8C9" transform="translate(279,451)"/>
<path d="M0 0 C0.66 0.99 1.32 1.98 2 3 C0.258 3.727 -1.494 4.431 -3.25 5.125 C-4.225 5.519 -5.199 5.914 -6.203 6.32 C-9 7 -9 7 -13 5 C-8.71 3.35 -4.42 1.7 0 0 Z " fill="#322E31" transform="translate(548,699)"/>
<path d="M0 0 C-1.144 3.873 -2.233 7.003 -5 10 C-5.66 10 -6.32 10 -7 10 C-6.651 4.594 -6.651 4.594 -6 2 C-3.817 0.31 -2.728 0 0 0 Z " fill="#494647" transform="translate(834,673)"/>
<path d="M0 0 C0.33 0 0.66 0 1 0 C1.027 1.479 1.046 2.958 1.062 4.438 C1.074 5.261 1.086 6.085 1.098 6.934 C1 9 1 9 0 10 C-0.235 12.35 -0.414 14.706 -0.562 17.062 C-0.646 18.353 -0.73 19.643 -0.816 20.973 C-0.877 21.972 -0.938 22.971 -1 24 C-1.33 24 -1.66 24 -2 24 C-2.027 21.479 -2.047 18.958 -2.062 16.438 C-2.071 15.733 -2.079 15.029 -2.088 14.303 C-2.109 9.78 -1.822 5.466 -1 1 C-0.67 0.67 -0.34 0.34 0 0 Z " fill="#565154" transform="translate(223,810)"/>
<path d="M0 0 C-0.66 1.65 -1.32 3.3 -2 5 C-4.64 5 -7.28 5 -10 5 C-10.33 4.01 -10.66 3.02 -11 2 C-9.542 1.664 -8.084 1.331 -6.625 1 C-5.407 0.722 -5.407 0.722 -4.164 0.438 C-2 0 -2 0 0 0 Z " fill="#4D4548" transform="translate(526,372)"/>
<path d="M0 0 C0.66 0.33 1.32 0.66 2 1 C-0.475 5.455 -0.475 5.455 -3 10 C-3.66 9.67 -4.32 9.34 -5 9 C-4.67 6.36 -4.34 3.72 -4 1 C-3.01 1 -2.02 1 -1 1 C-0.67 0.67 -0.34 0.34 0 0 Z " fill="#403B3B" transform="translate(818,655)"/>
<path d="M0 0 C0 0.33 0 0.66 0 1 C-7.629 2.785 -14.243 3.11 -22 2 C-22 1.67 -22 1.34 -22 1 C-14.662 -0.174 -7.418 -0.094 0 0 Z " fill="#BFBEBF" transform="translate(457,116)"/>
<path d="M0 0 C1.32 0.66 2.64 1.32 4 2 C3.188 4.938 3.188 4.938 2 8 C1.01 8.33 0.02 8.66 -1 9 C-0.67 6.03 -0.34 3.06 0 0 Z " fill="#464345" transform="translate(792,621)"/>
<path d="M0 0 C0.975 2.633 1.02 3.923 0.312 6.688 C-1 9 -1 9 -3.082 9.645 C-3.715 9.762 -4.348 9.879 -5 10 C-4.551 8.518 -4.09 7.039 -3.625 5.562 C-3.37 4.739 -3.115 3.915 -2.852 3.066 C-2 1 -2 1 0 0 Z " fill="#E6E5E6" transform="translate(274,467)"/>
<path d="M0 0 C0.66 0 1.32 0 2 0 C1.67 3.63 1.34 7.26 1 11 C0.01 10.34 -0.98 9.68 -2 9 C-1.34 6.03 -0.68 3.06 0 0 Z " fill="#E4E3E4" transform="translate(280,407)"/>
<path d="M0 0 C3.787 1.488 5.774 3.62 8 7 C7.67 7.99 7.34 8.98 7 10 C5.827 8.714 4.662 7.421 3.5 6.125 C2.85 5.406 2.201 4.686 1.531 3.945 C0 2 0 2 0 0 Z " fill="#D6D4D5" transform="translate(690,532)"/>
<path d="M0 0 C-1.65 1.65 -3.3 3.3 -5 5 C-7.475 4.01 -7.475 4.01 -10 3 C-6.884 -0.116 -4.212 -0.114 0 0 Z " fill="#383438" transform="translate(538,96)"/>
<path d="M0 0 C0.66 3.3 1.32 6.6 2 10 C1.34 10 0.68 10 0 10 C-1.783 7.361 -2.991 5.028 -4 2 C-1 0 -1 0 0 0 Z " fill="#DDB393" transform="translate(396,368)"/>
<path d="M0 0 C-3.2 1.813 -6.133 2.522 -9.75 3.125 C-10.735 3.293 -11.72 3.46 -12.734 3.633 C-13.482 3.754 -14.23 3.875 -15 4 C-11.001 0.001 -5.455 -1.875 0 0 Z " fill="#BEBDBF" transform="translate(535,116)"/>
<path d="M0 0 C0.33 0 0.66 0 1 0 C1.077 4.516 1.102 8.591 0 13 C-0.66 13 -1.32 13 -2 13 C-2.235 8.181 -1.452 4.537 0 0 Z " fill="#D6D5D6" transform="translate(718,601)"/>
<path d="M0 0 C3.721 2.315 6.612 4.286 9 8 C6 8 6 8 4.395 6.758 C3.872 6.219 3.35 5.68 2.812 5.125 C2.283 4.591 1.753 4.058 1.207 3.508 C0 2 0 2 0 0 Z " fill="#D4D2D4" transform="translate(648,596)"/>
<path d="M0 0 C0.33 0 0.66 0 1 0 C1.33 3.3 1.66 6.6 2 10 C1.01 10.66 0.02 11.32 -1 12 C-1.223 10.565 -1.428 9.127 -1.625 7.688 C-1.741 6.887 -1.857 6.086 -1.977 5.262 C-2 3 -2 3 0 0 Z " fill="#BDBBBC" transform="translate(718,578)"/>
<path d="M0 0 C0.66 0 1.32 0 2 0 C3.158 3.473 3.069 6.361 3 10 C0.646 7.449 0.017 6.29 -0.188 2.75 C-0.126 1.842 -0.064 0.935 0 0 Z " fill="#EEEDEE" transform="translate(715,573)"/>
<path d="M0 0 C0.33 0.99 0.66 1.98 1 3 C-1.97 3.66 -4.94 4.32 -8 5 C-8.33 4.01 -8.66 3.02 -9 2 C-6.03 2 -3.06 2 0 2 C0 1.34 0 0.68 0 0 Z " fill="#434346" transform="translate(630,351)"/>
<path d="M0 0 C0 0.66 0 1.32 0 2 C-3.215 3.607 -6.436 3.057 -10 3 C-6.884 -0.116 -4.212 -0.114 0 0 Z " fill="#F4F3F4" transform="translate(542,113)"/>
<path d="M0 0 C0.33 1.32 0.66 2.64 1 4 C-1.438 6.75 -1.438 6.75 -4 9 C-4.66 8.67 -5.32 8.34 -6 8 C-4.02 5.36 -2.04 2.72 0 0 Z " fill="#D9B69A" transform="translate(472,275)"/>
<path d="M0 0 C0.33 0 0.66 0 1 0 C1.953 4.763 2.083 9.167 2 14 C1.67 14 1.34 14 1 14 C0.856 13.237 0.711 12.474 0.562 11.688 C0.037 8.918 0.037 8.918 -1 6 C-0.724 3.991 -0.398 1.988 0 0 Z " fill="#5D595E" transform="translate(239,920)"/>
<path d="M0 0 C-0.66 1.65 -1.32 3.3 -2 5 C-3.65 4.01 -5.3 3.02 -7 2 C-4.353 0.539 -3.106 0 0 0 Z " fill="#EBBF9B" transform="translate(451,680)"/>
<path d="M0 0 C0.66 0.33 1.32 0.66 2 1 C2 1.66 2 2.32 2 3 C-2.455 4.485 -2.455 4.485 -7 6 C-2.25 1.125 -2.25 1.125 0 0 Z " fill="#CFCED0" transform="translate(531,101)"/>
<path d="M0 0 C1.32 0 2.64 0 4 0 C3.688 1.938 3.688 1.938 3 4 C2.01 4.33 1.02 4.66 0 5 C0 3.35 0 1.7 0 0 Z " fill="#463D41" transform="translate(827,678)"/>
<path d="M0 0 C1.746 2.619 2.387 4.038 3 7 C2.01 7.33 1.02 7.66 0 8 C-1.125 2.25 -1.125 2.25 0 0 Z " fill="#DAD8DA" transform="translate(714,566)"/>
</svg>