<svg version="1.1" xmlns="http://www.w3.org/2000/svg" width="1024" height="1024">
<path d="M0 0 C337.92 0 675.84 0 1024 0 C1024 337.92 1024 675.84 1024 1024 C686.08 1024 348.16 1024 0 1024 C0 686.08 0 348.16 0 0 Z " fill="#DDCBCA" transform="translate(0,0)"/>
<path d="M0 0 C0.867 -0.001 1.734 -0.003 2.628 -0.004 C15.415 0.013 26.904 0.788 38.938 5.438 C40.131 5.845 41.325 6.252 42.555 6.672 C54.452 10.903 63.98 16.511 72.938 25.438 C73.514 25.991 74.09 26.544 74.684 27.113 C82.94 35.755 86.98 48.277 87.062 60.062 C87.021 61.176 86.98 62.29 86.938 63.438 C88.426 62.95 88.426 62.95 89.945 62.453 C93.895 61.329 97.723 61.13 101.812 61.188 C102.872 61.199 102.872 61.199 103.952 61.21 C109.228 61.319 113.936 61.779 118.938 63.438 C119.942 63.767 120.946 64.097 121.98 64.438 C140.178 70.923 151.997 82.187 162.002 98.276 C168.154 108.126 175.158 115.19 184.938 121.438 C198.238 130.02 207.759 136.903 212.938 152.438 C213.781 164.513 213.351 176.342 210.629 188.125 C208.648 197.616 209.238 205.297 214.07 213.793 C219.44 221.399 227.568 224.881 235.624 229.034 C247.812 235.4 257.113 243.608 261.355 257.022 C262.311 260.986 262.341 264.816 262.25 268.875 C262.238 269.712 262.226 270.549 262.214 271.411 C262.028 279.532 260.69 286.334 258.007 294.009 C255.349 301.631 254.247 307.336 255.344 315.438 C257.86 320.174 261.96 320.787 266.875 322.375 C284.62 328.628 296.815 337.815 305.191 355.012 C312.687 372.631 310.761 390.015 303.938 407.438 C305.256 407.403 306.575 407.368 307.934 407.332 C338.594 406.76 364.3 415.212 386.938 436.438 C418.036 466.698 425.522 512.094 426.178 553.645 C426.221 558.785 426.213 563.923 426.188 569.062 C426.185 570.152 426.183 571.242 426.18 572.364 C426.142 587.176 425.839 601.958 425.062 616.75 C425.023 617.501 424.984 618.251 424.944 619.025 C424.425 628.639 423.627 638.219 422.732 647.805 C422.088 654.708 421.498 661.613 420.938 668.523 C420.814 670.038 420.814 670.038 420.688 671.584 C420.352 675.7 420.017 679.815 419.688 683.931 C419.441 687.004 419.19 690.076 418.938 693.148 C418.857 694.128 418.777 695.107 418.694 696.115 C418.097 703.145 417.257 710.109 416.207 717.084 C415.789 722.282 416.833 727.03 418 732.062 C418.972 737.519 419.261 742.908 419.375 748.438 C419.426 749.636 419.426 749.636 419.479 750.858 C419.521 757.005 418.239 762.391 416.578 768.254 C413.593 778.856 412.362 789.442 411.25 800.375 C410.951 803.191 410.648 806.007 410.343 808.823 C410.156 810.551 409.974 812.28 409.798 814.009 C409.314 818.621 408.673 823.178 407.9 827.751 C407.719 828.819 407.539 829.888 407.354 830.989 C407.216 831.797 407.079 832.605 406.938 833.438 C407.585 833.436 408.233 833.434 408.9 833.432 C424.639 833.388 440.379 833.355 456.119 833.334 C463.731 833.324 471.342 833.309 478.954 833.287 C485.586 833.267 492.219 833.254 498.851 833.249 C502.365 833.247 505.878 833.241 509.391 833.226 C513.309 833.21 517.226 833.21 521.144 833.21 C522.315 833.203 523.486 833.196 524.693 833.189 C526.287 833.193 526.287 833.193 527.914 833.197 C529.305 833.194 529.305 833.194 530.724 833.191 C532.938 833.438 532.938 833.438 534.938 835.438 C534.382 839.993 534.382 839.993 532.938 841.438 C531.138 841.532 529.334 841.556 527.531 841.552 C525.761 841.552 525.761 841.552 523.954 841.553 C522.641 841.548 521.328 841.543 519.974 841.538 C518.578 841.536 517.182 841.535 515.785 841.534 C511.93 841.53 508.075 841.52 504.22 841.51 C500.069 841.499 495.919 841.494 491.768 841.489 C484.569 841.48 477.371 841.466 470.173 841.452 C458.8 841.428 447.428 841.415 436.056 841.404 C432.169 841.4 428.281 841.396 424.394 841.392 C423.422 841.391 422.451 841.39 421.45 841.389 C410.382 841.377 399.313 841.363 388.245 841.348 C386.727 841.346 386.727 841.346 385.178 841.344 C368.772 841.322 352.366 841.292 335.96 841.26 C319.132 841.228 302.304 841.207 285.475 841.196 C275.087 841.189 264.699 841.172 254.31 841.143 C247.194 841.124 240.077 841.116 232.96 841.117 C228.851 841.116 224.741 841.111 220.631 841.093 C216.871 841.077 213.112 841.074 209.352 841.083 C207.342 841.083 205.332 841.069 203.322 841.055 C202.134 841.06 200.945 841.066 199.721 841.071 C198.693 841.069 197.666 841.068 196.607 841.066 C193.512 841.497 192.295 842.454 189.938 844.438 C181.491 847.886 172.519 849.059 163.562 850.5 C162.357 850.697 162.357 850.697 161.126 850.898 C111.309 859.028 111.309 859.028 93.812 846.902 C92.025 845.506 90.424 844.152 88.938 842.438 C88.938 841.778 88.938 841.117 88.938 840.438 C88.278 840.768 87.617 841.097 86.938 841.438 C85.423 841.531 83.904 841.569 82.387 841.578 C66.1 841.853 54.167 843.716 41.938 855.438 C38.839 858.69 35.883 862.048 32.938 865.438 C31.316 867.175 29.668 868.806 27.938 870.438 C27.339 871.036 26.741 871.634 26.125 872.25 C22.606 874.16 19.916 873.816 15.938 873.438 C13.263 871.626 12.978 870.56 11.938 867.438 C10.886 868.83 10.886 868.83 9.812 870.25 C7.188 873.361 4.858 875.104 0.938 876.438 C-2.812 876.312 -2.812 876.312 -6.062 875.438 C-8.198 872.234 -8.294 871.418 -8.188 867.75 C-8.169 866.942 -8.151 866.134 -8.133 865.301 C-8.098 864.378 -8.098 864.378 -8.062 863.438 C-8.733 864.252 -8.733 864.252 -9.418 865.082 C-17.007 874.062 -17.007 874.062 -23.625 874.875 C-27.062 874.438 -27.062 874.438 -29.5 872.938 C-31.773 869.301 -31.345 866.68 -31.062 862.438 C-31.578 863.18 -32.094 863.923 -32.625 864.688 C-36.504 869.063 -39.991 871.161 -45.812 871.938 C-49.062 871.438 -49.062 871.438 -51 869.625 C-52.062 867.438 -52.062 867.438 -52.062 864.438 C-53.176 864.561 -53.176 864.561 -54.312 864.688 C-57.062 864.438 -57.062 864.438 -59.375 863.125 C-62.064 858.843 -61.368 854.362 -61.062 849.438 C-62.382 849.107 -63.702 848.778 -65.062 848.438 C-64.585 852.458 -64.105 856.479 -63.625 860.5 C-63.49 861.634 -63.356 862.767 -63.217 863.936 C-63.019 865.594 -63.019 865.594 -62.816 867.285 C-62.688 868.363 -62.559 869.441 -62.426 870.551 C-62.147 872.768 -61.817 874.978 -61.465 877.184 C-60.958 881.285 -60.978 885.311 -61.062 889.438 C-60.124 889.422 -60.124 889.422 -59.167 889.406 C-56.34 889.364 -53.514 889.338 -50.688 889.312 C-49.703 889.296 -48.718 889.279 -47.703 889.262 C-46.292 889.252 -46.292 889.252 -44.852 889.242 C-43.548 889.226 -43.548 889.226 -42.217 889.21 C-40.062 889.438 -40.062 889.438 -38.062 891.438 C-38.062 896.333 -39.855 899.171 -43.066 902.629 C-49.632 908.578 -56.07 912.58 -65.062 912.438 C-67.936 909.564 -67.937 906.313 -68.5 902.438 C-68.688 901.187 -68.688 901.187 -68.881 899.911 C-71.283 883.522 -72.992 867.06 -74.295 850.55 C-75.658 833.619 -77.658 816.738 -79.972 799.912 C-81.67 787.39 -82.827 774.798 -84.098 762.227 C-84.182 761.388 -84.267 760.55 -84.355 759.686 C-84.482 758.43 -84.482 758.43 -84.611 757.148 C-84.696 756.313 -84.78 755.477 -84.867 754.616 C-85.042 752.889 -85.215 751.161 -85.388 749.434 C-85.643 746.885 -85.901 744.337 -86.16 741.789 C-86.236 741.021 -86.312 740.254 -86.391 739.463 C-86.772 735.732 -87.322 732.11 -88.062 728.438 C-88.304 726.19 -88.518 723.94 -88.711 721.688 C-88.829 720.355 -88.946 719.022 -89.064 717.689 C-89.155 716.649 -89.155 716.649 -89.248 715.588 C-90.125 705.629 -91.036 695.696 -92.562 685.812 C-93.831 677.584 -94.71 669.35 -95.5 661.062 C-96.62 649.336 -98.024 637.671 -99.58 625.995 C-100.748 617.134 -101.741 608.268 -102.625 599.375 C-103.463 590.956 -104.386 582.567 -105.562 574.188 C-107.222 562.292 -108.631 550.363 -110.062 538.438 C-232.493 538.107 -354.923 537.778 -481.062 537.438 C-481.062 534.138 -481.062 530.837 -481.062 527.438 C-395.262 527.438 -309.462 527.438 -221.062 527.438 C-220.733 525.788 -220.402 524.138 -220.062 522.438 C-219.072 519.898 -218.046 517.407 -216.957 514.91 C-216.641 514.177 -216.326 513.444 -216 512.689 C-214.964 510.29 -213.921 507.895 -212.875 505.5 C-212.518 504.679 -212.161 503.858 -211.793 503.013 C-206.864 491.69 -201.873 480.395 -196.688 469.188 C-196.402 468.571 -196.117 467.954 -195.823 467.319 C-191.967 459.024 -187.839 450.992 -182.729 443.392 C-181.4 441.424 -181.4 441.424 -180.062 438.438 C-180.569 435.665 -180.569 435.665 -182.062 433.438 C-185.794 426.691 -186.288 420.038 -185.062 412.438 C-183.03 406.797 -180.05 401.617 -177.062 396.438 C-174.531 391.375 -176.8 383.832 -178.5 378.688 C-183.376 363.535 -184.874 344.311 -177.753 329.762 C-173.107 321.279 -167.339 315.226 -160.375 308.688 C-151.203 300.191 -151.203 300.191 -145.062 289.438 C-144.65 288.53 -144.238 287.623 -143.812 286.688 C-139.72 268.953 -149.15 253.028 -158.125 238.438 C-165.82 225.799 -170.569 213.444 -167.449 198.5 C-164.972 190.991 -160.56 184.865 -156.062 178.438 C-154.414 176.015 -152.796 173.574 -151.188 171.125 C-150.806 170.563 -150.425 170 -150.032 169.421 C-146.523 164.065 -144.497 158.866 -145.375 152.438 C-145.474 151.654 -145.574 150.87 -145.676 150.062 C-145.959 148.137 -146.263 146.214 -146.578 144.293 C-148.544 128.642 -147.302 114.486 -141.887 99.695 C-141.122 97.6 -140.411 95.494 -139.715 93.375 C-134.041 76.627 -125.534 60.89 -114.062 47.438 C-113.175 46.326 -113.175 46.326 -112.27 45.191 C-93.021 21.737 -60.086 8.043 -31.062 2.438 C-30.237 2.262 -29.411 2.086 -28.56 1.905 C-19.074 0.064 -9.628 -0.001 0 0 Z " fill="#1F1817" transform="translate(481.0625,104.5625)"/>
<path d="M0 0 C3.551 0.615 7.054 1.368 10.562 2.188 C11.508 2.407 12.453 2.627 13.427 2.854 C37.144 8.535 52.167 16.049 65.312 37.25 C92.449 82.287 110.395 132.678 128 182 C128.422 183.182 128.422 183.182 128.853 184.389 C132.405 194.349 135.907 204.326 139.373 214.316 C140.466 217.465 141.564 220.612 142.666 223.758 C189.82 358.401 189.82 358.401 171.188 397.711 C160.918 418.425 144.259 432.002 122.672 439.57 C111.747 443.178 102.245 444.147 90.813 444.114 C89.495 444.114 88.177 444.114 86.82 444.114 C83.223 444.114 79.626 444.108 76.03 444.101 C72.265 444.095 68.5 444.095 64.735 444.093 C57.613 444.09 50.491 444.082 43.369 444.072 C35.258 444.061 27.147 444.055 19.035 444.05 C2.357 444.04 -14.322 444.022 -31 444 C-30.682 442.925 -30.365 441.849 -30.038 440.741 C-24.096 419.318 -28.119 394.789 -38.844 375.574 C-45.115 364.949 -53.176 356.479 -62 348 C-63.337 346.67 -64.671 345.338 -66 344 C-50.88 337.003 -36.105 330.927 -19.938 326.812 C-18.956 326.562 -17.975 326.312 -16.964 326.054 C-13.984 325.321 -10.999 324.645 -8 324 C-7.09 323.801 -6.18 323.603 -5.243 323.398 C5.316 321.436 16.033 321.557 26.739 321.52 C30.125 321.5 33.509 321.438 36.895 321.375 C57.788 321.169 57.788 321.169 66 328 C67.531 329.129 67.531 329.129 69.094 330.281 C84.822 344.784 95.709 362.871 105 382 C106.65 382 108.3 382 110 382 C105.006 359.883 87.261 335.659 68.723 322.711 C62.066 318.712 55.94 315.947 48.125 315.375 C47.158 315.3 46.191 315.225 45.195 315.148 C44.471 315.099 43.746 315.05 43 315 C48.558 308.293 57.515 304.545 66 303 C70.066 302.693 74.112 302.675 78.188 302.688 C79.248 302.671 80.308 302.655 81.4 302.639 C100.135 302.627 118.792 309.782 132.25 322.875 C136.005 326.761 139.283 330.826 142.332 335.285 C144.442 337.454 146.044 337.674 149 338 C144.931 323.935 133.307 313.966 121 307 C101.749 296.779 79.61 292.288 58.465 298.742 C49.558 301.976 42.397 305.986 35.449 312.461 C32.195 314.506 29.766 314.266 26 314 C25.693 312.302 25.693 312.302 25.379 310.57 C25.107 309.089 24.835 307.607 24.562 306.125 C24.428 305.379 24.293 304.632 24.154 303.863 C23.455 299.815 23.455 299.815 22 296 C21.676 293.621 21.391 291.249 21.129 288.863 C20.149 280.55 18.63 272.382 16.938 264.188 C16.634 262.7 16.331 261.213 16.028 259.725 C15.376 256.531 14.719 253.337 14.059 250.144 C13.128 245.632 12.212 241.117 11.298 236.601 C10.521 232.773 9.737 228.947 8.951 225.122 C8.573 223.277 8.197 221.432 7.824 219.587 C5.509 208.147 2.732 197.062 -1 186 C-2.65 185.67 -4.3 185.34 -6 185 C-5.384 192.919 -3.631 200.511 -1.849 208.229 C1.901 224.53 5.207 240.879 8.161 257.343 C8.958 261.782 9.772 266.217 10.586 270.652 C11.337 274.751 12.08 278.851 12.822 282.952 C13.188 284.967 13.555 286.982 13.925 288.996 C14.444 291.83 14.953 294.664 15.461 297.5 C15.617 298.341 15.773 299.183 15.933 300.05 C16.828 305.115 17.145 309.856 17 315 C16.131 315.085 15.263 315.169 14.367 315.256 C-15.34 318.244 -43.211 324.141 -69.457 339.066 C-73.749 340.642 -77.154 339.257 -81.406 337.965 C-98.454 333.388 -118.821 339.287 -134.891 345.301 C-137 346 -137 346 -140 346 C-142.412 333.036 -144.697 320.065 -146.688 307.029 C-146.961 305.253 -147.242 303.478 -147.523 301.703 C-149.002 292.347 -150.284 282.966 -151.523 273.576 C-151.949 270.379 -152.39 267.184 -152.832 263.989 C-170.373 136.393 -170.373 136.393 -158 79 C-157.797 78.051 -157.594 77.101 -157.384 76.123 C-156.166 70.655 -154.679 65.342 -153 60 C-152.787 59.054 -152.575 58.108 -152.355 57.133 C-151.09 52.737 -149.552 51.332 -145.578 48.941 C-142.109 47.153 -138.561 45.555 -135.005 43.95 C-129.201 41.201 -123.421 37.765 -119.062 33 C-118.382 32.34 -117.701 31.68 -117 31 C-113.313 31.282 -111.638 33.067 -109.188 35.688 C-106.586 38.425 -103.998 40.833 -101 43.125 C-98.64 45.148 -98.063 45.794 -97.125 48.875 C-98.766 54.736 -103.496 58.531 -107.75 62.688 C-111.707 66.754 -113.197 69.495 -113.438 75.188 C-113.182 83.792 -110.1 90.9 -104 97 C-102.979 97.613 -102.979 97.613 -101.938 98.238 C-99.559 99.678 -97.805 100.872 -96 103 C-95.338 106.293 -95.248 109.399 -95.176 112.754 C-94.762 120.387 -90.724 126.328 -85.594 131.793 C-74.48 141.25 -60.58 145.7 -46.117 145.352 C-41.8 144.865 -40.061 144.061 -37 141 C-32.673 135.128 -31.356 128.815 -31.492 121.617 C-32.228 117.826 -33.911 116.445 -36.977 114.262 C-37.644 113.845 -38.312 113.429 -39 113 C-45.804 108.652 -45.804 108.652 -46.75 105.5 C-45.56 101.532 -42.781 99.086 -39.268 96.944 C-37.324 95.934 -35.36 94.989 -33.375 94.062 C-31.946 93.368 -30.518 92.673 -29.09 91.977 C-28.394 91.64 -27.697 91.304 -26.98 90.958 C-12.926 84.158 -6.024 77.668 -0.184 62.941 C2.393 54.562 2.501 44.233 -1.594 36.41 C-2.058 35.615 -2.522 34.819 -3 34 C-3.944 32.327 -3.944 32.327 -4.906 30.621 C-7.376 26.265 -9.87 21.923 -12.406 17.605 C-15.094 12.739 -15.711 9.422 -15 4 C-11.986 -3.033 -6.403 -0.904 0 0 Z " fill="#DCE4E3" transform="translate(710,494)"/>
<path d="M0 0 C-0.217 0.681 -0.433 1.361 -0.656 2.062 C-5.137 17.663 -3.93 31.341 3.387 45.727 C9.695 56.061 21.455 61.727 32 67 C30.991 69.717 30.061 71.919 28.312 74.25 C26.378 78.303 26.843 81.725 28 86 C30.121 89.14 32.529 90.277 35.875 91.812 C39.789 93.647 41.792 95.898 44.426 99.254 C48.196 103.436 53.678 106.658 59.312 107.238 C69.443 107.518 77.411 104.706 85.441 98.562 C88.409 95.587 88.974 93.238 89.438 89.062 C89.36 85.58 89.053 85.065 86.688 82.188 C85.801 81.466 84.914 80.744 84 80 C82.991 79.01 81.988 78.012 81 77 C84.645 72.323 88.318 68.631 93.25 65.312 C109.582 53.791 118.306 35.272 125 17 C132.99 17 142.436 23.607 148 29 C151.613 35.078 152.351 42.075 153 49 C153.095 49.718 153.189 50.437 153.287 51.177 C154.282 59.207 154.222 67.294 154.24 75.373 C154.25 77.901 154.281 80.428 154.312 82.955 C154.431 100.681 151.107 117.471 147.188 134.688 C146.833 136.266 146.478 137.845 146.124 139.424 C143.935 149.124 141.609 158.783 139.145 168.417 C137.608 174.454 136.19 180.507 134.859 186.593 C134.37 188.821 133.872 191.048 133.364 193.272 C132.07 198.959 130.869 204.639 129.867 210.384 C125.214 236.693 125.214 236.693 116.62 243.609 C113.566 245.643 110.471 247.396 107.158 248.972 C105.2 249.905 103.392 250.929 101.551 252.07 C95.003 255.888 89.512 256.799 82 256 C83.399 251.532 85.136 247.362 87.125 243.125 C87.664 241.973 88.203 240.82 88.758 239.633 C89.168 238.764 89.578 237.895 90 237 C91.217 237.041 92.434 237.082 93.688 237.125 C97.219 237.138 99.8 236.6 103 235 C104.203 229.108 104.203 229.108 102.75 223.5 C100.964 221.778 100.964 221.778 98 221 C98.046 219.77 98.093 218.54 98.141 217.273 C98.178 215.641 98.215 214.008 98.25 212.375 C98.3 211.163 98.3 211.163 98.352 209.926 C98.441 204.442 97.692 201.335 94 197 C90.842 195.421 87.393 195.181 84 196 C80.05 199.311 77.768 202.852 75.375 207.375 C71.337 214.743 66.525 221.353 61.463 228.043 C59.922 230.104 58.419 232.188 56.922 234.281 C56.422 234.977 55.922 235.672 55.407 236.389 C54.443 237.733 53.483 239.079 52.528 240.429 C51.401 241.989 50.206 243.5 49 245 C48.34 245 47.68 245 47 245 C45.648 234.275 44.33 223.547 43.062 212.812 C42.977 212.087 42.891 211.361 42.802 210.614 C41.588 200.334 40.471 190.05 39.438 179.75 C38.491 170.329 37.397 160.948 36.054 151.575 C35.459 147.414 34.903 143.26 34.473 139.078 C34.392 138.303 34.31 137.528 34.227 136.729 C34.017 134.664 33.82 132.598 33.625 130.531 C32.968 126.822 31.963 124.205 30 121 C20.36 115.132 7.061 115.674 -3.875 115.438 C-5.238 115.402 -6.601 115.367 -7.965 115.33 C-31.306 114.736 -54.655 114.391 -78 114 C-76.306 108.749 -74.513 103.612 -72.32 98.543 C-71.555 96.771 -71.555 96.771 -70.774 94.964 C-70.225 93.705 -69.675 92.446 -69.125 91.188 C-68.843 90.539 -68.56 89.891 -68.269 89.223 C-34.276 11.217 -34.276 11.217 -9.812 1.125 C-6.244 0.072 -3.67 -0.093 0 0 Z " fill="#DBE3E1" transform="translate(347,518)"/>
<path d="M0 0 C6 1 6 1 8.839 1.527 C11.931 1.99 14.833 2.129 17.957 2.133 C19.07 2.134 20.183 2.135 21.33 2.137 C22.479 2.133 23.628 2.129 24.812 2.125 C25.95 2.129 27.088 2.133 28.26 2.137 C34.591 2.129 40.724 1.84 47 1 C46.734 2.051 46.469 3.101 46.195 4.184 C45.838 5.602 45.482 7.02 45.125 8.438 C44.951 9.125 44.777 9.813 44.598 10.521 C38.923 33.115 37.482 55.173 37.625 78.438 C37.63 79.802 37.635 81.166 37.639 82.53 C37.789 123.609 41.182 164.053 46.236 204.803 C46.979 210.798 47.69 216.797 48.395 222.797 C48.721 225.558 49.049 228.319 49.378 231.08 C49.579 232.778 49.78 234.475 49.98 236.173 C51.533 249.328 53.703 262.289 56.203 275.297 C56.378 276.212 56.554 277.127 56.734 278.07 C57.087 279.905 57.447 281.738 57.812 283.57 C57.983 284.47 58.153 285.37 58.328 286.297 C58.482 287.084 58.636 287.871 58.794 288.683 C59.031 291.347 58.708 293.427 58 296 C56.477 297.738 56.477 297.738 54.625 299.312 C49.201 304.425 48.169 309.837 47 317 C46.071 317.075 45.141 317.15 44.184 317.228 C-7.673 321.032 -7.673 321.032 -55.848 339.328 C-59 341 -59 341 -62 342 C-61.555 339.679 -61.092 337.366 -60.598 335.055 C-59.956 331.981 -59.956 331.981 -59.621 328.758 C-58.598 321.909 -57.146 318.43 -51.5 314.25 C-49.34 312.823 -47.173 311.406 -45 310 C-43.186 308.591 -41.393 307.154 -39.625 305.688 C-38.285 304.578 -38.285 304.578 -36.918 303.445 C-35.955 302.638 -34.992 301.831 -34 301 C-33.445 300.537 -32.89 300.074 -32.319 299.597 C-6.401 277.909 11.835 253.024 24 221.5 C24.398 220.485 24.797 219.47 25.207 218.424 C27.352 212.689 28.574 208.127 28 202 C27.629 201.278 27.257 200.556 26.875 199.812 C26.586 199.214 26.298 198.616 26 198 C26.651 196.327 27.32 194.661 28 193 C28.563 189.085 28.594 185.95 26.438 182.5 C22.927 180.34 21.073 180.321 17 181 C14.108 182.753 11.545 184.779 9 187 C9.144 186.276 9.289 185.551 9.438 184.805 C11.092 177.433 11.092 177.433 11 170 C8.594 166.745 7.111 165.241 3.125 164.375 C-2.532 165.506 -6.529 168.978 -9.73 173.629 C-10.563 174.932 -11.382 176.243 -12.188 177.562 C-14.831 181.794 -17.261 185.622 -21 189 C-20.265 182.851 -18.855 176.946 -17.375 170.938 C-16.826 168.676 -16.278 166.414 -15.73 164.152 C-15.445 162.974 -15.159 161.796 -14.865 160.582 C-10.682 143.258 -6.706 125.887 -2.845 108.489 C-2.456 106.739 -2.065 104.99 -1.672 103.241 C5.971 69.158 10.344 34.114 0 0 Z " fill="#D0D0CF" transform="translate(503,550)"/>
<path d="M0 0 C30.699 -0.81 57.653 5.144 80.879 26.668 C100.589 45.681 110.148 71.132 115.125 97.625 C115.284 98.452 115.442 99.279 115.606 100.131 C118.462 116.091 119.354 132.128 119.25 148.312 C119.247 149.186 119.244 150.059 119.241 150.959 C119.109 183.006 116.725 214.846 113.75 246.741 C113.298 251.608 112.879 256.475 112.5 261.348 C112.374 262.921 112.374 262.921 112.246 264.525 C112.086 266.546 111.932 268.568 111.785 270.59 C111.712 271.501 111.638 272.413 111.562 273.352 C111.502 274.154 111.441 274.957 111.379 275.784 C110.971 278.168 110.183 279.903 109 282 C108.699 281.007 108.399 280.014 108.089 278.991 C100.771 254.862 93.16 230.858 85 207 C84.72 206.182 84.441 205.364 84.153 204.521 C63.876 145.243 42.938 85.534 14.938 29.375 C14.355 28.204 13.773 27.032 13.172 25.825 C9.631 18.847 5.752 12.23 1.506 5.667 C0 3 0 3 0 0 Z " fill="#CFD0CF" transform="translate(780,521)"/>
<path d="M0 0 C2.993 0.324 4.556 0.521 6.641 2.77 C9.48 7.428 8.464 12.722 7.414 17.875 C3.703 31.22 -2.938 44.064 -10.102 55.871 C-11.184 57.96 -11.184 57.96 -10.773 60.223 C-10.14 62.197 -10.14 62.197 -8 63 C9.085 64.4 24.385 54.534 37 44 C37.795 43.41 38.591 42.819 39.41 42.211 C42.529 39.549 44.892 36.621 47.375 33.375 C47.857 32.753 48.339 32.132 48.835 31.491 C52.117 27.229 55.262 22.887 58.309 18.453 C60.255 15.631 62.245 12.843 64.25 10.062 C64.895 9.167 65.539 8.271 66.203 7.348 C67.716 5.371 69.096 3.597 71 2 C73.625 1.75 73.625 1.75 76 2 C77 3 77 3 77.281 5.965 C77.201 10.89 75.375 15.069 73.5 19.562 C73.138 20.443 72.777 21.323 72.404 22.23 C62.555 45.655 46.709 65.587 25 79 C24.34 79 23.68 79 23 79 C23 79.99 23 80.98 23 82 C39.583 73.676 54.316 61.426 66 47 C66.62 46.256 67.24 45.512 67.879 44.746 C72.135 39.557 75.997 34.18 79.765 28.635 C82.6 24.494 85.631 20.714 89 17 C90.65 17.33 92.3 17.66 94 18 C94.31 24.064 93.563 28.285 91.125 33.812 C90.814 34.535 90.503 35.258 90.183 36.003 C83.828 50.463 76.991 63.552 66 75 C65.507 75.522 65.014 76.043 64.506 76.581 C58.192 83.231 51.619 89.84 44 95 C43.34 95 42.68 95 42 95 C42 95.66 42 96.32 42 97 C46.85 96.538 49.897 94.163 53.562 91.188 C54.173 90.697 54.784 90.206 55.413 89.701 C69.091 78.516 78.385 66.105 87.59 51.047 C89 49 89 49 91 48 C89.675 55.394 87.169 61.582 83.875 68.312 C83.134 69.84 83.134 69.84 82.377 71.398 C78.761 78.724 74.9 85.447 70 92 C69.004 93.435 69.004 93.435 67.988 94.898 C57.373 109.608 43.772 122.866 29.195 133.633 C27.085 135.196 25.015 136.816 22.992 138.492 C10.959 148.371 -8.821 162 -25 162 C-25.077 161.342 -25.153 160.683 -25.232 160.005 C-25.977 153.599 -26.723 147.193 -27.47 140.787 C-27.868 137.364 -28.267 133.942 -28.665 130.519 C-30.281 116.635 -31.9 102.752 -33.578 88.875 C-33.696 87.897 -33.814 86.919 -33.936 85.912 C-34.478 81.414 -35.024 76.917 -35.577 72.42 C-35.769 70.835 -35.961 69.25 -36.152 67.664 C-36.239 66.967 -36.327 66.269 -36.416 65.551 C-37.764 54.308 -37.764 54.308 -34.945 50.406 C-34.278 49.461 -34.278 49.461 -33.598 48.497 C-33.112 47.838 -32.626 47.179 -32.125 46.5 C-31.625 45.798 -31.126 45.096 -30.611 44.372 C-29.088 42.238 -27.547 40.117 -26 38 C-24.35 35.732 -22.704 33.462 -21.062 31.188 C-20.664 30.638 -20.266 30.088 -19.855 29.522 C-15.674 23.679 -11.883 17.594 -8.11 11.483 C-5.608 7.45 -3.081 3.628 0 0 Z " fill="#4F2E1B" transform="translate(433,717)"/>
<path d="M0 0 C2.123 -0.027 4.245 -0.068 6.367 -0.123 C9.475 -0.202 12.581 -0.235 15.69 -0.259 C17.096 -0.308 17.096 -0.308 18.531 -0.359 C25.956 -0.336 30.119 2.309 35.358 7.46 C43.654 17.697 47.621 29.356 47.858 42.397 C47.876 43.107 47.895 43.817 47.914 44.549 C47.852 49.653 46.625 52.581 43.358 56.46 C40.99 58.288 40.99 58.288 38.483 59.71 C37.249 60.429 37.249 60.429 35.99 61.163 C29.295 64.461 23.14 64.888 15.795 65.335 C6.767 65.993 -1.229 66.947 -9.642 70.46 C-10.515 70.808 -11.388 71.156 -12.287 71.515 C-21.924 75.808 -28.78 83.035 -34.99 91.378 C-38.206 95.43 -41.565 98.841 -46.58 100.335 C-47.26 100.376 -47.941 100.417 -48.642 100.46 C-49.641 93.138 -46.448 87.574 -42.642 81.46 C-39.852 77.901 -36.824 74.67 -33.642 71.46 C-32.691 70.453 -32.691 70.453 -31.72 69.425 C-28.293 65.853 -24.87 63.038 -20.642 60.46 C-23.707 60.954 -26.538 61.744 -29.455 62.772 C-33.088 64.036 -36.728 64.954 -40.48 65.793 C-57.16 69.599 -67.859 79.602 -78.445 92.675 C-81.209 96.036 -83.627 98.56 -87.642 100.46 C-90.455 100.647 -90.455 100.647 -92.642 100.46 C-91.314 85.939 -80.221 74.218 -69.767 64.96 C-63.231 59.747 -51.183 50.46 -42.642 50.46 C-42.642 49.8 -42.642 49.14 -42.642 48.46 C-63.64 54.505 -82.077 65.386 -94.642 83.522 C-102.068 94.208 -102.068 94.208 -107.642 97.46 C-111.142 97.897 -111.142 97.897 -113.642 97.46 C-114.105 92.126 -112.566 88.398 -110.142 83.772 C-109.778 83.067 -109.413 82.361 -109.038 81.635 C-97.578 59.967 -79.992 45.897 -57.642 36.46 C-63.722 36.934 -68.197 38.267 -73.58 41.085 C-74.276 41.441 -74.972 41.797 -75.688 42.164 C-81.167 45.043 -85.963 48.407 -90.642 52.46 C-91.456 53.083 -92.269 53.705 -93.107 54.347 C-104.373 63.737 -111.455 77.942 -118.642 90.46 C-120.292 90.13 -121.942 89.8 -123.642 89.46 C-121.76 69.881 -107.127 51.779 -92.642 39.46 C-89.095 36.885 -85.453 34.621 -81.642 32.46 C-80.754 31.904 -79.866 31.349 -78.951 30.776 C-76.642 29.46 -76.642 29.46 -74.642 29.46 C-74.642 28.47 -74.642 27.48 -74.642 26.46 C-82.94 30.237 -91.125 34.026 -98.955 38.71 C-106.742 43.257 -115.39 47.667 -124.642 46.46 C-126.642 44.46 -126.642 44.46 -126.65 42.128 C-125.247 38.413 -122.714 36.878 -119.517 34.772 C-118.891 34.345 -118.264 33.918 -117.618 33.478 C-116.295 32.579 -114.967 31.686 -113.636 30.799 C-111.728 29.517 -109.849 28.201 -107.974 26.87 C-99.013 20.584 -89.735 15.682 -79.642 11.46 C-78.535 10.988 -77.428 10.516 -76.287 10.03 C-52.398 1.012 -25.24 0.243 0 0 Z " fill="#4F2E1A" transform="translate(547.642333984375,873.5400390625)"/>
<path d="M0 0 C1.583 -0.044 1.583 -0.044 3.197 -0.088 C13.331 -0.17 19.222 2.807 26.375 9.75 C27.117 10.447 27.117 10.447 27.873 11.158 C45.252 27.575 56.602 46.342 57.426 70.824 C57.811 92.774 57.811 92.774 53.188 101.312 C41.687 112.813 3.988 113.031 -11.812 114.312 C-13.647 114.473 -13.647 114.473 -15.52 114.637 C-24.164 115.058 -30.64 113.259 -37.812 108.312 C-38.472 107.322 -39.133 106.332 -39.812 105.312 C-36.555 103.141 -35.588 102.852 -31.812 103.312 C-31.235 103.787 -30.658 104.261 -30.062 104.75 C-26.592 107.16 -22.975 107.312 -18.812 107.312 C-15.902 106.802 -15.902 106.802 -13.812 105.312 C-12.76 103.484 -12.76 103.484 -11.812 101.312 C-11.459 100.575 -11.106 99.838 -10.742 99.078 C-5.244 85.963 -7.06 73.467 -11.98 60.582 C-17.971 46.072 -29.088 30.898 -43.613 23.992 C-47.627 22.752 -51.663 23.006 -55.812 23.312 C-56.143 24.962 -56.472 26.612 -56.812 28.312 C-58.133 28.312 -59.452 28.312 -60.812 28.312 C-60.608 26.913 -60.373 25.518 -60.125 24.125 C-59.997 23.348 -59.87 22.57 -59.738 21.77 C-57.317 15.343 -51.34 12.713 -45.469 9.992 C-31.19 3.714 -15.538 0.141 0 0 Z " fill="#DCE4E1" transform="translate(616.8125,838.6875)"/>
<path d="M0 0 C0.66 0 1.32 0 2 0 C5.345 5.297 5.84 9.913 5 16 C4.144 18.656 3.141 21.143 1.973 23.676 C-2.164 33.56 -1.323 46.797 2.5 56.625 C3.303 58.431 4.124 60.229 5 62 C-4.713 70.604 -14.465 76.122 -26.82 80.043 C-29.33 80.911 -29.33 80.911 -31 84 C-39.531 87.111 -48.453 87.489 -57.438 87.375 C-58.623 87.363 -59.809 87.35 -61.031 87.338 C-80.481 86.965 -95.343 80.375 -111 69 C-110.52 66.072 -110.029 63.151 -109.465 60.238 C-107.139 47.335 -107.297 33.982 -109 21 C-107.822 21.723 -107.822 21.723 -106.621 22.461 C-105.571 23.093 -104.52 23.724 -103.438 24.375 C-101.889 25.315 -101.889 25.315 -100.309 26.273 C-88.221 32.581 -73.019 32.196 -59.688 32.312 C-58.079 32.339 -58.079 32.339 -56.438 32.366 C-38.014 32.352 -17.461 24.805 -4 12 C-1.066 8.155 -0.468 4.776 0 0 Z " fill="#DCE4E1" transform="translate(586,459)"/>
<path d="M0 0 C5.4 -0.48 5.4 -0.48 7.875 1.5 C9.529 5.175 9.783 8.109 9 12 C7.238 16.459 5.185 20.734 3 25 C3.58 24.954 4.16 24.907 4.758 24.859 C10.448 24.596 13.539 25.134 18 29 C25.399 36.49 28.983 44.633 29.438 55.125 C29.212 66.057 25.205 75.02 17.605 82.836 C8.912 90.057 -0.429 92.489 -11.508 92.414 C-17.415 91.714 -22.022 89.131 -27 86 C-27.617 85.617 -28.235 85.234 -28.871 84.84 C-33.653 81.374 -36.24 76.071 -39 71 C-39.598 69.928 -40.196 68.855 -40.812 67.75 C-44.207 59.889 -44.305 48.559 -42.352 40.238 C-39.645 33.612 -34.974 28.069 -29.125 24 C-21.322 21.503 -14.539 23.356 -7 26 C-6.752 25.216 -6.505 24.433 -6.25 23.625 C-5.564 21.637 -4.85 19.655 -4.012 17.727 C-1.43 11.775 -0.276 6.479 0 0 Z " fill="#020203" transform="translate(177,779)"/>
<path d="M0 0 C2.438 0.75 2.438 0.75 4 2 C-0.079 18.348 -3.861 32.454 -19 42 C-27.063 46.27 -37.21 46.359 -45.875 43.875 C-51.132 41.726 -55.353 39.47 -57.882 34.141 C-59.122 31.182 -60.295 28.215 -61.34 25.181 C-63.265 19.848 -65.358 17.288 -70 14 C-69.34 12.68 -68.68 11.36 -68 10 C-67.215 10.133 -66.43 10.266 -65.621 10.402 C-63.443 10.768 -61.265 11.13 -59.086 11.488 C-56.908 11.849 -54.734 12.23 -52.562 12.625 C-35.268 14.445 -18.16 10.751 -3.211 1.762 C-2.151 1.18 -1.092 0.599 0 0 Z " fill="#0B0808" transform="translate(540,396)"/>
<path d="M0 0 C1.32 0.33 2.64 0.66 4 1 C3.409 10.685 2.454 20.254 1.188 29.875 C1.1 30.545 1.013 31.216 0.924 31.906 C-0.341 41.615 -1.818 51.272 -3.497 60.918 C-5.113 70.326 -6.337 79.777 -7.564 89.243 C-8.656 97.613 -9.907 105.929 -11.387 114.238 C-11.85 117.079 -12.229 119.877 -12.538 122.735 C-12.669 123.937 -12.669 123.937 -12.803 125.163 C-12.868 125.77 -12.933 126.376 -13 127 C-12.419 127.004 -11.837 127.008 -11.238 127.013 C2.891 127.116 17.02 127.225 31.148 127.339 C37.981 127.395 44.813 127.448 51.646 127.497 C58.233 127.545 64.821 127.597 71.409 127.653 C73.928 127.673 76.448 127.692 78.967 127.709 C82.483 127.733 85.998 127.763 89.513 127.795 C91.093 127.803 91.093 127.803 92.704 127.812 C94.133 127.827 94.133 127.827 95.59 127.842 C96.422 127.848 97.255 127.855 98.112 127.861 C100 128 100 128 101 129 C101 130.65 101 132.3 101 134 C61.4 134 21.8 134 -19 134 C-19 122.749 -19 122.749 -18.437 118.767 C-18.313 117.865 -18.188 116.964 -18.06 116.035 C-17.923 115.092 -17.786 114.148 -17.645 113.176 C-17.503 112.164 -17.361 111.152 -17.215 110.109 C-16.754 106.843 -16.284 103.578 -15.812 100.312 C-15.49 98.046 -15.168 95.78 -14.846 93.513 C-12.939 80.151 -10.914 66.815 -8.713 53.498 C-7.298 44.928 -5.985 36.348 -4.75 27.75 C-4.505 26.062 -4.505 26.062 -4.255 24.34 C-3.405 18.346 -2.731 12.392 -2.353 6.349 C-1.981 3.876 -1.235 2.158 0 0 Z " fill="#0F0F0F" transform="translate(203,881)"/>
<path d="M0 0 C2.062 0.438 2.062 0.438 4 1 C4.17 5.874 3.707 9.807 2.273 14.461 C1.907 15.68 1.541 16.899 1.163 18.155 C0.97 18.787 0.778 19.419 0.579 20.071 C-0.377 23.255 -1.26 26.46 -2.148 29.664 C-2.514 30.973 -2.88 32.282 -3.247 33.591 C-3.431 34.25 -3.615 34.908 -3.805 35.587 C-6.491 45.189 -9.195 54.781 -12.125 64.312 C-14.46 71.923 -16.475 79.598 -18.438 87.312 C-20.835 96.737 -23.462 106.044 -26.364 115.325 C-29.059 124.008 -31.408 132.774 -33.691 141.574 C-33.965 142.616 -34.238 143.657 -34.52 144.73 C-34.758 145.652 -34.996 146.574 -35.241 147.524 C-35.955 149.852 -36.84 151.865 -38 154 C-39.65 154 -41.3 154 -43 154 C-41.645 146.798 -39.987 139.712 -38.125 132.625 C-37.859 131.608 -37.593 130.59 -37.319 129.542 C-35.745 123.602 -34.014 117.771 -31.988 111.969 C-29.101 103.295 -26.862 94.391 -24.594 85.539 C-22.137 75.954 -19.58 66.444 -16.625 57 C-13.32 46.425 -10.533 35.739 -7.84 24.996 C-2.062 2.062 -2.062 2.062 0 0 Z " fill="#101010" transform="translate(108,870)"/>
<path d="M0 0 C4.378 3.421 7.185 7.303 7.965 12.875 C7.599 17.96 6.247 22.913 2.965 26.875 C-1.873 30.528 -5.615 31.528 -11.672 31.262 C-16.493 30.473 -19.179 27.823 -22.348 24.312 C-25.506 19.751 -25.67 15.249 -25.035 9.875 C-23.223 4.564 -19.916 1.519 -15.035 -1.125 C-9.978 -2.721 -4.699 -2.598 0 0 Z " fill="#A23B30" transform="translate(571.03515625,352.125)"/>
<path d="M0 0 C1.32 0.33 2.64 0.66 4 1 C2.511 5.231 0.3 8.743 -2.188 12.438 C-19.12 38.385 -28.892 70.152 -32.738 100.773 C-32.929 102.272 -32.929 102.272 -33.124 103.801 C-33.371 105.775 -33.604 107.751 -33.823 109.728 C-33.933 110.629 -34.043 111.529 -34.156 112.457 C-34.247 113.261 -34.338 114.065 -34.432 114.894 C-35.099 117.365 -36.064 118.373 -38 120 C-38.99 119.67 -39.98 119.34 -41 119 C-40.132 81.396 -29.133 29.096 -1.582 1.449 C-1.06 0.971 -0.538 0.493 0 0 Z " fill="#0F0F0F" transform="translate(748,521)"/>
<path d="M0 0 C3.317 2.557 5.258 4.855 6.227 8.922 C6.704 14.169 6.089 17.48 3.227 21.922 C-0.483 25.738 -4.49 27.59 -9.773 27.922 C-15.427 27.095 -19.206 24.28 -22.641 19.812 C-24.464 16.769 -24.836 14.45 -24.773 10.922 C-23.098 5.206 -20.661 2.276 -15.773 -1.078 C-10.181 -3.874 -5.264 -3.2 0 0 Z " fill="#9F3B2F" transform="translate(456.7734375,363.078125)"/>
<path d="M0 0 C-0.318 2.669 -0.65 5.335 -1 8 C-1.087 8.665 -1.174 9.33 -1.264 10.015 C-2.336 17.305 -3.419 23.479 -9.473 28.18 C-11.058 29.267 -12.689 30.286 -14.32 31.301 C-17.214 32.882 -17.214 32.882 -19 36 C-19.242 38.516 -19.242 38.516 -19.125 41.188 C-19.107 42.089 -19.089 42.99 -19.07 43.918 C-19.047 44.605 -19.024 45.292 -19 46 C-17.35 46.66 -15.7 47.32 -14 48 C-14 51.338 -14.54 52.213 -16.312 54.938 C-16.742 55.607 -17.171 56.276 -17.613 56.965 C-19.017 59.025 -20.498 61.01 -22 63 C-22.557 58.167 -23.108 53.333 -23.654 48.498 C-23.84 46.861 -24.027 45.224 -24.216 43.588 C-25.466 32.732 -26.436 21.915 -27 11 C-23.067 9.157 -19.128 7.328 -15.188 5.5 C-14.068 4.975 -12.948 4.451 -11.795 3.91 C-10.722 3.414 -9.649 2.918 -8.543 2.406 C-7.553 1.945 -6.563 1.485 -5.544 1.01 C-3 0 -3 0 0 0 Z " fill="#D6DEDD" transform="translate(436,876)"/>
<path d="M0 0 C7.395 6.339 7.395 6.339 7.984 11.906 C3.731 11.434 -0.109 10.602 -4.203 9.344 C-16.253 6.028 -27.334 8.241 -38.727 13.051 C-41.844 14.216 -43.854 13.82 -47.016 12.906 C-49.016 9.906 -49.016 9.906 -49.578 7.594 C-48.812 3.933 -47.17 2.608 -44.285 0.328 C-31.077 -7.947 -13.05 -9.061 0 0 Z " fill="#020101" transform="translate(559.015625,279.09375)"/>
<path d="M0 0 C1.167 -0.031 1.167 -0.031 2.357 -0.062 C8.44 -0.103 14.161 0.662 19.038 4.667 C20.312 6.25 20.312 6.25 20.312 9.25 C19.312 12.25 19.312 12.25 17.125 13.928 C13.878 15.454 11.872 15.544 8.305 15.402 C7.152 15.375 6 15.347 4.812 15.318 C2.419 15.232 0.026 15.141 -2.367 15.045 C-11.972 14.826 -19.44 16.62 -27.688 21.562 C-28.678 22.119 -29.668 22.676 -30.688 23.25 C-31.678 22.92 -32.668 22.59 -33.688 22.25 C-32.597 14.931 -28.395 10.738 -22.688 6.25 C-15.181 2.032 -8.589 0.056 0 0 Z " fill="#020201" transform="translate(457.6875,283.75)"/>
<path d="M0 0 C1.207 0.031 1.207 0.031 2.438 0.062 C2.167 4.531 0.283 7.14 -2.617 10.355 C-6.141 13.448 -10.276 15.249 -14.562 17.062 C-15.372 17.429 -16.182 17.795 -17.016 18.172 C-23.686 20.504 -30.732 19.857 -37.062 16.875 C-40.716 14.786 -43.561 12.875 -45.562 9.062 C-45.312 6.25 -45.312 6.25 -44.562 4.062 C-41.562 3.062 -41.562 3.062 -38.375 4.5 C-27.695 8.713 -16.414 6.311 -6.16 2.254 C-1.316 0.032 -1.316 0.032 0 0 Z " fill="#9D443E" transform="translate(529.5625,418.9375)"/>
<path d="M0 0 C1.875 0.25 1.875 0.25 4 1 C6.459 4.387 6.834 8.659 7.625 12.688 C9.739 22.856 12.947 32.627 16.195 42.48 C16.51 43.445 16.826 44.409 17.15 45.403 C17.837 47.502 18.531 49.599 19.227 51.695 C20.178 55.76 20.294 59.53 20.25 63.688 C20.258 64.433 20.265 65.179 20.273 65.947 C20.26 69.773 20.154 72.76 18 76 C16.68 75.67 15.36 75.34 14 75 C13.974 73.935 13.948 72.87 13.922 71.773 C13.608 62.711 12.472 54.705 9.647 46.033 C-0.7 13.539 -0.7 13.539 0 0 Z " fill="#0E0F0F" transform="translate(335,554)"/>
<path d="M0 0 C0.33 0 0.66 0 1 0 C1.164 6.698 0.575 12.958 -0.5 19.562 C-0.995 22.677 -1.49 25.791 -2 29 C-13.55 29 -25.1 29 -37 29 C-34.036 27.024 -31.039 25.447 -27.875 23.812 C-17.169 18.12 -6.794 10.191 0 0 Z " fill="#CCCCCB" transform="translate(881,909)"/>
<path d="M0 0 C0.633 1.844 0.633 1.844 1 4 C-5.846 12.054 -15.591 18.52 -26.277 19.559 C-34.583 19.971 -42.224 19.342 -49 14 C-50.019 12.681 -51.022 11.349 -52 10 C-51.306 10.016 -50.611 10.031 -49.896 10.048 C-46.68 10.111 -43.465 10.149 -40.25 10.188 C-39.158 10.213 -38.066 10.238 -36.941 10.264 C-26.039 10.36 -16.485 8.2 -6.75 3.312 C-6.089 2.992 -5.427 2.672 -4.746 2.342 C-3.159 1.571 -1.579 0.787 0 0 Z " fill="#EEEEEE" transform="translate(535,403)"/>
<path d="M0 0 C-0.33 1.32 -0.66 2.64 -1 4 C-1.66 4 -2.32 4 -3 4 C-3.267 4.57 -3.534 5.14 -3.81 5.727 C-6.007 9.923 -8.953 13.626 -11.75 17.438 C-12.358 18.284 -12.967 19.13 -13.594 20.002 C-17.013 24.666 -20.226 28.689 -25 32 C-27.875 31.812 -27.875 31.812 -30 31 C-27.672 20.137 -23.027 10.858 -13.621 4.355 C-9.1 1.771 -5.268 0 0 0 Z " fill="#442615" transform="translate(507,944)"/>
<path d="M0 0 C0.33 0 0.66 0 1 0 C1.398 1.988 1.713 3.993 2 6 C2.206 7.299 2.413 8.599 2.625 9.938 C2.554 12.6 2.224 13.717 0.555 15.82 C-8.907 23.843 -25.497 31.372 -38 31 C-35.417 28.003 -32.447 26.573 -28.938 24.812 C-18.421 19.256 -9.665 11.735 -2.125 2.562 C-1.073 1.294 -1.073 1.294 0 0 Z " fill="#462816" transform="translate(576,453)"/>
<path d="M0 0 C2.01 1.58 2.01 1.58 4 4 C4.227 7.096 4.227 7.096 3.848 10.727 C3.755 11.71 3.755 11.71 3.66 12.713 C3.526 14.105 3.382 15.496 3.23 16.885 C3.006 18.948 2.808 21.011 2.621 23.077 C2.182 27.878 1.709 32.676 1.227 37.473 C-1.152 50.107 -1.152 50.107 1.259 61.607 C3.338 63.4 5.547 64.774 8 66 C8 66.66 8 67.32 8 68 C3.643 67.689 0.463 66.684 -2.819 63.687 C-7.066 57.62 -4.843 46.833 -4.258 39.902 C-4.17 38.787 -4.082 37.671 -3.992 36.522 C-3.806 34.185 -3.616 31.848 -3.421 29.511 C-3.123 25.918 -2.84 22.323 -2.559 18.729 C-2.376 16.453 -2.192 14.178 -2.008 11.902 C-1.922 10.823 -1.837 9.744 -1.749 8.633 C-1.666 7.644 -1.582 6.655 -1.497 5.636 C-1.425 4.763 -1.353 3.889 -1.279 2.989 C-1 1 -1 1 0 0 Z " fill="#060402" transform="translate(489,318)"/>
<path d="M0 0 C4.097 0.155 6.337 0.437 9.5 3.125 C11.507 6.971 11.272 8.885 10 13 C7.412 15.884 5.805 16.849 2 17.562 C-2.104 16.793 -3.54 15.329 -6 12 C-6.625 9 -6.625 9 -6 6 C-3.562 3.188 -3.562 3.188 -1 1 C-0.67 0.67 -0.34 0.34 0 0 Z " fill="#0C0D0D" transform="translate(582,795)"/>
<path d="M0 0 C2.631 2.22 2.932 3.545 3.438 6.938 C2.899 10.706 1.624 12.298 -1 15 C-3.841 16.42 -5.855 16.315 -9 16 C-11.375 14.562 -11.375 14.562 -13 12 C-13.614 8.871 -13.647 6.126 -13 3 C-9.41 -1.712 -5.305 -1.78 0 0 Z " fill="#0A0A0A" transform="translate(582,728)"/>
<path d="M0 0 C3.381 2.446 4.769 3.893 5.625 8 C4.769 12.107 3.381 13.554 0 16 C-3.958 16.625 -6.009 16.61 -9.438 14.5 C-11.638 10.979 -11.804 8.046 -11 4 C-8.167 -0.534 -5.104 -0.806 0 0 Z " fill="#080909" transform="translate(572,619)"/>
<path d="M0 0 C2.5 1.625 2.5 1.625 4 4 C4.824 8.209 4.177 9.72 1.875 13.375 C-1 16 -1 16 -4 16.688 C-8.077 15.753 -9.558 14.376 -12 11 C-12.625 7.042 -12.61 4.991 -10.5 1.562 C-6.983 -0.636 -4.041 -0.812 0 0 Z " fill="#080808" transform="translate(473,619)"/>
<path d="M0 0 C3.438 0.562 3.438 0.562 5.875 2.188 C7.949 5.339 8.106 6.848 7.438 10.562 C5.375 13.938 5.375 13.938 2.438 16.562 C-1.125 17.25 -1.125 17.25 -4.562 16.562 C-7.486 14.014 -8.412 12.367 -9.125 8.562 C-8.109 3.146 -5.362 0.847 0 0 Z " fill="#080808" transform="translate(457.5625,672.4375)"/>
<path d="M0 0 C-1.696 5.059 -4.594 9.262 -7.5 13.688 C-7.999 14.459 -8.498 15.231 -9.012 16.025 C-12.726 21.726 -12.726 21.726 -15 24 C-15.99 24 -16.98 24 -18 24 C-17.735 16.063 -15.514 9.59 -11 3 C-7.535 0.267 -4.394 0 0 0 Z " fill="#442613" transform="translate(437,924)"/>
<path d="M0 0 C4.878 0.454 7.522 1.522 11 5 C14.055 9.379 14.456 12.82 13.621 17.957 C12.592 21.343 11.071 22.308 8 24 C-0.864 28 -0.864 28 -4 28 C-3.812 26.188 -3.812 26.188 -3 24 C0.76 21.014 4.291 20.462 9 20 C8.786 13.895 7.673 10.872 3.57 6.348 C1.927 4.766 1.927 4.766 -1 4 C-0.67 2.68 -0.34 1.36 0 0 Z " fill="#060302" transform="translate(610,324)"/>
<path d="M0 0 C0.33 0.66 0.66 1.32 1 2 C0.67 2.66 0.34 3.32 0 4 C-0.588 9.653 -0.315 14.199 3 19 C5.566 20.808 5.566 20.808 8 22 C8 22.33 8 22.66 8 23 C3.254 23.38 -0.07 23.482 -4.375 21.25 C-9.84 16.566 -9.84 16.566 -10.242 12.633 C-9.957 9.529 -9.153 8.248 -7.25 5.812 C-6.74 5.138 -6.229 4.464 -5.703 3.77 C-3.919 1.916 -2.353 0.998 0 0 Z " fill="#EFEEED" transform="translate(529,319)"/>
<path d="M0 0 C0.66 0.33 1.32 0.66 2 1 C1.505 1.743 1.505 1.743 1 2.5 C-0.943 7.357 -0.562 11.582 1.312 16.312 C2.732 18.573 3.986 20.274 6 22 C0.138 21.596 -3.295 20.809 -8 17 C-10.171 13.744 -10.538 12.777 -10 9 C-8.32 6.797 -8.32 6.797 -6.125 4.75 C-5.406 4.064 -4.686 3.378 -3.945 2.672 C-2 1 -2 1 0 0 Z " fill="#F2F1F1" transform="translate(451,327)"/>
<path d="M0 0 C5.28 0 10.56 0 16 0 C12.683 4.146 11.182 5.825 6.875 8.312 C6.006 8.824 5.137 9.336 4.242 9.863 C2 11 2 11 0 11 C0 7.37 0 3.74 0 0 Z " fill="#C2C5C8" transform="translate(420,1000)"/>
<path d="M0 0 C0.33 0.99 0.66 1.98 1 3 C-0.558 3.112 -0.558 3.112 -2.148 3.227 C-11.224 4.028 -17.449 5.615 -25 11 C-26.32 11.692 -27.65 12.368 -29 13 C-28.634 10.355 -28.251 9.229 -26.25 7.402 C-17.527 1.723 -10.445 -0.589 0 0 Z " fill="#080402" transform="translate(545,304)"/>
<path d="M0 0 C1.375 1.375 1.375 1.375 3.25 3.688 C0.191 3.224 -2.073 2.529 -4.875 1.156 C-9.157 -0.715 -13.08 -0.654 -17.688 -0.5 C-18.467 -0.486 -19.246 -0.473 -20.049 -0.459 C-21.95 -0.424 -23.85 -0.37 -25.75 -0.312 C-19.356 -7.012 -7.089 -5.317 0 0 Z " fill="#070402" transform="translate(470.75,317.3125)"/>
<path d="M0 0 C3.297 0.33 4.623 0.623 7 3 C6.67 6.297 6.377 7.623 4 10 C-0.556 9.444 -0.556 9.444 -2 8 C-2.188 5.062 -2.188 5.062 -2 2 C-1.34 1.34 -0.68 0.68 0 0 Z " fill="#121313" transform="translate(650,908)"/>
<path d="M0 0 C-0.33 0.99 -0.66 1.98 -1 3 C-3.327 3.689 -5.661 4.355 -8 5 C-9.709 6.541 -9.709 6.541 -11 8 C-11.99 8 -12.98 8 -14 8 C-13.665 4.87 -12.999 3.999 -10.625 1.812 C-6.651 -0.931 -4.576 -1.113 0 0 Z " fill="#070402" transform="translate(516,377)"/>
</svg>