<svg version="1.1" xmlns="http://www.w3.org/2000/svg" width="1024" height="1024">
<path d="M0 0 C337.92 0 675.84 0 1024 0 C1024 337.92 1024 675.84 1024 1024 C686.08 1024 348.16 1024 0 1024 C0 686.08 0 348.16 0 0 Z " fill="#FEFEFE" transform="translate(0,0)"/>
<path d="M0 0 C0.69 -0.004 1.379 -0.008 2.09 -0.012 C7.247 -0.002 7.247 -0.002 9.5 1.125 C10.976 1.281 12.456 1.4 13.938 1.5 C30.7 3.133 44.408 10.862 55.531 23.418 C63.121 32.761 66.47 42.167 67.5 54.125 C68.057 53.981 68.614 53.836 69.188 53.688 C76.358 51.943 82.2 50.667 89 54.125 C103.635 63.187 110.871 79.345 115.117 95.469 C115.675 99.336 115.684 103.16 115.688 107.062 C115.7 107.848 115.712 108.634 115.725 109.443 C115.734 113.08 115.597 115.836 114.426 119.316 C113.043 123.513 113.873 126.744 115.68 130.724 C116.168 131.583 116.657 132.443 117.16 133.328 C117.703 134.3 118.246 135.271 118.805 136.272 C119.675 137.808 119.675 137.808 120.562 139.375 C129.733 155.95 137.371 172.564 142.008 190.998 C144.822 202.101 148.063 208.989 156.312 216.875 C167.521 227.627 172.475 239.031 175.5 254.125 C177.781 265.248 181.102 270.513 190.188 277.062 C194.536 280.941 196.336 285.629 198.188 291 C199.707 294.917 201.368 297.269 204.438 300.125 C215.983 310.909 224.268 325.208 231.5 339.125 C231.992 340.063 231.992 340.063 232.493 341.02 C234.921 345.678 237.227 350.389 239.5 355.125 C239.856 355.857 240.212 356.589 240.579 357.343 C248.976 374.714 255.683 392.762 262.487 410.797 C264.205 415.349 265.935 419.896 267.669 424.441 C269.055 428.081 270.436 431.724 271.815 435.367 C272.473 437.105 273.134 438.842 273.796 440.579 C274.72 443.006 275.637 445.436 276.551 447.867 C276.821 448.572 277.091 449.277 277.369 450.003 C279.221 454.963 280.468 459.934 281.5 465.125 C285.829 461.022 289.433 456.538 293.062 451.812 C293.977 450.633 293.977 450.633 294.911 449.431 C297.93 445.525 300.904 441.595 303.801 437.598 C304.32 436.886 304.84 436.174 305.375 435.441 C306.341 434.111 307.297 432.774 308.24 431.428 C312.071 426.16 316.758 421.004 323.293 419.469 C324.083 419.52 324.873 419.572 325.688 419.625 C326.524 419.677 327.361 419.728 328.223 419.781 C330.873 420.181 333.131 420.862 335.5 422.125 C336.088 420.331 336.088 420.331 336.688 418.5 C342.362 401.503 342.362 401.503 345.188 395.25 C349.296 385.469 349.768 375.568 347.017 365.321 C346.044 361.189 345.681 356.962 345.188 352.75 C344.067 343.816 342.195 335.386 339.586 326.777 C335.703 313.719 335.703 313.719 338.5 308.125 C341.793 306.479 344.956 306.551 348.5 307.125 C354.782 309.889 357.578 315.188 360.5 321.125 C361.114 322.781 361.697 324.448 362.25 326.125 C365.109 334.664 370.011 342.361 374.5 350.125 C382.56 349.107 387.277 345.038 392.312 338.812 C397.555 330.878 397.904 321.267 398.977 312.047 C400.042 303.123 401.182 295.316 406.875 288.125 C409.702 285.971 412.125 285.152 415.5 284.125 C416.243 283.321 416.243 283.321 417 282.5 C418.5 281.125 418.5 281.125 421.438 280.625 C424.5 281.125 424.5 281.125 426.667 283.024 C429.283 287.45 429.002 291.19 428.891 296.238 C428.882 297.693 428.882 297.693 428.873 299.176 C428.851 302.264 428.801 305.35 428.75 308.438 C428.73 310.534 428.712 312.631 428.695 314.729 C428.651 319.861 428.582 324.993 428.5 330.125 C429.03 329.32 429.561 328.516 430.107 327.687 C430.813 326.621 431.519 325.555 432.246 324.457 C432.941 323.405 433.637 322.353 434.353 321.269 C447.734 301.673 447.734 301.673 456.5 298.125 C459.586 297.687 462.423 297.592 465.5 298.125 C467.625 299.812 467.625 299.812 468.5 302.125 C468.647 307.418 464.613 311.205 461.5 315.125 C451.956 327.416 444.222 339.668 438.5 354.125 C439.151 353.767 439.801 353.408 440.472 353.039 C443.417 351.419 446.365 349.803 449.312 348.188 C450.337 347.624 451.361 347.06 452.416 346.479 C453.399 345.94 454.382 345.402 455.395 344.848 C456.753 344.101 456.753 344.101 458.14 343.34 C462.932 340.873 467.21 340.609 472.5 341.125 C475.062 342.25 475.062 342.25 476.5 344.125 C477.146 347.841 476.929 349.499 474.786 352.625 C472.451 355.179 470.452 356.595 467.43 358.246 C466.45 358.789 465.47 359.333 464.461 359.893 C463.443 360.444 462.424 360.995 461.375 361.562 C459.372 362.664 457.369 363.767 455.367 364.871 C454.387 365.411 453.407 365.951 452.398 366.508 C442.998 371.676 442.998 371.676 434.625 378.312 C433.395 379.459 433.395 379.459 432.141 380.629 C431.269 381.453 430.398 382.276 429.5 383.125 C427.464 385.007 425.42 386.878 423.375 388.75 C422.865 389.218 422.355 389.687 421.83 390.17 C418.996 392.77 416.145 395.344 413.25 397.875 C412.625 398.423 412 398.971 411.355 399.535 C410.105 400.606 408.836 401.656 407.551 402.684 C398.131 410.401 392.237 420.184 386.625 430.812 C386.161 431.691 385.696 432.57 385.218 433.475 C382.435 438.893 380.231 444.284 378.5 450.125 C379.031 450.572 379.562 451.02 380.109 451.48 C392.445 462.038 392.445 462.038 393.5 470.125 C393.686 471.383 393.871 472.641 394.062 473.938 C393.898 481.675 389.151 488.531 385.5 495.125 C384.991 496.055 384.481 496.984 383.957 497.942 C377.34 509.999 370.507 521.92 363.47 533.736 C359.201 540.909 355.03 548.135 350.875 555.375 C344.919 565.733 338.84 575.997 332.5 586.125 C332.112 586.748 331.723 587.37 331.323 588.012 C327.148 594.681 322.81 601.212 318.25 607.625 C317.85 608.189 317.449 608.752 317.037 609.333 C306.375 624.144 291.23 636.819 272.973 640.656 C270.469 640.956 268.021 641.067 265.5 641.125 C264.311 641.187 263.123 641.249 261.898 641.312 C247.556 641.772 238.297 637.074 227.84 627.469 C211.445 611.047 202.135 587.265 193.5 566.125 C192.963 564.813 192.963 564.813 192.415 563.474 C190.271 557.97 189.65 551.961 189.105 546.109 C187.823 532.337 184.718 519.423 180.723 506.191 C180.417 505.172 180.111 504.152 179.796 503.102 C179.21 501.168 178.612 499.238 177.999 497.312 C172.983 480.895 172.037 464.368 171.875 447.312 C171.826 443.618 171.77 439.924 171.711 436.23 C171.691 434.911 171.691 434.911 171.672 433.564 C171.548 426.388 171.075 419.279 170.5 412.125 C169.83 400.789 171.365 390.221 173.5 379.125 C173.015 380.811 172.538 382.499 172.062 384.188 C171.796 385.127 171.529 386.067 171.254 387.035 C169.899 392.589 169.375 398 169.371 403.708 C169.367 404.974 169.364 406.24 169.361 407.545 C169.363 408.913 169.365 410.281 169.367 411.648 C169.367 413.077 169.366 414.506 169.364 415.935 C169.363 418.929 169.365 421.923 169.37 424.917 C169.375 428.704 169.372 432.491 169.366 436.277 C168.934 464.729 168.934 464.729 173.125 492.75 C173.386 493.842 173.646 494.934 173.915 496.058 C176.01 504.627 178.461 513.074 181.139 521.477 C183.97 530.36 185.74 539.003 186.711 548.262 C187.219 552.737 188.238 556.811 189.5 561.125 C190.026 563.587 190.504 566.056 190.986 568.527 C193.9 583.251 198.42 597.197 203.938 611.125 C204.208 611.81 204.479 612.496 204.757 613.202 C208.015 621.412 211.495 629.479 215.345 637.43 C217.5 641.921 217.5 641.921 217.5 644.125 C218.464 644.12 219.428 644.115 220.422 644.109 C223.987 644.091 227.552 644.08 231.117 644.07 C232.662 644.065 234.207 644.058 235.753 644.05 C237.969 644.037 240.186 644.032 242.402 644.027 C243.097 644.022 243.792 644.017 244.508 644.012 C246.172 644.012 247.837 644.063 249.5 644.125 C249.83 644.455 250.16 644.785 250.5 645.125 C252.116 645.231 253.737 645.267 255.357 645.276 C256.408 645.285 257.459 645.293 258.543 645.302 C259.706 645.306 260.87 645.31 262.069 645.314 C263.896 645.327 263.896 645.327 265.759 645.34 C268.415 645.357 271.071 645.373 273.726 645.385 C277.929 645.406 282.132 645.433 286.334 645.462 C295.265 645.522 304.195 645.574 313.125 645.625 C322.745 645.68 332.364 645.737 341.984 645.803 C346.158 645.831 350.331 645.854 354.505 645.874 C357.722 645.891 360.938 645.914 364.155 645.936 C365.306 645.94 366.458 645.944 367.644 645.948 C373.032 645.99 378.193 646.175 383.5 647.125 C383.5 647.785 383.5 648.445 383.5 649.125 C374.934 651.568 366.507 651.406 357.685 651.383 C355.968 651.386 354.251 651.39 352.533 651.394 C347.828 651.404 343.123 651.402 338.417 651.398 C333.338 651.395 328.258 651.404 323.178 651.412 C314.379 651.424 305.581 651.429 296.782 651.43 C284.051 651.431 271.32 651.446 258.589 651.465 C237.919 651.496 217.25 651.52 196.581 651.538 C194.726 651.54 194.726 651.54 192.834 651.542 C179.034 651.553 165.235 651.564 151.435 651.572 C146.43 651.575 141.424 651.578 136.419 651.581 C135.184 651.582 133.949 651.583 132.676 651.584 C112.084 651.597 91.491 651.621 70.898 651.655 C58.199 651.675 45.499 651.686 32.799 651.683 C24.099 651.682 15.399 651.692 6.699 651.71 C1.679 651.72 -3.34 651.725 -8.36 651.717 C-12.957 651.71 -17.553 651.716 -22.15 651.734 C-23.811 651.738 -25.473 651.737 -27.134 651.73 C-35.445 651.699 -42.707 651.848 -50.5 655.125 C-54.736 656.234 -58.906 656.302 -63.262 656.328 C-64.043 656.334 -64.824 656.34 -65.629 656.345 C-67.306 656.355 -68.983 656.361 -70.66 656.365 C-73.052 656.374 -75.442 656.405 -77.834 656.438 C-86.674 656.496 -95.446 656.177 -104.256 655.464 C-105.051 655.399 -105.846 655.335 -106.665 655.269 C-107.484 655.203 -108.304 655.136 -109.149 655.068 C-136.4 652.868 -163.582 652.574 -190.912 652.455 C-197.21 652.425 -203.507 652.379 -209.805 652.334 C-222.036 652.249 -234.268 652.181 -246.5 652.125 C-246.678 659.705 -246.8 667.285 -246.885 674.867 C-246.92 677.445 -246.967 680.023 -247.028 682.601 C-247.113 686.31 -247.153 690.017 -247.184 693.727 C-247.238 695.452 -247.238 695.452 -247.293 697.212 C-247.419 703.061 -247.419 703.061 -244.962 708.16 C-243.211 709.667 -241.455 710.902 -239.5 712.125 C-238.363 713.24 -237.227 714.354 -236.09 715.469 C-232.196 718.782 -229.031 718.907 -224.062 718.625 C-223.244 718.6 -222.425 718.575 -221.582 718.55 C-218.884 718.45 -216.194 718.294 -213.5 718.125 C-212.579 718.073 -211.659 718.021 -210.71 717.967 C-199.035 717.268 -187.452 715.967 -175.875 714.312 C-174.865 714.172 -173.855 714.031 -172.814 713.886 C-161.917 712.243 -151.222 709.642 -140.5 707.125 C-146.818 706.481 -153.136 705.838 -159.454 705.195 C-164.16 704.716 -168.865 704.236 -173.57 703.753 C-186.413 702.438 -199.257 701.131 -212.113 699.941 C-214.834 699.686 -217.555 699.429 -220.276 699.172 C-221.956 699.017 -223.636 698.866 -225.317 698.719 C-227.625 698.517 -229.932 698.301 -232.238 698.082 C-233.507 697.968 -234.776 697.855 -236.083 697.738 C-239.686 697.092 -242.328 695.919 -245.5 694.125 C-245.5 693.135 -245.5 692.145 -245.5 691.125 C-232.772 690.894 -220.134 691.158 -207.43 691.973 C-205.994 692.062 -204.558 692.152 -203.122 692.241 C-192.579 692.903 -182.041 693.633 -171.504 694.379 C-170.372 694.459 -170.372 694.459 -169.217 694.54 C-155.321 695.523 -155.321 695.523 -148.441 696.023 C-130.136 697.353 -111.872 698.422 -93.52 698.806 C-87.517 698.939 -81.627 699.145 -75.671 699.903 C-71.164 700.363 -66.632 700.309 -62.105 700.328 C-61.037 700.334 -59.968 700.34 -58.867 700.345 C-56.617 700.355 -54.368 700.361 -52.118 700.365 C-48.708 700.375 -45.299 700.406 -41.889 700.438 C-39.69 700.444 -37.492 700.449 -35.293 700.453 C-34.289 700.465 -33.286 700.478 -32.252 700.491 C-21.8 700.458 -12.128 697.701 -2.438 693.938 C-1.674 693.642 -0.91 693.347 -0.123 693.042 C6.839 690.219 13.14 686.485 18.5 681.125 C10.242 679.598 2.084 678.656 -6.293 678.125 C-7.497 678.044 -8.701 677.964 -9.942 677.881 C-13.185 677.666 -16.428 677.457 -19.671 677.253 C-21.704 677.124 -23.736 676.993 -25.768 676.862 C-44.066 675.683 -62.366 674.667 -80.688 673.938 C-81.607 673.901 -82.527 673.864 -83.475 673.826 C-89.065 673.608 -94.656 673.414 -100.248 673.232 C-102.552 673.156 -104.856 673.077 -107.16 672.996 C-128.878 672.23 -150.573 671.965 -172.304 671.995 C-176.588 672 -180.873 671.997 -185.157 671.991 C-188.527 671.987 -191.897 671.989 -195.267 671.991 C-196.848 671.992 -198.429 671.991 -200.01 671.989 C-216.55 670.978 -216.55 670.978 -231.5 676.125 C-233.69 679.41 -234.498 682.332 -235.5 686.125 C-237.156 686.507 -238.825 686.839 -240.5 687.125 C-241.5 686.125 -241.5 686.125 -241.812 682.562 C-241.728 676.712 -239.577 672.145 -235.403 668.086 C-231.882 665.707 -228.812 665.247 -224.685 664.894 C-223.936 664.819 -223.187 664.744 -222.415 664.666 C-214.801 663.956 -207.191 663.817 -199.547 663.824 C-198.032 663.819 -196.518 663.814 -195.003 663.808 C-190.933 663.796 -186.863 663.799 -182.793 663.808 C-180.228 663.813 -177.663 663.814 -175.099 663.815 C-146.964 663.837 -118.865 664.491 -90.75 665.5 C-89.855 665.532 -88.96 665.563 -88.038 665.596 C-68.716 666.281 -49.44 667.113 -30.168 668.702 C-24.387 669.165 -18.608 669.38 -12.812 669.562 C-4.634 669.871 3.438 670.561 11.562 671.562 C12.568 671.685 13.574 671.807 14.61 671.933 C26.922 673.547 26.922 673.547 29.5 676.125 C30.017 682.119 28.235 684.891 24.715 689.547 C11.961 704.392 -7.488 711.737 -26.5 714.125 C-29.239 714.227 -31.952 714.289 -34.691 714.293 C-35.89 714.299 -35.89 714.299 -37.112 714.305 C-39.762 714.315 -42.412 714.315 -45.062 714.312 C-45.976 714.313 -46.89 714.314 -47.831 714.315 C-73.072 714.313 -98.286 713.212 -123.5 712.125 C-123.471 713.338 -123.471 713.338 -123.441 714.576 C-123.425 715.646 -123.41 716.715 -123.395 717.816 C-123.365 719.401 -123.365 719.401 -123.335 721.018 C-123.655 727.051 -126.089 731.417 -129.875 736 C-135.815 740.809 -142.104 742.143 -149.438 743.562 C-150.508 743.774 -151.578 743.986 -152.68 744.204 C-165.566 746.657 -178.574 748.204 -191.597 749.724 C-193.978 750.053 -196.182 750.517 -198.5 751.125 C-225.663 754.969 -252.999 752.982 -280.225 750.982 C-283.341 750.756 -286.457 750.541 -289.573 750.327 C-357.854 745.609 -357.854 745.609 -364.375 740.719 C-368.171 735.341 -367.063 726.448 -366.5 720.125 C-364.493 710.186 -361.099 702.924 -353.5 696.125 C-352.84 696.125 -352.18 696.125 -351.5 696.125 C-351.439 694.993 -351.379 693.861 -351.316 692.695 C-351.232 691.214 -351.147 689.732 -351.062 688.25 C-351.023 687.504 -350.984 686.757 -350.943 685.988 C-350.613 680.352 -350.613 680.352 -349.5 678.125 C-349.153 676.172 -348.847 674.213 -348.562 672.25 C-348.388 671.089 -348.214 669.927 -348.035 668.73 C-347.859 667.541 -347.682 666.351 -347.5 665.125 C-347.174 662.936 -346.842 660.749 -346.5 658.562 C-346.356 657.612 -346.211 656.662 -346.062 655.684 C-345.5 653.125 -345.5 653.125 -343.5 649.125 C-359.34 649.455 -375.18 649.785 -391.5 650.125 C-394.8 656.725 -398.1 663.325 -401.5 670.125 C-405.61 676.29 -409.511 681.245 -416.5 684.125 C-420 684.438 -420 684.438 -422.5 684.125 C-422.5 682.805 -422.5 681.485 -422.5 680.125 C-421.118 678.984 -419.73 677.849 -418.324 676.738 C-409.673 669.087 -405.382 657.996 -400.617 647.766 C-392.999 631.425 -384.874 615.269 -376.25 599.438 C-375.774 598.563 -375.299 597.688 -374.808 596.786 C-372.397 592.404 -369.895 588.108 -367.242 583.867 C-366.719 583.016 -366.196 582.165 -365.657 581.288 C-364.67 579.693 -363.661 578.113 -362.624 576.55 C-360.365 572.889 -359.053 570.367 -359.98 566.062 C-360.477 564.414 -360.985 562.768 -361.5 561.125 C-362.081 558.708 -362.646 556.287 -363.199 553.863 C-363.52 552.498 -363.842 551.132 -364.165 549.767 C-364.332 549.061 -364.498 548.356 -364.67 547.629 C-364.841 546.906 -365.012 546.182 -365.188 545.438 C-365.905 542.395 -366.623 539.352 -367.34 536.309 C-367.521 535.541 -367.701 534.774 -367.888 533.984 C-369.08 528.919 -370.264 523.853 -371.441 518.785 C-371.67 517.799 -371.67 517.799 -371.904 516.794 C-372.054 516.147 -372.205 515.5 -372.359 514.834 C-374.692 504.795 -377.059 494.773 -379.602 484.785 C-380.833 479.769 -381.941 474.727 -383.018 469.675 C-383.875 465.714 -384.846 461.81 -385.934 457.906 C-387.67 451.629 -389.091 445.295 -390.5 438.938 C-391.109 436.209 -391.72 433.482 -392.332 430.754 C-392.497 430.016 -392.663 429.278 -392.833 428.517 C-394.288 422.036 -395.772 415.563 -397.262 409.09 C-397.623 407.52 -397.623 407.52 -397.991 405.919 C-398.958 401.714 -399.926 397.509 -400.896 393.305 C-403.741 380.982 -406.492 368.647 -409.055 356.261 C-409.834 352.525 -410.637 348.794 -411.438 345.062 C-413.382 335.929 -415.124 326.759 -416.838 317.58 C-417.039 316.511 -417.241 315.441 -417.449 314.34 C-417.628 313.382 -417.807 312.424 -417.991 311.437 C-418.404 309.114 -418.404 309.114 -419.5 307.125 C-419.649 305.191 -419.721 303.252 -419.75 301.312 C-419.776 300.275 -419.802 299.237 -419.828 298.168 C-419.383 294.036 -417.871 291.507 -414.965 288.578 C-401.905 278.291 -376.453 283.007 -360.201 283.056 C-356.393 283.067 -352.584 283.071 -348.775 283.076 C-341.35 283.087 -333.925 283.104 -326.5 283.125 C-327.108 280.915 -327.723 278.707 -328.34 276.5 C-328.681 275.27 -329.023 274.04 -329.375 272.773 C-332.22 263.549 -336.9 256.415 -342.974 249.035 C-350.95 239.11 -356.978 227.63 -363.043 216.473 C-369.303 204.96 -375.331 197.001 -386.668 190.047 C-390.75 187.277 -393.768 184.223 -396.5 180.125 C-396.85 177.322 -397.013 175.803 -395.281 173.512 C-392.259 171.159 -389.458 171.416 -385.734 171.52 C-375.408 173.453 -366.257 181.504 -358.5 188.125 C-358.808 184.083 -359.122 180.041 -359.438 176 C-359.568 174.287 -359.568 174.287 -359.701 172.539 C-359.788 171.43 -359.875 170.322 -359.965 169.18 C-360.043 168.164 -360.122 167.148 -360.203 166.101 C-360.505 163.078 -360.985 160.118 -361.5 157.125 C-361.607 155.565 -361.674 154.001 -361.688 152.438 C-361.702 151.691 -361.716 150.945 -361.73 150.176 C-361.5 148.125 -361.5 148.125 -359.5 145.125 C-356.875 144.938 -356.875 144.938 -354.5 145.125 C-354.83 144.465 -355.16 143.805 -355.5 143.125 C-356.95 138.775 -357.576 134.345 -355.5 130.062 C-352.793 128.794 -350.467 128.861 -347.555 129.379 C-342.764 131.118 -340.604 135.135 -338.23 139.414 C-333.504 149.588 -328.5 163.891 -328.5 175.125 C-327.84 175.125 -327.18 175.125 -326.5 175.125 C-326.47 171.125 -326.451 167.125 -326.438 163.125 C-326.433 161.943 -326.428 160.761 -326.423 159.543 C-326.42 151.634 -326.749 143.867 -327.574 136.004 C-327.5 133.125 -327.5 133.125 -326.199 131.242 C-323.513 129.476 -321.638 129.686 -318.5 130.125 C-312.768 133.457 -311.384 138.342 -309.458 144.406 C-308.502 148.116 -308.101 151.498 -307.859 155.316 C-307.758 156.688 -307.655 158.06 -307.551 159.432 C-307.398 161.548 -307.251 163.664 -307.125 165.781 C-306.362 178.13 -304.047 189.573 -295.5 199.125 C-293.212 200.466 -293.212 200.466 -290.5 200.125 C-284.126 196.414 -281.236 192.063 -277.625 185.75 C-273.012 178.043 -268.696 172.223 -260.5 168.125 C-257.274 167.844 -255.099 167.857 -252.125 169.188 C-249.634 172.158 -250.17 174.323 -250.5 178.125 C-251.496 180.874 -252.844 183.378 -254.25 185.938 C-254.992 187.359 -255.732 188.783 -256.469 190.207 C-256.823 190.886 -257.178 191.565 -257.543 192.264 C-261.065 199.113 -262.984 205.957 -264.713 213.442 C-266.857 222.25 -270.339 230.603 -273.716 238.997 C-278.814 252.829 -273.408 266.633 -267.805 279.387 C-266.756 281.98 -266.756 281.98 -265.5 283.125 C-263.262 283.279 -261.019 283.364 -258.777 283.422 C-258.075 283.442 -257.372 283.461 -256.649 283.482 C-254.317 283.546 -251.985 283.603 -249.652 283.66 C-248.04 283.703 -246.427 283.747 -244.814 283.79 C-240.561 283.905 -236.308 284.013 -232.055 284.121 C-227.718 284.231 -223.382 284.347 -219.045 284.463 C-210.53 284.689 -202.015 284.909 -193.5 285.125 C-193.661 284.507 -193.822 283.888 -193.988 283.251 C-197.27 269.621 -194.573 253.196 -187.785 241.059 C-186.125 238.622 -184.405 236.373 -182.5 234.125 C-181.386 232.673 -181.386 232.673 -180.25 231.191 C-177.311 227.67 -173.771 225.307 -170 222.75 C-163.331 218.059 -159.161 214.107 -156.5 206.125 C-156.441 204.541 -156.439 202.955 -156.473 201.371 C-156.485 200.433 -156.497 199.496 -156.51 198.529 C-156.544 196.579 -156.583 194.628 -156.627 192.678 C-156.824 175.656 -150.79 167.333 -139.5 155.125 C-133.824 148.832 -131.06 143.645 -131.059 135.051 C-131.045 134.286 -131.032 133.522 -131.019 132.734 C-130.978 130.302 -130.956 127.87 -130.938 125.438 C-130.706 102.125 -126.879 85.097 -110.562 67.5 C-104.639 61.769 -97.845 57.736 -90.734 53.633 C-84.136 49.77 -79.398 46.822 -75.625 39.938 C-64.178 20.17 -44.631 9.119 -23.156 3.02 C-19.194 2.05 -15.391 1.459 -11.32 1.266 C-7.514 0.972 -4.03 -0.023 0 0 Z " fill="#040404" transform="translate(499.5,210.875)"/>
<path d="M0 0 C1.482 0.006 2.964 0.01 4.446 0.013 C8.515 0.025 12.584 0.062 16.653 0.103 C21.037 0.143 25.421 0.16 29.805 0.179 C37.417 0.215 45.029 0.264 52.64 0.322 C64.856 0.414 77.072 0.468 89.288 0.518 C111.642 0.61 133.995 0.728 156.348 0.854 C167.445 0.916 178.542 0.975 189.639 1.035 C212.326 1.157 235.012 1.281 257.699 1.408 C257.686 2.344 257.673 3.28 257.66 4.245 C257.645 6.107 257.645 6.107 257.63 8.006 C257.618 9.231 257.605 10.456 257.592 11.718 C257.759 17.459 258.992 22.828 260.32 28.396 C260.877 30.856 261.431 33.317 261.984 35.778 C262.269 37.035 262.555 38.292 262.849 39.587 C264.239 45.835 265.488 52.111 266.734 58.389 C266.984 59.638 267.233 60.888 267.49 62.175 C268.249 65.982 269.005 69.789 269.761 73.596 C270.27 76.147 270.778 78.699 271.287 81.25 C272.995 89.819 274.701 98.387 276.404 106.957 C277.073 110.324 277.743 113.69 278.414 117.057 C278.608 118.038 278.803 119.02 279.004 120.031 C280.324 126.654 281.739 133.253 283.199 139.846 C284.985 147.947 286.608 156.066 288.136 164.221 C290.441 176.473 293.214 188.593 296.071 200.727 C298.63 211.648 300.701 222.653 302.791 233.671 C304.11 240.553 305.567 247.372 307.243 254.175 C308.886 260.944 310.148 267.78 311.393 274.632 C311.627 275.912 311.627 275.912 311.867 277.217 C312.004 277.978 312.141 278.739 312.282 279.523 C312.636 281.484 312.636 281.484 313.699 283.408 C313.739 285.741 313.742 288.075 313.699 290.408 C300.679 292.962 287.662 292.756 274.449 292.721 C272.604 292.72 272.604 292.72 270.722 292.72 C233.361 292.687 196.022 290.973 158.699 289.408 C158.369 288.748 158.039 288.088 157.699 287.408 C166.279 287.408 174.859 287.408 183.699 287.408 C182.915 283.613 182.131 279.818 181.324 275.908 C179.597 267.392 178.07 258.94 177.156 250.299 C176.781 247.11 176.318 243.971 175.808 240.803 C174.155 230.224 173.029 219.575 171.801 208.94 C171.476 206.136 171.148 203.333 170.82 200.529 C170.673 199.243 170.673 199.243 170.523 197.932 C170.43 197.133 170.336 196.334 170.24 195.511 C170.159 194.813 170.079 194.115 169.996 193.396 C169.73 191.385 169.73 191.385 169.178 189.364 C168.425 186.288 168.46 183.169 168.383 180.018 C168.351 178.961 168.351 178.961 168.32 177.882 C168.254 175.641 168.195 173.4 168.136 171.158 C168.093 169.635 168.05 168.111 168.006 166.588 C167.899 162.861 167.797 159.135 167.699 155.408 C164.82 153.969 162.253 154.206 159.039 154.127 C158.043 154.099 158.043 154.099 157.027 154.071 C154.897 154.012 152.767 153.96 150.636 153.908 C134.999 153.524 134.999 153.524 130.062 152.893 C124.046 152.128 118.005 152.184 111.949 152.158 C110.744 152.138 109.538 152.117 108.297 152.096 C106.554 152.088 106.554 152.088 104.777 152.08 C103.729 152.071 102.682 152.061 101.602 152.052 C98.154 152.475 96.387 153.205 93.699 155.408 C92.354 158.094 92.354 158.094 91.601 161.264 C91.277 162.435 90.952 163.607 90.618 164.814 C90.294 166.062 89.97 167.31 89.636 168.596 C89.288 169.885 88.938 171.175 88.586 172.463 C87.603 176.107 86.647 179.756 85.699 183.408 C85.29 184.954 84.881 186.499 84.472 188.045 C82.32 196.416 80.449 204.854 78.552 213.286 C77.353 218.595 76.103 223.883 74.761 229.158 C73.002 236.096 71.368 243.059 69.761 250.033 C69.507 251.136 69.253 252.239 68.991 253.376 C67.725 258.892 66.472 264.412 65.238 269.936 C64.896 271.463 64.896 271.463 64.546 273.021 C64.114 274.953 63.685 276.885 63.26 278.819 C63.068 279.675 62.877 280.53 62.679 281.412 C62.513 282.163 62.347 282.914 62.176 283.688 C61.699 285.408 61.699 285.408 60.699 286.408 C47.225 287.309 47.225 287.309 42.699 284.408 C41.326 281.332 40.519 278.655 39.699 275.408 C39.332 274.121 38.961 272.834 38.586 271.549 C34.414 257.127 31.066 242.508 27.773 227.865 C25.939 219.711 23.995 211.622 21.797 203.557 C18.064 189.643 14.845 175.595 12.097 161.456 C10.058 151.002 7.622 140.668 4.761 130.408 C2.681 122.737 1.158 114.981 -0.371 107.183 C-1.821 99.784 -3.332 92.402 -4.926 85.033 C-5.217 83.672 -5.217 83.672 -5.514 82.283 C-6.494 77.78 -7.578 73.334 -8.824 68.896 C-10.288 63.631 -11.341 58.348 -12.301 52.971 C-13.53 46.285 -14.904 39.705 -16.645 33.131 C-17.626 29.06 -18.252 24.946 -18.871 20.807 C-19.185 18.405 -19.185 18.405 -20.301 16.408 C-20.61 13.729 -20.61 13.729 -20.739 10.533 C-20.799 9.484 -20.86 8.435 -20.922 7.354 C-20.301 4.408 -20.301 4.408 -18.156 2.25 C-12.784 -1.06 -6.078 -0.086 0 0 Z " fill="#FEFEFE" transform="translate(109.301025390625,503.591796875)"/>
<path d="M0 0 C0.918 0.531 1.836 1.062 2.781 1.609 C16.262 9.385 27.615 15.599 43.625 15.438 C44.675 15.431 45.726 15.424 46.808 15.417 C55.747 15.234 63.53 13.87 72 11 C73.721 10.422 73.721 10.422 75.477 9.832 C81.949 7.49 87.907 4.594 93.855 1.137 C96 0 96 0 98 0 C97.44 13.475 96.019 26.819 94.471 40.212 C94.062 43.757 93.66 47.302 93.26 50.848 C92.998 53.143 92.735 55.439 92.473 57.734 C92.355 58.773 92.237 59.812 92.116 60.883 C91.505 66.144 90.798 71.371 89.959 76.601 C89.067 82.281 88.526 87.911 88.184 93.648 C88.122 94.59 88.061 95.532 87.998 96.502 C87.805 99.459 87.621 102.417 87.438 105.375 C87.249 108.354 87.06 111.333 86.867 114.312 C86.748 116.152 86.632 117.992 86.519 119.832 C86.293 123.375 86.027 126.831 85.474 130.341 C84.781 135.687 84.777 141.005 84.727 146.391 C84.708 148.234 84.708 148.234 84.689 150.114 C84.657 154.159 84.637 158.205 84.625 162.25 C84.621 163.288 84.621 163.288 84.617 164.347 C84.53 190.64 86.156 216.498 88.711 242.672 C90.009 256.097 91.004 269.55 92 283 C59.33 283 26.66 283 -7 283 C-7 276.4 -7 269.8 -7 263 C-7.758 258.712 -8.508 254.972 -9.75 250.875 C-10.003 249.952 -10.255 249.029 -10.516 248.078 C-11.797 243.528 -13.298 239.305 -15.266 235.008 C-17.562 229.433 -16.964 224.839 -16 219 C-15.77 217.293 -15.542 215.586 -15.316 213.879 C-15.195 213.024 -15.073 212.168 -14.947 211.287 C-11.301 185.452 -10.585 159.468 -9.785 133.422 C-9.389 120.999 -8.748 108.638 -7.73 96.25 C-7.211 89.911 -6.801 83.585 -6.531 77.23 C-6 65.194 -4.901 53.204 -3.843 41.205 C-3.497 37.281 -3.156 33.356 -2.816 29.432 C-2.597 26.909 -2.377 24.386 -2.156 21.863 C-2.005 20.124 -2.005 20.124 -1.85 18.35 C-1.309 12.223 -0.707 6.11 0 0 Z " fill="#FDFDFD" transform="translate(475,571)"/>
<path d="M0 0 C9.468 3.806 15.15 15.208 19.453 23.953 C21.251 28.182 22.187 31.367 22 36 C19.424 34.712 19.352 33.769 18.312 31.125 C13.808 20.709 7.046 9.427 -4 5 C-6.188 4.65 -6.188 4.65 -8.438 4.688 C-9.179 4.671 -9.92 4.654 -10.684 4.637 C-14.362 5.214 -16.898 6.54 -19.174 9.556 C-20.367 11.444 -21.476 13.361 -22.562 15.312 C-23.312 16.622 -24.064 17.931 -24.816 19.238 C-25.176 19.868 -25.536 20.498 -25.907 21.147 C-27.497 23.842 -29.234 26.417 -31 29 C-29.67 29.124 -29.67 29.124 -28.312 29.25 C-25 30 -25 30 -22.5 32.125 C-20.12 34.322 -20.12 34.322 -17 33.875 C-14.073 33.106 -14.073 33.106 -11.75 31.938 C-6.701 30.216 -1.63 29.842 3.332 32.027 C10.693 36.681 17.976 43.203 22 51 C22.188 54.312 22.188 54.312 22 57 C19.945 54.44 17.901 51.873 15.887 49.281 C8.597 39.807 8.597 39.807 -2 35 C-8.822 34.664 -14.335 35.001 -20 39.25 C-22.259 41.84 -22.259 41.84 -22.188 45 C-20.401 49.513 -17.257 51.521 -13.289 54.121 C-9.978 55.392 -6.686 55.251 -3.188 55.312 C6.716 55.757 6.716 55.757 10.605 59.277 C14.746 64.392 18.498 69.195 18 76 C16.347 73.875 14.972 71.941 13.812 69.5 C9.989 64.226 3.496 62.531 -2.68 61.305 C-6.48 60.806 -10.172 60.878 -14 61 C-13.403 62.693 -12.716 64.354 -12 66 C-11.567 67.072 -11.134 68.145 -10.688 69.25 C-6.839 73.188 -3.468 72.505 1.852 72.672 C6.478 73.154 8.053 74.48 11 78 C11.641 80.168 11.641 80.168 12 82 C11.325 81.476 11.325 81.476 10.637 80.941 C4.901 76.884 -0.052 76.14 -7 76 C-6.407 77.774 -5.8 79.544 -5.188 81.312 C-4.851 82.299 -4.515 83.285 -4.168 84.301 C-3.193 87.01 -3.193 87.01 -1.352 88.641 C-0.906 89.089 -0.46 89.538 0 90 C-0.198 93.623 -0.809 97.002 -1.488 100.559 C-2.555 106.431 -3.147 112.165 -3.375 118.125 C-4.832 150.05 -13.347 181.497 -36 205 C-36.557 205.608 -37.114 206.217 -37.688 206.844 C-44.478 213.493 -55.732 219.399 -65.25 219.812 C-81.024 218.575 -95.608 207.294 -106 196 C-117.247 182.704 -124.258 167.276 -130 151 C-130.272 150.393 -130.544 149.786 -130.825 149.16 C-133.409 143.22 -133.382 137.722 -133.25 131.312 C-133.234 130.198 -133.218 129.083 -133.201 127.935 C-133.163 125.546 -133.117 123.158 -133.065 120.77 C-132.998 116.865 -133.002 112.964 -133.012 109.059 C-132.989 106.456 -132.964 103.853 -132.938 101.25 C-132.949 100.019 -132.96 98.789 -132.972 97.521 C-132.806 89.135 -132.806 89.135 -130.529 85.927 C-128.762 84.365 -127.048 83.161 -125 82 C-124.232 81.529 -123.463 81.059 -122.672 80.574 C-121.721 80.135 -121.721 80.135 -120.75 79.688 C-119.783 79.229 -119.783 79.229 -118.797 78.762 C-115.157 77.219 -112.197 76.835 -108.273 76.719 C-106.603 76.663 -106.603 76.663 -104.898 76.605 C-102.542 76.535 -100.185 76.465 -97.828 76.395 C-96.717 76.357 -95.606 76.32 -94.461 76.281 C-93.438 76.251 -92.415 76.221 -91.361 76.189 C-89.044 76.26 -89.044 76.26 -88 75 C-87.532 70.365 -87.532 70.365 -89.188 66.188 C-93.858 63.127 -98.328 62.615 -103.812 62.625 C-104.877 62.623 -104.877 62.623 -105.963 62.621 C-111.72 62.737 -115.217 63.939 -120 67 C-120.66 67 -121.32 67 -122 67 C-120.232 52.567 -118.41 39.817 -106.625 30.125 C-97.628 23.715 -88.916 22.835 -78 24 C-74.183 24.689 -70.433 25.63 -66.669 26.561 C-58.525 28.502 -49.813 29.715 -41.766 26.848 C-37.322 23.879 -36.362 20.393 -35.051 15.352 C-34.807 14.122 -34.564 12.892 -34.312 11.625 C-34.061 10.38 -33.81 9.135 -33.551 7.852 C-33.369 6.911 -33.187 5.97 -33 5 C-32.67 5 -32.34 5 -32 5 C-31.68 11.717 -32.521 16.757 -35 23 C-29.448 19.901 -27.136 16.426 -24 11 C-22.973 9.366 -21.931 7.741 -20.875 6.125 C-20.398 5.385 -19.921 4.645 -19.43 3.883 C-14.849 -2.149 -6.756 -0.855 0 0 Z " fill="#919292" transform="translate(584,272)"/>
<path d="M0 0 C2.09 -0.372 2.09 -0.372 4.723 -0.363 C5.721 -0.364 6.72 -0.365 7.749 -0.365 C9.389 -0.339 9.389 -0.339 11.062 -0.312 C12.753 -0.3 12.753 -0.3 14.478 -0.287 C29.341 -0.086 44.176 0.96 59 2 C58.258 15.894 58.258 15.894 56.522 21.955 C55.329 26.631 54.851 31.476 54.188 36.25 C52.814 45.852 51.257 55.398 49.5 64.938 C47.506 75.788 45.823 86.657 44.344 97.59 C43.693 102.363 43.02 107.092 42.012 111.805 C40.868 117.3 40.226 122.844 39.558 128.413 C38.951 133.472 38.275 138.521 37.598 143.57 C34.694 165.348 31.852 187.103 30 209 C29.929 209.82 29.859 210.64 29.786 211.484 C29.387 216.32 29.151 221.151 29 226 C28.962 226.963 28.924 227.926 28.885 228.917 C28.098 247.087 28.098 247.087 34 264 C34.33 264.66 34.66 265.32 35 266 C-7.735 264.266 -7.735 264.266 -28.972 261.404 C-33.418 260.811 -37.87 260.269 -42.322 259.72 C-46.883 259.157 -51.441 258.58 -56 258 C-56.101 252.619 -55.784 247.624 -54.941 242.289 C-54.833 241.595 -54.724 240.901 -54.612 240.185 C-54.384 238.735 -54.153 237.284 -53.919 235.834 C-53.56 233.611 -53.212 231.386 -52.865 229.16 C-51.145 218.29 -51.145 218.29 -50 216 C-49.531 213.21 -49.099 210.423 -48.688 207.625 C-46.497 193.303 -43.623 179.217 -40 165.191 C-38.797 160.333 -37.905 155.421 -37 150.5 C-35.629 143.043 -33.978 135.764 -32.066 128.426 C-30.412 121.81 -29.189 115.093 -27.926 108.394 C-26.59 101.456 -24.878 94.682 -23.021 87.867 C-21.504 82.124 -20.215 76.335 -18.936 70.535 C-15.402 54.537 -11.504 38.686 -7.149 22.891 C-5.527 16.999 -4.002 11.103 -2.641 5.145 C-2 3 -2 3 0 0 Z " fill="#FDFDFD" transform="translate(210,664)"/>
<path d="M0 0 C3.208 -0.03 6.417 -0.047 9.625 -0.062 C10.509 -0.071 11.394 -0.079 12.305 -0.088 C18.59 -0.11 24.79 0.237 31.056 0.717 C59.376 2.749 87.813 3.222 116.195 3.652 C118.483 3.687 120.771 3.725 123.058 3.762 C126.714 3.822 130.37 3.875 134.027 3.922 C136.011 3.948 137.996 3.98 139.981 4.012 C148.711 4.109 157.303 3.696 166 3 C167.534 7.469 168.608 11.781 169.438 16.438 C169.695 17.852 169.952 19.266 170.211 20.68 C170.341 21.395 170.471 22.11 170.604 22.847 C171.231 26.257 171.891 29.661 172.562 33.062 C172.791 34.229 173.019 35.396 173.254 36.598 C173.946 40.001 173.946 40.001 175.027 43.246 C176 47 176 47 177 58 C168.42 58 159.84 58 151 58 C151 57.34 151 56.68 151 56 C150.16 56.002 149.321 56.004 148.456 56.007 C68.035 56.209 68.035 56.209 31 55 C29.977 54.967 29.977 54.967 28.934 54.934 C17.255 54.562 5.64 54.037 -6 53 C-5.479 43.196 -4.588 33.452 -3.562 23.688 C-3.44 22.496 -3.318 21.305 -3.192 20.077 C-2.465 13.294 -1.493 6.658 0 0 Z " fill="#FCFCFC" transform="translate(260,801)"/>
<path d="M0 0 C8.672 5.606 11.781 19.021 14.301 28.57 C17.037 41.993 13.697 54.28 6.75 65.875 C-4.258 81.81 -23.076 93.391 -41.875 97.938 C-56.03 100.329 -73.993 101.873 -87 95 C-87.876 94.541 -87.876 94.541 -88.77 94.072 C-96.485 89.947 -103.327 85.327 -109.656 79.238 C-111.822 77.06 -111.822 77.06 -113.785 75.739 C-117.499 73.013 -119.396 71.095 -120.121 66.453 C-120.263 64.721 -120.367 62.986 -120.438 61.25 C-120.495 60.327 -120.552 59.404 -120.611 58.453 C-120.719 56.555 -120.811 54.655 -120.886 52.755 C-120.992 50.202 -121.164 47.662 -121.352 45.113 C-121.946 34.6 -120.237 26.71 -114 18 C-110.875 15.005 -108.815 13.439 -104.438 13.5 C-101.142 13.643 -100.186 13.864 -97.438 15.875 C-96 18 -96 18 -96 20 C-97.65 20.33 -99.3 20.66 -101 21 C-101.208 23.797 -101.208 23.797 -100 27 C-89.689 37.181 -71.683 41.468 -57.639 41.432 C-50.112 41.231 -43.837 39.117 -37 36 C-36.346 35.705 -35.692 35.411 -35.019 35.107 C-23.727 29.954 -11.265 24.234 -5 13 C-5 11.68 -5 10.36 -5 9 C-6.98 9 -8.96 9 -11 9 C-11.33 9.66 -11.66 10.32 -12 11 C-12.66 11 -13.32 11 -14 11 C-14 8.36 -14 5.72 -14 3 C-9.125 0.612 -5.55 -0.719 0 0 Z " fill="#FCFCFC" transform="translate(580,478)"/>
<path d="M0 0 C0.99 0 1.98 0 3 0 C2.67 20.46 2.34 40.92 2 62 C6.766 59.403 6.766 59.403 9.105 55.48 C9.444 54.795 9.782 54.109 10.131 53.403 C10.654 52.306 10.654 52.306 11.188 51.188 C17.115 39.444 26.363 21.7 39.297 16.734 C40.635 16.371 40.635 16.371 42 16 C42 19.613 41.304 20.208 39.062 22.938 C38.1 24.144 38.1 24.144 37.117 25.375 C35.706 27.125 34.294 28.875 32.883 30.625 C23.094 43.166 12.771 59.091 10 75 C15.672 75.426 19.165 74.281 23.875 71.312 C24.485 70.948 25.095 70.584 25.724 70.208 C27.491 69.153 29.247 68.08 31 67 C37.126 63.225 42.708 60.579 50 60 C50.66 60.33 51.32 60.66 52 61 C52 61.66 52 62.32 52 63 C51.352 63.347 50.703 63.693 50.035 64.051 C42.669 67.995 35.326 71.98 28 76 C27.192 76.442 26.384 76.883 25.552 77.338 C17.853 81.587 11.438 86.057 5.375 92.539 C2.157 95.873 -1.388 98.685 -5 101.578 C-32.06 123.423 -45.26 148.822 -58 181 C-69.453 178.74 -79.821 167.255 -86.234 158.141 C-87 156 -87 156 -86.367 153.703 C-85.916 152.811 -85.465 151.919 -85 151 C-84.451 149.855 -83.902 148.711 -83.336 147.531 C-83.022 146.888 -82.709 146.245 -82.385 145.583 C-77.583 135.686 -73.513 125.572 -69.798 115.22 C-69.161 113.449 -68.501 111.686 -67.832 109.926 C-59.772 85.82 -70.239 56.365 -77.23 33.164 C-77.93 30.286 -78.16 27.941 -78 25 C-74.047 25.586 -71.808 27.192 -69 30 C-67.022 33.5 -65.577 37.169 -64.37 41 C-62.609 46.562 -60.377 51.61 -57.625 56.75 C-57.251 57.478 -56.877 58.207 -56.492 58.957 C-54.182 63.316 -51.831 66.777 -48 70 C-43.187 71.038 -40.165 69.807 -36 67.5 C-25.589 60.723 -20.288 51.163 -17.422 39.2 C-16.66 35.228 -16.427 31.216 -16.125 27.188 C-15.481 19.832 -14.772 12.524 -11 6 C-10.01 5.34 -9.02 4.68 -8 4 C-8.071 5 -8.143 6 -8.217 7.031 C-8.97 18.221 -9.121 29.351 -9.062 40.562 C-9.057 42.268 -9.053 43.973 -9.049 45.678 C-9.038 49.785 -9.021 53.893 -9 58 C-7.68 58 -6.36 58 -5 58 C-5.016 56.938 -5.031 55.876 -5.048 54.781 C-5.103 50.754 -5.137 46.726 -5.165 42.698 C-5.18 40.972 -5.2 39.245 -5.226 37.518 C-5.657 8.486 -5.657 8.486 0 0 Z " fill="#8B8D8D" transform="translate(920,497)"/>
<path d="M0 0 C2.312 0.376 3.657 0.645 5.309 2.355 C11.202 11.92 14.108 22.32 15.97 33.283 C16.895 38.703 18.288 43.781 20 49 C23.3 49.33 26.6 49.66 30 50 C30.025 45.111 30.043 40.222 30.055 35.333 C30.06 33.676 30.067 32.019 30.075 30.362 C30.126 20.515 29.973 10.808 29 1 C32.377 2.397 34.106 3.866 36 7 C38.53 15.55 38.608 24.839 39.123 33.684 C39.943 45.632 42.495 57.689 50.562 66.938 C51.367 67.618 52.171 68.299 53 69 C53.598 69.619 54.196 70.238 54.812 70.875 C57.595 72.306 59.809 72.299 62.863 71.734 C70.911 68.968 74.719 61.525 78.704 54.571 C82.273 48.369 86.094 41.782 93 39 C93.99 39 94.98 39 96 39 C95.422 43.948 93.152 47.619 90.75 51.875 C86.462 59.718 83.517 67.404 81 76 C78.513 84.432 75.7 92.598 72.374 100.734 C66.913 114.304 68.125 128.51 73.806 141.9 C74.08 142.514 74.354 143.129 74.637 143.762 C76 147 76 147 76 150 C62.47 150 48.94 150 35 150 C31 141 31 141 29.141 136.57 C25.325 127.53 21.259 119.65 15 112 C8.061 103.384 2.406 94.213 -3.082 84.625 C-11.673 69.68 -19.124 59.279 -33.84 50.031 C-37 48 -37 48 -39 46 C-39 44.68 -39 43.36 -39 42 C-26.655 43.937 -15.992 52.12 -8.348 61.617 C-6.956 63.248 -6.956 63.248 -4.188 64 C-3.466 64 -2.744 64 -2 64 C-1.67 63.67 -1.34 63.34 -1 63 C-1.054 53.057 -2.478 43.283 -3.977 33.477 C-4.895 27.284 -5.396 21.267 -5 15 C-2 16 -2 16 -0.719 18.301 C3.295 28.22 5.822 38.064 7.473 48.625 C8.016 51.07 8.642 52.895 10 55 C10.99 55.33 11.98 55.66 13 56 C10.478 39.371 7.353 22.851 0.859 7.262 C-0.112 4.706 -0.155 2.711 0 0 Z " fill="#8D8E8E" transform="translate(148,345)"/>
<path d="M0 0 C0.652 3.144 1.296 6.291 1.938 9.438 C2.12 10.316 2.302 11.194 2.49 12.1 C3.323 16.202 4.066 20.239 4.441 24.41 C4.779 27.752 5.42 30.865 6.273 34.113 C8.594 43.009 10.262 52.043 12.017 61.064 C12.626 64.192 13.242 67.318 13.859 70.443 C14.253 72.456 14.646 74.468 15.039 76.48 C15.221 77.403 15.404 78.325 15.591 79.275 C16.542 84.191 17.259 89.058 17.766 94.039 C18.064 96.539 18.639 98.896 19.312 101.32 C21.601 110.089 23.253 118.987 25 127.875 C25.686 131.352 26.374 134.828 27.062 138.305 C27.312 139.569 27.312 139.569 27.567 140.859 C28.524 145.676 29.525 150.48 30.574 155.277 C32.038 162.028 33.253 168.816 34.448 175.618 C37.191 191.188 40.456 206.591 44 222 C46.319 232.245 48.208 242.552 50.087 252.885 C51.424 260.141 52.926 267.319 54.691 274.481 C55.633 278.328 56.4 282.149 57 286.062 C57.677 290.419 58.632 294.61 59.75 298.875 C61.681 306.32 63.295 313.83 64.837 321.364 C65.241 323.333 65.655 325.299 66.069 327.265 C69.117 342.362 69.117 342.362 68 348 C65.808 350.697 63.793 351.65 60.5 352.688 C59.727 352.939 58.953 353.19 58.156 353.449 C56 354 56 354 53 354 C51.306 347.093 49.813 340.199 48.625 333.188 C46.169 318.778 43.096 304.464 39.742 290.238 C38.238 283.675 36.894 277.076 35.521 270.485 C35.006 268.029 34.485 265.575 33.961 263.121 C32.358 255.595 30.807 248.072 29.438 240.5 C28.645 236.125 27.74 231.836 26.5 227.562 C25.189 223.027 24.337 218.464 23.562 213.812 C22.619 208.148 21.467 202.615 20 197.062 C18.313 190.656 17.162 184.256 16.145 177.713 C15.237 172.035 13.949 166.534 12.483 160.978 C11.033 155.388 10.026 149.769 9.074 144.076 C8.379 139.975 7.552 135.966 6.5 131.938 C5.054 126.391 3.984 120.807 2.953 115.172 C1.784 108.789 0.566 102.415 -0.659 96.043 C-0.926 94.65 -1.192 93.257 -1.456 91.864 C-1.834 89.876 -2.216 87.889 -2.598 85.902 C-2.93 84.162 -2.93 84.162 -3.27 82.386 C-4.028 78.87 -5.002 75.455 -6 72 C-6.278 70.667 -6.533 69.329 -6.746 67.984 C-6.86 67.296 -6.973 66.608 -7.09 65.9 C-7.205 65.19 -7.319 64.481 -7.438 63.75 C-8.259 58.853 -9.159 54.083 -10.562 49.312 C-11.683 45.458 -12.367 41.732 -12.875 37.75 C-13.876 29.998 -15.582 22.435 -17.324 14.819 C-17.539 13.866 -17.755 12.912 -17.977 11.93 C-18.173 11.076 -18.37 10.223 -18.573 9.343 C-19 7 -19 7 -19 3 C-12.749 1.295 -6.51 0 0 0 Z " fill="#F8F8F9" transform="translate(391,504)"/>
<path d="M0 0 C4.177 1.748 8.367 3.446 12.586 5.09 C40.18 15.846 40.18 15.846 44.402 19.66 C45.215 23.367 45.215 23.367 45.402 26.66 C38.003 32.942 26.039 33.064 16.706 34.392 C4.273 36.201 -8.078 38.656 -20.371 41.244 C-37.193 44.762 -50.312 40.437 -65.66 33.473 C-66.729 32.994 -67.797 32.515 -68.898 32.021 C-71.077 31.043 -73.256 30.063 -75.433 29.08 C-78.429 27.736 -81.436 26.421 -84.449 25.117 C-86.228 24.34 -88.007 23.563 -89.785 22.785 C-90.592 22.441 -91.398 22.096 -92.229 21.741 C-97.05 19.61 -100.704 17.224 -104.598 13.66 C-104.24 11.064 -103.88 9.914 -101.902 8.137 C-76.489 -8.145 -27.272 -11.508 0 0 Z " fill="#FBFBFB" transform="translate(647.59765625,894.33984375)"/>
<path d="M0 0 C1.706 6.286 1.059 12.529 -1.5 18.5 C-7.947 24.947 -19.494 25.417 -28.188 27 C-28.894 27.13 -29.6 27.261 -30.328 27.395 C-42.503 29.64 -54.694 31.616 -67 33 C-67.659 33.08 -68.317 33.161 -68.996 33.244 C-83.31 34.98 -97.466 35.319 -111.875 35.25 C-112.989 35.248 -114.103 35.245 -115.251 35.243 C-136.64 35.188 -157.737 34.448 -178.948 31.526 C-183.321 30.942 -187.705 30.484 -192.094 30.035 C-193.654 29.873 -195.214 29.711 -196.773 29.549 C-199.153 29.302 -201.534 29.059 -203.915 28.825 C-206.267 28.593 -208.618 28.347 -210.969 28.098 C-211.673 28.032 -212.377 27.966 -213.103 27.898 C-217.95 27.369 -221.652 26.076 -226 24 C-226.055 22.5 -226.093 21 -226.125 19.5 C-226.148 18.665 -226.171 17.829 -226.195 16.969 C-225.943 13.135 -224.963 9.72 -224 6 C-222.84 6.193 -221.68 6.387 -220.485 6.586 C-209.267 8.426 -198.064 9.896 -186.75 11 C-185.918 11.082 -185.086 11.165 -184.229 11.25 C-154.356 14.184 -124.038 17.014 -94 16 C-93.275 15.985 -92.55 15.969 -91.803 15.953 C-70.927 15.494 -49.998 12.03 -29.456 8.437 C-28.051 8.191 -26.644 7.95 -25.238 7.714 C-16.251 6.189 -8.25 3.899 0 0 Z " fill="#FAFAFA" transform="translate(368,921)"/>
<path d="M0 0 C6.106 3.479 12.837 8.176 15.016 15.207 C15.114 15.778 15.212 16.349 15.312 16.938 C11.809 16.609 9.502 15.527 6.625 13.625 C-4.048 6.813 -14.114 5.475 -26.551 7.375 C-36.147 9.824 -47.387 16.685 -52.75 25.125 C-57.853 34.042 -59.643 44.658 -60.188 54.812 C-60.716 64.213 -63.785 73.289 -70.688 79.938 C-73.426 81.841 -76.197 83.56 -79.102 85.199 C-82.541 87.511 -84.836 90.234 -86.688 93.938 C-87.051 100.159 -86.063 105.346 -84.375 111.312 C-84.148 112.157 -83.921 113.001 -83.687 113.871 C-82.573 117.968 -81.34 121.952 -79.875 125.938 C-75.857 139.347 -78.224 153.779 -84.688 165.938 C-92.261 178.668 -101.654 184.821 -114.673 190.982 C-125.554 196.14 -133.371 201.105 -137.688 212.938 C-138.558 216.276 -139.151 219.521 -139.688 222.938 C-143.647 222.938 -147.608 222.938 -151.688 222.938 C-152.493 210.852 -148.29 201.192 -140.688 191.938 C-139.862 190.924 -139.862 190.924 -139.02 189.891 C-134.874 185.315 -130.179 182.276 -124.938 179.125 C-109.508 169.785 -97.604 157.247 -93 139.25 C-92.107 129.786 -92.938 122.004 -95.688 112.938 C-98.226 103.275 -99.846 93.004 -94.958 83.919 C-92.826 80.594 -90.16 77.905 -87.375 75.125 C-77.966 65.353 -71.505 55.765 -69.75 42.188 C-68.225 30.677 -64.866 22.066 -57.688 12.938 C-56.924 11.886 -56.161 10.834 -55.375 9.75 C-40.446 -5.873 -19.311 -9.6 0 0 Z " fill="#F8F8F8" transform="translate(516.6875,274.0625)"/>
<path d="M0 0 C8.353 7.129 16.374 16.777 18.148 27.895 C18.265 30.205 18.323 32.519 18.336 34.832 C18.35 36.017 18.364 37.201 18.379 38.422 C18.147 41.912 17.404 44.645 16.148 47.895 C15.818 47.895 15.488 47.895 15.148 47.895 C15.054 46.297 15.054 46.297 14.957 44.668 C13.661 27.825 7.298 15.561 -5.672 4.316 C-18.043 -4.449 -34.197 -6.482 -48.852 -6.105 C-50.014 -6.08 -50.014 -6.08 -51.199 -6.055 C-67.77 -4.971 -83.699 5.09 -94.852 16.895 C-100.375 23.366 -105.309 30.317 -109.891 37.48 C-115.327 44.173 -122.394 48.786 -129.664 53.27 C-130.509 53.802 -131.354 54.334 -132.225 54.883 C-138.42 58.751 -138.42 58.751 -141.852 59.895 C-142.569 61.201 -143.228 62.54 -143.852 63.895 C-144.961 65.427 -146.087 66.947 -147.227 68.457 C-150.913 73.665 -153.005 78.824 -154.852 84.895 C-155.107 85.557 -155.363 86.22 -155.627 86.902 C-158.451 94.812 -158.091 102.628 -157.852 110.895 C-157.454 124.6 -157.787 135.188 -167.473 145.754 C-168.411 146.718 -169.35 147.682 -170.289 148.645 C-177.09 155.816 -181.89 163.525 -182.062 173.629 C-182.091 174.761 -182.119 175.893 -182.148 177.059 C-182.2 179.433 -182.245 181.808 -182.281 184.184 C-182.54 193.705 -184.095 199.593 -190.562 206.734 C-193.316 209.333 -196.304 211.536 -199.352 213.77 C-205.185 218.096 -209.285 222.481 -212.852 228.895 C-213.356 229.704 -213.86 230.514 -214.379 231.348 C-219.818 241.654 -218.297 253.585 -217.852 264.895 C-219.832 264.895 -221.812 264.895 -223.852 264.895 C-226.412 260.389 -226.196 256.406 -226.164 251.332 C-226.16 250.433 -226.156 249.534 -226.151 248.608 C-226.039 241.991 -225.341 236.079 -222.852 229.895 C-222.585 229.196 -222.318 228.497 -222.043 227.777 C-217.981 218.497 -210.429 212.392 -202.515 206.494 C-196.299 201.82 -191.922 197.583 -189.852 189.895 C-189.675 187.537 -189.59 185.172 -189.578 182.809 C-189.558 181.452 -189.537 180.095 -189.516 178.738 C-189.493 176.63 -189.477 174.522 -189.471 172.413 C-189.42 161.609 -188.502 154.379 -180.914 146.145 C-180.219 145.389 -179.524 144.634 -178.809 143.855 C-176.852 141.895 -176.852 141.895 -174.102 139.77 C-170.996 137.181 -169.713 134.489 -167.852 130.895 C-167.489 130.249 -167.127 129.604 -166.753 128.939 C-165.755 126.675 -165.606 125.147 -165.612 122.684 C-165.608 121.862 -165.605 121.04 -165.601 120.193 C-165.605 119.311 -165.609 118.429 -165.613 117.52 C-165.598 115.628 -165.582 113.736 -165.564 111.844 C-165.548 108.88 -165.539 105.916 -165.546 102.952 C-165.561 86.949 -163.688 75.985 -153.852 62.895 C-153.425 62.303 -152.998 61.711 -152.559 61.102 C-146.563 53.418 -138.055 48.017 -129.602 43.395 C-120.799 38.353 -116.111 31.455 -110.977 22.957 C-100.205 5.216 -83.877 -4.429 -64.305 -10.141 C-42.662 -15.221 -18.256 -13.479 0 0 Z " fill="#F3F3F3" transform="translate(540.8515625,232.10546875)"/>
<path d="M0 0 C4.177 1.748 8.367 3.446 12.586 5.09 C40.18 15.846 40.18 15.846 44.402 19.66 C45.215 23.367 45.215 23.367 45.402 26.66 C38.003 32.942 26.039 33.064 16.706 34.392 C4.273 36.201 -8.078 38.656 -20.371 41.244 C-37.193 44.762 -50.312 40.437 -65.66 33.473 C-66.729 32.994 -67.797 32.515 -68.898 32.021 C-71.077 31.043 -73.256 30.063 -75.433 29.08 C-78.429 27.736 -81.436 26.421 -84.449 25.117 C-86.228 24.34 -88.007 23.563 -89.785 22.785 C-90.592 22.441 -91.398 22.096 -92.229 21.741 C-97.05 19.61 -100.704 17.224 -104.598 13.66 C-104.24 11.064 -103.88 9.914 -101.902 8.137 C-76.489 -8.145 -27.272 -11.508 0 0 Z M-75.151 7.962 C-78.342 8.872 -81.549 9.617 -84.785 10.348 C-85.892 10.599 -87 10.85 -88.141 11.109 C-88.951 11.291 -89.762 11.473 -90.598 11.66 C-90.598 12.32 -90.598 12.98 -90.598 13.66 C-80.446 18.653 -70.127 23.265 -59.726 27.712 C-58.36 28.298 -56.996 28.888 -55.634 29.484 C-40.156 36.241 -29.545 35.51 -13.223 32.348 C-11.491 32.021 -9.759 31.697 -8.027 31.373 C-5.504 30.901 -2.981 30.428 -0.459 29.949 C4.962 28.92 10.39 27.964 15.836 27.078 C19.782 26.435 23.717 25.735 27.652 25.035 C28.409 24.901 29.166 24.767 29.945 24.629 C31.764 24.307 33.583 23.983 35.402 23.66 C32.378 21.185 29.453 19.714 25.824 18.285 C24.745 17.857 23.666 17.429 22.555 16.988 C21.432 16.55 20.309 16.112 19.152 15.66 C18.045 15.222 16.938 14.784 15.797 14.332 C10.019 12.051 4.23 9.81 -1.598 7.66 C-2.63 7.269 -2.63 7.269 -3.683 6.87 C-27.122 -1.876 -51.357 1.144 -75.151 7.962 Z " fill="#0D0D0E" transform="translate(647.59765625,894.33984375)"/>
<path d="M0 0 C0.66 0.33 1.32 0.66 2 1 C2 1.66 2 2.32 2 3 C9.341 5.258 16.33 6.57 24 7 C22.085 20.134 19.318 33.057 16.426 46.004 C16.274 46.684 16.122 47.364 15.966 48.065 C15.549 49.933 15.129 51.8 14.708 53.667 C14.051 56.761 13.52 59.88 13 63 C-2.18 63 -17.36 63 -33 63 C-28.505 51.762 -28.505 51.762 -26.441 48.09 C-25.979 47.257 -25.517 46.424 -25.041 45.566 C-24.553 44.699 -24.065 43.831 -23.562 42.938 C-18.316 33.482 -13.285 23.93 -8.365 14.301 C-5.81 9.332 -3.243 4.553 0 0 Z " fill="#FCFCFC" transform="translate(144,792)"/>
<path d="M0 0 C0.495 1.485 0.495 1.485 1 3 C-0.188 5.207 -0.188 5.207 -2 7.812 C-4.918 12.172 -7.282 16.52 -9.5 21.25 C-12.277 26.915 -14.991 31.145 -20 35 C-20.519 35.429 -21.039 35.859 -21.574 36.301 C-26.829 40.004 -32.82 39.911 -39 39 C-49.594 35.447 -54.999 26.327 -60.5 17.25 C-60.958 16.505 -61.416 15.759 -61.888 14.991 C-62.307 14.277 -62.725 13.564 -63.156 12.828 C-63.536 12.188 -63.916 11.547 -64.307 10.888 C-65.18 8.511 -64.944 7.324 -64 5 C-61.381 3.69 -59.082 3.59 -56.164 3.281 C-54.964 3.154 -53.764 3.027 -52.527 2.896 C-50.596 2.7 -50.596 2.7 -48.625 2.5 C-47.314 2.366 -46.003 2.232 -44.652 2.094 C-29.78 0.606 -14.948 -0.246 0 0 Z " fill="#0D0D0D" transform="translate(548,426)"/>
<path d="M0 0 C0.498 8.816 -0.96 16.65 -3.062 25.188 C-3.38 26.51 -3.696 27.832 -4.013 29.155 C-6.501 39.44 -9.397 49.591 -12.445 59.723 C-13.793 64.224 -14.975 68.742 -16.062 73.312 C-17.636 79.814 -19.582 86.136 -21.644 92.498 C-23.937 99.634 -25.92 106.839 -27.82 114.088 C-29.042 118.697 -30.386 123.219 -31.93 127.73 C-34.29 134.692 -36.148 141.764 -38 148.875 C-39.954 156.333 -41.919 163.781 -44.062 171.188 C-45.87 177.465 -47.49 183.77 -49 190.125 C-49.255 191.197 -49.51 192.269 -49.772 193.373 C-56.14 220.435 -58.416 246.291 -59 274 C-59.99 274 -60.98 274 -62 274 C-64.428 266.375 -64.437 258.823 -64.438 250.875 C-64.44 250.158 -64.442 249.44 -64.444 248.701 C-64.432 224.763 -59.128 201.628 -53.062 178.562 C-52.669 177.061 -52.669 177.061 -52.268 175.53 C-50.281 167.988 -48.181 160.488 -46 153 C-45.261 150.422 -44.525 147.844 -43.789 145.266 C-43.007 142.523 -42.222 139.781 -41.438 137.039 C-40.597 134.098 -39.763 131.156 -38.938 128.211 C-37.37 122.634 -35.721 117.097 -33.941 111.585 C-30.127 99.764 -26.934 87.802 -23.749 75.799 C-22.583 71.443 -21.339 67.113 -20.09 62.781 C-16.223 49.367 -12.37 35.956 -9.125 22.375 C-8.922 21.529 -8.719 20.684 -8.51 19.812 C-7.436 15.221 -6.59 10.679 -6 6 C-6.964 5.89 -7.928 5.781 -8.922 5.668 C-10.185 5.509 -11.448 5.351 -12.75 5.188 C-14.003 5.037 -15.256 4.886 -16.547 4.73 C-19.91 4.019 -21.51 3.295 -24 1 C-15.983 -0.125 -8.079 -0.096 0 0 Z " fill="#EDEDED" transform="translate(638,580)"/>
<path d="M0 0 C5.75 1.875 5.75 1.875 8 3 C9.736 3.242 11.479 3.434 13.224 3.601 C14.323 3.708 15.423 3.815 16.556 3.926 C17.76 4.039 18.963 4.153 20.203 4.27 C22.078 4.451 22.078 4.451 23.991 4.636 C26.68 4.896 29.369 5.155 32.058 5.411 C36.243 5.811 40.427 6.218 44.61 6.626 C45.646 6.727 45.646 6.727 46.703 6.83 C48.096 6.966 49.489 7.102 50.882 7.238 C54.338 7.575 57.794 7.911 61.25 8.247 C62.564 8.374 63.877 8.502 65.23 8.634 C67.625 8.866 70.02 9.099 72.414 9.331 C78.053 9.879 83.691 10.434 89.327 11.006 C90.939 11.168 92.551 11.327 94.164 11.482 C96.355 11.693 98.545 11.915 100.734 12.141 C102.532 12.319 102.532 12.319 104.366 12.501 C105.235 12.666 106.105 12.83 107 13 C107.495 13.99 107.495 13.99 108 15 C83.641 20.391 59.011 25.275 34 26 C32.367 26.098 30.734 26.197 29.102 26.297 C14.907 26.972 14.907 26.972 10.25 22.875 C9.159 21.59 8.075 20.299 7 19 C5.673 18.115 4.34 17.24 3 16.375 C0.359 14.195 0.028 13.207 -0.434 9.734 C-0.437 6.46 -0.305 3.259 0 0 Z " fill="#F7F7F7" transform="translate(252,904)"/>
<path d="M0 0 C4.329 8.3 5.285 16.307 5.312 25.562 C5.32 26.873 5.32 26.873 5.329 28.211 C5.196 40.648 2.661 52.575 -6.473 61.582 C-8.947 63.911 -11.483 66.158 -14.051 68.383 C-17.439 71.389 -17.889 71.846 -18.312 76.25 C-18.29 80.245 -17.26 83.512 -16.012 87.293 C-13.891 94.548 -13.385 101.47 -13.479 109.014 C-13.5 111.066 -13.479 113.114 -13.453 115.166 C-13.423 129.731 -16.965 141.906 -27.125 152.438 C-29.536 154.834 -30.733 155.911 -34 157 C-38 146.5 -38 146.5 -37 141 C-35.422 138.936 -33.683 137.115 -31.883 135.242 C-28.601 131.334 -26.819 126.728 -25 122 C-24.63 121.063 -24.26 120.126 -23.879 119.16 C-22.838 115.416 -22.7 111.915 -22.75 108.062 C-22.754 107.32 -22.758 106.578 -22.762 105.813 C-22.837 100.881 -23.29 96.131 -24 91.25 C-26.374 74.451 -23.623 65.221 -13.938 51.625 C-3.491 36.326 -1.177 18.059 0 0 Z " fill="#F4F4F4" transform="translate(453,449)"/>
<path d="M0 0 C11.963 15.293 17.311 36.223 21.625 54.812 C23.998 64.614 28.571 71.211 35.938 77.938 C47.166 88.701 51.891 99.176 53.875 114.562 C55.423 125.089 59.56 131.649 68 138 C68.928 138.681 69.856 139.361 70.812 140.062 C73.48 142.425 74.648 144.727 76 148 C76 148.66 76 149.32 76 150 C66.651 148.606 57.228 143.448 51.332 136.09 C47.138 129.509 46.259 123.845 45.5 116.188 C44.197 101.842 44.197 101.842 36.812 89.875 C36.018 89.04 35.224 88.204 34.406 87.344 C32.269 85.262 30.089 83.301 27.812 81.375 C19.377 74.217 15.381 65.922 13.312 55.188 C10.421 41.217 6.003 27.517 1.266 14.07 C0.157 10.77 -0.336 7.95 -0.188 4.438 C-0.16 3.591 -0.133 2.744 -0.105 1.871 C-0.053 0.945 -0.053 0.945 0 0 Z " fill="#F2F2F2" transform="translate(613,354)"/>
<path d="M0 0 C0 4.05 -1.854 6.619 -3.875 10 C-4.306 10.728 -4.738 11.457 -5.182 12.207 C-9.901 20.045 -15.021 27.617 -20.127 35.205 C-26.259 44.321 -32.128 53.554 -37.772 62.981 C-39.022 65.036 -40.307 67.065 -41.605 69.09 C-58.889 96.033 -64.659 121.299 -67 153 C-73.727 142.909 -70.725 123.765 -68.676 112.195 C-68.453 111.141 -68.23 110.086 -68 109 C-67.767 107.842 -67.533 106.685 -67.293 105.492 C-59.587 72.345 -34.164 41.774 -13 16 C-11.876 14.616 -10.752 13.232 -9.629 11.848 C-6.423 7.895 -3.213 3.947 0 0 Z " fill="#F1F1F1" transform="translate(796,669)"/>
<path d="M0 0 C0.33 0 0.66 0 1 0 C1.99 5.61 2.98 11.22 4 17 C-11.738 26.808 -28.426 34.479 -47.41 30.238 C-50.369 29.311 -53.167 28.257 -56 27 C-56.992 26.567 -56.992 26.567 -58.004 26.125 C-60.315 24.878 -61.756 23.568 -62.797 21.145 C-63.843 17.377 -64.068 13.907 -64 10 C-63.357 10.447 -62.714 10.895 -62.051 11.355 C-52.141 17.985 -41.282 24.111 -29 22 C-16.948 18.72 -9.055 10.821 -1.277 1.434 C-0.856 0.961 -0.434 0.487 0 0 Z " fill="#888989" transform="translate(556,482)"/>
<path d="M0 0 C0.66 0.33 1.32 0.66 2 1 C2 1.66 2 2.32 2 3 C1.374 2.977 0.747 2.954 0.102 2.93 C-0.716 2.912 -1.533 2.894 -2.375 2.875 C-3.593 2.84 -3.593 2.84 -4.836 2.805 C-7.213 2.786 -7.213 2.786 -9 5 C-9 12.789 -6.464 17.732 -2 24 C-1.518 24.679 -1.036 25.359 -0.539 26.059 C7.494 36.191 23.966 47.904 37 50 C39.082 50.067 41.167 50.085 43.25 50.062 C44.328 50.053 45.405 50.044 46.516 50.035 C47.335 50.024 48.155 50.012 49 50 C49.354 44.101 49.084 40.219 46 35 C45.315 33.341 44.641 31.677 44 30 C48.852 31.906 51.03 35.475 53.75 39.75 C55.316 43.82 55.838 47.685 55 52 C53.43 53.917 52.217 54.891 50 56 C33.863 57.334 17.907 51.379 5 42 C4.367 41.551 3.734 41.103 3.082 40.641 C-5.931 33.628 -12.944 22.965 -16 12 C-16.505 6.79 -16.505 6.79 -14.785 4.102 C-10.001 0.001 -6.256 -1.007 0 0 Z " fill="#EEEEEE" transform="translate(830,638)"/>
<path d="M0 0 C1.98 0 3.96 0 6 0 C6 1.65 6 3.3 6 5 C6.722 5.041 7.444 5.082 8.188 5.125 C12.269 6.395 13.485 8.577 16 12 C17.751 15.503 17.556 19.178 17 23 C15.322 26.705 13.171 29.252 9.75 31.438 C5.183 32.372 0.411 33.328 -3.844 30.984 C-6.964 28.445 -9.73 25.821 -10.336 21.73 C-10.425 15.946 -9.973 12.525 -6 8 C-2.6 5 -2.6 5 0 5 C0 3.35 0 1.7 0 0 Z " fill="#E8E8E9" transform="translate(593,431)"/>
<path d="M0 0 C3.402 0 5.993 0.068 8.578 2.461 C12.53 8.025 13.063 13.362 12 20 C9.424 29.623 5.373 37.179 -2.812 43 C-5 44 -5 44 -7 44 C-6.756 39.526 -6.48 35.056 -6.175 30.586 C-6.053 28.784 -5.935 26.982 -5.821 25.18 C-5.628 22.243 -5.41 19.309 -5.188 16.375 C-5.13 15.44 -5.072 14.504 -5.012 13.541 C-4.551 7.855 -3.636 4.44 0 0 Z " fill="#848687" transform="translate(591,371)"/>
<path d="M0 0 C1.925 2.888 2.338 4.016 2.824 7.297 C2.962 8.161 3.1 9.026 3.242 9.916 C3.389 10.851 3.536 11.787 3.688 12.75 C5.573 23.888 8.675 34.409 12.111 45.151 C13.569 49.823 14.873 54.536 16.188 59.25 C17.933 65.463 19.821 71.54 22.121 77.574 C24.189 83.283 26 88.91 26 95 C23.69 95 21.38 95 19 95 C10.625 78.102 7.772 58.523 4.078 40.188 C3.431 36.998 2.731 33.84 1.922 30.688 C0.175 23.701 -0.126 17.293 -0.062 10.125 C-0.058 9.15 -0.053 8.176 -0.049 7.172 C-0.037 4.781 -0.021 2.391 0 0 Z " fill="#EAEAEA" transform="translate(604,482)"/>
<path d="M0 0 C6.323 2.531 12.712 5.216 16.57 11.004 C16.82 13.566 16.82 13.566 16.57 16.004 C15.91 16.664 15.25 17.324 14.57 18.004 C11.386 17.708 8.639 17.029 5.629 15.949 C-0.673 14.125 -7.497 15.004 -13.977 15.258 C-15.018 15.28 -16.06 15.302 -17.133 15.324 C-18.078 15.358 -19.023 15.392 -19.997 15.426 C-22.43 15.004 -22.43 15.004 -24.222 13.164 C-25.949 10.075 -26.128 8.493 -25.43 5.004 C-20.109 -3.765 -8.648 -2.512 0 0 Z " fill="#050506" transform="translate(546.4296875,334.99609375)"/>
<path d="M0 0 C4.597 2.407 8.172 5.645 11 10 C10.688 12.25 10.688 12.25 10 14 C8.68 13.01 7.36 12.02 6 11 C5.464 11.804 4.928 12.609 4.375 13.438 C2 16 2 16 -0.938 17.125 C-4 17 -4 17 -6.875 14.812 C-9 12 -9 12 -9 8 C-12.142 9.536 -15.086 11.057 -18 13 C-24.323 13.452 -24.323 13.452 -28 11 C-28 10.34 -28 9.68 -28 9 C-26.02 9 -24.04 9 -22 9 C-22.743 8.072 -22.743 8.072 -23.5 7.125 C-25 5 -25 5 -25 3 C-23.824 3.248 -22.649 3.495 -21.438 3.75 C-17.299 4.294 -15.423 3.23 -11.91 0.949 C-8.06 -0.964 -4.142 -0.867 0 0 Z " fill="#090809" transform="translate(485,366)"/>
<path d="M0 0 C0.99 0 1.98 0 3 0 C6.244 6.488 4.371 15.585 2.258 22.249 C1.573 24.282 0.882 26.313 0.191 28.344 C-1.24 32.737 -2 36.385 -2 41 C-0.075 43.475 0.641 43.944 3.812 44.438 C7.143 44.238 7.143 44.238 9.812 41.938 C14.326 39.194 16.889 40.071 22 41 C21.01 38.36 20.02 35.72 19 33 C21.438 33.375 21.438 33.375 24 34 C25.399 36.799 25.253 38.905 25 42 C24 43.875 24 43.875 22 45 C19.988 45 17.975 44.993 15.965 44.906 C13.816 44.843 13.816 44.843 11.688 46.5 C7.318 48.939 2.876 48.746 -2 48 C-5.188 46.125 -5.188 46.125 -7 43 C-8.403 36.137 -6.204 30.245 -4.02 23.801 C-2.549 18.319 -2.072 12.827 -1.596 7.184 C-1.081 1.081 -1.081 1.081 0 0 Z " fill="#0E0E0E" transform="translate(504,368)"/>
<path d="M0 0 C3.293 1.654 6.273 3.512 9 6 C9 6.66 9 7.32 9 8 C10.65 7.34 12.3 6.68 14 6 C14.688 7.75 14.688 7.75 15 10 C13.562 12.25 13.562 12.25 12 14 C9.562 13.188 9.562 13.188 7 12 C6.67 11.01 6.34 10.02 6 9 C5.34 9 4.68 9 4 9 C2.657 10.993 1.324 12.994 0 15 C-3.242 17.161 -4.237 17.642 -8 17 C-10.107 14.776 -11.633 12.735 -13 10 C-13.619 10.495 -14.237 10.99 -14.875 11.5 C-17 13 -17 13 -19 13 C-19.057 10.167 -19.034 8.578 -18 6 C-13.065 0.933 -6.999 -1.843 0 0 Z " fill="#080708" transform="translate(546,366)"/>
<path d="M0 0 C-1.49 4.187 -3.847 5.299 -7.75 7.188 C-9.289 7.951 -9.289 7.951 -10.859 8.73 C-19.276 12.133 -30.686 12.819 -39.125 9.25 C-42.271 7.61 -44.727 5.767 -47 3 C-42.56 1.951 -38.133 1.693 -33.594 1.465 C-32.39 1.4 -32.39 1.4 -31.162 1.335 C-29.472 1.245 -27.78 1.157 -26.089 1.07 C-23.509 0.938 -20.928 0.8 -18.348 0.662 C-16.701 0.575 -15.053 0.489 -13.406 0.402 C-12.638 0.362 -11.871 0.321 -11.079 0.279 C-7.382 0.091 -3.702 -0.047 0 0 Z " fill="#EEEFEF" transform="translate(540,431)"/>
<path d="M0 0 C3.76 2.232 7.454 4.552 11.133 6.914 C16.1 9.803 21.437 9.64 27 9 C32.585 7.201 37.775 4.643 43 2 C41.653 7.988 38.418 11.916 34 16 C28.588 19.268 23.19 20.02 17 19 C9.34 15.95 3.703 9.201 0 2 C0 1.34 0 0.68 0 0 Z " fill="#767779" transform="translate(492,441)"/>
<path d="M0 0 C2.794 1.217 3.795 2.38 5.305 5.004 C5.85 10 5.404 13.019 2.305 17.004 C-0.04 19.349 -1.343 19.944 -4.633 20.504 C-8.706 19.839 -10.098 18.121 -12.695 15.004 C-14.461 11.472 -13.601 7.743 -12.695 4.004 C-9.183 -1.775 -6.006 -1.305 0 0 Z " fill="#070707" transform="translate(600.6953125,439.99609375)"/>
<path d="M0 0 C10.054 4.084 16.511 17.032 20.562 26.562 C21.841 29.84 22.142 32.484 22 36 C19.424 34.712 19.352 33.769 18.312 31.125 C13.808 20.709 7.046 9.427 -4 5 C-6.188 4.65 -6.188 4.65 -8.438 4.688 C-9.179 4.671 -9.92 4.654 -10.684 4.637 C-14.433 5.225 -16.933 6.576 -19.239 9.653 C-20.494 11.633 -21.665 13.642 -22.812 15.688 C-23.219 16.389 -23.626 17.091 -24.045 17.814 C-25.041 19.537 -26.022 21.268 -27 23 C-27.99 22.67 -28.98 22.34 -30 22 C-28.181 18.269 -26.203 14.628 -24.188 11 C-23.857 10.384 -23.526 9.768 -23.186 9.133 C-17.61 -0.84 -10.559 -1.561 0 0 Z " fill="#E8E8E8" transform="translate(584,272)"/>
<path d="M0 0 C-0.369 2.418 -0.59 3.66 -2.507 5.25 C-8.805 8.391 -14.267 8.503 -21.197 8.4 C-25.585 8.46 -27.409 8.53 -30.957 11.348 C-32.371 13.183 -33.715 15.073 -35 17 C-35.99 17 -36.98 17 -38 17 C-38.424 12.76 -38.438 10.017 -35.75 6.688 C-32.049 3.071 -29.529 1.778 -24.375 1.656 C-23.504 1.627 -22.632 1.597 -21.734 1.566 C-19 1.5 -19 1.5 -16.266 1.434 C-15.394 1.404 -14.523 1.374 -13.625 1.344 C-12.438 1.316 -12.438 1.316 -11.227 1.287 C-0.395 -0.11 -0.395 -0.11 0 0 Z " fill="#101011" transform="translate(544,799)"/>
<path d="M0 0 C0.33 0 0.66 0 1 0 C1.392 11.649 0.21 20.499 -7 30 C-11.212 34.375 -15.653 38.091 -21 41 C-21.66 41 -22.32 41 -23 41 C-23.5 37.875 -23.5 37.875 -23 34 C-21.535 32.621 -21.535 32.621 -19.562 31.312 C-8.422 23.8 -3.962 12.245 0 0 Z " fill="#EFEFEF" transform="translate(444,582)"/>
<path d="M0 0 C0.66 0.33 1.32 0.66 2 1 C1.175 1.887 0.35 2.774 -0.5 3.688 C-12.38 17.651 -16.383 31.917 -17.75 49.75 C-17.875 51.237 -18.001 52.724 -18.129 54.211 C-18.435 57.806 -18.722 61.402 -19 65 C-19.66 64.67 -20.32 64.34 -21 64 C-21.1 59.681 -21.172 55.362 -21.22 51.042 C-21.24 49.579 -21.267 48.116 -21.302 46.653 C-21.644 31.962 -19.353 19.277 -9.199 8 C-6.333 5.054 -3.409 2.318 0 0 Z " fill="#E8E8E8" transform="translate(741,731)"/>
<path d="M0 0 C17.557 -1.283 17.557 -1.283 24.984 5.008 C25.65 5.665 26.315 6.323 27 7 C27.603 7.575 28.207 8.15 28.828 8.742 C33.474 13.636 36.146 19.199 36.188 26 C36.126 26.99 36.064 27.98 36 29 C35.01 29 34.02 29 33 29 C32.625 28.203 32.25 27.407 31.863 26.586 C26.611 15.711 21.287 8.02 9.527 3.734 C6.365 2.757 3.201 1.841 0 1 C0 0.67 0 0.34 0 0 Z " fill="#F1F1F1" transform="translate(506,258)"/>
<path d="M0 0 C0.66 0 1.32 0 2 0 C2.928 2.785 3.131 4.482 3.145 7.36 C3.155 8.678 3.155 8.678 3.165 10.021 C3.166 10.968 3.167 11.915 3.168 12.891 C3.171 13.869 3.175 14.847 3.178 15.854 C3.183 17.925 3.185 19.997 3.185 22.068 C3.187 25.224 3.206 28.379 3.225 31.535 C3.228 33.549 3.23 35.564 3.23 37.578 C3.238 38.517 3.245 39.456 3.252 40.423 C3.234 45.678 2.721 50.026 1 55 C0.34 54.67 -0.32 54.34 -1 54 C-1.025 46.631 -1.043 39.262 -1.055 31.893 C-1.06 29.385 -1.067 26.876 -1.075 24.368 C-1.088 20.769 -1.093 17.169 -1.098 13.57 C-1.103 12.443 -1.108 11.316 -1.113 10.155 C-1.113 9.114 -1.113 8.073 -1.114 7 C-1.116 6.081 -1.118 5.162 -1.12 4.215 C-1 2 -1 2 0 0 Z " fill="#171617" transform="translate(508,725)"/>
<path d="M0 0 C13.769 -0.859 13.769 -0.859 18 1.875 C21.959 5.401 24.932 10.152 27 15 C27.16 17.812 27.16 17.812 27 20 C25.347 17.875 23.972 15.941 22.812 13.5 C18.875 8.069 12.436 6.663 6.121 5.438 C3.328 4.861 0.681 3.962 -2 3 C-1.34 2.67 -0.68 2.34 0 2 C0 1.34 0 0.68 0 0 Z " fill="#EAEBEB" transform="translate(575,328)"/>
<path d="M0 0 C7.37 4.63 14.656 11.179 18.676 18.969 C18.863 22.281 18.863 22.281 18.676 24.969 C16.621 22.408 14.577 19.842 12.562 17.25 C5.272 7.777 5.272 7.777 -5.324 2.969 C-11.327 2.664 -16.518 3.463 -22.324 4.969 C-16.611 -1.119 -7.805 -3.463 0 0 Z " fill="#E1E1E1" transform="translate(587.32421875,304.03125)"/>
<path d="M0 0 C3.762 0.253 5.534 0.544 8.273 3.223 C8.967 4.16 9.66 5.097 10.375 6.062 C14.261 11.116 18.384 15.611 23 20 C15.537 20 9.029 11.264 4.102 6.367 C2.245 4.276 1.073 2.558 0 0 Z " fill="#E5E5E6" transform="translate(687,511)"/>
<path d="M0 0 C1.65 0 3.3 0 5 0 C6.564 3.129 6.28 5.527 6 9 C4.882 11.798 3.514 14.397 2 17 C1.34 17 0.68 17 0 17 C0.144 16.175 0.289 15.35 0.438 14.5 C1.053 10.673 1.536 6.848 2 3 C1.34 3 0.68 3 0 3 C0 2.01 0 1.02 0 0 Z " fill="#0D0D0E" transform="translate(591,383)"/>
<path d="M0 0 C7.92 0 15.84 0 24 0 C23 2 23 2 20.688 3.125 C14.609 4.567 7.833 5.438 2.129 2.543 C1.426 2.034 0.724 1.525 0 1 C0 0.67 0 0.34 0 0 Z " fill="#CFCFCE" transform="translate(502,444)"/>
<path d="M0 0 C10.744 -0.86 10.744 -0.86 14.625 2.25 C16.877 4.857 17.385 5.801 18 9 C17.539 8.651 17.077 8.301 16.602 7.941 C11.139 4.131 6.613 3.149 0 3 C0 2.01 0 1.02 0 0 Z " fill="#E2E2E2" transform="translate(578,345)"/>
<path d="M0 0 C4.894 2.117 7.968 5.691 11 10 C11.938 13.5 11.938 13.5 12 16 C11.34 16 10.68 16 10 16 C8.633 14.172 8.633 14.172 7.125 11.75 C5.402 9.055 3.897 6.897 1.625 4.625 C1.089 4.089 0.553 3.553 0 3 C0 2.01 0 1.02 0 0 Z " fill="#0F0F0F" transform="translate(904,568)"/>
<path d="M0 0 C0.99 0 1.98 0 3 0 C2.598 1.145 2.598 1.145 2.188 2.312 C0.625 7.165 -0.686 12.076 -2 17 C-2.66 17 -3.32 17 -4 17 C-4.574 10.115 -3.475 5.973 0 0 Z " fill="#121212" transform="translate(186,419)"/>
<path d="M0 0 C1.32 0.33 2.64 0.66 4 1 C1.36 5.29 -1.28 9.58 -4 14 C-4.99 13.67 -5.98 13.34 -7 13 C-5.543 10.032 -3.988 7.136 -2.375 4.25 C-1.929 3.451 -1.483 2.652 -1.023 1.828 C-0.686 1.225 -0.348 0.622 0 0 Z " fill="#D5D6D7" transform="translate(561,281)"/>
<path d="M0 0 C-1.787 1.506 -3.58 3.005 -5.375 4.5 C-6.872 5.753 -6.872 5.753 -8.398 7.031 C-11 9 -11 9 -13 9 C-11.818 4.404 -9.513 2.514 -5.852 -0.18 C-3.51 -1.217 -2.365 -0.844 0 0 Z " fill="#141414" transform="translate(170,415)"/>
<path d="M0 0 C0.66 0 1.32 0 2 0 C3.382 2.765 3.095 5.046 3.062 8.125 C3.053 9.221 3.044 10.316 3.035 11.445 C3.024 12.288 3.012 13.131 3 14 C2.01 14.33 1.02 14.66 0 15 C0 10.05 0 5.1 0 0 Z " fill="#0E0E0E" transform="translate(887,572)"/>
<path d="M0 0 C2.375 0.312 2.375 0.312 5 1 C7.29 4.435 7.178 5.985 7 10 C6.34 10 5.68 10 5 10 C3.333 6.667 1.667 3.333 0 0 Z " fill="#111110" transform="translate(548,421)"/>
<path d="M0 0 C0 4.246 -1.818 6.385 -4 10 C-4.66 9.67 -5.32 9.34 -6 9 C-4.473 5.564 -2.401 2.881 0 0 Z " fill="#C2C2C1" transform="translate(796,669)"/>
<path d="M0 0 C-0.33 0.66 -0.66 1.32 -1 2 C-3.066 2.633 -3.066 2.633 -5.562 3.125 C-6.389 3.293 -7.215 3.46 -8.066 3.633 C-8.704 3.754 -9.343 3.875 -10 4 C-4.637 -1.546 -4.637 -1.546 0 0 Z " fill="#D3D4D3" transform="translate(575,305)"/>
</svg>