<svg version="1.1" xmlns="http://www.w3.org/2000/svg" width="1024" height="1024">
<path d="M0 0 C337.92 0 675.84 0 1024 0 C1024 337.92 1024 675.84 1024 1024 C686.08 1024 348.16 1024 0 1024 C0 686.08 0 348.16 0 0 Z " fill="#FEFEFE" transform="translate(0,0)"/>
<path d="M0 0 C9.573 3.274 16.363 13.275 20.812 21.812 C28.315 37.824 30.272 53.586 31 71 C31.583 70.432 32.165 69.863 32.766 69.277 C40.633 61.868 50.391 53.408 61.809 53.598 C66.751 54.505 70.439 57.839 73.32 61.828 C76.102 66.897 77.117 72.332 78 78 C78.424 77.31 78.848 76.621 79.285 75.91 C89.264 59.923 101.926 43.205 121 38 C127.193 36.874 132.103 38.25 137.574 41.254 C145.215 46.753 150.924 55.851 153 65 C153.926 63.26 153.926 63.26 154.871 61.484 C166.611 39.699 181.102 20.08 205 11 C210.157 10.223 214.591 10.374 219.375 12.5 C228.916 21.587 231.927 35.406 232.266 48.166 C232.314 51.302 232.324 54.437 232.316 57.574 C232.313 59.968 232.336 62.36 232.361 64.754 C232.417 78.426 231.09 92.067 226.551 105.055 C225.818 107.304 225.818 107.304 226 111 C226.643 110.443 227.286 109.886 227.949 109.312 C247.567 92.745 270.844 80.495 297 82 C302.966 83.127 308.036 87.562 312 92 C316.711 99.505 316.412 109.689 314.511 118.187 C313.106 122.983 311.147 127.496 309 132 C308.188 133.733 308.188 133.733 307.359 135.5 C302.249 145.624 293.538 159.731 283 165 C280.128 165.096 277.28 165.13 274.407 165.12 C273.057 165.122 273.057 165.122 271.68 165.123 C268.646 165.124 265.612 165.119 262.578 165.114 C260.41 165.113 258.242 165.113 256.074 165.114 C250.174 165.114 244.273 165.108 238.373 165.101 C232.212 165.095 226.052 165.095 219.891 165.093 C208.218 165.09 196.545 165.082 184.872 165.072 C171.585 165.061 158.299 165.055 145.013 165.05 C117.675 165.04 90.338 165.022 63 165 C62.67 163.68 62.34 162.36 62 161 C61.34 161 60.68 161 60 161 C59.67 162.32 59.34 163.64 59 165 C57.845 165.004 57.845 165.004 56.667 165.007 C37.912 165.066 19.157 165.142 0.402 165.236 C-8.667 165.281 -17.737 165.32 -26.807 165.346 C-34.714 165.369 -42.622 165.403 -50.529 165.449 C-54.714 165.473 -58.899 165.491 -63.084 165.498 C-67.028 165.504 -70.972 165.524 -74.915 165.554 C-76.358 165.563 -77.801 165.567 -79.243 165.565 C-87.091 165.558 -93.735 165.947 -101 169 C-108.709 171.503 -116.41 171.351 -124.438 171.312 C-125.149 171.312 -125.861 171.311 -126.595 171.31 C-151.511 171.243 -151.511 171.243 -160.028 166.987 C-164.514 165.497 -168.939 165.509 -173.64 165.364 C-174.732 165.325 -175.824 165.287 -176.949 165.248 C-190.629 164.833 -204.31 165.001 -217.993 165.139 C-222.866 165.187 -227.738 165.218 -232.611 165.245 C-233.442 165.25 -234.272 165.255 -235.128 165.26 C-236.822 165.269 -238.516 165.279 -240.21 165.288 C-251.511 165.352 -262.81 165.424 -274.11 165.549 C-281.799 165.633 -289.488 165.689 -297.178 165.712 C-301.227 165.725 -305.275 165.753 -309.324 165.815 C-313.116 165.874 -316.906 165.894 -320.699 165.887 C-322.084 165.89 -323.469 165.908 -324.854 165.94 C-335.286 166.173 -335.286 166.173 -339.564 163.245 C-341.567 161.259 -343.29 159.238 -345 157 C-345.825 156.196 -346.65 155.391 -347.5 154.562 C-361.821 139.883 -372.493 123.464 -372.273 102.449 C-371.76 95.978 -369.392 92.042 -364.688 87.688 C-358.556 82.506 -352.378 81.465 -344.625 81.562 C-343.747 81.572 -342.868 81.582 -341.963 81.592 C-320.199 82.172 -300.578 91.669 -283 104 C-282.205 104.553 -281.409 105.106 -280.59 105.676 C-279.046 106.765 -277.52 107.878 -276 109 C-276.254 108.198 -276.508 107.396 -276.77 106.57 C-281.523 90.869 -283.288 76.003 -283.375 59.625 C-283.387 58.528 -283.387 58.528 -283.399 57.409 C-283.5 45.271 -283.052 32.799 -275 23 C-270.676 19.078 -267.725 17.449 -261.758 17.535 C-248.728 19.731 -237.645 31.083 -229.941 41.152 C-222.88 51.511 -214.222 66.11 -215 79 C-214.34 79 -213.68 79 -213 79 C-212.756 78.306 -212.513 77.613 -212.262 76.898 C-205.822 62.105 -194.897 53.158 -181 46 C-174.312 43.771 -169.218 44.56 -162.938 47.438 C-150.527 54.248 -144.562 66.422 -139.781 79.277 C-138.915 82.295 -138.851 84.876 -139 88 C-138.34 88 -137.68 88 -137 88 C-136.615 86.668 -136.615 86.668 -136.223 85.309 C-131.718 73.118 -120.172 65.81 -109.09 60.262 C-92.932 53.664 -75.692 56.574 -60.062 63.125 C-49.944 67.571 -41.414 73.885 -33 81 C-33.144 80.352 -33.289 79.703 -33.438 79.035 C-37.741 56.291 -36.634 31.039 -24.062 11.062 C-17.757 2.091 -10.93 -1.297 0 0 Z " fill="#282325" transform="translate(542,573)"/>
<path d="M0 0 C7.689 3.349 10.974 12.722 14 20 C16.116 26.386 16.947 32.722 15.053 39.278 C11.841 50.631 11.6 62.528 11.625 74.25 C11.623 75.321 11.623 75.321 11.621 76.414 C11.623 86.806 12.435 96.635 15.125 106.711 C16 110 16 110 16 113 C35.14 113 54.28 113 74 113 C74.66 111.02 75.32 109.04 76 107 C77.377 103.651 78.883 100.361 80.375 97.062 C80.762 96.194 81.148 95.326 81.547 94.432 C85.43 85.812 89.293 79.143 96.312 72.688 C97.018 72.035 97.724 71.382 98.451 70.709 C105.152 64.643 112.229 59.592 120 55 C120.623 54.628 121.245 54.255 121.887 53.872 C134.603 46.369 148.971 40.695 164 42 C168.175 43.418 171.384 45.525 174.078 49.094 C177.185 55.519 175.033 62.61 172.875 69 C167.129 83.76 158.7 95.783 147.32 106.688 C144.877 108.97 144.877 108.97 143 112 C146.3 112.33 149.6 112.66 153 113 C153 113.33 153 113.66 153 114 C80.4 114 7.8 114 -67 114 C-67 113.67 -67 113.34 -67 113 C-63.04 113 -59.08 113 -55 113 C-55.66 111.371 -56.32 109.741 -57 108.062 C-64.291 84.236 -57.238 58.373 -45.966 37.044 C-37.527 21.965 -20.28 -4.785 0 0 Z " fill="#7DBC56" transform="translate(672,624)"/>
<path d="M0 0 C4.683 4.415 5.78 9.675 6.371 15.926 C7.157 43.839 -1.609 72.219 -14 97 C-10.04 97.33 -6.08 97.66 -2 98 C-2 98.33 -2 98.66 -2 99 C-51.5 99 -101 99 -152 99 C-152 98.67 -152 98.34 -152 98 C-141.44 97.67 -130.88 97.34 -120 97 C-123.63 94.03 -127.26 91.06 -131 88 C-132.141 84.576 -131.884 84.217 -130.562 81.062 C-127.677 72.73 -127.887 65.524 -131.75 57.562 C-134.772 51.953 -137.764 47.275 -143.5 44.25 C-144.253 43.843 -145.006 43.435 -145.781 43.016 C-153.111 39.66 -163.42 39.692 -171.133 41.895 C-172.772 42.587 -174.395 43.325 -175.984 44.125 C-178 45 -178 45 -182 45 C-184.797 43.688 -184.797 43.688 -187.75 42 C-188.735 41.443 -189.72 40.886 -190.734 40.312 C-191.482 39.879 -192.23 39.446 -193 39 C-192.622 28.986 -187.297 19.776 -180 13 C-170.813 5.344 -161.708 2.413 -149.812 2.5 C-148.902 2.505 -147.991 2.51 -147.053 2.515 C-138.585 2.731 -131.732 4.545 -124 8 C-122.614 8.599 -122.614 8.599 -121.199 9.211 C-100.367 19.396 -83.638 39.014 -72.75 59.062 C-72.367 59.752 -71.985 60.441 -71.59 61.152 C-68.066 67.935 -68.682 73.464 -70.438 80.812 C-71.737 86.545 -72.608 92.139 -73 98 C-70.69 98 -68.38 98 -66 98 C-66.034 96.846 -66.067 95.693 -66.102 94.504 C-66.096 90.134 -65.411 86.17 -64.375 81.938 C-64.197 81.203 -64.019 80.468 -63.835 79.711 C-55.842 48.272 -34.92 18.046 -7.289 0.996 C-4.633 -0.16 -2.867 -0.344 0 0 Z " fill="#7DBF57" transform="translate(603,639)"/>
<path d="M0 0 C0.89 -0.024 1.78 -0.049 2.697 -0.074 C8.345 -0.099 11.832 0.425 16.188 4.375 C17.918 6.879 17.918 6.879 19.375 9.938 C19.648 10.509 19.922 11.08 20.203 11.669 C24.492 20.874 28.228 30.351 32.027 39.766 C32.444 40.797 32.86 41.829 33.289 42.892 C34.188 45.375 34.188 45.375 34.188 47.375 C34.847 47.375 35.507 47.375 36.188 47.375 C36.336 46.831 36.484 46.287 36.637 45.726 C38.745 38.339 41.434 31.21 44.266 24.078 C45.066 22.053 45.847 20.022 46.629 17.99 C47.145 16.684 47.662 15.379 48.18 14.074 C48.637 12.907 49.095 11.74 49.566 10.538 C51.917 5.952 54.936 3.209 59.188 0.375 C62.276 -0.076 65.382 0.005 68.5 0 C69.342 -0.024 70.185 -0.049 71.053 -0.074 C76.565 -0.1 79.948 0.514 84.188 4.375 C87.136 9.115 87.629 13.214 87.607 18.672 C87.616 19.482 87.624 20.293 87.633 21.128 C87.656 23.794 87.657 26.459 87.656 29.125 C87.663 30.985 87.671 32.846 87.679 34.706 C87.693 38.6 87.694 42.493 87.688 46.387 C87.683 51.37 87.713 56.353 87.754 61.336 C87.779 65.176 87.782 69.016 87.779 72.856 C87.78 74.693 87.79 76.53 87.808 78.368 C87.83 80.938 87.82 83.507 87.803 86.078 C87.816 86.833 87.829 87.587 87.843 88.364 C87.751 94.137 86.149 96.479 82.188 100.375 C78.727 102.105 74.971 101.859 71.188 101.375 C67.689 99.261 66.482 98.258 65.188 94.375 C65.099 92.427 65.07 90.476 65.074 88.527 C65.074 86.725 65.074 86.725 65.074 84.887 C65.079 83.59 65.085 82.293 65.09 80.957 C65.092 79.616 65.093 78.275 65.094 76.934 C65.098 73.408 65.108 69.882 65.119 66.355 C65.129 62.756 65.134 59.156 65.139 55.557 C65.149 48.496 65.166 41.436 65.188 34.375 C64.528 34.375 63.868 34.375 63.188 34.375 C63.045 34.902 62.902 35.429 62.755 35.971 C60.525 43.81 57.646 51.37 54.682 58.954 C53.809 61.196 52.955 63.444 52.102 65.693 C51.54 67.136 50.978 68.578 50.414 70.02 C50.04 71.017 50.04 71.017 49.659 72.034 C47.686 76.986 45.056 80.941 40.188 83.375 C38.234 83.613 38.234 83.613 35.938 83.688 C34.816 83.744 34.816 83.744 33.672 83.801 C30.069 83.183 27.669 82.006 25.188 79.375 C23.029 75.671 21.431 71.776 19.812 67.812 C19.382 66.797 18.951 65.782 18.508 64.736 C17.336 61.965 16.181 59.188 15.032 56.407 C13.316 52.277 11.574 48.157 9.836 44.035 C9.137 42.376 8.438 40.718 7.74 39.059 C7.228 37.843 6.715 36.628 6.188 35.375 C6.184 36.101 6.18 36.827 6.176 37.574 C6.139 44.431 6.082 51.286 6.004 58.142 C5.964 61.666 5.932 65.19 5.917 68.715 C5.898 72.771 5.848 76.827 5.797 80.883 C5.796 82.142 5.794 83.402 5.793 84.7 C5.608 95.811 5.608 95.811 1.188 100.375 C-2.863 101.725 -6.582 102.065 -10.812 101.375 C-13.812 98.938 -13.812 98.938 -15.812 96.375 C-16.142 96.045 -16.473 95.715 -16.812 95.375 C-16.929 92.699 -16.981 90.048 -16.99 87.37 C-16.996 86.531 -17.003 85.692 -17.009 84.828 C-17.029 82.037 -17.041 79.247 -17.051 76.457 C-17.055 75.506 -17.059 74.554 -17.063 73.574 C-17.084 68.536 -17.098 63.497 -17.108 58.459 C-17.119 53.254 -17.153 48.05 -17.193 42.846 C-17.219 38.846 -17.227 34.846 -17.231 30.845 C-17.236 28.927 -17.247 27.009 -17.266 25.091 C-17.29 22.402 -17.289 19.715 -17.282 17.027 C-17.295 16.236 -17.308 15.446 -17.321 14.632 C-17.272 9.438 -16.249 6.491 -12.812 2.375 C-8.58 -0.447 -4.978 0.007 0 0 Z " fill="#292428" transform="translate(397.8125,443.625)"/>
<path d="M0 0 C1.838 -0.016 3.675 -0.044 5.513 -0.082 C18.728 -0.357 30.057 0.048 40.911 8.6 C47.403 14.872 51.538 21.394 51.816 30.508 C51.951 40.62 50.796 47.379 43.973 55.225 C42.736 56.277 42.736 56.277 41.473 57.35 C40.143 58.495 40.143 58.495 38.786 59.663 C36.473 61.35 36.473 61.35 34.473 61.35 C37.157 66.5 39.925 71.545 43.063 76.432 C43.512 77.132 43.961 77.832 44.423 78.553 C45.318 79.938 46.221 81.317 47.133 82.69 C49.629 86.555 51.234 89.63 51.473 94.35 C50.211 97.436 49.187 98.91 46.348 100.663 C42.399 101.607 38.484 102.16 34.473 101.35 C30.284 98.494 27.815 95.185 25.302 90.87 C24.934 90.256 24.566 89.643 24.187 89.011 C23.023 87.067 21.873 85.115 20.723 83.163 C19.557 81.201 18.387 79.242 17.217 77.282 C16.492 76.066 15.77 74.849 15.05 73.63 C13.48 70.829 13.48 70.829 11.473 68.35 C9.29 68.115 7.101 67.936 4.911 67.788 C3.115 67.662 3.115 67.662 1.282 67.534 C0.355 67.473 -0.572 67.413 -1.527 67.35 C-1.511 68.142 -1.495 68.934 -1.479 69.749 C-1.417 73.345 -1.378 76.941 -1.339 80.538 C-1.314 81.783 -1.289 83.029 -1.263 84.313 C-1.253 85.515 -1.244 86.717 -1.234 87.956 C-1.218 89.061 -1.202 90.166 -1.186 91.304 C-1.57 94.739 -2.495 96.583 -4.527 99.35 C-8.51 102.03 -12.886 102.186 -17.527 101.35 C-20.282 99.169 -21.962 97.478 -23.527 94.35 C-23.646 91.636 -23.705 88.947 -23.719 86.232 C-23.728 85.393 -23.736 84.554 -23.744 83.689 C-23.769 80.904 -23.786 78.119 -23.8 75.334 C-23.805 74.384 -23.811 73.433 -23.816 72.454 C-23.843 67.422 -23.862 62.39 -23.877 57.358 C-23.893 52.162 -23.938 46.966 -23.989 41.769 C-24.023 37.773 -24.034 33.777 -24.04 29.781 C-24.047 27.866 -24.062 25.951 -24.086 24.035 C-24.117 21.352 -24.118 18.67 -24.11 15.986 C-24.127 15.197 -24.143 14.408 -24.16 13.596 C-24.114 9.541 -23.704 7.078 -21.115 3.873 C-15.549 -1.552 -7.374 0.048 0 0 Z " fill="#292428" transform="translate(318.526611328125,443.64990234375)"/>
<path d="M0 0 C6.4 3.848 8.21 8.758 10.277 15.691 C11.328 18.803 12.505 21.758 13.786 24.779 C17.798 34.358 21.39 44.092 24.995 53.83 C25.875 56.198 26.762 58.563 27.657 60.925 C28.962 64.372 30.243 67.827 31.52 71.285 C31.919 72.328 32.319 73.371 32.731 74.446 C35.123 81.021 36.641 87.292 35.5 94.312 C33.298 97.209 31.714 98.705 28.5 100.312 C24.221 100.825 20.625 100.837 16.688 99 C13.296 94.834 10.5 88.793 10.5 83.312 C-2.37 83.643 -15.24 83.972 -28.5 84.312 C-30.975 90.253 -30.975 90.253 -33.5 96.312 C-37.5 100.312 -37.5 100.312 -39.902 100.879 C-46.779 100.868 -46.779 100.868 -50.5 98 C-54.051 93.229 -55.309 90.235 -54.5 84.312 C-53.969 82.616 -53.38 80.938 -52.748 79.276 C-52.202 77.823 -52.202 77.823 -51.646 76.341 C-51.268 75.342 -50.89 74.342 -50.5 73.312 C-49.796 71.385 -49.095 69.457 -48.397 67.528 C-46.404 62.048 -44.407 56.569 -42.41 51.09 C-41.556 48.746 -40.703 46.401 -39.851 44.057 C-37.091 36.466 -34.31 28.884 -31.5 21.312 C-31.195 20.486 -30.891 19.659 -30.577 18.807 C-29.802 16.715 -29.01 14.63 -28.211 12.547 C-27.799 11.461 -27.387 10.375 -26.962 9.257 C-24.925 5.154 -22.364 1.602 -18.547 -1.039 C-12.637 -2.911 -5.618 -2.608 0 0 Z " fill="#292428" transform="translate(704.5,444.6875)"/>
<path d="M0 0 C6.142 2.737 8.914 7.289 11.297 13.484 C11.859 15.047 12.414 16.612 12.961 18.18 C13.578 19.9 14.195 21.62 14.812 23.34 C15.114 24.188 15.416 25.037 15.728 25.911 C16.893 29.161 18.112 32.389 19.336 35.617 C22.344 43.599 25.276 51.609 28.211 59.617 C28.565 60.583 28.565 60.583 28.926 61.569 C30.061 64.665 31.194 67.761 32.323 70.859 C33.138 73.082 33.962 75.302 34.796 77.518 C35.159 78.486 35.521 79.455 35.895 80.453 C36.212 81.291 36.53 82.13 36.857 82.994 C38.4 87.887 38.114 91.805 36.398 96.68 C34.225 99.827 33.305 100.496 29.586 101.305 C26.491 101.716 23.669 101.859 20.586 101.305 C17.312 98.797 14.93 96.224 13.586 92.305 C13.091 88.345 13.091 88.345 12.586 84.305 C-0.614 84.305 -13.814 84.305 -27.414 84.305 C-28.404 87.935 -29.394 91.565 -30.414 95.305 C-32.657 98.809 -33.482 99.994 -37.414 101.305 C-42.155 101.771 -45.059 102.043 -48.852 98.992 C-52.392 95.279 -52.679 92.52 -52.606 87.475 C-52.286 83.859 -51.118 80.672 -49.844 77.293 C-49.571 76.538 -49.298 75.784 -49.017 75.006 C-48.12 72.538 -47.205 70.078 -46.289 67.617 C-45.658 65.896 -45.027 64.174 -44.397 62.451 C-42.752 57.967 -41.089 53.489 -39.421 49.013 C-38.423 46.33 -37.431 43.644 -36.441 40.958 C-34.868 36.692 -33.286 32.429 -31.695 28.169 C-31.095 26.562 -30.497 24.954 -29.901 23.345 C-29.067 21.098 -28.223 18.855 -27.375 16.613 C-27.134 15.959 -26.893 15.304 -26.644 14.63 C-21.795 1.938 -13.581 -3.912 0 0 Z " fill="#292428" transform="translate(251.4140625,443.6953125)"/>
<path d="M0 0 C1.205 -0.016 2.41 -0.032 3.651 -0.048 C4.949 -0.054 6.247 -0.059 7.584 -0.065 C8.934 -0.074 10.284 -0.083 11.634 -0.092 C14.461 -0.109 17.288 -0.116 20.115 -0.119 C23.731 -0.125 27.346 -0.162 30.962 -0.208 C33.749 -0.238 36.536 -0.245 39.324 -0.246 C41.303 -0.252 43.282 -0.282 45.261 -0.311 C55.248 -0.261 55.248 -0.261 58.344 2.685 C61.044 6.895 60.771 10.477 60.026 15.306 C57.999 19.82 57.999 19.82 55.026 21.306 C53.483 21.396 51.937 21.424 50.392 21.42 C49.431 21.42 48.471 21.42 47.481 21.42 C46.441 21.415 45.401 21.409 44.33 21.404 C43.268 21.403 42.205 21.401 41.11 21.4 C37.707 21.394 34.304 21.382 30.901 21.369 C28.597 21.364 26.294 21.359 23.99 21.355 C18.336 21.344 12.681 21.327 7.026 21.306 C7.026 27.246 7.026 33.186 7.026 39.306 C8.986 39.267 8.986 39.267 10.985 39.227 C15.84 39.136 20.695 39.079 25.55 39.032 C27.65 39.007 29.75 38.973 31.85 38.929 C34.871 38.868 37.891 38.84 40.912 38.818 C41.849 38.792 42.786 38.767 43.751 38.74 C48.373 38.738 50.352 38.778 54.095 41.712 C57.186 45.866 57.593 49.198 57.026 54.306 C54.887 58.876 54.887 58.876 52.026 60.306 C50.606 60.396 49.182 60.424 47.76 60.42 C46.438 60.42 46.438 60.42 45.091 60.42 C44.138 60.415 43.186 60.409 42.205 60.404 C41.232 60.403 40.258 60.401 39.254 60.4 C36.136 60.394 33.019 60.382 29.901 60.369 C27.79 60.364 25.679 60.359 23.569 60.355 C18.388 60.344 13.207 60.327 8.026 60.306 C8.026 66.576 8.026 72.846 8.026 79.306 C10.077 79.275 10.077 79.275 12.169 79.243 C17.247 79.17 22.326 79.125 27.404 79.087 C29.601 79.067 31.798 79.039 33.995 79.005 C37.155 78.956 40.315 78.933 43.475 78.916 C44.945 78.885 44.945 78.885 46.446 78.853 C50.833 78.852 53.315 78.871 57.123 81.206 C60.356 84.775 60.301 87.392 60.248 92.049 C59.946 95.109 58.961 96.941 57.026 99.306 C53.609 101.584 52.365 101.563 48.348 101.581 C47.184 101.591 46.019 101.6 44.819 101.61 C42.929 101.609 42.929 101.609 41.002 101.607 C39.062 101.614 39.062 101.614 37.083 101.62 C34.344 101.628 31.605 101.627 28.866 101.622 C25.364 101.616 21.861 101.633 18.359 101.656 C15.011 101.675 11.663 101.671 8.315 101.67 C6.432 101.683 6.432 101.683 4.511 101.698 C3.339 101.691 2.168 101.685 0.962 101.679 C-0.58 101.68 -0.58 101.68 -2.153 101.681 C-6.609 101.089 -10.161 98.79 -12.974 95.306 C-15.098 91.081 -15.276 87.16 -15.281 82.522 C-15.289 81.754 -15.297 80.986 -15.306 80.194 C-15.33 77.663 -15.339 75.131 -15.345 72.599 C-15.354 70.832 -15.364 69.065 -15.373 67.297 C-15.389 63.595 -15.397 59.892 -15.4 56.189 C-15.405 51.458 -15.443 46.727 -15.489 41.997 C-15.518 38.346 -15.526 34.696 -15.527 31.045 C-15.531 29.302 -15.543 27.558 -15.564 25.815 C-15.745 9.417 -15.745 9.417 -11.439 3.615 C-7.846 0.405 -4.738 0.048 0 0 Z " fill="#2A2429" transform="translate(842.974365234375,443.693603515625)"/>
<path d="M0 0 C1.225 -0.019 2.45 -0.038 3.712 -0.058 C5.031 -0.061 6.351 -0.065 7.711 -0.068 C9.084 -0.078 10.456 -0.088 11.828 -0.098 C14.702 -0.116 17.576 -0.122 20.45 -0.12 C24.127 -0.12 27.802 -0.161 31.479 -0.212 C34.313 -0.246 37.146 -0.252 39.98 -0.25 C41.992 -0.256 44.005 -0.288 46.017 -0.321 C54.899 -0.254 54.899 -0.254 57.882 1.735 C61.128 5.483 61.631 8.583 61.367 13.315 C60.72 16.48 59.253 18.253 56.934 20.436 C54.538 21.634 53.066 21.556 50.392 21.549 C49.452 21.549 48.511 21.549 47.541 21.549 C46.524 21.544 45.506 21.539 44.457 21.533 C43.417 21.532 42.377 21.531 41.305 21.529 C37.973 21.524 34.641 21.511 31.309 21.498 C29.054 21.493 26.798 21.489 24.543 21.485 C19.007 21.474 13.47 21.456 7.934 21.436 C7.934 27.376 7.934 33.316 7.934 39.436 C9.215 39.425 10.497 39.415 11.818 39.404 C16.574 39.368 21.33 39.345 26.086 39.326 C28.144 39.316 30.202 39.302 32.26 39.285 C35.219 39.261 38.178 39.249 41.137 39.24 C42.057 39.23 42.977 39.22 43.925 39.209 C44.785 39.209 45.646 39.209 46.532 39.209 C47.665 39.202 47.665 39.202 48.82 39.195 C51.292 39.477 52.836 40.105 54.934 41.436 C57.213 44.855 57.259 46.339 57.309 50.373 C57.337 51.414 57.366 52.454 57.395 53.526 C56.934 56.436 56.934 56.436 55.545 58.593 C51.48 61.462 47.552 60.93 42.699 60.826 C41.706 60.821 40.713 60.815 39.69 60.809 C36.521 60.787 33.353 60.737 30.184 60.686 C28.034 60.666 25.884 60.647 23.735 60.631 C18.467 60.59 13.202 60.512 7.934 60.436 C7.934 67.036 7.934 73.636 7.934 80.436 C9.397 80.41 10.861 80.383 12.368 80.356 C17.795 80.266 23.222 80.209 28.649 80.161 C30.999 80.136 33.348 80.102 35.697 80.059 C39.073 79.998 42.448 79.97 45.824 79.948 C46.876 79.922 47.927 79.896 49.01 79.869 C56.299 79.867 56.299 79.867 59.597 82.824 C61.642 86.819 61.593 90.057 60.934 94.436 C59.695 97.347 58.845 98.858 56.181 100.548 C53.409 101.643 51.215 101.697 48.235 101.71 C47.09 101.72 45.945 101.73 44.766 101.739 C43.534 101.738 42.301 101.738 41.031 101.737 C39.762 101.741 38.492 101.745 37.183 101.75 C34.498 101.755 31.812 101.757 29.126 101.751 C25.692 101.746 22.258 101.763 18.824 101.786 C15.539 101.804 12.254 101.8 8.969 101.799 C7.739 101.808 6.508 101.817 5.241 101.827 C4.093 101.821 2.945 101.815 1.762 101.808 C0.755 101.809 -0.252 101.809 -1.29 101.81 C-5.809 101.201 -8.354 99.247 -11.316 95.873 C-14.242 91.797 -14.225 88.766 -14.243 83.884 C-14.25 83.105 -14.256 82.326 -14.263 81.523 C-14.283 78.938 -14.294 76.353 -14.304 73.768 C-14.309 72.885 -14.313 72.002 -14.317 71.092 C-14.338 66.415 -14.352 61.739 -14.361 57.062 C-14.372 52.238 -14.407 47.414 -14.446 42.59 C-14.473 38.876 -14.481 35.163 -14.485 31.449 C-14.489 29.671 -14.501 27.893 -14.52 26.116 C-14.544 23.621 -14.543 21.129 -14.536 18.634 C-14.555 17.541 -14.555 17.541 -14.575 16.425 C-14.511 10.121 -12.605 6.028 -8.195 1.526 C-5.358 0.074 -3.184 0.034 0 0 Z " fill="#282227" transform="translate(585.066162109375,443.564208984375)"/>
<path d="M0 0 C0.935 0.519 1.869 1.039 2.832 1.574 C14.838 8.72 28.011 17.59 33 31 C34.28 33.714 35.643 36.386 37 39.062 C37.482 40.036 37.482 40.036 37.973 41.029 C40.501 46.123 43.23 51.014 46 56 C52.93 56 59.86 56 67 56 C67 56.66 67 57.32 67 58 C32.02 58 -2.96 58 -39 58 C-39 57.67 -39 57.34 -39 57 C-32.565 56.505 -32.565 56.505 -26 56 C-27.062 55.022 -28.124 54.043 -29.219 53.035 C-62.728 22.019 -62.728 22.019 -63.688 0.5 C-63.478 -3.082 -63.083 -5.651 -60.938 -8.562 C-43.952 -22.657 -16.513 -9.431 0 0 Z " fill="#7CBC56" transform="translate(244,680)"/>
<path d="M0 0 C3.33 2.176 6.182 4.363 8 8 C8.555 12.632 8.636 15.982 6.125 20 C3.478 22.491 2.51 22.939 -1.125 23.375 C-5.544 22.947 -7.461 21.664 -11.043 19.246 C-17.045 15.424 -24.114 15.341 -31 16 C-34.168 16.812 -34.168 16.812 -36 19 C-37.248 22.405 -37.248 22.405 -37 26 C-33.361 32.066 -23.987 33.797 -17.562 35.5 C-6.735 38.371 4.501 41.491 10.5 51.812 C10.995 52.864 11.49 53.916 12 55 C12.33 55.66 12.66 56.32 13 57 C14.207 75.223 14.207 75.223 9 83 C8.634 83.608 8.268 84.217 7.891 84.844 C3.136 91.535 -6.108 95.883 -13.941 97.672 C-28.041 99.185 -41.712 98.529 -53.688 90 C-54.817 89.028 -55.925 88.031 -57 87 C-58.237 85.855 -58.237 85.855 -59.5 84.688 C-61.67 80.799 -61.804 77.353 -61 73 C-59.206 70.13 -58.017 68.509 -55 67 C-49.678 66.397 -46.377 68.113 -42 70.875 C-34.445 75.543 -27.952 78.155 -19 77 C-13.575 75.143 -13.575 75.143 -10 71 C-9.96 68.667 -9.957 66.333 -10 64 C-14.771 61.08 -19.293 59.086 -24.688 57.562 C-37.705 53.661 -50.993 49.575 -58 37 C-61.232 30.284 -61.27 22.194 -59.125 15.109 C-54.625 5.458 -47.756 -0.045 -38 -4 C-25.618 -7.542 -11.436 -5.49 0 0 Z " fill="#292427" transform="translate(805,448)"/>
<path d="M0 0 C1.185 -0.019 2.369 -0.038 3.59 -0.058 C4.861 -0.061 6.132 -0.065 7.441 -0.068 C8.754 -0.078 10.067 -0.088 11.42 -0.098 C14.194 -0.116 16.967 -0.122 19.741 -0.12 C23.289 -0.12 26.836 -0.161 30.383 -0.212 C33.778 -0.254 37.172 -0.252 40.566 -0.256 C41.837 -0.277 43.108 -0.299 44.418 -0.321 C52.979 -0.254 52.979 -0.254 55.921 1.727 C58.546 4.748 59.692 7.527 59.629 11.498 C59.648 12.722 59.648 12.722 59.668 13.971 C58.651 17.744 57.121 19.07 54.004 21.436 C50.409 22.129 46.884 22.018 43.234 21.924 C42.198 21.917 41.162 21.91 40.095 21.903 C36.793 21.875 33.493 21.812 30.191 21.748 C27.95 21.723 25.708 21.7 23.467 21.68 C17.979 21.625 12.491 21.539 7.004 21.436 C7.004 27.706 7.004 33.976 7.004 40.436 C9.906 40.389 12.807 40.343 15.797 40.295 C18.613 40.264 21.43 40.24 24.246 40.216 C26.201 40.196 28.155 40.169 30.11 40.134 C32.922 40.085 35.734 40.063 38.547 40.045 C39.418 40.025 40.289 40.004 41.186 39.983 C45.328 39.981 47.445 40.086 51.032 42.335 C54.321 45.84 54.338 48.46 54.293 53.108 C53.852 56.659 52.324 58.785 50.004 61.436 C47.298 62.338 45.765 62.558 42.991 62.549 C42.191 62.549 41.39 62.549 40.565 62.549 C39.706 62.544 38.846 62.539 37.961 62.533 C37.077 62.532 36.194 62.531 35.283 62.529 C32.461 62.524 29.639 62.511 26.816 62.498 C24.903 62.493 22.99 62.489 21.076 62.485 C16.385 62.474 11.695 62.456 7.004 62.436 C7.025 63.409 7.046 64.383 7.067 65.386 C7.14 69.01 7.186 72.635 7.224 76.26 C7.244 77.827 7.271 79.393 7.306 80.959 C7.354 83.216 7.377 85.472 7.395 87.729 C7.415 88.425 7.436 89.121 7.457 89.838 C7.459 93.389 7.075 95.323 5.167 98.355 C1.798 101.596 -1.41 101.78 -5.996 101.721 C-9.2 101.264 -10.82 99.74 -12.996 97.436 C-15.548 93.689 -15.292 89.734 -15.287 85.366 C-15.293 84.556 -15.3 83.745 -15.307 82.911 C-15.326 80.234 -15.33 77.558 -15.332 74.881 C-15.338 73.018 -15.345 71.155 -15.352 69.291 C-15.364 65.386 -15.368 61.48 -15.367 57.575 C-15.366 52.576 -15.394 47.577 -15.428 42.578 C-15.451 38.73 -15.455 34.881 -15.453 31.033 C-15.456 29.19 -15.465 27.347 -15.48 25.504 C-15.5 22.924 -15.494 20.345 -15.482 17.764 C-15.493 17.007 -15.504 16.249 -15.516 15.469 C-15.455 10.306 -14.346 7.35 -10.996 3.436 C-7.328 0.582 -4.597 0.051 0 0 Z " fill="#292328" transform="translate(146.99609375,443.564208984375)"/>
<path d="M0 0 C0.66 0 1.32 0 2 0 C16.167 23.798 11.371 57.649 5.022 83.455 C0.302 101.791 -6.924 118.344 -19 133 C-19.581 133.904 -20.163 134.807 -20.762 135.738 C-23.051 138.824 -24.52 140.288 -28 142 C-35.608 143.075 -43.363 142.554 -51 142 C-48.567 134.459 -45.779 127.083 -42.938 119.688 C-38.648 108.474 -34.518 97.215 -30.525 85.891 C-28.723 80.79 -26.897 75.702 -24.975 70.645 C-20.519 58.915 -16.464 47.048 -12.375 35.188 C-11.245 31.913 -10.114 28.638 -8.982 25.364 C-8.284 23.345 -7.587 21.326 -6.891 19.307 C-4.66 12.847 -2.354 6.416 0 0 Z " fill="#FA5B42" transform="translate(754,595)"/>
<path d="M0 0 C10.077 7.085 16.33 19.048 18.789 30.934 C19.228 35.262 19.541 39.59 19.789 43.934 C18.99 43.948 18.191 43.962 17.367 43.977 C4.96 44.515 -4.071 47.933 -13.082 56.582 C-15.552 59.311 -17.503 62.084 -19.273 65.305 C-20.211 66.934 -20.211 66.934 -22.211 68.934 C-22.991 55.196 -20.939 42.78 -17.783 29.419 C-17.211 26.932 -16.7 24.438 -16.211 21.934 C-17.861 21.604 -19.511 21.274 -21.211 20.934 C-27.553 40.958 -28.623 59.645 -28.398 80.559 C-28.383 83.03 -28.37 85.501 -28.357 87.973 C-28.325 93.96 -28.275 99.947 -28.211 105.934 C-25.901 105.934 -23.591 105.934 -21.211 105.934 C-21.211 106.264 -21.211 106.594 -21.211 106.934 C-32.101 106.934 -42.991 106.934 -54.211 106.934 C-54.211 106.604 -54.211 106.274 -54.211 105.934 C-49.756 105.439 -49.756 105.439 -45.211 104.934 C-45.5 104.043 -45.788 103.152 -46.086 102.234 C-48.926 92.542 -49.623 83.208 -49.648 73.121 C-49.658 71.907 -49.668 70.692 -49.678 69.441 C-49.604 61.522 -48.452 54.515 -46.211 46.934 C-45.907 45.771 -45.603 44.608 -45.289 43.41 C-40.098 25.536 -30.795 10.502 -15.273 -0.066 C-10.102 -1.755 -5.037 -2.43 0 0 Z " fill="#7BBA54" transform="translate(375.2109375,631.06640625)"/>
<path d="M0 0 C11.555 7.045 16.677 21.237 19.977 33.684 C21.616 41.29 22.268 48.656 22.312 56.438 C22.318 57.254 22.324 58.07 22.329 58.91 C22.214 68.556 20.42 75.363 14.625 83.125 C13.656 84.459 12.69 85.795 11.727 87.133 C11.265 87.771 10.804 88.41 10.329 89.067 C8.351 91.943 6.677 94.94 5 98 C4.67 98 4.34 98 4 98 C3.996 97.369 3.993 96.737 3.989 96.087 C3.946 89.368 3.876 82.649 3.792 75.93 C3.765 73.44 3.743 70.95 3.729 68.46 C3.623 50.969 2.177 34.209 -1 17 C-2.65 16.67 -4.3 16.34 -6 16 C-5.552 23.312 -4.885 30.462 -3.5 37.66 C-2.034 47.449 -1.84 57.248 -1.87 67.125 C-1.875 69.233 -1.87 71.341 -1.863 73.449 C-1.859 83 -2.299 92.476 -3 102 C-3.66 102 -4.32 102 -5 102 C-21.347 80.953 -24.71 54.127 -21.684 28.3 C-20.091 19.041 -17.079 8.551 -10.125 1.875 C-6.199 -0.48 -4.502 -0.932 0 0 Z " fill="#79B853" transform="translate(540,585)"/>
<path d="M0 0 C0.99 0.33 1.98 0.66 3 1 C4.078 3.365 4.944 5.623 5.766 8.078 C6.032 8.844 6.298 9.61 6.573 10.399 C7.477 13.012 8.364 15.631 9.25 18.25 C9.89 20.113 10.53 21.977 11.171 23.84 C13.472 30.552 15.738 37.275 18 44 C18.344 45.023 18.344 45.023 18.696 46.068 C22.561 57.561 26.412 69.06 30.25 80.562 C30.506 81.331 30.763 82.099 31.027 82.89 C32.522 87.373 34.015 91.857 35.506 96.342 C35.963 97.72 36.421 99.097 36.88 100.474 C40.04 109.964 43.087 119.465 45.688 129.125 C45.939 130.056 46.19 130.986 46.449 131.945 C46.631 132.623 46.813 133.301 47 134 C43.7 134 40.4 134 37 134 C37 133.34 37 132.68 37 132 C36.12 131.588 36.12 131.588 35.223 131.168 C17.333 121.767 8.011 98.187 2.018 80.103 C-5.157 56.909 -11.283 22.566 0 0 Z " fill="#F95A43" transform="translate(274,604)"/>
<path d="M0 0 C-0.857 6.978 -2.692 13.217 -5.262 19.749 C-8.386 27.786 -11.03 35.987 -13.691 44.186 C-16.143 51.739 -18.76 59.123 -21.933 66.405 C-22.963 68.911 -23.768 71.394 -24.5 74 C-25.875 78.874 -27.82 83.413 -29.812 88.062 C-30.876 90.693 -31.731 93.272 -32.5 96 C-33.859 100.786 -35.716 105.269 -37.668 109.84 C-40.736 117.117 -43.546 124.493 -46 132 C-46.66 132 -47.32 132 -48 132 C-57.44 104.018 -53.29 70.44 -40.738 44.164 C-34.016 30.639 -17.347 0 0 0 Z " fill="#FB5A41" transform="translate(745,598)"/>
<path d="M0 0 C1.149 0.843 1.149 0.843 2.32 1.703 C5.54 4.103 5.54 4.103 9.508 3.953 C11.066 3.091 12.62 2.22 14.133 1.281 C20.41 -2.328 26.314 -2.536 33.445 -1.672 C40.49 0.263 44.916 3.926 49.258 9.766 C50.749 12.984 51.116 14.828 50.445 18.328 C47.488 21.539 45.662 22.192 41.328 22.676 C31.242 22.939 31.242 22.939 26.445 19.328 C25.133 16.641 25.133 16.641 24.445 14.328 C22.526 14.504 22.526 14.504 20.445 15.328 C18.947 17.272 18.947 17.272 17.695 19.641 C14.697 24.396 11.812 26.68 6.445 28.328 C1.322 29.309 -2.169 27.379 -6.512 24.84 C-8.527 23.349 -9.588 22.144 -10.867 20.016 C-11.424 19.129 -11.981 18.242 -12.555 17.328 C-13.875 17.328 -15.195 17.328 -16.555 17.328 C-16.785 17.871 -17.016 18.414 -17.254 18.973 C-17.743 20.046 -17.743 20.046 -18.242 21.141 C-18.555 21.848 -18.869 22.556 -19.191 23.285 C-20.979 25.964 -22.645 26.969 -25.555 28.328 C-31.394 29.295 -36.916 29.202 -42.055 26.078 C-43.243 25.19 -44.413 24.276 -45.555 23.328 C-46.4 22.709 -47.246 22.091 -48.117 21.453 C-49.555 19.328 -49.555 19.328 -49.68 16.141 C-47.352 8.251 -43.006 2.793 -35.977 -1.453 C-24.064 -7.448 -11.398 -7.459 0 0 Z " fill="#FB5942" transform="translate(412.5546875,690.671875)"/>
<path d="M0 0 C0.534 0.217 1.067 0.433 1.617 0.656 C9.875 3.742 17.415 3.493 26 2 C25.865 7.402 23.703 10.326 20.129 14.109 C7.694 25.153 -11.228 24.914 -26.909 24.211 C-61.116 21.872 -61.116 21.872 -71.375 10.938 C-73.04 7.928 -73.496 6.373 -73 3 C-70.69 3.866 -68.471 4.703 -66.379 6.023 C-59.968 9.911 -53.317 9.887 -46 9 C-43.165 7.977 -41.465 6.822 -39 5 C-37.129 3.719 -37.129 3.719 -35 3 C-32.66 3.898 -32.66 3.898 -30.062 5.375 C-23.682 8.467 -18.003 9.281 -11 8 C-6.692 5.99 -3.344 3.344 0 0 Z " fill="#F95A42" transform="translate(436,716)"/>
<path d="M0 0 C1.025 -0.016 2.05 -0.032 3.105 -0.049 C7.794 -0.093 12.483 -0.134 17.172 -0.157 C19.646 -0.174 22.121 -0.201 24.595 -0.239 C28.159 -0.294 31.722 -0.316 35.286 -0.331 C36.391 -0.353 37.497 -0.376 38.635 -0.399 C46.314 -0.378 46.314 -0.378 50.279 2.583 C53.004 6.534 52.859 9.57 52.079 14.193 C50.455 17.828 49.418 18.967 46.079 21.193 C43.822 21.48 43.822 21.48 41.152 21.531 C40.15 21.553 39.149 21.576 38.117 21.599 C37.036 21.611 35.955 21.622 34.841 21.634 C33.17 21.655 33.17 21.655 31.466 21.676 C29.108 21.699 26.751 21.717 24.393 21.728 C20.79 21.755 17.19 21.83 13.589 21.906 C11.298 21.922 9.007 21.936 6.716 21.947 C5.64 21.977 4.565 22.006 3.457 22.037 C-3.824 21.995 -3.824 21.995 -6.953 19.709 C-9.712 16.644 -10.823 14.755 -11.546 10.63 C-10.816 6.614 -9.476 4.349 -6.921 1.193 C-4.451 -0.042 -2.763 0.039 0 0 Z " fill="#2B262A" transform="translate(507.921142578125,486.80712890625)"/>
<path d="M0 0 C13.381 4.395 21.762 18.645 27.781 30.512 C37.037 50.769 37.486 74.331 33 96 C30.321 93.321 29.584 90.277 28.434 86.756 C28.185 86.009 27.936 85.262 27.679 84.493 C26.855 82.017 26.039 79.538 25.223 77.059 C24.65 75.334 24.077 73.61 23.504 71.886 C21.992 67.335 20.488 62.783 18.985 58.229 C17.464 53.625 15.936 49.022 14.408 44.42 C12.423 38.436 10.439 32.451 8.461 26.464 C7.96 24.949 7.459 23.434 6.957 21.92 C5.977 18.96 5 16 4.038 13.034 C2.712 8.903 2.712 8.903 0.922 4.96 C0 3 0 3 0 0 Z " fill="#F95942" transform="translate(284,604)"/>
<path d="M0 0 C3.486 -0.082 6.971 -0.165 10.562 -0.25 C11.647 -0.286 12.732 -0.323 13.85 -0.36 C20.142 -0.432 23.916 0.206 29 4 C31.84 8.261 31.63 11.999 31 17 C29.298 20.53 28.213 22.4 24.687 24.144 C21.853 25.047 19.664 25.23 16.699 25.195 C15.378 25.188 15.378 25.188 14.03 25.18 C12.375 25.153 12.375 25.153 10.688 25.125 C5.397 25.063 5.397 25.063 0 25 C0 16.75 0 8.5 0 0 Z " fill="#FDFDFD" transform="translate(317,465)"/>
<path d="M0 0 C0.784 0.041 1.567 0.082 2.375 0.125 C2.349 1.195 2.323 2.266 2.296 3.368 C1.713 29.504 1.184 56.627 12.062 81.062 C13.375 84.125 13.375 84.125 13.375 87.125 C11.065 87.125 8.755 87.125 6.375 87.125 C2.298 77.724 -0.443 68.37 -2.438 58.312 C-2.747 56.758 -2.747 56.758 -3.063 55.172 C-5.173 44.044 -5.789 33.188 -5.75 21.875 C-5.754 20.743 -5.758 19.611 -5.762 18.445 C-5.74 0.273 -5.74 0.273 0 0 Z " fill="#262423" transform="translate(652.625,649.875)"/>
<path d="M0 0 C0.66 0 1.32 0 2 0 C5.351 9.507 8.701 19.016 11.938 28.562 C12.338 29.739 12.739 30.916 13.152 32.129 C14 35 14 35 14 38 C5.42 38 -3.16 38 -12 38 C-11.29 33.031 -10.677 29.589 -9.004 25.059 C-8.413 23.441 -8.413 23.441 -7.811 21.791 C-7.399 20.684 -6.987 19.578 -6.562 18.438 C-5.751 16.228 -4.94 14.018 -4.129 11.809 C-3.589 10.352 -3.589 10.352 -3.037 8.865 C-1.973 5.926 -0.976 2.969 0 0 Z " fill="#F2F2F2" transform="translate(243,470)"/>
<path d="M0 0 C0.66 0 1.32 0 2 0 C2.292 0.888 2.585 1.776 2.886 2.69 C3.976 5.994 5.068 9.296 6.163 12.598 C6.635 14.025 7.106 15.453 7.577 16.881 C8.254 18.937 8.935 20.992 9.617 23.047 C10.026 24.283 10.434 25.519 10.855 26.792 C11.874 29.885 11.874 29.885 13.149 32.185 C14 34 14 34 14 38 C5.42 38 -3.16 38 -12 38 C-11.237 33.422 -10.401 30.006 -8.812 25.75 C-6.672 19.905 -4.646 14.034 -2.688 8.125 C-2.421 7.322 -2.155 6.518 -1.88 5.69 C-1.252 3.794 -0.626 1.897 0 0 Z " fill="#F3F3F3" transform="translate(694,470)"/>
<path d="M0 0 C2.332 0.016 2.332 0.016 5 1 C6.465 3.268 7.572 5.32 8.688 7.75 C15.031 20.521 24.232 30.732 34 41 C34.603 41.656 35.207 42.312 35.828 42.988 C40.276 47.685 45.398 51.399 50.621 55.18 C51.406 55.78 52.191 56.381 53 57 C53 57.33 53 57.66 53 58 C47.875 58.803 43.705 59.005 39.137 56.312 C36.288 53.991 33.633 51.563 31 49 C30.239 48.304 29.479 47.608 28.695 46.891 C18.368 37.115 0.044 17.741 -1.25 3.188 C-1 1 -1 1 0 0 Z " fill="#242121" transform="translate(209,679)"/>
<path d="M0 0 C1.65 0 3.3 0 5 0 C6.21 3.488 6.021 4.945 4.699 8.461 C4.047 9.775 3.375 11.079 2.688 12.375 C2.324 13.075 1.961 13.774 1.587 14.495 C-6.518 29.763 -16.794 41.855 -29 54 C-29.501 54.594 -30.003 55.189 -30.52 55.801 C-32.599 57.486 -34.054 57.302 -36.688 57.188 C-37.9 57.147 -37.9 57.147 -39.137 57.105 C-39.752 57.071 -40.366 57.036 -41 57 C-37.459 52.694 -33.755 48.755 -29.75 44.875 C-16.558 31.885 -8.02 16.586 0 0 Z " fill="#242120" transform="translate(816,680)"/>
<path d="M0 0 C4.875 4.5 4.875 4.5 6 9 C13.92 8.505 13.92 8.505 22 8 C22 7.34 22 6.68 22 6 C22.574 6.11 23.147 6.219 23.738 6.332 C25.617 6.683 27.497 7.022 29.379 7.355 C31.259 7.69 33.14 8.027 35.015 8.389 C53.46 11.942 71.706 12.658 90 8 C91.665 7.657 93.331 7.32 95 7 C95.495 8.98 95.495 8.98 96 11 C94.668 11.462 93.334 11.92 92 12.375 C91.257 12.63 90.515 12.885 89.75 13.148 C88.842 13.429 87.935 13.71 87 14 C85.895 14.357 84.791 14.714 83.652 15.082 C77.096 16.678 70.269 16.345 63.562 16.312 C62.495 16.311 62.495 16.311 61.405 16.31 C37 16.245 37 16.245 27.699 11.934 C23.542 10.496 19.371 10.567 15 10.438 C4.25 10.071 4.25 10.071 0 9 C0 6.03 0 3.06 0 0 Z " fill="#3A3840" transform="translate(354,728)"/>
<path d="M0 0 C4.875 4.5 4.875 4.5 6 9 C13.92 8.505 13.92 8.505 22 8 C22 7.34 22 6.68 22 6 C23.729 6.312 25.458 6.625 27.188 6.938 C28.15 7.112 29.113 7.286 30.105 7.465 C32.742 7.952 35.372 8.467 38 9 C37.67 10.32 37.34 11.64 37 13 C30.55 13.253 30.55 13.253 27.887 12.027 C23.644 10.517 19.474 10.57 15 10.438 C4.25 10.071 4.25 10.071 0 9 C0 6.03 0 3.06 0 0 Z " fill="#342B2F" transform="translate(354,728)"/>
<path d="M0 0 C0.495 1.98 0.495 1.98 1 4 C-5.346 6.437 -13.047 9.26 -19.885 7.521 C-22.003 6.999 -23.934 6.799 -26.109 6.684 C-26.863 6.642 -27.618 6.6 -28.395 6.557 C-29.56 6.498 -29.56 6.498 -30.75 6.438 C-31.543 6.394 -32.336 6.351 -33.152 6.307 C-35.101 6.201 -37.051 6.1 -39 6 C-39 5.67 -39 5.34 -39 5 C-37.204 4.944 -37.204 4.944 -35.371 4.887 C-23.626 4.441 -11.315 0 0 0 Z " fill="#3D2C32" transform="translate(449,735)"/>
<path d="M0 0 C4.875 4.5 4.875 4.5 6 9 C11.94 9 17.88 9 24 9 C24 9.33 24 9.66 24 10 C20.937 10.027 17.875 10.047 14.812 10.062 C13.516 10.075 13.516 10.075 12.193 10.088 C7.997 10.104 4.091 10.076 0 9 C0 6.03 0 3.06 0 0 Z " fill="#71A157" transform="translate(354,728)"/>
<path d="M0 0 C0 3 0 3 -1.377 4.718 C-2.005 5.33 -2.634 5.943 -3.281 6.574 C-3.958 7.241 -4.635 7.908 -5.332 8.596 C-6.047 9.286 -6.763 9.976 -7.5 10.688 C-8.573 11.74 -8.573 11.74 -9.668 12.814 C-11.439 14.55 -13.216 16.278 -15 18 C-15.66 17.67 -16.32 17.34 -17 17 C-11.675 10.874 -6.273 5.162 0 0 Z " fill="#F16048" transform="translate(735,603)"/>
<path d="M0 0 C6.93 0.495 6.93 0.495 14 1 C14 1.33 14 1.66 14 2 C11.36 2.33 8.72 2.66 6 3 C6.99 3.66 7.98 4.32 9 5 C4.484 5.077 0.409 5.102 -4 4 C-3.01 3.67 -2.02 3.34 -1 3 C-0.67 2.01 -0.34 1.02 0 0 Z " fill="#533D41" transform="translate(392,738)"/>
<path d="M0 0 C1.303 -0.025 1.303 -0.025 2.633 -0.051 C3.373 0.069 4.113 0.189 4.875 0.312 C5.535 1.303 6.195 2.293 6.875 3.312 C1.417 3.424 -3.74 3.229 -9.125 2.312 C-5.989 0.482 -3.62 0.016 0 0 Z " fill="#212028" transform="translate(403.125,739.6875)"/>
<path d="M0 0 C0.33 0 0.66 0 1 0 C1 3.63 1 7.26 1 11 C1.99 11.33 2.98 11.66 4 12 C3.01 13.98 2.02 15.96 1 18 C0.67 18 0.34 18 0 18 C0 12.06 0 6.12 0 0 Z " fill="#6DA744" transform="translate(353,682)"/>
<path d="M0 0 C-1.25 2 -1.25 2 -3 4 C-4.32 4 -5.64 4 -7 4 C-7 3.34 -7 2.68 -7 2 C-8.32 1.34 -9.64 0.68 -11 0 C-3.571 -1.286 -3.571 -1.286 0 0 Z " fill="#4D3337" transform="translate(440,739)"/>
<path d="M0 0 C2.475 0.99 2.475 0.99 5 2 C5 2.33 5 2.66 5 3 C-0.94 3 -6.88 3 -13 3 C-13 2.67 -13 2.34 -13 2 C-8.71 2 -4.42 2 0 2 C0 1.34 0 0.68 0 0 Z " fill="#1E1A1C" transform="translate(479,734)"/>
<path d="M0 0 C-1.393 3.367 -2.979 4.986 -6 7 C-6 5.68 -6 4.36 -6 3 C-2.786 0 -2.786 0 0 0 Z " fill="#332A32" transform="translate(141,445)"/>
<path d="M0 0 C0 3 0 3 -1.531 4.605 C-2.181 5.128 -2.831 5.65 -3.5 6.188 C-4.15 6.717 -4.799 7.247 -5.469 7.793 C-5.974 8.191 -6.479 8.59 -7 9 C-5.65 4.581 -3.739 2.657 0 0 Z " fill="#E5604A" transform="translate(373,692)"/>
<path d="M0 0 C0.99 0 1.98 0 3 0 C3.33 0.99 3.66 1.98 4 3 C2.062 5.688 2.062 5.688 0 8 C0 5.36 0 2.72 0 0 Z " fill="#71AF48" transform="translate(544,675)"/>
<path d="M0 0 C0.99 0.33 1.98 0.66 3 1 C1.377 2.709 -0.293 4.374 -2 6 C-2.66 6 -3.32 6 -4 6 C-2.848 3.532 -1.952 1.952 0 0 Z " fill="#3B333A" transform="translate(300,445)"/>
</svg>