<svg version="1.1" xmlns="http://www.w3.org/2000/svg" width="1024" height="1024">
<path d="M0 0 C337.92 0 675.84 0 1024 0 C1024 337.92 1024 675.84 1024 1024 C686.08 1024 348.16 1024 0 1024 C0 686.08 0 348.16 0 0 Z " fill="#121D29" transform="translate(0,0)"/>
<path d="M0 0 C1.794 0.002 3.589 0.001 5.383 -0.003 C10.238 -0.004 15.092 0.031 19.947 0.073 C25.027 0.11 30.106 0.114 35.186 0.121 C44.797 0.14 54.409 0.189 64.021 0.249 C74.966 0.316 85.912 0.349 96.857 0.379 C119.367 0.442 141.876 0.547 164.385 0.681 C165.949 3.81 165.665 6.208 165.385 9.681 C162.363 16.634 158.14 22.583 153.76 28.744 C152.321 30.786 150.883 32.829 149.447 34.873 C148.751 35.863 148.055 36.853 147.338 37.873 C144.746 41.6 142.246 45.383 139.76 49.181 C130.774 62.778 130.774 62.778 124.385 64.681 C121.603 64.867 118.922 64.952 116.141 64.937 C115.324 64.94 114.507 64.944 113.666 64.947 C111.897 64.954 110.128 64.957 108.359 64.956 C105.554 64.955 102.75 64.968 99.946 64.985 C91.974 65.031 84.002 65.055 76.03 65.062 C71.148 65.067 66.266 65.091 61.385 65.127 C59.53 65.137 57.674 65.139 55.819 65.134 C53.218 65.127 50.618 65.144 48.016 65.167 C47.258 65.159 46.5 65.151 45.719 65.142 C39.454 65.238 34.281 67.177 29.511 71.302 C29.103 71.828 28.695 72.354 28.275 72.896 C27.798 73.502 27.32 74.107 26.828 74.731 C26.352 75.375 25.876 76.018 25.385 76.681 C24.883 77.349 24.381 78.017 23.863 78.705 C22.263 80.868 20.696 83.052 19.135 85.244 C18.57 86.032 18.005 86.82 17.423 87.631 C15.74 89.979 14.062 92.33 12.385 94.681 C11.48 95.946 10.575 97.21 9.67 98.474 C7.237 101.874 4.81 105.277 2.385 108.681 C-3.047 116.305 -8.501 123.911 -13.99 131.494 C-18.741 138.057 -23.435 144.658 -28.095 151.286 C-31.729 156.446 -35.412 161.57 -39.115 166.681 C-47.827 178.717 -47.827 178.717 -56.363 190.877 C-57.459 192.456 -58.576 194.019 -59.697 195.58 C-63.116 200.656 -64.6 204.811 -64.17 210.99 C-62.141 220.834 -53.491 229.109 -47.412 236.814 C-43.626 241.633 -39.982 246.547 -36.365 251.494 C-32.505 256.769 -28.622 262.016 -24.615 267.181 C-20.656 272.288 -16.81 277.469 -12.99 282.681 C-7.938 289.572 -2.809 296.397 2.385 303.181 C10.426 313.692 18.275 324.337 26.094 335.015 C32.881 344.279 39.729 353.49 46.697 362.619 C47.379 363.511 48.06 364.404 48.762 365.324 C52.278 369.929 52.278 369.929 55.803 374.528 C74.503 398.891 74.503 398.891 74.635 407.056 C74.673 408.491 74.673 408.491 74.713 409.955 C74.312 413.282 73.83 414.384 71.385 416.681 C68.579 417.084 66.161 417.228 63.353 417.199 C62.125 417.209 62.125 417.209 60.873 417.22 C58.163 417.238 55.454 417.226 52.744 417.212 C50.859 417.215 48.975 417.219 47.09 417.224 C43.136 417.23 39.182 417.221 35.227 417.203 C30.168 417.18 25.111 417.193 20.052 417.217 C16.157 417.231 12.262 417.227 8.368 417.216 C6.503 417.214 4.639 417.217 2.775 417.226 C0.161 417.237 -2.452 417.221 -5.065 417.199 C-5.83 417.207 -6.595 417.215 -7.383 417.223 C-13.387 417.129 -17.694 415.498 -22.125 411.225 C-26.477 406.485 -30.016 400.988 -33.725 395.74 C-36.883 391.284 -40.12 386.887 -43.365 382.494 C-43.958 381.692 -44.55 380.889 -45.16 380.063 C-46.373 378.421 -47.587 376.779 -48.801 375.137 C-51.161 371.942 -53.518 368.744 -55.874 365.546 C-57.038 363.965 -58.203 362.384 -59.369 360.803 C-62.266 356.873 -65.16 352.94 -68.045 349.001 C-74.908 339.644 -81.879 330.379 -88.935 321.166 C-92.983 315.866 -96.923 310.511 -100.758 305.056 C-105.156 298.84 -109.814 292.823 -114.445 286.78 C-118.962 280.876 -123.41 274.928 -127.803 268.931 C-132.22 262.903 -136.689 256.921 -141.24 250.994 C-167.214 217.157 -167.214 217.157 -167.068 206.947 C-166.262 201.133 -163.06 197.296 -159.615 192.681 C-158.729 191.417 -157.848 190.15 -156.971 188.88 C-151.109 180.421 -145.028 172.124 -138.907 163.85 C-131.458 153.78 -124.126 143.624 -116.867 133.416 C-112.555 127.352 -108.167 121.349 -103.74 115.369 C-98.769 108.649 -93.89 101.875 -89.089 95.032 C-84.888 89.05 -80.617 83.121 -76.33 77.2 C-73.076 72.705 -69.835 68.201 -66.615 63.681 C-57.711 51.196 -48.726 38.773 -39.579 26.465 C-36.982 22.958 -34.423 19.445 -32.014 15.806 C-31.428 14.926 -31.428 14.926 -30.831 14.028 C-29.832 12.508 -28.852 10.976 -27.873 9.443 C-19.882 -0.332 -11.885 -0.157 0 0 Z " fill="#FEFEFE" transform="translate(445.615234375,301.31884765625)"/>
<path d="M0 0 C0.672 -0.002 1.344 -0.005 2.037 -0.007 C4.246 -0.009 6.452 0.025 8.661 0.06 C10.199 0.067 11.736 0.072 13.273 0.074 C16.488 0.085 19.702 0.112 22.917 0.151 C27.045 0.202 31.173 0.227 35.302 0.242 C39.234 0.257 43.166 0.282 47.099 0.31 C47.852 0.315 48.606 0.32 49.383 0.325 C51.504 0.341 53.625 0.365 55.746 0.391 C56.955 0.403 58.163 0.416 59.408 0.43 C62.114 0.583 62.114 0.583 63.114 1.583 C63.203 4.541 63.229 7.474 63.212 10.431 C63.21 11.318 63.209 12.204 63.208 13.117 C63.202 15.96 63.189 18.803 63.177 21.646 C63.172 23.569 63.167 25.491 63.163 27.414 C63.152 32.137 63.135 36.86 63.114 41.583 C54.057 41.653 44.999 41.706 35.941 41.739 C31.735 41.755 27.529 41.776 23.323 41.81 C19.264 41.842 15.206 41.86 11.147 41.868 C9.598 41.874 8.049 41.884 6.501 41.901 C4.332 41.922 2.163 41.925 -0.006 41.924 C-1.241 41.931 -2.475 41.937 -3.747 41.944 C-7.145 41.554 -8.513 41.005 -10.886 38.583 C-12.578 33.508 -12.19 28.127 -12.236 22.814 C-12.252 21.414 -12.28 20.013 -12.318 18.613 C-12.373 16.585 -12.395 14.558 -12.409 12.529 C-12.439 10.711 -12.439 10.711 -12.469 8.857 C-11.213 1.811 -6.636 -0.044 0 0 Z " fill="#FAFAFB" transform="translate(443.8857421875,485.41650390625)"/>
<path d="M0 0 C4.831 1.832 8.042 5.483 10.344 10.047 C12.06 15.154 11.411 19.704 9.812 24.75 C7.167 29.494 4.077 32.955 -1 35 C-6.318 35.795 -11.679 36.247 -16.523 33.645 C-21.121 29.774 -24.389 25.736 -25.379 19.684 C-25.805 13.739 -24.565 10.36 -20.801 5.789 C-14.227 -0.742 -9.121 -1.198 0 0 Z " fill="#FBFBFB" transform="translate(569,429)"/>
<path d="M0 0 C2.31 0 4.62 0 7 0 C7 38.28 7 76.56 7 116 C4.69 116 2.38 116 0 116 C0 77.72 0 39.44 0 0 Z " fill="#E59D04" transform="translate(569,486)"/>
</svg>