<svg version="1.1" xmlns="http://www.w3.org/2000/svg" width="1024" height="1024">
<path d="M0 0 C337.92 0 675.84 0 1024 0 C1024 337.92 1024 675.84 1024 1024 C686.08 1024 348.16 1024 0 1024 C0 686.08 0 348.16 0 0 Z " fill="#FEFEFE" transform="translate(0,0)"/>
<path d="M0 0 C0.686 -0.016 1.372 -0.032 2.078 -0.049 C6.804 -0.053 9.986 0.845 14 3.312 C19.447 8.915 21.43 14.953 21.438 22.625 C20.95 54.731 1.954 85.488 -16.663 110.512 C-17.888 112.162 -19.092 113.828 -20.293 115.496 C-24.475 121.232 -28.931 126.688 -33.562 132.062 C-34.118 132.708 -34.673 133.354 -35.245 134.019 C-38.255 137.47 -41.343 140.561 -44.812 143.562 C-47.755 146.456 -48.578 148.431 -48.812 152.562 C-47.915 163.323 -41.914 172.612 -36.567 181.731 C-31.298 190.861 -29.54 198.325 -29.812 208.875 C-29.826 209.884 -29.84 210.892 -29.854 211.932 C-29.889 214.393 -29.938 216.852 -30 219.312 C-22.868 217.261 -22.868 217.261 -16.812 213.125 C-16.221 212.595 -15.629 212.065 -15.02 211.52 C-9.042 204.987 -5.255 198.106 -1.625 190.062 C2.335 181.579 6.281 173.763 12 166.312 C12.477 165.688 12.954 165.063 13.445 164.42 C33.568 138.276 58.477 124.465 89 113.312 C89.824 113.006 90.647 112.7 91.496 112.384 C102.733 108.24 114.239 105.018 125.82 101.996 C127.368 101.59 128.914 101.178 130.457 100.758 C138.893 98.479 147.041 96.92 155.801 96.746 C156.549 96.72 157.296 96.693 158.067 96.666 C162.031 96.695 163.817 97.167 166.95 99.66 C171.852 106.002 170.695 115.635 170 123.312 C167.914 135.568 161.845 148.045 155 158.312 C154.851 160.037 154.779 161.769 154.75 163.5 C153.271 184.953 139.009 203.703 125.516 219.367 C123.288 221.976 121.126 224.621 119 227.312 C119.588 227.168 120.176 227.024 120.781 226.875 C145.922 221.673 172.168 225.428 194.125 238.812 C194.849 239.297 195.574 239.782 196.32 240.281 C197.956 241.487 197.956 241.487 200 241.312 C201.116 239.717 201.116 239.717 202.188 237.688 C206.903 229.929 213.244 225.673 222 223.312 C231.03 221.744 239.824 224.986 247.395 229.852 C254.633 235.692 260.265 244.691 261.477 253.957 C262.186 267.483 257.725 278.016 249 288.312 C249.762 288.494 250.524 288.676 251.309 288.863 C252.341 289.115 253.374 289.366 254.438 289.625 C255.447 289.869 256.456 290.112 257.496 290.363 C260.05 291.055 262.456 291.811 264.941 292.689 C270.686 294.615 276.545 295.914 282.453 297.238 C284.871 297.793 287.289 298.348 289.707 298.904 C293.475 299.766 297.244 300.624 301.015 301.47 C340.451 310.35 340.451 310.35 348.938 323.5 C351.734 328.306 352.806 332.763 352 338.312 C348.736 348.073 342.462 353.586 333.688 358.5 C321.257 364.422 306.334 366.175 292.694 366.603 C278.447 367.062 265.156 369.056 251.539 373.348 C241.493 376.087 231.743 376.682 221.375 376.625 C220.665 376.623 219.955 376.621 219.224 376.618 C208.54 376.566 198.373 376.083 188 373.312 C187.138 373.087 186.276 372.862 185.387 372.63 C168.809 368.239 168.809 368.239 163.258 365.562 C157.884 363.501 153.728 365.282 148.5 367.125 C133.541 372.262 118.115 376.005 102.784 379.853 C98.801 380.853 94.829 381.888 90.859 382.941 C74.308 387.143 55.629 389.04 38.892 384.787 C36.387 384.159 33.875 383.87 31.312 383.562 C16.365 381.337 -1.461 377.352 -14.935 370.3 C-21.037 367.173 -25.647 366.961 -32.379 367.691 C-33.349 367.779 -34.32 367.866 -35.319 367.956 C-37.365 368.145 -39.41 368.344 -41.453 368.555 C-44.528 368.871 -47.604 369.155 -50.682 369.432 C-60.763 370.373 -70.658 371.595 -80.561 373.724 C-84.395 374.38 -87.924 374.478 -91.812 374.5 C-98.659 374.844 -102.126 376.881 -107.332 381.188 C-111.802 384.748 -116.811 386.984 -122 389.312 C-123.03 389.801 -124.06 390.29 -125.121 390.793 C-134.035 394.688 -143.154 396.172 -152.703 393.578 C-154.946 392.647 -156.933 391.584 -159 390.312 C-159.623 389.985 -160.245 389.658 -160.887 389.32 C-166.685 385.874 -169.954 380.645 -172 374.312 C-173.247 366.396 -173.786 356.284 -169.059 349.441 C-163.906 344.113 -157.932 339.728 -152 335.312 C-139.969 326.341 -129.046 316.547 -118.574 305.8 C-116.067 303.431 -114.47 302.352 -111 302.062 C-108 302.312 -108 302.312 -105 304.312 C-104.835 308.201 -105.097 310.3 -107.73 313.254 C-109.906 315.174 -112.121 317.038 -114.352 318.893 C-116.84 321.036 -119.191 323.315 -121.562 325.586 C-131.917 335.494 -142.782 344.814 -154.375 353.25 C-158.188 356.141 -159.606 358.76 -161 363.312 C-158.03 363.312 -155.06 363.312 -152 363.312 C-151.67 364.962 -151.34 366.612 -151 368.312 C-151.784 368.931 -152.567 369.55 -153.375 370.188 C-155.968 372.211 -155.968 372.211 -158 374.312 C-158 374.973 -158 375.632 -158 376.312 C-157.165 376.715 -157.165 376.715 -156.312 377.125 C-154 378.313 -154 378.313 -151.719 379.848 C-146.656 382.576 -141.578 382.141 -136 381.312 C-128.604 378.999 -121.554 375.409 -115 371.312 C-116.678 367.825 -118.67 364.648 -120.781 361.41 C-124.927 354.275 -125.24 346.546 -123.348 338.559 C-120.248 330.058 -114.988 323.098 -107.383 318.188 C-103.696 316.834 -99.896 316.63 -96 316.312 C-96.433 315.106 -96.866 313.899 -97.312 312.656 C-97.876 311.042 -98.438 309.427 -99 307.812 C-99.286 307.021 -99.572 306.23 -99.867 305.414 C-101.679 300.15 -102.394 295.882 -102 290.312 C-101.67 289.652 -101.34 288.993 -101 288.312 C-102.238 288.631 -102.238 288.631 -103.5 288.956 C-112.065 290.995 -120.158 291.786 -128.959 291.704 C-130.999 291.688 -133.038 291.704 -135.078 291.723 C-155.684 291.756 -174.793 285.359 -190.152 271.324 C-200.737 259.799 -203.748 246.638 -203.132 231.347 C-201.041 199.073 -184.174 165.699 -160 144.312 C-154.381 139.719 -148.262 136.267 -141.812 133 C-141.147 132.662 -140.482 132.325 -139.797 131.977 C-132.568 128.427 -125.524 126.97 -117.562 126.188 C-116.736 126.101 -115.909 126.015 -115.057 125.926 C-113.038 125.716 -111.019 125.513 -109 125.312 C-108.888 124.11 -108.888 124.11 -108.773 122.883 C-106.381 102.196 -97.868 80.722 -85 64.312 C-84.263 63.313 -83.525 62.314 -82.766 61.285 C-76.704 53.118 -70.032 45.651 -63 38.312 C-62.29 37.561 -61.579 36.809 -60.848 36.035 C-55.623 30.639 -49.879 25.975 -44 21.312 C-42.517 20.087 -42.517 20.087 -41.004 18.836 C-29.443 9.423 -15.317 -0.072 0 0 Z " fill="#FDFDFD" transform="translate(415,259.6875)"/>
<path d="M0 0 C6.394 5.528 9.782 12.71 11.859 20.773 C12.794 24.342 14.145 27.709 15.48 31.145 C20.335 31.045 22.691 30.364 26.168 26.895 C28.021 24.896 29.701 22.855 31.352 20.684 C39.372 11.118 53.437 3.214 65.48 0.145 C68.943 -0.133 72.383 -0.135 75.855 -0.105 C76.763 -0.113 77.67 -0.121 78.605 -0.129 C89.472 -0.098 99.214 2.666 107.562 9.965 C113.966 16.857 117.397 25.381 120.48 34.145 C125.451 33.7 127.625 32.548 131.105 29.02 C143.348 17.459 157.405 12.467 174.066 12.801 C188.993 13.594 200.94 20.831 211.121 31.375 C217.114 38.41 220.882 46.335 223.754 55.062 C224.298 57.107 224.298 57.107 225.48 58.145 C230.783 57.752 234.93 56.216 239.605 53.832 C254.589 46.646 271.198 42.498 287.668 47.582 C297.619 52.059 304.362 60.313 308.793 70.02 C310.895 79.575 309.018 87.514 304.48 96.145 C294.941 109.628 278.375 119.525 262.23 122.711 C241.873 125.065 225.28 121.447 207.23 111.832 C202.147 109.29 199.106 107.926 193.48 109.145 C188.779 112.143 185.281 116.332 181.668 120.52 C169.452 134.49 150.697 146.419 131.838 148.426 C103.755 150.041 78.041 141.639 57.023 122.961 C45.949 112.377 38.074 99.698 33.48 85.145 C32.893 85.186 32.305 85.228 31.699 85.271 C20.375 85.969 10.913 86.417 1.226 79.902 C-1.511 78.07 -3.162 77.146 -6.5 77.129 C-10.189 78.37 -13.165 80.256 -16.332 82.457 C-32.977 93.512 -52.873 97.378 -72.742 93.737 C-84.484 90.654 -94.591 82.198 -100.875 71.93 C-105.609 62.752 -106.1 51.782 -103.719 41.781 C-96.342 22.642 -78.727 7.615 -60.389 -0.837 C-55.842 -2.768 -51.228 -4.366 -46.52 -5.855 C-45.725 -6.121 -44.931 -6.387 -44.113 -6.66 C-29.695 -10.708 -12.283 -8.419 0 0 Z " fill="#FDFDFD" transform="translate(402.51953125,790.85546875)"/>
<path d="M0 0 C7.831 5.033 13.134 13.211 16 22 C17.828 35.979 14.275 46.82 5.734 57.953 C5.162 58.629 4.59 59.304 4 60 C4.762 60.182 5.524 60.364 6.309 60.551 C7.341 60.802 8.374 61.054 9.438 61.312 C10.447 61.556 11.456 61.8 12.496 62.051 C15.05 62.743 17.456 63.499 19.941 64.376 C25.686 66.303 31.545 67.602 37.453 68.926 C39.871 69.481 42.289 70.036 44.707 70.592 C48.475 71.454 52.244 72.311 56.015 73.158 C95.451 82.038 95.451 82.038 103.938 95.188 C106.734 99.994 107.806 104.45 107 110 C103.736 119.76 97.462 125.273 88.688 130.188 C76.257 136.11 61.334 137.862 47.694 138.29 C33.447 138.749 20.156 140.743 6.539 145.035 C-3.507 147.774 -13.257 148.369 -23.625 148.312 C-24.335 148.31 -25.045 148.308 -25.776 148.306 C-36.46 148.254 -46.627 147.771 -57 145 C-57.862 144.775 -58.724 144.549 -59.613 144.317 C-76.191 139.927 -76.191 139.927 -81.742 137.25 C-87.116 135.188 -91.272 136.969 -96.5 138.812 C-111.459 143.95 -126.885 147.693 -142.216 151.54 C-146.199 152.54 -150.171 153.576 -154.141 154.629 C-170.692 158.83 -189.371 160.728 -206.108 156.475 C-208.613 155.846 -211.125 155.557 -213.688 155.25 C-228.635 153.025 -246.461 149.04 -259.935 141.987 C-266.037 138.86 -270.647 138.648 -277.379 139.379 C-278.349 139.466 -279.32 139.554 -280.319 139.644 C-282.365 139.832 -284.41 140.032 -286.453 140.242 C-289.528 140.559 -292.604 140.842 -295.682 141.119 C-305.763 142.06 -315.658 143.282 -325.561 145.411 C-329.395 146.068 -332.924 146.166 -336.812 146.188 C-343.659 146.532 -347.126 148.569 -352.332 152.875 C-356.802 156.435 -361.811 158.671 -367 161 C-368.545 161.733 -368.545 161.733 -370.121 162.48 C-379.035 166.375 -388.154 167.86 -397.703 165.266 C-399.946 164.335 -401.933 163.271 -404 162 C-404.934 161.509 -404.934 161.509 -405.887 161.008 C-411.685 157.562 -414.954 152.332 -417 146 C-418.247 138.084 -418.786 127.972 -414.059 121.129 C-408.906 115.8 -402.932 111.415 -397 107 C-384.969 98.028 -374.046 88.234 -363.574 77.487 C-361.067 75.118 -359.47 74.039 -356 73.75 C-353 74 -353 74 -350 76 C-349.835 79.888 -350.097 81.987 -352.73 84.941 C-354.906 86.862 -357.121 88.726 -359.352 90.581 C-361.84 92.723 -364.191 95.002 -366.562 97.273 C-376.917 107.181 -387.782 116.501 -399.375 124.938 C-403.188 127.828 -404.606 130.448 -406 135 C-403.03 135 -400.06 135 -397 135 C-396.67 136.65 -396.34 138.3 -396 140 C-397.176 140.928 -397.176 140.928 -398.375 141.875 C-400.968 143.899 -400.968 143.899 -403 146 C-403 146.66 -403 147.32 -403 148 C-402.443 148.268 -401.886 148.536 -401.312 148.812 C-399 150 -399 150 -396.719 151.535 C-391.656 154.263 -386.578 153.828 -381 153 C-373.604 150.686 -366.554 147.096 -360 143 C-361.678 139.512 -363.67 136.335 -365.781 133.098 C-369.927 125.963 -370.24 118.233 -368.348 110.246 C-365.248 101.746 -359.988 94.786 -352.383 89.875 C-348.696 88.521 -344.896 88.317 -341 88 C-341.433 86.793 -341.866 85.587 -342.312 84.344 C-342.876 82.729 -343.438 81.115 -344 79.5 C-344.286 78.709 -344.572 77.917 -344.867 77.102 C-346.676 71.847 -347.456 67.562 -347 62 C-344.235 58.703 -341.099 58.623 -337 58 C-336.829 58.605 -336.657 59.209 -336.481 59.833 C-335.697 62.597 -334.911 65.361 -334.125 68.125 C-333.856 69.076 -333.586 70.028 -333.309 71.008 C-331.97 75.709 -330.602 80.38 -329 85 C-324.05 84.505 -324.05 84.505 -319 84 C-318.918 82.433 -318.835 80.865 -318.75 79.25 C-318.402 75.838 -318.15 74.231 -316.25 71.312 C-314 70 -314 70 -311.375 70.125 C-309 71 -309 71 -307 73 C-306.699 76.047 -306.699 76.047 -306.688 79.75 C-306.671 80.962 -306.654 82.173 -306.637 83.422 C-307.117 88.151 -308.471 91.329 -311.684 94.84 C-315.052 96.527 -318.372 96.486 -322.062 96.562 C-323.597 96.628 -325.13 96.699 -326.664 96.773 C-327.408 96.809 -328.152 96.845 -328.919 96.882 C-338.337 97.417 -346.685 99.63 -353.512 106.527 C-357.104 111.683 -356.685 117.991 -356 124 C-354.971 127.955 -353.339 131.496 -350 134 C-349.01 134.33 -348.02 134.66 -347 135 C-346.918 134.092 -346.835 133.185 -346.75 132.25 C-345.894 128.539 -345.116 127.164 -342 125 C-337.7 125.3 -337.7 125.3 -336 127 C-335.859 129.671 -335.958 132.324 -336 135 C-335.172 134.746 -334.345 134.492 -333.492 134.23 C-319.358 130.155 -304.873 128.161 -290.188 127.5 C-284.338 127.227 -278.598 126.668 -272.812 125.75 C-272.117 125.653 -271.422 125.555 -270.706 125.455 C-264.084 124.31 -260.614 121.146 -256.664 115.895 C-254.154 111.104 -254.403 105.98 -254.375 100.688 C-254.35 98.712 -254.316 96.737 -254.273 94.762 C-254.267 93.895 -254.262 93.028 -254.255 92.135 C-254 90 -254 90 -252 88 C-249.275 87.651 -247.665 87.581 -245.312 89.062 C-240.975 95.465 -241.301 103.581 -242 111 C-243.846 118.671 -248.297 124.791 -253 131 C-252.43 131.134 -251.861 131.269 -251.274 131.407 C-249.005 131.999 -246.827 132.714 -244.613 133.488 C-215.545 143.527 -186.916 148.558 -156.574 140.671 C-151.702 139.407 -146.811 138.274 -141.896 137.188 C-132.718 135.161 -123.701 132.87 -114.711 130.129 C-110.608 128.881 -106.489 127.724 -102.344 126.625 C-100.859 126.229 -99.379 125.815 -97.906 125.375 C-89.561 122.991 -82.696 123.331 -74.77 126.852 C-69.354 129.097 -63.659 130.5 -58 132 C-57.184 132.218 -56.368 132.436 -55.527 132.66 C-49.399 134.162 -43.293 134.702 -37 135 C-36.262 135.045 -35.524 135.089 -34.763 135.135 C-19.274 135.988 -5.314 133.333 9.717 129.774 C23.006 126.641 35.659 124.736 49.319 124.351 C63.009 123.926 80.135 122.727 90.977 113.277 C92.518 111.539 92.518 111.539 94 109 C93.374 109.023 92.747 109.046 92.102 109.07 C91.284 109.088 90.467 109.106 89.625 109.125 C88.813 109.148 88.001 109.171 87.164 109.195 C85 109 85 109 83 107 C82.875 104.375 82.875 104.375 83 102 C85.97 101.34 88.94 100.68 92 100 C75.535 90.705 55.779 88.037 37.531 83.817 C36.366 83.547 35.201 83.278 34 83 C32.995 82.768 31.989 82.536 30.953 82.296 C15.914 78.794 0.815 74.997 -12 66 C-12.794 65.451 -13.588 64.902 -14.406 64.336 C-21.503 59.058 -26.841 52.562 -32.468 45.821 C-47.137 28.385 -62.799 17.387 -84.975 11.536 C-86.805 11.052 -88.628 10.539 -90.449 10.023 C-100.883 7.277 -111.581 6.732 -122.059 9.555 C-125.079 10.248 -127.914 10.131 -131 10 C-131.33 8.35 -131.66 6.7 -132 5 C-124.543 -2.664 -115.423 -3.128 -105.245 -3.303 C-84.61 -3.362 -66.125 0.297 -48.68 11.969 C-47.044 13.174 -47.044 13.174 -45 13 C-43.884 11.404 -43.884 11.404 -42.812 9.375 C-32.942 -6.865 -15.875 -8.009 0 0 Z " fill="#080708" transform="translate(660,488)"/>
<path d="M0 0 C0.686 -0.016 1.372 -0.032 2.078 -0.049 C6.804 -0.053 9.986 0.845 14 3.312 C19.447 8.915 21.43 14.953 21.438 22.625 C20.95 54.731 1.954 85.488 -16.663 110.512 C-17.888 112.162 -19.092 113.828 -20.293 115.496 C-24.475 121.232 -28.931 126.688 -33.562 132.062 C-34.118 132.708 -34.673 133.354 -35.245 134.019 C-38.255 137.47 -41.343 140.561 -44.812 143.562 C-47.755 146.456 -48.578 148.431 -48.812 152.562 C-47.915 163.323 -41.914 172.612 -36.567 181.731 C-31.298 190.861 -29.54 198.325 -29.812 208.875 C-29.826 209.884 -29.84 210.892 -29.854 211.932 C-29.889 214.393 -29.938 216.852 -30 219.312 C-22.868 217.261 -22.868 217.261 -16.812 213.125 C-16.221 212.595 -15.629 212.065 -15.02 211.52 C-9.042 204.987 -5.255 198.106 -1.625 190.062 C2.335 181.579 6.281 173.763 12 166.312 C12.477 165.688 12.954 165.063 13.445 164.42 C33.568 138.276 58.477 124.465 89 113.312 C89.824 113.006 90.647 112.7 91.496 112.384 C102.733 108.24 114.239 105.018 125.82 101.996 C127.368 101.59 128.914 101.178 130.457 100.758 C138.893 98.479 147.041 96.92 155.801 96.746 C156.549 96.72 157.296 96.693 158.067 96.666 C162.031 96.695 163.817 97.167 166.95 99.66 C171.852 106.002 170.695 115.635 170 123.312 C167.914 135.568 161.845 148.045 155 158.312 C154.851 160.037 154.779 161.769 154.75 163.5 C152.987 189.077 133.469 213.69 114.863 229.98 C100.174 241.944 83.29 250.743 66 258.312 C65.308 258.619 64.617 258.925 63.904 259.241 C51.967 264.437 41.603 266.272 28.926 262.164 C27 261.312 27 261.312 25 259.312 C25.375 256.687 25.375 256.687 26 254.312 C26.976 254.102 27.953 253.891 28.959 253.673 C32.667 252.869 36.371 252.049 40.075 251.224 C41.662 250.873 43.25 250.526 44.839 250.183 C58.903 247.146 72.804 243.346 85.312 236 C85.971 235.621 86.629 235.242 87.307 234.852 C93.382 231.259 98.734 227.005 104 222.312 C105.259 221.251 105.259 221.251 106.543 220.168 C123.178 205.854 133.149 188.026 142 168.312 C141.287 168.673 140.574 169.034 139.84 169.406 C129.949 174.199 129.949 174.199 124 173.312 C123.34 172.653 122.68 171.993 122 171.312 C122.094 168.875 122.094 168.875 123 166.312 C124.969 164.688 124.969 164.688 127.5 163.312 C128.401 162.805 129.302 162.297 130.23 161.773 C131.969 160.856 133.721 159.962 135.488 159.102 C147.525 153.073 151.037 139.083 155.312 127.062 C157.005 121.838 157.758 116.788 158 111.312 C115.035 117.524 66.571 130.192 35 161.312 C34.304 161.996 33.608 162.679 32.891 163.383 C23.003 173.802 15.744 186.806 8.75 199.25 C0.733 213.451 -7.028 225.206 -22.785 231.703 C-26.591 232.75 -30.076 232.562 -34 232.312 C-34.147 232.846 -34.294 233.38 -34.445 233.93 C-37.348 243.572 -42.33 250.879 -49.062 258.25 C-49.569 258.806 -50.076 259.362 -50.597 259.935 C-53.47 262.984 -56.175 265.468 -60 267.312 C-62.75 267.125 -62.75 267.125 -65 266.312 C-66.447 263.418 -66.38 261.524 -66 258.312 C-63.84 255.672 -63.84 255.672 -60.938 253.062 C-49.404 242.161 -42.019 229.384 -41.337 213.306 C-41.212 199.531 -45.618 190.496 -52.681 179.018 C-59.018 168.536 -63.506 156.68 -61 144.312 C-58.82 141.762 -58.82 141.762 -56 139.312 C-55.055 138.343 -54.123 137.36 -53.203 136.367 C-52.724 135.854 -52.245 135.34 -51.752 134.811 C-45.916 128.502 -40.283 122.098 -35 115.312 C-34.584 114.78 -34.169 114.247 -33.74 113.699 C-14.626 89.013 6.609 56.837 7.375 24.812 C7.401 24.117 7.428 23.422 7.455 22.705 C7.465 19.518 7.422 17.773 5.227 15.375 C0.571 13.153 -3.755 13.718 -8.656 15.016 C-42.521 27.482 -73.448 64.136 -88.277 96.062 C-90.301 100.951 -91.826 105.943 -93.289 111.023 C-94.067 113.529 -95.093 115.875 -96.188 118.258 C-97.734 122.167 -98.739 126.27 -99.84 130.324 C-101.131 133.65 -102.154 135.176 -105 137.312 C-107.996 138.289 -107.996 138.289 -111.438 138.938 C-112.683 139.182 -113.928 139.427 -115.211 139.68 C-117.582 140.076 -119.963 140.422 -122.352 140.695 C-137.407 142.417 -149.881 151.034 -159.562 162.438 C-171.592 177.813 -180.804 194.822 -187 213.312 C-187.342 214.259 -187.683 215.205 -188.035 216.18 C-191.691 227.911 -192.758 244.199 -187.25 255.438 C-185.754 258.015 -185.754 258.015 -184 260.312 C-183.105 261.573 -183.105 261.573 -182.191 262.859 C-179.62 265.738 -176.995 267.455 -173.688 269.438 C-172.598 270.1 -171.509 270.763 -170.387 271.445 C-157.166 278.734 -144.478 279.781 -129.645 279.649 C-126.808 279.625 -123.972 279.628 -121.135 279.635 C-119.305 279.629 -117.475 279.622 -115.645 279.613 C-114.393 279.615 -114.393 279.615 -113.115 279.616 C-108.185 279.557 -103.71 278.969 -98.929 277.752 C-96.587 277.219 -94.392 277.158 -92 277.312 C-91.67 278.962 -91.34 280.612 -91 282.312 C-102.174 290.768 -114.889 291.515 -128.431 291.553 C-130.533 291.562 -132.634 291.593 -134.736 291.625 C-155.452 291.788 -174.665 285.476 -190.152 271.324 C-200.737 259.799 -203.748 246.638 -203.132 231.347 C-201.041 199.073 -184.174 165.699 -160 144.312 C-154.381 139.719 -148.262 136.267 -141.812 133 C-141.147 132.662 -140.482 132.325 -139.797 131.977 C-132.568 128.427 -125.524 126.97 -117.562 126.188 C-116.736 126.101 -115.909 126.015 -115.057 125.926 C-113.038 125.716 -111.019 125.513 -109 125.312 C-108.888 124.11 -108.888 124.11 -108.773 122.883 C-106.381 102.196 -97.868 80.722 -85 64.312 C-84.263 63.313 -83.525 62.314 -82.766 61.285 C-76.704 53.118 -70.032 45.651 -63 38.312 C-62.29 37.561 -61.579 36.809 -60.848 36.035 C-55.623 30.639 -49.879 25.975 -44 21.312 C-42.517 20.087 -42.517 20.087 -41.004 18.836 C-29.443 9.423 -15.317 -0.072 0 0 Z " fill="#070708" transform="translate(415,259.6875)"/>
<path d="M0 0 C0.924 -0.003 1.849 -0.006 2.801 -0.01 C16.72 0.098 29.458 4.032 39.617 13.848 C45.041 19.768 48.881 25.906 51.875 33.312 C52.535 33.643 53.195 33.972 53.875 34.312 C54.119 33.739 54.362 33.165 54.613 32.574 C61.717 19.841 79.351 12.3 92.633 8.188 C107.524 4.169 121.101 6.121 134.75 13.188 C145.101 19.218 150.824 27.088 156.875 37.312 C157.565 36.793 158.254 36.274 158.965 35.738 C173.946 24.621 188.822 17.877 207.875 19.312 C223.136 21.971 234.932 28.525 245.875 39.312 C246.499 39.864 247.123 40.416 247.766 40.984 C254.138 46.782 260.745 55.629 261.875 64.312 C262.879 63.781 263.883 63.25 264.918 62.703 C277.298 56.253 287.976 52.007 302.125 51.875 C303.048 51.865 303.971 51.854 304.922 51.844 C317.023 52 329.026 56.896 337.926 65.164 C346.793 74.938 351.465 84.578 351.312 97.688 C351.303 98.621 351.293 99.555 351.283 100.518 C351.11 107.213 350.472 112.541 346.875 118.312 C346.265 119.344 345.656 120.375 345.027 121.438 C336.941 134.442 325.662 142.414 311.826 148.452 C310.066 149.228 308.336 150.069 306.609 150.918 C290.155 157.878 264.329 156.92 247.875 150.312 C243.01 148.162 238.286 145.782 233.612 143.246 C231.062 141.876 228.47 140.594 225.875 139.312 C225.537 140.125 225.537 140.125 225.191 140.953 C223.47 144.038 221.207 146.495 218.812 149.062 C218.318 149.594 217.823 150.125 217.314 150.673 C200.14 168.925 178.034 181.683 152.573 182.785 C127.129 183.121 100.905 173.075 81.875 156.312 C81.045 155.625 80.215 154.938 79.359 154.23 C68.056 144.608 60.633 132.853 54.875 119.312 C54.875 118.322 54.875 117.332 54.875 116.312 C54.148 116.359 53.421 116.405 52.672 116.453 C43.901 116.768 35.748 115.5 28.277 110.613 C26.052 109.144 26.052 109.144 23.98 109.387 C20.912 110.736 18.061 112.412 15.188 114.125 C-2.851 124.577 -23.139 130.177 -43.949 124.93 C-45.026 124.624 -45.026 124.624 -46.125 124.312 C-47.31 124.038 -47.31 124.038 -48.52 123.758 C-62.421 120.211 -73.419 111.652 -80.938 99.562 C-87.392 87.689 -90.29 75.479 -87.43 62.047 C-80.598 39.656 -60.669 22.703 -40.579 11.95 C-37.861 10.555 -35.126 9.204 -32.375 7.875 C-31.524 7.462 -30.674 7.049 -29.797 6.623 C-19.956 2.03 -10.868 -0.191 0 0 Z M-63.125 43.312 C-66.585 47.717 -69.42 52.417 -72.125 57.312 C-72.726 58.335 -72.726 58.335 -73.34 59.379 C-76.903 66.718 -76.211 77.533 -74.434 85.355 C-70.738 95.328 -63.062 104.443 -53.758 109.633 C-51.566 110.629 -49.395 111.512 -47.125 112.312 C-45.862 112.848 -45.862 112.848 -44.574 113.395 C-25.766 118.4 -5.407 113.501 11.13 104.338 C14.21 102.528 17.094 100.474 19.883 98.246 C22.882 96.84 24.73 97.425 27.875 98.312 C29.737 99.454 31.569 100.647 33.375 101.875 C42.571 107.121 52.602 105.942 62.875 105.312 C63.05 105.882 63.224 106.452 63.404 107.04 C67.342 119.432 74.244 129.685 82.875 139.312 C83.793 140.372 83.793 140.372 84.73 141.453 C101.277 159.375 126.354 167.779 150.117 168.758 C172.08 169.223 191.778 159.746 207.512 144.734 C210.238 141.94 212.798 139.039 215.336 136.074 C218.755 132.161 221.136 129.479 226.59 128.957 C231.245 129.081 234.507 130.748 238.5 133 C256.731 142.695 277.314 147.135 297.699 141.477 C313.161 135.809 328.645 126.94 336.188 111.652 C339.419 103.675 340.221 96.534 337.438 88.312 C333.714 79.911 326.508 72.066 317.969 68.521 C312.152 66.423 306.916 65.767 300.75 65.812 C299.373 65.821 299.373 65.821 297.968 65.83 C285.853 66.144 275.559 70.635 264.883 76.076 C258.673 79.173 258.673 79.173 254.875 78.312 C252.43 75.189 251.3 71.877 250.125 68.125 C245.772 55.916 236.434 44.906 224.938 38.875 C211.766 32.967 197.52 30.73 183.508 35.289 C174.53 38.779 167.409 43.034 160.415 49.617 C156.984 52.758 154.528 54 149.875 54.312 C149.439 53.25 149.004 52.188 148.555 51.094 C142.615 36.879 136.643 27.548 121.875 21.312 C108.486 18.417 94.045 18.85 81.875 25.312 C81.022 25.747 80.168 26.181 79.289 26.629 C69.768 31.9 61.093 39.255 54.277 47.719 C52.875 49.312 52.875 49.312 49.875 51.312 C47.188 51.438 47.188 51.438 44.875 51.312 C43.221 47.061 41.763 42.917 40.625 38.5 C37.704 28.813 32.662 21.693 23.809 16.684 C-6.376 2.576 -42.577 20.248 -63.125 43.312 Z " fill="#070708" transform="translate(373.125,770.6875)"/>
<path d="M0 0 C2.746 1.402 2.746 1.402 5.25 2.938 C6.474 3.682 6.474 3.682 7.723 4.441 C15.238 9.648 20.655 17.162 22.688 26.125 C22.873 27.383 23.059 28.641 23.25 29.938 C24.364 29.442 25.477 28.947 26.625 28.438 C36.068 25.31 49.021 25.102 58.027 29.566 C70.028 36.969 78.732 47.336 82.664 61.027 C84.973 72.494 82.174 81.785 76.039 91.516 C70.586 98.897 63.591 103.375 55.25 106.938 C54.544 107.304 53.837 107.67 53.109 108.047 C48.692 109.423 44.35 109.306 39.75 109.312 C38.813 109.337 37.876 109.361 36.91 109.387 C32.529 109.405 29.953 109.356 26.125 107.078 C24.25 104.938 24.25 104.938 23.75 102.312 C24.25 99.938 24.25 99.938 27.25 97.938 C30.1 97.735 32.897 97.62 35.75 97.562 C46.284 97.155 54.366 95.215 62.25 87.938 C62.91 87.938 63.57 87.938 64.25 87.938 C64.652 87.133 64.652 87.133 65.062 86.312 C65.913 84.611 66.829 82.941 67.785 81.297 C70.961 74.012 70.644 64.795 67.961 57.371 C63.646 49.5 58.341 44.36 50 41.062 C39.496 38.072 30.797 40.007 21.25 44.938 C20.26 45.597 19.27 46.257 18.25 46.938 C15.125 47.125 15.125 47.125 12.25 46.938 C11.92 46.608 11.59 46.278 11.25 45.938 C11.31 43.624 11.398 41.312 11.5 39 C11.641 30.772 9.95 25.017 4.383 18.879 C-2.385 12.546 -9.148 10.292 -18.407 10.319 C-29.626 10.758 -38.787 17.049 -46.695 24.672 C-50.478 28.843 -52.935 33.307 -55.438 38.312 C-56.75 40.938 -56.75 40.938 -58.75 42.938 C-61.125 42.875 -61.125 42.875 -63.75 41.938 C-64.348 41.174 -64.946 40.411 -65.562 39.625 C-69.333 34.992 -73.148 33.268 -79.066 32.516 C-91.013 32.052 -97.102 36.101 -105.707 43.875 C-107.851 45.912 -107.851 45.912 -109.527 48.566 C-112.471 51.706 -115.431 52.14 -119.5 52.875 C-128.007 54.723 -133.507 57.523 -138.75 64.688 C-141.385 69.325 -141.542 73.734 -140.75 78.938 C-138.903 84.132 -134.507 86.563 -129.75 88.938 C-117.901 93.577 -105.456 90.604 -93.75 86.938 C-93.42 86.608 -93.09 86.278 -92.75 85.938 C-89.283 85.586 -87.382 85.52 -84.434 87.469 C-83.692 88.118 -82.951 88.768 -82.188 89.438 C-76.304 93.879 -70.892 93.851 -63.75 92.938 C-63.09 92.608 -62.43 92.278 -61.75 91.938 C-58.891 91.613 -58.891 91.613 -55.75 91.938 C-53.547 93.73 -53.547 93.73 -51.5 96.125 C-43.707 104.238 -37.283 106.462 -26.125 106.75 C-16.707 106.77 -10.099 104.588 -2.16 99.688 C1.745 97.683 3.92 97.389 8.25 97.938 C11.051 99.18 11.051 99.18 13.562 100.812 C14.404 101.346 15.246 101.88 16.113 102.43 C18.25 103.938 18.25 103.938 20.25 105.938 C19.714 109.473 19.714 109.473 18.25 110.938 C16.324 110.852 16.324 110.852 13.938 110.562 C13.158 110.472 12.378 110.382 11.574 110.289 C9.25 109.938 9.25 109.938 7.309 109.195 C4.061 108.789 2.315 110.442 -0.375 112.188 C-12.214 119.317 -24.846 121.218 -38.414 118.094 C-46.156 115.359 -52.349 110.99 -58.75 105.938 C-61.813 103.895 -62.464 103.692 -65.918 103.664 C-66.729 103.643 -67.541 103.623 -68.377 103.602 C-70.064 103.576 -71.752 103.557 -73.439 103.547 C-78.699 103.398 -82.39 102.548 -86.954 99.888 C-88.898 98.859 -90.583 98.306 -92.75 97.938 C-95.212 98.645 -95.212 98.645 -97.688 99.812 C-107.899 104.326 -120.134 104.351 -130.75 100.938 C-140.363 97.07 -148.728 91.993 -153.09 82.23 C-155.24 74.762 -154.281 67.231 -151.062 60.246 C-146.058 51.444 -138.117 45.455 -128.746 41.75 C-125.792 40.949 -123.422 40.73 -120.375 40.812 C-119.501 40.831 -118.627 40.849 -117.727 40.867 C-117.074 40.89 -116.422 40.914 -115.75 40.938 C-115.609 40.083 -115.609 40.083 -115.465 39.211 C-113.129 31.783 -105.591 26.784 -99.145 23.129 C-98.354 22.736 -97.564 22.343 -96.75 21.938 C-96.008 21.561 -95.265 21.185 -94.5 20.797 C-90.623 19.585 -86.976 19.608 -82.938 19.625 C-82.169 19.609 -81.4 19.593 -80.607 19.576 C-74.985 19.571 -70.928 20.764 -65.75 22.938 C-64.422 23.293 -63.09 23.632 -61.75 23.938 C-61.193 23.225 -60.636 22.512 -60.062 21.777 C-45.58 3.601 -23.832 -9.428 0 0 Z " fill="#090909" transform="translate(870.75,223.0625)"/>
<path d="M0 0 C9.228 6.192 15.716 13.974 18.18 24.965 C18.242 25.749 18.303 26.532 18.367 27.34 C19.319 27.098 19.319 27.098 20.289 26.852 C24.414 26.166 28.442 26.156 32.617 26.152 C33.425 26.14 34.234 26.128 35.066 26.115 C47.948 26.084 59.385 30.311 68.93 39.215 C73.583 44.32 76.452 49.823 76.93 56.777 C76.588 63.747 72.613 70.786 68 75.906 C64.161 79.277 59.777 81.796 55.367 84.34 C54.354 84.999 54.354 84.999 53.32 85.672 C45.512 90.091 33.856 89.932 25.295 87.832 C22.409 86.893 19.68 85.722 16.934 84.434 C14.219 83.078 14.219 83.078 10.367 83.34 C8.406 84.858 8.406 84.858 6.492 86.902 C-4.58 97.222 -17.292 99.948 -32.012 99.684 C-44.299 99.078 -56.498 91.93 -65.062 83.344 C-66.582 82.138 -66.582 82.138 -68.453 82.559 C-69.172 82.816 -69.892 83.074 -70.633 83.34 C-72.025 83.787 -72.025 83.787 -73.445 84.242 C-74.497 84.584 -75.549 84.925 -76.633 85.277 C-92.532 90.168 -110.182 92.096 -125.508 84.09 C-132.486 79.736 -139.517 74.648 -141.633 66.34 C-143.173 54.502 -140.771 46.064 -133.582 36.656 C-124.222 25.734 -111.678 15.526 -96.855 14.066 C-89.146 13.819 -83.455 15.111 -76.41 18.246 C-73.51 19.584 -73.51 19.584 -69.633 19.34 C-68.082 17.832 -68.082 17.832 -66.82 15.777 C-52.014 -5.091 -22.603 -13.781 0 0 Z M-59.566 22.727 C-62.071 25.894 -64.175 29.203 -66.148 32.723 C-67.633 34.34 -67.633 34.34 -70.055 34.762 C-73.053 34.271 -74.326 33.409 -76.633 31.465 C-82.653 26.44 -88.065 25.714 -95.797 25.836 C-106.117 27.192 -115.859 33.553 -122.633 41.34 C-127.856 48.877 -130.356 54.145 -129.633 63.34 C-128.033 68.886 -124.651 71.06 -119.984 74.043 C-113.735 77.489 -108.586 77.69 -101.57 77.652 C-100.537 77.649 -99.504 77.645 -98.439 77.642 C-91.135 77.538 -84.551 76.801 -77.633 74.34 C-76.008 73.776 -74.383 73.214 -72.758 72.652 C-72.1 72.401 -71.443 72.15 -70.766 71.891 C-67.839 71.135 -65.652 70.974 -62.633 71.34 C-59.809 73.352 -59.809 73.352 -56.945 76.027 C-45.831 85.99 -34.497 88.236 -19.982 87.566 C-10.133 86.617 -1.465 80.529 5.055 73.402 C5.818 72.722 6.581 72.041 7.367 71.34 C11.257 71.704 14.433 73.167 17.93 74.84 C26.775 79.06 35.612 79.92 45.055 76.715 C52.226 73.782 59.066 69.971 63.367 63.34 C64.747 59.202 65.205 55.653 64.367 51.34 C60.867 45.257 55.756 41.87 49.367 39.34 C48.605 38.999 47.842 38.658 47.056 38.307 C44.29 37.312 42.272 37.082 39.348 37.074 C37.937 37.07 37.937 37.07 36.498 37.066 C35.527 37.074 34.555 37.082 33.555 37.09 C32.595 37.082 31.635 37.074 30.646 37.066 C26.286 37.078 22.267 37.218 18.043 38.355 C14.615 39.273 11.888 39.516 8.367 39.34 C8.353 38.59 8.339 37.839 8.324 37.066 C7.843 26.742 4.943 18.916 -2.734 11.809 C-21.462 -2.68 -45.577 6.694 -59.566 22.727 Z " fill="#090909" transform="translate(284.6328125,65.66015625)"/>
<path d="M0 0 C4.643 3.215 9.81 7.724 11.5 13.246 C11.655 14.114 11.655 14.114 11.812 15 C12.681 14.965 13.55 14.93 14.445 14.895 C26.301 14.616 26.301 14.616 30.812 18 C34.815 22.112 36.974 25.232 37.188 31 C37.089 37.274 35.644 41.993 31.812 47 C25.022 53.012 18.753 56.288 9.625 56.25 C7.778 56.258 7.778 56.258 5.895 56.266 C2.812 56 2.812 56 0.812 54 C0.562 51.5 0.562 51.5 0.812 49 C3.356 46.457 4.414 46.753 7.938 46.625 C14.752 46.107 19.558 44.428 24.25 39.375 C26.692 35.663 27.352 33.494 26.812 29 C23.885 25.836 22.384 25.034 18.035 24.777 C16.648 24.828 15.262 24.882 13.875 24.938 C10.965 24.923 8.714 24.616 5.812 24 C3.471 21.367 2.408 18.916 1.055 15.68 C-0.569 12.178 -2.032 10.905 -5.59 9.527 C-13.321 7.958 -22.318 7.106 -29.188 11.562 C-30.561 12.66 -31.895 13.808 -33.188 15 C-34.602 16.294 -36.019 17.585 -37.438 18.875 C-38.041 19.471 -38.644 20.066 -39.266 20.68 C-41.704 22.355 -43.291 22.25 -46.188 22 C-47.062 19.5 -47.062 19.5 -47.188 16 C-43.061 7.779 -34.777 1.817 -26.293 -1.301 C-18.082 -3.149 -7.686 -3.896 0 0 Z " fill="#0A090A" transform="translate(200.1875,709)"/>
<path d="M0 0 C6.484 2.386 10.732 7.162 13.961 13.16 C16.231 19.364 16.151 25.599 14.039 31.84 C11.689 36.816 8.718 40.964 5 45 C1.825 43.607 -0.21 41.996 -2.574 39.473 C-3.238 38.768 -3.902 38.063 -4.586 37.337 C-5.279 36.586 -5.973 35.836 -6.688 35.062 C-7.398 34.298 -8.109 33.534 -8.842 32.747 C-24.822 15.459 -24.822 15.459 -25 11 C-23.707 8.965 -23.707 8.965 -21.812 6.938 C-21.2 6.266 -20.588 5.594 -19.957 4.902 C-13.82 -1.063 -8.42 -1.102 0 0 Z " fill="#FBFBFB" transform="translate(649,496)"/>
<path d="M0 0 C6.39 3.096 12.01 7.303 17.398 11.902 C16.648 16.652 16.648 16.652 14.398 18.902 C11.551 19.255 9.973 19.259 7.512 17.73 C6.917 17.21 6.323 16.689 5.711 16.152 C-0.481 11.241 -7.415 8.075 -15.445 8.527 C-23.286 9.891 -27.977 14.71 -32.602 20.902 C-34.19 24.08 -33.877 27.436 -33.602 30.902 C-32.431 34.323 -31.728 34.818 -28.602 36.902 C-26.49 37.161 -26.49 37.161 -24.188 37.062 C-23.344 37.052 -22.501 37.041 -21.633 37.029 C-20.318 36.997 -20.318 36.997 -18.977 36.965 C-17.234 36.931 -15.492 36.9 -13.75 36.875 C-12.593 36.848 -12.593 36.848 -11.412 36.821 C-9.602 36.902 -9.602 36.902 -8.602 37.902 C-8.561 39.902 -8.559 41.903 -8.602 43.902 C-15.664 48.056 -23.642 48.238 -31.602 46.902 C-37.514 44.579 -41.391 41.083 -44.227 35.402 C-46.261 29.668 -46.276 25.131 -44.039 19.465 C-35.601 2.057 -18.437 -5.619 0 0 Z " fill="#0B0A0B" transform="translate(130.6015625,719.09765625)"/>
<path d="M0 0 C0.33 1.65 0.66 3.3 1 5 C-0.98 6.32 -2.96 7.64 -5 9 C-4.273 9.965 -4.273 9.965 -3.531 10.949 C-1.501 14.995 -1.465 18.344 -1.5 22.812 C-1.504 23.618 -1.509 24.423 -1.513 25.252 C-1.687 31.302 -2.6 35.6 -7 40 C-7.763 40.825 -8.526 41.65 -9.312 42.5 C-12.947 44.529 -15.939 45.093 -20 44 C-24.404 39.883 -26.679 35.767 -27.371 29.801 C-27.548 20.495 -26.29 13.669 -19.875 6.688 C-13.411 2.894 -7.653 -0.406 0 0 Z " fill="#060607" transform="translate(303,431)"/>
<path d="M0 0 C2 2 2 2 2.09 4.422 C1 7 1 7 -2.246 8.703 C-3.639 9.231 -5.036 9.746 -6.438 10.25 C-14.053 13.275 -19.27 17.083 -25 23 C-25.971 23.851 -25.971 23.851 -26.961 24.719 C-42.387 38.571 -52.742 60.944 -60 80 C-61.65 79.67 -63.3 79.34 -65 79 C-67.304 60.566 -50.282 39.028 -39.65 25.071 C-30.198 13.211 -16.408 -1.07 0 0 Z " fill="#0A0A0B" transform="translate(399,302)"/>
<path d="M0 0 C1.32 0.33 2.64 0.66 4 1 C4.75 3.125 4.75 3.125 5 6 C3.134 9.516 1.661 11.595 -1.75 13.688 C-4.461 16.473 -4.395 17.399 -4.5 21.188 C-4.271 26.504 -3.031 31.104 -1 36 C0.485 35.505 0.485 35.505 2 35 C3.225 31.992 3.225 31.992 4 29 C5.65 29.33 7.3 29.66 9 30 C9.293 34.973 9.165 38.044 6 42 C2.57 44.573 -0.843 44.148 -5 44 C-6.32 44 -7.64 44 -9 44 C-12.562 43.812 -12.562 43.812 -16 43 C-18.062 40.688 -18.062 40.688 -19 38 C-18.188 35.688 -18.188 35.688 -17 34 C-12.25 35.875 -12.25 35.875 -10 37 C-10.144 36.394 -10.289 35.788 -10.438 35.164 C-11.8 29.013 -12.241 23.29 -12 17 C-12.907 16.752 -13.815 16.505 -14.75 16.25 C-18.201 14.923 -19.894 14.032 -22 11 C-21.75 7.75 -21.75 7.75 -21 5 C-18.038 5.613 -16.619 6.254 -14 8 C-10.672 8.835 -10.672 8.835 -7 8 C-4.3 5.599 -2.135 2.907 0 0 Z " fill="#0B0B0C" transform="translate(258,479)"/>
<path d="M0 0 C0.495 1.98 0.495 1.98 1 4 C-4.5 6.553 -10.04 8.769 -15.758 10.785 C-18.306 11.74 -20.801 12.745 -23.305 13.809 C-24.059 14.128 -24.813 14.447 -25.59 14.776 C-27.088 15.415 -28.583 16.06 -30.074 16.714 C-33.859 18.323 -36.799 19.428 -41 19 C-41 16.75 -41 16.75 -40 14 C-33.151 10.062 -25.704 7.485 -18.312 4.75 C-17.103 4.291 -15.893 3.832 -14.646 3.359 C-13.481 2.926 -12.315 2.493 -11.113 2.047 C-10.059 1.653 -9.005 1.26 -7.919 0.854 C-5.102 0.03 -2.913 -0.176 0 0 Z " fill="#19191B" transform="translate(208,504)"/>
<path d="M0 0 C1.675 0.286 3.344 0.618 5 1 C1.143 9.684 -6.696 16.891 -13.055 23.809 C-15.034 25.934 -15.034 25.934 -16.508 28.285 C-17 28.851 -17.493 29.417 -18 30 C-19.32 30 -20.64 30 -22 30 C-22.34 27.918 -22.34 27.918 -22 25 C-20.26 22.588 -18.557 20.491 -16.562 18.312 C-16.021 17.703 -15.48 17.093 -14.923 16.464 C-13.293 14.632 -11.648 12.816 -10 11 C-9.077 9.967 -8.155 8.933 -7.234 7.898 C-1.671 1.671 -1.671 1.671 0 0 Z " fill="#131314" transform="translate(208,521)"/>
<path d="M0 0 C2.663 0.038 5.282 0.145 7.938 0.312 C8.679 0.348 9.421 0.383 10.186 0.42 C15.758 0.758 15.758 0.758 18 3 C17.812 5.5 17.812 5.5 17 8 C12.751 10.832 8.987 10.643 4 10 C0.875 8.312 0.875 8.312 -1 6 C-1.375 3.312 -1.375 3.312 -1 1 C-0.67 0.67 -0.34 0.34 0 0 Z " fill="#151517" transform="translate(134,760)"/>
<path d="M0 0 C1.267 -0.014 2.534 -0.028 3.84 -0.043 C7.062 0.188 7.062 0.188 9.062 2.188 C8.875 4.688 8.875 4.688 8.062 7.188 C4.856 9.325 3.838 9.483 0.125 9.5 C-0.73 9.517 -1.584 9.534 -2.465 9.551 C-5.38 9.123 -6.751 8.11 -8.938 6.188 C-7.751 -0.421 -6.7 0.034 0 0 Z " fill="#1C1C1D" transform="translate(174.9375,760.8125)"/>
<path d="M0 0 C0.757 0.006 1.515 0.013 2.295 0.02 C3.081 0.036 3.866 0.053 4.676 0.07 C5.473 0.079 6.27 0.088 7.092 0.098 C9.057 0.121 11.023 0.157 12.988 0.195 C13.613 2.57 13.613 2.57 13.988 5.195 C11.988 7.195 11.988 7.195 10.109 7.422 C9.365 7.412 8.622 7.401 7.855 7.391 C7.05 7.384 6.244 7.378 5.414 7.371 C4.572 7.354 3.731 7.338 2.863 7.32 C1.589 7.307 1.589 7.307 0.289 7.293 C-1.811 7.269 -3.912 7.233 -6.012 7.195 C-6.342 5.545 -6.672 3.895 -7.012 2.195 C-3.965 0.164 -3.411 -0.051 0 0 Z " fill="#202021" transform="translate(276.01171875,489.8046875)"/>
<path d="M0 0 C8.571 -0.286 8.571 -0.286 12 2 C11.67 3.32 11.34 4.64 11 6 C3.571 6.286 3.571 6.286 0 4 C0 2.68 0 1.36 0 0 Z " fill="#131213" transform="translate(269,505)"/>
<path d="M0 0 C0.33 1.32 0.66 2.64 1 4 C-2.73 6.034 -4.669 7 -9 7 C-9.33 6.01 -9.66 5.02 -10 4 C-10.99 4.495 -10.99 4.495 -12 5 C-12.66 4.34 -13.32 3.68 -14 3 C-4.59 -0.444 -4.59 -0.444 0 0 Z " fill="#1F1F20" transform="translate(208,504)"/>
</svg>