<svg version="1.1" xmlns="http://www.w3.org/2000/svg" width="1024" height="1024">
<path d="M0 0 C337.92 0 675.84 0 1024 0 C1024 337.92 1024 675.84 1024 1024 C686.08 1024 348.16 1024 0 1024 C0 686.08 0 348.16 0 0 Z " fill="#FEFEFE" transform="translate(0,0)"/>
<path d="M0 0 C16.369 8.288 23.813 26.68 31.793 42.227 C51.408 80.326 75.052 107.143 113.678 126.107 C135.254 136.776 151.809 152.495 168.479 169.549 C174.978 176.169 181.644 182.27 188.98 187.977 C190.004 188.789 190.004 188.789 191.048 189.617 C209.226 203.944 229.246 215.334 250.418 224.602 C257.53 227.734 263.972 230.964 269.98 235.977 C270.781 236.629 271.581 237.281 272.406 237.953 C279.424 243.956 285.141 250.869 290.98 257.977 C293.26 260.696 295.589 263.355 297.98 265.977 C299.088 267.218 299.088 267.218 300.219 268.484 C312.462 281.526 328.24 289.814 343.631 298.607 C380.773 319.83 396.405 345.698 413.824 383.64 C424.728 407.362 434.483 420.367 456.98 433.977 C486.976 452.292 522.03 475.541 540.98 505.977 C541.355 508.852 541.355 508.852 540.98 510.977 C539.98 511.977 539.98 511.977 536.043 512.352 C514.951 511.97 490.516 500.406 470.98 492.977 C470.239 492.695 469.497 492.414 468.732 492.125 C466.275 491.193 463.819 490.259 461.363 489.324 C460.466 488.983 459.569 488.641 458.645 488.29 C456.757 487.571 454.869 486.853 452.982 486.134 C451.068 485.405 449.154 484.677 447.24 483.949 C444.447 482.888 441.655 481.825 438.863 480.762 C438.021 480.442 437.179 480.122 436.312 479.792 C427.925 476.596 419.597 473.282 411.355 469.727 C410.146 469.206 408.937 468.685 407.691 468.148 C406.797 467.762 405.902 467.375 404.98 466.977 C407.373 471.041 409.769 475.103 412.168 479.164 C412.529 479.775 412.89 480.386 413.262 481.016 C418.046 489.11 422.917 497.138 427.918 505.102 C431.853 511.394 435.619 517.736 439.105 524.289 C439.46 524.952 439.814 525.616 440.179 526.299 C443.6 532.875 446.856 539.386 445.98 546.977 C444.22 550.162 443.482 550.81 439.98 551.977 C428.063 553.301 419.075 546.519 409.996 539.473 C405.767 535.972 401.728 532.295 397.727 528.539 C395.455 526.42 393.153 524.37 390.793 522.352 C384.335 516.738 378.418 510.621 372.852 504.129 C370.65 501.596 368.379 499.133 366.105 496.664 C361.981 492.148 358.101 487.485 354.262 482.727 C351.113 478.93 347.767 475.33 344.426 471.703 C342.136 469.15 339.988 466.536 337.855 463.852 C327.45 451.034 315.563 439.467 303.918 427.789 C303.377 427.246 302.837 426.703 302.28 426.143 C296.687 420.529 291.058 415.072 284.98 409.977 C278.923 403.636 273.573 396.599 268.066 389.781 C267.543 389.137 267.02 388.493 266.481 387.83 C265.524 386.648 264.575 385.461 263.635 384.266 C261.127 381.131 258.687 378.802 255.293 376.664 C254.526 376.173 253.759 375.682 252.969 375.176 C251.007 373.957 251.007 373.957 248.98 372.977 C253.364 380.263 258.165 386.873 263.643 393.369 C265.136 395.164 266.599 396.982 268.059 398.805 C277.262 410.293 286.978 421.038 297.424 431.407 C301.479 435.445 305.34 439.557 308.98 443.977 C309.588 444.697 309.588 444.697 310.207 445.432 C322.543 460.108 332.844 476.09 342.543 492.602 C343.115 493.572 343.686 494.543 344.275 495.543 C356.372 516.46 356.372 516.46 354.98 525.977 C353.187 528.787 351.962 530.486 348.98 531.977 C342.741 533.039 339.12 530.766 334 527.285 C325.422 520.727 317.919 512.95 310.36 505.269 C306.395 501.285 302.163 497.751 297.762 494.254 C294.725 491.767 291.85 489.152 288.98 486.477 C285.193 482.947 281.338 479.59 277.293 476.352 C272.158 472.217 267.557 467.712 262.98 462.977 C262.155 462.172 261.33 461.368 260.48 460.539 C259.655 459.693 258.83 458.848 257.98 457.977 C257.326 457.306 256.671 456.636 255.996 455.945 C246.45 445.807 240.054 434.231 233.543 422.039 C223.02 402.389 212.394 388.024 193.715 375.516 C185.612 370.059 180.13 364.035 174.644 356.062 C169.328 348.424 163.471 343.767 154.98 339.977 C155.678 341.627 156.389 343.272 157.105 344.914 C157.5 345.831 157.894 346.747 158.301 347.691 C162.593 356.085 168.126 362.552 174.855 369.102 C175.62 369.861 176.384 370.62 177.172 371.402 C181.952 376.118 186.876 380.616 191.98 384.977 C206.144 397.084 214.241 410.64 221.367 427.613 C228.811 445.268 237.943 461.19 248.125 477.392 C262.254 499.952 262.254 499.952 259.98 511.977 C259.648 512.743 259.316 513.51 258.974 514.299 C255.766 522.944 258.752 532.637 260.855 541.227 C262.896 549.923 264.7 558.47 265.656 567.352 C265.906 570.081 265.906 570.081 266.98 572.977 C267.102 575.677 267.166 578.339 267.168 581.039 C267.18 581.772 267.192 582.505 267.205 583.26 C267.21 585.167 267.103 587.073 266.98 588.977 C266.32 589.637 265.66 590.297 264.98 590.977 C259.689 590.736 256.45 589.386 252.168 586.352 C251.121 585.622 250.075 584.892 248.996 584.141 C247.503 583.069 247.503 583.069 245.98 581.977 C231.106 571.345 215.454 561.967 199.672 552.76 C180.554 541.551 180.554 541.551 176.98 537.977 C176.692 538.946 176.403 539.915 176.105 540.914 C174.98 543.977 174.98 543.977 172.98 544.977 C164.359 546.071 159.744 543.123 152.98 537.977 C148.503 534.47 144.209 530.779 139.98 526.977 C139.091 526.184 138.202 525.391 137.285 524.574 C131.257 518.896 126.878 512.654 122.426 505.742 C120.144 502.201 117.77 498.76 115.293 495.352 C114.629 494.431 113.965 493.511 113.281 492.562 C110.464 489.396 107.498 487.333 103.98 484.977 C103.966 485.658 103.951 486.339 103.936 487.04 C103.862 490.124 103.765 493.206 103.668 496.289 C103.645 497.361 103.623 498.433 103.6 499.537 C103.564 500.565 103.529 501.593 103.492 502.652 C103.453 504.074 103.453 504.074 103.413 505.525 C102.911 508.372 102.33 509.326 99.98 510.977 C93.408 511.105 89.704 508.082 84.98 503.977 C84.393 503.494 83.805 503.012 83.199 502.516 C72.353 492.803 67.188 477.189 61.98 463.977 C61.685 463.236 61.389 462.496 61.084 461.733 C59.893 458.679 58.98 456.284 58.98 452.977 C58.32 452.977 57.66 452.977 56.98 452.977 C56.715 453.828 56.449 454.679 56.176 455.556 C54.945 459.079 53.473 462.348 51.855 465.711 C51.552 466.342 51.249 466.973 50.937 467.623 C49.957 469.66 48.97 471.694 47.98 473.727 C47.643 474.421 47.306 475.116 46.958 475.832 C21.024 529.138 21.024 529.138 -2.582 540.914 C-7.69 542.493 -12.16 543.113 -17.23 541.098 C-22.054 538.381 -24.867 535.137 -27.02 529.977 C-30.512 508.503 -19.01 487.649 -10.811 468.525 C-7.153 459.98 -3.612 451.388 -0.082 442.789 C0.253 441.973 0.589 441.158 0.934 440.317 C5.59 428.979 10.113 417.594 14.527 406.159 C22.257 386.137 30.141 366.958 40.91 348.332 C53.003 327.381 62.155 304.823 69.98 281.977 C70.259 281.173 70.537 280.369 70.824 279.542 C78.826 256.221 88.774 224.9 77.691 201.223 C74.742 195.932 71.337 191.034 65.98 187.977 C63.339 187.404 63.339 187.404 60.98 188.977 C56.169 193.33 52.932 199.028 49.594 204.523 C48.188 206.662 46.947 208.351 44.98 209.977 C44.32 209.977 43.66 209.977 42.98 209.977 C42.955 209.247 42.93 208.517 42.905 207.764 C42.787 204.398 42.665 201.031 42.543 197.664 C42.504 196.516 42.464 195.368 42.424 194.186 C42.162 187.087 41.721 180.042 40.98 172.977 C40.82 171.437 40.82 171.437 40.656 169.867 C37.958 150.253 31.463 132.327 23.458 114.314 C12.493 89.543 3.946 65.639 -2.109 39.238 C-4.805 25.977 -4.805 25.977 -13.02 15.977 C-15.345 15.223 -15.345 15.223 -18.02 15.977 C-23.046 20.069 -26.705 25.07 -30.082 30.539 C-30.767 31.622 -30.767 31.622 -31.467 32.726 C-32.992 35.138 -34.506 37.557 -36.02 39.977 C-50.629 63.149 -65.127 85.558 -84.891 104.766 C-99.22 118.697 -109.231 133.308 -118.562 150.882 C-139.697 190.684 -139.697 190.684 -153.708 207.404 C-154.996 208.949 -156.256 210.517 -157.516 212.086 C-167.308 224.162 -178.474 235.324 -190.256 245.456 C-211.3 263.604 -222.693 290.301 -231.004 316.169 C-235.508 330.181 -240.386 343.315 -248.02 355.977 C-248.448 356.695 -248.876 357.414 -249.318 358.154 C-253.306 364.8 -257.459 371.269 -262.02 377.539 C-264.726 381.303 -266.131 384.434 -267.02 388.977 C-259.69 385.558 -254.563 381.715 -249.293 375.582 C-227.272 350.345 -227.272 350.345 -218.957 348.914 C-216.02 348.977 -216.02 348.977 -215.02 349.977 C-214.785 352.159 -214.606 354.349 -214.457 356.539 C-214.373 357.737 -214.289 358.934 -214.203 360.168 C-214.143 361.095 -214.082 362.022 -214.02 362.977 C-209.317 357.149 -205.727 351.075 -202.332 344.414 C-201.82 343.424 -201.308 342.434 -200.781 341.414 C-196.584 333.235 -192.601 324.956 -188.761 316.603 C-186.279 311.281 -183.599 306.638 -180.02 301.977 C-178.37 302.307 -176.72 302.637 -175.02 302.977 C-173.627 323.17 -186.903 343.73 -197.437 360.191 C-201.778 367.058 -204.636 374.189 -207.457 381.789 C-211.92 393.801 -216.826 405.481 -224.832 415.602 C-225.249 416.131 -225.667 416.66 -226.097 417.206 C-229.707 421.724 -233.555 426.018 -237.5 430.246 C-239.494 432.407 -241.434 434.592 -243.359 436.812 C-246.93 440.911 -250.648 444.852 -254.395 448.789 C-258.599 453.235 -262.706 457.685 -266.52 462.477 C-272.067 469.435 -278.228 475.822 -284.375 482.249 C-285.687 483.628 -286.982 485.024 -288.27 486.426 C-296.639 495.318 -308.441 504.015 -320.02 507.977 C-322.355 507.621 -322.355 507.621 -324.02 506.977 C-323.562 501.768 -321.949 499.03 -318.707 494.977 C-318.044 494.142 -318.044 494.142 -317.367 493.291 C-308.69 482.472 -299.484 472.111 -290.02 461.977 C-289.09 460.98 -289.09 460.98 -288.142 459.962 C-274.942 445.816 -274.942 445.816 -268.457 439.539 C-261.763 432.913 -256.962 425.493 -253.02 416.977 C-269.343 424.324 -282.981 435.122 -297.122 445.956 C-302.981 450.441 -308.871 454.877 -314.832 459.227 C-315.542 459.751 -316.252 460.276 -316.984 460.816 C-328.535 469.184 -328.535 469.184 -334.02 468.727 C-335.01 468.355 -335.01 468.355 -336.02 467.977 C-336.02 466.657 -336.02 465.337 -336.02 463.977 C-341.243 467.297 -346.206 470.852 -351.082 474.664 C-392.567 506.977 -392.567 506.977 -407.02 506.977 C-406.572 501.412 -405.045 497.649 -401.957 492.977 C-401.307 491.966 -401.307 491.966 -400.644 490.935 C-387.744 471.101 -374.17 451.174 -359.02 432.977 C-358.215 431.988 -357.411 430.999 -356.582 429.98 C-340.975 410.967 -323.532 397.047 -302.532 384.315 C-296.363 380.556 -290.6 376.565 -285.02 371.977 C-284.477 371.535 -283.934 371.093 -283.374 370.637 C-260.685 351.779 -250.106 324.34 -241.395 296.914 C-235.772 279.592 -226.639 264.929 -215.02 250.977 C-214.506 250.34 -213.993 249.703 -213.465 249.047 C-209.724 244.497 -205.506 240.777 -201.02 236.977 C-197.87 234.261 -194.728 231.537 -191.591 228.806 C-188.882 226.449 -186.172 224.103 -183.402 221.816 C-161.707 203.634 -148.334 173.454 -135.082 149.164 C-123.183 127.382 -109.392 109.102 -90.52 92.977 C-70.663 75.993 -57.869 52.292 -45.066 29.824 C-35.564 13.153 -22.408 -7.595 0 0 Z " fill="#010101" transform="translate(445.01953125,257.0234375)"/>
<path d="M0 0 C2.576 0.2 3.674 0.638 5.414 2.566 C5.814 3.225 6.213 3.884 6.625 4.562 C7.03 5.203 7.435 5.844 7.852 6.504 C15.214 22.505 12.321 46.408 8 63 C7.629 64.43 7.629 64.43 7.251 65.89 C4.246 77.302 0.942 88.6 -2.895 99.762 C-4.297 103.871 -5.557 108.018 -6.82 112.172 C-9.463 120.807 -12.253 129.398 -15 138 C-4.379 130.383 0.687 114.779 5.686 103.075 C6.628 100.871 7.579 98.672 8.537 96.476 C15.016 81.586 20.917 67.521 21 51 C25.235 51.806 26.53 53.459 29 57 C32.64 62.748 31.796 70.47 31 77 C25.789 98.486 11.767 118.606 0 137 C-1.366 139.15 -2.732 141.299 -4.098 143.449 C-21.774 171.208 -21.774 171.208 -30.812 183.438 C-31.414 184.252 -32.016 185.067 -32.636 185.907 C-37.396 192.296 -42.384 198.424 -47.626 204.42 C-49.084 206.097 -50.524 207.789 -51.961 209.484 C-57.616 216.15 -63.381 222.683 -69.332 229.086 C-90.131 251.804 -106.199 276.547 -118.427 304.765 C-124.402 318.498 -131.404 330.206 -142 341 C-142.678 341.703 -143.356 342.405 -144.055 343.129 C-168.835 367.072 -205.891 383.768 -238 395 C-239.796 395.718 -241.588 396.446 -243.375 397.188 C-251.427 400.411 -258.268 402.423 -267 402 C-267.336 397.315 -266.922 395.139 -263.875 391.562 C-263.143 390.703 -262.411 389.843 -261.656 388.957 C-253.852 380.269 -245.86 371.782 -237.625 363.5 C-237.079 362.949 -236.533 362.398 -235.97 361.831 C-232.466 358.34 -228.822 355.059 -225.084 351.821 C-221.468 348.661 -217.95 345.399 -214.438 342.125 C-213.363 341.141 -213.363 341.141 -212.268 340.137 C-203.99 332.409 -198.163 324.547 -194 314 C-193.571 312.925 -193.571 312.925 -193.133 311.828 C-191.441 307.188 -190.514 302.542 -189.625 297.688 C-187.256 285.527 -182.566 276.704 -175 267 C-163.613 252.192 -155.992 236.246 -149 219 C-148.732 218.343 -148.463 217.686 -148.187 217.009 C-145.845 211.241 -143.828 205.487 -142.125 199.5 C-137.25 183.498 -126.507 170.571 -116.539 157.434 C-103.965 140.778 -93.462 122.998 -83.437 104.712 C-80.37 99.173 -77.171 93.795 -73 89 C-72.67 89 -72.34 89 -72 89 C-72.585 95.395 -73.681 101.38 -75.293 107.59 C-75.519 108.484 -75.746 109.378 -75.979 110.298 C-76.71 113.179 -77.449 116.058 -78.188 118.938 C-79.2 122.916 -80.209 126.895 -81.215 130.875 C-81.461 131.847 -81.707 132.82 -81.961 133.821 C-83.854 141.334 -85.586 148.871 -87.25 156.438 C-89.355 165.895 -92.154 174.957 -95.336 184.102 C-97.699 190.931 -99.574 197.885 -101.428 204.866 C-102.014 207.054 -102.62 209.236 -103.23 211.418 C-103.612 212.799 -103.994 214.181 -104.375 215.562 C-104.713 216.781 -105.05 217.999 -105.398 219.254 C-105.597 220.16 -105.795 221.066 -106 222 C-105.67 222.33 -105.34 222.66 -105 223 C-93.982 208.837 -82.409 193.917 -76 177 C-75.585 175.906 -75.17 174.811 -74.742 173.684 C-72.705 168.128 -70.863 162.567 -69.25 156.875 C-67.46 150.936 -65.091 145.341 -62.562 139.688 C-62.191 138.851 -61.819 138.015 -61.437 137.154 C-59.005 131.827 -56.233 126.882 -53 122 C-51.68 122.33 -50.36 122.66 -49 123 C-49 124.65 -49 126.3 -49 128 C-33.821 116.198 -26.849 107.209 -24.143 88.25 C-23.074 80.913 -21.186 74.088 -19 67 C-18.493 65.085 -17.993 63.168 -17.5 61.25 C-16.564 57.756 -15.426 54.51 -14 51.188 C-10.748 43.26 -9.344 34.953 -8.289 26.492 C-8.167 25.524 -8.046 24.557 -7.92 23.56 C-7.687 21.647 -7.468 19.732 -7.265 17.815 C-6.456 11.038 -4.949 4.949 0 0 Z " fill="#030303" transform="translate(439,353)"/>
<path d="M0 0 C-1.402 12.969 -16.901 24.793 -26.625 32.688 C-27.521 33.4 -28.417 34.113 -29.34 34.848 C-32.906 37.733 -36.286 40.801 -39.672 43.895 C-41.724 45.751 -43.818 47.534 -45.938 49.312 C-54.713 56.995 -61.999 66.084 -69.105 75.281 C-72.775 80.024 -76.574 84.661 -80.366 89.306 C-83.357 92.973 -86.32 96.659 -89.25 100.375 C-93.3 105.44 -97.572 110.263 -102 115 C-102.868 115.933 -103.735 116.867 -104.629 117.828 C-111.411 124.89 -118.923 132.519 -129 134 C-128.592 128.104 -126.023 124.456 -122.75 119.75 C-122.217 118.968 -121.684 118.186 -121.135 117.38 C-115.742 109.512 -110.141 101.794 -104.517 94.091 C-102.651 91.519 -100.821 88.923 -98.993 86.325 C-94.276 79.637 -89.272 73.26 -84 67 C-83.137 65.951 -82.275 64.902 -81.414 63.852 C-72.739 53.34 -63.509 43.745 -52.816 35.258 C-50.35 33.281 -47.953 31.243 -45.568 29.169 C-10.732 -0.976 -10.732 -0.976 0 0 Z " fill="#060606" transform="translate(391,634)"/>
<path d="M0 0 C0.684 1.664 0.684 1.664 1 4 C-0.152 6.523 -0.152 6.523 -1.938 9.375 C-2.592 10.451 -3.247 11.528 -3.922 12.637 C-4.608 13.747 -5.293 14.856 -6 16 C-11.235 24.647 -15.699 33.479 -20 42.625 C-26.519 56.393 -35.395 74.74 -49 83 C-49.99 83 -50.98 83 -52 83 C-51.416 78.933 -50.112 76.132 -47.973 72.641 C-47.35 71.616 -46.728 70.591 -46.087 69.535 C-45.419 68.451 -44.751 67.367 -44.062 66.25 C-42.683 63.985 -41.304 61.719 -39.926 59.453 C-39.251 58.348 -38.576 57.242 -37.881 56.104 C-35.453 52.098 -33.098 48.053 -30.75 44 C-24.19 32.774 -17.123 21.872 -9.625 11.25 C-9.232 10.69 -8.84 10.129 -8.436 9.552 C-5.89 6.001 -3.148 3.003 0 0 Z " fill="#0B0B0B" transform="translate(379,575)"/>
<path d="M0 0 C1.037 6.57 -2.53 10.779 -6 16 C-6.38 16.575 -6.761 17.15 -7.153 17.742 C-9.271 20.941 -11.402 24.129 -13.543 27.312 C-15.67 30.486 -17.722 33.7 -19.75 36.938 C-21.832 40.214 -23.94 43.459 -26.188 46.625 C-26.635 47.257 -27.082 47.888 -27.543 48.539 C-29.289 50.29 -30.589 50.618 -33 51 C-35.29 46.42 -34.535 40.918 -33.199 36.129 C-28.504 23.978 -15.14 0 0 0 Z " fill="#09090A" transform="translate(410,734)"/>
<path d="M0 0 C0.66 0 1.32 0 2 0 C3.597 2.006 5.025 3.992 6.438 6.125 C6.876 6.787 7.314 7.448 7.765 8.13 C20.148 27.373 38.164 58.195 36 82 C33.475 79.721 32.051 77.477 30.539 74.441 C29.841 73.047 29.841 73.047 29.129 71.625 C28.385 70.109 28.385 70.109 27.625 68.562 C26.844 66.983 26.844 66.983 26.046 65.371 C2.031 16.524 2.031 16.524 0 0 Z " fill="#F1F1F1" transform="translate(586,611)"/>
<path d="M0 0 C-0.462 4.971 -1.678 7.317 -5 11 C-7.038 12.664 -9.076 14.249 -11.188 15.812 C-18.636 21.481 -25.346 27.823 -32.09 34.301 C-42.257 44 -42.257 44 -45 44 C-45.688 34.855 -40.301 29.005 -34.638 22.415 C-11.601 -3.223 -11.601 -3.223 0 0 Z " fill="#0B0B0B" transform="translate(417,389)"/>
<path d="M0 0 C0.66 0 1.32 0 2 0 C3.924 12.704 -3.766 25.093 -10.82 35.098 C-21.728 49.622 -21.728 49.622 -25.801 50.832 C-26.527 50.887 -27.252 50.943 -28 51 C-28.468 45.141 -27.107 41.466 -24.125 36.562 C-23.522 35.534 -23.522 35.534 -22.907 34.484 C-21.623 32.311 -20.316 30.154 -19 28 C-18.573 27.295 -18.145 26.59 -17.705 25.864 C-5.041 5.041 -5.041 5.041 0 0 Z " fill="#0C0B0C" transform="translate(441,606)"/>
<path d="M0 0 C0.66 0.33 1.32 0.66 2 1 C2.373 6.583 1.322 10.445 -1.25 15.312 C-1.776 16.333 -1.776 16.333 -2.312 17.373 C-8.473 28.986 -16.03 42.257 -26 51 C-26.66 51 -27.32 51 -28 51 C-27.699 44.474 -26.374 39.82 -23 34.25 C-22.401 33.223 -22.401 33.223 -21.79 32.175 C-18.481 26.589 -14.84 21.269 -11.074 15.984 C-8.609 12.438 -6.422 8.777 -4.289 5.023 C-3.035 3.054 -1.714 1.574 0 0 Z " fill="#0F0E0F" transform="translate(411,331)"/>
<path d="M0 0 C0.408 5.673 -0.743 9.456 -3.5 14.312 C-3.86 14.965 -4.22 15.617 -4.592 16.289 C-9.264 24.528 -15.405 33.193 -23 39 C-23.99 39 -24.98 39 -26 39 C-25.599 32.552 -24.063 28.584 -20.5 23.25 C-19.834 22.22 -19.834 22.22 -19.154 21.169 C-5.294 0 -5.294 0 0 0 Z " fill="#0B0B0B" transform="translate(289,493)"/>
<path d="M0 0 C0.707 2.199 0.707 2.199 1 5 C-3.701 13.653 -13.644 22.736 -23 26 C-25.875 25.688 -25.875 25.688 -28 25 C-26.707 15.886 -19.351 10.1 -12.43 4.727 C-5.156 -0.442 -5.156 -0.442 0 0 Z " fill="#0C0C0D" transform="translate(405,593)"/>
<path d="M0 0 C0.66 0 1.32 0 2 0 C0.068 7.969 -2.615 15.324 -5.938 22.812 C-6.367 23.81 -6.797 24.807 -7.24 25.834 C-9.454 30.882 -11.66 35.599 -15 40 C-15.33 40 -15.66 40 -16 40 C-16.877 26.849 -11.094 12.865 -2.75 2.75 C-1.389 1.389 -1.389 1.389 0 0 Z " fill="#F0F0F0" transform="translate(319,574)"/>
<path d="M0 0 C0.99 0.33 1.98 0.66 3 1 C1.478 10.774 -5.794 19.549 -13 26 C-13.99 26 -14.98 26 -16 26 C-15.515 14.84 -7.83 7.204 0 0 Z " fill="#121112" transform="translate(336,456)"/>
<path d="M0 0 C-0.169 9.14 -5.155 15.148 -11.25 21.625 C-14 24 -14 24 -17 24 C-16.605 17.955 -14.806 14.533 -11.188 9.75 C-10.749 9.139 -10.31 8.528 -9.857 7.898 C-4.054 0 -4.054 0 0 0 Z " fill="#0F0E0F" transform="translate(449,499)"/>
<path d="M0 0 C0.99 0.33 1.98 0.66 3 1 C1.741 2.842 0.468 4.673 -0.812 6.5 C-1.52 7.521 -2.228 8.542 -2.957 9.594 C-3.631 10.388 -4.305 11.182 -5 12 C-5.99 12 -6.98 12 -8 12 C-9.887 13.306 -9.887 13.306 -11.688 15 C-12.621 15.835 -12.621 15.835 -13.574 16.688 C-14.045 17.121 -14.515 17.554 -15 18 C-13.665 15.059 -12.175 12.892 -9.961 10.547 C-9.381 9.928 -8.801 9.309 -8.203 8.672 C-7.6 8.038 -6.997 7.403 -6.375 6.75 C-5.764 6.1 -5.153 5.451 -4.523 4.781 C-3.02 3.184 -1.512 1.59 0 0 Z " fill="#E2E2E2" transform="translate(373,578)"/>
</svg>