<svg version="1.1" xmlns="http://www.w3.org/2000/svg" width="1024" height="1024">
<path d="M0 0 C337.92 0 675.84 0 1024 0 C1024 337.92 1024 675.84 1024 1024 C686.08 1024 348.16 1024 0 1024 C0 686.08 0 348.16 0 0 Z " fill="#FEFEFE" transform="translate(0,0)"/>
<path d="M0 0 C1.184 -0.021 1.184 -0.021 2.393 -0.042 C7.551 0 11.173 0.957 15.75 3.375 C18.791 6.65 19.66 8.767 20.312 13.188 C19.843 23.448 15.494 34.27 11.449 43.59 C10.628 45.366 10.628 45.366 10.75 47.375 C11.262 47.626 11.773 47.876 12.3 48.134 C21.848 52.824 31.351 57.587 40.688 62.688 C41.425 63.083 42.163 63.479 42.923 63.886 C48.326 66.877 52.281 70.171 55.75 75.375 C56.487 79.871 56.16 83.487 54.25 87.625 C49.271 93.102 42.57 96.215 35.75 98.875 C34.622 99.316 34.622 99.316 33.472 99.766 C23.235 103.557 12.47 105.471 1.75 107.375 C0.804 107.566 -0.142 107.757 -1.116 107.954 C-4.705 108.436 -7.984 108.283 -11.598 108.051 C-17.519 107.747 -23.419 107.59 -29.348 107.711 C-30.034 107.709 -30.72 107.708 -31.427 107.706 C-37.469 107.891 -41.628 110.038 -45.782 114.434 C-46.139 114.965 -46.496 115.496 -46.863 116.043 C-51.206 121.874 -56.526 126.798 -61.689 131.89 C-63.423 133.611 -65.139 135.348 -66.85 137.092 C-67.387 137.636 -67.925 138.181 -68.479 138.743 C-69.504 139.782 -70.526 140.824 -71.544 141.87 C-72.742 143.077 -73.992 144.231 -75.25 145.375 C-75.91 145.375 -76.57 145.375 -77.25 145.375 C-77.25 146.035 -77.25 146.695 -77.25 147.375 C-76.702 147.389 -76.154 147.403 -75.59 147.418 C-64.827 148.066 -54.493 151.891 -45.031 156.938 C-42.799 158.091 -40.57 159.155 -38.281 160.188 C-29.357 164.223 -21.199 168.587 -13.25 174.375 C-12.29 175.062 -11.329 175.749 -10.34 176.457 C30.959 206.656 58.617 249.689 66.761 300.505 C68.085 309.551 68.168 318.546 68.086 327.673 C68.062 330.505 68.066 333.336 68.072 336.168 C68.043 357.188 64.635 376.21 58.875 396.438 C58.549 397.614 58.223 398.79 57.887 400.002 C55.692 407.726 52.994 415.034 49.75 422.375 C49.414 423.156 49.078 423.936 48.732 424.74 C31.222 465.399 7.541 501.853 -21.535 535.227 C-23.935 537.987 -26.225 540.823 -28.5 543.688 C-37.054 554.224 -46.692 563.947 -56.363 573.453 C-58.335 575.462 -60.17 577.549 -62 579.688 C-64.532 582.639 -67.15 585.009 -70.25 587.375 C-71.931 589.027 -73.595 590.697 -75.25 592.375 C-88.357 605.643 -88.357 605.643 -94.172 610.578 C-96.331 612.445 -98.426 614.374 -100.518 616.316 C-105.708 621.133 -111.026 625.696 -116.547 630.137 C-119.308 632.423 -121.935 634.811 -124.562 637.25 C-129.085 641.408 -133.774 645.228 -138.629 648.981 C-143.484 652.742 -148.217 656.635 -152.938 660.562 C-158.389 665.083 -163.893 669.439 -169.672 673.539 C-172.424 675.499 -175.119 677.524 -177.812 679.562 C-196.822 693.85 -216.405 707.281 -236.25 720.375 C-236.952 720.839 -237.655 721.303 -238.378 721.781 C-249.013 728.79 -259.842 735.434 -270.8 741.923 C-273.185 743.336 -275.565 744.757 -277.945 746.18 C-282.027 748.613 -286.129 751.008 -290.25 753.375 C-291.239 753.946 -292.227 754.517 -293.246 755.105 C-294.516 755.796 -294.516 755.796 -295.812 756.5 C-296.494 756.874 -297.176 757.248 -297.879 757.633 C-303.16 759.286 -307.495 759.014 -312.371 756.574 C-313.821 755.756 -315.259 754.918 -316.688 754.062 C-317.477 753.605 -318.266 753.148 -319.08 752.677 C-327.32 747.852 -335.303 742.664 -343.25 737.375 C-344.464 736.571 -345.678 735.768 -346.893 734.964 C-363.495 723.981 -380.051 712.948 -396.25 701.375 C-397.386 700.567 -397.386 700.567 -398.545 699.742 C-413.871 688.827 -428.772 677.387 -443.535 665.727 C-445.301 664.334 -447.072 662.948 -448.844 661.562 C-459.944 652.881 -470.794 643.962 -481.418 634.703 C-484.469 632.046 -487.544 629.417 -490.628 626.798 C-497.443 621.003 -504.056 615.025 -510.593 608.919 C-514.085 605.666 -517.602 602.44 -521.114 599.207 C-523.191 597.291 -525.252 595.373 -527.25 593.375 C-531.399 593.555 -533.536 596.305 -536.322 599.123 C-537.06 599.862 -537.06 599.862 -537.812 600.616 C-539.434 602.245 -541.045 603.884 -542.656 605.523 C-543.784 606.659 -544.912 607.794 -546.041 608.928 C-549.011 611.916 -551.973 614.912 -554.933 617.91 C-559.668 622.705 -564.416 627.487 -569.165 632.268 C-570.821 633.938 -572.472 635.611 -574.124 637.285 C-575.142 638.313 -576.16 639.341 -577.178 640.369 C-578.063 641.265 -578.948 642.161 -579.86 643.085 C-581.904 645.043 -583.94 646.746 -586.25 648.375 C-585.546 653.943 -582.802 658.431 -580.221 663.316 C-576.799 669.934 -574.963 675.903 -574.938 683.438 C-574.921 684.604 -574.904 685.771 -574.887 686.973 C-575.457 692.312 -577.275 695.443 -581.125 699.125 C-585.465 702.25 -588.8 703.663 -594.157 703.459 C-595.58 703.415 -595.58 703.415 -597.031 703.371 C-598.045 703.332 -599.06 703.294 -600.105 703.254 C-602.277 703.204 -604.448 703.157 -606.619 703.111 C-610.026 703.031 -613.43 702.938 -616.835 702.806 C-631.708 701.586 -631.708 701.586 -644.5 707.68 C-645.771 709.228 -647.022 710.792 -648.25 712.375 C-669.584 729.28 -669.584 729.28 -680.312 730.812 C-683.993 730.264 -685.609 728.941 -688.25 726.375 C-690.096 722.682 -689.976 719.327 -689.25 715.375 C-687.132 709.792 -684.144 704.583 -681.25 699.375 C-680.517 698.008 -680.517 698.008 -679.77 696.613 C-677.599 692.761 -675.367 689.434 -672.293 686.254 C-666.617 680.583 -666.617 680.583 -664.116 673.265 C-664.629 668.745 -666.049 664.515 -667.585 660.251 C-670.224 652.803 -670.508 645.01 -670.688 637.188 C-670.722 636.343 -670.756 635.499 -670.792 634.63 C-670.834 628.325 -669.21 624.276 -665.25 619.375 C-659.469 613.883 -654.16 612.963 -646.41 613.133 C-636.032 613.928 -626.544 618.571 -617.079 622.602 C-614.815 623.559 -612.536 624.474 -610.25 625.375 C-603.441 618.761 -603.441 618.761 -597.125 611.688 C-594.459 608.474 -591.432 605.887 -588.254 603.191 C-585.624 600.807 -583.409 598.155 -581.121 595.448 C-579.373 593.511 -577.587 591.862 -575.594 590.184 C-570.921 586.152 -566.587 581.824 -562.25 577.438 C-561.475 576.658 -560.701 575.879 -559.902 575.076 C-558.016 573.178 -556.132 571.278 -554.25 569.375 C-555.871 565.931 -557.675 563.768 -560.438 561.125 C-563.882 557.757 -567.113 554.317 -570.246 550.66 C-572.307 548.311 -574.424 546.025 -576.557 543.742 C-581.519 538.427 -586.303 533.035 -590.855 527.359 C-592.632 525.145 -594.425 522.95 -596.238 520.766 C-604.362 510.946 -611.956 500.825 -619.25 490.375 C-619.754 489.656 -620.258 488.937 -620.777 488.197 C-638.895 462.19 -652.771 434.244 -663.25 404.375 C-663.781 402.872 -663.781 402.872 -664.323 401.338 C-666.462 395.13 -668.157 389.024 -669.312 382.562 C-669.556 381.226 -669.556 381.226 -669.804 379.862 C-670.305 377.036 -670.782 374.207 -671.25 371.375 C-671.404 370.452 -671.558 369.529 -671.716 368.579 C-675.053 347.945 -675.388 327.322 -672.544 306.605 C-672.256 304.418 -672.025 302.23 -671.801 300.035 C-668.532 271.628 -655.987 241.844 -638.613 219.246 C-636.086 216.23 -636.086 216.23 -635.292 212.544 C-636.725 209.3 -639.138 207.113 -641.64 204.676 C-642.201 204.118 -642.762 203.56 -643.34 202.984 C-645.197 201.14 -647.063 199.307 -648.93 197.473 C-650.222 196.191 -651.514 194.908 -652.805 193.625 C-656.207 190.245 -659.618 186.874 -663.03 183.505 C-668.487 178.118 -673.937 172.724 -679.378 167.32 C-681.278 165.436 -683.185 163.559 -685.093 161.682 C-686.262 160.523 -687.432 159.363 -688.601 158.203 C-689.131 157.685 -689.661 157.167 -690.207 156.633 C-694.88 151.976 -697.682 148.259 -697.875 141.562 C-697.929 140.587 -697.983 139.611 -698.039 138.605 C-696.121 130.753 -689.165 126.298 -682.625 122.253 C-681.697 121.695 -680.769 121.137 -679.812 120.562 C-677.841 119.342 -675.871 118.119 -673.902 116.895 C-672.939 116.299 -671.976 115.702 -670.984 115.088 C-667.22 112.729 -663.532 110.271 -659.875 107.75 C-659.249 107.319 -658.623 106.887 -657.978 106.443 C-652.299 102.483 -646.774 98.318 -641.299 94.082 C-636.461 90.375 -636.461 90.375 -634.25 90.375 C-634.478 89.856 -634.706 89.336 -634.941 88.801 C-636.234 85.664 -637.25 83.106 -637.25 79.688 C-635.88 76.519 -633.794 74.664 -631.25 72.375 C-630.92 72.045 -630.59 71.715 -630.25 71.375 C-625.585 70.951 -623.065 71.682 -619.25 74.375 C-619.018 73.681 -618.786 72.988 -618.547 72.273 C-616.985 68.782 -614.871 65.966 -612.5 63 C-612.02 62.395 -611.539 61.79 -611.045 61.167 C-605.166 53.877 -598.748 47.11 -592.25 40.375 C-591.706 39.804 -591.163 39.233 -590.603 38.645 C-574.101 21.34 -574.101 21.34 -564.562 21.062 C-563.734 21.025 -562.905 20.988 -562.051 20.949 C-554.627 22.078 -549.744 27.466 -544.75 32.625 C-544.125 33.255 -543.5 33.886 -542.855 34.535 C-539.741 37.701 -536.74 40.93 -533.844 44.297 C-529.872 48.887 -525.576 53.121 -521.25 57.375 C-516.239 62.302 -511.386 67.267 -506.805 72.598 C-504.728 74.972 -502.509 77.175 -500.25 79.375 C-497.349 82.2 -494.608 85.089 -491.969 88.156 C-488.105 92.614 -483.957 96.743 -479.75 100.875 C-474.93 105.609 -470.295 110.399 -465.889 115.522 C-463.914 117.755 -461.82 119.824 -459.671 121.887 C-446.82 134.233 -446.82 134.233 -445.898 140.93 C-445.875 143.438 -445.875 143.438 -446.25 147.375 C-445.277 147.487 -445.277 147.487 -444.285 147.602 C-427.689 149.826 -410.569 153.546 -395.25 160.375 C-393.71 161.029 -392.17 161.683 -390.629 162.336 C-372.936 169.947 -357.32 179.403 -342.25 191.375 C-341.636 191.861 -341.022 192.348 -340.389 192.849 C-333.143 198.624 -333.143 198.624 -330.25 201.375 C-330.25 202.035 -330.25 202.695 -330.25 203.375 C-329.59 203.375 -328.93 203.375 -328.25 203.375 C-328.213 202.694 -328.175 202.014 -328.137 201.312 C-326.07 170.835 -316.607 138.776 -303.25 111.375 C-302.827 110.5 -302.405 109.625 -301.969 108.723 C-293.491 91.346 -283.643 76.357 -270.25 62.375 C-269.546 61.62 -268.842 60.864 -268.117 60.086 C-262.359 54.08 -256.05 49.15 -249.25 44.375 C-247.765 43.313 -247.765 43.313 -246.25 42.23 C-222.636 26.17 -191.464 12.918 -162.675 10.714 C-159.849 10.319 -157.148 9.581 -154.388 8.873 C-140.047 5.531 -124.764 6.06 -110.149 6.114 C-106.661 6.125 -103.174 6.114 -99.686 6.102 C-97.435 6.103 -95.184 6.105 -92.934 6.109 C-91.907 6.105 -90.881 6.101 -89.824 6.097 C-81.834 6.149 -72.806 6.253 -66.25 11.375 C-63.748 15.128 -63.834 18.036 -64.25 22.375 C-64.817 25.149 -65.63 27.808 -66.5 30.5 C-66.965 32.006 -67.43 33.513 -67.895 35.02 C-68.242 36.129 -68.242 36.129 -68.596 37.26 C-69.512 40.222 -70.35 43.203 -71.188 46.188 C-74.972 59.47 -78.998 72.674 -83.202 85.829 C-84.823 90.932 -86.308 96.05 -87.609 101.246 C-88.25 103.375 -88.25 103.375 -89.328 105.348 C-90.449 107.813 -90.315 109.694 -90.25 112.375 C-86.078 108.654 -81.974 104.873 -77.915 101.029 C-76.531 99.735 -75.132 98.457 -73.716 97.198 C-63.78 88.41 -63.78 88.41 -60.012 76.139 C-59.966 72.926 -60.052 69.733 -60.205 66.524 C-60.309 61.554 -59.106 56.708 -58.062 51.875 C-57.843 50.825 -57.623 49.776 -57.396 48.694 C-49.699 13.194 -49.699 13.194 -40.493 4.766 C-37.795 3.093 -35.805 2.778 -32.656 2.426 C-31.552 2.3 -30.449 2.173 -29.312 2.043 C-27.549 1.867 -27.549 1.867 -25.75 1.688 C-24.546 1.562 -23.343 1.437 -22.103 1.308 C-14.738 0.59 -7.4 0.07 0 0 Z " fill="#1F052D" transform="translate(824.25,144.625)"/>
<path d="M0 0 C2.669 0.024 5.338 0.02 8.008 0.014 C17.113 0.029 25.768 0.446 34.709 2.336 C36.238 2.602 37.768 2.866 39.299 3.125 C57.505 6.519 74.515 13.432 90.709 22.336 C91.34 22.683 91.971 23.029 92.621 23.386 C120.022 38.651 142.283 61.49 156.709 89.336 C157.045 89.983 157.381 90.629 157.728 91.296 C166.044 107.526 171.214 124.278 173.709 142.336 C173.804 142.995 173.899 143.654 173.997 144.333 C176.196 161.283 175.663 179.521 172.709 196.336 C172.484 197.871 172.26 199.406 172.037 200.942 C168.474 223.709 159.894 245.745 149.709 266.336 C149.29 267.186 148.871 268.035 148.44 268.911 C133.799 298.34 114.667 325.496 93.236 350.375 C90.936 353.069 88.724 355.813 86.521 358.586 C81.218 365.109 75.395 371.135 69.603 377.223 C66.521 380.465 63.508 383.756 60.521 387.086 C55.185 392.935 49.612 398.543 44.021 404.149 C43.13 405.045 42.238 405.941 41.319 406.865 C36.876 411.298 32.377 415.588 27.614 419.676 C24.278 422.583 21.102 425.661 17.896 428.711 C12.543 433.772 7.117 438.572 1.353 443.16 C-1.655 445.635 -4.504 448.245 -7.354 450.899 C-11.697 454.936 -16.159 458.741 -20.826 462.399 C-23.348 464.381 -25.82 466.415 -28.291 468.461 C-41.529 479.301 -55.181 489.597 -69.009 499.669 C-71.123 501.214 -73.228 502.771 -75.33 504.332 C-102.191 524.156 -130.556 542.365 -159.291 559.336 C-160.208 559.91 -161.124 560.483 -162.069 561.074 C-164.291 562.336 -164.291 562.336 -166.291 562.336 C-166.75 528.337 -167.065 494.337 -167.291 460.336 C-167.296 459.55 -167.302 458.764 -167.307 457.954 C-167.452 436.014 -167.564 414.075 -167.619 392.135 C-167.642 383.218 -167.673 374.301 -167.726 365.384 C-167.771 357.69 -167.798 349.995 -167.803 342.301 C-167.806 338.321 -167.818 334.342 -167.85 330.363 C-167.88 326.678 -167.887 322.994 -167.875 319.309 C-167.875 317.343 -167.899 315.376 -167.924 313.41 C-167.858 303.961 -165.71 296.942 -159.354 289.836 C-155.449 286.212 -151.054 283.224 -146.701 280.17 C-131.81 269.718 -118.535 257.96 -113.592 239.762 C-112.051 227.331 -113.832 217.437 -121.041 207.086 C-127.789 198.973 -135.42 193.789 -144.854 189.211 C-162.868 180.362 -162.868 180.362 -168.291 172.336 C-169.47 168.799 -169.421 165.992 -169.424 162.258 C-169.426 161.547 -169.428 160.837 -169.43 160.104 C-169.438 153.638 -169.386 147.173 -169.327 140.707 C-169.289 136.074 -169.312 131.449 -169.411 126.817 C-169.759 109.179 -167.798 96.738 -157.291 82.336 C-156.485 81.162 -155.68 79.986 -154.877 78.809 C-148.803 70.298 -141.671 62.716 -134.291 55.336 C-133.617 54.604 -132.943 53.872 -132.248 53.117 C-110.547 30.033 -78.868 14.8 -48.791 6.274 C-47.944 6.028 -47.097 5.782 -46.224 5.529 C-30.959 1.338 -15.786 -0.151 0 0 Z " fill="#3EC2FE" transform="translate(694.291259765625,309.663818359375)"/>
<path d="M0 0 C30.631 5 59.431 15.588 84.805 33.621 C85.694 34.248 85.694 34.248 86.602 34.888 C107.707 49.992 124.23 69.473 135.805 92.621 C135.9 94.865 135.93 97.113 135.931 99.359 C135.933 100.398 135.933 100.398 135.936 101.459 C135.94 102.968 135.942 104.476 135.943 105.985 C135.946 109.206 135.968 112.428 135.988 115.649 C136.026 121.645 136.057 127.641 136.055 133.637 C136.054 137.809 136.078 141.98 136.117 146.151 C136.127 147.732 136.129 149.313 136.121 150.894 C136.07 162.59 137.299 172.897 145.406 181.992 C150.108 186.258 155.494 188.949 161.18 191.684 C174.084 197.991 186.93 204.772 192.805 218.621 C194.528 229.658 191.476 237.423 185.562 246.535 C179.272 254.78 169.262 260.887 160.93 266.871 C149.81 274.937 142.241 282.96 138.805 296.621 C138.399 300.265 138.388 303.872 138.406 307.536 C138.399 308.601 138.393 309.667 138.386 310.764 C138.367 314.316 138.37 317.867 138.372 321.418 C138.363 323.971 138.353 326.524 138.341 329.077 C138.32 334.564 138.307 340.051 138.302 345.538 C138.296 353.472 138.273 361.405 138.246 369.338 C138.203 382.211 138.173 395.084 138.151 407.957 C138.13 420.457 138.103 432.958 138.067 445.459 C138.065 446.23 138.063 447.001 138.06 447.796 C138.049 451.665 138.038 455.535 138.027 459.404 C137.934 491.476 137.862 523.549 137.805 555.621 C136.522 554.986 135.239 554.35 133.957 553.713 C133.243 553.359 132.529 553.005 131.793 552.64 C129.529 551.48 127.418 550.187 125.309 548.766 C124.119 547.969 124.119 547.969 122.905 547.156 C122.068 546.587 121.23 546.019 120.367 545.434 C119.469 544.829 118.571 544.225 117.646 543.602 C114.695 541.614 111.75 539.618 108.805 537.621 C106.694 536.195 104.583 534.769 102.473 533.344 C83.958 520.815 65.743 507.96 47.805 494.621 C47.089 494.09 46.373 493.558 45.635 493.01 C32.428 483.198 19.504 473.082 6.805 462.621 C5.013 461.163 3.221 459.704 1.43 458.246 C-3.72 454.033 -8.806 449.747 -13.875 445.438 C-16.059 443.581 -18.252 441.735 -20.453 439.898 C-27.184 434.271 -33.702 428.465 -40.117 422.48 C-42.922 419.864 -45.771 417.3 -48.633 414.746 C-52.279 411.481 -55.78 408.127 -59.195 404.621 C-57.709 401.168 -55.752 398.93 -53.1 396.283 C-52.256 395.436 -51.411 394.588 -50.541 393.714 C-49.169 392.353 -49.169 392.353 -47.77 390.965 C-46.82 390.016 -45.871 389.068 -44.922 388.119 C-42.933 386.132 -40.942 384.148 -38.948 382.167 C-36.4 379.637 -33.86 377.101 -31.322 374.562 C-29.362 372.602 -27.399 370.645 -25.436 368.689 C-24.045 367.303 -22.656 365.915 -21.267 364.528 C-20.412 363.68 -19.558 362.832 -18.678 361.959 C-17.558 360.845 -17.558 360.845 -16.416 359.708 C-14.106 357.537 -11.679 355.588 -9.195 353.621 C-8.222 352.548 -7.281 351.445 -6.383 350.309 C-4.347 347.854 -2.268 345.75 0.18 343.711 C5.778 338.872 10.936 333.601 16.147 328.354 C18.03 326.458 19.915 324.566 21.802 322.675 C25.805 318.66 29.805 314.641 33.805 310.621 C38.444 305.958 43.085 301.296 47.731 296.639 C49.576 294.787 51.418 292.933 53.26 291.078 C58.44 285.876 63.606 280.726 69.21 275.975 C71.827 273.752 74.281 271.391 76.742 268.996 C78.148 267.646 78.148 267.646 79.582 266.27 C81.883 263.528 82.781 262.182 82.805 258.621 C81.837 256.702 81.837 256.702 80.117 255.059 C79.478 254.388 78.838 253.718 78.18 253.027 C77.396 252.233 76.612 251.439 75.805 250.621 C74.803 249.549 73.803 248.476 72.805 247.402 C71.744 246.286 70.681 245.172 69.617 244.059 C69.106 243.509 68.596 242.96 68.07 242.394 C66.435 240.667 66.435 240.667 63.805 238.621 C60.542 238.603 58.735 240.249 56.367 242.371 C55.812 242.861 55.256 243.351 54.684 243.855 C52.338 246.06 50.078 248.342 47.805 250.621 C46.885 251.543 45.965 252.465 45.017 253.415 C43.994 254.441 42.971 255.467 41.948 256.494 C36.211 262.247 30.472 267.998 24.731 273.747 C21.266 277.217 17.803 280.687 14.341 284.16 C10.979 287.533 7.614 290.904 4.248 294.273 C2.972 295.55 1.698 296.828 0.424 298.107 C-10.775 309.353 -10.775 309.353 -15.193 313.119 C-21.385 318.398 -27.005 324.309 -32.742 330.07 C-34.044 331.374 -35.346 332.677 -36.648 333.98 C-40.054 337.391 -43.458 340.804 -46.862 344.219 C-50.327 347.694 -53.794 351.166 -57.262 354.639 C-62.857 360.243 -68.451 365.849 -74.042 371.457 C-75.426 372.845 -76.811 374.233 -78.195 375.621 C-78.931 376.401 -79.667 377.18 -80.426 377.983 C-82.195 379.621 -82.195 379.621 -84.25 379.586 C-86.583 378.429 -87.693 377.216 -89.32 375.184 C-92.129 371.815 -95.067 368.697 -98.195 365.621 C-101.77 362.085 -105.168 358.481 -108.434 354.66 C-110.391 352.394 -112.418 350.2 -114.445 347.996 C-118.987 342.963 -123.15 337.687 -127.301 332.332 C-129.753 329.171 -132.261 326.06 -134.784 322.955 C-149.128 305.251 -161.581 285.784 -172.195 265.621 C-172.616 264.829 -173.037 264.037 -173.471 263.221 C-194.913 222.35 -207.973 170.427 -196.195 124.621 C-195.986 123.746 -195.776 122.871 -195.56 121.97 C-190.351 100.605 -181.686 80.104 -168.195 62.621 C-167.535 61.631 -166.875 60.641 -166.195 59.621 C-162.863 61.095 -160.451 62.992 -157.758 65.434 C-156.646 66.433 -156.646 66.433 -155.512 67.453 C-151.403 71.299 -147.491 75.336 -143.578 79.379 C-141.826 81.168 -140.073 82.957 -138.32 84.746 C-137.448 85.652 -136.575 86.559 -135.676 87.492 C-129.852 93.404 -125.79 96.932 -117.445 98.184 C-107.671 97.75 -98.642 89.246 -91.195 83.621 C-89.956 82.712 -88.715 81.805 -87.473 80.898 C-76.096 72.551 -65.074 63.723 -55.195 53.621 C-51.069 55.207 -48.563 58.213 -45.695 61.434 C-44.634 62.604 -43.573 63.775 -42.512 64.945 C-41.968 65.549 -41.424 66.153 -40.864 66.775 C-38.143 69.786 -35.387 72.765 -32.633 75.746 C-32.133 76.29 -31.632 76.834 -31.117 77.394 C-29.815 78.807 -28.505 80.215 -27.195 81.621 C-26.66 82.239 -26.125 82.856 -25.574 83.492 C-24.041 84.996 -24.041 84.996 -20.695 84.559 C-17.249 83.891 -17.249 83.891 -15.195 81.996 C-13.639 78.299 -13.98 76.459 -15.195 72.621 C-17.001 70.439 -18.953 68.561 -21.031 66.637 C-22.984 64.818 -24.715 62.962 -26.445 60.934 C-31.532 55.016 -36.887 49.339 -42.195 43.621 C-40.585 39.656 -37.812 36.953 -34.883 33.934 C-30.038 28.821 -25.634 23.486 -21.383 17.871 C-20.829 17.147 -20.275 16.423 -19.704 15.677 C-17.431 12.685 -15.255 9.715 -13.242 6.539 C-9.553 0.853 -6.812 -0.552 0 0 Z " fill="#FEDFC3" transform="translate(373.1953125,315.37890625)"/>
<path d="M0 0 C-0.557 1.151 -1.114 2.302 -1.688 3.488 C-11.243 23.357 -19.004 43.339 -25.791 64.302 C-26.615 66.823 -27.45 69.338 -28.305 71.849 C-30.873 79.399 -33.168 86.941 -35.062 94.688 C-35.327 95.704 -35.592 96.721 -35.865 97.769 C-37.121 102.719 -38.13 107.467 -38.496 112.566 C-39.539 124.789 -39.539 124.789 -44.032 128.826 C-49.4 132.422 -55.24 135.002 -61.123 137.633 C-65.466 139.696 -69.408 142.234 -73.375 144.938 C-74.106 145.435 -74.837 145.932 -75.59 146.445 C-94.002 159.199 -111.039 174.429 -124.25 192.594 C-126 195 -126 195 -128 197 C-129.2 195.76 -130.358 194.481 -131.5 193.188 C-132.15 192.48 -132.799 191.772 -133.469 191.043 C-137.224 183.58 -134.805 173.769 -133.5 165.812 C-133.24 164.224 -133.24 164.224 -132.976 162.604 C-123.897 110.005 -105.247 56.698 -60.306 24.574 C-44.299 13.648 -26.5 6.413 -8 1 C-5.072 0.024 -3.044 -0.082 0 0 Z " fill="#3491E3" transform="translate(647,178)"/>
<path d="M0 0 C1.391 1.576 2.712 3.214 4 4.875 C7.948 9.82 12.153 14.258 16.68 18.688 C19.23 21.229 21.566 23.889 23.906 26.621 C26.787 29.894 29.769 33.069 32.75 36.25 C57 62.147 57 62.147 57 65 C53.302 66.513 49.603 68.025 45.904 69.535 C44.036 70.298 42.168 71.062 40.301 71.826 C34.229 74.304 28.15 76.723 22 79 C18.673 80.256 15.365 81.554 12.062 82.875 C11.201 83.201 10.339 83.527 9.451 83.863 C4.637 85.613 4.637 85.613 1.875 89.613 C2.013 92.244 2.604 93.783 4 96 C9.207 95.435 13.747 94.178 18.625 92.25 C19.321 91.981 20.017 91.712 20.734 91.436 C22.151 90.888 23.568 90.337 24.984 89.783 C26.808 89.075 28.64 88.388 30.473 87.703 C35.966 85.647 41.316 83.433 46.625 80.938 C61.735 73.868 61.735 73.868 66.008 74.117 C68.887 75.393 70.626 77.308 72.812 79.562 C74.141 80.931 74.141 80.931 75.496 82.328 C78.073 85.077 80.57 87.872 83.02 90.734 C85.641 93.733 88.352 96.645 91.062 99.562 C95.144 103.961 99.147 108.398 103 113 C99.271 121.247 90.964 126.603 84 132 C82.548 133.143 82.548 133.143 81.066 134.309 C74.793 139.204 68.411 143.935 61.938 148.562 C61.211 149.087 60.485 149.612 59.736 150.153 C59.048 150.64 58.361 151.127 57.652 151.629 C57.044 152.063 56.435 152.497 55.808 152.944 C53.834 154.097 52.272 154.72 50 155 C47.875 153.125 47.875 153.125 46.589 151.7 C44.656 149.631 42.571 147.798 40.448 145.925 C35.107 141.145 30.018 136.152 24.96 131.074 C24.004 130.117 23.046 129.16 22.089 128.203 C19.523 125.638 16.961 123.069 14.399 120.5 C11.709 117.804 9.016 115.11 6.323 112.417 C1.239 107.33 -3.842 102.24 -8.922 97.15 C-14.712 91.348 -20.505 85.55 -26.299 79.752 C-38.202 67.838 -50.102 55.92 -62 44 C-60.824 40.472 -60.205 40.246 -57.09 38.469 C-55.864 37.756 -55.864 37.756 -54.614 37.029 C-53.731 36.525 -52.848 36.02 -51.938 35.5 C-34.937 25.538 -18.115 14.353 -3.465 1.113 C-2 0 -2 0 0 0 Z " fill="#FDD221" transform="translate(205,243)"/>
<path d="M0 0 C1.585 1.491 1.585 1.491 3.262 3.539 C3.877 4.273 4.492 5.007 5.126 5.763 C5.745 6.501 6.363 7.239 7 8 C9.238 10.489 11.524 12.933 13.812 15.375 C14.444 16.05 15.076 16.725 15.727 17.42 C21.599 23.651 27.642 29.705 33.745 35.708 C37.751 39.667 41.537 43.719 45.209 47.986 C48.472 51.655 51.998 55.061 55.5 58.5 C60.279 63.193 64.872 67.94 69.24 73.018 C72.334 76.503 75.674 79.738 79 83 C83.689 87.599 88.186 92.269 92.473 97.246 C94.217 99.249 96.041 101.142 97.938 103 C98.524 103.577 99.111 104.155 99.715 104.75 C100.139 105.163 100.563 105.575 101 106 C99.459 112.123 96.059 116.846 92.562 122 C91.934 122.933 91.305 123.867 90.657 124.828 C81.361 138.495 70.981 152.545 59 164 C56.063 162.686 54.102 161.315 51.934 158.945 C51.09 158.032 51.09 158.032 50.23 157.101 C49.638 156.449 49.047 155.797 48.438 155.125 C47.818 154.452 47.199 153.778 46.561 153.085 C44.702 151.061 42.851 149.031 41 147 C40.008 145.92 39.016 144.84 38.023 143.762 C35.343 140.847 32.671 137.924 30 135 C27.938 132.749 25.875 130.5 23.812 128.25 C22.881 127.234 21.95 126.219 21.02 125.203 C20.353 124.476 19.687 123.749 19 123 C20.284 119.623 21.743 116.523 23.547 113.395 C24.056 112.506 24.565 111.617 25.089 110.701 C25.637 109.748 26.185 108.794 26.75 107.812 C31.837 98.88 36.843 89.907 41.75 80.875 C42.358 79.767 42.966 78.66 43.593 77.519 C44.155 76.479 44.717 75.439 45.297 74.367 C45.795 73.451 46.294 72.534 46.808 71.589 C47.984 69.035 48.576 66.77 49 64 C47.305 62.332 47.305 62.332 45 61 C42.478 61.018 42.478 61.018 40 62 C38.333 63.943 38.333 63.943 37.125 66.504 C36.621 67.461 36.116 68.419 35.597 69.405 C35.07 70.447 34.543 71.489 34 72.562 C32.859 74.746 31.717 76.93 30.574 79.113 C29.697 80.81 29.697 80.81 28.802 82.542 C25.879 88.151 22.841 93.697 19.812 99.25 C18.735 101.234 17.658 103.218 16.582 105.203 C16.131 106.035 15.679 106.867 15.214 107.724 C14.107 109.8 13.041 111.89 12 114 C10 114 10 114 8.695 112.707 C8.177 112.082 7.659 111.457 7.125 110.812 C3.937 107.063 0.659 103.42 -2.688 99.812 C-3.202 99.257 -3.717 98.701 -4.248 98.128 C-5.308 96.984 -6.368 95.84 -7.428 94.697 C-8.938 93.067 -10.444 91.435 -11.949 89.801 C-16.738 84.602 -21.541 79.416 -26.37 74.255 C-39.427 60.3 -39.427 60.3 -44 55 C-44.594 54.334 -45.189 53.667 -45.801 52.98 C-47 51 -47 51 -46.926 49.086 C-44.609 43.865 -40.548 39.445 -37 35 C-36.578 34.471 -36.157 33.942 -35.723 33.397 C-8.775 0 -8.775 0 0 0 Z " fill="#FDD221" transform="translate(262,182)"/>
<path d="M0 0 C2.38 0.01 4.759 0.019 7.139 0.027 C12.905 0.049 18.671 0.082 24.438 0.125 C23.017 7.435 21.332 14.582 19.312 21.75 C19.01 22.827 18.708 23.903 18.397 25.013 C15.362 35.667 11.844 46.142 8.277 56.627 C6.89 60.752 5.618 64.908 4.359 69.074 C3.263 72.703 2.133 76.32 1 79.938 C0.791 80.606 0.582 81.275 0.367 81.964 C-0.712 85.415 -1.796 88.865 -2.887 92.312 C-5.071 99.233 -7.182 106.151 -8.984 113.184 C-9.562 115.125 -9.562 115.125 -10.562 116.125 C-12.73 116.236 -14.9 116.281 -17.07 116.301 C-18.452 116.321 -19.834 116.342 -21.216 116.364 C-21.945 116.375 -22.675 116.386 -23.426 116.398 C-44.979 116.776 -64.759 120.128 -85.387 126.462 C-88.434 127.391 -91.497 128.26 -94.562 129.125 C-91.671 93.238 -75.706 55.444 -60.562 23.125 C-60.09 22.104 -59.618 21.082 -59.131 20.03 C-57.85 17.293 -56.531 14.581 -55.188 11.875 C-54.635 10.713 -54.635 10.713 -54.072 9.527 C-53.71 8.832 -53.349 8.138 -52.977 7.422 C-52.527 6.53 -52.527 6.53 -52.069 5.62 C-42.208 -4.167 -12.642 -0.094 0 0 Z " fill="#3492E3" transform="translate(717.5625,168.875)"/>
<path d="M0 0 C2.515 1.233 4.054 2.742 5.828 4.896 C5.828 7.896 5.828 7.896 4.372 9.423 C3.705 9.962 3.038 10.501 2.351 11.056 C-3.017 15.552 -7.826 20.53 -12.7 25.55 C-13.719 26.585 -13.719 26.585 -14.758 27.642 C-15.367 28.268 -15.976 28.893 -16.604 29.538 C-18.172 30.896 -18.172 30.896 -20.172 30.896 C-20.386 31.446 -20.599 31.997 -20.818 32.565 C-22.637 35.696 -25.156 37.826 -27.84 40.195 C-35.648 47.246 -43.062 54.659 -50.485 62.111 C-51.911 63.539 -53.338 64.967 -54.765 66.395 C-58.481 70.114 -62.193 73.837 -65.905 77.56 C-69.689 81.354 -73.476 85.145 -77.262 88.937 C-83.367 95.05 -89.469 101.165 -95.57 107.282 C-96.62 108.335 -97.67 109.388 -98.721 110.441 C-100.112 111.835 -101.501 113.232 -102.891 114.629 C-105.074 116.798 -107.32 118.884 -109.592 120.96 C-117.542 128.248 -125.187 135.827 -132.801 143.462 C-133.363 144.025 -133.924 144.588 -134.502 145.168 C-138.583 149.261 -142.66 153.359 -146.735 157.458 C-150.845 161.592 -154.957 165.725 -159.074 169.853 C-160.701 171.487 -162.325 173.123 -163.949 174.76 C-164.951 175.766 -165.953 176.771 -166.956 177.777 C-167.821 178.647 -168.686 179.518 -169.578 180.415 C-171.478 182.231 -173.362 183.91 -175.389 185.571 C-177.788 187.575 -179.337 189.418 -181.172 191.896 C-181.832 191.896 -182.492 191.896 -183.172 191.896 C-183.385 192.447 -183.598 192.999 -183.817 193.568 C-185.636 196.692 -188.166 198.8 -190.86 201.146 C-195.072 204.898 -198.892 208.718 -202.516 213.052 C-204.914 215.721 -207.611 217.977 -210.376 220.255 C-212.361 222.068 -213.887 223.519 -215.172 225.896 C-214.192 229.791 -211.962 233.002 -209.86 236.396 C-205.262 244.187 -200.525 252.617 -201.172 261.896 C-201.502 262.556 -201.832 263.216 -202.172 263.896 C-202.78 263.869 -203.388 263.842 -204.014 263.815 C-210.406 263.547 -216.797 263.368 -223.193 263.237 C-225.572 263.177 -227.95 263.095 -230.327 262.99 C-245.885 261.888 -245.885 261.888 -259.62 267.986 C-261.776 270.004 -263.749 272.133 -265.689 274.358 C-268.305 277.069 -271.417 279.076 -274.547 281.146 C-275.628 281.873 -276.708 282.6 -277.821 283.349 C-278.597 283.859 -279.373 284.37 -280.172 284.896 C-281.172 281.896 -281.172 281.896 -280.055 279.583 C-275.082 271.98 -269.716 264.687 -263.454 258.083 C-261.87 256.466 -261.87 256.466 -260.172 253.896 C-260.646 249.092 -261.972 244.395 -263.11 239.708 C-265.807 228.309 -267.889 217.721 -267.172 205.896 C-265.385 204.109 -262.909 204.597 -260.485 204.521 C-248.943 204.634 -239.37 209.333 -229.794 215.443 C-227.089 216.942 -225.269 217.806 -222.172 217.896 C-219.967 216.455 -219.967 216.455 -218.11 214.271 C-217.418 213.527 -216.725 212.783 -216.012 212.017 C-214.689 210.492 -213.415 208.925 -212.172 207.333 C-210.361 205.126 -208.591 203.483 -206.422 201.646 C-202.705 198.479 -199.551 195.045 -196.422 191.302 C-194.539 189.288 -192.66 187.563 -190.568 185.78 C-186.03 181.832 -181.805 177.621 -177.586 173.337 C-175.981 171.719 -174.376 170.101 -172.77 168.484 C-170.266 165.955 -167.764 163.425 -165.265 160.892 C-162.835 158.432 -160.398 155.978 -157.961 153.525 C-156.833 152.376 -156.833 152.376 -155.683 151.205 C-154.64 150.158 -154.64 150.158 -153.577 149.089 C-152.966 148.471 -152.355 147.853 -151.726 147.215 C-150.172 145.896 -150.172 145.896 -148.172 145.896 C-147.926 145.312 -147.68 144.728 -147.426 144.126 C-145.966 141.528 -144.392 140.136 -142.116 138.211 C-134.916 131.885 -128.227 125.061 -121.47 118.268 C-119.025 115.81 -116.576 113.355 -114.127 110.901 C-108.931 105.694 -103.739 100.483 -98.547 95.271 C-92.519 89.219 -86.49 83.169 -80.456 77.123 C-78.054 74.715 -75.656 72.304 -73.257 69.893 C-71.774 68.406 -70.29 66.919 -68.807 65.432 C-68.15 64.77 -67.493 64.108 -66.816 63.426 C-63.017 59.626 -59.094 56.041 -55.028 52.529 C-52.453 50.262 -50.048 47.852 -47.646 45.404 C-47.154 44.904 -46.662 44.403 -46.155 43.888 C-45.103 42.82 -44.053 41.751 -43.004 40.68 C-40.77 38.403 -38.526 36.136 -36.283 33.869 C-32.122 29.662 -27.965 25.452 -23.824 21.225 C-20.928 18.269 -18.019 15.326 -15.102 12.39 C-13.995 11.271 -12.893 10.148 -11.796 9.021 C-10.269 7.453 -8.727 5.902 -7.181 4.353 C-6.308 3.466 -5.435 2.579 -4.536 1.665 C-2.172 -0.104 -2.172 -0.104 0 0 Z " fill="#F8242C" transform="translate(436.17242431640625,569.104248046875)"/>
<path d="M0 0 C-1.388 8.118 -3.79 15.599 -6.609 23.32 C-8.507 28.742 -9.934 33.259 -9 39 C-6.479 41.446 -6.479 41.446 -3 43 C-1.872 43.59 -0.744 44.181 0.418 44.789 C1.673 45.404 2.929 46.016 4.188 46.625 C10.611 49.785 16.977 53.042 23.312 56.375 C24.54 57.018 24.54 57.018 25.792 57.674 C26.941 58.28 26.941 58.28 28.113 58.898 C28.792 59.256 29.47 59.614 30.169 59.982 C31.829 60.905 33.42 61.947 35 63 C35 63.66 35 64.32 35 65 C21.143 69.714 7.435 73.539 -7 76 C-7.95 76.199 -8.9 76.398 -9.879 76.603 C-13.248 77.032 -15.796 76.686 -19.129 76.078 C-28.953 74.809 -38.735 73.593 -47.112 79.729 C-55.322 86.494 -62.255 94.653 -69.13 102.731 C-71.932 105.988 -74.959 108.801 -78.278 111.53 C-80.104 113.089 -81.694 114.751 -83.309 116.527 C-83.829 117.091 -84.349 117.655 -84.885 118.236 C-85.932 119.384 -86.963 120.546 -87.979 121.721 C-90.298 124.189 -91.919 125.791 -95.309 126.446 C-99.483 126.546 -101.442 126.372 -105 124 C-100.333 119.333 -95.667 114.667 -91 110 C-89.855 108.824 -89.855 108.824 -88.688 107.625 C-85.906 104.908 -83.017 102.37 -80.062 99.844 C-75.865 96.091 -71.989 91.984 -68.023 87.988 C-66.621 86.579 -65.218 85.169 -63.815 83.76 C-62.851 82.791 -61.887 81.82 -60.924 80.848 C-59.522 79.434 -58.116 78.024 -56.711 76.613 C-55.879 75.776 -55.046 74.938 -54.189 74.075 C-52 72 -52 72 -49 70 C-48.538 67.404 -48.538 67.404 -48.594 64.355 C-48.572 63.202 -48.55 62.049 -48.527 60.861 C-48.518 59.649 -48.509 58.437 -48.5 57.188 C-48.427 47.686 -47.415 39.192 -45 30 C-44.557 28.043 -44.119 26.085 -43.688 24.125 C-39.2 6.2 -39.2 6.2 -35 2 C-23.348 -0.128 -11.802 -0.231 0 0 Z " fill="#FB242C" transform="translate(828,161)"/>
<path d="M0 0 C-1.308 3.531 -3.4 5.231 -6.301 7.527 C-8.186 9.161 -9.754 10.917 -11.375 12.812 C-13.887 15.742 -16.444 18.598 -19.125 21.375 C-19.746 22.022 -20.368 22.669 -21.008 23.336 C-23.223 25.186 -25.284 26.07 -28 27 C-22.908 20.854 -17.39 15.206 -11.75 9.562 C-10.84 8.64 -9.93 7.718 -8.992 6.768 C-7.689 5.461 -7.689 5.461 -6.359 4.129 C-5.57 3.336 -4.781 2.542 -3.968 1.725 C-2 0 -2 0 0 0 Z " fill="#EED5BE" transform="translate(438,597)"/>
<path d="M0 0 C0 3.618 -0.635 4.084 -3 6.688 C-3.946 7.73 -3.946 7.73 -4.91 8.793 C-8.202 12.269 -11.575 15.656 -15 19 C-15.99 18.67 -16.98 18.34 -18 18 C-12.06 12.06 -6.12 6.12 0 0 Z " fill="#E3CCBA" transform="translate(358,674)"/>
<path d="M0 0 C0 0.33 0 0.66 0 1 C-1.052 1.124 -2.104 1.248 -3.188 1.375 C-6.506 1.919 -8.929 2.74 -12 4 C-17.01 5.139 -21.894 5.102 -27 5 C-19.445 0.612 -8.611 -0.527 0 0 Z " fill="#3EA2DA" transform="translate(676,311)"/>
<path d="M0 0 C-2.603 1.735 -4.523 2.652 -7.438 3.625 C-8.199 3.885 -8.961 4.146 -9.746 4.414 C-12 5 -12 5 -16 5 C-15.67 4.01 -15.34 3.02 -15 2 C-12.891 1.016 -12.891 1.016 -10.25 0.25 C-9.389 -0.013 -8.528 -0.276 -7.641 -0.547 C-4.775 -1.039 -2.79 -0.743 0 0 Z " fill="#311448" transform="translate(858,243)"/>
<path d="M0 0 C0.66 0.33 1.32 0.66 2 1 C0.612 2.611 -0.785 4.214 -2.188 5.812 C-2.965 6.706 -3.742 7.599 -4.543 8.52 C-6.922 10.921 -8.977 12.511 -12 14 C-12.99 14 -13.98 14 -15 14 C-10.05 9.38 -5.1 4.76 0 0 Z " fill="#1F113D" transform="translate(713,736)"/>
<path d="M0 0 C0.99 0.66 1.98 1.32 3 2 C-0.96 4.64 -4.92 7.28 -9 10 C-9.33 9.01 -9.66 8.02 -10 7 C-7.118 4.759 -4.136 2.865 -1 1 C-0.67 0.67 -0.34 0.34 0 0 Z " fill="#2A1040" transform="translate(580,866)"/>
<path d="M0 0 C0.99 0.33 1.98 0.66 3 1 C-3.435 5.95 -3.435 5.95 -10 11 C-10.33 10.01 -10.66 9.02 -11 8 C-9.35 7.34 -7.7 6.68 -6 6 C-6 5.34 -6 4.68 -6 4 C-3.188 1.812 -3.188 1.812 0 0 Z " fill="#EAC51A" transform="translate(286,374)"/>
<path d="M0 0 C1.32 1.32 2.64 2.64 4 4 C2.509 7.795 0.243 9.61 -3 12 C-2.528 9.796 -2 8 -0.938 6 C0.283 3.764 0.283 3.764 0 0 Z " fill="#EBC714" transform="translate(304,352)"/>
<path d="M0 0 C0.66 0 1.32 0 2 0 C0.556 3.239 -1.258 5.62 -3.625 8.25 C-4.257 8.956 -4.888 9.663 -5.539 10.391 C-6.021 10.922 -6.503 11.453 -7 12 C-7.66 11.34 -8.32 10.68 -9 10 C-7.548 8.327 -6.089 6.662 -4.625 5 C-3.813 4.072 -3.001 3.144 -2.164 2.188 C-1.45 1.466 -0.736 0.744 0 0 Z " fill="#EDC413" transform="translate(332,330)"/>
<path d="M0 0 C0.66 0.99 1.32 1.98 2 3 C0.906 3.867 -0.201 4.718 -1.312 5.562 C-1.927 6.038 -2.542 6.514 -3.176 7.004 C-3.778 7.333 -4.38 7.661 -5 8 C-5.99 7.67 -6.98 7.34 -8 7 C-5.422 4.352 -3.084 2.056 0 0 Z " fill="#2C123D" transform="translate(598,854)"/>
<path d="M0 0 C-1.448 3.444 -3.277 5.361 -6.125 7.75 C-7.212 8.67 -7.212 8.67 -8.32 9.609 C-8.875 10.068 -9.429 10.527 -10 11 C-10.66 10.67 -11.32 10.34 -12 10 C-10.381 8.327 -8.755 6.662 -7.125 5 C-6.22 4.072 -5.315 3.144 -4.383 2.188 C-2 0 -2 0 0 0 Z " fill="#D9C4B5" transform="translate(438,597)"/>
<path d="M0 0 C1.65 0.99 3.3 1.98 5 3 C4.393 7.128 2.962 10.332 1 14 C-0.123 11.08 -0.012 10.033 1.062 7 C2.307 4.089 2.307 4.089 1.125 1.625 C0.754 1.089 0.382 0.553 0 0 Z " fill="#2A141F" transform="translate(307,243)"/>
<path d="M0 0 C0.99 0.33 1.98 0.66 3 1 C1.742 5.508 0.096 8.491 -3 12 C-2.67 9.69 -2.34 7.38 -2 5 C-1.34 5 -0.68 5 0 5 C0 3.35 0 1.7 0 0 Z " fill="#E9C015" transform="translate(360,287)"/>
<path d="M0 0 C0.33 1.32 0.66 2.64 1 4 C-0.75 6.062 -0.75 6.062 -3 8 C-3.577 8.577 -4.155 9.155 -4.75 9.75 C-5.369 10.369 -5.369 10.369 -6 11 C-6.66 10.67 -7.32 10.34 -8 10 C-5.36 6.7 -2.72 3.4 0 0 Z " fill="#1D0F3B" transform="translate(790,656)"/>
<path d="M0 0 C0.66 0.66 1.32 1.32 2 2 C-0.64 4.64 -3.28 7.28 -6 10 C-6.33 9.01 -6.66 8.02 -7 7 C-4.69 4.69 -2.38 2.38 0 0 Z " fill="#2C81C9" transform="translate(544,343)"/>
<path d="M0 0 C0.66 0 1.32 0 2 0 C1.67 0.99 1.34 1.98 1 3 C-5.6 3 -12.2 3 -19 3 C-19 2.67 -19 2.34 -19 2 C-17.712 1.939 -16.424 1.879 -15.098 1.816 C-13.419 1.732 -11.741 1.647 -10.062 1.562 C-8.787 1.504 -8.787 1.504 -7.486 1.443 C-6.677 1.401 -5.869 1.36 -5.035 1.316 C-3.912 1.261 -3.912 1.261 -2.766 1.205 C-0.975 1.182 -0.975 1.182 0 0 Z " fill="#256AB3" transform="translate(706,282)"/>
<path d="M0 0 C0.99 0 1.98 0 3 0 C2.711 0.557 2.423 1.114 2.125 1.688 C0.934 4.008 0.934 4.008 0.125 6.625 C-1.189 9.399 -2.174 9.964 -5 11 C-3.55 7.209 -1.848 3.613 0 0 Z " fill="#1A0F3D" transform="translate(840,582)"/>
<path d="M0 0 C0.33 0.99 0.66 1.98 1 3 C-0.215 4.824 -0.215 4.824 -1.938 6.688 C-2.503 7.31 -3.069 7.933 -3.652 8.574 C-4.097 9.045 -4.542 9.515 -5 10 C-5.66 9.34 -6.32 8.68 -7 8 C-4.69 5.36 -2.38 2.72 0 0 Z " fill="#F3C719" transform="translate(344,315)"/>
<path d="M0 0 C0 0.66 0 1.32 0 2 C-3.3 3.32 -6.6 4.64 -10 6 C-10 5.01 -10 4.02 -10 3 C-9.01 3.33 -8.02 3.66 -7 4 C-7 3.34 -7 2.68 -7 2 C-4.353 0.539 -3.106 0 0 0 Z " fill="#E7BD14" transform="translate(240,315)"/>
<path d="M0 0 C0.33 0 0.66 0 1 0 C1.438 2.188 1.438 2.188 1 5 C-1.14 6.984 -3.502 8.502 -6 10 C-4.348 6.42 -2.269 3.22 0 0 Z " fill="#401E4F" transform="translate(189,359)"/>
<path d="M0 0 C0.99 0.33 1.98 0.66 3 1 C0.69 3.31 -1.62 5.62 -4 8 C-4.66 7.34 -5.32 6.68 -6 6 C-4.71 4.624 -3.373 3.292 -2 2 C-1.34 2 -0.68 2 0 2 C0 1.34 0 0.68 0 0 Z " fill="#E91D24" transform="translate(771,248)"/>
<path d="M0 0 C0.99 0.33 1.98 0.66 3 1 C0.69 3.31 -1.62 5.62 -4 8 C-4.33 7.34 -4.66 6.68 -5 6 C-3.35 4.02 -1.7 2.04 0 0 Z " fill="#E6D0BB" transform="translate(369,663)"/>
<path d="M0 0 C0.66 1.32 1.32 2.64 2 4 C-1.323 7.938 -1.323 7.938 -4.75 8.25 C-5.492 8.168 -6.235 8.085 -7 8 C-5.036 6.494 -3.217 5.109 -1 4 C-0.348 1.975 -0.348 1.975 0 0 Z " fill="#1E1846" transform="translate(605,301)"/>
<path d="M0 0 C0.66 0.66 1.32 1.32 2 2 C0.68 4.64 -0.64 7.28 -2 10 C-2.66 9.01 -3.32 8.02 -4 7 C-2.68 4.69 -1.36 2.38 0 0 Z " fill="#F2C416" transform="translate(297,247)"/>
<path d="M0 0 C0.66 0.33 1.32 0.66 2 1 C2 1.66 2 2.32 2 3 C0.02 3.99 -1.96 4.98 -4 6 C-4.66 5.34 -5.32 4.68 -6 4 C-4.35 3.67 -2.7 3.34 -1 3 C-0.67 2.01 -0.34 1.02 0 0 Z " fill="#250D39" transform="translate(566,875)"/>
<path d="M0 0 C0.66 0 1.32 0 2 0 C0.63 3.995 -1.257 6.8 -4 10 C-3.437 6.059 -2.321 3.249 0 0 Z " fill="#1D0B1D" transform="translate(284,295)"/>
<path d="M0 0 C0.66 0 1.32 0 2 0 C0.751 3.459 -0.675 6.147 -3 9 C-3.33 8.01 -3.66 7.02 -4 6 C-3.34 6 -2.68 6 -2 6 C-1.856 5.196 -1.711 4.391 -1.562 3.562 C-1 1 -1 1 0 0 Z " fill="#ECB910" transform="translate(280,279)"/>
<path d="M0 0 C0.66 0 1.32 0 2 0 C1.65 3.242 1.438 4.615 -1.062 6.812 C-1.702 7.204 -2.341 7.596 -3 8 C-1.125 2.25 -1.125 2.25 0 0 Z " fill="#1A1240" transform="translate(844,574)"/>
<path d="M0 0 C3.161 1.37 3.993 1.989 6 5 C5.01 5.33 4.02 5.66 3 6 C3 5.34 3 4.68 3 4 C2.01 3.67 1.02 3.34 0 3 C0 2.01 0 1.02 0 0 Z " fill="#181140" transform="translate(526,484)"/>
<path d="M0 0 C0.99 0.33 1.98 0.66 3 1 C1.02 2.98 -0.96 4.96 -3 7 C-3.66 6.67 -4.32 6.34 -5 6 C-3.35 4.02 -1.7 2.04 0 0 Z " fill="#F0DABF" transform="translate(365,316)"/>
</svg>