<svg version="1.1" xmlns="http://www.w3.org/2000/svg" width="1024" height="1024">
<path d="M0 0 C337.92 0 675.84 0 1024 0 C1024 337.92 1024 675.84 1024 1024 C686.08 1024 348.16 1024 0 1024 C0 686.08 0 348.16 0 0 Z " fill="#39394E" transform="translate(0,0)"/>
<path d="M0 0 C6.385 1.008 9.427 5.431 13.43 10.109 C15.98 13.043 18.609 15.899 21.25 18.75 C22.015 19.577 22.015 19.577 22.796 20.42 C24.384 22.135 25.973 23.849 27.562 25.562 C31.573 29.886 35.576 34.217 39.562 38.562 C40.243 39.302 40.924 40.042 41.625 40.805 C50.699 50.891 56.076 59.052 55.801 72.938 C55.127 83.195 51.25 92.264 47.256 101.622 C46.91 102.446 46.564 103.271 46.207 104.121 C45.891 104.856 45.575 105.592 45.249 106.349 C44.446 108.937 44.265 110.868 44.562 113.562 C45.613 115.368 45.613 115.368 47.203 116.875 C47.774 117.47 48.344 118.064 48.932 118.677 C49.863 119.61 49.863 119.61 50.812 120.562 C52.099 121.887 53.384 123.213 54.668 124.539 C55.319 125.206 55.971 125.873 56.642 126.56 C58.472 128.468 60.239 130.416 61.988 132.398 C62.518 132.995 63.049 133.592 63.595 134.207 C64.593 135.336 65.583 136.471 66.565 137.613 C68.491 139.761 70.165 141.387 72.82 142.559 C77.039 142.565 80.834 141.385 84.875 140.25 C119.517 131.135 155.178 134.891 186.444 152.63 C203.951 162.847 218.454 177.345 227.562 195.562 C228.18 194.596 228.797 193.629 229.434 192.633 C234.589 184.667 239.923 177.389 246.562 170.562 C247.367 169.696 248.171 168.83 249 167.938 C262.614 155.32 278.45 145.909 296.312 140.875 C297.375 140.574 298.437 140.273 299.531 139.963 C325.138 132.875 352.557 133.432 377.562 142.562 C378.205 142.795 378.847 143.027 379.508 143.267 C417.179 157.102 442.681 183.729 459.562 219.562 C460.183 220.873 460.183 220.873 460.816 222.211 C464.19 229.964 465.846 238.315 467.562 246.562 C467.746 247.371 467.929 248.18 468.117 249.013 C469.773 256.938 469.826 264.677 469.75 272.75 C469.749 274.064 469.749 275.378 469.748 276.732 C469.719 283.095 469.561 289.275 468.562 295.562 C475.988 289.758 482.904 283.55 489.727 277.056 C491.017 275.83 492.314 274.612 493.619 273.401 C494.94 272.151 496.226 270.863 497.479 269.544 C500.81 266.22 503.273 264.107 508.09 263.918 C515.213 264.455 522.186 266.249 529.125 267.875 C531.974 268.528 534.825 269.173 537.676 269.816 C538.366 269.973 539.055 270.129 539.766 270.291 C546.333 271.766 552.921 272.893 559.578 273.859 C562.716 274.599 564.391 275.176 566.562 277.562 C567.156 279.883 567.156 279.883 566.562 282.562 C564.783 284.74 563.103 286.541 561.062 288.438 C560.511 288.969 559.959 289.5 559.391 290.047 C555.919 293.365 552.37 296.588 548.711 299.699 C545.264 302.689 541.935 305.808 538.598 308.92 C534.779 312.454 534.779 312.454 532.562 313.562 C533.078 317.453 533.871 319.359 536.721 322.048 C537.717 323.005 537.717 323.005 538.733 323.981 C539.453 324.655 540.172 325.329 540.914 326.023 C542.42 327.479 543.925 328.934 545.43 330.391 C547.81 332.672 550.197 334.946 552.594 337.21 C554.906 339.401 557.192 341.616 559.477 343.836 C560.562 344.841 560.562 344.841 561.67 345.866 C566.497 350.594 566.497 350.594 566.818 355.358 C565.562 358.562 565.562 358.562 563.651 360.359 C559.239 362.079 554.791 362.956 550.145 363.824 C549.132 364.02 548.12 364.215 547.077 364.417 C544.937 364.827 542.796 365.233 540.654 365.634 C537.401 366.245 534.153 366.876 530.904 367.51 C528.818 367.907 526.731 368.304 524.645 368.699 C523.684 368.887 522.723 369.074 521.733 369.267 C506.4 372.096 506.4 372.096 500.965 369.158 C499.965 368.123 499.965 368.123 498.945 367.066 C498.122 366.244 497.299 365.422 496.45 364.575 C495.773 363.865 495.773 363.865 495.081 363.141 C493.374 361.367 491.626 359.639 489.87 357.914 C485.697 353.804 481.566 349.654 477.438 345.5 C475.99 344.047 474.542 342.595 473.094 341.143 C469.581 337.619 466.071 334.091 462.562 330.562 C460.72 333.326 459.645 335.682 458.461 338.762 C458.057 339.798 457.654 340.835 457.238 341.903 C456.594 343.56 456.594 343.56 455.938 345.25 C452.213 354.693 448.258 363.846 443.486 372.803 C442.6 374.492 441.76 376.205 440.922 377.918 C426.419 406.825 405.266 432.803 383.562 456.562 C382.687 457.531 381.812 458.499 380.91 459.496 C373.143 468.065 365.217 476.403 356.414 483.926 C354.603 485.527 352.928 487.199 351.25 488.938 C347.603 492.642 343.625 495.857 339.578 499.113 C336.957 501.242 334.38 503.409 331.816 505.606 C308.568 525.505 283.244 542.632 256.562 557.562 C255.723 558.037 254.883 558.512 254.018 559 C251.501 560.415 248.972 561.805 246.438 563.188 C245.302 563.827 245.302 563.827 244.143 564.479 C239.11 567.174 234.359 569.182 228.562 568.562 C224.671 567.229 221.199 565.334 217.625 563.312 C216.112 562.488 216.112 562.488 214.569 561.646 C186.181 546.014 159.202 527.615 134.25 506.951 C132.026 505.121 129.764 503.342 127.5 501.562 C114.107 490.866 101.155 479.359 89.152 467.121 C87.434 465.436 85.641 463.876 83.812 462.312 C76.544 456.032 69.78 449.145 63.555 441.832 C61.946 439.999 60.309 438.219 58.633 436.449 C52.085 429.532 45.968 422.472 40.172 414.914 C37.764 411.783 35.209 408.8 32.625 405.812 C22.091 393.228 13.764 378.97 5.758 364.691 C4.683 362.777 3.592 360.872 2.496 358.969 C-1.114 352.544 -3.874 346.139 -6.199 339.145 C-7.169 336.339 -8.23 333.667 -9.383 330.938 C-11.772 325.016 -13.22 318.967 -14.625 312.75 C-14.885 311.664 -15.144 310.578 -15.412 309.459 C-23.565 273.963 -18.049 233.96 0.717 202.636 C3.15 198.804 5.808 195.172 8.562 191.562 C9.174 190.73 9.785 189.897 10.414 189.039 C22.255 173.47 36.967 161.723 53.562 151.562 C52.073 146.678 49.278 143.768 45.812 140.188 C42.433 136.671 39.309 133.295 36.562 129.25 C34.69 127.026 33.84 126.61 30.926 126.113 C26.956 126.047 23.1 126.404 19.154 126.812 C12.134 127.503 5.177 127.778 -1.875 127.812 C-3.438 127.843 -3.438 127.843 -5.033 127.875 C-17.517 127.937 -27.316 125.63 -36.375 116.812 C-39.565 113.538 -42.608 110.16 -45.59 106.695 C-47.675 104.289 -49.803 101.925 -51.938 99.562 C-55.179 95.971 -58.379 92.348 -61.551 88.695 C-63.851 86.095 -66.209 83.552 -68.562 81 C-78.052 70.526 -78.052 70.526 -79.062 65.375 C-78.438 62.562 -78.438 62.562 -76.383 60.436 C-72.792 58.152 -69.814 57.887 -65.68 57.77 C-64.936 57.733 -64.192 57.697 -63.426 57.659 C-61.055 57.547 -58.684 57.46 -56.312 57.375 C-53.968 57.274 -51.624 57.167 -49.28 57.06 C-47.766 56.992 -46.252 56.926 -44.738 56.862 C-38.951 56.613 -33.197 56.179 -27.438 55.562 C-27.533 54.031 -27.533 54.031 -27.63 52.469 C-27.416 48.122 -26.423 45.863 -24.355 42.066 C-23.706 40.839 -23.059 39.61 -22.416 38.379 C-21.92 37.437 -21.92 37.437 -21.414 36.476 C-19.835 33.381 -18.44 30.211 -17.051 27.027 C-16.778 26.407 -16.505 25.787 -16.223 25.147 C-15.112 22.621 -14.007 20.093 -12.909 17.561 C-12.088 15.672 -11.257 13.787 -10.426 11.902 C-9.707 10.253 -9.707 10.253 -8.974 8.57 C-5.015 0.821 -5.015 0.821 0 0 Z " fill="#110B14" transform="translate(279.4375,193.4375)"/>
<path d="M0 0 C2.248 0.877 3.43 1.844 5.126 3.55 C5.699 4.122 6.271 4.694 6.861 5.283 C7.461 5.9 8.06 6.516 8.677 7.152 C9.302 7.785 9.927 8.418 10.571 9.071 C14.912 13.523 18.865 18.183 22.716 23.066 C25.772 26.71 29.14 29.973 32.542 33.29 C36.65 37.335 40.25 41.668 43.837 46.183 C46.646 49.567 49.728 52.599 52.873 55.667 C55.445 58.23 57.813 60.926 60.177 63.679 C62.248 66.076 64.366 68.427 66.49 70.777 C69.16 73.735 71.813 76.706 74.427 79.714 C78.084 83.914 81.842 88.019 85.595 92.132 C87.525 94.263 89.424 96.413 91.302 98.589 C95.167 103.041 99.206 107.328 103.227 111.639 C106.623 115.285 109.95 118.976 113.208 122.745 C119.008 129.359 125.047 135.769 131.043 142.205 C135.545 147.039 140.019 151.881 144.341 156.878 C150.468 163.934 156.821 170.785 163.209 177.603 C166.001 180.593 168.738 183.618 171.419 186.706 C175.007 190.829 178.732 194.809 182.49 198.777 C186.878 203.409 191.177 208.092 195.36 212.91 C197.651 215.533 200.004 218.092 202.365 220.652 C206.498 225.142 210.594 229.663 214.669 234.206 C216.355 236.073 218.046 237.932 219.748 239.784 C220.219 240.298 220.691 240.811 221.177 241.341 C222.131 242.377 223.088 243.411 224.047 244.443 C226.647 247.255 229.065 250.14 231.427 253.152 C237.618 260.293 247.26 262.98 255.99 265.777 C248.661 248.83 248.661 248.83 236.99 234.777 C235.444 233.239 233.903 231.697 232.365 230.152 C231.622 229.419 230.88 228.687 230.115 227.933 C227.501 225.28 225.083 222.491 222.662 219.663 C221.048 217.842 219.365 216.154 217.615 214.464 C214.706 211.614 212.161 208.58 209.615 205.402 C206.733 201.816 203.788 198.483 200.49 195.277 C196.375 191.276 192.837 186.964 189.259 182.484 C186.395 179.067 183.276 175.999 180.033 172.945 C177.99 170.777 177.99 170.777 173.99 164.777 C221.18 164.777 268.37 164.777 316.99 164.777 C305.305 199.832 285.352 231.871 262.737 260.884 C259.721 264.769 256.872 268.748 254.052 272.777 C249.489 279.264 244.472 285.264 239.286 291.258 C237.305 293.579 235.401 295.961 233.49 298.339 C229.431 303.328 225.145 308.053 220.763 312.757 C218.66 315.024 216.617 317.338 214.587 319.671 C204.383 331.375 193.452 342.414 182.49 353.402 C181.978 353.916 181.465 354.431 180.938 354.961 C175.69 360.23 170.41 365.405 164.755 370.239 C163.03 371.741 161.39 373.298 159.759 374.902 C159.266 375.38 158.773 375.858 158.265 376.351 C157.268 377.322 156.282 378.305 155.304 379.296 C151.701 382.742 151.701 382.742 148.638 382.89 C144.787 381.271 141.333 379.186 137.802 376.964 C136.622 376.231 136.622 376.231 135.418 375.484 C102.796 355.09 72.402 331.706 43.99 305.777 C42.673 304.599 42.673 304.599 41.33 303.398 C33.53 296.338 26.061 288.955 18.615 281.527 C18.093 281.007 17.571 280.488 17.033 279.953 C11.657 274.598 6.361 269.22 1.426 263.449 C-0.524 261.179 -2.584 259.017 -4.635 256.839 C-10.683 250.204 -16.056 243.09 -21.423 235.899 C-22.904 233.919 -24.398 231.95 -25.897 229.984 C-51.525 196.07 -70.504 156.272 -70.385 113.152 C-70.385 112.404 -70.384 111.657 -70.384 110.887 C-70.344 99.141 -69.619 88.022 -66.01 76.777 C-65.791 76.085 -65.571 75.394 -65.345 74.681 C-60.71 60.547 -54.246 47.486 -45.01 35.777 C-44.322 34.873 -43.634 33.969 -42.924 33.038 C-33.341 20.809 -22.15 11.877 -9.01 3.777 C-8.395 3.378 -7.78 2.98 -7.146 2.569 C-2.555 -0.284 -2.555 -0.284 0 0 Z " fill="#ED272E" transform="translate(344.01025390625,356.223388671875)"/>
<path d="M0 0 C1.835 1.493 3.648 3.015 5.438 4.562 C6.439 5.393 7.441 6.223 8.473 7.078 C22.567 19.078 33.069 35.504 37.438 53.562 C38.097 53.562 38.757 53.562 39.438 53.562 C39.862 52.402 40.286 51.242 40.723 50.047 C51.474 21.174 70.641 0.358 98.531 -12.75 C104.007 -15.195 109.655 -16.883 115.438 -18.438 C116.592 -18.829 117.747 -19.221 118.938 -19.625 C124.414 -20.896 129.831 -21.182 135.438 -21.438 C136.236 -21.487 137.034 -21.537 137.856 -21.589 C155.359 -22.625 155.359 -22.625 160.062 -18.812 C161.734 -16.859 161.734 -16.859 163.438 -14.438 C164.206 -13.453 164.974 -12.468 165.766 -11.453 C175.328 1.082 183.342 15.04 189.438 29.562 C190.079 31.077 190.079 31.077 190.734 32.621 C193.204 38.728 195.244 44.924 197.062 51.25 C197.257 51.907 197.451 52.564 197.651 53.241 C201.632 67.643 202.915 81.897 202.774 96.778 C202.75 99.457 202.753 102.134 202.76 104.812 C202.754 106.56 202.747 108.307 202.738 110.055 C202.739 110.833 202.74 111.612 202.741 112.414 C202.684 116.993 202.199 121.349 201.42 125.865 C201.237 126.935 201.054 128.005 200.865 129.108 C200.724 129.918 200.583 130.728 200.438 131.562 C178.002 131.726 155.567 131.849 133.131 131.925 C122.714 131.961 112.296 132.01 101.879 132.091 C92.799 132.16 83.719 132.206 74.639 132.221 C69.831 132.23 65.024 132.252 60.217 132.303 C55.69 132.35 51.164 132.365 46.637 132.354 C44.977 132.356 43.317 132.37 41.658 132.397 C29.145 132.59 29.145 132.59 24.967 130.076 C23.186 128.329 21.83 126.625 20.438 124.562 C19.408 123.364 18.367 122.176 17.312 121 C16.458 120.008 16.458 120.008 15.586 118.996 C12.761 115.797 9.85 112.682 6.938 109.562 C2.961 105.301 -0.963 101.013 -4.773 96.602 C-8.948 91.844 -13.275 87.218 -17.562 82.562 C-23.022 76.635 -28.475 70.711 -33.754 64.621 C-35.993 62.073 -38.277 59.568 -40.562 57.062 C-43.995 53.299 -47.378 49.501 -50.719 45.656 C-52.971 43.098 -55.266 40.581 -57.562 38.062 C-61.016 34.276 -64.423 30.458 -67.785 26.59 C-70.62 23.356 -73.512 20.172 -76.395 16.98 C-78.203 14.963 -79.982 12.928 -81.75 10.875 C-84.074 8.196 -86.465 5.591 -88.898 3.012 C-89.509 2.364 -90.12 1.715 -90.749 1.048 C-91.967 -0.241 -93.188 -1.526 -94.413 -2.807 C-98.484 -7.115 -102.103 -11.625 -105.562 -16.438 C-71.602 -29.924 -29.097 -21.141 0 0 Z " fill="#EC272E" transform="translate(467.5625,365.4375)"/>
<path d="M0 0 C2.746 -0.361 2.746 -0.361 6.286 -0.341 C6.93 -0.341 7.574 -0.341 8.237 -0.342 C10.369 -0.34 12.501 -0.316 14.633 -0.293 C16.11 -0.287 17.587 -0.283 19.063 -0.28 C22.953 -0.269 26.843 -0.239 30.732 -0.206 C34.7 -0.175 38.669 -0.162 42.637 -0.146 C50.425 -0.114 58.212 -0.063 66 0 C59.052 36.833 30.965 73.978 7.456 102.24 C5.421 104.699 3.434 107.197 1.438 109.688 C-7.336 120.344 -17.013 130.108 -26.75 139.875 C-27.246 140.373 -27.741 140.871 -28.252 141.385 C-33.986 147.143 -39.793 152.749 -46 158 C-47.044 158.901 -48.089 159.802 -49.133 160.703 C-56.394 166.883 -63.785 172.858 -71.325 178.694 C-72.871 179.899 -74.401 181.125 -75.93 182.352 C-92.231 195.28 -110.05 206.51 -128 217 C-129.302 217.765 -129.302 217.765 -130.629 218.546 C-133.347 220.133 -136.077 221.696 -138.812 223.25 C-139.655 223.741 -140.498 224.232 -141.366 224.738 C-142.556 225.401 -142.556 225.401 -143.77 226.078 C-144.815 226.672 -144.815 226.672 -145.882 227.278 C-149.241 228.423 -151.772 227.535 -154.945 226.152 C-155.547 225.822 -156.149 225.492 -156.77 225.152 C-157.43 224.795 -158.091 224.437 -158.771 224.068 C-159.445 223.695 -160.119 223.322 -160.812 222.938 C-161.852 222.372 -161.852 222.372 -162.912 221.795 C-164.611 220.869 -166.306 219.935 -168 219 C-164.586 215.542 -161.094 212.211 -157.5 208.938 C-156.422 207.951 -155.344 206.964 -154.266 205.977 C-152.242 204.129 -150.211 202.292 -148.172 200.461 C-140.434 193.448 -133.016 186.124 -125.625 178.75 C-125.103 178.23 -124.581 177.711 -124.043 177.175 C-118.706 171.859 -113.448 166.521 -108.547 160.792 C-105.998 157.839 -103.302 155.025 -100.625 152.188 C-95.878 147.119 -91.378 141.923 -87.035 136.5 C-85.13 134.159 -83.156 131.919 -81.125 129.688 C-73.629 121.341 -66.875 112.333 -60.348 103.219 C-58.446 100.611 -56.515 98.036 -54.559 95.469 C-46.534 84.926 -38.966 74.27 -32 63 C-31.52 62.233 -31.039 61.465 -30.544 60.674 C-19.755 43.394 -10.353 25.609 -3.34 6.457 C-2 3 -2 3 0 0 Z " fill="#752746" transform="translate(661,521)"/>
<path d="M0 0 C24.081 1.165 48.976 12.304 67 28 C67.82 28.699 68.64 29.397 69.484 30.117 C88.79 46.964 102.145 68.306 109 93 C109.48 94.669 109.48 94.669 109.969 96.371 C112.227 105.918 112.287 115.487 112.312 125.25 C112.316 125.937 112.32 126.624 112.324 127.332 C112.329 129.352 112.318 131.371 112.301 133.391 C112.292 134.567 112.284 135.743 112.275 136.954 C111.909 142.344 110.888 147.671 110 153 C88.55 153 67.1 153 45 153 C45.33 149.04 45.66 145.08 46 141 C46.116 137.859 46.207 134.738 46.238 131.598 C46.248 130.761 46.258 129.923 46.267 129.061 C46.292 126.395 46.305 123.729 46.312 121.062 C46.316 120.153 46.319 119.243 46.322 118.305 C46.337 105.577 45.856 93.397 42.533 81.033 C41.944 78.786 41.458 76.527 40.977 74.254 C40.3 71.177 39.504 68.337 38.25 65.438 C36.741 61.865 35.401 58.276 34.137 54.61 C29.074 40.247 21.417 27.103 12.75 14.625 C12.279 13.942 11.809 13.259 11.324 12.555 C8.397 8.476 5.257 5.273 1.329 2.142 C0.89 1.765 0.452 1.388 0 1 C0 0.67 0 0.34 0 0 Z " fill="#752747" transform="translate(623,344)"/>
<path d="M0 0 C47.19 0 94.38 0 143 0 C130.887 36.338 109.074 78.208 81 105 C80.67 103.68 80.34 102.36 80 101 C80.66 101 81.32 101 82 101 C74.671 84.054 74.671 84.054 63 70 C61.454 68.462 59.913 66.921 58.375 65.375 C57.633 64.643 56.89 63.911 56.125 63.156 C53.511 60.504 51.094 57.714 48.672 54.887 C47.058 53.065 45.375 51.377 43.625 49.688 C40.716 46.837 38.171 43.803 35.625 40.625 C32.743 37.039 29.798 33.706 26.5 30.5 C22.385 26.499 18.848 22.187 15.27 17.707 C12.405 14.29 9.286 11.222 6.043 8.168 C4 6 4 6 0 0 Z " fill="#EA272D" transform="translate(518,521)"/>
<path d="M0 0 C1.922 0.434 3.84 0.891 5.75 1.375 C6.574 1.571 7.397 1.767 8.246 1.969 C10.086 2.415 11.919 2.891 13.75 3.375 C8.118 10.455 1.445 16.331 -5.25 22.375 C-6.169 23.209 -7.088 24.043 -8.035 24.902 C-11.867 28.367 -15.726 31.798 -19.625 35.188 C-20.261 35.748 -20.896 36.309 -21.551 36.887 C-22.952 38.114 -24.379 39.311 -25.812 40.5 C-27.523 42.3 -27.523 42.3 -27.074 44.773 C-26.094 47.866 -25.014 48.871 -22.5 50.875 C-19.205 53.541 -16.236 56.364 -13.25 59.375 C-12.009 60.616 -12.009 60.616 -10.742 61.883 C-4.245 68.38 2.253 74.878 8.75 81.375 C9.681 82.264 10.611 83.154 11.57 84.07 C13.75 86.375 13.75 86.375 13.75 88.375 C11.189 88.908 8.627 89.426 6.062 89.938 C5.341 90.089 4.62 90.24 3.877 90.396 C3.171 90.535 2.465 90.674 1.738 90.816 C1.094 90.947 0.45 91.078 -0.214 91.213 C-2.816 91.42 -4.742 91.123 -7.25 90.375 C-8.65 88.678 -8.65 88.678 -9.798 86.449 C-18.794 70.323 -31.384 54.848 -49.25 48.375 C-66.798 43.688 -85.839 44.27 -103.855 44.301 C-105.751 44.303 -105.751 44.303 -107.685 44.306 C-123.535 44.359 -139.369 44.766 -155.208 45.3 C-164.774 45.62 -174.338 45.854 -183.908 46.023 C-184.925 46.041 -184.925 46.041 -185.962 46.06 C-193.369 46.189 -200.776 46.304 -208.183 46.416 C-210.796 46.456 -213.408 46.496 -216.02 46.536 C-217.295 46.555 -218.57 46.575 -219.884 46.594 C-227.434 46.716 -234.98 46.896 -242.528 47.132 C-247.199 47.275 -251.87 47.392 -256.541 47.505 C-258.705 47.564 -260.867 47.636 -263.03 47.722 C-265.981 47.837 -268.93 47.91 -271.883 47.972 C-272.737 48.017 -273.591 48.062 -274.47 48.109 C-279.395 48.161 -281.765 47.395 -285.335 43.9 C-288.25 40.637 -288.25 40.637 -288.25 39.375 C-287.023 39.379 -285.796 39.383 -284.533 39.387 C-255.384 39.482 -226.236 39.524 -197.088 39.503 C-193.497 39.501 -189.906 39.499 -186.315 39.497 C-185.243 39.497 -185.243 39.497 -184.149 39.496 C-172.588 39.491 -161.027 39.521 -149.465 39.565 C-137.594 39.608 -125.724 39.614 -113.853 39.585 C-107.188 39.57 -100.525 39.573 -93.86 39.617 C-87.583 39.659 -81.308 39.654 -75.031 39.612 C-72.731 39.606 -70.431 39.616 -68.131 39.644 C-53.71 40.151 -53.71 40.151 -41.541 33.513 C-40.074 31.832 -38.639 30.121 -37.25 28.375 C-35.964 27.199 -34.657 26.046 -33.312 24.938 C-29.369 21.512 -25.531 17.976 -21.69 14.438 C-18.128 11.162 -14.531 7.939 -10.832 4.82 C-9.07 3.314 -9.07 3.314 -7.438 0.812 C-4.558 -1.079 -3.351 -0.575 0 0 Z " fill="#FAB831" transform="translate(791.25,465.625)"/>
<path d="M0 0 C4.187 1.624 7.994 3.871 10 8 C10.835 13.428 9.582 16.611 6.605 20.988 C4.963 23.046 3.219 24.811 1.312 26.625 C-8.193 35.863 -14.409 47.068 -20.157 58.891 C-22.493 63.593 -24.326 67.246 -29 70 C-33.476 71.495 -36.991 71.438 -41.312 69.562 C-45.913 65.176 -48.178 60.705 -48.562 54.312 C-47.89 39.194 -37.641 24.902 -28 14 C-27.435 13.34 -26.871 12.68 -26.289 12 C-19.79 4.898 -10.065 -2.453 0 0 Z " fill="#FEFBFA" transform="translate(356,379)"/>
<path d="M0 0 C1.053 1.048 2.085 2.117 3.097 3.204 C3.653 3.77 4.209 4.335 4.782 4.917 C6.547 6.72 8.282 8.549 10.019 10.38 C11.199 11.592 12.381 12.802 13.565 14.011 C21.782 22.448 21.782 22.448 25.006 26.516 C26.586 28.773 26.586 28.773 28.769 29.693 C28.769 30.353 28.769 31.013 28.769 31.693 C26.061 32.199 23.353 32.698 20.644 33.193 C19.883 33.336 19.122 33.479 18.339 33.626 C9.553 35.217 9.553 35.217 5.769 34.693 C3.631 33.194 2.023 31.832 0.206 30.005 C-0.323 29.495 -0.853 28.985 -1.398 28.459 C-3.36 26.554 -5.295 24.624 -7.231 22.693 C-8.587 21.356 -9.943 20.019 -11.299 18.683 C-13.72 16.296 -16.133 13.902 -18.544 11.505 C-19.024 11.028 -19.504 10.552 -19.998 10.06 C-21.367 8.697 -22.731 7.33 -24.095 5.962 C-25.29 4.765 -25.29 4.765 -26.51 3.543 C-28.231 1.693 -28.231 1.693 -28.231 0.693 C-25.566 0.184 -22.9 -0.315 -20.231 -0.807 C-19.116 -1.022 -19.116 -1.022 -17.978 -1.241 C-17.236 -1.376 -16.495 -1.512 -15.731 -1.651 C-15.061 -1.777 -14.391 -1.902 -13.7 -2.032 C-4.312 -3.079 -4.312 -3.079 0 0 Z " fill="#F8B734" transform="translate(808.2314453125,516.307373046875)"/>
<path d="M0 0 C3.491 0.566 4.856 1.587 7.062 4.312 C10.114 7.968 13.266 11.506 16.5 15 C19.507 18.254 22.471 21.53 25.375 24.875 C28.983 29.014 32.724 33.014 36.5 37 C40.891 41.635 45.193 46.322 49.379 51.143 C51.627 53.719 53.934 56.235 56.25 58.75 C56.943 59.504 56.943 59.504 57.649 60.272 C59.099 61.849 60.549 63.425 62 65 C72.662 76.577 72.662 76.577 76.375 80.875 C79.66 84.668 83.078 88.331 86.5 92 C90.515 96.305 94.487 100.631 98.336 105.086 C102.532 109.913 106.85 114.635 111.152 119.367 C115.566 124.236 119.871 129.18 124.125 134.188 C127.749 138.449 131.416 142.559 135.441 146.449 C137.761 148.757 139.863 151.239 142 153.715 C145.775 158.028 149.683 162.223 153.565 166.44 C155.86 168.935 158.148 171.437 160.438 173.938 C163.321 177.087 166.211 180.231 169.113 183.363 C169.637 183.929 170.16 184.494 170.699 185.076 C171.691 186.147 172.684 187.216 173.677 188.285 C176.297 191.113 178.863 193.979 181.391 196.891 C184.993 201.025 188.729 205.02 192.5 209 C196.884 213.628 201.181 218.307 205.361 223.121 C210.63 229.163 216.036 235.126 221.75 240.75 C226.755 245.683 231.681 250.753 235 257 C230.947 255.649 228.581 253.938 225.625 250.875 C224.453 249.663 224.453 249.663 223.258 248.426 C220.718 245.697 218.244 242.927 215.812 240.102 C211.163 234.711 206.45 229.37 201.375 224.375 C197.705 220.755 194.357 216.909 191 213 C178.161 197.901 178.161 197.901 164.5 183.562 C161.276 180.389 158.387 177.096 155.562 173.562 C151.837 168.908 147.851 164.712 143.555 160.582 C140.868 157.867 138.387 155.029 135.887 152.143 C132.686 148.507 129.338 145.011 126 141.5 C121.435 136.699 116.953 131.854 112.612 126.849 C110.329 124.23 107.981 121.679 105.625 119.125 C99.532 112.502 93.47 105.852 87.562 99.062 C83.906 94.863 80.148 90.758 76.395 86.645 C74.465 84.513 72.566 82.364 70.688 80.188 C67.379 76.376 63.942 72.69 60.5 69 C56.485 64.695 52.513 60.369 48.664 55.914 C45.93 52.769 43.129 49.683 40.336 46.59 C38.754 44.836 37.176 43.078 35.602 41.316 C34.438 40.015 34.438 40.015 33.25 38.688 C32.554 37.908 31.858 37.128 31.141 36.324 C29.63 34.684 28.072 33.085 26.484 31.52 C24.119 29.121 22.071 26.653 20 24 C15.801 18.774 11.22 14.1 6.342 9.504 C3.262 6.539 1.237 4.218 0 0 Z " fill="#CF982B" transform="translate(352,352)"/>
<path d="M0 0 C0.703 -0.013 1.406 -0.026 2.13 -0.04 C5.856 -0.046 7.443 0.066 10.625 2.188 C10.625 3.178 10.625 4.168 10.625 5.188 C6.73 6.967 2.845 7.847 -1.316 8.734 C-20.281 12.824 -37.527 20.473 -53.375 31.688 C-56.801 34.057 -59.119 34.842 -63.375 34.188 C-63.488 28.977 -62.046 26.293 -58.688 22.312 C-50.315 13.581 -39.977 7.554 -28.375 4.188 C-27.448 3.903 -26.521 3.618 -25.566 3.324 C-16.99 0.814 -8.891 0.106 0 0 Z " fill="#FDF7F5" transform="translate(593.375,354.8125)"/>
<path d="M0 0 C2.812 0.25 2.812 0.25 4.656 0.582 C6.524 0.915 8.402 1.192 10.281 1.449 C12.029 1.691 12.029 1.691 13.812 1.938 C14.933 2.091 16.053 2.244 17.207 2.402 C20 3 20 3 22 5 C18.096 9.144 14.005 12.873 9.562 16.438 C5.383 19.797 1.547 23.293 -2.148 27.176 C-2.759 27.778 -3.37 28.38 -4 29 C-4.656 29.752 -5.312 30.503 -5.988 31.277 C-10.818 34.04 -15.437 32.907 -20.812 32.25 C-21.887 32.137 -22.961 32.023 -24.068 31.906 C-26.715 31.624 -29.358 31.321 -32 31 C-28.362 26.605 -24.629 22.57 -20.375 18.75 C-19.333 17.809 -18.292 16.867 -17.25 15.926 C-16.719 15.448 -16.188 14.971 -15.641 14.479 C-12.87 11.982 -10.124 9.459 -7.375 6.938 C-6.866 6.472 -6.358 6.007 -5.833 5.528 C-3.854 3.716 -1.898 1.898 0 0 Z " fill="#F6B636" transform="translate(814,471)"/>
<path d="M0 0 C0.799 0.887 1.598 1.774 2.422 2.688 C4.25 5 4.25 5 4.25 7 C-5.064 8.701 -14.101 9.365 -23.562 9.375 C-25.449 9.412 -25.449 9.412 -27.373 9.449 C-35.722 9.476 -41.406 8.841 -47.844 3.148 C-48.308 2.563 -48.772 1.978 -49.25 1.375 C-49.735 0.785 -50.219 0.194 -50.719 -0.414 C-51.75 -2 -51.75 -2 -51.75 -4 C-45.7 -4.478 -39.65 -4.942 -33.598 -5.392 C-31.54 -5.547 -29.481 -5.706 -27.423 -5.869 C-24.465 -6.103 -21.506 -6.323 -18.547 -6.539 C-17.627 -6.615 -16.707 -6.691 -15.759 -6.769 C-14.899 -6.829 -14.038 -6.89 -13.151 -6.952 C-12.019 -7.038 -12.019 -7.038 -10.863 -7.127 C-5.811 -6.824 -3.211 -3.61 0 0 Z " fill="#E2282E" transform="translate(300.75,303)"/>
<path d="M0 0 C3.224 1.036 4.205 2.279 6.25 5.062 C9.87 12.13 8.066 18.488 5.812 25.688 C4.907 28.47 3.963 31.237 3 34 C2.76 34.69 2.52 35.381 2.272 36.092 C0.88 40.073 -0.546 44.041 -2 48 C-5 48 -5 48 -6.719 46.355 C-7.307 45.64 -7.894 44.925 -8.5 44.188 C-10.958 41.186 -10.958 41.186 -13.781 38.551 C-15 37 -15 37 -14.758 34.823 C-13.853 31.451 -12.542 28.452 -11.094 25.273 C-10.809 24.644 -10.524 24.014 -10.231 23.366 C-9.325 21.367 -8.413 19.371 -7.5 17.375 C-6.588 15.372 -5.678 13.367 -4.769 11.363 C-3.946 9.548 -3.119 7.736 -2.291 5.923 C-0.956 3.023 -0.956 3.023 0 0 Z " fill="#E1282E" transform="translate(319,251)"/>
<path d="M0 0 C2.033 -0.1 4.064 -0.166 6.098 -0.222 C7.274 -0.264 8.451 -0.306 9.663 -0.349 C14.685 0.373 17.222 3.218 20.438 6.949 C21.879 9.113 21.879 9.113 21.879 11.113 C16.933 12.762 11.812 12.768 6.637 12.987 C4.584 13.081 2.532 13.194 0.481 13.318 C-3.344 13.533 -7.167 13.672 -10.996 13.801 C-12.867 13.921 -12.867 13.921 -14.776 14.043 C-20.129 14.163 -23.673 14.238 -28.004 10.874 C-34.121 4.166 -34.121 4.166 -34.121 2.113 C-29.838 1.822 -25.556 1.538 -21.273 1.259 C-19.823 1.164 -18.373 1.067 -16.924 0.968 C-11.285 0.584 -5.644 0.302 0 0 Z " fill="#E2242C" transform="translate(250.12057495117188,260.88653564453125)"/>
<path d="M0 0 C3.491 0.566 4.856 1.587 7.062 4.312 C10.114 7.968 13.266 11.506 16.5 15 C19.507 18.254 22.471 21.53 25.375 24.875 C28.983 29.014 32.724 33.014 36.5 37 C40.891 41.635 45.193 46.322 49.379 51.143 C51.627 53.719 53.934 56.235 56.25 58.75 C56.943 59.504 56.943 59.504 57.649 60.272 C59.099 61.849 60.549 63.425 62 65 C72.662 76.577 72.662 76.577 76.375 80.875 C79.66 84.668 83.078 88.331 86.5 92 C90.505 96.294 94.472 100.605 98.305 105.055 C101.208 108.386 104.2 111.636 107.18 114.898 C109 117 109 117 110 119 C108.515 119.495 108.515 119.495 107 120 C101.299 114.541 96.185 108.858 91.258 102.695 C88.417 99.304 85.302 96.276 82.133 93.195 C79.383 90.365 77.034 87.319 74.703 84.141 C72.645 81.554 70.353 79.323 68 77 C65.688 74.581 63.406 72.135 61.125 69.688 C60.501 69.019 59.878 68.35 59.236 67.661 C55.634 63.789 52.082 59.885 48.629 55.879 C45.91 52.742 43.118 49.671 40.336 46.59 C38.754 44.836 37.176 43.078 35.602 41.316 C34.438 40.015 34.438 40.015 33.25 38.688 C32.554 37.908 31.858 37.128 31.141 36.324 C29.63 34.684 28.072 33.085 26.484 31.52 C24.119 29.121 22.071 26.653 20 24 C15.801 18.774 11.22 14.1 6.342 9.504 C3.262 6.539 1.237 4.218 0 0 Z " fill="#C68F25" transform="translate(352,352)"/>
<path d="M0 0 C4.271 0.841 6.269 2.567 9 6 C8.642 9.886 7.183 13.172 5.602 16.711 C4.882 18.331 4.882 18.331 4.148 19.984 C3.646 21.103 3.143 22.222 2.625 23.375 C1.638 25.591 0.651 27.807 -0.336 30.023 C-0.798 31.058 -1.261 32.093 -1.737 33.159 C-3.19 36.427 -4.605 39.708 -6 43 C-8 43 -8 43 -9.543 41.715 C-10.086 41.128 -10.628 40.542 -11.188 39.938 C-11.738 39.369 -12.288 38.801 -12.855 38.215 C-14.568 34.9 -13.719 32.616 -13 29 C-12.102 26.625 -11.116 24.282 -10.059 21.973 C-9.628 21.022 -9.628 21.022 -9.188 20.052 C-8.28 18.052 -7.359 16.057 -6.438 14.062 C-5.815 12.698 -5.193 11.332 -4.572 9.967 C-3.058 6.64 -1.532 3.319 0 0 Z " fill="#DD292F" transform="translate(278,207)"/>
<path d="M0 0 C8.939 -0.438 8.939 -0.438 12.316 1.938 C13.861 3.683 15.029 5.303 16.09 7.371 C13.36 10.101 11.612 9.763 7.789 10.004 C6.501 10.088 5.212 10.171 3.885 10.258 C2.87 10.317 2.87 10.317 1.836 10.376 C-0.177 10.493 -2.189 10.625 -4.201 10.758 C-8.103 11.001 -12.004 11.199 -15.91 11.371 C-17.146 11.429 -18.383 11.488 -19.656 11.548 C-20.81 11.58 -21.964 11.612 -23.152 11.645 C-24.684 11.694 -24.684 11.694 -26.246 11.744 C-29.498 11.289 -30.585 10.305 -32.723 7.871 C-34.055 5.902 -34.055 5.902 -34.91 4.371 C-31.598 2.163 -30.132 2.018 -26.238 1.738 C-25.105 1.654 -23.973 1.569 -22.805 1.482 C-21.001 1.365 -21.001 1.365 -19.16 1.246 C-17.94 1.166 -16.719 1.086 -15.462 1.004 C-13.04 0.852 -10.618 0.706 -8.196 0.566 C-5.461 0.404 -2.732 0.208 0 0 Z " fill="#DB252B" transform="translate(269.91015625,279.62890625)"/>
<path d="M0 0 C5.273 2.364 5.273 2.364 7 5 C6.603 10.188 5.175 14.545 3.059 19.246 C2.771 19.902 2.484 20.558 2.188 21.234 C1.28 23.305 0.359 25.371 -0.562 27.438 C-1.185 28.851 -1.807 30.264 -2.428 31.678 C-3.943 35.123 -5.468 38.562 -7 42 C-10.336 40.399 -12.741 39.012 -15 36 C-14.627 31.258 -13.043 27.41 -11.094 23.105 C-10.809 22.473 -10.524 21.84 -10.231 21.188 C-9.632 19.861 -9.03 18.536 -8.425 17.212 C-7.496 15.179 -6.577 13.142 -5.66 11.104 C-1.165 1.165 -1.165 1.165 0 0 Z " fill="#DB2A2C" transform="translate(306,237)"/>
<path d="M0 0 C3.5 3.5 3.5 3.5 7 7 C6.622 11.316 4.794 15.132 3.059 19.051 C2.771 19.71 2.484 20.368 2.188 21.047 C1.276 23.138 0.357 25.225 -0.562 27.312 C-1.185 28.735 -1.806 30.157 -2.428 31.58 C-3.947 35.056 -5.472 38.529 -7 42 C-11 42 -11 42 -13.312 39.938 C-15.555 36.033 -14.954 34.365 -14 30 C-12.936 27.205 -11.646 24.55 -10.312 21.875 C-9.589 20.384 -8.867 18.893 -8.145 17.402 C-7.784 16.666 -7.424 15.93 -7.053 15.171 C-5.489 11.947 -3.995 8.694 -2.5 5.438 C-2.015 4.384 -1.531 3.331 -1.031 2.246 C-0.691 1.505 -0.351 0.764 0 0 Z " fill="#DD292E" transform="translate(293,221)"/>
<path d="M0 0 C0.66 0.33 1.32 0.66 2 1 C-0.238 4.357 -0.933 4.58 -4.625 5.688 C-5.442 5.939 -6.26 6.19 -7.102 6.449 C-7.728 6.631 -8.355 6.813 -9 7 C-9 7.99 -9 8.98 -9 10 C-10.342 10.71 -10.342 10.71 -11.711 11.434 C-18.945 15.357 -25.083 19.405 -31.012 25.215 C-33 27 -33 27 -36 28 C-37.429 29.401 -37.429 29.401 -38.688 31.062 C-39.832 32.517 -39.832 32.517 -41 34 C-41.66 33.67 -42.32 33.34 -43 33 C-31.683 19.801 -19.109 10.518 -4 2 C-3.238 1.567 -2.476 1.134 -1.691 0.688 C-1.133 0.461 -0.575 0.234 0 0 Z " fill="#C41E25" transform="translate(567,352)"/>
<path d="M0 0 C4.332 1.665 7.136 4.874 10.312 8.125 C10.889 8.71 11.466 9.294 12.06 9.896 C23.678 21.747 23.678 21.747 27 28 C22.947 26.649 20.581 24.938 17.625 21.875 C16.459 20.668 16.459 20.668 15.27 19.438 C12.094 16.027 9.025 12.544 6 9 C5.417 8.345 4.835 7.69 4.234 7.016 C3.683 6.392 3.131 5.768 2.562 5.125 C1.822 4.294 1.822 4.294 1.066 3.445 C0 2 0 2 0 0 Z " fill="#CF9924" transform="translate(560,581)"/>
<path d="M0 0 C1.15 1.15 2.3 2.301 3.449 3.453 C4.509 4.51 5.575 5.562 6.645 6.609 C18.317 18.097 18.317 18.097 21 24 C18 24 18 24 16.203 22.531 C3.714 9.543 3.714 9.543 -1 2 C-0.67 1.34 -0.34 0.68 0 0 Z " fill="#B68228" transform="translate(540,557)"/>
<path d="M0 0 C4.044 1.572 6.506 4.451 9.312 7.625 C9.795 8.163 10.278 8.7 10.775 9.254 C11.742 10.333 12.706 11.414 13.667 12.498 C14.826 13.804 15.996 15.1 17.168 16.395 C20.185 19.759 22.866 22.982 25 27 C20.919 25.383 18.193 22.458 15.188 19.375 C14.659 18.837 14.13 18.3 13.584 17.746 C1.521 5.407 1.521 5.407 0 0 Z " fill="#D29C27" transform="translate(319,314)"/>
<path d="M0 0 C3.555 0.563 4.936 1.674 7.188 4.438 C10.728 8.719 14.511 12.712 18.375 16.703 C20 19 20 19 19.75 21.297 C19.502 21.859 19.255 22.421 19 23 C18.625 22.553 18.25 22.105 17.863 21.645 C15.523 18.88 13.187 16.187 10.625 13.625 C8.241 11.241 5.953 8.809 3.688 6.312 C2.99 5.546 2.293 4.779 1.574 3.988 C0 2 0 2 0 0 Z " fill="#CF9321" transform="translate(412,418)"/>
<path d="M0 0 C3.263 1.088 3.878 1.751 6 4.312 C8.24 6.971 10.514 9.569 12.902 12.094 C13.654 12.892 13.654 12.892 14.42 13.706 C15.422 14.767 16.43 15.823 17.443 16.874 C21 20.667 21 20.667 21 24 C13.525 17.745 5.7 10.97 0 3 C0 2.01 0 1.02 0 0 Z " fill="#CF9D31" transform="translate(486,499)"/>
<path d="M0 0 C3.707 0.553 5.142 1.899 7.5 4.75 C8.099 5.467 8.699 6.183 9.316 6.922 C9.872 7.608 10.428 8.293 11 9 C11.804 9.99 12.609 10.98 13.438 12 C14.211 12.99 14.211 12.99 15 14 C14.01 14.33 13.02 14.66 12 15 C10.366 13.447 8.743 11.882 7.125 10.312 C6.22 9.442 5.315 8.572 4.383 7.676 C2.107 5.121 1.013 3.231 0 0 Z " fill="#B6851A" transform="translate(352,352)"/>
<path d="M0 0 C2 0 2 0 3.551 1.539 C4.423 2.572 4.423 2.572 5.312 3.625 C5.929 4.349 6.545 5.074 7.18 5.82 C7.78 6.54 8.381 7.259 9 8 C9.777 8.924 9.777 8.924 10.57 9.867 C11.72 11.24 12.861 12.619 14 14 C13.34 14.66 12.68 15.32 12 16 C7.75 11.86 3.565 7.753 0 3 C0 2.01 0 1.02 0 0 Z " fill="#BC922A" transform="translate(507,522)"/>
<path d="M0 0 C0.33 0.99 0.66 1.98 1 3 C-0.098 4.152 -1.203 5.296 -2.312 6.438 C-2.927 7.076 -3.542 7.714 -4.176 8.371 C-6 10 -6 10 -9 11 C-10.429 12.401 -10.429 12.401 -11.688 14.062 C-12.832 15.517 -12.832 15.517 -14 17 C-14.66 16.67 -15.32 16.34 -16 16 C-14.275 14.079 -12.546 12.163 -10.812 10.25 C-10.33 9.711 -9.847 9.172 -9.35 8.617 C-6.438 5.413 -3.473 2.616 0 0 Z " fill="#CA2621" transform="translate(540,369)"/>
<path d="M0 0 C4 4 8 8 12 12 C11.01 13.485 11.01 13.485 10 15 C8.535 13.59 7.079 12.172 5.625 10.75 C4.813 9.961 4.001 9.172 3.164 8.359 C1.234 6.255 -0.05 4.677 -1 2 C-0.67 1.34 -0.34 0.68 0 0 Z " fill="#BA8B25" transform="translate(384,385)"/>
<path d="M0 0 C0 0.99 0 1.98 0 3 C-4.95 4.32 -9.9 5.64 -15 7 C-15 6.01 -15 5.02 -15 4 C-13.068 3.134 -11.129 2.283 -9.188 1.438 C-8.109 0.962 -7.03 0.486 -5.918 -0.004 C-3 -1 -3 -1 0 0 Z " fill="#EB3D41" transform="translate(573,355)"/>
<path d="M0 0 C1.106 0.936 2.209 1.874 3.312 2.812 C3.927 3.335 4.542 3.857 5.176 4.395 C6.854 5.872 8.439 7.4 10 9 C9.67 9.99 9.34 10.98 9 12 C7.874 11.043 6.749 10.084 5.625 9.125 C4.999 8.591 4.372 8.058 3.727 7.508 C2.442 6.386 1.206 5.206 0 4 C0 2.68 0 1.36 0 0 Z " fill="#C68C27" transform="translate(551,570)"/>
<path d="M0 0 C0.66 0.66 1.32 1.32 2 2 C0.209 3.147 -1.583 4.293 -3.375 5.438 C-4.872 6.395 -4.872 6.395 -6.398 7.371 C-9 9 -9 9 -11 10 C-10.747 6.585 -9.741 5.752 -7.188 3.312 C-2.757 0.098 -2.757 0.098 0 0 Z " fill="#E43F33" transform="translate(552,362)"/>
<path d="M0 0 C3.444 1.448 5.361 3.277 7.75 6.125 C8.364 6.849 8.977 7.574 9.609 8.32 C10.298 9.152 10.298 9.152 11 10 C10.34 10.66 9.68 11.32 9 12 C7.678 10.76 6.368 9.507 5.062 8.25 C4.332 7.554 3.601 6.858 2.848 6.141 C0.995 3.994 0.392 2.765 0 0 Z " fill="#D4A33C" transform="translate(319,314)"/>
<path d="M0 0 C3.828 1.56 6.364 3.836 9 7 C8.637 9.164 8.637 9.164 8 11 C6.845 9.926 5.701 8.841 4.562 7.75 C3.924 7.147 3.286 6.543 2.629 5.922 C0.915 3.9 0.406 2.587 0 0 Z " fill="#CA9937" transform="translate(460,471)"/>
<path d="M0 0 C2.932 2.853 5.643 5.651 8 9 C7.34 9.66 6.68 10.32 6 11 C0.118 5.906 0.118 5.906 -0.375 2.125 C-0.251 1.424 -0.127 0.723 0 0 Z " fill="#C08124" transform="translate(432,438)"/>
<path d="M0 0 C3.26 3.17 6.222 6.399 9 10 C8.01 10.33 7.02 10.66 6 11 C4.988 9.928 3.991 8.842 3 7.75 C2.443 7.147 1.886 6.543 1.312 5.922 C0 4 0 4 0 0 Z " fill="#BC8127" transform="translate(469,479)"/>
<path d="M0 0 C3.599 0.556 4.999 1.749 7.25 4.562 C8.031 5.523 8.031 5.523 8.828 6.504 C9.215 6.998 9.602 7.491 10 8 C9.01 8.33 8.02 8.66 7 9 C5.827 7.881 4.662 6.755 3.5 5.625 C2.85 4.999 2.201 4.372 1.531 3.727 C0 2 0 2 0 0 Z " fill="#B98B27" transform="translate(452,463)"/>
<path d="M0 0 C4.136 3.381 7.813 6.666 11 11 C8 11 8 11 5.957 9.355 C5.249 8.64 4.542 7.925 3.812 7.188 C2.739 6.126 2.739 6.126 1.645 5.043 C0 3 0 3 0 0 Z " fill="#DAA332" transform="translate(520,536)"/>
<path d="M0 0 C4.136 3.381 7.813 6.666 11 11 C8 11 8 11 5.957 9.355 C5.249 8.64 4.542 7.925 3.812 7.188 C2.739 6.126 2.739 6.126 1.645 5.043 C0 3 0 3 0 0 Z " fill="#E19F2C" transform="translate(497,511)"/>
<path d="M0 0 C6.705 5.094 6.705 5.094 7.938 8.875 C7.958 9.576 7.979 10.277 8 11 C2.25 6.375 2.25 6.375 0 3 C0 2.01 0 1.02 0 0 Z " fill="#D29B28" transform="translate(424,430)"/>
<path d="M0 0 C3.363 1.441 5.629 3.206 8 6 C8 6.99 8 7.98 8 9 C6 9 6 9 4.492 7.539 C3.959 6.907 3.425 6.276 2.875 5.625 C2.067 4.685 2.067 4.685 1.242 3.727 C0 2 0 2 0 0 Z " fill="#D8961F" transform="translate(365,366)"/>
<path d="M0 0 C0.99 0.33 1.98 0.66 3 1 C1.02 4.63 -0.96 8.26 -3 12 C-4 10 -4 10 -3.223 7.617 C-2.84 6.712 -2.457 5.807 -2.062 4.875 C-1.682 3.965 -1.302 3.055 -0.91 2.117 C-0.61 1.419 -0.309 0.72 0 0 Z " fill="#C02733" transform="translate(319,251)"/>
<path d="M0 0 C0.66 0 1.32 0 2 0 C3.508 1.75 3.508 1.75 5.125 4 C5.664 4.742 6.203 5.485 6.758 6.25 C7.168 6.827 7.578 7.405 8 8 C4.22 7.222 2.486 6.019 0 3 C0 2.01 0 1.02 0 0 Z " fill="#CE9234" transform="translate(507,522)"/>
<path d="M0 0 C2.862 1.283 5.025 2.531 7 5 C7 5.99 7 6.98 7 8 C6.34 8 5.68 8 5 8 C0 2.524 0 2.524 0 0 Z " fill="#E3A919" transform="translate(560,581)"/>
<path d="M0 0 C0 0.99 0 1.98 0 3 C-5.75 4.125 -5.75 4.125 -8 3 C-4.939 0.376 -4.268 0 0 0 Z " fill="#D22A29" transform="translate(558,359)"/>
<path d="M0 0 C1.65 1.65 3.3 3.3 5 5 C4.01 6.485 4.01 6.485 3 8 C1.68 6.02 0.36 4.04 -1 2 C-0.67 1.34 -0.34 0.68 0 0 Z " fill="#C08B23" transform="translate(420,425)"/>
<path d="M0 0 C0.99 0.33 1.98 0.66 3 1 C2.546 1.577 2.092 2.155 1.625 2.75 C0.159 4.78 -0.949 6.735 -2 9 C-2.688 6.75 -2.688 6.75 -3 4 C-1.562 1.688 -1.562 1.688 0 0 Z " fill="#E33C35" transform="translate(531,379)"/>
<path d="M0 0 C3.161 1.37 3.993 1.989 6 5 C5.01 5.33 4.02 5.66 3 6 C1.5 4.688 1.5 4.688 0 3 C0 2.01 0 1.02 0 0 Z " fill="#B88F1E" transform="translate(408,413)"/>
<path d="M0 0 C1.32 0.66 2.64 1.32 4 2 C4 3.32 4 4.64 4 6 C2.35 4.35 0.7 2.7 -1 1 C-0.67 0.67 -0.34 0.34 0 0 Z " fill="#C48D2D" transform="translate(329,325)"/>
<path d="M0 0 C1.32 0.99 2.64 1.98 4 3 C3.67 4.32 3.34 5.64 3 7 C1.68 5.35 0.36 3.7 -1 2 C-0.67 1.34 -0.34 0.68 0 0 Z " fill="#CD9C19" transform="translate(567,587)"/>
<path d="M0 0 C0 3 0 3 -2 5.188 C-2.66 5.786 -3.32 6.384 -4 7 C-4.99 6.67 -5.98 6.34 -7 6 C-4.69 4.02 -2.38 2.04 0 0 Z " fill="#EAAF3A" transform="translate(768,482)"/>
</svg>