<svg version="1.1" xmlns="http://www.w3.org/2000/svg" width="1024" height="1024">
<path d="M0 0 C337.92 0 675.84 0 1024 0 C1024 337.92 1024 675.84 1024 1024 C686.08 1024 348.16 1024 0 1024 C0 686.08 0 348.16 0 0 Z " fill="#BC8A9C" transform="translate(0,0)"/>
<path d="M0 0 C0.755 0.439 1.51 0.878 2.289 1.331 C7.337 4.278 12.336 7.303 17.32 10.358 C20.033 12.02 22.752 13.672 25.473 15.32 C35.753 21.554 46.006 27.832 56.25 34.125 C57.737 35.037 57.737 35.037 59.254 35.968 C68.891 41.896 78.432 47.957 88 54 C88 187.32 88 320.64 88 458 C-249.92 458 -587.84 458 -936 458 C-936 346.79 -936 235.58 -936 121 C-924.427 114.909 -912.904 108.901 -901.125 103.25 C-899.717 102.572 -898.309 101.893 -896.901 101.214 C-894.744 100.174 -892.587 99.135 -890.428 98.097 C-885.491 95.722 -880.562 93.33 -875.637 90.93 C-873.66 89.968 -871.683 89.007 -869.706 88.046 C-868.457 87.438 -867.208 86.83 -865.96 86.219 C-864.232 85.375 -862.501 84.535 -860.77 83.695 C-859.309 82.984 -859.309 82.984 -857.82 82.258 C-852.587 79.923 -848.117 78.691 -842.375 78.625 C-841.269 78.597 -840.163 78.568 -839.023 78.539 C-829.296 79.176 -819.883 84.23 -811.187 88.257 C-807.849 89.803 -804.5 91.326 -801.152 92.852 C-800.434 93.179 -799.716 93.507 -798.976 93.844 C-788.612 98.559 -778.169 103.097 -767.735 107.653 C-766.029 108.398 -764.324 109.143 -762.619 109.888 C-760.992 110.6 -759.364 111.31 -757.735 112.018 C-754.151 113.584 -750.592 115.177 -747.079 116.898 C-745.932 117.458 -744.784 118.017 -743.602 118.594 C-742.141 119.331 -742.141 119.331 -740.651 120.084 C-736.451 121.535 -734.01 120.437 -730.031 118.716 C-728.937 118.175 -727.842 117.635 -726.715 117.078 C-726.11 116.782 -725.505 116.485 -724.881 116.18 C-723.577 115.541 -722.275 114.9 -720.974 114.256 C-717.497 112.538 -714.01 110.84 -710.523 109.141 C-709.812 108.794 -709.101 108.446 -708.368 108.089 C-697.968 103.022 -687.467 98.176 -676.945 93.366 C-674.341 92.158 -671.763 90.911 -669.191 89.637 C-660.039 85.17 -651.667 82.506 -641.632 85.771 C-635.539 88.031 -629.629 90.7 -623.703 93.361 C-616.654 96.504 -609.504 99.418 -602.375 102.375 C-600.836 103.014 -599.296 103.654 -597.757 104.293 C-595.449 105.252 -593.14 106.209 -590.831 107.166 C-587.074 108.722 -583.318 110.284 -579.569 111.86 C-576.097 113.32 -572.619 114.763 -569.135 116.195 C-567.851 116.726 -566.57 117.262 -565.29 117.805 C-555.726 121.857 -550.273 122.519 -540.647 118.627 C-539.522 118.162 -539.522 118.162 -538.375 117.688 C-531.003 114.738 -523.638 112.188 -516 110 C-514.388 109.523 -512.776 109.045 -511.164 108.566 C-478.801 99.04 -445.871 92.605 -413.162 104.462 C-407.952 106.294 -405.056 105.895 -400.04 103.712 C-398.959 103.176 -397.879 102.639 -396.766 102.086 C-395.547 101.486 -394.329 100.887 -393.111 100.287 C-392.48 99.974 -391.849 99.661 -391.199 99.339 C-356.15 82.002 -356.15 82.002 -338.75 87.562 C-338.076 87.796 -337.401 88.03 -336.707 88.271 C-332.661 89.646 -329.269 90.259 -325 90 C-324.67 89.34 -324.34 88.68 -324 88 C-324.88 87.745 -325.761 87.49 -326.668 87.227 C-332.169 85.201 -336.417 81.589 -341 78 C-341.813 77.367 -342.627 76.734 -343.465 76.082 C-352.386 68.686 -359.888 57.784 -361 46 C-361.645 37.113 -361.063 29.336 -355.504 22.035 C-354.479 20.868 -353.436 19.717 -352.371 18.586 C-350.773 16.878 -350.773 16.878 -349.5 13.875 C-347.336 9.726 -344.223 7.111 -340 5 C-335.529 4.956 -331.926 5.449 -328.062 7.75 C-325.899 10.11 -325.096 12.031 -324 15 C-313.601 16.683 -305.09 12.112 -295.91 7.848 C-288.297 4.468 -277.779 4.825 -269.742 6.801 C-266.71 8.03 -263.886 9.458 -261 11 C-259.662 11.642 -258.322 12.28 -256.98 12.914 C-246.65 17.93 -238.294 24.101 -230 32 C-229.476 32.494 -228.952 32.987 -228.413 33.496 C-214.147 47.024 -214.147 47.024 -213.898 52.062 C-214.259 55.446 -215.168 58.708 -216 62 C-214.997 61.585 -213.994 61.17 -212.961 60.742 C-201.649 56.116 -190.223 51.83 -178.75 47.625 C-139.268 33.149 -99.913 18.33 -60.758 2.992 C-59.082 2.337 -57.407 1.682 -55.731 1.026 C-52.57 -0.21 -49.411 -1.452 -46.253 -2.698 C-44.833 -3.255 -43.413 -3.811 -41.992 -4.367 C-41.355 -4.621 -40.717 -4.874 -40.06 -5.135 C-24.877 -11.055 -13.369 -7.884 0 0 Z " fill="#292236" transform="translate(936,566)"/>
<path d="M0 0 C2.38 -0.001 4.761 -0.002 7.141 -0.003 C12.088 -0.004 17.035 -0.002 21.983 0.002 C28.289 0.008 34.594 0.005 40.9 -0.001 C45.8 -0.005 50.7 -0.004 55.599 -0.001 C57.924 -0 60.248 -0.001 62.573 -0.003 C65.827 -0.006 69.081 -0.002 72.336 0.003 C73.74 0 73.74 0 75.172 -0.003 C82.725 0.021 90.006 0.591 97.598 1.133 C97.598 92.213 97.598 183.293 97.598 277.133 C-240.322 277.133 -578.242 277.133 -926.402 277.133 C-926.402 264.593 -926.402 252.053 -926.402 239.133 C-895.062 222.933 -863.566 207.299 -831.386 192.829 C-827.102 190.902 -822.826 188.957 -818.555 187 C-771.76 165.646 -723.76 146.638 -675.402 129.133 C-673.973 128.614 -672.544 128.095 -671.115 127.575 C-666.399 125.862 -661.682 124.153 -656.965 122.445 C-655.867 122.048 -655.867 122.048 -654.747 121.642 C-636.459 115.029 -618.102 108.632 -599.656 102.471 C-596.771 101.506 -593.887 100.534 -591.004 99.562 C-581.498 96.376 -571.99 93.333 -562.301 90.749 C-557.849 89.562 -553.507 88.203 -549.152 86.695 C-542.27 84.347 -535.313 82.417 -528.288 80.544 C-522.599 79.022 -516.941 77.425 -511.297 75.745 C-496.633 71.382 -481.856 67.517 -467.027 63.758 C-465.75 63.433 -464.473 63.108 -463.158 62.773 C-442.436 57.508 -421.642 52.716 -400.695 48.432 C-395.735 47.417 -390.795 46.336 -385.862 45.198 C-377.348 43.27 -368.785 41.606 -360.195 40.055 C-359.19 39.873 -358.184 39.691 -357.148 39.503 C-354.025 38.939 -350.901 38.38 -347.777 37.82 C-346.25 37.545 -346.25 37.545 -344.692 37.265 C-341.771 36.74 -338.849 36.223 -335.926 35.707 C-334.598 35.468 -334.598 35.468 -333.243 35.225 C-329.252 34.529 -325.472 33.923 -321.402 34.133 C-325.393 41.399 -330.195 47.701 -335.402 54.133 C-336.234 55.161 -336.234 55.161 -337.082 56.211 C-341.283 60.87 -346.526 63.787 -351.985 66.763 C-356.515 69.302 -359.395 71.868 -362.402 76.133 C-363.074 80.311 -362.731 82.448 -360.902 86.258 C-354.902 93.159 -344.789 98.203 -335.773 99.516 C-331.767 99.608 -328.82 99.367 -325.402 97.133 C-323.413 94.72 -323.413 94.72 -321.465 91.82 C-312.172 79.006 -301.11 70.063 -287.794 61.652 C-283.67 59.033 -279.599 56.333 -275.527 53.633 C-274.772 53.14 -274.017 52.648 -273.24 52.14 C-269.595 49.735 -266.348 47.402 -263.402 44.133 C-255.804 47.573 -251.825 54.795 -248.523 62.188 C-246.425 68.383 -247.014 74.99 -247.289 81.434 C-247.471 85.787 -247.061 89.829 -246.402 94.133 C-250.753 96.918 -255.126 99.531 -259.67 101.991 C-267.74 106.41 -273.113 110.356 -276.402 119.133 C-278.195 119.171 -278.195 119.171 -280.023 119.211 C-294.468 119.525 -294.468 119.525 -306.527 126.82 C-308.671 130.607 -309.065 132.456 -308.273 136.668 C-303.306 150.724 -287.507 162.818 -276.402 172.133 C-275.357 173.04 -274.313 173.949 -273.27 174.859 C-266.131 181.071 -258.85 187.03 -251.281 192.713 C-249.207 194.281 -247.148 195.869 -245.09 197.457 C-196.753 234.521 -152.43 254.947 -90.402 253.133 C-89.581 253.112 -88.759 253.091 -87.913 253.07 C-73.948 252.665 -59.208 250.674 -48.199 241.246 C-41.794 234.396 -39.708 227.588 -40 218.266 C-43.161 193.649 -69.306 169.685 -87.625 155.277 C-88.542 154.57 -89.458 153.862 -90.402 153.133 C-91.548 152.222 -92.693 151.309 -93.836 150.395 C-100.529 145.06 -107.304 139.925 -114.402 135.133 C-114.17 134.34 -114.17 134.34 -113.934 133.531 C-111.365 121.935 -114.153 112.954 -120.402 103.133 C-122.381 100.461 -124.409 97.909 -126.605 95.414 C-131.359 89.379 -131.904 84.189 -132.09 76.758 C-132.141 75.368 -132.141 75.368 -132.193 73.949 C-132.275 71.677 -132.345 69.406 -132.402 67.133 C-130.728 67.187 -130.728 67.187 -129.02 67.242 C-124.053 67.238 -119.378 66.387 -114.527 65.383 C-113.643 65.201 -112.759 65.019 -111.848 64.832 C-97.02 61.659 -84.19 55.104 -75.453 42.27 C-69.647 32.69 -67.059 24.194 -66.215 13.07 C-66.133 12.109 -66.051 11.148 -65.967 10.158 C-65.769 7.817 -65.581 5.476 -65.402 3.133 C-62.674 2.812 -59.945 2.501 -57.215 2.195 C-56.485 2.108 -55.754 2.021 -55.002 1.932 C-36.75 -0.08 -18.337 -0.019 0 0 Z " fill="#80AD5D" transform="translate(926.40234375,746.8671875)"/>
<path d="M0 0 C8.027 3.634 16.095 7.173 24.172 10.695 C26.211 11.585 28.25 12.474 30.289 13.364 C31.618 13.944 32.947 14.524 34.276 15.103 C39.281 17.287 44.277 19.49 49.272 21.698 C65.406 28.829 81.627 35.753 97.847 42.684 C118.532 51.523 139.183 60.437 159.818 69.393 C163.6 71.035 167.382 72.676 171.165 74.316 C172.418 74.86 173.672 75.404 174.925 75.948 C181.671 78.875 188.421 81.788 195.188 84.668 C208.317 90.256 221.359 95.982 234.305 101.984 C237.93 103.663 241.567 105.305 245.227 106.906 C260.954 113.796 275.854 121.695 289.922 131.57 C287.469 121.965 277.795 117.176 269.783 112.393 C257.321 105.209 244.006 99.508 230.922 93.57 C229.832 93.075 228.742 92.579 227.62 92.068 C225.054 90.901 222.488 89.735 219.922 88.57 C219.922 87.91 219.922 87.25 219.922 86.57 C221.639 86.479 221.639 86.479 223.39 86.385 C236.129 85.498 246.739 82.226 258.484 77.383 C260.123 76.726 261.763 76.072 263.404 75.42 C266.66 74.123 269.91 72.814 273.157 71.495 C280.711 68.433 288.317 65.505 295.922 62.57 C296.646 62.29 297.371 62.011 298.117 61.722 C310.378 56.986 322.65 52.277 334.922 47.57 C335.795 47.235 336.668 46.901 337.567 46.556 C357.481 38.918 377.416 31.339 397.422 23.945 C398.564 23.522 398.564 23.522 399.728 23.09 C408.697 19.768 417.695 16.582 426.797 13.643 C431.295 12.176 435.596 10.486 439.922 8.57 C441.586 7.898 443.252 7.228 444.922 6.57 C444.922 5.91 444.922 5.25 444.922 4.57 C433.881 2.975 424.011 7.71 413.922 11.57 C408.599 13.581 403.262 15.551 397.918 17.504 C379.593 24.214 361.327 31.046 343.148 38.145 C342.063 38.565 340.978 38.986 339.86 39.419 C338.048 40.129 336.241 40.853 334.444 41.6 C330.776 43.094 328.689 43.824 324.922 42.57 C322.137 41.189 319.41 39.717 316.676 38.238 C305.118 32.744 292.059 30.794 279.609 28.32 C277.79 27.954 275.97 27.587 274.15 27.219 C269.742 26.329 265.333 25.447 260.922 24.57 C260.922 23.91 260.922 23.25 260.922 22.57 C298.573 7.65 341.645 -5.892 381.922 6.57 C383.985 7.179 386.049 7.787 388.113 8.395 C393.733 10.066 399.333 11.798 404.922 13.57 C404.138 12.807 403.354 12.044 402.547 11.258 C399.922 8.57 399.922 8.57 397.922 5.57 C407.422 0.694 417.026 -3.918 426.734 -8.367 C427.79 -8.852 428.846 -9.336 429.934 -9.835 C442.718 -15.666 451.721 -14.772 464.922 -10.43 C466.943 -9.473 468.951 -8.486 470.922 -7.43 C469.342 -4.269 466.158 -3.887 462.984 -2.805 C462.015 -2.461 462.015 -2.461 461.025 -2.109 C456.211 -0.43 456.211 -0.43 453.922 -0.43 C454.252 0.89 454.582 2.21 454.922 3.57 C459.803 2.964 464.385 1.998 469.109 0.633 C470.299 0.294 471.489 -0.045 472.715 -0.395 C475.302 -1.23 477.553 -2.119 479.922 -3.43 C478.873 -6.052 478.273 -7.223 475.797 -8.68 C474.869 -9.051 474.869 -9.051 473.922 -9.43 C474.582 -10.42 475.242 -11.41 475.922 -12.43 C480.873 -11.969 483.255 -10.743 486.922 -7.43 C495.592 3.904 501.546 16.938 500.304 31.417 C499.266 37.268 496.452 42.676 493.965 48.027 C488.829 59.126 487.061 70.135 486.609 82.32 C486.242 88.9 484.759 93.263 480.922 98.57 C480.262 99.56 479.602 100.55 478.922 101.57 C477.019 102.226 477.019 102.226 474.66 102.626 C473.771 102.784 472.882 102.941 471.966 103.104 C470.993 103.263 470.021 103.422 469.02 103.586 C468.008 103.762 466.996 103.939 465.953 104.121 C463.771 104.5 461.588 104.874 459.404 105.242 C453.654 106.214 447.912 107.23 442.168 108.238 C440.45 108.538 440.45 108.538 438.698 108.844 C429.29 110.49 419.909 112.244 410.547 114.133 C409.857 114.272 409.166 114.411 408.455 114.555 C385.415 119.222 362.497 124.461 339.609 129.82 C338.921 129.981 338.232 130.142 337.523 130.307 C327.937 132.549 318.424 134.997 308.922 137.57 C306.819 138.13 304.716 138.689 302.613 139.246 C288.827 142.921 275.113 146.795 261.429 150.833 C258.202 151.782 254.969 152.711 251.734 153.633 C250.666 153.938 249.597 154.244 248.496 154.559 C245.751 155.336 243.004 156.102 240.254 156.863 C229.597 159.835 219.091 163.117 208.613 166.67 C201.963 168.917 195.291 171 188.536 172.905 C184.556 174.04 180.755 175.391 176.922 176.945 C168.659 179.998 162.079 177.391 153.984 174.805 C136.633 169.416 118.831 166.103 100.943 163.093 C98.463 162.664 95.997 162.202 93.531 161.699 C79.172 158.848 64.488 157.86 49.909 156.725 C48.03 156.579 46.151 156.425 44.273 156.271 C31.255 155.318 18.22 155.33 5.172 155.32 C3.322 155.318 3.322 155.318 1.435 155.315 C-34.589 155.312 -70.303 158.328 -105.537 166.029 C-108.035 166.575 -110.534 167.112 -113.033 167.648 C-114.641 167.997 -116.248 168.346 -117.855 168.695 C-118.593 168.854 -119.331 169.012 -120.091 169.175 C-123.228 169.865 -126.244 170.628 -129.28 171.688 C-132.078 172.57 -132.078 172.57 -137.078 172.57 C-137.078 124.39 -137.078 76.21 -137.078 26.57 C-127.838 22.28 -118.598 17.99 -109.078 13.57 C-104.395 11.257 -99.723 8.94 -95.068 6.574 C-88.589 3.306 -82.058 0.143 -75.538 -3.041 C-73.796 -3.893 -72.055 -4.746 -70.314 -5.601 C-67.756 -6.857 -65.195 -8.109 -62.633 -9.359 C-61.475 -9.93 -61.475 -9.93 -60.294 -10.511 C-38.39 -21.165 -20.359 -9.221 0 0 Z " fill="#3C6D93" transform="translate(137.078125,668.4296875)"/>
<path d="M0 0 C2.335 1.289 4.645 2.614 6.952 3.952 C7.91 4.505 8.868 5.057 9.856 5.627 C17.327 9.96 24.738 14.39 32.131 18.853 C33.954 19.953 35.778 21.051 37.602 22.149 C69.61 41.425 69.61 41.425 78.197 47.303 C80.444 48.648 82.452 49.585 84.859 50.552 C89.551 52.635 93.722 54.87 96.952 58.952 C99.863 66.801 98.808 75.779 98.514 83.991 C98.485 86.443 98.462 88.895 98.446 91.347 C98.385 97.777 98.228 104.202 98.051 110.63 C97.886 117.199 97.814 123.768 97.733 130.338 C97.562 143.212 97.292 156.081 96.952 168.952 C96.387 168.951 95.821 168.95 95.239 168.949 C81.36 168.927 67.482 168.91 53.604 168.9 C46.892 168.895 40.18 168.888 33.469 168.876 C26.972 168.865 20.475 168.859 13.978 168.857 C11.519 168.855 9.06 168.851 6.602 168.846 C-12.135 168.806 -30.9 168.876 -49.56 170.743 C-53.454 171.07 -57.331 171.06 -61.236 171.014 C-61.997 171.01 -62.758 171.005 -63.542 171 C-65.378 170.989 -67.213 170.971 -69.048 170.952 C-69.328 170.19 -69.608 169.428 -69.896 168.643 C-74.59 156.553 -81.643 146.573 -93.798 141.077 C-100.107 138.893 -106.398 138.184 -113.048 138.952 C-116.195 140.726 -116.195 140.726 -118.048 142.952 C-117.559 147.722 -116.051 151.445 -113.986 155.706 C-112.105 160.212 -111.932 164.42 -111.986 169.264 C-111.995 170.333 -112.004 171.401 -112.013 172.502 C-112.025 173.311 -112.036 174.119 -112.048 174.952 C-113.3 175.061 -114.551 175.171 -115.841 175.284 C-117.639 175.443 -119.437 175.604 -121.236 175.764 C-122.198 175.85 -123.16 175.935 -124.151 176.023 C-130.038 176.556 -135.915 177.144 -141.79 177.788 C-143.088 177.928 -144.386 178.069 -145.723 178.214 C-148.286 178.494 -150.849 178.781 -153.41 179.074 C-155.182 179.267 -155.182 179.267 -156.99 179.463 C-158.563 179.641 -158.563 179.641 -160.167 179.822 C-163.086 179.953 -165.269 179.854 -168.048 178.952 C-169.71 177.411 -169.71 177.411 -171.177 175.401 C-171.731 174.65 -172.285 173.899 -172.856 173.125 C-173.724 171.895 -173.724 171.895 -174.611 170.639 C-175.222 169.79 -175.833 168.94 -176.463 168.065 C-182.876 159.018 -188.555 149.577 -194.048 139.952 C-194.737 138.753 -194.737 138.753 -195.44 137.531 C-204.807 121.187 -212.633 104.688 -217.423 86.389 C-217.603 85.722 -217.783 85.055 -217.969 84.368 C-218.922 80.538 -219.512 77.658 -218.048 73.952 C-214.081 68.011 -209.93 65.514 -203.255 63.323 C-202.381 63.015 -201.507 62.708 -200.606 62.391 C-198.701 61.723 -196.792 61.065 -194.881 60.416 C-190.716 59 -186.569 57.536 -182.42 56.075 C-180.184 55.288 -177.947 54.503 -175.709 53.72 C-162.506 49.092 -149.406 44.189 -136.305 39.281 C-133.27 38.145 -130.233 37.012 -127.196 35.879 C-101.147 26.152 -75.163 16.257 -49.215 6.264 C-46.207 5.106 -43.198 3.951 -40.189 2.795 C-39.298 2.452 -38.407 2.108 -37.49 1.754 C-23.922 -3.449 -13.685 -7.225 0 0 Z " fill="#3C6D93" transform="translate(927.048095703125,570.04833984375)"/>
<path d="M0 0 C13.964 8.457 22.015 19.455 27.703 34.625 C28.711 39.757 29.065 44.911 29.391 50.125 C30.711 50.455 32.031 50.785 33.391 51.125 C33.825 40.837 33.625 32.699 29.391 23.125 C29.027 21.8 28.683 20.468 28.391 19.125 C38.323 18.554 45.949 19.668 53.703 26.25 C60.199 32.654 63.562 37.444 63.818 46.672 C63.861 56.42 63.861 56.42 61.391 60.125 C58.723 59.134 56.538 58.238 54.266 56.5 C49.757 54.343 45.301 54.565 40.391 55.125 C36.834 56.437 36.834 56.437 34.391 58.125 C34.391 59.115 34.391 60.105 34.391 61.125 C35.051 60.96 35.711 60.795 36.391 60.625 C43.702 59.406 47.617 59.674 53.727 63.836 C55.391 65.125 55.391 65.125 57.391 67.125 C59.725 67.14 62.06 67.062 64.391 66.938 C72.402 66.737 78.247 68.334 84.227 73.805 C90.559 80.755 91.958 87.015 91.73 96.305 C90.738 107.462 85.386 115.923 77 123.199 C66.288 131.233 54.472 132.665 41.391 131.125 C38.51 130.283 36.066 129.326 33.434 127.902 C30.68 126.855 29.176 127.24 26.391 128.125 C24.278 129.339 24.278 129.339 22.266 130.875 C2.038 144.84 -24.658 145.864 -48.258 141.75 C-57.765 139.752 -67.482 135.543 -75.008 129.367 C-79.216 126.272 -83.023 126.759 -88.047 127.125 C-101.402 127.578 -112.641 124.787 -123.328 116.32 C-127.339 112.461 -130.134 108.076 -132.609 103.125 C-133.213 103.151 -133.817 103.177 -134.438 103.204 C-156.975 104.053 -156.975 104.053 -166.609 98.125 C-167.362 97.667 -168.115 97.21 -168.891 96.738 C-175.807 92.028 -181.233 85.177 -183.609 77.125 C-185.061 66.212 -182.1 58.798 -176.074 49.844 C-170.395 42.588 -161.502 37.364 -152.609 35.125 C-148.842 34.78 -145.078 34.663 -141.297 34.562 C-139.301 34.503 -137.305 34.439 -135.309 34.371 C-134.43 34.347 -133.552 34.323 -132.647 34.299 C-130.616 34.346 -130.616 34.346 -129.609 33.125 C-122.423 32.007 -116.537 35.254 -110.609 39.125 C-108.437 41.383 -107.153 43.368 -105.609 46.125 C-101.681 45.562 -99.194 44.399 -95.922 42.188 C-92.209 39.803 -89.742 38.883 -85.359 38.625 C-82.814 38.368 -82.814 38.368 -80.609 37.125 C-79.036 34.442 -77.921 31.776 -76.857 28.859 C-71.481 14.207 -60.158 4.974 -46.469 -1.648 C-45.525 -2.053 -44.582 -2.458 -43.609 -2.875 C-42.746 -3.248 -41.882 -3.62 -40.992 -4.004 C-27.813 -7.398 -12.01 -6.554 0 0 Z " fill="#FDFCEE" transform="translate(776.609375,201.875)"/>
<path d="M0 0 C9.179 2.112 17.041 8.147 24.184 14.022 C24.713 14.456 25.241 14.89 25.786 15.338 C30.957 19.854 33.891 24.952 35.434 31.647 C36.33 34.712 37.012 36.48 38.934 39.084 C44.459 41.565 50.78 41.631 56.485 39.553 C58.36 38.593 60.184 37.534 61.997 36.459 C62.657 36.459 63.317 36.459 63.997 36.459 C64.657 35.139 65.317 33.819 65.997 32.459 C72.143 34.662 76.836 38.543 81.997 42.459 C82.535 42.863 83.073 43.267 83.628 43.684 C92.707 50.516 101.099 57.924 109.277 65.808 C110.839 67.308 112.417 68.79 114 70.268 C126.205 81.952 141.873 100.337 142.309 118.084 C142.205 126.722 139.174 133.227 133.305 139.538 C125.951 145.66 116.48 149.525 106.997 150.459 C105.922 150.568 104.846 150.676 103.739 150.788 C36.225 156.144 -11.59 135.539 -64.003 95.459 C-64.646 94.969 -65.288 94.478 -65.949 93.973 C-77.279 85.279 -88.188 76.107 -98.75 66.495 C-100.764 64.675 -102.812 62.908 -104.878 61.147 C-126.102 42.555 -126.102 42.555 -128.253 31.834 C-128.412 28.345 -127.745 26.42 -125.628 23.647 C-118.924 17.125 -112.511 16.152 -103.441 16.209 C-100.626 16.26 -97.817 16.35 -95.003 16.459 C-94.72 17.567 -94.436 18.674 -94.144 19.815 C-92.818 24.051 -91.735 25.169 -88.003 27.459 C-77.433 31.843 -63.301 30.494 -52.679 26.987 C-41.07 22.163 -27.28 16.253 -19.226 6.252 C-13.812 -0.284 -8.371 -1.293 0 0 Z " fill="#404053" transform="translate(745.00341796875,849.54052734375)"/>
<path d="M0 0 C1.19 0.001 2.379 0.001 3.605 0.002 C33.784 0.043 63.275 1.531 93.125 6.188 C94.662 6.423 94.662 6.423 96.23 6.664 C115.074 9.601 133.92 13.464 152.125 19.188 C151.125 21.188 151.125 21.188 148.872 22.136 C147.872 22.466 146.872 22.796 145.842 23.135 C144.707 23.516 143.572 23.897 142.402 24.289 C141.154 24.701 139.907 25.114 138.621 25.539 C135.947 26.439 133.275 27.347 130.605 28.259 C129.909 28.496 129.214 28.733 128.497 28.978 C120.915 31.579 113.408 34.375 105.91 37.211 C105.228 37.469 104.546 37.727 103.843 37.993 C99.656 39.578 95.471 41.17 91.287 42.764 C88.492 43.827 85.696 44.885 82.899 45.943 C56.538 55.918 30.334 66.266 4.375 77.25 C3.44 77.645 2.504 78.04 1.54 78.448 C-44.711 98.018 -90.061 119.538 -134.875 142.188 C-135.535 142.518 -136.195 142.847 -136.875 143.188 C-136.875 101.938 -136.875 60.688 -136.875 18.188 C-110.583 11.017 -110.583 11.017 -97.75 8.562 C-97.005 8.418 -96.26 8.273 -95.492 8.124 C-83.613 5.837 -71.712 4.126 -59.688 2.812 C-58.961 2.733 -58.234 2.653 -57.486 2.571 C-38.313 0.513 -19.276 -0.018 0 0 Z " fill="#8EBA66" transform="translate(136.875,832.8125)"/>
<path d="M0 0 C0.792 0.005 1.583 0.01 2.399 0.015 C9.038 0.146 15.019 1.13 21.312 3.312 C22.306 3.653 23.3 3.993 24.324 4.344 C41.239 10.754 52.078 22.461 59.684 38.48 C62.668 45.255 63.648 51.292 63.562 58.625 C63.551 59.891 63.551 59.891 63.54 61.182 C63.221 79.605 55.796 94.221 42.758 107.168 C41.312 108.312 41.312 108.312 39.312 108.312 C39.312 108.972 39.312 109.632 39.312 110.312 C44.933 111.766 44.933 111.766 50.258 110.148 C52.003 108.601 52.003 108.601 53.512 106.953 C58.024 102.842 62.336 101.915 68.312 102 C69.488 102.004 70.664 102.008 71.875 102.012 C75.315 102.313 78.098 103.083 81.312 104.312 C81.559 103.589 81.805 102.866 82.059 102.121 C86.172 92.907 95.083 86.152 104.055 82.062 C115.728 77.604 128.275 77.91 139.727 82.758 C147.588 86.358 154.815 90.208 158.75 98.25 C158.936 98.931 159.121 99.611 159.312 100.312 C160.303 99.983 161.293 99.653 162.312 99.312 C169.454 98.609 175.442 98.929 181.312 103.312 C185.086 106.79 187.99 109.985 188.312 115.312 C188.808 115.147 189.303 114.983 189.812 114.812 C195.515 113.672 199.587 113.54 204.625 116.5 C208.428 119.175 210.808 121.497 211.656 126.23 C211.97 130.409 211.661 131.882 208.938 135.25 C204.876 138.441 202.119 138.461 197.12 138.46 C196.371 138.463 195.621 138.467 194.849 138.471 C192.324 138.482 189.799 138.486 187.274 138.49 C185.469 138.496 183.664 138.502 181.859 138.509 C176.946 138.527 172.033 138.537 167.119 138.546 C164.052 138.551 160.984 138.557 157.916 138.563 C148.323 138.582 138.729 138.596 129.136 138.605 C118.053 138.615 106.969 138.641 95.885 138.681 C87.325 138.711 78.764 138.726 70.204 138.73 C65.088 138.732 59.972 138.741 54.856 138.766 C50.044 138.789 45.232 138.794 40.419 138.783 C38.652 138.783 36.886 138.789 35.119 138.803 C32.707 138.82 30.297 138.813 27.886 138.8 C27.186 138.811 26.486 138.822 25.764 138.833 C21.028 138.771 18.643 137.652 15.312 134.312 C14.081 131.849 14.145 130.123 14.125 127.375 C14.111 126.5 14.097 125.624 14.082 124.723 C14.312 122.312 14.312 122.312 16.312 119.312 C15.468 119.797 15.468 119.797 14.607 120.292 C4.924 124.6 -11.002 121.879 -20.719 118.57 C-25.399 116.587 -29.551 114.262 -33.688 111.312 C-34.531 110.714 -35.374 110.116 -36.242 109.5 C-46.029 102.123 -52.19 93.66 -56.688 82.312 C-57.041 81.504 -57.394 80.696 -57.758 79.863 C-62.856 65.874 -60.501 48.652 -54.688 35.312 C-52.64 31.388 -50.35 27.844 -47.688 24.312 C-47.177 23.609 -46.667 22.905 -46.141 22.18 C-35.477 8.719 -17.047 -0.126 0 0 Z " fill="#2F273C" transform="translate(178.6875,93.6875)"/>
<path d="M0 0 C1.562 2.161 1.562 2.161 2.859 4.988 C3.335 6.005 3.811 7.021 4.301 8.068 C4.779 9.139 5.257 10.209 5.75 11.312 C6.491 12.901 6.491 12.901 7.246 14.521 C11.14 22.966 11.14 22.966 12 27 C11.394 27.219 10.788 27.438 10.164 27.664 C-5.059 33.425 -16.347 41.474 -23.176 56.605 C-25.348 62.916 -24.002 67.884 -21.363 73.727 C-17.822 79.631 -14.139 83.034 -7.938 86 C-7.249 86.338 -6.561 86.675 -5.852 87.023 C0.442 89.981 6.93 91.971 13.616 93.838 C20.249 95.7 26.448 98.101 32.738 100.898 C37.383 102.467 41.288 102.464 46 101.188 C50.679 97.776 53.149 92.968 56 88 C67.781 98.943 75.686 117.37 76.309 133.375 C76.385 136.193 76.438 139.01 76.479 141.828 C76.753 151.432 79 158.415 84.875 166 C85.768 167.214 86.659 168.43 87.547 169.648 C88.182 170.514 88.182 170.514 88.83 171.397 C93.652 178.003 95.848 182.9 95.496 191.246 C94.728 195.512 93.303 197.234 90 200 C89.01 200 88.02 200 87 200 C86.67 199.01 86.34 198.02 86 197 C85.01 196.67 84.02 196.34 83 196 C83 197.98 83 199.96 83 202 C82.01 202 81.02 202 80 202 C79.67 199.69 79.34 197.38 79 195 C78.01 195.33 77.02 195.66 76 196 C75.67 197.65 75.34 199.3 75 201 C74.34 200.67 73.68 200.34 73 200 C72.598 198.267 72.598 198.267 72.188 196.5 C69.317 184.302 60.82 176.198 50.5 169.688 C40.184 163.631 30.265 158.819 18 161 C14.071 163.46 11.129 166.606 8 170 C-4.433 182.479 -21.795 191.132 -39.533 191.334 C-43.693 191.303 -47.845 191.195 -52 191 C-52 190.34 -52 189.68 -52 189 C-51.34 188.67 -50.68 188.34 -50 188 C-49.67 187.01 -49.34 186.02 -49 185 C-51.31 184.67 -53.62 184.34 -56 184 C-56 180 -56 180 -54.617 178.282 C-49.295 173.761 -43.753 170.393 -37.562 167.188 C-35.77 166.248 -33.979 165.305 -32.191 164.355 C-31.41 163.95 -30.628 163.544 -29.823 163.126 C-27.843 162.123 -27.843 162.123 -27 160 C-26.805 156.551 -26.66 153.824 -27.988 150.602 C-29.96 145.53 -29.931 139.723 -28.172 134.578 C-26.715 131.599 -25.354 129.354 -23 127 C-23 125.68 -23 124.36 -23 123 C-26.545 124.398 -26.545 124.398 -30 126 C-30.196 125.406 -30.392 124.811 -30.594 124.199 C-33.479 116.202 -37.776 107.816 -45 103 C-44.418 99.269 -43.344 96.531 -41.5 93.25 C-38.963 88.38 -38.264 84.459 -38 79 C-39.32 79 -40.64 79 -42 79 C-42.208 79.727 -42.415 80.454 -42.629 81.203 C-48.029 98.826 -57.055 109.095 -72.688 118.375 C-88.751 128.166 -101.637 138.244 -112.961 153.305 C-115 156 -115 156 -116 157 C-122.319 157.56 -127.527 157.55 -133 154 C-132.34 152.02 -131.68 150.04 -131 148 C-135.95 148.99 -135.95 148.99 -141 150 C-140 147 -140 147 -137.938 145.812 C-136.978 145.41 -136.978 145.41 -136 145 C-136.33 144.01 -136.66 143.02 -137 142 C-140.465 142.99 -140.465 142.99 -144 144 C-142.593 140.578 -141.126 139.124 -138 137.188 C-137.196 136.671 -136.391 136.154 -135.562 135.621 C-134.717 135.086 -133.871 134.551 -133 134 C-120.955 126.34 -113.422 116.384 -105.171 104.97 C-101.974 100.574 -98.74 96.443 -95 92.5 C-86.737 83.512 -84.517 76.124 -84.188 64.27 C-83.847 53.704 -80.54 44.181 -76.492 34.555 C-75.155 31.369 -73.89 28.176 -72.688 24.938 C-72.382 24.122 -72.076 23.306 -71.762 22.465 C-70.897 19.666 -70.459 16.89 -70 14 C-65.751 13.081 -61.5 12.165 -57.25 11.25 C-55.974 10.975 -54.698 10.7 -53.384 10.416 C-46.04 8.84 -38.689 7.345 -31.312 5.938 C-24.204 4.58 -17.33 2.781 -10.464 0.486 C-6.549 -0.773 -3.912 -1.376 0 0 Z " fill="#FDFAED" transform="translate(713,683)"/>
<path d="M0 0 C2.418 1.094 4.838 2.183 7.262 3.266 C7.93 3.567 8.599 3.868 9.288 4.179 C18.924 8.496 28.724 12.427 38.504 16.404 C41.764 17.73 45.021 19.061 48.278 20.394 C50.333 21.231 52.387 22.069 54.441 22.906 C55.831 23.474 55.831 23.474 57.248 24.054 C65.746 27.505 74.24 30.954 83.184 33.066 C84.4 33.354 85.616 33.642 86.869 33.938 C88.129 34.227 89.389 34.515 90.688 34.812 C91.342 34.964 91.997 35.116 92.672 35.273 C102.411 37.526 112.146 39.296 122.051 40.648 C133.463 42.222 144.33 45.703 155.25 49.25 C151.841 52.151 148.106 53.657 143.969 55.219 C143.251 55.496 142.533 55.772 141.794 56.057 C139.448 56.961 137.099 57.855 134.75 58.75 C133.121 59.376 131.493 60.002 129.864 60.629 C127.388 61.582 124.912 62.535 122.435 63.486 C114.939 66.362 107.468 69.3 100 72.25 C69.066 84.429 69.066 84.429 55.438 84.438 C54.389 84.45 53.34 84.462 52.26 84.475 C35.278 84.506 23.063 81.001 7.938 73.812 C5.252 72.565 2.564 71.325 -0.125 70.085 C-1.898 69.267 -3.67 68.446 -5.44 67.623 C-12.173 64.495 -18.955 61.534 -25.812 58.688 C-36.882 54.068 -47.883 49.3 -58.875 44.5 C-59.697 44.141 -60.519 43.782 -61.366 43.413 C-67.941 40.542 -67.941 40.542 -70.897 39.245 C-74.74 37.559 -78.589 35.889 -82.452 34.248 C-83.196 33.93 -83.94 33.611 -84.707 33.283 C-86.114 32.682 -87.523 32.085 -88.934 31.495 C-93.638 29.475 -93.638 29.475 -94.75 27.25 C-82.267 21.285 -69.688 15.529 -57.075 9.845 C-50.892 7.057 -44.721 4.265 -38.629 1.281 C-37.744 0.856 -36.86 0.432 -35.948 -0.006 C-34.398 -0.754 -32.856 -1.521 -31.327 -2.312 C-20.494 -7.47 -10.335 -4.933 0 0 Z " fill="#3D6D92" transform="translate(303.75,663.75)"/>
<path d="M0 0 C10.918 8.011 18.36 20.121 21.336 33.289 C22.575 49.288 20.324 63 10.301 76.051 C0.685 87.005 -11.876 95.151 -26.689 96.469 C-45.331 97.619 -60.055 92.069 -74.039 79.727 C-84.502 68.52 -88.335 53.499 -87.973 38.613 C-87.198 24.015 -79.617 12.356 -69.258 2.512 C-61.553 -4.09 -53.398 -7.139 -43.664 -9.711 C-43.013 -9.906 -42.362 -10.1 -41.691 -10.301 C-26.61 -13.352 -12.519 -8.04 0 0 Z " fill="#FCB739" transform="translate(213.6640625,111.7109375)"/>
<path d="M0 0 C1.106 -0.028 2.212 -0.057 3.352 -0.086 C13.079 0.551 22.492 5.605 31.188 9.632 C34.526 11.178 37.875 12.701 41.223 14.227 C41.941 14.554 42.659 14.882 43.399 15.219 C53.763 19.934 64.206 24.472 74.64 29.028 C76.346 29.773 78.051 30.518 79.756 31.263 C81.383 31.975 83.011 32.685 84.64 33.393 C88.224 34.959 91.783 36.552 95.296 38.273 C96.443 38.833 97.591 39.392 98.773 39.969 C100.234 40.706 100.234 40.706 101.724 41.459 C105.924 42.91 108.365 41.812 112.344 40.091 C113.438 39.55 114.533 39.01 115.66 38.453 C116.265 38.157 116.87 37.86 117.494 37.555 C118.798 36.916 120.1 36.275 121.401 35.631 C124.878 33.913 128.365 32.215 131.852 30.516 C132.563 30.169 133.274 29.821 134.007 29.464 C144.407 24.397 154.908 19.551 165.43 14.741 C168.034 13.533 170.612 12.286 173.184 11.012 C182.336 6.545 190.708 3.881 200.743 7.146 C206.836 9.406 212.746 12.075 218.672 14.736 C225.721 17.879 232.871 20.793 240 23.75 C241.539 24.389 243.079 25.029 244.618 25.668 C246.926 26.627 249.235 27.584 251.544 28.541 C255.301 30.097 259.057 31.659 262.806 33.235 C266.278 34.695 269.756 36.138 273.24 37.57 C274.524 38.101 275.805 38.637 277.085 39.18 C286.649 43.232 292.102 43.894 301.728 40.002 C302.853 39.537 302.853 39.537 304 39.062 C311.372 36.113 318.737 33.563 326.375 31.375 C327.987 30.898 329.599 30.42 331.211 29.941 C363.574 20.415 396.504 13.98 429.213 25.837 C434.466 27.684 437.356 27.251 442.414 25.056 C444.083 24.231 444.083 24.231 445.785 23.391 C446.393 23.093 447.001 22.796 447.628 22.489 C449.567 21.54 451.503 20.583 453.438 19.625 C479.107 6.952 479.107 6.952 483.375 8.375 C483.375 9.035 483.375 9.695 483.375 10.375 C478.983 12.439 474.591 14.502 470.198 16.564 C468.707 17.264 467.216 17.964 465.726 18.665 C457.974 22.308 450.223 25.942 442.375 29.375 C443.179 30.138 443.984 30.901 444.812 31.688 C447.375 34.375 447.375 34.375 448.375 37.375 C440.585 36.269 433.293 34.192 425.855 31.691 C414.446 28.188 403.54 26.86 391.625 27 C390.925 27.004 390.226 27.009 389.505 27.013 C378.561 27.092 368.028 27.748 357.375 30.375 C356.733 30.525 356.09 30.676 355.428 30.831 C342.503 33.914 329.939 38.444 317.371 42.717 C316.661 42.957 315.951 43.197 315.22 43.445 C313.87 43.903 312.521 44.363 311.173 44.826 C306.598 46.375 306.598 46.375 304.375 46.375 C304.375 47.035 304.375 47.695 304.375 48.375 C304.964 48.405 305.553 48.435 306.159 48.466 C314.514 49.049 322.547 50.681 330.707 52.484 C333.038 52.995 335.373 53.48 337.709 53.965 C362.241 59.241 362.241 59.241 369.375 66.375 C375.085 66.058 380.338 63.64 385.609 61.586 C386.601 61.204 387.593 60.823 388.616 60.43 C391.787 59.209 394.956 57.979 398.125 56.75 C400.209 55.946 402.294 55.143 404.379 54.34 C412.13 51.352 419.879 48.359 427.61 45.32 C428.822 44.844 428.822 44.844 430.059 44.359 C431.531 43.781 433.003 43.201 434.473 42.618 C439.815 40.521 445.237 38.803 450.732 37.156 C455.88 35.591 460.768 33.623 465.711 31.512 C473.568 28.159 479.773 26.941 488.375 27.375 C488.375 28.695 488.375 30.015 488.375 31.375 C482.059 33.758 475.721 36.074 469.375 38.375 C468.342 38.752 468.342 38.752 467.287 39.136 C462.029 41.051 456.766 42.955 451.5 44.852 C431.55 52.039 411.654 59.326 391.914 67.077 C390.451 67.652 388.987 68.226 387.523 68.801 C386.794 69.087 386.065 69.374 385.313 69.669 C375.861 73.372 366.366 76.961 356.875 80.562 C345.018 85.065 333.174 89.595 321.375 94.25 C320.284 94.68 319.194 95.11 318.07 95.553 C315.93 96.397 313.791 97.24 311.651 98.084 C305.772 100.401 299.889 102.708 294 105 C292.917 105.427 291.834 105.853 290.719 106.292 C289.711 106.683 288.703 107.074 287.664 107.477 C286.784 107.82 285.905 108.164 284.999 108.518 C279.832 110.205 274.905 110.493 269.5 110.438 C267.771 110.424 267.771 110.424 266.008 110.41 C264.705 110.393 264.705 110.393 263.375 110.375 C263.375 111.035 263.375 111.695 263.375 112.375 C264.396 112.644 265.417 112.914 266.469 113.191 C270.119 114.238 273.444 115.673 276.875 117.312 C277.5 117.611 278.126 117.91 278.77 118.218 C280.18 118.891 281.588 119.566 282.997 120.243 C285.623 121.493 288.262 122.712 290.902 123.93 C299.959 128.136 308.896 132.393 317.375 137.688 C317.99 138.071 318.606 138.455 319.24 138.851 C324.592 142.31 329.815 146.035 333.375 151.375 C333.375 152.695 333.375 154.015 333.375 155.375 C329.224 153.905 325.894 151.833 322.25 149.375 C308.937 140.626 294.622 133.858 280.033 127.54 C277.079 126.245 274.141 124.918 271.203 123.586 C255.203 116.334 239.089 109.387 222.911 102.544 C213.62 98.613 204.349 94.648 195.125 90.562 C183.829 85.559 172.481 80.682 161.119 75.83 C156.346 73.791 151.575 71.748 146.805 69.703 C146.074 69.39 145.344 69.077 144.591 68.754 C140.854 67.152 137.116 65.55 133.379 63.947 C126.571 61.027 119.761 58.112 112.945 55.211 C100.248 49.802 87.616 44.27 75.035 38.597 C64.372 33.795 53.66 29.106 42.938 24.438 C42.113 24.078 41.289 23.719 40.44 23.35 C35.8 21.329 31.158 19.313 26.513 17.302 C24.423 16.396 22.334 15.485 20.246 14.574 C18.985 14.027 17.725 13.48 16.465 12.934 C15.379 12.461 14.294 11.989 13.176 11.502 C6.668 8.883 -0.366 8.025 -7.159 10.178 C-16.88 14.373 -26.372 19.023 -35.875 23.688 C-37.564 24.513 -39.252 25.338 -40.941 26.162 C-49.382 30.288 -57.801 34.453 -66.2 38.663 C-71.424 41.28 -76.665 43.857 -81.938 46.375 C-83.151 46.965 -83.151 46.965 -84.389 47.566 C-85.164 47.936 -85.939 48.306 -86.738 48.688 C-87.756 49.177 -87.756 49.177 -88.794 49.676 C-90.625 50.375 -90.625 50.375 -93.625 50.375 C-93.625 47.735 -93.625 45.095 -93.625 42.375 C-78.665 34.261 -63.388 26.847 -48.055 19.473 C-43.117 17.097 -38.188 14.705 -33.262 12.305 C-31.285 11.343 -29.308 10.382 -27.331 9.421 C-26.082 8.813 -24.833 8.205 -23.585 7.594 C-21.857 6.75 -20.126 5.91 -18.395 5.07 C-16.934 4.359 -16.934 4.359 -15.445 3.633 C-10.212 1.298 -5.742 0.066 0 0 Z M167.75 21.812 C166.141 22.555 164.53 23.296 162.919 24.035 C159.059 25.812 155.212 27.615 151.371 29.432 C148.696 30.696 146.014 31.945 143.332 33.195 C139.666 34.913 136.015 36.658 132.37 38.418 C128.823 40.12 125.255 41.778 121.688 43.438 C121.044 43.737 120.4 44.037 119.737 44.346 C118.283 45.023 116.829 45.699 115.375 46.375 C117.695 48.994 119.903 50.245 123.105 51.621 C124.07 52.039 125.035 52.458 126.029 52.89 C127.078 53.336 128.127 53.782 129.207 54.242 C130.843 54.949 130.843 54.949 132.513 55.67 C136.068 57.203 139.628 58.726 143.188 60.25 C145.637 61.305 148.086 62.36 150.535 63.416 C156.457 65.969 162.383 68.515 168.309 71.058 C173.543 73.306 178.773 75.563 184 77.825 C186.276 78.81 188.553 79.792 190.832 80.77 C196.664 83.286 202.461 85.861 208.227 88.524 C211.46 90.015 214.698 91.492 217.936 92.97 C219.488 93.683 221.036 94.404 222.581 95.133 C232.592 99.856 241.211 102.664 252.375 103.375 C253.439 103.452 254.503 103.529 255.6 103.608 C270.153 104.427 282.009 103.025 295.375 97.375 C297.31 96.587 299.246 95.802 301.184 95.02 C304.475 93.685 307.762 92.344 311.043 90.985 C322.946 86.068 334.995 81.554 347.062 77.059 C347.834 76.769 348.607 76.48 349.403 76.182 C350.849 75.642 352.295 75.103 353.744 74.568 C357.757 73.065 361.576 71.359 365.375 69.375 C355.625 62.875 341.336 61.013 329.862 59.458 C303.635 55.861 279.687 48.541 255.375 38.375 C253.789 37.715 252.202 37.055 250.615 36.396 C243.302 33.353 235.997 30.292 228.708 27.192 C227.209 26.555 225.709 25.922 224.207 25.291 C220.261 23.628 216.352 21.913 212.467 20.111 C195.039 12.142 184.683 13.767 167.75 21.812 Z " fill="#241F33" transform="translate(93.625,644.625)"/>
<path d="M0 0 C8.02 4.139 15.053 8.772 21.659 14.959 C22.713 15.92 22.713 15.92 23.79 16.901 C26.189 19.102 28.552 21.337 30.909 23.584 C31.685 24.3 32.462 25.017 33.262 25.756 C38.601 30.983 38.601 30.983 38.87 35.521 C37.536 39.308 35.984 42.833 34.034 46.334 C33.492 47.32 33.492 47.32 32.939 48.327 C29.966 53.627 26.722 58.424 22.659 62.959 C21.87 63.864 21.081 64.769 20.268 65.701 C12.826 73.73 3.705 81.025 -7.716 81.709 C-14.285 81.169 -19.035 77.684 -23.279 72.834 C-27.087 67.525 -27.334 62.288 -26.341 55.959 C-20.653 41.119 -11.174 26.598 -1.583 14.002 C-0.162 11.663 0.273 9.651 0.659 6.959 C-4.857 8.32 -6.621 11.761 -9.404 16.334 C-9.87 17.078 -10.336 17.823 -10.816 18.59 C-12.34 21.037 -13.841 23.497 -15.341 25.959 C-15.873 26.821 -16.405 27.684 -16.954 28.573 C-18.571 31.196 -20.177 33.826 -21.779 36.459 C-22.275 37.27 -22.77 38.081 -23.281 38.917 C-29.543 49.352 -33.679 58.155 -30.716 70.58 C-28.103 77.497 -23.071 81.051 -16.654 84.334 C-13.179 86.775 -11.223 90.188 -9.341 93.959 C-9.341 94.619 -9.341 95.279 -9.341 95.959 C-10.627 96.249 -10.627 96.249 -11.939 96.545 C-19.16 98.153 -19.16 98.153 -26.279 100.146 C-29.444 100.986 -32.084 101.018 -35.341 100.959 C-35.778 99.617 -35.778 99.617 -36.224 98.248 C-38.816 90.602 -41.563 83.557 -46.341 76.959 C-46.732 76.415 -47.122 75.872 -47.524 75.312 C-51.595 70.076 -56.292 67.409 -62.154 64.459 C-74.394 58.213 -88.698 49.098 -94.232 35.822 C-94.779 33.896 -94.779 33.896 -95.341 30.959 C-93.218 33.006 -91.307 35.004 -89.541 37.373 C-87.197 40.129 -84.973 41.752 -81.904 43.646 C-80.977 44.228 -80.05 44.809 -79.095 45.408 C-73.74 48.423 -69.66 49.236 -63.529 49.084 C-62.49 49.07 -62.49 49.07 -61.429 49.056 C-59.733 49.033 -58.037 48.997 -56.341 48.959 C-56.011 47.969 -55.681 46.979 -55.341 45.959 C-56.308 45.945 -57.275 45.93 -58.271 45.916 C-69.238 45.514 -77.424 43.309 -85.744 35.697 C-90.497 30.525 -94.983 24.164 -95.591 17.021 C-95.323 13.729 -94.514 11.036 -93.341 7.959 C-90.341 9.459 -90.341 9.459 -87.341 10.959 C-82.667 11.529 -79.218 11.397 -74.966 9.271 C-72.379 6.992 -70.875 5.027 -69.341 1.959 C-68.702 2.124 -68.063 2.289 -67.404 2.459 C-57.957 4.001 -50.99 2.04 -42.38 -1.799 C-26.279 -8.902 -15.869 -7.888 0 0 Z " fill="#A56131" transform="translate(677.34130859375,585.041259765625)"/>
<path d="M0 0 C0.883 -0.005 1.765 -0.011 2.675 -0.017 C17.895 0.148 32.386 5.606 43.375 16.312 C44.015 17.199 44.015 17.199 44.667 18.104 C47.389 21.883 47.389 21.883 51.44 23.887 C53.815 24.047 56.122 24.025 58.5 23.938 C69.516 24.037 78.47 26.481 86.629 34.301 C96.03 45.132 98.273 56.345 97.375 70.312 C97.045 70.972 96.715 71.632 96.375 72.312 C97.509 72.354 98.644 72.395 99.812 72.438 C107.888 73.479 113.865 79.156 118.871 85.23 C124.497 93.019 126.282 100.784 125.375 110.312 C122.551 124.042 115.777 135.076 104.375 143.312 C100.807 145.295 97.203 146.903 93.375 148.312 C92.479 148.679 91.583 149.045 90.66 149.422 C86.25 150.618 82.112 150.642 77.562 150.625 C76.711 150.641 75.86 150.657 74.982 150.674 C69.576 150.678 65.385 149.765 60.325 147.918 C56.189 146.634 53.717 148.14 49.992 150.02 C48.743 150.718 47.495 151.42 46.25 152.125 C31.61 160.153 18.065 162.757 1.438 162.75 C0.707 162.751 -0.023 162.751 -0.776 162.752 C-18.665 162.705 -36.945 159.69 -51.34 148.133 C-55.997 145.552 -60.134 145.754 -65.375 145.75 C-79.511 145.682 -93.222 141.878 -103.688 131.75 C-105.726 129.582 -106.878 127.811 -108.242 125.105 C-110.24 122.193 -110.24 122.193 -112.548 121.895 C-114.949 121.865 -117.293 121.999 -119.688 122.188 C-133.204 122.699 -143.864 118.435 -153.953 109.176 C-162.267 100.354 -165.505 90.587 -165.16 78.543 C-164.341 68.732 -158.092 58.394 -150.801 51.98 C-149.724 51.155 -149.724 51.155 -148.625 50.312 C-147.814 49.69 -147.003 49.067 -146.168 48.426 C-137.165 42.138 -127.725 39.178 -116.783 39.299 C-108.935 39.482 -108.935 39.482 -102.316 35.766 C-100.386 33.702 -98.656 31.512 -96.938 29.27 C-92.134 23.128 -85.184 19.89 -77.625 18.312 C-67.413 17.219 -58.798 20.125 -49.625 24.312 C-49.091 23.672 -48.558 23.031 -48.008 22.371 C-40.504 13.66 -32.468 7.289 -21.625 3.312 C-20.876 3.013 -20.127 2.714 -19.355 2.406 C-12.949 0.227 -6.701 0.03 0 0 Z M-24.625 12.312 C-25.446 12.782 -26.267 13.251 -27.113 13.734 C-29.387 15.156 -31.5 16.679 -33.625 18.312 C-34.621 19.028 -34.621 19.028 -35.637 19.758 C-43.56 25.953 -49.629 35.374 -52.438 45 C-53.289 47.402 -53.289 47.402 -54.625 49.312 C-57.578 50.53 -60.365 51.071 -63.512 51.598 C-67.657 52.549 -70.371 54.524 -73.688 57.105 C-75.625 58.312 -75.625 58.312 -79.625 58.312 C-80.615 56.766 -80.615 56.766 -81.625 55.188 C-85.156 49.803 -90.737 47.49 -96.625 45.312 C-99.275 44.845 -100.938 44.895 -103.625 45.312 C-103.955 45.642 -104.285 45.972 -104.625 46.312 C-106.119 46.409 -107.616 46.445 -109.113 46.453 C-124.144 46.706 -136.464 48.237 -147.625 59.312 C-154.418 67.536 -158.393 75.062 -158.094 85.898 C-156.858 94.901 -152.09 101.958 -145.137 107.625 C-138.776 111.899 -131.45 115.627 -123.695 115.129 C-122.735 115.09 -121.775 115.05 -120.785 115.01 C-118.768 114.92 -116.752 114.803 -114.738 114.658 C-111.836 114.567 -109.437 114.575 -106.625 115.312 C-104.23 117.692 -103.025 120.279 -101.625 123.312 C-94.173 132.042 -84.091 137.96 -72.625 139.312 C-69.224 139.377 -65.836 139.25 -62.438 139.125 C-53.375 138.826 -48.856 140.772 -41.625 146.312 C-22.245 157.587 4.719 158.455 26.156 153.289 C36.501 150.15 45.419 145.283 54.375 139.312 C57.209 139.713 59.333 140.725 62 141.875 C71.154 144.957 84.026 144.836 93.082 141.469 C103.597 136.167 111.891 128.086 116.375 117.062 C118.615 108.798 119.103 99.377 114.875 91.75 C110.74 85.875 105.291 81.429 98.375 79.312 C95.895 79.299 93.414 79.368 90.938 79.5 C82.865 79.747 82.865 79.747 79.688 76.938 C78.924 76.071 78.161 75.205 77.375 74.312 C72.922 71.195 67.489 71.96 62.375 72.812 C61.715 72.978 61.055 73.142 60.375 73.312 C60.562 71.438 60.562 71.438 61.375 69.312 C66.566 66.726 71.693 66.486 77.375 67.312 C79.729 68.453 81.662 69.708 83.719 71.316 C84.265 71.645 84.812 71.974 85.375 72.312 C86.365 71.983 87.355 71.653 88.375 71.312 C90.963 66.136 90.088 57.987 89.375 52.312 C86.849 44.744 80.909 38.714 74.375 34.312 C67.885 31.238 61.456 30.906 54.375 31.312 C54.777 32.519 54.777 32.519 55.188 33.75 C55.775 35.513 55.775 35.513 56.375 37.312 C56.639 37.908 56.904 38.504 57.176 39.117 C60.37 46.898 59.631 55.061 59.375 63.312 C58.055 62.983 56.735 62.653 55.375 62.312 C55.289 61.297 55.202 60.281 55.113 59.234 C53.527 42.862 47.933 29.707 35.375 18.562 C18.443 5.759 -5.409 1.265 -24.625 12.312 Z " fill="#32293F" transform="translate(750.625,189.6875)"/>
<path d="M0 0 C5.894 4.208 9.501 9.008 12.555 15.574 C15.317 15.052 17.881 14.466 20.555 13.574 C26.093 12.923 29.292 14.014 33.758 17.086 C38.284 20.835 40.007 24.82 40.555 30.574 C44.684 30.007 44.684 30.007 48.555 28.574 C53.839 27.974 56.392 29.38 60.555 32.574 C61.555 33.574 61.555 33.574 61.68 36.574 C61.555 39.574 61.555 39.574 60.555 40.574 C58.192 40.674 55.858 40.709 53.494 40.701 C52.373 40.704 52.373 40.704 51.229 40.706 C48.705 40.71 46.182 40.707 43.658 40.704 C41.857 40.705 40.055 40.707 38.254 40.709 C33.347 40.713 28.44 40.712 23.533 40.709 C18.41 40.706 13.287 40.708 8.164 40.71 C-0.441 40.712 -9.047 40.709 -17.652 40.705 C-27.616 40.699 -37.58 40.701 -47.544 40.706 C-56.082 40.711 -64.62 40.712 -73.159 40.709 C-78.266 40.707 -83.372 40.707 -88.479 40.711 C-93.279 40.713 -98.079 40.711 -102.879 40.706 C-104.646 40.704 -106.413 40.705 -108.18 40.707 C-110.581 40.71 -112.983 40.706 -115.384 40.701 C-116.447 40.705 -116.447 40.705 -117.531 40.708 C-122.331 40.688 -122.331 40.688 -123.445 39.574 C-123.823 36.362 -124.106 33.743 -122.469 30.848 C-120.119 27.922 -117.934 25.896 -114.445 24.574 C-111.316 24.309 -111.316 24.309 -107.883 24.324 C-106.747 24.319 -105.611 24.314 -104.441 24.309 C-101.445 24.574 -101.445 24.574 -98.445 26.574 C-96.12 27.328 -96.12 27.328 -93.445 26.574 C-91.747 25.097 -91.747 25.097 -90.07 23.262 C-85.466 18.371 -81.105 16.451 -74.383 16.199 C-70.055 16.317 -67.227 17.413 -63.445 19.574 C-62.125 19.574 -60.805 19.574 -59.445 19.574 C-59.026 18.613 -59.026 18.613 -58.598 17.633 C-53.656 6.971 -46.3 0.166 -35.383 -4.238 C-23.833 -7.697 -10.389 -6.057 0 0 Z " fill="#FDFBEE" transform="translate(322.4453125,185.42578125)"/>
<path d="M0 0 C0 0.33 0 0.66 0 1 C-1.052 1.004 -1.052 1.004 -2.125 1.008 C-8.155 1.254 -12.405 1.968 -17.074 5.902 C-20.988 10.166 -24 15.07 -27 20 C-27.754 19.245 -28.508 18.489 -29.285 17.711 C-30.629 16.369 -30.629 16.369 -32 15 C-32.597 14.394 -33.194 13.788 -33.809 13.164 C-37.439 9.686 -37.439 9.686 -42.312 8.938 C-45.292 9.82 -45.292 9.82 -47 13 C-48.02 17.884 -47.45 21.931 -44.75 26.125 C-41.147 31.017 -37.272 35.735 -33.403 40.42 C-23.175 52.915 -23.175 52.915 -23.938 62.438 C-24.177 69.005 -24.239 74.58 -20 80 C-16.75 83.06 -13.277 85.346 -9.312 87.375 C-5.838 89.817 -3.881 93.229 -2 97 C-2 97.66 -2 98.32 -2 99 C-3.286 99.29 -3.286 99.29 -4.598 99.586 C-11.818 101.194 -11.818 101.194 -18.938 103.188 C-22.103 104.027 -24.743 104.059 -28 104 C-28.437 102.658 -28.437 102.658 -28.883 101.289 C-31.475 93.644 -34.222 86.599 -39 80 C-39.39 79.456 -39.781 78.913 -40.183 78.353 C-44.254 73.117 -48.951 70.451 -54.812 67.5 C-67.053 61.255 -81.357 52.139 -86.891 38.863 C-87.438 36.938 -87.438 36.938 -88 34 C-85.877 36.048 -83.966 38.046 -82.199 40.414 C-79.855 43.17 -77.632 44.793 -74.562 46.688 C-73.636 47.269 -72.709 47.85 -71.754 48.449 C-66.399 51.465 -62.319 52.278 -56.188 52.125 C-55.148 52.111 -55.148 52.111 -54.088 52.098 C-52.392 52.074 -50.696 52.038 -49 52 C-48.67 51.01 -48.34 50.02 -48 49 C-48.967 48.986 -49.934 48.972 -50.93 48.957 C-61.897 48.555 -70.082 46.35 -78.402 38.738 C-83.156 33.566 -87.642 27.206 -88.25 20.062 C-87.981 16.771 -87.172 14.078 -86 11 C-83 12.5 -83 12.5 -80 14 C-75.325 14.57 -71.877 14.438 -67.625 12.312 C-65.038 10.033 -63.534 8.068 -62 5 C-61.361 5.165 -60.721 5.33 -60.062 5.5 C-50.616 7.042 -43.649 5.081 -35.039 1.242 C-21.958 -4.528 -13.533 -5.864 0 0 Z " fill="#FBF9EC" transform="translate(670,582)"/>
<path d="M0 0 C10.035 -0.859 16.816 1.581 24.75 7.688 C28.868 11.486 31.481 16.042 34 21 C34.416 21.788 34.833 22.575 35.262 23.387 C40.46 35.006 39.561 50.495 35.254 62.246 C29.899 74.007 21.107 83.275 9 88 C-0.087 91.304 -0.087 91.304 -4 90 C-3.359 89.527 -2.719 89.054 -2.059 88.566 C6.918 81.704 14.674 74.181 16.348 62.594 C16.743 56.02 15.07 51.175 11 46 C9.735 44.987 8.443 44.006 7.125 43.062 C5.316 41.637 5.316 41.637 4 40 C3.648 36.574 4.402 33.372 5 30 C5.853 21.182 4.137 14.304 1.094 6.152 C0 3 0 3 0 0 Z " fill="#FCFAED" transform="translate(816,715)"/>
<path d="M0 0 C3.764 1.779 5.506 3.292 7.875 6.688 C11.36 16.948 7.162 26.592 2.812 36 C-5.264 51.409 -16.57 61.29 -31.227 69.943 C-32.776 70.866 -34.297 71.836 -35.812 72.812 C-38 74 -38 74 -40.812 73.688 C-41.534 73.461 -42.256 73.234 -43 73 C-41.545 68.827 -39.461 65.635 -36.875 62.062 C-33.58 57.407 -30.487 52.684 -27.625 47.75 C-26.999 46.672 -26.372 45.595 -25.727 44.484 C-21.526 36.006 -20.568 28.75 -20.561 19.373 C-20.428 13.448 -19.351 8.958 -16 4 C-11.209 -0.563 -6.323 -1.008 0 0 Z " fill="#2F2839" transform="translate(744,385)"/>
<path d="M0 0 C14.036 13.623 14.036 13.623 14.375 22.875 C13.997 32.983 9.063 40.193 1.836 47.055 C-0.084 48.737 -2.036 50.37 -4 52 C-4.66 52.66 -5.32 53.32 -6 54 C-6 54.33 -6 54.66 -6 55 C-18.87 55.99 -18.87 55.99 -32 57 C-32.33 54.69 -32.66 52.38 -33 50 C-33.74 47.931 -34.553 45.886 -35.438 43.875 C-35.869 42.882 -36.301 41.89 -36.746 40.867 C-37.16 39.921 -37.574 38.975 -38 38 C-38.673 36.336 -39.342 34.67 -40 33 C-39.441 32.937 -38.881 32.874 -38.305 32.809 C-28.145 31.257 -15.676 26.165 -9 18 C-5.152 12.259 -2.021 6.626 0 0 Z " fill="#A86434" transform="translate(819,752)"/>
<path d="M0 0 C0.66 1.32 1.32 2.64 2 4 C1.287 4.196 0.574 4.392 -0.16 4.594 C-8.339 7.148 -12.68 10.503 -17.09 17.805 C-20.352 24.811 -20.409 33.761 -18.004 40.996 C-11.275 54.435 0.219 62.345 14 67.375 C22.513 69.866 31.226 69.334 40 69 C37.535 73.43 35.854 75.227 31 77 C25.107 77.498 21.096 76.148 15.812 73.875 C9.191 71.143 2.583 68.929 -4.312 67 C-15.836 63.681 -27.24 59.576 -34 49 C-36.688 44.021 -38.194 38.638 -37 33 C-31.078 17.759 -20.72 8.971 -6.191 1.91 C-4.137 1.057 -2.171 0.47 0 0 Z " fill="#A76334" transform="translate(725,709)"/>
<path d="M0 0 C-2.022 8.987 -9.499 15.245 -17 20 C-25.865 25 -25.865 25 -30 25 C-31.757 22.826 -33.324 20.69 -34.875 18.375 C-38.057 13.714 -41.321 9.285 -45 5 C-41.598 2.994 -38.594 2.551 -34.688 2.148 C-33.446 2.02 -32.205 1.891 -30.926 1.758 C-29.63 1.631 -28.335 1.505 -27 1.375 C-25.735 1.241 -24.471 1.107 -23.168 0.969 C-15.416 0.186 -7.789 -0.18 0 0 Z " fill="#7AA55B" transform="translate(812,754)"/>
<path d="M0 0 C-0.544 5.302 -1.663 10.741 -5 15 C-7.568 16.015 -9.858 16.366 -12.598 16.668 C-15.573 17.079 -17.475 18.441 -20 20 C-22 20 -22 20 -24 19 C-24.722 18.237 -25.444 17.474 -26.188 16.688 C-30.445 12.619 -35.473 10.842 -41 9 C-38.478 2.821 -32.28 0.315 -26.75 -2.875 C-17.288 -5.714 -8.702 -4.4 0 0 Z " fill="#FAF9ED" transform="translate(696,220)"/>
<path d="M0 0 C11.4 1.392 22.065 10.021 30.117 17.672 C30.117 18.002 30.117 18.332 30.117 18.672 C28.013 18.7 25.909 18.719 23.805 18.734 C22.633 18.746 21.461 18.758 20.254 18.77 C17.193 18.743 14.194 18.509 11.148 18.203 C3.757 17.486 -3.651 17.319 -11.07 17.109 C-12.514 17.066 -13.957 17.022 -15.4 16.979 C-18.894 16.873 -22.389 16.771 -25.883 16.672 C-24.346 13.404 -22.865 11.549 -20.07 9.234 C-17.679 7.241 -15.606 5.355 -13.551 3 C-9.385 -0.635 -5.278 -0.298 0 0 Z " fill="#7BA45C" transform="translate(742.8828125,849.328125)"/>
<path d="M0 0 C3.438 0.562 3.438 0.562 5.875 2 C8.282 5.947 8.215 9.154 7.438 13.562 C2.518 30.672 -6.703 43.475 -20.562 54.562 C-21.222 54.233 -21.883 53.903 -22.562 53.562 C-21.948 52.44 -21.333 51.317 -20.699 50.16 C-19.882 48.649 -19.066 47.137 -18.25 45.625 C-17.846 44.89 -17.442 44.154 -17.025 43.396 C-11.415 32.951 -9.331 23.236 -9.309 11.396 C-9.168 7.502 -8.67 5.699 -6.238 2.602 C-3.562 0.562 -3.562 0.562 0 0 Z " fill="#F8F6ED" transform="translate(739.5625,390.4375)"/>
<path d="M0 0 C0.48 2.229 0.959 4.458 1.438 6.688 C1.704 7.929 1.971 9.17 2.246 10.449 C2.851 13.296 3.438 16.145 4 19 C-1.131 20.519 -6.274 21.793 -11.5 22.938 C-12.275 23.109 -13.05 23.28 -13.849 23.456 C-21.213 25.07 -28.6 26.559 -36 28 C-37.65 25.03 -39.3 22.06 -41 19 C-39.961 18.914 -38.922 18.827 -37.852 18.738 C-22.863 17.311 -13.768 12.366 -3.34 1.227 C-2 0 -2 0 0 0 Z " fill="#9F5B30" transform="translate(704,653)"/>
<path d="M0 0 C1.875 0.562 1.875 0.562 4 2 C6.757 8.704 6.259 15.67 6.188 22.812 C6.187 24.052 6.186 25.291 6.186 26.568 C6.141 35.719 6.141 35.719 5 38 C2 37 2 37 0.875 34.812 C-0.659 29.88 -1.127 25.13 -1.133 19.98 C-1.134 18.876 -1.135 17.772 -1.137 16.635 C-1.133 15.497 -1.129 14.36 -1.125 13.188 C-1.129 12.031 -1.133 10.874 -1.137 9.682 C-1.135 8.035 -1.135 8.035 -1.133 6.355 C-1.132 5.352 -1.131 4.348 -1.129 3.313 C-1 1 -1 1 0 0 Z " fill="#282633" transform="translate(458,925)"/>
<path d="M0 0 C1.32 0.33 2.64 0.66 4 1 C4.389 7.285 2.974 12.562 1.188 18.562 C0.926 19.482 0.665 20.402 0.396 21.35 C-1.011 26.183 -2.559 30.594 -5 35 C-5.99 34.67 -6.98 34.34 -8 34 C-8.795 22.142 -6.808 9.969 0 0 Z " fill="#272433" transform="translate(480,929)"/>
<path d="M0 0 C1.848 0.242 1.848 0.242 4 1 C10.565 9.819 14.956 24.103 14 35 C12.156 34.809 12.156 34.809 10 34 C8.656 31.848 8.656 31.848 7.5 29.062 C7.082 28.071 6.665 27.08 6.234 26.059 C5.623 24.545 5.623 24.545 5 23 C4.613 22.083 4.227 21.167 3.828 20.223 C0.927 13.232 -0.128 7.55 0 0 Z " fill="#262133" transform="translate(439,932)"/>
<path d="M0 0 C5 5 5 5 7.25 7.438 C14.179 13.894 20.244 17.025 29.688 17.562 C30.389 17.606 31.091 17.649 31.814 17.693 C33.543 17.799 35.271 17.9 37 18 C37 19.32 37 20.64 37 22 C34.736 24.264 30.197 23.425 27.151 23.462 C19.351 23.296 12.587 20.308 6.84 15.008 C0.156 7.714 0.156 7.714 -0.312 2.562 C-0.209 1.717 -0.106 0.871 0 0 Z " fill="#342B42" transform="translate(585,612)"/>
<path d="M0 0 C0.66 0 1.32 0 2 0 C2.191 5.981 1.542 11.264 0.25 17.094 C0.072 17.926 -0.105 18.758 -0.288 19.615 C-0.851 22.245 -1.425 24.873 -2 27.5 C-2.386 29.294 -2.772 31.088 -3.156 32.883 C-4.096 37.257 -5.045 41.629 -6 46 C-7.98 46.495 -7.98 46.495 -10 47 C-10.566 38.96 -9.068 31.582 -7.174 23.813 C-6.687 21.808 -6.218 19.8 -5.752 17.791 C-4.28 11.584 -2.627 5.817 0 0 Z " fill="#2A2837" transform="translate(369,920)"/>
<path d="M0 0 C0.99 0 1.98 0 3 0 C14.752 34.289 14.752 34.289 14 45 C13.01 44.67 12.02 44.34 11 44 C10.078 41.938 10.078 41.938 9.25 39 C8.755 37.266 8.755 37.266 8.25 35.496 C8.061 34.81 7.871 34.124 7.676 33.417 C6.869 30.533 6.028 27.66 5.188 24.785 C4.541 22.545 3.895 20.304 3.25 18.062 C2.773 16.428 2.773 16.428 2.286 14.76 C1.991 13.716 1.695 12.673 1.391 11.598 C1.123 10.664 0.855 9.731 0.579 8.77 C-0.047 5.777 -0.1 3.048 0 0 Z " fill="#292536" transform="translate(332,922)"/>
<path d="M0 0 C0.99 0.33 1.98 0.66 3 1 C4.796 40.613 4.796 40.613 3 46 C2.34 46 1.68 46 1 46 C-0.625 43.133 -1.249 41.086 -1.243 37.798 C-1.246 36.981 -1.249 36.163 -1.252 35.321 C-1.245 34.448 -1.238 33.575 -1.23 32.676 C-1.23 31.774 -1.23 30.872 -1.229 29.942 C-1.226 28.04 -1.218 26.138 -1.206 24.236 C-1.188 21.313 -1.185 18.39 -1.186 15.467 C-1.181 13.62 -1.175 11.773 -1.168 9.926 C-1.167 9.047 -1.166 8.168 -1.165 7.262 C-1.116 1.116 -1.116 1.116 0 0 Z " fill="#292331" transform="translate(351,918)"/>
<path d="M0 0 C0.99 0 1.98 0 3 0 C3.572 31.283 3.572 31.283 -1 45 C-1.99 45 -2.98 45 -4 45 C-3.939 43.788 -3.879 42.577 -3.816 41.328 C-3.777 40.528 -3.737 39.727 -3.696 38.903 C-3.606 37.118 -3.515 35.333 -3.424 33.549 C-3.183 28.831 -2.961 24.115 -2.781 19.395 C-2.744 18.5 -2.708 17.606 -2.67 16.685 C-2.6 14.969 -2.536 13.254 -2.481 11.538 C-2.299 7.284 -1.938 3.884 0 0 Z " fill="#2C2D35" transform="translate(923,833)"/>
<path d="M0 0 C0.66 0 1.32 0 2 0 C1.542 5.999 -1.141 10.39 -4.062 15.5 C-4.557 16.377 -5.051 17.254 -5.561 18.157 C-6.562 19.932 -7.567 21.704 -8.575 23.475 C-9.867 25.765 -11.125 28.069 -12.367 30.387 C-13.057 31.654 -13.747 32.921 -14.438 34.188 C-15.034 35.295 -15.631 36.402 -16.246 37.543 C-18 40 -18 40 -20.223 40.863 C-20.809 40.908 -21.396 40.954 -22 41 C-20.378 30.39 -13.11 20.312 -7.688 11.25 C-7.16 10.368 -6.632 9.486 -6.089 8.578 C-2.263 2.263 -2.263 2.263 0 0 Z " fill="#211D2C" transform="translate(956,840)"/>
<path d="M0 0 C-0.111 1.773 -0.111 1.773 -1 4 C-3.68 5.815 -3.68 5.815 -7.23 7.637 C-7.859 7.962 -8.487 8.287 -9.134 8.621 C-10.464 9.306 -11.799 9.984 -13.136 10.656 C-15.171 11.679 -17.192 12.725 -19.213 13.775 C-20.51 14.439 -21.807 15.101 -23.105 15.762 C-24.006 16.227 -24.006 16.227 -24.924 16.702 C-28.605 18.535 -31.919 19.527 -36 20 C-35.659 17.253 -35.313 16.246 -33.097 14.506 C-32.279 14.049 -31.46 13.592 -30.617 13.121 C-29.712 12.609 -28.807 12.097 -27.874 11.57 C-26.926 11.052 -25.977 10.534 -25 10 C-24.101 9.496 -23.201 8.992 -22.274 8.473 C-19.573 6.974 -16.853 5.514 -14.125 4.062 C-13.202 3.557 -12.279 3.051 -11.328 2.529 C-10.439 2.057 -9.549 1.584 -8.633 1.098 C-7.838 0.67 -7.042 0.242 -6.223 -0.199 C-3.674 -1.117 -2.505 -0.924 0 0 Z " fill="#F5B74E" transform="translate(884,205)"/>
<path d="M0 0 C1.32 0 2.64 0 4 0 C7.408 8.352 10.708 16.741 13.875 25.188 C14.34 26.407 14.34 26.407 14.815 27.652 C15.1 28.42 15.386 29.189 15.68 29.98 C16.062 31 16.062 31 16.453 32.04 C17 34 17 34 17 38 C15.68 38 14.36 38 13 38 C10.864 33.112 8.907 28.192 7.062 23.188 C5.059 17.769 2.978 12.409 0.664 7.113 C-0.108 4.656 -0.117 2.561 0 0 Z " fill="#F3BA50" transform="translate(677,137)"/>
<path d="M0 0 C-0.263 5.549 -3.741 8.288 -7.438 12 C-14.522 19.331 -20.816 26.988 -26.645 35.363 C-27.092 35.903 -27.539 36.444 -28 37 C-28.66 37 -29.32 37 -30 37 C-28.872 27.243 -21.72 20.436 -15.277 13.465 C-12.359 10.306 -9.545 7.06 -6.727 3.812 C-3.095 0 -3.095 0 0 0 Z " fill="#241E2E" transform="translate(975,849)"/>
<path d="M0 0 C3.867 0.534 5.175 2.008 7.5 5.062 C8.183 5.952 8.866 6.841 9.57 7.758 C10.381 8.838 11.191 9.919 12 11 C13.039 12.373 14.078 13.745 15.117 15.117 C26 29.53 26 29.53 26 34 C22.711 33.771 21.862 32.849 19.59 30.367 C18.695 29.212 17.811 28.047 16.938 26.875 C16.467 26.258 15.997 25.64 15.512 25.004 C14.515 23.69 13.523 22.372 12.536 21.051 C10.985 18.98 9.412 16.927 7.836 14.875 C6.827 13.543 5.819 12.209 4.812 10.875 C4.331 10.248 3.849 9.622 3.353 8.976 C0.857 5.614 0 4.319 0 0 Z " fill="#F4B853" transform="translate(799,362)"/>
<path d="M0 0 C0.66 0 1.32 0 2 0 C1.513 5.436 0.016 9.404 -2.625 14.188 C-7.498 23.409 -10.775 33.104 -14 43 C-14.66 43 -15.32 43 -16 43 C-17.369 27.822 -9.339 14.76 -2 2 C-1.34 1.34 -0.68 0.68 0 0 Z " fill="#242331" transform="translate(387,927)"/>
<path d="M0 0 C1.32 0 2.64 0 4 0 C3.38 4.232 0.973 7.463 -1.332 10.953 C-1.765 11.613 -2.198 12.274 -2.644 12.954 C-3.56 14.344 -4.479 15.733 -5.401 17.119 C-6.811 19.247 -8.199 21.389 -9.588 23.531 C-10.48 24.881 -11.374 26.23 -12.27 27.578 C-12.683 28.222 -13.097 28.865 -13.523 29.529 C-14.726 31.31 -14.726 31.31 -17 34 C-18.32 34 -19.64 34 -21 34 C-20.081 29.667 -17.916 26.32 -15.562 22.625 C-15.12 21.928 -14.678 21.23 -14.222 20.512 C-11.096 15.626 -7.916 10.777 -4.625 6 C-4.221 5.395 -3.817 4.79 -3.401 4.167 C-2.227 2.5 -2.227 2.5 0 0 Z " fill="#F3B84F" transform="translate(822,155)"/>
<path d="M0 0 C1.32 0 2.64 0 4 0 C4.269 8.458 3.425 16.725 2.5 25.125 C2.355 26.477 2.21 27.828 2.066 29.18 C1.716 32.454 1.36 35.727 1 39 C-0.98 39.495 -0.98 39.495 -3 40 C-3.304 26.789 -3.421 12.856 0 0 Z " fill="#F5BA49" transform="translate(749,130)"/>
<path d="M0 0 C0.66 0 1.32 0 2 0 C2.212 5.656 1.686 9.941 -0.125 15.375 C-0.344 16.044 -0.564 16.713 -0.79 17.402 C-1.515 19.605 -2.258 21.802 -3 24 C-3.557 25.679 -4.113 27.359 -4.668 29.039 C-6.099 33.364 -7.546 37.683 -9 42 C-9.99 42 -10.98 42 -12 42 C-11.707 35.374 -10.404 29.673 -8.18 23.438 C-6.512 18.579 -5.13 13.646 -3.751 8.699 C-2.806 5.392 -1.924 2.886 0 0 Z " fill="#26212F" transform="translate(940,834)"/>
<path d="M0 0 C1.087 -0.021 1.087 -0.021 2.195 -0.043 C4.875 0.188 4.875 0.188 8.555 1.191 C13.346 2.454 17.948 2.411 22.875 2.312 C23.745 2.303 24.615 2.294 25.512 2.285 C27.633 2.262 29.754 2.226 31.875 2.188 C29.41 6.617 27.729 8.414 22.875 10.188 C16.719 10.749 12.255 9.126 6.688 6.812 C5.497 6.337 5.497 6.337 4.283 5.852 C0.737 4.422 -2.72 2.929 -6.125 1.188 C-3.853 0.051 -2.524 0.022 0 0 Z " fill="#AC6738" transform="translate(733.125,775.8125)"/>
<path d="M0 0 C-0.563 3.912 -2.384 5.804 -5.062 8.625 C-8.225 12.033 -11.246 15.474 -14.125 19.125 C-16.657 22.319 -19.192 25.504 -21.812 28.625 C-22.355 29.277 -22.898 29.93 -23.457 30.602 C-25 32 -25 32 -28 32 C-27.621 26.65 -25.676 23.973 -22 20.312 C-20.997 19.271 -19.998 18.226 -19 17.18 C-18.497 16.655 -17.995 16.13 -17.477 15.589 C-14.425 12.305 -11.672 8.779 -8.875 5.277 C-4.53 0 -4.53 0 0 0 Z " fill="#F3B853" transform="translate(660,360)"/>
<path d="M0 0 C8.38 1.477 15.108 11.007 20.812 16.812 C22.296 18.321 23.781 19.828 25.27 21.332 C25.915 21.989 26.561 22.646 27.226 23.323 C29.098 25.187 29.098 25.187 32 27 C32 28.32 32 29.64 32 31 C28.087 30.454 26.413 28.701 23.75 25.875 C20.936 22.965 18.126 20.147 15.062 17.5 C14.423 16.946 13.784 16.391 13.125 15.82 C11.528 14.452 9.922 13.095 8.312 11.742 C7.405 10.961 6.497 10.18 5.562 9.375 C4.718 8.661 3.874 7.947 3.004 7.211 C0.775 4.752 0.314 3.259 0 0 Z " fill="#F8BA4A" transform="translate(618,166)"/>
<path d="M0 0 C0.66 0 1.32 0 2 0 C3.202 1.354 3.202 1.354 4.539 3.262 C5.281 4.313 5.281 4.313 6.038 5.385 C6.562 6.145 7.085 6.905 7.625 7.688 C8.427 8.843 8.427 8.843 9.245 10.021 C10.843 12.339 12.426 14.666 14 17 C14.438 17.65 14.877 18.299 15.329 18.968 C19.378 25.04 22.31 29.617 23 37 C18.243 35.513 16.565 31.543 14.188 27.5 C13.308 26.044 12.427 24.59 11.543 23.137 C11.113 22.428 10.683 21.72 10.24 20.99 C8.115 17.58 5.761 14.343 3.375 11.113 C0.886 7.288 0 4.595 0 0 Z " fill="#292134" transform="translate(315,934)"/>
<path d="M0 0 C0.99 0.33 1.98 0.66 3 1 C9.465 31.862 9.465 31.862 6 43 C5.01 42.67 4.02 42.34 3 42 C2.963 40.863 2.925 39.726 2.887 38.555 C2.533 29.743 1.68 21.6 -0.363 13.008 C-1.279 8.682 -2.042 4.083 0 0 Z " fill="#241F33" transform="translate(905,835)"/>
<path d="M0 0 C0.66 0 1.32 0 2 0 C5 3.462 5 3.462 5 6 C6.32 6.66 7.64 7.32 9 8 C8.578 8.482 8.157 8.964 7.723 9.461 C7.175 10.093 6.627 10.724 6.062 11.375 C5.517 12.001 4.972 12.628 4.41 13.273 C2.93 14.956 2.93 14.956 2 17 C1.34 17 0.68 17 0 17 C-1.014 15.342 -2.011 13.673 -3 12 C-4.296 10.63 -5.62 9.285 -7 8 C-5.882 6.661 -4.755 5.329 -3.625 4 C-2.685 2.886 -2.685 2.886 -1.727 1.75 C-1.157 1.173 -0.587 0.595 0 0 Z " fill="#FAC162" transform="translate(463,129)"/>
<path d="M0 0 C0.763 0.784 1.526 1.567 2.312 2.375 C4.909 5.073 4.909 5.073 8 7 C6.332 10.941 3.773 13.789 1 17 C0.257 16.216 -0.485 15.433 -1.25 14.625 C-3.544 12.435 -5.122 11.173 -8 10 C-6.76 6.281 -4.814 4.677 -2 2 C-1.34 1.34 -0.68 0.68 0 0 Z " fill="#FBC16A" transform="translate(86,289)"/>
<path d="M0 0 C0.763 0.784 1.526 1.567 2.312 2.375 C4.909 5.073 4.909 5.073 8 7 C6.332 10.941 3.773 13.789 1 17 C-0.178 16.098 -1.342 15.178 -2.5 14.25 C-3.15 13.74 -3.799 13.229 -4.469 12.703 C-6 11 -6 11 -6 7 C-4.125 4.938 -4.125 4.938 -2 3 C-1.34 2.01 -0.68 1.02 0 0 Z " fill="#FABE64" transform="translate(455,217)"/>
<path d="M0 0 C4.068 0.525 6.176 1.614 9.188 4.375 C9.862 4.981 10.536 5.587 11.23 6.211 C13 8 13 8 15 11 C14.625 13.188 14.625 13.188 14 15 C10.053 14.759 8.357 14.33 5.41 11.602 C4.635 10.619 3.861 9.637 3.062 8.625 C1.873 7.159 1.873 7.159 0.66 5.664 C0.112 4.785 -0.436 3.906 -1 3 C-0.67 2.01 -0.34 1.02 0 0 Z " fill="#372E3F" transform="translate(627,590)"/>
<path d="M0 0 C2.64 1.98 5.28 3.96 8 6 C3.605 12.25 3.605 12.25 2 14 C-1 14 -1 14 -3.688 11.688 C-6 9 -6 9 -6 6 C-3.562 3.375 -3.562 3.375 -1 1 C-0.67 0.67 -0.34 0.34 0 0 Z " fill="#F9C070" transform="translate(409,274)"/>
<path d="M0 0 C2.152 3.228 2.256 4.135 2.266 7.859 C2.269 9.286 2.269 9.286 2.273 10.742 C2.266 11.735 2.258 12.727 2.25 13.75 C2.258 14.727 2.265 15.704 2.273 16.711 C2.259 22.2 1.825 26.815 0 32 C-0.33 32 -0.66 32 -1 32 C-1.025 27.603 -1.043 23.207 -1.055 18.81 C-1.06 17.314 -1.067 15.817 -1.075 14.32 C-1.088 12.173 -1.093 10.026 -1.098 7.879 C-1.103 6.585 -1.108 5.292 -1.114 3.959 C-1 1 -1 1 0 0 Z " fill="#201531" transform="translate(352,920)"/>
<path d="M0 0 C0.66 0 1.32 0 2 0 C2.386 6.822 1.009 12.496 -1 19 C-1.33 18.34 -1.66 17.68 -2 17 C-3.98 17.99 -3.98 17.99 -6 19 C-5.404 12.151 -3.066 6.131 0 0 Z " fill="#2A2837" transform="translate(940,834)"/>
<path d="M0 0 C2 0 2 0 4.625 2.5 C5.801 3.738 5.801 3.738 7 5 C5.707 7.884 4.341 9.872 2 12 C-0.494 10.796 -2.681 9.546 -5 8 C-5 6 -5 6 -3.062 4 C-2.382 3.34 -1.701 2.68 -1 2 C-0.67 1.34 -0.34 0.68 0 0 Z " fill="#F9C165" transform="translate(162,333)"/>
<path d="M0 0 C0.99 0.33 1.98 0.66 3 1 C3.365 2.581 3.717 4.165 4.062 5.75 C4.26 6.632 4.457 7.513 4.66 8.422 C4.998 10.987 4.812 12.571 4 15 C3.34 14.67 2.68 14.34 2 14 C1.34 14.66 0.68 15.32 0 16 C-2.286 4.571 -2.286 4.571 0 0 Z " fill="#32313B" transform="translate(905,835)"/>
<path d="M0 0 C0.99 0 1.98 0 3 0 C3.081 1.958 3.139 3.916 3.188 5.875 C3.222 6.966 3.257 8.056 3.293 9.18 C3.196 10.11 3.1 11.041 3 12 C2.01 12.66 1.02 13.32 0 14 C-1.192 16.05 -1.192 16.05 -2 18 C-2.054 15.938 -2.093 13.875 -2.125 11.812 C-2.148 10.664 -2.171 9.515 -2.195 8.332 C-2.005 5.083 -1.394 2.913 0 0 Z " fill="#302C39" transform="translate(923,833)"/>
<path d="M0 0 C-1.621 3.545 -3.726 6.59 -6 9.75 C-6.701 10.735 -7.403 11.72 -8.125 12.734 C-8.744 13.482 -9.362 14.23 -10 15 C-10.66 15 -11.32 15 -12 15 C-11.623 9.59 -10.011 7.545 -6 4 C-5.278 3.237 -4.556 2.474 -3.812 1.688 C-2 0 -2 0 0 0 Z " fill="#1E1B26" transform="translate(957,871)"/>
<path d="M0 0 C0.99 0.33 1.98 0.66 3 1 C2.67 2.32 2.34 3.64 2 5 C1.67 4.34 1.34 3.68 1 3 C0.67 15.87 0.34 28.74 0 42 C-0.33 42 -0.66 42 -1 42 C-1.025 36.179 -1.043 30.359 -1.055 24.538 C-1.06 22.556 -1.067 20.574 -1.075 18.593 C-1.088 15.75 -1.093 12.908 -1.098 10.066 C-1.103 9.175 -1.108 8.283 -1.113 7.364 C-1.113 5.243 -1.062 3.121 -1 1 C-0.67 0.67 -0.34 0.34 0 0 Z " fill="#3E4140" transform="translate(351,918)"/>
<path d="M0 0 C0.66 1.32 1.32 2.64 2 4 C1.252 4.254 0.505 4.508 -0.266 4.77 C-1.25 5.114 -2.235 5.458 -3.25 5.812 C-4.225 6.149 -5.199 6.485 -6.203 6.832 C-8.859 7.941 -10.797 9.169 -13 11 C-12.45 7.15 -11.024 5.404 -8 3 C-5.367 1.817 -2.746 0.915 0 0 Z " fill="#A05C37" transform="translate(725,709)"/>
<path d="M0 0 C0.33 0 0.66 0 1 0 C0.885 2.876 0.759 5.75 0.625 8.625 C0.594 9.433 0.563 10.241 0.531 11.074 C0.305 15.718 -0.259 19.627 -2 24 C-2.33 24 -2.66 24 -3 24 C-3.054 21.938 -3.093 19.875 -3.125 17.812 C-3.148 16.664 -3.171 15.515 -3.195 14.332 C-3.003 11.046 -2.341 8.967 -1 6 C-0.624 4.008 -0.28 2.008 0 0 Z " fill="#211832" transform="translate(924,840)"/>
<path d="M0 0 C0.66 0.33 1.32 0.66 2 1 C-0.312 3.5 -0.312 3.5 -3 6 C-3.99 6 -4.98 6 -6 6 C-6.206 6.577 -6.413 7.155 -6.625 7.75 C-8.502 10.821 -10.993 12.054 -14 14 C-15.703 15.629 -17.382 17.286 -19 19 C-19.66 18.67 -20.32 18.34 -21 18 C-14.479 11.098 -7.862 5.351 0 0 Z " fill="#3B2F4B" transform="translate(628,808)"/>
<path d="M0 0 C2 2 2 2 2.195 5.258 C2.172 6.534 2.149 7.81 2.125 9.125 C2.107 10.406 2.089 11.688 2.07 13.008 C2.047 13.995 2.024 14.983 2 16 C1.01 15.67 0.02 15.34 -1 15 C-1.027 13.063 -1.046 11.125 -1.062 9.188 C-1.074 8.109 -1.086 7.03 -1.098 5.918 C-1 3 -1 3 0 0 Z " fill="#262830" transform="translate(910,858)"/>
<path d="M0 0 C4.479 -0.176 8.026 -0.221 12 2 C12.33 2.99 12.66 3.98 13 5 C7.346 5.346 3.97 4.434 -1 2 C-0.67 1.34 -0.34 0.68 0 0 Z " fill="#B76E3E" transform="translate(743,781)"/>
<path d="M0 0 C1.226 0.014 1.226 0.014 2.477 0.027 C3.416 0.045 3.416 0.045 4.375 0.062 C5.365 2.043 6.355 4.023 7.375 6.062 C5.79 5.609 4.207 5.149 2.625 4.688 C1.743 4.432 0.862 4.177 -0.047 3.914 C-2.386 3.142 -4.459 2.226 -6.625 1.062 C-4.22 -0.14 -2.675 -0.038 0 0 Z " fill="#B3683A" transform="translate(733.625,775.9375)"/>
<path d="M0 0 C1.16 3.479 0.775 4.342 -0.438 7.688 C-0.725 8.496 -1.012 9.304 -1.309 10.137 C-1.537 10.752 -1.765 11.366 -2 12 C-2.99 12 -3.98 12 -5 12 C-4.508 4.615 -4.508 4.615 -1.938 1.5 C-1.298 1.005 -0.659 0.51 0 0 Z " fill="#1D1728" transform="translate(933,864)"/>
<path d="M0 0 C6.011 1.63 12.017 3.271 18 5 C17.67 5.66 17.34 6.32 17 7 C10.689 5.901 4.937 4.419 -1 2 C-0.67 1.34 -0.34 0.68 0 0 Z " fill="#BC6F41" transform="translate(710,770)"/>
<path d="M0 0 C0.66 0 1.32 0 2 0 C2.18 5.22 1.971 9.073 0 14 C-1.876 10.859 -2.183 8.921 -1.688 5.312 C-1.588 4.525 -1.489 3.737 -1.387 2.926 C-1 1 -1 1 0 0 Z " fill="#231F34" transform="translate(369,920)"/>
<path d="M0 0 C0.33 0 0.66 0 1 0 C1.33 4.29 1.66 8.58 2 13 C2.33 13 2.66 13 3 13 C3 14.98 3 16.96 3 19 C2.01 18.67 1.02 18.34 0 18 C0 12.06 0 6.12 0 0 Z " fill="#1A1427" transform="translate(908,859)"/>
<path d="M0 0 C0 3.919 -1.572 5.041 -4 8 C-4 8.66 -4 9.32 -4 10 C-5.32 9.67 -6.64 9.34 -8 9 C-6.417 4.726 -3.494 2.735 0 0 Z " fill="#E7E6DD" transform="translate(664,857)"/>
<path d="M0 0 C0.99 0.33 1.98 0.66 3 1 C2.67 3.64 2.34 6.28 2 9 C1.01 9 0.02 9 -1 9 C-1.098 2.848 -1.098 2.848 -1 1 C-0.67 0.67 -0.34 0.34 0 0 Z " fill="#27252F" transform="translate(920,869)"/>
<path d="M0 0 C0.577 0.227 1.155 0.454 1.75 0.688 C-0.585 4.19 -2.452 5.026 -6.25 6.688 C-6.91 6.688 -7.57 6.688 -8.25 6.688 C-6.656 2.835 -4.58 -0.636 0 0 Z " fill="#E9E8E7" transform="translate(577.25,820.3125)"/>
<path d="M0 0 C0.66 0 1.32 0 2 0 C2.33 1.32 2.66 2.64 3 4 C3.99 3.67 4.98 3.34 6 3 C5.67 4.98 5.34 6.96 5 9 C4.34 9 3.68 9 3 9 C2.67 9.66 2.34 10.32 2 11 C1.34 7.37 0.68 3.74 0 0 Z " fill="#302E37" transform="translate(338,947)"/>
<path d="M0 0 C0.99 0.33 1.98 0.66 3 1 C3.33 1.99 3.66 2.98 4 4 C2.75 6.188 2.75 6.188 1 8 C0.01 8 -0.98 8 -2 8 C-1.477 5.237 -0.891 2.674 0 0 Z " fill="#2A2833" transform="translate(936,873)"/>
<path d="M0 0 C0.33 2.64 0.66 5.28 1 8 C0.01 8.33 -0.98 8.66 -2 9 C-2 7.35 -2 5.7 -2 4 C-2.66 4 -3.32 4 -4 4 C-4 3.01 -4 2.02 -4 1 C-2 0 -2 0 0 0 Z " fill="#231E33" transform="translate(342,943)"/>
<path d="M0 0 C0.99 0 1.98 0 3 0 C4.158 4.054 3.837 6.218 2 10 C-0.094 6.598 -0.179 3.947 0 0 Z " fill="#322D3B" transform="translate(332,922)"/>
<path d="M0 0 C3 3 3 3 3.312 5.375 C2.975 8.206 2.181 10.416 1 13 C0.67 13 0.34 13 0 13 C0 8.71 0 4.42 0 0 Z " fill="#35353D" transform="translate(921,838)"/>
<path d="M0 0 C0.33 0.66 0.66 1.32 1 2 C1.66 2.33 2.32 2.66 3 3 C1.02 3.99 -0.96 4.98 -3 6 C-3.33 4.68 -3.66 3.36 -4 2 C-2.68 1.34 -1.36 0.68 0 0 Z " fill="#21243B" transform="translate(537,669)"/>
<path d="M0 0 C-1.98 0.99 -1.98 0.99 -4 2 C-2.68 2.66 -1.36 3.32 0 4 C-2.31 4.33 -4.62 4.66 -7 5 C-7.33 3.68 -7.66 2.36 -8 1 C-5.072 0.024 -3.044 -0.082 0 0 Z " fill="#402F44" transform="translate(584,650)"/>
<path d="M0 0 C0.99 0 1.98 0 3 0 C3.33 1.32 3.66 2.64 4 4 C3.01 4 2.02 4 1 4 C0.67 4.99 0.34 5.98 0 7 C-0.66 6.67 -1.32 6.34 -2 6 C-1.34 4.02 -0.68 2.04 0 0 Z " fill="#4E405A" transform="translate(789,878)"/>
<path d="M0 0 C2.31 0.33 4.62 0.66 7 1 C6.01 1.495 6.01 1.495 5 2 C4.67 2.99 4.34 3.98 4 5 C3.01 4.67 2.02 4.34 1 4 C0.312 1.938 0.312 1.938 0 0 Z " fill="#A65B30" transform="translate(739,777)"/>
<path d="M0 0 C0.66 0.33 1.32 0.66 2 1 C1.34 2.32 0.68 3.64 0 5 C-1.65 5 -3.3 5 -5 5 C-4.34 4.67 -3.68 4.34 -3 4 C-2.67 3.01 -2.34 2.02 -2 1 C-1.34 0.67 -0.68 0.34 0 0 Z " fill="#40354B" transform="translate(621,630)"/>
<path d="M0 0 C1.945 2.918 2.453 4.625 3 8 C2.01 8.33 1.02 8.66 0 9 C0 6.03 0 3.06 0 0 Z " fill="#251F2F" transform="translate(360,958)"/>
<path d="M0 0 C1.98 0 3.96 0 6 0 C5.427 2.867 5.139 3.861 3 6 C2.876 5.196 2.753 4.391 2.625 3.562 C2.316 2.294 2.316 2.294 2 1 C1.34 0.67 0.68 0.34 0 0 Z " fill="#342B4E" transform="translate(576,831)"/>
<path d="M0 0 C3.125 0.375 3.125 0.375 6 1 C6.33 1.99 6.66 2.98 7 4 C2.545 3.01 2.545 3.01 -2 2 C-1.34 1.34 -0.68 0.68 0 0 Z " fill="#BE784A" transform="translate(729,776)"/>
<path d="M0 0 C3.96 0.99 3.96 0.99 8 2 C8 2.33 8 2.66 8 3 C4.7 3.33 1.4 3.66 -2 4 C-1.34 2.68 -0.68 1.36 0 0 Z " fill="#9D572F" transform="translate(729,773)"/>
<path d="M0 0 C3.5 0.312 3.5 0.312 7 1 C7.33 1.66 7.66 2.32 8 3 C4.625 3.125 4.625 3.125 1 3 C0.34 2.34 -0.32 1.68 -1 1 C-0.67 0.67 -0.34 0.34 0 0 Z " fill="#CB8555" transform="translate(748,783)"/>
</svg>