<svg version="1.1" xmlns="http://www.w3.org/2000/svg" width="1024" height="1024">
<path d="M0 0 C337.92 0 675.84 0 1024 0 C1024 337.92 1024 675.84 1024 1024 C686.08 1024 348.16 1024 0 1024 C0 686.08 0 348.16 0 0 Z " fill="#E2E4E6" transform="translate(0,0)"/>
<path d="M0 0 C1.66 3.319 3.159 6.629 4.617 10.039 C5.135 11.245 5.653 12.452 6.187 13.695 C6.462 14.335 6.736 14.974 7.019 15.633 C13.427 30.542 20.113 45.306 27 60 C27.439 60.936 27.439 60.936 27.887 61.892 C29.465 65.258 31.043 68.624 32.623 71.99 C35.465 78.049 38.305 84.109 41.143 90.17 C41.947 91.888 42.754 93.605 43.56 95.322 C59.718 129.785 76.031 165.855 77.562 204.438 C77.606 205.455 77.649 206.473 77.693 207.521 C77.799 210.014 77.901 212.507 78 215 C77.01 215 76.02 215 75 215 C75 214.34 75 213.68 75 213 C74.47 212.759 73.94 212.518 73.395 212.27 C70.943 210.97 68.714 209.454 66.433 207.877 C48.126 195.402 26.231 192.747 4.613 196.258 C-19.055 201.12 -40.034 212.6 -57.331 229.382 C-58.505 230.52 -59.686 231.652 -60.872 232.778 C-71.032 242.439 -79.887 252.568 -88 264 C-88.456 264.638 -88.912 265.276 -89.382 265.933 C-103.863 286.368 -115.338 307.753 -111.477 333.488 C-111.319 334.317 -111.162 335.146 -111 336 C-154.834 350.611 -229.391 340.119 -271 323 C-271.009 322.442 -271.019 321.885 -271.028 321.31 C-271.826 283.254 -290.617 252.275 -316.638 225.409 C-317.893 224.11 -319.131 222.794 -320.367 221.477 C-324.356 217.317 -328.123 214.299 -333.062 211.312 C-336.249 209.032 -337.746 207.885 -338.836 204.09 C-338.951 200.301 -338.603 196.728 -338 193 C-337.83 191.877 -337.83 191.877 -337.656 190.731 C-333.549 164.903 -323.943 140.625 -313 117 C-311.074 119.889 -310.347 122.223 -309.505 125.547 C-305.42 141.406 -297.293 155.244 -283.25 164.25 C-267.455 173.11 -250.517 175.587 -233.013 170.977 C-209.84 164.164 -192.446 148.765 -181.007 127.854 C-180.675 127.242 -180.342 126.63 -180 126 C-179.384 124.89 -178.768 123.78 -178.133 122.637 C-174.008 114.836 -171.038 106.868 -168.308 98.488 C-168.035 97.66 -167.762 96.833 -167.48 95.98 C-167.242 95.237 -167.004 94.493 -166.759 93.727 C-166 92 -166 92 -164 91 C-163.85 91.558 -163.699 92.115 -163.544 92.69 C-154.515 125.91 -140.431 159.665 -109.508 178.031 C-100 183.449 -90.78 187.031 -80 189 C-79.04 189.184 -78.079 189.369 -77.09 189.559 C-57.738 192.323 -37.818 187.537 -21.852 176.289 C-4.012 161.969 3.565 141.086 6 119 C9.422 82.441 3.855 45.527 -11.118 12.026 C-12.128 9.705 -13.06 7.35 -14 5 C-7.07 2.525 -7.07 2.525 0 0 Z " fill="#FEFEFE" transform="translate(668,528)"/>
<path d="M0 0 C2.793 2.766 5.541 5.562 8.242 8.418 C25.644 26.611 46.571 39.703 72.438 40.375 C89.19 39.975 105.404 35.434 118 24 C119.799 21.734 121.33 19.481 122.781 16.98 C123.996 15.006 125.301 13.566 127 12 C127.99 12.437 127.99 12.437 129 12.883 C173.332 31.239 224.552 30.683 271.606 27.712 C284.14 26.921 284.14 26.921 290.34 26.742 C291.579 26.701 291.579 26.701 292.844 26.66 C296.367 27.216 297.983 29.447 300.219 32.062 C309.665 42.338 326.647 46.178 340 47 C356.076 47.139 372.724 43.385 386.77 35.432 C390.311 33.862 392.457 33.7 396.297 33.848 C397.494 33.878 398.692 33.909 399.925 33.941 C401.819 34.001 401.819 34.001 403.75 34.062 C429.198 34.444 451.748 27.902 470.762 10.223 C473.715 7.29 476.384 4.236 479 1 C479.33 1.66 479.66 2.32 480 3 C482.363 3.326 482.363 3.326 485.375 3.375 C539.74 6.544 539.74 6.544 555 21 C555 23.188 555 23.188 554 26 C549.103 30.042 543.589 32.089 537.5 33.562 C536.26 33.871 536.26 33.871 534.996 34.186 C477.553 47.992 415.895 48.916 357.122 50.893 C354.939 50.968 352.756 51.047 350.574 51.128 C322.332 52.176 294.09 52.198 265.832 52.189 C261.898 52.187 257.964 52.188 254.03 52.189 C216.49 52.187 179.011 51.834 141.502 50.264 C135.794 50.026 130.086 49.832 124.376 49.643 C111.504 49.213 98.658 48.575 85.804 47.757 C80.438 47.415 75.07 47.086 69.703 46.758 C68.092 46.659 68.092 46.659 66.449 46.559 C56.974 45.985 47.496 45.507 38.014 45.057 C-68.087 39.996 -68.087 39.996 -84.324 25.996 C-86 24 -86 24 -86.25 21.562 C-83.777 16.494 -79.017 14.71 -73.883 12.902 C-70.275 11.827 -66.659 10.885 -63 10 C-61.949 9.745 -60.899 9.49 -59.816 9.227 C-40.637 5.025 -19.625 1.688 0 2 C0 1.34 0 0.68 0 0 Z " fill="#AFAFAE" transform="translate(268,845)"/>
<path d="M0 0 C10.72 3.982 19.138 11.614 27.336 19.352 C28.002 19.954 28.669 20.556 29.355 21.176 C43.732 34.674 60.108 57.507 61.574 77.621 C61.752 86.11 61.464 91.922 55.57 98.246 C51.297 102.242 46.762 105.175 41.336 107.352 C40.488 107.707 39.64 108.063 38.766 108.43 C29.487 110.924 16.034 111.392 7.273 107.164 C3.83 104.945 0.94 102.534 -1.664 99.352 C-2.349 98.518 -2.349 98.518 -3.047 97.668 C-8.126 90.847 -10.756 82.972 -13.661 75.066 C-14.756 72.103 -15.878 69.151 -17.004 66.199 C-17.808 64.083 -18.611 61.968 -19.414 59.852 C-19.791 58.861 -20.168 57.871 -20.556 56.851 C-25.772 42.978 -31.116 27.106 -26.758 12.266 C-21.336 0.691 -12.403 -3.019 0 0 Z " fill="#2D3646" transform="translate(564.6640625,354.6484375)"/>
<path d="M0 0 C3.321 2.522 5.814 5.535 7.688 9.281 C9.946 29.269 -1.16 44.043 -13.03 58.987 C-14.451 60.757 -15.88 62.52 -17.312 64.281 C-17.781 64.861 -18.25 65.441 -18.733 66.039 C-35.993 87.299 -35.993 87.299 -47.906 88.555 C-59.801 88.989 -68.426 85.107 -77.312 77.281 C-79.594 74.763 -81.558 72.19 -83.312 69.281 C-83.682 68.69 -84.052 68.098 -84.434 67.488 C-86.83 61.472 -86.329 53.293 -84.285 47.238 C-72.716 25.03 -49.396 8.062 -26.312 -0.719 C-17.636 -3.358 -8.167 -4.764 0 0 Z " fill="#2E3746" transform="translate(474.3125,339.71875)"/>
<path d="M0 0 C3.721 3.129 6.112 6.553 7.438 11.25 C7.596 15.776 6.594 18.436 3.875 21.938 C0.544 25.508 -3.102 27.393 -7.562 29.25 C-8.367 29.663 -9.171 30.075 -10 30.5 C-13.835 31.622 -17.596 31.406 -21.562 31.25 C-23.072 39.64 -23.072 39.64 -20.688 47.438 C-16.746 49.724 -13.041 50.596 -8.562 51.25 C-8.18 52.906 -7.849 54.575 -7.562 56.25 C-9.083 57.77 -10.444 57.566 -12.562 57.688 C-18.241 57.642 -22.532 55.172 -26.562 51.25 C-27.312 49.047 -27.312 49.047 -27.562 47.25 C-28.223 47.25 -28.882 47.25 -29.562 47.25 C-29.562 47.91 -29.562 48.57 -29.562 49.25 C-34.786 52.549 -39.541 53.162 -45.562 52.25 C-48.688 50.5 -48.688 50.5 -50.562 48.25 C-50.562 46.93 -50.562 45.61 -50.562 44.25 C-49.738 44.415 -48.913 44.58 -48.062 44.75 C-43.97 45.335 -40.699 45.644 -36.562 45.25 C-32.873 42.443 -30.792 39.722 -29.562 35.25 C-29.161 32.763 -29.161 32.763 -29.562 30.25 C-31.321 28.622 -31.321 28.622 -33.688 27.438 C-39.785 23.712 -44.702 18.319 -46.562 11.25 C-47.043 7.482 -46.743 5.618 -45.062 2.188 C-33.811 -11.033 -13.478 -9.135 0 0 Z " fill="#323B4C" transform="translate(515.5625,402.75)"/>
<path d="M0 0 C5.216 2.183 7.911 4.366 11 9 C11.87 12.336 11.57 13.993 9.879 16.98 C4.224 24.497 -3.806 27.201 -12.859 28.594 C-21.263 29.336 -28.945 29.814 -36.062 24.875 C-38.7 20.961 -38.148 18.658 -38 14 C-36.476 13.979 -36.476 13.979 -34.922 13.957 C-22.246 13.591 -11.078 10.706 -1.625 1.75 C-1.089 1.173 -0.553 0.595 0 0 Z " fill="#FBB191" transform="translate(622,450)"/>
<path d="M0 0 C0.33 0 0.66 0 1 0 C1.003 0.75 1.005 1.5 1.008 2.273 C1.349 11.297 3.521 17.694 10.117 24.035 C15.922 28.765 22.432 33.054 30 34 C29.01 34.495 29.01 34.495 28 35 C28.124 35.722 28.248 36.444 28.375 37.188 C28 40 28 40 25.562 42.875 C22.88 44.866 21.072 45.316 17.75 45.062 C9.354 43.553 1.957 39.825 -5 35 C-5.908 34.381 -6.815 33.762 -7.75 33.125 C-11.738 29.358 -13.777 25.848 -14.438 20.375 C-13.953 16.638 -13.457 14.854 -11 12 C-6.99 9.886 -4.556 9 0 9 C0 6.03 0 3.06 0 0 Z " fill="#FCB293" transform="translate(388,393)"/>
<path d="M0 0 C2.296 6.888 -1.81 15 -4.891 21.191 C-6.002 23.32 -7.122 25.443 -8.25 27.562 C-13.709 38.16 -18.371 48.649 -22 60 C-22.237 60.715 -22.473 61.429 -22.717 62.166 C-26.971 75.192 -28.61 88.403 -30 102 C-30.33 102 -30.66 102 -31 102 C-32.609 64.72 -20.254 31.003 0 0 Z " fill="#FCFCFC" transform="translate(395,535)"/>
<path d="M0 0 C4.051 1.827 5.746 3.74 8.188 7.438 C9.25 10.938 9.25 10.938 9.188 14.438 C6.251 19.906 6.251 19.906 3.188 21.438 C-3.528 22.234 -3.528 22.234 -6.859 20.168 C-10.552 17.032 -12.528 15.08 -13.375 10.188 C-12.732 5.899 -12.246 5.539 -8.938 3.062 C-3.364 -0.673 -3.364 -0.673 0 0 Z " fill="#ED9F81" transform="translate(308.8125,747.5625)"/>
<path d="M0 0 C2.573 2.173 4.49 3.98 6 7 C6.27 10.575 6.223 13.344 5.062 16.75 C1.975 20.119 -1.542 21.247 -6 22 C-9.165 21.381 -10.445 20.498 -12.812 18.375 C-14.557 14.886 -14.885 11.75 -14 8 C-10.409 2.268 -6.992 -0.823 0 0 Z " fill="#EC9F81" transform="translate(644,753)"/>
<path d="M0 0 C0.749 -0.005 1.498 -0.01 2.27 -0.016 C4.188 0.25 4.188 0.25 6.188 2.25 C6.375 4.625 6.375 4.625 5.188 7.25 C2.394 9.08 -0.686 10.11 -3.812 11.25 C-4.956 11.699 -6.099 12.147 -7.277 12.609 C-18.287 16.792 -18.287 16.792 -24.812 16.25 C-26.812 14.25 -26.812 14.25 -26.852 11.855 C-25.358 8.11 -22.677 7.135 -19.188 5.562 C-18.583 5.268 -17.978 4.973 -17.355 4.67 C-11.824 2.046 -6.198 -0.043 0 0 Z " fill="#353E51" transform="translate(476.8125,310.75)"/>
<path d="M0 0 C5.203 0.757 7.794 3.891 11.438 7.5 C12.085 8.11 12.732 8.719 13.398 9.348 C19.716 15.412 19.716 15.412 21.438 19.5 C21.038 23.9 21.038 23.9 19.438 25.5 C17.188 25.875 17.188 25.875 14.438 25.5 C12.725 23.881 11.066 22.204 9.438 20.5 C8.417 19.538 7.391 18.583 6.359 17.633 C5.302 16.63 4.245 15.628 3.188 14.625 C2.375 13.888 2.375 13.888 1.547 13.137 C-2.213 9.518 -3.429 6.918 -3.562 1.5 C-2.562 0.5 -2.562 0.5 0 0 Z " fill="#333C4F" transform="translate(562.5625,329.5)"/>
<path d="M0 0 C2.562 3.202 3.208 7.97 3 12 C0.926 15.481 -0.145 16.715 -4 18 C-7.815 18.347 -10.133 18.534 -13.438 16.5 C-15.209 13.666 -15.744 11.387 -15.594 8.035 C-14.466 4.169 -11.315 2.051 -8 0 C-4.664 -1.112 -3.294 -1.098 0 0 Z " fill="#E89F81" transform="translate(670,774)"/>
<path d="M0 0 C0.495 0.99 0.495 0.99 1 2 C-7.619 22.911 -26.392 40.194 -46.125 50.312 C-47.111 50.82 -47.111 50.82 -48.117 51.337 C-54.526 54.498 -60.759 56.362 -68 56 C-65.438 53.438 -63.2 52.981 -59.75 51.875 C-48.312 47.989 -38.198 41.823 -29 34 C-28.245 33.366 -27.489 32.732 -26.711 32.078 C-22.829 28.969 -22.829 28.969 -20 25 C-19.34 25 -18.68 25 -18 25 C-17.669 24.221 -17.669 24.221 -17.332 23.426 C-15.477 20.048 -13.1 17.183 -10.688 14.188 C-6.973 9.553 -3.416 4.86 0 0 Z " fill="#FBFBFC" transform="translate(692,827)"/>
<path d="M0 0 C3.008 2.719 5.152 5.997 7.438 9.312 C22.026 30.04 39.397 46.208 63 56 C58.195 57.798 54.811 55.613 50.355 53.648 C40.956 49.031 31.583 43.292 24 36 C24 35.34 24 34.68 24 34 C23.34 34 22.68 34 22 34 C0 10.402 0 10.402 0 0 Z " fill="#FBFBFC" transform="translate(262,818)"/>
<path d="M0 0 C4.805 1.574 6.94 3.996 9.625 8.188 C10.812 10.812 10.812 10.812 10.625 13.188 C8.562 16.062 8.562 16.062 5.625 18.188 C1.475 18.458 -1.021 16.978 -4.25 14.562 C-6.958 12.065 -7.341 11.366 -8.062 7.562 C-7.375 4.188 -7.375 4.188 -5.812 1.688 C-3.375 0.188 -3.375 0.188 0 0 Z " fill="#E59C7D" transform="translate(279.375,768.8125)"/>
<path d="M0 0 C19.293 -0.86 37.467 2.329 52.5 15.5 C54.019 16.981 55.52 18.48 57 20 C57.665 20.633 58.33 21.266 59.016 21.918 C60.629 23.564 61.938 24.954 63 27 C62.375 30.438 62.375 30.438 61 33 C57.263 28.401 57.263 28.401 55.82 26.203 C47.778 14.307 34.218 6.793 20.449 3.625 C13.678 2.398 6.844 1.689 0 1 C0 0.67 0 0.34 0 0 Z " fill="#6D737C" transform="translate(684,731)"/>
<path d="M0 0 C2.406 2.24 2.943 3.703 3.562 6.938 C3 10 3 10 0.375 12.875 C-3.28 15.177 -4.791 15.824 -9 15 C-11.375 13.438 -11.375 13.438 -13 11 C-13.562 7.5 -13.562 7.5 -13 4 C-9.021 -0.086 -5.545 -1.802 0 0 Z " fill="#E59D81" transform="translate(687,802)"/>
<path d="M0 0 C2.505 1.666 4.339 3.491 6 6 C6.625 9.188 6.625 9.188 6 12 C3.722 14.733 2.147 14.978 -1.375 15.5 C-6.263 14.826 -7.725 13.674 -11 10 C-11.688 6.938 -11.688 6.938 -11 4 C-7.663 0.271 -4.946 -1.009 0 0 Z " fill="#E59C7F" transform="translate(269,793)"/>
<path d="M0 0 C3.728 4.07 5.201 7.819 6.688 13 C6.9 13.699 7.112 14.397 7.33 15.117 C11.664 29.61 10.551 43.479 7 58 C6.67 58 6.34 58 6 58 C6.021 57.145 6.042 56.289 6.063 55.408 C6.784 32.868 6.784 32.868 2 11 C1.52 9.577 1.52 9.577 1.031 8.125 C0.753 7.3 0.474 6.475 0.188 5.625 C-1 2 -1 2 0 0 Z " fill="#F6F7F7" transform="translate(746,760)"/>
<path d="M0 0 C4.072 2.201 6.525 4.575 9.25 8.312 C6.437 7.4 3.666 6.499 0.965 5.289 C-7.172 1.828 -14.996 1.286 -23.75 2.312 C-27.028 3.75 -27.028 3.75 -29.75 5.312 C-30.41 5.312 -31.07 5.312 -31.75 5.312 C-30.617 1.787 -28.518 -0.211 -25.254 -1.914 C-16.885 -4.499 -7.838 -3.722 0 0 Z " fill="#EAEBED" transform="translate(506.75,405.6875)"/>
<path d="M0 0 C5.251 0.92 8.272 4.416 12 8 C12.708 8.67 13.415 9.341 14.145 10.031 C16.018 11.953 17.632 13.689 19 16 C18.438 19.5 18.438 19.5 17 22 C15.16 19.736 13.338 17.474 11.645 15.098 C8.588 10.828 5.518 7.495 1.32 4.324 C0 3 0 3 0 0 Z " fill="#8C8E95" transform="translate(728,742)"/>
<path d="M0 0 C3.125 -0.058 6.25 -0.094 9.375 -0.125 C10.264 -0.142 11.154 -0.159 12.07 -0.176 C12.921 -0.182 13.772 -0.189 14.648 -0.195 C15.827 -0.211 15.827 -0.211 17.029 -0.227 C19 0 19 0 21 2 C12.09 2.99 12.09 2.99 3 4 C3 3.01 3 2.02 3 1 C2.01 0.67 1.02 0.34 0 0 Z " fill="#6F757F" transform="translate(693,241)"/>
<path d="M0 0 C4.833 2.105 8.265 5.511 11 10 C10.438 13.5 10.438 13.5 9 16 C4.984 11.608 4.984 11.608 5.062 8.562 C4.965 4.564 2.673 2.874 0 0 Z " fill="#9A9CA4" transform="translate(736,748)"/>
<path d="M0 0 C0.33 0 0.66 0 1 0 C1.647 8.014 2.167 15.958 2 24 C-1.441 20.559 -0.87 15.69 -1 11 C-0.809 7.312 -0.461 3.663 0 0 Z " fill="#9195A0" transform="translate(365,628)"/>
<path d="M0 0 C0.33 0 0.66 0 1 0 C2.538 6.919 1.435 11.774 -2 18 C-2.66 18.33 -3.32 18.66 -4 19 C-3.19 14.886 -2.319 10.787 -1.438 6.688 C-1.033 4.806 -1.033 4.806 -0.621 2.887 C-0.416 1.934 -0.211 0.981 0 0 Z " fill="#737883" transform="translate(751,812)"/>
<path d="M0 0 C0.66 0.33 1.32 0.66 2 1 C1.493 1.688 1.493 1.688 0.977 2.391 C-2.363 6.982 -2.363 6.982 -5 12 C-5.66 12 -6.32 12 -7 12 C-6.676 6.648 -3.503 3.717 0 0 Z " fill="#757982" transform="translate(277,745)"/>
<path d="M0 0 C-5.28 0 -10.56 0 -16 0 C-9.966 -4.023 -6.194 -3.097 0 0 Z " fill="#A9A9AE" transform="translate(630,884)"/>
<path d="M0 0 C1.477 0.306 1.477 0.306 2.984 0.617 C4.106 0.869 4.106 0.869 5.25 1.125 C4.92 1.785 4.59 2.445 4.25 3.125 C-0.37 2.465 -4.99 1.805 -9.75 1.125 C-5.375 -1.062 -4.543 -0.974 0 0 Z " fill="#6F747D" transform="translate(334.75,875.875)"/>
<path d="M0 0 C1.438 0.115 2.876 0.242 4.312 0.375 C5.513 0.479 5.513 0.479 6.738 0.586 C9 1 9 1 12 3 C11.34 3.66 10.68 4.32 10 5 C5.05 3.02 5.05 3.02 0 1 C0 0.67 0 0.34 0 0 Z " fill="#6E737C" transform="translate(705,733)"/>
<path d="M0 0 C0.99 0.33 1.98 0.66 3 1 C2.34 2.98 1.68 4.96 1 7 C0.34 6.34 -0.32 5.68 -1 5 C-0.625 2.375 -0.625 2.375 0 0 Z " fill="#A6A8AE" transform="translate(744,757)"/>
<path d="M0 0 C2.867 0.573 3.861 0.861 6 3 C4.02 3.99 4.02 3.99 2 5 C0 1.125 0 1.125 0 0 Z " fill="#84888F" transform="translate(728,742)"/>
</svg>