<svg version="1.1" xmlns="http://www.w3.org/2000/svg" width="1024" height="1024">
<path d="M0 0 C337.92 0 675.84 0 1024 0 C1024 337.92 1024 675.84 1024 1024 C686.08 1024 348.16 1024 0 1024 C0 686.08 0 348.16 0 0 Z " fill="#FEFEFE" transform="translate(0,0)"/>
<path d="M0 0 C4.891 2.878 9.322 6.699 12.887 11.121 C12.887 11.781 12.887 12.441 12.887 13.121 C13.596 12.45 13.596 12.45 14.32 11.766 C19.963 6.607 26.112 1.057 34.074 0.496 C38.943 1.294 40.482 2.634 43.887 6.121 C45.402 9.151 45.057 11.772 44.887 15.121 C44.263 16.804 43.603 18.475 42.887 20.121 C44.379 20.051 44.379 20.051 45.902 19.98 C68.05 19.279 90.122 25.376 109.887 35.121 C111.283 35.774 112.682 36.424 114.082 37.07 C122.18 40.813 130.131 44.699 137.887 49.121 C138.446 48.564 139.006 48.007 139.582 47.434 C156.486 31.344 175.918 26.293 198.953 26.809 C205.965 27.133 212.259 28.792 218.887 31.121 C219.519 31.341 220.152 31.56 220.804 31.787 C244.572 40.18 260.435 56.084 271.325 78.425 C278.686 94.123 281.555 115.975 275.852 132.664 C275.533 133.475 275.215 134.286 274.887 135.121 C274.558 136.066 274.229 137.011 273.891 137.984 C266.738 157.066 253.303 169.507 235.887 179.121 C236.531 185.277 238.256 190.865 240.137 196.746 C243.332 206.962 245.927 217.227 248.29 227.662 C248.928 230.293 249.673 232.88 250.426 235.48 C252.038 241.307 252.825 247.124 253.512 253.121 C253.751 255.142 253.993 257.163 254.238 259.184 C254.34 260.061 254.441 260.939 254.545 261.844 C254.843 264.278 254.843 264.278 255.887 267.121 C258.598 294.336 259.661 324.888 250.887 351.121 C250.638 351.871 250.388 352.622 250.132 353.395 C239.647 384.436 220.109 410.113 192.125 427.395 C191.386 427.964 190.648 428.534 189.887 429.121 C189.887 432.569 190.754 434.504 192.074 437.684 C194.239 443.177 196.007 448.679 197.574 454.371 C197.776 455.103 197.978 455.834 198.186 456.588 C200.273 464.312 202.005 471.978 202.949 479.934 C203.04 480.65 203.13 481.367 203.223 482.105 C203.696 486.157 203.921 490.096 203.848 494.176 C203.716 506.545 206.092 512.516 214.471 521.506 C220.603 528.5 229.887 541.709 229.887 551.121 C230.49 550.844 231.093 550.567 231.715 550.281 C232.514 549.919 233.313 549.557 234.137 549.184 C234.926 548.824 235.715 548.464 236.527 548.094 C242.907 545.464 250.776 544.523 257.309 547.062 C261.287 549.448 264.34 552.195 266.887 556.121 C266.887 556.781 266.887 557.441 266.887 558.121 C267.428 557.961 267.97 557.801 268.527 557.637 C277.107 555.762 285.365 556.685 292.789 561.305 C297.979 565.178 300.111 569.988 301.887 576.121 C301.887 576.781 301.887 577.441 301.887 578.121 C303.557 577.966 303.557 577.966 305.262 577.809 C311.867 577.809 317.665 580.956 322.324 585.496 C326.26 592.109 328.022 597.378 326.887 605.121 C325.963 607.55 324.874 609.832 323.73 612.164 C322.722 614.168 322.722 614.168 322.824 616.746 C324.114 619.629 325.795 621.986 327.73 624.473 C331.241 629.478 330.362 636.319 329.887 642.121 C327.85 649.932 321.538 655.971 314.77 659.957 C306.617 664.121 306.617 664.121 303.887 664.121 C303.641 664.992 303.394 665.864 303.141 666.762 C301.803 670.344 300.134 672.837 297.824 675.871 C295.123 679.352 295.123 679.352 292.887 683.121 C294.124 683.492 295.362 683.864 296.637 684.246 C305.087 687.076 316.14 691.025 321.039 698.996 C322.003 701.412 322.073 702.918 321.824 705.496 C321.771 706.226 321.719 706.955 321.664 707.707 C320.087 712.604 316.8 715.809 312.426 718.281 C311.13 718.934 309.825 719.567 308.512 720.184 C307.803 720.523 307.095 720.862 306.365 721.212 C292.309 727.789 277.92 730.741 262.738 733.514 C259.779 734.106 259.779 734.106 256.509 735.112 C252.775 736.152 249.133 736.802 245.301 737.375 C244.6 737.481 243.898 737.587 243.176 737.696 C241.702 737.917 240.228 738.136 238.754 738.353 C236.524 738.682 234.295 739.017 232.066 739.354 C206.672 743.165 176.333 746.494 153.887 731.121 C149.004 727.015 145.722 721.792 142.887 716.121 C142.816 714.247 142.802 712.371 142.824 710.496 C142.838 708.992 142.838 708.992 142.852 707.457 C142.869 706.301 142.869 706.301 142.887 705.121 C140.928 705.43 138.97 705.743 137.012 706.059 C135.921 706.233 134.831 706.407 133.707 706.586 C130.949 706.977 130.949 706.977 128.887 708.121 C127.15 708.435 125.404 708.705 123.656 708.953 C122.558 709.11 121.461 709.267 120.33 709.428 C118.533 709.679 118.533 709.679 116.699 709.934 C115.46 710.107 114.221 710.281 112.944 710.46 C109.61 710.924 106.276 711.384 102.941 711.84 C100.899 712.119 98.858 712.401 96.817 712.683 C92.8 713.235 88.781 713.773 84.762 714.309 C83.545 714.475 82.327 714.642 81.073 714.814 C61.308 717.4 41.516 717.309 21.623 717.306 C18.48 717.306 15.337 717.313 12.194 717.327 C-13.198 717.435 -38.176 716.591 -63.298 712.517 C-65.802 712.111 -68.309 711.72 -70.816 711.332 C-72.449 711.075 -74.082 710.817 -75.715 710.559 C-76.445 710.444 -77.175 710.329 -77.928 710.211 C-82.734 709.428 -87.402 708.355 -92.113 707.121 C-92.152 708.156 -92.152 708.156 -92.191 709.211 C-92.723 718.019 -94.238 724.829 -100.926 730.934 C-118.6 744.976 -144.539 743.71 -165.969 741.772 C-173.543 740.903 -181.078 739.789 -188.614 738.638 C-192.876 738.008 -197.146 737.485 -201.423 736.97 C-212.478 735.628 -223.275 733.663 -234.113 731.121 C-234.956 730.928 -235.798 730.734 -236.666 730.535 C-272.489 722.249 -272.489 722.249 -281.113 710.121 C-282.546 707.255 -282.42 705.308 -282.113 702.121 C-278.008 693.554 -269.231 689.998 -260.988 686.309 C-260.32 686.006 -259.651 685.704 -258.962 685.393 C-254.651 683.535 -250.786 682.588 -246.113 682.121 C-246.512 681.541 -246.91 680.961 -247.32 680.363 C-247.85 679.582 -248.38 678.801 -248.926 677.996 C-249.448 677.23 -249.97 676.465 -250.508 675.676 C-252.113 673.121 -252.113 673.121 -253.418 670.039 C-255.567 666.34 -257.598 665.391 -261.426 663.559 C-269.695 659.346 -276.003 655.307 -279.113 646.121 C-280.245 638.226 -279.826 631.686 -275.5 624.891 C-274.113 623.121 -274.113 623.121 -272.398 621.668 C-270.863 620.175 -270.863 620.175 -271.223 617.93 C-271.434 617.147 -271.645 616.365 -271.863 615.559 C-272.165 614.381 -272.165 614.381 -272.473 613.18 C-273.063 611.087 -273.063 611.087 -274.113 609.121 C-274.826 601.935 -275.058 595.705 -270.594 589.766 C-265.257 583.837 -259.602 580.362 -251.613 579.934 C-250.788 579.995 -249.963 580.057 -249.113 580.121 C-249.072 579.131 -249.031 578.141 -248.988 577.121 C-248.112 571.269 -244.589 567.435 -240.383 563.504 C-234.372 559.256 -227.991 559.784 -220.941 560.305 C-216.664 560.534 -214.096 560.58 -210.781 557.684 C-209.901 556.838 -209.02 555.992 -208.113 555.121 C-201.642 552.54 -192.899 553.08 -186.527 555.461 C-183.647 556.915 -180.861 558.43 -178.113 560.121 C-178.037 558.817 -177.961 557.512 -177.883 556.168 C-177.293 550.887 -175.39 546.952 -172.801 542.371 C-172.41 541.643 -172.018 540.914 -171.615 540.164 C-169.929 537.082 -168.404 534.434 -165.997 531.843 C-163.529 528.276 -163.63 525.992 -163.645 521.68 C-163.633 520.204 -163.622 518.728 -163.61 517.252 C-163.612 516.486 -163.613 515.719 -163.614 514.929 C-163.61 501.755 -163.013 489.252 -159.7 476.444 C-159.06 473.912 -158.501 471.369 -157.949 468.816 C-155.774 458.925 -153.061 449.562 -149.25 440.176 C-147.939 437.196 -147.939 437.196 -148.113 434.121 C-149.057 433.636 -150 433.152 -150.973 432.652 C-163.26 426.268 -174.453 418.998 -185.113 410.121 C-185.75 409.608 -186.387 409.095 -187.043 408.566 C-202.729 395.669 -213.739 377.33 -220.363 358.371 C-220.598 357.718 -220.832 357.064 -221.073 356.391 C-226.09 341.152 -226.574 325.543 -226.449 309.652 C-226.426 306.427 -226.429 303.203 -226.436 299.979 C-226.421 288.831 -225.976 278.127 -224.113 267.121 C-223.906 265.777 -223.702 264.432 -223.5 263.087 C-222.841 258.738 -222.142 254.398 -221.426 250.059 C-221.299 249.288 -221.172 248.517 -221.041 247.723 C-217.682 227.541 -213.346 207.627 -207.113 188.121 C-208.507 187.685 -208.507 187.685 -209.928 187.241 C-223.485 182.475 -233.691 169.332 -240.113 157.121 C-249.722 134.967 -249.568 111.38 -240.926 88.934 C-230.35 65.694 -213.217 48.102 -189.547 38.022 C-178.385 33.891 -168.083 32.404 -156.176 32.559 C-155.129 32.564 -155.129 32.564 -154.06 32.57 C-143.372 32.655 -133.902 33.483 -124.113 38.121 C-122.559 38.842 -122.559 38.842 -120.973 39.578 C-115.898 42.149 -111.686 45.002 -107.746 49.117 C-106.101 50.363 -106.101 50.363 -103.81 49.836 C-101.013 49.094 -98.858 48.083 -96.332 46.68 C-95.418 46.182 -94.505 45.685 -93.564 45.172 C-92.59 44.64 -91.616 44.107 -90.613 43.559 C-79.736 37.759 -68.78 33.075 -57.113 29.121 C-55.795 28.668 -55.795 28.668 -54.45 28.206 C-33.151 20.992 -33.151 20.992 -25.113 23.121 C-22.649 24.95 -21.693 26.414 -20.113 29.121 C-25.238 31.477 -30.203 32.997 -35.676 34.309 C-78.088 45.054 -122.99 68.945 -151.113 103.121 C-153.923 102.014 -156.606 100.87 -159.301 99.496 C-164.339 97.356 -169.878 97.051 -175.098 98.777 C-181.01 101.812 -185.398 106.92 -187.988 112.996 C-190.109 119.639 -189.933 124.981 -186.926 131.309 C-185.287 134.369 -183.628 136.744 -181.176 139.184 C-179.113 142.121 -179.113 142.121 -179.715 146.047 C-181.203 151.922 -183.32 157.57 -185.426 163.246 C-186.243 165.491 -187.06 167.735 -187.875 169.98 C-188.265 171.05 -188.655 172.119 -189.056 173.221 C-189.405 174.178 -189.754 175.135 -190.113 176.121 C-190.507 177.201 -190.507 177.201 -190.909 178.303 C-195.194 190.182 -198.203 202.423 -201.249 214.666 C-202.043 217.838 -202.862 221.003 -203.684 224.168 C-210.727 252.028 -214.681 280.512 -214.676 309.246 C-214.68 310.578 -214.68 310.578 -214.684 311.937 C-214.68 323.345 -213.663 333.989 -211.113 345.121 C-210.932 345.945 -210.75 346.768 -210.563 347.617 C-203.358 378.419 -182.359 399.874 -156.287 416.27 C-134.269 429.565 -107.647 438.187 -82.582 443.545 C-80.712 443.981 -78.855 444.468 -77.004 444.979 C-63.769 448.557 -50.296 450.324 -36.738 452.246 C-31.937 452.927 -27.138 453.618 -22.34 454.316 C-20.692 454.545 -20.692 454.545 -19.01 454.777 C-18.001 454.924 -16.992 455.072 -15.952 455.223 C-15.063 455.349 -14.174 455.474 -13.258 455.604 C-11.113 456.121 -11.113 456.121 -9.113 458.121 C-13.792 459.961 -17.948 460.391 -22.918 460.316 C-23.642 460.314 -24.366 460.311 -25.112 460.308 C-27.404 460.297 -29.696 460.272 -31.988 460.246 C-33.551 460.236 -35.113 460.227 -36.676 460.219 C-40.488 460.197 -44.301 460.162 -48.113 460.121 C-39.912 473.131 -31.105 485.307 -21.34 497.18 C-17.897 501.368 -14.545 505.623 -11.214 509.9 C-8.858 512.92 -6.476 515.912 -4.043 518.871 C5.01 529.914 12.2 541.481 18.887 554.121 C19.547 554.121 20.207 554.121 20.887 554.121 C21.218 553.513 21.549 552.906 21.89 552.28 C31.749 534.269 42.882 518.062 55.239 501.713 C61.755 493.051 67.859 484.128 73.887 475.121 C74.645 473.99 74.645 473.99 75.418 472.837 C78.252 468.606 81.073 464.366 83.887 460.121 C82.893 460.132 81.9 460.142 80.877 460.153 C77.166 460.189 73.456 460.212 69.745 460.231 C68.144 460.241 66.542 460.255 64.941 460.272 C62.63 460.296 60.319 460.308 58.008 460.316 C56.946 460.332 56.946 460.332 55.864 460.348 C51.128 460.349 47.334 459.589 42.887 458.121 C43.217 457.461 43.547 456.801 43.887 456.121 C46.553 455.607 49.148 455.22 51.84 454.902 C52.651 454.799 53.462 454.696 54.298 454.589 C56.91 454.258 59.523 453.939 62.137 453.621 C65.538 453.197 68.939 452.768 72.34 452.34 C73.165 452.237 73.99 452.133 74.84 452.027 C87.917 450.442 87.917 450.442 100.777 447.676 C103.384 446.99 106.008 446.402 108.637 445.809 C126.488 441.699 144.045 437.459 160.887 430.121 C162.146 429.6 163.407 429.08 164.668 428.562 C197.001 415.114 222.159 392.631 235.746 360.061 C250.449 323.192 246.816 280.124 238.887 242.121 C238.697 241.189 238.507 240.256 238.312 239.295 C235.642 226.19 232.453 213.323 228.604 200.513 C228.111 198.87 227.625 197.224 227.146 195.577 C225.827 191.079 224.403 186.674 222.717 182.301 C221.719 179.68 220.777 177.041 219.836 174.398 C219.47 173.372 219.103 172.345 218.726 171.288 C217.945 169.098 217.165 166.908 216.385 164.718 C214.647 159.868 212.897 155.041 210.895 150.293 C210.605 149.606 210.315 148.919 210.017 148.211 C209.255 146.439 208.472 144.676 207.688 142.914 C206.887 140.121 206.887 140.121 207.742 137.734 C208.309 136.936 208.309 136.936 208.887 136.121 C209.547 136.121 210.207 136.121 210.887 136.121 C211.258 135.317 211.258 135.317 211.637 134.496 C212.887 132.121 212.887 132.121 214.887 129.184 C218.774 123.231 219.891 118.189 218.887 111.121 C216.801 105.174 213.856 100.096 208.887 96.121 C203.613 93.639 198.627 93.156 192.887 94.121 C190.508 95.481 188.641 96.943 186.641 98.809 C184.887 100.121 184.887 100.121 180.887 100.121 C178.527 98.223 178.527 98.223 176.137 95.746 C175.337 94.934 174.538 94.122 173.715 93.285 C171.887 91.121 171.887 91.121 171.887 89.121 C171.314 88.871 170.742 88.621 170.152 88.363 C167.566 86.945 165.771 85.283 163.637 83.246 C139.537 61.286 109.846 45.079 78.887 35.121 C78.233 34.909 77.578 34.696 76.904 34.478 C67.074 31.393 57.38 30.439 47.134 29.891 C35.98 29.215 35.98 29.215 31.887 25.121 C32.332 19.664 33.842 15.189 35.887 10.121 C29.068 9.973 25.917 13.322 21.121 17.895 C18.935 19.99 18.935 19.99 17.402 21.973 C15.887 23.121 15.887 23.121 13.48 23.145 C9.961 21.756 8.635 19.762 6.387 16.746 C1.727 10.519 1.727 10.519 -5.316 7.793 C-9.02 7.586 -9.02 7.586 -12.113 9.121 C-12.701 11.866 -12.701 11.866 -12.113 15.121 C-10.645 17.056 -9.075 18.723 -7.328 20.41 C-6.113 22.121 -6.113 22.121 -6.43 24.332 C-6.655 24.922 -6.881 25.513 -7.113 26.121 C-10.784 26.463 -12.635 26.422 -15.801 24.434 C-19.473 20.762 -20.939 18.471 -21.613 13.246 C-21.424 8.488 -19.335 5.494 -16.113 2.121 C-11.507 -1.846 -5.564 -2.314 0 0 Z " fill="#131313" transform="translate(491.11328125,137.87890625)"/>
<path d="M0 0 C1.083 0.507 2.166 1.013 3.281 1.535 C16.612 8.25 28.131 17.877 39 28 C40.371 29.192 41.746 30.38 43.125 31.562 C64.614 50.381 88.764 81.344 91.251 110.998 C92.052 128.315 92.27 143.808 80.688 157.625 C69.479 168.778 55.991 174.257 40.286 174.249 C26.426 174.047 12.405 172.489 0 166 C-0.917 165.558 -1.833 165.116 -2.777 164.66 C-9.973 161.017 -15.977 156.333 -22 151 C-22.625 150.459 -23.25 149.917 -23.895 149.359 C-34.13 139.867 -40.625 127.675 -46 115 C-46.525 113.819 -47.049 112.638 -47.59 111.422 C-48.858 108.344 -49.822 105.412 -50.625 102.188 C-50.865 101.253 -51.105 100.318 -51.352 99.355 C-52.906 91.313 -53.175 83.214 -53.238 75.043 C-53.246 74.019 -53.254 72.996 -53.263 71.941 C-53.276 69.782 -53.287 67.623 -53.295 65.464 C-53.307 63.299 -53.327 61.135 -53.357 58.97 C-53.626 39.317 -53.809 16.76 -40.273 0.988 C-28.221 -10.376 -13.439 -6.392 0 0 Z " fill="#030303" transform="translate(574,300)"/>
<path d="M0 0 C2.112 1.495 3.825 3.051 5.594 4.938 C6.423 5.808 6.423 5.808 7.27 6.695 C14.897 15.742 16.308 27.394 17.389 38.786 C17.533 40.297 17.69 41.807 17.857 43.315 C18.715 51.555 18.836 59.787 18.844 68.062 C18.845 68.804 18.846 69.546 18.847 70.31 C18.818 101.824 14.154 132.316 -8.781 155.688 C-24.942 171.518 -44.28 175.461 -66.258 175.433 C-80.969 175.146 -90.407 170.87 -100.918 160.621 C-104.641 156.606 -107.624 153.083 -109.594 147.938 C-109.917 147.113 -110.241 146.288 -110.574 145.438 C-118.083 122.877 -108.649 96.374 -98.633 76.137 C-95.126 69.346 -90.883 63.118 -86.406 56.938 C-85.822 56.11 -85.822 56.11 -85.227 55.266 C-71.252 35.611 -29.386 -12.976 0 0 Z " fill="#030303" transform="translate(450.40625,301.0625)"/>
<path d="M0 0 C4.508 3.151 6.842 6.51 9.5 11.188 C9.886 11.854 10.272 12.52 10.669 13.206 C11.434 14.53 12.195 15.856 12.952 17.184 C13.858 18.755 14.806 20.302 15.762 21.844 C16.467 23.004 16.467 23.004 17.188 24.188 C17.594 24.841 18 25.495 18.418 26.168 C19 28 19 28 18.531 29.875 C16.24 33.055 13.329 35.337 10.312 37.812 C9.032 38.889 7.754 39.967 6.477 41.047 C5.868 41.561 5.26 42.074 4.634 42.604 C-2.075 48.338 -7.615 55.033 -13 62 C-13.477 62.617 -13.954 63.234 -14.446 63.87 C-32.565 87.569 -47.515 114.005 -55 143 C-55.583 145 -56.166 147 -56.75 149 C-57.861 153.049 -58.409 156.932 -58.594 161.125 C-59.145 163.668 -59.949 164.392 -62 166 C-64.825 166.752 -64.825 166.752 -68.258 167.281 C-70.145 167.582 -70.145 167.582 -72.069 167.89 C-73.421 168.093 -74.773 168.297 -76.125 168.5 C-77.498 168.715 -78.871 168.932 -80.243 169.149 C-82.284 169.473 -84.325 169.795 -86.367 170.113 C-91.51 170.912 -96.631 171.805 -101.75 172.75 C-106.901 173.677 -111.994 174.413 -117.215 174.789 C-119.102 174.91 -119.102 174.91 -121 176 C-141.613 179.809 -162.879 179.282 -183.75 179.25 C-184.431 179.25 -185.111 179.249 -185.813 179.249 C-190.432 179.245 -195.052 179.228 -199.672 179.203 C-200.851 179.199 -202.031 179.194 -203.246 179.19 C-220.878 179.041 -220.878 179.041 -227 177 C-229.482 176.842 -231.954 176.723 -234.438 176.625 C-244.418 176.119 -254.147 174.608 -264 173 C-266.721 172.563 -269.443 172.127 -272.164 171.691 C-279.778 170.471 -287.389 169.238 -295 168 C-295.09 167.428 -295.18 166.856 -295.272 166.266 C-298.423 146.609 -303.581 129.531 -313 112 C-313.654 110.763 -314.308 109.526 -314.961 108.289 C-317.535 103.456 -320.152 98.678 -323 94 C-319.632 95.531 -316.878 97.515 -313.938 99.75 C-303.291 107.582 -292.396 112.671 -279.562 115.562 C-276.876 116.182 -274.19 116.802 -271.505 117.429 C-269.894 117.796 -268.279 118.144 -266.659 118.468 C-261.434 119.577 -261.434 119.577 -259.258 121.699 C-258.697 122.683 -258.697 122.683 -258.125 123.688 C-254.312 129.444 -248.566 133.811 -242 136 C-234.893 136.7 -228.836 136.405 -223 132 C-218.528 127.184 -218.249 122.299 -218 116 C-217.381 116.33 -216.762 116.66 -216.125 117 C-211.126 118.6 -205.812 119.267 -200.902 117.055 C-197.213 114.564 -195.004 112.025 -193 108 C-191.834 100.02 -193.501 92.556 -196 85 C-195.42 84.879 -194.84 84.758 -194.242 84.633 C-190.592 83.85 -187.223 83.09 -183.75 81.688 C-182.842 81.461 -181.935 81.234 -181 81 C-179.333 82 -177.667 83 -176 84 C-172.346 84.569 -168.692 84.812 -165 85 C-165.321 86.002 -165.642 87.003 -165.973 88.035 C-167.903 94.833 -168.455 102.931 -166.055 109.645 C-163.781 113.498 -161.28 116.444 -157 118 C-150.891 118.807 -146.438 117.777 -141 115 C-140.986 115.797 -140.972 116.593 -140.957 117.414 C-140.814 124.436 -140.814 124.436 -137.812 130.562 C-132.601 135.079 -128.484 136.59 -121.652 136.344 C-113.31 135.263 -107.19 131.533 -102 125 C-101.434 123.98 -100.868 122.961 -100.285 121.91 C-97.397 118.233 -94.706 117.628 -90.312 116.812 C-88.865 116.497 -87.419 116.179 -85.973 115.859 C-85.282 115.713 -84.591 115.567 -83.879 115.416 C-80.138 114.588 -76.578 113.356 -73 112 C-72.069 111.653 -71.139 111.306 -70.18 110.949 C-58.362 106.31 -49.136 99.743 -40 91 C-39.095 90.19 -39.095 90.19 -38.172 89.363 C-14.202 67.129 -3.485 31.502 0 0 Z " fill="#FDFDFD" transform="translate(694,665)"/>
<path d="M0 0 C7.416 4.797 12.191 10.048 16 18 C16.413 18.82 16.825 19.64 17.25 20.484 C21.563 30.367 21.807 43.317 18.102 53.48 C13.785 63.353 9.148 71.82 2 80 C1.263 80.934 1.263 80.934 0.512 81.887 C-10.481 95.666 -30.074 106.817 -47.43 109.719 C-58.539 110.934 -67.026 109.979 -76 103 C-82.145 96.855 -85.167 89.706 -85.562 81 C-84.669 54.85 -69.292 28.828 -51 11 C-50.291 10.294 -49.582 9.587 -48.852 8.859 C-36.003 -3.202 -16.084 -9.505 0 0 Z " fill="#FDFDFD" transform="translate(754,752)"/>
<path d="M0 0 C13.415 -0.731 25.379 5.314 35.272 13.917 C50.874 27.973 61.229 44.759 68.812 64.18 C69.356 65.558 69.356 65.558 69.91 66.965 C73.157 76.735 74.071 90.41 69.875 99.992 C65.798 106.629 59.177 110.201 51.812 112.18 C40.004 113.628 29.719 111.836 18.812 107.18 C17.788 106.745 16.763 106.311 15.707 105.863 C-4.821 96.345 -21.812 80.294 -30.188 59.117 C-34.412 47.486 -35.715 32.137 -30.562 20.598 C-25.29 11.325 -18.945 5.592 -9.188 1.18 C-5.989 0.352 -3.251 0.267 0 0 Z " fill="#FDFDFD" transform="translate(292.1875,750.8203125)"/>
<path d="M0 0 C5.426 3.813 10.012 7.506 12 14 C12.994 20.441 11.831 25.739 8 31 C1.778 38.11 -6.31 42.537 -15 46 C-16.32 46 -17.64 46 -19 46 C-18.511 47.152 -18.511 47.152 -18.012 48.328 C-16.67 53.198 -16.747 57.726 -16.812 62.75 C-16.813 63.708 -16.814 64.666 -16.814 65.652 C-16.859 72.719 -16.859 72.719 -18 75 C-17.42 75.037 -16.84 75.075 -16.242 75.113 C-11.289 75.53 -7.134 76.003 -3 79 C-2.062 82.125 -2.062 82.125 -2 85 C-3 86 -3 86 -5.188 86.25 C-8 86 -8 86 -10.875 84.5 C-14.748 82.641 -16.739 82.35 -21 83 C-23.399 84.425 -25.589 85.972 -27.789 87.688 C-30.399 89.237 -32.016 89.251 -35 89 C-35.33 87.35 -35.66 85.7 -36 84 C-34.921 83.036 -33.837 82.079 -32.75 81.125 C-32.147 80.591 -31.543 80.058 -30.922 79.508 C-29 78 -29 78 -26.828 76.992 C-24.646 76.077 -24.646 76.077 -24 73 C-23.876 70.466 -23.81 67.972 -23.812 65.438 C-23.812 64.725 -23.811 64.013 -23.811 63.279 C-23.866 57.681 -24.541 52.419 -26 47 C-27.856 47.155 -27.856 47.155 -29.75 47.312 C-39.737 47.297 -50.565 41.368 -57.594 34.426 C-62.239 29.064 -63.598 24.894 -63.43 17.879 C-62.381 10.851 -57.855 6.351 -52.375 2.188 C-36.916 -7.646 -16.353 -8.399 0 0 Z " fill="#060606" transform="translate(522,451)"/>
<path d="M0 0 C8.875 8.875 7.303 31.093 7.322 42.965 C7.32 43.836 7.318 44.707 7.316 45.605 C7.313 48.233 7.336 50.86 7.361 53.488 C7.5 90.874 -4.416 126.894 -30.625 154.062 C-38.402 161.871 -49.192 170.185 -60 173 C-60.99 172.67 -61.98 172.34 -63 172 C-62.033 171.117 -61.066 170.234 -60.07 169.324 C-42.359 153.05 -27.935 136.028 -18 114 C-17.457 112.817 -16.915 111.633 -16.355 110.414 C-9.619 95.235 -5.728 80.299 -3 64 C-2.832 63.034 -2.663 62.068 -2.49 61.072 C-1.237 53.532 -0.67 46.21 -0.586 38.574 C-0.567 37.461 -0.547 36.347 -0.527 35.2 C-0.468 31.696 -0.421 28.192 -0.375 24.688 C-0.337 22.29 -0.298 19.892 -0.258 17.494 C-0.163 11.663 -0.077 5.832 0 0 Z " fill="#F5F5F5" transform="translate(676,596)"/>
<path d="M0 0 C0.33 0 0.66 0 1 0 C1.02 1.194 1.04 2.388 1.06 3.617 C1.137 8.119 1.226 12.619 1.317 17.12 C1.355 19.055 1.39 20.989 1.422 22.924 C1.668 37.768 2.711 52.074 5.875 66.625 C6.047 67.424 6.219 68.223 6.397 69.047 C8.798 79.912 12.111 90 17 100 C17.582 101.238 18.164 102.476 18.746 103.715 C25.459 117.793 33.856 130.149 44 142 C44.532 142.655 45.065 143.31 45.613 143.984 C51.731 151.438 59.365 157.185 67 163 C64 164 64 164 62.074 163.323 C61.357 162.949 60.641 162.576 59.902 162.191 C59.105 161.778 58.308 161.364 57.487 160.938 C56.646 160.484 55.804 160.03 54.938 159.562 C54.079 159.105 53.221 158.647 52.337 158.175 C45.984 154.708 40.386 150.849 35 146 C34.372 145.49 33.744 144.979 33.098 144.453 C17.249 131.552 7.094 113.035 0.25 94.125 C-0.032 93.36 -0.314 92.595 -0.604 91.806 C-5.391 77.984 -6.519 64.32 -6.375 49.812 C-6.371 49.007 -6.368 48.201 -6.364 47.371 C-6.277 31.034 -4.969 15.632 0 0 Z " fill="#F7F7F7" transform="translate(346,606)"/>
<path d="M0 0 C1.076 -0.003 2.151 -0.006 3.26 -0.01 C9.303 0.031 14.532 0.548 20.312 2.312 C21.165 2.561 22.017 2.81 22.895 3.066 C30.096 5.677 35.864 9.946 41.312 15.312 C41.312 15.972 41.312 16.632 41.312 17.312 C35.766 16.797 31.634 15.316 26.688 12.812 C12.351 5.644 -6.448 6.288 -21.57 11.121 C-30.629 14.583 -38.06 19.331 -45.688 25.312 C-46.473 25.918 -47.258 26.524 -48.066 27.148 C-62.02 38.651 -71.65 56.972 -73.493 74.884 C-73.811 78.862 -73.872 82.823 -73.875 86.812 C-73.887 87.603 -73.899 88.393 -73.912 89.207 C-73.943 101.77 -70.044 114.064 -61.824 123.691 C-60.688 125.312 -60.688 125.312 -60.688 128.312 C-73.895 115.667 -80.563 97.717 -81.062 79.688 C-80.976 60.525 -73.681 42.381 -60.688 28.312 C-59.904 27.46 -59.12 26.608 -58.312 25.73 C-50.52 17.609 -42.345 11.92 -32.25 7.062 C-31.571 6.733 -30.891 6.403 -30.191 6.064 C-20.225 1.451 -10.95 -0.166 0 0 Z " fill="#F1F2F2" transform="translate(334.6875,179.6875)"/>
<path d="M0 0 C1.169 0.402 2.338 0.804 3.543 1.219 C16.153 5.742 26.647 12.336 35 23 C35.485 23.516 35.969 24.031 36.469 24.562 C49.621 38.554 55.493 57.816 55.215 76.641 C55.015 82.378 53.856 87.574 52 93 C51.66 94.007 51.319 95.014 50.969 96.051 C47.403 105.531 42.054 112.848 34 119 C35.443 115.99 37.099 113.2 38.875 110.375 C49.129 93.344 50.561 73.719 46.102 54.527 C42.822 44.025 37.349 35.156 30 27 C29.447 26.366 28.894 25.732 28.324 25.078 C20.903 17.073 11.031 11.996 1 8 C0.062 7.606 -0.877 7.211 -1.844 6.805 C-16.931 1.244 -33.492 2.477 -48 9 C-52.336 11.063 -56.1 13.26 -59.812 16.312 C-62 18 -62 18 -66 18 C-62.887 10.404 -53.994 5.398 -46.801 2.098 C-31.689 -3.825 -15.465 -5.775 0 0 Z " fill="#EEEEEE" transform="translate(705,178)"/>
<path d="M0 0 C4.508 3.151 6.842 6.51 9.5 11.188 C10.079 12.187 10.079 12.187 10.669 13.206 C11.434 14.53 12.195 15.856 12.952 17.184 C13.858 18.755 14.806 20.302 15.762 21.844 C16.232 22.617 16.703 23.391 17.188 24.188 C17.594 24.841 18 25.495 18.418 26.168 C19 28 19 28 18.531 29.875 C16.24 33.055 13.329 35.337 10.312 37.812 C9.032 38.889 7.754 39.967 6.477 41.047 C5.868 41.561 5.26 42.074 4.634 42.604 C-5.821 51.54 -13.735 62.845 -21.659 73.982 C-22.46 75.106 -22.46 75.106 -23.277 76.254 C-23.754 76.928 -24.231 77.601 -24.722 78.295 C-26.839 81.119 -28.841 82.526 -32 84 C-30.579 80.839 -28.717 78.108 -26.725 75.281 C-11.062 52.86 -2.985 26.985 0 0 Z " fill="#F7F7F7" transform="translate(694,665)"/>
<path d="M0 0 C3.003 1.795 5.408 3.816 7 7 C7.527 13.204 7.78 18.802 4 24 C0.952 27.581 -1.875 30.519 -6.57 31.582 C-10.782 31.752 -13.327 31.393 -17 29.25 C-19.932 25.952 -20.865 24.174 -21.375 19.75 C-20.569 11.693 -16.512 6.632 -10.371 1.52 C-6.473 -0.979 -4.538 -0.967 0 0 Z " fill="#FAFAFA" transform="translate(737,700)"/>
<path d="M0 0 C3.649 2.129 5.409 4.143 7 8 C7.578 14.3 5.335 19.065 1.668 24.047 C-1.119 27.31 -3.667 29.513 -7.945 30.406 C-11.881 30.706 -14.322 30.153 -17.438 27.688 C-20.921 24.034 -21.365 21.179 -21.273 16.184 C-20.497 9.982 -16.9 4.886 -12.062 1.07 C-8.141 -0.965 -4.261 -0.852 0 0 Z " fill="#FAFAFA" transform="translate(774,708)"/>
<path d="M0 0 C0.99 0 1.98 0 3 0 C-2.638 21.424 -20.457 40.764 -33.604 58.117 C-42.182 69.475 -50.214 81.135 -58.047 93.013 C-58.421 93.579 -58.794 94.145 -59.179 94.728 C-60.198 96.274 -61.214 97.821 -62.229 99.369 C-63.756 101.637 -65.335 103.832 -67 106 C-66.419 101.053 -64.873 96.899 -62.75 92.438 C-62.402 91.706 -62.054 90.975 -61.696 90.222 C-53.383 73.266 -42.395 57.984 -31 43 C-28.412 39.587 -25.829 36.17 -23.25 32.75 C-22.621 31.917 -21.992 31.084 -21.344 30.225 C-16.689 24.018 -12.34 17.654 -8.086 11.168 C-5.531 7.287 -2.983 3.565 0 0 Z " fill="#F2F2F2" transform="translate(590,597)"/>
<path d="M0 0 C5.225 2.613 9.369 6.738 12 12 C12.528 16.813 12.856 21.389 10.125 25.562 C7.941 28.067 7.104 28.819 3.898 29.344 C-1.292 29.665 -4.385 29.289 -8.438 25.875 C-12.794 21.474 -15.106 17.7 -15.375 11.438 C-15.238 7.549 -14.517 5.077 -12 2 C-7.95 -0.7 -4.756 -0.653 0 0 Z " fill="#FBFBFB" transform="translate(304,708)"/>
<path d="M0 0 C6.441 2.599 10.066 6.706 13 13 C14.034 17.347 13.319 20.385 11.25 24.375 C8.247 27.878 6.655 28.784 2.125 29.375 C-3.149 28.742 -6.428 25.838 -9.812 21.938 C-13.526 16.951 -13.722 12.04 -13 6 C-9.474 0.241 -6.615 -0.542 0 0 Z " fill="#FAFAFA" transform="translate(268,710)"/>
<path d="M0 0 C5.538 3.077 5.538 3.077 7 6 C7.873 12.012 7.017 16.323 3.473 21.27 C0.573 24.677 -1.947 26.653 -6.43 27.41 C-10.84 27.665 -13.319 27.422 -17.125 25.062 C-19.687 20.878 -19.982 17.783 -19 13 C-15.691 4.851 -9.201 -1.506 0 0 Z " fill="#F9F9F9" transform="translate(800,728)"/>
<path d="M0 0 C4.975 2.599 10.041 5.515 12 11 C12.575 15.085 12.412 18.098 10.688 21.875 C8.767 24.293 7.103 25.774 4.02 26.406 C-1.701 26.649 -4.976 25.425 -9.336 21.699 C-12.968 17.99 -14.164 14.518 -14.5 9.438 C-14.388 5.738 -14.063 5.079 -11.625 2 C-7.524 -1.125 -4.912 -1.508 0 0 Z " fill="#F9F9F9" transform="translate(242,731)"/>
<path d="M0 0 C0.66 0 1.32 0 2 0 C3.198 1.458 3.198 1.458 4.547 3.523 C5.055 4.288 5.563 5.053 6.086 5.841 C6.91 7.095 6.91 7.095 7.75 8.375 C13.9 17.557 20.49 26.288 27.363 34.938 C29.363 37.457 31.347 39.988 33.331 42.519 C36.429 46.472 39.534 50.419 42.668 54.344 C70.581 89.387 70.581 89.387 75 105 C74.505 106.485 74.505 106.485 74 108 C73.466 107.068 72.933 106.136 72.383 105.176 C67.547 96.854 62.338 89.152 56.313 81.64 C54.49 79.364 52.692 77.068 50.891 74.773 C49.96 73.587 49.028 72.4 48.095 71.215 C43.863 65.837 39.68 60.423 35.522 54.988 C34.4 53.522 33.275 52.058 32.149 50.594 C0 8.8 0 8.8 0 0 Z " fill="#EDEDEE" transform="translate(425,596)"/>
<path d="M0 0 C5.067 0.937 8.108 3.808 11.305 7.637 C13.619 11.139 14.184 14.124 13.898 18.293 C13.005 22.402 11.807 23.815 8.43 26.449 C3.514 27.504 -0.354 27.023 -4.883 24.887 C-9.447 20.747 -12.808 17.277 -13.195 10.887 C-12.982 7.777 -12.419 5.498 -10.695 2.887 C-6.879 -0.09 -4.728 -0.316 0 0 Z " fill="#F9FAFA" transform="translate(234.5703125,766.55078125)"/>
<path d="M0 0 C2.919 1.396 4.722 2.722 7 5 C7.924 9.397 7.943 13.419 5.609 17.332 C2.168 21.365 -1.477 25.431 -6.91 26.309 C-10.743 26.545 -12.6 26.247 -15.938 24.188 C-19.035 20.902 -19.463 17.657 -19.414 13.195 C-18.437 8.014 -14.527 4.286 -10.625 1 C-7.001 -0.381 -3.83 -0.589 0 0 Z " fill="#FAFAFA" transform="translate(804,765)"/>
<path d="M0 0 C0.66 0 1.32 0 2 0 C2.196 0.995 2.392 1.99 2.594 3.016 C4.944 14.219 8.702 24.473 13.216 34.98 C13.988 36.969 14.53 38.921 15 41 C14.285 40.277 13.569 39.554 12.832 38.809 C5.983 32.016 -1.108 25.563 -9 20 C-8.373 17.138 -7.478 14.719 -6.152 12.109 C-5.795 11.4 -5.437 10.691 -5.068 9.961 C-4.695 9.231 -4.322 8.502 -3.938 7.75 C-3.56 7.005 -3.183 6.26 -2.795 5.492 C-1.867 3.66 -0.934 1.83 0 0 Z " fill="#F2F2F2" transform="translate(329,684)"/>
<path d="M0 0 C0.989 -0.02 1.979 -0.04 2.998 -0.061 C8.97 -0.057 14.731 0.367 19.438 4.438 C20.147 6.576 20.147 6.576 20.438 8.438 C19.501 8.417 18.564 8.396 17.599 8.374 C14.065 8.305 10.532 8.255 6.998 8.218 C5.479 8.198 3.96 8.171 2.442 8.136 C-6.458 7.936 -13.926 8.247 -22.349 11.571 C-24.562 12.438 -24.562 12.438 -26.562 12.438 C-26.291 9.184 -25.827 7.719 -23.562 5.312 C-16.087 0.641 -8.668 -0.062 0 0 Z " fill="#F2F2F2" transform="translate(496.5625,455.5625)"/>
<path d="M0 0 C4.448 0.404 7.6 2.131 11.438 4.312 C10.562 9.188 10.562 9.188 9.438 10.312 C4.247 10.807 1.016 9.51 -3.562 7.312 C-3.605 5.313 -3.603 3.312 -3.562 1.312 C-2.562 0.312 -2.562 0.312 0 0 Z " fill="#171718" transform="translate(205.5625,512.6875)"/>
<path d="M0 0 C0.33 1.32 0.66 2.64 1 4 C-4.33 7.719 -8.376 10.378 -15 10 C-15.33 8.35 -15.66 6.7 -16 5 C-5.626 -0.74 -5.626 -0.74 0 0 Z " fill="#161619" transform="translate(215,455)"/>
<path d="M0 0 C1.272 0.018 2.545 0.036 3.855 0.055 C5.319 0.089 5.319 0.089 6.812 0.125 C6.812 1.115 6.812 2.105 6.812 3.125 C2.744 6.913 -1.733 6.375 -6.957 6.23 C-7.693 6.196 -8.429 6.161 -9.188 6.125 C-9.518 4.805 -9.847 3.485 -10.188 2.125 C-6.451 -0.366 -4.443 -0.082 0 0 Z " fill="#141416" transform="translate(203.1875,429.875)"/>
<path d="M0 0 C-0.25 1.875 -0.25 1.875 -1 4 C-2.812 5.312 -2.812 5.312 -5 6 C-7.25 5.625 -7.25 5.625 -9 5 C-8 2 -8 2 -6.188 0.812 C-4 0 -4 0 0 0 Z " fill="#2A292C" transform="translate(224,484)"/>
<path d="M0 0 C2.194 2.194 3.07 4.074 4.375 6.875 C6.163 10.546 7.782 13.378 11 16 C10.67 16.66 10.34 17.32 10 18 C8.724 16.609 7.454 15.212 6.188 13.812 C5.48 13.035 4.772 12.258 4.043 11.457 C2.052 9.062 0.436 6.762 -1 4 C-0.688 1.688 -0.688 1.688 0 0 Z " fill="#C0C0C0" transform="translate(264,290)"/>
<path d="M0 0 C0.66 0.33 1.32 0.66 2 1 C1.121 2.468 0.221 3.924 -0.688 5.375 C-1.186 6.187 -1.685 6.999 -2.199 7.836 C-4.275 10.33 -5.937 11.05 -9 12 C-7.118 7.723 -4.284 2.142 0 0 Z " fill="#E2E3E3" transform="translate(671,737)"/>
<path d="M0 0 C0.33 0.66 0.66 1.32 1 2 C-0.121 3.316 -1.247 4.628 -2.375 5.938 C-3.001 6.668 -3.628 7.399 -4.273 8.152 C-6 10 -6 10 -8 11 C-3.8 1.9 -3.8 1.9 0 0 Z " fill="#D6D6D7" transform="translate(747,286)"/>
<path d="M0 0 C0.66 0.33 1.32 0.66 2 1 C1.294 4.669 -0.277 7.705 -2 11 C-3.136 7.591 -2.867 6.997 -1.562 3.812 C-1.131 2.739 -1.131 2.739 -0.691 1.645 C-0.463 1.102 -0.235 0.559 0 0 Z " fill="#BFBEC1" transform="translate(526,692)"/>
</svg>