<svg version="1.1" xmlns="http://www.w3.org/2000/svg" width="1024" height="1024">
<path d="M0 0 C337.92 0 675.84 0 1024 0 C1024 337.92 1024 675.84 1024 1024 C686.08 1024 348.16 1024 0 1024 C0 686.08 0 348.16 0 0 Z " fill="#E5F4FB" transform="translate(0,0)"/>
<path d="M0 0 C3.505 0.767 6.496 2.096 9.585 3.858 C10.283 4.243 10.982 4.627 11.701 5.023 C63.275 34.248 63.275 34.248 75.21 53.483 C76.24 57.385 76.028 60.971 74.097 64.542 C72.246 66.972 70.258 69.216 68.21 71.483 C67.24 72.606 66.272 73.731 65.308 74.858 C62.536 78.089 59.742 81.299 56.94 84.503 C46.707 96.215 36.478 107.94 26.71 120.046 C22.901 124.738 18.884 129.196 14.751 133.601 C12.179 136.323 12.179 136.323 10.21 139.483 C11.919 139.404 11.919 139.404 13.663 139.323 C18.442 139.331 22.475 140.484 26.96 142.046 C28.14 142.451 28.14 142.451 29.343 142.865 C49.992 150.244 64.326 164.318 74.21 183.483 C75.704 186.77 77.03 190.072 78.21 193.483 C78.72 194.916 78.72 194.916 79.241 196.378 C86.835 220.719 80.869 247.108 72.971 270.533 C71.332 276.889 72.566 281.036 75.585 286.671 C75.939 287.36 76.292 288.049 76.656 288.76 C78.627 292.578 80.683 296.341 82.792 300.085 C93.804 319.83 99.063 340.153 93.065 362.483 C91.791 366.875 90.288 371.182 88.781 375.498 C85.411 385.188 84.428 392.055 86.21 402.233 C89.123 420.069 88.855 438.615 78.233 453.897 C64.074 471.993 43.48 480.944 21.21 484.483 C20.088 484.688 18.967 484.893 17.812 485.104 C-4.903 488.805 -34.311 489.051 -54.001 475.229 C-56.534 473.335 -56.534 473.335 -58.849 473.354 C-61.893 475.125 -63.787 477.765 -65.853 480.546 C-66.296 481.138 -66.74 481.73 -67.198 482.34 C-72.222 489.213 -75.11 495.8 -73.79 504.483 C-72.878 507.424 -71.833 510.253 -70.665 513.101 C-69.79 515.483 -69.79 515.483 -69.79 518.483 C-68.759 518.318 -67.728 518.153 -66.665 517.983 C-48.562 515.857 -48.562 515.857 -41.341 520.901 C-37.175 525.151 -36.227 529.52 -35.692 535.276 C-35.613 536.022 -35.533 536.769 -35.451 537.537 C-35.198 539.914 -34.962 542.292 -34.728 544.671 C-34.41 547.79 -34.085 550.908 -33.755 554.026 C-33.637 555.148 -33.637 555.148 -33.517 556.292 C-32.995 561.096 -32.24 565.785 -31.203 570.509 C-30.654 573.135 -30.412 575.746 -30.228 578.421 C-30.017 581.408 -29.744 583.622 -28.79 586.483 C-28.465 588.597 -28.177 590.717 -27.907 592.839 C-27.731 594.2 -27.555 595.561 -27.379 596.922 C-27.284 597.657 -27.19 598.392 -27.093 599.15 C-26.552 603.322 -25.986 607.49 -25.423 611.659 C-25.302 612.553 -25.181 613.447 -25.057 614.368 C-24.677 617.177 -24.296 619.987 -23.915 622.796 C-23.784 623.763 -23.653 624.731 -23.518 625.727 C-21.813 638.303 -19.995 650.848 -17.982 663.379 C-16.939 670.035 -16.275 676.601 -16.063 683.335 C-15.796 686.411 -15.114 689.194 -14.325 692.171 C-11.335 705.101 -10.529 719.057 -10.29 732.296 C-10.26 733.154 -10.229 734.012 -10.198 734.896 C-10.195 739.273 -10.379 740.957 -13.161 744.519 C-15.79 746.483 -15.79 746.483 -18.353 747.108 C-22.04 746.163 -22.821 744.752 -24.79 741.483 C-25.54 737.651 -25.718 733.816 -25.915 729.921 C-26.062 727.666 -26.21 725.41 -26.36 723.155 C-26.465 721.47 -26.465 721.47 -26.572 719.751 C-26.886 715.048 -27.317 710.36 -27.79 705.671 C-27.872 704.851 -27.954 704.031 -28.038 703.186 C-28.594 697.846 -29.389 692.586 -30.353 687.304 C-31.027 682.955 -31.283 678.589 -31.544 674.198 C-31.694 671.39 -31.694 671.39 -32.79 668.483 C-33.07 666.15 -33.313 663.822 -33.54 661.483 C-34.55 651.784 -35.915 642.137 -37.29 632.483 C-37.398 631.721 -37.505 630.958 -37.616 630.172 C-37.931 627.942 -38.251 625.713 -38.571 623.483 C-38.758 622.184 -38.944 620.885 -39.136 619.546 C-39.59 616.559 -40.162 613.612 -40.776 610.654 C-41.85 605.382 -42.567 600.098 -43.228 594.761 C-43.485 592.738 -43.743 590.715 -44.001 588.692 C-44.397 585.551 -44.792 582.408 -45.186 579.266 C-45.571 576.202 -45.962 573.137 -46.353 570.073 C-46.467 569.145 -46.582 568.216 -46.7 567.26 C-47.426 561.577 -48.471 556.056 -49.79 550.483 C-50.18 548.591 -50.557 546.695 -50.915 544.796 C-51.166 543.491 -51.166 543.491 -51.423 542.159 C-51.824 539.238 -51.85 536.428 -51.79 533.483 C-52.387 533.589 -52.985 533.694 -53.6 533.803 C-72.942 537.211 -92.294 540.317 -111.746 543.038 C-124.11 544.073 -124.11 544.073 -135.79 547.483 C-137.162 547.7 -138.541 547.873 -139.923 548.019 C-141.131 548.149 -141.131 548.149 -142.364 548.282 C-143.627 548.413 -143.627 548.413 -144.915 548.546 C-145.765 548.637 -146.614 548.728 -147.489 548.821 C-149.589 549.045 -151.69 549.265 -153.79 549.483 C-153.71 550.507 -153.629 551.53 -153.546 552.584 C-153.164 557.467 -152.788 562.35 -152.415 567.233 C-152.347 568.124 -152.279 569.015 -152.209 569.934 C-151.088 584.674 -150.171 599.417 -149.437 614.182 C-149.4 614.9 -149.363 615.619 -149.325 616.36 C-149.227 618.284 -149.133 620.208 -149.04 622.132 C-148.803 625.307 -148.32 628.347 -147.79 631.483 C-147.607 633.677 -147.454 635.872 -147.325 638.069 C-147.248 639.321 -147.172 640.573 -147.093 641.862 C-147.054 642.514 -147.015 643.167 -146.974 643.839 C-146.226 656.662 -146.226 656.662 -144.79 669.421 C-144.094 674.692 -143.579 679.916 -143.255 685.226 C-143.211 685.92 -143.167 686.614 -143.122 687.329 C-142.899 690.89 -142.689 694.451 -142.487 698.012 C-142.411 699.319 -142.334 700.626 -142.255 701.972 C-142.189 703.153 -142.123 704.334 -142.055 705.551 C-141.898 708.543 -141.898 708.543 -140.79 711.483 C-140.559 715.019 -140.4 718.549 -140.272 722.089 C-140.014 727.821 -139.246 733.385 -138.332 739.047 C-137.787 742.503 -137.313 745.96 -136.86 749.429 C-132.744 789.74 -132.744 789.74 -111.228 822.593 C-97.395 832.002 -81.552 835.61 -65.04 832.858 C-46.413 828.546 -29.872 819.434 -19.103 803.233 C-0.087 771.424 -6.404 735.91 -11.663 701.058 C-16.347 669.932 -17.788 638.212 -14.515 606.851 C-13.625 597.514 -13.497 588.174 -13.436 578.801 C-13.422 576.955 -13.402 575.109 -13.374 573.264 C-13.166 558.351 -13.539 543.547 -23.302 531.401 C-24.79 529.483 -24.79 529.483 -25.79 526.483 C-27.633 525.418 -27.633 525.418 -29.79 524.483 C-31.155 523.562 -32.509 522.623 -33.853 521.671 C-40.167 517.437 -46.877 514.516 -54.013 511.944 C-55.104 511.549 -55.104 511.549 -56.218 511.146 C-57.665 510.627 -59.116 510.12 -60.572 509.626 C-62.344 508.997 -64.072 508.248 -65.79 507.483 C-66.12 506.493 -66.45 505.503 -66.79 504.483 C-57.81 501.561 -45.24 502.401 -36.79 506.483 C-36.077 506.973 -35.365 507.463 -34.631 507.968 C-24.002 514.698 -12.023 513.101 0.085 512.796 C4.499 512.719 8.913 512.658 13.327 512.597 C14.38 512.58 15.434 512.563 16.519 512.546 C27.155 512.401 37.674 512.721 48.085 515.108 C49.208 515.365 49.208 515.365 50.355 515.627 C67.163 519.738 82.479 527.738 92.21 542.483 C99.201 554.352 101.676 565.345 101.608 579.038 C101.613 580.321 101.617 581.603 101.621 582.925 C101.629 586.36 101.616 589.796 101.596 593.231 C101.585 595.373 101.578 597.514 101.573 599.656 C101.512 620.21 100.888 640.589 98.681 661.035 C98.147 666 97.686 670.972 97.226 675.944 C94.672 703.34 91.438 730.561 87.367 757.772 C87.115 759.459 86.864 761.145 86.612 762.831 C86.49 763.65 86.368 764.469 86.242 765.313 C85.46 770.61 84.78 775.912 84.151 781.229 C83.511 786.496 82.57 791.368 81.21 796.483 C80.108 802.292 79.14 808.125 78.153 813.954 C77.843 815.742 77.843 815.742 77.526 817.565 C77.345 818.63 77.164 819.694 76.978 820.791 C75.946 825.753 74.585 830.608 73.21 835.483 C71.932 835.478 70.655 835.473 69.338 835.468 C57.232 835.423 45.126 835.421 33.02 835.46 C26.797 835.479 20.576 835.483 14.353 835.453 C8.336 835.424 2.319 835.435 -3.698 835.472 C-5.981 835.48 -8.264 835.473 -10.547 835.452 C-23.531 835.343 -33.85 836.068 -45.308 842.524 C-60.275 850.945 -80.558 850.863 -96.978 846.983 C-101.953 845.369 -105.887 843.189 -110.284 840.39 C-120.215 834.725 -130.561 835.374 -141.692 835.483 C-143.868 835.476 -146.044 835.465 -148.22 835.45 C-153.897 835.422 -159.572 835.441 -165.249 835.471 C-171.062 835.492 -176.874 835.468 -182.687 835.448 C-194.055 835.416 -205.422 835.434 -216.79 835.483 C-216.513 836.436 -216.236 837.389 -215.95 838.37 C-215.588 839.624 -215.226 840.879 -214.853 842.171 C-214.313 844.033 -214.313 844.033 -213.763 845.933 C-211.853 852.904 -209.866 860.944 -212.802 867.87 C-216.01 873.082 -218.902 876.471 -224.79 878.483 C-227.248 878.736 -227.248 878.736 -229.881 878.741 C-230.889 878.747 -231.897 878.754 -232.936 878.76 C-234.037 878.757 -235.137 878.754 -236.271 878.751 C-237.446 878.755 -238.62 878.76 -239.831 878.765 C-243.088 878.775 -246.345 878.777 -249.601 878.774 C-253.116 878.774 -256.63 878.785 -260.144 878.794 C-267.027 878.811 -273.911 878.816 -280.794 878.818 C-286.39 878.818 -291.986 878.823 -297.581 878.829 C-313.448 878.847 -329.316 878.856 -345.183 878.854 C-346.038 878.854 -346.893 878.854 -347.775 878.854 C-348.631 878.854 -349.487 878.854 -350.37 878.854 C-364.248 878.853 -378.126 878.872 -392.003 878.9 C-406.255 878.929 -420.507 878.943 -434.759 878.941 C-442.76 878.94 -450.76 878.946 -458.761 878.967 C-465.573 878.986 -472.384 878.99 -479.196 878.976 C-482.671 878.97 -486.145 878.97 -489.62 878.987 C-493.389 879.003 -497.158 878.993 -500.928 878.978 C-502.022 878.988 -503.116 878.998 -504.243 879.009 C-512.268 878.936 -518.568 877.242 -524.478 871.421 C-528.563 867.129 -530.649 861.938 -532.79 856.483 C-533.45 857.391 -534.11 858.298 -534.79 859.233 C-539.169 864.408 -544.466 866.538 -551.136 867.3 C-553.187 867.458 -555.24 867.594 -557.294 867.712 C-558.424 867.787 -559.553 867.863 -560.717 867.94 C-574.32 868.761 -587.937 868.813 -601.559 868.818 C-603.761 868.819 -605.963 868.824 -608.164 868.829 C-615.879 868.847 -623.593 868.856 -631.308 868.854 C-638.453 868.853 -645.598 868.874 -652.743 868.905 C-658.935 868.932 -665.126 868.942 -671.318 868.941 C-674.992 868.941 -678.667 868.946 -682.341 868.967 C-686.422 868.991 -690.502 868.981 -694.583 868.969 C-695.778 868.98 -696.973 868.992 -698.204 869.003 C-707.468 868.934 -716.333 867.047 -723.268 860.465 C-730.022 851.671 -730.593 841.017 -730.442 830.416 C-730.415 828.155 -730.442 825.899 -730.474 823.638 C-730.491 816.027 -730.427 809.25 -724.79 803.483 C-720.049 799.898 -715.875 799.351 -710.04 799.421 C-709.055 799.43 -708.07 799.439 -707.056 799.448 C-705.934 799.466 -705.934 799.466 -704.79 799.483 C-704.9 798.936 -705.009 798.388 -705.122 797.823 C-705.281 797.03 -705.439 796.238 -705.603 795.421 C-705.787 794.501 -705.971 793.58 -706.161 792.632 C-706.593 790.471 -707.022 788.309 -707.45 786.147 C-713.57 755.312 -720.202 724.459 -729.251 694.335 C-729.995 691.779 -730.616 689.199 -731.228 686.608 C-733.145 678.662 -735.665 670.878 -738.071 663.069 C-738.499 661.674 -738.499 661.674 -738.936 660.251 C-739.504 658.409 -740.08 656.569 -740.664 654.731 C-742.891 647.6 -744.193 641.397 -741.603 634.171 C-738.134 629.029 -734.55 625.81 -728.79 623.483 C-725.743 623.096 -722.74 623.133 -719.673 623.19 C-718.816 623.195 -717.959 623.199 -717.075 623.203 C-714.355 623.22 -711.635 623.258 -708.915 623.296 C-707.063 623.311 -705.212 623.325 -703.36 623.337 C-698.837 623.37 -694.313 623.422 -689.79 623.483 C-689.832 622.785 -689.874 622.087 -689.917 621.367 C-690.149 614.674 -689.417 610.068 -686.165 604.233 C-685.8 603.55 -685.436 602.866 -685.06 602.161 C-682.449 597.386 -679.933 593.086 -675.79 589.483 C-672.367 588.812 -670.818 588.853 -667.853 590.671 C-666.79 592.483 -666.79 592.483 -666.938 594.616 C-668.313 599.243 -671.031 603.127 -673.64 607.161 C-677.377 613.371 -676.79 615.312 -676.79 623.483 C-660.29 623.153 -643.79 622.823 -626.79 622.483 C-628.44 619.843 -630.09 617.203 -631.79 614.483 C-632.585 612.913 -633.343 611.323 -634.036 609.706 C-634.396 608.87 -634.756 608.035 -635.126 607.174 C-635.671 605.873 -635.671 605.873 -636.228 604.546 C-636.805 603.186 -636.805 603.186 -637.393 601.799 C-640.88 593.48 -643.932 585.036 -646.79 576.483 C-647.512 577.226 -648.234 577.968 -648.978 578.733 C-656.472 586.061 -656.472 586.061 -663.29 586.108 C-671.217 585.86 -676.971 583.354 -683.79 579.483 C-685.484 578.544 -685.484 578.544 -687.212 577.585 C-695.278 572.883 -703.79 567.783 -706.79 558.483 C-708.248 550.142 -705.448 545.173 -700.79 538.483 C-699.928 537.199 -699.069 535.912 -698.212 534.624 C-697.742 533.918 -697.272 533.212 -696.788 532.484 C-696.293 531.741 -695.799 530.999 -695.29 530.233 C-694.236 528.651 -693.181 527.069 -692.126 525.487 C-691.58 524.668 -691.035 523.848 -690.473 523.003 C-689.353 521.327 -688.229 519.653 -687.1 517.983 C-678.807 505.677 -671.888 493.173 -665.847 479.644 C-661.573 470.297 -656.167 462.653 -648.79 455.483 C-649.863 454.844 -650.935 454.205 -652.04 453.546 C-656.564 450.276 -657.949 446.624 -659.79 441.483 C-660.236 440.357 -660.682 439.23 -661.142 438.069 C-665.817 425.872 -665.817 425.872 -664.79 419.483 C-661.079 411.415 -653.108 407.851 -645.228 404.733 C-643.088 403.967 -640.942 403.215 -638.79 402.483 C-638.115 402.235 -637.439 401.986 -636.743 401.729 C-632.154 400.278 -627.444 400.251 -622.665 400.171 C-621.983 400.153 -621.302 400.135 -620.599 400.117 C-614.474 400.127 -610.567 401.791 -606.165 405.983 C-602.842 410.257 -601.451 415.402 -599.79 420.483 C-599.171 421.968 -599.171 421.968 -598.54 423.483 C-597.296 428.458 -596.4 434.957 -598.946 439.585 C-599.225 440.211 -599.503 440.838 -599.79 441.483 C-599.005 443.432 -599.005 443.432 -597.54 445.233 C-594.758 449.266 -593.73 452.696 -592.79 457.483 C-591.676 457.153 -590.563 456.823 -589.415 456.483 C-586.036 455.623 -582.985 455.375 -579.501 455.421 C-578.615 455.43 -577.728 455.439 -576.815 455.448 C-575.813 455.466 -575.813 455.466 -574.79 455.483 C-574.951 454.931 -575.112 454.379 -575.277 453.81 C-578.344 443.25 -581.323 432.691 -583.911 422.003 C-584.706 418.82 -585.605 415.69 -586.54 412.546 C-587.814 407.832 -588.774 403.339 -587.79 398.483 C-583.923 391.957 -578.514 390.475 -571.566 388.625 C-567.607 387.647 -563.639 386.714 -559.665 385.796 C-558.931 385.625 -558.197 385.453 -557.441 385.277 C-543.941 382.127 -530.39 379.244 -516.818 376.427 C-505.129 373.999 -493.478 371.427 -481.846 368.741 C-475.755 367.342 -469.673 366.055 -463.517 364.975 C-460.593 364.448 -457.685 363.863 -454.774 363.265 C-444.372 361.125 -434.042 359.045 -423.485 357.843 C-420.698 357.557 -420.698 357.557 -417.79 356.483 C-400.208 355.122 -400.208 355.122 -395.415 358.796 C-389.172 366.577 -387.253 378.28 -384.54 387.671 C-384.253 388.661 -384.253 388.661 -383.96 389.671 C-380.177 402.736 -376.839 415.896 -373.614 429.108 C-371.412 438.106 -369.018 447.05 -366.552 455.979 C-362.685 470.075 -359.661 484.364 -356.613 498.654 C-356.057 501.24 -355.492 503.822 -354.912 506.403 C-354.637 507.64 -354.362 508.877 -354.079 510.151 C-353.831 511.251 -353.583 512.351 -353.328 513.484 C-352.835 516.233 -352.683 518.7 -352.79 521.483 C-351.664 520.505 -350.539 519.526 -349.415 518.546 C-348.676 517.903 -347.938 517.259 -347.177 516.597 C-345.62 515.218 -344.08 513.82 -342.56 512.401 C-319.315 490.792 -282.564 468.503 -249.79 469.483 C-252.571 466.686 -255.373 463.914 -258.208 461.171 C-272.92 446.848 -287.429 430.173 -293.04 409.983 C-293.976 406.876 -293.976 406.876 -295.79 404.483 C-299.39 403.037 -302.867 402.504 -306.688 402.062 C-327.82 399.564 -350.348 382.791 -363.79 367.483 C-374.618 353.274 -377.098 337.911 -375.79 320.483 C-375.005 316.152 -373.65 312.464 -371.79 308.483 C-371.277 307.363 -370.764 306.243 -370.235 305.089 C-365.615 295.562 -359.422 287.308 -353.075 278.874 C-342.397 264.676 -336.991 252.959 -339.249 234.793 C-339.854 231.094 -340.522 227.414 -341.228 223.733 C-347.983 187.438 -346.723 150.685 -325.505 119.179 C-321.172 113.088 -316.037 107.783 -310.79 102.483 C-309.87 101.472 -309.87 101.472 -308.931 100.44 C-303.692 94.774 -297.262 90.605 -290.79 86.483 C-290.196 86.104 -289.602 85.724 -288.989 85.333 C-273.171 75.421 -255.076 69.064 -236.79 65.483 C-236.116 65.351 -235.441 65.219 -234.746 65.083 C-225.907 63.43 -217.031 62.464 -208.071 61.772 C-207.293 61.712 -206.514 61.651 -205.711 61.588 C-201.803 61.286 -197.894 61.002 -193.982 60.749 C-183.845 60.04 -174.589 58.183 -164.79 55.483 C-135.844 48.351 -103.666 50.052 -77.79 65.483 C-74.598 67.634 -71.684 69.951 -68.79 72.483 C-68.13 73.002 -67.47 73.52 -66.79 74.054 C-62.545 77.486 -59.257 81.328 -56.04 85.722 C-55.629 86.277 -55.218 86.832 -54.794 87.404 C-53.789 88.761 -52.789 90.122 -51.79 91.483 C-41.213 69.153 -41.213 69.153 -31.103 46.608 C-29.334 42.566 -27.563 38.524 -25.79 34.483 C-25.038 32.768 -25.038 32.768 -24.27 31.017 C-22.709 27.478 -21.127 23.949 -19.54 20.421 C-18.833 18.806 -18.833 18.806 -18.112 17.158 C-9.885 -0.972 -9.885 -0.972 0 0 Z " fill="#3C1E2B" transform="translate(791.7900390625,113.5166015625)"/>
<path d="M0 0 C0.979 -0.006 1.958 -0.013 2.967 -0.02 C4.035 -0.016 5.103 -0.013 6.204 -0.01 C7.344 -0.015 8.485 -0.019 9.66 -0.024 C13.491 -0.037 17.321 -0.035 21.152 -0.033 C23.895 -0.038 26.638 -0.046 29.381 -0.054 C36.065 -0.07 42.748 -0.076 49.432 -0.077 C54.867 -0.078 60.301 -0.082 65.736 -0.088 C81.15 -0.106 96.564 -0.115 111.979 -0.114 C113.225 -0.113 113.225 -0.113 114.497 -0.113 C115.744 -0.113 115.744 -0.113 117.018 -0.113 C130.493 -0.112 143.969 -0.131 157.444 -0.16 C171.287 -0.188 185.13 -0.202 198.973 -0.2 C206.742 -0.2 214.511 -0.205 222.28 -0.227 C228.897 -0.245 235.513 -0.249 242.13 -0.236 C245.503 -0.229 248.876 -0.231 252.25 -0.246 C255.914 -0.262 259.577 -0.253 263.241 -0.237 C264.298 -0.247 265.355 -0.258 266.444 -0.268 C273.606 -0.202 281.234 0.71 286.703 5.808 C290.578 10.506 291.93 16.49 293.477 22.257 C293.801 23.425 294.125 24.593 294.458 25.796 C300.41 47.464 305.76 69.304 311.242 91.093 C312.185 94.831 313.132 98.568 314.081 102.305 C317.95 117.541 321.65 132.791 325.011 148.15 C327.034 157.215 329.277 166.214 331.587 175.21 C332.063 177.066 332.063 177.066 332.548 178.958 C334.159 185.225 335.782 191.488 337.418 197.749 C338.02 200.076 338.622 202.403 339.223 204.73 C339.507 205.804 339.791 206.877 340.084 207.984 C342.584 217.694 342.584 217.694 342.04 222.257 C339.808 225.105 338.49 226.107 335.04 227.257 C333.503 227.351 331.963 227.388 330.424 227.391 C329.471 227.396 328.517 227.4 327.535 227.405 C325.961 227.405 325.961 227.405 324.355 227.404 C323.242 227.408 322.129 227.412 320.982 227.416 C317.233 227.427 313.483 227.43 309.734 227.434 C307.054 227.441 304.373 227.447 301.693 227.454 C293.636 227.474 285.58 227.484 277.523 227.493 C273.73 227.497 269.936 227.503 266.143 227.508 C253.535 227.525 240.928 227.539 228.32 227.547 C225.048 227.549 221.777 227.55 218.505 227.552 C217.285 227.553 217.285 227.553 216.041 227.554 C202.863 227.562 189.685 227.588 176.507 227.62 C162.981 227.653 149.455 227.671 135.928 227.674 C128.333 227.676 120.737 227.685 113.141 227.711 C106.673 227.732 100.206 227.741 93.738 227.731 C90.438 227.726 87.138 227.73 83.838 227.748 C80.26 227.765 76.683 227.758 73.105 227.745 C71.541 227.761 71.541 227.761 69.946 227.778 C63.974 227.725 60.605 227.203 56.04 223.257 C52.569 219.607 50.942 215.999 49.239 211.285 C48.989 210.596 48.739 209.907 48.481 209.198 C45.1 199.798 41.984 190.305 38.852 180.82 C38.231 178.945 37.609 177.071 36.987 175.197 C35.846 171.759 34.707 168.32 33.57 164.881 C31.291 157.993 29.003 151.11 26.622 144.257 C22.036 131.024 17.516 117.786 13.317 104.423 C11.169 97.648 8.916 90.914 6.61 84.191 C6.303 83.295 5.996 82.399 5.679 81.476 C4.143 77.001 2.6 72.529 1.05 68.058 C-2.16 58.763 -5.162 49.447 -7.877 39.995 C-8.792 36.837 -9.753 33.703 -10.761 30.574 C-11.016 29.771 -11.27 28.969 -11.532 28.142 C-12.036 26.563 -12.549 24.988 -13.071 23.415 C-14.839 17.764 -15.831 12.182 -14.96 6.257 C-11.021 1.755 -5.889 0.01 0 0 Z " fill="#C0E1ED" transform="translate(222.9601697921753,751.7427310943604)"/>
<path d="M0 0 C20.615 9.431 45.808 17.284 68.301 9.75 C71.701 8.378 75.096 7.002 78.434 5.484 C81.075 4.675 82.088 4.74 84.625 5.812 C92.14 11.177 98.391 17.746 100.023 27.094 C100.373 34.738 97.485 41.797 94.625 48.75 C87.468 66.336 86.668 86.283 93.828 104.031 C95.783 108.374 98.234 112.243 101.207 115.965 C103.003 118.305 103.715 120.008 103.383 122.969 C102.694 125.519 102.02 127.56 100.625 129.812 C98.338 131.024 96.316 131.588 93.781 132.082 C91.441 132.627 91.441 132.627 90.27 134.887 C88.625 136.812 88.625 136.812 85.48 137.062 C84.27 136.98 83.06 136.898 81.812 136.812 C76.117 136.491 76.117 136.491 70.938 138.438 C67.096 142.383 65.42 146.405 64.625 151.812 C64.045 151.91 63.465 152.008 62.867 152.109 C57.26 153.183 51.999 154.454 48.504 159.398 C47.172 163.057 47.154 166.696 47 170.562 C46.961 171.355 46.923 172.148 46.883 172.965 C46.789 174.914 46.706 176.863 46.625 178.812 C44.315 178.482 42.005 178.153 39.625 177.812 C39.53 176.869 39.53 176.869 39.434 175.906 C38.425 168.856 36.26 164.287 30.625 159.812 C27.06 157.843 23.435 156.246 19.625 154.812 C20.222 153.942 20.222 153.942 20.832 153.055 C23.753 148.749 26.444 144.538 28.625 139.812 C29.182 140.143 29.739 140.472 30.312 140.812 C33.057 141.999 34.665 142.257 37.625 141.812 C40.042 140.229 40.042 140.229 41.625 137.812 C41.96 135.144 41.96 135.144 41.625 132.812 C40.582 132.671 39.539 132.529 38.465 132.383 C34.886 131.36 33.637 129.846 31.754 126.68 C30.875 125.028 30.02 123.363 29.188 121.688 C28.519 120.413 28.519 120.413 27.838 119.113 C26.746 117.023 25.676 114.924 24.625 112.812 C18.125 113.293 12.954 114.524 7 117.125 C6.288 117.421 5.577 117.717 4.844 118.021 C0.228 119.979 -4.066 122.251 -8.375 124.812 C-8.418 126.479 -8.416 128.146 -8.375 129.812 C-8.045 130.143 -7.715 130.472 -7.375 130.812 C-5.038 130.509 -2.704 130.174 -0.375 129.812 C0.615 129.812 1.605 129.812 2.625 129.812 C2.336 130.311 2.048 130.81 1.75 131.324 C-1.786 138.164 -1.797 144.224 -1.375 151.812 C-2.587 152.249 -2.587 152.249 -3.824 152.695 C-12.59 155.928 -12.59 155.928 -18.375 162.812 C-19.199 166.924 -18.637 170.069 -17.25 174 C-11.555 182.543 -2.252 186.042 7.398 188.277 C15.526 189.625 22.818 189.271 30.625 186.812 C31.81 210.094 26.867 225.453 13.323 244.373 C9.247 250.23 5.861 256.463 2.625 262.812 C2.102 263.801 1.578 264.79 1.039 265.809 C-3.974 276.718 -3.785 289.002 -4.375 300.812 C-8.542 300.871 -12.708 300.906 -16.875 300.938 C-18.048 300.954 -19.221 300.971 -20.43 300.988 C-26.822 301.024 -32.255 300.645 -38.375 298.812 C-39.977 298.567 -41.581 298.336 -43.188 298.125 C-75.013 292.367 -105.196 270.001 -123.548 243.894 C-143.154 214.519 -149.343 182.384 -142.624 147.863 C-140.196 136.023 -136.495 124.846 -132.375 113.5 C-131.141 110.068 -129.913 106.634 -128.688 103.199 C-128.248 101.97 -128.248 101.97 -127.8 100.716 C-124.348 91.005 -121.318 81.232 -119 71.188 C-118.795 70.32 -118.59 69.452 -118.379 68.559 C-117.16 63.356 -116.01 58.141 -114.898 52.914 C-109.79 28.997 -109.79 28.997 -105.375 19.812 C-104.937 18.882 -104.498 17.951 -104.047 16.992 C-96.062 1.242 -84.462 -9.309 -68.25 -16.074 C-46.249 -22.76 -19.601 -8.978 0 0 Z " fill="#FDC9AC" transform="translate(647.375,300.1875)"/>
<path d="M0 0 C1.81 -0.049 1.81 -0.049 3.656 -0.1 C11.65 -0.147 17.229 1.131 24 5.438 C20.374 9.847 16.576 13.813 12.438 17.75 C5.3 24.682 1.382 31.925 0.797 41.898 C0.645 54.564 1.12 68.884 9 79.438 C11.455 81.673 13.814 83.442 17 84.438 C21.674 84.159 25.36 81.75 29.312 79.438 C30.003 79.043 30.694 78.649 31.405 78.243 C35.109 76.126 38.79 73.972 42.465 71.805 C43.183 71.387 43.901 70.969 44.641 70.539 C46.024 69.735 47.401 68.92 48.771 68.094 C53.454 65.38 53.454 65.38 56.453 65.695 C57.219 66.063 57.219 66.063 58 66.438 C58.147 67.141 58.294 67.845 58.445 68.57 C59.811 74.58 61.539 80.305 63.875 86 C64.583 87.734 64.583 87.734 65.305 89.504 C66.736 92.591 66.736 92.591 69.539 93.747 C72 95.438 72 95.438 72.811 98.132 C72.898 99.218 72.985 100.303 73.074 101.422 C73.183 102.651 73.292 103.88 73.404 105.147 C73.499 106.494 73.594 107.841 73.688 109.188 C73.802 110.586 73.919 111.984 74.037 113.383 C74.914 124.023 75.61 134.688 76.178 145.349 C76.738 155.215 77.741 165.02 78.748 174.85 C79.73 184.492 80.61 194.141 81.439 203.797 C81.65 206.252 81.863 208.706 82.076 211.161 C83.259 224.799 83.259 224.799 83.797 231.195 C85.287 248.887 86.956 266.513 89.512 284.086 C89.611 284.778 89.709 285.47 89.811 286.183 C92.131 302.258 95.955 318.156 103.934 332.426 C105 334.438 105 334.438 105 336.438 C75.96 336.438 46.92 336.438 17 336.438 C15.35 329.507 13.7 322.577 12 315.438 C10.814 311.126 10.814 311.126 9.609 306.82 C8.962 304.287 8.498 301.765 8.062 299.188 C7.328 294.88 6.316 290.716 5.166 286.501 C3.114 278.915 1.184 271.302 -0.715 263.676 C-1.056 262.31 -1.397 260.945 -1.738 259.579 C-2.626 256.021 -3.513 252.463 -4.4 248.905 C-5.289 245.341 -6.179 241.777 -7.068 238.213 C-7.418 236.811 -7.768 235.409 -8.118 234.008 C-8.803 231.264 -9.488 228.521 -10.173 225.777 C-11.63 219.94 -13.084 214.102 -14.525 208.261 C-14.751 207.349 -14.977 206.437 -15.21 205.497 C-15.609 203.882 -16.007 202.266 -16.402 200.65 C-17.799 195.014 -19.475 189.487 -21.265 183.964 C-22.502 180.128 -23.543 176.304 -24.438 172.375 C-26.683 163.062 -29.807 150.83 -37.922 145.074 C-38.525 144.761 -39.128 144.448 -39.75 144.125 C-40.822 143.568 -41.895 143.011 -43 142.438 C-41.649 138.924 -40.118 135.593 -38.383 132.254 C-37.864 131.255 -37.346 130.256 -36.812 129.227 C-36.255 128.162 -35.699 127.097 -35.125 126 C-34.547 124.891 -33.969 123.782 -33.374 122.64 C-29.591 115.408 -25.735 108.22 -21.812 101.062 C-20.356 98.399 -18.899 95.735 -17.442 93.072 C-16.465 91.287 -15.487 89.504 -14.507 87.721 C-13.078 85.111 -11.662 82.494 -10.25 79.875 C-9.604 78.705 -9.604 78.705 -8.945 77.512 C-6.069 72.286 -6.069 72.286 -6 66.438 C-7.927 64.16 -7.927 64.16 -11.188 63.688 C-15.639 64.563 -15.864 65.08 -18.281 68.676 C-32.88 90.584 -44.04 115.183 -56 138.438 C-95.27 138.438 -134.54 138.438 -175 138.438 C-173.569 134.86 -172.667 132.696 -170.523 129.75 C-170.026 129.062 -169.528 128.374 -169.015 127.665 C-168.474 126.93 -167.933 126.195 -167.375 125.438 C-166.807 124.659 -166.238 123.88 -165.653 123.077 C-158.576 113.424 -151.311 103.913 -144 94.438 C-143.487 93.772 -142.974 93.107 -142.445 92.422 C-139.333 88.398 -136.183 84.406 -133 80.438 C-132.208 79.449 -132.208 79.449 -131.401 78.44 C-123.024 68.016 -114.27 58.074 -105 48.438 C-104.251 47.647 -103.502 46.857 -102.73 46.043 C-97.545 40.688 -91.873 36.018 -86 31.438 C-85.031 30.655 -84.061 29.873 -83.062 29.066 C-65.943 15.712 -44.91 7.626 -24 2.438 C-23.212 2.238 -22.424 2.038 -21.613 1.833 C-14.435 0.194 -7.341 0.035 0 0 Z " fill="#FDFDFD" transform="translate(554,598.5625)"/>
<path d="M0 0 C4.279 0.59 7.304 2.111 11 4.312 C12.011 4.907 13.021 5.501 14.062 6.113 C19.211 9.42 22.944 12.791 26.562 17.75 C27.306 18.735 28.05 19.72 28.816 20.734 C35.982 33.015 35.582 47.779 35.375 61.5 C35.361 63.388 35.348 65.276 35.336 67.164 C35.248 76.483 34.966 85.725 34 95 C30.547 128.684 33.168 162.678 38.379 196.027 C43.305 227.648 47.796 261.952 28.98 290.012 C27.084 292.455 25.106 294.736 23 297 C22.398 297.692 21.796 298.384 21.176 299.098 C9.678 311.608 -8.081 319.209 -24.957 320.168 C-39.791 320.269 -54.332 316.557 -66 307 C-86.072 286.605 -87.62 255.28 -90.745 228.322 C-90.896 227.021 -91.047 225.719 -91.203 224.379 C-91.399 222.64 -91.399 222.64 -91.599 220.865 C-91.921 217.936 -91.921 217.936 -93 215 C-93.134 213.628 -93.223 212.252 -93.281 210.875 C-93.319 210.086 -93.356 209.297 -93.395 208.484 C-93.465 206.828 -93.535 205.172 -93.605 203.516 C-93.643 202.727 -93.68 201.938 -93.719 201.125 C-93.749 200.406 -93.779 199.686 -93.811 198.945 C-93.948 196.784 -93.948 196.784 -95 194 C-95.162 192.596 -95.282 191.186 -95.373 189.776 C-95.43 188.928 -95.487 188.08 -95.545 187.207 C-95.602 186.294 -95.66 185.382 -95.719 184.441 C-95.782 183.501 -95.844 182.56 -95.909 181.591 C-96.11 178.582 -96.305 175.572 -96.5 172.562 C-96.756 168.605 -97.017 164.648 -97.281 160.691 C-97.367 159.326 -97.367 159.326 -97.455 157.932 C-97.512 157.081 -97.568 156.23 -97.627 155.354 C-97.675 154.608 -97.723 153.862 -97.773 153.093 C-98.002 150.985 -98.473 149.051 -99 147 C-99.203 144.756 -99.364 142.507 -99.5 140.258 C-99.582 138.944 -99.665 137.631 -99.75 136.277 C-99.834 134.893 -99.917 133.509 -100 132.125 C-100.163 129.419 -100.33 126.713 -100.5 124.008 C-100.608 122.208 -100.608 122.208 -100.719 120.372 C-100.939 117.097 -100.939 117.097 -101.486 114.288 C-102.259 109.344 -102.453 104.383 -102.719 99.391 C-102.782 98.269 -102.844 97.147 -102.909 95.991 C-103.109 92.411 -103.305 88.83 -103.5 85.25 C-103.695 81.684 -103.892 78.118 -104.091 74.552 C-104.214 72.337 -104.336 70.122 -104.455 67.907 C-104.766 62.304 -105.181 56.734 -105.797 51.155 C-106.105 47.882 -106.095 44.663 -106.062 41.375 C-106.053 40.166 -106.044 38.957 -106.035 37.711 C-106.024 36.816 -106.012 35.922 -106 35 C-100.858 33.572 -96.012 32.704 -90.688 32.344 C-87.755 31.969 -84.965 31.258 -82.106 30.517 C-78.725 29.687 -75.31 29.12 -71.875 28.562 C-71.1 28.435 -70.325 28.307 -69.526 28.175 C-62.743 27.078 -55.939 26.167 -49.127 25.272 C-43.364 24.501 -37.621 23.635 -31.883 22.699 C-31.185 22.585 -30.487 22.471 -29.767 22.354 C-26.292 21.785 -22.818 21.209 -19.345 20.625 C-18.075 20.415 -16.805 20.205 -15.496 19.988 C-14.364 19.798 -13.231 19.608 -12.064 19.411 C-9.325 19.044 -6.758 18.919 -4 19 C-1.949 30.621 -1.949 30.621 -1.517 33.091 C-1.131 35.263 -0.734 37.432 -0.331 39.6 C2.042 52.482 3.71 65.436 5.375 78.425 C6.785 89.381 8.314 100.274 10.304 111.14 C11.363 117.014 12.253 122.909 13.125 128.812 C13.378 130.478 13.378 130.478 13.637 132.178 C14.594 138.628 15.314 145.039 15.75 151.546 C15.923 154.134 15.923 154.134 17 157 C17.189 158.437 17.34 159.88 17.465 161.324 C17.542 162.18 17.618 163.035 17.697 163.917 C17.777 164.831 17.856 165.745 17.938 166.688 C18.646 174.497 19.494 182.262 20.496 190.039 C21.048 194.377 21.568 198.717 22.062 203.062 C22.148 203.811 22.234 204.559 22.323 205.329 C22.727 208.996 23.059 212.647 23.242 216.332 C23.277 217.015 23.312 217.697 23.347 218.4 C23.432 220.253 23.496 222.107 23.559 223.961 C24.03 227.207 24.802 228.62 27 231 C30.432 230.736 30.432 230.736 34 230 C36.652 226.022 36.341 222.559 36.312 217.938 C36.308 216.57 36.308 216.57 36.304 215.175 C36.117 202.343 35.336 188.597 31.961 176.176 C30.99 172.592 30.778 169.143 30.586 165.438 C29.986 154.86 28.249 144.461 26.625 134 C26.01 130.001 25.398 126 24.789 122 C24.639 121.015 24.489 120.031 24.334 119.016 C22.851 109.189 21.563 99.338 20.314 89.478 C19.84 85.735 19.357 81.992 18.875 78.25 C18.728 77.1 18.581 75.95 18.43 74.766 C18.067 71.922 18.067 71.922 17 69 C16.677 66.542 16.389 64.09 16.125 61.625 C15.276 54.026 14.231 46.467 13.104 38.905 C12.468 34.566 11.902 30.242 11.504 25.875 C11.428 25.063 11.352 24.252 11.273 23.416 C11.137 21.898 11.015 20.38 10.91 18.86 C10.462 13.902 9.149 10.842 6 7 C4.167 5.513 4.167 5.513 2.25 4.625 C1.178 4.089 0.105 3.553 -1 3 C-0.67 2.01 -0.34 1.02 0 0 Z " fill="#FEFEFE" transform="translate(744,628)"/>
<path d="M0 0 C5.13 13.001 8.48 26.495 12 40 C12.238 40.911 12.475 41.822 12.72 42.761 C12.939 43.6 13.157 44.44 13.383 45.305 C13.797 46.891 14.211 48.477 14.625 50.062 C14.923 51.209 14.923 51.209 15.227 52.379 C16.354 56.68 17.57 60.94 18.871 65.192 C21.41 73.5 23.38 81.857 25.125 90.368 C26.206 95.587 27.445 100.723 28.855 105.863 C31.263 114.758 33.223 123.737 35.147 132.746 C35.756 135.591 36.376 138.433 36.996 141.275 C37.389 143.101 37.781 144.928 38.172 146.754 C38.356 147.595 38.541 148.435 38.73 149.301 C41.04 160.236 41.04 160.236 38.105 165.215 C34.571 169.019 30.247 169.626 25.312 170.562 C23.399 170.971 21.486 171.383 19.574 171.797 C18.625 171.997 17.675 172.198 16.697 172.404 C12.961 173.229 9.298 174.249 5.625 175.312 C-2.649 177.673 -10.977 179.808 -19.312 181.938 C-28.205 184.209 -37.068 186.539 -45.875 189.125 C-54.48 191.648 -63.155 193.766 -71.885 195.812 C-78.948 197.477 -85.947 199.289 -92.905 201.352 C-96.829 202.492 -100.734 203.351 -104.758 204.067 C-105.742 204.243 -106.726 204.419 -107.739 204.6 C-108.485 204.732 -109.231 204.864 -110 205 C-110.306 203.719 -110.612 202.438 -110.927 201.117 C-122.783 145.729 -122.783 145.729 -148.542 96.044 C-153.042 89.925 -155.043 83.281 -157 76 C-157.495 74.241 -157.991 72.481 -158.488 70.723 C-165.527 45.567 -165.527 45.567 -168 33 C-140.367 25.607 -112.521 19.468 -84.528 13.616 C-82.011 13.089 -79.495 12.561 -76.979 12.03 C-62.865 9.058 -48.77 6.342 -34.488 4.302 C-28.875 3.494 -23.478 2.467 -18 1 C-12.008 -0.02 -6.065 -0.096 0 0 Z " fill="#FDFDFD" transform="translate(387,486)"/>
<path d="M0 0 C6.561 -0.077 13.122 -0.129 19.684 -0.165 C21.909 -0.18 24.135 -0.2 26.361 -0.226 C48.363 -0.479 71.914 0.834 88.922 16.805 C102.084 30.811 102.515 48.987 102.312 67.125 C102.302 68.902 102.293 70.678 102.283 72.455 C102.171 86.153 101.423 99.74 100.282 113.392 C99.975 117.319 99.725 121.247 99.492 125.18 C99.43 126.216 99.43 126.216 99.366 127.273 C99.168 130.59 98.973 133.907 98.786 137.225 C98.346 144.412 97.571 151.458 96.495 158.576 C95.694 164.116 95.171 169.68 94.625 175.25 C94.155 179.842 93.68 184.433 93.204 189.025 C93.007 190.932 92.813 192.839 92.619 194.747 C89.632 223.673 84.814 252.33 80 281 C79.845 281.924 79.691 282.848 79.532 283.8 C79.121 286.242 78.705 288.682 78.285 291.121 C78.167 291.82 78.05 292.52 77.929 293.24 C77.116 297.884 77.116 297.884 76 299 C73.505 299.095 71.038 299.126 68.543 299.114 C67.762 299.114 66.982 299.114 66.178 299.114 C63.586 299.113 60.994 299.105 58.402 299.098 C56.61 299.096 54.818 299.094 53.026 299.093 C48.299 299.09 43.573 299.08 38.846 299.069 C34.027 299.058 29.208 299.054 24.389 299.049 C14.926 299.038 5.463 299.021 -4 299 C-2.694 296.143 -1.613 294.594 0.625 292.25 C17.92 272.581 20.694 243.28 19.183 218.389 C17.893 201.58 15.057 184.857 12.583 168.191 C10.302 152.766 8.797 137.74 8.812 122.125 C8.812 121.387 8.811 120.648 8.81 119.888 C8.811 109.571 9.198 99.353 10 89.062 C10.876 77.813 11.198 66.655 11.188 55.375 C11.188 54.639 11.189 53.903 11.19 53.145 C11.328 35.735 11.328 35.735 7.75 18.812 C7.533 18.137 7.315 17.461 7.091 16.765 C5.515 12.054 3.554 7.803 0.918 3.602 C0 2 0 2 0 0 Z " fill="#E6F3F9" transform="translate(780,638)"/>
<path d="M0 0 C1.029 -0.007 2.058 -0.014 3.118 -0.021 C4.236 -0.014 5.355 -0.006 6.507 0.002 C8.285 -0.004 8.285 -0.004 10.1 -0.009 C13.344 -0.016 16.587 -0.009 19.831 0.004 C23.227 0.016 26.624 0.011 30.02 0.009 C35.722 0.009 41.423 0.02 47.124 0.038 C53.716 0.059 60.308 0.063 66.9 0.056 C73.244 0.051 79.587 0.056 85.931 0.068 C88.63 0.072 91.33 0.073 94.029 0.071 C97.795 0.071 101.561 0.083 105.327 0.1 C106.449 0.097 107.571 0.095 108.727 0.092 C110.262 0.103 110.262 0.103 111.829 0.114 C113.164 0.117 113.164 0.117 114.527 0.12 C116.787 0.374 116.787 0.374 119.787 2.374 C120.053 5.191 120.053 5.191 120.037 8.937 C120.252 16.103 121.684 22.603 123.674 29.472 C123.981 30.546 124.287 31.62 124.603 32.727 C128.549 46.32 133.1 59.717 137.632 73.122 C138.853 76.739 140.065 80.359 141.278 83.979 C141.521 84.703 141.763 85.426 142.013 86.172 C142.502 87.631 142.991 89.089 143.479 90.548 C144.206 92.715 144.933 94.882 145.66 97.049 C149.551 108.646 153.405 120.254 157.203 131.882 C157.796 133.693 158.39 135.505 158.985 137.316 C159.795 139.776 160.599 142.239 161.401 144.702 C161.632 145.402 161.863 146.102 162.101 146.824 C163.339 150.653 164.232 154.388 164.787 158.374 C157.511 158.584 150.236 158.743 142.958 158.841 C139.577 158.887 136.199 158.951 132.819 159.053 C128.924 159.163 125.032 159.214 121.135 159.253 C119.935 159.3 118.734 159.346 117.498 159.394 C112.581 159.397 109.155 159.371 105.099 156.416 C102.703 154.007 102.703 154.007 100.677 151.605 C98.868 149.47 97.082 147.957 94.787 146.374 C91.66 147.759 89.547 149.369 87.162 151.812 C86.572 152.409 85.982 153.005 85.373 153.62 C83.603 155.492 83.603 155.492 81.787 158.374 C79.497 158.735 79.497 158.735 76.603 158.715 C74.982 158.714 74.982 158.714 73.328 158.714 C72.157 158.699 70.986 158.683 69.78 158.667 C67.986 158.661 67.986 158.661 66.156 158.654 C62.325 158.637 58.494 158.6 54.662 158.562 C52.07 158.547 49.477 158.533 46.885 158.521 C40.519 158.488 34.153 158.437 27.787 158.374 C27.617 157.517 27.447 156.66 27.272 155.777 C23.191 135.327 18.653 115.043 13.632 94.804 C12.563 90.461 11.543 86.107 10.537 81.749 C8.779 74.246 6.835 66.803 4.787 59.374 C4.541 58.477 4.295 57.58 4.041 56.655 C0.801 44.874 -2.536 33.128 -6.088 21.437 C-6.535 19.962 -6.535 19.962 -6.991 18.458 C-8.351 13.818 -8.351 13.818 -10.213 9.374 C-10.588 6.437 -10.588 6.437 -10.213 3.374 C-6.791 0.777 -4.254 -0.001 0 0 Z " fill="#DFEFF5" transform="translate(74.21267700195313,752.6257781982422)"/>
<path d="M0 0 C21.624 17.472 27.962 58.204 35 84 C35.481 85.76 35.481 85.76 35.971 87.556 C36.853 90.824 37.714 94.097 38.562 97.375 C38.814 98.325 39.066 99.274 39.325 100.253 C40.764 105.994 41.235 111.081 41 117 C22.409 125.597 2.668 132.333 -17 138 C-17.885 138.258 -18.77 138.516 -19.681 138.782 C-22.638 139.638 -25.599 140.478 -28.562 141.312 C-29.492 141.58 -30.421 141.847 -31.378 142.122 C-41.038 144.786 -41.038 144.786 -46 144 C-48.495 140.509 -50.016 136.733 -51.566 132.75 C-51.801 132.148 -52.036 131.546 -52.279 130.926 C-53.046 128.953 -53.805 126.977 -54.562 125 C-54.825 124.317 -55.088 123.633 -55.359 122.929 C-63.822 100.889 -71.432 78.747 -77.264 55.851 C-78.011 52.958 -78.793 50.076 -79.586 47.195 C-80.697 43.146 -81.74 39.091 -82.688 35 C-82.939 33.928 -83.19 32.855 -83.449 31.75 C-84 29 -84 29 -84 26 C-62.577 16.252 -40 9 -17.312 2.812 C-16.251 2.521 -15.189 2.23 -14.095 1.929 C-4.115 -0.697 -4.115 -0.697 0 0 Z " fill="#FDFDFD" transform="translate(222,583)"/>
<path d="M0 0 C2.629 0.254 2.629 0.254 4.289 1.477 C12.999 12.904 13.346 27.366 13.191 41.129 C13.187 41.933 13.184 42.736 13.18 43.564 C13.014 67.646 9.534 93.239 -6.371 112.254 C-6.992 113.005 -6.992 113.005 -7.626 113.771 C-11.73 118.727 -15.922 123.606 -20.168 128.441 C-25.089 134.087 -29.64 139.838 -33.809 146.066 C-34.21 146.664 -34.611 147.262 -35.024 147.878 C-39.41 154.594 -43.491 161.237 -43.504 169.449 C-43.506 170.244 -43.508 171.038 -43.51 171.856 C-43.505 172.689 -43.501 173.521 -43.496 174.379 C-43.494 175.228 -43.492 176.076 -43.49 176.95 C-43.45 182.777 -43.129 188.472 -42.371 194.254 C-47.124 196.542 -51.952 197.029 -57.121 197.691 C-64.772 198.72 -72.369 199.889 -79.952 201.34 C-83.475 201.996 -86.786 202.399 -90.371 202.254 C-91.935 191.795 -92.699 181.455 -93.029 170.886 C-93.061 169.939 -93.092 168.992 -93.125 168.016 C-93.149 167.17 -93.173 166.324 -93.198 165.452 C-93.296 163.077 -93.296 163.077 -94.371 160.254 C-95.922 137.806 -87.522 121.577 -75.121 103.504 C-63.782 86.856 -60.8 68.992 -60.371 49.254 C-57.98 48.68 -57.98 48.68 -55.371 48.254 C-52.567 50.157 -52.01 52.033 -51.371 55.254 C-51.151 58.647 -51.186 62.042 -51.184 65.441 C-51.171 66.35 -51.159 67.258 -51.146 68.193 C-51.135 73.463 -51.591 78.219 -52.922 83.323 C-53.546 86.004 -53.576 88.52 -53.371 91.254 C-52.321 92.501 -52.321 92.501 -49.996 92.629 C-48.697 92.443 -48.697 92.443 -47.371 92.254 C-38.354 79.553 -39.841 58.749 -42.051 44.105 C-42.534 41.306 -43.106 38.555 -43.715 35.777 C-45.364 26.925 -45.364 26.925 -43.184 23.254 C-41.371 22.254 -41.371 22.254 -38.871 22.316 C-35.763 23.482 -34.915 24.321 -33.371 27.254 C-30.155 43.49 -31.35 61.576 -35.496 77.496 C-36.296 80.93 -36.628 83.75 -36.371 87.254 C-35.305 88.55 -35.305 88.55 -32.809 88.316 C-32.004 88.296 -31.2 88.275 -30.371 88.254 C-19.646 65.969 -18.446 40.794 -24.496 17.02 C-25.225 13.885 -25.748 11.433 -25.371 8.254 C-23.371 6.254 -23.371 6.254 -20.496 5.754 C-17.371 6.254 -17.371 6.254 -15.184 8.504 C-9.881 18.029 -9.894 29.024 -9.98 39.606 C-9.996 41.921 -9.98 44.234 -9.961 46.549 C-9.93 70.372 -9.93 70.372 -14.371 79.254 C-14.538 82.796 -14.538 82.796 -14.371 86.254 C-13.187 87.67 -13.187 87.67 -9.809 87.316 C-8.674 87.296 -7.54 87.275 -6.371 87.254 C-4.351 81.294 -2.899 75.306 -1.746 69.129 C-1.623 68.473 -1.5 67.817 -1.374 67.141 C0.155 58.696 0.823 50.633 0.816 42.066 C0.815 40.542 0.815 40.542 0.814 38.986 C0.741 30.015 -0.166 21.628 -2.496 12.941 C-3.478 8.804 -3.594 5.487 -3.371 1.254 C-2.371 0.254 -2.371 0.254 0 0 Z " fill="#FCC7AA" transform="translate(749.37109375,440.74609375)"/>
<path d="M0 0 C5.021 0.372 8.863 3.018 13.062 5.562 C13.821 6.017 14.58 6.472 15.362 6.94 C32.592 17.337 49.56 28.916 64 43 C61.531 47.527 58.398 51.166 55 55 C53.824 56.342 52.648 57.684 51.473 59.027 C50.886 59.696 50.3 60.365 49.696 61.054 C47.246 63.865 44.839 66.71 42.438 69.562 C36.163 77.004 29.821 84.386 23.479 91.771 C21.965 93.534 20.451 95.298 18.938 97.062 C18.442 97.64 17.947 98.217 17.437 98.811 C13.583 103.306 9.767 107.833 5.955 112.363 C2.296 116.692 -1.483 120.902 -5.32 125.074 C-7.054 126.9 -7.054 126.9 -8 129 C-9.759 129.515 -9.759 129.515 -12.051 129.895 C-13.309 130.117 -13.309 130.117 -14.592 130.344 C-15.49 130.499 -16.387 130.653 -17.312 130.812 C-27.043 132.609 -35.153 135.574 -44 140 C-43.787 139.347 -43.574 138.695 -43.355 138.022 C-41.175 130.817 -40.569 124.313 -40.688 116.812 C-40.683 115.27 -40.683 115.27 -40.678 113.697 C-40.709 109.188 -40.839 105.049 -42.082 100.699 C-43.879 93.458 -41.358 87.968 -38.203 81.586 C-37.818 80.786 -37.433 79.987 -37.036 79.163 C-36.21 77.451 -35.38 75.741 -34.547 74.033 C-32.352 69.535 -30.189 65.021 -28.023 60.508 C-27.591 59.608 -27.158 58.708 -26.712 57.781 C-22.974 49.992 -19.385 42.144 -15.875 34.25 C-15.361 33.095 -14.848 31.94 -14.318 30.75 C-13.341 28.549 -12.366 26.347 -11.392 24.145 C-9.192 19.173 -6.973 14.211 -4.75 9.25 C-4.379 8.415 -4.007 7.58 -3.625 6.72 C-1.114 1.114 -1.114 1.114 0 0 Z " fill="#FCFBFC" transform="translate(790,128)"/>
<path d="M0 0 C56.1 0 112.2 0 170 0 C170 12.54 170 25.08 170 38 C164.952 40.524 163.206 41.386 158.02 41.677 C156.31 41.774 156.31 41.774 154.566 41.872 C148.601 42.086 142.644 42.156 136.676 42.161 C135.295 42.166 133.913 42.171 132.532 42.176 C128.824 42.189 125.116 42.196 121.407 42.2 C119.086 42.203 116.764 42.207 114.443 42.212 C107.163 42.225 99.883 42.235 92.604 42.239 C84.226 42.243 75.849 42.261 67.471 42.29 C60.97 42.312 54.47 42.322 47.969 42.323 C44.096 42.324 40.223 42.33 36.35 42.348 C32.714 42.364 29.079 42.366 25.443 42.358 C23.479 42.356 21.515 42.37 19.55 42.384 C17.786 42.376 17.786 42.376 15.987 42.367 C14.97 42.369 13.952 42.37 12.904 42.372 C9.405 41.924 7.017 40.804 4 39 C2.188 36.438 2.188 36.438 1 34 C0.67 33.34 0.34 32.68 0 32 C0 21.44 0 10.88 0 0 Z " fill="#FEFEFE" transform="translate(76,926)"/>
<path d="M0 0 C7.739 5.447 13.153 11.895 16 21 C16.514 24.978 16.747 28.742 16.797 32.75 C16.994 35.901 17.51 37.316 19 40 C19.422 45.315 19.542 48.749 16 53 C11.733 56.85 8.015 57.81 2.406 57.582 C-1.213 56.707 -2.78 54.895 -4.883 51.914 C-8.308 46.045 -9.131 39.697 -8 33 C-5.276 29.508 -3.852 28.395 0.402 27.488 C2.611 27.22 4.777 27.054 7 27 C6.01 23.04 6.01 23.04 5 19 C4.276 19.205 3.551 19.41 2.805 19.621 C1.838 19.891 0.871 20.16 -0.125 20.438 C-1.076 20.704 -2.028 20.971 -3.008 21.246 C-10.942 23.245 -21.475 25.333 -29.062 21.375 C-32.302 18.756 -33.96 16.59 -36 13 C-42.911 19.005 -47.064 24.61 -48.41 33.801 C-48.721 39.568 -47.898 43.633 -44.5 48.344 C-40.669 52.574 -36.464 54.865 -30.785 55.176 C-28.306 55.267 -25.827 55.35 -23.348 55.426 C-19.373 56.108 -18.528 56.946 -16 60 C-12.166 68.669 -10.897 78.321 -9.562 87.64 C-9.248 89.829 -8.916 92.015 -8.582 94.201 C-7.593 100.863 -6.886 107.263 -7 114 C12.6 104.687 32.209 94.274 46 77 C45.42 76.83 44.84 76.66 44.242 76.484 C39.332 74.961 34.843 73.548 31 70 C30.625 66.25 30.625 66.25 31 63 C38.744 60.902 44.454 65.313 51 69 C51.813 69.441 52.627 69.882 53.465 70.336 C56.631 72.266 57.884 73.629 59 77.188 C57.413 83.239 53.407 86.715 49 91 C48.157 91.829 47.314 92.658 46.445 93.512 C28.793 110.195 3.778 127.516 -21.301 127.207 C-42.39 126.027 -70.372 117.915 -86 103 C-87.509 99.982 -87.5 98.377 -87 95 C-84.951 92.051 -82.527 89.542 -80 87 C-79.196 86.175 -78.391 85.35 -77.562 84.5 C-76.717 83.675 -75.871 82.85 -75 82 C-74.393 81.301 -73.786 80.603 -73.16 79.883 C-71.195 77.703 -69.353 75.757 -67 74 C-63.062 73.938 -63.062 73.938 -60 75 C-59 76 -59 76 -58.742 78.727 C-59.041 82.519 -60.006 84.247 -62.125 87.375 C-63.074 88.788 -63.074 88.788 -64.043 90.23 C-66.621 93.879 -69.247 97.481 -72 101 C-71.219 101.249 -70.438 101.498 -69.633 101.754 C-65.917 103.029 -62.273 104.436 -58.616 105.869 C-44.4 111.412 -31.14 114.475 -16 116 C-17.48 99.301 -19.726 82.228 -24 66 C-24.918 65.902 -25.836 65.804 -26.781 65.703 C-33.886 64.837 -39.988 64.013 -46 60 C-47.052 59.299 -48.104 58.597 -49.188 57.875 C-54.24 53.458 -57.555 45.705 -58.344 39.137 C-58.844 28.101 -55.745 19.98 -48.883 11.332 C-43.94 6.082 -38.402 2.269 -32 -1 C-31.367 -1.34 -30.734 -1.681 -30.082 -2.031 C-20.743 -6.332 -8.678 -5.267 0 0 Z " fill="#3C1D2D" transform="translate(188,272)"/>
<path d="M0 0 C-0.357 0.475 -0.714 0.949 -1.082 1.438 C-24.368 30.537 -24.368 30.537 -44 62 C-93.17 62 -142.34 62 -193 62 C-192 60 -192 60 -190.112 59.213 C-189.283 58.958 -188.455 58.704 -187.602 58.441 C-186.66 58.143 -185.719 57.846 -184.749 57.539 C-183.202 57.055 -183.202 57.055 -181.625 56.562 C-172.149 53.5 -162.856 50.112 -153.625 46.375 C-152.516 45.932 -151.407 45.49 -150.264 45.033 C-138.622 40.909 -138.622 40.909 -130 33 C-127.602 32.21 -127.602 32.21 -124.41 31.449 C-123.242 31.165 -122.075 30.882 -120.871 30.589 C-118.986 30.143 -118.986 30.143 -117.062 29.688 C-114.479 29.06 -111.895 28.432 -109.312 27.801 C-108.052 27.494 -106.791 27.186 -105.492 26.87 C-101.156 25.79 -96.857 24.608 -92.562 23.375 C-86.183 21.555 -79.771 19.953 -73.312 18.438 C-64.829 16.446 -56.402 14.313 -48 12 C-46.397 11.56 -46.397 11.56 -44.761 11.112 C-38.567 9.413 -32.375 7.71 -26.184 6 C-25.005 5.675 -23.827 5.35 -22.613 5.016 C-20.12 4.315 -17.637 3.6 -15.157 2.859 C-13.92 2.493 -12.684 2.127 -11.41 1.75 C-9.744 1.247 -9.744 1.247 -8.043 0.734 C-5.22 0.053 -2.887 -0.15 0 0 Z " fill="#E8F3F7" transform="translate(406,675)"/>
<path d="M0 0 C3.656 3.268 6.439 6.318 8 11 C8.059 12.788 8.061 14.578 8.027 16.367 C8.015 17.418 8.003 18.468 7.99 19.551 C7.955 21.759 7.916 23.968 7.873 26.176 C7.857 27.756 7.857 27.756 7.84 29.367 C7.823 30.327 7.806 31.288 7.789 32.277 C7.863 35.047 7.863 35.047 9.073 37.602 C10.132 40.341 10.117 41.325 9 44 C7.848 45.6 7.848 45.6 6.418 47.129 C5.898 47.689 5.378 48.249 4.842 48.826 C4.296 49.399 3.75 49.972 3.188 50.562 C2.653 51.139 2.119 51.716 1.568 52.311 C-4.262 58.528 -4.262 58.528 -7 60 C-11.549 59.871 -14.76 57.478 -18.5 55.062 C-25.58 50.505 -30.163 48.699 -38.625 48.91 C-40.318 48.931 -42.01 48.951 -43.703 48.971 C-46.356 49.014 -49.009 49.063 -51.662 49.116 C-54.233 49.165 -56.804 49.195 -59.375 49.223 C-60.165 49.244 -60.954 49.266 -61.768 49.289 C-66.375 49.33 -69.355 48.902 -73 46 C-74.884 42.232 -73.878 37.997 -73 34 C-71.532 30.815 -69.625 28.078 -67.562 25.25 C-67.026 24.483 -66.489 23.716 -65.935 22.925 C-64.837 21.361 -63.729 19.803 -62.613 18.251 C-61.101 16.14 -59.623 14.01 -58.156 11.867 C-57.293 10.619 -56.428 9.372 -55.562 8.125 C-55.175 7.561 -54.787 6.996 -54.387 6.415 C-49.646 -0.258 -45.383 -2.634 -37.43 -4.111 C-24.962 -6.189 -10.969 -7.266 0 0 Z " fill="#FCFCFC" transform="translate(402,234)"/>
<path d="M0 0 C0.298 0.692 0.595 1.383 0.902 2.095 C2.245 5.211 3.591 8.324 4.938 11.438 C5.406 12.526 5.875 13.615 6.357 14.736 C7.029 16.288 7.029 16.288 7.715 17.871 C8.129 18.829 8.542 19.788 8.969 20.775 C9.81 22.925 9.81 22.925 11 24 C11.25 26.438 11.25 26.438 11 29 C8 31 8 31 5.938 30.812 C4 30 4 30 2 27 C1.66 27.641 1.319 28.281 0.969 28.941 C-3.146 36.285 -7.543 42.169 -15.5 45.438 C-16.737 45.716 -16.737 45.716 -18 46 C-17.175 46.949 -16.35 47.897 -15.5 48.875 C-12.772 52.736 -12.2 55.88 -12.449 60.566 C-13.392 64.731 -15.67 67.417 -19 70 C-26.633 74.586 -35.008 73.923 -43.551 72.344 C-53.524 69.625 -60.987 64.382 -67 56 C-69.494 51.606 -69.697 46.934 -69 42 C-66.611 37.13 -63.667 34.681 -59 32 C-53.482 30.161 -46.428 29.843 -40.871 31.719 C-39.188 32.688 -39.188 32.688 -36 35 C-34.526 35.926 -33.047 36.842 -31.562 37.75 C-30.374 38.499 -29.186 39.248 -28 40 C-28.495 39.072 -28.495 39.072 -29 38.125 C-30.968 31.975 -30.913 26.192 -28 20.375 C-27.34 19.261 -26.68 18.147 -26 17 C-27.671 17.309 -27.671 17.309 -29.375 17.625 C-30.571 17.749 -31.768 17.873 -33 18 C-35 16 -35 16 -35.438 13.625 C-35 11 -35 11 -33.113 9.07 C-28.896 6.266 -24.542 4.816 -19.75 3.25 C-18.846 2.934 -17.943 2.618 -17.012 2.293 C-11.106 0.33 -6.218 -0.33 0 0 Z " fill="#FE8F7D" transform="translate(584,386)"/>
<path d="M0 0 C3.069 3.797 5.144 8.211 7.242 12.598 C9.268 17.001 9.268 17.001 12.867 20.004 C14.994 20.665 14.994 20.665 18 21 C17.52 27.36 17.52 27.36 15.375 30 C11.979 31.43 9.538 30.786 6 30 C5.34 29.67 4.68 29.34 4 29 C3.758 29.519 3.515 30.039 3.266 30.574 C1.229 34.813 -0.878 38.432 -4 42 C-3.287 42.34 -2.574 42.681 -1.84 43.031 C4.653 46.317 10.252 49.581 14 56 C15.051 59.314 15.653 62.545 16 66 C15.258 66.536 14.515 67.072 13.75 67.625 C10.848 69.87 10.848 69.87 9.188 73.125 C6.809 76.252 5.287 77.07 1.445 77.75 C-11.689 79.093 -25.311 77.694 -36.195 69.582 C-40.989 65.38 -43.68 61.747 -44.438 55.25 C-44.358 50.92 -42.88 48.62 -39.922 45.543 C-35.866 42.286 -31.234 40 -26 40 C-26.159 39.426 -26.317 38.853 -26.48 38.262 C-28.236 30.62 -26.609 24.815 -23 18 C-23.606 18.325 -24.212 18.65 -24.836 18.984 C-27.43 20.202 -29.164 20.298 -32 20 C-34 18 -34 18 -34.625 15.688 C-34 13 -34 13 -31.062 10.625 C-8.921 -1.924 -8.921 -1.924 0 0 Z " fill="#FD907D" transform="translate(672,412)"/>
<path d="M0 0 C2.107 1.925 3.835 3.875 5.57 6.137 C6.095 6.803 6.62 7.47 7.16 8.156 C11.523 14.671 11.278 21.521 10.57 29.137 C10.075 30.127 10.075 30.127 9.57 31.137 C9.7 36.203 10.674 40.459 12.57 45.137 C13.562 50.468 11.469 53.962 8.676 58.34 C6.198 61.631 3.522 64.581 0.633 67.512 C0.143 68.011 -0.346 68.511 -0.851 69.026 C-5.405 73.473 -9.673 76.834 -16.205 77.551 C-21.158 77.445 -23.852 75.082 -27.652 72.16 C-37.118 65.609 -45.742 66.088 -56.867 66.762 C-60.365 66.929 -63.863 67.065 -67.363 67.176 C-68.591 67.215 -68.591 67.215 -69.843 67.256 C-76.539 67.364 -81.952 66.379 -86.986 61.686 C-91.527 56.593 -92.91 52.45 -92.734 45.77 C-91.011 30.881 -75.102 9.988 -64.305 -0.176 C-48.027 -12.866 -15.925 -12.212 0 0 Z M-58.914 9.18 C-61.915 13.055 -64.576 17.105 -67.193 21.247 C-68.598 23.395 -70.078 25.478 -71.57 27.566 C-72.115 28.342 -72.659 29.118 -73.22 29.917 C-74.292 31.444 -75.379 32.961 -76.481 34.466 C-80.132 39.744 -81.901 44.63 -81.43 51.137 C-79.571 53.764 -78.256 54.723 -75.43 56.137 C-72.749 56.139 -70.092 56.082 -67.414 55.988 C-65.753 55.951 -64.091 55.916 -62.43 55.883 C-59.822 55.828 -57.217 55.763 -54.611 55.664 C-40.539 55.147 -31.913 57.268 -20.206 65.367 C-17.618 67.357 -17.618 67.357 -14.867 67.18 C-9.695 64.967 -6.194 60.19 -2.43 56.137 C-1.838 55.536 -1.246 54.935 -0.637 54.316 C0.936 52.712 0.936 52.712 2.57 50.137 C2.585 47.457 2.585 47.457 1.57 45.137 C0.536 42.033 0.508 40.081 0.613 36.84 C0.635 35.798 0.656 34.757 0.678 33.684 C0.731 31.501 0.796 29.319 0.873 27.137 C0.983 20.501 0.559 16.516 -3.43 11.137 C-9.856 4.558 -17.045 1.99 -26.156 1.713 C-43.898 1.38 -43.898 1.38 -58.914 9.18 Z " fill="#3D202F" transform="translate(409.4296875,226.86328125)"/>
<path d="M0 0 C4.754 2.616 8.448 6.583 10.875 11.438 C11.289 17.976 11.094 24.029 9.438 30.375 C8.773 32.986 8.773 32.986 8.875 35.438 C10.804 38.137 13.139 39.633 15.875 41.438 C17.968 45.623 17.299 50.879 16.875 55.438 C14.24 61.012 9.913 64.665 4.625 67.75 C0.331 68.824 -3.739 69.126 -8.125 68.438 C-16.043 62.807 -19.965 51.82 -23.812 43.25 C-24.298 42.183 -24.783 41.117 -25.283 40.018 C-32.327 24.483 -32.327 24.483 -31.125 16.438 C-27.963 8.912 -21.985 3.613 -15.125 -0.562 C-9.807 -2.335 -5.087 -2.285 0 0 Z " fill="#3D1F2C" transform="translate(573.125,104.5625)"/>
<path d="M0 0 C5.065 0.569 10.06 1.538 15.062 2.5 C19.7 3.386 24.339 4.244 29 5 C28.977 5.536 28.954 6.072 28.93 6.625 C28.803 12.115 29.217 17.436 29.938 22.875 C31.361 33.633 32.173 44.142 32 55 C29.338 52.338 28.892 49.658 27.879 46.094 C27.082 43.656 27.082 43.656 24 42 C15.99 40.797 10.384 44.411 3.5 48.188 C2.411 48.766 1.321 49.344 0.199 49.939 C-5.152 52.803 -10.347 55.727 -15.299 59.243 C-17 60 -17 60 -19.156 59.735 C-21 59 -21 59 -21.977 57.25 C-22.672 54.837 -23.364 52.429 -24 50 C-24.208 49.282 -24.415 48.564 -24.629 47.824 C-26.977 38.841 -27.615 28.347 -23 20 C-17.873 13.299 -10.524 8.33 -3.879 3.223 C-1.868 1.692 -1.868 1.692 0 0 Z " fill="#FBFBFB" transform="translate(592,610)"/>
<path d="M0 0 C4.279 0.59 7.304 2.111 11 4.312 C12.011 4.907 13.021 5.501 14.062 6.113 C19.211 9.42 22.944 12.791 26.562 17.75 C27.306 18.735 28.05 19.72 28.816 20.734 C35.982 33.015 35.582 47.779 35.375 61.5 C35.361 63.388 35.348 65.276 35.336 67.164 C35.248 76.483 34.966 85.725 34 95 C30.315 130.95 33.676 167.191 39.224 202.763 C39.792 206.523 40.028 209.358 39 213 C38.784 214.914 38.597 216.831 38.438 218.75 C38.354 219.735 38.27 220.72 38.184 221.734 C38.093 222.856 38.093 222.856 38 224 C37.67 224 37.34 224 37 224 C36.955 223.226 36.91 222.452 36.864 221.655 C36.033 196.492 36.033 196.492 31 172 C30.851 169.919 30.74 167.835 30.648 165.75 C30.05 155.073 28.264 144.556 26.625 134 C26.01 130.001 25.398 126 24.789 122 C24.639 121.015 24.489 120.031 24.334 119.016 C22.851 109.189 21.563 99.338 20.314 89.478 C19.84 85.735 19.357 81.992 18.875 78.25 C18.655 76.525 18.655 76.525 18.43 74.766 C18.067 71.922 18.067 71.922 17 69 C16.677 66.542 16.389 64.09 16.125 61.625 C15.276 54.026 14.231 46.467 13.104 38.905 C12.468 34.566 11.902 30.242 11.504 25.875 C11.428 25.063 11.352 24.252 11.273 23.416 C11.137 21.898 11.015 20.38 10.91 18.86 C10.462 13.902 9.149 10.842 6 7 C4.167 5.513 4.167 5.513 2.25 4.625 C1.178 4.089 0.105 3.553 -1 3 C-0.67 2.01 -0.34 1.02 0 0 Z " fill="#F9F9F9" transform="translate(744,628)"/>
<path d="M0 0 C5.884 3.187 10.364 7.665 12.875 13.938 C13.766 21.027 13.655 27.203 9.652 33.254 C3.982 38.625 -2.943 40.216 -10.312 42.062 C-12.265 42.561 -14.217 43.064 -16.168 43.57 C-17.024 43.786 -17.88 44.001 -18.762 44.223 C-21.054 44.916 -22.994 45.864 -25.125 46.938 C-29.344 47.58 -30.783 47.168 -34.375 44.75 C-37.658 41.392 -39.092 39.53 -39.152 34.785 C-38.481 23.895 -34.305 12.689 -26.207 5.152 C-17.963 -1.338 -9.892 -4.494 0 0 Z " fill="#3E202E" transform="translate(914.125,262.0625)"/>
<path d="M0 0 C1.938 1 1.938 1 3 3 C2.054 29.957 -16.941 59.312 -34.062 79.062 C-42.823 88.388 -42.823 88.388 -47.688 99.812 C-46.838 103.751 -46.163 105.454 -43 108 C-37.713 108.92 -32.192 107.87 -26.945 107.023 C-25 107 -25 107 -22 109 C-21.625 111.438 -21.625 111.438 -22 114 C-25.7 118.517 -31.193 119.67 -36.789 120.328 C-43.127 120.573 -46.932 119.852 -52 116 C-56.724 111.402 -59.261 106.553 -59.5 99.938 C-59.209 89.056 -53.025 81.655 -45.816 74.201 C-27.475 55.029 -17.345 30.282 -9.887 5.18 C-7.845 0.16 -5.27 -0.659 0 0 Z " fill="#3F212E" transform="translate(631,370)"/>
<path d="M0 0 C1.666 -0.043 3.334 -0.041 5 0 C6 1 6 1 6.055 2.906 C5.591 9.6 4.05 15.728 2.08 22.108 C0.363 27.678 -1.119 33.275 -2.5 38.938 C-4.017 45.139 -5.619 51.299 -7.375 57.438 C-9.997 66.652 -12.208 75.963 -14.414 85.285 C-15.824 91.223 -17.286 97.138 -18.875 103.031 C-20.526 109.157 -22.092 115.3 -23.621 121.457 C-23.85 122.379 -24.079 123.301 -24.315 124.25 C-25.26 128.055 -26.202 131.861 -27.143 135.667 C-29.688 145.959 -32.292 156.221 -35.17 166.425 C-37.731 175.535 -40.03 184.712 -42.354 193.884 C-42.937 196.184 -43.523 198.483 -44.109 200.781 C-44.285 201.48 -44.461 202.179 -44.643 202.899 C-45.887 207.774 -45.887 207.774 -47 210 C-47.99 210 -48.98 210 -50 210 C-53.041 199.733 -50.48 189.144 -47.75 179.125 C-47.427 177.889 -47.104 176.653 -46.772 175.38 C-45.864 171.915 -44.936 168.457 -44 165 C-43.618 163.577 -43.237 162.154 -42.855 160.73 C-42.246 158.46 -41.634 156.191 -41.02 153.922 C-39.345 147.59 -37.874 141.205 -36.356 134.834 C-34.567 127.338 -32.742 119.852 -30.875 112.375 C-30.646 111.453 -30.416 110.532 -30.18 109.582 C-28.858 104.304 -27.481 99.044 -26.07 93.789 C-23.953 85.882 -21.966 77.946 -20 70 C-17.746 60.891 -15.436 51.804 -13 42.741 C-11.981 38.929 -10.988 35.11 -10 31.289 C-9.333 28.734 -8.667 26.18 -8 23.625 C-7.835 22.981 -7.67 22.336 -7.5 21.672 C-5.557 14.098 -3.433 7.036 0 0 Z " fill="#402632" transform="translate(616,696)"/>
<path d="M0 0 C5.15 1.546 8.087 4.922 11.836 8.664 C13.28 10.074 14.725 11.483 16.172 12.891 C16.886 13.589 17.6 14.287 18.335 15.007 C20.976 17.531 23.715 19.923 26.479 22.311 C29.897 25.291 33.21 28.381 36.523 31.477 C37.192 32.093 37.86 32.71 38.549 33.346 C51.32 45.273 51.32 45.273 51.711 50.164 C49.553 55.128 47.319 58.238 42.273 60.414 C33.034 59.505 25.59 49.423 19.069 43.252 C15.397 39.789 11.665 36.497 7.711 33.352 C-8.841 20.13 -8.841 20.13 -9.977 13.477 C-9.348 8.542 -5.623 0.087 0 0 Z " fill="#3C1E2C" transform="translate(658.5390625,328.9609375)"/>
<path d="M0 0 C3.069 3.797 5.144 8.211 7.242 12.598 C9.268 17.001 9.268 17.001 12.867 20.004 C14.994 20.665 14.994 20.665 18 21 C17.52 27.36 17.52 27.36 15.375 30 C11.979 31.43 9.538 30.786 6 30 C5.34 29.67 4.68 29.34 4 29 C3.758 29.519 3.515 30.039 3.266 30.574 C0.712 35.887 -1.641 40.331 -6.562 43.812 C-11.411 45.487 -15.928 45.857 -21 45 C-23.562 42.75 -23.562 42.75 -25 40 C-25.352 39.37 -25.704 38.739 -26.066 38.09 C-28.046 33.66 -27.671 28.932 -26.102 24.414 C-25.132 22.235 -24.116 20.108 -23 18 C-23.909 18.487 -23.909 18.487 -24.836 18.984 C-27.43 20.202 -29.164 20.298 -32 20 C-34 18 -34 18 -34.625 15.688 C-34 13 -34 13 -31.062 10.625 C-8.921 -1.924 -8.921 -1.924 0 0 Z " fill="#3E1F2D" transform="translate(672,412)"/>
<path d="M0 0 C0.298 0.692 0.595 1.383 0.902 2.095 C2.245 5.211 3.591 8.324 4.938 11.438 C5.406 12.526 5.875 13.615 6.357 14.736 C6.805 15.771 7.253 16.805 7.715 17.871 C8.129 18.829 8.542 19.788 8.969 20.775 C9.81 22.925 9.81 22.925 11 24 C11.25 26.438 11.25 26.438 11 29 C8 31 8 31 5.938 30.812 C4 30 4 30 2 27 C1.66 27.641 1.319 28.281 0.969 28.941 C-2.398 34.949 -5.836 40.581 -12 44 C-16.225 45.007 -19.997 45.055 -23.898 43 C-27.501 40.189 -29.676 37.214 -30.336 32.703 C-30.437 26.345 -29.243 22.473 -26 17 C-27.114 17.206 -28.227 17.413 -29.375 17.625 C-30.571 17.749 -31.768 17.873 -33 18 C-35 16 -35 16 -35.438 13.625 C-35 11 -35 11 -33.113 9.07 C-28.896 6.266 -24.542 4.816 -19.75 3.25 C-18.846 2.934 -17.943 2.618 -17.012 2.293 C-11.106 0.33 -6.218 -0.33 0 0 Z " fill="#3E1F2D" transform="translate(584,386)"/>
<path d="M0 0 C0.821 -0.026 1.642 -0.052 2.488 -0.078 C4.688 0.25 4.688 0.25 6.457 1.496 C8.762 4.782 8.134 8.411 7.688 12.25 C6.812 15.625 6.812 15.625 4.688 18.25 C-2.419 21.246 -10.398 22.397 -17.938 23.812 C-19.08 24.029 -20.222 24.245 -21.398 24.468 C-30.012 26.069 -38.582 27.485 -47.312 28.25 C-48.33 28.345 -49.347 28.441 -50.395 28.539 C-52.82 28.671 -54.932 28.719 -57.312 28.25 C-60.359 25.472 -60.522 22.64 -60.75 18.688 C-60.825 15.784 -60.516 14.55 -58.871 12.129 C-55.166 9.408 -51.387 8.704 -46.938 7.75 C-45.561 7.439 -45.561 7.439 -44.157 7.122 C-13.125 0.251 -13.125 0.251 0 0 Z " fill="#3D1E2C" transform="translate(620.3125,317.75)"/>
<path d="M0 0 C8.047 3.037 13.023 8.487 17.027 15.902 C20.808 24.422 19.599 33.541 16.453 42.07 C12.374 50.294 5.555 56.644 -3 60 C-4.663 60.349 -6.33 60.684 -8 61 C-7.984 60.013 -7.969 59.026 -7.952 58.009 C-7.897 54.278 -7.863 50.547 -7.835 46.815 C-7.82 45.213 -7.8 43.612 -7.774 42.01 C-7.555 28.319 -8.483 16.335 -15 4 C-14.67 3.01 -14.34 2.02 -14 1 C-9.733 -1.134 -4.621 -0.573 0 0 Z " fill="#F9C6A9" transform="translate(781,439)"/>
<path d="M0 0 C2.936 2.936 3.02 6.487 3.75 10.438 C5.166 17.644 6.953 24.628 9.188 31.625 C9.581 32.859 9.581 32.859 9.981 34.119 C10.965 37.85 10.965 37.85 13 41 C13.687 45.836 11.785 48.365 9.062 52.25 C8.332 53.307 7.601 54.364 6.848 55.453 C5 58 5 58 4 59 C-1.523 59.621 -5.129 57.872 -9.875 55.375 C-10.58 55.011 -11.284 54.647 -12.01 54.272 C-24.985 47.437 -24.985 47.437 -26.945 42.73 C-27.024 38.819 -25.151 36.541 -22.938 33.5 C-22.017 32.182 -21.098 30.863 -20.18 29.543 C-19.674 28.825 -19.168 28.108 -18.647 27.369 C-15.541 22.903 -12.564 18.349 -9.562 13.812 C-8.378 12.026 -7.192 10.241 -6.004 8.457 C-5.497 7.694 -4.99 6.93 -4.467 6.144 C-3.034 4.049 -1.538 2.018 0 0 Z " fill="#B5D4DE" transform="translate(126,626)"/>
<path d="M0 0 C3.891 0.341 7.266 1.251 11.008 2.336 C14.596 3.322 18.196 4.173 21.821 5.008 C35.565 8.175 49.023 12.094 62.389 16.589 C64.459 17.278 66.536 17.941 68.617 18.594 C69.251 18.796 69.886 18.999 70.539 19.207 C71.826 19.617 73.115 20.021 74.406 20.418 C80.543 22.4 80.543 22.4 82.562 25.312 C82.318 28.654 81.957 29.918 79.562 32.312 C73.351 32.01 67.851 29.758 62.062 27.625 C51.217 23.736 40.28 20.714 29.103 17.949 C25.534 17.055 21.987 16.091 18.438 15.125 C12.721 13.578 6.979 12.284 1.172 11.121 C-1.569 10.272 -2.746 9.602 -4.438 7.312 C-4.75 4.75 -4.75 4.75 -4.438 2.312 C-2.438 0.312 -2.438 0.312 0 0 Z " fill="#3E1E2F" transform="translate(117.4375,826.6875)"/>
<path d="M0 0 C2.884 1.597 5.031 3.347 7 6 C7.921 11.62 6.579 15.44 4.688 20.695 C3.558 24.482 3.156 28.115 4 32 C6.147 34.484 6.147 34.484 9 36 C12.813 38.37 12.813 38.37 13.688 41.312 C12.592 45.594 9.639 47.683 6 50 C3.375 50.875 3.375 50.875 1 50 C-3.504 44.236 -6.53 37.211 -9.75 30.688 C-10.244 29.699 -10.737 28.711 -11.246 27.693 C-16.588 16.943 -16.588 16.943 -16 10 C-12.747 3.62 -7.559 -1.543 0 0 Z " fill="#FAD775" transform="translate(568,113)"/>
<path d="M0 0 C0.653 1.706 1.297 3.415 1.938 5.125 C2.477 6.552 2.477 6.552 3.027 8.008 C4.001 11.004 4.561 13.885 5 17 C2.172 18.198 -0.661 19.383 -3.5 20.555 C-5.798 21.504 -8.09 22.467 -10.375 23.445 C-16.926 26.149 -21.908 27.601 -29 27 C-29.277 26.374 -29.554 25.747 -29.84 25.102 C-30.383 23.876 -30.383 23.876 -30.938 22.625 C-31.297 21.813 -31.657 21.001 -32.027 20.164 C-32.657 18.763 -33.313 17.374 -34 16 C-34.04 13.667 -34.043 11.333 -34 9 C-23.103 3.671 -12.335 -1.002 0 0 Z " fill="#BADAE4" transform="translate(176,528)"/>
<path d="M0 0 C3.851 2.027 6.401 4.966 8 9 C8.152 11.219 8.152 11.219 7.938 13.5 C7.885 14.253 7.832 15.006 7.777 15.781 C6.612 19.108 4.978 20.147 2 22 C-0.769 22.929 -3.572 23.507 -6.438 24.062 C-11.788 25.133 -16.114 26.459 -21 29 C-23.375 28.688 -23.375 28.688 -25 28 C-25.899 20.206 -23.236 14.496 -19 8 C-13.302 1.817 -8.541 -1.292 0 0 Z " fill="#FBD877" transform="translate(910,270)"/>
<path d="M0 0 C0.495 2.475 0.495 2.475 1 5 C-2.195 7.737 -5.024 8.764 -9.082 9.797 C-10.31 10.113 -11.538 10.429 -12.803 10.754 C-14.14 11.087 -15.476 11.419 -16.812 11.75 C-18.188 12.097 -19.564 12.445 -20.939 12.793 C-30.973 15.314 -41.04 17.694 -51.125 20 C-52.123 20.23 -52.123 20.23 -53.142 20.465 C-55.033 20.9 -56.927 21.325 -58.82 21.75 C-59.896 21.992 -60.971 22.235 -62.079 22.484 C-64.83 22.97 -67.218 23.252 -70 23 C-70.66 22.34 -71.32 21.68 -72 21 C-71.625 18.375 -71.625 18.375 -71 16 C-61.359 12.887 -51.663 10.344 -41.812 8 C-40.348 7.649 -38.883 7.298 -37.418 6.947 C-33.281 5.958 -29.14 4.979 -25 4 C-23.957 3.751 -22.915 3.502 -21.84 3.246 C-19.354 2.655 -16.865 2.074 -14.375 1.5 C-13.703 1.34 -13.031 1.18 -12.339 1.016 C-8.168 0.079 -4.268 -0.132 0 0 Z " fill="#462B3A" transform="translate(331,544)"/>
<path d="M0 0 C2 2 2 2 2 3.938 C0.453 7.128 -1.772 7.609 -5 9 C-8.158 9.943 -11.352 10.693 -14.562 11.438 C-20.182 12.788 -25.748 14.156 -31.25 15.938 C-37.604 17.958 -44.039 19.613 -50.5 21.25 C-51.552 21.521 -52.604 21.791 -53.688 22.07 C-54.688 22.32 -55.688 22.57 -56.719 22.828 C-57.615 23.054 -58.512 23.28 -59.436 23.513 C-62.062 24.012 -64.336 24.23 -67 24 C-69 22 -69 22 -69.125 19.562 C-68 17 -68 17 -64.645 15.52 C-59.379 13.687 -53.98 12.419 -48.562 11.125 C-41.288 9.348 -34.05 7.521 -26.875 5.375 C-26.203 5.175 -25.53 4.974 -24.837 4.768 C-22.223 3.983 -19.613 3.19 -17.007 2.381 C-15.091 1.786 -13.17 1.205 -11.25 0.625 C-9.618 0.118 -9.618 0.118 -7.953 -0.398 C-4.847 -1.031 -2.998 -0.975 0 0 Z " fill="#452C39" transform="translate(350,609)"/>
<path d="M0 0 C2.562 0.25 2.562 0.25 5 1 C6.383 3.766 6.112 6.01 6.098 9.102 C6.094 10.313 6.091 11.525 6.088 12.773 C6.08 14.044 6.071 15.315 6.062 16.625 C6.058 17.904 6.053 19.183 6.049 20.5 C6.037 23.667 6.021 26.833 6 30 C6.612 30.121 7.223 30.242 7.854 30.367 C13.744 31.539 19.629 32.735 25.5 34 C26.695 34.248 26.695 34.248 27.914 34.5 C33.771 35.771 33.771 35.771 36 38 C36.25 40.5 36.25 40.5 36 43 C34 45 34 45 32.137 45.188 C25.199 44.656 18.679 42.991 12 41.125 C10.601 40.74 10.601 40.74 9.175 40.348 C8.292 40.091 7.409 39.835 6.5 39.57 C5.706 39.341 4.912 39.112 4.094 38.875 C1.029 37.594 -0.527 35.946 -2 33 C-2.211 28.574 -2.186 24.145 -2.185 19.714 C-2.187 17.509 -2.206 15.303 -2.225 13.098 C-2.228 11.701 -2.23 10.303 -2.23 8.906 C-2.235 7.631 -2.239 6.355 -2.243 5.041 C-2 2 -2 2 0 0 Z " fill="#3C1F2E" transform="translate(281,377)"/>
<path d="M0 0 C0.188 2.875 0.188 2.875 0 6 C-3.099 8.066 -5.23 8.692 -8.82 9.551 C-9.988 9.835 -11.155 10.119 -12.357 10.411 C-13.601 10.709 -14.844 11.006 -16.125 11.312 C-24.298 13.307 -32.446 15.311 -40.5 17.75 C-59.476 23.479 -59.476 23.479 -65 23 C-67 21 -67 21 -67.062 18.562 C-66 16 -66 16 -63.035 14.484 C-58.598 12.719 -54.027 11.714 -49.375 10.688 C-40.893 8.749 -32.535 6.525 -24.193 4.055 C-16.035 1.655 -8.547 -0.311 0 0 Z " fill="#472A39" transform="translate(337,577)"/>
<path d="M0 0 C2.625 0.375 2.625 0.375 5 1 C9.873 16.889 10.296 33.256 10.312 49.75 C10.316 50.588 10.319 51.426 10.323 52.29 C10.328 54.688 10.318 57.086 10.301 59.484 C10.302 60.214 10.302 60.943 10.303 61.694 C10.232 66.768 10.232 66.768 8 69 C5.065 68.633 4.136 68.136 2 66 C1.729 63.479 1.729 63.479 1.691 60.262 C1.668 59.062 1.645 57.863 1.621 56.627 C1.602 55.327 1.582 54.027 1.562 52.688 C1.26 38.26 -0.026 24.087 -1.74 9.754 C-1.988 7.122 -2.191 4.638 -2 2 C-1.34 1.34 -0.68 0.68 0 0 Z " fill="#3C2030" transform="translate(377,353)"/>
<path d="M0 0 C1.184 -0.001 2.368 -0.001 3.588 -0.002 C4.816 0.018 6.044 0.038 7.309 0.059 C8.54 0.052 9.772 0.044 11.041 0.037 C21.368 0.11 21.368 0.11 24.746 3.496 C25.309 6.434 25.309 6.434 24.746 9.496 C20.831 13.411 16.689 14.8 11.496 16.246 C10.74 16.459 9.983 16.672 9.204 16.892 C3.87 18.329 -0.728 19.417 -6.254 18.496 C-9.316 16.559 -9.316 16.559 -11.254 13.496 C-11.93 10.355 -12.194 7.587 -11.254 4.496 C-7.547 0.867 -5.146 -0.009 0 0 Z " fill="#3D1E2F" transform="translate(87.25390625,306.50390625)"/>
<path d="M0 0 C7.302 4.218 15.345 11.018 20 18 C19.794 20.752 19.326 22.502 17.812 24.812 C15.075 26.606 13.25 26.292 10 26 C7.207 25.004 4.624 23.686 2 22.312 C1.314 21.973 0.628 21.633 -0.078 21.283 C-10.525 15.95 -10.525 15.95 -13 11 C-13.43 7.128 -13.317 5.475 -11.125 2.188 C-7.368 -1.68 -5.173 -1.252 0 0 Z " fill="#3C1D2E" transform="translate(104,249)"/>
<path d="M0 0 C3 2.062 3 2.062 5 5 C5.774 9.334 5.568 11.175 3.062 14.812 C-3.317 19.369 -11.252 19.363 -18.875 19.375 C-19.715 19.399 -20.556 19.424 -21.422 19.449 C-27.478 19.478 -27.478 19.478 -30.039 17.133 C-31.262 14.419 -31.588 12.94 -31 10 C-26.945 6.001 -22.48 4.463 -17.188 2.75 C-16.419 2.482 -15.65 2.214 -14.857 1.938 C-9.714 0.236 -5.419 -0.451 0 0 Z " fill="#3E2030" transform="translate(255,284)"/>
<path d="M0 0 C3.601 2.267 5.636 3.634 6.75 7.812 C4.54 17.204 -4.94 23.987 -12 30 C-14.799 31.399 -16.905 31.253 -20 31 C-21.938 29.938 -21.938 29.938 -23 28 C-22.657 22.573 -21.217 19.058 -18.312 14.5 C-17.777 13.657 -17.777 13.657 -17.23 12.798 C-8.322 -0.96 -8.322 -0.96 0 0 Z " fill="#3C1E2D" transform="translate(227,232)"/>
<path d="M0 0 C2.562 0.188 2.562 0.188 4.562 2.188 C5.222 3.754 5.815 5.35 6.367 6.957 C6.701 7.922 7.035 8.886 7.38 9.88 C7.729 10.91 8.078 11.939 8.438 13 C8.798 14.051 9.158 15.102 9.529 16.184 C12.015 23.478 14.425 30.783 16.562 38.188 C16.775 38.914 16.988 39.64 17.208 40.388 C17.918 42.819 18.617 45.253 19.312 47.688 C19.536 48.454 19.759 49.221 19.989 50.011 C22.05 57.345 22.05 57.345 21.562 61.188 C20.903 61.847 20.243 62.508 19.562 63.188 C18.243 63.188 16.923 63.188 15.562 63.188 C12.051 54.812 9.42 46.393 7.019 37.65 C4.753 29.543 2.009 21.637 -0.898 13.739 C-1.228 12.825 -1.558 11.911 -1.898 10.969 C-2.195 10.165 -2.492 9.361 -2.798 8.533 C-3.497 5.97 -3.623 3.832 -3.438 1.188 C-2.438 0.188 -2.438 0.188 0 0 Z " fill="#492E3A" transform="translate(208.4375,623.8125)"/>
<path d="M0 0 C3.972 0.709 5.672 1.797 8.5 4.625 C11.218 10.062 10.667 17.454 10.812 23.438 C10.85 24.702 10.887 25.967 10.926 27.27 C10.5 30.625 10.5 30.625 8.641 33.047 C6.5 34.625 6.5 34.625 3.938 35.062 C1.016 34.538 0.381 33.861 -1.5 31.625 C-2.983 28.623 -4.05 25.46 -5.188 22.312 C-5.508 21.47 -5.828 20.628 -6.158 19.76 C-7.797 15.29 -9.123 11.453 -8.5 6.625 C-6.009 2.549 -4.77 0.852 0 0 Z " fill="#3C212F" transform="translate(155.5,214.375)"/>
<path d="M0 0 C1.114 0.155 1.114 0.155 2.25 0.312 C1.752 4.047 1.375 6.125 -0.75 9.312 C-0.75 10.303 -0.75 11.293 -0.75 12.312 C1.014 14 1.014 14 3.25 15.5 C4.364 16.295 4.364 16.295 5.5 17.105 C6.077 17.504 6.655 17.902 7.25 18.312 C6.92 19.962 6.59 21.612 6.25 23.312 C1.693 22.874 -1.327 22.462 -4.75 19.312 C-8.117 20.706 -9.736 22.291 -11.75 25.312 C-13.07 24.982 -14.39 24.653 -15.75 24.312 C-16.438 22.625 -16.438 22.625 -16.75 20.312 C-15.768 18.635 -14.769 16.968 -13.75 15.312 C-14.913 11.824 -15.89 11.213 -18.812 9.125 C-19.546 8.595 -20.279 8.065 -21.035 7.52 C-21.601 7.121 -22.167 6.723 -22.75 6.312 C-22.42 4.663 -22.09 3.013 -21.75 1.312 C-16.339 1.737 -13.866 2.882 -9.75 6.312 C-6.559 5.57 -6.559 5.57 -4.875 2.75 C-2.75 0.312 -2.75 0.312 0 0 Z " fill="#482D39" transform="translate(368.75,555.6875)"/>
<path d="M0 0 C4.62 0 9.24 0 14 0 C16.36 10.325 17.405 19.414 17 30 C13.37 30.66 9.74 31.32 6 32 C5.902 30.612 5.804 29.223 5.703 27.793 C4.931 17.918 4.096 9.148 0 0 Z " fill="#F8F7F8" transform="translate(628,616)"/>
<path d="M0 0 C0.673 1.601 1.338 3.206 2 4.812 C2.371 5.706 2.743 6.599 3.125 7.52 C4 10 4 10 4 13 C0.772 13.983 -2.458 14.961 -5.688 15.938 C-7.056 16.354 -7.056 16.354 -8.451 16.779 C-9.337 17.047 -10.224 17.314 -11.137 17.59 C-11.948 17.836 -12.76 18.082 -13.596 18.336 C-16.049 19.014 -18.5 19.531 -21 20 C-21.838 18.378 -22.67 16.752 -23.5 15.125 C-23.964 14.22 -24.428 13.315 -24.906 12.383 C-26 10 -26 10 -26 8 C-22.232 6.659 -18.46 5.329 -14.688 4 C-13.616 3.618 -12.544 3.237 -11.439 2.844 C-10.411 2.483 -9.383 2.122 -8.324 1.75 C-7.376 1.415 -6.428 1.08 -5.452 0.734 C-3 0 -3 0 0 0 Z " fill="#B1D1DA" transform="translate(183,562)"/>
<path d="M0 0 C2.562 0.188 2.562 0.188 4.562 2.188 C5.065 4.18 5.065 4.18 5.414 6.633 C5.543 7.538 5.673 8.443 5.806 9.376 C5.932 10.345 6.058 11.314 6.188 12.312 C6.319 13.296 6.45 14.28 6.585 15.294 C7.622 23.589 8.163 31.833 7.562 40.188 C6.562 41.188 6.562 41.188 4 41.25 C3.196 41.229 2.391 41.209 1.562 41.188 C-0.561 37.694 -0.755 34.734 -0.938 30.688 C-1.204 26.021 -1.649 21.533 -2.5 16.938 C-3.444 11.688 -3.918 6.518 -3.438 1.188 C-2.438 0.188 -2.438 0.188 0 0 Z " fill="#3D1D2E" transform="translate(354.4375,372.8125)"/>
<path d="M0 0 C1.98 0 3.96 0 6 0 C8.443 3.794 8.446 7.751 8.625 12.125 C8.681 13.298 8.681 13.298 8.738 14.494 C8.991 20.349 9.1 26.203 9.125 32.062 C9.13 32.842 9.134 33.621 9.139 34.424 C9.123 39.877 9.123 39.877 8 41 C5.562 41.25 5.562 41.25 3 41 C0.55 37.325 0.55 34.333 0.375 30.062 C0.337 29.282 0.299 28.502 0.26 27.698 C-0.143 18.469 -0.087 9.235 0 0 Z " fill="#3B1E2F" transform="translate(328,377)"/>
<path d="M0 0 C3.265 1.578 6.108 3.401 8.414 6.203 C8.664 9.828 8.664 9.828 8.414 13.203 C7.414 14.203 7.414 14.203 5.352 14.578 C2.2 14.176 1.149 13.479 -1.398 11.703 C-5.767 8.791 -8.39 8.7 -13.586 9.203 C-14.679 9.43 -15.772 9.657 -16.898 9.891 C-19.586 10.203 -19.586 10.203 -21.523 9.078 C-22.586 7.203 -22.586 7.203 -22.586 4.703 C-19.337 -3.418 -6.919 -2.132 0 0 Z " fill="#3E2330" transform="translate(611.5859375,515.796875)"/>
<path d="M0 0 C3.806 0.578 6.509 1.66 9.793 3.652 C10.67 4.182 11.547 4.711 12.451 5.256 C13.806 6.088 13.806 6.088 15.188 6.938 C16.102 7.489 17.017 8.04 17.959 8.607 C24.705 12.705 24.705 12.705 27 15 C26.464 18.536 26.464 18.536 25 20 C19.172 19.679 15.607 17.945 10.938 14.75 C10.352 14.367 9.766 13.984 9.162 13.59 C5.214 10.969 1.595 8.086 -2 5 C-1.34 3.35 -0.68 1.7 0 0 Z " fill="#442734" transform="translate(778,187)"/>
<path d="M0 0 C1.268 0.124 1.268 0.124 2.562 0.25 C4.951 3.832 5.23 6.96 5.688 11.125 C5.774 11.833 5.86 12.54 5.949 13.27 C6.846 20.912 6.846 20.912 6.562 24.25 C5.902 24.91 5.243 25.57 4.562 26.25 C2.062 26.125 2.062 26.125 -0.438 25.25 C-2.295 22.354 -2.728 19.921 -2.887 16.52 C-2.93 15.635 -2.973 14.75 -3.018 13.838 C-3.053 12.922 -3.088 12.006 -3.125 11.062 C-3.172 10.135 -3.219 9.208 -3.268 8.252 C-3.493 3.203 -3.493 3.203 -3.438 1.25 C-2.438 0.25 -2.438 0.25 0 0 Z " fill="#3E1F31" transform="translate(307.4375,376.75)"/>
<path d="M0 0 C5.955 0.211 9.728 3.197 14.375 6.562 C15.111 7.083 15.847 7.603 16.605 8.139 C18.411 9.416 20.208 10.703 22 12 C21.67 13.65 21.34 15.3 21 17 C19.293 17.66 19.293 17.66 17 18 C14.738 16.996 14.738 16.996 12.312 15.438 C11.445 14.887 10.577 14.337 9.684 13.77 C8.798 13.186 7.912 12.602 7 12 C6.125 11.426 5.249 10.853 4.348 10.262 C2.222 8.855 0.107 7.435 -2 6 C-1.125 1.125 -1.125 1.125 0 0 Z " fill="#482A38" transform="translate(798,161)"/>
<path d="M0 0 C5.962 0.441 9.807 2.255 14.812 5.438 C15.48 5.845 16.147 6.253 16.834 6.674 C19.45 8.292 21.818 9.818 24 12 C23.625 14.125 23.625 14.125 23 16 C20.2 16.8 18.561 17.212 15.796 16.167 C15.074 15.727 14.353 15.286 13.609 14.832 C12.422 14.11 12.422 14.11 11.211 13.373 C10.399 12.858 9.587 12.343 8.75 11.812 C7.922 11.317 7.095 10.821 6.242 10.311 C0.226 6.578 0.226 6.578 -0.804 3.948 C-1 2 -1 2 0 0 Z " fill="#472A37" transform="translate(762,216)"/>
<path d="M0 0 C4.975 0.384 8.696 2.178 12.875 4.75 C13.468 5.085 14.061 5.42 14.672 5.766 C16.367 6.797 16.367 6.797 19 9 C19.508 11.641 19.508 11.641 19 14 C18.34 14.66 17.68 15.32 17 16 C12.928 15.657 9.844 14.033 6.312 12.062 C5.36 11.538 4.407 11.013 3.426 10.473 C1 9 1 9 -1 7 C-1.188 3.938 -1.188 3.938 -1 1 C-0.67 0.67 -0.34 0.34 0 0 Z " fill="#3C1C2D" transform="translate(110,660)"/>
<path d="M0 0 C0.33 0 0.66 0 1 0 C1.075 0.824 1.15 1.648 1.228 2.497 C1.584 6.373 1.947 10.249 2.312 14.125 C2.378 14.825 2.444 15.525 2.512 16.246 C3.469 26.338 4.608 36.377 6.173 46.397 C6.296 47.219 6.42 48.04 6.547 48.887 C6.659 49.59 6.771 50.294 6.886 51.018 C7.013 53.227 6.605 54.882 6 57 C5.784 58.914 5.597 60.831 5.438 62.75 C5.354 63.735 5.27 64.72 5.184 65.734 C5.123 66.482 5.062 67.23 5 68 C4.67 68 4.34 68 4 68 C3.955 67.226 3.91 66.452 3.864 65.655 C3.033 40.492 3.033 40.492 -2 16 C-2.128 13.326 -2.044 10.679 -2 8 C-1.67 8 -1.34 8 -1 8 C-0.67 5.36 -0.34 2.72 0 0 Z " fill="#E1DCDF" transform="translate(777,784)"/>
<path d="M0 0 C0.701 -0.017 1.403 -0.034 2.125 -0.051 C2.744 0.069 3.363 0.189 4 0.312 C6.327 3.804 6.503 5.205 6 9.312 C4.375 11.75 4.375 11.75 2 13.312 C-1.125 13.25 -1.125 13.25 -4 12.312 C-6.449 8.639 -6.315 6.649 -6 2.312 C-3.675 -0.013 -3.153 0.017 0 0 Z " fill="#3A1C2B" transform="translate(164,306.6875)"/>
<path d="M0 0 C6.999 0 10.866 3.541 16 8 C15.67 9.65 15.34 11.3 15 13 C8.747 12.734 3.437 10.548 -1 6 C-1.316 3.359 -1.316 3.359 -1 1 C-0.67 0.67 -0.34 0.34 0 0 Z " fill="#462835" transform="translate(775,203)"/>
<path d="M0 0 C3.949 0.463 6.849 1.801 10.25 3.812 C11.121 4.314 11.993 4.815 12.891 5.332 C15 7 15 7 15.887 9.09 C16 11 16 11 14.562 12.75 C13.789 13.369 13.789 13.369 13 14 C9.301 12.627 6.049 10.936 2.688 8.875 C1.804 8.336 0.921 7.797 0.012 7.242 C-0.652 6.832 -1.316 6.422 -2 6 C-1.125 1.125 -1.125 1.125 0 0 Z " fill="#492C38" transform="translate(792,176)"/>
<path d="M0 0 C6.408 0 10.371 4.06 15 8 C14.67 9.32 14.34 10.64 14 12 C12.359 12.695 12.359 12.695 10 13 C7.203 11.742 7.203 11.742 4.25 9.875 C3.265 9.274 2.28 8.674 1.266 8.055 C-1 6 -1 6 -1.391 3.32 C-1 1 -1 1 0 0 Z " fill="#462938" transform="translate(758,232)"/>
<path d="M0 0 C0.993 3.113 0.97 5.09 0.145 8.238 C-0.064 9.052 -0.272 9.866 -0.487 10.704 C-0.718 11.565 -0.949 12.426 -1.188 13.312 C-1.418 14.196 -1.649 15.079 -1.886 15.99 C-2.358 17.793 -2.833 19.595 -3.312 21.396 C-3.947 23.798 -4.557 26.206 -5.156 28.617 C-5.5 29.974 -5.843 31.331 -6.188 32.688 C-6.49 33.888 -6.793 35.088 -7.105 36.324 C-8 39 -8 39 -10 40 C-9.013 31.287 -7.106 22.876 -5 14.375 C-4.739 13.308 -4.478 12.24 -4.208 11.141 C-3.954 10.133 -3.7 9.125 -3.438 8.086 C-3.209 7.179 -2.981 6.272 -2.746 5.337 C-2 3 -2 3 0 0 Z " fill="#4D3640" transform="translate(590,794)"/>
<path d="M0 0 C0.33 0 0.66 0 1 0 C2.114 8.941 1.763 17.26 0.688 26.188 C0.557 27.413 0.426 28.638 0.291 29.9 C-0.476 36.57 -0.476 36.57 -1 39 C-1.99 39.495 -1.99 39.495 -3 40 C-2.419 26.616 -1.366 13.326 0 0 Z " fill="#E1E5EA" transform="translate(890,768)"/>
<path d="M0 0 C3.875 4.75 3.875 4.75 5 7 C-11.83 7 -28.66 7 -46 7 C-46 6.67 -46 6.34 -46 6 C-23.725 5.505 -23.725 5.505 -1 5 C-0.67 3.35 -0.34 1.7 0 0 Z " fill="#DCE5E9" transform="translate(161,730)"/>
<path d="M0 0 C0.99 0.495 0.99 0.495 2 1 C2.33 9.58 2.66 18.16 3 27 C3.99 27.33 4.98 27.66 6 28 C4.02 28 2.04 28 0 28 C0 18.76 0 9.52 0 0 Z " fill="#E2E9EF" transform="translate(287,379)"/>
<path d="M0 0 C0.66 0 1.32 0 2 0 C2.676 10.027 1.57 17.97 -3 27 C-3.66 27.66 -4.32 28.32 -5 29 C-5.33 28.34 -5.66 27.68 -6 27 C-5.258 24.793 -5.258 24.793 -4.125 22.188 C-1.736 16.666 -0.898 11.673 -0.438 5.688 C-0.354 4.619 -0.27 3.55 -0.184 2.449 C-0.123 1.641 -0.062 0.833 0 0 Z " fill="#E7EFF1" transform="translate(452,352)"/>
<path d="M0 0 C0.66 0 1.32 0 2 0 C2.66 6.93 3.32 13.86 4 21 C3.67 21 3.34 21 3 21 C2.67 24.63 2.34 28.26 2 32 C1.67 32 1.34 32 1 32 C0.322 21.315 -0.155 10.711 0 0 Z " fill="#DAD2D6" transform="translate(780,820)"/>
<path d="M0 0 C2.375 -0.125 2.375 -0.125 5 0 C5.66 0.66 6.32 1.32 7 2 C6.67 5.297 6.377 6.623 4 9 C0.464 8.464 0.464 8.464 -1 7 C-0.713 4.661 -0.381 2.326 0 0 Z " fill="#3F2432" transform="translate(175,230)"/>
<path d="M0 0 C2 3 2 3 1.907 4.882 C1.749 5.576 1.59 6.27 1.426 6.984 C1.252 7.755 1.079 8.526 0.9 9.32 C0.706 10.122 0.512 10.924 0.312 11.75 C0.138 12.536 -0.037 13.323 -0.217 14.133 C-1.352 19.032 -2.884 23.438 -5 28 C-6.254 24.412 -5.733 21.995 -4.785 18.359 C-4.374 16.754 -4.374 16.754 -3.955 15.117 C-3.661 14.006 -3.366 12.895 -3.062 11.75 C-2.772 10.623 -2.481 9.497 -2.182 8.336 C-1.463 5.555 -0.735 2.777 0 0 Z " fill="#4B333C" transform="translate(599,754)"/>
<path d="M0 0 C0.66 0 1.32 0 2 0 C0.352 5.034 -2.606 9.026 -5.625 13.312 C-6.141 14.053 -6.656 14.794 -7.188 15.557 C-8.454 17.374 -9.725 19.189 -11 21 C-11.33 20.01 -11.66 19.02 -12 18 C-10.996 16.055 -10.996 16.055 -9.438 13.875 C-8.608 12.697 -8.608 12.697 -7.762 11.496 C-7.18 10.672 -6.599 9.849 -6 9 C-4.425 6.555 -2.857 4.106 -1.297 1.652 C-0.869 1.107 -0.441 0.562 0 0 Z " fill="#E4EEF0" transform="translate(101,634)"/>
<path d="M0 0 C0 0.33 0 0.66 0 1 C-2.31 1 -4.62 1 -7 1 C-7 1.66 -7 2.32 -7 3 C-7.887 3.227 -8.774 3.454 -9.688 3.688 C-13.438 5.173 -15.256 7.104 -18 10 C-18.66 10 -19.32 10 -20 10 C-19.003 6.409 -18.113 5.088 -15.125 2.75 C-9.87 -0.193 -5.937 -0.099 0 0 Z " fill="#493141" transform="translate(84,913)"/>
<path d="M0 0 C7.044 -0.8 12.764 1.877 19 5 C19.66 5.66 20.32 6.32 21 7 C20.01 7.495 20.01 7.495 19 8 C16.484 7.137 14.073 6.215 11.625 5.188 C10.952 4.914 10.279 4.64 9.586 4.357 C6.328 3.02 3.118 1.639 0 0 Z " fill="#DCE4E8" transform="translate(813,254)"/>
<path d="M0 0 C1.65 0 3.3 0 5 0 C4.402 0.474 3.804 0.949 3.188 1.438 C0.209 4.927 -0.769 8.636 -2 13 C-2.66 13 -3.32 13 -4 13 C-3.409 8.153 -2.021 4.393 0 0 Z " fill="#4A303B" transform="translate(616,696)"/>
<path d="M0 0 C0.33 0 0.66 0 1 0 C1 6.27 1 12.54 1 19 C0.34 19 -0.32 19 -1 19 C-2.283 15.15 -2.066 12.053 -2 8 C-1.67 8 -1.34 8 -1 8 C-0.67 5.36 -0.34 2.72 0 0 Z " fill="#BEB2B8" transform="translate(777,784)"/>
<path d="M0 0 C6.005 0.649 11.401 2.858 17 5 C17 5.66 17 6.32 17 7 C11.071 5.833 5.612 4.245 0 2 C0 1.34 0 0.68 0 0 Z " fill="#DBE2E7" transform="translate(129,377)"/>
<path d="M0 0 C-1.477 3.452 -3.438 5.65 -6.125 8.25 C-6.849 8.956 -7.574 9.663 -8.32 10.391 C-8.875 10.922 -9.429 11.453 -10 12 C-10.66 11.34 -11.32 10.68 -12 10 C-10.381 8.327 -8.755 6.662 -7.125 5 C-6.22 4.072 -5.315 3.144 -4.383 2.188 C-2 0 -2 0 0 0 Z " fill="#412535" transform="translate(169,898)"/>
<path d="M0 0 C0.33 0 0.66 0 1 0 C1.254 3.29 1.474 6.582 1.688 9.875 C1.76 10.812 1.833 11.749 1.908 12.715 C1.963 13.611 2.018 14.507 2.074 15.43 C2.132 16.257 2.189 17.085 2.249 17.937 C2.167 18.618 2.085 19.299 2 20 C1.01 20.66 0.02 21.32 -1 22 C-0.67 14.74 -0.34 7.48 0 0 Z " fill="#B6B7C1" transform="translate(879,527)"/>
<path d="M0 0 C0.684 1.641 0.684 1.641 1 4 C-0.215 6.797 -0.215 6.797 -1.938 9.75 C-2.503 10.735 -3.069 11.72 -3.652 12.734 C-4.097 13.482 -4.542 14.23 -5 15 C-5.66 14.67 -6.32 14.34 -7 14 C-5.941 10.597 -4.991 7.986 -3 5 C-2.34 5 -1.68 5 -1 5 C-0.67 3.35 -0.34 1.7 0 0 Z " fill="#E4EEF0" transform="translate(427,405)"/>
<path d="M0 0 C1.32 0.33 2.64 0.66 4 1 C4 5.95 4 10.9 4 16 C3.67 16 3.34 16 3 16 C2.927 14.896 2.927 14.896 2.852 13.77 C2.777 12.794 2.702 11.818 2.625 10.812 C2.555 9.85 2.486 8.887 2.414 7.895 C1.998 4.985 1.201 2.671 0 0 Z " fill="#EBFAFD" transform="translate(189,753)"/>
<path d="M0 0 C1.32 0 2.64 0 4 0 C4 0.66 4 1.32 4 2 C4.866 2.34 4.866 2.34 5.75 2.688 C8.566 4.33 10.081 6.395 12 9 C11.34 9.66 10.68 10.32 10 11 C9.529 10.457 9.059 9.915 8.574 9.355 C7.952 8.64 7.329 7.925 6.688 7.188 C6.073 6.48 5.458 5.772 4.824 5.043 C3.267 3.299 1.673 1.632 0 0 Z " fill="#DFE5E8" transform="translate(405,224)"/>
<path d="M0 0 C0.66 0.33 1.32 0.66 2 1 C0.925 2.299 -0.16 3.589 -1.25 4.875 C-1.853 5.594 -2.457 6.314 -3.078 7.055 C-4.971 8.971 -6.537 9.964 -9 11 C-6.361 6.797 -3.636 3.434 0 0 Z " fill="#EAC1A4" transform="translate(561,294)"/>
<path d="M0 0 C-1.423 0.897 -1.423 0.897 -2.875 1.812 C-6.14 3.816 -6.14 3.816 -8 7 C-8.66 7 -9.32 7 -10 7 C-9.812 4.688 -9.812 4.688 -9 2 C-5.817 -0.581 -3.89 -1.585 0 0 Z " fill="#52333B" transform="translate(599,516)"/>
<path d="M0 0 C0.33 0 0.66 0 1 0 C1.33 6.6 1.66 13.2 2 20 C-1.45 15.4 -1.223 13.118 -0.688 7.75 C-0.626 7.005 -0.565 6.26 -0.502 5.492 C-0.349 3.66 -0.177 1.83 0 0 Z " fill="#7A6472" transform="translate(646,779)"/>
<path d="M0 0 C0.33 0.99 0.66 1.98 1 3 C-0.434 5.262 -0.434 5.262 -2.438 7.688 C-3.096 8.496 -3.755 9.304 -4.434 10.137 C-4.951 10.752 -5.467 11.366 -6 12 C-6.33 11.01 -6.66 10.02 -7 9 C-5.566 6.738 -5.566 6.738 -3.562 4.312 C-2.904 3.504 -2.245 2.696 -1.566 1.863 C-1.049 1.248 -0.533 0.634 0 0 Z " fill="#E7EFF1" transform="translate(437,392)"/>
<path d="M0 0 C2 3 2 3 1.688 6.562 C1 10 1 10 0 12 C-0.66 12 -1.32 12 -2 12 C-1 3.429 -1 3.429 0 0 Z " fill="#DBDEE3" transform="translate(871,357)"/>
<path d="M0 0 C1.491 0.292 1.491 0.292 3.012 0.59 C4.151 0.824 4.151 0.824 5.312 1.062 C5.312 1.723 5.312 2.382 5.312 3.062 C3.541 2.948 1.77 2.821 0 2.688 C-0.986 2.618 -1.972 2.548 -2.988 2.477 C-5.688 2.062 -5.688 2.062 -8.688 0.062 C-5.212 -1.096 -3.551 -0.71 0 0 Z " fill="#D8DFE5" transform="translate(154.6875,383.9375)"/>
<path d="M0 0 C0 0.66 0 1.32 0 2 C-3.63 3.98 -7.26 5.96 -11 8 C-11 7.01 -11 6.02 -11 5 C-9.35 4.67 -7.7 4.34 -6 4 C-6 3.34 -6 2.68 -6 2 C-2.25 0 -2.25 0 0 0 Z " fill="#E4ECEE" transform="translate(209,370)"/>
<path d="M0 0 C0.66 0.33 1.32 0.66 2 1 C0.907 2.342 -0.2 3.673 -1.312 5 C-2.235 6.114 -2.235 6.114 -3.176 7.25 C-5 9 -5 9 -8 9 C-5.36 6.03 -2.72 3.06 0 0 Z " fill="#ECCE74" transform="translate(897,272)"/>
<path d="M0 0 C0.66 0.66 1.32 1.32 2 2 C1.977 4.383 1.977 4.383 1.625 7.125 C1.514 8.035 1.403 8.945 1.289 9.883 C1.194 10.581 1.098 11.28 1 12 C0.34 12 -0.32 12 -1 12 C-1.027 10.188 -1.046 8.375 -1.062 6.562 C-1.074 5.553 -1.086 4.544 -1.098 3.504 C-1 1 -1 1 0 0 Z " fill="#E3EBF0" transform="translate(140,302)"/>
<path d="M0 0 C0.66 0 1.32 0 2 0 C2.293 6.055 2.293 6.055 2 8 C1.01 8.66 0.02 9.32 -1 10 C-0.67 6.7 -0.34 3.4 0 0 Z " fill="#DEE0E5" transform="translate(871,917)"/>
<path d="M0 0 C2.679 1.339 2.75 2.517 3.688 5.312 C4.095 6.482 4.095 6.482 4.512 7.676 C5.038 10.183 4.818 11.601 4 14 C3.327 12.231 2.662 10.46 2 8.688 C1.629 7.701 1.257 6.715 0.875 5.699 C0 3 0 3 0 0 Z " fill="#CDEAF5" transform="translate(255,909)"/>
<path d="M0 0 C0.99 0.33 1.98 0.66 3 1 C-1.625 5.875 -1.625 5.875 -5 7 C-4.619 4.237 -4.164 3.159 -2.125 1.188 C-1.424 0.796 -0.722 0.404 0 0 Z " fill="#BDDBE3" transform="translate(213,754)"/>
<path d="M0 0 C2 2 2 2 2.125 4.625 C2.084 5.409 2.043 6.192 2 7 C3.65 7 5.3 7 7 7 C7 7.33 7 7.66 7 8 C4.69 8 2.38 8 0 8 C-0.8 4.713 -1.097 3.29 0 0 Z " fill="#F2F9FC" transform="translate(115,728)"/>
<path d="M0 0 C-3.285 2.19 -6.207 2.998 -10 4 C-9 1 -9 1 -6.688 -0.25 C-3.901 -1.028 -2.666 -0.987 0 0 Z " fill="#462838" transform="translate(160,600)"/>
<path d="M0 0 C5.192 -0.212 9.127 0.409 14 2 C14 2.33 14 2.66 14 3 C9.167 3.083 4.763 2.953 0 2 C0 1.34 0 0.68 0 0 Z " fill="#584153" transform="translate(767,597)"/>
<path d="M0 0 C4.677 1.477 4.677 1.477 6.312 4.125 C6.539 4.744 6.766 5.362 7 6 C5.35 6 3.7 6 2 6 C1.34 4.02 0.68 2.04 0 0 Z " fill="#DFE2E5" transform="translate(535,577)"/>
<path d="M0 0 C1.65 0.33 3.3 0.66 5 1 C4.073 2.175 3.133 3.34 2.188 4.5 C1.665 5.15 1.143 5.799 0.605 6.469 C-1 8 -1 8 -4 8 C-2.625 6 -2.625 6 -1 4 C-0.34 4 0.32 4 1 4 C0.67 2.68 0.34 1.36 0 0 Z " fill="#F5FAFB" transform="translate(139,567)"/>
<path d="M0 0 C2.062 0.438 2.062 0.438 4 1 C3.519 1.388 3.038 1.776 2.543 2.176 C0.543 4.541 0.511 6.127 0.312 9.188 C0.247 10.089 0.181 10.99 0.113 11.918 C0.057 12.949 0.057 12.949 0 14 C-0.33 14 -0.66 14 -1 14 C-1.027 11.854 -1.046 9.708 -1.062 7.562 C-1.074 6.368 -1.086 5.173 -1.098 3.941 C-1 1 -1 1 0 0 Z " fill="#DCA48B" transform="translate(690,489)"/>
<path d="M0 0 C0.66 0.33 1.32 0.66 2 1 C2.125 3.375 2.125 3.375 2 6 C1.34 6.66 0.68 7.32 0 8 C-1.32 8 -2.64 8 -4 8 C-4 7.34 -4 6.68 -4 6 C-3.01 5.34 -2.02 4.68 -1 4 C-0.276 1.941 -0.276 1.941 0 0 Z " fill="#41263A" transform="translate(312,395)"/>
<path d="M0 0 C0.99 0.495 0.99 0.495 2 1 C2.855 5.663 3.3 9.376 2 14 C1.67 14 1.34 14 1 14 C0.67 9.38 0.34 4.76 0 0 Z " fill="#D5DBE2" transform="translate(383,354)"/>
<path d="M0 0 C0 0.66 0 1.32 0 2 C-0.907 2.289 -1.815 2.577 -2.75 2.875 C-5.322 3.765 -7.613 4.715 -10 6 C-7.823 0.976 -5.414 -0.293 0 0 Z " fill="#4B3145" transform="translate(102,248)"/>
<path d="M0 0 C-3.423 3.15 -6.443 3.562 -11 4 C-4.149 -1.383 -4.149 -1.383 0 0 Z " fill="#DEE0E4" transform="translate(761,951)"/>
<path d="M0 0 C2 1 2 1 2.625 2.562 C3.164 6.064 3.059 9.458 3 13 C2.67 13 2.34 13 2 13 C0.243 8.496 -0.193 4.824 0 0 Z " fill="#CFD3D8" transform="translate(351,391)"/>
<path d="M0 0 C0.33 0 0.66 0 1 0 C1.66 5.28 2.32 10.56 3 16 C2.01 16 1.02 16 0 16 C0 10.72 0 5.44 0 0 Z " fill="#F4FAFB" transform="translate(169,372)"/>
<path d="M0 0 C0.33 0 0.66 0 1 0 C1.222 1.936 1.427 3.874 1.625 5.812 C1.741 6.891 1.857 7.97 1.977 9.082 C2 12 2 12 0 15 C-0.849 9.624 -1.002 5.346 0 0 Z " fill="#BCB1B6" transform="translate(564,893)"/>
<path d="M0 0 C0.33 0 0.66 0 1 0 C1.081 1.457 1.139 2.916 1.188 4.375 C1.222 5.187 1.257 5.999 1.293 6.836 C1.196 7.55 1.1 8.264 1 9 C0.01 9.66 -0.98 10.32 -2 11 C-1.859 9.541 -1.712 8.083 -1.562 6.625 C-1.481 5.813 -1.4 5.001 -1.316 4.164 C-1 2 -1 2 0 0 Z " fill="#3E2635" transform="translate(869,861)"/>
<path d="M0 0 C1.207 0.031 1.207 0.031 2.438 0.062 C2.108 1.383 1.777 2.702 1.438 4.062 C0.447 3.732 -0.543 3.403 -1.562 3.062 C-2.553 3.722 -3.543 4.383 -4.562 5.062 C-3.438 0.084 -3.438 0.084 0 0 Z " fill="#4F3746" transform="translate(368.5625,555.9375)"/>
<path d="M0 0 C0.33 0.99 0.66 1.98 1 3 C-0.938 6.188 -0.938 6.188 -3 9 C-3.66 8.67 -4.32 8.34 -5 8 C-3.814 4.625 -2.724 2.353 0 0 Z " fill="#E3EDEE" transform="translate(468,228)"/>
<path d="M0 0 C0.99 0.33 1.98 0.66 3 1 C2.01 1.495 2.01 1.495 1 2 C1.33 2.99 1.66 3.98 2 5 C0.35 6.65 -1.3 8.3 -3 10 C-2.01 6.7 -1.02 3.4 0 0 Z " fill="#DEE3E8" transform="translate(794,905)"/>
<path d="M0 0 C0.33 0 0.66 0 1 0 C1.09 5.152 0.847 9.919 0 15 C-0.33 15 -0.66 15 -1 15 C-1.915 9.438 -2.321 5.324 0 0 Z " fill="#B5B9C0" transform="translate(877,778)"/>
<path d="M0 0 C2.234 4.033 2.545 7.45 3 12 C0.894 10.292 0.062 9.479 -0.293 6.738 C-0.258 5.938 -0.223 5.137 -0.188 4.312 C-0.16 3.504 -0.133 2.696 -0.105 1.863 C-0.071 1.248 -0.036 0.634 0 0 Z " fill="#CDD4D8" transform="translate(194,771)"/>
<path d="M0 0 C2 3 2 3 1.625 6.188 C1.419 7.116 1.212 8.044 1 9 C0.34 9 -0.32 9 -1 9 C-1.33 9.99 -1.66 10.98 -2 12 C-1 3.429 -1 3.429 0 0 Z " fill="#57434D" transform="translate(599,754)"/>
<path d="M0 0 C0.99 0.495 0.99 0.495 2 1 C3.283 4.85 3.066 7.947 3 12 C2.67 12 2.34 12 2 12 C0.409 7.823 -0.213 4.468 0 0 Z " fill="#513F55" transform="translate(788,661)"/>
<path d="M0 0 C0.268 0.577 0.536 1.155 0.812 1.75 C1.939 4.065 1.939 4.065 3.688 6.062 C4.121 6.702 4.554 7.341 5 8 C4.67 8.99 4.34 9.98 4 11 C1.355 7.875 0.156 4.912 -1 1 C-0.67 0.67 -0.34 0.34 0 0 Z " fill="#E8EDF2" transform="translate(866,395)"/>
<path d="M0 0 C1 3 1 3 0.223 4.824 C-0.852 6.549 -1.926 8.275 -3 10 C-3.66 9.34 -4.32 8.68 -5 8 C-1.125 1.125 -1.125 1.125 0 0 Z " fill="#E4EDED" transform="translate(132,579)"/>
<path d="M0 0 C0.66 0.66 1.32 1.32 2 2 C-1.465 4.97 -1.465 4.97 -5 8 C-3.952 3.808 -3.082 2.784 0 0 Z " fill="#D1D8DA" transform="translate(108,356)"/>
<path d="M0 0 C1.32 0 2.64 0 4 0 C4 0.66 4 1.32 4 2 C1.095 4.042 -0.401 5 -4 5 C-2.25 2.5 -2.25 2.5 0 0 Z " fill="#4F2F39" transform="translate(656,329)"/>
<path d="M0 0 C1 3 1 3 0.223 4.824 C-0.852 6.549 -1.926 8.275 -3 10 C-3.66 9.34 -4.32 8.68 -5 8 C-1.125 1.125 -1.125 1.125 0 0 Z " fill="#E7EEF0" transform="translate(136,285)"/>
<path d="M0 0 C2.31 0.66 4.62 1.32 7 2 C7 2.66 7 3.32 7 4 C2.545 3.01 2.545 3.01 -2 2 C-1.34 1.34 -0.68 0.68 0 0 Z " fill="#CDD8DE" transform="translate(184,843)"/>
<path d="M0 0 C0 0.99 0 1.98 0 3 C-2.875 3.625 -2.875 3.625 -6 4 C-6.66 3.34 -7.32 2.68 -8 2 C-2.25 0 -2.25 0 0 0 Z " fill="#432334" transform="translate(212,582)"/>
<path d="M0 0 C0 4.39 -2.128 5.769 -5 9 C-5.66 8.67 -6.32 8.34 -7 8 C-4.69 5.36 -2.38 2.72 0 0 Z " fill="#4C3B45" transform="translate(143,569)"/>
<path d="M0 0 C0.99 0.33 1.98 0.66 3 1 C3.625 3.875 3.625 3.875 4 7 C3.34 7.66 2.68 8.32 2 9 C1.34 6.03 0.68 3.06 0 0 Z " fill="#D1D7E1" transform="translate(413,525)"/>
<path d="M0 0 C3.375 0.312 3.375 0.312 7 1 C7.66 1.99 8.32 2.98 9 4 C4.545 3.01 4.545 3.01 0 2 C0 1.34 0 0.68 0 0 Z " fill="#D1D6DA" transform="translate(687,167)"/>
<path d="M0 0 C0.66 0 1.32 0 2 0 C1.469 3.821 0.503 6.062 -2 9 C-2.33 8.34 -2.66 7.68 -3 7 C-2.064 4.64 -1.067 2.304 0 0 Z " fill="#E5EFF0" transform="translate(762,152)"/>
<path d="M0 0 C2.64 0.33 5.28 0.66 8 1 C8 1.66 8 2.32 8 3 C5.36 2.67 2.72 2.34 0 2 C0 1.34 0 0.68 0 0 Z " fill="#CFD9DF" transform="translate(128,828)"/>
<path d="M0 0 C3.367 1.393 4.986 2.979 7 6 C3.757 5.441 2.069 4.587 0 2 C0 1.34 0 0.68 0 0 Z " fill="#51313E" transform="translate(535,558)"/>
<path d="M0 0 C0.66 0.99 1.32 1.98 2 3 C0.35 4.65 -1.3 6.3 -3 8 C-3 4.424 -1.912 2.947 0 0 Z " fill="#DEE5E9" transform="translate(420,280)"/>
</svg>