<svg version="1.1" xmlns="http://www.w3.org/2000/svg" width="1024" height="1024">
<path d="M0 0 C337.92 0 675.84 0 1024 0 C1024 337.92 1024 675.84 1024 1024 C686.08 1024 348.16 1024 0 1024 C0 686.08 0 348.16 0 0 Z " fill="#FCFBFE" transform="translate(0,0)"/>
<path d="M0 0 C0.271 0.904 0.271 0.904 0.547 1.826 C3.846 12.806 7.164 23.771 10.87 34.623 C12.286 38.786 13.605 42.97 14.879 47.18 C16.974 54.026 19.323 60.765 21.75 67.5 C22.189 68.721 22.628 69.942 23.08 71.201 C41.386 121.935 64.344 168.375 94.438 213.188 C109.28 235.304 122.677 257.559 128 284 C128.172 284.724 128.344 285.448 128.521 286.194 C130.502 295.349 130.305 304.496 130.25 313.812 C130.247 315.103 130.247 315.103 130.245 316.42 C130.212 329.729 129.545 342.768 128 356 C133.94 356 139.88 356 146 356 C146.266 353.988 146.531 351.976 146.805 349.902 C147.884 342.364 149.436 334.989 151.125 327.562 C151.752 324.763 152.373 321.962 152.992 319.16 C153.154 318.431 153.315 317.701 153.482 316.95 C155.495 307.819 157.374 298.66 159.25 289.5 C159.416 288.691 159.583 287.882 159.754 287.048 C163.028 271.111 166.169 255.19 168.375 239.062 C168.478 238.316 168.581 237.569 168.688 236.799 C171.725 214.511 173.433 192.065 175.252 169.652 C175.606 165.343 175.967 161.047 176.53 156.76 C177.463 149.293 177.715 141.764 178.062 134.25 C178.13 132.814 178.13 132.814 178.198 131.349 C179.825 94.943 179.171 58.432 179 22 C180.98 21.67 182.96 21.34 185 21 C187.223 25.45 187.284 29.618 187.259 34.486 C187.264 35.754 187.264 35.754 187.269 37.047 C187.278 39.852 187.272 42.656 187.266 45.461 C187.267 47.445 187.269 49.43 187.271 51.414 C187.274 55.599 187.27 59.784 187.261 63.969 C187.25 69.207 187.256 74.445 187.268 79.683 C187.317 105.853 186.681 131.884 185 158 C184.928 159.142 184.857 160.283 184.783 161.46 C184.449 166.749 184.086 172.034 183.677 177.318 C183.492 179.726 183.318 182.134 183.145 184.543 C182.559 192.42 181.773 200.175 180.482 207.974 C179.661 213.128 179.13 218.313 178.562 223.5 C176.851 238.656 175.115 253.782 171.738 268.672 C170.972 272.124 170.32 275.583 169.688 279.062 C164.931 304.842 159.359 330.566 153 356 C180.06 356 207.12 356 235 356 C235 356.99 235 357.98 235 359 C207.61 359 180.22 359 152 359 C151.67 362.96 151.34 366.92 151 371 C150.381 373.346 149.719 375.682 149 378 C148.423 380.983 147.991 383.984 147.562 386.992 C147.437 387.855 147.311 388.718 147.182 389.607 C146.917 391.438 146.655 393.268 146.396 395.099 C146.01 397.806 145.611 400.51 145.211 403.215 C141.88 426.16 140.665 448.889 140.739 472.069 C140.748 475.42 140.744 478.771 140.732 482.123 C140.693 495.576 140.809 508.709 143 522 C143.22 523.677 143.432 525.356 143.633 527.035 C143.758 528.061 143.758 528.061 143.887 529.107 C143.965 529.753 144.044 530.398 144.125 531.062 C144.211 531.742 144.298 532.422 144.387 533.123 C144.916 537.504 145 541.536 145 546 C167.77 546 190.54 546 214 546 C213.67 546.99 213.34 547.98 213 549 C190.89 549 168.78 549 146 549 C147.476 558.783 147.476 558.783 149.184 568.508 C149.49 570.128 149.49 570.128 149.802 571.781 C150.012 572.885 150.221 573.988 150.438 575.125 C152.148 584.209 153.755 593.294 155.099 602.44 C155.637 606.34 155.637 606.34 157 610 C157.535 613.597 157.962 617.203 158.402 620.812 C158.798 623.827 159.346 626.778 159.969 629.754 C161.137 635.449 161.88 641.167 162.562 646.938 C162.693 648.022 162.823 649.107 162.957 650.224 C163.831 657.804 164.43 665.361 164.709 672.986 C164.821 675.989 164.98 678.887 165.505 681.849 C166.008 685.051 166.127 688.047 166.129 691.286 C166.133 692.512 166.136 693.738 166.139 695.002 C166.136 696.975 166.136 696.975 166.133 698.988 C166.133 700.374 166.134 701.759 166.136 703.145 C166.137 706.051 166.135 708.957 166.13 711.863 C166.125 715.536 166.128 719.209 166.134 722.883 C166.174 752.668 166.174 752.668 165 766 C164.931 766.806 164.862 767.612 164.791 768.443 C164.21 775.134 163.555 781.818 162.875 788.5 C162.769 789.544 162.664 790.587 162.555 791.663 C160.848 808.368 158.759 825.003 156.375 841.625 C156.229 842.648 156.083 843.67 155.933 844.724 C154.445 855.089 152.817 865.374 150.679 875.626 C149.366 882.15 148.434 888.738 147.451 895.318 C146.666 900.412 145.8 905.149 144 910 C143.599 911.619 143.221 913.244 142.875 914.875 C142.707 915.656 142.54 916.437 142.367 917.242 C142.246 917.822 142.125 918.402 142 919 C139.69 919 137.38 919 135 919 C134.827 913.079 135.422 907.772 136.609 901.98 C136.953 900.232 137.298 898.484 137.642 896.736 C137.823 895.83 138.004 894.925 138.191 893.992 C141.637 876.717 144.672 859.463 147 842 C147.316 839.707 147.633 837.414 147.949 835.121 C150.13 819.027 151.942 802.896 153.688 786.75 C153.796 785.759 153.905 784.769 154.017 783.748 C156.305 762.784 157.238 742.025 157.25 720.938 C157.251 719.833 157.251 718.729 157.252 717.591 C157.21 674.251 152.55 631.93 143.855 589.504 C142.129 581.059 140.552 572.617 139.258 564.094 C139.13 563.257 139.001 562.42 138.869 561.558 C138.696 560.38 138.696 560.38 138.52 559.178 C138.419 558.49 138.318 557.803 138.214 557.094 C137.974 554.741 138 552.366 138 550 C133.71 550 129.42 550 125 550 C125.508 551.044 126.016 552.088 126.539 553.164 C130.622 561.805 133.944 570.39 136.438 579.625 C136.684 580.536 136.93 581.447 137.184 582.385 C139.916 592.937 140.206 603.091 140.188 613.938 C140.186 615.05 140.186 615.05 140.184 616.186 C140.114 637.543 140.114 637.543 138 648 C137.822 648.883 137.645 649.767 137.461 650.677 C132.687 673.457 123.274 704.721 103.314 719.226 C98.734 722.584 97.118 725.21 96.242 730.799 C96.138 731.664 96.033 732.528 95.926 733.418 C95.724 734.794 95.724 734.794 95.517 736.199 C95.086 739.192 94.698 742.188 94.312 745.188 C94.023 747.273 93.732 749.358 93.439 751.443 C92.581 757.623 91.785 763.81 91 770 C90.78 771.707 90.559 773.413 90.339 775.12 C87.98 793.533 86.323 811.954 85.222 830.487 C85.005 833.925 84.745 837.358 84.473 840.793 C82.481 866.818 82.347 892.912 82 919 C79.36 919 76.72 919 74 919 C73.131 862.728 76.768 807.219 84.59 751.484 C84.778 750.131 84.778 750.131 84.969 748.75 C85.089 747.912 85.209 747.074 85.332 746.21 C85.437 745.468 85.542 744.727 85.65 743.963 C86 742 86 742 87 739 C87.04 736.667 87.044 734.333 87 732 C86.08 732.471 85.159 732.941 84.211 733.426 C64.531 743.238 39.942 746.428 18.69 739.333 C-3.142 731.172 -20.542 716.082 -31 695 C-34.153 687.899 -37.209 680.575 -39 673 C-38.426 678.48 -37.394 683.576 -35.875 688.875 C-31.798 703.727 -29.001 718.902 -26 734 C-25.79 735.051 -25.579 736.102 -25.362 737.185 C-21.736 755.366 -18.893 773.679 -16.212 792.02 C-15.483 796.957 -14.688 801.878 -13.844 806.797 C-10.588 825.932 -8.328 845.068 -6.454 864.385 C-6.023 868.805 -5.557 873.221 -5.086 877.637 C-3.628 891.468 -2.521 905.088 -3 919 C-5.97 919 -8.94 919 -12 919 C-12.083 918.203 -12.167 917.406 -12.252 916.584 C-13.046 908.982 -13.84 901.38 -14.634 893.777 C-15.042 889.871 -15.45 885.965 -15.858 882.059 C-15.937 881.302 -16.016 880.545 -16.098 879.766 C-16.256 878.251 -16.414 876.736 -16.572 875.221 C-16.961 871.502 -17.35 867.783 -17.74 864.064 C-18.984 852.2 -18.984 852.2 -19.567 846.331 C-20.717 834.836 -22.281 823.423 -24 812 C-24.125 811.167 -24.249 810.335 -24.378 809.477 C-30.027 771.844 -36.301 734.206 -45.247 697.202 C-46.609 691.414 -47.852 685.599 -49.108 679.787 C-52.835 662.561 -56.675 645.372 -61.353 628.375 C-62.141 625.482 -62.907 622.583 -63.676 619.684 C-67.231 606.403 -71.078 593.287 -75.438 580.25 C-75.659 579.587 -75.88 578.924 -76.107 578.24 C-77.757 571.665 -77.757 571.665 -81 566 C-81.485 569.103 -81.962 572.208 -82.438 575.312 C-82.572 576.174 -82.707 577.036 -82.846 577.924 C-84.343 587.75 -85.154 597.491 -85.203 607.43 C-85.21 608.403 -85.217 609.376 -85.224 610.379 C-85.241 613.544 -85.247 616.71 -85.25 619.875 C-85.252 620.961 -85.254 622.047 -85.256 623.165 C-85.263 639.572 -84.709 655.884 -83.562 672.25 C-83.495 673.213 -83.428 674.176 -83.358 675.168 C-83.164 677.889 -82.962 680.609 -82.754 683.328 C-82.693 684.123 -82.633 684.917 -82.571 685.736 C-82.236 689.875 -81.686 693.903 -81 698 C-80.806 700.299 -80.641 702.6 -80.5 704.902 C-80.418 706.205 -80.335 707.508 -80.25 708.85 C-80.166 710.212 -80.083 711.575 -80 712.938 C-79.837 715.614 -79.669 718.289 -79.5 720.965 C-79.428 722.147 -79.356 723.329 -79.281 724.547 C-78.995 728.061 -78.512 731.513 -78 735 C-77.789 738.298 -77.618 741.591 -77.482 744.893 C-77.246 749.633 -76.713 754.288 -76.08 758.992 C-74.91 768.061 -74.214 777.153 -73.553 786.271 C-73.338 789.238 -73.118 792.205 -72.896 795.172 C-72.347 802.532 -71.806 809.894 -71.266 817.255 C-70.807 823.503 -70.344 829.751 -69.877 835.999 C-69.662 838.894 -69.452 841.789 -69.243 844.684 C-68.491 854.857 -67.435 864.898 -66 875 C-65.438 879.706 -65.009 884.426 -64.567 889.144 C-64.374 891.198 -64.172 893.25 -63.969 895.303 C-63.209 903.222 -62.814 911.043 -63 919 C-65.64 919 -68.28 919 -71 919 C-72.516 906.429 -73.898 893.847 -75.188 881.25 C-75.29 880.249 -75.393 879.247 -75.499 878.216 C-77.723 856.451 -79.714 834.664 -81.688 812.875 C-81.763 812.042 -81.838 811.209 -81.916 810.35 C-83.334 794.697 -84.745 779.043 -86.082 763.383 C-86.635 756.914 -87.255 750.458 -87.961 744.004 C-93.554 692.322 -97.727 639.27 -92.25 587.438 C-92.172 586.698 -92.094 585.958 -92.013 585.196 C-91.054 576.528 -89.516 568.148 -87.22 559.734 C-85.578 553.418 -86.341 548.96 -89.012 543.113 C-89.433 542.188 -89.855 541.263 -90.289 540.309 C-90.75 539.32 -91.212 538.331 -91.688 537.312 C-92.166 536.274 -92.645 535.235 -93.139 534.165 C-97.541 524.738 -102.31 515.518 -107.227 506.351 C-113.104 495.281 -116.672 486.466 -116.25 473.812 C-116.232 472.765 -116.214 471.718 -116.195 470.639 C-116.149 468.091 -116.083 465.546 -116 463 C-130.744 484.882 -138.893 514.69 -136 541 C-134.598 547.384 -132.217 553.437 -129.897 559.533 C-128.527 563.299 -127.469 567.13 -126.438 571 C-126.041 572.475 -125.644 573.951 -125.246 575.426 C-124.946 576.541 -124.946 576.541 -124.64 577.678 C-123.967 580.121 -123.256 582.551 -122.535 584.98 C-108.988 630.733 -103.87 678.891 -98.75 726.188 C-98.619 727.388 -98.488 728.588 -98.353 729.825 C-97.06 741.741 -95.782 753.632 -95.303 765.614 C-95.167 768.884 -94.863 771.847 -94 775 C-93.87 776.466 -93.778 777.936 -93.719 779.406 C-93.663 780.646 -93.663 780.646 -93.605 781.91 C-93.535 783.637 -93.465 785.363 -93.395 787.09 C-93.338 788.329 -93.338 788.329 -93.281 789.594 C-93.251 790.343 -93.221 791.093 -93.189 791.865 C-93.058 793.986 -93.058 793.986 -92.507 795.941 C-91.895 798.427 -91.749 800.787 -91.605 803.344 C-91.506 805.023 -91.506 805.023 -91.404 806.736 C-91.333 807.978 -91.261 809.22 -91.188 810.5 C-90.255 825.803 -89.114 841.089 -87.938 856.375 C-87.85 857.526 -87.762 858.676 -87.671 859.862 C-87.417 863.187 -87.16 866.511 -86.902 869.836 C-86.826 870.829 -86.75 871.821 -86.672 872.844 C-86.335 877.155 -85.964 881.451 -85.463 885.746 C-85.023 889.572 -84.804 893.372 -84.684 897.223 C-84.642 898.502 -84.6 899.781 -84.557 901.1 C-84.517 902.407 -84.478 903.715 -84.438 905.062 C-84.394 906.419 -84.351 907.775 -84.307 909.131 C-84.201 912.42 -84.099 915.71 -84 919 C-86.64 919 -89.28 919 -92 919 C-92.438 913.598 -92.873 908.195 -93.307 902.792 C-93.48 900.654 -93.652 898.516 -93.825 896.378 C-95.03 881.494 -96.184 866.607 -97.279 851.714 C-100.269 811.118 -103.633 770.58 -107.744 730.081 C-108.056 726.999 -108.365 723.917 -108.673 720.835 C-112.171 685.96 -116.274 651.101 -123.375 616.75 C-123.562 615.828 -123.749 614.905 -123.942 613.955 C-128.117 593.435 -133.193 573.209 -140.186 553.447 C-141.53 549.634 -142.384 545.989 -143 542 C-145.604 554.725 -147.314 567.487 -148.875 580.375 C-149.133 582.482 -149.392 584.589 -149.651 586.695 C-150.18 591.006 -150.705 595.317 -151.227 599.628 C-151.848 604.758 -152.477 609.887 -153.109 615.016 C-153.572 618.785 -154.031 622.556 -154.488 626.326 C-154.701 628.079 -154.915 629.831 -155.131 631.584 C-156.317 641.245 -157.257 650.857 -157.796 660.577 C-157.996 663.929 -158.304 667.242 -158.698 670.576 C-164.752 722.33 -163.997 776.208 -159 828 C-158.923 828.804 -158.845 829.608 -158.766 830.436 C-156.68 851.859 -153.659 873.04 -149.637 894.188 C-149.407 895.405 -149.176 896.623 -148.939 897.877 C-148.492 900.226 -148.038 902.574 -147.574 904.92 C-146.46 910.727 -145.742 916.086 -146 922 C-148.875 922.625 -148.875 922.625 -152 923 C-154.898 920.102 -155.136 916.64 -155.938 912.75 C-156.094 912.018 -156.251 911.286 -156.412 910.531 C-156.752 908.94 -157.087 907.348 -157.417 905.755 C-157.84 903.756 -158.279 901.761 -158.727 899.769 C-160.577 891.464 -161.928 883.188 -163 874.75 C-163.167 873.468 -163.335 872.186 -163.507 870.866 C-164.794 860.948 -165.961 851.015 -167.049 841.073 C-167.16 840.067 -167.272 839.06 -167.387 838.023 C-167.482 837.146 -167.577 836.269 -167.675 835.365 C-167.939 833.074 -167.939 833.074 -168.488 831.187 C-173.739 808.768 -171.345 782.667 -171.316 759.792 C-171.311 755.829 -171.318 751.866 -171.336 747.903 C-171.464 719.808 -170.463 691.99 -168 664 C-167.938 663.3 -167.877 662.6 -167.813 661.878 C-167.044 653.219 -166.147 644.577 -165.188 635.938 C-165.061 634.772 -164.934 633.607 -164.804 632.406 C-162.944 615.296 -160.735 598.263 -158.189 581.243 C-155.983 566.416 -154.264 551.549 -152.648 536.647 C-152.458 534.904 -152.268 533.161 -152.078 531.418 C-151.987 530.579 -151.895 529.739 -151.801 528.875 C-151.309 524.45 -150.721 520.067 -149.984 515.676 C-146.913 496.127 -146.677 476.517 -146.739 456.781 C-146.751 453.084 -146.744 449.388 -146.732 445.692 C-146.725 442.789 -146.727 439.885 -146.732 436.982 C-146.734 434.97 -146.728 432.958 -146.722 430.946 C-146.764 422.76 -147.624 415.056 -149 407 C-153.684 376.97 -154.578 347.506 -154.168 317.156 C-154.052 308.387 -153.969 299.618 -153.91 290.849 C-153.884 287.842 -153.837 284.836 -153.788 281.83 C-153.661 270.802 -154.479 260.754 -157 250 C-157.442 247.958 -157.884 245.917 -158.324 243.875 C-158.774 241.916 -159.229 239.957 -159.688 238 C-159.939 236.92 -160.19 235.841 -160.449 234.729 C-162.583 225.635 -164.807 216.564 -167.062 207.5 C-167.537 205.59 -167.537 205.59 -168.02 203.641 C-169.549 197.548 -171.134 191.486 -172.857 185.445 C-175.668 175.563 -177.893 165.628 -179.938 155.562 C-180.63 152.197 -181.326 148.833 -182.023 145.469 C-182.193 144.646 -182.363 143.824 -182.538 142.976 C-183.954 136.15 -185.498 129.356 -187.062 122.562 C-190.082 109.351 -192.411 96.017 -194.729 82.668 C-194.873 81.843 -195.017 81.018 -195.165 80.168 C-195.437 78.607 -195.707 77.046 -195.973 75.483 C-196.611 71.627 -196.611 71.627 -198 68 C-198.18 66.671 -198.321 65.336 -198.438 64 C-198.76 60.812 -199.214 57.717 -199.871 54.582 C-201.223 47.969 -202.427 41.33 -203.625 34.688 C-203.854 33.439 -204.084 32.191 -204.32 30.904 C-204.645 29.101 -204.645 29.101 -204.977 27.262 C-205.272 25.637 -205.272 25.637 -205.573 23.979 C-205.962 21.265 -206.083 18.736 -206 16 C-204.02 15.67 -202.04 15.34 -200 15 C-198.091 18.329 -197.436 21.404 -196.809 25.176 C-196.591 26.456 -196.372 27.736 -196.148 29.055 C-196.033 29.746 -195.918 30.437 -195.799 31.148 C-195.166 34.938 -194.509 38.723 -193.852 42.508 C-193.638 43.739 -193.638 43.739 -193.42 44.995 C-191.509 55.916 -189.407 66.801 -187.312 77.688 C-187.121 78.688 -186.929 79.688 -186.731 80.718 C-185.496 87.147 -184.253 93.575 -183 100 C-182.79 101.08 -182.79 101.08 -182.575 102.183 C-180.775 111.411 -178.784 120.585 -176.688 129.75 C-176.067 132.476 -175.447 135.203 -174.828 137.93 C-174.674 138.61 -174.519 139.289 -174.36 139.99 C-173.109 145.5 -171.888 151.016 -170.674 156.533 C-166.512 175.424 -162.059 194.203 -157 212.875 C-154.321 222.792 -151.811 232.726 -149.562 242.75 C-149.316 243.838 -149.069 244.926 -148.814 246.046 C-148.588 247.078 -148.362 248.109 -148.129 249.172 C-147.934 250.06 -147.738 250.948 -147.537 251.862 C-146.138 260.032 -145.822 268.203 -145.684 276.477 C-145.663 277.528 -145.642 278.579 -145.621 279.662 C-145.556 282.983 -145.497 286.304 -145.438 289.625 C-145.394 291.892 -145.351 294.159 -145.307 296.426 C-145.2 301.95 -145.098 307.475 -145 313 C-144.868 312.46 -144.736 311.919 -144.6 311.362 C-142.059 301.005 -139.49 290.684 -136.312 280.5 C-135.979 279.419 -135.646 278.337 -135.303 277.223 C-132.777 269.158 -129.925 261.24 -127 253.312 C-123.257 243.121 -120.172 232.887 -117.5 222.375 C-117.251 221.398 -117.251 221.398 -116.998 220.401 C-113.349 205.961 -110.868 192.276 -110.797 177.359 C-110.786 175.872 -110.786 175.872 -110.775 174.354 C-110.655 152.377 -110.89 130.795 -114 109 C-114.206 107.521 -114.412 106.042 -114.618 104.563 C-117.226 86.003 -120.344 67.542 -123.812 49.125 C-123.965 48.311 -124.118 47.496 -124.276 46.657 C-124.706 44.377 -125.142 42.099 -125.582 39.82 C-125.711 39.14 -125.84 38.46 -125.973 37.759 C-126.399 34.606 -126.399 34.606 -128 32 C-128.547 29.502 -129.043 27.015 -129.5 24.5 C-129.634 23.776 -129.768 23.052 -129.906 22.307 C-130.828 17.217 -131.54 12.154 -132 7 C-129.353 5.539 -128.106 5 -125 5 C-116.689 31.901 -111.97 59.386 -107.607 87.144 C-107.03 90.807 -106.447 94.47 -105.863 98.133 C-103.924 110.394 -102.142 122.637 -101 135 C-100.832 136.725 -100.832 136.725 -100.66 138.484 C-97.202 180.359 -104.865 218.069 -118.074 257.551 C-118.324 258.301 -118.574 259.051 -118.831 259.823 C-120.355 264.32 -122.097 268.65 -124 273 C-125.471 277.292 -126.722 281.647 -128 286 C-128.204 286.67 -128.408 287.339 -128.619 288.029 C-140.351 326.55 -138.413 364.413 -123.968 401.774 C-121.92 407.075 -120.921 411.187 -120.71 416.888 C-120.164 431.216 -116.48 444.52 -106 455 C-93.284 465.675 -79.488 470.627 -62.977 470.379 C-48.265 468.977 -35.124 461.353 -24 452 C-23.248 451.394 -22.497 450.788 -21.723 450.164 C-1.158 432.939 9.484 404.513 11.888 378.42 C12.044 376.541 12.187 374.66 12.317 372.779 C12.38 371.925 12.443 371.071 12.508 370.191 C12.58 369.05 12.58 369.05 12.653 367.885 C13 366 13 366 15 364 C17.625 364.375 17.625 364.375 20 365 C22.217 371.115 23.689 377.103 24.812 383.5 C29.529 408.339 40.625 436.373 61.555 451.895 C72.394 459.187 83.854 463.393 97 461 C106.541 457.669 112.503 452.657 117.133 443.844 C118.203 441.593 119.106 439.326 120 437 C120.27 436.305 120.54 435.611 120.818 434.895 C123.439 427.268 123.504 419.807 123.438 411.812 C123.436 411.113 123.435 410.413 123.434 409.691 C123.403 399.485 122.627 389.698 120.424 379.697 C118.823 372.342 119 367.042 119 359 C101.84 359 84.68 359 67 359 C67 358.01 67 357.02 67 356 C84.16 356 101.32 356 119 356 C121.54 319.832 121.54 319.832 118 284 C117.728 282.751 117.456 281.502 117.176 280.215 C112.102 259.514 100.793 240.527 89 223 C88.254 221.89 87.509 220.779 86.763 219.668 C86.169 218.783 86.169 218.783 85.562 217.88 C83.436 214.712 81.311 211.544 79.188 208.375 C78.756 207.732 78.325 207.089 77.88 206.426 C69.473 193.874 61.528 181.103 54 168 C53.464 167.068 52.929 166.136 52.377 165.175 C33.937 132.815 21.158 98.082 8.742 63.088 C8.045 61.126 7.344 59.167 6.642 57.208 C1.679 43.345 -2.754 29.473 -6.418 15.21 C-6.96 13.151 -7.547 11.111 -8.152 9.07 C-8.943 6.205 -9.179 3.95 -9 1 C-5.599 -1.142 -3.832 -0.909 0 0 Z " fill="#21284D" transform="translate(508,52)"/>
<path d="M0 0 C1.435 1.038 2.852 2.101 4.25 3.188 C5.321 3.996 5.321 3.996 6.414 4.82 C26.439 21.166 37.25 48.326 44.454 72.369 C45.922 77.252 47.587 82.037 49.375 86.812 C49.617 87.464 49.859 88.115 50.108 88.786 C51.614 92.755 53.337 96.362 55.25 100.188 C73.565 100.683 73.565 100.683 92.25 101.188 C92.25 101.517 92.25 101.847 92.25 102.188 C75.09 102.188 57.93 102.188 40.25 102.188 C40.25 103.178 40.25 104.168 40.25 105.188 C57.41 105.188 74.57 105.188 92.25 105.188 C92.91 111.127 93.57 117.067 94.25 123.188 C95.054 127.209 95.054 127.209 95.875 131.312 C99.678 151.852 100.359 176.701 89 194.812 C85.456 199.406 81.318 202.435 76.25 205.188 C75.327 205.726 74.404 206.265 73.453 206.82 C66.029 209.989 56.043 209.168 48.438 206.625 C25.791 196.895 13.384 176.884 4.062 155.062 C0.448 145.702 -1.636 135.976 -3.75 126.188 C-4.075 124.703 -4.401 123.219 -4.727 121.734 C-5.415 118.555 -6.091 115.373 -6.75 112.188 C-8.406 111.805 -10.075 111.474 -11.75 111.188 C-13.269 112.706 -12.998 114.162 -13.145 116.281 C-15.611 148.347 -25.981 178.333 -51.012 200.055 C-58.523 205.905 -66.826 210.835 -75.75 214.188 C-76.491 214.485 -77.232 214.783 -77.996 215.09 C-91.282 219.824 -105.631 217.476 -118.34 212.09 C-120.601 210.918 -122.657 209.638 -124.75 208.188 C-125.581 207.611 -126.413 207.035 -127.27 206.441 C-137.128 199.096 -144.199 188.812 -147.371 176.844 C-147.764 174.091 -147.843 171.395 -147.888 168.617 C-148.178 156.228 -152.063 145.436 -156.875 134.125 C-158.71 129.711 -159.839 125.203 -160.938 120.562 C-161.105 119.857 -161.272 119.152 -161.444 118.426 C-163.745 108.285 -163.99 98.292 -164 87.938 C-164.001 87.18 -164.002 86.422 -164.003 85.641 C-163.987 68.152 -161.757 51.963 -156.75 35.188 C-156.09 35.517 -155.43 35.847 -154.75 36.188 C-153.411 35.879 -152.078 35.541 -150.75 35.188 C-139.632 33.865 -132.216 37.466 -123.164 43.59 C-122.554 43.999 -121.944 44.407 -121.316 44.828 C-120.137 45.629 -118.971 46.449 -117.821 47.291 C-113.175 50.499 -110.202 50.768 -104.75 50.188 C-94.129 46.112 -87.066 36.668 -80.156 28.113 C-60.132 3.766 -31.415 -19.942 0 0 Z " fill="#CEABD3" transform="translate(534.75,305.8125)"/>
<path d="M0 0 C0.642 0.583 1.284 1.165 1.945 1.766 C2.629 2.369 3.312 2.972 4.016 3.594 C9.438 8.666 13.267 14.346 16.945 20.766 C17.471 21.658 17.997 22.55 18.539 23.469 C34.901 53.355 31.716 94.417 22.488 126.029 C18.5 138.899 13.359 151.148 4.945 161.766 C4.081 162.93 4.081 162.93 3.199 164.117 C-8.438 179.616 -24.058 188.836 -43.055 192.766 C-56.999 193.646 -72.07 194.593 -85.055 188.766 C-85.666 188.492 -86.276 188.218 -86.906 187.936 C-95.838 183.825 -103.17 178.864 -110.055 171.766 C-110.835 170.983 -111.614 170.201 -112.418 169.395 C-134.107 146.612 -138.117 115.391 -137.624 85.312 C-136.861 55.748 -126.514 26.215 -105.156 5.274 C-94.029 -5.107 -80.183 -12.829 -65.055 -15.234 C-64.409 -15.345 -63.763 -15.456 -63.098 -15.57 C-40.435 -18.777 -17.841 -15.06 0 0 Z " fill="#FEB926" transform="translate(610.0546875,590.234375)"/>
<path d="M0 0 C2.406 2.406 2.696 4.478 3.446 7.722 C4.385 11.585 5.652 15.343 6.875 19.125 C11.698 34.279 15.653 49.458 19 65 C19.262 66.197 19.524 67.393 19.793 68.626 C36.769 146.868 41.333 227.664 47.393 307.33 C47.563 309.564 47.733 311.797 47.903 314.03 C48.553 322.571 49.197 331.113 49.833 339.655 C50.028 342.279 50.225 344.903 50.422 347.528 C50.693 351.145 50.96 354.763 51.225 358.381 C51.304 359.432 51.384 360.484 51.465 361.567 C51.537 362.552 51.608 363.536 51.681 364.55 C51.774 365.811 51.774 365.811 51.869 367.098 C52.048 371.062 52 375.032 52 379 C34.51 379 17.02 379 -1 379 C-1.33 379.66 -1.66 380.32 -2 381 C-2.136 380.165 -2.272 379.329 -2.411 378.468 C-2.929 375.296 -3.449 372.123 -3.971 368.952 C-4.195 367.592 -4.417 366.233 -4.637 364.874 C-5.773 357.885 -6.979 350.941 -8.539 344.031 C-10.241 336.285 -11.174 328.495 -12.062 320.625 C-12.224 319.234 -12.386 317.844 -12.549 316.453 C-12.793 314.368 -13.036 312.284 -13.275 310.198 C-13.814 305.512 -14.409 300.834 -15.02 296.156 C-21.271 246.9 -20.952 195.837 -17.18 146.378 C-16.99 143.867 -16.807 141.356 -16.625 138.844 C-14.506 109.979 -11.068 81.325 -7.256 52.638 C-6.105 43.93 -5.047 35.211 -4.04 26.484 C-3.001 17.601 -1.585 8.801 0 0 Z " fill="#D5C7F6" transform="translate(364,592)"/>
<path d="M0 0 C4.29 0 8.58 0 13 0 C13.181 1.074 13.361 2.149 13.547 3.256 C14.403 8.338 15.263 13.419 16.125 18.5 C16.282 19.429 16.44 20.358 16.602 21.315 C18.447 32.181 20.347 43.031 22.436 53.853 C29.933 92.72 33.286 131.373 33.25 170.938 C33.249 172.004 33.249 173.071 33.248 174.17 C33.233 181.115 33.153 188.057 33 195 C32.984 195.755 32.969 196.511 32.952 197.289 C32.516 214.44 30.236 231.525 28.339 248.562 C27.969 251.91 27.605 255.26 27.242 258.609 C26.887 261.867 26.528 265.124 26.168 268.382 C25.998 269.922 25.83 271.463 25.662 273.004 C24.859 280.382 24.031 287.708 22.426 294.964 C21.83 297.814 21.504 300.679 21.164 303.57 C19.45 318.002 16.568 332.222 13.781 346.477 C13.606 347.373 13.432 348.269 13.252 349.192 C12.923 350.879 12.591 352.566 12.256 354.252 C12.106 355.022 11.955 355.792 11.8 356.585 C11.669 357.247 11.539 357.909 11.404 358.592 C10.825 362.044 10.434 365.526 10 369 C-7.49 369 -24.98 369 -43 369 C-43.289 311.107 -43.289 311.107 -41.269 287.361 C-40.997 283.966 -40.788 280.573 -40.598 277.172 C-39.471 257.5 -37.234 237.996 -34.699 218.462 C-34.224 214.796 -33.774 211.128 -33.344 207.456 C-32.817 202.962 -32.247 198.476 -31.645 193.992 C-31.426 192.311 -31.222 190.629 -31.033 188.945 C-29.381 174.378 -29.381 174.378 -23.145 168.852 C-21.434 167.562 -19.72 166.277 -18 165 C-15.915 162.783 -14.132 160.419 -12.375 157.938 C-11.692 156.987 -11.692 156.987 -10.995 156.018 C-6.152 149.082 -2.444 141.706 1 134 C1.544 132.81 2.088 131.62 2.648 130.395 C11.716 109.29 14.125 87.168 14.312 64.438 C14.322 63.745 14.332 63.052 14.342 62.338 C14.502 48.91 12.572 36.134 8.688 23.25 C8.379 22.204 8.379 22.204 8.064 21.136 C6.337 15.547 3.97 10.445 1.137 5.32 C0 3 0 3 0 0 Z " fill="#D6C7F6" transform="translate(633,602)"/>
<path d="M0 0 C10.111 7.526 14.982 20.356 16.91 32.422 C17.171 35.824 17.197 39.199 17.16 42.609 C17.153 43.528 17.147 44.448 17.14 45.395 C16.955 57.672 14.897 68.77 10.91 80.422 C8.571 78.156 6.321 75.923 4.254 73.402 C-4.48 62.837 -15.583 56.605 -28.09 51.422 C-28.873 51.09 -29.655 50.758 -30.462 50.416 C-48.97 43.413 -74.266 45.304 -92.078 53.152 C-117.051 64.687 -132.761 82.748 -144.09 107.422 C-144.707 108.764 -144.707 108.764 -145.336 110.133 C-156.61 136.542 -157.88 167.108 -151.965 194.867 C-151.215 198.445 -150.897 201.751 -151.09 205.422 C-153.571 201.701 -154.13 198.046 -154.965 193.734 C-156.248 187.391 -157.587 181.077 -159.152 174.797 C-159.453 173.588 -159.753 172.379 -160.062 171.133 C-160.827 168.372 -161.652 165.7 -162.574 162.992 C-164.038 158.681 -165.179 154.337 -166.277 149.922 C-174.693 117.239 -186.917 85.864 -202.461 55.934 C-202.838 55.207 -203.215 54.48 -203.604 53.731 C-205.458 50.166 -207.325 46.61 -209.215 43.065 C-216.209 29.845 -223.558 15.73 -219.09 0.422 C-215.692 1.734 -212.47 3.232 -209.215 4.859 C-196.557 10.526 -183.665 10.863 -170.033 10.703 C-167.302 10.671 -164.571 10.662 -161.84 10.656 C-160.095 10.647 -158.35 10.637 -156.605 10.625 C-155.793 10.621 -154.981 10.617 -154.144 10.612 C-150.878 10.57 -148.209 10.461 -145.09 9.422 C-143.544 9.231 -141.994 9.081 -140.441 8.957 C-139.525 8.88 -138.609 8.804 -137.666 8.725 C-136.692 8.645 -135.718 8.566 -134.715 8.484 C-127.622 7.872 -120.604 7.165 -113.578 5.992 C-108.8 5.211 -104.008 4.538 -99.215 3.859 C-97.876 3.669 -97.876 3.669 -96.51 3.475 C-94.802 3.232 -93.093 2.991 -91.385 2.753 C-89.462 2.476 -87.545 2.164 -85.629 1.844 C-80.857 1.275 -76.142 1.231 -71.34 1.234 C-70.338 1.234 -69.336 1.235 -68.304 1.235 C-46.153 1.401 -46.153 1.401 -37.09 4.422 C-25.706 5.441 -14.887 5.558 -4.551 0.32 C-2.09 -0.578 -2.09 -0.578 0 0 Z " fill="#FDF7F5" transform="translate(619.08984375,517.578125)"/>
<path d="M0 0 C2.198 2.198 2.719 3.585 3.734 6.488 C4.058 7.411 4.382 8.333 4.715 9.284 C5.057 10.283 5.398 11.283 5.75 12.312 C6.106 13.35 6.463 14.387 6.83 15.456 C12.26 31.464 16.495 47.721 20.533 64.128 C21.93 69.793 23.362 75.418 25.062 81 C27.769 90.162 29.532 99.564 31.496 108.906 C32.769 114.953 34.112 120.979 35.5 127 C48.953 185.785 58.736 245.019 65 305 C65.16 306.527 65.16 306.527 65.323 308.084 C66.024 314.804 66.708 321.526 67.375 328.25 C67.461 329.109 67.547 329.968 67.635 330.853 C67.873 333.261 68.106 335.669 68.336 338.078 C68.439 339.114 68.439 339.114 68.543 340.17 C68.978 344.84 69 349.263 69 354 C52.17 354 35.34 354 18 354 C17.662 350.215 17.325 346.431 16.977 342.531 C16.643 338.814 16.308 335.097 15.974 331.38 C15.744 328.822 15.515 326.264 15.287 323.706 C14.957 320.001 14.623 316.298 14.289 312.594 C14.19 311.473 14.091 310.353 13.989 309.198 C13.445 303.215 12.789 297.264 12.009 291.307 C10.962 283.217 10.315 275.117 9.738 266.982 C9.557 264.422 9.37 261.862 9.182 259.303 C8.716 252.953 8.259 246.602 7.802 240.251 C7.414 234.857 7.021 229.463 6.625 224.07 C6.443 221.58 6.267 219.09 6.09 216.6 C5.452 207.79 4.588 199.053 3.421 190.297 C2.928 186.435 2.665 182.638 2.5 178.75 C2.153 171.627 1.483 164.564 0.733 157.473 C0.081 151.173 -0.366 144.881 -0.658 138.555 C-0.795 135.77 -0.989 133.065 -1.468 130.317 C-2.108 126.327 -2.447 122.355 -2.754 118.328 C-2.852 117.046 -2.852 117.046 -2.952 115.739 C-9.347 30.032 -9.347 30.032 0 0 Z " fill="#D4C6F5" transform="translate(427,617)"/>
<path d="M0 0 C1.234 -0.016 2.467 -0.032 3.738 -0.049 C24.218 -0.06 44.312 7.456 59.246 21.695 C80.354 43.758 87.99 72.231 87.938 102.25 C87.936 103.363 87.936 103.363 87.934 104.498 C87.864 125.856 87.864 125.856 85.75 136.312 C85.572 137.196 85.395 138.079 85.211 138.99 C80.437 161.769 71.024 193.033 51.064 207.538 C46.484 210.897 44.868 213.523 43.992 219.112 C43.888 219.976 43.783 220.84 43.676 221.73 C43.541 222.648 43.406 223.566 43.267 224.511 C42.836 227.504 42.448 230.501 42.062 233.5 C41.773 235.585 41.482 237.671 41.189 239.756 C40.331 245.936 39.535 252.123 38.75 258.312 C38.53 260.019 38.309 261.726 38.089 263.433 C35.73 281.845 34.073 300.266 32.972 318.799 C32.755 322.238 32.495 325.671 32.223 329.105 C30.231 355.13 30.097 381.224 29.75 407.312 C27.11 407.312 24.47 407.312 21.75 407.312 C20.881 351.04 24.518 295.532 32.34 239.797 C32.465 238.895 32.59 237.992 32.719 237.063 C32.839 236.224 32.959 235.386 33.082 234.522 C33.187 233.781 33.292 233.039 33.4 232.275 C33.75 230.312 33.75 230.312 34.75 227.312 C34.79 224.98 34.794 222.645 34.75 220.312 C33.83 220.783 32.909 221.254 31.961 221.738 C12.281 231.551 -12.308 234.741 -33.56 227.646 C-56.099 219.22 -74.015 203.293 -84.208 181.241 C-88.707 170.896 -91.955 160.343 -94.25 149.312 C-94.4 148.633 -94.549 147.954 -94.703 147.254 C-102.33 111.947 -95.794 72.559 -76.438 42 C-71.94 35.568 -66.748 29.891 -61.25 24.312 C-60.605 23.655 -59.961 22.998 -59.297 22.32 C-43.183 7.117 -21.733 -0.056 0 0 Z M-53.25 30.312 C-54.544 31.428 -54.544 31.428 -55.863 32.566 C-68.866 44.612 -77.038 60.535 -82.25 77.312 C-82.505 78.116 -82.761 78.919 -83.024 79.747 C-92.977 112.576 -89.389 151.417 -73.492 181.656 C-69.528 188.22 -64.601 193.846 -59.25 199.312 C-58.524 200.086 -57.799 200.859 -57.051 201.656 C-45.102 213.504 -27.749 219.591 -11.139 219.832 C-9.959 219.825 -8.778 219.819 -7.562 219.812 C-6.33 219.808 -5.097 219.803 -3.826 219.797 C5.923 219.611 13.828 218.278 22.75 214.312 C23.842 213.843 24.934 213.374 26.059 212.891 C32.641 209.834 38.297 206.088 43.75 201.312 C44.638 200.549 44.638 200.549 45.543 199.77 C64.617 182.093 74.255 153.37 77.75 128.312 C77.89 127.373 77.89 127.373 78.033 126.415 C78.949 119.526 78.936 112.613 78.935 105.676 C78.937 103.581 78.956 101.486 78.975 99.391 C79.011 90.875 78.37 82.692 76.75 74.312 C76.615 73.6 76.479 72.888 76.34 72.155 C73.327 57.593 66.81 44.282 56.75 33.312 C56.125 32.607 55.5 31.902 54.855 31.176 C42.179 17.621 24.686 10.882 6.402 10.062 C-16.118 9.519 -36.072 15.382 -53.25 30.312 Z " fill="#E11D41" transform="translate(560.25,563.6875)"/>
<path d="M0 0 C2.283 2.283 2.82 3.889 3.883 6.918 C4.241 7.918 4.599 8.918 4.969 9.948 C5.35 11.017 5.732 12.086 6.125 13.188 C12.845 31.468 21.265 47.123 35.602 60.609 C36.294 61.298 36.294 61.298 37 62 C37 62.33 37 62.66 37 63 C35.98 63.009 34.96 63.019 33.908 63.028 C14.484 63.236 -4.248 63.886 -23.375 67.529 C-27.482 68.266 -31.606 68.777 -35.75 69.25 C-37.044 69.4 -38.338 69.549 -39.672 69.703 C-42.476 69.953 -45.189 70.064 -48 70 C-45.61 67.41 -43.081 65.266 -40.25 63.188 C-19.276 47.602 -6.568 25.04 0 0 Z " fill="#D6C7F7" transform="translate(525,449)"/>
<path d="M0 0 C2.043 0.995 4.063 2.038 6.062 3.117 C7.189 3.724 8.316 4.331 9.477 4.957 C10.056 5.272 10.635 5.588 11.231 5.913 C12.992 6.871 14.757 7.821 16.523 8.77 C21.851 11.653 26.998 14.587 32 18 C25.344 23.634 17.721 27.967 10.326 32.551 C8.306 33.81 6.299 35.088 4.297 36.375 C3.271 37.014 2.245 37.654 1.188 38.312 C-0.122 39.142 -0.122 39.142 -1.457 39.988 C-4.782 41.311 -6.529 40.808 -10 40 C-12.973 38.681 -12.973 38.681 -16.062 37.016 C-17.752 36.107 -17.752 36.107 -19.477 35.18 C-20.056 34.862 -20.635 34.545 -21.231 34.218 C-22.989 33.256 -24.756 32.311 -26.523 31.367 C-32.143 28.319 -37.321 25.378 -42 21 C-38.238 16.622 -33.42 14.065 -28.5 11.188 C-26.695 10.126 -24.891 9.065 -23.086 8.004 C-21.776 7.237 -21.776 7.237 -20.44 6.454 C-18.341 5.203 -16.278 3.917 -14.227 2.59 C-13.203 1.941 -12.18 1.293 -11.125 0.625 C-9.829 -0.222 -9.829 -0.222 -8.508 -1.086 C-5.02 -2.357 -3.424 -1.331 0 0 Z " fill="#19294C" transform="translate(562,657)"/>
<path d="M0 0 C-0.394 3.063 -0.79 6.125 -1.188 9.188 C-1.317 10.186 -1.446 11.185 -1.58 12.214 C-2.444 18.845 -3.334 25.472 -4.242 32.098 C-7.537 56.142 -10.182 80 -11.746 104.229 C-11.985 107.774 -12.254 111.314 -12.535 114.855 C-14.515 140.86 -14.653 166.932 -15 193 C-17.64 193 -20.28 193 -23 193 C-23.882 135.93 -20.249 79.548 -12.009 23.058 C-11.352 18.544 -10.762 14.033 -10.25 9.5 C-9.559 5.755 -8.549 4.112 -5.5 1.812 C-2 0 -2 0 0 0 Z " fill="#20274D" transform="translate(605,778)"/>
<path d="M0 0 C2.464 1.07 2.464 1.07 5.012 2.555 C6.395 3.353 6.395 3.353 7.807 4.168 C9.233 5.013 9.233 5.013 10.688 5.875 C11.65 6.431 12.612 6.986 13.604 7.559 C20.681 11.681 20.681 11.681 23 14 C22.184 14.514 22.184 14.514 21.351 15.038 C18.859 16.608 16.367 18.179 13.875 19.75 C13.019 20.289 12.163 20.828 11.281 21.383 C10.443 21.911 9.605 22.44 8.742 22.984 C7.922 23.498 7.102 24.012 6.257 24.541 C4.339 25.781 2.525 27.091 0.695 28.453 C-2 30 -2 30 -4.369 29.747 C-8.998 28.433 -13.002 25.955 -17.188 23.625 C-18.102 23.13 -19.017 22.635 -19.959 22.125 C-20.832 21.643 -21.706 21.161 -22.605 20.664 C-23.401 20.225 -24.197 19.787 -25.016 19.334 C-27 18 -27 18 -29 15 C-23.412 10.88 -17.673 7.077 -11.688 3.562 C-11.101 3.209 -10.515 2.855 -9.912 2.49 C-6.381 0.457 -4.044 -0.393 0 0 Z " fill="#1C7BB9" transform="translate(560,662)"/>
<path d="M0 0 C2.046 3.891 3.198 7.908 4.375 12.125 C5.997 17.803 7.738 23.306 10.105 28.727 C12.181 34.001 13.175 38.948 13.532 44.56 C14.096 53.177 15.727 60.142 19.7 67.836 C21.063 70.518 22.018 72.5 21.91 75.543 C20.757 78.657 19.31 81.505 17.75 84.438 C14.62 90.466 12.224 96.501 10.043 102.941 C9.113 105.67 8.097 108.335 7 111 C6.67 111 6.34 111 6 111 C6.013 110.386 6.027 109.772 6.04 109.139 C6.694 77.481 6.336 46.689 0.915 15.425 C0.045 10.222 -0.109 5.277 0 0 Z " fill="#503B8D" transform="translate(364,427)"/>
<path d="M0 0 C5.61 0 11.22 0 17 0 C16.4 6.11 15.468 12.001 14.188 18 C10.706 34.863 8.112 51.913 6 69 C5.67 69 5.34 69 5 69 C5.021 68.247 5.042 67.494 5.063 66.719 C5.503 48.379 4.26 31.364 0.445 13.386 C-0.38 8.962 -0.054 4.486 0 0 Z " fill="#D2C2F5" transform="translate(636,411)"/>
<path d="M0 0 C0.33 0 0.66 0 1 0 C1.097 5.699 0.724 11.158 0.062 16.812 C-1.328 29.505 -1.645 42.244 -2 55 C-4.153 52.847 -4.937 51.131 -6.188 48.375 C-8.723 43.152 -11.978 39.15 -16 35 C-15.469 34.105 -14.938 33.211 -14.391 32.289 C-9.015 23.132 -4.343 14.391 -2.492 3.812 C-2 2 -2 2 0 0 Z " fill="#574191" transform="translate(642,476)"/>
<path d="M0 0 C2.411 3.617 2.253 5.268 2.259 9.571 C2.262 10.238 2.266 10.906 2.269 11.593 C2.278 13.817 2.272 16.041 2.266 18.266 C2.268 19.838 2.271 21.409 2.274 22.981 C2.28 27.198 2.271 31.414 2.258 35.63 C2.25 38.247 2.245 40.865 2.242 43.482 C2.098 127.754 2.098 127.754 -4 163 C-4.66 162.67 -5.32 162.34 -6 162 C-5.879 160.733 -5.879 160.733 -5.756 159.441 C-0.811 106.506 0.451 53.151 0 0 Z " fill="#D0C4F3" transform="translate(686,79)"/>
<path d="M0 0 C4.29 0 8.58 0 13 0 C13.672 4.041 14.338 8.082 15 12.125 C15.191 13.267 15.382 14.409 15.578 15.586 C15.759 16.695 15.939 17.803 16.125 18.945 C16.293 19.961 16.46 20.977 16.633 22.024 C17.011 25.092 17.232 27.915 17 31 C14.5 33.875 14.5 33.875 12 36 C11.85 35.427 11.699 34.853 11.544 34.263 C7.574 19.241 7.574 19.241 1.102 5.18 C0 3 0 3 0 0 Z " fill="#D1BFEF" transform="translate(633,602)"/>
<path d="M0 0 C0.33 0 0.66 0 1 0 C1.26 17.791 0.728 35.289 -1 53 C3.62 53 8.24 53 13 53 C14.32 46.4 15.64 39.8 17 33 C17.66 33.33 18.32 33.66 19 34 C18.059 41.097 16.532 48.005 15 55 C9.06 55 3.12 55 -3 55 C-2.939 53.783 -2.879 52.566 -2.816 51.312 C-2.385 42.36 -1.998 33.409 -1.746 24.449 C-1.725 23.724 -1.705 22.999 -1.683 22.252 C-1.58 18.619 -1.483 14.987 -1.393 11.354 C-1.356 10.01 -1.319 8.667 -1.281 7.324 C-1.251 6.129 -1.221 4.933 -1.189 3.702 C-1 1 -1 1 0 0 Z " fill="#D4C6F7" transform="translate(639,353)"/>
<path d="M0 0 C8.91 0 17.82 0 27 0 C21.756 6.555 21.756 6.555 16.484 7.406 C9.947 7.63 6.378 6.661 1.363 2.41 C0 1 0 1 0 0 Z " fill="#FDFBFD" transform="translate(594,412)"/>
<path d="M0 0 C0.66 0 1.32 0 2 0 C0.749 11.967 -1.369 23.661 -3.776 35.444 C-4.372 38.363 -4.96 41.283 -5.547 44.203 C-7.892 55.834 -10.376 67.429 -13 79 C-13.66 78.34 -14.32 77.68 -15 77 C-14.912 74.914 -14.912 74.914 -14.398 72.18 C-14.096 70.557 -14.096 70.557 -13.788 68.901 C-12.309 61.581 -10.785 54.272 -9.23 46.968 C-5.907 31.353 -2.664 15.743 0 0 Z " fill="#D4C6F5" transform="translate(672,307)"/>
<path d="M0 0 C0.66 0 1.32 0 2 0 C2.051 6.722 2.086 13.444 2.11 20.166 C2.12 22.447 2.133 24.728 2.151 27.009 C2.332 51.314 2.332 51.314 0 63 C-2.288 59.567 -2.148 58.96 -1.645 55.05 C-0.98 49.091 -0.782 43.199 -0.684 37.207 C-0.663 36.135 -0.642 35.063 -0.621 33.958 C-0.556 30.577 -0.497 27.195 -0.438 23.812 C-0.394 21.502 -0.351 19.191 -0.307 16.881 C-0.2 11.254 -0.098 5.627 0 0 Z " fill="#CFC1F2" transform="translate(396,191)"/>
<path d="M0 0 C0.33 0 0.66 0 1 0 C1.772 3.418 2.123 6.564 2.114 10.066 C2.113 11.046 2.113 12.027 2.113 13.037 C2.108 14.083 2.103 15.129 2.098 16.207 C2.096 17.288 2.095 18.368 2.093 19.481 C2.088 22.925 2.075 26.369 2.062 29.812 C2.057 32.15 2.053 34.488 2.049 36.826 C2.038 42.551 2.021 48.275 2 54 C3.98 53.34 5.96 52.68 8 52 C8 53.32 8 54.64 8 56 C5.36 56 2.72 56 0 56 C0 37.52 0 19.04 0 0 Z " fill="#383B5E" transform="translate(582,915)"/>
<path d="M0 0 C0.33 0 0.66 0 1 0 C1.33 9.9 1.66 19.8 2 30 C2.99 30.33 3.98 30.66 5 31 C3.68 36.94 2.36 42.88 1 49 C0.67 49 0.34 49 0 49 C0 32.83 0 16.66 0 0 Z " fill="#B0A7D7" transform="translate(362,321)"/>
<path d="M0 0 C0.66 0 1.32 0 2 0 C2.139 7.111 1.735 14.054 1 21.125 C0.905 22.081 0.809 23.038 0.711 24.023 C0.478 26.349 0.241 28.675 0 31 C-0.33 31 -0.66 31 -1 31 C-1.495 33.475 -1.495 33.475 -2 36 C-2.33 36 -2.66 36 -3 36 C-2.458 23.931 -1.46 11.993 0 0 Z " fill="#3B3E5F" transform="translate(343,688)"/>
<path d="M0 0 C0.66 0.33 1.32 0.66 2 1 C1.059 8.097 -0.468 15.005 -2 22 C-7.94 22 -13.88 22 -20 22 C-20 21.34 -20 20.68 -20 20 C-14.72 20 -9.44 20 -4 20 C-2.68 13.4 -1.36 6.8 0 0 Z " fill="#C9BAEC" transform="translate(656,386)"/>
<path d="M0 0 C0.33 0 0.66 0 1 0 C1.128 16.366 0.883 32.656 0 49 C-0.33 49 -0.66 49 -1 49 C-2.13 39.657 -2.099 30.391 -2 21 C-1.67 21 -1.34 21 -1 21 C-0.67 14.07 -0.34 7.14 0 0 Z " fill="#474C69" transform="translate(694,145)"/>
<path d="M0 0 C0.33 0 0.66 0 1 0 C1.44 14.381 0.128 28.674 -1 43 C-1.33 43 -1.66 43 -2 43 C-2.898 33.131 -2.989 23.879 -2 14 C-1.34 14 -0.68 14 0 14 C0 9.38 0 4.76 0 0 Z " fill="#303757" transform="translate(692,195)"/>
<path d="M0 0 C5.61 0 11.22 0 17 0 C16.67 2.97 16.34 5.94 16 9 C15.34 8.01 14.68 7.02 14 6 C14.33 4.68 14.66 3.36 15 2 C10.71 2 6.42 2 2 2 C2 5.3 2 8.6 2 12 C1.34 11.67 0.68 11.34 0 11 C0 7.37 0 3.74 0 0 Z " fill="#BBAEE2" transform="translate(636,411)"/>
<path d="M0 0 C0.33 0 0.66 0 1 0 C1.194 2.479 1.38 4.958 1.562 7.438 C1.619 8.145 1.675 8.852 1.732 9.58 C1.862 11.384 1.935 13.192 2 15 C1.67 15.33 1.34 15.66 1 16 C0.953 18.674 0.954 21.327 1 24 C1.046 26.673 1.047 29.326 1 32 C0.505 32.495 0.505 32.495 0 33 C-0.235 35.35 -0.414 37.706 -0.562 40.062 C-0.646 41.353 -0.73 42.643 -0.816 43.973 C-0.877 44.972 -0.938 45.971 -1 47 C-1.33 47 -1.66 47 -2 47 C-2.458 31.3 -1.109 15.649 0 0 Z " fill="#5F607A" transform="translate(339,728)"/>
<path d="M0 0 C0.66 0.33 1.32 0.66 2 1 C0.907 4.83 -0.196 8.657 -1.308 12.481 C-1.685 13.783 -2.06 15.085 -2.431 16.389 C-2.965 18.26 -3.51 20.128 -4.055 21.996 C-4.379 23.122 -4.704 24.248 -5.039 25.408 C-6 28 -6 28 -8 29 C-6.854 18.749 -3.611 9.585 0 0 Z " fill="#CEC1F0" transform="translate(374,321)"/>
<path d="M0 0 C0.33 0 0.66 0 1 0 C3.114 23.812 3.114 23.812 -0.547 29.332 C-1.266 30.158 -1.266 30.158 -2 31 C-1.412 20.66 -0.769 10.328 0 0 Z " fill="#40426E" transform="translate(684,213)"/>
<path d="M0 0 C0 3 0 3 -1.469 4.809 C-2.139 5.464 -2.809 6.119 -3.5 6.793 C-4.222 7.505 -4.944 8.217 -5.688 8.951 C-6.451 9.689 -7.214 10.427 -8 11.188 C-9.145 12.312 -9.145 12.312 -10.312 13.459 C-12.202 15.313 -14.098 17.159 -16 19 C-16.66 18.67 -17.32 18.34 -18 18 C-6.663 5.33 -6.663 5.33 0 0 Z " fill="#DE264E" transform="translate(506,582)"/>
<path d="M0 0 C2.083 -0.054 4.166 -0.093 6.25 -0.125 C7.99 -0.16 7.99 -0.16 9.766 -0.195 C12.828 -0.01 14.442 0.392 17 2 C17 2.33 17 2.66 17 3 C11.39 3 5.78 3 0 3 C0 2.01 0 1.02 0 0 Z " fill="#0D1A2F" transform="translate(636,408)"/>
<path d="M0 0 C0.66 0 1.32 0 2 0 C2.339 2.666 2.672 5.333 3 8 C3.143 9.116 3.143 9.116 3.289 10.254 C3.892 15.209 4.091 20.008 4 25 C3.67 25 3.34 25 3 25 C2.67 23.35 2.34 21.7 2 20 C1.67 20 1.34 20 1 20 C0.299 13.3 -0.11 6.737 0 0 Z " fill="#303258" transform="translate(404,749)"/>
<path d="M0 0 C2.374 3.561 2.868 6.87 3.562 11 C4.504 16.564 4.504 16.564 6 22 C5.062 24.188 5.062 24.188 4 26 C3.129 22.608 2.281 19.211 1.438 15.812 C1.191 14.853 0.944 13.893 0.689 12.904 C0.461 11.973 0.232 11.042 -0.004 10.082 C-0.219 9.228 -0.433 8.375 -0.655 7.495 C-1.036 4.737 -0.691 2.682 0 0 Z " fill="#D2C5F2" transform="translate(341,220)"/>
<path d="M0 0 C0.33 0 0.66 0 1 0 C2.446 8.241 1.302 15.835 0 24 C-0.66 24 -1.32 24 -2 24 C-1.036 7.107 -1.036 7.107 0 0 Z " fill="#BBB0DE" transform="translate(598,822)"/>
<path d="M0 0 C0.66 0 1.32 0 2 0 C2.221 2.958 2.427 5.916 2.625 8.875 C2.689 9.717 2.754 10.559 2.82 11.426 C2.872 12.231 2.923 13.037 2.977 13.867 C3.029 14.611 3.081 15.354 3.135 16.121 C3 18 3 18 1 20 C0.117 15.482 -0.106 11.225 -0.062 6.625 C-0.053 5.38 -0.044 4.135 -0.035 2.852 C-0.024 1.911 -0.012 0.97 0 0 Z " fill="#353864" transform="translate(432,834)"/>
<path d="M0 0 C0.33 0 0.66 0 1 0 C1.339 2.666 1.672 5.333 2 8 C2.143 9.116 2.143 9.116 2.289 10.254 C2.892 15.209 3.091 20.008 3 25 C2.67 25 2.34 25 2 25 C2 23.35 2 21.7 2 20 C1.34 20 0.68 20 0 20 C0 13.4 0 6.8 0 0 Z " fill="#525272" transform="translate(501,921)"/>
<path d="M0 0 C0.66 0 1.32 0 2 0 C2.081 2.938 2.14 5.874 2.188 8.812 C2.213 9.646 2.238 10.479 2.264 11.338 C2.273 12.14 2.283 12.943 2.293 13.77 C2.309 14.508 2.324 15.246 2.341 16.007 C2 18 2 18 -1 21 C-0.67 14.07 -0.34 7.14 0 0 Z " fill="#434463" transform="translate(585,870)"/>
<path d="M0 0 C0.33 0 0.66 0 1 0 C1.202 9.557 1.264 18.639 -1 28 C-1.33 28 -1.66 28 -2 28 C-2 22.72 -2 17.44 -2 12 C-1.67 12 -1.34 12 -1 12 C-0.67 8.04 -0.34 4.08 0 0 Z " fill="#2C2F5C" transform="translate(637,369)"/>
<path d="M0 0 C0.33 0 0.66 0 1 0 C1.33 5.94 1.66 11.88 2 18 C1.67 18 1.34 18 1 18 C0.67 21.63 0.34 25.26 0 29 C-0.33 29 -0.66 29 -1 29 C-1.112 19.273 -0.93 9.696 0 0 Z " fill="#A194CA" transform="translate(347,736)"/>
<path d="M0 0 C2.499 2.499 3.037 4.648 4.125 8 C4.478 9.072 4.831 10.145 5.195 11.25 C6 14 6 14 6 16 C5.34 16 4.68 16 4 16 C3.67 16.66 3.34 17.32 3 18 C2.491 16.127 1.993 14.252 1.5 12.375 C1.082 10.809 1.082 10.809 0.656 9.211 C0.009 6.043 -0.116 3.223 0 0 Z " fill="#DEC7D1" transform="translate(468,723)"/>
<path d="M0 0 C0.66 0 1.32 0 2 0 C2.369 12.67 2.369 12.67 0 18 C-0.33 18 -0.66 18 -1 18 C-0.505 9.09 -0.505 9.09 0 0 Z " fill="#C3B7E5" transform="translate(351,690)"/>
<path d="M0 0 C0.66 0 1.32 0 2 0 C2.533 2.394 3.052 4.789 3.562 7.188 C3.714 7.861 3.865 8.535 4.021 9.229 C4.84 13.133 5.128 16.152 4 20 C3.67 20 3.34 20 3 20 C2.496 17.417 1.996 14.834 1.5 12.25 C1.357 11.52 1.214 10.791 1.066 10.039 C0.411 6.607 0 3.508 0 0 Z " fill="#D5C9F3" transform="translate(312,85)"/>
<path d="M0 0 C0.33 0 0.66 0 1 0 C1.33 4.29 1.66 8.58 2 13 C0.68 13 -0.64 13 -2 13 C-1.859 11.208 -1.712 9.416 -1.562 7.625 C-1.481 6.627 -1.4 5.63 -1.316 4.602 C-1 2 -1 2 0 0 Z " fill="#B6B1E2" transform="translate(642,584)"/>
<path d="M0 0 C0.99 0.33 1.98 0.66 3 1 C2.496 1.383 1.992 1.766 1.473 2.16 C-0.266 3.94 -0.266 3.94 -0.004 6.559 C0.142 7.509 0.287 8.459 0.438 9.438 C1.035 13.395 1.156 15.559 -1 19 C-1.416 16.398 -1.809 13.795 -2.188 11.188 C-2.368 10.081 -2.368 10.081 -2.553 8.951 C-3.324 3.45 -3.324 3.45 -1.551 0.988 C-1.039 0.662 -0.527 0.336 0 0 Z " fill="#E2DDF5" transform="translate(312,65)"/>
<path d="M0 0 C0.33 0 0.66 0 1 0 C1.848 7.693 2.122 15.263 2 23 C-0.64 23 -3.28 23 -6 23 C-6 22.67 -6 22.34 -6 22 C-3.69 22 -1.38 22 1 22 C0.856 20.742 0.711 19.484 0.562 18.188 C0.481 17.48 0.4 16.772 0.316 16.043 C0.028 13.806 0.028 13.806 -1 11 C-0.915 9.1 -0.763 7.203 -0.562 5.312 C-0.461 4.319 -0.359 3.325 -0.254 2.301 C-0.17 1.542 -0.086 0.782 0 0 Z " fill="#4D4C78" transform="translate(443,948)"/>
<path d="M0 0 C0.33 0 0.66 0 1 0 C1.73 6.213 2.232 11.841 1 18 C0.34 17.67 -0.32 17.34 -1 17 C-0.67 11.39 -0.34 5.78 0 0 Z " fill="#494A67" transform="translate(345,668)"/>
<path d="M0 0 C0.33 0 0.66 0 1 0 C0.61 6.559 -0.421 11.945 -3 18 C-4.079 14.695 -3.904 12.382 -3.188 9 C-3.016 8.154 -2.845 7.309 -2.668 6.438 C-2.023 4.085 -1.17 2.133 0 0 Z " fill="#30345A" transform="translate(667,348)"/>
<path d="M0 0 C0.66 0 1.32 0 2 0 C3.467 5.225 4.226 9.581 4 15 C2 14 2 14 1.367 12.109 C0.514 8.021 -0.271 4.204 0 0 Z " fill="#2A3055" transform="translate(351,272)"/>
<path d="M0 0 C2.395 2.395 2.755 3.658 3 7 C1.688 8.625 1.688 8.625 0 10 C-0.66 10.99 -1.32 11.98 -2 13 C-3.184 9.448 -2.695 8.302 -1.562 4.812 C-1.275 3.911 -0.988 3.01 -0.691 2.082 C-0.463 1.395 -0.235 0.708 0 0 Z " fill="#D0C7E8" transform="translate(525,449)"/>
<path d="M0 0 C4.275 4.422 5.513 9.198 7 15 C4.09 12.499 2.832 9.803 1.312 6.312 C0.876 5.319 0.439 4.325 -0.012 3.301 C-0.338 2.542 -0.664 1.782 -1 1 C-0.67 0.67 -0.34 0.34 0 0 Z " fill="#D5C6F0" transform="translate(622,295)"/>
<path d="M0 0 C0.33 0 0.66 0 1 0 C0.67 6.93 0.34 13.86 0 21 C-0.33 21 -0.66 21 -1 21 C-1.33 16.05 -1.66 11.1 -2 6 C-1.34 6 -0.68 6 0 6 C0 4.02 0 2.04 0 0 Z " fill="#5D627C" transform="translate(691,217)"/>
<path d="M0 0 C0.33 0 0.66 0 1 0 C1.558 2.246 2.096 4.497 2.625 6.75 C2.927 8.003 3.228 9.256 3.539 10.547 C4.001 14.008 3.963 15.204 2 18 C1.468 15.753 0.95 13.502 0.438 11.25 C0.002 9.371 0.002 9.371 -0.441 7.453 C-0.934 4.405 -1.077 2.824 0 0 Z " fill="#CEC1EE" transform="translate(330,172)"/>
<path d="M0 0 C0.33 0 0.66 0 1 0 C1.39 1.935 1.761 3.873 2.125 5.812 C2.334 6.891 2.543 7.97 2.758 9.082 C3 12 3 12 1 15 C0.634 13.44 0.282 11.877 -0.062 10.312 C-0.26 9.442 -0.457 8.572 -0.66 7.676 C-1.02 4.84 -0.709 2.752 0 0 Z " fill="#C1B5E4" transform="translate(325,147)"/>
<path d="M0 0 C0.33 2.31 0.66 4.62 1 7 C-2 3.25 -2 3.25 -2 1 C-2.99 1 -3.98 1 -5 1 C-5 2.32 -5 3.64 -5 5 C-5.66 5 -6.32 5 -7 5 C-7 3.35 -7 1.7 -7 0 C-4.333 -1.333 -2.833 -0.671 0 0 Z " fill="#3E4161" transform="translate(309,68)"/>
<path d="M0 0 C0.33 0 0.66 0 1 0 C0.913 1.938 0.805 3.876 0.688 5.812 C0.629 6.891 0.571 7.97 0.512 9.082 C-0.031 12.175 -0.553 13.13 -3 15 C-2.449 9.761 -1.571 5.026 0 0 Z " fill="#2D335A" transform="translate(649,936)"/>
<path d="M0 0 C2.36 2.36 2.491 3.779 3 7 C2.361 7.103 1.721 7.206 1.062 7.312 C0.382 7.539 -0.299 7.766 -1 8 C-1.33 8.99 -1.66 9.98 -2 11 C-1.86 9.354 -1.713 7.708 -1.562 6.062 C-1.481 5.146 -1.4 4.229 -1.316 3.285 C-1 1 -1 1 0 0 Z " fill="#B5ACD8" transform="translate(427,617)"/>
<path d="M0 0 C0.66 0 1.32 0 2 0 C2.054 1.583 2.093 3.166 2.125 4.75 C2.148 5.632 2.171 6.513 2.195 7.422 C1.991 10.114 1.366 11.699 0 14 C-1.392 9.207 -0.687 4.849 0 0 Z " fill="#C5B9E9" transform="translate(395,240)"/>
<path d="M0 0 C3.149 1.369 5.048 2.875 7.25 5.5 C8.031 6.413 8.031 6.413 8.828 7.344 C10 9 10 9 10 11 C8 11 8 11 6.309 9.355 C5.382 8.282 5.382 8.282 4.438 7.188 C3.817 6.48 3.197 5.772 2.559 5.043 C1 3 1 3 0 0 Z " fill="#CA274F" transform="translate(618,586)"/>
<path d="M0 0 C0.33 0 0.66 0 1 0 C1.081 1.437 1.139 2.874 1.188 4.312 C1.24 5.513 1.24 5.513 1.293 6.738 C0.938 9.479 0.106 10.292 -2 12 C-1.86 10.187 -1.713 8.375 -1.562 6.562 C-1.481 5.553 -1.4 4.544 -1.316 3.504 C-1 1 -1 1 0 0 Z " fill="#C6B9E7" transform="translate(601,807)"/>
<path d="M0 0 C0.33 0 0.66 0 1 0 C1.953 4.763 2.083 9.167 2 14 C1.67 14 1.34 14 1 14 C0.67 12.35 0.34 10.7 0 9 C-0.33 9 -0.66 9 -1 9 C-0.67 6.03 -0.34 3.06 0 0 Z " fill="#4C4B6E" transform="translate(406,760)"/>
<path d="M0 0 C0 0.99 0 1.98 0 3 C-2.97 3 -5.94 3 -9 3 C-7.042 -0.916 -3.951 -0.086 0 0 Z " fill="#2C2F59" transform="translate(604,520)"/>
<path d="M0 0 C0.99 0 1.98 0 3 0 C2.34 2.97 1.68 5.94 1 9 C-1.148 5.778 -1.294 4.722 -1 1 C-0.67 0.67 -0.34 0.34 0 0 Z " fill="#38385D" transform="translate(500,52)"/>
<path d="M0 0 C0.33 0 0.66 0 1 0 C1.083 4.833 0.953 9.237 0 14 C-0.33 14 -0.66 14 -1 14 C-1.223 12.419 -1.428 10.835 -1.625 9.25 C-1.741 8.368 -1.857 7.487 -1.977 6.578 C-2.002 3.771 -1.448 2.366 0 0 Z " fill="#474776" transform="translate(349,708)"/>
<path d="M0 0 C7.75 1.625 7.75 1.625 10 5 C6.194 4.328 2.648 3.273 -1 2 C-0.67 1.34 -0.34 0.68 0 0 Z " fill="#3C3F67" transform="translate(410,521)"/>
<path d="M0 0 C0.33 0 0.66 0 1 0 C1.293 6.055 1.293 6.055 1 8 C0.01 8.66 -0.98 9.32 -2 10 C-2.195 3.945 -2.195 3.945 -2 2 C-1.34 1.34 -0.68 0.68 0 0 Z " fill="#6D62A4" transform="translate(642,476)"/>
<path d="M0 0 C2.024 3.035 2.321 4.194 2.625 7.688 C2.7 8.496 2.775 9.304 2.852 10.137 C2.901 10.752 2.95 11.366 3 12 C0.71 9.71 0.476 8.545 -0.188 5.438 C-0.367 4.632 -0.546 3.826 -0.73 2.996 C-0.819 2.337 -0.908 1.679 -1 1 C-0.67 0.67 -0.34 0.34 0 0 Z " fill="#D4C5F3" transform="translate(351,262)"/>
<path d="M0 0 C0.66 0.66 1.32 1.32 2 2 C1.977 4.164 1.977 4.164 1.625 6.625 C1.514 7.442 1.403 8.26 1.289 9.102 C1.194 9.728 1.098 10.355 1 11 C0.34 10.34 -0.32 9.68 -1 9 C-0.977 6.836 -0.977 6.836 -0.625 4.375 C-0.514 3.558 -0.403 2.74 -0.289 1.898 C-0.194 1.272 -0.098 0.645 0 0 Z " fill="#BFBAE3" transform="translate(364,592)"/>
<path d="M0 0 C0.66 0 1.32 0 2 0 C2.33 2.97 2.66 5.94 3 9 C2.34 9 1.68 9 1 9 C0.67 6.03 0.34 3.06 0 0 Z " fill="#C2B6E6" transform="translate(655,663)"/>
<path d="M0 0 C0.66 0 1.32 0 2 0 C1.67 2.97 1.34 5.94 1 9 C0.34 8.67 -0.32 8.34 -1 8 C-0.67 5.36 -0.34 2.72 0 0 Z " fill="#414263" transform="translate(419,619)"/>
</svg>