<svg version="1.1" xmlns="http://www.w3.org/2000/svg" width="1024" height="1024">
<path d="M0 0 C337.92 0 675.84 0 1024 0 C1024 337.92 1024 675.84 1024 1024 C686.08 1024 348.16 1024 0 1024 C0 686.08 0 348.16 0 0 Z " fill="#2B292B" transform="translate(0,0)"/>
<path d="M0 0 C0.977 0 1.953 0 2.96 0.001 C17.154 0.031 30.749 0.541 44.5 4.375 C45.187 4.552 45.873 4.728 46.581 4.91 C61.736 8.842 76.358 15.493 90.188 22.75 C91.114 23.232 91.114 23.232 92.059 23.724 C95.109 25.38 96.53 26.42 98.5 29.375 C97.302 29.909 96.105 30.442 94.871 30.992 C69.087 42.698 46.44 58.221 35.5 85.375 C34.349 88.827 34.367 91.551 34.375 95.188 C34.372 96.39 34.37 97.593 34.367 98.832 C34.49 102.107 34.88 105.162 35.5 108.375 C36.16 108.375 36.82 108.375 37.5 108.375 C37.454 107.564 37.407 106.753 37.359 105.918 C37.095 97.813 38.083 91.715 41.5 84.375 C41.889 83.505 42.279 82.635 42.68 81.738 C53.421 59.969 78.913 37.647 101.615 29.219 C110.378 26.568 118.368 25.742 127.5 25.875 C128.507 25.884 128.507 25.884 129.534 25.893 C149.368 26.095 167.292 30.513 186.083 36.598 C189.042 37.549 192.019 38.431 195 39.312 C249.607 56.264 249.607 56.264 259.785 73.559 C264.032 81.854 264.236 87.427 261.5 96.312 C260.843 98.336 260.179 100.358 259.5 102.375 C260.346 102.424 261.191 102.473 262.062 102.523 C276.577 103.48 289.101 106.893 300.5 116.375 C301.829 117.381 303.161 118.383 304.5 119.375 C305.224 118.965 305.949 118.555 306.695 118.133 C307.662 117.594 308.629 117.055 309.625 116.5 C310.576 115.966 311.528 115.433 312.508 114.883 C323.487 109.35 334.603 110.52 346.021 114.036 C356.958 117.681 367.729 122.821 376.5 130.375 C377.188 130.91 377.877 131.445 378.586 131.996 C393.882 144.474 402.743 162.595 407.5 181.375 C407.844 182.48 408.188 183.584 408.543 184.723 C416.789 216.192 406.205 252.158 397.366 282.365 C390.263 307.06 389.603 339.559 399.5 363.375 C399.784 364.098 400.068 364.821 400.36 365.566 C407.566 383.803 417.337 401.203 427.375 418 C442.86 444.134 454.435 472.149 465.5 500.375 C465.882 501.348 465.882 501.348 466.272 502.34 C472.06 517.118 476.516 531.784 479.5 547.375 C479.745 548.54 479.99 549.706 480.242 550.906 C484.74 575.796 482.501 604.828 468.48 626.496 C466.554 629.187 464.572 631.795 462.5 634.375 C461.888 635.192 461.275 636.01 460.645 636.852 C449.142 650.386 431.448 658.253 414.5 662.375 C413.84 662.375 413.18 662.375 412.5 662.375 C412.5 660.065 412.5 657.755 412.5 655.375 C416.661 653.217 420.714 651.272 425.125 649.688 C443.789 642.291 456.623 628.504 464.809 610.496 C475.819 582.789 469.4 548.067 460.271 520.708 C459.386 518.03 458.55 515.338 457.711 512.645 C446.457 477.123 431.874 441.867 412.914 409.777 C388.958 369.078 376.104 330.221 388.082 282.984 C390.234 274.792 392.502 266.633 394.961 258.527 C400.25 240.897 402.195 222.939 401.574 204.56 C401.507 202.568 401.472 200.575 401.441 198.582 C400.735 179.649 392.24 161.967 380.5 147.375 C380.059 146.821 379.617 146.267 379.162 145.697 C375.683 141.464 372 138.078 367.562 134.875 C366.914 134.406 366.265 133.937 365.596 133.453 C353.853 125.21 339.197 118.158 324.5 119.375 C321.09 120.613 321.09 120.613 317.75 122.312 C316.621 122.858 315.492 123.403 314.328 123.965 C312.718 124.767 311.109 125.571 309.5 126.375 C309.644 127.633 309.789 128.891 309.938 130.188 C310.019 130.895 310.1 131.603 310.184 132.332 C310.472 134.569 310.472 134.569 311.5 137.375 C312.583 147.85 310.686 158.101 304.77 166.969 C303.147 170.044 303.613 171.061 304.5 174.375 C305.251 176.316 306.034 178.245 306.84 180.164 C309.861 187.878 311.479 195.651 313.062 203.75 C313.62 206.551 314.184 209.35 314.754 212.148 C314.893 212.832 315.032 213.516 315.175 214.22 C316.653 221.355 318.545 228.357 320.5 235.375 C321.008 237.231 321.008 237.231 321.527 239.124 C323.793 247.368 326.529 255.363 329.5 263.375 C330.676 263.045 331.851 262.715 333.062 262.375 C338.503 261.051 342.649 260.378 347.75 263.125 C351.824 266.458 353.313 267.769 353.938 273.125 C353.709 277.863 352.407 281.611 349.5 285.375 C346.706 287.807 343.762 289.632 340.5 291.375 C339.883 291.705 339.265 292.035 338.629 292.375 C334.199 294.357 330.335 294.443 325.5 294.5 C320.387 294.8 317.623 295.294 314.062 299.062 C308.357 306.76 304.249 315.441 301.625 324.625 C298.262 335.372 288.477 343.4 278.922 348.844 C265.391 355.812 249.154 357.625 234.141 354.727 C231.425 353.808 229.021 352.737 226.5 351.375 C225.592 350.889 224.685 350.403 223.75 349.902 C206.826 339.959 196.107 323.2 190.684 304.573 C188.508 296.106 187.982 288.031 188 279.312 C187.972 278.041 187.943 276.769 187.914 275.459 C187.896 266.64 189.65 260.254 193.5 252.375 C194.291 250.299 195.069 248.218 195.812 246.125 C196.139 245.212 196.465 244.3 196.801 243.359 C197.032 242.705 197.262 242.05 197.5 241.375 C201.084 241.375 201.776 242.12 204.5 244.312 C210.177 248.861 215.4 248.973 222.5 248.375 C226.334 246.877 226.334 246.877 229.5 244.375 C229.541 242.709 229.543 241.041 229.5 239.375 C227.333 239.839 225.61 240.311 223.688 241.438 C220.319 242.881 218.154 242.854 214.5 242.375 C211.229 240.698 208.4 238.621 205.5 236.375 C204.448 235.653 203.396 234.931 202.312 234.188 C200.194 230.9 200.336 230.175 200.938 226.438 C201.417 224.407 201.943 222.386 202.5 220.375 C203.016 218.48 203.016 218.48 203.543 216.547 C204.482 213.14 205.493 209.765 206.5 206.375 C215.41 206.375 224.32 206.375 233.5 206.375 C233.83 204.725 234.16 203.075 234.5 201.375 C225.59 201.375 216.68 201.375 207.5 201.375 C207.5 193.5 207.5 193.5 208.5 189.375 C209.696 189.476 209.696 189.476 210.917 189.578 C220.107 190.299 229.268 190.687 238.485 190.78 C240.075 190.802 241.665 190.836 243.254 190.883 C262.764 191.447 278.906 185.176 293.242 171.648 C300.81 164.028 305.425 155.18 305.938 144.188 C304.898 135.13 302.383 127.673 295.445 121.566 C283.479 112.445 270.054 110.494 255.5 109.812 C254.63 109.769 253.76 109.726 252.863 109.682 C250.742 109.577 248.621 109.475 246.5 109.375 C248.024 105.299 249.975 101.942 252.379 98.34 C255.301 93.218 255.287 87.091 254.5 81.375 C249.885 69.854 240.695 64.085 229.737 59.284 C217.053 54.132 203.934 50.821 190.5 48.375 C178.359 45.911 166.611 42.34 154.828 38.548 C133.631 31.787 115.51 31.714 95.417 42.038 C74.104 53.519 53.359 71.598 46.062 95.375 C44.415 103.773 44.556 113.299 47.5 121.375 C47.818 122.298 48.137 123.221 48.465 124.172 C53.41 137.293 62.475 146.343 73.688 154.438 C77.616 157.354 80.672 160.377 83.5 164.375 C84.062 165.136 84.624 165.896 85.203 166.68 C93.932 180.751 90.049 199.62 86.627 214.866 C83.092 229.69 78.326 243.723 71.5 257.375 C70.794 257.767 70.087 258.159 69.359 258.562 C65.537 260.986 62.787 264.047 59.75 267.375 C58.828 268.373 58.828 268.373 57.887 269.392 C53.524 274.154 49.37 279.036 45.367 284.105 C39.913 290.735 39.913 290.735 34.25 291.312 C9.702 294.798 -13.43 307.626 -28.873 327.106 C-52.786 359.127 -57.549 400.293 -52.312 439.062 C-50.56 450.736 -47.666 462.181 -44.652 473.582 C-42.981 479.966 -41.659 486.392 -40.438 492.875 C-40.275 493.71 -40.112 494.545 -39.945 495.406 C-37.104 510.935 -36.214 526.776 -35.495 542.522 C-35.374 545.139 -35.244 547.755 -35.113 550.371 C-34.612 560.716 -34.386 571.018 -34.5 581.375 C-41.174 576.714 -46.847 571.305 -52.546 565.535 C-54.058 564.005 -55.578 562.482 -57.1 560.961 C-62.439 555.603 -67.603 550.144 -72.5 544.375 C-73.473 543.257 -74.447 542.14 -75.422 541.023 C-91.16 522.856 -105.507 503.601 -118.5 483.375 C-118.989 482.614 -119.479 481.853 -119.983 481.069 C-128.85 467.201 -136.876 452.96 -144.5 438.375 C-145.009 437.407 -145.518 436.439 -146.043 435.442 C-158.678 411.301 -168.606 386.105 -177.5 360.375 C-177.759 359.636 -178.017 358.897 -178.284 358.136 C-179.763 353.904 -181.162 349.654 -182.5 345.375 C-182.695 344.759 -182.89 344.142 -183.091 343.507 C-187.895 328.109 -190.6 312.214 -193.5 296.375 C-193.673 295.456 -193.846 294.537 -194.024 293.59 C-194.976 288.533 -195.815 283.475 -196.5 278.375 C-196.603 277.612 -196.706 276.848 -196.812 276.062 C-205.697 205.893 -193.293 130.498 -150.121 73.219 C-147.973 70.545 -145.768 67.948 -143.5 65.375 C-142.661 64.415 -141.822 63.454 -140.957 62.465 C-104.692 21.59 -54.408 -0.108 0 0 Z " fill="#E6E5E3" transform="translate(382.5,112.625)"/>
<path d="M0 0 C1.019 0.533 2.037 1.067 3.087 1.616 C13.251 7.018 23.108 12.959 32.969 18.891 C44.101 25.561 55.466 31.815 66.875 38 C68.082 38.657 68.082 38.657 69.312 39.327 C71.263 40.381 73.221 41.415 75.188 42.438 C76.174 42.952 77.16 43.466 78.176 43.996 C81.429 45.206 83.431 45.539 86.875 45 C91.41 41.683 94.249 38.386 97.293 33.605 C97.677 33.013 98.061 32.421 98.456 31.811 C100.082 29.304 101.684 26.782 103.288 24.261 C104.469 22.412 105.662 20.571 106.855 18.73 C107.906 17.081 107.906 17.081 108.977 15.399 C109.604 14.607 110.23 13.816 110.875 13 C111.865 13 112.855 13 113.875 13 C126.925 27.368 135.856 48.209 142.625 66.125 C143.172 67.572 143.172 67.572 143.73 69.049 C148.381 81.68 151.555 94.458 153.938 107.688 C154.196 109.097 154.454 110.506 154.713 111.916 C156.125 119.64 157.495 127.373 158.75 135.125 C158.87 135.857 158.99 136.589 159.114 137.343 C159.721 141.264 159.986 145.033 159.875 149 C159.38 148.835 158.885 148.67 158.375 148.5 C156.173 148.06 154.113 147.767 151.875 147.625 C150.885 147.552 150.885 147.552 149.875 147.477 C146.626 148.327 145.605 150.216 143.875 153 C142.59 160.297 143.537 166.83 147.098 173.293 C147.482 174.138 147.482 174.138 147.875 175 C147.545 175.66 147.215 176.32 146.875 177 C145.061 174.897 143.249 172.793 141.438 170.688 C140.891 170.054 140.345 169.42 139.782 168.768 C137.256 165.827 134.752 162.88 132.355 159.832 C126.613 152.541 120.679 146.445 111.875 143 C108.697 142.682 106.713 142.555 103.875 144.062 C100.981 145.419 98.994 144.589 95.875 144 C91.046 143.454 87.975 143.244 83.875 146.062 C81.594 148.913 81.594 148.913 81.5 152.625 C80.875 156 80.875 156 79.27 157.113 C77.312 157.938 77.312 157.938 73.875 159 C72.06 154.221 70.308 149.423 68.598 144.605 C60.548 122.07 51.746 99.844 39.875 79 C38.225 79 36.575 79 34.875 79 C35.379 84.305 36.66 88.015 39.188 92.688 C51.671 116.792 60.511 142.243 68.875 168 C69.211 169.024 69.546 170.049 69.892 171.104 C71.332 175.66 72.228 179.75 72.375 184.562 C72.647 189.559 73.478 193.661 75.352 198.293 C75.875 200 75.875 200 74.875 202 C74.621 210.148 77.582 216.742 81.062 223.938 C81.532 224.945 82.002 225.952 82.486 226.99 C88.62 240.265 88.62 240.265 96.875 252.25 C97.88 253.46 97.88 253.46 98.906 254.695 C99.556 255.456 100.206 256.216 100.875 257 C101.483 257.719 102.092 258.439 102.719 259.18 C104.094 260.795 105.483 262.399 106.875 264 C105.067 269.485 101.558 273.031 97.773 277.281 C95.718 280.225 95.431 281.501 95.875 285 C101.085 283.55 103.741 280.295 107.188 276.375 C107.737 275.764 108.287 275.153 108.854 274.523 C110.202 273.023 111.54 271.512 112.875 270 C116.383 271.521 118.828 273.6 121.625 276.188 C124.791 279.097 127.977 281.961 131.25 284.75 C136.449 289.321 140.468 294.058 141.875 301 C141.486 305.639 139.762 307.55 136.43 310.695 C135.517 311.577 134.604 312.459 133.664 313.367 C132.694 314.288 131.723 315.207 130.75 316.125 C118.004 327.656 118.004 327.656 112.062 343.188 C112.795 351.95 119.918 357.237 126.129 362.691 C129.953 365.906 133.868 369 137.82 372.055 C138.498 372.697 139.176 373.339 139.875 374 C139.875 374.99 139.875 375.98 139.875 377 C127.122 383.388 114.303 389.461 101 394.625 C99.951 395.038 98.902 395.451 97.821 395.876 C83.594 401.276 68.595 403.902 54.223 397.668 C42.484 391.819 32.657 384.689 22.875 376 C21.822 375.127 20.766 374.257 19.707 373.391 C-0.654 356.203 -13.512 329.307 -25.125 306 C-25.664 304.92 -26.203 303.839 -26.758 302.726 C-34.322 287.47 -41.299 271.978 -48.183 256.408 C-60.629 228.26 -73.734 200.5 -88.875 173.688 C-100.587 152.825 -103.56 129.565 -103.5 105.875 C-103.499 105.061 -103.499 104.246 -103.498 103.407 C-103.46 90.892 -102.795 79.046 -99.125 67 C-98.911 66.27 -98.696 65.54 -98.476 64.789 C-93.86 49.448 -86.961 35.893 -76.125 24 C-75.189 22.942 -75.189 22.942 -74.234 21.863 C-56.82 3.242 -24.122 -13.224 0 0 Z " fill="#D6D6D2" transform="translate(440.125,416)"/>
<path d="M0 0 C3.069 2.628 4.539 5.706 6.328 9.293 C6.638 9.912 6.948 10.53 7.267 11.167 C8.268 13.171 9.26 15.179 10.25 17.188 C10.935 18.567 11.62 19.945 12.305 21.324 C16.266 29.328 20.066 37.374 23.551 45.598 C25.286 49.671 27.152 53.674 29.036 57.68 C31.949 63.878 34.82 70.094 37.688 76.312 C38.454 77.973 38.454 77.973 39.236 79.667 C41.885 85.406 44.527 91.148 47.16 96.895 C52.235 107.959 57.31 119.008 62.888 129.83 C64.197 132.385 65.482 134.953 66.77 137.52 C74.959 153.7 84.118 168.262 96 182 C96.728 182.851 97.457 183.702 98.207 184.578 C112.837 201.283 135.717 220.313 158.84 222.336 C178.365 222.778 194.391 215.682 212 208 C213.58 207.322 215.161 206.645 216.742 205.969 C223.301 203.149 229.746 200.24 235.984 196.75 C238.542 195.798 239.471 196.004 242 197 C246.509 199.084 250.525 201.59 253 206 C254.448 212.25 253.7 218.812 253.211 225.149 C253.021 227.715 252.908 230.264 252.84 232.836 C252.509 244.253 251.481 255.624 250.492 266.999 C249.599 277.279 248.806 287.56 248.125 297.855 C245.369 339.36 241.354 380.634 237 422 C161.1 422 85.2 422 7 422 C7 372.292 7.002 322.728 7.764 273.054 C8.184 243.675 8.187 214.294 8.185 184.912 C8.185 179.208 8.194 173.504 8.206 167.799 C8.271 136.467 8.335 105.15 7.113 73.836 C7.074 72.82 7.035 71.804 6.995 70.757 C6.564 59.907 5.909 49.087 5.028 38.264 C4.95 37.3 4.872 36.336 4.792 35.343 C4.037 26.521 2.762 17.8 1.332 9.066 C0.847 6.049 0.422 3.026 0 0 Z " fill="#FEFEFE" transform="translate(349,602)"/>
<path d="M0 0 C0.728 0.742 1.457 1.485 2.207 2.25 C13.141 13.016 24.2 18.313 39 22 C39.758 22.196 40.516 22.392 41.297 22.594 C65.98 26.303 86.812 18.611 107 5 C107.66 4.34 108.32 3.68 109 3 C120.976 3.222 130.938 9.729 140 17 C140.985 17.777 141.97 18.555 142.984 19.355 C153.223 27.968 159.708 39.936 165 52 C165.282 52.641 165.564 53.282 165.855 53.943 C169.673 62.756 172.531 71.725 175 81 C175.327 82.111 175.655 83.222 175.992 84.367 C184.01 112.274 185.366 141.434 185.261 170.306 C185.25 173.829 185.261 177.351 185.273 180.873 C185.287 199.886 184.404 218.461 179.938 237 C179.634 238.27 179.331 239.541 179.019 240.85 C172.082 268.572 157.845 295.029 132.849 310.269 C120.408 317.538 108.399 321.303 93.906 318.375 C80.52 314.345 68.704 306.527 57.626 298.217 C56.112 297.084 54.584 295.969 53.055 294.855 C46.312 289.904 39.862 284.643 33.427 279.301 C28.922 275.565 24.371 271.903 19.75 268.312 C14.624 264.323 9.628 260.207 4.689 255.988 C1.269 253.066 -2.19 250.204 -5.688 247.375 C-9.161 244.552 -12.517 241.653 -15.812 238.625 C-19.756 235.027 -23.848 231.706 -28.062 228.438 C-45.353 215.018 -45.353 215.018 -46.562 209.375 C-45.069 200.414 -35.263 192.987 -29.062 186.875 C-28.207 186.02 -27.352 185.166 -26.471 184.285 C-22.052 179.897 -17.554 175.677 -12.834 171.618 C-9.919 169.046 -7.215 166.279 -4.5 163.5 C-1.079 160.032 2.32 156.625 6.062 153.5 C13.223 147.388 19.455 140.07 25.484 132.859 C26.061 132.175 26.638 131.49 27.232 130.785 C28.348 129.453 29.454 128.112 30.548 126.762 C34.331 122.248 34.331 122.248 37.707 120.996 C42.276 121.004 44.932 123.965 48.031 126.969 C59.72 139.316 67.519 154.234 75.459 169.115 C77.993 173.859 80.556 178.587 83.125 183.312 C83.62 184.224 84.115 185.136 84.625 186.076 C87.778 191.854 91.059 197.538 94.438 203.188 C105.375 221.627 109.565 240.708 111 262 C112.892 262.681 112.892 262.681 115 263 C117.465 260.535 117.256 259.115 117.279 255.747 C117.269 255.046 117.26 254.346 117.25 253.625 C117.242 252.9 117.234 252.176 117.225 251.429 C116.726 227.152 105.505 206.3 93.344 185.945 C85 171.965 85 171.965 85 169 C86.176 169.392 87.351 169.784 88.562 170.188 C89.399 170.463 90.236 170.739 91.098 171.023 C93.092 171.694 95.079 172.389 97.059 173.102 C105.283 175.996 113.59 178.252 122.062 180.312 C123.687 180.712 123.687 180.712 125.344 181.12 C126.376 181.366 127.409 181.611 128.473 181.863 C129.853 182.193 129.853 182.193 131.262 182.529 C134.222 183.038 137.002 183.08 140 183 C140 181.35 140 179.7 140 178 C133.255 176.026 126.495 174.124 119.703 172.316 C118.581 172.017 117.459 171.718 116.302 171.41 C114.066 170.816 111.83 170.226 109.592 169.638 C103.199 167.939 96.971 165.992 90.729 163.804 C88.225 163.066 86.18 162.812 83.59 162.73 C79.713 161.942 79.256 161.659 77.004 158.676 C70.453 147.83 70.453 147.83 71.711 141.32 C73.256 138.294 74.897 135.553 76.824 132.766 C78.801 129.797 80.357 126.63 81.938 123.438 C82.428 122.465 82.428 122.465 82.927 121.473 C85.757 115.749 88.181 109.885 90.5 103.938 C90.851 103.057 91.201 102.176 91.562 101.269 C93.458 96.273 94.406 92.344 94 87 C92.68 87 91.36 87 90 87 C89.8 87.552 89.599 88.105 89.393 88.674 C84.942 100.855 80.115 112.562 74 124 C73.66 124.641 73.32 125.281 72.969 125.941 C71.003 129.641 69.013 133.326 67 137 C63.594 133.702 60.592 130.306 57.688 126.562 C52.5 120.148 46.198 113.578 37.625 112.625 C30.805 113.33 27.232 117.568 23.102 122.609 C22.738 123.068 22.375 123.527 22 124 C21.691 123.361 21.381 122.721 21.062 122.062 C20.165 120.064 20.165 120.064 19 119 C18.922 117.467 18.914 115.93 18.934 114.395 C18.949 112.922 18.949 112.922 18.964 111.419 C18.978 110.346 18.993 109.273 19.008 108.168 C19.025 105.902 19.042 103.635 19.059 101.369 C19.089 97.793 19.125 94.216 19.171 90.64 C19.214 87.191 19.237 83.742 19.258 80.293 C19.276 79.242 19.295 78.192 19.314 77.11 C19.356 64.8 15.722 53.868 10.625 42.812 C4.14 28.603 0.998 15.579 0 0 Z " fill="#FDFDFD" transform="translate(606,550)"/>
<path d="M0 0 C20.076 16.116 31.228 38.635 36.574 63.391 C36.752 64.008 36.929 64.626 37.112 65.262 C39.058 72.468 38.911 79.793 38.89 87.199 C38.887 89.49 38.91 91.78 38.936 94.07 C39.027 115.053 33.945 136.151 19.449 152.078 C-1.287 171.254 -30.385 173.447 -57.16 172.55 C-87.719 171.056 -115.335 158.341 -136.083 135.933 C-139.426 132.093 -141.983 127.837 -144.426 123.391 C-144.885 122.569 -145.344 121.748 -145.816 120.902 C-149.128 114.648 -151.449 108.177 -153.426 101.391 C-153.654 100.626 -153.882 99.862 -154.117 99.074 C-157.169 86.802 -156.178 72.603 -153.426 60.391 C-153.243 59.456 -153.06 58.521 -152.871 57.559 C-147.712 33.771 -132.456 12.085 -112.434 -1.664 C-77.555 -23.829 -33.551 -26.018 0 0 Z " fill="#D4D4D2" transform="translate(290.42578125,708.609375)"/>
<path d="M0 0 C2.767 1.291 5.05 2.706 7.398 4.652 C8.035 5.176 8.672 5.699 9.328 6.238 C10.003 6.799 10.679 7.36 11.375 7.938 C12.821 9.125 14.268 10.311 15.715 11.496 C16.438 12.089 17.161 12.682 17.906 13.292 C22.6 17.12 27.37 20.848 32.153 24.562 C33.434 25.559 34.712 26.56 35.987 27.562 C67.991 53.088 67.991 53.088 107 60 C113.291 58.899 119.534 57.316 125.184 54.301 C128 53 128 53 129.93 52.985 C133.264 54.62 134.367 57.745 135.941 60.945 C136.487 62.014 136.487 62.014 137.044 63.104 C138.231 65.438 139.397 67.781 140.562 70.125 C141.38 71.749 142.198 73.372 143.017 74.995 C145.014 78.963 146.993 82.94 148.966 86.92 C150.331 89.667 151.718 92.403 153.102 95.141 C193 175.179 193 175.179 193 208 C123.7 208 54.4 208 -17 208 C-15.878 194.537 -15.878 194.537 -15.339 189.254 C-15.218 188.058 -15.097 186.862 -14.973 185.63 C-14.844 184.359 -14.715 183.087 -14.582 181.777 C-11.115 147.174 -8.081 112.565 -5.625 77.875 C-5.561 76.975 -5.497 76.074 -5.432 75.147 C-4.25 58.434 -3.109 41.718 -2 25 C-0.763 25.165 0.475 25.33 1.75 25.5 C7.5 26.151 13.221 26.088 19 26 C18.297 23.973 18.297 23.973 17 22 C15.093 21.269 15.093 21.269 12.867 21.172 C11.659 21.056 11.659 21.056 10.426 20.938 C9.163 20.845 9.163 20.845 7.875 20.75 C6.601 20.634 6.601 20.634 5.301 20.516 C3.202 20.327 1.101 20.161 -1 20 C-1.114 13.234 -0.88 6.712 0 0 Z " fill="#BCBDBA" transform="translate(610,816)"/>
<path d="M0 0 C15.708 8.711 29.129 20.971 41.812 33.562 C42.601 34.342 43.389 35.121 44.201 35.923 C85.959 77.905 109.191 138.441 109.185 197.116 C109.187 199.731 109.206 202.346 109.225 204.961 C109.26 215.48 108.616 225.599 107 236 C106.798 237.304 106.597 238.608 106.389 239.951 C101.805 268.173 91.132 296.498 74.625 319.938 C74.196 320.548 73.767 321.158 73.324 321.787 C72.271 323.233 71.142 324.623 70 326 C69.34 326 68.68 326 68 326 C67.731 325.122 67.731 325.122 67.456 324.225 C62.177 307.219 55.539 291.12 48 275 C47.489 273.904 46.977 272.808 46.45 271.679 C35.287 247.867 22.856 224.872 9.598 202.164 C2.409 189.779 -3.734 177.317 -9 164 C-9.44 162.924 -9.879 161.847 -10.332 160.738 C-15.147 148.384 -16.525 135.973 -16.375 122.812 C-16.371 122.091 -16.366 121.369 -16.362 120.625 C-16.24 103.218 -13.474 87.578 -8.567 70.928 C-7.211 66.316 -6.031 61.695 -5 57 C-4.836 56.274 -4.672 55.549 -4.503 54.801 C-0.515 36.629 -0.19 18.521 0 0 Z " fill="#E0E0DC" transform="translate(796,313)"/>
<path d="M0 0 C3.488 1.303 6.754 2.985 10.062 4.688 C18.263 8.74 26.25 12.279 35 15 C35.66 15.215 36.319 15.43 36.999 15.651 C49.234 19.606 61.193 21.154 74 22 C73.812 22.932 73.812 22.932 73.62 23.882 C71.276 35.519 68.946 47.159 66.688 58.812 C66.489 59.834 66.291 60.855 66.087 61.907 C64.688 69.204 63.372 76.512 62.082 83.828 C61.561 86.764 61.039 89.7 60.517 92.636 C60.178 94.556 59.842 96.477 59.51 98.399 C54.765 125.886 48.333 159.571 24.117 176.688 C16.138 181.634 8.397 185.586 -1.159 183.537 C-8.536 181.399 -15.252 178.207 -22.125 174.812 C-23.324 174.227 -24.524 173.642 -25.724 173.057 C-29.154 171.38 -32.578 169.693 -36 168 C-36.883 167.563 -37.766 167.127 -38.676 166.677 C-43.128 164.471 -47.566 162.24 -52 160 C-54.666 158.665 -57.333 157.332 -60 156 C-58.256 149.587 -56.032 143.474 -53.562 137.312 C-45.407 116.698 -42.63 96.028 -42 74 C-41.261 74.07 -40.523 74.139 -39.762 74.211 C-31.462 74.654 -25.624 73.138 -19 68 C-16.963 65.676 -16.223 63.955 -15 61 C-14.423 59.845 -13.845 58.69 -13.25 57.5 C-10.495 49.705 -11.03 40.347 -13.5 32.562 C-16.452 23.186 -16.493 12.802 -12 4 C-8.148 -0.173 -5.56 -0.549 0 0 Z " fill="#FDFDFD" transform="translate(522,218)"/>
<path d="M0 0 C3.638 0.147 4.939 0.944 7.648 3.441 C8.569 4.471 9.477 5.512 10.375 6.562 C11.099 7.381 11.099 7.381 11.837 8.216 C13.236 9.802 14.619 11.399 16 13 C17.208 14.375 18.417 15.75 19.625 17.125 C20.166 17.75 20.708 18.375 21.266 19.02 C23.273 21.311 25.324 23.56 27.375 25.812 C31.401 30.266 35.206 34.868 38.957 39.555 C41.792 42.961 41.792 42.961 45 46 C46.32 46 47.64 46 49 46 C48.399 42.703 47.307 40.827 45.156 38.277 C44.574 37.579 43.991 36.881 43.391 36.162 C42.767 35.428 42.143 34.694 41.5 33.938 C40.215 32.405 38.929 30.873 37.645 29.34 C36.704 28.224 36.704 28.224 35.745 27.085 C34.271 25.324 32.82 23.549 31.387 21.754 C27.102 16.388 22.662 11.573 17.555 6.973 C16 5 16 5 16.258 2.746 C16.625 1.882 16.625 1.882 17 1 C18.73 0.344 18.73 0.344 21 0 C30.606 4.403 37.296 13.23 43.742 21.238 C45.79 23.743 47.895 26.162 50.062 28.562 C53.652 32.54 56.966 36.693 60.238 40.934 C62.013 43.206 62.013 43.206 65 45 C68.125 45.167 68.125 45.167 71 45 C70.429 38.923 67.937 33.766 65.5 28.25 C65.084 27.292 64.667 26.334 64.238 25.348 C62.201 20.636 62.201 20.636 60 16 C59.93 14.293 59.916 12.583 59.938 10.875 C59.947 9.965 59.956 9.055 59.965 8.117 C59.976 7.419 59.988 6.72 60 6 C62.475 5.505 62.475 5.505 65 5 C75.104 16.179 81.184 29.832 86 44 C86.344 44.975 86.689 45.949 87.044 46.954 C88.499 52.124 88.298 57.374 88.309 62.707 C88.334 65.008 88.359 67.31 88.385 69.611 C88.413 73.212 88.438 76.813 88.456 80.413 C88.478 83.907 88.518 87.401 88.559 90.895 C88.559 92.49 88.559 92.49 88.559 94.118 C88.638 100.122 89.338 105.113 91.457 110.75 C92.124 113.515 91.809 115.29 91 118 C89.18 120.176 89.18 120.176 86.875 122.312 C83.982 125.069 81.242 127.803 78.688 130.875 C75.63 134.433 72.317 137.634 68.875 140.812 C68.372 141.281 67.869 141.749 67.35 142.232 C64.416 144.903 61.475 147.084 58 149 C57.399 147.732 57.399 147.732 56.785 146.438 C52.907 138.699 48.93 133.287 42 128 C40.875 127.119 39.751 126.236 38.629 125.352 C36.807 123.92 34.985 122.488 33.161 121.059 C16.411 107.932 6.834 93.794 -2.557 74.823 C-4.541 70.943 -6.703 67.169 -8.887 63.399 C-10 61 -10 61 -10 57 C-6.023 58.326 -4.562 60.929 -2.188 64.188 C2.887 71.072 2.887 71.072 9 77 C11.137 76.698 11.137 76.698 13 76 C11.285 71.781 8.293 68.735 5.312 65.375 C0.475 59.825 -4.01 54.202 -8 48 C-8.432 47.343 -8.864 46.685 -9.309 46.008 C-11.444 42.564 -12.493 40.07 -12 36 C-10.02 35.505 -10.02 35.505 -8 35 C-1.911 42.158 4.136 49.338 10.027 56.66 C11.971 59.045 11.971 59.045 14.254 61.184 C16 63 16 63 16 65 C17.65 65 19.3 65 21 65 C20.576 59.797 19.16 57.592 15.5 53.938 C10.392 48.568 6.247 42.877 2.14 36.697 C0.949 34.925 -0.267 33.174 -1.492 31.426 C-1.901 30.842 -2.311 30.258 -2.732 29.656 C-3.13 29.089 -3.528 28.522 -3.938 27.938 C-10.324 18.826 -10.324 18.826 -10 13 C-7.367 12.602 -7.367 12.602 -4 13 C-1.739 15.092 0.003 16.977 1.875 19.375 C2.399 20.017 2.923 20.659 3.463 21.32 C4.992 23.201 6.497 25.098 8 27 C8.715 27.879 9.431 28.758 10.168 29.664 C12.136 32.091 14.071 34.541 16 37 C16.931 38.184 17.862 39.367 18.793 40.551 C20.692 42.966 22.589 45.383 24.484 47.801 C26.64 50.547 28.814 53.278 31 56 C32.98 55.505 32.98 55.505 35 55 C33.742 51.516 32.332 48.87 30 46 C27.093 42.37 24.248 38.705 21.438 35 C16.69 28.785 11.731 22.752 6.734 16.736 C6.163 16.049 5.592 15.361 5.004 14.652 C4.497 14.044 3.99 13.435 3.467 12.808 C2.983 12.212 2.499 11.615 2 11 C1.448 10.33 0.896 9.661 0.328 8.971 C-1.507 6.248 -1.285 4.208 -1 1 C-0.67 0.67 -0.34 0.34 0 0 Z " fill="#FBFBFB" transform="translate(530,565)"/>
<path d="M0 0 C4.984 0.585 8.749 2.864 13.062 5.25 C21.408 9.752 29.905 13.878 38.5 17.875 C39.668 18.422 40.836 18.969 42.039 19.532 C56.661 26.592 56.661 26.592 72.434 28.834 C79.204 28.763 83.424 29.564 88.408 34.36 C90.718 36.831 92.892 39.353 95 42 C93.747 45.333 92.331 48.288 90.426 51.293 C89.926 52.084 89.427 52.875 88.912 53.69 C88.384 54.514 87.856 55.338 87.312 56.188 C86.772 57.032 86.232 57.877 85.676 58.748 C84.605 60.416 83.531 62.082 82.455 63.747 C81.235 65.636 80.03 67.533 78.828 69.434 C78.245 70.322 77.663 71.21 77.062 72.125 C76.579 72.87 76.096 73.615 75.598 74.383 C73.421 76.586 72.079 76.755 69 77 C66.107 75.899 66.107 75.899 62.898 74.16 C62.313 73.847 61.727 73.534 61.124 73.211 C59.199 72.176 57.287 71.12 55.375 70.062 C54.032 69.333 52.688 68.603 51.345 67.875 C40.094 61.739 29.081 55.223 18.09 48.637 C5.065 40.836 -7.952 33.78 -22 28 C-22 23.471 -21.696 23.19 -18.711 20.137 C-18.016 19.414 -17.321 18.692 -16.605 17.947 C-15.869 17.202 -15.133 16.456 -14.375 15.688 C-12.944 14.214 -11.514 12.738 -10.086 11.262 C-9.396 10.551 -8.706 9.84 -7.995 9.107 C-5.21 6.166 -2.6 3.105 0 0 Z " fill="#FCFCFC" transform="translate(453,379)"/>
<path d="M0 0 C2.871 0.484 2.871 0.484 6.438 1.75 C18.801 5.615 32.204 4.337 45 4 C45.557 5.062 46.114 6.124 46.688 7.219 C53.25 19.48 59.568 27.274 72 34 C70.519 38.281 67.463 39.912 63.688 42 C62.753 42.523 62.753 42.523 61.8 43.057 C55.785 46.308 49.646 48.397 43 50 C42.087 50.224 41.175 50.449 40.234 50.68 C29.515 52.968 18.589 52.792 8 50 C7.192 49.805 6.384 49.611 5.551 49.41 C-10.404 45.177 -21.849 35.135 -30.637 21.469 C-32 19 -32 19 -32 17 C-31.178 16.841 -30.355 16.683 -29.508 16.52 C-18.273 14.171 -9.428 11.095 -2.27 1.738 C-1.521 1.165 -0.772 0.591 0 0 Z " fill="#FAFAFA" transform="translate(636,515)"/>
<path d="M0 0 C4.783 2.438 7.488 5.265 10 10 C10.25 12.875 10.25 12.875 10 15 C10.66 15 11.32 15 12 15 C12.227 14.402 12.454 13.804 12.688 13.188 C14.48 10.2 15.76 9.35 19 8 C23.156 7.362 27.158 7.001 30.945 9.055 C33.738 11.335 35.822 13.292 36.203 16.953 C36.35 24.17 34.47 28.973 29.625 34.496 C22.97 40.655 12.393 46.08 3.422 47.371 C-1.691 46.588 -4.878 41.82 -8 38 C-13.876 28.85 -17.178 20.978 -16 10 C-14.758 6.166 -12.795 3.666 -9.688 1.062 C-6.165 -0.33 -3.764 -0.462 0 0 Z " fill="#FA6D5B" transform="translate(587,74)"/>
<path d="M0 0 C3.996 3.219 5.068 5.666 5.875 10.75 C5.406 21.214 -1.298 29.98 -8.312 37.188 C-8.854 37.753 -9.396 38.319 -9.954 38.901 C-12.515 41.379 -14.271 42.733 -17.82 43.32 C-27.672 41.613 -36.576 34.074 -42.641 26.43 C-45.969 21.469 -47.713 17.176 -47.352 11.148 C-46.314 7.12 -43.875 4.46 -40.75 1.812 C-37.64 0.258 -35.187 0.526 -31.75 0.812 C-27.415 3.108 -24.517 5.769 -21.75 9.812 C-21.75 10.472 -21.75 11.132 -21.75 11.812 C-21.09 11.812 -20.43 11.812 -19.75 11.812 C-19.657 10.761 -19.657 10.761 -19.562 9.688 C-18.305 5.238 -15.583 2.157 -11.875 -0.562 C-7.643 -1.807 -4.05 -1.749 0 0 Z " fill="#FA6D5A" transform="translate(540.75,86.1875)"/>
<path d="M0 0 C-0.071 0.887 -0.141 1.774 -0.214 2.688 C-0.882 11.717 -1.157 20.684 -1.13 29.736 C-1.125 31.895 -1.13 34.053 -1.137 36.211 C-1.14 43.211 -0.978 50.061 0 57 C-4.458 57.088 -8.916 57.141 -13.375 57.188 C-14.627 57.213 -15.878 57.238 -17.168 57.264 C-32.242 57.382 -32.242 57.382 -38 54 C-39.216 51.129 -39.049 50.154 -38.074 47.117 C-37.388 45.512 -37.388 45.512 -36.688 43.875 C-33.108 35.001 -31.768 26.494 -31 17 C-30.478 16.781 -29.956 16.562 -29.418 16.336 C-20.115 12.328 -11.577 7.837 -3.777 1.32 C-2 0 -2 0 0 0 Z " fill="#FAFAFA" transform="translate(679,456)"/>
<path d="M0 0 C3.858 3.128 5.168 6.572 5.711 11.461 C5.615 27.007 5.615 27.007 0.578 32.906 C-2.519 35.932 -4.819 37.666 -9.062 38.688 C-14.952 37.367 -20.33 34.42 -24.457 29.965 C-26.722 26.118 -26.24 22.189 -25.688 17.875 C-23.814 10.721 -19.48 5.373 -13.688 0.875 C-8.871 -1.383 -5.032 -2.106 0 0 Z " fill="#FBFBFB" transform="translate(497.6875,249.125)"/>
<path d="M0 0 C4.112 0.734 5.675 1.565 8.5 4.625 C9.727 6.926 10.601 9.163 11.5 11.625 C12.119 10.986 12.737 10.346 13.375 9.688 C16.095 7.047 17.002 6.681 20.812 6.25 C24.5 6.625 24.5 6.625 27.438 8.688 C30.047 12.404 30.204 14.164 29.5 18.625 C25.019 27.242 17.937 30.614 9.523 34.684 C6.5 35.625 6.5 35.625 4.32 35.008 C-2.529 29.805 -7.543 22.592 -8.914 14.043 C-9.156 9.793 -8.949 6.534 -6.438 3 C-3.5 0.625 -3.5 0.625 0 0 Z " fill="#FA6E5B" transform="translate(866.5,293.375)"/>
<path d="M0 0 C3.319 3.698 5.904 7.466 6.387 12.523 C6.026 17.897 3.987 20.724 0.188 24.438 C-3.542 27.546 -6.818 27.966 -11.535 27.785 C-16.785 26.984 -19.979 24.507 -23.25 20.312 C-24.812 17.438 -24.812 17.438 -24.812 15.438 C-25.472 15.438 -26.133 15.438 -26.812 15.438 C-26.936 16.201 -27.06 16.964 -27.188 17.75 C-27.812 20.438 -27.812 20.438 -29.812 23.438 C-30.472 23.438 -31.133 23.438 -31.812 23.438 C-31.407 16.403 -29.676 9.403 -25.812 3.438 C-22.77 2.184 -22.77 2.184 -19.812 1.438 C-18.47 0.45 -17.135 -0.548 -15.812 -1.562 C-10.446 -3.317 -4.903 -2.724 0 0 Z " fill="#FDBEB8" transform="translate(688.8125,385.5625)"/>
<path d="M0 0 C2.062 0.438 2.062 0.438 4 1 C4.718 8.027 2.17 13.526 -0.5 19.938 C-0.956 21.049 -1.413 22.161 -1.883 23.306 C-7.422 36.638 -13.281 48.666 -21.996 60.207 C-24.126 62.885 -24.126 62.885 -25 66 C-23.32 66.073 -23.32 66.073 -21.605 66.148 C-20.133 66.223 -18.66 66.299 -17.188 66.375 C-16.45 66.406 -15.712 66.437 -14.951 66.469 C-11.181 66.673 -9.203 66.864 -6 69 C-6.33 70.65 -6.66 72.3 -7 74 C-11.75 75.125 -11.75 75.125 -14 74 C-15.748 73.846 -17.498 73.726 -19.25 73.625 C-24.84 73.163 -28.943 72.057 -33 68 C-33.593 64.033 -33.185 62.307 -31.094 58.844 C-30.24 57.721 -29.375 56.606 -28.5 55.5 C-16.668 39.687 -8.639 21.72 -1.875 3.238 C-1 1 -1 1 0 0 Z " fill="#3D3B3C" transform="translate(629,328)"/>
<path d="M0 0 C3.235 1.827 5.467 4.142 7.438 7.312 C8.491 12.346 7.975 16.433 5.25 20.812 C1.543 24.416 -0.71 25.857 -5.938 26.438 C-11.099 26.233 -14.133 23.68 -17.875 20.312 C-19.683 16.597 -19.639 13.044 -19 9 C-14.805 0.91 -9.024 -2.49 0 0 Z " fill="#FEC1BB" transform="translate(543,315)"/>
<path d="M0 0 C0 0.66 0 1.32 0 2 C-2.184 3.392 -4.368 4.674 -6.625 5.938 C-14.682 10.618 -21.886 15.998 -29 22 C-29.527 22.441 -30.054 22.881 -30.598 23.335 C-44.232 34.856 -58.501 50.679 -60.316 69.234 C-60.398 70.395 -60.479 71.555 -60.562 72.75 C-60.646 73.92 -60.73 75.091 -60.816 76.297 C-60.877 77.189 -60.938 78.081 -61 79 C-61.66 79 -62.32 79 -63 79 C-66.246 70.37 -66.35 61.422 -62.938 52.812 C-53.856 33.658 -24.392 0 0 0 Z " fill="#383838" transform="translate(481,142)"/>
<path d="M0 0 C3.687 0.478 6.573 1.651 9.875 3.312 C27.097 11.087 43.535 10.449 62 10 C62.495 12.475 62.495 12.475 63 15 C56.579 17.837 51.179 18.545 44.188 18.5 C42.683 18.494 42.683 18.494 41.147 18.487 C26.388 18.157 9.795 14.297 -2 5 C-1.125 1.125 -1.125 1.125 0 0 Z " fill="#3C393B" transform="translate(623,535)"/>
<path d="M0 0 C2.109 1.961 2.109 1.961 2.609 4.586 C2.109 6.961 2.109 6.961 -0.891 8.961 C-6.893 8.961 -10.884 7.579 -16.266 4.961 C-24.932 0.989 -33.479 0.981 -42.891 0.961 C-43.221 -0.359 -43.551 -1.679 -43.891 -3.039 C-31.799 -13.451 -11.988 -8.457 0 0 Z " fill="#393739" transform="translate(575.890625,262.0390625)"/>
<path d="M0 0 C1.32 0 2.64 0 4 0 C5.059 4.325 5.224 6.481 3.438 10.625 C-0.034 15.945 -5.044 19.865 -11 22 C-21.055 23.635 -28.592 19.796 -36.688 14.113 C-39.618 11.873 -42.391 9.609 -45 7 C-44.625 4.875 -44.625 4.875 -44 3 C-42.324 2.27 -42.324 2.27 -40 2 C-37.52 3.512 -37.52 3.512 -34.812 5.688 C-27.604 11.161 -21.27 15.216 -12 14 C-5.574 10.605 -3.056 6.404 0 0 Z " fill="#3E3C3E" transform="translate(571,293)"/>
<path d="M0 0 C2.188 0.062 2.188 0.062 5 1 C6.129 2.484 6.129 2.484 7.25 4.312 C10.243 8.844 13.822 10.602 19 12 C27.65 13.375 36.771 10.819 44 6 C46.188 6.375 46.188 6.375 48 7 C48.5 9.188 48.5 9.188 48 12 C45.591 14.152 42.872 15.551 40 17 C38.824 17.598 37.649 18.196 36.438 18.812 C27.912 21.738 17.294 21.228 9.16 17.398 C4.201 14.188 0.685 10.311 -1 4.625 C-1 2 -1 2 0 0 Z " fill="#3C3A3C" transform="translate(639,359)"/>
<path d="M0 0 C0.99 0 1.98 0 3 0 C3.416 1.39 3.416 1.39 3.84 2.809 C4.202 4.006 4.564 5.204 4.938 6.438 C5.297 7.632 5.657 8.827 6.027 10.059 C6.709 12.859 6.709 12.859 8 14 C9.849 14.234 11.705 14.413 13.562 14.562 C14.574 14.646 15.586 14.73 16.629 14.816 C17.411 14.877 18.194 14.938 19 15 C19.495 16.485 19.495 16.485 20 18 C15.641 19.699 11.614 21.168 7 22 C6.951 22.748 6.902 23.495 6.852 24.266 C6.777 25.25 6.702 26.235 6.625 27.25 C6.555 28.225 6.486 29.199 6.414 30.203 C6.015 32.896 5.365 34.67 4 37 C-0.364 33.418 -0.697 28.275 -2 23 C-5.96 22.67 -9.92 22.34 -14 22 C-14.33 20.68 -14.66 19.36 -15 18 C-14.145 17.807 -13.291 17.613 -12.41 17.414 C-11.305 17.154 -10.201 16.893 -9.062 16.625 C-7.96 16.37 -6.858 16.115 -5.723 15.852 C-4.824 15.571 -3.926 15.29 -3 15 C-1.728 12.456 -1.709 10.334 -1.5 7.5 C-1.111 2.222 -1.111 2.222 0 0 Z " fill="#ABABA8" transform="translate(169,526)"/>
<path d="M0 0 C12.49 -0.925 23.996 6.258 33.688 13.625 C36.163 16.167 36.8 17.498 37 21 C32.958 22.364 30.586 21.713 26.784 19.903 C26.141 19.579 25.498 19.256 24.836 18.922 C24.162 18.595 23.488 18.267 22.794 17.93 C21.374 17.237 19.957 16.537 18.543 15.832 C16.382 14.754 14.212 13.698 12.039 12.645 C10.658 11.967 9.278 11.289 7.898 10.609 C7.252 10.294 6.605 9.978 5.938 9.653 C2.848 8.102 0.24 6.671 -2 4 C-1.34 2.68 -0.68 1.36 0 0 Z " fill="#3B393B" transform="translate(654,325)"/>
<path d="M0 0 C3.062 0.312 3.062 0.312 4.938 1.438 C6.684 4.348 6.563 5.935 6.062 9.312 C4.105 13.555 1.65 17.431 -0.938 21.312 C-7.456 20.824 -12.382 17.79 -17 13.312 C-18.276 10.59 -17.897 9.117 -16.938 6.312 C-16.278 5.653 -15.618 4.992 -14.938 4.312 C-11.128 4.637 -9.154 5.168 -5.938 7.312 C-5.814 6.529 -5.69 5.745 -5.562 4.938 C-4.671 1.192 -3.843 0.409 0 0 Z " fill="#F36D5B" transform="translate(197.9375,632.6875)"/>
<path d="M0 0 C4 2 4 2 5.84 3.051 C10.18 4.958 15.606 4.824 20.066 3.289 C20.663 3.008 21.26 2.727 21.875 2.438 C25 1 25 1 27.438 1.312 C27.953 1.539 28.469 1.766 29 2 C28.66 5.17 28.001 5.999 25.562 8.188 C21.403 11.13 18.867 11.217 13.75 11.312 C12.445 11.35 11.141 11.387 9.797 11.426 C5.43 10.936 3.331 9.82 0 7 C-0.938 3.812 -0.938 3.812 -1 1 C-0.67 0.67 -0.34 0.34 0 0 Z " fill="#424042" transform="translate(604,414)"/>
<path d="M0 0 C0.99 0.33 1.98 0.66 3 1 C3.041 2.093 3.082 3.186 3.125 4.312 C3.606 8.25 3.606 8.25 7.062 9.938 C8.032 10.288 9.001 10.639 10 11 C10 11.66 10 12.32 10 13 C8.742 13.371 7.484 13.743 6.188 14.125 C2.665 15.415 2.111 15.823 0 19.188 C-0.33 20.116 -0.66 21.044 -1 22 C-1.66 22 -2.32 22 -3 22 C-3.062 20.391 -3.062 20.391 -3.125 18.75 C-3.633 14.764 -3.633 14.764 -7.062 12.688 C-8.032 12.131 -9.001 11.574 -10 11 C-10 10.34 -10 9.68 -10 9 C-8.36 8.443 -8.36 8.443 -6.688 7.875 C-3.454 6.52 -3.014 6.023 -1.062 2.812 C-0.712 1.884 -0.361 0.956 0 0 Z " fill="#A9A9A8" transform="translate(697,140)"/>
<path d="M0 0 C2.31 0 4.62 0 7 0 C5.178 6.612 2.948 12.805 0 19 C-1.32 19 -2.64 19 -4 19 C-4.553 11.648 -3.511 6.488 0 0 Z " fill="#FBC5BC" transform="translate(575,368)"/>
<path d="M0 0 C1.32 0 2.64 0 4 0 C2.177 7.516 -0.758 13.548 -5 20 C-5.99 19.67 -6.98 19.34 -8 19 C-6.714 12.688 -4.697 4.697 0 0 Z " fill="#FDC8BD" transform="translate(651,385)"/>
<path d="M0 0 C1.32 0 2.64 0 4 0 C3.453 5.006 1.759 8.972 -0.562 13.375 C-0.892 14.016 -1.221 14.656 -1.561 15.316 C-2.366 16.881 -3.182 18.441 -4 20 C-5.32 19.67 -6.64 19.34 -8 19 C-6.004 12.281 -3.271 6.193 0 0 Z " fill="#FEC4BB" transform="translate(657,387)"/>
<path d="M0 0 C1.32 0.33 2.64 0.66 4 1 C3.562 7.568 1.271 13.299 -2 19 C-2.99 19.66 -3.98 20.32 -5 21 C-5.33 20.67 -5.66 20.34 -6 20 C-5.676 12.876 -2.662 6.533 0 0 Z " fill="#FDCAC2" transform="translate(584,368)"/>
<path d="M0 0 C0.99 0.33 1.98 0.66 3 1 C1.965 6.884 0.757 13.187 -3 18 C-5.133 18.719 -5.133 18.719 -7 19 C-5.345 12.178 -3.374 6.166 0 0 Z " fill="#FCC9C1" transform="translate(591,370)"/>
<path d="M0 0 C0.99 0 1.98 0 3 0 C1.264 6.419 -0.852 12.138 -4 18 C-4.99 17.67 -5.98 17.34 -7 17 C-4.128 4.773 -4.128 4.773 0 0 Z " fill="#FECBC3" transform="translate(645,384)"/>
<path d="M0 0 C0.99 0.33 1.98 0.66 3 1 C2.243 2.984 1.469 4.962 0.688 6.938 C0.258 8.04 -0.171 9.142 -0.613 10.277 C-2 13 -2 13 -5 14 C-3.465 9.278 -1.761 4.641 0 0 Z " fill="#FEF3ED" transform="translate(581,370)"/>
<path d="M0 0 C1.214 3.642 0.667 4.332 -0.938 7.688 C-1.318 8.496 -1.698 9.304 -2.09 10.137 C-2.39 10.752 -2.691 11.366 -3 12 C-3.66 12 -4.32 12 -5 12 C-4.55 10.373 -4.089 8.748 -3.625 7.125 C-3.37 6.22 -3.115 5.315 -2.852 4.383 C-2 2 -2 2 0 0 Z " fill="#FDF2EB" transform="translate(662,388)"/>
<path d="M0 0 C1.236 3.708 0.568 4.675 -0.938 8.188 C-1.318 9.089 -1.698 9.99 -2.09 10.918 C-2.54 11.949 -2.54 11.949 -3 13 C-3.66 13 -4.32 13 -5 13 C-4.393 8.14 -2.272 4.259 0 0 Z " fill="#FEF5ED" transform="translate(588,373)"/>
<path d="M0 0 C1 3 1 3 0.223 5.043 C-0.16 5.751 -0.543 6.458 -0.938 7.188 C-1.318 7.903 -1.698 8.618 -2.09 9.355 C-2.54 10.17 -2.54 10.17 -3 11 C-3.66 11 -4.32 11 -5 11 C-4.549 9.539 -4.089 8.082 -3.625 6.625 C-3.37 5.813 -3.115 5.001 -2.852 4.164 C-2 2 -2 2 0 0 Z " fill="#FEF5EF" transform="translate(654,390)"/>
<path d="M0 0 C0 0.66 0 1.32 0 2 C-3.96 3.98 -3.96 3.98 -8 6 C-7.67 4.68 -7.34 3.36 -7 2 C-4.557 0.747 -2.755 0 0 0 Z " fill="#474445" transform="translate(481,142)"/>
</svg>