<svg version="1.1" xmlns="http://www.w3.org/2000/svg" width="1024" height="1024">
<path d="M0 0 C337.92 0 675.84 0 1024 0 C1024 337.92 1024 675.84 1024 1024 C686.08 1024 348.16 1024 0 1024 C0 686.08 0 348.16 0 0 Z " fill="#1C496F" transform="translate(0,0)"/>
<path d="M0 0 C5.283 1.293 10.632 2.222 15.981 3.198 C25.221 4.927 34.13 6.96 43.106 9.76 C44.875 10.248 46.646 10.727 48.419 11.198 C61.357 14.728 73.708 18.554 85.978 24.046 C94.444 27.604 102.178 28.693 111.294 29.26 C114.118 29.473 116.941 29.708 119.763 29.952 C120.465 30.012 121.168 30.073 121.892 30.135 C137.098 31.52 152.752 34.457 167.106 39.76 C168.124 40.105 169.141 40.449 170.188 40.803 C182.626 45.387 190.157 53.568 195.794 65.26 C197.723 70.698 198.071 76.545 198.677 82.249 C198.984 85.724 198.984 85.724 200.106 88.76 C200.213 90.291 200.265 91.826 200.283 93.36 C200.296 94.3 200.309 95.241 200.322 96.21 C200.329 97.236 200.337 98.262 200.345 99.319 C200.354 100.394 200.364 101.47 200.374 102.577 C200.399 106.118 200.411 109.658 200.419 113.198 C200.422 114.407 200.425 115.617 200.428 116.863 C200.442 143.02 198.26 168.704 195.173 194.651 C192.121 220.521 190.584 248.683 195.629 274.429 C196.302 279.125 196.269 283.765 196.274 288.503 C196.278 289.544 196.281 290.585 196.285 291.658 C196.29 293.862 196.292 296.065 196.292 298.269 C196.294 301.589 196.312 304.909 196.331 308.229 C196.419 340.784 196.419 340.784 190.106 352.76 C189.697 353.551 189.287 354.341 188.864 355.155 C180.27 369.794 160.347 372.794 145.13 377.174 C142.094 378.054 139.068 378.965 136.044 379.885 C134.603 380.322 134.603 380.322 133.134 380.768 C125.158 383.382 117.423 386.632 109.655 389.8 C107.562 390.654 105.468 391.505 103.374 392.356 C96.783 395.036 90.195 397.722 83.613 400.423 C56.496 411.547 56.496 411.547 44.481 415.612 C40.657 416.914 36.883 418.327 33.106 419.76 C19.955 424.746 6.581 428.432 -7.019 431.994 C-10.56 432.938 -14.069 433.965 -17.581 435.01 C-54.236 445.445 -84.277 433.225 -118.769 420.635 C-124.143 418.675 -129.517 416.715 -134.894 414.76 C-135.809 414.427 -136.724 414.094 -137.667 413.751 C-150.792 409.021 -164.267 405.811 -177.813 402.518 C-182.663 401.325 -187.48 400.02 -192.3 398.71 C-195.004 397.996 -197.707 397.312 -200.425 396.655 C-252.809 383.981 -252.809 383.981 -263.894 369.76 C-266.191 365.876 -268.119 361.908 -269.894 357.76 C-270.245 356.978 -270.597 356.196 -270.96 355.389 C-272.188 351.932 -272.834 348.427 -273.456 344.823 C-273.582 344.152 -273.707 343.481 -273.837 342.79 C-276.101 329.927 -276.093 316.842 -276.081 303.823 C-276.082 302.553 -276.082 302.553 -276.083 301.258 C-276.082 289.823 -275.744 278.458 -275.034 267.046 C-272.435 224.786 -272.569 182.586 -278.031 140.57 C-279.521 129.078 -280.103 117.659 -280.134 106.077 C-280.144 103.895 -280.175 101.713 -280.206 99.53 C-280.309 85.806 -279.388 70.543 -270.097 59.655 C-256.281 46.229 -237.267 41.943 -218.894 38.76 C-217.512 38.509 -217.512 38.509 -216.102 38.252 C-210.108 37.232 -204.278 36.635 -198.198 36.471 C-176.845 35.796 -160.781 30.463 -141.876 20.705 C-135.36 17.386 -128.632 14.842 -121.743 12.414 C-120.004 11.799 -118.271 11.167 -116.538 10.534 C-103.437 5.75 -90.401 1.605 -76.769 -1.365 C-73.122 -2.025 -73.122 -2.025 -70.894 -3.24 C-68.595 -3.548 -66.296 -3.748 -63.987 -3.958 C-42.735 -6.813 -21.019 -5.434 0 0 Z " fill="#FBFBFC" transform="translate(550.8935546875,420.239501953125)"/>
<path d="M0 0 C5.949 0.06 11.462 0.978 17.258 2.254 C18.143 2.434 19.029 2.614 19.941 2.799 C40.79 7.242 61.177 13.967 81.517 20.268 C88.344 22.383 95.175 24.488 102.008 26.586 C102.676 26.791 103.344 26.996 104.033 27.208 C114.818 30.517 125.639 33.669 136.508 36.691 C202.604 55.15 202.604 55.15 214.133 71.191 C221.947 90.82 219.429 116.611 219.439 137.261 C219.443 140.787 219.461 144.313 219.479 147.839 C219.53 159.015 219.562 170.19 219.584 181.366 C219.604 190.869 219.637 200.372 219.691 209.875 C219.695 210.581 219.699 211.287 219.703 212.015 C219.823 232.115 220.58 251.933 222.801 271.917 C224.561 289.281 224.319 306.892 224.318 324.323 C224.32 328.046 224.339 331.768 224.357 335.49 C224.36 337.897 224.362 340.304 224.363 342.711 C224.37 343.804 224.378 344.897 224.385 346.023 C224.335 363.091 224.335 363.091 220.133 370.191 C214.178 374.178 206.143 372.541 199.511 371.267 C188.426 368.85 178.243 364.302 167.875 359.801 C161.168 356.903 154.412 354.121 147.665 351.318 C144.556 350.025 141.45 348.727 138.343 347.429 C136.188 346.531 134.031 345.639 131.873 344.747 C129.738 343.864 127.617 342.965 125.502 342.036 C117.902 338.772 109.902 336.844 101.912 334.782 C99.4 334.133 96.891 333.475 94.383 332.814 C77.558 328.409 77.558 328.409 60.445 325.379 C41.922 322.42 19.209 315.255 7.133 300.191 C-8.417 276.356 -5.423 246.19 -3.992 219.031 C-3.902 217.262 -3.812 215.493 -3.723 213.723 C-3.49 209.128 -3.252 204.534 -3.013 199.939 C-2.768 195.226 -2.529 190.512 -2.289 185.799 C-1.82 176.596 -1.345 167.394 -0.867 158.191 C-0.207 158.191 0.453 158.191 1.133 158.191 C5.001 172.432 8.528 186.663 11.133 201.191 C11.3 202.113 11.467 203.035 11.639 203.985 C12.732 210.237 13.514 216.465 14.121 222.781 C15.07 232.574 16.28 242.178 18.57 251.754 C18.763 252.567 18.957 253.379 19.156 254.217 C21.644 264.003 25.526 272.8 31.133 281.191 C31.673 282.005 32.213 282.818 32.77 283.656 C43.27 298.075 62.66 309.127 79.133 315.191 C80.123 315.191 81.113 315.191 82.133 315.191 C81.429 314.742 80.725 314.292 80 313.828 C61.878 302.023 44.352 288.674 34.133 269.191 C33.305 267.706 33.305 267.706 32.461 266.191 C25.66 252.993 24.267 238.192 22.695 223.629 C19.962 198.344 14.137 173.588 8.767 148.762 C0.719 111.536 -7.133 74.256 -6.992 36.004 C-6.991 35.284 -6.99 34.564 -6.988 33.822 C-6.972 25.272 -6.895 16.73 -6.43 8.191 C-6.391 7.469 -6.351 6.747 -6.311 6.003 C-5.943 0.417 -5.533 0.043 0 0 Z " fill="#6CA9C6" transform="translate(289.8671875,484.80859375)"/>
<path d="M0 0 C2.048 1.562 2.884 2.606 3.616 5.089 C4.004 7.995 4.372 10.897 4.688 13.812 C4.813 14.967 4.939 16.121 5.069 17.31 C7.663 44.836 7.292 73.554 4 101 C3.855 102.238 3.71 103.475 3.561 104.75 C1.974 118.188 0.219 131.585 -2.281 144.887 C-3.391 150.979 -4.135 157.129 -4.943 163.267 C-5.648 168.571 -6.456 173.806 -7.582 179.039 C-7.952 181.659 -8.051 184.072 -8.074 186.711 C-8.418 200.984 -8.418 200.984 -12.996 205.488 C-15.941 207.907 -19.1 209.949 -22.349 211.933 C-25.71 214.105 -28.292 217.091 -31 220 C-31.804 220.784 -32.609 221.567 -33.438 222.375 C-34.706 223.674 -34.706 223.674 -36 225 C-36.596 225.599 -37.191 226.199 -37.805 226.816 C-46.186 235.671 -51.28 246.12 -56.062 257.188 C-67.183 282.893 -87.03 298.276 -112.5 308.68 C-132.232 316.123 -147.89 314.928 -166.855 306.43 C-171 304.53 -175.127 302.596 -179.254 300.66 C-190.567 295.377 -201.608 291.498 -213.965 289.543 C-217 289 -217 289 -218 288 C-218.207 285.736 -218.349 283.466 -218.465 281.195 C-218.502 280.493 -218.54 279.791 -218.579 279.068 C-218.66 277.549 -218.739 276.03 -218.816 274.511 C-219.021 270.489 -219.24 266.467 -219.461 262.445 C-219.505 261.637 -219.549 260.828 -219.595 259.994 C-219.985 252.988 -220.506 245.995 -221.062 239 C-222.524 219.982 -223.086 200.971 -223.175 181.901 C-223.183 180.264 -223.194 178.628 -223.209 176.992 C-223.226 174.701 -223.23 172.411 -223.23 170.121 C-223.238 169.43 -223.245 168.738 -223.252 168.026 C-223.229 163.229 -223.229 163.229 -221 161 C-220.67 164.3 -220.34 167.6 -220 171 C-219.96 170.187 -219.921 169.373 -219.88 168.535 C-216.789 107.813 -216.789 107.813 -201.941 92.938 C-185.487 78.195 -162.514 69.663 -142.908 59.946 C-141.999 59.495 -141.091 59.044 -140.154 58.58 C-138.422 57.721 -136.689 56.864 -134.955 56.009 C-133.799 55.435 -133.799 55.435 -132.62 54.851 C-131.942 54.516 -131.265 54.182 -130.567 53.837 C-129.001 53.098 -129.001 53.098 -128 52 C-154.845 55.162 -193.499 69.607 -212.312 89.438 C-222.227 104.493 -222.003 121.352 -222.562 138.812 C-222.627 140.728 -222.627 140.728 -222.693 142.682 C-222.798 145.788 -222.9 148.894 -223 152 C-223.33 152 -223.66 152 -224 152 C-225.594 138.696 -226.32 125.585 -226.261 112.187 C-226.25 109.276 -226.261 106.366 -226.273 103.455 C-226.272 101.57 -226.27 99.686 -226.266 97.801 C-226.27 96.948 -226.274 96.094 -226.278 95.215 C-226.211 86.502 -225.163 78.915 -219.276 72.205 C-210.504 63.707 -195.865 60.646 -184.562 56.875 C-182.752 56.262 -180.941 55.649 -179.131 55.035 C-169.795 51.879 -160.432 48.856 -151 46 C-139.825 42.555 -128.7 38.964 -117.587 35.325 C-101.562 30.08 -85.511 24.922 -69.422 19.875 C-58.874 16.565 -48.373 13.145 -37.902 9.598 C-30.562 7.133 -23.161 4.996 -15.68 3.008 C-13.337 2.366 -11.008 1.665 -8.707 0.887 C-5.595 -0.133 -3.253 -0.361 0 0 Z " fill="#81C2DD" transform="translate(738,480)"/>
<path d="M0 0 C1.197 -0.009 2.393 -0.019 3.626 -0.029 C21.395 0.036 38.123 3.96 54.883 9.584 C56.904 10.26 58.93 10.919 60.957 11.578 C62.256 12.009 63.554 12.442 64.852 12.875 C66.01 13.259 67.168 13.643 68.362 14.039 C71.045 15.164 72.439 16.025 74.25 18.25 C73.279 18.392 73.279 18.392 72.288 18.538 C28.643 23.955 28.643 23.955 -7.75 46.25 C-8.801 48.223 -9.812 50.22 -10.75 52.25 C-10.058 51.814 -9.366 51.379 -8.652 50.93 C9.157 40.089 28.875 34.979 49.25 31.25 C50.456 31.019 50.456 31.019 51.687 30.784 C66.811 28.009 81.985 27.934 97.312 27.875 C98.332 27.867 99.351 27.859 100.401 27.851 C112.413 27.779 123.585 28.237 135.25 31.25 C136.019 31.434 136.789 31.617 137.582 31.807 C155.376 36.182 155.376 36.182 160.25 43.25 C142.958 49.052 125.651 54.782 108.25 60.25 C105.146 61.228 102.042 62.208 98.938 63.188 C98.178 63.427 97.419 63.667 96.637 63.913 C82.224 68.465 67.817 73.027 53.5 77.875 C46.798 80.141 40.07 82.184 33.25 84.062 C23.26 86.821 13.51 90.207 3.733 93.632 C-4.258 96.423 -12.265 98.996 -20.41 101.293 C-23.92 102.299 -27.361 103.429 -30.793 104.672 C-47.375 109.57 -63.229 105.315 -78.938 99.75 C-80.841 99.1 -82.745 98.453 -84.65 97.809 C-89.226 96.256 -93.791 94.674 -98.354 93.082 C-103.659 91.24 -108.986 89.464 -114.312 87.688 C-115.235 87.377 -116.158 87.066 -117.109 86.745 C-123.587 84.579 -130.114 82.677 -136.711 80.907 C-141.941 79.501 -147.057 77.86 -152.18 76.098 C-155.666 74.948 -159.174 74.075 -162.75 73.25 C-162.75 72.59 -162.75 71.93 -162.75 71.25 C-159.854 70.928 -156.959 70.607 -154.063 70.285 C-151.59 70.01 -149.118 69.733 -146.646 69.455 C-141.224 68.846 -135.805 68.241 -130.371 67.746 C-121.737 66.94 -113.854 65.523 -105.75 62.25 C-105.75 60.93 -105.75 59.61 -105.75 58.25 C-111.959 54.759 -117.486 53.242 -124.5 52.188 C-125.526 52.023 -126.553 51.859 -127.61 51.69 C-137.077 50.23 -146.592 49.222 -156.132 48.377 C-164.198 47.613 -171.767 46.437 -178.938 42.5 C-180.75 40.25 -180.75 40.25 -181 37.062 C-179.862 31.938 -176.162 28.072 -172.75 24.25 C-172.233 23.575 -171.716 22.9 -171.183 22.204 C-167.655 19.371 -164.353 19.292 -159.938 18.871 C-158.628 18.725 -158.628 18.725 -157.293 18.577 C-154.447 18.264 -151.599 17.976 -148.75 17.688 C-146.778 17.474 -144.806 17.259 -142.835 17.043 C-134.483 16.133 -126.125 15.286 -117.766 14.441 C-102.693 12.909 -87.821 10.742 -72.877 8.252 C-60.717 6.239 -48.517 4.478 -36.312 2.755 C-34.2 2.455 -32.087 2.152 -29.977 1.839 C-19.985 0.366 -10.099 0.059 0 0 Z " fill="#67A2C0" transform="translate(562.75,431.75)"/>
<path d="M0 0 C-0.6 37.17 -11.584 74.838 -23.013 109.956 C-24.154 113.474 -25.256 117.004 -26.353 120.536 C-27.288 123.537 -28.247 126.53 -29.208 129.523 C-29.783 131.32 -30.351 133.119 -30.917 134.918 C-41.316 167.942 -41.316 167.942 -53 176 C-57.268 178.134 -62.377 177.563 -67 177 C-74.294 174.407 -77.542 169.217 -80.809 162.488 C-84.063 152.961 -84.302 143.339 -84.336 133.375 C-84.344 130.955 -84.365 128.535 -84.388 126.115 C-84.436 120.973 -84.469 115.83 -84.5 110.688 C-84.536 104.729 -84.578 98.772 -84.636 92.814 C-84.656 90.455 -84.664 88.097 -84.672 85.739 C-84.809 66.015 -87.437 49.817 -101.742 35.223 C-102.157 34.819 -102.572 34.416 -103 34 C-102.67 33.01 -102.34 32.02 -102 31 C-99.191 29.973 -99.191 29.973 -95.562 29.062 C-90.396 27.752 -85.628 26.09 -80.698 24.068 C-75.929 22.18 -71.058 20.603 -66.188 19 C-65.126 18.648 -64.064 18.296 -62.97 17.934 C-56.729 15.874 -50.473 13.883 -44.18 11.988 C-40.18 10.745 -36.218 9.402 -32.25 8.062 C-26.108 6.002 -19.951 4.002 -13.75 2.125 C-12.714 1.802 -12.714 1.802 -11.657 1.473 C-7.662 0.286 -4.163 -0.22 0 0 Z " fill="#C0E7FB" transform="translate(721,491)"/>
<path d="M0 0 C20.722 -0.543 51.629 7.017 67.648 21.059 C70.512 24.047 72.224 26.166 73.121 30.242 C71.554 36.795 67.653 40.198 62.141 43.617 C35.187 58.552 1.609 62.069 -28.566 65.117 C-30.109 65.274 -30.109 65.274 -31.684 65.434 C-46.912 66.904 -62.091 67.319 -77.379 67.367 C-78.224 67.372 -79.069 67.378 -79.94 67.383 C-118.499 67.569 -118.499 67.569 -129.566 57.117 C-130.254 54.18 -130.254 54.18 -129.566 51.117 C-119.511 37.92 -93.403 31.456 -78.066 26.312 C-75.187 25.329 -72.422 24.253 -69.629 23.055 C-64.484 20.943 -59.17 19.565 -53.811 18.115 C-32.769 13.508 -32.769 13.508 -14.504 3.43 C-9.902 -0.193 -5.655 0.258 0 0 Z " fill="#FDFDFE" transform="translate(756.56640625,781.8828125)"/>
<path d="M0 0 C1.457 0.005 2.914 0.01 4.371 0.014 C7.914 0.025 11.457 0.042 15 0.062 C12.375 4 9.615 4.302 5.25 5.375 C4.022 5.689 4.022 5.689 2.77 6.01 C-6.428 8.292 -15.741 10.018 -25.042 11.823 C-40.557 14.666 -40.557 14.666 -55.242 20.203 C-57 21.062 -57 21.062 -60 21.062 C-54.708 40.768 -37.664 54.289 -22 66.062 C-21.157 66.712 -20.314 67.362 -19.445 68.031 C-10.139 74.925 2.2 82.653 14 82.062 C17.465 81.072 17.465 81.072 21 80.062 C21 87.653 21 95.243 21 103.062 C6.318 110.403 6.318 110.403 -3 109.062 C-12.69 105.562 -20.391 99.926 -28 93.062 C-28.977 92.194 -29.954 91.325 -30.961 90.43 C-34.018 87.687 -37.017 84.885 -40 82.062 C-40.929 81.187 -41.859 80.312 -42.816 79.41 C-55.409 67.212 -74.521 47.307 -75.438 28.875 C-74.761 22.982 -73.347 18.848 -68.75 15 C-55.469 6.035 -39.485 3.669 -24 1.062 C-22.761 0.854 -21.522 0.645 -20.246 0.43 C-13.554 -0.341 -6.728 -0.04 0 0 Z " fill="#F3F9FD" transform="translate(484,709.9375)"/>
<path d="M0 0 C7.69 3.334 14.596 6.565 19 14 C19.857 17.895 19.274 19.427 17.562 23 C-3.109 47.201 -52.847 49.055 -82 52 C-83.543 52.157 -83.543 52.157 -85.117 52.316 C-100.346 53.787 -115.524 54.201 -130.812 54.25 C-131.658 54.255 -132.503 54.261 -133.374 54.266 C-171.933 54.452 -171.933 54.452 -183 44 C-183.688 41.062 -183.688 41.062 -183 38 C-180.159 34.51 -177.052 31.971 -173 30 C-171 31 -171 31 -170 33 C-160.359 38.077 -148.609 39.238 -138 41 C-137.139 41.154 -136.278 41.308 -135.391 41.466 C-121.069 43.979 -106.813 44.289 -92.312 44.312 C-91.414 44.316 -90.516 44.32 -89.591 44.323 C-71.856 44.361 -54.232 43.233 -36.812 39.75 C-35.725 39.535 -34.638 39.321 -33.518 39.099 C-12.154 35.002 -12.154 35.002 5.484 23.277 C7.88 19.545 8.883 16.326 8 12 C6.628 9.846 5.14 7.893 3.508 5.93 C2.024 4.031 1 2.185 0 0 Z " fill="#89C5E0" transform="translate(810,795)"/>
<path d="M0 0 C0.993 3.634 1.115 6.379 0 10 C-3.454 13.944 -8.048 16.785 -12.316 19.772 C-15.578 22.151 -18.26 25.057 -21 28 C-21.804 28.784 -22.609 29.567 -23.438 30.375 C-24.283 31.241 -25.129 32.107 -26 33 C-26.596 33.599 -27.191 34.199 -27.805 34.816 C-36.186 43.671 -41.28 54.12 -46.062 65.188 C-57.183 90.893 -77.03 106.276 -102.5 116.68 C-122.232 124.123 -137.89 122.928 -156.855 114.43 C-161 112.53 -165.127 110.596 -169.254 108.66 C-180.567 103.377 -191.608 99.498 -203.965 97.543 C-207 97 -207 97 -208 96 C-208.041 94 -208.043 92 -208 90 C-195.525 89.252 -183.887 93.442 -172.562 98.25 C-171.39 98.737 -170.217 99.223 -169.008 99.724 C-162.721 102.353 -156.512 105.102 -150.375 108.062 C-145.256 110.494 -140.662 112.453 -135 113 C-134.087 113.093 -133.175 113.186 -132.234 113.281 C-110.071 114.395 -86.194 103.169 -69.672 89.004 C-60.396 80.206 -55.228 69.657 -50.012 58.212 C-43.206 43.33 -19.927 0 0 0 Z " fill="#305578" transform="translate(728,672)"/>
<path d="M0 0 C1.875 1.25 1.875 1.25 3 3 C3 4.32 3 5.64 3 7 C2.382 7.095 1.764 7.19 1.127 7.288 C-10.023 9.031 -20.764 10.857 -31.395 14.715 C-35.411 16.147 -39.463 17.334 -43.562 18.5 C-48.78 20 -53.899 21.63 -59 23.5 C-63.979 25.324 -68.969 26.917 -74.062 28.375 C-83.344 31.034 -92.478 34.102 -101.622 37.196 C-107.803 39.285 -113.999 41.33 -120.195 43.375 C-122.168 44.028 -124.14 44.681 -126.112 45.334 C-127.457 45.779 -128.803 46.223 -130.149 46.666 C-132.124 47.316 -134.097 47.97 -136.07 48.625 C-137.233 49.009 -138.396 49.393 -139.594 49.789 C-143.136 51.048 -146.548 52.516 -150 54 C-151.74 54.602 -153.49 55.178 -155.25 55.719 C-156.188 56.011 -157.127 56.304 -158.094 56.605 C-160.031 57.202 -161.969 57.798 -163.906 58.395 C-169.09 60.011 -174.01 61.847 -179 64 C-182.813 65.354 -186.655 66.615 -190.5 67.875 C-192.639 68.581 -194.779 69.286 -196.918 69.992 C-198.473 70.504 -198.473 70.504 -200.06 71.026 C-202.645 71.882 -205.224 72.752 -207.801 73.633 C-208.835 73.985 -208.835 73.985 -209.891 74.344 C-211.684 74.956 -213.477 75.572 -215.27 76.188 C-218 77 -218 77 -221 77 C-219.669 71.825 -216.373 69.641 -212 67 C-209.353 65.742 -206.644 64.766 -203.875 63.812 C-203.079 63.529 -202.284 63.246 -201.464 62.954 C-198.647 61.956 -195.824 60.978 -193 60 C-190.589 59.156 -188.177 58.313 -185.766 57.469 C-174.233 53.449 -162.687 49.552 -151 46 C-139.825 42.555 -128.7 38.964 -117.587 35.325 C-101.562 30.08 -85.511 24.922 -69.422 19.875 C-58.874 16.565 -48.373 13.145 -37.902 9.598 C-30.562 7.133 -23.161 4.996 -15.68 3.008 C-13.337 2.366 -11.008 1.665 -8.707 0.887 C-5.595 -0.133 -3.253 -0.361 0 0 Z " fill="#345779" transform="translate(738,480)"/>
<path d="M0 0 C-2.721 2.941 -5.194 4.838 -8.79 6.59 C-9.739 7.058 -10.688 7.526 -11.666 8.008 C-12.689 8.503 -13.712 8.998 -14.766 9.508 C-16.365 10.296 -16.365 10.296 -17.997 11.1 C-22.542 13.34 -27.096 15.562 -31.65 17.784 C-63.064 31.591 -63.064 31.591 -84 57 C-85.156 60.856 -85.956 64.732 -86.688 68.688 C-86.895 69.775 -87.103 70.862 -87.317 71.982 C-90.761 90.812 -91.376 109.906 -92 129 C-92.33 129 -92.66 129 -93 129 C-93.66 123.39 -94.32 117.78 -95 112 C-95.33 115.3 -95.66 118.6 -96 122 C-96.33 122 -96.66 122 -97 122 C-97.736 110.649 -98.139 99.375 -98 88 C-97.67 88 -97.34 88 -97 88 C-96.96 87.225 -96.921 86.45 -96.88 85.652 C-94.722 45.561 -94.722 45.561 -81.441 33.605 C-76.894 29.71 -72.008 26.956 -66.688 24.25 C-65.202 23.487 -65.202 23.487 -63.686 22.708 C-47.895 14.763 -31.441 8.24 -14.625 2.812 C-13.722 2.521 -12.819 2.229 -11.888 1.928 C-7.749 0.649 -4.367 -0.14 0 0 Z " fill="#C0E4F9" transform="translate(611,531)"/>
<path d="M0 0 C22.076 2.572 43.285 9.863 58.09 27.316 C72.038 46.913 77.489 77.509 76 101 C73.821 97.731 73.013 95.033 71.934 91.262 C71.532 89.88 71.129 88.499 70.726 87.118 C70.517 86.395 70.307 85.671 70.091 84.926 C61.724 55.704 61.724 55.704 46 30 C45.462 29.334 44.925 28.667 44.371 27.98 C33.24 15.622 14.982 8.421 0 2 C0 1.34 0 0.68 0 0 Z " fill="#CBE8F9" transform="translate(421,543)"/>
<path d="M0 0 C0.495 0.99 0.495 0.99 1 2 C-0.289 2.467 -1.581 2.923 -2.875 3.375 C-3.594 3.63 -4.314 3.885 -5.055 4.148 C-26.625 10.385 -50.403 10.293 -72.688 10.312 C-74.063 10.318 -74.063 10.318 -75.467 10.323 C-85.841 10.345 -95.794 10.044 -106 8 C-106 7.34 -106 6.68 -106 6 C-102.742 4.371 -99.111 4.427 -95.523 4.098 C-94.658 4.016 -93.793 3.933 -92.902 3.849 C-90.06 3.582 -87.218 3.321 -84.375 3.062 C-83.407 2.974 -82.439 2.885 -81.441 2.793 C-14.467 -3.339 -14.467 -3.339 0 0 Z " fill="#F5F8F9" transform="translate(502,466)"/>
<path d="M0 0 C0.66 0 1.32 0 2 0 C2.181 0.664 2.361 1.328 2.547 2.013 C8.773 27.45 8.773 27.45 25.512 46.664 C27.645 47.863 29.778 48.976 32 50 C31.505 50.99 31.505 50.99 31 52 C23.998 54.334 14.345 54.124 7.176 52.27 C3.271 50.209 1.332 47.4 -0.5 43.438 C-4.659 29.763 -2.014 13.882 0 0 Z " fill="#C0E4F8" transform="translate(619,633)"/>
<path d="M0 0 C0.741 0.002 1.483 0.003 2.247 0.005 C9.56 0.167 16.283 1.516 22.043 6.266 C23.75 8.375 23.75 8.375 23.75 12.375 C20.311 14.491 17.753 14.767 13.75 14.375 C11.402 13.411 9.068 12.41 6.75 11.375 C2.649 10.537 -1.345 10.203 -5.523 10.059 C-6.677 10.017 -7.831 9.975 -9.02 9.932 C-10.209 9.892 -11.399 9.853 -12.625 9.812 C-13.838 9.769 -15.051 9.726 -16.301 9.682 C-19.284 9.576 -22.267 9.474 -25.25 9.375 C-18.315 2.158 -9.775 -0.022 0 0 Z " fill="#F6F8FA" transform="translate(593.25,473.625)"/>
<path d="M0 0 C2.938 2.062 2.938 2.062 5 5 C5.664 9.128 5.435 11.199 3.438 14.875 C0.236 17.666 -1.781 18 -6 18 C-9.574 16.412 -10.811 15.284 -13 12 C-13.508 8.103 -13.33 6.494 -11.125 3.188 C-7.584 -0.458 -5.022 -0.511 0 0 Z " fill="#F9FBFC" transform="translate(339,584)"/>
<path d="M0 0 C5.035 0.866 8.551 4.371 11.875 8.062 C13.452 10.678 13.919 11.604 13.625 14.688 C12.875 17.062 12.875 17.062 10.875 19.062 C4.971 18.949 1.967 17.247 -2.125 13.062 C-4.455 9.335 -5.739 6.482 -5.125 2.062 C-3.125 0.062 -3.125 0.062 0 0 Z " fill="#C1E5FA" transform="translate(392.125,660.9375)"/>
<path d="M0 0 C0.99 0.495 0.99 0.495 2 1 C2.625 3.562 2.625 3.562 3 6 C2.34 6 1.68 6 1 6 C1 13.26 1 20.52 1 28 C0.67 28 0.34 28 0 28 C0 18.76 0 9.52 0 0 Z " fill="#C0DFED" transform="translate(288,637)"/>
</svg>