<svg version="1.1" xmlns="http://www.w3.org/2000/svg" width="1024" height="1024">
<path d="M0 0 C337.92 0 675.84 0 1024 0 C1024 337.92 1024 675.84 1024 1024 C686.08 1024 348.16 1024 0 1024 C0 686.08 0 348.16 0 0 Z " fill="#FEFEFE" transform="translate(0,0)"/>
<path d="M0 0 C19.467 16.606 19.467 16.606 21.312 27.75 C21.343 29.204 21.343 29.204 21.375 30.688 C17.532 34.531 5.047 33.024 -0.062 33.188 C-18.382 33.777 -34.097 35.407 -47.438 49.438 C-52.423 55.46 -56.818 63.939 -56.688 71.875 C-56.657 73.762 -56.657 73.762 -56.625 75.688 C-54.835 76.517 -54.835 76.517 -52.625 76.688 C-50.585 75.26 -50.585 75.26 -48.719 73.094 C-47.981 72.313 -47.243 71.533 -46.482 70.729 C-45.704 69.89 -44.926 69.052 -44.125 68.188 C-37.456 61.26 -31.542 55.559 -22.625 51.688 C-21.886 51.348 -21.148 51.009 -20.387 50.66 C-8.537 45.959 6.37 47.501 18.924 47.502 C21.738 47.5 24.553 47.482 27.367 47.463 C58.82 47.365 87.298 53.014 110.375 75.688 C110.989 76.288 111.602 76.889 112.234 77.508 C123.782 89.744 131.195 106.628 135.375 122.688 C135.677 123.836 135.978 124.985 136.289 126.168 C143.38 158.673 137.176 189.447 122.375 218.688 C121.92 218.291 121.464 217.894 120.995 217.485 C110.88 208.73 100.688 202.95 87.375 200.688 C86.727 200.575 86.078 200.463 85.41 200.348 C68.213 197.938 50.303 199.176 35.375 208.688 C23.915 217.453 17.903 227.105 13.375 240.688 C13.149 243.08 12.967 245.477 12.812 247.875 C12.729 249.147 12.645 250.42 12.559 251.73 C12.498 252.706 12.437 253.682 12.375 254.688 C11.648 254.494 10.921 254.301 10.172 254.102 C3.735 252.435 -2.65 251.101 -9.227 250.117 C-11.625 249.688 -11.625 249.688 -13.625 248.688 C-29.961 247.594 -48.5 246.369 -61.625 257.688 C-67.49 263.289 -71.78 269.607 -72.062 277.875 C-71.879 281.843 -71.487 284.727 -68.625 287.688 C-66.125 288.354 -66.125 288.354 -63.625 287.688 C-61.496 286.05 -60.719 285.092 -60.105 282.453 C-60.009 281.623 -59.912 280.793 -59.812 279.938 C-58.796 274.43 -57.054 271.16 -52.625 267.688 C-38.596 259.297 -21.856 258.324 -5.845 261.184 C-0.823 262.474 3.738 264.385 8.375 266.688 C9.293 267.132 10.211 267.577 11.156 268.035 C19.7 272.919 23.455 281.915 27.875 290.312 C32.524 299.069 36.928 306.569 46.715 309.785 C47.902 310.104 49.089 310.422 50.312 310.75 C53.776 311.688 57.193 312.625 60.586 313.793 C64.003 314.889 66.807 314.957 70.375 314.688 C73.564 313.061 73.564 313.061 73.875 310.438 C73.16 306.506 71.335 304.22 68.375 301.688 C63.22 298.342 58.041 296.505 52.062 295.188 C47.06 294.025 44.518 292.939 41.375 288.688 C40.694 287.781 40.694 287.781 40 286.855 C35.996 281.235 33.075 275.163 30.184 268.922 C28.299 265.552 26.095 263.389 23.375 260.688 C23.318 257.862 23.572 256.32 24.375 253.688 C24.593 252.883 24.811 252.079 25.035 251.25 C29.355 237.426 38.814 225.566 51.59 218.75 C67.552 210.654 83.52 211.457 100.309 216.906 C109.953 220.326 118.116 225.428 125.375 232.688 C128.548 232.542 129.998 232.04 132.332 229.859 C137.53 223.074 142.039 216.045 146.375 208.688 C158.799 209.165 167.825 216.272 176.375 224.688 C176.977 225.206 177.579 225.724 178.199 226.258 C189.817 236.603 198.508 254.277 199.675 269.64 C199.821 273.346 199.842 277.048 199.821 280.757 C199.813 283.052 199.841 285.345 199.873 287.641 C199.918 296.983 198.783 304.879 195.375 313.688 C194.959 314.815 194.959 314.815 194.535 315.966 C188.57 331.536 179.478 344.386 168.375 356.688 C167.635 357.523 166.895 358.358 166.133 359.219 C153.838 372.37 136.043 379.063 119.52 385.328 C116.739 386.53 114.676 387.746 112.375 389.688 C112.723 391.663 112.723 391.663 113.375 393.688 C120.741 397.371 130.806 394.457 138.21 392.022 C149.708 387.963 160.187 382.191 170.117 375.156 C172.375 373.688 172.375 373.688 174.375 373.688 C180.528 386.213 180.598 403.409 176.875 416.688 C176.105 418.713 175.267 420.713 174.375 422.688 C174.101 423.316 173.827 423.944 173.545 424.591 C169.369 434.057 164.458 442.062 157.375 449.688 C156.554 450.6 155.733 451.513 154.887 452.453 C136.65 471.797 108.519 484.275 82.015 485.893 C60.334 486.495 42.762 484.945 24.375 472.688 C21.75 472.52 21.75 472.52 19.375 472.688 C21.648 481.778 28.154 488.113 35.375 493.688 C36.437 494.124 37.499 494.561 38.594 495.012 C42.012 498.3 41.84 499.409 42.031 504.035 C42.01 506.607 41.957 509.179 41.875 511.75 C41.865 513.023 41.854 514.296 41.844 515.607 C41.661 526.746 40.304 536.687 35.875 546.938 C35.525 547.751 35.176 548.565 34.815 549.403 C24.234 573.144 4.443 593.548 -19.625 603.688 C-20.427 604.05 -21.229 604.412 -22.055 604.785 C-54.773 618.891 -90.061 612.907 -122.625 601.688 C-123.319 601.321 -124.014 600.954 -124.729 600.576 C-128.847 598.646 -133.313 600.582 -137.387 601.957 C-138.698 602.465 -140.006 602.98 -141.312 603.5 C-142.733 604.046 -144.153 604.59 -145.574 605.133 C-146.611 605.532 -146.611 605.532 -147.669 605.938 C-177.103 617.212 -211.664 617.414 -240.906 604.938 C-272.529 590.398 -295.003 568.407 -307.625 535.688 C-310.826 526.925 -313.555 517.976 -314.625 508.688 C-314.836 507.469 -315.048 506.251 -315.266 504.996 C-315.718 500.78 -315.813 497.769 -314.625 493.688 C-310.655 490.147 -306.343 488.023 -301.587 485.711 C-293.266 481.37 -285.787 474.117 -281.625 465.688 C-280.857 462.55 -280.678 459.944 -280.625 456.688 C-284.803 457.23 -287.475 459.741 -290.625 462.312 C-299.558 469.333 -308.595 474.514 -319.25 478.5 C-320.026 478.79 -320.801 479.081 -321.6 479.38 C-331.854 483.046 -341.379 484.025 -352.25 483.938 C-353.491 483.929 -354.732 483.92 -356.011 483.91 C-372.092 483.708 -385.077 481.58 -399.625 474.688 C-401.087 474.026 -401.087 474.026 -402.578 473.352 C-427.346 461.116 -445.998 438.428 -454.934 412.786 C-457.208 405.885 -457.95 399.713 -457.875 392.438 C-457.87 391.517 -457.864 390.596 -457.859 389.647 C-457.609 371.672 -457.609 371.672 -453.625 367.688 C-452.8 368.317 -451.975 368.946 -451.125 369.594 C-426.794 387.765 -401.836 394.489 -371.762 390.32 C-368.65 389.791 -368.65 389.791 -365.957 388.617 C-363.625 387.688 -363.625 387.688 -359.625 387.688 C-359.368 388.244 -359.112 388.801 -358.848 389.375 C-353.62 399.795 -344.977 406.548 -334.062 410.375 C-327.908 412.396 -321.832 412.86 -315.387 412.926 C-314.597 412.935 -313.807 412.945 -312.993 412.955 C-310.432 412.98 -307.873 412.993 -305.312 413 C-304.005 413.004 -304.005 413.004 -302.671 413.008 C-277.832 413.016 -250 411.148 -230.625 393.562 C-225.225 387.873 -221.377 381.156 -217.529 374.351 C-208.948 359.575 -196.008 353.669 -180.119 349.247 C-167.538 345.93 -154.881 346.451 -142 347.125 C-141.23 347.164 -140.46 347.203 -139.667 347.244 C-134.079 347.566 -134.079 347.566 -131.715 348.196 C-129.216 348.784 -126.924 348.835 -124.357 348.861 C-123.305 348.875 -122.253 348.888 -121.17 348.902 C-120.037 348.912 -118.905 348.923 -117.738 348.934 C-115.331 348.967 -112.924 349 -110.518 349.033 C-106.73 349.081 -102.943 349.125 -99.156 349.164 C-95.495 349.204 -91.836 349.256 -88.176 349.309 C-87.054 349.317 -85.931 349.325 -84.775 349.334 C-65.637 349.632 -53.082 357.724 -39.84 371.199 C-37.407 373.932 -35.274 376.79 -33.125 379.75 C-22.181 394.554 -6.647 402.899 11.302 406.294 C12.789 406.576 14.27 406.887 15.746 407.216 C23.157 408.768 30.463 409.028 38.01 409.003 C40.07 409 42.129 409.024 44.189 409.049 C51.216 409.083 57.003 408.809 63.375 405.688 C64.117 405.334 64.86 404.981 65.625 404.617 C75.161 398.87 80.385 390.895 84.375 380.688 C84.875 379.527 84.875 379.527 85.385 378.344 C86.365 375.713 86.852 373.381 87.227 370.605 C87.355 369.674 87.484 368.743 87.617 367.783 C87.744 366.823 87.87 365.864 88 364.875 C88.134 363.896 88.268 362.917 88.406 361.908 C88.735 359.502 89.058 357.095 89.375 354.688 C91.15 354.74 91.15 354.74 92.961 354.793 C109.299 355.185 109.299 355.185 123.375 347.688 C123.96 345.059 123.96 345.059 123.375 342.688 C121.494 340.807 118.876 341.564 116.383 341.555 C114.167 341.616 114.167 341.616 111.375 342.688 C103.342 343.567 97.332 342.349 90.066 338.879 C87.476 337.732 85.163 337.128 82.375 336.688 C80.026 340.382 80.021 344.068 79.875 348.312 C79.135 362.328 75.968 373.805 66.375 384.688 C57.658 391.921 48.631 394.688 37.375 393.688 C36.715 393.358 36.055 393.027 35.375 392.688 C33.657 392.558 31.934 392.485 30.211 392.441 C29.171 392.409 28.13 392.376 27.059 392.342 C24.876 392.281 22.694 392.224 20.512 392.17 C4.61 391.652 -6.039 385.505 -17.625 374.688 C-19.935 372.08 -22.096 369.394 -24.25 366.656 C-34.593 353.727 -44.811 344.456 -60.625 338.688 C-62.071 338.156 -62.071 338.156 -63.547 337.613 C-71.522 335.215 -79.829 335.389 -88.088 335.17 C-93.938 334.966 -98.986 334.22 -104.625 332.688 C-107.449 332.22 -110.281 331.884 -113.125 331.562 C-113.852 331.476 -114.579 331.39 -115.328 331.301 C-117.093 331.092 -118.859 330.889 -120.625 330.688 C-122.948 325.947 -123.303 321.246 -123.742 316.062 C-123.827 315.064 -123.911 314.065 -123.998 313.037 C-125.066 298.768 -124.841 284.457 -124.762 270.159 C-124.741 265.946 -124.735 261.733 -124.727 257.52 C-124.703 245.913 -124.66 234.306 -124.615 222.699 C-124.564 209.574 -124.522 196.449 -124.5 183.324 C-124.498 182.471 -124.497 181.618 -124.495 180.739 C-124.447 151.852 -125.056 123.054 -126.294 94.191 C-128.124 50.458 -128.124 50.458 -121.5 33.188 C-121.043 31.976 -121.043 31.976 -120.576 30.74 C-112.477 10.085 -98.294 -5.41 -78.625 -15.312 C-52.985 -26.411 -20.835 -16.662 0 0 Z " fill="#FEFEFE" transform="translate(647.625,178.3125)"/>
<path d="M0 0 C1.273 0.01 2.545 0.019 3.856 0.03 C24.716 0.424 42.264 8.344 57.562 22.438 C58.192 22.987 58.821 23.536 59.469 24.102 C69.886 33.714 76.251 46.979 82.562 59.438 C83.168 58.361 83.774 57.285 84.398 56.176 C98.977 30.615 117.596 12.216 146.273 3.281 C153.959 1.31 161.665 1.222 169.562 1.438 C171.171 1.463 171.171 1.463 172.812 1.488 C199.1 2.534 225.372 17.152 243.107 36.087 C249.841 43.737 254.991 52.174 259.785 61.137 C261.501 64.447 261.501 64.447 263.562 67.438 C266.183 67.752 268.624 67.896 271.25 67.938 C299.819 69.113 325.506 81.439 345.379 101.949 C370.07 130.085 378.297 169.953 376.562 206.438 C376.053 212.836 375.243 219.232 373.562 225.438 C374.109 225.56 374.656 225.682 375.219 225.809 C396.444 231.504 413.652 247.497 424.754 266.004 C429.887 274.982 433.66 284.52 436.562 294.438 C436.856 295.437 436.856 295.437 437.156 296.456 C444.265 323.964 436.117 352.855 422.625 376.875 C419.262 382.567 415.466 387.758 411.348 392.914 C409.169 395.923 409.169 395.923 408.562 399.438 C409.467 402.744 409.467 402.744 410.875 406.25 C418.732 426.894 419.144 449.336 410.25 469.746 C395.215 502.994 367.235 524.697 333.717 537.644 C321.45 542.164 309.178 542.508 296.25 542.562 C295.307 542.567 294.363 542.572 293.391 542.577 C288.34 542.565 283.54 542.303 278.562 541.438 C278.609 542.721 278.655 544.005 278.703 545.328 C279.414 573.762 271.532 601.67 252.562 623.438 C251.875 624.233 251.188 625.028 250.48 625.848 C248.213 628.416 245.899 630.932 243.562 633.438 C242.802 634.275 242.041 635.113 241.258 635.977 C230.599 647.265 217.925 653.607 203.787 659.505 C201.94 660.279 200.108 661.09 198.281 661.911 C185.754 667.259 172.715 668.085 159.27 667.959 C156.564 667.938 153.862 667.959 151.156 667.984 C136.703 668.008 123.346 665.802 109.875 660.375 C109.239 660.132 108.603 659.889 107.947 659.639 C104.965 658.481 102.161 657.221 99.344 655.699 C96.465 654.054 96.465 654.054 92.75 655.312 C90.385 656.227 88.061 657.221 85.736 658.231 C75.661 662.603 66.447 665.637 55.562 667.438 C54.47 667.687 54.47 667.687 53.355 667.941 C19.404 675.609 -19.209 666.021 -48.633 648.539 C-56.476 643.522 -63.5 637.617 -70.438 631.438 C-71.422 630.564 -71.422 630.564 -72.426 629.672 C-85.418 617.393 -94.534 601.762 -101.438 585.438 C-101.784 584.665 -102.131 583.893 -102.488 583.098 C-107.438 571.612 -110.64 558.502 -110.5 546 C-110.491 544.949 -110.482 543.899 -110.473 542.816 C-110.455 541.639 -110.455 541.639 -110.438 540.438 C-111.086 540.582 -111.734 540.726 -112.402 540.875 C-143.793 546.815 -174.267 539.474 -200.692 521.941 C-227.11 503.427 -247.829 477.806 -254.012 445.414 C-255.501 431.508 -255.888 416.001 -251.375 402.625 C-250.116 398.876 -249.438 396.433 -249.438 392.438 C-250.883 390.286 -250.883 390.286 -252.875 388.125 C-272.054 364.853 -279.641 336.254 -277.438 306.438 C-276.934 303.385 -276.237 300.424 -275.438 297.438 C-275.238 296.539 -275.038 295.641 -274.832 294.715 C-270.113 275.745 -259.779 257.754 -245.438 244.438 C-244.719 243.749 -244.001 243.061 -243.262 242.352 C-238.992 238.354 -234.973 235.032 -229.812 232.25 C-227.357 230.942 -227.357 230.942 -225.438 229.438 C-224.706 225.98 -224.882 224.549 -226.438 221.438 C-231.932 185.891 -223.13 150.591 -202.438 121.438 C-178.101 88.693 -142.195 71.602 -102.438 65.438 C-98.723 65.301 -98.723 65.301 -96.438 65.438 C-96.178 64.582 -95.919 63.726 -95.652 62.844 C-87.745 40.674 -68.507 20.665 -47.613 10.4 C-41.379 7.487 -35.12 5.094 -28.438 3.438 C-27.435 3.186 -26.433 2.934 -25.4 2.675 C-16.844 0.674 -8.776 -0.076 0 0 Z M115.562 42.438 C112.985 45.633 110.748 48.965 108.562 52.438 C108.039 53.217 107.516 53.997 106.977 54.801 C103.208 60.644 100.851 66.657 98.641 73.238 C97.562 76.438 97.562 76.438 96.564 78.759 C90.132 95.953 93.25 117.947 94.024 135.993 C95.236 164.7 95.739 193.343 95.688 222.074 C95.686 222.928 95.685 223.781 95.683 224.661 C95.661 237.815 95.614 250.97 95.562 264.125 C95.518 275.702 95.477 287.279 95.456 298.856 C95.447 303.015 95.435 307.174 95.412 311.332 C95.276 333.091 95.276 333.091 96.445 354.812 C96.523 355.733 96.601 356.654 96.682 357.604 C97.105 361.871 97.65 365.533 99.562 369.438 C100.546 369.566 100.546 369.566 101.55 369.697 C104.513 370.086 107.475 370.48 110.438 370.875 C111.986 371.077 111.986 371.077 113.566 371.283 C114.553 371.415 115.539 371.547 116.555 371.684 C117.466 371.804 118.377 371.924 119.316 372.049 C121.562 372.438 121.562 372.438 123.562 373.438 C125.184 373.567 126.811 373.64 128.438 373.684 C129.424 373.716 130.41 373.749 131.426 373.783 C133.486 373.843 135.545 373.901 137.605 373.955 C158.01 374.655 174.181 381.989 188.562 396.438 C192.19 400.598 195.65 404.891 198.965 409.305 C206.717 419.153 219.034 428.716 231.562 430.438 C233.482 430.565 235.405 430.658 237.328 430.719 C238.383 430.756 239.437 430.794 240.523 430.832 C242.732 430.903 244.94 430.973 247.148 431.043 C248.198 431.08 249.247 431.118 250.328 431.156 C251.285 431.187 252.242 431.217 253.228 431.248 C255.562 431.438 255.562 431.438 257.562 432.438 C267.228 433.67 277.159 431.079 285 425.188 C296.019 413.362 299.598 400.746 300.134 384.971 C300.289 381.326 300.583 378.55 302.562 375.438 C306.468 376.054 309.567 377.301 313.125 379 C320.119 382.004 327.247 382.876 334.562 380.438 C337.255 380.259 339.857 380.35 342.562 380.438 C343.562 381.438 343.562 381.438 344 383.75 C343.562 386.438 343.562 386.438 341.188 388.562 C331.101 394.28 320.8 393.768 309.562 393.438 C309.508 393.99 309.454 394.542 309.398 395.111 C307.574 412.603 304.331 428.333 290.562 440.438 C281.434 447.567 271.899 447.809 260.688 447.75 C259.994 447.749 259.301 447.747 258.587 447.745 C247.977 447.704 237.873 447.147 227.562 444.438 C226.522 444.171 225.482 443.904 224.41 443.629 C207.56 438.647 194.761 429.358 184.311 415.319 C175.649 403.757 163.469 391.626 148.691 388.91 C143.224 388.165 137.715 388.222 132.207 388.156 C130.438 388.129 130.438 388.129 128.634 388.1 C123.606 388.022 118.579 387.954 113.551 387.885 C109.874 387.834 106.197 387.776 102.52 387.719 C101.381 387.705 100.242 387.692 99.069 387.678 C98.011 387.661 96.953 387.644 95.863 387.627 C94.933 387.614 94.004 387.602 93.046 387.589 C90.737 387.448 88.788 387.03 86.562 386.438 C83.767 386.207 80.988 386.017 78.188 385.875 C77.387 385.834 76.586 385.793 75.761 385.751 C52.958 384.654 28.779 386.365 10.73 402.027 C7 405.88 4.386 410.33 1.669 414.917 C-7.602 430.564 -18.311 440.662 -35.754 446.559 C-38.97 447.351 -42.17 447.891 -45.438 448.438 C-46.802 448.688 -48.167 448.94 -49.531 449.193 C-60.445 451.137 -71.016 451.884 -82.094 451.774 C-84.663 451.75 -87.23 451.753 -89.799 451.76 C-91.464 451.754 -93.128 451.747 -94.793 451.738 C-95.545 451.739 -96.297 451.74 -97.072 451.741 C-102.154 451.674 -106.543 450.819 -111.438 449.438 C-112.229 449.238 -113.02 449.038 -113.836 448.832 C-124.456 445.705 -133.037 438.672 -138.312 429 C-138.684 428.154 -139.055 427.309 -139.438 426.438 C-142.993 426.873 -146.315 427.401 -149.75 428.438 C-171.342 434.293 -195.051 430.015 -214.438 419.438 C-218.479 417.008 -222.373 414.381 -226.23 411.672 C-228.914 409.802 -231.61 408.077 -234.438 406.438 C-234.747 407.634 -235.056 408.83 -235.375 410.062 C-235.549 410.735 -235.723 411.408 -235.902 412.102 C-239.446 427.57 -238.354 442.801 -232.438 457.438 C-232.042 458.43 -231.646 459.423 -231.238 460.445 C-230.07 463.17 -228.785 465.797 -227.438 468.438 C-226.807 469.795 -226.807 469.795 -226.164 471.18 C-214.607 493.744 -189.166 511.097 -165.758 519.473 C-154.784 522.662 -143.533 522.639 -132.188 522.75 C-131.016 522.768 -129.844 522.786 -128.636 522.804 C-120.809 522.797 -113.916 521.728 -106.438 519.438 C-105.204 519.063 -105.204 519.063 -103.945 518.68 C-89.108 513.93 -77.238 507.055 -65.426 496.871 C-63.438 495.438 -63.438 495.438 -60.438 495.438 C-60.588 504.755 -64.202 510.32 -70.82 516.754 C-74.819 520.186 -78.736 523.167 -83.48 525.473 C-87.558 527.49 -91.011 529.403 -94.438 532.438 C-96.076 537.662 -95.379 542.112 -94.438 547.438 C-94.291 548.602 -94.144 549.766 -93.992 550.965 C-89.232 581.303 -72.862 609.267 -48.688 628.062 C-37.888 635.879 -27.166 641.351 -14.438 645.438 C-12.896 645.979 -11.354 646.521 -9.812 647.062 C21.463 657.275 56.593 654.037 86.121 639.711 C86.927 639.291 87.732 638.87 88.562 638.438 C91.836 637.934 93.405 638.366 96.441 639.742 C105.014 643.499 114.484 645.341 123.523 647.657 C125.295 648.112 127.066 648.573 128.833 649.05 C156.552 656.505 186.732 650.399 211.457 636.852 C231.814 624.632 247.39 606.445 256.562 584.625 C256.841 583.969 257.12 583.313 257.407 582.636 C262.887 568.82 264.268 550.967 261.562 536.438 C259.035 531.542 254.352 529.724 249.562 527.438 C245.186 523.441 241.796 518.956 239.562 513.438 C239.562 512.777 239.562 512.118 239.562 511.438 C244.778 510.741 247.981 513.139 252.25 515.75 C265.105 523.296 276.503 524.617 291.25 524.625 C292.453 524.637 293.657 524.649 294.896 524.662 C324.178 524.71 352.528 512.592 373.562 492.438 C374.199 491.852 374.836 491.267 375.492 490.664 C384.164 482.455 389.738 472.245 394.562 461.438 C395.001 460.467 395.439 459.496 395.891 458.496 C400.934 445.159 400.889 427.393 395.438 414.219 C395.149 413.631 394.86 413.043 394.562 412.438 C390.31 413.926 386.821 416.173 383.125 418.688 C376.278 423.202 369.258 426.56 361.562 429.438 C360.469 429.851 359.376 430.265 358.25 430.691 C350.728 433.286 343.518 434.435 335.562 433.438 C334.572 432.777 333.582 432.118 332.562 431.438 C332.805 429.586 332.805 429.586 333.562 427.438 C335.32 426.164 335.32 426.164 337.688 425.062 C338.594 424.638 339.5 424.214 340.434 423.777 C343.845 422.316 347.29 420.968 350.75 419.625 C379.041 408.589 400.341 387.868 412.616 360.051 C416.601 350.534 419.691 342.176 419.801 331.75 C419.809 331.011 419.817 330.272 419.825 329.511 C419.839 327.947 419.85 326.384 419.858 324.821 C419.869 323.246 419.889 321.672 419.919 320.097 C420.336 297.986 412.432 279.881 397.279 263.701 C391.654 257.902 385.986 253.78 378.562 250.438 C377.881 250.101 377.199 249.765 376.496 249.418 C373.047 247.787 370.331 246.659 366.562 247.438 C364.546 249.702 363.158 252.297 361.688 254.938 C358.138 260.983 354.532 266.435 349.562 271.438 C345.245 270.918 343.113 269.535 339.875 266.688 C335.065 262.692 330.28 259.924 324.562 257.438 C323.366 256.901 322.17 256.365 320.938 255.812 C305.98 250.514 290.387 249.425 275.562 255.438 C260.908 262.534 250.791 274.412 245 289.5 C243.815 292.917 243.144 295.817 243.562 299.438 C244.797 301.195 244.797 301.195 246.562 302.75 C250.731 307.171 253.102 312.081 255.633 317.538 C258.679 324.026 261.749 330.36 268.562 333.438 C270.482 333.985 272.422 334.463 274.375 334.875 C282.64 336.845 288.799 339.143 293.562 346.438 C294.062 349.188 294.062 349.188 293.562 351.438 C289.797 353.948 288.042 353.754 283.562 353.438 C280.833 352.839 278.211 352.01 275.562 351.125 C274.89 350.912 274.217 350.698 273.523 350.479 C258.434 345.599 251.589 336.522 244.438 322.688 C244.125 322.062 243.813 321.436 243.491 320.792 C240.213 314.356 236.717 309.511 230 306.312 C229.071 305.856 228.141 305.4 227.184 304.93 C217.173 300.805 208.819 298.81 197.938 299 C196.213 298.989 196.213 298.989 194.453 298.979 C181.895 299.071 172.416 302.111 163.125 310.688 C161.182 314.107 160.676 317.261 160.152 321.133 C159.474 323.785 158.715 324.785 156.562 326.438 C154.062 326.938 154.062 326.938 151.562 326.438 C148.788 323.567 148.27 320.672 148 316.812 C148.266 309.37 151.772 303.452 156.754 298.07 C167.726 287.934 179.362 287.087 193.812 287.188 C194.944 287.18 196.076 287.172 197.242 287.164 C203.117 287.178 208.012 287.528 213.562 289.438 C215.37 289.799 217.182 290.135 219 290.438 C223.591 291.236 228.058 292.248 232.562 293.438 C232.577 292.578 232.591 291.718 232.605 290.832 C233.24 275.108 238.967 262.136 250.379 251.285 C264.13 239.649 281.206 237.678 298.562 238.438 C315.214 239.888 330.238 244.763 341.562 257.438 C359.331 236.443 360.277 204.431 358.562 178.438 C356.278 155.311 347.166 132.803 331.562 115.438 C330.696 114.432 330.696 114.432 329.812 113.406 C312.634 94.747 288.013 88.186 263.562 86.438 C259.748 86.3 255.938 86.274 252.121 86.27 C251.073 86.266 250.024 86.263 248.944 86.259 C246.745 86.254 244.546 86.252 242.347 86.252 C239.005 86.25 235.664 86.232 232.322 86.213 C230.172 86.21 228.021 86.208 225.871 86.207 C224.885 86.2 223.9 86.193 222.884 86.185 C207.524 86.235 192.788 90.359 181.631 101.338 C178.755 104.261 175.886 107.185 173.095 110.19 C172.437 110.88 171.779 111.57 171.102 112.281 C170.516 112.912 169.93 113.543 169.327 114.193 C167.562 115.438 167.562 115.438 165.341 115.135 C164.754 114.905 164.167 114.675 163.562 114.438 C162.62 104.634 166.839 95.699 172.977 88.176 C183.072 77.11 195.801 73.066 210.507 72.28 C214.808 72.109 219.11 71.97 223.412 71.832 C229.191 71.629 234.839 71.27 240.562 70.438 C242.017 65.235 240.753 62.728 238.27 58.117 C235.242 53.365 231.533 49.414 227.562 45.438 C226.799 44.663 226.036 43.888 225.25 43.09 C209.612 28.095 186.704 18.889 165.139 19.154 C145.141 19.715 129.421 28.182 115.562 42.438 Z " fill="#FDFDFD" transform="translate(427.4375,139.5625)"/>
<path d="M0 0 C1.273 0.01 2.545 0.019 3.856 0.03 C24.716 0.424 42.264 8.344 57.562 22.438 C58.192 22.987 58.821 23.536 59.469 24.102 C69.886 33.714 76.251 46.979 82.562 59.438 C83.168 58.361 83.774 57.285 84.398 56.176 C98.977 30.615 117.596 12.216 146.273 3.281 C153.959 1.31 161.665 1.222 169.562 1.438 C171.171 1.463 171.171 1.463 172.812 1.488 C199.1 2.534 225.372 17.152 243.107 36.087 C249.841 43.737 254.991 52.174 259.785 61.137 C261.501 64.447 261.501 64.447 263.562 67.438 C266.183 67.752 268.624 67.896 271.25 67.938 C299.819 69.113 325.506 81.439 345.379 101.949 C370.07 130.085 378.297 169.953 376.562 206.438 C376.053 212.836 375.243 219.232 373.562 225.438 C374.109 225.56 374.656 225.682 375.219 225.809 C396.444 231.504 413.652 247.497 424.754 266.004 C429.887 274.982 433.66 284.52 436.562 294.438 C436.856 295.437 436.856 295.437 437.156 296.456 C444.265 323.964 436.117 352.855 422.625 376.875 C419.262 382.567 415.466 387.758 411.348 392.914 C409.169 395.923 409.169 395.923 408.562 399.438 C409.467 402.744 409.467 402.744 410.875 406.25 C418.732 426.894 419.144 449.336 410.25 469.746 C395.215 502.994 367.235 524.697 333.717 537.644 C321.45 542.164 309.178 542.508 296.25 542.562 C295.307 542.567 294.363 542.572 293.391 542.577 C288.34 542.565 283.54 542.303 278.562 541.438 C278.609 542.721 278.655 544.005 278.703 545.328 C279.414 573.762 271.532 601.67 252.562 623.438 C251.875 624.233 251.188 625.028 250.48 625.848 C248.213 628.416 245.899 630.932 243.562 633.438 C242.802 634.275 242.041 635.113 241.258 635.977 C230.599 647.265 217.925 653.607 203.787 659.505 C201.94 660.279 200.108 661.09 198.281 661.911 C185.754 667.259 172.715 668.085 159.27 667.959 C156.564 667.938 153.862 667.959 151.156 667.984 C136.703 668.008 123.346 665.802 109.875 660.375 C109.239 660.132 108.603 659.889 107.947 659.639 C104.965 658.481 102.161 657.221 99.344 655.699 C96.465 654.054 96.465 654.054 92.75 655.312 C90.385 656.227 88.061 657.221 85.736 658.231 C75.661 662.603 66.447 665.637 55.562 667.438 C54.47 667.687 54.47 667.687 53.355 667.941 C19.404 675.609 -19.209 666.021 -48.633 648.539 C-56.476 643.522 -63.5 637.617 -70.438 631.438 C-71.422 630.564 -71.422 630.564 -72.426 629.672 C-85.418 617.393 -94.534 601.762 -101.438 585.438 C-101.784 584.665 -102.131 583.893 -102.488 583.098 C-107.438 571.612 -110.64 558.502 -110.5 546 C-110.491 544.949 -110.482 543.899 -110.473 542.816 C-110.455 541.639 -110.455 541.639 -110.438 540.438 C-111.086 540.582 -111.734 540.726 -112.402 540.875 C-143.793 546.815 -174.267 539.474 -200.692 521.941 C-227.11 503.427 -247.829 477.806 -254.012 445.414 C-255.501 431.508 -255.888 416.001 -251.375 402.625 C-250.116 398.876 -249.438 396.433 -249.438 392.438 C-250.883 390.286 -250.883 390.286 -252.875 388.125 C-272.054 364.853 -279.641 336.254 -277.438 306.438 C-276.934 303.385 -276.237 300.424 -275.438 297.438 C-275.238 296.539 -275.038 295.641 -274.832 294.715 C-270.113 275.745 -259.779 257.754 -245.438 244.438 C-244.719 243.749 -244.001 243.061 -243.262 242.352 C-238.992 238.354 -234.973 235.032 -229.812 232.25 C-227.357 230.942 -227.357 230.942 -225.438 229.438 C-224.706 225.98 -224.882 224.549 -226.438 221.438 C-231.932 185.891 -223.13 150.591 -202.438 121.438 C-178.101 88.693 -142.195 71.602 -102.438 65.438 C-98.723 65.301 -98.723 65.301 -96.438 65.438 C-96.178 64.582 -95.919 63.726 -95.652 62.844 C-87.745 40.674 -68.507 20.665 -47.613 10.4 C-41.379 7.487 -35.12 5.094 -28.438 3.438 C-27.435 3.186 -26.433 2.934 -25.4 2.675 C-16.844 0.674 -8.776 -0.076 0 0 Z M-65.438 45.438 C-66.615 46.602 -66.615 46.602 -67.816 47.789 C-72.6 52.776 -77.438 59.187 -77.438 66.438 C-76.159 66.706 -74.88 66.974 -73.562 67.25 C-70.251 67.98 -67.042 68.845 -63.812 69.875 C-59.598 71.197 -55.413 71.995 -51.062 72.75 C-40.376 74.814 -30.622 79.217 -23.562 87.688 C-21.958 91.611 -22.191 95.254 -22.438 99.438 C-25.85 99.118 -28.134 98.103 -30.938 96.25 C-41.501 89.496 -50.402 86.695 -62.762 85.762 C-66.438 85.438 -66.438 85.438 -68.438 84.438 C-92.968 82.759 -115.834 82.821 -138.438 93.438 C-139.338 93.849 -140.239 94.26 -141.167 94.684 C-169.777 108 -190.767 128.831 -202.231 158.49 C-213.282 189.132 -210.125 220.902 -196.5 249.938 C-191.942 258.63 -185.857 265.888 -176.438 269.438 C-169.355 270.196 -162.808 267.766 -156.219 265.422 C-145.215 261.527 -134.12 261.237 -122.562 261.188 C-120.758 261.157 -120.758 261.157 -118.918 261.125 C-111.26 261.092 -104.678 261.936 -97.438 264.438 C-96.72 264.682 -96.002 264.927 -95.262 265.179 C-83.132 269.586 -73.039 276.026 -66.34 287.453 C-63.45 293.809 -63.102 299.298 -63.125 306.188 C-63.109 307.126 -63.093 308.064 -63.076 309.031 C-63.067 322.41 -68.442 334.733 -77.453 344.664 C-81.881 348.621 -86.885 351.896 -91.76 355.272 C-98.595 360.02 -103.748 364.548 -108.438 371.438 C-117.148 383.871 -127.553 389.895 -142.438 393.438 C-153.639 394.683 -164.945 393.974 -174.125 386.812 C-176.438 384.438 -176.438 384.438 -176.438 382.438 C-174.175 381.306 -172.804 381.272 -170.289 381.191 C-169.455 381.16 -168.62 381.129 -167.76 381.097 C-166.87 381.065 -165.98 381.033 -165.062 381 C-150.734 380.332 -136.877 379.132 -125.738 368.977 C-123.725 366.754 -121.86 364.523 -120.062 362.125 C-113.208 353.237 -106.629 346.907 -97.043 340.949 C-87.69 335.038 -80.842 327.13 -77.438 316.438 C-76.106 308.236 -76.034 299.319 -80.906 292.281 C-81.412 291.673 -81.917 291.064 -82.438 290.438 C-82.922 289.829 -83.407 289.221 -83.906 288.594 C-90.967 280.702 -101.904 274.649 -112.438 273.438 C-129.044 272.535 -143.745 273.164 -159.113 279.867 C-168.603 283.993 -177.022 285.015 -187.25 282.5 C-200.144 274.157 -208.8 261.812 -217.438 249.438 C-235.298 256.441 -247.108 274.864 -254.66 291.626 C-262.636 310.199 -261.023 331.884 -253.965 350.359 C-247.892 365.495 -239.341 378.45 -227.857 389.99 C-226.542 391.331 -225.276 392.72 -224.016 394.113 C-214.705 404.158 -202.629 411.686 -189.438 415.438 C-188.425 415.778 -187.412 416.119 -186.369 416.47 C-181.913 417.737 -177.607 417.689 -173.004 417.633 C-172.126 417.63 -171.248 417.627 -170.343 417.624 C-167.562 417.613 -164.781 417.588 -162 417.562 C-160.105 417.552 -158.21 417.543 -156.314 417.535 C-151.689 417.513 -147.063 417.479 -142.438 417.438 C-142.256 416.629 -142.074 415.821 -141.887 414.988 C-141.635 413.92 -141.384 412.851 -141.125 411.75 C-140.881 410.694 -140.638 409.639 -140.387 408.551 C-139.445 405.462 -138.214 403.119 -136.438 400.438 C-131.688 401.188 -131.688 401.188 -129.438 403.438 C-129.261 405.265 -129.17 407.102 -129.125 408.938 C-128.489 417.658 -125.566 423.754 -119.25 429.812 C-105.505 440.962 -88.393 437.608 -71.93 435.948 C-69.31 435.687 -66.689 435.449 -64.066 435.211 C-50.32 433.894 -37.936 431.64 -26.438 423.438 C-25.725 422.944 -25.012 422.45 -24.277 421.941 C-17.835 416.879 -13.732 410.256 -9.242 403.518 C1.333 387.699 13.854 376.957 32.938 372.926 C35.143 372.518 37.351 372.126 39.562 371.75 C40.725 371.543 41.887 371.336 43.085 371.122 C53.202 369.376 63.33 368.219 73.562 367.438 C74.541 358.002 74.726 348.617 74.73 339.141 C74.734 337.579 74.737 336.017 74.741 334.455 C74.747 331.19 74.748 327.926 74.748 324.662 C74.748 321.367 74.755 318.072 74.768 314.778 C74.834 298.734 74.866 282.81 73.312 266.826 C72.235 255.648 72.091 244.473 71.938 233.25 C71.918 232.072 71.899 230.894 71.88 229.68 C71.602 212.43 71.534 195.182 71.539 177.93 C71.539 176.967 71.54 176.003 71.54 175.011 C71.544 165.333 71.557 155.655 71.59 145.977 C71.602 142.339 71.61 138.701 71.618 135.064 C71.625 132.536 71.637 130.009 71.65 127.482 C71.654 125.951 71.657 124.419 71.66 122.887 C71.665 122.202 71.67 121.516 71.676 120.809 C71.676 117.214 71.364 113.939 70.562 110.438 C70.476 108.714 70.431 106.988 70.422 105.262 C70.226 92.858 69.5 81.894 64.562 70.438 C64.275 69.768 63.987 69.098 63.69 68.408 C53.724 45.886 38.302 30.11 15.328 21.106 C-12.312 10.631 -45.989 25.503 -65.438 45.438 Z M115.562 42.438 C112.985 45.633 110.748 48.965 108.562 52.438 C108.039 53.217 107.516 53.997 106.977 54.801 C103.208 60.644 100.851 66.657 98.641 73.238 C97.562 76.438 97.562 76.438 96.564 78.759 C90.132 95.953 93.25 117.947 94.024 135.993 C95.236 164.7 95.739 193.343 95.688 222.074 C95.686 222.928 95.685 223.781 95.683 224.661 C95.661 237.815 95.614 250.97 95.562 264.125 C95.518 275.702 95.477 287.279 95.456 298.856 C95.447 303.015 95.435 307.174 95.412 311.332 C95.276 333.091 95.276 333.091 96.445 354.812 C96.523 355.733 96.601 356.654 96.682 357.604 C97.105 361.871 97.65 365.533 99.562 369.438 C100.546 369.566 100.546 369.566 101.55 369.697 C104.513 370.086 107.475 370.48 110.438 370.875 C111.986 371.077 111.986 371.077 113.566 371.283 C114.553 371.415 115.539 371.547 116.555 371.684 C117.466 371.804 118.377 371.924 119.316 372.049 C121.562 372.438 121.562 372.438 123.562 373.438 C125.184 373.567 126.811 373.64 128.438 373.684 C129.424 373.716 130.41 373.749 131.426 373.783 C133.486 373.843 135.545 373.901 137.605 373.955 C158.01 374.655 174.181 381.989 188.562 396.438 C192.19 400.598 195.65 404.891 198.965 409.305 C206.717 419.153 219.034 428.716 231.562 430.438 C233.482 430.565 235.405 430.658 237.328 430.719 C238.383 430.756 239.437 430.794 240.523 430.832 C242.732 430.903 244.94 430.973 247.148 431.043 C248.198 431.08 249.247 431.118 250.328 431.156 C251.285 431.187 252.242 431.217 253.228 431.248 C255.562 431.438 255.562 431.438 257.562 432.438 C267.228 433.67 277.159 431.079 285 425.188 C296.019 413.362 299.598 400.746 300.134 384.971 C300.289 381.326 300.583 378.55 302.562 375.438 C306.468 376.054 309.567 377.301 313.125 379 C320.119 382.004 327.247 382.876 334.562 380.438 C337.255 380.259 339.857 380.35 342.562 380.438 C343.562 381.438 343.562 381.438 344 383.75 C343.562 386.438 343.562 386.438 341.188 388.562 C331.101 394.28 320.8 393.768 309.562 393.438 C309.508 393.99 309.454 394.542 309.398 395.111 C307.574 412.603 304.331 428.333 290.562 440.438 C281.434 447.567 271.899 447.809 260.688 447.75 C259.994 447.749 259.301 447.747 258.587 447.745 C247.977 447.704 237.873 447.147 227.562 444.438 C226.522 444.171 225.482 443.904 224.41 443.629 C207.56 438.647 194.761 429.358 184.311 415.319 C175.649 403.757 163.469 391.626 148.691 388.91 C143.224 388.165 137.715 388.222 132.207 388.156 C130.438 388.129 130.438 388.129 128.634 388.1 C123.606 388.022 118.579 387.954 113.551 387.885 C109.874 387.834 106.197 387.776 102.52 387.719 C101.381 387.705 100.242 387.692 99.069 387.678 C98.011 387.661 96.953 387.644 95.863 387.627 C94.933 387.614 94.004 387.602 93.046 387.589 C90.737 387.448 88.788 387.03 86.562 386.438 C83.767 386.207 80.988 386.017 78.188 385.875 C77.387 385.834 76.586 385.793 75.761 385.751 C52.958 384.654 28.779 386.365 10.73 402.027 C7 405.88 4.386 410.33 1.669 414.917 C-7.602 430.564 -18.311 440.662 -35.754 446.559 C-38.97 447.351 -42.17 447.891 -45.438 448.438 C-46.802 448.688 -48.167 448.94 -49.531 449.193 C-60.445 451.137 -71.016 451.884 -82.094 451.774 C-84.663 451.75 -87.23 451.753 -89.799 451.76 C-91.464 451.754 -93.128 451.747 -94.793 451.738 C-95.545 451.739 -96.297 451.74 -97.072 451.741 C-102.154 451.674 -106.543 450.819 -111.438 449.438 C-112.229 449.238 -113.02 449.038 -113.836 448.832 C-124.456 445.705 -133.037 438.672 -138.312 429 C-138.684 428.154 -139.055 427.309 -139.438 426.438 C-142.993 426.873 -146.315 427.401 -149.75 428.438 C-171.342 434.293 -195.051 430.015 -214.438 419.438 C-218.479 417.008 -222.373 414.381 -226.23 411.672 C-228.914 409.802 -231.61 408.077 -234.438 406.438 C-234.747 407.634 -235.056 408.83 -235.375 410.062 C-235.549 410.735 -235.723 411.408 -235.902 412.102 C-239.446 427.57 -238.354 442.801 -232.438 457.438 C-232.042 458.43 -231.646 459.423 -231.238 460.445 C-230.07 463.17 -228.785 465.797 -227.438 468.438 C-226.807 469.795 -226.807 469.795 -226.164 471.18 C-214.607 493.744 -189.166 511.097 -165.758 519.473 C-154.784 522.662 -143.533 522.639 -132.188 522.75 C-131.016 522.768 -129.844 522.786 -128.636 522.804 C-120.809 522.797 -113.916 521.728 -106.438 519.438 C-105.204 519.063 -105.204 519.063 -103.945 518.68 C-89.108 513.93 -77.238 507.055 -65.426 496.871 C-63.438 495.438 -63.438 495.438 -60.438 495.438 C-60.588 504.755 -64.202 510.32 -70.82 516.754 C-74.819 520.186 -78.736 523.167 -83.48 525.473 C-87.558 527.49 -91.011 529.403 -94.438 532.438 C-96.076 537.662 -95.379 542.112 -94.438 547.438 C-94.291 548.602 -94.144 549.766 -93.992 550.965 C-89.232 581.303 -72.862 609.267 -48.688 628.062 C-37.888 635.879 -27.166 641.351 -14.438 645.438 C-12.896 645.979 -11.354 646.521 -9.812 647.062 C21.463 657.275 56.593 654.037 86.121 639.711 C86.927 639.291 87.732 638.87 88.562 638.438 C91.836 637.934 93.405 638.366 96.441 639.742 C105.014 643.499 114.484 645.341 123.523 647.657 C125.295 648.112 127.066 648.573 128.833 649.05 C156.552 656.505 186.732 650.399 211.457 636.852 C231.814 624.632 247.39 606.445 256.562 584.625 C256.841 583.969 257.12 583.313 257.407 582.636 C262.887 568.82 264.268 550.967 261.562 536.438 C259.035 531.542 254.352 529.724 249.562 527.438 C245.186 523.441 241.796 518.956 239.562 513.438 C239.562 512.777 239.562 512.118 239.562 511.438 C244.778 510.741 247.981 513.139 252.25 515.75 C265.105 523.296 276.503 524.617 291.25 524.625 C292.453 524.637 293.657 524.649 294.896 524.662 C324.178 524.71 352.528 512.592 373.562 492.438 C374.199 491.852 374.836 491.267 375.492 490.664 C384.164 482.455 389.738 472.245 394.562 461.438 C395.001 460.467 395.439 459.496 395.891 458.496 C400.934 445.159 400.889 427.393 395.438 414.219 C395.149 413.631 394.86 413.043 394.562 412.438 C390.31 413.926 386.821 416.173 383.125 418.688 C376.278 423.202 369.258 426.56 361.562 429.438 C360.469 429.851 359.376 430.265 358.25 430.691 C350.728 433.286 343.518 434.435 335.562 433.438 C334.572 432.777 333.582 432.118 332.562 431.438 C332.805 429.586 332.805 429.586 333.562 427.438 C335.32 426.164 335.32 426.164 337.688 425.062 C338.594 424.638 339.5 424.214 340.434 423.777 C343.845 422.316 347.29 420.968 350.75 419.625 C379.041 408.589 400.341 387.868 412.616 360.051 C416.601 350.534 419.691 342.176 419.801 331.75 C419.809 331.011 419.817 330.272 419.825 329.511 C419.839 327.947 419.85 326.384 419.858 324.821 C419.869 323.246 419.889 321.672 419.919 320.097 C420.336 297.986 412.432 279.881 397.279 263.701 C391.654 257.902 385.986 253.78 378.562 250.438 C377.881 250.101 377.199 249.765 376.496 249.418 C373.047 247.787 370.331 246.659 366.562 247.438 C364.546 249.702 363.158 252.297 361.688 254.938 C358.138 260.983 354.532 266.435 349.562 271.438 C345.245 270.918 343.113 269.535 339.875 266.688 C335.065 262.692 330.28 259.924 324.562 257.438 C323.366 256.901 322.17 256.365 320.938 255.812 C305.98 250.514 290.387 249.425 275.562 255.438 C260.908 262.534 250.791 274.412 245 289.5 C243.815 292.917 243.144 295.817 243.562 299.438 C244.797 301.195 244.797 301.195 246.562 302.75 C250.731 307.171 253.102 312.081 255.633 317.538 C258.679 324.026 261.749 330.36 268.562 333.438 C270.482 333.985 272.422 334.463 274.375 334.875 C282.64 336.845 288.799 339.143 293.562 346.438 C294.062 349.188 294.062 349.188 293.562 351.438 C289.797 353.948 288.042 353.754 283.562 353.438 C280.833 352.839 278.211 352.01 275.562 351.125 C274.89 350.912 274.217 350.698 273.523 350.479 C258.434 345.599 251.589 336.522 244.438 322.688 C244.125 322.062 243.813 321.436 243.491 320.792 C240.213 314.356 236.717 309.511 230 306.312 C229.071 305.856 228.141 305.4 227.184 304.93 C217.173 300.805 208.819 298.81 197.938 299 C196.213 298.989 196.213 298.989 194.453 298.979 C181.895 299.071 172.416 302.111 163.125 310.688 C161.182 314.107 160.676 317.261 160.152 321.133 C159.474 323.785 158.715 324.785 156.562 326.438 C154.062 326.938 154.062 326.938 151.562 326.438 C148.788 323.567 148.27 320.672 148 316.812 C148.266 309.37 151.772 303.452 156.754 298.07 C167.726 287.934 179.362 287.087 193.812 287.188 C194.944 287.18 196.076 287.172 197.242 287.164 C203.117 287.178 208.012 287.528 213.562 289.438 C215.37 289.799 217.182 290.135 219 290.438 C223.591 291.236 228.058 292.248 232.562 293.438 C232.577 292.578 232.591 291.718 232.605 290.832 C233.24 275.108 238.967 262.136 250.379 251.285 C264.13 239.649 281.206 237.678 298.562 238.438 C315.214 239.888 330.238 244.763 341.562 257.438 C359.331 236.443 360.277 204.431 358.562 178.438 C356.278 155.311 347.166 132.803 331.562 115.438 C330.696 114.432 330.696 114.432 329.812 113.406 C312.634 94.747 288.013 88.186 263.562 86.438 C259.748 86.3 255.938 86.274 252.121 86.27 C251.073 86.266 250.024 86.263 248.944 86.259 C246.745 86.254 244.546 86.252 242.347 86.252 C239.005 86.25 235.664 86.232 232.322 86.213 C230.172 86.21 228.021 86.208 225.871 86.207 C224.885 86.2 223.9 86.193 222.884 86.185 C207.524 86.235 192.788 90.359 181.631 101.338 C178.755 104.261 175.886 107.185 173.095 110.19 C172.437 110.88 171.779 111.57 171.102 112.281 C170.516 112.912 169.93 113.543 169.327 114.193 C167.562 115.438 167.562 115.438 165.341 115.135 C164.754 114.905 164.167 114.675 163.562 114.438 C162.62 104.634 166.839 95.699 172.977 88.176 C183.072 77.11 195.801 73.066 210.507 72.28 C214.808 72.109 219.11 71.97 223.412 71.832 C229.191 71.629 234.839 71.27 240.562 70.438 C242.017 65.235 240.753 62.728 238.27 58.117 C235.242 53.365 231.533 49.414 227.562 45.438 C226.799 44.663 226.036 43.888 225.25 43.09 C209.612 28.095 186.704 18.889 165.139 19.154 C145.141 19.715 129.421 28.182 115.562 42.438 Z " fill="#050505" transform="translate(427.4375,139.5625)"/>
<path d="M0 0 C0.694 0.359 1.388 0.718 2.104 1.088 C25.347 13.638 39.621 51.702 47 75.5 C50.01 92.958 50.01 92.958 46.312 99.25 C44 101.5 44 101.5 41.25 101.875 C40.507 101.751 39.765 101.627 39 101.5 C36.874 96.859 35.512 92.653 34.5 87.625 C31.77 75.626 26.174 64.598 21 53.5 C20.623 52.673 20.245 51.845 19.856 50.993 C12.883 35.739 3.009 21.154 -13 14.5 C-13.601 14.202 -14.201 13.904 -14.82 13.598 C-23.706 9.564 -34.44 10.859 -43.652 13.188 C-51.276 16.177 -58.038 21.47 -63.734 27.297 C-66 29.5 -66 29.5 -68.75 29.875 C-71 29.5 -71 29.5 -72 28.5 C-72.795 20.705 -69.757 15.493 -65.125 9.5 C-50.167 -6.742 -19.314 -10.035 0 0 Z " fill="#060607" transform="translate(365,297.5)"/>
<path d="M0 0 C4.27 3.423 7.741 6.713 8.711 12.273 C8.781 14.572 8.77 16.584 8.285 18.832 C7.625 19.492 6.965 20.152 6.285 20.832 C1.591 20.638 -0.941 18.317 -4.402 15.332 C-9.368 11.085 -11.764 9.385 -18.281 9.5 C-25.254 10.451 -30.288 15.85 -34.648 21.004 C-38.964 26.911 -42.331 33.36 -45.715 39.832 C-46.071 40.507 -46.427 41.183 -46.794 41.879 C-52.491 52.74 -57.478 63.826 -61.242 75.516 C-61.499 76.297 -61.756 77.078 -62.021 77.883 C-62.516 79.403 -62.992 80.93 -63.448 82.463 C-64.125 84.543 -64.125 84.543 -65.715 87.832 C-68.314 88.538 -68.314 88.538 -70.715 88.832 C-71.739 61.087 -71.739 61.087 -66.635 49.861 C-65.542 47.45 -64.529 45.009 -63.508 42.566 C-58.637 31.165 -53.106 20.786 -45.715 10.832 C-45.195 10.099 -44.676 9.365 -44.141 8.609 C-33.897 -4.746 -14.336 -9.233 0 0 Z " fill="#070707" transform="translate(698.71484375,300.16796875)"/>
<path d="M0 0 C6.033 4.623 11.523 10.724 12.605 18.426 C13.001 25.227 11.922 29.45 7.926 34.961 C6.088 36.841 4.683 37.792 2.223 38.703 C0.903 38.703 -0.417 38.703 -1.777 38.703 C-1.82 37.037 -1.818 35.369 -1.777 33.703 C-1.447 33.373 -1.117 33.043 -0.777 32.703 C0.102 24.788 -1.869 19.94 -6.777 13.703 C-13.34 8.139 -20.926 6.137 -29.34 6.203 C-30.117 6.204 -30.894 6.204 -31.695 6.205 C-38.536 6.378 -44.13 8.177 -50.48 10.582 C-54.902 12.085 -58.162 12.251 -62.777 11.703 C-64.777 9.703 -64.777 9.703 -65.215 6.328 C-64.777 2.703 -64.777 2.703 -62.902 0.516 C-43.451 -10.766 -19.25 -12.395 0 0 Z " fill="#080708" transform="translate(437.77734375,435.296875)"/>
<path d="M0 0 C6.08 0.237 10.561 4.96 15.062 8.625 C15.987 9.372 15.987 9.372 16.93 10.135 C19.649 12.336 22.365 14.541 25.068 16.761 C29.175 20.129 33.341 23.36 37.625 26.5 C49.589 35.428 49.589 35.428 50.75 40.812 C49.895 44.312 49.037 45.59 46.062 47.625 C42.136 48.164 40.43 47.851 37.02 45.754 C35.959 44.913 34.912 44.057 33.875 43.188 C33.31 42.732 32.744 42.277 32.162 41.808 C30.451 40.426 28.757 39.026 27.062 37.625 C26.14 36.884 25.217 36.143 24.266 35.379 C17.25 29.723 10.371 23.895 3.591 17.958 C2.276 16.811 0.948 15.68 -0.383 14.551 C-3.72 11.544 -4.823 10.399 -5.5 5.812 C-4.771 1.68 -4.105 0.873 0 0 Z " fill="#060607" transform="translate(784.9375,724.375)"/>
<path d="M0 0 C2 2 2 2 2.5 4.625 C1.368 12.266 -5.77 18.08 -10.797 23.582 C-12.628 25.592 -14.416 27.625 -16.188 29.688 C-19.795 33.824 -23.519 37.851 -27.25 41.875 C-27.865 42.542 -28.48 43.21 -29.114 43.897 C-29.7 44.527 -30.287 45.156 -30.891 45.805 C-31.417 46.372 -31.943 46.939 -32.485 47.523 C-35.164 50.135 -36.744 50.977 -40.5 51.312 C-44 51 -44 51 -45.938 50 C-47.636 46.803 -47.499 43.503 -47 40 C-45.332 37.332 -45.332 37.332 -42.812 34.812 C-42.109 34.095 -42.109 34.095 -41.391 33.363 C-40.281 32.237 -39.161 31.121 -38.035 30.013 C-35.632 27.636 -33.272 25.221 -30.91 22.805 C-29.066 20.931 -27.221 19.059 -25.375 17.188 C-24.493 16.292 -23.611 15.397 -22.702 14.474 C-6.757 -1.483 -6.757 -1.483 0 0 Z " fill="#060606" transform="translate(249,734)"/>
<path d="M0 0 C3 0.25 3 0.25 5 2.25 C6.018 8.337 3.03 13.016 0.312 18.25 C-0.174 19.203 -0.66 20.156 -1.16 21.138 C-18.736 55.118 -18.736 55.118 -25 58.25 C-30.174 58.69 -30.174 58.69 -32.875 57.25 C-34.758 53.903 -34.741 50.907 -34 47.25 C-30.239 38.95 -24.979 31.272 -20.062 23.625 C-19.046 22.024 -19.046 22.024 -18.01 20.391 C-5.225 0.435 -5.225 0.435 0 0 Z " fill="#080808" transform="translate(338,796.75)"/>
<path d="M0 0 C2 2 2 2 2.5 4.812 C1.915 8.54 0.779 9.402 -2.105 11.668 C-5.676 14.178 -9.475 16.243 -13.312 18.312 C-14.182 18.787 -15.051 19.261 -15.947 19.75 C-23.134 23.628 -30.456 27.155 -37.887 30.539 C-40.808 31.695 -40.808 31.695 -42 33 C-45.053 33.434 -47.951 33.474 -51 33 C-53.768 30.637 -54.709 29.031 -55.688 25.562 C-54.581 21.438 -51.358 19.378 -48 17 C-44.282 14.944 -40.449 13.211 -36.562 11.5 C-35.502 11.026 -34.442 10.552 -33.35 10.063 C-9.124 -0.667 -9.124 -0.667 0 0 Z " fill="#070708" transform="translate(162,617)"/>
<path d="M0 0 C6.853 5.158 11.335 14.2 16 21.312 C16.776 22.484 17.552 23.655 18.328 24.826 C19.845 27.116 21.35 29.411 22.848 31.713 C24.25 33.855 25.674 35.983 27.121 38.095 C27.762 39.047 28.402 39.999 29.062 40.98 C29.631 41.808 30.199 42.636 30.785 43.489 C32.266 46.549 32.333 48.639 32 52 C29.865 55.246 28.465 55.886 24.688 56.812 C18.411 55.43 15.691 49.635 12.347 44.424 C10.716 41.739 9.131 39.034 7.562 36.312 C6.724 34.869 6.724 34.869 5.868 33.396 C4.756 31.479 3.645 29.561 2.538 27.642 C1.189 25.325 -0.186 23.028 -1.582 20.738 C-2.141 19.807 -2.141 19.807 -2.711 18.856 C-3.671 17.257 -4.64 15.663 -5.609 14.07 C-7.353 10.221 -7.745 7.216 -8 3 C-6.046 -0.475 -3.75 -0.378 0 0 Z " fill="#080808" transform="translate(704,792)"/>
<path d="M0 0 C2.35 3.526 2.664 4.85 2 9 C-2.198 13.091 -6.365 15.322 -11.777 17.445 C-12.872 17.89 -12.872 17.89 -13.988 18.344 C-16.301 19.281 -18.619 20.203 -20.938 21.125 C-22.489 21.75 -24.041 22.377 -25.592 23.004 C-27.785 23.891 -29.98 24.776 -32.177 25.654 C-35.422 26.95 -38.647 28.273 -41.849 29.672 C-46.084 31.457 -48.46 31.53 -53 31 C-55.447 28.935 -55.878 27.609 -56.5 24.5 C-55.777 20.883 -53.979 20.11 -51 18 C-48.632 16.749 -46.293 15.583 -43.863 14.469 C-43.184 14.151 -42.504 13.833 -41.804 13.506 C-40.371 12.837 -38.936 12.172 -37.5 11.509 C-35.333 10.51 -33.171 9.5 -31.01 8.488 C-7.229 -2.602 -7.229 -2.602 0 0 Z " fill="#070808" transform="translate(918,333)"/>
<path d="M0 0 C6.461 0.197 10.201 5.4 14.5 9.688 C16.082 11.156 17.68 12.606 19.279 14.056 C41.089 33.872 41.089 33.872 41.938 39.688 C41.5 42.688 41.5 42.688 39.875 45.125 C37.5 46.688 37.5 46.688 34.719 46.605 C30.747 45.473 28.476 43.403 25.625 40.562 C24.566 39.549 23.506 38.536 22.445 37.523 C21.938 37.032 21.43 36.541 20.907 36.034 C19.155 34.358 17.34 32.766 15.5 31.188 C10.067 26.459 4.733 21.635 -0.5 16.688 C-1.205 16.022 -1.91 15.357 -2.637 14.672 C-5.58 11.626 -6.5 10.179 -6.5 5.875 C-5.138 1.535 -4.494 0.883 0 0 Z " fill="#080808" transform="translate(178.5,201.3125)"/>
<path d="M0 0 C1.93 2.895 1.552 5.348 1.133 8.699 C-1.561 11.26 -3.869 12.154 -7.492 12.762 C-8.376 12.918 -9.261 13.074 -10.172 13.234 C-11.061 13.388 -11.951 13.541 -12.867 13.699 C-14.451 14.029 -16.035 14.362 -17.617 14.699 C-26.864 16.514 -36.064 17.884 -45.492 18.137 C-46.804 18.177 -48.117 18.217 -49.469 18.258 C-52.867 17.699 -52.867 17.699 -55.293 15.363 C-57.224 12.095 -57.582 10.431 -56.867 6.699 C-51.527 1.558 -45.932 1.436 -38.867 0.699 C-37.624 0.564 -37.624 0.564 -36.356 0.426 C-4.307 -3.001 -4.307 -3.001 0 0 Z " fill="#0A0A0A" transform="translate(129.8671875,485.30078125)"/>
<path d="M0 0 C2.312 1.625 2.312 1.625 4 4 C4.726 10.384 2.093 13.317 -1.648 18.195 C-4.533 21.636 -7.615 24.775 -10.848 27.887 C-12.847 29.85 -14.681 31.87 -16.5 34 C-29.135 48.702 -29.135 48.702 -35 49.312 C-38 49 -38 49 -39.938 47.938 C-41.676 44.767 -40.803 42.445 -40 39 C-38.391 36.69 -36.892 34.788 -35 32.75 C-33.987 31.61 -32.976 30.47 -31.965 29.328 C-31.461 28.767 -30.956 28.205 -30.437 27.627 C-28.396 25.316 -26.483 22.911 -24.562 20.5 C-21.048 16.185 -17.387 12.036 -13.625 7.938 C-13.113 7.377 -12.6 6.816 -12.073 6.238 C-5.535 -0.81 -5.535 -0.81 0 0 Z " fill="#080808" transform="translate(814,171)"/>
<path d="M0 0 C3.043 2.836 3.935 4.494 4.47 8.65 C4.476 10.057 4.46 11.464 4.426 12.871 C4.422 13.63 4.419 14.389 4.416 15.17 C4.4 17.593 4.356 20.015 4.312 22.438 C4.301 24.031 4.291 25.624 4.283 27.217 C4.249 31.813 4.138 36.405 4 41 C3.984 41.692 3.967 42.383 3.95 43.096 C3.898 45.014 3.815 46.931 3.73 48.848 C3.687 49.922 3.643 50.995 3.598 52.102 C2.86 55.678 1.56 57.429 -1 60 C-4.062 60.625 -4.062 60.625 -7 60 C-10.087 56.068 -10.453 52.741 -10.668 47.828 C-10.7 47.134 -10.733 46.44 -10.766 45.725 C-10.863 43.484 -10.935 41.243 -11 39 C-11.023 38.255 -11.046 37.51 -11.07 36.743 C-11.202 32.181 -11.271 27.622 -11.295 23.059 C-11.307 21.498 -11.328 19.937 -11.357 18.376 C-11.399 16.079 -11.415 13.782 -11.426 11.484 C-11.443 10.79 -11.461 10.095 -11.479 9.379 C-11.464 6.041 -11.206 4.277 -9.192 1.567 C-5.964 -0.741 -3.865 -0.621 0 0 Z " fill="#070708" transform="translate(516,73)"/>
<path d="M0 0 C5.952 5.793 9.342 12.839 13.062 20.188 C13.961 21.921 13.961 21.921 14.877 23.689 C25.562 44.534 25.562 44.534 25 50.125 C24 53 24 53 21 55 C18.081 54.85 16.475 54.383 14.191 52.543 C10.997 48.836 8.756 44.699 6.375 40.438 C5.595 39.051 5.595 39.051 4.8 37.636 C3.191 34.762 1.596 31.881 0 29 C-0.758 27.649 -0.758 27.649 -1.532 26.271 C-2.955 23.731 -4.356 21.181 -5.75 18.625 C-6.18 17.86 -6.61 17.095 -7.053 16.306 C-9.524 11.693 -10.578 8.367 -10 3 C-7.771 -1.065 -4.206 -0.713 0 0 Z " fill="#080808" transform="translate(299,116)"/>
<path d="M0 0 C6.679 0.066 12.664 1.611 19.051 3.449 C20.188 3.767 21.326 4.085 22.498 4.413 C46.13 11.115 46.13 11.115 49.238 15.262 C49.734 19.157 49.818 21.357 47.676 24.699 C44.34 26.837 42.17 26.496 38.238 26.262 C34.757 25.407 34.757 25.407 31.125 24.215 C30.471 24.002 29.816 23.79 29.142 23.571 C27.765 23.122 26.389 22.668 25.015 22.209 C22.945 21.518 20.871 20.842 18.795 20.168 C-4.11 12.681 -4.11 12.681 -6.762 8.262 C-6.437 1.881 -6.329 0.122 0 0 Z " fill="#090909" transform="translate(867.76171875,613.73828125)"/>
<path d="M0 0 C5.882 1.192 11.412 3.47 16.941 5.762 C19.459 6.781 21.984 7.754 24.527 8.707 C25.738 9.165 25.738 9.165 26.973 9.632 C28.594 10.244 30.218 10.85 31.844 11.45 C32.971 11.879 32.971 11.879 34.121 12.316 C34.796 12.568 35.471 12.821 36.166 13.08 C38.247 14.124 39.52 15.208 41 17 C41.421 19.804 41.509 21.295 39.828 23.625 C35.716 26.718 29.843 25.529 25 25 C19.947 23.906 15.055 22.258 10.143 20.663 C8.038 20.012 5.931 19.449 3.793 18.918 C3.122 18.751 2.452 18.585 1.761 18.413 C-0.068 17.967 -1.899 17.528 -3.73 17.09 C-8.685 15.438 -12.092 13.362 -15 9 C-15.544 3.773 -15.544 3.773 -13.828 1.336 C-9.954 -1.495 -4.563 -0.413 0 0 Z " fill="#070707" transform="translate(111,337)"/>
<path d="M0 0 C1.455 -0.033 1.455 -0.033 2.939 -0.067 C3.834 -0.064 4.73 -0.061 5.652 -0.059 C6.826 -0.061 6.826 -0.061 8.023 -0.064 C10.062 0.438 10.062 0.438 11.811 2.312 C13.388 4.99 13.598 6.378 13.062 9.438 C10.124 13.111 7.103 15.121 2.448 15.843 C-6.13 16.42 -14.685 16.655 -23.28 16.678 C-25.594 16.688 -27.908 16.719 -30.223 16.75 C-31.703 16.757 -33.184 16.762 -34.664 16.766 C-35.352 16.778 -36.039 16.79 -36.747 16.803 C-39.578 16.79 -41.502 16.728 -43.892 15.136 C-44.938 13.438 -44.938 13.438 -44.938 9.938 C-43.938 6.438 -43.938 6.438 -41.71 4.778 C-38.865 3.403 -36.695 2.863 -33.57 2.488 C-32.53 2.362 -31.49 2.236 -30.418 2.106 C-28.757 1.93 -28.757 1.93 -27.062 1.75 C-25.35 1.563 -25.35 1.563 -23.603 1.373 C-15.739 0.579 -7.903 0.098 0 0 Z " fill="#080808" transform="translate(929.9375,475.5625)"/>
<path d="M0 0 C1.584 1.584 1.17 3.18 1.188 5.375 C1.202 6.166 1.216 6.958 1.23 7.773 C0.611 16.451 -1.572 25.066 -3.375 33.562 C-3.669 35.008 -3.669 35.008 -3.969 36.482 C-7.644 53.732 -7.644 53.732 -13 58 C-18.112 58.639 -18.112 58.639 -20.66 56.805 C-23.552 52.909 -22.454 47.591 -22 43 C-21.15 38.702 -19.986 34.536 -18.711 30.346 C-17.88 27.605 -17.082 24.855 -16.281 22.105 C-15.668 20.028 -15.054 17.951 -14.438 15.875 C-14.145 14.879 -13.852 13.883 -13.551 12.856 C-10.784 3.717 -10.784 3.717 -8 0 C-5.118 -1.441 -3.082 -0.656 0 0 Z " fill="#080809" transform="translate(437,834)"/>
<path d="M0 0 C6.15 5.969 7.893 14.738 10 22.75 C10.247 23.676 10.495 24.601 10.75 25.555 C11.25 27.424 11.746 29.293 12.24 31.164 C12.759 33.1 13.294 35.033 13.842 36.961 C14.113 37.917 14.385 38.874 14.664 39.859 C15.035 41.143 15.035 41.143 15.413 42.452 C16.356 46.545 16.789 50.852 16 55 C14.695 56.754 14.695 56.754 13 58 C9.5 58.438 9.5 58.438 6 58 C-4.447 46.559 -8.627 18.011 -8 3 C-5.921 -0.283 -3.739 -0.73 0 0 Z " fill="#09090A" transform="translate(611,829)"/>
<path d="M0 0 C3.513 0.916 4.824 1.752 6.875 4.75 C7.228 9.08 6.632 12.034 4.82 15.953 C4.375 16.925 3.93 17.898 3.471 18.9 C2.986 19.923 2.5 20.946 2 22 C1.506 23.056 1.012 24.112 0.504 25.2 C-2.676 31.916 -5.999 38.542 -9.562 45.062 C-10.163 46.172 -10.163 46.172 -10.775 47.304 C-12.78 50.867 -14.438 53.711 -18.125 55.75 C-20.75 56.062 -20.75 56.062 -23.125 55.75 C-25.479 53.396 -25.427 52.861 -25.456 49.655 C-25.335 44.636 -23.923 40.79 -21.836 36.277 C-21.495 35.51 -21.154 34.743 -20.803 33.952 C-20.083 32.341 -19.355 30.734 -18.619 29.13 C-17.505 26.699 -16.421 24.256 -15.34 21.811 C-6.252 1.5 -6.252 1.5 0 0 Z " fill="#080809" transform="translate(692.125,99.25)"/>
<path d="M0 0 C0.688 1.688 0.688 1.688 1 4 C-3.114 12.381 -13.31 19.737 -22 23 C-24.633 23.309 -24.633 23.309 -27 23 C-29 20 -29 20 -28.828 17.52 C-26.123 9.289 -14.066 4.103 -7 0 C-4.333 -1.333 -2.833 -0.671 0 0 Z " fill="#0B0B0C" transform="translate(188,685)"/>
<path d="M0 0 C2 2 2 2 2.375 4.438 C2 7 2 7 0.461 8.492 C-2.771 10.473 -6.152 11.581 -9.75 12.688 C-10.767 13.025 -10.767 13.025 -11.805 13.369 C-16.693 14.898 -20.878 15.31 -26 15 C-28.062 13.812 -28.062 13.812 -29 12 C-28.926 9.027 -28.584 7.564 -26.426 5.48 C-23.208 3.517 -19.877 2.679 -16.25 1.812 C-15.572 1.635 -14.894 1.458 -14.195 1.275 C-9.359 0.085 -4.982 -0.329 0 0 Z " fill="#0B0B0C" transform="translate(127,554)"/>
<path d="M0 0 C2.562 1.188 2.562 1.188 4 3 C4.375 6.062 4.375 6.062 4 9 C1.379 11.621 -0.548 11.285 -4.121 11.329 C-5.33 11.321 -5.33 11.321 -6.562 11.312 C-7.377 11.31 -8.192 11.307 -9.031 11.304 C-15.567 11.19 -22.12 10.88 -27 6 C-26.812 3.5 -26.812 3.5 -26 1 C-19.348 -3.435 -7.702 -1.367 0 0 Z " fill="#111111" transform="translate(917,548)"/>
<path d="M0 0 C0.707 0.009 1.413 0.018 2.141 0.028 C2.86 0.033 3.579 0.038 4.32 0.044 C11.136 0.165 17.851 0.418 23.641 4.278 C24.016 7.278 24.016 7.278 23.641 10.278 C16.749 14.872 6.164 12.116 -1.644 11.008 C-4.505 10.239 -5.638 9.655 -7.359 7.278 C-7.671 4.715 -7.671 4.715 -7.359 2.278 C-4.874 -0.207 -3.395 0.021 0 0 Z " fill="#090909" transform="translate(100.358642578125,408.72216796875)"/>
<path d="M0 0 C5.094 0.527 8.86 2.791 13.297 5.242 C14.159 5.702 15.022 6.163 15.91 6.637 C22.227 10.047 22.227 10.047 24.547 12.367 C24.734 15.43 24.734 15.43 24.547 18.367 C23.019 19.895 21.634 19.619 19.508 19.695 C14.183 19.632 10.645 17.845 6.172 15.117 C5.474 14.721 4.777 14.326 4.059 13.918 C0.538 11.857 -2.463 10.061 -4.453 6.367 C-3.915 0.586 -3.915 0.586 0 0 Z " fill="#0B0B0B" transform="translate(844.453125,679.6328125)"/>
<path d="M0 0 C5.457 0.22 9.521 2.643 14.125 5.312 C14.828 5.704 15.53 6.095 16.254 6.498 C19.963 8.612 23.291 10.621 26 14 C25.838 17.392 25.417 18.583 23 21 C17.089 20.802 13.167 18.749 8.312 15.688 C7.662 15.296 7.012 14.905 6.342 14.502 C2.83 12.343 -0.357 10.222 -3 7 C-2.838 3.608 -2.417 2.417 0 0 Z " fill="#0C0C0D" transform="translate(146,270)"/>
<path d="M0 0 C0.66 0.66 1.32 1.32 2 2 C1.938 4.938 1.938 4.938 1 8 C-6.678 13.517 -17.727 15.28 -27 14 C-27.66 13.34 -28.32 12.68 -29 12 C-29 9.625 -29 9.625 -28 7 C-20.398 0.373 -9.783 -1.192 0 0 Z " fill="#09090A" transform="translate(919,402)"/>
<path d="M0 0 C2.562 0.438 2.562 0.438 4.312 2.375 C6.972 8.892 6.667 15.936 6.75 22.875 C6.763 23.586 6.776 24.296 6.79 25.029 C6.793 26.833 6.685 28.637 6.562 30.438 C5.903 31.097 5.242 31.758 4.562 32.438 C2.125 32.375 2.125 32.375 -0.438 31.438 C-5.018 25.548 -4.62 18.868 -4.625 11.75 C-4.637 10.883 -4.649 10.016 -4.662 9.123 C-4.664 8.295 -4.666 7.467 -4.668 6.613 C-4.672 5.86 -4.676 5.106 -4.68 4.329 C-4.282 1.224 -2.953 0.53 0 0 Z " fill="#0A0A0B" transform="translate(557.4375,852.5625)"/>
<path d="M0 0 C2 2 2 2 2.363 4.41 C2 7 2 7 0.418 8.809 C-16.082 20.859 -16.082 20.859 -23 20 C-25 18 -25 18 -25.539 15.168 C-25 12 -25 12 -22.148 9.551 C-20.904 8.783 -19.645 8.037 -18.375 7.312 C-17.758 6.935 -17.14 6.558 -16.504 6.17 C-5.1 -0.708 -5.1 -0.708 0 0 Z " fill="#0C0C0D" transform="translate(874,279)"/>
<path d="M0 0 C2.258 0.875 2.258 0.875 4.258 2.875 C4.126 6.184 3.482 7.619 1.289 10.121 C-11.208 20.94 -11.208 20.94 -15.742 22.875 C-20.222 22.395 -20.222 22.395 -21.742 20.875 C-22.242 18.75 -22.242 18.75 -21.742 15.875 C-18.272 11.098 -13.217 7.506 -8.617 3.875 C-7.625 3.091 -6.632 2.308 -5.609 1.5 C-2.742 -0.125 -2.742 -0.125 0 0 Z " fill="#0B0B0C" transform="translate(842.7421875,232.125)"/>
<path d="M0 0 C4.427 0.515 6.028 3.516 8.75 6.805 C15.485 15.523 15.485 15.523 16.125 21.188 C15.688 24.312 15.688 24.312 13.688 26.312 C9.144 25.917 6.74 22.904 3.73 19.77 C0.359 15.714 -2.533 11.295 -4.312 6.312 C-3.714 0.502 -3.714 0.502 0 0 Z " fill="#0C0C0C" transform="translate(245.3125,163.6875)"/>
<path d="M0 0 C2.5 0.25 2.5 0.25 4.5 2.25 C4.679 10.48 -0.833 18.608 -6.188 24.562 C-8.5 26.25 -8.5 26.25 -10.75 26.125 C-12.5 25.25 -12.5 25.25 -13.5 24.25 C-14.188 17.951 -12.425 14.524 -9.125 9.438 C-8.712 8.77 -8.3 8.103 -7.875 7.416 C-3.451 0.345 -3.451 0.345 0 0 Z " fill="#0B0B0C" transform="translate(740.5,143.75)"/>
<path d="M0 0 C1.114 0.34 1.114 0.34 2.25 0.688 C2.25 9.496 -2.703 16.037 -8.348 22.523 C-9.75 23.688 -9.75 23.688 -12.312 24 C-14.75 23.688 -14.75 23.688 -16.75 21.688 C-16.565 16.014 -14.896 12.852 -11.438 8.438 C-10.658 7.422 -9.878 6.406 -9.074 5.359 C-4.015 -0.456 -4.015 -0.456 0 0 Z " fill="#0C0C0D" transform="translate(274.75,785.3125)"/>
<path d="M0 0 C1.207 0.031 1.207 0.031 2.438 0.062 C5.883 5.915 5.043 13.197 3.562 19.625 C2.438 23.062 2.438 23.062 0.438 25.062 C-2.062 25.312 -2.062 25.312 -4.562 25.062 C-7.471 22.154 -6.863 19.925 -6.875 15.875 C-6.828 0.167 -6.828 0.167 0 0 Z " fill="#111112" transform="translate(479.5625,857.9375)"/>
<path d="M0 0 C2.438 0.062 2.438 0.062 5 1 C8.283 4.869 8.711 9.095 9 14 C9.053 14.784 9.106 15.567 9.16 16.375 C9.386 22.341 9.386 22.341 7.5 25.562 C7.005 26.037 6.51 26.511 6 27 C4.188 26.875 4.188 26.875 2 26 C-2.5 19.001 -2.795 10.124 -2 2 C-1.34 1.34 -0.68 0.68 0 0 Z " fill="#0C0C0C" transform="translate(444,90)"/>
<path d="M0 0 C4.174 0.102 5.701 0.71 8.738 3.652 C9.612 4.735 10.47 5.83 11.312 6.938 C11.754 7.489 12.196 8.04 12.65 8.607 C16.2 13.082 17.244 15.268 17 21 C16.67 21.33 16.34 21.66 16 22 C11.729 21.862 9.614 21.562 6.418 18.637 C5.682 17.663 4.946 16.69 4.188 15.688 C3.439 14.722 2.69 13.756 1.918 12.762 C-2.112 6.96 -2.112 6.96 -1.688 3.312 C-1 1 -1 1 0 0 Z " fill="#0C0C0D" transform="translate(756,781)"/>
<path d="M0 0 C2.688 0.375 2.688 0.375 4.812 2.312 C8.738 8.725 10.333 14.885 9.688 22.375 C9.027 23.365 8.368 24.355 7.688 25.375 C5.438 25.375 5.438 25.375 2.688 24.375 C0.963 21.873 -0.149 19.173 -1.312 16.375 C-1.725 15.591 -2.137 14.808 -2.562 14 C-3.743 9.869 -3.652 5.644 -3.312 1.375 C-2.312 0.375 -2.312 0.375 0 0 Z " fill="#0B0B0C" transform="translate(365.3125,103.625)"/>
<path d="M0 0 C2.137 0.251 3.459 0.459 5 2 C4.864 10.315 1.998 19.002 -4 25 C-6.562 25.188 -6.562 25.188 -9 25 C-10 24 -10 24 -10.09 22.102 C-9.597 14.09 -6.669 7.302 -1.438 1.168 C-0.963 0.783 -0.489 0.397 0 0 Z " fill="#0A0A0B" transform="translate(372,837)"/>
<path d="M0 0 C2.375 0.75 2.375 0.75 3.375 1.75 C4.118 10.556 3.333 18.313 -1.625 25.75 C-3.275 25.42 -4.925 25.09 -6.625 24.75 C-8.916 17.877 -7.919 9.546 -5.625 2.75 C-3.235 -0.308 -3.235 -0.308 0 0 Z " fill="#0D0C0D" transform="translate(577.625,90.25)"/>
<path d="M0 0 C4.213 1.763 5.632 5.195 7.688 9.125 C8.121 9.95 8.554 10.775 9 11.625 C10.003 15.272 9.936 18.341 9.688 22.125 C9.028 22.785 8.367 23.445 7.688 24.125 C5.25 24.062 5.25 24.062 2.688 23.125 C-1.303 18.177 -4.014 10.907 -4.688 4.625 C-4.19 1.31 -3.425 0.185 0 0 Z " fill="#0D0D0E" transform="translate(664.3125,832.875)"/>
</svg>