<svg version="1.1" xmlns="http://www.w3.org/2000/svg" width="1024" height="1024">
<path d="M0 0 C337.92 0 675.84 0 1024 0 C1024 337.92 1024 675.84 1024 1024 C686.08 1024 348.16 1024 0 1024 C0 686.08 0 348.16 0 0 Z " fill="#FEFEFE" transform="translate(0,0)"/>
<path d="M0 0 C-0.667 2.667 -1.333 5.333 -2 8 C11.359 16.783 23.675 18.696 39.406 16.531 C46.832 14.89 53.359 11.638 60 8 C59.319 5.08 58.419 2.649 57 0 C58.196 0.082 59.392 0.165 60.625 0.25 C61.298 0.296 61.971 0.343 62.664 0.391 C65 1 65 1 67.766 2.902 C71.517 5.335 74.831 6.266 79.125 7.312 C86.033 9.12 92.813 11.166 99.562 13.5 C100.37 13.772 101.178 14.045 102.01 14.325 C124.973 22.38 137.051 41.066 147.542 61.935 C152.02 71.35 155.472 81.2 159 91 C160.635 95.52 162.275 100.039 163.918 104.556 C164.387 105.846 164.855 107.137 165.323 108.428 C168.432 117.008 171.733 125.432 175.627 133.688 C178.842 140.532 178.842 140.532 179 144 C177.563 145.812 177.563 145.812 176 147 C176.583 147.147 177.165 147.294 177.766 147.445 C195.458 152.286 208.341 163.657 222.089 175.178 C230.379 182.484 230.379 182.484 240.848 184.371 C247.216 183.273 251.959 177.441 256.535 173.219 C265.985 164.713 265.985 164.713 272.5 164.625 C273.459 164.597 274.418 164.568 275.406 164.539 C278 165 278 165 279.816 166.789 C281.973 170.817 281.63 174.794 280.414 179.051 C278.152 184.394 274.609 187.259 269.926 190.555 C267.881 191.865 267.881 191.865 267 194 C271.29 194 275.58 194 280 194 C280.588 190.968 280.588 190.968 281.188 187.875 C283.372 178.599 283.372 178.599 288 175 C290.852 174.225 293.153 174.192 296 175 C297.707 176.626 299.377 178.291 301 180 C302.031 180 303.062 180 304.125 180 C307 180 307 180 308.875 181.812 C311.452 189.114 310.635 196.544 307.434 203.523 C301.462 213.839 292.304 220.495 280.811 223.589 C273.735 225.145 266.589 225.634 259.375 226.125 C258.18 226.211 256.985 226.298 255.754 226.387 C252.836 226.597 249.918 226.801 247 227 C247.615 227.978 247.615 227.978 248.242 228.977 C253.023 236.731 255.39 242.648 255.375 251.75 C255.376 252.543 255.378 253.335 255.379 254.152 C255.267 260.385 254.087 265.515 251 271 C251.775 270.918 252.549 270.835 253.348 270.75 C258.509 271.103 262.705 272.995 267.438 275 C268.902 275.613 268.902 275.613 270.396 276.238 C293.221 285.944 312.374 300.082 328.5 319.062 C338.371 330.395 350.64 338.906 366 340 C387.332 341.213 408.324 335.912 425 322 C425.926 321.24 425.926 321.24 426.871 320.465 C436.96 311.32 444.452 296.508 446 283 C447.083 260.021 445.046 240.577 429.466 222.558 C414.711 206.469 396.187 201.234 375.197 200.253 C373.131 200.164 371.066 200.081 369 200 C370 197 370 197 371.772 195.838 C382.115 191.947 396.638 194.196 406.574 198.384 C408.402 199.215 410.202 200.107 412 201 C413.065 201.518 414.13 202.036 415.227 202.57 C433.099 212.13 445.713 228.787 451.68 248.047 C453.425 254.788 453.44 261.384 453.375 268.312 C453.387 269.529 453.398 270.745 453.41 271.998 C453.373 283.567 451.871 294.9 446.312 305.188 C445.788 306.188 445.788 306.188 445.253 307.209 C433.48 329.141 414.216 342.611 390.975 350.423 C379.952 353.643 365.98 353.072 355 350 C354.327 349.852 353.654 349.704 352.961 349.551 C336.801 345.284 324.092 332.162 312.743 320.697 C292.534 300.299 266.71 282.916 237.547 279.359 C235 279 235 279 233 278 C230.052 277.888 227.128 277.836 224.18 277.832 C223.288 277.829 222.397 277.825 221.478 277.822 C219.58 277.817 217.682 277.815 215.784 277.815 C212.935 277.813 210.087 277.794 207.238 277.775 C192.756 277.729 178.853 278.702 164.75 282.25 C163.874 282.466 162.999 282.682 162.096 282.905 C146.067 286.933 130.867 291.715 116 299 C115.32 299.333 114.641 299.666 113.94 300.009 C105.394 304.255 97.492 309.052 90 315 C89.272 315.563 88.543 316.127 87.793 316.707 C76.365 326.038 67.329 341.837 65.715 356.609 C65.6 359.246 65.59 361.861 65.625 364.5 C65.608 365.809 65.608 365.809 65.59 367.145 C65.617 373.323 66.329 379.357 69 385 C71.438 387.203 74.079 388.523 77 390 C78.741 391.064 80.47 392.149 82.188 393.25 C83.585 394.138 83.585 394.138 85.012 395.043 C87.661 396.778 90.26 398.57 92.847 400.397 C114.308 415.533 136.891 420.233 162.858 416.6 C173.422 414.334 182.724 408.588 192.032 403.331 C200.935 398.337 209.714 395.359 219.602 392.812 C232.993 389.333 242.563 385.017 250.32 372.945 C253.966 365.986 254.152 358.164 252.457 350.566 C250.199 343.967 246.574 339.85 240.438 336.688 C233.125 333.231 226.541 332.639 218.812 335.125 C211.59 338.314 207.032 342.087 203.941 349.363 C203 351 203 351 200.25 352 C199.508 352 198.765 352 198 352 C197.317 346.637 197.693 343.779 200.938 339.375 C207.678 331.509 215.988 326.832 226.258 325.613 C236.239 325.12 243.815 327.461 251.383 334.086 C258.13 341.181 261.175 347.564 261.562 357.375 C261.252 368.066 256.841 376.019 250 384 C249.285 384.891 249.285 384.891 248.555 385.801 C240.709 394.691 229.582 398.142 218.387 400.526 C206.477 403.11 196.316 408.277 185.859 414.307 C166.202 425.403 143.475 428.305 121.465 423.027 C106.806 418.681 94.938 411.491 82.445 402.863 C65.751 391.376 50.545 386.113 30 387 C29.279 387.018 28.559 387.036 27.816 387.055 C10.534 388.165 -3.666 397.192 -17.151 407.167 C-23.777 411.999 -30.494 415.704 -38 419 C-39.155 419.531 -40.31 420.062 -41.5 420.609 C-44.846 421.939 -47.76 422.629 -51.312 423.125 C-55.293 423.628 -55.293 423.628 -59 425 C-63.286 425.248 -67.582 425.185 -71.875 425.188 C-73.053 425.2 -74.231 425.212 -75.445 425.225 C-92.447 425.253 -105.85 421.042 -120.668 412.836 C-124.165 410.909 -127.69 409.057 -131.25 407.25 C-132.328 406.698 -133.405 406.147 -134.516 405.578 C-142.585 401.923 -149.889 400.544 -158.688 399.75 C-174.294 398.022 -186.863 392.281 -197 380 C-204.038 370.142 -205.633 360.724 -204 349 C-201.5 340.216 -195.036 333.257 -187.312 328.562 C-178.381 324.349 -165.786 324.515 -156.332 326.941 C-153.411 328.122 -150.728 329.427 -148 331 C-147.317 331.373 -146.634 331.745 -145.93 332.129 C-140.941 335.228 -137.565 339.759 -135 345 C-134.625 348.562 -134.625 348.562 -135 351 C-136.65 351.33 -138.3 351.66 -140 352 C-140.375 351.325 -140.75 350.649 -141.137 349.953 C-146.035 341.414 -150.13 337.708 -159.609 334.766 C-167.894 332.895 -176.38 332.712 -184.031 336.723 C-188.891 339.876 -194.071 343.462 -195.609 349.32 C-197.252 360.591 -195.151 368.538 -188.73 377.859 C-185.959 381.288 -182.77 383.747 -179 386 C-178.459 386.327 -177.919 386.654 -177.362 386.99 C-171.621 390.186 -166.014 391.016 -159.562 391.875 C-143.787 394.288 -131.48 398.817 -117.821 407.021 C-97.802 418.993 -74.655 420.774 -52 416 C-46.765 414.518 -41.898 412.347 -37 410 C-35.643 409.372 -35.643 409.372 -34.258 408.73 C-25.535 404.343 -17.812 398.239 -9.998 392.435 C-8.228 391.164 -6.43 390.014 -4.574 388.875 C-0.876 386.181 -0.444 384.057 0.523 379.711 C3.157 359.203 0.208 342.506 -12.406 325.816 C-25.939 308.697 -44.145 300.64 -64 293 C-64.731 292.686 -65.463 292.371 -66.216 292.047 C-72.957 289.19 -79.731 287.487 -86.875 285.938 C-89.081 285.448 -91.287 284.957 -93.492 284.465 C-94.575 284.225 -95.658 283.986 -96.774 283.739 C-99.922 283.018 -103.045 282.23 -106.172 281.422 C-120.864 277.72 -135.772 276.727 -150.875 276.688 C-152.14 276.682 -153.405 276.677 -154.708 276.671 C-161.472 276.723 -167.457 277.31 -174 279 C-175.352 279.13 -176.706 279.237 -178.062 279.312 C-205.772 282.108 -232.249 299.608 -252 318 C-274.468 338.845 -293.181 352.901 -324.957 352.363 C-347.5 351.518 -368.432 339.249 -383.75 323.188 C-399.85 304.664 -402.611 283.639 -401 260 C-398.645 239.747 -386.9 223.256 -372 210 C-368.465 207.398 -364.83 205.138 -361 203 C-359.987 202.42 -359.987 202.42 -358.953 201.828 C-357.002 200.78 -355.033 199.879 -353 199 C-352.212 198.627 -351.425 198.255 -350.613 197.871 C-343.574 194.989 -336.947 194.637 -329.438 194.625 C-328.461 194.623 -327.484 194.622 -326.478 194.62 C-319.403 194.731 -319.403 194.731 -316 197 C-316.33 197.99 -316.66 198.98 -317 200 C-317.583 200.029 -318.165 200.058 -318.766 200.088 C-342.965 201.434 -361.352 208.125 -378.191 226.375 C-391.621 242.277 -395.362 261.171 -394.274 281.472 C-392.606 296.871 -384.316 311.668 -373 322 C-363.995 328.856 -354.509 333.665 -343.438 336.125 C-342.709 336.294 -341.98 336.463 -341.229 336.637 C-319.414 341.624 -299.285 339.457 -280 328 C-276.993 325.784 -274.478 323.578 -272.125 320.688 C-257.231 303.45 -240.815 290.352 -220 281 C-218.998 280.542 -217.997 280.085 -216.965 279.613 C-210.945 276.988 -204.773 274.811 -198.562 272.688 C-197.792 272.421 -197.022 272.154 -196.229 271.878 C-192.374 270.593 -189.123 269.648 -185 270 C-185.324 268.863 -185.647 267.726 -185.98 266.555 C-187.104 262.039 -187.347 257.764 -187.312 253.125 C-187.305 251.941 -187.305 251.941 -187.298 250.733 C-187.099 240.823 -184.309 234.227 -179 226 C-179.699 226.01 -180.397 226.021 -181.117 226.032 C-227.696 226.636 -227.696 226.636 -243 212 C-250.121 204.223 -252.317 197.179 -252.398 186.734 C-251.944 183.613 -251.225 182.215 -249 180 C-245.874 179.681 -243.829 179.586 -241 181 C-240.876 180.381 -240.752 179.763 -240.625 179.125 C-240 177 -240 177 -238 175 C-233.359 174.467 -231.136 174.268 -227.188 176.812 C-224.574 180.621 -223.617 184.109 -222.578 188.574 C-222.099 190.991 -222.099 190.991 -221 193 C-218.184 193.469 -218.184 193.469 -214.938 193.625 C-213.833 193.7 -212.728 193.775 -211.59 193.852 C-210.308 193.925 -210.308 193.925 -209 194 C-210.403 190.613 -211.899 189.128 -214.938 187.125 C-218.608 184.454 -220.603 182.452 -222 178 C-222.764 173.101 -222.753 170.085 -219.875 165.938 C-217 164 -217 164 -214.188 163.375 C-206.437 164.895 -201.101 170.602 -195.445 175.773 C-189.133 181.99 -189.133 181.99 -181 184.625 C-173.288 183.805 -167.627 179.157 -162.125 174.062 C-149.053 162.387 -135.377 152.439 -119 146 C-119.66 145.34 -120.32 144.68 -121 144 C-120.63 139.759 -119.414 136.089 -117.855 132.148 C-117.426 131.049 -116.996 129.949 -116.553 128.816 C-116.102 127.681 -115.652 126.545 -115.188 125.375 C-112.226 117.868 -109.398 110.365 -106.893 102.692 C-105.922 99.766 -104.857 96.89 -103.755 94.012 C-102.879 91.677 -102.058 89.325 -101.238 86.969 C-97.223 75.51 -92.739 64.696 -87 54 C-86.499 53.009 -85.997 52.017 -85.48 50.996 C-76.539 33.679 -64.06 19.806 -45.269 13.561 C-37.125 11.016 -28.872 8.912 -20.599 6.834 C-15.105 5.412 -10.094 3.521 -5.031 0.918 C-3 0 -3 0 0 0 Z " fill="#050505" transform="translate(484,455)"/>
<path d="M0 0 C0.767 0.267 1.534 0.534 2.324 0.809 C13.945 5.372 21.033 13.364 26.148 24.5 C27.04 27.116 27.207 29.064 27.125 31.812 C27.107 32.603 27.089 33.393 27.07 34.207 C27.047 34.799 27.024 35.39 27 36 C28.031 35.918 29.062 35.835 30.125 35.75 C36.16 36.139 39.338 39.099 43.25 43.438 C49.813 51.042 48.711 60.857 48.256 70.34 C47.652 76.617 45.478 82.234 43 88 C42.724 88.649 42.447 89.297 42.163 89.966 C41.446 91.646 40.724 93.323 40 95 C40.887 94.918 41.774 94.835 42.688 94.75 C46.725 95.055 48.139 96.22 51 99 C53 103 52.501 107.653 52 112 C49.448 119.423 45.175 126.261 38.375 130.375 C35 132 35 132 32 132 C32.103 132.887 32.206 133.774 32.312 134.688 C32.29 145.611 25.559 155.108 18.438 162.75 C12.455 168.273 12.455 168.273 9 170 C8.918 172.855 8.859 175.707 8.812 178.562 C8.787 179.362 8.762 180.162 8.736 180.986 C8.669 186.484 9.585 190.069 12 195 C12.062 197.188 12.062 197.188 11 199 C4.006 204.629 -3.189 206.536 -11.938 206.375 C-12.729 206.366 -13.52 206.356 -14.335 206.346 C-23.626 206.106 -29.712 203.737 -37 198 C-36.783 197.319 -36.567 196.639 -36.344 195.938 C-33.917 187.49 -32.072 178.695 -34 170 C-36.45 167.291 -38.899 165.747 -42.039 163.898 C-50.917 158.206 -55.001 147.705 -58 138 C-58.13 137.102 -58.26 136.203 -58.395 135.277 C-58.797 132.901 -58.797 132.901 -60.672 131.559 C-61.358 131.189 -62.043 130.819 -62.75 130.438 C-63.473 130.019 -64.196 129.6 -64.941 129.168 C-65.621 128.783 -66.3 128.397 -67 128 C-72.715 124.279 -75.037 118.926 -78 113 C-78.811 102.344 -78.811 102.344 -76 98 C-72.313 95.035 -70.798 94 -66 94 C-68.839 91.073 -71.723 88.4 -74.875 85.812 C-83.093 78.635 -87.835 70.298 -89.348 59.523 C-90.254 44.143 -82.663 28.858 -73.664 16.895 C-70.843 13.829 -67.887 11.559 -64.375 9.375 C-63.754 8.987 -63.133 8.599 -62.493 8.198 C-44.981 -2.458 -19.504 -7.095 0 0 Z " fill="#070708" transform="translate(525,258)"/>
<path d="M0 0 C1.174 -0.004 1.174 -0.004 2.372 -0.008 C4.889 -0.012 7.405 0 9.922 0.016 C10.776 0.018 11.631 0.02 12.512 0.023 C27.049 0.072 41.239 0.493 55.46 3.766 C57.475 4.221 59.503 4.623 61.531 5.02 C77.479 8.334 92.737 14.838 106.672 23.266 C107.694 23.877 108.716 24.488 109.77 25.117 C115.518 28.649 115.518 28.649 117.672 30.266 C117.672 30.926 117.672 31.586 117.672 32.266 C111.011 30.314 104.428 28.194 97.859 25.953 C90.427 23.448 82.963 21.109 75.422 18.953 C74.156 18.59 74.156 18.59 72.864 18.219 C68.103 16.879 63.353 15.731 58.493 14.804 C56.672 14.266 56.672 14.266 54.672 12.266 C50.965 11.801 47.217 11.934 43.484 11.953 C42.403 11.957 41.321 11.96 40.206 11.964 C26.231 11.766 26.231 11.766 13.785 16.871 C13.418 17.331 13.05 17.791 12.672 18.266 C13.777 18.219 14.881 18.173 16.02 18.125 C41.141 17.407 66.113 24.143 90.062 31.211 C108.796 36.685 127.731 41.564 146.672 46.266 C146.13 50.944 144.747 54.979 143.094 59.349 C140.059 67.376 137.412 74.545 138.672 83.266 C145.656 86.991 152.622 87.474 160.234 85.203 C161.039 84.894 161.843 84.584 162.672 84.266 C163.332 84.596 163.992 84.926 164.672 85.266 C183.086 87.414 203.061 81.162 220.554 75.882 C222.782 75.234 225.02 74.655 227.27 74.086 C235.567 71.93 241.697 69.676 247.672 63.266 C250.553 61.345 252.127 60.787 255.426 60.082 C256.364 59.876 257.301 59.671 258.268 59.459 C259.247 59.251 260.226 59.043 261.234 58.828 C275.564 56.437 275.564 56.437 287.672 49.266 C289.41 45.788 289.144 42.067 288.672 38.266 C287.756 36.034 286.706 34.049 285.449 31.992 C284.672 30.266 284.672 30.266 285.672 27.266 C288.405 26.425 291.006 25.77 293.797 25.203 C295.3 24.881 296.802 24.556 298.305 24.23 C299.045 24.073 299.785 23.915 300.547 23.753 C302.463 23.314 304.353 22.768 306.238 22.211 C309.988 21.179 313.624 20.661 317.484 20.203 C322.237 19.777 322.237 19.777 326.672 18.266 C328.485 18.181 330.302 18.158 332.117 18.168 C333.732 18.173 333.732 18.173 335.379 18.178 C336.507 18.186 337.635 18.194 338.797 18.203 C339.933 18.208 341.068 18.212 342.238 18.217 C345.05 18.229 347.861 18.245 350.672 18.266 C349.273 15.467 347.308 14.92 344.453 13.908 C338.172 12.458 331.592 12.676 325.172 12.578 C323.667 12.545 322.161 12.51 320.656 12.475 C316.995 12.39 313.334 12.323 309.672 12.266 C309.672 11.606 309.672 10.946 309.672 10.266 C309.012 10.266 308.352 10.266 307.672 10.266 C307.672 11.256 307.672 12.246 307.672 13.266 C298.752 16.349 289.884 19.156 280.672 21.266 C280.672 21.926 280.672 22.586 280.672 23.266 C279.607 23.375 278.542 23.485 277.445 23.598 C263.797 25.061 250.96 27.56 238.047 32.277 C234.725 33.25 232.109 33.459 228.672 33.266 C233.536 29.37 239.139 26.753 244.65 23.905 C246.576 22.908 248.496 21.9 250.416 20.891 C260.943 15.406 271.722 10.726 283.234 7.703 C284.005 7.5 284.776 7.298 285.571 7.089 C306.566 1.888 328.477 0.089 350.047 0.078 C352.017 0.06 352.017 0.06 354.027 0.041 C355.3 0.039 356.572 0.037 357.883 0.035 C359.589 0.029 359.589 0.029 361.33 0.023 C370.564 0.694 378.317 4.658 384.672 11.266 C391 19.609 392.735 27.878 391.672 38.266 C390.652 41.493 389.299 44.313 387.672 47.266 C386.874 47.197 386.077 47.129 385.255 47.058 C375.264 46.265 365.317 45.984 355.297 45.953 C354.465 45.951 353.634 45.948 352.778 45.945 C338.728 45.94 325.401 47.139 311.672 50.266 C310.319 50.546 308.966 50.826 307.613 51.105 C272.621 59.007 235.699 73.033 215.609 104.453 C204.321 123.317 202.615 141.785 206.672 163.266 C204.734 162.956 202.797 162.643 200.859 162.328 C199.78 162.154 198.701 161.98 197.59 161.801 C194.672 161.266 194.672 161.266 191.672 160.266 C177.802 159.242 164.853 159.826 151.672 164.266 C151.012 164.266 150.352 164.266 149.672 164.266 C150.57 156.697 150.57 156.697 151.188 154.086 C154.51 134.74 149.538 115.73 138.277 99.777 C123.388 79.554 104.991 69.077 81.672 61.266 C80.874 60.991 80.076 60.716 79.254 60.434 C77.067 59.689 74.872 58.973 72.672 58.266 C71.665 57.936 70.658 57.606 69.621 57.266 C63.387 55.273 57.285 53.674 50.816 52.66 C48.672 52.266 48.672 52.266 46.672 51.266 C44.569 50.991 42.465 50.821 40.352 50.645 C37.672 50.266 37.672 50.266 33.979 49.312 C19.614 45.685 4.81 46.01 -9.891 46.141 C-11.885 46.151 -13.879 46.16 -15.873 46.168 C-20.692 46.19 -25.51 46.224 -30.328 46.266 C-30.989 45.004 -31.644 43.739 -32.295 42.472 C-32.66 41.768 -33.025 41.064 -33.401 40.339 C-35.808 34.955 -35.15 28.287 -33.633 22.711 C-32.69 20.421 -31.618 18.379 -30.328 16.266 C-29.904 15.567 -29.48 14.868 -29.043 14.148 C-22.061 3.84 -12.23 -0.066 0 0 Z " fill="#FBFBFB" transform="translate(339.328125,675.734375)"/>
<path d="M0 0 C5.388 4.247 7.79 10.401 10.188 16.625 C12.184 21.673 14.16 26.359 17 31 C22.887 49.209 17.813 76.039 10 93 C6.179 99.363 1.304 104.126 -5 108 C-5.777 108.487 -6.555 108.975 -7.355 109.477 C-15.42 113.844 -24.041 114.445 -33 113 C-44.139 109.602 -53.751 101.232 -59.762 91.344 C-69.043 73.776 -70.315 50.307 -67 31 C-66.73 26.845 -66.61 22.681 -66.482 18.52 C-66.263 13.071 -65.503 8.246 -64 3 C-59.829 3.586 -56.193 4.607 -52.25 6.062 C-46.619 7.841 -41.54 8.379 -35.688 8.375 C-34.947 8.376 -34.207 8.378 -33.444 8.379 C-24.27 8.198 -17.297 5.366 -9.148 1.242 C-5.615 -0.152 -3.736 -0.775 0 0 Z " fill="#FAFAFA" transform="translate(537,316)"/>
<path d="M0 0 C0.909 0.775 0.909 0.775 1.836 1.566 C3.116 2.574 3.116 2.574 4.422 3.602 C7.27 5.876 10.059 8.206 12.836 10.566 C13.644 11.25 14.452 11.933 15.285 12.637 C21.587 18.045 21.587 18.045 22.18 21.668 C22.49 26.677 22.184 29.907 18.961 33.879 C8.596 44.182 -7.842 46.563 -21.481 49.944 C-35.956 53.551 -49.935 57.448 -63.148 64.586 C-75.967 70.821 -101.395 67.737 -114.602 63.895 C-123.641 60.524 -133.481 56.816 -139.164 48.566 C-140.102 45.629 -140.102 45.629 -140.164 43.566 C-139.391 44.618 -139.391 44.618 -138.602 45.691 C-131.867 53.635 -122.606 59.722 -112.164 61.566 C-110.582 61.632 -108.997 61.652 -107.414 61.629 C-106.615 61.62 -105.816 61.611 -104.992 61.602 C-104.389 61.59 -103.786 61.578 -103.164 61.566 C-103.164 60.576 -103.164 59.586 -103.164 58.566 C-103.793 58.492 -104.422 58.417 -105.07 58.34 C-113.369 57.065 -119.024 53.88 -124.039 47.066 C-127.289 41.463 -127.568 34.899 -128.164 28.566 C-128.494 28.566 -128.824 28.566 -129.164 28.566 C-129.164 33.516 -129.164 38.466 -129.164 43.566 C-131.164 42.566 -131.164 42.566 -132.164 39.566 C-132.282 37.715 -132.339 35.859 -132.352 34.004 C-132.366 33.033 -132.38 32.063 -132.395 31.062 C-132.164 28.566 -132.164 28.566 -130.164 26.566 C-126.628 27.102 -126.628 27.102 -125.164 28.566 C-124.75 31.685 -124.394 34.801 -124.09 37.932 C-123.618 42.02 -123.059 44.607 -120.164 47.566 C-117.871 48.131 -117.871 48.131 -115.312 47.992 C-114.379 47.984 -113.446 47.975 -112.484 47.967 C-111.512 47.938 -110.54 47.909 -109.539 47.879 C-108.559 47.869 -107.58 47.86 -106.57 47.85 C-102.026 48.183 -102.026 48.183 -98.164 46.566 C-97.535 41.447 -97.718 38.597 -100.789 34.379 C-103.604 30.976 -106.709 28.299 -110.164 25.566 C-111.518 22.858 -111.229 20.557 -111.164 17.566 C-108.996 16.816 -108.996 16.816 -106.164 16.566 C-103.551 18.191 -103.551 18.191 -100.852 20.566 C-99.89 21.397 -98.928 22.227 -97.938 23.082 C-96.275 24.571 -94.614 26.06 -92.953 27.551 C-84.96 34.987 -84.96 34.987 -74.852 38.316 C-65.158 37.655 -57.403 29.218 -50.436 23.125 C-41.939 15.697 -33.028 9.088 -23.164 3.566 C-22.215 3.01 -21.267 2.453 -20.289 1.879 C-5.731 -4.235 -5.731 -4.235 0 0 Z " fill="#F9F9F9" transform="translate(379.1640625,608.43359375)"/>
<path d="M0 0 C2.828 1.195 2.828 1.195 5.875 2.812 C7.138 3.379 8.403 3.939 9.672 4.492 C22.962 10.496 34.042 19.058 44.953 28.608 C53.903 36.454 53.903 36.454 64.938 40.25 C73.888 39.255 80.35 32.805 86.589 26.772 C94.656 19.005 94.656 19.005 99.75 18.562 C100.451 18.645 101.153 18.727 101.875 18.812 C102.312 21.312 102.312 21.312 101.875 24.812 C99.811 27.721 97.324 30.226 94.875 32.812 C91.098 36.95 88.511 39.973 88.438 45.75 C88.452 48.581 88.452 48.581 89.875 50.812 C92.471 50.94 95.029 50.998 97.625 51 C98.7 51.018 98.7 51.018 99.797 51.037 C103.915 51.048 107.303 50.952 110.875 48.812 C113.914 45.035 114.322 41.766 114.562 37 C114.661 35.258 114.661 35.258 114.762 33.48 C114.799 32.6 114.836 31.72 114.875 30.812 C115.205 30.812 115.535 30.812 115.875 30.812 C116.43 39.486 116.873 46.984 110.875 53.812 C105.943 58.069 100.062 60.051 93.875 61.812 C94.205 62.472 94.535 63.133 94.875 63.812 C105.465 64.831 116.653 59.303 124.875 52.812 C128.083 48.136 129.016 44.226 129.438 38.625 C129.521 37.538 129.605 36.452 129.691 35.332 C129.752 34.501 129.813 33.669 129.875 32.812 C132.325 35.262 132.198 36.06 132.25 39.438 C132.078 45.744 130.52 50.016 126.168 54.617 C121.607 58.542 116.503 61.154 111.062 63.625 C110.436 63.915 109.809 64.205 109.163 64.504 C95.352 70.42 72.912 72.688 58.812 67.129 C54.973 65.314 51.462 63.078 47.875 60.812 C43.091 58.559 38.717 57.197 33.492 56.199 C32.073 55.921 30.654 55.643 29.234 55.365 C28.135 55.153 28.135 55.153 27.014 54.938 C-21.397 45.578 -21.397 45.578 -32 32.5 C-33.579 28.728 -34.28 25.742 -33.125 21.812 C-30.69 18.188 -27.469 15.561 -24.125 12.812 C-23.465 12.246 -22.805 11.68 -22.125 11.097 C-7.169 -1.579 -7.169 -1.579 0 0 Z " fill="#F9FAFA" transform="translate(657.125,606.1875)"/>
<path d="M0 0 C1.467 0.843 2.913 1.726 4.324 2.66 C9.726 5.872 15.058 6.335 21.18 6.574 C22.01 6.609 22.84 6.644 23.695 6.68 C25.433 6.748 27.17 6.81 28.908 6.866 C30.58 6.92 32.252 6.981 33.924 7.052 C48.114 7.628 61.3 5.719 74.805 1.262 C80.895 -0.622 87.122 -1.83 93.492 -1.051 C97.871 1.908 99.177 5.82 100.555 10.762 C100.492 13.949 100.492 13.949 99.441 15.527 C96.631 17.578 93.58 18.149 90.242 18.887 C88.799 19.23 87.357 19.574 85.914 19.918 C84.44 20.262 82.966 20.606 81.492 20.949 C71.667 23.247 63.197 25.354 55.805 32.574 C51.743 36.043 46.655 36.504 41.553 37.516 C37.547 38.358 33.585 39.385 29.617 40.387 C28.755 40.602 27.892 40.817 27.004 41.039 C23.159 42.002 19.323 42.982 15.508 44.055 C8.667 45.97 1.868 47.523 -5.133 48.699 C-5.892 48.827 -6.65 48.955 -7.432 49.086 C-11.155 49.68 -14.736 50.098 -18.508 49.949 C-16.649 42.401 -14.236 35.141 -11.49 27.877 C-9.632 22.823 -8.754 19.212 -10.508 13.949 C-13.27 12.99 -13.27 12.99 -16.508 12.387 C-18.521 11.967 -20.526 11.499 -22.508 10.949 C-22.838 10.289 -23.168 9.629 -23.508 8.949 C-22.602 7.65 -21.682 6.36 -20.758 5.074 C-20.247 4.355 -19.737 3.636 -19.211 2.895 C-14.476 -2.514 -6.358 -2.664 0 0 Z " fill="#FAFAFA" transform="translate(522.5078125,707.05078125)"/>
<path d="M0 0 C2.832 2.402 3.661 4.459 4.613 8.016 C4.889 9.013 5.164 10.009 5.448 11.037 C5.733 12.097 6.018 13.157 6.312 14.25 C13.145 38.749 13.145 38.749 28 59 C28.674 59.311 29.348 59.621 30.043 59.941 C32.489 61.264 33.045 62.434 34.188 64.938 C34.511 65.627 34.835 66.317 35.168 67.027 C35.854 68.655 36.441 70.324 37 72 C38.719 73.034 38.719 73.034 41 74 C42.049 74.596 43.099 75.191 44.18 75.805 C52.578 80.549 60.57 83.737 70 86 C71.361 86.349 72.722 86.701 74.082 87.055 C81.343 88.929 88.62 90.652 96 92 C96 92.33 96 92.66 96 93 C95.223 93.086 94.446 93.171 93.645 93.26 C90.138 93.648 86.631 94.043 83.125 94.438 C81.902 94.572 80.678 94.707 79.418 94.846 C77.668 95.044 77.668 95.044 75.883 95.246 C74.804 95.367 73.725 95.487 72.614 95.611 C70.025 95.858 70.025 95.858 68 97 C66.314 97.289 64.621 97.536 62.926 97.762 C47.191 99.957 30.9 102.24 16.051 108.18 C14 109 14 109 11 109 C7.917 100.081 5.092 91.214 3 82 C2.768 81.091 2.768 81.091 2.531 80.164 C0.776 72.968 0.063 65.675 -0.625 58.312 C-0.69 57.622 -0.756 56.932 -0.823 56.22 C-1.797 45.705 -2.29 35.247 -2.312 24.688 C-2.318 23.474 -2.323 22.261 -2.329 21.011 C-2.271 13.807 -1.559 7.035 0 0 Z " fill="#FBFBFB" transform="translate(587,575)"/>
<path d="M0 0 C6.735 4.412 10.882 10.009 14.016 17.32 C14.738 17.032 15.459 16.743 16.203 16.445 C17.131 16.074 18.059 15.703 19.016 15.32 C19.766 14.972 20.516 14.624 21.289 14.266 C24.483 13.158 27.078 13.054 30.453 13.07 C31.545 13.065 32.637 13.06 33.762 13.055 C41.986 13.726 48.992 17.747 54.391 23.883 C58.065 28.327 59.281 31.493 59.016 37.32 C60.191 37.258 61.367 37.197 62.578 37.133 C67.733 37.169 71.877 38.285 75.715 41.938 C79.91 46.671 82.579 50.582 82.395 57.16 C81.698 61.13 79.781 64.42 77.016 67.32 C72.705 69.843 69.472 70.714 64.499 70.824 C63.231 70.858 61.964 70.892 60.658 70.928 C59.286 70.95 57.913 70.972 56.541 70.993 C55.104 71.025 53.668 71.058 52.231 71.093 C47.826 71.191 43.421 71.26 39.016 71.32 C37.073 71.348 37.073 71.348 35.092 71.377 C26.264 71.491 17.437 71.535 8.609 71.559 C7.245 71.563 5.881 71.567 4.516 71.571 C-1.868 71.59 -8.251 71.604 -14.635 71.613 C-21.926 71.622 -29.216 71.649 -36.507 71.689 C-42.216 71.719 -47.925 71.734 -53.635 71.737 C-57.017 71.74 -60.4 71.748 -63.782 71.774 C-67.527 71.798 -71.272 71.797 -75.018 71.79 C-76.666 71.809 -76.666 71.809 -78.348 71.829 C-85.666 71.78 -91.395 70.813 -96.859 65.496 C-99.892 60.473 -101.26 56.169 -99.984 50.32 C-97.139 43.759 -92.567 39.164 -85.984 36.32 C-83.801 36.082 -83.801 36.082 -81.547 36.008 C-77.837 35.679 -77.113 35.43 -74.109 32.883 C-73.408 32.037 -72.707 31.192 -71.984 30.32 C-68.781 28.184 -67.965 28.089 -64.297 28.195 C-63.489 28.213 -62.68 28.231 -61.848 28.25 C-61.233 28.273 -60.618 28.296 -59.984 28.32 C-59.837 27.775 -59.69 27.23 -59.539 26.668 C-55.767 13.985 -47.746 5.228 -36.512 -1.418 C-25.046 -7.142 -11.183 -5.944 0 0 Z M-45.984 14.32 C-50.638 20.229 -53.724 25.896 -54.984 33.32 C-55.963 33.251 -55.963 33.251 -56.961 33.18 C-62.862 32.936 -66.403 33.186 -70.984 37.32 C-72.847 39.921 -72.847 39.921 -73.984 42.32 C-75.469 41.825 -75.469 41.825 -76.984 41.32 C-82.712 40.78 -85.543 41.669 -89.984 45.32 C-92.523 47.599 -93.89 49.037 -94.145 52.5 C-93.894 56.223 -93.679 58.477 -91.25 61.424 C-88.567 63.67 -87.434 63.825 -83.987 63.839 C-82.474 63.86 -82.474 63.86 -80.932 63.881 C-79.831 63.876 -78.73 63.871 -77.595 63.866 C-76.43 63.877 -75.265 63.887 -74.064 63.898 C-70.862 63.922 -67.66 63.929 -64.457 63.928 C-61.071 63.931 -57.685 63.957 -54.299 63.98 C-47.848 64.02 -41.397 64.041 -34.946 64.054 C-27.741 64.069 -20.537 64.108 -13.332 64.148 C-0.426 64.22 12.48 64.265 25.387 64.291 C31.875 64.305 38.362 64.331 44.85 64.383 C48.111 64.409 51.372 64.428 54.633 64.446 C56.046 64.456 57.459 64.469 58.872 64.486 C60.732 64.508 62.591 64.516 64.451 64.524 C65.444 64.533 66.438 64.542 67.462 64.551 C70.183 64.305 71.745 63.821 74.016 62.32 C76.552 58.516 76.618 56.835 76.016 52.32 C73.622 48.5 71.334 45.76 67.016 44.32 C64.79 44.096 62.56 43.912 60.328 43.758 C59.149 43.674 57.969 43.59 56.754 43.504 C55.398 43.413 55.398 43.413 54.016 43.32 C54.013 42.619 54.01 41.918 54.008 41.195 C53.712 33.942 52.399 29.33 47.016 24.32 C41.74 20.12 36.664 18.466 29.926 18.75 C25.42 19.633 21.707 21.65 17.742 23.91 C15.103 25.275 12.939 25.9 10.016 26.32 C9.706 24.619 9.706 24.619 9.391 22.883 C7.456 15.398 3.607 9.974 -2.922 5.82 C-7.006 3.62 -10.292 2.485 -14.984 2.32 C-16.233 2.229 -16.233 2.229 -17.508 2.137 C-29.104 1.601 -37.863 6.172 -45.984 14.32 Z " fill="#131314" transform="translate(270.984375,320.6796875)"/>
<path d="M0 0 C10.327 6.2 17.365 14.298 22.199 25.32 C22.199 25.98 22.199 26.64 22.199 27.32 C23.051 26.999 23.903 26.678 24.781 26.348 C33.659 23.679 42.553 24.492 50.73 28.773 C57.658 33.114 62.387 38.097 66.199 45.32 C66.632 46.104 67.065 46.888 67.512 47.695 C69.354 54.729 68.67 60.998 65.199 67.32 C62.371 71.664 59.097 74.588 54.199 76.32 C49.271 76.92 44.351 76.878 39.395 76.854 C37.889 76.861 36.384 76.87 34.879 76.88 C30.804 76.902 26.73 76.899 22.656 76.891 C19.249 76.885 15.842 76.893 12.435 76.9 C4.395 76.917 -3.645 76.913 -11.685 76.897 C-19.968 76.88 -28.25 76.896 -36.533 76.928 C-43.656 76.955 -50.779 76.962 -57.902 76.953 C-62.151 76.949 -66.4 76.951 -70.649 76.971 C-74.645 76.99 -78.641 76.984 -82.638 76.959 C-84.101 76.954 -85.563 76.957 -87.026 76.97 C-95.061 77.034 -101.692 77.045 -107.801 71.32 C-111.757 66.745 -112.555 62.154 -112.309 56.16 C-110.949 48.557 -105.893 42.535 -99.996 37.793 C-93.055 33.137 -86.123 31.344 -77.801 32.32 C-76.811 32.815 -76.811 32.815 -75.801 33.32 C-75.727 32.583 -75.654 31.846 -75.578 31.086 C-74.594 27.584 -73.128 26.388 -70.363 24.07 C-69.56 23.385 -68.757 22.699 -67.93 21.992 C-64.065 18.957 -60.913 19.201 -56.176 19.258 C-55.116 19.265 -55.116 19.265 -54.035 19.271 C-52.29 19.283 -50.546 19.301 -48.801 19.32 C-48.534 18.413 -48.267 17.505 -47.992 16.57 C-45.088 8.648 -38.09 3.193 -30.801 -0.68 C-21.682 -4.446 -8.939 -4.341 0 0 Z M-31.801 7.32 C-32.501 7.71 -33.201 8.099 -33.922 8.5 C-40.244 12.54 -43.174 18.425 -45.801 25.32 C-45.801 26.31 -45.801 27.3 -45.801 28.32 C-46.791 27.99 -47.781 27.66 -48.801 27.32 C-54.221 25.809 -58.798 25.299 -63.988 27.945 C-67.889 31.239 -71.152 34.373 -72.801 39.32 C-73.935 39.262 -75.07 39.204 -76.238 39.145 C-86.828 38.456 -86.828 38.456 -96.156 42.711 C-96.699 43.242 -97.242 43.773 -97.801 44.32 C-98.457 44.913 -99.113 45.506 -99.789 46.117 C-103.769 50.106 -105.852 53.508 -106.078 59.207 C-105.624 62.67 -104.063 64.743 -101.801 67.32 C-98.599 69.455 -97.766 69.575 -94.086 69.599 C-92.631 69.616 -92.631 69.616 -91.145 69.633 C-90.081 69.635 -89.017 69.637 -87.921 69.639 C-86.798 69.649 -85.675 69.659 -84.519 69.67 C-80.783 69.701 -77.048 69.718 -73.312 69.734 C-70.698 69.753 -68.084 69.773 -65.47 69.793 C-59.964 69.835 -54.459 69.869 -48.953 69.898 C-41.3 69.939 -33.648 69.992 -25.996 70.048 C-6.046 70.194 -6.046 70.194 13.903 70.28 C18.394 70.295 22.883 70.344 27.372 70.431 C30.129 70.482 32.886 70.517 35.643 70.55 C37.591 70.579 39.538 70.629 41.485 70.679 C50.155 70.803 50.155 70.803 57.199 66.32 C60.361 63.118 60.682 60.576 60.762 56.133 C60.58 49.368 58.962 45.132 54.199 40.32 C45.489 33.314 38.066 32.844 27.199 33.32 C24.082 33.789 21.24 34.467 18.199 35.32 C17.992 34.642 17.784 33.964 17.57 33.266 C13.805 21.892 7.493 12.05 -3.109 6.004 C-12.822 1.544 -22.636 1.873 -31.801 7.32 Z " fill="#0F0F10" transform="translate(760.80078125,275.6796875)"/>
<path d="M0 0 C0.66 0 1.32 0 2 0 C4.802 10.647 5.24 20.915 5.25 31.875 C5.251 32.676 5.252 33.477 5.253 34.302 C5.232 59.41 2.051 84.146 -6 108 C-7.196 107.587 -8.392 107.175 -9.625 106.75 C-35.509 98.176 -61.77 93.997 -89 93 C-86.24 91.16 -85.014 90.634 -81.902 90.035 C-80.708 89.798 -80.708 89.798 -79.49 89.556 C-78.647 89.393 -77.805 89.23 -76.938 89.062 C-60.307 85.66 -41.677 80.756 -31.062 66.375 C-29.875 64.017 -29.875 64.017 -29.625 61.312 C-29.419 60.549 -29.212 59.786 -29 59 C-28.232 58.71 -27.463 58.42 -26.672 58.121 C-18.266 54.594 -13.335 40.93 -10 33 C-5.865 22.256 -2.797 11.156 0 0 Z " fill="#F8F9F9" transform="translate(436,575)"/>
<path d="M0 0 C6.212 5.27 11.375 12.21 12.27 20.496 C12.371 26.258 12.371 26.258 11 29 C11.713 28.93 12.426 28.861 13.16 28.789 C18.211 28.504 21.968 28.295 26 31.625 C32.914 38.639 33.328 46.364 33.301 55.738 C32.985 62.696 30.956 69.353 29 76 C28.67 76 28.34 76 28 76 C28.016 75.108 28.031 74.216 28.048 73.297 C28.099 69.948 28.137 66.599 28.165 63.25 C28.18 61.808 28.2 60.366 28.226 58.924 C28.711 45.358 28.711 45.358 22.875 33.5 C19.498 31.738 16.755 31.397 12.988 31.176 C11 31 11 31 9 30 C8.653 28.033 8.398 26.049 8.188 24.062 C6.862 14.826 3.841 7.438 -3.551 1.469 C-17.802 -7.078 -36.065 -6.485 -51.69 -2.834 C-57.871 -1.233 -62.947 1.033 -68 5 C-68.861 5.672 -69.722 6.343 -70.609 7.035 C-79.432 14.435 -85.847 23.884 -87.318 35.515 C-87.472 38.143 -87.517 40.743 -87.5 43.375 C-87.499 44.292 -87.499 45.21 -87.498 46.155 C-87.342 53.273 -85.956 58.968 -82 65 C-87.07 62.533 -89.131 60.348 -91.347 55.022 C-92.474 51.533 -92.532 48.143 -92.5 44.5 C-92.494 43.717 -92.487 42.934 -92.48 42.127 C-92.055 28.294 -86.642 16.397 -76.684 6.758 C-67.305 -1.221 -56.963 -5.549 -45 -8 C-44.122 -8.205 -43.244 -8.41 -42.34 -8.621 C-27.039 -12.05 -13.191 -8.281 0 0 Z " fill="#D0D0D1" transform="translate(535,270)"/>
<path d="M0 0 C5 2 5 2 7.418 3.102 C13.066 5.067 19.974 5.036 25.625 3.102 C28.027 1.935 28.027 1.935 31 0 C31.199 1.537 31.199 1.537 31.402 3.105 C31.581 4.466 31.759 5.827 31.938 7.188 C32.068 8.198 32.068 8.198 32.201 9.229 C32.678 12.851 33.23 16.428 34 20 C27.945 22.625 23.07 23.47 16.5 23.375 C15.697 23.387 14.894 23.398 14.066 23.41 C8.425 23.383 4.106 22.45 -1 20 C-2.107 16.68 -1.857 16.206 -1 13 C-0.78 10.753 -0.595 8.502 -0.438 6.25 C-0.354 5.08 -0.27 3.909 -0.184 2.703 C-0.123 1.811 -0.062 0.919 0 0 Z " fill="#FBFBFB" transform="translate(497,435)"/>
<path d="M0 0 C3.754 0.034 6.807 0.785 10.312 2.188 C9.728 7.242 8.621 11.668 6.938 16.5 C5.119 21.775 3.414 27.061 1.891 32.43 C1.312 34.188 1.312 34.188 0.312 35.188 C-1.831 35.313 -3.978 35.363 -6.125 35.375 C-7.299 35.389 -8.474 35.403 -9.684 35.418 C-12.688 35.188 -12.688 35.188 -14.688 33.188 C-14.368 24.57 -9.636 0.49 0 0 Z " fill="#F4F5F5" transform="translate(497.6875,721.8125)"/>
<path d="M0 0 C7.541 5.309 11.921 11.842 16 20 C16.134 22.672 16.043 25.323 16 28 C15.34 28 14.68 28 14 28 C13.792 27.383 13.585 26.765 13.371 26.129 C8.861 13.731 1.661 6.586 -10.238 0.938 C-23.189 -4.293 -38.306 -3.249 -51 2 C-56.319 4.521 -61.265 7.378 -66 10.875 C-69 13 -69 13 -72 13 C-70.616 7.292 -66.631 4.219 -62 1 C-59.381 -0.536 -56.709 -1.942 -54 -3.312 C-53.004 -3.819 -53.004 -3.819 -51.988 -4.335 C-34.562 -12.8 -16.121 -9.661 0 0 Z " fill="#1A191B" transform="translate(448,789)"/>
<path d="M0 0 C3.25 2.188 3.25 2.188 4.25 5.188 C1.332 6.355 0.093 6.142 -3 5.25 C-9.683 3.356 -14.805 3.42 -20.859 6.793 C-26.388 10.871 -29.551 16.475 -30.75 23.188 C-31.553 31.219 -29.525 38.238 -24.867 44.867 C-20.18 50.394 -15.086 54.269 -8.84 57.91 C-8.15 58.332 -7.461 58.753 -6.75 59.188 C-6.75 59.518 -6.75 59.847 -6.75 60.188 C-13.712 61.08 -18.432 57.515 -23.895 53.684 C-30.652 48.321 -35.505 40.809 -36.75 32.188 C-37.779 22.487 -36.287 15.293 -30.75 7.188 C-28.619 4.776 -26.434 2.95 -23.75 1.188 C-22.451 0.259 -22.451 0.259 -21.125 -0.688 C-14.316 -2.957 -6.574 -3.085 0 0 Z " fill="#141315" transform="translate(163.75,693.8125)"/>
<path d="M0 0 C0.883 -0.01 1.766 -0.02 2.675 -0.031 C8.739 0.05 13.759 1.181 19.375 3.438 C20.271 3.791 21.167 4.144 22.09 4.508 C29.245 7.903 37.244 12.812 40.656 20.219 C40.893 20.951 41.131 21.683 41.375 22.438 C37.316 21.848 34.843 19.688 31.625 17.25 C18.134 7.61 4.617 4.427 -11.789 6.918 C-22.069 9.307 -31.086 15.169 -37.625 23.438 C-40.116 27.607 -42.09 31.833 -43.625 36.438 C-44.285 36.438 -44.945 36.438 -45.625 36.438 C-46.449 28.691 -43.266 23.879 -38.641 17.852 C-33.64 11.947 -28.569 7.83 -21.625 4.438 C-20.853 4.025 -20.081 3.612 -19.285 3.188 C-12.969 0.314 -6.832 0.056 0 0 Z " fill="#141415" transform="translate(613.625,780.5625)"/>
<path d="M0 0 C8.121 3.143 12.563 9.939 16.875 17.125 C19.596 24.246 18.997 33.251 16.438 40.312 C11.891 49.994 5.192 56.81 -4.598 61.152 C-7.212 62.075 -9.248 62.157 -12 62 C-9.845 60.351 -7.672 58.781 -5.414 57.273 C2.439 51.928 8.037 46.183 11 37 C11.684 29.063 11.988 21.076 8 14 C4.388 10.117 0.165 6.372 -5.262 5.734 C-11.086 5.772 -16.376 6.479 -22 8 C-21.875 6.25 -21.875 6.25 -21 4 C-14.621 -1.413 -7.978 -1.094 0 0 Z " fill="#161617" transform="translate(876,692)"/>
<path d="M0 0 C0.99 0.495 0.99 0.495 2 1 C-4.926 9.574 -12.062 15.401 -22.125 19.875 C-22.794 20.173 -23.463 20.472 -24.152 20.78 C-37.735 26.524 -59.225 26.382 -73 21 C-75.367 18.891 -75.367 18.891 -77 17 C-75.742 16.979 -74.484 16.959 -73.188 16.938 C-72.48 16.926 -71.772 16.914 -71.043 16.902 C-69 17 -69 17 -66 18 C-42.344 19.988 -22.124 13.746 -2.258 1.188 C-1.513 0.796 -0.768 0.404 0 0 Z " fill="#0E0E0F" transform="translate(188,813)"/>
<path d="M0 0 C3.214 1.539 6.209 3.332 9.25 5.188 C19.192 10.99 29.528 16.233 41.059 17.711 C43 18 43 18 44 19 C45.599 19.099 47.203 19.131 48.805 19.133 C49.781 19.134 50.756 19.135 51.762 19.137 C52.789 19.133 53.816 19.129 54.875 19.125 C55.895 19.129 56.914 19.133 57.965 19.137 C58.943 19.135 59.922 19.134 60.93 19.133 C61.829 19.132 62.729 19.131 63.656 19.129 C66.155 19.095 66.155 19.095 69 18 C70.394 17.933 71.792 17.915 73.188 17.938 C75.075 17.968 75.075 17.968 77 18 C77 18.66 77 19.32 77 20 C64.41 27.136 47.76 27.084 33.816 24.301 C30.711 23.417 27.919 22.374 25 21 C24.056 20.564 23.113 20.129 22.141 19.68 C13.65 15.387 5.608 9.779 0 2 C0 1.34 0 0.68 0 0 Z " fill="#111011" transform="translate(834,812)"/>
<path d="M0 0 C0 0.66 0 1.32 0 2 C-1.752 3.087 -3.555 4.093 -5.375 5.062 C-17.717 12.107 -26.016 20.914 -30.387 34.524 C-31.445 38.799 -31.529 42.989 -31.5 47.375 C-31.499 48.292 -31.499 49.21 -31.498 50.155 C-31.342 57.273 -29.956 62.968 -26 69 C-31.07 66.533 -33.131 64.348 -35.347 59.022 C-36.474 55.533 -36.532 52.143 -36.5 48.5 C-36.494 47.717 -36.487 46.934 -36.48 46.127 C-36.055 32.295 -30.651 20.3 -20.613 10.723 C-15.001 5.991 -7.634 0 0 0 Z " fill="#E0E0E1" transform="translate(479,266)"/>
<path d="M0 0 C2.875 1.345 5.275 2.916 7.812 4.812 C20.604 13.25 36.222 15.404 51.216 12.583 C53.158 12.11 55.08 11.558 57 11 C57.947 10.728 58.895 10.456 59.871 10.176 C65.908 8.145 70.326 5.59 75.125 1.391 C77 0 77 0 80 0 C77.372 6.385 70.619 9.369 64.625 12.188 C63.092 12.814 61.55 13.418 60 14 C59.238 14.3 58.476 14.601 57.691 14.91 C43.093 19.807 26.933 17.958 13 12 C7.97 9.44 3.483 6.412 -1 3 C-0.67 2.01 -0.34 1.02 0 0 Z " fill="#DEDEDE" transform="translate(473,464)"/>
<path d="M0 0 C1.32 0.33 2.64 0.66 4 1 C4.207 9.627 4.215 17.596 2 26 C4.343 25.744 6.678 25.407 9 25 C9.33 24.34 9.66 23.68 10 23 C10.99 23 11.98 23 13 23 C12.688 25.375 12.688 25.375 12 28 C8.866 30.089 8.025 30.274 4.438 30.25 C3.26 30.258 3.26 30.258 2.059 30.266 C0 30 0 30 -2 28 C-3.089 18.746 -1.302 9.162 0 0 Z " fill="#1A1A1B" transform="translate(507,361)"/>
<path d="M0 0 C1.423 0.248 1.423 0.248 2.875 0.5 C5.027 3.728 5.076 4.784 4.875 8.5 C3.978 7.727 3.978 7.727 3.062 6.938 C2.341 6.463 1.619 5.989 0.875 5.5 C-0.115 5.83 -1.105 6.16 -2.125 6.5 C-2.63 11.806 -1.432 14.367 1.875 18.5 C2.597 18.974 3.319 19.449 4.062 19.938 C6.847 22.338 6.609 24.974 6.875 28.5 C3.314 27.015 1.275 25.015 -1.25 22.125 C-1.933 21.354 -2.616 20.583 -3.32 19.789 C-6.525 15.725 -7.596 12.766 -7.438 7.473 C-6.703 2.836 -4.515 0.722 0 0 Z " fill="#E3E3E4" transform="translate(459.125,356.5)"/>
<path d="M0 0 C1.675 0.286 3.344 0.618 5 1 C5.058 4.625 5.094 8.25 5.125 11.875 C5.142 12.908 5.159 13.94 5.176 15.004 C5.182 15.99 5.189 16.976 5.195 17.992 C5.206 18.903 5.216 19.815 5.227 20.753 C5 23 5 23 3 25 C0.875 24.625 0.875 24.625 -1 24 C-1.029 20.188 -1.047 16.375 -1.062 12.562 C-1.071 11.474 -1.079 10.385 -1.088 9.264 C-1.091 8.229 -1.094 7.195 -1.098 6.129 C-1.103 5.171 -1.108 4.212 -1.114 3.225 C-1 1 -1 1 0 0 Z " fill="#18181A" transform="translate(511,178)"/>
<path d="M0 0 C6.335 -0.478 6.335 -0.478 9 1.438 C10.88 6.255 9.934 10.752 7.984 15.445 C5.659 19.905 3.362 23.288 -1 26 C-1.66 26 -2.32 26 -3 26 C-3.375 22.812 -3.375 22.812 -3 19 C-0.188 16.375 -0.188 16.375 3 14 C5.886 10.248 6.328 7.698 6 3 C2.455 4.398 2.455 4.398 -1 6 C-0.67 4.02 -0.34 2.04 0 0 Z " fill="#E9E9EA" transform="translate(562,358)"/>
<path d="M0 0 C1.32 0 2.64 0 4 0 C5.517 2.72 7.011 5.452 8.5 8.188 C9.144 9.341 9.144 9.341 9.801 10.518 C13.634 17.606 13.634 17.606 13 22 C10.805 22.02 10.805 22.02 8 21 C5.977 18.437 4.58 15.6 3.125 12.688 C2.71 11.915 2.295 11.142 1.867 10.346 C-1.103 4.589 -1.103 4.589 -0.606 1.745 C-0.406 1.169 -0.206 0.593 0 0 Z " fill="#141315" transform="translate(451,194)"/>
<path d="M0 0 C1.65 0.33 3.3 0.66 5 1 C4.259 4.997 2.434 8.463 0.625 12.062 C0.321 12.687 0.017 13.312 -0.297 13.955 C-3.322 20.012 -3.322 20.012 -6 22 C-8.188 21.688 -8.188 21.688 -10 21 C-9.446 15.895 -6.974 12.034 -4.438 7.688 C-4.013 6.947 -3.588 6.206 -3.15 5.443 C-2.106 3.625 -1.054 1.812 0 0 Z " fill="#151416" transform="translate(571,194)"/>
<path d="M0 0 C4.86 1.519 8.061 4.329 11.812 7.625 C12.709 8.398 12.709 8.398 13.623 9.188 C15.087 10.452 16.544 11.725 18 13 C17.67 14.32 17.34 15.64 17 17 C11.715 16.606 8.613 13.676 4.688 10.438 C4.042 9.917 3.397 9.397 2.732 8.861 C1.148 7.582 -0.427 6.292 -2 5 C-1.125 1.125 -1.125 1.125 0 0 Z " fill="#161517" transform="translate(397,233)"/>
<path d="M0 0 C0.99 0.33 1.98 0.66 3 1 C2.907 3.675 2.507 5.45 0.669 7.444 C-1.111 8.973 -2.938 10.401 -4.812 11.812 C-5.442 12.315 -6.072 12.817 -6.721 13.334 C-11.474 17 -11.474 17 -16 17 C-16.212 14.697 -16.212 14.697 -16 12 C-14.579 10.315 -14.579 10.315 -12.605 8.852 C-11.897 8.322 -11.189 7.792 -10.459 7.246 C-9.709 6.711 -8.96 6.176 -8.188 5.625 C-7.081 4.788 -7.081 4.788 -5.951 3.934 C-1.858 0.933 -1.858 0.933 0 0 Z " fill="#121213" transform="translate(627,233)"/>
<path d="M0 0 C0.99 0 1.98 0 3 0 C2.798 3.635 2.217 4.799 -0.5 7.312 C-4.881 9.425 -8.221 9.853 -13 9 C-18.517 6.241 -18.517 6.241 -19.875 2.75 C-19.916 2.173 -19.957 1.595 -20 1 C-16.625 1.547 -14.918 2.055 -12 4 C-7.44 4.338 -4.122 3.998 0 2 C0 1.34 0 0.68 0 0 Z " fill="#1D1D1D" transform="translate(521,400)"/>
<path d="M0 0 C0.75 1.688 0.75 1.688 1 4 C-1.158 7.357 -3.158 9.757 -7 11 C-10.933 11.513 -12.745 11.13 -16.312 9.312 C-19 7 -19 7 -19.875 4.25 C-19.916 3.507 -19.957 2.765 -20 2 C-19.34 2.495 -18.68 2.99 -18 3.5 C-14.269 5.365 -11.06 5.745 -7 5 C-4.343 3.503 -2.153 2.153 0 0 Z " fill="#151515" transform="translate(542,364)"/>
<path d="M0 0 C0.66 0 1.32 0 2 0 C1.755 3.593 1.364 5.554 -0.938 8.375 C-5.304 10.692 -9.158 10.93 -14 10 C-17.059 7.753 -18.557 6.26 -19.812 2.688 C-19.874 2.131 -19.936 1.574 -20 1 C-16 3 -16 3 -14.188 4.125 C-10.91 5.436 -8.495 5.429 -5 5 C-2.187 2.604 -2.187 2.604 0 0 Z " fill="#121112" transform="translate(502,364)"/>
<path d="M0 0 C1.316 -0.026 2.632 -0.052 3.988 -0.078 C7.816 0.261 9.743 0.812 12.688 3.25 C12.688 4.24 12.688 5.23 12.688 6.25 C11.78 6.085 10.872 5.92 9.938 5.75 C3.389 4.813 -3.925 4.329 -10.312 6.25 C-9.938 3.812 -9.938 3.812 -9.312 1.25 C-6.325 -0.244 -3.274 0.025 0 0 Z " fill="#151515" transform="translate(531.3125,345.75)"/>
<path d="M0 0 C1.217 0.004 2.434 0.008 3.688 0.012 C6.734 0.288 8.446 0.71 11 2.312 C11 3.303 11 4.293 11 5.312 C10.01 5.289 9.02 5.266 8 5.242 C1.061 5.13 -5.332 5.135 -12 7.312 C-11.644 4.734 -11.176 3.5 -9.375 1.582 C-6.143 -0.145 -3.647 -0.05 0 0 Z " fill="#131313" transform="translate(493,345.6875)"/>
<path d="M0 0 C5.086 2.109 10.079 4.418 14.949 6.988 C14.949 7.318 14.949 7.648 14.949 7.988 C9.967 8.542 7.075 7.735 2.574 5.488 C-4.574 2.017 -10.377 2.414 -18.051 3.988 C-12.579 -1.666 -7.524 -2.495 0 0 Z " fill="#D6D7D7" transform="translate(484.05078125,309.01171875)"/>
<path d="M0 0 C9.186 -0.311 9.186 -0.311 13 2 C13.629 4.078 13.629 4.078 14 6 C12.063 6.054 10.125 6.093 8.188 6.125 C7.109 6.148 6.03 6.171 4.918 6.195 C2 6 2 6 -1 4 C-0.67 2.68 -0.34 1.36 0 0 Z " fill="#202021" transform="translate(338,278)"/>
<path d="M0 0 C1.537 0.225 3.08 0.408 4.625 0.562 C5.442 0.646 6.26 0.73 7.102 0.816 C7.728 0.877 8.355 0.938 9 1 C9 1.33 9 1.66 9 2 C7.744 2.121 6.489 2.242 5.195 2.367 C-3.304 3.21 -11.661 4.086 -20 6 C-20.33 5.01 -20.66 4.02 -21 3 C-3.262 -1.631 -3.262 -1.631 0 0 Z " fill="#CACBCC" transform="translate(499,262)"/>
<path d="M0 0 C1.049 -0.014 2.099 -0.028 3.18 -0.043 C6.06 0.182 7.687 0.698 10.125 2.188 C9.795 3.508 9.465 4.827 9.125 6.188 C7.991 5.878 6.856 5.569 5.688 5.25 C1.2 4.118 -3.272 3.592 -7.875 3.188 C-7.875 2.528 -7.875 1.867 -7.875 1.188 C-5.178 -0.161 -3.009 0.018 0 0 Z " fill="#E1E2E2" transform="translate(484.875,709.8125)"/>
<path d="M0 0 C5.175 -0.962 10.181 0.023 15 2 C15 2.66 15 3.32 15 4 C9.39 3.67 3.78 3.34 -2 3 C-1.34 2.01 -0.68 1.02 0 0 Z " fill="#DDDDDD" transform="translate(500,260)"/>
<path d="M0 0 C0 0.66 0 1.32 0 2 C-3.772 3.752 -6.667 4.225 -10.812 4.125 C-12.276 4.098 -12.276 4.098 -13.77 4.07 C-14.506 4.047 -15.242 4.024 -16 4 C-13.044 2.029 -11.41 1.514 -8 0.875 C-7.134 0.707 -6.268 0.54 -5.375 0.367 C-3 0 -3 0 0 0 Z " fill="#E5E6E6" transform="translate(531,476)"/>
<path d="M0 0 C5.75 0.875 5.75 0.875 8 2 C8 2.99 8 3.98 8 5 C2.06 4.01 2.06 4.01 -4 3 C-2.68 2.67 -1.36 2.34 0 2 C0 1.34 0 0.68 0 0 Z " fill="#C3C3C4" transform="translate(515,262)"/>
<path d="M0 0 C1.582 -0.082 3.166 -0.139 4.75 -0.188 C6.073 -0.24 6.073 -0.24 7.422 -0.293 C10 0 10 0 14 3 C9.71 3 5.42 3 1 3 C0.67 2.01 0.34 1.02 0 0 Z " fill="#C8C8C9" transform="translate(508,478)"/>
<path d="M0 0 C2.475 0.99 2.475 0.99 5 2 C5.33 4.31 5.66 6.62 6 9 C2.919 6.227 1.312 3.937 0 0 Z " fill="#E4E4E5" transform="translate(458,364)"/>
<path d="M0 0 C-1.312 3.937 -2.919 6.227 -6 9 C-5.688 5.625 -5.688 5.625 -5 2 C-2 0 -2 0 0 0 Z " fill="#E3E3E3" transform="translate(566,364)"/>
<path d="M0 0 C3.344 0.557 6.033 1.352 9 3 C8.67 3.99 8.34 4.98 8 6 C5.36 4.68 2.72 3.36 0 2 C0 1.34 0 0.68 0 0 Z " fill="#E2E2E3" transform="translate(523,265)"/>
<path d="M0 0 C0.99 0 1.98 0 3 0 C1.547 3.829 -0.429 5.121 -4 7 C-2.926 4.085 -2.222 2.222 0 0 Z " fill="#E3E3E3" transform="translate(550,464)"/>
<path d="M0 0 C0 0.66 0 1.32 0 2 C-2.31 2.66 -4.62 3.32 -7 4 C-7.33 3.01 -7.66 2.02 -8 1 C-2.25 -1.125 -2.25 -1.125 0 0 Z " fill="#C7C8C9" transform="translate(538,474)"/>
<path d="M0 0 C0.598 0.227 1.196 0.454 1.812 0.688 C-0.188 3.688 -0.188 3.688 -2.75 4.25 C-3.554 4.394 -4.359 4.539 -5.188 4.688 C-5.518 5.348 -5.847 6.007 -6.188 6.688 C-5.781 4.328 -5.289 2.828 -3.875 0.875 C-2.188 -0.312 -2.188 -0.312 0 0 Z " fill="#3C3A3A" transform="translate(566.1875,361.3125)"/>
<path d="M0 0 C2.125 0.938 2.125 0.938 4 2 C0.598 4.094 -2.053 4.179 -6 4 C-4.036 2.494 -2.217 1.109 0 0 Z " fill="#C2C4C5" transform="translate(574,705)"/>
<path d="M0 0 C0.66 0.33 1.32 0.66 2 1 C1.67 1.99 1.34 2.98 1 4 C-1.64 4.33 -4.28 4.66 -7 5 C-4.703 3.257 -2.401 1.601 0 0 Z " fill="#232124" transform="translate(871,749)"/>
</svg>