<svg version="1.1" xmlns="http://www.w3.org/2000/svg" width="1024" height="1024">
<path d="M0 0 C337.92 0 675.84 0 1024 0 C1024 337.92 1024 675.84 1024 1024 C686.08 1024 348.16 1024 0 1024 C0 686.08 0 348.16 0 0 Z " fill="#FEFEFE" transform="translate(0,0)"/>
<path d="M0 0 C1.353 -0.005 1.353 -0.005 2.733 -0.01 C4.64 -0.015 6.547 -0.017 8.454 -0.017 C11.309 -0.019 14.163 -0.038 17.018 -0.057 C45.877 -0.147 77.384 4.234 99.383 24.875 C113.105 39.441 120.215 55.955 119.945 75.915 C119.719 82.671 118.771 88.762 116.543 95.168 C116.129 96.418 115.715 97.669 115.289 98.957 C110.433 113.075 103.426 124.899 93.543 136.168 C92.888 136.944 92.233 137.72 91.559 138.52 C88.74 141.832 86.102 144.636 82.543 147.168 C102.199 145.185 122.104 137.644 135.652 122.867 C143.073 113.686 146.316 104.619 147.297 92.953 C147.543 91.168 147.543 91.168 148.543 90.168 C152.923 89.707 152.923 89.707 155.176 91.383 C158.008 95.081 157.106 99.769 156.543 104.168 C151.988 121.706 140.965 135.72 125.543 145.168 C121.29 147.382 116.971 149.332 112.543 151.168 C111.731 151.51 110.919 151.851 110.082 152.203 C106.649 153.575 104.293 154.168 100.543 154.168 C100.543 154.828 100.543 155.488 100.543 156.168 C101.282 156.28 102.02 156.392 102.781 156.508 C111.022 158.11 115.814 161.194 121.969 166.77 C124.974 169.439 128.109 171.951 131.23 174.48 C131.912 175.035 132.594 175.589 133.297 176.16 C146.034 186.466 159.342 195.932 172.801 205.265 C175.707 207.282 178.608 209.306 181.508 211.332 C191.123 218.044 200.747 224.723 210.543 231.168 C212.795 232.665 215.044 234.167 217.293 235.668 C218.298 236.338 219.304 237.009 220.34 237.699 C221.067 238.184 221.794 238.669 222.543 239.168 C219.877 208.958 204.924 175.324 183.191 153.844 C181.543 152.168 181.543 152.168 181.543 150.168 C180.667 149.787 180.667 149.787 179.773 149.398 C177.303 148.036 175.781 146.535 173.855 144.48 C170.29 140.808 166.519 137.679 162.426 134.613 C160.543 133.168 160.543 133.168 158.543 131.168 C158.918 129.043 158.918 129.043 159.543 127.168 C170.578 128.459 178.829 136.751 186.543 144.168 C187.44 145.002 188.337 145.836 189.262 146.695 C196.427 153.549 202.161 160.868 207.543 169.168 C208.168 170.131 208.168 170.131 208.805 171.113 C219.418 187.739 227.332 205.874 231.543 225.168 C231.705 225.896 231.867 226.625 232.035 227.375 C237.114 251.358 235.473 277.155 231.543 301.168 C231.377 302.21 231.211 303.251 231.041 304.325 C228.042 323.011 228.042 323.011 225.543 330.168 C225.13 332.119 224.754 334.077 224.418 336.043 C224.25 337.01 224.083 337.977 223.91 338.973 C223.789 339.697 223.668 340.422 223.543 341.168 C224.163 340.879 224.783 340.59 225.422 340.293 C234.334 336.557 243.544 335.185 252.887 338.273 C266.232 344.558 274.021 354.207 279.48 367.793 C285.262 386.434 282.676 408.279 273.788 425.414 C262.581 446.048 244.323 463.209 221.543 470.168 C216.906 470.972 212.244 471.154 207.543 471.168 C207.529 471.765 207.515 472.362 207.5 472.977 C206.995 482.154 204.349 490.495 201.543 499.168 C201.143 500.445 201.143 500.445 200.735 501.747 C190.551 534.059 174.559 562.884 151.621 587.844 C150.196 589.438 148.823 591.082 147.5 592.762 C145.764 594.897 144.079 596.592 141.98 598.355 C139.67 600.319 137.41 602.294 135.211 604.383 C118.452 620.267 98.836 632.46 77.587 641.313 C75.811 642.056 74.047 642.826 72.285 643.602 C69.072 644.948 65.856 646.09 62.543 647.168 C61.504 647.511 61.504 647.511 60.443 647.86 C47.608 651.904 35.018 652.65 21.668 652.668 C20.889 652.672 20.11 652.677 19.308 652.681 C3.476 652.719 -10.86 650.149 -25.895 645.043 C-27.635 644.457 -27.635 644.457 -29.41 643.86 C-38.372 640.748 -46.604 636.94 -54.773 632.142 C-57.143 630.771 -59.585 629.545 -62.02 628.293 C-78.063 619.489 -92.233 607.711 -105.457 595.168 C-105.96 594.693 -106.463 594.219 -106.982 593.73 C-114.481 586.612 -121.047 579.05 -127.245 570.777 C-128.311 569.362 -129.403 567.966 -130.5 566.574 C-142.198 551.33 -150.348 533.909 -157.457 516.168 C-157.802 515.333 -158.148 514.497 -158.504 513.637 C-160.676 508.342 -162.522 503.066 -164.02 497.543 C-164.229 496.784 -164.438 496.025 -164.653 495.243 C-166.695 487.631 -168.155 479.937 -169.457 472.168 C-170.04 472.142 -170.622 472.116 -171.223 472.09 C-192.608 470.61 -211.128 457.286 -225.12 441.755 C-237.914 426.569 -242.809 408.646 -242.832 389.23 C-242.857 388.141 -242.881 387.051 -242.906 385.928 C-242.957 371.636 -237.456 358.301 -227.707 347.793 C-220.938 341.448 -212.71 337.036 -203.395 336.98 C-202.331 336.966 -201.268 336.952 -200.172 336.938 C-195.486 337.228 -191.033 338.153 -186.457 339.168 C-186.734 338.559 -187.011 337.95 -187.296 337.323 C-193.781 323.055 -193.781 323.055 -195.116 320.116 C-196.016 318.137 -196.92 316.159 -197.826 314.183 C-202.049 304.957 -202.049 304.957 -203.707 300.48 C-204.179 299.237 -204.179 299.237 -204.66 297.969 C-206.862 290.23 -206.64 282.274 -206.645 274.293 C-206.657 273.173 -206.669 272.053 -206.682 270.898 C-206.694 264.06 -206.099 257.804 -204.457 251.168 C-204.22 250.116 -203.983 249.064 -203.738 247.98 C-199.46 232.58 -190.51 219.376 -180.457 207.168 C-179.682 206.179 -178.908 205.191 -178.109 204.172 C-174.232 199.271 -170.336 194.932 -165.52 190.953 C-163.197 188.943 -161.135 186.769 -159.02 184.543 C-154.569 180.038 -149.796 176.141 -144.77 172.293 C-144.057 171.746 -143.344 171.198 -142.61 170.634 C-130.414 161.446 -130.414 161.446 -124.457 162.168 C-124.127 163.488 -123.797 164.808 -123.457 166.168 C-127.654 169.92 -131.91 173.558 -136.332 177.043 C-162.909 198.216 -190.151 226.475 -196.457 261.168 C-196.825 265.783 -196.834 270.354 -196.77 274.98 C-196.773 276.155 -196.776 277.33 -196.779 278.541 C-196.743 284.452 -196.497 289.6 -194.457 295.168 C-194.117 293.982 -193.776 292.796 -193.426 291.574 C-187.123 270.261 -177.067 251.979 -162.457 235.168 C-161.773 234.373 -161.088 233.577 -160.383 232.758 C-143.702 213.795 -124.549 196.903 -101.457 186.168 C-100.797 186.168 -100.137 186.168 -99.457 186.168 C-99.199 188.469 -99.199 188.469 -99.457 191.168 C-101.152 192.836 -101.152 192.836 -103.582 194.355 C-104.497 194.954 -105.413 195.552 -106.355 196.168 C-107.379 196.828 -108.403 197.488 -109.457 198.168 C-136.691 216.798 -159.393 239.772 -174.957 269.105 C-175.366 269.874 -175.775 270.642 -176.197 271.434 C-183.052 284.728 -187.272 300.177 -185.457 315.168 C-184.161 319.08 -182.529 322.609 -180.457 326.168 C-177.155 322.343 -174.834 318.319 -172.629 313.805 C-172.276 313.095 -171.924 312.385 -171.56 311.654 C-170.437 309.391 -169.322 307.123 -168.207 304.855 C-167.475 303.375 -166.741 301.896 -166.008 300.416 C-164.545 297.465 -163.085 294.513 -161.627 291.56 C-150.948 269.939 -150.948 269.939 -146.582 262.105 C-146.168 261.363 -145.755 260.62 -145.329 259.855 C-141.093 252.359 -136.396 245.216 -131.457 238.168 C-130.767 237.182 -130.078 236.196 -129.367 235.18 C-123.216 226.568 -116.757 218.201 -109.133 210.84 C-107.331 209.042 -105.677 207.161 -104.02 205.23 C-98.552 198.908 -92.636 193.15 -86.238 187.773 C-84.252 186.083 -84.252 186.083 -82.27 183.293 C-78.314 180.304 -74.873 180.598 -70.012 180.41 C-65.358 180.093 -61.035 179.04 -56.527 177.887 C-53.186 177.105 -49.858 176.611 -46.457 176.168 C-47.733 176.035 -49.009 175.902 -50.324 175.766 C-51.994 175.587 -53.663 175.409 -55.332 175.23 C-56.174 175.143 -57.016 175.056 -57.883 174.967 C-59.091 174.836 -59.091 174.836 -60.324 174.703 C-61.068 174.625 -61.811 174.546 -62.578 174.465 C-64.457 174.168 -64.457 174.168 -66.457 173.168 C-68.36 172.912 -70.263 172.658 -72.168 172.422 C-99.371 168.857 -127.4 157.882 -144.957 136.043 C-153.514 123.75 -154.38 108.439 -152.107 93.934 C-148.342 77.355 -137.792 63.344 -126.457 51.168 C-125.854 50.495 -125.25 49.822 -124.629 49.129 C-98.838 21.645 -59.163 7.539 -22.77 2.105 C-21.734 1.949 -20.699 1.794 -19.633 1.633 C-18.061 1.403 -18.061 1.403 -16.457 1.168 C-15.432 0.997 -14.406 0.826 -13.35 0.649 C-8.871 0.096 -4.507 0.006 0 0 Z " fill="#FEFEFE" transform="translate(500.45703125,163.83203125)"/>
<path d="M0 0 C1.353 -0.005 1.353 -0.005 2.733 -0.01 C4.64 -0.015 6.547 -0.017 8.454 -0.017 C11.309 -0.019 14.163 -0.038 17.018 -0.057 C45.877 -0.147 77.384 4.234 99.383 24.875 C113.105 39.441 120.215 55.955 119.945 75.915 C119.719 82.671 118.771 88.762 116.543 95.168 C116.129 96.418 115.715 97.669 115.289 98.957 C110.433 113.075 103.426 124.899 93.543 136.168 C92.888 136.944 92.233 137.72 91.559 138.52 C88.74 141.832 86.102 144.636 82.543 147.168 C102.199 145.185 122.104 137.644 135.652 122.867 C143.073 113.686 146.316 104.619 147.297 92.953 C147.543 91.168 147.543 91.168 148.543 90.168 C152.923 89.707 152.923 89.707 155.176 91.383 C158.008 95.081 157.106 99.769 156.543 104.168 C151.988 121.706 140.965 135.72 125.543 145.168 C121.29 147.382 116.971 149.332 112.543 151.168 C111.731 151.51 110.919 151.851 110.082 152.203 C106.649 153.575 104.293 154.168 100.543 154.168 C100.543 154.828 100.543 155.488 100.543 156.168 C101.282 156.28 102.02 156.392 102.781 156.508 C111.022 158.11 115.814 161.194 121.969 166.77 C124.974 169.439 128.109 171.951 131.23 174.48 C131.912 175.035 132.594 175.589 133.297 176.16 C146.034 186.466 159.342 195.932 172.801 205.265 C175.707 207.282 178.608 209.306 181.508 211.332 C191.123 218.044 200.747 224.723 210.543 231.168 C212.795 232.665 215.044 234.167 217.293 235.668 C218.298 236.338 219.304 237.009 220.34 237.699 C221.067 238.184 221.794 238.669 222.543 239.168 C219.877 208.958 204.924 175.324 183.191 153.844 C181.543 152.168 181.543 152.168 181.543 150.168 C180.667 149.787 180.667 149.787 179.773 149.398 C177.303 148.036 175.781 146.535 173.855 144.48 C170.29 140.808 166.519 137.679 162.426 134.613 C160.543 133.168 160.543 133.168 158.543 131.168 C158.918 129.043 158.918 129.043 159.543 127.168 C170.578 128.459 178.829 136.751 186.543 144.168 C187.44 145.002 188.337 145.836 189.262 146.695 C196.427 153.549 202.161 160.868 207.543 169.168 C208.168 170.131 208.168 170.131 208.805 171.113 C219.418 187.739 227.332 205.874 231.543 225.168 C231.705 225.896 231.867 226.625 232.035 227.375 C237.114 251.358 235.473 277.155 231.543 301.168 C231.377 302.21 231.211 303.251 231.041 304.325 C228.042 323.011 228.042 323.011 225.543 330.168 C225.13 332.119 224.754 334.077 224.418 336.043 C224.25 337.01 224.083 337.977 223.91 338.973 C223.789 339.697 223.668 340.422 223.543 341.168 C224.163 340.879 224.783 340.59 225.422 340.293 C234.334 336.557 243.544 335.185 252.887 338.273 C266.232 344.558 274.021 354.207 279.48 367.793 C285.262 386.434 282.676 408.279 273.788 425.414 C262.581 446.048 244.323 463.209 221.543 470.168 C216.906 470.972 212.244 471.154 207.543 471.168 C207.529 471.765 207.515 472.362 207.5 472.977 C206.995 482.154 204.349 490.495 201.543 499.168 C201.143 500.445 201.143 500.445 200.735 501.747 C190.551 534.059 174.559 562.884 151.621 587.844 C150.196 589.438 148.823 591.082 147.5 592.762 C145.764 594.897 144.079 596.592 141.98 598.355 C139.67 600.319 137.41 602.294 135.211 604.383 C118.452 620.267 98.836 632.46 77.587 641.313 C75.811 642.056 74.047 642.826 72.285 643.602 C69.072 644.948 65.856 646.09 62.543 647.168 C61.504 647.511 61.504 647.511 60.443 647.86 C47.608 651.904 35.018 652.65 21.668 652.668 C20.889 652.672 20.11 652.677 19.308 652.681 C3.476 652.719 -10.86 650.149 -25.895 645.043 C-27.635 644.457 -27.635 644.457 -29.41 643.86 C-38.372 640.748 -46.604 636.94 -54.773 632.142 C-57.143 630.771 -59.585 629.545 -62.02 628.293 C-78.063 619.489 -92.233 607.711 -105.457 595.168 C-105.96 594.693 -106.463 594.219 -106.982 593.73 C-114.481 586.612 -121.047 579.05 -127.245 570.777 C-128.311 569.362 -129.403 567.966 -130.5 566.574 C-142.198 551.33 -150.348 533.909 -157.457 516.168 C-157.802 515.333 -158.148 514.497 -158.504 513.637 C-160.676 508.342 -162.522 503.066 -164.02 497.543 C-164.229 496.784 -164.438 496.025 -164.653 495.243 C-166.695 487.631 -168.155 479.937 -169.457 472.168 C-170.04 472.142 -170.622 472.116 -171.223 472.09 C-192.608 470.61 -211.128 457.286 -225.12 441.755 C-237.914 426.569 -242.809 408.646 -242.832 389.23 C-242.857 388.141 -242.881 387.051 -242.906 385.928 C-242.957 371.636 -237.456 358.301 -227.707 347.793 C-220.938 341.448 -212.71 337.036 -203.395 336.98 C-202.331 336.966 -201.268 336.952 -200.172 336.938 C-195.486 337.228 -191.033 338.153 -186.457 339.168 C-186.734 338.559 -187.011 337.95 -187.296 337.323 C-193.781 323.055 -193.781 323.055 -195.116 320.116 C-196.016 318.137 -196.92 316.159 -197.826 314.183 C-202.049 304.957 -202.049 304.957 -203.707 300.48 C-204.179 299.237 -204.179 299.237 -204.66 297.969 C-206.862 290.23 -206.64 282.274 -206.645 274.293 C-206.657 273.173 -206.669 272.053 -206.682 270.898 C-206.694 264.06 -206.099 257.804 -204.457 251.168 C-204.22 250.116 -203.983 249.064 -203.738 247.98 C-199.46 232.58 -190.51 219.376 -180.457 207.168 C-179.682 206.179 -178.908 205.191 -178.109 204.172 C-174.232 199.271 -170.336 194.932 -165.52 190.953 C-163.197 188.943 -161.135 186.769 -159.02 184.543 C-154.569 180.038 -149.796 176.141 -144.77 172.293 C-144.057 171.746 -143.344 171.198 -142.61 170.634 C-130.414 161.446 -130.414 161.446 -124.457 162.168 C-124.127 163.488 -123.797 164.808 -123.457 166.168 C-127.654 169.92 -131.91 173.558 -136.332 177.043 C-162.909 198.216 -190.151 226.475 -196.457 261.168 C-196.825 265.783 -196.834 270.354 -196.77 274.98 C-196.773 276.155 -196.776 277.33 -196.779 278.541 C-196.743 284.452 -196.497 289.6 -194.457 295.168 C-194.117 293.982 -193.776 292.796 -193.426 291.574 C-187.123 270.261 -177.067 251.979 -162.457 235.168 C-161.773 234.373 -161.088 233.577 -160.383 232.758 C-143.702 213.795 -124.549 196.903 -101.457 186.168 C-100.797 186.168 -100.137 186.168 -99.457 186.168 C-99.199 188.469 -99.199 188.469 -99.457 191.168 C-101.152 192.836 -101.152 192.836 -103.582 194.355 C-104.497 194.954 -105.413 195.552 -106.355 196.168 C-107.379 196.828 -108.403 197.488 -109.457 198.168 C-136.691 216.798 -159.393 239.772 -174.957 269.105 C-175.366 269.874 -175.775 270.642 -176.197 271.434 C-183.052 284.728 -187.272 300.177 -185.457 315.168 C-184.161 319.08 -182.529 322.609 -180.457 326.168 C-177.155 322.343 -174.834 318.319 -172.629 313.805 C-172.276 313.095 -171.924 312.385 -171.56 311.654 C-170.437 309.391 -169.322 307.123 -168.207 304.855 C-167.475 303.375 -166.741 301.896 -166.008 300.416 C-164.545 297.465 -163.085 294.513 -161.627 291.56 C-150.948 269.939 -150.948 269.939 -146.582 262.105 C-146.168 261.363 -145.755 260.62 -145.329 259.855 C-141.093 252.359 -136.396 245.216 -131.457 238.168 C-130.767 237.182 -130.078 236.196 -129.367 235.18 C-123.216 226.568 -116.757 218.201 -109.133 210.84 C-107.331 209.042 -105.677 207.161 -104.02 205.23 C-98.552 198.908 -92.636 193.15 -86.238 187.773 C-84.252 186.083 -84.252 186.083 -82.27 183.293 C-78.314 180.304 -74.873 180.598 -70.012 180.41 C-65.358 180.093 -61.035 179.04 -56.527 177.887 C-53.186 177.105 -49.858 176.611 -46.457 176.168 C-47.733 176.035 -49.009 175.902 -50.324 175.766 C-51.994 175.587 -53.663 175.409 -55.332 175.23 C-56.174 175.143 -57.016 175.056 -57.883 174.967 C-59.091 174.836 -59.091 174.836 -60.324 174.703 C-61.068 174.625 -61.811 174.546 -62.578 174.465 C-64.457 174.168 -64.457 174.168 -66.457 173.168 C-68.36 172.912 -70.263 172.658 -72.168 172.422 C-99.371 168.857 -127.4 157.882 -144.957 136.043 C-153.514 123.75 -154.38 108.439 -152.107 93.934 C-148.342 77.355 -137.792 63.344 -126.457 51.168 C-125.854 50.495 -125.25 49.822 -124.629 49.129 C-98.838 21.645 -59.163 7.539 -22.77 2.105 C-21.734 1.949 -20.699 1.794 -19.633 1.633 C-18.061 1.403 -18.061 1.403 -16.457 1.168 C-15.432 0.997 -14.406 0.826 -13.35 0.649 C-8.871 0.096 -4.507 0.006 0 0 Z M64.513 161.419 C57.3 167.824 46.958 169.487 37.793 171.23 C36.529 171.481 35.265 171.731 33.962 171.989 C16.817 175.351 -0.361 178.447 -17.728 180.427 C-22.341 180.953 -26.934 181.547 -31.527 182.227 C-35.221 182.768 -38.89 183.221 -42.612 183.489 C-69.018 185.408 -82.887 193.987 -100.293 213.852 C-101.902 215.736 -103.499 217.63 -105.087 219.533 C-106.87 221.661 -108.705 223.74 -110.547 225.816 C-119.58 236.162 -126.284 247.381 -132.904 259.359 C-134.427 262.114 -135.965 264.86 -137.504 267.605 C-143.62 278.589 -149.219 289.745 -154.582 301.113 C-157.779 307.877 -161.071 314.591 -164.395 321.293 C-165.21 322.956 -165.21 322.956 -166.043 324.653 C-166.818 326.211 -166.818 326.211 -167.609 327.801 C-168.29 329.176 -168.29 329.176 -168.984 330.579 C-170.457 333.168 -170.457 333.168 -172.643 335.77 C-174.851 338.164 -174.851 338.164 -174.324 341.902 C-174.061 343.329 -173.771 344.751 -173.457 346.168 C-173.168 347.59 -172.879 349.012 -172.59 350.434 C-172.347 351.611 -172.347 351.611 -172.099 352.812 C-169.586 365.473 -168.693 378.119 -167.895 390.98 C-166.738 409.665 -166.738 409.665 -164.895 428.293 C-164.78 429.279 -164.665 430.265 -164.547 431.281 C-163.91 436.417 -163.033 441.451 -161.973 446.516 C-161.398 449.471 -160.952 452.431 -160.516 455.41 C-159.46 462.435 -158.028 469.353 -156.52 476.293 C-156.268 477.478 -156.016 478.662 -155.756 479.883 C-143.918 534.803 -112.014 582.708 -64.644 613.34 C-60.315 616.067 -55.905 618.642 -51.457 621.168 C-50.793 621.548 -50.13 621.929 -49.446 622.321 C-18.18 640.09 18.432 648.217 53.844 638.91 C76.189 632.376 96.047 622.137 114.543 608.168 C115.39 607.535 116.237 606.902 117.109 606.25 C146.482 583.555 167.88 553.063 182.543 519.168 C182.842 518.485 183.14 517.802 183.448 517.099 C191.09 499.364 196.078 480.332 199.185 461.294 C199.595 458.857 200.046 456.429 200.5 454 C203.885 435.662 205.974 417.274 207.512 398.699 C207.639 397.163 207.639 397.163 207.77 395.596 C208.196 390.446 208.612 385.295 209.01 380.143 C209.793 370.284 210.77 360.566 212.578 350.836 C214.073 342.758 214.073 342.758 210.863 335.504 C207.659 330.419 204.986 325.222 202.418 319.793 C201.952 318.816 201.486 317.839 201.006 316.833 C197.287 308.948 193.864 300.952 190.48 292.918 C186.012 282.322 181.149 272.112 175.571 262.059 C174.652 260.368 173.792 258.644 172.941 256.918 C168.24 247.462 160.794 241.028 152.895 234.23 C136.872 220.177 120.279 205.316 107.543 188.168 C107.041 187.504 106.538 186.841 106.021 186.157 C99.272 177.22 92.983 168.507 88.543 158.168 C75.546 155.971 75.546 155.971 64.513 161.419 Z " fill="#080809" transform="translate(500.45703125,163.83203125)"/>
<path d="M0 0 C0.688 -0.001 1.376 -0.001 2.085 -0.002 C19.696 0.025 39.693 1.066 53 14.25 C61.477 25.069 61.735 38.02 61 51.25 C57.194 76.922 39.894 101.132 19.416 116.434 C15.681 119.149 11.862 121.718 8 124.25 C6.925 124.987 6.925 124.987 5.828 125.738 C3.205 127.427 1.473 128.272 -1.676 128.125 C-6.026 126.98 -9.432 124.959 -13.25 122.625 C-14.001 122.176 -14.751 121.728 -15.525 121.266 C-19.686 118.753 -23.695 116.116 -27.625 113.25 C-31.369 110.526 -34.462 109.138 -39 108.25 C-37.203 115.662 -30.017 119.711 -23.939 123.495 C-21.305 125.101 -18.651 126.673 -16 128.25 C-14.515 129.24 -14.515 129.24 -13 130.25 C-13 130.91 -13 131.57 -13 132.25 C-23.335 135.006 -34.971 133.323 -44.402 128.516 C-50.961 124.566 -57.14 120.172 -63 115.25 C-63.799 114.596 -64.598 113.943 -65.422 113.27 C-78.749 101.908 -88.393 87.738 -90.238 69.958 C-91.222 53.078 -86.917 40.358 -76 27.25 C-56.165 6.605 -27.58 0.024 0 0 Z " fill="#FDFDFD" transform="translate(549,193.75)"/>
<path d="M0 0 C0.683 0.213 1.365 0.426 2.068 0.645 C7.971 2.539 13.574 4.924 19.125 7.688 C19.125 8.018 19.125 8.347 19.125 8.688 C17.354 8.546 15.583 8.399 13.812 8.25 C12.826 8.169 11.84 8.088 10.824 8.004 C8.125 7.688 8.125 7.688 5.125 6.688 C2.557 6.579 0.017 6.523 -2.551 6.52 C-3.312 6.516 -4.074 6.513 -4.859 6.509 C-6.477 6.504 -8.095 6.502 -9.713 6.502 C-12.14 6.5 -14.567 6.482 -16.994 6.463 C-32.436 6.405 -46.28 8.518 -60.875 13.688 C-61.927 14.057 -62.979 14.427 -64.062 14.809 C-82.396 21.854 -99.409 35.165 -108.188 52.938 C-115.297 69.481 -116.068 86.146 -109.61 102.886 C-103.834 117.036 -92.876 131.237 -79.344 138.68 C-78.859 139.012 -78.374 139.345 -77.875 139.688 C-77.875 140.347 -77.875 141.007 -77.875 141.688 C-101.634 138.522 -125.198 129.331 -141.293 110.922 C-152.386 96.353 -154.416 81.569 -152.875 63.688 C-151.992 59.004 -150.087 54.89 -147.875 50.688 C-147.417 49.739 -146.96 48.79 -146.488 47.812 C-137.867 30.806 -123.559 18.033 -107.875 7.688 C-106.822 6.993 -105.769 6.298 -104.684 5.582 C-97.283 0.803 -91.54 -1.784 -82.875 -3.312 C-82.06 -3.457 -81.245 -3.602 -80.406 -3.751 C-53.816 -8.251 -25.89 -8.121 0 0 Z " fill="#FAFAFA" transform="translate(562.875,179.3125)"/>
<path d="M0 0 C-0.981 0.559 -1.962 1.119 -2.973 1.695 C-24.131 14.12 -42.023 32.108 -49.438 56.062 C-53.518 73.054 -51.914 90.468 -43.195 105.699 C-28.862 127.251 -2.89 139.905 22 145 C25.159 145.468 28.323 145.809 31.5 146.125 C32.734 146.255 32.734 146.255 33.992 146.387 C35.994 146.596 37.997 146.799 40 147 C40 147.33 40 147.66 40 148 C1.435 148.799 1.435 148.799 -15.994 144.465 C-18.888 143.794 -21.804 143.433 -24.75 143.062 C-47.59 139.644 -73.722 129.301 -87.938 110.375 C-95.477 98.038 -95.117 85.611 -92.09 71.828 C-84.567 45.404 -61.116 25.801 -38.125 12.75 C-30.029 8.275 -21.747 4.958 -13 2 C-12.058 1.649 -11.115 1.299 -10.145 0.938 C-6.319 -0.461 -3.898 -1.25 0 0 Z " fill="#FAFBFB" transform="translate(452,183)"/>
<path d="M0 0 C10.583 6.871 16.998 16.513 19.871 28.827 C22.946 46.444 18.63 63.797 8.555 78.469 C6.847 80.704 5.069 82.854 3.25 85 C2.741 85.665 2.232 86.33 1.707 87.016 C-5.674 96.274 -18.942 105.818 -30.75 108 C-32.499 108.066 -34.25 108.086 -36 108.062 C-37.338 108.049 -37.338 108.049 -38.703 108.035 C-39.379 108.024 -40.054 108.012 -40.75 108 C-40.481 105.646 -40.21 103.291 -39.938 100.938 C-39.853 100.206 -39.769 99.475 -39.681 98.722 C-39.183 94.472 -38.652 90.23 -38.052 85.994 C-35.891 70.596 -34.671 55.196 -33.625 39.688 C-33.372 36.022 -33.117 32.356 -32.86 28.69 C-32.703 26.437 -32.549 24.183 -32.396 21.929 C-31.963 15.605 -31.425 9.303 -30.75 3 C-20.736 -1.148 -10.444 -5.249 0 0 Z " fill="#F9FAFA" transform="translate(751.75,514)"/>
<path d="M0 0 C3.92 2.916 3.915 6.301 4.652 10.973 C5.016 14.168 5.223 17.36 5.398 20.57 C5.454 21.47 5.51 22.37 5.567 23.297 C5.685 25.217 5.801 27.137 5.914 29.057 C6.213 34.112 6.537 39.165 6.863 44.219 C6.928 45.225 6.993 46.232 7.06 47.269 C7.953 60.866 9.259 74.418 10.652 87.973 C10.813 89.548 10.813 89.548 10.978 91.155 C11.519 96.43 12.075 101.702 12.652 106.973 C-3.037 107.457 -14.861 99.733 -26.07 89.215 C-38.847 76.635 -47.31 61.491 -47.888 43.324 C-48 27.652 -44.765 15.883 -34.035 4.16 C-23.763 -5.505 -12.574 -4.171 0 0 Z " fill="#F9F9F9" transform="translate(316.34765625,515.02734375)"/>
<path d="M0 0 C5.529 2.764 9.622 6.269 14.148 10.453 C17.799 13.714 21.618 16.709 25.486 19.706 C28.541 22.073 31.576 24.456 34.562 26.91 C41.085 32.262 47.73 37.298 54.719 42.027 C55.538 42.585 56.357 43.142 57.201 43.716 C67.409 50.654 77.652 57.542 87.898 64.424 C116.936 83.936 116.936 83.936 120 87 C120.325 91.553 120.296 96.124 120.312 100.688 C120.317 101.718 120.317 101.718 120.321 102.77 C120.34 121.675 118.978 141.982 113 160 C112.34 160.66 111.68 161.32 111 162 C105.158 149.878 99.629 137.659 94.314 125.298 C82.334 95.299 82.334 95.299 63 70 C61.996 69.062 60.992 68.123 59.988 67.184 C58.212 65.528 56.433 63.876 54.647 62.231 C48.564 56.605 42.658 50.808 36.786 44.965 C35.695 43.88 34.602 42.796 33.508 41.715 C26.527 34.817 20.065 27.736 14 20 C13.446 19.304 12.892 18.609 12.322 17.892 C10.914 16.122 9.518 14.344 8.125 12.562 C7.666 11.978 7.207 11.393 6.734 10.791 C5.485 9.197 4.242 7.599 3 6 C2.399 5.246 1.799 4.492 1.18 3.715 C0 2 0 2 0 0 Z " fill="#FBFBFB" transform="translate(605,329)"/>
<path d="M0 0 C3.761 -0.548 5.871 -0.741 9.105 1.383 C18.707 9.706 24.046 19.707 27 32 C27.17 32.622 27.34 33.244 27.515 33.884 C29.642 42.681 29.35 51.633 29.312 60.625 C29.311 61.493 29.31 62.361 29.308 63.255 C29.267 76.403 28.605 89.224 26.453 102.216 C25.978 105.135 25.563 108.059 25.156 110.988 C19.582 149.836 19.582 149.836 14 161 C13.822 163.6 13.722 166.148 13.688 168.75 C13.658 169.454 13.629 170.158 13.6 170.883 C13.537 176.045 14.592 178.919 18 183 C19.789 184.604 19.789 184.604 21.75 185.688 C22.437 186.094 23.124 186.5 23.832 186.918 C26.001 188.001 28.132 188.759 30.438 189.5 C32.201 190.243 32.201 190.243 34 191 C35 193.688 35 193.688 35 196 C31.28 198.88 28.195 199.638 23.605 199.484 C14.937 197.873 7.587 192.845 2.418 185.863 C-4.456 171.983 3.72 152.504 8 139 C16.119 112.921 19.116 86.519 19.25 59.312 C19.258 58.299 19.258 58.299 19.267 57.265 C19.374 39.402 17.339 20.383 4.25 7.062 C3.507 6.382 2.765 5.701 2 5 C1.34 4.34 0.68 3.68 0 3 C0 2.01 0 1.02 0 0 Z " fill="#0B0B0B" transform="translate(483,454)"/>
<path d="M0 0 C1.049 0.267 2.099 0.534 3.18 0.809 C15.193 4.113 31.805 10.207 39 21 C39.372 23.76 39.179 26.189 39 29 C37 31 37 31 34.203 31.355 C30.311 30.924 28.771 29.759 25.75 27.312 C20.698 23.457 15.876 20.424 10 18 C9.091 17.607 8.182 17.214 7.246 16.809 C-1.165 13.787 -9.318 13.612 -18.188 13.562 C-19.969 13.547 -19.969 13.547 -21.787 13.532 C-28.435 13.597 -34.264 14.283 -40.603 16.323 C-45.664 17.753 -50.216 17.818 -55 15.625 C-57.557 13.547 -57.911 12.49 -58.5 9.25 C-57.847 5.008 -56.239 3.793 -52.918 1.254 C-39.613 -7.445 -14.451 -4.101 0 0 Z " fill="#080808" transform="translate(623,417)"/>
<path d="M0 0 C2.441 2.073 3.098 3.772 3.672 6.895 C2.991 10.449 1.909 11.609 -0.891 13.832 C-6.139 16.456 -12.723 14.994 -18.078 13.332 C-40.473 7.337 -62.39 13.736 -81.891 24.832 C-82.971 25.578 -84.051 26.325 -85.164 27.094 C-87.891 28.832 -87.891 28.832 -90.766 28.582 C-91.467 28.335 -92.168 28.087 -92.891 27.832 C-93.418 24.82 -93.364 22.66 -91.824 19.969 C-73.998 -2.325 -25.01 -15.45 0 0 Z " fill="#070708" transform="translate(470.890625,419.16796875)"/>
<path d="M0 0 C3.43 0.322 5.011 1.739 7.375 4.125 C18.417 14.173 31.665 17.352 46.188 17.312 C47.343 17.329 48.499 17.345 49.689 17.361 C60.537 17.367 70.322 15.564 79.812 10.188 C80.448 9.841 81.083 9.495 81.738 9.139 C85.205 7.198 88.263 5.124 91.188 2.438 C92.116 1.633 93.044 0.829 94 0 C96.176 0.348 96.176 0.348 98 1 C98.758 3.68 98.758 3.68 99 7 C97.305 9.633 97.305 9.633 94.875 12.125 C94.089 12.953 93.302 13.78 92.492 14.633 C88.104 18.801 84.043 21.651 78.5 24.125 C77.397 24.623 76.293 25.12 75.156 25.633 C74.115 26.084 73.073 26.535 72 27 C71.227 27.348 70.453 27.696 69.656 28.055 C62.807 30.492 56.118 31.365 48.875 31.312 C48.053 31.307 47.231 31.301 46.385 31.295 C29.416 30.963 14.362 26.036 2 14 C-0.451 10.927 -1.848 8.142 -2.375 4.188 C-2 2 -2 2 0 0 Z " fill="#090909" transform="translate(560,523)"/>
<path d="M0 0 C3.938 0.401 5.814 1.402 8.562 4.188 C20.057 14.71 34.471 17.527 49.562 17.375 C51.294 17.392 51.294 17.392 53.061 17.41 C66.419 17.365 79.536 13.405 89.438 4.062 C90.014 3.455 90.59 2.848 91.184 2.223 C93 1 93 1 95.723 1.309 C96.474 1.537 97.226 1.765 98 2 C98.795 6.065 98.68 7.979 96.348 11.48 C86.868 22.492 73.491 29.453 59 31 C39.141 32.475 20.45 29.013 4.875 15.938 C1.707 12.921 -0.675 10.259 -2 6 C-1.61 1.61 -1.61 1.61 0 0 Z " fill="#070708" transform="translate(384,523)"/>
<path d="M0 0 C4.645 0.227 7.477 2.543 11.125 5.25 C21.45 12.702 30.52 16.179 43.188 16.188 C44.096 16.2 45.004 16.212 45.939 16.225 C55.725 16.246 63.201 14.355 71.75 9.625 C72.842 9.045 72.842 9.045 73.957 8.453 C77.157 6.722 79.97 5.024 82.809 2.727 C85.648 0.49 87.479 0.672 91 1 C91.75 3.188 91.75 3.188 92 6 C84.687 16.997 68.527 22.651 56.26 25.599 C43.382 27.885 29.565 27.289 18 21 C16.956 20.457 15.912 19.915 14.836 19.355 C1.948 12.272 1.948 12.272 -2 7 C-2.328 4.414 -2.328 4.414 -2 2 C-1.34 1.34 -0.68 0.68 0 0 Z " fill="#0B0B0C" transform="translate(475,690)"/>
<path d="M0 0 C4.146 1.565 7.29 3.456 10 7 C10.25 9.75 10.25 9.75 10 12 C4.25 11.125 4.25 11.125 2 10 C-1.843 9.637 -4.252 9.6 -7.688 11.438 C-13.849 18.265 -14.944 25.691 -14.504 34.746 C-13.49 45.843 -8.173 55.637 -1.809 64.573 C-0.804 66.003 0.107 67.498 1 69 C0.67 69.99 0.34 70.98 0 72 C-6.949 70.752 -11.673 64.747 -15.688 59.312 C-16.826 57.563 -17.93 55.792 -19 54 C-19.51 53.152 -20.021 52.304 -20.547 51.43 C-23.913 44.792 -24.455 38.628 -24.5 31.312 C-24.51 29.994 -24.51 29.994 -24.519 28.649 C-24.33 18.917 -21.625 11.193 -15 4 C-10.231 -0.24 -6.149 -0.916 0 0 Z " fill="#080808" transform="translate(304,528)"/>
<path d="M0 0 C7.175 3.368 11.206 9.581 14.105 16.723 C17.684 29.834 14.925 43.93 8.543 55.684 C7.129 57.897 5.64 59.95 4 62 C3.469 62.669 2.938 63.338 2.391 64.027 C0.034 66.88 -1.889 68.926 -5 71 C-6.32 71 -7.64 71 -9 71 C-8.434 67.179 -7.362 64.655 -5.25 61.438 C0.635 51.993 4.183 42.82 4.25 31.75 C4.271 30.916 4.291 30.082 4.312 29.223 C4.354 22.626 3.392 17.754 -1.062 12.625 C-4.673 9.597 -7.344 9.755 -12 10 C-12.99 10.66 -13.98 11.32 -15 12 C-16.32 12 -17.64 12 -19 12 C-19.271 9.04 -19.327 7.484 -17.637 4.98 C-12.113 -0.1 -7.437 -1.702 0 0 Z " fill="#0A0A0A" transform="translate(746,528)"/>
<path d="M0 0 C3.39 0.068 6.025 0.272 8.801 2.344 C11.698 5.386 13.384 7.86 13.562 12.125 C12.861 16.955 11.643 19.766 7.695 22.73 C6.423 23.452 6.423 23.452 5.125 24.188 C4.282 24.676 3.439 25.165 2.57 25.668 C-2.066 28.071 -4.836 29.475 -10 28 C-10.33 26.02 -10.66 24.04 -11 22 C-6.52 18.864 -1.934 16.354 3 14 C2.568 9.422 2.301 7.151 -1 4 C-0.688 1.812 -0.688 1.812 0 0 Z " fill="#0F0F10" transform="translate(542,618)"/>
</svg>