<svg version="1.1" xmlns="http://www.w3.org/2000/svg" width="1024" height="1024">
<path d="M0 0 C337.92 0 675.84 0 1024 0 C1024 337.92 1024 675.84 1024 1024 C686.08 1024 348.16 1024 0 1024 C0 686.08 0 348.16 0 0 Z " fill="#4A5A63" transform="translate(0,0)"/>
<path d="M0 0 C0.579 0.387 1.159 0.775 1.756 1.174 C29.229 19.523 56.339 29.976 90 23.875 C107.391 19.683 121.88 11.838 136 1 C136.097 2.313 136.097 2.313 136.196 3.652 C137.926 39.059 137.926 39.059 155.86 68.363 C162.148 73.173 169.238 76.03 176.953 77.578 C196.119 81.683 196.119 81.683 201.617 89.22 C206.245 96.566 209.239 104.847 212.27 112.945 C215.174 120.684 218.764 128.006 222.473 135.384 C224.294 139.025 226.07 142.687 227.844 146.352 C228.193 147.072 228.542 147.793 228.901 148.536 C234.522 160.186 239.826 171.981 245.11 183.787 C246.715 187.372 248.337 190.949 249.961 194.524 C260.047 216.738 269.303 239.208 278 262 C278.257 262.671 278.514 263.343 278.779 264.035 C313 353.521 313 353.521 313 384 C150.31 384 -12.38 384 -180 384 C-178.736 373.257 -177.447 363.224 -174.938 352.812 C-174.634 351.536 -174.33 350.259 -174.017 348.943 C-170.599 334.789 -166.411 320.873 -162 307 C-161.62 305.8 -161.24 304.599 -160.849 303.363 C-139.734 237.149 -110.234 173.92 -80.331 111.308 C-79.949 110.506 -79.567 109.705 -79.174 108.879 C-78.432 107.329 -77.684 105.781 -76.93 104.237 C-75.378 101.038 -73.984 97.953 -72.831 94.582 C-71.312 90.19 -70.324 87.73 -66.161 85.433 C-62.533 84.132 -58.932 83.158 -55.188 82.25 C-53.211 81.714 -51.24 81.162 -49.269 80.607 C-47.346 80.067 -45.419 79.539 -43.493 79.011 C-29.551 74.975 -19.176 69.572 -11.566 56.906 C-2.349 39.805 -1.938 18.927 0 0 Z " fill="#ADCCB3" transform="translate(449,640)"/>
<path d="M0 0 C2.764 2.445 4.725 5.036 6.688 8.125 C9.67 12.716 13.134 16.652 16.852 20.66 C18.614 22.579 20.25 24.529 21.875 26.562 C25.968 31.379 31.065 35.093 36 39 C36.759 39.637 37.519 40.274 38.301 40.93 C52.582 52.819 68.797 62.03 85 71 C86.25 71.703 87.5 72.406 88.75 73.109 C116.718 88.492 147.066 101.064 178 109 C180.226 109.589 182.451 110.182 184.676 110.777 C186.536 111.272 188.399 111.756 190.262 112.238 C193 113 193 113 195 114 C195.126 120.054 194.767 125.626 193.68 131.574 C193.541 132.368 193.402 133.162 193.258 133.98 C192.805 136.551 192.341 139.119 191.875 141.688 C191.555 143.483 191.234 145.278 190.915 147.074 C187.34 167.025 183.437 186.912 179.024 206.695 C177.858 211.943 176.754 217.197 175.721 222.472 C167.106 266.436 153.76 310.467 122.16 343.719 C120.351 345.629 118.701 347.571 117.062 349.625 C112.986 354.421 107.94 358.142 103 362 C102.059 362.757 101.118 363.513 100.148 364.293 C86.281 375.152 69.04 384.59 51 385 C50.379 385.024 49.759 385.049 49.119 385.074 C18.904 386.186 -6.504 374.321 -28.562 354.188 C-38.726 344.689 -47.415 334.727 -55 323 C-55.678 321.961 -56.356 320.922 -57.055 319.852 C-90.275 267.501 -98.412 200.501 -109 140.5 C-109.208 139.337 -109.416 138.174 -109.63 136.975 C-110.141 133.988 -110.593 131.003 -111 128 C-111.182 126.862 -111.182 126.862 -111.367 125.701 C-111.648 122.767 -111.438 120.617 -109.715 118.189 C-107.902 116.3 -106.007 114.619 -104 112.938 C-102.961 112.02 -102.961 112.02 -101.901 111.085 C-99.951 109.369 -97.979 107.682 -96 106 C-94.603 104.772 -93.207 103.543 -91.812 102.312 C-91.218 101.801 -90.624 101.289 -90.012 100.762 C-87.344 98.425 -84.735 96.026 -82.125 93.625 C-75.424 87.463 -68.703 81.326 -61.812 75.375 C-58.688 72.658 -55.77 69.795 -52.872 66.84 C-51.079 65.077 -49.229 63.44 -47.316 61.809 C-42.834 57.91 -38.626 53.774 -34.438 49.562 C-33.721 48.85 -33.005 48.138 -32.268 47.404 C-19.404 34.518 -4.061 18.276 0 0 Z " fill="#FADCC8" transform="translate(476,272)"/>
<path d="M0 0 C-1.647 5.668 -4.263 10.705 -6.938 15.938 C-12.801 27.543 -18.455 39.239 -24 51 C-24.492 52.043 -24.984 53.086 -25.491 54.161 C-29.376 62.418 -33.204 70.701 -37 79 C-37.302 79.66 -37.605 80.319 -37.916 80.999 C-53.442 114.903 -67.845 149.428 -79.883 184.736 C-81.047 188.139 -82.24 191.53 -83.434 194.922 C-94.523 226.848 -103.218 259.523 -108 293 C-169.05 293 -230.1 293 -293 293 C-288.923 231.843 -266.396 172.842 -228 125 C-227.52 124.401 -227.04 123.802 -226.545 123.186 C-214.896 108.815 -201.73 95.217 -187 84 C-186.001 83.207 -185.002 82.414 -183.973 81.598 C-175.952 75.259 -167.588 69.538 -159 64 C-158.034 63.368 -157.069 62.737 -156.074 62.086 C-111.128 33.5 -60.106 17.192 -9.414 2.125 C-8.695 1.91 -7.975 1.694 -7.234 1.472 C-2.236 0 -2.236 0 0 0 Z " fill="#447B78" transform="translate(367,731)"/>
<path d="M0 0 C0.7 0.221 1.4 0.442 2.121 0.67 C27.096 8.768 49.919 21.975 69 40 C70.309 41.109 71.621 42.213 72.938 43.312 C99.009 66.184 117.797 101.403 121 136 C121.586 149.215 120.488 161.743 116.625 174.438 C116.428 175.088 116.231 175.738 116.029 176.408 C114.533 181.034 112.669 184.961 110 189 C106.75 189.938 106.75 189.938 104 190 C104.619 188.206 104.619 188.206 105.25 186.375 C109.972 172.464 109.972 172.464 112 158 C112.095 156.223 112.095 156.223 112.191 154.41 C113.563 117.461 95.427 84.035 71.188 57.375 C42.847 27.41 3.508 8.966 -37 3 C-38.017 2.849 -39.034 2.698 -40.082 2.543 C-54.392 0.894 -77.916 -1.176 -90 8 C-90.616 10.037 -90.616 10.037 -91 12 C-90.33 11.931 -89.661 11.863 -88.97 11.792 C-51.557 8.288 -16.233 12.499 17.144 30.973 C19.118 32.065 21.109 33.125 23.102 34.184 C59.162 53.608 86.588 85.378 99 124.492 C101.26 132.419 102.27 139.768 102 148 C94.983 147.487 88.363 146.354 81.562 144.562 C80.58 144.304 79.598 144.045 78.586 143.778 C58.062 138.158 38.324 129.832 19 121 C17.57 120.349 17.57 120.349 16.11 119.684 C-7.096 109.045 -28.79 96.637 -49 81 C-49.87 80.337 -50.74 79.675 -51.637 78.992 C-71.326 63.512 -91.307 42.641 -96 17 C-96.465 11.833 -96.738 7.544 -94 3 C-88.779 -0.842 -82.138 -2.234 -75.938 -3.688 C-75.078 -3.9 -74.219 -4.112 -73.334 -4.33 C-49.213 -10.171 -23.486 -7.447 0 0 Z " fill="#BCCEB5" transform="translate(573,226)"/>
<path d="M0 0 C0.594 0.262 1.189 0.524 1.801 0.794 C4.531 1.994 7.265 3.185 10 4.375 C10.935 4.788 11.869 5.2 12.832 5.625 C18.181 7.944 23.298 9.776 29 11 C28.979 11.709 28.959 12.418 28.938 13.148 C29.106 21.845 31.132 29.211 33.812 37.438 C43.285 66.854 46.589 96.355 33 125 C26.095 137.74 17.507 147.486 3.77 152.875 C-4.562 155.27 -13.141 154.55 -21 151 C-29.104 146.224 -34.275 140.047 -37 131 C-38.575 119.948 -35.928 109.562 -33 99 C-32.705 97.934 -32.41 96.868 -32.106 95.769 C-30.742 90.85 -29.375 85.932 -28.001 81.015 C-25.921 73.525 -23.995 66.027 -22.312 58.438 C-22.116 57.557 -21.92 56.676 -21.719 55.768 C-21.334 54.035 -20.951 52.302 -20.568 50.569 C-16.43 31.85 -11.395 15.627 0 0 Z " fill="#AFCBB2" transform="translate(349,512)"/>
<path d="M0 0 C1.563 2.614 3.099 5.239 4.625 7.875 C5.265 8.937 5.265 8.937 5.918 10.02 C13.382 23.054 16.652 37.744 19.358 52.372 C22.279 68.057 26.1 83.101 31.117 98.246 C34.789 109.347 38.054 122.69 33.438 134.062 C28.476 143 21.848 148.61 12.012 151.605 C1.523 153.662 -7.211 150.885 -15.957 145.016 C-29.946 134.222 -38.711 117.337 -41.31 99.921 C-44.262 75.393 -39.555 52.8 -30.629 29.91 C-28.118 23.277 -27.28 17.077 -27 10 C-25.484 9.443 -25.484 9.443 -23.938 8.875 C-19.644 7.266 -15.383 5.576 -11.125 3.875 C-10.458 3.609 -9.792 3.344 -9.105 3.07 C-1.442 0 -1.442 0 0 0 Z " fill="#AFCBB2" transform="translate(682,514)"/>
<path d="M0 0 C3.641 13.199 3.688 22.658 -2.59 35.168 C-10.983 49.453 -22.15 61.415 -33.812 73.062 C-34.306 73.556 -34.8 74.049 -35.308 74.557 C-40.439 79.664 -45.636 84.657 -51.13 89.375 C-54.425 92.238 -57.578 95.252 -60.75 98.25 C-66.481 103.646 -72.245 109.001 -78.059 114.309 C-80.161 116.232 -82.257 118.161 -84.348 120.098 C-93.927 128.974 -93.927 128.974 -98.25 132.688 C-102.731 136.556 -106.859 140.773 -111 145 C-113.813 142.187 -113.288 140.341 -113.336 136.402 C-113.349 135.41 -113.349 135.41 -113.361 134.397 C-113.381 132.244 -113.381 130.091 -113.375 127.938 C-113.374 127.207 -113.374 126.476 -113.373 125.724 C-113.335 114.652 -112.606 104.525 -109 94 C-108.694 93.045 -108.694 93.045 -108.383 92.071 C-97.686 58.777 -74.483 30.441 -43.516 14.027 C-14.24 -0.843 -14.24 -0.843 0 0 Z " fill="#AFCBB2" transform="translate(467,245)"/>
<path d="M0 0 C13.191 11.3 18.533 23.585 20.062 40.688 C20.216 43.516 20.271 46.34 20.301 49.172 C20.31 49.969 20.32 50.767 20.33 51.589 C20.355 54.205 20.367 56.821 20.375 59.438 C20.379 60.795 20.379 60.795 20.384 62.18 C20.395 77.107 19.598 91.887 18.25 106.75 C18.126 108.145 18.126 108.145 17.999 109.568 C17.101 119.467 15.995 129.258 14.018 139.006 C12.913 144.639 12.221 150.163 14.062 155.688 C18.272 157.545 21.994 157.959 26.562 157.938 C28.187 157.945 28.187 157.945 29.844 157.953 C33.252 157.672 35.933 157.068 39.062 155.688 C42.273 146.057 38.708 132.855 37.125 123.062 C33.948 102.989 32.874 83.437 32.812 63.125 C32.807 62.123 32.802 61.121 32.796 60.089 C32.714 39.732 32.915 19.984 48.129 4.598 C60.436 -6.896 74.611 -11.088 91.312 -10.938 C93.214 -10.926 93.214 -10.926 95.154 -10.914 C109.779 -10.57 122.484 -6.634 134.062 2.688 C136.357 6.129 136.325 7.656 136.062 11.688 C135.062 12.688 135.062 12.688 132.434 12.957 C128.443 12.638 125.571 11.259 122.125 9.375 C107.869 1.844 91.793 -1.36 75.742 2.594 C65.531 5.865 53.846 10.062 48.062 19.688 C42.184 32.168 42.661 46.714 42.688 60.188 C42.687 61.559 42.687 61.559 42.686 62.957 C42.713 81.742 44.507 100.099 47.062 118.688 C47.374 120.984 47.685 123.281 47.996 125.578 C48.205 127.122 48.205 127.122 48.418 128.697 C51.506 151.64 51.506 151.64 48.375 158.25 C41.829 165.149 35.062 167.735 25.562 168.125 C19.068 167.905 13.03 166.395 8.141 161.934 C2.626 155.645 2.699 150.936 3.062 142.688 C3.512 138.72 4.186 134.807 4.875 130.875 C8.561 107.963 10.343 85.495 10.438 62.312 C10.445 61.361 10.453 60.41 10.461 59.43 C11.316 36.073 11.316 36.073 2.062 15.688 C-2.585 11.731 -7.678 9.24 -13.312 7 C-14.016 6.705 -14.72 6.411 -15.445 6.107 C-30.571 -0.034 -48.741 -1.181 -63.949 5.176 C-67.709 7.078 -71.282 9.162 -74.754 11.551 C-77.375 12.915 -79.021 13.051 -81.938 12.688 C-83.938 10.688 -83.938 10.688 -84.293 8.309 C-83.707 3.984 -80.99 2.364 -77.754 -0.32 C-55.998 -15.709 -21.684 -16.048 0 0 Z " fill="#3C4753" transform="translate(491.9375,382.3125)"/>
<path d="M0 0 C1.324 0.274 1.324 0.274 2.674 0.554 C3.337 0.695 4 0.835 4.684 0.98 C8.452 17.406 12.113 33.838 15.47 50.354 C17.429 59.926 19.589 69.444 21.856 78.948 C22.215 80.469 22.215 80.469 22.582 82.02 C22.795 82.909 23.008 83.797 23.228 84.713 C23.684 86.98 23.684 86.98 23.684 89.98 C18.418 89.437 13.966 88.149 9.121 85.98 C8.43 85.673 7.739 85.365 7.027 85.048 C-4.394 79.799 -14.395 72.87 -23.316 63.98 C-23.951 63.369 -24.585 62.758 -25.238 62.129 C-32.504 54.574 -38.252 43.478 -39.316 32.98 C-39.421 32.132 -39.525 31.284 -39.633 30.41 C-40.231 21.481 -37.015 14.288 -31.23 7.551 C-22.083 -1.212 -12.102 -2.533 0 0 Z " fill="#F9DBC8" transform="translate(355.31640625,424.01953125)"/>
<path d="M0 0 C6.306 6.093 9.534 13.807 9.812 22.5 C9.066 38.24 0.945 52.042 -10.211 62.816 C-20.38 71.596 -38.823 84.5 -52.812 84.5 C-51.323 75.762 -49.476 67.113 -47.585 58.455 C-47.052 56.017 -46.523 53.578 -45.994 51.139 C-44.777 45.533 -43.559 39.928 -42.339 34.323 C-41.368 29.862 -40.402 25.4 -39.438 20.938 C-39.199 19.847 -38.961 18.757 -38.716 17.633 C-37.373 11.409 -36.283 5.227 -35.487 -1.093 C-34.812 -3.5 -34.812 -3.5 -33.195 -4.93 C-22.847 -9.761 -8.823 -6.54 0 0 Z " fill="#F8DAC7" transform="translate(708.8125,429.5)"/>
<path d="M0 0 C2.601 0.901 4.961 2.123 7.375 3.438 C8.003 3.763 8.631 4.088 9.277 4.424 C13.784 6.784 13.784 6.784 15 8 C25.345 8.952 32.98 7.112 41.75 1.75 C45.308 -0.166 47.037 -0.689 51 0 C53.875 1.5 53.875 1.5 56 4 C56.666 8.588 56.555 10.842 54.562 15 C47.869 22.837 39.738 30.212 29.036 31.177 C11.023 31.716 11.023 31.716 4 27 C2.962 26.329 2.962 26.329 1.902 25.645 C-3.222 22.072 -8.17 17.66 -11 12 C-11.571 4.914 -11.571 4.914 -9.438 1.5 C-6.064 -0.576 -3.934 -0.319 0 0 Z " fill="#3E4754" transform="translate(496,570)"/>
<path d="M0 0 C2.77 1.192 4.185 2.901 6.195 5.141 C12.68 11.861 21.209 16.394 30.621 17.191 C43.121 17.23 53.406 14.83 62.945 6.328 C64.764 4.241 66.478 2.154 68.07 -0.109 C71.008 0.703 71.008 0.703 74.07 1.891 C74.565 3.376 74.565 3.376 75.07 4.891 C74.145 6.715 74.145 6.715 72.758 8.578 C72.308 9.201 71.858 9.823 71.395 10.465 C70.958 10.935 70.521 11.406 70.07 11.891 C69.41 11.891 68.75 11.891 68.07 11.891 C68.772 12.963 69.473 14.036 70.195 15.141 C71.312 17.066 71.312 17.066 72.07 18.891 C71.32 21.328 71.32 21.328 70.07 22.891 C68.195 22.641 68.195 22.641 66.07 21.891 C64.82 19.828 64.82 19.828 64.07 17.891 C62.75 18.221 61.43 18.551 60.07 18.891 C60.421 19.447 60.772 20.004 61.133 20.578 C62.289 23.429 61.88 24.976 61.07 27.891 C59.585 28.386 59.585 28.386 58.07 28.891 C57.483 27.653 57.483 27.653 56.883 26.391 C56.285 25.566 55.687 24.741 55.07 23.891 C52.443 23.473 52.443 23.473 50.07 23.891 C49.74 26.531 49.41 29.171 49.07 31.891 C46.595 32.386 46.595 32.386 44.07 32.891 C43.575 29.426 43.575 29.426 43.07 25.891 C40.76 25.891 38.45 25.891 36.07 25.891 C36.07 28.531 36.07 31.171 36.07 33.891 C34.09 33.891 32.11 33.891 30.07 33.891 C29.575 29.931 29.575 29.931 29.07 25.891 C27.09 25.561 25.11 25.231 23.07 24.891 C22.802 25.86 22.534 26.829 22.258 27.828 C21.866 28.839 21.474 29.849 21.07 30.891 C20.08 31.221 19.09 31.551 18.07 31.891 C17.08 31.231 16.09 30.571 15.07 29.891 C15.945 24.141 15.945 24.141 17.07 21.891 C14.418 20.815 11.787 19.796 9.07 18.891 C8.699 19.85 8.699 19.85 8.32 20.828 C7.07 22.891 7.07 22.891 5.07 23.703 C3.07 23.891 3.07 23.891 1.07 22.891 C1.556 19.768 2.069 16.895 3.07 13.891 C1.957 13.581 1.957 13.581 0.82 13.266 C-2.803 11.454 -4.078 9.452 -5.93 5.891 C-5.867 3.641 -5.867 3.641 -4.93 1.891 C-1.93 -0.109 -1.93 -0.109 0 0 Z " fill="#3F4754" transform="translate(415.9296875,440.109375)"/>
<path d="M0 0 C0.66 1.011 1.32 2.021 2 3.062 C5.507 8.286 10.584 11.014 16 14 C16.637 14.365 17.274 14.73 17.93 15.105 C26.256 19.047 37.858 18.001 46.438 15.375 C55.146 12.007 61.285 7.327 67 0 C69.438 0.75 69.438 0.75 72 2 C72.836 3.844 72.836 3.844 73 6 C71.855 7.922 71.855 7.922 70.188 9.75 C69.373 10.67 69.373 10.67 68.543 11.609 C67 13 67 13 65 13 C65.516 13.743 66.031 14.485 66.562 15.25 C68 18 68 18 67.688 20.312 C67.461 20.869 67.234 21.426 67 22 C65.35 22.33 63.7 22.66 62 23 C61.01 21.515 61.01 21.515 60 20 C57.614 20.576 55.333 21.222 53 22 C53.495 25.96 53.495 25.96 54 30 C51.03 30.495 51.03 30.495 48 31 C47.505 28.03 47.505 28.03 47 25 C44.69 25 42.38 25 40 25 C40 27.64 40 30.28 40 33 C38.344 33.382 36.675 33.714 35 34 C34 33 34 33 33.938 29.438 C33.958 28.303 33.979 27.169 34 26 C31.69 26 29.38 26 27 26 C26.67 28.31 26.34 30.62 26 33 C22.25 34.125 22.25 34.125 20 33 C20 30.36 20 27.72 20 25 C18.35 24.67 16.7 24.34 15 24 C13.02 26.97 13.02 26.97 11 30 C9.68 29.34 8.36 28.68 7 28 C7.486 24.877 7.999 22.004 9 19 C7.68 18.67 6.36 18.34 5 18 C4.732 18.619 4.464 19.238 4.188 19.875 C3 22 3 22 0 24 C-0.99 23.34 -1.98 22.68 -3 22 C-2.049 17.108 -2.049 17.108 -1.125 15.062 C-0.91 11.515 -3.764 9.556 -6 7 C-6.812 4.625 -6.812 4.625 -7 3 C-3.375 0 -3.375 0 0 0 Z " fill="#3D4552" transform="translate(554,440)"/>
<path d="M0 0 C0 3.805 -1.263 5.646 -3.062 9 C-13.459 29.107 -18.175 49.66 -18.295 72.251 C-18.307 73.736 -18.327 75.221 -18.357 76.706 C-18.551 86.466 -17.655 95.029 -14.962 104.432 C-14.003 107.99 -13.447 111.351 -13 115 C-14.836 114.477 -14.836 114.477 -17 113 C-18.069 110.42 -18.888 108.047 -19.625 105.375 C-19.829 104.688 -20.032 104.001 -20.242 103.293 C-20.653 101.888 -21.05 100.479 -21.432 99.067 C-21.95 97.184 -22.532 95.319 -23.121 93.457 C-24.719 86.899 -24.44 80.025 -24.438 73.312 C-24.438 72.58 -24.439 71.847 -24.44 71.092 C-24.373 45.608 -16.605 19.845 0 0 Z " fill="#A6C7AB" transform="translate(363,300)"/>
<path d="M0 0 C0.598 0.206 1.196 0.413 1.812 0.625 C2.308 3.1 2.308 3.1 2.812 5.625 C-4.753 10.209 -12.379 14.68 -20.062 19.062 C-21.176 19.712 -22.29 20.361 -23.438 21.029 C-24.507 21.637 -25.577 22.245 -26.68 22.871 C-27.642 23.425 -28.605 23.978 -29.597 24.549 C-32.395 25.711 -33.429 25.745 -36.188 24.625 C-36.518 23.305 -36.847 21.985 -37.188 20.625 C-33.614 17.615 -29.994 15.266 -25.898 13.023 C-25.021 12.54 -25.021 12.54 -24.125 12.046 C-22.274 11.026 -20.418 10.013 -18.562 9 C-16.7 7.979 -14.839 6.956 -12.978 5.933 C-11.296 5.008 -9.612 4.086 -7.927 3.166 C-1.761 -0.302 -1.761 -0.302 0 0 Z " fill="#A9C6AF" transform="translate(762.1875,274.375)"/>
<path d="M0 0 C3.47 0.535 6.259 2.074 9.324 3.73 C10.354 4.287 11.383 4.843 12.443 5.416 C13.514 6.001 14.584 6.585 15.688 7.188 C16.739 7.753 17.79 8.318 18.873 8.9 C23.74 11.544 28.567 14.248 33.27 17.176 C33.994 17.625 34.718 18.074 35.464 18.536 C35.971 19.019 36.478 19.502 37 20 C37 21.32 37 22.64 37 24 C35.376 25.182 35.376 25.182 33 26 C30.194 24.929 30.194 24.929 26.984 23.09 C26.41 22.766 25.835 22.442 25.243 22.108 C23.403 21.066 21.577 20.002 19.75 18.938 C18.536 18.247 17.321 17.557 16.105 16.869 C9.981 13.387 3.94 9.79 -2 6 C-1.125 1.125 -1.125 1.125 0 0 Z " fill="#ACCAB1" transform="translate(264,274)"/>
<path d="M0 0 C1.687 0 3.375 0.006 5.062 0.016 C6.392 0.018 6.392 0.018 7.748 0.02 C10.591 0.026 13.434 0.038 16.277 0.051 C18.2 0.056 20.122 0.061 22.045 0.065 C26.768 0.076 31.491 0.093 36.215 0.114 C36.84 2.489 36.84 2.489 37.215 5.114 C34.583 7.745 32.676 7.362 29.093 7.391 C28.257 7.387 27.42 7.383 26.558 7.379 C25.7 7.381 24.842 7.383 23.958 7.385 C22.142 7.386 20.327 7.383 18.511 7.374 C15.726 7.364 12.941 7.374 10.156 7.387 C8.394 7.386 6.633 7.383 4.871 7.379 C3.616 7.385 3.616 7.385 2.336 7.391 C-3.555 7.343 -3.555 7.343 -5.785 5.114 C-5.105 0.624 -4.726 0.142 0 0 Z " fill="#A9CAB2" transform="translate(762.785400390625,390.886474609375)"/>
<path d="M0 0 C13.2 0 26.4 0 40 0 C41 5 41 5 40 7 C34.482 7.049 28.965 7.086 23.447 7.11 C21.569 7.12 19.691 7.134 17.813 7.151 C15.118 7.175 12.422 7.186 9.727 7.195 C8.884 7.206 8.041 7.216 7.173 7.227 C5.114 7.227 3.055 7.123 1 7 C0.34 6.34 -0.32 5.68 -1 5 C-0.67 3.35 -0.34 1.7 0 0 Z " fill="#A9CBB3" transform="translate(227,391)"/>
<path d="M0 0 C1.675 0.286 3.344 0.618 5 1 C4.45 5.824 3.031 9.312 0.727 13.57 C0.402 14.174 0.078 14.777 -0.257 15.399 C-0.94 16.667 -1.628 17.932 -2.319 19.196 C-3.373 21.122 -4.414 23.054 -5.453 24.988 C-11.757 36.644 -11.757 36.644 -14 39 C-15.32 39 -16.64 39 -18 39 C-19.139 35.872 -19.282 33.715 -18.054 30.604 C-16.589 27.771 -15.038 25.008 -13.438 22.25 C-12.911 21.312 -12.384 20.373 -11.842 19.406 C-2.048 2.048 -2.048 2.048 0 0 Z " fill="#ABC7B1" transform="translate(651,171)"/>
<path d="M0 0 C2.874 1.19 3.462 2.711 4.892 5.443 C5.398 6.392 5.904 7.341 6.426 8.318 C6.942 9.319 7.458 10.319 7.99 11.35 C9.02 13.298 10.05 15.246 11.08 17.193 C11.575 18.146 12.07 19.099 12.579 20.08 C14.337 23.384 16.228 26.599 18.172 29.797 C19.232 32.267 19.21 34.189 19.052 36.85 C17.732 37.51 16.412 38.17 15.052 38.85 C10.637 33.618 7.557 27.786 4.342 21.784 C3.302 19.849 2.246 17.924 1.189 15.998 C0.523 14.762 -0.143 13.525 -0.807 12.287 C-1.41 11.172 -2.013 10.057 -2.634 8.908 C-3.926 5.9 -4.249 4.072 -3.948 0.85 C-1.948 -0.15 -1.948 -0.15 0 0 Z " fill="#ACC9B0" transform="translate(376.947509765625,171.150390625)"/>
<path d="M0 0 C3.536 0.536 3.536 0.536 5 2 C5.113 4.788 5.164 7.551 5.168 10.34 C5.171 11.177 5.175 12.014 5.178 12.877 C5.183 14.652 5.185 16.426 5.185 18.201 C5.187 20.923 5.206 23.644 5.225 26.365 C5.228 28.086 5.23 29.807 5.23 31.527 C5.238 32.345 5.245 33.163 5.252 34.005 C5.229 39.771 5.229 39.771 3 42 C-0.536 41.464 -0.536 41.464 -2 40 C-2.113 37.212 -2.164 34.449 -2.168 31.66 C-2.171 30.823 -2.175 29.986 -2.178 29.123 C-2.183 27.348 -2.185 25.574 -2.185 23.799 C-2.187 21.077 -2.206 18.356 -2.225 15.635 C-2.228 13.914 -2.23 12.193 -2.23 10.473 C-2.238 9.655 -2.245 8.837 -2.252 7.995 C-2.229 2.229 -2.229 2.229 0 0 Z " fill="#ACCBB1" transform="translate(512,129)"/>
<path d="M0 0 C2.106 1.029 4.149 2.089 6.164 3.289 C14.883 8.022 25.54 9.179 35.146 6.373 C38.349 5.182 41.328 3.77 44.375 2.215 C45.674 1.613 45.674 1.613 47 1 C47.66 1.33 48.32 1.66 49 2 C44.145 8.722 38.031 12.322 30 14 C21.165 15.019 14.403 14.055 7 9 C3.813 6.278 1.586 3.893 0 0 Z " fill="#E4CFBC" transform="translate(494,579)"/>
<path d="M0 0 C0 3.955 -1.451 6.148 -3.312 9.625 C-4.235 11.377 -4.235 11.377 -5.176 13.164 C-7 16 -7 16 -10 17 C-8.574 13.073 -6.706 9.754 -4.438 6.25 C-3.817 5.286 -3.197 4.322 -2.559 3.328 C-1 1 -1 1 0 0 Z " fill="#BDD1C8" transform="translate(363,300)"/>
</svg>