<svg version="1.1" xmlns="http://www.w3.org/2000/svg" width="1024" height="1024">
<path d="M0 0 C337.92 0 675.84 0 1024 0 C1024 337.92 1024 675.84 1024 1024 C686.08 1024 348.16 1024 0 1024 C0 686.08 0 348.16 0 0 Z " fill="#FEE0C0" transform="translate(0,0)"/>
<path d="M0 0 C0.7 0.222 1.401 0.443 2.123 0.672 C30.25 9.637 53.732 24.755 75 45 C75.757 45.692 76.513 46.384 77.293 47.098 C107.284 75.449 125.253 118.843 127.124 159.714 C127.519 173.776 126.667 187.195 124 201 C123.861 201.76 123.722 202.519 123.578 203.302 C118.869 228.661 108.183 253.178 93 274 C92.419 274.801 91.837 275.601 91.238 276.426 C89.546 278.667 87.791 280.837 86 283 C85.187 283.998 84.373 284.995 83.535 286.023 C76.927 294 69.808 301.363 62.407 308.607 C44.442 326.235 25.29 349.35 24.95 375.903 C24.977 377.366 25.008 378.83 25.043 380.293 C25.065 381.909 25.087 383.526 25.107 385.143 C25.144 387.659 25.187 390.175 25.247 392.692 C25.498 403.844 25.705 414.336 18.438 423.562 C16 426 16 426 13 428 C13.924 430.839 14.837 433.63 16.043 436.363 C19.044 444.63 16.944 453.011 13.605 460.828 C5.505 476.831 -8.193 485.952 -24.75 491.812 C-33.931 494.478 -42.505 495.292 -52.062 495.188 C-53.742 495.187 -53.742 495.187 -55.455 495.186 C-77.263 495.07 -96.451 488.649 -112.176 473.055 C-115.936 469.121 -118.735 464.949 -121 460 C-121.335 459.274 -121.67 458.549 -122.016 457.801 C-125.438 449.135 -125.039 440.785 -121.5 432.25 C-120.688 430.49 -119.862 428.736 -119 427 C-119.759 426.749 -120.519 426.497 -121.301 426.238 C-124.244 424.888 -125.331 423.791 -127.188 421.188 C-127.92 420.188 -127.92 420.188 -128.668 419.168 C-132.025 413.703 -132.281 409.146 -132.273 402.887 C-132.294 401.062 -132.315 399.237 -132.336 397.412 C-132.358 394.567 -132.375 391.722 -132.381 388.877 C-132.485 359.069 -142.671 337.514 -163 316 C-164.121 314.79 -165.241 313.579 -166.359 312.367 C-171.419 306.899 -176.478 301.454 -181.812 296.25 C-186.622 291.485 -190.848 286.343 -195 281 C-195.436 280.44 -195.872 279.881 -196.321 279.304 C-207.367 265.021 -215.417 250.071 -222.075 233.305 C-222.708 231.728 -223.359 230.158 -224.026 228.595 C-226.597 222.48 -228.277 216.426 -229.625 209.938 C-229.942 208.423 -229.942 208.423 -230.266 206.878 C-239.704 160.64 -232.101 113.633 -206 74 C-199.457 64.249 -192.158 55.429 -184 47 C-183.524 46.499 -183.049 45.997 -182.559 45.481 C-159.518 21.208 -129.28 5.179 -97 -3 C-96.109 -3.226 -95.219 -3.452 -94.301 -3.685 C-64.52 -10.844 -29.03 -9.494 0 0 Z " fill="#FDD7A3" transform="translate(567,316)"/>
<path d="M0 0 C0.7 0.222 1.401 0.443 2.123 0.672 C30.25 9.637 53.732 24.755 75 45 C75.757 45.692 76.513 46.384 77.293 47.098 C107.284 75.449 125.253 118.843 127.124 159.714 C127.519 173.776 126.667 187.195 124 201 C123.861 201.76 123.722 202.519 123.578 203.302 C118.869 228.661 108.183 253.178 93 274 C92.419 274.801 91.837 275.601 91.238 276.426 C89.546 278.667 87.791 280.837 86 283 C85.187 283.998 84.373 284.995 83.535 286.023 C76.927 294 69.808 301.363 62.407 308.607 C44.442 326.235 25.29 349.35 24.95 375.903 C24.977 377.366 25.008 378.83 25.043 380.293 C25.065 381.909 25.087 383.526 25.107 385.143 C25.144 387.659 25.187 390.175 25.247 392.692 C25.498 403.844 25.705 414.336 18.438 423.562 C16 426 16 426 13 428 C13.924 430.839 14.837 433.63 16.043 436.363 C19.044 444.63 16.944 453.011 13.605 460.828 C5.505 476.831 -8.193 485.952 -24.75 491.812 C-33.931 494.478 -42.505 495.292 -52.062 495.188 C-53.742 495.187 -53.742 495.187 -55.455 495.186 C-77.263 495.07 -96.451 488.649 -112.176 473.055 C-115.936 469.121 -118.735 464.949 -121 460 C-121.335 459.274 -121.67 458.549 -122.016 457.801 C-125.438 449.135 -125.039 440.785 -121.5 432.25 C-120.688 430.49 -119.862 428.736 -119 427 C-119.759 426.749 -120.519 426.497 -121.301 426.238 C-124.244 424.888 -125.331 423.791 -127.188 421.188 C-127.92 420.188 -127.92 420.188 -128.668 419.168 C-132.025 413.703 -132.281 409.146 -132.273 402.887 C-132.294 401.062 -132.315 399.237 -132.336 397.412 C-132.358 394.567 -132.375 391.722 -132.381 388.877 C-132.485 359.069 -142.671 337.514 -163 316 C-164.121 314.79 -165.241 313.579 -166.359 312.367 C-171.419 306.899 -176.478 301.454 -181.812 296.25 C-186.622 291.485 -190.848 286.343 -195 281 C-195.436 280.44 -195.872 279.881 -196.321 279.304 C-207.367 265.021 -215.417 250.071 -222.075 233.305 C-222.708 231.728 -223.359 230.158 -224.026 228.595 C-226.597 222.48 -228.277 216.426 -229.625 209.938 C-229.942 208.423 -229.942 208.423 -230.266 206.878 C-239.704 160.64 -232.101 113.633 -206 74 C-199.457 64.249 -192.158 55.429 -184 47 C-183.524 46.499 -183.049 45.997 -182.559 45.481 C-159.518 21.208 -129.28 5.179 -97 -3 C-96.109 -3.226 -95.219 -3.452 -94.301 -3.685 C-64.52 -10.844 -29.03 -9.494 0 0 Z M-123 23 C-124.092 23.5 -125.184 24 -126.309 24.516 C-141.123 31.584 -153.976 40.877 -166 52 C-166.651 52.601 -167.303 53.202 -167.974 53.821 C-178.12 63.29 -186.6 73.256 -194 85 C-194.413 85.654 -194.827 86.309 -195.252 86.983 C-216.753 121.66 -221.935 161.266 -215 201 C-214.882 201.724 -214.764 202.449 -214.643 203.195 C-211.326 222.873 -202.285 242.619 -191 259 C-190.366 259.928 -190.366 259.928 -189.72 260.875 C-184.179 268.905 -178.178 276.305 -171.469 283.383 C-169.489 285.481 -167.606 287.607 -165.75 289.812 C-162.256 293.863 -158.431 297.56 -154.625 301.312 C-134.518 321.258 -120.699 343.804 -116 372 C-102.47 372 -88.94 372 -75 372 C-73.265 354.859 -73.265 354.859 -72.734 337.773 C-72.732 335.916 -72.732 335.916 -72.729 334.02 C-72.727 331.438 -72.731 328.855 -72.739 326.272 C-72.75 322.374 -72.739 318.476 -72.727 314.578 C-72.716 296.755 -73.789 279.755 -77.25 262.25 C-77.46 261.167 -77.671 260.083 -77.887 258.967 C-80.052 248.164 -82.899 237.568 -86 227 C-86.848 226.997 -87.696 226.995 -88.57 226.992 C-99.488 226.632 -109.985 224.255 -118.188 216.5 C-123.756 210.505 -124.669 204.414 -124.469 196.484 C-123.752 191.153 -121.87 187.705 -118 184 C-111.456 179.381 -105.776 177.806 -97.812 177.812 C-96.619 177.812 -96.619 177.812 -95.401 177.811 C-88.685 177.869 -82.187 178.57 -75.551 179.562 C-71.995 180.001 -68.578 180.073 -65 180 C-64.887 178.833 -64.887 178.833 -64.772 177.643 C-64.078 170.498 -63.368 163.355 -62.635 156.215 C-62.292 152.874 -61.954 149.533 -61.628 146.19 C-61.29 142.75 -60.929 139.312 -60.562 135.875 C-60.465 134.834 -60.367 133.793 -60.266 132.721 C-59.483 125.693 -59.483 125.693 -57.129 122.316 C-55 121 -55 121 -51.375 121.062 C-48 122 -48 122 -46 125 C-45.953 128.152 -45.953 128.152 -46.25 131.938 C-46.302 132.611 -46.355 133.284 -46.408 133.977 C-46.827 138.943 -47.575 143.799 -48.457 148.699 C-50.16 159.051 -51.339 169.504 -51 180 C-42.739 180.2 -34.699 180.103 -26.5 179 C-12.864 177.231 -0.629 176.033 10.875 184.75 C15.549 189.077 17.07 194.129 17.5 200.375 C17.238 206.7 14.608 212.245 10.273 216.824 C2.004 223.58 -7.615 225.409 -18.031 226.02 C-21.225 226.724 -21.225 226.724 -22.684 229.688 C-24.745 235.715 -26.101 241.995 -27.562 248.188 C-27.866 249.439 -28.17 250.69 -28.482 251.979 C-30.307 259.617 -31.805 267.24 -33 275 C-33.171 275.995 -33.343 276.99 -33.52 278.014 C-38.468 308.764 -36.842 341.263 -33 372 C-19.14 372 -5.28 372 9 372 C9.99 366.72 10.98 361.44 12 356 C20.151 331.774 34.963 313.865 52.796 296.22 C56.104 292.937 59.242 289.574 62.25 286.016 C63.521 284.552 64.841 283.129 66.188 281.734 C79.188 268.151 89.008 251.945 97 235 C97.332 234.302 97.665 233.604 98.007 232.884 C112.165 202.313 116.059 160.432 106 128 C105.775 127.22 105.549 126.44 105.317 125.636 C97.96 100.549 84.643 78.239 66.506 59.562 C65.05 58.052 63.625 56.518 62.203 54.977 C54.095 46.347 44.808 39.585 35 33 C33.971 32.309 32.943 31.618 31.883 30.906 C-12.863 3.02 -75.645 0.853 -123 23 Z " fill="#0F2435" transform="translate(567,316)"/>
<path d="M0 0 C2.839 1.365 3.861 2.486 6 5 C6.688 8.438 6.688 8.438 6 12 C2.639 16.762 -0.665 19.256 -5.938 21.75 C-37.904 37.926 -59.047 66.347 -71.281 99.469 C-72.313 102.626 -73.188 105.78 -74 109 C-74.298 110.089 -74.596 111.179 -74.902 112.301 C-80.333 135.602 -79.001 163.685 -70 186 C-69.644 186.906 -69.644 186.906 -69.282 187.83 C-65.688 196.901 -61.465 204.819 -55.723 212.719 C-53.491 216.969 -53.534 219.253 -54 224 C-55.794 226.81 -57.019 228.509 -60 230 C-65.684 230.559 -65.684 230.559 -68 230 C-85.908 214.643 -93.603 185.198 -97 163 C-97.188 162.092 -97.376 161.185 -97.57 160.25 C-98.239 155.195 -98.148 150.156 -98.125 145.062 C-98.12 143.941 -98.115 142.819 -98.11 141.664 C-97.823 101.905 -84.205 64.448 -57 35 C-56.534 34.49 -56.067 33.98 -55.587 33.454 C-44.147 21.072 -30.793 11.948 -16 4 C-15.218 3.545 -14.435 3.09 -13.629 2.621 C-8.752 -0.107 -5.444 -0.79 0 0 Z " fill="#FEFEFD" transform="translate(465,346)"/>
<path d="M0 0 C1.27 0.162 2.539 0.325 3.848 0.492 C11.207 1.225 18.571 1.149 25.958 1.13 C28.429 1.125 30.899 1.13 33.369 1.137 C41.631 1.14 49.785 1.004 58 0 C57.448 5.041 56.292 9.191 54.375 13.875 C48.228 29.651 44.23 46.146 40.75 62.688 C40.399 64.339 40.399 64.339 40.041 66.024 C39.301 69.673 38.632 73.331 38 77 C37.799 78.137 37.799 78.137 37.594 79.297 C34.989 94.435 34.594 109.322 34.719 124.659 C34.75 128.495 34.76 132.331 34.766 136.168 C34.812 150.802 35.187 165.388 36 180 C31.38 180 26.76 180 22 180 C21.923 175.293 21.985 170.726 22.489 166.045 C23.115 159.394 23.198 152.77 23.238 146.094 C23.246 144.775 23.254 143.456 23.263 142.098 C23.278 139.311 23.288 136.524 23.295 133.737 C23.304 130.941 23.325 128.145 23.357 125.349 C23.735 91.571 17.735 59.935 8.375 27.562 C8.187 26.912 7.999 26.261 7.806 25.59 C5.695 18.319 3.43 11.162 0.721 4.09 C0 2 0 2 0 0 Z " fill="#F9D29D" transform="translate(484,508)"/>
<path d="M0 0 C1.686 -0.013 1.686 -0.013 3.406 -0.026 C7.126 -0.049 10.846 -0.042 14.567 -0.033 C17.15 -0.038 19.733 -0.044 22.316 -0.052 C27.732 -0.062 33.148 -0.058 38.564 -0.043 C44.821 -0.026 51.077 -0.042 57.333 -0.074 C63.357 -0.104 69.381 -0.106 75.405 -0.097 C77.966 -0.096 80.527 -0.103 83.088 -0.117 C86.667 -0.135 90.245 -0.12 93.824 -0.098 C94.885 -0.109 95.945 -0.121 97.038 -0.133 C101.809 -0.071 104.202 -0.034 108.135 2.848 C110.572 6.4 110.612 8.754 110.539 13.033 C110.541 14.323 110.542 15.612 110.543 16.94 C109.904 20.995 108.846 22.659 105.977 25.533 C103.592 26.726 102.105 26.672 99.442 26.694 C98.487 26.704 97.533 26.714 96.549 26.725 C95.498 26.73 94.447 26.736 93.364 26.742 C91.708 26.757 91.708 26.757 90.018 26.772 C86.352 26.802 82.686 26.823 79.02 26.842 C77.77 26.849 76.521 26.855 75.233 26.862 C69.982 26.888 64.731 26.911 59.48 26.926 C51.956 26.948 44.432 26.99 36.909 27.06 C30.98 27.113 25.051 27.133 19.122 27.142 C16.6 27.15 14.078 27.169 11.557 27.198 C8.03 27.237 4.505 27.238 0.978 27.23 C-0.59 27.26 -0.59 27.26 -2.189 27.291 C-9.046 27.222 -9.046 27.222 -11.789 25.29 C-15.309 21.335 -15.76 17.487 -15.586 12.408 C-15.597 11.706 -15.608 11.003 -15.619 10.28 C-15.575 7.218 -15.288 4.965 -13.677 2.337 C-9.407 -0.565 -5.046 -0.031 0 0 Z " fill="#FC8453" transform="translate(466.023193359375,703.466552734375)"/>
<path d="M0 0 C0.888 -0.005 1.776 -0.01 2.691 -0.015 C5.638 -0.03 8.585 -0.036 11.532 -0.042 C13.578 -0.048 15.623 -0.054 17.669 -0.059 C21.963 -0.07 26.257 -0.076 30.551 -0.079 C36.05 -0.085 41.549 -0.109 47.048 -0.137 C51.275 -0.156 55.503 -0.161 59.731 -0.162 C61.758 -0.165 63.785 -0.173 65.812 -0.187 C68.651 -0.204 71.489 -0.202 74.328 -0.195 C75.164 -0.205 75.999 -0.214 76.86 -0.223 C82.64 -0.182 86.924 0.829 91.298 4.911 C92.949 8.214 92.863 10.512 92.423 14.161 C90.296 18.188 88.636 20.466 84.423 22.161 C82.477 22.421 82.477 22.421 80.407 22.435 C79.618 22.445 78.828 22.455 78.015 22.466 C76.73 22.467 76.73 22.467 75.419 22.468 C74.51 22.476 73.6 22.484 72.663 22.493 C69.657 22.517 66.652 22.526 63.646 22.532 C61.556 22.541 59.466 22.55 57.376 22.56 C52.996 22.576 48.615 22.584 44.235 22.587 C38.621 22.592 33.008 22.63 27.394 22.675 C23.079 22.705 18.763 22.712 14.447 22.713 C12.377 22.718 10.307 22.73 8.238 22.751 C5.343 22.778 2.45 22.773 -0.444 22.76 C-1.299 22.775 -2.154 22.79 -3.034 22.805 C-7.407 22.752 -9.056 22.579 -12.585 19.749 C-15.358 16.146 -15.97 13.873 -15.937 9.267 C-15.301 5.545 -13.237 3.758 -10.577 1.161 C-7.284 -0.486 -3.621 0.005 0 0 Z " fill="#FB8251" transform="translate(475.5771484375,750.8388671875)"/>
<path d="M0 0 C3.707 0.618 4.67 1.607 7 4.5 C7.508 6.921 7.508 6.921 7.518 9.648 C7.53 10.673 7.543 11.697 7.556 12.753 C7.548 13.854 7.54 14.955 7.531 16.09 C7.535 17.227 7.539 18.363 7.543 19.534 C7.546 21.938 7.538 24.341 7.521 26.744 C7.5 30.42 7.521 34.095 7.547 37.771 C7.544 40.107 7.539 42.442 7.531 44.777 C7.539 45.876 7.547 46.976 7.556 48.108 C7.463 55.698 7.463 55.698 5.154 59.698 C3 61.5 3 61.5 0 62.062 C-3.678 61.373 -4.679 60.385 -7 57.5 C-7.508 55.034 -7.508 55.034 -7.518 52.244 C-7.53 51.196 -7.543 50.148 -7.556 49.069 C-7.548 47.943 -7.54 46.816 -7.531 45.656 C-7.535 44.495 -7.539 43.334 -7.543 42.137 C-7.546 39.683 -7.538 37.228 -7.521 34.774 C-7.5 31.014 -7.521 27.256 -7.547 23.496 C-7.544 21.112 -7.539 18.728 -7.531 16.344 C-7.539 15.218 -7.547 14.092 -7.556 12.931 C-7.543 11.883 -7.531 10.836 -7.518 9.756 C-7.514 8.835 -7.511 7.915 -7.508 6.966 C-6.615 2.63 -4.271 0.712 0 0 Z " fill="#0D2235" transform="translate(513,215.5)"/>
<path d="M0 0 C5.216 1.118 8.368 5.199 11.68 9.109 C16.158 14.266 21.013 19.021 25.875 23.812 C27.653 25.565 29.43 27.32 31.203 29.078 C31.981 29.844 32.758 30.61 33.56 31.399 C38.477 36.55 38.477 36.55 39.062 40.562 C38.625 43.562 38.625 43.562 37 45.938 C33.847 48.095 32.403 48.104 28.625 47.562 C26.204 45.679 24.254 43.917 22.16 41.719 C21.564 41.116 20.967 40.514 20.353 39.893 C18.45 37.963 16.569 36.013 14.688 34.062 C13.426 32.78 12.164 31.499 10.9 30.219 C-6.128 12.907 -6.128 12.907 -7.062 7.812 C-6.105 3.287 -4.599 1.089 0 0 Z " fill="#102435" transform="translate(336.375,287.4375)"/>
<path d="M0 0 C3.902 3.96 5.559 8.395 7.418 13.512 C7.721 14.321 8.023 15.131 8.335 15.965 C9.295 18.536 10.241 21.111 11.188 23.688 C12.147 26.273 13.109 28.858 14.072 31.443 C14.669 33.048 15.263 34.654 15.855 36.26 C17.285 40.19 17.285 40.19 19 44 C19.574 51.117 19.574 51.117 17.375 54.5 C14.257 56.469 12.623 56.679 9 56 C4.191 51.496 2.644 45.125 0.562 39.062 C-0.026 37.388 -0.026 37.388 -0.627 35.68 C-1.76 32.456 -2.881 29.228 -4 26 C-4.784 23.763 -5.571 21.528 -6.364 19.295 C-6.956 17.625 -7.541 15.953 -8.125 14.281 C-8.796 12.068 -8.796 12.068 -10 11 C-10.364 7.142 -10.56 4.84 -8.375 1.562 C-5.263 -0.485 -3.656 -0.686 0 0 Z " fill="#112536" transform="translate(423,233)"/>
<path d="M0 0 C3.337 1.401 4.59 2.062 6.125 5.312 C6.551 8.564 6.41 9.902 4.517 12.628 C3.402 13.794 3.402 13.794 2.266 14.984 C1.443 15.854 0.619 16.723 -0.229 17.619 C-1.102 18.508 -1.975 19.397 -2.875 20.312 C-3.712 21.165 -4.549 22.018 -5.412 22.896 C-7.968 25.468 -10.542 28.019 -13.125 30.562 C-19.739 36.982 -19.739 36.982 -25.859 43.859 C-27.875 46.312 -27.875 46.312 -29.875 47.312 C-35.049 47.753 -35.049 47.753 -37.75 46.312 C-39.635 42.961 -39.827 39.954 -38.875 36.312 C-36.263 32.714 -33.079 29.812 -29.812 26.812 C-28.111 25.2 -26.412 23.586 -24.715 21.969 C-23.89 21.189 -23.066 20.409 -22.216 19.605 C-18.89 16.348 -15.873 12.869 -12.875 9.312 C-5.191 0.419 -5.191 0.419 0 0 Z " fill="#102436" transform="translate(690.875,287.6875)"/>
<path d="M0 0 C3.37 0.674 4.517 1.709 6.5 4.5 C6.912 9.166 5.988 12.569 4.305 16.902 C3.839 18.116 3.373 19.33 2.893 20.581 C2.387 21.867 1.881 23.152 1.375 24.438 C0.866 25.748 0.357 27.059 -0.15 28.37 C-1.144 30.932 -2.144 33.491 -3.149 36.049 C-4.272 38.917 -5.374 41.79 -6.461 44.672 C-6.973 46.011 -7.486 47.349 -8 48.688 C-8.634 50.348 -8.634 50.348 -9.281 52.043 C-10.5 54.5 -10.5 54.5 -13.5 56.5 C-18.792 57.051 -18.792 57.051 -21.153 55.213 C-23.094 52.745 -23.069 50.424 -22.963 47.367 C-21.929 40.962 -19.184 34.98 -16.75 29 C-16.204 27.624 -15.66 26.248 -15.117 24.871 C-5.715 1.143 -5.715 1.143 0 0 Z " fill="#112536" transform="translate(606.5,232.5)"/>
<path d="M0 0 C3.007 2.057 3.84 3.332 4.688 6.875 C3.512 12.217 -1.015 14.718 -5.46 17.589 C-8.204 19.241 -10.97 20.847 -13.75 22.438 C-19.754 25.905 -25.668 29.374 -31.375 33.312 C-35.861 36.212 -38.711 37.039 -44 36 C-46.422 33.956 -46.87 32.635 -47.5 29.562 C-46.795 25.949 -44.766 24.24 -42 22 C-38.604 19.769 -35.092 17.761 -31.562 15.75 C-23.792 11.267 -16.237 6.638 -8.875 1.512 C-5.595 -0.213 -3.654 -0.437 0 0 Z " fill="#122537" transform="translate(332,594)"/>
<path d="M0 0 C3.098 1.555 5.936 3.446 8.812 5.375 C10.483 6.466 12.155 7.556 13.828 8.645 C14.678 9.201 15.528 9.757 16.404 10.331 C21.32 13.492 26.353 16.466 31.388 19.433 C32.097 19.859 32.805 20.284 33.535 20.723 C34.158 21.091 34.781 21.46 35.422 21.84 C37 23 37 23 39 26 C38.812 29.562 38.812 29.562 38 33 C34.223 35.518 32.486 35.462 28 35 C25.416 33.702 23.237 32.43 20.875 30.812 C19.485 29.901 18.095 28.991 16.703 28.082 C15.957 27.589 15.212 27.096 14.443 26.588 C8.982 23.038 3.389 19.69 -2.168 16.292 C-3.458 15.498 -3.458 15.498 -4.773 14.688 C-5.541 14.217 -6.308 13.746 -7.099 13.262 C-9 12 -9 12 -11 10 C-11.677 2.893 -11.677 2.893 -9.438 -0.062 C-5.874 -1.433 -3.727 -0.855 0 0 Z " fill="#112536" transform="translate(702,595)"/>
<path d="M0 0 C2.467 0.791 4.907 1.666 7.316 2.617 C8.307 3.004 8.307 3.004 9.317 3.398 C11.402 4.215 13.482 5.045 15.562 5.875 C16.96 6.424 18.358 6.972 19.756 7.52 C23.511 8.995 27.261 10.482 31 12 C31.957 12.384 31.957 12.384 32.933 12.776 C35.746 13.935 37.827 14.827 40 17 C40.432 20.892 40.578 23.132 38.375 26.438 C35.296 28.463 33.654 28.269 30 28 C26.923 27.054 26.923 27.054 23.676 25.734 C21.884 25.017 21.884 25.017 20.057 24.285 C18.808 23.774 17.56 23.262 16.312 22.75 C13.872 21.764 11.43 20.78 8.988 19.797 C7.812 19.319 6.636 18.842 5.424 18.35 C1.39 16.759 -2.689 15.332 -6.804 13.966 C-9.161 12.929 -10.436 12.039 -12 10 C-12.494 6.115 -12.533 3.888 -10.5 0.5 C-6.938 -1.637 -3.898 -0.792 0 0 Z " fill="#112538" transform="translate(281,391)"/>
<path d="M0 0 C0.908 0.016 1.815 0.032 2.75 0.048 C5.773 0.12 8.791 0.24 11.812 0.375 C12.918 0.424 14.024 0.474 15.163 0.524 C18.549 0.694 21.93 0.901 25.312 1.125 C26.914 1.217 26.914 1.217 28.548 1.311 C33.024 1.658 36.098 1.962 40.027 4.23 C41.812 6.375 41.812 6.375 41.875 9.938 C40.695 13.757 40.203 14.477 36.812 16.375 C33.944 16.692 33.944 16.692 30.602 16.605 C29.358 16.578 28.114 16.55 26.833 16.521 C25.493 16.473 24.153 16.425 22.812 16.375 C21.454 16.335 20.096 16.296 18.737 16.256 C15.257 16.145 11.781 15.982 8.304 15.795 C6.876 15.723 5.447 15.66 4.017 15.607 C1.913 15.528 -0.187 15.418 -2.289 15.301 C-3.52 15.243 -4.75 15.186 -6.018 15.126 C-9.188 14.375 -9.188 14.375 -11.587 11.977 C-13.397 9.034 -13.881 7.753 -13.188 4.375 C-9.698 -0.724 -5.636 -0.169 0 0 Z " fill="#102638" transform="translate(732.1875,499.625)"/>
<path d="M0 0 C1.793 3.088 1.553 5.449 1.125 8.938 C-2.056 13.125 -6.137 14.552 -10.895 16.355 C-11.671 16.658 -12.448 16.961 -13.248 17.273 C-14.888 17.909 -16.53 18.54 -18.173 19.166 C-20.674 20.12 -23.166 21.093 -25.658 22.068 C-27.257 22.686 -28.857 23.303 -30.457 23.918 C-31.196 24.206 -31.935 24.495 -32.696 24.792 C-43.468 28.863 -43.468 28.863 -48.312 27 C-50.275 24.41 -50.399 22.173 -50.504 18.973 C-49.525 15.805 -47.57 14.824 -44.875 12.938 C-42.147 11.613 -39.343 10.545 -36.504 9.484 C-35.704 9.179 -34.904 8.874 -34.08 8.56 C-32.395 7.92 -30.708 7.285 -29.019 6.654 C-26.444 5.69 -23.877 4.705 -21.311 3.719 C-19.667 3.098 -18.023 2.478 -16.379 1.859 C-15.616 1.566 -14.854 1.272 -14.068 0.969 C-4.514 -2.558 -4.514 -2.558 0 0 Z " fill="#142739" transform="translate(755.875,391.0625)"/>
<path d="M0 0 C1.061 -0.037 2.122 -0.073 3.215 -0.111 C4.124 -0.151 5.034 -0.191 5.971 -0.231 C9.227 0.334 10.395 1.59 12.371 4.186 C12.371 7.748 12.371 7.748 11.371 11.186 C8.466 13.969 6.209 14.614 2.25 14.916 C1.241 14.997 0.233 15.078 -0.806 15.161 C-1.882 15.231 -2.958 15.301 -4.066 15.373 C-5.723 15.49 -5.723 15.49 -7.413 15.61 C-14.772 16.094 -22.129 16.413 -29.504 16.498 C-30.822 16.525 -30.822 16.525 -32.166 16.552 C-32.976 16.551 -33.786 16.55 -34.621 16.549 C-35.326 16.552 -36.031 16.555 -36.757 16.558 C-39.239 16.064 -40.118 15.188 -41.629 13.186 C-42.11 9.403 -42.336 7.166 -40.064 4.015 C-36.871 1.617 -34.078 1.487 -30.223 1.357 C-29.142 1.299 -29.142 1.299 -28.039 1.24 C-25.736 1.121 -23.433 1.028 -21.129 0.936 C-19.611 0.859 -18.092 0.781 -16.574 0.701 C-12.927 0.516 -9.281 0.374 -5.631 0.257 C-3.753 0.19 -1.877 0.096 0 0 Z " fill="#0F2437" transform="translate(294.62890625,499.814453125)"/>
<path d="M0 0 C7.768 -0.67 7.768 -0.67 11.5 2 C14.303 5.364 14.816 6.837 14.441 11.078 C13.69 14.349 12.523 15.785 10 18 C4.496 21.201 -0.69 22.541 -7 23 C-5.771 14.872 -3.115 7.585 0 0 Z " fill="#F5CE98" transform="translate(557,507)"/>
<path d="M0 0 C2.051 0.033 4.102 0.065 6.152 0.098 C13.152 17.118 13.152 17.118 13.152 23.098 C4.869 22.887 -0.432 20.428 -6.348 14.66 C-8.24 11.427 -8.539 9.784 -7.848 6.098 C-5.41 3.285 -5.41 3.285 -2.848 1.098 C-1.848 0.098 -1.848 0.098 0 0 Z " fill="#F8D198" transform="translate(462.84765625,506.90234375)"/>
<path d="M0 0 C3.709 0.618 4.675 1.6 7 4.5 C7.481 6.955 7.481 6.955 7.454 9.728 C7.454 10.768 7.453 11.809 7.453 12.881 C7.433 13.998 7.412 15.115 7.391 16.266 C7.385 17.414 7.379 18.563 7.373 19.746 C7.351 23.414 7.301 27.082 7.25 30.75 C7.23 33.237 7.212 35.724 7.195 38.211 C7.151 44.308 7.084 50.404 7 56.5 C6.67 56.5 6.34 56.5 6 56.5 C5.994 55.866 5.988 55.231 5.982 54.577 C5.918 47.991 5.834 41.406 5.738 34.82 C5.704 32.36 5.676 29.9 5.654 27.44 C5.62 23.91 5.568 20.381 5.512 16.852 C5.505 15.746 5.499 14.641 5.492 13.502 C5.473 12.481 5.453 11.461 5.432 10.409 C5.421 9.507 5.41 8.606 5.399 7.677 C5.267 6.958 5.136 6.24 5 5.5 C1.776 3.351 0.733 3.117 -3 3.5 C-5.54 6.04 -5.268 6.977 -5.319 10.5 C-5.339 11.541 -5.359 12.582 -5.379 13.655 C-5.396 15.345 -5.396 15.345 -5.414 17.07 C-5.433 18.222 -5.453 19.373 -5.473 20.559 C-5.533 24.248 -5.579 27.936 -5.625 31.625 C-5.663 34.121 -5.702 36.617 -5.742 39.113 C-5.838 45.242 -5.923 51.371 -6 57.5 C-6.33 57.5 -6.66 57.5 -7 57.5 C-7.101 50.025 -7.171 42.551 -7.22 35.076 C-7.24 32.532 -7.267 29.989 -7.302 27.446 C-7.35 23.792 -7.373 20.139 -7.391 16.484 C-7.411 15.346 -7.432 14.207 -7.453 13.034 C-7.453 11.973 -7.454 10.912 -7.454 9.819 C-7.463 8.887 -7.472 7.954 -7.481 6.993 C-6.639 2.627 -4.285 0.714 0 0 Z " fill="#1B2733" transform="translate(513,215.5)"/>
<path d="M0 0 C2.062 0.438 2.062 0.438 4 1 C2.88 2.006 1.754 3.005 0.625 4 C-0.001 4.557 -0.628 5.114 -1.273 5.688 C-3 7 -3 7 -5 7 C-5 8.65 -5 10.3 -5 12 C-5.33 12 -5.66 12 -6 12 C-6.312 9.312 -6.312 9.312 -6 6 C-3.562 3.188 -3.562 3.188 -1 1 C-0.67 0.67 -0.34 0.34 0 0 Z " fill="#E6C898" transform="translate(461,507)"/>
<path d="M0 0 C0.66 0.33 1.32 0.66 2 1 C-1.3 3.97 -4.6 6.94 -8 10 C-8.66 9.67 -9.32 9.34 -10 9 C-7.125 5.019 -4.179 2.564 0 0 Z " fill="#27303E" transform="translate(455,495)"/>
<path d="M0 0 C-2.881 2.401 -5.564 4.473 -9 6 C-7.013 0.464 -5.823 -0.153 0 0 Z " fill="#27303E" transform="translate(278,390)"/>
</svg>