<svg version="1.1" xmlns="http://www.w3.org/2000/svg" width="1024" height="1024">
<path d="M0 0 C337.92 0 675.84 0 1024 0 C1024 337.92 1024 675.84 1024 1024 C686.08 1024 348.16 1024 0 1024 C0 686.08 0 348.16 0 0 Z " fill="#FEFEFE" transform="translate(0,0)"/>
<path d="M0 0 C3.66 1.279 6.097 2.701 8.891 5.379 C9.596 6.049 10.302 6.719 11.029 7.41 C11.762 8.12 12.495 8.831 13.25 9.562 C14.003 10.283 14.757 11.004 15.533 11.747 C17.697 13.822 19.851 15.909 22 18 C22.545 18.528 23.089 19.056 23.65 19.6 C31.944 27.664 31.944 27.664 32.126 31.987 C32.131 33.25 32.136 34.514 32.141 35.816 C32.155 37.227 32.171 38.638 32.189 40.049 C32.198 40.787 32.207 41.525 32.216 42.285 C32.407 55.176 33.058 66.941 38 79 C38.367 79.949 38.735 80.897 39.113 81.875 C39.757 83.505 40.416 85.128 41.098 86.742 C42.345 89.864 43.277 93.052 44.191 96.285 C46.094 102.674 48.323 108.957 50.549 115.239 C53.568 123.771 56.475 132.306 59 141 C59.231 141.776 59.462 142.553 59.701 143.353 C63.905 157.518 67.468 171.8 70.812 186.188 C71.007 187.017 71.202 187.847 71.402 188.702 C73.555 197.908 75.456 207.012 76.612 216.404 C76.859 218.977 76.859 218.977 78 221 C78.415 209.907 77.115 199.127 74.375 188.375 C69.943 169.422 77.941 156.08 87 140 C93.273 151.444 91.623 167.364 92 180 C92.398 178.72 92.398 178.72 92.803 177.415 C101.231 150.573 111.574 125.269 126 101 C126.554 100.054 127.109 99.108 127.68 98.133 C129.374 95.359 131.16 92.68 133 90 C133.447 89.34 133.895 88.68 134.355 88 C150.766 64 173.408 39.45 202.688 32 C214.824 29.868 230.049 28.388 241 35 C238.179 37.821 234.795 38.456 231.062 39.562 C229.616 40.001 228.169 40.44 226.723 40.879 C225.494 41.249 224.266 41.619 223 42 C221.515 42.495 221.515 42.495 220 43 C221.98 43.99 223.96 44.98 226 46 C226 46.66 226 47.32 226 48 C223.646 49.106 221.292 50.209 218.938 51.312 C218.281 51.621 217.624 51.93 216.947 52.248 C212.665 54.252 208.355 56.16 204 58 C205.65 59.65 207.3 61.3 209 63 C205.106 65.596 201.824 65.294 197.312 65.25 C196.535 65.258 195.757 65.265 194.955 65.273 C188.467 65.252 182.523 64.682 177 61 C178.494 56.56 181.944 54.804 185.75 52.5 C186.974 51.74 188.198 50.98 189.422 50.219 C190.314 49.67 190.314 49.67 191.225 49.109 C193.857 47.465 196.427 45.736 199 44 C181.314 52.17 165.295 65.603 156 83 C157.597 82.892 157.597 82.892 159.227 82.781 C168.505 82.179 177.699 81.867 187 82 C184.999 86.492 182.31 87.845 178 90 C176.035 89.966 174.071 89.871 172.109 89.746 C170.925 89.698 169.74 89.649 168.52 89.6 C166.02 89.492 163.522 89.349 161.027 89.17 C157.428 89.059 154.48 89.06 151 90 C148.099 92.992 146.481 96.128 145 100 C146.129 99.691 147.258 99.381 148.422 99.062 C153.778 97.722 159.154 97.273 164.641 96.789 C168.608 96.4 171.45 95.893 175 94 C175.99 94.33 176.98 94.66 178 95 C171.439 103.436 163.397 106.258 153 108 C148.332 108.399 143.673 108.259 139 108 C138.67 109.65 138.34 111.3 138 113 C138.663 112.704 139.325 112.407 140.008 112.102 C143.571 110.79 147.153 110.057 150.875 109.375 C151.557 109.241 152.239 109.107 152.941 108.969 C157.368 108.143 161.498 107.871 166 108 C162.894 111.553 160.03 113.06 155.625 114.688 C154.524 115.104 153.423 115.52 152.289 115.949 C147.542 117.466 143.099 118.138 138.125 118.062 C136.953 118.049 136.953 118.049 135.758 118.035 C135.178 118.024 134.598 118.012 134 118 C133.693 118.94 133.693 118.94 133.379 119.898 C132.975 121.124 132.975 121.124 132.562 122.375 C132.296 123.187 132.029 123.999 131.754 124.836 C131 127 131 127 130 129 C130.528 128.743 131.057 128.486 131.601 128.221 C134.044 127.038 136.491 125.863 138.938 124.688 C139.768 124.283 140.599 123.879 141.455 123.463 C154.959 117 154.959 117 161 117 C160.134 122.424 156.231 124.893 152 128 C147.606 130.667 143.013 132.668 138.168 134.359 C137.5 134.601 136.833 134.843 136.145 135.092 C134.832 135.56 133.509 136.004 132.177 136.418 C128.125 137.867 126.426 139.469 124.555 143.199 C124.014 144.457 123.488 145.721 123 147 C126.251 145.543 129.5 144.084 132.75 142.625 C133.67 142.212 134.591 141.8 135.539 141.375 C136.429 140.975 137.318 140.576 138.234 140.164 C139.051 139.797 139.868 139.431 140.71 139.053 C142.198 138.369 143.668 137.641 145.11 136.865 C147 136 147 136 150 136 C147.295 143.807 141.508 147.873 134.25 151.41 C131.673 152.624 129.087 153.802 126.477 154.942 C125.671 155.298 124.865 155.653 124.035 156.02 C123.307 156.33 122.579 156.64 121.828 156.96 C119.672 158.005 119.672 158.005 118 161 C118 161.99 118 162.98 118 164 C118.496 163.674 118.993 163.348 119.504 163.012 C131.008 155.612 131.008 155.612 135.203 156.43 C135.796 156.618 136.389 156.806 137 157 C132.437 162.264 127.706 165.472 121.531 168.652 C118.02 170.522 114.81 172.379 113 176 C113.519 175.59 114.039 175.18 114.574 174.758 C118.242 171.924 121.514 169.402 126 168 C125.373 171.486 124.003 173.707 121.938 176.562 C121.31 177.449 120.682 178.336 120.035 179.25 C118.714 181.035 117.348 182.788 115.934 184.5 C109.295 192.764 105 203.27 105 214 C105.874 212.654 105.874 212.654 106.766 211.281 C123.35 185.954 142.214 161.784 167 144 C167.668 143.52 168.337 143.039 169.025 142.544 C186.997 129.788 205.75 119.985 227 114 C228.222 113.64 229.444 113.281 230.703 112.91 C254.884 106.92 279.822 110.517 301.109 123.086 C304.906 125.6 308.147 128.444 311 132 C311 132.33 311 132.66 311 133 C304.133 133.099 297.402 132.73 290.562 132.125 C289.59 132.046 288.617 131.968 287.615 131.887 C281.3 131.338 275.187 130.382 269 129 C269.527 129.499 270.055 129.997 270.598 130.511 C276.366 135.964 276.366 135.964 277 140 C273.436 139.404 270.489 138.451 267.234 136.891 C265.898 136.253 265.898 136.253 264.535 135.602 C263.616 135.156 262.697 134.71 261.75 134.25 C260.395 133.604 260.395 133.604 259.012 132.945 C253.222 130.163 247.577 127.187 242 124 C242 123.34 242 122.68 242 122 C242.855 121.939 243.709 121.879 244.59 121.816 C245.695 121.733 246.799 121.649 247.938 121.562 C249.04 121.481 250.142 121.4 251.277 121.316 C253.911 121.296 253.911 121.296 255 120 C231.297 118.815 201.344 132.83 182 146 C182.981 146.147 183.962 146.294 184.973 146.445 C196.53 148.315 208.201 151.272 218 158 C219.312 160.687 219.312 160.687 220 163 C213.545 163.236 208.338 162.583 202.188 160.688 C200.615 160.224 199.042 159.762 197.469 159.301 C196.709 159.076 195.95 158.851 195.168 158.62 C191.309 157.517 187.397 156.644 183.48 155.773 C180.678 154.9 178.492 153.532 176 152 C173.238 152 172.107 153.314 170 155 C170.762 155.208 171.524 155.415 172.309 155.629 C179.943 157.907 188.134 160.882 192.242 168.219 C192.492 168.807 192.742 169.394 193 170 C186.111 170.5 181.47 168.918 175.25 166.062 C173.59 165.322 171.928 164.583 170.266 163.848 C169.541 163.518 168.817 163.188 168.071 162.848 C166.039 162.016 164.167 161.364 162 161 C160.216 162.179 160.216 162.179 158.75 163.938 C158.229 164.503 157.708 165.069 157.172 165.652 C156.592 166.319 156.592 166.319 156 167 C157.299 167.082 158.599 167.165 159.938 167.25 C167.441 168.088 174.056 171.427 180 176 C180 176.66 180 177.32 180 178 C178.92 178.045 177.84 178.09 176.727 178.136 C172.727 178.306 168.728 178.495 164.729 178.69 C162.997 178.771 161.264 178.848 159.532 178.919 C157.044 179.022 154.557 179.144 152.07 179.27 C151.293 179.298 150.516 179.326 149.715 179.355 C147.298 179.455 147.298 179.455 144 180 C143.34 180.99 142.68 181.98 142 183 C146.29 183 150.58 183 155 183 C153.832 186.503 153.336 186.657 150.211 188.305 C149.434 188.724 148.656 189.143 147.855 189.574 C146.628 190.218 146.628 190.218 145.375 190.875 C135.367 195.492 135.367 195.492 128 203 C128.99 203 129.98 203 131 203 C129.467 206.71 127.217 208.894 124.312 211.625 C115.644 220.084 115.644 220.084 111 231 C111.378 230.599 111.755 230.198 112.145 229.785 C117.384 224.374 123.051 219.609 129 215 C129.633 214.507 130.266 214.014 130.918 213.506 C164.526 187.591 203.099 175.185 245.62 179.25 C249.836 179.852 253.906 180.845 258 182 C258.96 182.228 259.921 182.456 260.91 182.691 C277.886 186.87 294.084 195.26 307 207 C307.655 207.574 308.31 208.147 308.984 208.738 C315.858 215.11 323.572 225.29 324.188 234.938 C324.095 235.958 324.095 235.958 324 237 C319.662 235.543 316.405 233.204 312.875 230.375 C311.73 229.475 310.584 228.577 309.438 227.68 C308.865 227.231 308.293 226.782 307.703 226.319 C302.604 222.369 297.366 218.578 292 215 C292.33 215.99 292.66 216.98 293 218 C293.068 219.728 293.085 221.458 293.062 223.188 C293.053 224.089 293.044 224.99 293.035 225.918 C293.018 226.949 293.018 226.949 293 228 C288.961 226.654 288.138 224.122 286.25 220.562 C283.286 215.14 280.097 210.112 276.348 205.184 C274.86 202.773 274.387 200.788 274 198 C272.997 197.876 271.994 197.752 270.961 197.625 C265.815 196.89 260.904 195.366 255.914 193.938 C223.407 185.578 186.327 194.388 157 209 C158.158 209.545 159.315 210.091 160.508 210.652 C175.21 217.829 175.21 217.829 179.285 224.859 C180.114 227.341 180.141 229.4 180 232 C176.965 230.579 174.34 228.897 171.625 226.938 C169.752 225.621 167.877 224.309 166 223 C165.423 222.597 164.845 222.193 164.25 221.778 C162.407 220.502 160.549 219.249 158.688 218 C158.101 217.59 157.515 217.18 156.911 216.758 C154.247 214.995 152.505 213.988 149.27 214.062 C146.889 215.046 145.629 216.028 144 218 C144.675 218.519 145.351 219.039 146.047 219.574 C146.939 220.272 147.831 220.969 148.75 221.688 C149.632 222.372 150.513 223.056 151.422 223.762 C154.023 226.02 156.074 228.143 158 231 C158 232.32 158 233.64 158 235 C152.854 234.51 149.341 231.896 145.188 229.062 C144.495 228.607 143.802 228.151 143.088 227.682 C141.351 226.513 139.67 225.262 138 224 C138 223.34 138 222.68 138 222 C134.878 223.309 134.878 223.309 133 226 C133.87 226.258 134.74 226.516 135.637 226.781 C139.051 228.018 141.767 229.534 144.812 231.5 C145.768 232.108 146.723 232.717 147.707 233.344 C150 235 150 235 151 237 C147.645 238.678 144.598 238.728 141 238 C137.774 236.313 134.766 234.448 131.734 232.434 C129.184 230.804 129.184 230.804 126.766 231.098 C124.648 231.998 124.648 231.998 123 235 C124.98 236.65 126.96 238.3 129 240 C128.67 240.99 128.34 241.98 128 243 C126.604 243.027 125.208 243.047 123.812 243.062 C123.035 243.074 122.258 243.086 121.457 243.098 C118.879 242.995 116.513 242.567 114 242 C109.083 247.339 104.877 252.865 101 259 C101.704 258.648 102.408 258.296 103.133 257.934 C105.239 256.881 107.345 255.83 109.453 254.781 C111.784 253.61 114.108 252.423 116.422 251.219 C124.403 247.102 132.39 243.604 141 241 C141.72 240.77 142.439 240.54 143.181 240.303 C178.284 229.425 216.124 235.517 248.312 251.858 C259.291 257.667 269.615 264.877 279 273 C279.529 273.457 280.059 273.914 280.604 274.385 C301.127 292.274 320.946 318.382 323.195 346.437 C323.592 354.98 323.345 362.746 321 371 C320.34 371 319.68 371 319 371 C318.515 369.935 318.031 368.87 317.531 367.773 C312.309 356.422 306.444 345.706 300 335 C298.68 338.3 297.36 341.6 296 345 C295.34 345 294.68 345 294 345 C292.523 342.046 292.87 339.387 292.867 336.094 C292.866 335.073 292.866 335.073 292.864 334.032 C292.864 332.593 292.865 331.153 292.87 329.714 C292.875 327.509 292.87 325.303 292.863 323.098 C292.864 321.701 292.865 320.303 292.867 318.906 C292.868 317.631 292.869 316.355 292.871 315.041 C293 312 293 312 294 310 C298.632 311.509 300.354 315.184 302.75 319.125 C303.161 319.784 303.572 320.442 303.996 321.121 C305.006 322.742 306.004 324.37 307 326 C302.355 315.913 297.544 307.274 290 299 C289.088 297.97 288.176 296.938 287.266 295.906 C274.074 281.091 259.069 270.104 241 262 C240.38 261.722 239.76 261.443 239.122 261.157 C224.6 254.759 209.07 249.827 193.121 249.867 C192.273 249.866 191.424 249.865 190.55 249.864 C188.757 249.864 186.964 249.865 185.172 249.87 C182.47 249.875 179.77 249.87 177.068 249.863 C158.993 249.612 158.993 249.612 141.375 253.062 C135.238 255 135.238 255 132 255 C132 255.66 132 256.32 132 257 C132.593 257.075 133.186 257.15 133.797 257.227 C136.772 258.271 137.566 259.747 139.25 262.375 C139.771 263.166 140.292 263.958 140.828 264.773 C142 267 142 267 142 270 C139.844 270.348 139.844 270.348 137 270 C134.474 267.732 132.317 265.384 130.105 262.822 C128.578 261.092 128.578 261.092 126 259 C123.33 258.947 123.33 258.947 121 260 C120.072 260.351 119.144 260.701 118.188 261.062 C117.105 261.527 117.105 261.527 116 262 C117.207 263.176 117.207 263.176 118.438 264.375 C121 267 121 267 122 269 C118.7 269.33 115.4 269.66 112 270 C112 270.66 112 271.32 112 272 C112.638 272.015 113.276 272.029 113.933 272.044 C127.217 272.382 140.019 273.089 153 276 C154.235 276.266 155.47 276.531 156.742 276.805 C195.12 285.973 225.053 313.083 245.418 345.848 C259.645 369.492 268.577 398.506 262.312 426 C260.744 432.256 258.875 438.753 255 444 C254.01 444.33 253.02 444.66 252 445 C251.67 431.8 251.34 418.6 251 405 C250.34 405 249.68 405 249 405 C248.938 405.825 248.876 406.65 248.812 407.5 C247.778 411.955 245.737 415.357 243 419 C242.67 419 242.34 419 242 419 C242.005 418.082 242.01 417.164 242.016 416.218 C242.033 412.804 242.045 409.389 242.055 405.975 C242.06 404.499 242.067 403.023 242.075 401.546 C242.088 399.422 242.093 397.297 242.098 395.172 C242.103 393.894 242.108 392.616 242.114 391.3 C242.021 388.61 241.743 386.549 241 384 C240.883 382.002 240.825 380.001 240.812 378 C240.798 376.969 240.784 375.938 240.77 374.875 C240.997 372.035 241.535 370.409 243 368 C245.91 370.501 247.168 373.197 248.688 376.688 C249.124 377.681 249.561 378.675 250.012 379.699 C250.338 380.458 250.664 381.218 251 382 C242.779 358.541 226.791 325.896 203 314 C203.058 315.293 203.116 316.586 203.176 317.918 C203.504 328.513 203.445 337.546 198 347 C197.34 347.33 196.68 347.66 196 348 C196.005 346.996 196.01 345.992 196.016 344.958 C196.034 341.222 196.045 337.485 196.055 333.748 C196.06 332.133 196.067 330.518 196.075 328.904 C196.088 326.578 196.093 324.252 196.098 321.926 C196.105 320.849 196.105 320.849 196.113 319.75 C196.114 316.037 195.889 312.61 195 309 C194.34 309 193.68 309 193 309 C193.046 309.606 193.093 310.212 193.141 310.836 C193.45 318.02 192.406 325.285 187.363 330.785 C186.913 331.186 186.464 331.587 186 332 C185.892 321.934 186.023 312.029 187 302 C184.03 301.01 181.06 300.02 178 299 C178.082 300.423 178.165 301.846 178.25 303.312 C178.259 309.269 176.849 314.75 174 320 C173.01 320.33 172.02 320.66 171 321 C170.67 312.42 170.34 303.84 170 295 C168.35 294.34 166.7 293.68 165 293 C165.093 294.268 165.093 294.268 165.188 295.562 C164.96 299.736 163.798 302.254 162 306 C161.34 306 160.68 306 160 306 C159.34 300.72 158.68 295.44 158 290 C156.02 289.67 154.04 289.34 152 289 C151.918 289.743 151.835 290.485 151.75 291.25 C150.856 294.528 149.441 295.716 147 298 C146.723 296.735 146.723 296.735 146.441 295.445 C145.08 289.271 145.08 289.271 141.082 284.793 C138.686 284.271 136.451 284.087 134 284 C132.145 283.796 130.291 283.588 128.438 283.375 C126.959 283.244 125.48 283.117 124 283 C124.681 283.681 125.361 284.361 126.062 285.062 C126.525 285.529 126.988 285.996 127.465 286.477 C128.462 287.466 129.475 288.441 130.504 289.398 C136.22 294.825 140.927 301.036 145.694 307.288 C146.843 308.795 148.005 310.293 149.168 311.789 C170.434 339.888 181.807 375.173 177.535 410.441 C175.466 424.167 170.1 440.883 159 450 C158.34 450 157.68 450 157 450 C155.84 442.359 155.668 434.717 155.438 427 C155.394 425.639 155.351 424.279 155.307 422.918 C155.201 419.612 155.099 416.306 155 413 C153.68 414.98 152.36 416.96 151 419 C148.428 416.428 148.631 415.137 148.367 411.555 C148.242 409.94 148.242 409.94 148.113 408.293 C148.035 407.165 147.956 406.037 147.875 404.875 C147.789 403.739 147.702 402.604 147.613 401.434 C147.401 398.623 147.197 395.812 147 393 C145.68 395.64 144.36 398.28 143 401 C141 400 141 400 140.395 398.194 C140.013 396.074 139.798 394.041 139.684 391.891 C139.642 391.137 139.6 390.382 139.557 389.605 C139.498 388.44 139.498 388.44 139.438 387.25 C139.394 386.457 139.351 385.664 139.307 384.848 C139.201 382.899 139.1 380.949 139 379 C138.01 380.98 137.02 382.96 136 385 C135.34 385 134.68 385 134 385 C133.01 375.43 132.02 365.86 131 356 C129.35 358.97 127.7 361.94 126 365 C124.084 362.127 123.708 361.225 123.367 357.988 C123.242 356.852 123.242 356.852 123.113 355.693 C123.035 354.908 122.956 354.122 122.875 353.312 C122.789 352.515 122.702 351.718 122.613 350.896 C122.402 348.932 122.2 346.966 122 345 C120.68 346.32 119.36 347.64 118 349 C116.254 340.692 115.47 332.471 115 324 C114.599 324.398 114.198 324.797 113.785 325.207 C113.217 325.737 112.648 326.267 112.062 326.812 C111.517 327.335 110.972 327.857 110.41 328.395 C108.027 329.982 106.058 330.729 103.349 331.6 C102.129 331.996 102.129 331.996 100.884 332.4 C100.262 332.598 99.641 332.796 99 333 C99.007 333.717 99.013 334.435 99.02 335.174 C99.082 342.138 99.127 349.101 99.155 356.065 C99.171 359.64 99.191 363.215 99.226 366.79 C99.381 382.925 98.978 398.822 97.508 414.895 C95.435 437.797 95.585 460.687 95.677 483.666 C95.691 488.211 95.686 492.756 95.681 497.301 C95.655 528.142 96.245 558.465 101 589 C101.175 590.187 101.351 591.374 101.531 592.598 C102.435 598.436 103.697 604.112 105.219 609.82 C106.291 614.185 107.143 618.588 108 623 C109.015 623.015 110.03 623.029 111.076 623.044 C176.585 624.056 176.585 624.056 190 633 C190 633.99 190 634.98 190 636 C176.803 643.266 159.37 642.834 144.659 643.766 C142.214 643.922 139.769 644.086 137.325 644.256 C126.207 645.003 115.133 645.147 103.992 645.133 C102.128 645.133 100.263 645.134 98.398 645.136 C94.528 645.137 90.657 645.135 86.786 645.13 C81.838 645.125 76.89 645.128 71.942 645.134 C68.107 645.138 64.272 645.136 60.438 645.134 C58.612 645.133 56.787 645.134 54.962 645.136 C52.417 645.139 49.873 645.135 47.328 645.129 C46.585 645.131 45.842 645.133 45.076 645.136 C40.63 645.118 36.387 644.704 32 644 C30.623 643.912 29.243 643.849 27.863 643.824 C19.075 643.57 10.631 642.795 2 641.062 C1.146 640.893 0.292 640.723 -0.589 640.548 C-4.356 639.747 -6.736 639.176 -10 637 C-9.938 635.188 -9.938 635.188 -9 633 C-4.018 630.484 0.698 629.274 6.188 628.438 C6.955 628.315 7.722 628.193 8.513 628.067 C19.922 626.317 31.45 624.926 43 625 C42.976 623.31 42.976 623.31 42.952 621.587 C42.468 583.123 43.667 544.666 48.258 506.445 C48.902 501.07 49.392 495.69 49.851 490.295 C51.173 474.794 53.188 459.568 55.797 444.23 C57.084 436.65 58.136 429.047 59.1 421.419 C59.901 415.198 59.901 415.198 61 413 C61.411 410.696 61.777 408.385 62.121 406.07 C62.225 405.373 62.33 404.675 62.437 403.956 C62.775 401.68 63.107 399.403 63.438 397.125 C63.55 396.349 63.663 395.573 63.78 394.773 C66.721 374.495 68.378 354.492 69 334 C68.072 333.705 67.144 333.41 66.188 333.105 C59.389 330.748 55.348 326.489 51 321 C50.89 322.146 50.781 323.292 50.668 324.473 C50.508 326.003 50.348 327.533 50.188 329.062 C50.117 329.815 50.047 330.567 49.975 331.342 C49.425 336.424 48.231 340.397 46 345 C41.786 339.829 40.561 334.348 39 328 C38.925 329.038 38.85 330.076 38.772 331.146 C38.487 335.042 38.187 338.937 37.883 342.832 C37.754 344.509 37.629 346.187 37.508 347.865 C36.214 365.747 36.214 365.747 33 374 C32.01 374 31.02 374 30 374 C28.103 369.963 27.703 366.61 27.586 362.168 C27.547 360.876 27.509 359.583 27.469 358.252 C27.437 356.897 27.406 355.542 27.375 354.188 C27.337 352.813 27.298 351.439 27.258 350.064 C27.164 346.71 27.078 343.355 27 340 C24.903 343.145 24.679 344.283 24.402 347.926 C24.284 349.442 24.284 349.442 24.164 350.989 C24.089 352.086 24.014 353.182 23.938 354.312 C23.855 355.443 23.773 356.573 23.688 357.738 C22.743 371.476 22.353 385.236 22 399 C21.34 399 20.68 399 20 399 C15.839 390.091 15.504 382.014 15.75 372.312 C15.77 370.917 15.788 369.522 15.805 368.127 C15.851 364.751 15.917 361.376 16 358 C15.34 358 14.68 358 14 358 C13.918 358.66 13.835 359.32 13.75 360 C12.752 363.99 10.928 367.385 9 371 C9.66 371 10.32 371 11 371 C14.09 382.672 15.174 394.385 15.25 406.438 C15.264 407.672 15.264 407.672 15.278 408.931 C15.247 414.753 15.247 414.753 13 417 C12.518 415.438 12.039 413.876 11.562 412.312 C11.296 411.442 11.029 410.572 10.754 409.676 C10.042 407.15 9.515 404.574 9 402 C9 412.89 9 423.78 9 435 C5.178 432.452 5.049 430.723 3.812 426.375 C3.468 425.186 3.124 423.998 2.77 422.773 C2.516 421.858 2.262 420.943 2 420 C1.944 421.974 1.944 421.974 1.887 423.988 C1.311 440.505 1.311 440.505 -1.168 448.125 C-2.317 452.096 -2.993 456.116 -3.688 460.188 C-3.884 461.34 -3.884 461.34 -4.085 462.516 C-4.394 464.344 -4.698 466.172 -5 468 C-5.66 468 -6.32 468 -7 468 C-7.783 466.255 -8.55 464.504 -9.312 462.75 C-9.742 461.775 -10.171 460.801 -10.613 459.797 C-14.336 450.194 -15.529 440.875 -15.438 430.625 C-15.429 429.405 -15.421 428.186 -15.412 426.929 C-14.689 387.52 3 348.292 29 319 C29.703 318.189 30.405 317.378 31.129 316.543 C37.124 309.733 43.543 303.366 50 297 C50.66 296.34 51.32 295.68 52 295 C51.67 295 51.34 295 51 295 C50.329 287.754 52.419 283.242 56 277 C52.275 279.069 49.396 281.347 46.383 284.352 C45.528 285.204 44.674 286.056 43.793 286.934 C42.913 287.822 42.032 288.71 41.125 289.625 C40.252 290.49 39.38 291.355 38.48 292.246 C33.689 297.052 29.301 301.931 25.273 307.396 C24.853 307.925 24.433 308.455 24 309 C23.67 309 23.34 309 23 309 C21.819 300.567 26.065 294.147 30 287 C21.638 295.649 15.476 305.864 11 317 C10.419 318.355 9.836 319.709 9.25 321.062 C8.837 322.032 8.425 323.001 8 324 C5.616 321.616 5.67 321.015 5.602 317.746 C5.744 310.781 8.077 304.573 10.375 298.062 C10.788 296.845 11.2 295.627 11.625 294.373 C14.679 285.481 14.679 285.481 17 282 C-1.928 285.042 -20.83 296.72 -36 308 C-36.877 308.651 -37.753 309.302 -38.656 309.973 C-61.17 327.57 -80.783 351.623 -90 379 C-88.842 377.947 -88.842 377.947 -88 376 C-87.01 376.33 -86.02 376.66 -85 377 C-84.83 376.131 -84.66 375.262 -84.484 374.367 C-82.077 362.921 -82.077 362.921 -78 358 C-76 360 -76 360 -75.77 363.445 C-75.772 365.005 -75.787 366.565 -75.812 368.125 C-75.82 368.975 -75.828 369.825 -75.836 370.701 C-75.875 373.801 -75.936 376.9 -76 380 C-76.025 381.344 -76.05 382.687 -76.075 384.031 C-76.144 387.649 -76.228 391.267 -76.32 394.885 C-76.357 396.335 -76.39 397.786 -76.421 399.236 C-76.466 401.295 -76.524 403.352 -76.586 405.41 C-76.633 407.207 -76.633 407.207 -76.681 409.039 C-77 412 -77 412 -79 415 C-82.106 408.048 -83.842 401.528 -85 394 C-85.66 401.26 -86.32 408.52 -87 416 C-87.99 415.67 -88.98 415.34 -90 415 C-90.495 411.535 -90.495 411.535 -91 408 C-91.66 408 -92.32 408 -93 408 C-93.061 408.843 -93.121 409.686 -93.184 410.555 C-93.267 411.65 -93.351 412.746 -93.438 413.875 C-93.519 414.966 -93.6 416.056 -93.684 417.18 C-94 420 -94 420 -95 422 C-95.318 424.205 -95.605 426.414 -95.875 428.625 C-96.63 434.188 -97.745 438.875 -100 444 C-104.545 440.212 -105.025 434.578 -106 429 C-106.383 424.697 -106.43 420.443 -106.375 416.125 C-106.366 414.982 -106.356 413.84 -106.346 412.663 C-106.198 404.37 -105.408 396.966 -103 389 C-102.671 387.772 -102.343 386.543 -102.004 385.277 C-95.749 362.737 -83.435 342.445 -68 325 C-67.541 324.481 -67.083 323.962 -66.61 323.427 C-37.554 290.75 1.907 267.703 46 265 C42.881 263.207 40.323 262.657 36.75 262.375 C35.858 262.3 34.966 262.225 34.047 262.148 C33.371 262.099 32.696 262.05 32 262 C32 261.01 32 260.02 32 259 C33.581 258.182 35.165 257.371 36.75 256.562 C37.632 256.11 38.513 255.658 39.422 255.191 C41.642 254.165 43.614 253.485 46 253 C44.197 250.813 44.197 250.813 41.766 250.613 C38.044 251.134 35.672 252.983 32.75 255.188 C31.605 256.016 30.458 256.842 29.309 257.664 C28.749 258.065 28.189 258.467 27.613 258.88 C18.801 265 18.801 265 15 265 C16 263 17 261 18 259 C17.01 259 16.02 259 15 259 C14.34 259 13.68 259 13 259 C13.519 254.828 14.712 252.746 17.562 249.688 C18.203 248.99 18.844 248.293 19.504 247.574 C19.998 247.055 20.491 246.535 21 246 C18.168 245.582 18.168 245.582 15 246 C13.632 247.638 12.304 249.31 11 251 C9.31 252.483 7.578 253.919 5.812 255.312 C1.406 258.841 -2.849 262.478 -7.027 266.273 C-12.428 271 -12.428 271 -15 271 C-14.724 264.38 -12.24 260.95 -8 256 C-6.975 254.793 -6.975 254.793 -5.93 253.562 C-0.545 247.364 -0.545 247.364 3 245 C-12.903 244.128 -12.903 244.128 -28 248 C-28.927 249.991 -28.927 249.991 -29.758 252.41 C-31.943 258.095 -34.789 263.2 -37.875 268.438 C-38.941 270.273 -40.006 272.109 -41.07 273.945 C-41.829 275.249 -41.829 275.249 -42.603 276.579 C-45.157 281.005 -47.593 285.493 -50 290 C-50.33 290 -50.66 290 -51 290 C-52.033 275.766 -47.113 264.598 -39 253 C-36.785 251.16 -36.785 251.16 -35 250 C-36.918 250.433 -36.918 250.433 -38.875 250.875 C-43.902 251.994 -48.947 253.008 -54 254 C-53.941 255.183 -53.881 256.367 -53.82 257.586 C-53.83 261.875 -54.916 264.771 -56.875 268.625 C-57.515 269.913 -58.153 271.202 -58.789 272.492 C-59.14 273.197 -59.491 273.902 -59.853 274.628 C-61.152 277.315 -62.373 280.03 -63.586 282.758 C-64.027 283.748 -64.468 284.739 -64.922 285.759 C-65.797 287.729 -66.668 289.701 -67.535 291.674 C-67.941 292.581 -68.347 293.488 -68.766 294.422 C-69.124 295.232 -69.483 296.043 -69.853 296.878 C-71.003 299.006 -72.205 300.398 -74 302 C-75.536 285.904 -69.103 271.568 -61 258 C-88.416 266.092 -113.537 286.134 -130 309 C-127.054 306.104 -124.256 303.183 -121.625 300 C-118.425 296.286 -115.097 293.676 -111 291 C-110.037 306.715 -113.55 320.658 -120 335 C-120.66 335 -121.32 335 -122 335 C-122 327.41 -122 319.82 -122 312 C-125.074 318.876 -127.465 325.067 -128.598 332.508 C-129.126 335.779 -130.017 338.839 -131 342 C-133.682 338.923 -134.421 336.803 -134.688 332.75 C-134.786 331.412 -134.786 331.412 -134.887 330.047 C-134.924 329.371 -134.961 328.696 -135 328 C-137.064 331.983 -139.127 335.967 -141.189 339.951 C-141.889 341.303 -142.589 342.655 -143.29 344.006 C-146.904 350.982 -150.515 357.958 -154 365 C-154.99 364.67 -155.98 364.34 -157 364 C-157.657 333.215 -146.783 310.423 -126 288 C-125.178 287.107 -124.355 286.213 -123.508 285.293 C-105.516 266.564 -81.656 251.965 -57 244 C-55.312 243.438 -53.625 242.876 -51.938 242.312 C-51.235 242.083 -50.532 241.854 -49.809 241.617 C-48.35 241.119 -46.919 240.54 -45.5 239.938 C-33.494 235.435 -19.998 234.659 -7.324 234.739 C-5.304 234.75 -3.284 234.739 -1.264 234.727 C8.823 234.746 17.531 236.063 27.125 239.125 C28.241 239.478 29.358 239.831 30.508 240.195 C31.33 240.461 32.153 240.726 33 241 C32.13 240.636 32.13 240.636 31.242 240.266 C21.664 236.156 16.247 231.312 10 223 C9.426 222.278 8.853 221.556 8.262 220.812 C7 219 7 219 7 217 C12.073 216.64 15.881 217.818 20.438 219.875 C21.133 220.186 21.828 220.497 22.544 220.817 C40.653 229.23 55.253 242.807 69 257 C64.843 250.089 60.331 243.77 55.156 237.586 C53.198 235.238 51.296 232.865 49.438 230.438 C48.962 229.817 48.486 229.197 47.996 228.559 C47 227 47 227 47 225 C50.995 226.37 53.8 228.257 57 231 C54.409 227.723 52.013 224.911 48.688 222.375 C47.801 221.591 46.914 220.808 46 220 C46 218.68 46 217.36 46 216 C46.99 215.67 47.98 215.34 49 215 C48.34 214.01 47.68 213.02 47 212 C45.541 212.141 44.083 212.288 42.625 212.438 C41.813 212.519 41.001 212.6 40.164 212.684 C37.957 212.891 37.957 212.891 36 214 C33.793 214.071 31.583 214.084 29.375 214.062 C28.186 214.053 26.998 214.044 25.773 214.035 C24.858 214.024 23.943 214.012 23 214 C23 213.01 23 212.02 23 211 C25.226 209.847 27.455 208.702 29.688 207.562 C30.313 207.237 30.939 206.912 31.584 206.576 C35.037 204.822 38.152 203.522 42 203 C41.01 200.525 41.01 200.525 40 198 C39.426 198.212 38.851 198.424 38.259 198.643 C35.635 199.605 33.005 200.553 30.375 201.5 C29.471 201.834 28.568 202.168 27.637 202.512 C22.951 204.188 19.058 205.47 14 205 C14.338 202.101 14.84 201.14 17.074 199.184 C29.322 191 29.322 191 33 191 C31.68 189.02 30.36 187.04 29 185 C23.139 187.198 17.567 190.062 11.949 192.811 C11.131 193.204 10.312 193.598 9.469 194.004 C8.731 194.363 7.993 194.722 7.232 195.092 C2.499 197.017 -1.929 197.099 -7 197 C-5.512 192.975 -3.392 191.79 0.34 189.836 C1.403 189.271 2.466 188.707 3.561 188.125 C4.675 187.548 5.789 186.97 6.938 186.375 C9.135 185.217 11.331 184.058 13.527 182.898 C14.504 182.39 15.481 181.881 16.488 181.357 C19.133 179.978 19.133 179.978 22 178 C20.431 173.764 17.73 171.439 14 169 C9.272 170.116 5.029 172.371 0.688 174.5 C-6.788 178.071 -13.523 180.435 -22 180 C-20.966 176.579 -19.821 175.897 -16.656 174.07 C-15.276 173.411 -13.89 172.763 -12.5 172.125 C-11.051 171.433 -9.603 170.738 -8.156 170.039 C-7.449 169.698 -6.741 169.357 -6.012 169.005 C-1.856 166.929 2.081 164.487 6 162 C3.151 158.992 0.765 156.722 -3 155 C-3.487 155.461 -3.975 155.923 -4.477 156.398 C-10.691 162.116 -17.346 166.942 -24.25 171.769 C-26.981 173.69 -29.677 175.657 -32.375 177.625 C-33.27 178.277 -34.164 178.93 -35.086 179.602 C-36.033 180.294 -36.033 180.294 -37 181 C-37.656 179.27 -37.656 179.27 -38 177 C-33.77 167.772 -25.75 161.377 -17.75 155.562 C-17.135 155.113 -16.52 154.663 -15.887 154.199 C-11.367 151 -11.367 151 -8 151 C-8 150.34 -8 149.68 -8 149 C-8.709 148.74 -9.418 148.479 -10.148 148.211 C-13.18 146.924 -15.824 145.354 -18.625 143.625 C-23.48 140.746 -28.209 138.623 -33.551 136.832 C-36 136 -36 136 -39.5 134.438 C-46.74 131.464 -55.566 127.902 -63.267 130.875 C-65.873 132.131 -68.405 133.478 -70.938 134.875 C-71.856 135.37 -72.775 135.864 -73.721 136.374 C-83.383 141.636 -92.926 147.212 -101.758 153.789 C-105 156 -105 156 -108 156 C-108 146.261 -101.649 139.461 -96 132 C-97.576 132.888 -97.576 132.888 -99.184 133.793 C-100.198 134.364 -100.198 134.364 -101.232 134.946 C-102.71 135.778 -104.189 136.611 -105.667 137.445 C-109.385 139.54 -113.115 141.605 -116.875 143.625 C-121.134 145.964 -125.02 148.772 -128.934 151.645 C-131 153 -131 153 -133 153 C-132.67 151.35 -132.34 149.7 -132 148 C-133.097 148.566 -134.194 149.132 -135.324 149.715 C-136.778 150.456 -138.233 151.197 -139.688 151.938 C-140.409 152.311 -141.13 152.684 -141.873 153.068 C-145.565 154.94 -148.837 156.483 -153 157 C-151.749 148.871 -143.814 141.139 -137.75 136.148 C-135.221 134.327 -132.646 132.647 -130 131 C-128.422 130.01 -128.422 130.01 -126.812 129 C-104.071 115.158 -76.259 110.409 -50.154 116.744 C-45.699 117.984 -41.342 119.412 -37 121 C-36.151 121.31 -35.301 121.621 -34.426 121.94 C-23.901 125.893 -14.299 130.656 -5 137 C-4.451 137.368 -3.901 137.736 -3.335 138.116 C23.961 156.487 59.883 189.294 67 223 C65.157 207.678 62.46 192.508 53 180 C51.966 178.576 50.935 177.15 49.906 175.723 C48.203 173.36 46.499 170.999 44.786 168.644 C33.054 152.496 33.054 152.496 32 147 C41.356 151.101 48.939 160.804 56 168 C55.575 163.921 55.003 161.863 51.84 159.141 C49.958 157.83 48.067 156.534 46.168 155.25 C42.698 152.786 39.572 150.119 36.438 147.25 C35.925 146.79 35.413 146.33 34.885 145.856 C32.309 143.477 30.089 141.387 29 138 C29.33 137.01 29.66 136.02 30 135 C30.56 135.383 31.12 135.767 31.697 136.162 C34.235 137.9 36.774 139.637 39.312 141.375 C40.194 141.978 41.075 142.582 41.982 143.203 C43.254 144.073 43.254 144.073 44.551 144.961 C45.331 145.495 46.111 146.029 46.915 146.58 C48.603 147.73 50.3 148.867 52 150 C50.025 143.011 47.866 139.131 41.574 135.418 C40.3 134.716 40.3 134.716 39 134 C25.454 126.235 25.454 126.235 23 119 C23.33 118.01 23.66 117.02 24 116 C24.5 116.419 25 116.838 25.516 117.27 C28.749 119.522 32.169 121.066 35.75 122.688 C36.447 123.008 37.145 123.328 37.863 123.658 C39.574 124.443 41.287 125.222 43 126 C39.773 121.943 36.58 118.618 32.5 115.375 C31.582 114.64 30.664 113.905 29.719 113.148 C27.98 111.774 26.213 110.434 24.414 109.141 C21.517 106.571 19.721 103.727 17.875 100.375 C17.53 99.761 17.184 99.147 16.828 98.515 C14.114 93.544 12.226 88.543 11 83 C14.364 84.267 17.37 85.711 20.426 87.602 C21.222 88.091 22.018 88.581 22.838 89.086 C24.063 89.848 24.063 89.848 25.312 90.625 C26.148 91.141 26.984 91.656 27.846 92.188 C29.899 93.455 31.951 94.726 34 96 C33.119 91.887 32.36 90.28 28.988 87.656 C27.772 86.922 26.546 86.204 25.312 85.5 C24.041 84.729 22.771 83.954 21.504 83.176 C20.897 82.805 20.29 82.435 19.665 82.053 C15.215 79.238 10.867 76.077 9 71 C9.33 69.68 9.66 68.36 10 67 C16.27 70.3 22.54 73.6 29 77 C25.614 71.92 24.438 70.262 19.75 67.188 C12.603 62.19 6.234 56.288 3 48 C3 47.34 3 46.68 3 46 C5.968 47.457 8.864 49.012 11.75 50.625 C12.949 51.294 12.949 51.294 14.172 51.977 C14.775 52.314 15.378 52.652 16 53 C16.33 52.67 16.66 52.34 17 52 C16.212 51.259 15.425 50.518 14.613 49.754 C-14.669 21.651 -14.669 21.651 -17 6 C-11.867 5.362 -8.499 7.558 -4.188 10 C-3.495 10.382 -2.802 10.763 -2.088 11.156 C-0.387 12.095 1.307 13.046 3 14 C2.783 13.325 2.567 12.649 2.344 11.953 C1.926 10.615 1.926 10.615 1.5 9.25 C1.082 7.927 1.082 7.927 0.656 6.578 C0 4 0 4 0 0 Z " fill="#080808" transform="translate(433,235)"/>
<path d="M0 0 C0.69 0.447 1.379 0.895 2.09 1.355 C6.556 4.229 11.028 7.089 15.625 9.75 C16.257 10.116 16.888 10.482 17.539 10.859 C21.243 12.576 25.113 13.764 29 15 C29.086 15.772 29.171 16.544 29.26 17.339 C29.649 20.831 30.043 24.322 30.438 27.812 C30.572 29.027 30.707 30.242 30.846 31.494 C30.978 32.658 31.11 33.821 31.246 35.02 C31.367 36.093 31.487 37.167 31.611 38.273 C31.929 41.086 31.929 41.086 33 44 C33.093 45.706 33.13 47.416 33.125 49.125 C33.129 50.459 33.129 50.459 33.133 51.82 C33 54 33 54 32 55 C28.487 55.282 24.96 55.232 21.438 55.25 C20.46 55.271 19.482 55.291 18.475 55.312 C11.8 55.348 5.772 54.958 0.305 50.671 C-1.377 48.517 -1.369 47.307 -1.356 44.592 C-1.359 43.704 -1.362 42.816 -1.366 41.902 C-1.353 40.945 -1.341 39.989 -1.328 39.004 C-1.326 38.019 -1.324 37.034 -1.322 36.019 C-1.316 33.935 -1.302 31.851 -1.281 29.767 C-1.25 26.578 -1.24 23.39 -1.234 20.201 C-1.225 18.177 -1.215 16.153 -1.203 14.129 C-1.199 13.175 -1.195 12.22 -1.19 11.237 C-1.181 10.346 -1.171 9.455 -1.161 8.537 C-1.154 7.756 -1.147 6.974 -1.14 6.169 C-1 4.001 -0.595 2.085 0 0 Z " fill="#FBFBFB" transform="translate(486,811)"/>
<path d="M0 0 C4.489 2.061 8.509 4.898 12.604 7.635 C13.195 8.022 13.786 8.409 14.395 8.809 C14.919 9.157 15.443 9.506 15.984 9.865 C18.889 11.5 21.922 12.719 25 14 C25.025 19.251 25.043 24.502 25.055 29.753 C25.06 31.541 25.067 33.329 25.075 35.116 C25.088 37.681 25.093 40.245 25.098 42.809 C25.103 43.613 25.108 44.417 25.113 45.245 C25.113 47.164 25.062 49.082 25 51 C22.727 53.273 18.147 52.422 15.087 52.469 C8.298 52.34 1.891 49.891 -3 45 C-3.041 43.379 -3.01 41.757 -2.949 40.137 C-2.911 39.113 -2.873 38.09 -2.834 37.035 C-2.785 35.93 -2.737 34.826 -2.688 33.688 C-2.641 32.569 -2.595 31.451 -2.547 30.299 C-2.086 20.153 -1.161 10.087 0 0 Z " fill="#F9F9F9" transform="translate(489,762)"/>
<path d="M0 0 C18.011 3.406 34.241 23.022 44.984 36.547 C46.75 38.696 48.561 40.636 50.562 42.562 C51.367 43.367 52.171 44.171 53 45 C53 45.66 53 46.32 53 47 C53.598 47.247 54.196 47.495 54.812 47.75 C57.286 49.164 58.434 50.651 60 53 C59.505 53.99 59.505 53.99 59 55 C57.35 54.01 55.7 53.02 54 52 C58.515 59.738 63.218 66.69 69.008 73.551 C71.473 76.582 73.345 79.464 75 83 C74.67 83.66 74.34 84.32 74 85 C71.69 82.69 69.38 80.38 67 78 C68.433 87.414 75.567 95.445 81 103 C80.67 103.66 80.34 104.32 80 105 C77.69 103.02 75.38 101.04 73 99 C73.543 100.218 74.085 101.436 74.645 102.691 C75.367 104.315 76.09 105.939 76.812 107.562 C77.169 108.362 77.525 109.162 77.893 109.986 C78.602 111.582 79.306 113.18 80.003 114.781 C80.851 116.668 81.791 118.512 82.75 120.344 C84.537 125.57 84.32 130.459 84.188 135.938 C84.167 137.536 84.167 137.536 84.146 139.166 C84.111 141.778 84.062 144.389 84 147 C83.67 147 83.34 147 83 147 C82.902 146.273 82.804 145.546 82.703 144.797 C81.698 138.036 80.117 131.83 77.805 125.398 C77 123 77 123 77 121 C76.34 121 75.68 121 75 121 C74.505 122.485 74.505 122.485 74 124 C73.67 124 73.34 124 73 124 C72.951 123.227 72.902 122.453 72.852 121.656 C72.413 115.54 71.7 109.893 70 104 C69.34 104 68.68 104 68 104 C67.34 105.65 66.68 107.3 66 109 C65.67 108.34 65.34 107.68 65 107 C65.33 106.34 65.66 105.68 66 105 C66.367 99.026 65.551 94.559 63.438 89 C63.172 88.277 62.907 87.555 62.634 86.81 C60.651 81.501 58.497 76.265 56.25 71.062 C55.81 70.043 55.81 70.043 55.361 69.002 C54.138 66.248 53.149 64.149 51 62 C50.807 62.71 50.613 63.421 50.414 64.152 C50.154 65.071 49.893 65.991 49.625 66.938 C49.37 67.854 49.115 68.771 48.852 69.715 C48 72 48 72 46 73 C46.026 72.386 46.052 71.772 46.079 71.139 C46.966 55.289 46.966 55.289 41 41 C41 40.34 41 39.68 41 39 C40.34 39 39.68 39 39 39 C38.753 39.722 38.505 40.444 38.25 41.188 C36.89 44.247 35.171 46.467 33 49 C32.831 44.614 32.949 41.845 35 38 C35.51 35.233 35.476 33.702 33.879 31.348 C32.638 29.854 31.323 28.422 30 27 C26.574 30.175 26.574 30.175 24 34 C23.34 34 22.68 34 22 34 C22.289 33.299 22.577 32.597 22.875 31.875 C23.246 30.926 23.617 29.977 24 29 C24.413 27.969 24.825 26.938 25.25 25.875 C25.497 24.926 25.745 23.977 26 23 C25.34 22.01 24.68 21.02 24 20 C23.34 20 22.68 20 22 20 C20.406 22.249 20.406 22.249 18.875 25 C18.336 25.928 17.797 26.856 17.242 27.812 C16.832 28.534 16.422 29.256 16 30 C15.67 29.34 15.34 28.68 15 28 C15.969 25.437 17.125 22.99 18.285 20.508 C19.246 18.031 19.246 18.031 18.246 15.742 C17.102 13.857 17.102 13.857 15 13 C14.732 13.784 14.464 14.567 14.188 15.375 C13 18 13 18 10 20 C10.66 16.37 11.32 12.74 12 9 C11.134 8.434 10.268 7.868 9.375 7.285 C8.25 6.544 7.125 5.804 6 5.062 C5.428 4.689 4.855 4.316 4.266 3.932 C2.826 2.981 1.411 1.993 0 1 C0 0.67 0 0.34 0 0 Z " fill="#EDEDED" transform="translate(517,504)"/>
<path d="M0 0 C7.885 5.058 13.931 14.467 17.312 23.125 C17.469 26.453 17.469 26.453 17.312 29.125 C13.229 27.57 11.23 24.874 8.562 21.5 C7.763 20.497 6.964 19.494 6.141 18.461 C5.537 17.69 4.934 16.919 4.312 16.125 C4.222 17.281 4.222 17.281 4.129 18.461 C4.045 19.464 3.961 20.467 3.875 21.5 C3.794 22.498 3.713 23.495 3.629 24.523 C3.312 27.125 3.312 27.125 2.312 29.125 C1.32 28.859 0.327 28.594 -0.695 28.32 C-14.613 24.667 -28.028 22.934 -42.401 22.466 C-43.315 22.435 -44.23 22.403 -45.172 22.371 C-45.994 22.347 -46.816 22.323 -47.663 22.299 C-49.688 22.125 -49.688 22.125 -51.688 21.125 C-51.688 20.465 -51.688 19.805 -51.688 19.125 C-48.717 18.465 -45.747 17.805 -42.688 17.125 C-44.668 15.475 -46.648 13.825 -48.688 12.125 C-47.024 8.799 -44.058 8.325 -40.688 7.125 C-35.446 7.413 -32.525 12.281 -29.223 15.875 C-26.571 18.229 -25.164 18.826 -21.688 19.125 C-24.985 11.144 -24.985 11.144 -31.688 6.125 C-31.688 5.465 -31.688 4.805 -31.688 4.125 C-11.098 -2.633 -11.098 -2.633 0 0 Z " fill="#EDEDED" transform="translate(596.6875,485.875)"/>
<path d="M0 0 C6.432 2.09 12.727 4.478 19 7 C19.191 27.532 19.191 27.532 18 37 C11.172 37.385 5.262 36.942 -1 34 C-3 32 -3 32 -3.151 29.988 C-3.105 29.176 -3.059 28.364 -3.012 27.527 C-2.965 26.627 -2.918 25.727 -2.869 24.799 C-2.809 23.855 -2.749 22.91 -2.688 21.938 C-2.639 21.02 -2.591 20.103 -2.541 19.158 C-1.654 3.307 -1.654 3.307 0 0 Z " fill="#F7F7F7" transform="translate(496,693)"/>
<path d="M0 0 C4.275 1.643 8.258 3.647 12.305 5.781 C15.632 7.364 15.632 7.364 22 9 C22 17.91 22 26.82 22 36 C11.855 36 11.855 36 6.062 32.625 C4.96 31.999 3.858 31.372 2.723 30.727 C0 29 0 29 -2 27 C-3.01 18.564 -2.343 8.153 0 0 Z " fill="#F7F7F7" transform="translate(492,729)"/>
<path d="M0 0 C0.818 0.307 0.818 0.307 1.652 0.621 C2.783 1.025 2.783 1.025 3.938 1.438 C4.668 1.704 5.399 1.971 6.152 2.246 C10.06 3.281 13.982 3.632 18 4 C17.739 7.951 17.472 11.902 17.2 15.853 C17.109 17.197 17.019 18.542 16.93 19.886 C16.802 21.818 16.669 23.749 16.535 25.68 C16.457 26.842 16.378 28.005 16.297 29.203 C16 32 16 32 15 34 C1.182 34.554 1.182 34.554 -4 31 C-2.655 9.696 -2.655 9.696 0 0 Z " fill="#F8F8F8" transform="translate(501,658)"/>
<path d="M0 0 C5.28 0 10.56 0 16 0 C16.062 6.847 15.919 13.612 15.375 20.438 C15.307 21.763 15.307 21.763 15.238 23.115 C15.034 25.556 14.786 27.68 14 30 C10.55 32.567 7.58 33.409 3.312 33.312 C2.566 33.309 1.82 33.305 1.051 33.301 C-1 33 -1 33 -4 31 C-3.395 20.549 -1.715 10.312 0 0 Z " fill="#F7F7F8" transform="translate(506,623)"/>
<path d="M0 0 C0 0.66 0 1.32 0 2 C0.699 2.248 1.397 2.495 2.117 2.75 C5.409 4.178 8.161 5.98 11.125 8 C12.676 9.052 12.676 9.052 14.258 10.125 C15.615 11.053 15.615 11.053 17 12 C17.99 12.66 18.98 13.32 20 14 C20.495 14.99 20.495 14.99 21 16 C20.164 16.18 20.164 16.18 19.31 16.364 C0.533 20.465 -17.489 26.421 -33.836 36.801 C-34.55 37.197 -35.264 37.592 -36 38 C-36.66 37.67 -37.32 37.34 -38 37 C-36.421 34.747 -34.837 32.497 -33.25 30.25 C-32.807 29.616 -32.363 28.982 -31.906 28.328 C-29.511 24.946 -27.185 21.696 -24 19 C-21.812 19.25 -21.812 19.25 -19 20 C-15.998 20.106 -13.003 20.059 -10 20 C-10 19.34 -10 18.68 -10 18 C-11.959 16.286 -13.959 14.616 -16 13 C-14.68 11.35 -13.36 9.7 -12 8 C-7.997 8.562 -5.507 9.794 -2.188 12.062 C2.575 15.043 5.452 15.706 11 15 C11.33 14.67 11.66 14.34 12 14 C3.736 8.582 3.736 8.582 -5 4 C-4.67 3.01 -4.34 2.02 -4 1 C-2 0 -2 0 0 0 Z " fill="#F2F2F2" transform="translate(571,457)"/>
<path d="M0 0 C2.764 0.35 3.817 0.797 5.711 2.898 C9.863 9.078 13.57 15.392 17 22 C17.091 20.194 17.091 20.194 17.184 18.352 C17.268 16.776 17.353 15.201 17.438 13.625 C17.477 12.831 17.516 12.037 17.557 11.219 C17.887 5.227 17.887 5.227 19 3 C20.891 3.652 20.891 3.652 23 5 C25.946 11.871 26.271 19.55 26.312 26.938 C26.318 27.647 26.323 28.356 26.329 29.086 C26.27 33.414 25.58 36.976 24 41 C23.34 41 22.68 41 22 41 C21.01 39.02 20.02 37.04 19 35 C18.67 35.99 18.34 36.98 18 38 C17.34 38 16.68 38 16 38 C15.598 36.927 15.598 36.927 15.188 35.832 C12.379 28.691 9.003 22.429 4.867 16.008 C1.378 10.387 -0.403 6.711 0 0 Z " fill="#0F0F10" transform="translate(628,488)"/>
<path d="M0 0 C4.29 0 8.58 0 13 0 C13.069 4.218 13.129 8.434 13.165 12.653 C13.18 14.087 13.2 15.522 13.226 16.956 C13.263 19.019 13.28 21.081 13.293 23.145 C13.309 24.386 13.324 25.627 13.341 26.906 C13 30 13 30 11.646 31.908 C9.228 33.512 7.305 33.326 4.438 33.25 C3.467 33.235 2.496 33.219 1.496 33.203 C-1 33 -1 33 -3 32 C-2.69 28.166 -2.377 24.333 -2.062 20.5 C-1.975 19.422 -1.888 18.345 -1.799 17.234 C-1.324 11.468 -0.773 5.735 0 0 Z " fill="#F4F4F5" transform="translate(510,584)"/>
<path d="M0 0 C0.99 0.33 1.98 0.66 3 1 C7.648 14.943 2.533 31.04 -1.336 44.531 C-2.002 47.006 -2.525 49.481 -3 52 C-3.66 52 -4.32 52 -5 52 C-8.571 43.845 -8.493 36.019 -8.446 27.27 C-8.437 24.807 -8.466 22.347 -8.498 19.885 C-8.5 18.305 -8.499 16.725 -8.496 15.145 C-8.507 14.416 -8.519 13.688 -8.53 12.938 C-8.458 7.632 -7.186 5.03 -4 1 C-3.34 2.32 -2.68 3.64 -2 5 C-1.34 5 -0.68 5 0 5 C0 3.35 0 1.7 0 0 Z " fill="#0D0D0E" transform="translate(392,552)"/>
<path d="M0 0 C4.182 1.78 5.194 3.845 7 8 C7.33 6.35 7.66 4.7 8 3 C13.554 6.913 15.719 10.664 18 17 C18.3 17.775 18.601 18.549 18.91 19.348 C21.294 26.167 21.543 32.821 21 40 C20.67 40.66 20.34 41.32 20 42 C19.34 42 18.68 42 18 42 C17.685 41.022 17.371 40.043 17.047 39.035 C14.705 31.832 12.248 24.858 9 18 C8.807 19.109 8.613 20.217 8.414 21.359 C8.151 22.823 7.888 24.287 7.625 25.75 C7.499 26.48 7.372 27.209 7.242 27.961 C6.582 31.594 5.926 34.819 4 38 C0.276 34.276 0.807 29.632 0.684 24.609 C0.663 23.905 0.642 23.2 0.621 22.474 C0.555 20.233 0.496 17.991 0.438 15.75 C0.394 14.227 0.351 12.703 0.307 11.18 C0.2 7.453 0.098 3.727 0 0 Z " fill="#121213" transform="translate(662,497)"/>
<path d="M0 0 C4.475 0.896 8.749 2.264 13.051 3.773 C13.748 4.018 14.445 4.262 15.163 4.514 C27.069 8.901 27.069 8.901 29.551 13.648 C29.736 14.391 29.922 15.133 30.113 15.898 C23.658 16.135 18.451 15.481 12.301 13.586 C10.728 13.122 9.155 12.66 7.582 12.199 C6.823 11.974 6.064 11.75 5.281 11.518 C1.423 10.415 -2.49 9.542 -6.406 8.672 C-9.213 7.797 -11.429 6.496 -13.887 4.898 C-13.574 3.023 -13.574 3.023 -12.887 0.898 C-8.438 -2.068 -5.132 -0.821 0 0 Z " fill="#0F0F0F" transform="translate(622.88671875,382.1015625)"/>
<path d="M0 0 C1.927 15.416 -10.743 33.615 -19 46 C-19.66 46 -20.32 46 -21 46 C-22.511 31.223 -16.129 17.116 -7.137 5.617 C-2.41 0 -2.41 0 0 0 Z " fill="#0B0B0B" transform="translate(362,499)"/>
<path d="M0 0 C2.632 2.465 5.025 5.095 7.465 7.75 C10.117 10.104 11.524 10.701 15 11 C14.711 10.446 14.423 9.891 14.125 9.32 C13.568 8.234 13.568 8.234 13 7.125 C12.629 6.406 12.258 5.686 11.875 4.945 C11 3 11 3 11 1 C14.154 1.289 14.959 1.951 17.035 4.434 C17.704 5.425 18.373 6.416 19.062 7.438 C22.899 13.186 22.899 13.186 29.188 15.625 C30.116 15.749 31.044 15.873 32 16 C28.33 18.447 27.505 18.02 23.312 17.188 C13.711 15.332 4.359 14.735 -5.395 14.395 C-6.345 14.357 -7.295 14.32 -8.273 14.281 C-9.134 14.251 -9.994 14.221 -10.88 14.189 C-13 14 -13 14 -15 13 C-15 12.34 -15 11.68 -15 11 C-12.03 10.34 -9.06 9.68 -6 9 C-7.98 7.35 -9.96 5.7 -12 4 C-9.857 -0.286 -4.278 -1.842 0 0 Z " fill="#F0F0F0" transform="translate(560,494)"/>
<path d="M0 0 C4.567 -0.589 7.493 -0.868 11.543 1.465 C19.33 7.562 27.931 15.282 31 25 C31.279 27.446 31.206 29.529 31 32 C26.186 28.587 21.875 25.023 17.777 20.777 C15.949 18.949 14.038 17.292 12.062 15.625 C7.663 11.82 3.433 7.711 0 3 C0 2.01 0 1.02 0 0 Z " fill="#0B0B0B" transform="translate(642,429)"/>
<path d="M0 0 C0.401 11.731 -4.367 22.429 -9 33 C-9.519 34.262 -10.034 35.525 -10.547 36.789 C-11.073 38.068 -11.599 39.346 -12.125 40.625 C-12.602 41.793 -13.079 42.961 -13.57 44.164 C-15 47 -15 47 -18 49 C-19.122 31.644 -13.853 16.854 -5 2 C-2 0 -2 0 0 0 Z " fill="#0D0C0D" transform="translate(343,510)"/>
<path d="M0 0 C1.825 0.34 1.825 0.34 3.688 0.688 C3.688 1.678 3.688 2.668 3.688 3.688 C2.027 5.309 2.027 5.309 -0.375 7.125 C-1.285 7.824 -2.195 8.522 -3.133 9.242 C-3.64 9.629 -4.147 10.015 -4.669 10.413 C-6.447 11.792 -8.19 13.207 -9.93 14.633 C-29.56 30.688 -29.56 30.688 -35.312 30.688 C-34.105 21.852 -25.853 16.079 -19.312 10.688 C-18.469 9.991 -17.626 9.295 -16.758 8.578 C-5.049 -0.941 -5.049 -0.941 0 0 Z " fill="#0B0B0C" transform="translate(389.3125,369.3125)"/>
<path d="M0 0 C1.32 0 2.64 0 4 0 C4.852 17.375 0.853 32.738 -5 49 C-5.99 49 -6.98 49 -8 49 C-8.522 39.822 -7.771 31.237 -6.188 22.188 C-6.022 21.234 -5.857 20.281 -5.687 19.299 C-2.617 2.617 -2.617 2.617 0 0 Z " fill="#0D0D0D" transform="translate(405,539)"/>
<path d="M0 0 C0.923 13.772 -2.983 25.768 -9 38 C-9.944 40.06 -10.881 42.122 -11.812 44.188 C-12.542 45.792 -13.271 47.396 -14 49 C-14.33 49 -14.66 49 -15 49 C-15.546 37.604 -14.284 27.911 -11 17 C-10.676 15.846 -10.353 14.693 -10.02 13.504 C-5.97 0 -5.97 0 0 0 Z " fill="#0F0E0F" transform="translate(425,528)"/>
<path d="M0 0 C-1.388 10.504 -11.917 19.65 -18.693 27.463 C-19.604 28.534 -20.496 29.621 -21.374 30.72 C-22.542 32.18 -23.767 33.594 -25 35 C-25.66 35 -26.32 35 -27 35 C-28.067 25.184 -22.253 18.023 -16.5 10.625 C-16.037 10.03 -15.575 9.435 -15.098 8.822 C-10.751 3.401 -7.434 -0.692 0 0 Z " fill="#0B0A0B" transform="translate(424,481)"/>
<path d="M0 0 C-0.388 7.163 -1.412 13.32 -4 20 C-4.362 20.987 -4.724 21.975 -5.098 22.992 C-8.029 30.853 -11.394 38.428 -15 46 C-15.66 46 -16.32 46 -17 46 C-17.559 36.858 -16.092 29.351 -13.25 20.688 C-12.902 19.56 -12.554 18.433 -12.195 17.271 C-10.339 11.424 -8.429 6.108 -5 1 C-3 0 -3 0 0 0 Z " fill="#0E0E0E" transform="translate(441,521)"/>
<path d="M0 0 C0.66 0 1.32 0 2 0 C4.964 6.113 4.47 11.51 2.272 17.85 C2.017 18.539 1.762 19.228 1.5 19.938 C1.108 21.026 1.108 21.026 0.708 22.136 C-2.24 30.063 -6.043 37.538 -10 45 C-10.66 45 -11.32 45 -12 45 C-14.166 40.668 -13.314 35.467 -11.914 30.987 C-11.426 29.592 -10.924 28.202 -10.41 26.816 C-10.146 26.075 -9.882 25.334 -9.61 24.571 C-8.773 22.23 -7.918 19.897 -7.062 17.562 C-6.492 15.97 -5.922 14.377 -5.354 12.783 C-4.811 11.273 -4.267 9.763 -3.723 8.254 C-3.465 7.54 -3.208 6.827 -2.943 6.092 C-1.119 1.119 -1.119 1.119 0 0 Z " fill="#111111" transform="translate(510,336)"/>
<path d="M0 0 C3 1 3 1 4 3 C5.99 17.136 -0.586 29.634 -7.738 41.41 C-8.155 41.935 -8.571 42.459 -9 43 C-9.66 43 -10.32 43 -11 43 C-13.221 33.771 -9.77 26.136 -6.625 17.562 C-6.097 16.079 -5.571 14.596 -5.047 13.111 C-1.343 2.685 -1.343 2.685 0 0 Z " fill="#0F0F0F" transform="translate(503,319)"/>
<path d="M0 0 C3.699 0.266 5.553 0.596 8.344 3.117 C21.515 19.962 21.515 19.962 21 29 C16.599 27.458 14.404 23.986 11.75 20.375 C11.291 19.764 10.832 19.153 10.359 18.523 C9.232 17.021 8.115 15.511 7 14 C6.67 17.96 6.34 21.92 6 26 C2 24 2 24 0.758 21.461 C-0.194 17.113 -0.217 13.059 -0.125 8.625 C-0.116 7.794 -0.107 6.962 -0.098 6.105 C-0.074 4.07 -0.038 2.035 0 0 Z " fill="#0B0B0C" transform="translate(593,486)"/>
<path d="M0 0 C0.66 0.33 1.32 0.66 2 1 C1.67 1.99 1.34 2.98 1 4 C0.01 4.33 -0.98 4.66 -2 5 C-2.838 7.366 -3.456 9.563 -4 12 C-4.251 13.069 -4.251 13.069 -4.507 14.159 C-7.302 26.352 -9.369 38.49 -10 51 C-10.66 50.01 -11.32 49.02 -12 48 C-12.99 48.495 -12.99 48.495 -14 49 C-13.787 48.197 -13.787 48.197 -13.569 47.378 C-12.13 41.542 -11.723 36.121 -11.812 30.125 C-11.813 28.864 -11.813 28.864 -11.814 27.578 C-11.84 24.061 -11.878 21.367 -13 18 C-13.66 17.67 -14.32 17.34 -15 17 C-15 18.65 -15 20.3 -15 22 C-15.66 22 -16.32 22 -17 22 C-17.66 21.01 -18.32 20.02 -19 19 C-23.965 21.554 -27.464 25.236 -31.312 29.188 C-31.958 29.842 -32.603 30.496 -33.268 31.17 C-34.85 32.775 -36.427 34.386 -38 36 C-38 32.075 -36.869 31.471 -34.152 28.719 C-33.326 27.881 -32.5 27.044 -31.648 26.181 C-30.754 25.296 -29.859 24.412 -28.938 23.5 C-28.035 22.601 -27.132 21.702 -26.201 20.776 C-18.968 13.695 -11.431 7.575 -3 2 C-2.01 1.34 -1.02 0.68 0 0 Z " fill="#F1F1F2" transform="translate(407,535)"/>
<path d="M0 0 C2.888 2.888 3.279 5.742 3.562 9.688 C3.493 20.184 -4.182 33.256 -11 41 C-12.485 41.495 -12.485 41.495 -14 42 C-14.776 33.719 -12.756 27.868 -9.25 20.438 C-8.807 19.461 -8.363 18.485 -7.906 17.479 C-7.034 15.561 -6.155 13.648 -5.268 11.738 C-3.466 7.846 -1.73 3.925 0 0 Z " fill="#0D0D0D" transform="translate(516,354)"/>
<path d="M0 0 C6.05 -0.456 9.693 0.849 14.875 3.625 C15.576 3.99 16.277 4.356 17 4.732 C33.265 13.332 33.265 13.332 38 21 C38 21.99 38 22.98 38 24 C31.737 22.061 26.144 19.159 20.341 16.142 C18.509 15.192 16.671 14.255 14.832 13.318 C9.046 10.323 3.737 7.505 -1 3 C-0.67 2.01 -0.34 1.02 0 0 Z " fill="#101010" transform="translate(600,440)"/>
<path d="M0 0 C2.414 1.629 3.547 2.534 5 5 C7.313 18.896 2.473 34.944 -2 48 C-2.66 48 -3.32 48 -4 48 C-8.761 33.716 -2.925 14.285 0 0 Z " fill="#121213" transform="translate(485,284)"/>
<path d="M0 0 C1.699 1.559 1.699 1.559 3 3 C-4.642 7.789 -12.539 11.891 -20.625 15.875 C-21.832 16.474 -23.039 17.073 -24.246 17.672 C-27.162 19.118 -30.08 20.561 -33 22 C-33.33 21.01 -33.66 20.02 -34 19 C-30.056 11.112 -22.339 7.319 -15 3 C-14.193 2.506 -13.386 2.013 -12.555 1.504 C-8.049 -1.049 -4.972 -1.462 0 0 Z " fill="#0E0E0E" transform="translate(409,376)"/>
<path d="M0 0 C4.858 2.066 6.911 5.253 9 10 C10.921 18.257 7.326 30.758 3.363 37.984 C2.913 38.65 2.464 39.315 2 40 C-0.903 37.013 -1.343 34.68 -1.314 30.566 C-1.293 29.864 -1.272 29.161 -1.25 28.438 C-1.239 27.706 -1.228 26.975 -1.217 26.221 C-1.047 17.472 -0.537 8.732 0 0 Z " fill="#101010" transform="translate(471,270)"/>
<path d="M0 0 C1.457 0.025 2.914 0.048 4.371 0.068 C7.915 0.123 11.457 0.209 15 0.312 C13.817 3.861 12.416 4.509 9.277 6.348 C3.028 8.995 -2.929 9.635 -9.625 9.562 C-10.712 9.574 -10.712 9.574 -11.82 9.586 C-16.259 9.57 -19.818 8.975 -24 7.312 C-24 6.652 -24 5.993 -24 5.312 C-16.751 -0.983 -9.086 -0.273 0 0 Z " fill="#151515" transform="translate(619,303.6875)"/>
<path d="M0 0 C2.047 0.907 4.032 1.888 6.018 2.921 C6.723 3.282 7.427 3.643 8.153 4.014 C21.029 10.81 21.029 10.81 22.834 16.562 C22.987 17.451 22.987 17.451 23.143 18.359 C11.224 18.359 -2.509 10.415 -11.857 3.359 C-11.857 2.699 -11.857 2.039 -11.857 1.359 C-7.987 -1.023 -4.365 -1.507 0 0 Z " fill="#0C0B0C" transform="translate(670.85693359375,360.64111328125)"/>
<path d="M0 0 C3.784 0.744 3.784 0.744 5.73 3.051 C7.347 6.806 7.41 10.174 7.312 14.188 C7.301 14.946 7.29 15.705 7.278 16.487 C7.031 26.645 4.379 35.452 1 45 C0.34 45 -0.32 45 -1 45 C-1.144 29.968 -0.782 15.012 0 0 Z " fill="#181818" transform="translate(657,574)"/>
<path d="M0 0 C4.099 -0.518 5.61 -0.295 8.965 2.238 C9.974 3.245 10.965 4.271 11.938 5.312 C12.457 5.851 12.977 6.389 13.513 6.943 C18.1 11.826 21.774 17.127 25 23 C25.387 23.675 25.773 24.351 26.172 25.047 C27.573 28.352 27.118 31.447 27 35 C23.01 33.67 21.747 31.095 19.5 27.75 C15.526 21.991 11.289 16.605 6.668 11.353 C0 3.713 0 3.713 0 0 Z " fill="#0C0C0D" transform="translate(676,429)"/>
<path d="M0 0 C0.66 0 1.32 0 2 0 C5.126 10.585 5.366 20.376 5.188 31.312 C5.172 32.939 5.159 34.566 5.146 36.193 C5.114 40.129 5.062 44.064 5 48 C4.34 48 3.68 48 3 48 C-2.257 38.812 -2.283 26.678 -2.312 16.375 C-2.318 15.439 -2.323 14.504 -2.329 13.54 C-2.278 8.638 -1.916 4.594 0 0 Z " fill="#141415" transform="translate(362,582)"/>
<path d="M0 0 C2.569 2.234 3.406 3.668 4 7 C4.2 11.331 4.186 15.662 4.185 19.997 C4.187 22.097 4.206 24.197 4.225 26.297 C4.255 33.746 3.912 40.771 2 48 C1.34 48 0.68 48 0 48 C-1.815 42.565 -2.295 37.819 -2.266 32.109 C-2.268 31.283 -2.269 30.457 -2.271 29.605 C-2.273 27.87 -2.269 26.136 -2.261 24.401 C-2.25 21.744 -2.261 19.087 -2.273 16.43 C-2.272 14.74 -2.27 13.049 -2.266 11.359 C-2.27 10.566 -2.274 9.772 -2.278 8.954 C-2.245 5.111 -2.182 3.273 0 0 Z " fill="#1D1D1D" transform="translate(373,569)"/>
<path d="M0 0 C3 1 3 1 4.625 4.188 C7.304 10.567 7.183 17.264 7.188 24.062 C7.2 24.947 7.212 25.832 7.225 26.744 C7.235 31.27 7.159 34.895 5 39 C2.09 37.545 1.94 35.862 0.875 32.812 C-2.024 23.145 -3.228 9.683 0 0 Z " fill="#141314" transform="translate(689,510)"/>
<path d="M0 0 C2.791 1.002 5.375 2.314 8 3.688 C8.686 4.027 9.372 4.367 10.078 4.717 C20.97 10.277 20.97 10.277 22.875 15.312 C22.916 15.869 22.957 16.426 23 17 C11.262 16.131 1.295 10.281 -9 5 C-9 4.01 -9 3.02 -9 2 C-5.423 -0.384 -4.224 -0.453 0 0 Z " fill="#121112" transform="translate(653,366)"/>
<path d="M0 0 C0.66 0 1.32 0 2 0 C5.962 4.476 7.622 7.372 7.287 13.358 C7.213 14.106 7.139 14.854 7.062 15.625 C7.002 16.406 6.941 17.187 6.879 17.992 C6.235 24.902 4.855 31.634 2 38 C1.01 38.495 1.01 38.495 0 39 C-0.867 34.515 -1.129 30.268 -1.133 25.703 C-1.134 25.028 -1.135 24.353 -1.136 23.658 C-1.136 22.243 -1.135 20.828 -1.13 19.413 C-1.125 17.242 -1.13 15.072 -1.137 12.902 C-1.136 11.523 -1.135 10.145 -1.133 8.766 C-1.132 7.516 -1.131 6.265 -1.129 4.978 C-1 2 -1 2 0 0 Z " fill="#1A1A1B" transform="translate(714,529)"/>
<path d="M0 0 C3.916 1.958 4.975 2.667 6.453 6.641 C9 17.627 6.397 27.918 2 38 C1.01 39.32 0.02 40.64 -1 42 C-0.67 28.14 -0.34 14.28 0 0 Z " fill="#0D0C0D" transform="translate(666,586)"/>
<path d="M0 0 C0.66 0 1.32 0 2 0 C4.517 3.775 4.484 7.633 4 12 C2.99 15.924 1.641 19.697 0.25 23.5 C-0.098 24.494 -0.446 25.488 -0.805 26.512 C-2.847 32.237 -5.16 37.626 -8 43 C-8.66 43 -9.32 43 -10 43 C-10.773 34.463 -8.555 27.737 -5.562 19.812 C-1.845 10.135 -1.845 10.135 0 0 Z " fill="#141414" transform="translate(496,301)"/>
<path d="M0 0 C3.875 2.625 3.875 2.625 5 6 C5.835 18.809 4.436 30.682 -2 42 C-2.33 42 -2.66 42 -3 42 C-3.027 39.479 -3.047 36.958 -3.062 34.438 C-3.071 33.733 -3.079 33.029 -3.088 32.303 C-3.109 27.764 -2.673 23.499 -2 19 C-1.719 15.297 -1.564 11.587 -1.395 7.877 C-1.104 2.208 -1.104 2.208 0 0 Z " fill="#0E0D0E" transform="translate(647,560)"/>
<path d="M0 0 C4.034 3.496 5.691 6.778 6.205 12.138 C6.305 14.554 6.322 16.957 6.312 19.375 C6.329 20.187 6.345 20.999 6.361 21.836 C6.366 27.548 5.282 31.763 3 37 C2.01 36.67 1.02 36.34 0 36 C-0.873 27.742 -1.109 19.549 -1.125 11.25 C-1.13 10.261 -1.134 9.272 -1.139 8.253 C-1.137 7.329 -1.135 6.405 -1.133 5.453 C-1.132 4.619 -1.131 3.786 -1.129 2.927 C-1 1 -1 1 0 0 Z " fill="#1D1D1E" transform="translate(705,522)"/>
<path d="M0 0 C2.769 1.243 3.91 1.875 5.727 4.41 C7.518 9.461 7.436 14.119 7.375 19.438 C7.387 20.449 7.398 21.46 7.41 22.502 C7.387 28.446 6.799 32.734 4 38 C0.276 34.276 0.807 29.632 0.684 24.609 C0.663 23.905 0.642 23.2 0.621 22.474 C0.555 20.233 0.496 17.991 0.438 15.75 C0.394 14.227 0.351 12.703 0.307 11.18 C0.2 7.453 0.098 3.727 0 0 Z " fill="#0A0A0B" transform="translate(662,497)"/>
<path d="M0 0 C7.264 1.158 13.914 3.964 18.867 9.457 C18.537 10.117 18.207 10.777 17.867 11.457 C8.084 12.331 -2.546 9.181 -11.133 4.457 C-8.082 0.02 -5.034 -0.202 0 0 Z " fill="#0E0D0E" transform="translate(635.1328125,373.54296875)"/>
<path d="M0 0 C5.379 -0.685 8.148 -0.338 12.5 3 C14.023 4.307 15.523 5.641 17 7 C17.763 7.683 18.526 8.366 19.312 9.07 C25.344 14.736 25.344 14.736 26 20 C16.132 18.724 6.645 8.948 0 2 C0 1.34 0 0.68 0 0 Z " fill="#0C0C0C" transform="translate(623,433)"/>
<path d="M0 0 C3.745 0.214 4.922 0.922 7.625 3.625 C12.662 10.23 14.152 17.184 14.062 25.312 C14.053 26.381 14.044 27.45 14.035 28.551 C14.024 29.359 14.012 30.167 14 31 C11 30 11 30 10.08 28.393 C9.828 27.708 9.576 27.022 9.316 26.316 C9.03 25.558 8.744 24.799 8.449 24.018 C8.157 23.207 7.864 22.397 7.562 21.562 C6.948 19.918 6.334 18.273 5.719 16.629 C5.425 15.832 5.131 15.036 4.828 14.215 C3.511 10.693 2.07 7.223 0.629 3.75 C0 2 0 2 0 0 Z " fill="#0D0D0D" transform="translate(616,486)"/>
<path d="M0 0 C7.306 0.485 9.923 3.202 14.754 8.371 C18.54 12.803 20.868 15.92 21.25 21.938 C21.168 22.948 21.085 23.959 21 25 C16.771 23.432 14.394 20.262 11.625 16.875 C11.142 16.293 10.659 15.71 10.161 15.11 C0 2.792 0 2.792 0 0 Z " fill="#0F0F0F" transform="translate(662,427)"/>
<path d="M0 0 C7.559 2.94 11.553 10.04 15.25 16.875 C15.949 19.215 15.949 19.215 16.25 20.875 C12.6 21.412 11.408 20.991 8.375 18.773 C5.124 15.945 2.753 12.759 0.375 9.188 C-0.027 8.607 -0.429 8.026 -0.844 7.428 C-3.75 3.152 -3.75 3.152 -3.75 0.875 C-1.75 -0.125 -1.75 -0.125 0 0 Z " fill="#0F0F10" transform="translate(574.75,489.125)"/>
<path d="M0 0 C-0.14 2.646 -0.287 5.292 -0.438 7.938 C-0.477 8.692 -0.516 9.447 -0.557 10.225 C-0.887 15.887 -0.887 15.887 -2 17 C-2.232 18.515 -2.412 20.038 -2.562 21.562 C-2.646 22.389 -2.73 23.215 -2.816 24.066 C-2.907 25.024 -2.907 25.024 -3 26 C-3.33 26 -3.66 26 -4 26 C-4.061 25.001 -4.121 24.002 -4.184 22.973 C-4.309 21.037 -4.309 21.037 -4.438 19.062 C-4.519 17.775 -4.6 16.487 -4.684 15.16 C-4.649 12.14 -4.649 12.14 -6 11 C-10.123 17.048 -11.101 22.797 -12 30 C-13.32 29.34 -14.64 28.68 -16 28 C-16.66 29.98 -17.32 31.96 -18 34 C-19.765 28.705 -16.354 23.818 -14 19 C-12.529 16.117 -11 13.271 -9.438 10.438 C-9.062 9.747 -8.686 9.056 -8.299 8.345 C-3.582 0 -3.582 0 0 0 Z " fill="#F4F4F4" transform="translate(361,583)"/>
<path d="M0 0 C3.992 3.552 6.564 7.727 9.312 12.25 C9.795 13.042 10.277 13.834 10.773 14.65 C13.867 19.84 16.638 25.09 19.062 30.625 C19.337 31.251 19.611 31.876 19.894 32.521 C21.745 36.942 22.926 41.345 24 46 C20.91 43.417 19.784 40.51 18.312 36.812 C17.876 35.726 17.439 34.639 16.988 33.52 C16.662 32.688 16.336 31.857 16 31 C14.515 32.485 14.515 32.485 13 34 C11.115 30.231 11.294 25.638 10.891 21.48 C9.833 17.348 8.212 15.72 5 13 C4.34 14.32 3.68 15.64 3 17 C2.951 16.313 2.902 15.626 2.852 14.918 C2.777 14.017 2.702 13.116 2.625 12.188 C2.555 11.294 2.486 10.401 2.414 9.48 C2.134 6.756 2.134 6.756 0 4 C0 2.68 0 1.36 0 0 Z " fill="#E3E4E4" transform="translate(661,573)"/>
<path d="M0 0 C0 0.66 0 1.32 0 2 C1.048 2.371 1.048 2.371 2.117 2.75 C5.409 4.178 8.161 5.98 11.125 8 C12.676 9.052 12.676 9.052 14.258 10.125 C15.615 11.053 15.615 11.053 17 12 C17.99 12.66 18.98 13.32 20 14 C20.33 14.66 20.66 15.32 21 16 C19.065 16.39 17.127 16.761 15.188 17.125 C14.109 17.334 13.03 17.543 11.918 17.758 C9 18 9 18 6 16 C7.98 15.34 9.96 14.68 12 14 C3.736 8.582 3.736 8.582 -5 4 C-4.67 3.01 -4.34 2.02 -4 1 C-2 0 -2 0 0 0 Z " fill="#E5E5E6" transform="translate(571,457)"/>
<path d="M0 0 C0.66 0.33 1.32 0.66 2 1 C-3.957 12.914 -3.957 12.914 -5.014 15.009 C-5.905 16.808 -6.743 18.633 -7.574 20.461 C-9 23 -9 23 -12 24 C-11.857 23.305 -11.714 22.61 -11.566 21.895 C-10.967 18.833 -10.445 15.765 -9.938 12.688 C-9.761 11.619 -9.584 10.55 -9.402 9.449 C-9.27 8.641 -9.137 7.833 -9 7 C-9.99 7.33 -10.98 7.66 -12 8 C-12.33 7.34 -12.66 6.68 -13 6 C-11.397 5.185 -9.793 4.373 -8.188 3.562 C-7.294 3.11 -6.401 2.658 -5.48 2.191 C-3 1 -3 1 0 0 Z " fill="#EFEFEF" transform="translate(371,492)"/>
<path d="M0 0 C2.967 3.627 4 5.245 4 10 C1.355 11.322 -0.678 11.097 -3.625 11.062 C-4.628 11.053 -5.631 11.044 -6.664 11.035 C-7.435 11.024 -8.206 11.012 -9 11 C-9.477 6.901 -9.345 5.441 -6.75 2.125 C-4 0 -4 0 0 0 Z " fill="#F3F3F3" transform="translate(519,569)"/>
<path d="M0 0 C1.152 3.455 0.861 4.036 -0.406 7.305 C-0.735 8.185 -1.063 9.065 -1.402 9.972 C-1.764 10.93 -2.127 11.888 -2.5 12.875 C-6.433 23.626 -9.228 34.443 -11.74 45.589 C-12.009 46.772 -12.278 47.954 -12.555 49.172 C-12.787 50.225 -13.018 51.278 -13.257 52.362 C-14 55 -14 55 -16 58 C-16.386 44.275 -11.168 31.052 -6.875 18.188 C-6.651 17.517 -6.428 16.846 -6.198 16.154 C-2.109 3.93 -2.109 3.93 0 0 Z " fill="#B3B4B4" transform="translate(543,386)"/>
<path d="M0 0 C-0.549 0.312 -1.099 0.625 -1.665 0.946 C-4.175 2.376 -6.681 3.813 -9.188 5.25 C-10.052 5.741 -10.916 6.232 -11.807 6.738 C-20.826 11.922 -27.355 17.992 -34 26 C-36.188 28.375 -36.188 28.375 -38 30 C-38.66 30 -39.32 30 -40 30 C-34.08 16.761 -18.646 6.24 -6 0 C-3 -1 -3 -1 0 0 Z " fill="#DDDEDE" transform="translate(635,279)"/>
<path d="M0 0 C6.766 -0.114 13.288 0.12 20 1 C16.784 2.746 14.68 3.204 11 3 C12.32 5.64 13.64 8.28 15 11 C12 11 12 11 10.098 9.355 C9.426 8.64 8.754 7.925 8.062 7.188 C5.518 4.496 3.025 2.145 0 0 Z " fill="#D9D9D9" transform="translate(665,426)"/>
<path d="M0 0 C3.89 2.258 7.551 4.728 11.188 7.375 C12.233 8.125 13.278 8.875 14.355 9.648 C17.08 12.071 18.158 13.485 19 17 C18.67 17.99 18.34 18.98 18 20 C11.667 13.667 5.333 7.333 -1 1 C-0.67 0.67 -0.34 0.34 0 0 Z " fill="#E6E6E6" transform="translate(471,384)"/>
<path d="M0 0 C0.66 0.33 1.32 0.66 2 1 C1.01 1.99 0.02 2.98 -1 4 C-0.67 4.33 -0.34 4.66 0 5 C0.072 6.686 0.084 8.375 0.062 10.062 C0.053 10.982 0.044 11.901 0.035 12.848 C0.024 13.558 0.012 14.268 0 15 C-0.33 15 -0.66 15 -1 15 C-1.33 12.36 -1.66 9.72 -2 7 C-8.79 12.881 -14.785 18.631 -20 26 C-20 21.964 -18.02 19.976 -15.625 16.938 C-15.181 16.366 -14.737 15.795 -14.28 15.206 C-9.926 9.712 -5.102 4.809 0 0 Z " fill="#C5C5C5" transform="translate(323,520)"/>
<path d="M0 0 C1.352 0.153 1.352 0.153 2.73 0.309 C3.418 0.392 4.105 0.476 4.812 0.562 C4.812 0.892 4.812 1.223 4.812 1.562 C4.147 1.673 3.482 1.784 2.796 1.898 C-0.241 2.406 -3.277 2.922 -6.312 3.438 C-7.883 3.699 -7.883 3.699 -9.484 3.965 C-14.543 4.829 -19.375 5.714 -24.188 7.562 C-23.528 5.582 -22.867 3.603 -22.188 1.562 C-21.212 1.502 -20.236 1.441 -19.23 1.379 C-17.958 1.295 -16.686 1.211 -15.375 1.125 C-14.11 1.044 -12.846 0.963 -11.543 0.879 C-0.992 -0.116 -0.992 -0.116 0 0 Z " fill="#E1E1E2" transform="translate(594.1875,341.4375)"/>
<path d="M0 0 C-3.388 4.692 -6.782 9.03 -11 13 C-10.67 10.03 -10.34 7.06 -10 4 C-11.32 3.67 -12.64 3.34 -14 3 C-12.608 2.49 -11.211 1.993 -9.812 1.5 C-9.035 1.222 -8.258 0.943 -7.457 0.656 C-4.868 -0.035 -2.667 -0.114 0 0 Z " fill="#DDDDDE" transform="translate(465,512)"/>
<path d="M0 0 C0.66 0.99 1.32 1.98 2 3 C1.577 4.986 1.141 6.973 0.582 8.926 C-0.165 11.587 -0.59 14.27 -1 17 C-2.32 16.34 -3.64 15.68 -5 15 C-5.66 16.98 -6.32 18.96 -7 21 C-8.298 17.105 -7.373 15.894 -5.75 12.188 C-5.287 11.124 -4.824 10.061 -4.348 8.965 C-2.969 5.931 -1.555 2.946 0 0 Z " fill="#D9DADA" transform="translate(350,596)"/>
<path d="M0 0 C3.96 0 7.92 0 12 0 C8.838 2.371 5.681 4.593 2.375 6.75 C1.413 7.384 0.452 8.018 -0.539 8.672 C-1.351 9.11 -2.163 9.548 -3 10 C-3.66 9.67 -4.32 9.34 -5 9 C-4.639 8.518 -4.278 8.036 -3.906 7.539 C-3.442 6.907 -2.978 6.276 -2.5 5.625 C-2.036 4.999 -1.572 4.372 -1.094 3.727 C0.178 2.059 0.178 2.059 0 0 Z " fill="#E7E7E7" transform="translate(348,361)"/>
<path d="M0 0 C-1 3 -1 3 -2.778 3.916 C-3.878 4.452 -3.878 4.452 -5 5 C-6.562 6.401 -8.073 7.858 -9.547 9.352 C-10.391 10.202 -11.236 11.053 -12.105 11.93 C-13.415 13.264 -13.415 13.264 -14.75 14.625 C-16.082 15.971 -16.082 15.971 -17.441 17.344 C-19.632 19.558 -21.818 21.777 -24 24 C-24.66 23.67 -25.32 23.34 -26 23 C-22.789 19.715 -19.568 16.44 -16.338 13.173 C-15.24 12.06 -14.145 10.945 -13.053 9.827 C-11.484 8.221 -9.905 6.625 -8.324 5.031 C-7.837 4.528 -7.349 4.025 -6.847 3.507 C-3.342 0 -3.342 0 0 0 Z " fill="#E3E3E3" transform="translate(489,512)"/>
<path d="M0 0 C1.411 3.786 0.553 6.237 -0.688 10 C-1.242 11.707 -1.242 11.707 -1.809 13.449 C-2.202 14.621 -2.595 15.793 -3 17 C-3.383 18.161 -3.766 19.323 -4.16 20.52 C-5.097 23.35 -6.044 26.176 -7 29 C-7.98 25.923 -7.989 24.014 -7.109 20.918 C-6.894 20.15 -6.679 19.383 -6.457 18.592 C-6.224 17.798 -5.99 17.005 -5.75 16.188 C-5.532 15.406 -5.314 14.624 -5.09 13.818 C-3.721 9.028 -2.059 4.536 0 0 Z " fill="#BBBCBB" transform="translate(436,618)"/>
<path d="M0 0 C0.33 0 0.66 0 1 0 C2.167 8.67 2.097 17.274 2 26 C1.67 26 1.34 26 1 26 C0.496 23.897 -0.003 21.792 -0.5 19.688 C-0.918 17.93 -0.918 17.93 -1.344 16.137 C-2 13 -2 13 -2 10 C-1.34 10 -0.68 10 0 10 C0 6.7 0 3.4 0 0 Z " fill="#C9C9CA" transform="translate(510,435)"/>
<path d="M0 0 C0.33 0 0.66 0 1 0 C1.939 8.822 1.939 17.178 1 26 C0.34 25.01 -0.32 24.02 -1 23 C-1.66 23.33 -2.32 23.66 -3 24 C-2.691 22.824 -2.381 21.649 -2.062 20.438 C-0.544 13.718 -0.343 6.86 0 0 Z " fill="#BFC0C1" transform="translate(396,560)"/>
<path d="M0 0 C0.66 0.66 1.32 1.32 2 2 C1.642 8.57 -0.161 14.707 -2 21 C-2.33 21 -2.66 21 -3 21 C-3.156 15.937 -2.628 11.496 -1.5 6.562 C-1.222 5.326 -0.943 4.09 -0.656 2.816 C-0.44 1.887 -0.223 0.958 0 0 Z " fill="#A3A4A5" transform="translate(530,423)"/>
<path d="M0 0 C6.419 1.736 12.138 3.852 18 7 C14.371 8.21 13.653 7.683 10.25 6.188 C6.198 4.47 2.255 3.11 -2 2 C-1.34 1.34 -0.68 0.68 0 0 Z " fill="#C4C4C4" transform="translate(453,470)"/>
<path d="M0 0 C-0.99 1.485 -0.99 1.485 -2 3 C-4.531 3.363 -4.531 3.363 -7.5 3.312 C-8.48 3.309 -9.459 3.305 -10.469 3.301 C-13 3 -13 3 -15 1 C-10.039 -0.323 -5.089 -0.089 0 0 Z " fill="#A8A9AA" transform="translate(689,354)"/>
<path d="M0 0 C3.954 4.394 6.866 9.495 9 15 C8.67 15.66 8.34 16.32 8 17 C6.653 15.114 5.323 13.216 4 11.312 C3.258 10.257 2.515 9.201 1.75 8.113 C-0.01 4.981 -0.416 3.504 0 0 Z " fill="#DDDEDE" transform="translate(732,545)"/>
<path d="M0 0 C2.625 2.625 2.583 4.488 3.125 8.125 C3.293 9.221 3.46 10.316 3.633 11.445 C3.754 12.288 3.875 13.131 4 14 C3.01 14 2.02 14 1 14 C-0.05 10.851 -0.101 8.612 -0.062 5.312 C-0.053 4.319 -0.044 3.325 -0.035 2.301 C-0.024 1.542 -0.012 0.782 0 0 Z " fill="#B0B0B1" transform="translate(441,635)"/>
<path d="M0 0 C0.33 0 0.66 0 1 0 C1.33 4.29 1.66 8.58 2 13 C1.34 12.34 0.68 11.68 0 11 C-0.33 12.98 -0.66 14.96 -1 17 C-1.33 17 -1.66 17 -2 17 C-2.218 10.998 -1.506 5.808 0 0 Z " fill="#B4B5B6" transform="translate(348,627)"/>
<path d="M0 0 C0.66 0.33 1.32 0.66 2 1 C-1.583 4.981 -6.166 7.769 -11 10 C-9.541 6.314 -7.698 4.839 -4.375 2.75 C-3.558 2.229 -2.74 1.708 -1.898 1.172 C-1.272 0.785 -0.645 0.398 0 0 Z " fill="#C8C8C9" transform="translate(557,401)"/>
<path d="M0 0 C0.33 0 0.66 0 1 0 C1.121 0.58 1.242 1.16 1.367 1.758 C2.337 6.28 3.434 10.638 5 15 C4.34 15 3.68 15 3 15 C2.67 15.66 2.34 16.32 2 17 C1.466 15.108 0.948 13.211 0.438 11.312 C0.147 10.257 -0.143 9.201 -0.441 8.113 C-1.001 4.993 -0.847 3.023 0 0 Z " fill="#DCDCDC" transform="translate(627,488)"/>
<path d="M0 0 C0 0.66 0 1.32 0 2 C-0.66 2 -1.32 2 -2 2 C-1.34 3.65 -0.68 5.3 0 7 C-2.929 6.372 -5.361 5.414 -8 4 C-8 3.34 -8 2.68 -8 2 C-2.25 0 -2.25 0 0 0 Z " fill="#CECECF" transform="translate(573,488)"/>
<path d="M0 0 C-4.29 2.31 -8.58 4.62 -13 7 C-13.66 6.34 -14.32 5.68 -15 5 C-13.069 3.967 -11.13 2.949 -9.188 1.938 C-8.109 1.369 -7.03 0.801 -5.918 0.215 C-3 -1 -3 -1 0 0 Z " fill="#C8C8C8" transform="translate(635,279)"/>
<path d="M0 0 C0.33 0 0.66 0 1 0 C0.67 6.27 0.34 12.54 0 19 C-0.33 19 -0.66 19 -1 19 C-1.061 18.229 -1.121 17.458 -1.184 16.664 C-1.267 15.661 -1.351 14.658 -1.438 13.625 C-1.519 12.627 -1.6 11.63 -1.684 10.602 C-1.85 8.021 -1.85 8.021 -3 6 C-2.066 3.969 -1.068 1.965 0 0 Z " fill="#C9C9CB" transform="translate(311,545)"/>
<path d="M0 0 C2.578 2.578 2.621 4.44 3 8 C2.67 8.33 2.34 8.66 2 9 C1.632 11.328 1.298 13.662 1 16 C0.67 16 0.34 16 0 16 C0 10.72 0 5.44 0 0 Z " fill="#CCCCCD" transform="translate(434,653)"/>
<path d="M0 0 C0.99 0 1.98 0 3 0 C3 2.64 3 5.28 3 8 C2.01 7.67 1.02 7.34 0 7 C-1.044 3.867 -0.934 3.01 0 0 Z " fill="#272628" transform="translate(700,456)"/>
<path d="M0 0 C2.743 3.2 4.63 6.005 6 10 C5.34 10.66 4.68 11.32 4 12 C3.567 10.907 3.134 9.814 2.688 8.688 C1.505 5.906 0.392 3.936 -2 2 C-1.34 2 -0.68 2 0 2 C0 1.34 0 0.68 0 0 Z " fill="#D2D3D2" transform="translate(668,583)"/>
<path d="M0 0 C2.867 1.285 4.976 2.571 7 5 C7 5.66 7 6.32 7 7 C3.634 5.557 1.49 3.667 -1 1 C-0.67 0.67 -0.34 0.34 0 0 Z " fill="#CFCFD0" transform="translate(483,459)"/>
<path d="M0 0 C0.33 0.66 0.66 1.32 1 2 C-0.125 4.562 -0.125 4.562 -2 7 C-4.688 7.812 -4.688 7.812 -7 8 C-6.021 6.854 -5.042 5.708 -4.062 4.562 C-3.517 3.924 -2.972 3.286 -2.41 2.629 C-1.632 1.73 -0.841 0.841 0 0 Z " fill="#DADADA" transform="translate(463,521)"/>
<path d="M0 0 C4.194 0.671 7.403 2.856 11 5 C10.34 5.66 9.68 6.32 9 7 C7.497 6.025 5.998 5.045 4.5 4.062 C3.665 3.517 2.829 2.972 1.969 2.41 C1.319 1.945 0.669 1.479 0 1 C0 0.67 0 0.34 0 0 Z " fill="#C3C4C3" transform="translate(517,504)"/>
<path d="M0 0 C0.33 0.66 0.66 1.32 1 2 C1.66 2.33 2.32 2.66 3 3 C2.188 4.938 2.188 4.938 1 7 C0.01 7.33 -0.98 7.66 -2 8 C-1.477 5.237 -0.891 2.674 0 0 Z " fill="#D8D9DA" transform="translate(361,508)"/>
<path d="M0 0 C0.99 0.33 1.98 0.66 3 1 C2.67 3.97 2.34 6.94 2 10 C1.67 10 1.34 10 1 10 C1 7.69 1 5.38 1 3 C0.01 3.33 -0.98 3.66 -2 4 C-2.33 3.34 -2.66 2.68 -3 2 C-2.01 1.34 -1.02 0.68 0 0 Z " fill="#B5B6B7" transform="translate(361,496)"/>
<path d="M0 0 C-0.33 0.99 -0.66 1.98 -1 3 C-3.875 3.125 -3.875 3.125 -7 3 C-7.66 2.34 -8.32 1.68 -9 1 C-5.927 0.089 -3.199 -0.089 0 0 Z " fill="#BBBCBC" transform="translate(630,430)"/>
<path d="M0 0 C-0.33 0.99 -0.66 1.98 -1 3 C-4.3 2.67 -7.6 2.34 -11 2 C-11 1.67 -11 1.34 -11 1 C-7.276 0.307 -3.789 -0.111 0 0 Z " fill="#878788" transform="translate(650,426)"/>
<path d="M0 0 C0.33 1.32 0.66 2.64 1 4 C1.66 4.33 2.32 4.66 3 5 C1.68 6.65 0.36 8.3 -1 10 C-0.67 6.7 -0.34 3.4 0 0 Z " fill="#BCBDBD" transform="translate(538,441)"/>
<path d="M0 0 C0.66 0.33 1.32 0.66 2 1 C1.67 1.66 1.34 2.32 1 3 C-0.331 3.343 -1.664 3.676 -3 4 C-3.66 4.66 -4.32 5.32 -5 6 C-5 5.34 -5 4.68 -5 4 C-5.66 3.67 -6.32 3.34 -7 3 C-4.696 1.933 -2.36 0.936 0 0 Z " fill="#C3C4C4" transform="translate(603,437)"/>
</svg>