<svg version="1.1" xmlns="http://www.w3.org/2000/svg" width="1024" height="1024">
<path d="M0 0 C337.92 0 675.84 0 1024 0 C1024 337.92 1024 675.84 1024 1024 C686.08 1024 348.16 1024 0 1024 C0 686.08 0 348.16 0 0 Z " fill="#FEFEFE" transform="translate(0,0)"/>
<path d="M0 0 C2.375 1.812 2.375 1.812 4 4 C4.102 7.171 2.766 8.272 0.688 10.688 C-1.877 12.894 -2.848 13.389 -6 14 C-3.501 21.23 -3.501 21.23 2 26 C5.653 26.725 5.653 26.725 9 27 C9.66 25.68 10.32 24.36 11 23 C12.98 23.99 12.98 23.99 15 25 C14.546 27.45 13.988 29.017 12.571 31.094 C10.509 34.908 9.901 38.557 9.176 42.801 C9.025 43.637 8.874 44.474 8.718 45.335 C8.24 47.993 7.776 50.652 7.312 53.312 C6.99 55.121 6.666 56.929 6.342 58.736 C5.551 63.156 4.772 67.577 4 72 C4.919 71.973 4.919 71.973 5.857 71.945 C6.663 71.931 7.47 71.917 8.301 71.902 C9.498 71.875 9.498 71.875 10.72 71.847 C15.774 72.186 18.852 75.69 22.062 79.25 C25.09 82.932 27.59 86.894 30 91 C30.66 90.01 31.32 89.02 32 88 C31.67 87.67 31.34 87.34 31 87 C30.318 83.052 30.264 79.457 32.094 75.836 C35.727 70.831 40.465 64.723 46.75 63.438 C49.379 64.095 50.409 64.823 52 67 C52 67.66 52 68.32 52 69 C53.98 69 55.96 69 58 69 C58.124 68.072 58.247 67.144 58.375 66.188 C59 63 59 63 61 60 C64.667 59.442 66.363 59.559 69.438 61.688 C71 64 71 64 71.062 66.438 C69.637 69.874 67.904 71.69 65 74 C62.188 74.312 62.188 74.312 60 74 C60.186 75.155 60.371 76.31 60.562 77.5 C60.983 80.621 60.893 83.161 60.312 86.25 C59.642 89.908 59.642 89.908 61.375 92.312 C65.031 94.663 68.852 95.796 73 97 C72.344 105.867 70.58 114.392 68.729 123.074 C68.397 124.669 68.397 124.669 68.059 126.297 C67.855 127.249 67.652 128.201 67.443 129.183 C66.449 134.708 66.449 134.708 68.139 139.833 C68.938 140.6 68.938 140.6 69.754 141.383 C70.653 142.282 70.653 142.282 71.571 143.198 C72.228 143.834 72.885 144.47 73.562 145.125 C86.917 158.719 97.504 174.223 107.424 190.431 C112.228 198.262 117.127 206.035 122.007 213.819 C123.363 215.983 124.716 218.147 126.067 220.313 C143.013 247.811 143.013 247.811 170.062 263.938 C177.306 266.75 183.462 269.386 189 275 C189.84 275.839 190.681 276.678 191.547 277.543 C201.566 287.88 209.754 299.786 218.068 311.493 C223.934 319.744 229.93 327.898 236 336 C236.443 336.596 236.885 337.191 237.341 337.805 C238.46 339.3 239.604 340.776 240.75 342.25 C241.343 343.018 241.936 343.787 242.547 344.578 C249.619 351.561 258.529 356.105 267.25 360.688 C269.546 361.911 271.841 363.135 274.137 364.359 C277.491 366.14 280.846 367.919 284.202 369.697 C287.159 371.27 290.111 372.853 293.062 374.438 C293.935 374.897 294.807 375.356 295.706 375.829 C308.068 382.484 317.383 391.563 325.596 402.899 C334.791 415.473 347.552 422.737 360.542 430.958 C404.571 458.857 404.571 458.857 416 476 C416 477.32 416 478.64 416 480 C411.568 479.451 408.92 477.834 405.312 475.25 C404.76 474.858 404.207 474.466 403.638 474.062 C401.751 472.719 399.875 471.361 398 470 C397.301 469.493 396.602 468.986 395.881 468.463 C394.395 467.385 392.909 466.306 391.422 465.228 C377.703 455.283 364.032 446.231 349.094 438.172 C334.556 430.238 323.665 421.145 314.438 407.375 C301.306 388.01 279.256 378.833 258.988 368.41 C251.437 364.521 244.353 360.735 238 355 C237.388 354.479 236.775 353.958 236.145 353.422 C229.117 346.988 223.935 338.84 218.478 331.093 C216.634 328.482 214.759 325.894 212.875 323.312 C212.26 322.469 211.645 321.626 211.012 320.758 C210.348 319.848 209.684 318.938 209 318 C208.152 316.831 207.305 315.661 206.457 314.492 C188.904 289.511 188.904 289.511 163.405 273.825 C146.629 267.32 136.668 256.947 127 242 C126.418 241.101 125.836 240.202 125.236 239.276 C118.382 228.664 111.619 217.995 104.875 207.312 C104.4 206.562 103.925 205.811 103.436 205.037 C100.809 200.88 98.199 196.713 95.605 192.535 C85.352 176.101 74.303 161.079 61 147 C57.715 143.347 54.518 139.622 51.363 135.855 C50.368 134.674 49.372 133.493 48.375 132.312 C47.863 131.702 47.35 131.092 46.822 130.463 C44.279 127.481 41.718 124.664 38.793 122.051 C30.458 114.554 25.515 106.483 20.576 96.401 C17.47 90.169 14.756 86.013 9 82 C4.58 81.784 1.379 84.312 -2 87 C-3.519 90.76 -3.144 94.92 -3.133 98.914 C-3.134 99.684 -3.135 100.453 -3.136 101.246 C-3.136 102.875 -3.135 104.504 -3.13 106.133 C-3.125 108.595 -3.13 111.057 -3.137 113.52 C-3.14 120.643 -3.097 127.667 -2.241 134.75 C-1.876 138.157 -1.81 141.566 -1.71 144.99 C-1.325 157.479 0.162 168.473 4.629 180.242 C4.889 180.93 5.148 181.618 5.416 182.327 C8.356 190.043 11.542 197.656 14.72 205.276 C19.976 217.897 25.06 230.527 29.562 243.438 C37.691 266.692 47.355 282.21 66.086 298.32 C81.84 312.145 91.88 328.882 102 347 C102.321 347.574 102.642 348.148 102.973 348.739 C108.039 357.795 113.036 366.888 118 376 C118.322 376.59 118.644 377.181 118.975 377.789 C123.36 385.836 127.703 393.905 132 402 C132.46 402.861 132.92 403.723 133.394 404.61 C134.589 406.858 135.767 409.114 136.938 411.375 C137.274 412.005 137.61 412.635 137.957 413.284 C139.263 415.856 140.063 417.507 139.691 420.414 C139.463 420.937 139.235 421.461 139 422 C132.32 416.953 127.543 410.608 122.521 403.999 C120.988 401.984 119.443 399.979 117.895 397.977 C107.542 384.557 97.199 371.083 87.922 356.891 C84.484 351.719 80.834 346.699 77.196 341.667 C76.074 340.103 74.97 338.527 73.867 336.949 C70.23 331.792 66.472 327.239 61.914 322.875 C60.096 321.094 58.455 319.254 56.812 317.312 C53.556 313.517 50.054 310.014 46.5 306.5 C41.783 301.83 37.291 297.068 33 292 C31.75 290.604 30.5 289.208 29.25 287.812 C23.79 281.557 22.02 277.045 21.75 268.812 C21.187 260.117 18.718 252.236 16 244 C15.671 242.984 15.343 241.968 15.004 240.922 C14.353 238.942 13.68 236.97 13 235 C12.34 235 11.68 235 11 235 C10.786 235.54 10.572 236.08 10.352 236.637 C8.514 239.851 6.003 242.249 3.375 244.812 C2.836 245.347 2.297 245.881 1.741 246.431 C-1.184 249.306 -4.165 252.054 -7.312 254.688 C-14.648 260.999 -20.381 268.401 -21.187 278.299 C-21.258 284.409 -20.392 289.666 -18.625 295.5 C-18.367 296.38 -18.109 297.26 -17.843 298.167 C-14.84 308.057 -11.068 317.663 -7.27 327.27 C-6.682 328.766 -6.682 328.766 -6.083 330.292 C-5.442 331.895 -4.783 333.492 -4.085 335.071 C-1.462 341.238 -1.093 347.627 -0.5 354.25 C0.871 369.37 4.765 382.805 9.768 397.061 C10.678 399.662 11.573 402.267 12.467 404.873 C15.372 413.248 18.481 421.455 22.23 429.492 C22.553 430.187 22.876 430.883 23.209 431.599 C27.62 440.768 34.592 445.568 42.701 451.207 C49.423 455.904 56.439 461.078 61 468 C61 468.66 61 469.32 61 470 C53.759 469.186 46.898 467.204 40 464.938 C39.182 464.687 38.365 464.437 37.522 464.179 C30.08 461.639 24.806 457.199 19 452 C18.106 451.211 17.212 450.423 16.292 449.61 C5.068 439.491 -3.87 430.353 -8.598 415.809 C-9.75 412.367 -10.873 410.071 -14 408 C-16.494 407.698 -16.494 407.698 -19 409 C-21.113 410.932 -22.943 412.793 -24.812 414.938 C-25.341 415.527 -25.869 416.116 -26.414 416.722 C-30.082 420.847 -33.542 425.114 -36.938 429.465 C-40.247 433.533 -43.832 437.34 -47.402 441.18 C-49.536 443.496 -51.593 445.846 -53.625 448.25 C-68.215 464.841 -88.577 469.343 -110 471 C-108.522 466.044 -105.676 463.251 -102.062 459.75 C-101.187 458.889 -101.187 458.889 -100.295 458.01 C-96.029 453.864 -91.554 450.078 -86.891 446.383 C-82.76 442.978 -78.883 439.322 -74.985 435.656 C-72.007 432.857 -69.012 430.122 -65.875 427.5 C-57.437 420.2 -50.15 411.404 -43.199 402.719 C-41.712 400.881 -40.193 399.068 -38.645 397.281 C-33.542 391.376 -28.981 385.283 -24.625 378.812 C-24.125 378.076 -23.625 377.34 -23.11 376.582 C-18.115 369.026 -14.213 361.914 -14.25 352.688 C-14.25 351.928 -14.249 351.168 -14.249 350.385 C-14.594 341.297 -18.284 333.485 -22.002 325.328 C-23.585 321.635 -24.808 317.834 -26 314 C-26.66 314 -27.32 314 -28 314 C-28 314.66 -28 315.32 -28 316 C-29.644 317.362 -31.315 318.69 -33 320 C-35.862 322.715 -38.474 325.54 -41 328.562 C-42.75 330.637 -44.297 332.236 -46.438 333.938 C-48.681 335.743 -50.315 337.443 -52.167 339.621 C-55.916 343.95 -59.856 348.051 -63.883 352.121 C-64.619 352.865 -65.355 353.609 -66.113 354.376 C-67.663 355.94 -69.215 357.502 -70.768 359.063 C-72.333 360.64 -73.894 362.221 -75.45 363.807 C-84.394 372.92 -93.04 381.36 -104 388 C-105.327 388.811 -105.327 388.811 -106.682 389.638 C-109.163 391.112 -111.666 392.534 -114.188 393.938 C-115.092 394.447 -115.997 394.957 -116.928 395.482 C-118.763 396.514 -120.599 397.543 -122.437 398.568 C-124.704 399.835 -126.966 401.111 -129.227 402.391 C-142.441 409.84 -155.875 416.887 -169.289 423.969 C-173.257 426.067 -177.207 428.195 -181.145 430.352 C-182.024 430.829 -182.904 431.307 -183.811 431.799 C-185.386 432.655 -186.956 433.52 -188.519 434.396 C-193.509 437.09 -193.509 437.09 -196.214 436.593 C-196.803 436.397 -197.393 436.202 -198 436 C-192.373 428.675 -185.382 423.414 -178 418 C-176.557 416.938 -175.115 415.875 -173.672 414.812 C-171.309 413.073 -168.945 411.335 -166.58 409.6 C-159.541 404.427 -152.589 399.146 -145.651 393.839 C-140.229 389.693 -134.784 385.581 -129.312 381.5 C-124.315 377.767 -119.384 373.973 -114.539 370.043 C-112.629 368.506 -110.71 366.991 -108.773 365.488 C-92.365 352.751 -76.97 339.026 -62.25 324.375 C-61.546 323.675 -60.841 322.976 -60.116 322.255 C-59.464 321.601 -58.812 320.947 -58.141 320.273 C-57.558 319.69 -56.976 319.107 -56.376 318.505 C-54.901 317.029 -54.901 317.029 -54 315 C-61.468 317.023 -68.925 319.085 -76.378 321.163 C-80.455 322.298 -84.535 323.413 -88.625 324.5 C-90.418 324.996 -92.209 325.497 -94 326 C-95.219 326.334 -96.439 326.668 -97.695 327.012 C-112.088 331.109 -124.221 337.758 -136 347 C-136.817 347.637 -137.635 348.274 -138.477 348.93 C-143.54 352.93 -143.54 352.93 -148.344 357.234 C-161.667 369.514 -179.756 376.651 -196.055 384.169 C-211.708 391.46 -225.981 400.343 -239.312 411.312 C-240.207 412.049 -241.102 412.785 -242.023 413.543 C-243.58 414.828 -245.135 416.114 -246.677 417.417 C-259.917 428.519 -274.684 436.201 -290 444 C-290.967 444.51 -291.934 445.021 -292.93 445.547 C-293.81 446.006 -294.691 446.465 -295.598 446.938 C-296.357 447.338 -297.116 447.739 -297.899 448.152 C-300 449 -300 449 -304 449 C-302.469 444.667 -299.168 442.606 -295.562 440.062 C-294.909 439.592 -294.256 439.121 -293.583 438.635 C-288.98 435.339 -284.301 432.159 -279.609 428.992 C-269.047 421.851 -260.464 415.128 -252.788 404.856 C-239.56 387.378 -218.554 379.141 -199.302 370.006 C-181.125 361.36 -168.577 354.461 -159.062 336.25 C-158.006 334.28 -156.948 332.311 -155.887 330.344 C-155.135 328.948 -155.135 328.948 -154.369 327.523 C-145.929 311.964 -134.142 302.192 -120 292 C-118.844 291.165 -118.844 291.165 -117.665 290.312 C-114.528 288.047 -111.39 285.783 -108.249 283.522 C-98.8 276.712 -90.498 269.814 -82.625 261.188 C-81.96 260.463 -81.96 260.463 -81.281 259.725 C-78.68 256.882 -76.126 254.005 -73.598 251.098 C-70.083 247.071 -66.475 243.142 -62.812 239.25 C-62.139 238.533 -61.466 237.817 -60.772 237.078 C-54.293 230.229 -47.63 223.569 -40.915 216.952 C-36.617 212.7 -32.473 208.391 -28.547 203.791 C-26.892 201.875 -25.172 200.032 -23.438 198.188 C-16.545 190.346 -12.833 182.204 -12.902 171.832 C-12.904 171.037 -12.905 170.242 -12.907 169.424 C-12.912 166.886 -12.925 164.35 -12.938 161.812 C-12.943 160.092 -12.947 158.371 -12.951 156.65 C-12.962 152.434 -12.979 148.217 -13 144 C-20.351 151.11 -24.956 159.555 -29.875 168.438 C-34.05 175.838 -38.253 182.698 -44 189 C-44.771 189.877 -45.542 190.753 -46.336 191.656 C-51.925 197.9 -57.776 203.874 -63.688 209.812 C-64.388 210.518 -65.089 211.223 -65.81 211.949 C-69.801 215.928 -73.901 219.706 -78.167 223.385 C-80.736 225.648 -83.108 228.05 -85.5 230.5 C-88.53 233.576 -91.58 236.58 -94.875 239.375 C-102.927 246.265 -110.478 253.98 -117.336 262.055 C-119.301 264.352 -121.337 266.579 -123.375 268.812 C-128.105 274.064 -132.595 279.475 -137 285 C-137.719 285.866 -138.439 286.733 -139.18 287.625 C-144.143 293.843 -147.831 300.241 -151.438 307.312 C-161.612 327.207 -174.589 344.872 -193 358 C-193.66 358 -194.32 358 -195 358 C-193.552 351.81 -189.907 347.636 -186.062 342.75 C-178.605 333.065 -171.483 322.965 -166 312 C-170.585 315.849 -174.858 319.864 -179 324.188 C-190.016 335.423 -203.098 343.791 -217 351 C-217.706 351.375 -218.413 351.75 -219.141 352.137 C-219.847 352.504 -220.553 352.871 -221.281 353.25 C-221.921 353.585 -222.561 353.92 -223.221 354.266 C-225 355 -225 355 -228 355 C-227.52 349.467 -225.454 345.912 -222.5 341.375 C-222.051 340.674 -221.603 339.973 -221.141 339.251 C-214.572 329.107 -207.227 319.855 -199 311 C-198.192 310.112 -197.384 309.224 -196.551 308.309 C-190.41 301.562 -184.167 294.916 -177.906 288.281 C-173.172 283.26 -168.494 278.193 -163.844 273.094 C-160.409 269.343 -156.921 265.643 -153.438 261.938 C-151.537 259.91 -149.637 257.882 -147.738 255.854 C-146.65 254.693 -145.561 253.534 -144.469 252.376 C-137.754 245.245 -131.228 237.924 -127 229 C-135.742 233.774 -143.297 239.75 -151 246 C-151.669 246.542 -152.339 247.083 -153.028 247.642 C-156.463 250.423 -159.892 253.21 -163.316 256.004 C-166.256 258.4 -169.215 260.769 -172.188 263.125 C-178.237 267.95 -184.121 272.97 -190 278 C-191.168 278.996 -191.168 278.996 -192.359 280.012 C-199.125 285.847 -205.261 291.835 -210.375 299.188 C-210.874 299.9 -211.373 300.612 -211.887 301.345 C-218.637 311.157 -224.651 321.448 -230.781 331.652 C-262.093 383.75 -262.093 383.75 -271.219 386.723 C-271.807 386.814 -272.394 386.906 -273 387 C-272.482 381.942 -270.73 378.189 -268.188 373.875 C-267.794 373.193 -267.401 372.51 -266.996 371.807 C-265.677 369.53 -264.341 367.264 -263 365 C-262.515 364.18 -262.029 363.36 -261.529 362.515 C-256.7 354.379 -251.81 346.284 -246.812 338.25 C-234.802 320.138 -234.802 320.138 -228 300 C-237.627 307.645 -245.913 315.452 -253.602 325.043 C-255.636 327.551 -257.721 330.002 -259.838 332.439 C-266.783 340.471 -273.024 348.982 -279.245 357.58 C-280.927 359.9 -282.624 362.209 -284.324 364.516 C-293.669 377.241 -302.217 390.426 -310.648 403.77 C-316.517 413.053 -322.364 422.24 -329 431 C-329.911 432.26 -330.819 433.522 -331.727 434.785 C-336.62 441.541 -341.624 448.001 -347.5 453.938 C-348.238 454.691 -348.238 454.691 -348.991 455.459 C-351.509 457.917 -353.432 459.605 -357 460 C-355.705 449.127 -347.853 440.243 -341.582 431.594 C-334.343 421.578 -327.77 411.101 -321.125 400.688 C-301.114 369.334 -280.102 338.722 -254.973 311.199 C-253.288 309.321 -251.704 307.403 -250.125 305.438 C-243.718 297.971 -235.324 292.465 -227.312 286.875 C-217.255 279.839 -209.581 272.727 -202 263 C-201.241 262.033 -200.481 261.066 -199.699 260.07 C-194.771 253.731 -189.996 247.288 -185.25 240.812 C-153.545 197.646 -153.545 197.646 -140 192 C-137.344 191.763 -134.839 191.64 -132.188 191.625 C-125.271 191.361 -120.483 190.312 -115 186 C-114.205 185.381 -113.409 184.762 -112.59 184.125 C-106.263 178.806 -101.331 172.626 -96.469 165.995 C-94.838 163.78 -93.184 161.582 -91.527 159.387 C-86.423 152.618 -81.328 145.844 -76.348 138.984 C-64.177 122.232 -51.206 104.912 -34 93 C-34.66 92.01 -35.32 91.02 -36 90 C-37.436 82.693 -36.11 77.484 -32.062 71.375 C-26.763 63.35 -26.83 55.387 -27 46 C-27.99 46 -28.98 46 -30 46 C-29.67 41.38 -29.34 36.76 -29 32 C-29.804 33.949 -29.804 33.949 -30.625 35.938 C-31.711 38.152 -31.711 38.152 -33 40 C-36.25 41 -36.25 41 -39 41 C-39.33 39.68 -39.66 38.36 -40 37 C-39.01 36.34 -38.02 35.68 -37 35 C-36.417 32.718 -36.417 32.718 -36.188 30.062 C-34.922 21.98 -31.275 14.393 -25 9 C-23.004 8.641 -21.005 8.305 -19 8 C-18.34 7.01 -17.68 6.02 -17 5 C-15.02 5.33 -13.04 5.66 -11 6 C-10.381 5.031 -9.762 4.061 -9.125 3.062 C-6.171 -1.195 -4.84 -1.498 0 0 Z " fill="#050505" transform="translate(483,298)"/>
<path d="M0 0 C4.499 0.495 6.57 2.034 9.812 5.125 C10.681 5.94 11.55 6.754 12.445 7.594 C13.288 8.388 14.131 9.182 15 10 C16.39 11.215 17.785 12.424 19.188 13.625 C22.352 16.377 25.304 19.28 28.238 22.273 C29.988 23.989 31.809 25.552 33.688 27.125 C37.425 30.333 40.697 33.858 44 37.5 C48.416 42.351 52.845 46.918 58 51 C58.724 51.597 59.449 52.194 60.195 52.809 C72.55 62.433 87.382 68.794 101.383 75.66 C104 77 104 77 107 79 C102.927 63.763 88.343 51.246 76.566 41.543 C75 40 75 40 74 37 C84.92 38.618 95.005 45.761 103 53 C103.92 53.781 104.841 54.562 105.789 55.367 C113.598 62.32 118.716 70.482 123.841 79.551 C131.256 92.499 141.799 102.021 153.312 111.312 C159.818 116.585 165.923 122.245 172 128 C172.839 128.785 173.678 129.57 174.543 130.379 C178.588 134.271 181.622 137.962 184.562 142.75 C189.25 149.467 195.571 150.637 203.083 152.489 C207.913 153.776 212.431 156.007 217 158 C218.58 158.657 220.161 159.312 221.742 159.965 C260.552 176.1 260.552 176.1 269 188 C261.686 187.6 256.162 185.047 249.625 181.875 C242.176 178.364 234.736 174.931 227.062 171.938 C226.373 171.663 225.684 171.389 224.973 171.107 C218.463 168.611 211.706 166.704 204.688 166.75 C203.487 166.742 203.487 166.742 202.262 166.734 C199.789 167.025 198.143 167.764 196 169 C196.427 171.99 196.976 173.96 198.562 176.562 C200 179 200 179 200 183 C196.087 182.472 194.016 181.55 191.125 178.875 C190.435 178.238 189.746 177.601 189.035 176.945 C188.364 176.303 187.692 175.661 187 175 C186.421 174.461 185.842 173.922 185.246 173.367 C180.841 169.136 177.09 164.461 173.266 159.707 C170.684 156.622 167.934 153.815 165.02 151.047 C163.317 149.321 161.843 147.578 160.32 145.699 C156.724 141.472 152.529 138.323 148.062 135.062 C147.194 134.421 146.326 133.78 145.431 133.12 C122.622 116.376 99.561 99.694 73.266 88.875 C64.03 85.053 57.242 78.409 50 71.688 C49.348 71.084 48.695 70.48 48.023 69.858 C39.145 61.497 31.857 52.833 25.562 42.375 C24.262 40.254 22.961 38.133 21.66 36.012 C21.036 34.986 20.413 33.96 19.77 32.904 C17.378 28.979 14.942 25.082 12.5 21.188 C12.106 20.555 11.711 19.923 11.305 19.272 C8.345 14.529 5.327 9.823 2.277 5.137 C1 3 1 3 0 0 Z " fill="#060506" transform="translate(560,576)"/>
<path d="M0 0 C3 1 3 1 4.605 3.957 C8.283 12.556 11.302 21.024 8.227 30.344 C5.433 36.333 1.334 40.959 -3.812 45.062 C-4.786 45.841 -5.759 46.62 -6.762 47.422 C-7.286 47.838 -7.809 48.253 -8.349 48.682 C-10.063 50.05 -11.761 51.437 -13.457 52.828 C-22.029 59.823 -30.892 66.277 -39.98 72.582 C-41.881 73.917 -43.757 75.279 -45.625 76.66 C-69.996 94.625 -69.996 94.625 -80 94 C-82 92 -82 92 -82.062 89.125 C-79.982 77.913 -70.685 68.694 -63.344 60.507 C-61.695 58.658 -60.1 56.766 -58.5 54.875 C-51.829 47.291 -44.547 40.185 -36.859 33.641 C-34.817 31.839 -32.911 29.941 -31 28 C-27.876 24.834 -24.641 21.883 -21.27 18.984 C-18.447 16.517 -15.694 13.978 -12.938 11.438 C-11.907 10.493 -10.875 9.549 -9.844 8.605 C-8.149 7.053 -6.46 5.495 -4.781 3.926 C-2.938 2.25 -2.938 2.25 0 0 Z " fill="#FBFBFB" transform="translate(478,496)"/>
<path d="M0 0 C5.362 1.484 8.486 5.069 12.25 8.938 C12.915 9.614 13.581 10.291 14.266 10.988 C23.962 20.953 31.781 31.878 39.582 43.32 C44.828 50.69 51.348 56.023 58.938 60.875 C77.655 73.148 87.74 93.545 98.549 112.483 C99.553 114.225 100.602 115.942 101.686 117.636 C103 120 103 120 103 123 C99.184 121.702 96.929 120.25 94.188 117.312 C91.592 114.61 88.98 112.053 86.125 109.625 C82.933 106.884 79.957 103.993 77 101 C73.47 97.433 69.872 94.042 66.062 90.777 C63.675 88.72 61.338 86.613 59 84.5 C56.052 81.843 53.102 79.188 50.125 76.562 C49.166 75.716 49.166 75.716 48.188 74.852 C46.556 73.471 44.882 72.14 43.188 70.836 C27.361 58.441 19.545 41.05 10.737 23.464 C9.184 20.367 7.616 17.277 6.039 14.191 C5.213 12.565 4.387 10.939 3.562 9.312 C3.191 8.583 2.82 7.854 2.437 7.103 C0 2.234 0 2.234 0 0 Z " fill="#070707" transform="translate(510,441)"/>
<path d="M0 0 C4.568 1.466 7.767 4.07 11.312 7.188 C11.884 7.683 12.456 8.178 13.045 8.689 C14.183 9.675 15.319 10.665 16.452 11.656 C17.757 12.789 19.083 13.898 20.414 15 C30.436 23.358 34.64 33.192 38.844 45.277 C43.585 58.839 48.019 70.244 59 80 C59.558 80.503 60.116 81.005 60.691 81.523 C62.777 83.37 64.888 85.184 67 87 C68.118 87.969 69.235 88.94 70.352 89.91 C71.267 90.705 71.267 90.705 72.201 91.516 C73.498 92.643 74.794 93.769 76.09 94.896 C79.212 97.605 82.344 100.299 85.52 102.945 C113.471 126.31 113.471 126.31 120 141 C120 142.32 120 143.64 120 145 C113.649 142.105 108.852 136.909 104 132 C100.165 128.12 96.148 124.541 92 121 C90.958 120.106 89.916 119.211 88.875 118.316 C86.493 116.271 84.109 114.228 81.723 112.188 C79.268 110.088 76.818 107.983 74.371 105.875 C69.068 101.31 63.755 96.774 58.312 92.375 C45.889 82.282 34.423 72.251 27.305 57.746 C26.958 57.047 26.612 56.347 26.255 55.627 C22.437 47.899 18.684 40.138 14.938 32.375 C13.594 29.591 12.249 26.807 10.902 24.023 C10.417 23.018 10.417 23.018 9.922 21.993 C8.291 18.624 6.638 15.269 4.946 11.931 C4.619 11.285 4.292 10.64 3.956 9.975 C3.059 8.209 2.156 6.446 1.252 4.682 C0 2 0 2 0 0 Z " fill="#090809" transform="translate(504,602)"/>
<path d="M0 0 C-1.294 9.65 -9.45 17.706 -15.641 24.857 C-23.657 34.167 -30.897 44.038 -37.363 54.48 C-50.094 74.078 -50.094 74.078 -59 76 C-57.092 68.497 -54.216 62.051 -50.438 55.312 C-49.906 54.354 -49.374 53.396 -48.827 52.409 C-39.988 36.666 -30.147 21.489 -16 10 C-14.79 8.939 -13.582 7.877 -12.375 6.812 C-4.375 0 -4.375 0 0 0 Z " fill="#F5F5F6" transform="translate(433,444)"/>
<path d="M0 0 C1.134 0.66 2.269 1.32 3.438 2 C8.024 4.33 11.947 4.421 17 4 C15.361 17.454 12.623 30.711 10 44 C7.69 43.67 5.38 43.34 3 43 C3.472 39.773 4.064 36.799 5.062 33.688 C6.183 29.28 7.009 25.492 6 21 C3.52 16.849 0.407 13.407 -3 10 C-2.669 6.193 -1.768 3.348 0 0 Z " fill="#F6F6F6" transform="translate(475,328)"/>
<path d="M0 0 C0.66 0 1.32 0 2 0 C3.22 1.477 4.438 2.959 5.586 4.492 C8.493 7.592 11.628 8.261 15.75 8.625 C16.549 8.7 17.348 8.775 18.172 8.852 C18.775 8.901 19.378 8.95 20 9 C18.528 19.787 16.313 30.368 14 41 C10.169 39.495 8.136 37.511 6 34 C5.919 31.339 6.001 28.998 6.25 26.375 C6.662 18.872 4.858 14.946 -0.25 9.234 C-2 7 -2 7 -2 3 C-1.34 2.01 -0.68 1.02 0 0 Z " fill="#F8F8F8" transform="translate(534,391)"/>
<path d="M0 0 C4.33 2.425 4.33 2.425 6 5 C6.037 9.146 4.981 12.99 4 17 C3.612 19.081 3.236 21.164 2.875 23.25 C2.584 24.834 2.293 26.417 2 28 C2.99 28 3.98 28 5 28 C5 28.66 5 29.32 5 30 C4.469 30.254 3.938 30.508 3.391 30.77 C0.307 32.272 -2.57 33.674 -5.312 35.75 C-7 37 -7 37 -10 37 C-11.23 34.953 -11.23 34.953 -12 32 C-10.892 29.359 -9.779 27.174 -8.312 24.75 C-7.552 23.413 -6.797 22.073 -6.047 20.73 C-5.687 20.088 -5.326 19.445 -4.955 18.783 C-1.75 12.8 -0.608 6.691 0 0 Z " fill="#EEEEEE" transform="translate(467,348)"/>
<path d="M0 0 C-1.607 4.477 -3.867 8.383 -6.312 12.438 C-6.691 13.08 -7.069 13.723 -7.459 14.385 C-10.861 20.054 -14.376 25.435 -20.188 28.875 C-20.862 29.285 -21.536 29.695 -22.23 30.117 C-24 31 -24 31 -26 31 C-26.673 24.181 -22.062 20.04 -18 15 C-5.567 0 -5.567 0 0 0 Z " fill="#F0F0F0" transform="translate(457,397)"/>
<path d="M0 0 C3.062 0.562 3.062 0.562 5.5 2.25 C7.062 4.562 7.062 4.562 7.125 7 C5.666 10.518 4.13 12.295 1.062 14.562 C-2.75 14.375 -2.75 14.375 -5.938 13.562 C-6.149 9.402 -6.279 6.473 -4.812 2.562 C-2.938 0.562 -2.938 0.562 0 0 Z " fill="#959694" transform="translate(546.9375,357.4375)"/>
<path d="M0 0 C2.375 1.812 2.375 1.812 4 4 C4.1 7.11 2.757 8.306 0.812 10.75 C-2 13 -2 13 -5.312 13.312 C-6.643 13.158 -6.643 13.158 -8 13 C-10.328 5.771 -10.328 5.771 -8.75 2.062 C-5.849 -1.357 -4.171 -1.291 0 0 Z " fill="#1B1C1C" transform="translate(483,298)"/>
<path d="M0 0 C1.32 0.66 2.64 1.32 4 2 C3.547 4.448 2.994 6.009 1.571 8.081 C-0.518 11.963 -1.106 15.701 -1.824 20.02 C-1.975 20.878 -2.126 21.737 -2.282 22.621 C-2.76 25.35 -3.224 28.081 -3.688 30.812 C-4.01 32.669 -4.334 34.525 -4.658 36.381 C-5.45 40.919 -6.228 45.459 -7 50 C-7.66 50 -8.32 50 -9 50 C-7.784 40.627 -6.204 31.36 -4.409 22.082 C-3.354 16.49 -2.679 11.002 -2.346 5.319 C-2 3 -2 3 0 0 Z " fill="#777677" transform="translate(494,321)"/>
<path d="M0 0 C3.188 0.312 3.188 0.312 5.625 2 C7.188 4.312 7.188 4.312 6.938 7.062 C6.69 7.805 6.442 8.548 6.188 9.312 C3.861 8.796 1.779 8.147 -0.438 7.25 C-2.697 6.19 -2.697 6.19 -4.812 6.312 C-3.754 0.417 -3.754 0.417 0 0 Z " fill="#101010" transform="translate(546.8125,357.6875)"/>
<path d="M0 0 C1.98 0 3.96 0 6 0 C6 0.66 6 1.32 6 2 C7.32 2.33 8.64 2.66 10 3 C9.34 4.65 8.68 6.3 8 8 C6.02 8 4.04 8 2 8 C1.34 5.36 0.68 2.72 0 0 Z " fill="#828584" transform="translate(473,303)"/>
<path d="M0 0 C1.32 0.66 2.64 1.32 4 2 C3.688 4.375 3.688 4.375 3 7 C2.01 7.66 1.02 8.32 0 9 C-0.186 8.072 -0.186 8.072 -0.375 7.125 C-0.872 4.809 -0.872 4.809 -3 3 C-2.01 2.01 -1.02 1.02 0 0 Z " fill="#898985" transform="translate(556,390)"/>
<path d="M0 0 C0.33 0 0.66 0 1 0 C0.67 2.97 0.34 5.94 0 9 C-0.99 9 -1.98 9 -3 9 C-3 5.306 -1.718 3.222 0 0 Z " fill="#C5C5C5" transform="translate(454,329)"/>
<path d="M0 0 C0 1.65 0 3.3 0 5 C-1.98 5.99 -1.98 5.99 -4 7 C-4.33 5.68 -4.66 4.36 -5 3 C-1.125 0 -1.125 0 0 0 Z " fill="#807F7F" transform="translate(448,332)"/>
<path d="M0 0 C1.98 0.99 1.98 0.99 4 2 C3.688 3.875 3.688 3.875 3 6 C2.01 6.66 1.02 7.32 0 8 C0 5.36 0 2.72 0 0 Z " fill="#848481" transform="translate(494,321)"/>
<path d="M0 0 C3.366 1.443 5.51 3.333 8 6 C7.67 6.99 7.34 7.98 7 9 C5.83 7.69 4.664 6.377 3.5 5.062 C2.85 4.332 2.201 3.601 1.531 2.848 C0 1 0 1 0 0 Z " fill="#DFDFDF" transform="translate(522,404)"/>
<path d="M0 0 C2.64 0.33 5.28 0.66 8 1 C7.67 1.66 7.34 2.32 7 3 C4.69 2.67 2.38 2.34 0 2 C0 1.34 0 0.68 0 0 Z " fill="#767473" transform="translate(541,369)"/>
</svg>