<svg version="1.1" xmlns="http://www.w3.org/2000/svg" width="1024" height="1024">
<path d="M0 0 C337.92 0 675.84 0 1024 0 C1024 337.92 1024 675.84 1024 1024 C686.08 1024 348.16 1024 0 1024 C0 686.08 0 348.16 0 0 Z " fill="#FEFEFE" transform="translate(0,0)"/>
<path d="M0 0 C4.4 1.706 7.761 1.573 12.398 1.328 C21.268 1.102 27.516 2.297 34.711 7.766 C36.586 10.391 36.586 10.391 37.211 13.453 C36.395 17.289 34.804 18.299 31.586 20.391 C33.13 24.159 35.442 26.321 38.398 29.078 C61.596 51.519 76.269 81.248 88.416 110.652 C90.623 115.818 91.961 117.936 96.836 120.953 C112.745 131.217 127.052 143.978 140.893 156.841 C142.167 158.007 143.453 159.16 144.746 160.305 C151.117 165.961 157.201 171.85 163.21 177.884 C164.779 179.458 166.353 181.027 167.928 182.596 C172.828 187.493 177.634 192.43 182.139 197.698 C184.184 200.091 186.325 202.391 188.461 204.703 C192.554 209.191 196.439 213.8 200.25 218.527 C202.303 221.044 204.401 223.515 206.521 225.976 C212.684 233.146 218.38 240.609 223.984 248.222 C225.633 250.455 227.298 252.675 228.965 254.895 C242.754 273.317 255.138 292.434 266.586 312.391 C267.034 313.165 267.482 313.939 267.944 314.736 C281.117 337.532 291.67 360.989 298.586 386.391 C298.908 387.547 299.23 388.703 299.562 389.895 C304.199 407.898 304.199 407.898 300.5 414.258 C297.335 416.131 295.216 415.859 291.586 415.391 C288.425 414.001 285.561 412.237 282.648 410.391 C281.869 409.914 281.09 409.437 280.287 408.945 C278.378 407.774 276.478 406.589 274.586 405.391 C281.866 418.979 289.268 432.467 297.058 445.769 C299.42 449.822 301.751 453.892 304.087 457.959 C313.476 474.294 323.058 490.477 333.153 506.386 C340.407 517.824 347.518 529.328 354.148 541.141 C354.775 542.249 354.775 542.249 355.415 543.379 C359.125 550.074 361.99 556.603 360.586 564.391 C358.866 567.459 356.778 569.794 353.586 571.391 C343.044 572.586 336.741 568.507 328.586 562.391 C328.71 563.907 328.71 563.907 328.836 565.453 C328.479 571.067 326.702 574.462 322.461 578.328 C315.625 580.855 310.243 579.966 303.728 576.98 C295.831 573.08 289.054 568.406 282.586 562.391 C281.747 561.62 280.908 560.849 280.043 560.055 C256.125 537.138 238.741 504.28 222.23 475.906 C218.965 470.306 215.615 464.758 212.273 459.203 C206.765 450.044 201.298 440.862 195.885 431.646 C193.17 427.031 190.401 422.471 187.473 417.987 C186.586 416.391 186.586 416.391 186.586 414.391 C185.321 414.425 185.321 414.425 184.031 414.461 C182.936 414.479 181.84 414.497 180.711 414.516 C179.62 414.539 178.53 414.562 177.406 414.586 C174.586 414.391 174.586 414.391 172.586 412.391 C172.586 410.453 172.586 410.453 173.586 408.391 C176.455 406.452 179.019 405.476 182.441 404.961 C188.84 403.975 188.84 403.975 193.59 399.883 C195.178 396.77 196.431 393.688 197.586 390.391 C198.073 389.178 198.073 389.178 198.57 387.941 C200.694 382.041 201.031 376.139 201.208 369.923 C201.335 366.266 201.594 363.511 203.586 360.391 C204.576 360.391 205.566 360.391 206.586 360.391 C210.793 367.8 209.642 379.58 207.863 387.684 C205.905 392.799 202.949 397.094 199.586 401.391 C208.134 400.112 216.8 398.283 224.586 394.391 C229.43 394.229 233.815 394.436 238.586 395.391 C239.455 394.151 240.306 392.899 241.148 391.641 C241.624 390.945 242.1 390.248 242.59 389.531 C243.764 387.487 243.764 387.487 243.383 385.448 C242.357 382.799 241.136 381.957 238.824 380.324 C238.042 379.762 237.26 379.2 236.454 378.62 C235.61 378.029 234.767 377.437 233.898 376.828 C232.151 375.573 230.405 374.317 228.66 373.059 C227.796 372.438 226.931 371.817 226.041 371.177 C222.699 368.745 219.445 366.214 216.211 363.641 C215.086 362.747 213.961 361.854 212.836 360.961 C212.296 360.532 211.756 360.103 211.199 359.661 C208.56 357.582 205.883 355.552 203.211 353.516 C197.584 349.215 192.087 344.765 186.605 340.282 C182.244 336.722 177.841 333.223 173.398 329.766 C167.694 325.318 162.16 320.697 156.66 316 C153.879 313.628 151.052 311.316 148.211 309.016 C138.196 300.855 128.512 292.305 118.988 283.578 C116.919 281.694 114.827 279.846 112.711 278.016 C105.003 271.309 97.449 264.386 90.308 257.078 C88.546 255.352 86.714 253.758 84.836 252.16 C80.77 248.62 77.056 244.847 73.398 240.891 C72.753 240.193 72.107 239.496 71.441 238.778 C69.483 236.654 67.535 234.523 65.586 232.391 C65.022 231.782 64.458 231.173 63.876 230.546 C43.894 208.909 21.2 178.244 21.352 147.387 C21.66 143.443 22.704 140.84 24.586 137.391 C23.472 137.308 22.358 137.226 21.211 137.141 C16.689 136.6 12.843 135.038 8.688 133.23 C6.654 132.267 6.654 132.267 4.586 132.391 C5.906 133.381 7.226 134.371 8.586 135.391 C8.256 136.381 7.926 137.371 7.586 138.391 C2.559 139.566 -2.109 140.524 -7.289 140.266 C-10.786 140.109 -10.786 140.109 -13.539 142.328 C-14.158 143.009 -14.777 143.689 -15.414 144.391 C-17.736 144.798 -20.071 145.135 -22.414 145.391 C-23.404 146.051 -24.394 146.711 -25.414 147.391 C-28.602 147.516 -28.602 147.516 -31.414 147.391 C-31.682 147.989 -31.95 148.587 -32.227 149.203 C-33.471 151.495 -34.29 152.874 -36.414 154.391 C-40.492 154.815 -41.945 154.703 -45.414 152.391 C-45.824 152.957 -46.234 153.522 -46.656 154.105 C-47.195 154.839 -47.734 155.572 -48.289 156.328 C-48.823 157.059 -49.356 157.79 -49.906 158.543 C-51.414 160.391 -51.414 160.391 -53.414 161.391 C-56.086 161.525 -58.737 161.434 -61.414 161.391 C-61.754 162.535 -61.754 162.535 -62.102 163.703 C-63.748 167.075 -64.973 167.938 -68.414 169.391 C-72.227 169.578 -72.227 169.578 -75.414 169.391 C-75.785 170.597 -75.785 170.597 -76.164 171.828 C-77.414 174.391 -77.414 174.391 -79.352 175.328 C-81.414 175.391 -81.414 175.391 -84.414 173.391 C-84.971 174.071 -85.528 174.752 -86.102 175.453 C-87.246 176.412 -87.246 176.412 -88.414 177.391 C-90.977 177.141 -90.977 177.141 -93.414 176.391 C-94.404 176.391 -95.394 176.391 -96.414 176.391 C-96.888 176.906 -97.363 177.422 -97.852 177.953 C-98.367 178.428 -98.883 178.902 -99.414 179.391 C-101.806 179.159 -103.371 178.414 -105.477 177.266 C-107.558 176.062 -107.558 176.062 -110.414 177.391 C-112.139 190.515 -112.634 203.546 -112.664 216.766 C-112.669 217.525 -112.674 218.285 -112.679 219.068 C-112.735 229.363 -112.073 239.208 -110.414 249.391 C-110.289 250.19 -110.165 250.989 -110.036 251.812 C-104.566 284.42 -88.083 315.66 -66.414 340.391 C-65.722 341.192 -65.03 341.994 -64.316 342.82 C-62.058 345.386 -59.751 347.896 -57.414 350.391 C-56.727 351.129 -56.727 351.129 -56.025 351.882 C-31.377 378.143 0.784 394.578 33.586 408.391 C34.196 407.74 34.806 407.09 35.435 406.42 C37.586 404.391 37.586 404.391 40.004 403.922 C43.324 404.525 45.204 405.879 47.898 407.891 C48.781 408.54 49.664 409.19 50.574 409.859 C51.238 410.365 51.902 410.87 52.586 411.391 C53.555 410.71 54.525 410.029 55.523 409.328 C60.019 406.767 63.68 407.133 68.586 408.391 C69.782 408.906 70.978 409.422 72.211 409.953 C76.067 411.596 78.432 411.836 82.586 411.391 C84.932 410.42 87.266 409.422 89.586 408.391 C92.273 407.953 92.273 407.953 94.586 408.391 C95.919 409.724 97.253 411.057 98.586 412.391 C101.683 412.491 102.754 411.243 105.086 409.203 C107.57 406.409 109.581 403.541 111.586 400.391 C112.586 399.391 112.586 399.391 114.898 399.328 C116.229 399.359 116.229 399.359 117.586 399.391 C121.416 399.802 121.416 399.802 123.262 398.078 C123.802 397.521 124.342 396.964 124.898 396.391 C127.676 393.864 128.426 393.415 132.336 392.828 C135.586 393.391 135.586 393.391 137.523 394.516 C139.208 397.488 139.236 399.011 138.586 402.391 C135.489 406.376 131.637 409.424 127.586 412.391 C139.724 412.766 151.9 412.914 163.359 408.266 C165.921 407.259 167.047 407.45 169.586 408.391 C169.961 410.641 169.961 410.641 169.586 413.391 C160.276 422.168 144.642 422.564 132.586 422.516 C131.627 422.519 130.668 422.523 129.68 422.527 C125.555 422.522 122.003 422.495 117.98 421.488 C112.565 421.332 109.409 424.464 105.273 427.703 C104.463 428.311 103.653 428.919 102.818 429.545 C99.936 431.722 97.142 433.835 94.586 436.391 C94.563 438.612 94.563 438.612 94.961 441.016 C95.072 441.833 95.183 442.65 95.297 443.492 C95.392 444.119 95.488 444.745 95.586 445.391 C102.023 445.519 108.46 445.606 114.897 445.665 C117.082 445.69 119.265 445.724 121.449 445.768 C142.139 446.283 142.139 446.283 160.523 437.578 C164.217 434.94 166.14 434.707 170.586 435.391 C172.593 436.923 173.453 437.878 174.09 440.336 C174.272 447.124 172.139 451.408 167.586 456.391 C152.917 469.529 133.782 472.592 114.863 472.488 C113.384 472.486 113.384 472.486 111.875 472.484 C108.758 472.478 105.641 472.466 102.523 472.453 C100.396 472.448 98.27 472.444 96.143 472.439 C90.957 472.428 85.771 472.411 80.586 472.391 C81.01 473.415 81.01 473.415 81.443 474.459 C81.81 475.357 82.177 476.255 82.555 477.18 C82.92 478.069 83.286 478.958 83.662 479.874 C84.789 482.945 85.201 485.159 84.586 488.391 C83.148 490.828 83.148 490.828 80.586 492.391 C73.884 493.049 68.741 490.415 63.586 486.391 C60.221 483.332 57.268 480.066 54.586 476.391 C54.586 475.731 54.586 475.071 54.586 474.391 C53.926 474.391 53.266 474.391 52.586 474.391 C52.609 475.161 52.632 475.932 52.656 476.727 C52.674 477.729 52.692 478.732 52.711 479.766 C52.734 480.763 52.757 481.761 52.781 482.789 C52.586 485.391 52.586 485.391 50.586 487.391 C47.773 487.828 47.773 487.828 44.586 487.391 C40.288 484.036 36.898 479.339 34.586 474.391 C34.586 473.071 34.586 471.751 34.586 470.391 C33.432 470.411 32.279 470.432 31.09 470.453 C23.886 470.453 16.707 469.879 9.523 469.391 C8.071 469.294 6.619 469.198 5.166 469.102 C1.639 468.868 -1.888 468.63 -5.414 468.391 C-5.09 469.329 -4.766 470.268 -4.433 471.235 C-3.517 474.072 -3.117 476.19 -3.102 479.141 C-3.085 479.899 -3.068 480.657 -3.051 481.438 C-3.171 482.082 -3.291 482.727 -3.414 483.391 C-7.169 485.894 -8.962 485.843 -13.414 485.391 C-17.165 483.44 -19.225 481.639 -21.789 478.266 C-25.245 474.48 -27.468 474.364 -32.414 473.391 C-33.074 472.731 -33.734 472.071 -34.414 471.391 C-36.064 473.371 -37.714 475.351 -39.414 477.391 C-42.896 477.1 -44.156 476.663 -46.602 474.078 C-50.414 468.425 -50.414 468.425 -50.414 464.391 C-51.178 464.437 -51.943 464.483 -52.73 464.531 C-69.54 465.098 -83.863 459.916 -96.285 448.77 C-99.399 445.29 -101.22 441.976 -101.789 437.328 C-101.357 433.943 -100.453 432.109 -98.414 429.391 C-94.36 426.688 -91.177 426.491 -86.414 427.391 C-84.191 428.673 -82.354 430.139 -80.395 431.793 C-71.447 439.011 -60.517 439.56 -49.459 438.759 C-47.246 438.507 -47.246 438.507 -45.148 436.816 C-43.749 434.785 -43.749 434.785 -42.648 432.559 C-39.616 427.233 -32.41 423.784 -26.715 421.855 C-19.071 420.311 -11.747 421.044 -4.414 423.391 C2.156 424.056 7.038 421.96 12.961 419.453 C13.875 419.08 14.789 418.707 15.73 418.322 C19.955 416.837 19.955 416.837 23.586 414.391 C22.36 413.964 21.134 413.537 19.871 413.098 C-2.716 405.002 -23.35 393.969 -42.414 379.391 C-43 378.946 -43.585 378.501 -44.189 378.043 C-61.045 365.048 -76.553 349.054 -88.414 331.391 C-89.4 329.937 -89.4 329.937 -90.406 328.453 C-92.142 325.8 -93.793 323.115 -95.414 320.391 C-96.381 318.778 -96.381 318.778 -97.367 317.133 C-102.279 308.818 -106.66 300.292 -110.414 291.391 C-110.744 290.608 -111.075 289.824 -111.415 289.018 C-125.816 254.092 -128.317 213.194 -118.659 176.524 C-117.238 171.389 -117.238 171.389 -118.385 166.407 C-119.321 165.15 -120.259 163.895 -121.199 162.643 C-124.257 156.975 -122.951 149.273 -122.863 143.008 C-122.916 133.369 -124.99 125.942 -130.062 117.719 C-131.673 114.945 -131.729 113.254 -131.602 110.078 C-131.561 108.754 -131.561 108.754 -131.52 107.402 C-131.485 106.738 -131.45 106.075 -131.414 105.391 C-132.358 105.209 -132.358 105.209 -133.32 105.023 C-134.176 104.856 -135.032 104.688 -135.914 104.516 C-136.749 104.353 -137.585 104.191 -138.445 104.023 C-140.658 103.552 -142.852 102.988 -145.031 102.379 C-150.302 101.044 -155.63 100.809 -161.039 100.453 C-187.527 98.451 -187.527 98.451 -193.414 92.391 C-194.289 89.516 -194.289 89.516 -193.414 86.391 C-182.952 74.041 -157.292 69.863 -142.414 68.391 C-140.081 68.362 -137.747 68.356 -135.414 68.391 C-135.435 67.566 -135.455 66.741 -135.477 65.891 C-135.189 49.803 -126.958 37.122 -115.922 25.844 C-109.366 19.573 -102.323 14.797 -94.414 10.391 C-93.436 9.845 -92.457 9.3 -91.449 8.738 C-66.744 -4.294 -26.46 -12.473 0 0 Z " fill="#060607" transform="translate(446.4140625,224.609375)"/>
<path d="M0 0 C1.895 -0.024 1.895 -0.024 3.828 -0.049 C13.027 -0.054 21.998 0.779 30.556 4.391 C33.174 5.378 35.19 5.594 37.977 5.656 C38.894 5.686 39.812 5.716 40.758 5.746 C42.677 5.791 44.596 5.835 46.516 5.879 C47.431 5.909 48.346 5.938 49.289 5.969 C50.537 5.997 50.537 5.997 51.811 6.025 C54 6.312 54 6.312 57 8.312 C55.02 9.632 53.04 10.952 51 12.312 C51.504 16.75 52.967 18.839 56 22.062 C56.817 22.939 57.635 23.816 58.477 24.719 C60.738 27.044 63.044 29.307 65.375 31.562 C85.486 51.534 102.332 79.397 111 106.312 C111 107.303 111 108.293 111 109.312 C109.35 109.312 107.7 109.312 106 109.312 C106.364 111.873 106.661 113.025 108.667 114.725 C109.382 115.15 110.096 115.574 110.832 116.012 C111.625 116.494 112.417 116.976 113.234 117.473 C114.085 117.977 114.936 118.481 115.812 119 C117.563 120.072 119.312 121.147 121.059 122.227 C121.911 122.753 122.762 123.279 123.64 123.821 C136.866 132.179 148.624 142.981 160.051 153.609 C162.214 155.614 164.428 157.548 166.663 159.471 C171.058 163.312 175.211 167.362 179.34 171.484 C180.106 172.247 180.873 173.011 181.662 173.797 C183.273 175.402 184.882 177.009 186.49 178.617 C188.922 181.047 191.362 183.469 193.803 185.891 C200.99 193.053 208.026 200.152 214.296 208.143 C216.511 210.964 218.904 213.526 221.375 216.125 C227.345 222.535 232.682 229.359 238 236.312 C239.264 237.954 240.529 239.596 241.793 241.238 C254.066 257.219 266.094 273.361 277 290.312 C277.839 291.616 277.839 291.616 278.695 292.945 C291.776 313.349 303.431 334.032 313 356.312 C312.34 356.642 311.68 356.973 311 357.312 C310.198 356.075 310.198 356.075 309.379 354.812 C306.734 350.849 303.844 347.086 300.938 343.312 C300.365 342.568 299.793 341.823 299.204 341.056 C297.472 338.806 295.737 336.558 294 334.312 C293.505 333.671 293.01 333.03 292.5 332.369 C283.53 320.774 274.176 309.591 264.262 298.789 C262.331 296.675 260.437 294.539 258.562 292.375 C248.427 280.741 238.073 269.294 225.934 259.711 C223.469 257.696 221.111 255.624 218.75 253.492 C214.199 249.426 209.457 245.704 204.562 242.062 C203.704 241.422 202.846 240.782 201.962 240.122 C196.149 235.82 190.256 231.654 184.25 227.625 C183.537 227.145 182.823 226.664 182.088 226.169 C174.144 220.827 174.144 220.827 165.188 217.812 C162.813 218.136 162.813 218.136 161.188 220.312 C160.6 221.303 160.6 221.303 160 222.312 C150.99 220.935 140.496 211.153 135 204.312 C132.802 201.13 130.686 197.895 128.675 194.591 C126.017 190.348 123.501 187.768 119 185.312 C116.288 184.893 116.288 184.893 114 185.312 C113.67 185.643 113.34 185.972 113 186.312 C113.151 190.415 113.321 192.61 116.223 195.613 C117.16 196.277 118.097 196.941 119.062 197.625 C122.997 200.61 126.137 203.44 129.125 207.375 C136.428 216.901 147.095 226.251 159.121 229.035 C161.444 229.269 163.669 229.398 166 229.312 C166.33 228.653 166.66 227.993 167 227.312 C171.871 228.859 175.249 231.675 179.125 234.875 C180.117 235.683 180.117 235.683 181.13 236.507 C182.467 237.597 183.803 238.69 185.136 239.785 C186.762 241.118 188.4 242.437 190.039 243.754 C195.693 248.308 201.109 253.067 206.453 257.98 C208.589 259.937 210.748 261.854 212.938 263.75 C221.471 271.197 229.703 278.907 237.75 286.875 C238.466 287.578 239.182 288.281 239.92 289.006 C240.911 289.995 240.911 289.995 241.922 291.004 C242.516 291.594 243.11 292.184 243.722 292.791 C245 294.312 245 294.312 245 296.312 C245.99 296.642 246.98 296.973 248 297.312 C249.332 298.633 249.332 298.633 250.812 300.438 C254.376 304.644 258.102 308.671 261.875 312.688 C274.135 325.781 285.924 339.199 297 353.312 C297.52 353.974 298.04 354.636 298.576 355.318 C305.546 364.202 312.466 373.1 319 382.312 C318.67 382.973 318.34 383.632 318 384.312 C308.132 373.937 299.164 363.031 290.438 351.688 C280.441 338.787 269.479 326.641 257.852 315.199 C256 313.313 256 313.313 253.938 310.688 C245.572 300.433 233.218 292.435 222.875 284.25 C218.243 280.566 213.791 276.689 209.323 272.811 C205.555 269.568 201.705 266.552 197.688 263.625 C193.854 260.825 190.524 257.936 187.25 254.5 C181.793 248.908 176.904 246.848 169.443 244.668 C168.76 244.468 168.078 244.269 167.375 244.062 C166.688 243.861 166.001 243.66 165.294 243.453 C157.153 240.939 149.491 236.864 142.797 231.57 C140.956 230.026 140.956 230.026 138 230.312 C139.179 237.386 146.763 241.195 152.226 245.128 C153.991 246.387 155.761 247.637 157.535 248.883 C158.1 249.281 158.664 249.679 159.245 250.089 C160.466 250.94 161.696 251.778 162.932 252.606 C166.976 255.362 168.632 257.404 170.59 261.871 C175.196 269.846 183.014 276.784 190.02 282.648 C192.343 284.6 194.572 286.641 196.812 288.688 C200.232 291.779 203.72 294.737 207.312 297.625 C213.282 302.456 218.866 307.655 224.476 312.893 C229.988 318.027 235.581 323.012 241.438 327.75 C246.271 331.662 250.877 335.773 255.453 339.98 C257.589 341.937 259.748 343.854 261.938 345.75 C265.967 349.246 269.883 352.861 273.789 356.494 C275.913 358.458 278.012 360.321 280.359 362.016 C280.901 362.444 281.442 362.872 282 363.312 C282 363.973 282 364.632 282 365.312 C284.016 366.35 286.009 367.316 288.121 368.145 C296.848 371.838 302.648 378.513 309 385.312 C305.146 385.312 304 384.104 300.938 381.812 C299.95 381.075 298.963 380.338 297.945 379.578 C294.539 376.958 291.191 374.274 287.852 371.57 C284.345 368.794 280.772 366.113 277.188 363.438 C266.519 355.471 255.989 347.339 245.535 339.094 C243.197 337.25 240.85 335.418 238.496 333.594 C231.993 328.543 225.674 323.348 219.468 317.938 C214.893 313.989 210.142 310.319 205.312 306.688 C199.403 302.241 193.877 297.636 188.477 292.578 C185.269 289.644 181.878 286.989 178.461 284.305 C175.032 281.529 171.804 278.552 168.547 275.578 C166.03 273.339 163.445 271.228 160.812 269.125 C154.267 263.819 148.184 258.058 142.069 252.269 C139.888 250.207 137.699 248.153 135.508 246.102 C134.005 244.693 132.503 243.284 131 241.875 C130.306 241.225 129.613 240.575 128.898 239.906 C117.395 229.09 117.395 229.09 112.625 223.5 C110.803 221.376 108.973 219.284 107.051 217.25 C89.005 198.037 66.237 167.849 64.438 140.438 C64.734 135.668 66.426 132.469 70 129.312 C72.835 127.635 75.684 126.156 78.672 124.77 C81.166 123.534 81.166 123.534 81.828 121.137 C81.885 120.535 81.942 119.933 82 119.312 C74.502 118.479 69.963 120.819 64 125.312 C61.54 127.881 61.54 127.881 60 130.312 C59.34 130.972 58.68 131.632 58 132.312 C55.768 131.718 53.54 131.111 51.312 130.5 C50.071 130.164 48.83 129.827 47.551 129.48 C44.298 128.411 41.864 127.143 39 125.312 C37.015 124.601 35.018 123.923 33 123.312 C33 120.312 33 120.312 34.438 118.688 C36.19 116.023 36.181 114.864 36.312 111.75 C36.488 109.371 36.488 109.371 37 107.312 C40 105.312 40 105.312 43 104.312 C44.438 103.098 44.438 103.098 44.188 99.5 C44.159 96.277 43.83 94.057 42 91.312 C39.133 91.344 39.133 91.344 36 92.312 C33.595 95.252 33.595 95.252 32 98.312 C30.515 97.817 30.515 97.817 29 97.312 C24.44 96.783 24.44 96.783 20.246 98.359 C18.064 100.147 16.271 101.77 15 104.312 C13.18 104.551 13.18 104.551 10.875 104.625 C5.824 105.122 2.406 106.464 -1 110.312 C-1.819 112.02 -2.587 113.751 -3.312 115.5 C-4.484 118.152 -4.484 118.152 -6 120.312 C-8.605 121.27 -10.94 121.55 -13.695 121.824 C-16.394 122.14 -16.394 122.14 -18.438 125.375 C-18.953 126.344 -19.469 127.314 -20 128.312 C-24.775 129.904 -29.527 130.541 -34.175 128.232 C-39.678 124.498 -44.157 120.348 -48.688 115.5 C-56.537 107.361 -64.764 101.232 -75 96.312 C-74.497 95.293 -74.497 95.293 -73.984 94.254 C-72.794 90.697 -73.011 87.981 -73.25 84.25 C-73.316 80.516 -73.316 80.516 -73 77.312 C-69.851 74.163 -66.58 72.489 -62.062 72.18 C-61.042 72.184 -61.042 72.184 -60 72.188 C-59.319 72.185 -58.639 72.182 -57.938 72.18 C-56 72.312 -56 72.312 -53 73.312 C-46.094 74.105 -37.655 75.015 -31.25 72.031 C-29.245 70.253 -27.644 68.427 -26 66.312 C-21.085 61.025 -16.828 56.849 -10 54.312 C-9.027 53.941 -8.054 53.57 -7.051 53.188 C6.593 48.624 20.894 47.981 33.969 54.473 C41.054 58.773 46.617 63.664 50 71.312 C50 72.632 50 73.952 50 75.312 C48 77.063 48 77.063 46 78.312 C46.206 79.591 46.413 80.87 46.625 82.188 C46.977 84.367 46.977 84.367 47 86.312 C46.34 86.972 45.68 87.632 45 88.312 C44.833 91.396 44.833 91.396 45 94.312 C46.98 93.653 48.96 92.993 51 92.312 C51.21 88.172 51.21 88.172 50 84.312 C50.99 83.879 51.98 83.446 53 83 C55.295 81.457 55.913 80.672 56.574 77.949 C56.94 69.042 53.762 62.028 47.812 55.5 C38.143 46.605 25.246 43.785 12.5 43.938 C11.532 43.926 10.564 43.914 9.566 43.902 C3.695 43.926 -1.237 44.698 -6.771 46.682 C-12.129 48.198 -17.2 46.673 -22.25 44.75 C-28.915 42.412 -36.152 41.997 -42.879 44.297 C-45.371 45.5 -47.674 46.817 -50 48.312 C-50.908 48.849 -51.815 49.385 -52.75 49.938 C-55.129 52.448 -56.017 54.498 -57.438 57.625 C-61.186 64.983 -67.536 67.596 -75 70.312 C-75.99 70.312 -76.98 70.312 -78 70.312 C-79.052 69.168 -79.052 69.168 -80.125 68 C-83.765 64.598 -87.265 63.581 -92 62.312 C-92.863 51.96 -89.104 43.14 -82.566 35.16 C-82.049 34.55 -81.533 33.941 -81 33.312 C-80.535 32.692 -80.069 32.072 -79.59 31.434 C-65.296 13.338 -40.71 3.921 -18.555 0.703 C-12.37 0.024 -6.216 -0.016 0 0 Z " fill="#1D88C9" transform="translate(413,230.6875)"/>
<path d="M0 0 C5.785 4.114 10.117 8.482 13 15 C13 16.32 13 17.64 13 19 C11 20.75 11 20.75 9 22 C9.402 23.825 9.402 23.825 9.812 25.688 C10.26 29.297 10.162 29.77 7.938 32.938 C5 35 5 35 1.938 35.438 C-1.329 35.728 -1.329 35.728 -3.375 39.062 C-3.911 40.032 -4.447 41.001 -5 42 C-6.485 41.505 -6.485 41.505 -8 41 C-12.56 40.47 -12.56 40.47 -16.754 42.047 C-18.936 43.834 -20.729 45.458 -22 48 C-23.82 48.238 -23.82 48.238 -26.125 48.312 C-31.176 48.81 -34.594 50.152 -38 54 C-38.819 55.707 -39.587 57.439 -40.312 59.188 C-41.484 61.84 -41.484 61.84 -43 64 C-45.605 64.958 -47.94 65.238 -50.695 65.512 C-53.394 65.828 -53.394 65.828 -55.438 69.062 C-55.953 70.032 -56.469 71.001 -57 72 C-61.775 73.592 -66.527 74.229 -71.175 71.919 C-76.678 68.186 -81.157 64.035 -85.688 59.188 C-93.537 51.048 -101.764 44.919 -112 40 C-111.497 38.981 -111.497 38.981 -110.984 37.941 C-109.794 34.385 -110.011 31.669 -110.25 27.938 C-110.316 24.203 -110.316 24.203 -110 21 C-106.851 17.851 -103.58 16.177 -99.062 15.867 C-98.042 15.871 -98.042 15.871 -97 15.875 C-96.319 15.872 -95.639 15.87 -94.938 15.867 C-93 16 -93 16 -90 17 C-83.094 17.792 -74.655 18.703 -68.25 15.719 C-66.245 13.94 -64.644 12.114 -63 10 C-58.085 4.712 -53.828 0.536 -47 -2 C-46.027 -2.371 -45.054 -2.743 -44.051 -3.125 C-29.11 -8.123 -13.727 -8.332 0 0 Z " fill="#FCFCFC" transform="translate(450,287)"/>
<path d="M0 0 C3.768 1.256 4.024 2.306 5.898 5.723 C6.453 6.723 7.008 7.724 7.58 8.755 C8.172 9.846 8.765 10.938 9.375 12.062 C9.996 13.191 10.618 14.32 11.258 15.483 C12.551 17.838 13.841 20.193 15.125 22.553 C16.837 25.7 18.559 28.841 20.285 31.98 C27.564 45.273 34.547 58.711 41.484 72.184 C44.443 77.928 47.426 83.658 50.438 89.375 C50.832 90.127 51.227 90.879 51.634 91.654 C53.46 95.121 55.308 98.571 57.211 101.996 C61.704 110.126 65.059 118.178 68 127 C68.361 127.883 68.722 128.766 69.094 129.676 C71.716 136.4 72.682 147.439 70.176 154.234 C69 156 69 156 66 158 C59.983 158.982 56.303 156.951 51.379 153.801 C47.978 151.226 45.577 148.391 43 145 C44.65 144.67 46.3 144.34 48 144 C47.644 137.373 44.999 133.037 41.5 127.5 C40.957 126.618 40.414 125.736 39.854 124.827 C38.755 123.042 37.652 121.26 36.544 119.481 C29.317 107.866 22.493 96.041 16 84 C15.435 82.955 14.869 81.911 14.287 80.834 C2.645 59.196 -7.372 37.175 -15.312 13.875 C-15.609 13.01 -15.905 12.145 -16.211 11.254 C-18.125 5.376 -18.125 5.376 -17 2 C-14.674 1.619 -12.339 1.287 -10 1 C-9.67 1.33 -9.34 1.66 -9 2 C-4.968 2.263 -3.441 2.294 0 0 Z " fill="#C2C3C2" transform="translate(688,627)"/>
<path d="M0 0 C5.063 2.895 7.681 6.003 10.5 11.125 C10.915 11.854 11.33 12.582 11.758 13.333 C16.196 21.189 20.424 29.164 24.677 37.122 C28.906 45.024 33.27 52.834 37.748 60.598 C40.423 65.236 43.055 69.891 45.627 74.587 C51.813 85.876 58.476 96.867 65.126 107.887 C72.401 119.973 79.543 132.138 86.562 144.375 C87.051 145.225 87.54 146.075 88.044 146.95 C90.196 150.719 92.312 154.505 94.324 158.352 C94.803 159.265 94.803 159.265 95.292 160.198 C96.473 163.205 96.266 165.81 96 169 C92.297 168.742 90.362 168.291 87.438 165.938 C81.903 159.268 78.015 151.486 73.938 143.875 C72.778 141.721 71.618 139.568 70.457 137.414 C69.876 136.335 69.296 135.257 68.698 134.146 C66.669 130.386 64.621 126.637 62.57 122.889 C60.565 119.227 58.568 115.56 56.573 111.892 C55.518 109.952 54.461 108.012 53.403 106.073 C43.491 87.869 34.037 69.441 24.651 50.961 C19.223 40.276 13.738 29.626 8.131 19.033 C0 3.675 0 3.675 0 0 Z " fill="#B4B6B5" transform="translate(697,614)"/>
<path d="M0 0 C2.801 0.654 4.864 1.319 7.438 2.438 C14.339 5.196 22.612 4.461 29.75 2.875 C30.245 4.36 30.245 4.36 30.75 5.875 C29.991 6.357 29.231 6.839 28.449 7.336 C27.455 7.968 26.461 8.599 25.438 9.25 C23.958 10.19 23.958 10.19 22.449 11.148 C20.537 12.372 18.639 13.616 16.75 14.875 C13.792 14.573 11.416 14.208 8.75 12.875 C-0.175 12.035 -7.938 12.278 -15.25 17.875 C-16.391 19.284 -17.495 20.722 -18.562 22.188 C-20.772 24.967 -21.709 25.777 -25.254 26.422 C-28.633 26.438 -31.891 26.235 -35.25 25.875 C-36.187 25.791 -37.124 25.707 -38.09 25.621 C-40.148 25.416 -42.2 25.153 -44.25 24.875 C-44.25 21.905 -44.25 18.935 -44.25 15.875 C-43.514 15.583 -42.777 15.29 -42.019 14.989 C-38.678 13.661 -35.339 12.331 -32 11 C-30.262 10.31 -30.262 10.31 -28.488 9.605 C-27.373 9.161 -26.258 8.716 -25.109 8.258 C-24.083 7.849 -23.057 7.441 -21.999 7.02 C-20.311 6.317 -18.641 5.568 -17.009 4.745 C-15.008 3.755 -13.467 3.58 -11.25 3.438 C-8.417 3.161 -7.482 3.058 -5.188 1.25 C-3.25 -0.125 -3.25 -0.125 0 0 Z " fill="#F5F5F5" transform="translate(508.25,640.125)"/>
<path d="M0 0 C3.384 0.617 5.52 1.87 8.25 3.938 C8.956 4.462 9.663 4.987 10.391 5.527 C11.187 6.256 11.187 6.256 12 7 C12 7.66 12 8.32 12 9 C12.566 9.104 13.132 9.209 13.715 9.316 C21.622 11.682 28.141 18.855 34.023 24.332 C37.206 27.185 40.496 29.824 43.875 32.438 C50.756 37.764 57.402 43.327 64 49 C64.75 49.637 65.5 50.274 66.273 50.93 C78.056 61.036 87.575 72.726 97 85 C96.67 85.66 96.34 86.32 96 87 C95.406 86.455 94.811 85.909 94.199 85.348 C88.893 80.52 83.479 75.887 77.906 71.371 C71.33 66.006 64.883 60.483 58.449 54.949 C57.859 54.442 57.269 53.934 56.661 53.411 C55.472 52.389 54.283 51.366 53.095 50.343 C49.567 47.315 45.995 44.355 42.375 41.438 C36.346 36.542 30.691 31.278 25 26 C18.942 20.435 12.763 15.096 6.348 9.945 C2.434 6.703 0.697 5.158 0 0 Z " fill="#157CB4" transform="translate(590,489)"/>
<path d="M0 0 C0 3 0 3 -1.328 4.613 C-18.838 20.094 -38.811 20.583 -60.938 20.25 C-63.278 20.23 -65.618 20.212 -67.959 20.195 C-73.64 20.152 -79.32 20.085 -85 20 C-84.885 18.562 -84.758 17.124 -84.625 15.688 C-84.555 14.887 -84.486 14.086 -84.414 13.262 C-84 11 -84 11 -82 8 C-79.455 7.666 -79.455 7.666 -76.196 7.723 C-74.977 7.736 -73.758 7.749 -72.502 7.763 C-71.847 7.777 -71.193 7.791 -70.519 7.805 C-68.461 7.848 -66.403 7.871 -64.345 7.889 C-58.492 7.944 -52.64 8.038 -46.787 8.137 C-43.206 8.196 -39.625 8.235 -36.043 8.263 C-34.037 8.285 -32.032 8.33 -30.027 8.376 C-19.264 8.462 -8.623 6.899 0 0 Z " fill="#F0F0F0" transform="translate(610,669)"/>
<path d="M0 0 C1.65 0 3.3 0 5 0 C6.32 2.336 7.641 4.672 8.961 7.009 C10.128 9.073 11.295 11.137 12.463 13.2 C15.428 18.444 18.39 23.69 21.336 28.945 C27.324 39.611 33.443 50.177 39.77 60.645 C48.624 75.296 57.347 90.032 65.875 104.875 C66.616 106.158 66.616 106.158 67.371 107.467 C69.523 111.235 71.553 114.891 73 119 C68.133 114.576 64.659 109.439 61 104 C60.638 103.466 60.276 102.932 59.902 102.382 C49.328 86.794 39.371 70.867 29.983 54.535 C26.66 48.768 23.194 43.127 19.596 37.527 C17.475 34.169 15.532 30.733 13.625 27.25 C11.302 23.044 8.948 18.872 6.426 14.781 C5.801 13.766 5.801 13.766 5.164 12.729 C4.364 11.439 3.558 10.153 2.743 8.872 C0.672 5.525 0 4.058 0 0 Z " fill="#B0B2B1" transform="translate(643,635)"/>
<path d="M0 0 C1.125 0.066 2.251 0.133 3.41 0.201 C10.41 0.634 17.393 1.277 24.375 1.938 C23.715 5.898 23.055 9.857 22.375 13.938 C8.629 14.23 -4.934 13.107 -18.625 11.938 C-18.322 7.7 -17.412 4.272 -14.489 1.062 C-10.21 -1.519 -4.78 -0.389 0 0 Z " fill="#F5F5F5" transform="translate(457.625,672.0625)"/>
<path d="M0 0 C4.457 1.261 7.419 2.816 10.938 5.812 C11.886 6.616 12.835 7.419 13.812 8.246 C14.875 9.164 15.938 10.082 17 11 C18.208 12.033 19.416 13.065 20.625 14.098 C28.566 20.909 36.313 27.905 44 35 C45.83 36.67 47.663 38.337 49.5 40 C50.66 41.052 50.66 41.052 51.844 42.125 C53.964 44.03 53.964 44.03 56.281 45.625 C56.848 46.079 57.416 46.533 58 47 C58 47.66 58 48.32 58 49 C60.016 50.038 62.009 51.003 64.121 51.832 C72.848 55.526 78.648 62.2 85 69 C81.146 69 80 67.792 76.938 65.5 C75.95 64.763 74.963 64.025 73.945 63.266 C70.539 60.646 67.191 57.961 63.852 55.258 C60.345 52.481 56.772 49.801 53.188 47.125 C42.529 39.166 32.01 31.039 21.562 22.805 C19.13 20.887 16.692 18.976 14.25 17.07 C8.396 12.496 2.577 7.913 -3 3 C-2.01 2.01 -1.02 1.02 0 0 Z " fill="#1A7DAF" transform="translate(637,547)"/>
<path d="M0 0 C0.825 0.763 1.65 1.526 2.5 2.312 C2.5 2.642 2.5 2.973 2.5 3.312 C-17.63 3.312 -37.76 3.312 -58.5 3.312 C-55.101 0.763 -53.608 -0.175 -49.762 -1.258 C-48.859 -1.514 -47.956 -1.771 -47.025 -2.035 C-46.089 -2.292 -45.152 -2.548 -44.188 -2.812 C-43.263 -3.077 -42.338 -3.341 -41.385 -3.613 C-26.82 -7.692 -12.371 -9.828 0 0 Z " fill="#F2F2F3" transform="translate(324.5,309.6875)"/>
<path d="M0 0 C3.314 0.614 5.317 1.805 8 3.812 C17.962 10.562 28.293 11.68 40 12 C40 14.97 40 17.94 40 21 C27.258 21.967 15.156 19.198 4.746 11.543 C2.092 9.198 0.536 7.212 -1 4 C-0.75 1.625 -0.75 1.625 0 0 Z " fill="#F4F5F5" transform="translate(355,660)"/>
<path d="M0 0 C4.077 3.182 7.422 6.518 10.766 10.453 C13.09 13.103 15.499 15.652 17.928 18.206 C23.625 24.207 29 30.313 34.033 36.881 C37.009 40.763 40.107 44.494 43.312 48.188 C49.856 55.772 55.681 63.897 61.549 72.008 C63.014 74.02 64.502 76.012 66 78 C65.67 78.66 65.34 79.32 65 80 C55.132 69.625 46.164 58.719 37.438 47.375 C27.445 34.479 16.484 22.35 4.871 10.902 C2.734 8.729 0.851 6.42 -1 4 C-1.982 2.983 -2.975 1.974 -4 1 C-2.68 1.33 -1.36 1.66 0 2 C0 1.34 0 0.68 0 0 Z " fill="#1476A3" transform="translate(666,535)"/>
<path d="M0 0 C2.966 3.549 5.398 7.169 7.723 11.164 C8.065 11.75 8.407 12.335 8.759 12.938 C9.864 14.832 10.963 16.728 12.062 18.625 C12.826 19.936 13.59 21.247 14.355 22.558 C16.575 26.369 18.789 30.184 21 34 C21.584 35.008 22.169 36.016 22.771 37.055 C26.717 43.87 26.717 43.87 28.503 46.975 C31.289 51.812 34.163 56.582 37.172 61.285 C37.445 61.851 37.718 62.417 38 63 C37.67 63.66 37.34 64.32 37 65 C31.63 58.204 26.448 51.421 21.891 44.043 C20.468 41.754 19.024 39.492 17.547 37.238 C10.4 26.333 3.641 15.22 -3 4 C-2.01 2.68 -1.02 1.36 0 0 Z " fill="#A3A6A5" transform="translate(678,689)"/>
<path d="M0 0 C0 0.66 0 1.32 0 2 C-0.557 2.147 -1.114 2.294 -1.688 2.445 C-10.25 4.962 -16.622 9.119 -21 17 C-22.376 21.127 -22.184 24.99 -22.188 29.312 C-22.2 30.155 -22.212 30.997 -22.225 31.865 C-22.236 36.652 -21.856 40.503 -20 45 C-24.626 41.012 -26.593 37.016 -27.395 31.078 C-27.835 22.517 -26.001 15.995 -21 9 C-14.915 2.795 -8.8 -0.419 0 0 Z " fill="#E7E7E7" transform="translate(455,657)"/>
<path d="M0 0 C-1.083 0.773 -1.083 0.773 -2.188 1.562 C-7.745 6.379 -11.537 11.927 -12.219 19.398 C-12.468 26.651 -10.989 33.065 -9 40 C-8.661 41.332 -8.325 42.665 -8 44 C-12.641 40.354 -14.597 35.589 -16 30 C-16.881 21.641 -17.072 13.993 -12 7 C-11.319 6.051 -10.639 5.102 -9.938 4.125 C-6.707 0.582 -4.682 -0.253 0 0 Z " fill="#CFCFD0" transform="translate(530,664)"/>
<path d="M0 0 C1.218 0.035 1.218 0.035 2.461 0.07 C3.687 0.097 3.687 0.097 4.938 0.125 C5.877 0.16 5.877 0.16 6.836 0.195 C7.781 3.585 7.998 5.797 6.836 9.195 C3.498 11.489 0.55 11.406 -3.414 11.32 C-4.492 11.302 -5.569 11.284 -6.68 11.266 C-7.5 11.242 -8.319 11.219 -9.164 11.195 C-9.164 10.535 -9.164 9.875 -9.164 9.195 C-7.184 9.195 -5.204 9.195 -3.164 9.195 C-3.37 8.082 -3.577 6.968 -3.789 5.82 C-3.913 4.624 -4.037 3.428 -4.164 2.195 C-2.164 0.195 -2.164 0.195 0 0 Z " fill="#82868D" transform="translate(1009.1640625,946.8046875)"/>
<path d="M0 0 C10.247 1.656 18.87 19.17 24.501 26.945 C25.983 28.977 27.486 30.991 29 33 C28.67 33.66 28.34 34.32 28 35 C21.577 28.247 15.346 21.388 9.5 14.125 C9.009 13.52 8.517 12.914 8.011 12.291 C4.903 8.381 2.381 4.391 0 0 Z " fill="#1B82B2" transform="translate(703,580)"/>
<path d="M0 0 C7.005 2.359 10.096 7.888 13.375 14.25 C16.272 21.174 15.614 28.811 14 36 C13.34 36 12.68 36 12 36 C11.986 35.056 11.972 34.113 11.957 33.141 C11.475 20.175 7.737 10.528 0 0 Z " fill="#D5D6D6" transform="translate(320,336)"/>
<path d="M0 0 C1.875 1.125 1.875 1.125 3 3 C2.777 6.647 2.616 8.384 0 11 C-3.5 11.25 -3.5 11.25 -7 11 C-9 9 -9 9 -9.375 6.062 C-9 3 -9 3 -7.312 1.125 C-4.576 -0.206 -3.005 -0.462 0 0 Z " fill="#7B7B7F" transform="translate(1014,960)"/>
<path d="M0 0 C3.562 0.312 3.562 0.312 5.562 1.5 C6.562 3.312 6.562 3.312 6.375 5.875 C5.562 8.312 5.562 8.312 3.562 10.312 C0.125 10.688 0.125 10.688 -3.438 10.312 C-5.438 8.562 -5.438 8.562 -6.438 6.312 C-6.046 1.874 -4.466 0.406 0 0 Z " fill="#C0C0C3" transform="translate(1010.4375,985.6875)"/>
<path d="M0 0 C0.66 0.33 1.32 0.66 2 1 C1.529 1.473 1.059 1.946 0.574 2.434 C-7.878 11.411 -8.502 19.938 -9 32 C-11.13 30.288 -11.93 29.381 -12.434 26.652 C-12.448 16.887 -9.965 9.542 -3.367 2.277 C-2 1 -2 1 0 0 Z " fill="#D7D7D7" transform="translate(500,663)"/>
<path d="M0 0 C6.632 5.176 11.833 11.387 17 18 C16.01 18.66 15.02 19.32 14 20 C12.247 18.274 10.497 16.544 8.75 14.812 C8.259 14.33 7.768 13.847 7.262 13.35 C4.276 10.384 1.588 7.328 -1 4 C-1.982 2.983 -2.975 1.974 -4 1 C-2.68 1.33 -1.36 1.66 0 2 C0 1.34 0 0.68 0 0 Z " fill="#1B79A1" transform="translate(666,535)"/>
<path d="M0 0 C0.02 0.605 0.04 1.209 0.06 1.833 C0.156 4.597 0.265 7.361 0.375 10.125 C0.406 11.076 0.437 12.028 0.469 13.008 C0.677 18.017 1.055 22.304 3 27 C-1.738 22.915 -3.742 18.889 -4.289 12.762 C-4.512 3.662 -4.512 3.662 -2.539 1.109 C-1 0 -1 0 0 0 Z " fill="#CFD0D1" transform="translate(432,675)"/>
<path d="M0 0 C2.776 0.612 4.541 1.409 6.302 3.678 C7.644 5.858 8.898 8.067 10.125 10.312 C10.554 11.072 10.984 11.832 11.426 12.615 C12.255 14.084 13.077 15.557 13.892 17.034 C14.828 18.694 15.84 20.312 16.867 21.918 C17.241 22.605 17.615 23.292 18 24 C17.67 24.66 17.34 25.32 17 26 C0 4.485 0 4.485 0 0 Z " fill="#A8ABAB" transform="translate(698,728)"/>
<path d="M0 0 C1.514 0.017 1.514 0.017 3.059 0.035 C4.071 0.044 5.082 0.053 6.125 0.062 C7.299 0.08 7.299 0.08 8.496 0.098 C8.496 0.758 8.496 1.418 8.496 2.098 C5.196 2.098 1.896 2.098 -1.504 2.098 C-1.174 4.078 -0.844 6.058 -0.504 8.098 C2.466 8.098 5.436 8.098 8.496 8.098 C8.496 8.758 8.496 9.418 8.496 10.098 C2.886 10.098 -2.724 10.098 -8.504 10.098 C-8.504 9.438 -8.504 8.778 -8.504 8.098 C-6.524 8.098 -4.544 8.098 -2.504 8.098 C-2.782 6.396 -2.782 6.396 -3.066 4.66 C-3.211 3.485 -3.355 2.309 -3.504 1.098 C-2.504 0.098 -2.504 0.098 0 0 Z " fill="#979899" transform="translate(1008.50390625,912.90234375)"/>
<path d="M0 0 C3.384 0.617 5.52 1.87 8.25 3.938 C8.956 4.462 9.663 4.987 10.391 5.527 C11.187 6.256 11.187 6.256 12 7 C12 7.66 12 8.32 12 9 C12.897 9.155 12.897 9.155 13.812 9.312 C16.282 10.089 17.323 11.071 19 13 C15.59 12.213 12.311 11.129 9 10 C9 9.34 9 8.68 9 8 C8.423 8.248 7.845 8.495 7.25 8.75 C5 9 5 9 2.812 7.375 C0.865 4.823 0.351 3.155 0 0 Z " fill="#0B6589" transform="translate(590,489)"/>
<path d="M0 0 C4.531 2.824 8.173 5.917 11.875 9.75 C12.373 10.257 12.87 10.763 13.383 11.285 C14.593 12.519 15.797 13.759 17 15 C13.078 15 11.804 13.644 8.688 11.312 C7.716 10.587 6.744 9.861 5.742 9.113 C2.757 6.813 -0.15 4.465 -3 2 C-2.01 1.34 -1.02 0.68 0 0 Z " fill="#186FA0" transform="translate(705,601)"/>
<path d="M0 0 C0.33 0 0.66 0 1 0 C1.11 1.172 1.219 2.344 1.332 3.551 C2.197 12.285 3.231 20.621 6 29 C0.955 24.205 -0.966 19.839 -1.219 12.957 C-1.278 8.959 -1.244 4.991 -1 1 C-0.67 0.67 -0.34 0.34 0 0 Z " fill="#FAFAFB" transform="translate(516,679)"/>
<path d="M0 0 C1.32 0.66 2.64 1.32 4 2 C4 2.66 4 3.32 4 4 C4.572 4.061 5.145 4.121 5.734 4.184 C8.966 5.348 10.193 7.354 12.25 10.062 C12.956 10.982 13.663 11.901 14.391 12.848 C14.922 13.558 15.453 14.268 16 15 C15.67 15.66 15.34 16.32 15 17 C14.348 16.408 13.695 15.817 13.023 15.207 C8.42 11.045 3.809 6.923 -1 3 C-0.67 2.01 -0.34 1.02 0 0 Z " fill="#057EB5" transform="translate(671,559)"/>
<path d="M0 0 C2.875 -0.125 2.875 -0.125 6 0 C6.66 0.66 7.32 1.32 8 2 C7.625 4.625 7.625 4.625 7 7 C4.125 7.125 4.125 7.125 1 7 C0.34 6.34 -0.32 5.68 -1 5 C-0.625 2.375 -0.625 2.375 0 0 Z " fill="#F9F9F9" transform="translate(1007,949)"/>
<path d="M0 0 C3.438 1.528 6.19 3.502 9 6 C9 6.66 9 7.32 9 8 C9.536 8.268 10.072 8.536 10.625 8.812 C13.417 10.208 16.208 11.604 19 13 C17.34 13.727 17.34 13.727 15 14 C12.379 12.523 12.379 12.523 9.562 10.375 C8.598 9.64 7.634 8.905 6.641 8.148 C3.876 5.899 1.39 3.637 -1 1 C-0.67 0.67 -0.34 0.34 0 0 Z " fill="#187AAD" transform="translate(686,588)"/>
<path d="M0 0 C2.475 0.99 2.475 0.99 5 2 C5.33 1.34 5.66 0.68 6 0 C7.98 4.95 9.96 9.9 12 15 C11.34 15 10.68 15 10 15 C8.585 13.029 7.292 11.05 6 9 C4.92 7.373 3.837 5.748 2.75 4.125 C1.375 2.062 1.375 2.062 0 0 Z " fill="#0C72A1" transform="translate(714,573)"/>
<path d="M0 0 C4.169 2.501 6.984 4.494 9 9 C8.67 9.66 8.34 10.32 8 11 C4.356 10.015 3.211 9.342 1.188 6.062 C0 3 0 3 0 0 Z " fill="#C4C9CB" transform="translate(697,614)"/>
<path d="M0 0 C1.65 0.33 3.3 0.66 5 1 C4.688 2.875 4.688 2.875 4 5 C0.565 7.29 -0.985 7.178 -5 7 C-4.01 6.34 -3.02 5.68 -2 5 C-0.795 2.448 -0.795 2.448 0 0 Z " fill="#EFF0F0" transform="translate(1010,975)"/>
<path d="M0 0 C4.184 3.509 8.196 7.081 12 11 C8.242 11 6.319 10.316 3.633 7.637 C0 3.501 0 3.501 0 0 Z " fill="#15769D" transform="translate(664,567)"/>
<path d="M0 0 C2.125 2.125 2.125 2.125 4 5 C3.25 8.312 3.25 8.312 2 11 C-0.252 8.312 -1.882 6.354 -3 3 C-2.01 2.01 -1.02 1.02 0 0 Z " fill="#9DA09E" transform="translate(678,689)"/>
<path d="M0 0 C0.66 0.33 1.32 0.66 2 1 C6.145 1.248 6.145 1.248 10 0 C9.67 0.99 9.34 1.98 9 3 C5.715 4.095 3.263 4.1 -0.188 4.062 C-1.818 4.049 -1.818 4.049 -3.48 4.035 C-4.312 4.024 -5.143 4.012 -6 4 C-6 3.34 -6 2.68 -6 2 C-4.02 2 -2.04 2 0 2 C0 1.34 0 0.68 0 0 Z " fill="#7E7A80" transform="translate(1006,954)"/>
<path d="M0 0 C0.66 0.33 1.32 0.66 2 1 C0.701 1.928 0.701 1.928 -0.625 2.875 C-4.937 6.417 -7.354 11.168 -10 16 C-10.664 14.25 -10.664 14.25 -11 12 C-8.458 7.107 -4.473 3.157 0 0 Z " fill="#CFD1D1" transform="translate(416,657)"/>
<path d="M0 0 C1.129 0.933 2.253 1.871 3.375 2.812 C4.001 3.335 4.628 3.857 5.273 4.395 C7 6 7 6 9 9 C7.68 9.33 6.36 9.66 5 10 C3.967 8.907 2.949 7.8 1.938 6.688 C1.369 6.073 0.801 5.458 0.215 4.824 C-0.387 3.921 -0.387 3.921 -1 3 C-0.67 2.01 -0.34 1.02 0 0 Z " fill="#0E86B1" transform="translate(682,553)"/>
<path d="M0 0 C1.32 0.33 2.64 0.66 4 1 C4 2.98 4 4.96 4 7 C2.02 7.99 2.02 7.99 0 9 C0 6.03 0 3.06 0 0 Z " fill="#F4F4F5" transform="translate(1011,961)"/>
<path d="M0 0 C0.66 0 1.32 0 2 0 C2 0.99 2 1.98 2 3 C5.3 3 8.6 3 12 3 C11.67 3.66 11.34 4.32 11 5 C7.37 5 3.74 5 0 5 C0 3.35 0 1.7 0 0 Z " fill="#9D9D9D" transform="translate(1005,925)"/>
<path d="M0 0 C0.33 0 0.66 0 1 0 C2.333 5.333 3.667 10.667 5 16 C0.026 11.358 0.026 11.358 -1 8 C-0.858 5.273 -0.451 2.703 0 0 Z " fill="#CECECE" transform="translate(517,692)"/>
<path d="M0 0 C2.932 2.853 5.643 5.651 8 9 C7.67 9.66 7.34 10.32 7 11 C4.36 8.69 1.72 6.38 -1 4 C-0.67 2.68 -0.34 1.36 0 0 Z " fill="#096F99" transform="translate(679,565)"/>
<path d="M0 0 C0.66 0 1.32 0 2 0 C2 2.64 2 5.28 2 8 C0.68 7.34 -0.64 6.68 -2 6 C-1.125 1.125 -1.125 1.125 0 0 Z " fill="#F1F1F2" transform="translate(1008,962)"/>
<path d="M0 0 C0.99 0 1.98 0 3 0 C3 0.66 3 1.32 3 2 C3.99 1.67 4.98 1.34 6 1 C6.33 2.65 6.66 4.3 7 6 C5.68 6 4.36 6 3 6 C2.01 4.02 1.02 2.04 0 0 Z " fill="#ABAEAD" transform="translate(671,685)"/>
<path d="M0 0 C2.391 2.149 3.633 3.99 4.75 7 C5.013 7.681 5.276 8.361 5.547 9.062 C6 11 6 11 5 14 C3.02 9.71 1.04 5.42 -1 1 C-0.67 0.67 -0.34 0.34 0 0 Z " fill="#AEAFAD" transform="translate(716,650)"/>
<path d="M0 0 C3.452 1.426 5.101 3.097 7.25 6.125 C8.031 7.212 8.031 7.212 8.828 8.32 C9.408 9.152 9.408 9.152 10 10 C9.67 10.66 9.34 11.32 9 12 C7.494 10.381 5.995 8.754 4.5 7.125 C3.665 6.22 2.829 5.315 1.969 4.383 C0 2 0 2 0 0 Z " fill="#1985BF" transform="translate(722,603)"/>
<path d="M0 0 C1.32 0.33 2.64 0.66 4 1 C4 1.66 4 2.32 4 3 C4.598 3.103 5.196 3.206 5.812 3.312 C8.282 4.089 9.323 5.071 11 7 C9.661 6.691 8.329 6.35 7 6 C5.948 5.732 4.896 5.464 3.812 5.188 C1 4 1 4 0.125 1.875 C0.084 1.256 0.043 0.637 0 0 Z " fill="#136E95" transform="translate(598,495)"/>
<path d="M0 0 C0.33 0.99 0.66 1.98 1 3 C-1.31 5.31 -3.62 7.62 -6 10 C-6.66 9.67 -7.32 9.34 -8 9 C-5.36 6.03 -2.72 3.06 0 0 Z " fill="#2780BA" transform="translate(339,256)"/>
<path d="M0 0 C0 0.66 0 1.32 0 2 C-4.95 3.485 -4.95 3.485 -10 5 C-7.218 -0.564 -5.866 -0.128 0 0 Z " fill="#C5C6C6" transform="translate(455,657)"/>
<path d="M0 0 C4.308 1.566 8.062 3.683 12 6 C10.266 6.68 10.266 6.68 8 7 C5.859 5.82 5.859 5.82 3.75 4.125 C3.044 3.571 2.337 3.016 1.609 2.445 C1.078 1.968 0.547 1.491 0 1 C0 0.67 0 0.34 0 0 Z " fill="#1C89CC" transform="translate(693,595)"/>
<path d="M0 0 C0.99 0 1.98 0 3 0 C3 0.66 3 1.32 3 2 C4.65 2 6.3 2 8 2 C7.67 2.99 7.34 3.98 7 5 C7.66 5.66 8.32 6.32 9 7 C6 7 6 7 4.395 5.469 C3.872 4.819 3.35 4.169 2.812 3.5 C2.283 2.85 1.753 2.201 1.207 1.531 C0.809 1.026 0.41 0.521 0 0 Z " fill="#1979A8" transform="translate(596,497)"/>
<path d="M0 0 C-3.2 2.743 -6.005 4.63 -10 6 C-7.823 0.976 -5.414 -0.293 0 0 Z " fill="#DFE0E0" transform="translate(530,664)"/>
<path d="M0 0 C3.335 1.38 5.186 2.85 7 6 C6.67 6.99 6.34 7.98 6 9 C4.997 7.69 3.998 6.377 3 5.062 C2.443 4.332 1.886 3.601 1.312 2.848 C0 1 0 1 0 0 Z " fill="#1278B1" transform="translate(709,588)"/>
<path d="M0 0 C2.645 3.125 3.844 6.088 5 10 C4.34 10 3.68 10 3 10 C-1 4.706 -1 4.706 -1 1 C-0.67 0.67 -0.34 0.34 0 0 Z " fill="#0A6397" transform="translate(721,578)"/>
<path d="M0 0 C5 2 5 2 6.812 5.125 C7.204 6.074 7.596 7.023 8 8 C7.01 8.495 7.01 8.495 6 9 C4.02 6.03 2.04 3.06 0 0 Z " fill="#1376B0" transform="translate(707,564)"/>
<path d="M0 0 C0.66 1.32 1.32 2.64 2 4 C4.05 4.805 4.05 4.805 6 5 C5.34 5.66 4.68 6.32 4 7 C3.352 9.571 3.352 9.571 3 12 C2.67 12 2.34 12 2 12 C1.34 8.04 0.68 4.08 0 0 Z " fill="#1B6396" transform="translate(456,321)"/>
<path d="M0 0 C1.32 0.33 2.64 0.66 4 1 C4 2.98 4 4.96 4 7 C3.34 7 2.68 7 2 7 C0.539 4.353 0 3.106 0 0 Z " fill="#A1A4A7" transform="translate(1013,947)"/>
<path d="M0 0 C3.795 1.491 5.61 3.757 8 7 C5.028 5.875 2.666 4.777 0 3 C0 2.01 0 1.02 0 0 Z " fill="#155F90" transform="translate(714,610)"/>
<path d="M0 0 C0.99 0 1.98 0 3 0 C3 1.65 3 3.3 3 5 C1.68 4.67 0.36 4.34 -1 4 C-0.67 2.68 -0.34 1.36 0 0 Z " fill="#E1E2E5" transform="translate(371,281)"/>
</svg>