<svg version="1.1" xmlns="http://www.w3.org/2000/svg" width="1024" height="1024">
<path d="M0 0 C337.92 0 675.84 0 1024 0 C1024 337.92 1024 675.84 1024 1024 C686.08 1024 348.16 1024 0 1024 C0 686.08 0 348.16 0 0 Z " fill="#FC5C66" transform="translate(0,0)"/>
<path d="M0 0 C4.897 1.374 8.745 3.591 12.883 6.465 C14.212 7.37 15.542 8.275 16.872 9.179 C17.893 9.879 17.893 9.879 18.935 10.592 C22.267 12.864 25.631 15.088 28.992 17.316 C30.306 18.19 31.62 19.065 32.934 19.939 C34.932 21.27 36.931 22.6 38.931 23.929 C40.911 25.245 42.889 26.562 44.867 27.879 C45.773 28.48 45.773 28.48 46.697 29.094 C50.886 31.886 50.886 31.886 52 33 C52.147 35.14 52.223 37.284 52.272 39.428 C52.297 40.436 52.297 40.436 52.321 41.464 C52.462 47.675 52.54 53.888 52.6 60.1 C52.641 64.274 52.701 68.446 52.809 72.62 C52.913 76.654 52.968 80.686 52.988 84.722 C53.004 86.257 53.037 87.792 53.088 89.327 C53.467 101.303 53.467 101.303 49.916 105.41 C47.356 107.231 44.828 108.641 42 110 C40.937 110.684 39.874 111.368 38.78 112.073 C37.864 112.63 36.948 113.188 36.004 113.762 C34.96 114.4 33.916 115.038 32.84 115.696 C31.758 116.353 30.677 117.01 29.562 117.688 C27.261 119.093 24.96 120.501 22.66 121.91 C22.092 122.258 21.525 122.605 20.94 122.963 C15.762 126.136 10.627 129.371 5.5 132.625 C3.987 133.58 2.474 134.534 0.961 135.488 C-1.444 137.007 -3.832 138.545 -6.211 140.105 C-7.09 140.669 -7.969 141.232 -8.875 141.812 C-9.574 142.273 -10.272 142.733 -10.992 143.207 C-13.705 144.278 -15.203 143.742 -18 143 C-20.074 141.944 -20.074 141.944 -22.117 140.629 C-22.881 140.142 -23.645 139.656 -24.432 139.154 C-25.238 138.629 -26.044 138.104 -26.875 137.562 C-27.719 137.02 -28.564 136.478 -29.433 135.92 C-36.363 131.456 -43.232 126.903 -50.069 122.299 C-53.603 119.921 -57.145 117.553 -60.688 115.188 C-61.423 114.696 -62.159 114.205 -62.918 113.698 C-71.893 107.719 -80.945 101.858 -90 96 C-88.559 93.046 -86.96 90.435 -85.062 87.75 C-79.237 78.962 -77.954 71.635 -79 61 C-80.854 52.828 -85.917 46.489 -91 40 C-88.254 37.099 -85.492 34.847 -82.141 32.68 C-81.198 32.067 -80.255 31.454 -79.283 30.823 C-78.282 30.18 -77.281 29.537 -76.25 28.875 C-74.702 27.873 -74.702 27.873 -73.123 26.851 C-66.657 22.676 -60.161 18.549 -53.601 14.522 C-50.289 12.478 -47.052 10.365 -43.863 8.133 C-43.184 7.661 -42.505 7.19 -41.805 6.704 C-40.513 5.802 -39.23 4.887 -37.957 3.958 C-35.271 2.086 -33.597 0.978 -30.27 1.102 C-28 2 -28 2 -24.875 4.062 C-20.15 6.873 -15.336 6.78 -10 6 C-6.058 4.635 -2.952 2.952 0 0 Z " fill="#FA5B66" transform="translate(639,443)"/>
<path d="M0 0 C9.911 9.446 12.913 18.187 13.242 31.871 C13.287 34.924 13.327 37.977 13.35 41.03 C13.367 42.619 13.394 44.208 13.432 45.797 C13.734 58.388 12.862 71.656 5.312 82.312 C-3.576 91.048 -16.232 96.705 -27.125 102.5 C-28.278 103.114 -28.278 103.114 -29.454 103.74 C-40.197 109.331 -51.19 113.004 -63.296 109.297 C-69.122 107.035 -74.552 104.04 -80 101 C-80.905 100.508 -81.809 100.016 -82.741 99.509 C-109.679 84.839 -109.679 84.839 -112.938 76.562 C-113.297 75.698 -113.657 74.833 -114.027 73.941 C-116.217 67.32 -117.304 61.484 -117.266 54.547 C-117.268 53.765 -117.269 52.984 -117.271 52.179 C-117.273 50.535 -117.269 48.891 -117.261 47.248 C-117.25 44.77 -117.261 42.294 -117.273 39.816 C-117.299 13.184 -117.299 13.184 -109 4 C-104.387 0.107 -99.192 -2.953 -94 -6 C-92.996 -6.594 -92.996 -6.594 -91.971 -7.2 C-87.368 -9.903 -82.706 -12.482 -78 -15 C-77.355 -15.348 -76.711 -15.695 -76.047 -16.053 C-74.184 -17.05 -72.314 -18.029 -70.438 -19 C-69.364 -19.557 -68.29 -20.114 -67.184 -20.688 C-44.127 -30.193 -18.156 -13.26 0 0 Z " fill="#68C172" transform="translate(837,160)"/>
<path d="M0 0 C12.517 8.436 22.154 20.83 25.607 35.715 C28.465 52.348 26.257 67.595 17.223 81.793 C15.59 84.003 13.881 86 12 88 C11.469 88.608 10.938 89.217 10.391 89.844 C2.594 98.309 -7.039 102.987 -18 106 C-18.748 106.226 -19.495 106.451 -20.266 106.684 C-35.173 110.686 -49.543 107.015 -62.938 100.188 C-76.386 92.255 -86.534 79.324 -91.109 64.375 C-93.898 52.575 -93.713 37.786 -88 27 C-87.576 26.095 -87.152 25.19 -86.715 24.258 C-78.984 8.71 -65.954 -1.366 -49.777 -7.125 C-33.019 -12.405 -14.834 -8.864 0 0 Z " fill="#FED103" transform="translate(230,472)"/>
<path d="M0 0 C0.221 6.098 0.012 11.216 -2 17 C-3.938 16.625 -3.938 16.625 -6 16 C-6.33 15.34 -6.66 14.68 -7 14 C-8.104 14.831 -8.104 14.831 -9.23 15.68 C-10.206 16.404 -11.182 17.129 -12.188 17.875 C-13.15 18.594 -14.113 19.314 -15.105 20.055 C-18 22 -18 22 -23 24 C-22.67 39.51 -22.34 55.02 -22 71 C-19.36 72.32 -16.72 73.64 -14 75 C-11.941 76.852 -11.941 76.852 -10.562 78.625 C-10.089 79.215 -9.616 79.806 -9.129 80.414 C-6.716 83.803 -6.866 86.312 -6.875 90.438 C-6.872 91.591 -6.87 92.745 -6.867 93.934 C-7 97 -7 97 -8 100 C-7.303 100.246 -6.605 100.492 -5.887 100.746 C-2.591 102.178 0.242 104.035 3.188 106.062 C4.504 106.954 5.822 107.845 7.141 108.734 C7.89 109.24 8.64 109.746 9.412 110.268 C14.151 113.44 18.927 116.558 23.701 119.677 C25.405 120.791 27.108 121.906 28.811 123.022 C29.883 123.722 30.955 124.423 32.059 125.145 C33.01 125.767 33.962 126.389 34.943 127.031 C37.745 129 37.745 129 40.122 129.758 C42.78 130.878 44.179 131.739 46 134 C47.164 139.623 46.93 145.178 46.781 150.895 C46.766 152.569 46.755 154.243 46.747 155.918 C46.716 160.316 46.638 164.713 46.549 169.11 C46.467 173.601 46.431 178.093 46.391 182.584 C46.305 191.39 46.168 200.195 46 209 C46.761 209.29 47.522 209.579 48.306 209.877 C51.712 211.297 54.604 213.292 57.625 215.375 C63.388 219.286 69.22 223.058 75.125 226.75 C82.275 231.235 89.348 235.825 96.375 240.5 C97.261 241.087 98.146 241.675 99.059 242.28 C100.31 243.116 100.31 243.116 101.586 243.969 C102.319 244.458 103.051 244.947 103.806 245.451 C104.53 245.962 105.254 246.473 106 247 C107.359 247.693 107.359 247.693 108.745 248.399 C112.57 252.811 111.609 258.016 111.488 263.641 C111.481 264.878 111.474 266.115 111.467 267.39 C111.444 270.672 111.399 273.953 111.343 277.234 C111.292 280.586 111.27 283.937 111.244 287.289 C111.189 293.86 111.105 300.43 111 307 C109.02 307 107.04 307 105 307 C105 289.18 105 271.36 105 253 C103.35 252.34 101.7 251.68 100 251 C98.757 250.265 97.538 249.488 96.348 248.672 C95.665 248.209 94.982 247.746 94.279 247.269 C93.182 246.517 93.182 246.517 92.062 245.75 C82.363 239.193 72.508 232.902 62.605 226.659 C60.128 225.081 57.673 223.475 55.223 221.855 C54.494 221.381 53.765 220.906 53.014 220.417 C51.672 219.541 50.336 218.655 49.009 217.755 C45.594 215.522 45.594 215.522 41.637 215.206 C38.596 216.122 36.293 217.424 33.598 219.105 C32.553 219.753 31.509 220.4 30.432 221.066 C29.32 221.766 28.208 222.466 27.062 223.188 C25.9 223.912 24.737 224.636 23.573 225.359 C15.229 230.559 6.923 235.821 -1.353 241.13 C-2.58 241.916 -2.58 241.916 -3.832 242.719 C-4.597 243.225 -5.362 243.732 -6.15 244.254 C-9 246 -9 246 -12.296 247.551 C-19.173 250.911 -19.173 250.911 -23.181 257.187 C-23.6 261.085 -23.622 264.873 -23.488 268.781 C-23.486 270.205 -23.49 271.628 -23.5 273.052 C-23.509 276.776 -23.441 280.494 -23.356 284.217 C-23.283 288.025 -23.285 291.832 -23.279 295.641 C-23.258 303.096 -23.155 310.546 -23 318 C-24.98 318 -26.96 318 -29 318 C-29 296.88 -29 275.76 -29 254 C-30.32 253.67 -31.64 253.34 -33 253 C-33 270.16 -33 287.32 -33 305 C-34.98 305 -36.96 305 -39 305 C-39 286.19 -39 267.38 -39 248 C-40.65 247.34 -42.3 246.68 -44 246 C-45.972 244.785 -47.914 243.519 -49.832 242.219 C-50.655 241.664 -50.655 241.664 -51.495 241.099 C-52.665 240.31 -53.834 239.52 -55.001 238.728 C-58.051 236.66 -61.111 234.607 -64.172 232.555 C-64.771 232.152 -65.371 231.75 -65.988 231.336 C-71.054 227.945 -76.186 224.683 -81.391 221.51 C-84.932 219.339 -88.377 217.07 -91.789 214.699 C-92.604 214.137 -93.42 213.575 -94.26 212.996 C-95.841 211.899 -97.414 210.791 -98.977 209.668 C-103.004 206.752 -103.004 206.752 -107.766 206.074 C-108.872 206.532 -108.872 206.532 -110 207 C-110.692 207.237 -111.384 207.474 -112.098 207.719 C-112.746 207.977 -113.394 208.234 -114.062 208.5 C-122.428 211.813 -132.247 212.998 -140.816 209.719 C-153.073 204.253 -160.068 196.374 -165 184 C-167.703 173.402 -166.244 163.211 -160.715 153.816 C-154.993 145.64 -146.707 137.878 -137 135 C-128.226 133.908 -120.734 134.833 -112.586 138.223 C-109.422 139.174 -108.122 139.091 -105 138 C-102.317 136.52 -99.79 134.836 -97.25 133.125 C-95.718 132.113 -94.185 131.101 -92.652 130.09 C-91.875 129.573 -91.097 129.056 -90.296 128.523 C-86.819 126.217 -83.317 123.951 -79.812 121.688 C-79.137 121.25 -78.461 120.812 -77.765 120.36 C-70.556 115.695 -63.303 111.097 -56.046 106.507 C-55.144 105.935 -54.242 105.363 -53.312 104.773 C-52.1 104.007 -52.1 104.007 -50.863 103.224 C-49.066 102.133 -49.066 102.133 -48 101 C-48.087 98.853 -48.195 96.708 -48.312 94.562 C-48.342 87.211 -46.937 82.49 -42 77 C-37.756 73.35 -34.693 71 -29 71 C-29.057 70.097 -29.057 70.097 -29.114 69.176 C-29.493 62.866 -29.748 56.56 -29.934 50.242 C-30.019 47.891 -30.135 45.54 -30.282 43.192 C-31.452 24.121 -31.452 24.121 -27.293 18.827 C-23.203 15.25 -18.654 12.8 -13.657 10.716 C-11.996 10.119 -11.996 10.119 -11 9 C-12.98 8.34 -14.96 7.68 -17 7 C-17 6.01 -17 5.02 -17 4 C-11.154 1.365 -6.455 -0.561 0 0 Z M-14.312 106.875 C-19.341 110.851 -23.878 111.474 -30.145 111.406 C-34.078 110.847 -36.79 109.229 -40.027 106.996 C-41.92 105.8 -41.92 105.8 -43.883 106.296 C-46.131 107.043 -47.85 107.989 -49.844 109.266 C-50.586 109.737 -51.327 110.209 -52.092 110.695 C-52.887 111.208 -53.681 111.721 -54.5 112.25 C-55.331 112.781 -56.162 113.311 -57.018 113.858 C-64.877 118.889 -72.696 123.983 -80.512 129.082 C-84.094 131.417 -87.695 133.719 -91.312 136 C-95.316 138.532 -99.18 141.198 -103 144 C-102.464 144.784 -101.928 145.567 -101.375 146.375 C-99.489 149.218 -97.665 152.096 -95.875 155 C-95.377 155.804 -94.88 156.609 -94.367 157.438 C-90.157 165.329 -89.597 174.181 -91.688 182.852 C-93.585 187.958 -96.273 192.116 -99.73 196.309 C-101.205 198.087 -101.205 198.087 -102 201 C-101.185 201.528 -101.185 201.528 -100.354 202.066 C-97.819 203.71 -95.285 205.355 -92.75 207 C-91.897 207.553 -91.043 208.106 -90.164 208.676 C-84.516 212.343 -78.902 216.059 -73.303 219.8 C-67.541 223.638 -61.758 227.444 -55.972 231.246 C-54.57 232.168 -53.168 233.091 -51.767 234.015 C-47.772 236.648 -43.769 239.268 -39.75 241.864 C-38.146 242.905 -36.551 243.961 -34.958 245.019 C-34.088 245.577 -33.217 246.136 -32.32 246.711 C-31.23 247.423 -31.23 247.423 -30.118 248.15 C-27.292 249.284 -25.877 248.932 -23 248 C-20.55 246.76 -20.55 246.76 -18.105 245.148 C-16.69 244.253 -16.69 244.253 -15.246 243.34 C-14.236 242.692 -13.227 242.043 -12.188 241.375 C-10.028 240.005 -7.867 238.635 -5.707 237.266 C-4.599 236.56 -3.491 235.854 -2.35 235.127 C2.954 231.759 8.291 228.445 13.625 225.125 C27.492 217.446 27.492 217.446 40 208 C40.152 205.866 40.234 203.727 40.288 201.588 C40.306 200.918 40.324 200.248 40.342 199.557 C40.497 193.356 40.584 187.154 40.652 180.952 C40.698 176.785 40.765 172.621 40.885 168.456 C41 164.428 41.06 160.402 41.083 156.373 C41.1 154.841 41.137 153.31 41.194 151.779 C41.638 142.935 41.638 142.935 37.671 135.359 C34.866 133.293 32.072 131.635 29 130 C27.142 128.779 25.292 127.544 23.457 126.289 C21.578 125.064 19.696 123.843 17.812 122.625 C16.822 121.982 15.831 121.34 14.81 120.677 C11.877 118.779 8.94 116.888 6 115 C5.149 114.453 4.298 113.907 3.421 113.343 C1.181 111.909 -1.064 110.483 -3.312 109.062 C-3.97 108.644 -4.627 108.225 -5.303 107.793 C-9.838 104.595 -9.838 104.595 -14.312 106.875 Z " fill="#FCF5F4" transform="translate(651,338)"/>
<path d="M0 0 C50.83 0 50.83 0 65 13 C74.524 23.855 78.175 34.164 78.188 48.438 C78.2 49.15 78.212 49.862 78.225 50.596 C78.254 61.444 74.287 71.635 67.75 80.312 C48.169 99.448 27.923 96 0 96 C0 64.32 0 32.64 0 0 Z " fill="#FEFBFC" transform="translate(643,862)"/>
<path d="M0 0 C56.288 0 56.288 0 67.758 10.629 C74.619 18.059 76.715 25.444 76.379 35.5 C75.408 44.468 72.086 52.227 65 58 C61.128 60.333 57.175 62.273 53 64 C52.132 64.382 51.265 64.763 50.371 65.156 C45.298 66.426 40.33 66.208 35.125 66.125 C31.454 66.084 27.782 66.043 24 66 C24 75.9 24 85.8 24 96 C16.08 96 8.16 96 0 96 C0 64.32 0 32.64 0 0 Z " fill="#FEFCFD" transform="translate(80,862)"/>
<path d="M0 0 C21.45 0 42.9 0 65 0 C65 6.6 65 13.2 65 20 C51.47 20 37.94 20 24 20 C24 25.61 24 31.22 24 37 C34.56 37 45.12 37 56 37 C56 43.6 56 50.2 56 57 C45.44 57 34.88 57 24 57 C24 62.94 24 68.88 24 75 C37.86 75 51.72 75 66 75 C66 81.93 66 88.86 66 96 C44.22 96 22.44 96 0 96 C0 64.32 0 32.64 0 0 Z " fill="#FEFDFD" transform="translate(178,862)"/>
<path d="M0 0 C3.738 3.134 7.422 6.826 9.562 11.25 C9.516 13.266 9.516 13.266 8.562 15.25 C6.418 17.102 6.418 17.102 3.75 18.875 C2.877 19.465 2.005 20.056 1.105 20.664 C-1.037 22 -3.156 23.176 -5.438 24.25 C-5.969 23.768 -6.5 23.286 -7.047 22.789 C-7.753 22.157 -8.46 21.526 -9.188 20.875 C-9.884 20.249 -10.58 19.622 -11.297 18.977 C-15.381 15.683 -18.235 14.957 -23.5 14.938 C-24.543 14.921 -25.586 14.904 -26.66 14.887 C-29.436 15.025 -29.436 15.025 -31.281 16.586 C-33.113 19.223 -32.883 21.133 -32.438 24.25 C-29.273 28.48 -25.406 29.359 -20.5 30.562 C-8.952 33.704 1.55 38.032 8.562 48.25 C9.108 48.995 9.653 49.74 10.215 50.508 C11.942 54.021 12.057 57.166 12 61 C11.992 61.711 11.985 62.422 11.977 63.154 C11.794 69.004 10.782 73.385 7.562 78.25 C7.162 78.871 6.761 79.493 6.348 80.133 C0.918 87.404 -7.799 91.233 -16.438 93.25 C-29.494 94.352 -41.343 92.945 -52.324 85.176 C-56.418 81.446 -59.424 76.865 -62.438 72.25 C-58.015 67.217 -52.524 63.066 -46.438 60.25 C-43.423 60.356 -42.045 60.654 -39.883 62.773 C-39.447 63.384 -39.011 63.995 -38.562 64.625 C-35.13 68.879 -31.701 70.851 -26.168 71.527 C-21.448 71.723 -18.232 71.333 -14.438 68.25 C-12.959 65.293 -13.377 62.508 -13.438 59.25 C-18.943 56.155 -24.254 53.912 -30.375 52.312 C-42.495 49.006 -50.816 43.853 -57.375 33.062 C-59.98 23.715 -59.23 15.473 -54.469 6.984 C-41.987 -9.818 -16.715 -11.587 0 0 Z " fill="#FEFCFC" transform="translate(323.4375,866.75)"/>
<path d="M0 0 C4.836 3.532 8.373 7.281 11.438 12.422 C11.438 13.412 11.438 14.402 11.438 15.422 C9.207 17.395 9.207 17.395 6.25 19.484 C5.287 20.177 4.324 20.869 3.332 21.582 C0.734 23.234 -1.669 24.401 -4.562 25.422 C-5.702 23.957 -6.841 22.492 -7.98 21.027 C-10.972 17.991 -13.535 16.549 -17.789 16.023 C-18.911 16.031 -20.032 16.039 -21.188 16.047 C-22.877 16.035 -22.877 16.035 -24.602 16.023 C-27.531 16.188 -27.531 16.188 -29.438 17.727 C-31.335 20.585 -30.917 23.111 -30.562 26.422 C-28.244 29.62 -25.414 30.298 -21.715 31.367 C-20.551 31.723 -19.388 32.079 -18.189 32.445 C-15.761 33.17 -13.329 33.882 -10.893 34.578 C-0.586 37.774 7.181 42.763 12.438 52.422 C14.661 58.778 14.532 67.014 12.496 73.352 C11.289 75.842 9.966 78.117 8.438 80.422 C7.757 81.494 7.076 82.567 6.375 83.672 C0.12 90.639 -10.632 93.95 -19.707 94.672 C-30.551 95.054 -41.175 93.337 -49.711 86.199 C-59.378 76.92 -59.378 76.92 -60.562 71.422 C-57.988 69.74 -55.402 68.079 -52.812 66.422 C-52.083 65.945 -51.353 65.468 -50.602 64.977 C-49.893 64.525 -49.184 64.074 -48.453 63.609 C-47.804 63.19 -47.154 62.771 -46.485 62.34 C-44.562 61.422 -44.562 61.422 -40.562 61.422 C-39.105 62.812 -39.105 62.812 -37.75 64.672 C-34.15 69.098 -30.848 72.021 -25.035 72.73 C-20.684 72.839 -17.317 72.817 -13.562 70.422 C-11.245 67.546 -11.245 67.546 -11.562 63.984 C-12.574 60.381 -13.269 59.08 -16.512 57.246 C-20.011 55.84 -23.664 55.105 -27.332 54.262 C-38.986 51.232 -47.828 46.742 -54.398 36.605 C-57.836 30.158 -57.785 21.508 -55.727 14.629 C-51.7 5.914 -45.551 -0.313 -36.641 -3.887 C-24.732 -7.849 -10.696 -6.587 0 0 Z " fill="#FEFCFC" transform="translate(942.5625,865.578125)"/>
<path d="M0 0 C21.12 0 42.24 0 64 0 C64 6.6 64 13.2 64 20 C50.8 20.33 37.6 20.66 24 21 C23.67 26.28 23.34 31.56 23 37 C33.56 37 44.12 37 55 37 C55 43.6 55 50.2 55 57 C44.44 57 33.88 57 23 57 C23 62.94 23 68.88 23 75 C36.53 75 50.06 75 64 75 C64 81.93 64 88.86 64 96 C42.88 96 21.76 96 0 96 C0 64.32 0 32.64 0 0 Z " fill="#FEFDFE" transform="translate(807,862)"/>
<path d="M0 0 C4.88 2.266 7.667 5.155 10 10 C10.799 14.936 10.671 19.399 8.312 23.875 C5.336 27.897 2.771 30.41 -2 32 C-2 43.22 -2 54.44 -2 66 C1.836 67.774 5.673 69.548 9.625 71.375 C10.823 71.931 12.022 72.487 13.256 73.06 C14.696 73.723 14.696 73.723 16.164 74.398 C17.138 74.849 18.112 75.299 19.116 75.763 C22.049 77.021 24.93 78.126 28 79 C29.843 78.176 29.843 78.176 31.25 76.625 C34.963 73.626 37.871 73.315 42.574 73.586 C47.955 74.504 51.478 77.033 54.938 81.188 C57.62 85.358 58.018 89.182 57 94 C54.956 99.096 51.927 102.943 46.957 105.379 C42.024 106.944 37.584 106.548 32.75 104.875 C28.919 102.263 26.098 99.197 24 95 C23.93 93.126 23.916 91.25 23.938 89.375 C23.947 88.372 23.956 87.369 23.965 86.336 C23.982 85.18 23.982 85.18 24 84 C23.186 83.749 23.186 83.749 22.356 83.493 C15.762 81.387 9.62 78.627 3.398 75.609 C-0.895 73.59 -0.895 73.59 -5.531 73 C-6.346 73.33 -7.161 73.66 -8 74 C-8.615 74.238 -9.229 74.475 -9.862 74.72 C-15.943 77.398 -20.942 81.007 -24 87 C-26.86 98.804 -25.611 111.973 -25 124 C-23.727 124.128 -22.454 124.257 -21.142 124.389 C-18.131 124.693 -17.186 124.855 -14.723 126.777 C-13.901 127.847 -13.901 127.847 -13.062 128.938 C-12.497 129.648 -11.931 130.358 -11.348 131.09 C-8.645 134.921 -8.308 138.415 -9 143 C-10.805 147.672 -13.377 151.016 -17.75 153.5 C-22.163 155.342 -26.298 156.088 -31 155 C-35.004 152.933 -38.143 150.705 -40.191 146.629 C-41.599 142.054 -41.782 137.72 -41 133 C-39.445 130.112 -37.653 127.935 -35 126 C-33.68 125.67 -32.36 125.34 -31 125 C-31.33 113.12 -31.66 101.24 -32 89 C-36.043 86.979 -40.085 84.957 -44.25 82.875 C-45.519 82.23 -46.788 81.586 -48.095 80.921 C-49.602 80.183 -49.602 80.183 -51.141 79.43 C-52.167 78.916 -53.193 78.403 -54.251 77.875 C-56.915 76.731 -56.915 76.731 -59.218 77.735 C-61.565 79.401 -63.788 81.157 -66 83 C-67.433 84.189 -67.433 84.189 -68.895 85.402 C-69.93 86.268 -70.965 87.134 -72 88 C-73.129 88.939 -74.258 89.878 -75.387 90.816 C-78.261 93.207 -81.132 95.602 -84 98 C-82.602 101.545 -82.602 101.545 -81 105 C-80.316 110.056 -79.853 114.932 -82.387 119.5 C-86.717 124.609 -90.117 126.616 -96.75 127.5 C-102.049 127.379 -106.162 124.471 -110 121 C-113.17 116.245 -112.823 110.465 -112 105 C-110.455 102.045 -108.56 100.105 -106 98 C-105.278 97.361 -104.556 96.721 -103.812 96.062 C-100.673 94.876 -99.334 95.18 -96.062 95.562 C-88.613 95.782 -84.694 91.197 -79.582 86.395 C-78.7 85.551 -78.7 85.551 -77.799 84.69 C-74.902 81.969 -71.859 79.427 -68.812 76.875 C-68.002 76.184 -68.002 76.184 -67.174 75.479 C-64.846 73.501 -62.547 71.698 -60 70 C-56.131 70.356 -53.089 71.788 -49.656 73.539 C-48.657 74.037 -47.658 74.534 -46.629 75.047 C-44.54 76.101 -42.454 77.16 -40.371 78.227 C-39.372 78.722 -38.373 79.217 -37.344 79.727 C-36.438 80.186 -35.533 80.646 -34.6 81.12 C-31.556 82.15 -30.03 81.987 -27 81 C-24.238 79.117 -24.238 79.117 -21.562 76.75 C-20.656 75.982 -19.75 75.213 -18.816 74.422 C-17.887 73.623 -16.958 72.823 -16 72 C-14.969 71.293 -13.937 70.586 -12.874 69.858 C-10.127 67.558 -10.004 67.02 -9.227 63.219 C-9.186 61.765 -9.177 60.31 -9.195 58.855 C-9.182 58.086 -9.168 57.316 -9.154 56.523 C-9.117 54.077 -9.12 51.633 -9.125 49.188 C-9.107 47.524 -9.086 45.861 -9.062 44.197 C-9.011 40.131 -8.996 36.066 -9 32 C-9.935 31.707 -10.869 31.415 -11.832 31.113 C-16.199 29.579 -18.831 27.37 -21.812 23.875 C-23.592 19.567 -23.663 15.593 -23 11 C-17.909 0.818 -10.586 -0.984 0 0 Z " fill="#FDF5F4" transform="translate(218,132)"/>
<path d="M0 0 C2.188 1.929 4.334 3.887 6.445 5.898 C5.136 8.825 3.783 10.77 1.406 12.914 C0.826 13.443 0.246 13.971 -0.352 14.516 C-0.955 15.054 -1.558 15.593 -2.18 16.148 C-2.791 16.703 -3.402 17.257 -4.031 17.828 C-5.534 19.19 -7.044 20.545 -8.555 21.898 C-9.123 21.5 -9.692 21.102 -10.277 20.691 C-18.571 15.001 -25.293 11.57 -35.555 12.898 C-43.561 15.418 -48.21 21.016 -52.539 27.934 C-55.541 33.741 -55.404 40.607 -53.801 46.82 C-51.177 54.434 -48.305 59.446 -40.93 63.211 C-35.283 65.843 -30.719 67.335 -24.555 65.898 C-21.353 64.573 -18.348 63.082 -15.316 61.406 C-12.555 59.898 -12.555 59.898 -7.555 57.898 C-2.935 62.518 1.685 67.138 6.445 71.898 C1.636 81.517 -8.483 85.805 -18.18 89.148 C-31.286 92.015 -44.183 89.64 -55.805 83.211 C-67.493 75.64 -75.125 64.947 -78.855 51.582 C-81.467 37.826 -80.002 25.005 -72.723 12.836 C-64.951 1.554 -54.731 -6.655 -41.055 -9.477 C-26.174 -11.548 -11.874 -9.768 0 0 Z " fill="#FEFCFC" transform="translate(578.5546875,870.1015625)"/>
<path d="M0 0 C1.98 0 3.96 0 6 0 C5.947 1.295 5.893 2.59 5.838 3.925 C5.659 8.787 5.588 13.646 5.548 18.512 C5.516 20.606 5.456 22.701 5.366 24.793 C4.589 36.498 4.589 36.498 8.503 47.177 C12.218 51.077 16.497 54.011 21.076 56.811 C23.478 58.295 25.659 59.995 27.859 61.762 C29.154 62.739 30.451 63.715 31.75 64.688 C35.785 67.724 39.783 70.764 43.598 74.074 C44.145 74.548 44.693 75.022 45.257 75.511 C46.709 76.784 48.146 78.075 49.582 79.367 C51.813 81.234 51.813 81.234 54.152 80.855 C56.183 79.946 56.183 79.946 58.75 78.438 C63.401 76.38 67.334 76.128 72.113 77.691 C77.592 80.157 81.28 83.56 84 89 C84.527 95.207 84.762 100.781 81 106 C76.191 110.821 72.644 113.13 65.688 113.312 C60.625 113.259 57.855 112.479 54 109 C49.375 103.99 47.644 99.674 47.797 92.938 C48.064 90.387 48.858 88.284 50 86 C49.483 85.783 48.966 85.567 48.434 85.344 C44.992 83.443 42.099 80.985 39.062 78.5 C37.71 77.407 36.357 76.314 35.004 75.223 C34.329 74.678 33.653 74.132 32.958 73.571 C28.603 70.077 24.176 66.68 19.723 63.313 C17.813 61.857 15.923 60.377 14.031 58.898 C12.688 57.869 11.344 56.84 10 55.812 C9.377 55.318 8.753 54.824 8.111 54.314 C4.74 51.654 4.74 51.654 0.636 51.223 C-2.236 52.07 -4.788 53.168 -7.484 54.469 C-8.501 54.957 -9.519 55.446 -10.566 55.949 C-11.617 56.461 -12.668 56.973 -13.75 57.5 C-14.816 58.012 -15.882 58.524 -16.98 59.051 C-21.795 61.063 -21.795 61.063 -26 64 C-26.093 65.763 -26.093 65.763 -26.188 67.562 C-26.795 72.838 -29.349 76.263 -33 80 C-37.951 83.601 -43.082 83.554 -49 83 C-49.66 82.67 -50.32 82.34 -51 82 C-51 90.58 -51 99.16 -51 108 C-49.68 108.66 -48.36 109.32 -47 110 C-43.402 113.569 -41.074 116.554 -40.812 121.688 C-40.839 124.598 -41.154 126.52 -42 129.375 C-43.273 133.991 -43.172 138.245 -43 143 C-42.34 143 -41.68 143 -41 143 C-40.773 142.443 -40.546 141.886 -40.312 141.312 C-38.588 138.273 -36.679 136.242 -34 134 C-31.188 133.688 -31.188 133.688 -29 134 C-29.422 134.471 -29.843 134.941 -30.277 135.426 C-31.099 136.36 -31.099 136.36 -31.938 137.312 C-32.483 137.927 -33.028 138.542 -33.59 139.176 C-35.201 141.052 -35.201 141.052 -36 144 C-34.565 146.291 -34.565 146.291 -32.562 148.562 C-29 152.808 -29 152.808 -29 155 C-31.668 154.848 -33.443 154.553 -35.375 152.633 C-36.603 151.105 -37.803 149.553 -39 148 C-39.66 147.67 -40.32 147.34 -41 147 C-41.66 149.64 -42.32 152.28 -43 155 C-44.32 155 -45.64 155 -47 155 C-47.495 145.1 -47.495 145.1 -48 135 C-48.99 135.99 -49.98 136.98 -51 138 C-53.918 138.293 -53.918 138.293 -57.188 138.188 C-58.274 138.16 -59.361 138.133 -60.48 138.105 C-61.312 138.071 -62.143 138.036 -63 138 C-63 139.32 -63 140.64 -63 142 C-59.7 142 -56.4 142 -53 142 C-53 143.32 -53 144.64 -53 146 C-56.3 146 -59.6 146 -63 146 C-63 147.65 -63 149.3 -63 151 C-59.37 151 -55.74 151 -52 151 C-52 152.32 -52 153.64 -52 155 C-56.95 155 -61.9 155 -67 155 C-67.039 152.796 -67.039 152.796 -67.078 150.547 C-67.134 148.615 -67.192 146.682 -67.25 144.75 C-67.264 143.782 -67.278 142.814 -67.293 141.816 C-67.36 136.238 -67.36 136.238 -69.984 131.516 C-70.982 130.765 -70.982 130.765 -72 130 C-73.372 125.884 -73.736 122.296 -73 118 C-70.528 113.196 -67.074 109.082 -62 107 C-60.334 106.961 -58.666 106.956 -57 107 C-57.118 102.337 -57.242 97.674 -57.372 93.011 C-57.416 91.424 -57.457 89.837 -57.497 88.25 C-57.555 85.971 -57.619 83.693 -57.684 81.414 C-57.7 80.703 -57.717 79.991 -57.734 79.258 C-57.797 75.503 -57.797 75.503 -59 72 C-59.561 67.406 -59.464 63.928 -57.375 59.75 C-50.948 52.308 -50.948 52.308 -46.156 51.551 C-39.69 51.319 -35.97 51.9 -31 56 C-27.594 57.27 -27.06 57.025 -23.461 55.523 C-22.093 54.819 -20.731 54.103 -19.375 53.375 C-18.029 52.674 -16.682 51.974 -15.336 51.273 C-13.19 50.148 -13.19 50.148 -11 49 C-7.7 47.35 -4.4 45.7 -1 44 C-0.67 29.48 -0.34 14.96 0 0 Z " fill="#FDF4F3" transform="translate(264,645)"/>
<path d="M0 0 C28.38 0 56.76 0 86 0 C86 6.6 86 13.2 86 20 C75.77 20 65.54 20 55 20 C55 45.08 55 70.16 55 96 C47.08 96 39.16 96 31 96 C31 70.92 31 45.84 31 20 C20.77 20 10.54 20 0 20 C0 13.4 0 6.8 0 0 Z " fill="#FEFDFD" transform="translate(350,862)"/>
<path d="M0 0 C8.559 5.452 12.85 13.551 16 23 C17.094 32.61 14.439 40.973 8.875 48.812 C4.533 54.059 -0.993 56.997 -7 60 C-17.663 60.76 -27.027 60.836 -35.688 53.824 C-43.171 46.83 -46.992 41.041 -47.514 30.814 C-47.685 22.809 -46.704 16.703 -42 10 C-41.278 8.928 -40.556 7.855 -39.812 6.75 C-28.145 -4.658 -14.692 -6.979 0 0 Z " fill="#F85C67" transform="translate(539,483)"/>
<path d="M0 0 C7.59 0 15.18 0 23 0 C23 24.75 23 49.5 23 75 C34.55 75 46.1 75 58 75 C58 81.93 58 88.86 58 96 C38.86 96 19.72 96 0 96 C0 64.32 0 32.64 0 0 Z " fill="#FEFDFE" transform="translate(736,862)"/>
<path d="M0 0 C0.722 0.427 1.444 0.854 2.188 1.293 C11.401 6.963 18.066 14.116 20.828 24.786 C22.382 33.476 22.526 42.049 22.503 50.849 C22.5 53.374 22.524 55.899 22.549 58.424 C22.603 72.256 20.971 86.102 11.312 96.875 C5.695 102.036 -1.203 105.59 -7.812 109.312 C-8.621 109.773 -9.429 110.233 -10.262 110.707 C-16.063 114.003 -21.912 117.198 -27.812 120.312 C-28.928 120.909 -30.043 121.506 -31.191 122.121 C-40.379 126.534 -49.933 127.099 -59.617 124.156 C-63.831 122.496 -67.816 120.434 -71.812 118.312 C-72.693 117.852 -73.574 117.391 -74.482 116.916 C-80.991 113.495 -87.422 109.95 -93.812 106.312 C-94.452 105.951 -95.092 105.589 -95.751 105.217 C-105.656 99.552 -113.154 92.282 -116.461 81.125 C-120.938 62.439 -123.215 33.126 -112.953 15.934 C-112.577 15.399 -112.2 14.864 -111.812 14.312 C-111.415 13.726 -111.018 13.139 -110.609 12.535 C-81.153 -26.147 -36.266 -21.72 0 0 Z M-71.125 -7.375 C-71.976 -6.944 -72.827 -6.513 -73.703 -6.07 C-80.265 -2.665 -86.544 1.112 -92.75 5.125 C-93.584 5.664 -94.418 6.202 -95.277 6.757 C-102.559 11.585 -109.17 16.863 -111.414 25.674 C-112.944 34.23 -113.185 42.646 -113.183 51.312 C-113.187 53.743 -113.224 56.173 -113.262 58.604 C-113.346 70.386 -112.467 84.359 -103.812 93.312 C-87.439 106.13 -63.421 121.696 -42.006 119.66 C-35.413 118.615 -29.635 115.423 -23.812 112.312 C-22.998 111.889 -22.183 111.466 -21.344 111.03 C1.286 100.007 1.286 100.007 14.973 80.09 C17.508 71.798 17.86 63.84 17.675 55.219 C17.625 52.852 17.613 50.487 17.607 48.119 C17.514 35.582 16.687 20.692 7.188 11.312 C-0.647 5.385 -9.426 0.754 -18 -4 C-18.902 -4.504 -19.803 -5.007 -20.732 -5.526 C-28.723 -9.876 -37.129 -14.327 -46.438 -14.062 C-47.942 -14.043 -47.942 -14.043 -49.477 -14.023 C-57.432 -13.222 -64.025 -11.01 -71.125 -7.375 Z " fill="#F8F5F4" transform="translate(832.8125,150.6875)"/>
<path d="M0 0 C7.92 0 15.84 0 24 0 C24 31.68 24 63.36 24 96 C16.08 96 8.16 96 0 96 C0 64.32 0 32.64 0 0 Z " fill="#FDFAFB" transform="translate(458,862)"/>
<path d="M0 0 C7.59 0 15.18 0 23 0 C23 31.68 23 63.36 23 96 C15.41 96 7.82 96 0 96 C0 64.32 0 32.64 0 0 Z " fill="#FEFEFE" transform="translate(601,862)"/>
<path d="M0 0 C30.829 0 30.829 0 37.094 6.008 C40.309 10.848 41.907 14.701 41.523 20.574 C40.174 26.829 36.309 31.549 31 35 C26.803 37.087 23.344 37.212 18.688 37.125 C15.377 37.063 15.377 37.063 12 37 C12 43.27 12 49.54 12 56 C8.04 56 4.08 56 0 56 C0 37.52 0 19.04 0 0 Z " fill="#FDF9F9" transform="translate(533,51)"/>
<path d="M0 0 C3.3 0 6.6 0 10 0 C10 17.16 10 34.32 10 52 C6.7 52 3.4 52 0 52 C0 51.34 0 50.68 0 50 C-0.969 50.66 -1.939 51.32 -2.938 52 C-7.266 54.453 -11.119 54.875 -16 54 C-21.887 51.057 -26.467 46.116 -29 40 C-29.972 33.409 -29.431 28.171 -25.504 22.723 C-21.763 18.438 -18.191 15.189 -12.375 14.688 C-8 15 -8 15 0 19 C0 12.73 0 6.46 0 0 Z " fill="#FEFBFB" transform="translate(825,46)"/>
<path d="M0 0 C3.63 0 7.26 0 11 0 C11 6.6 11 13.2 11 20 C18.26 20 25.52 20 33 20 C33 13.4 33 6.8 33 0 C36.96 0 40.92 0 45 0 C45 16.83 45 33.66 45 51 C41.04 51 37.08 51 33 51 C33 44.4 33 37.8 33 31 C25.74 31 18.48 31 11 31 C11 37.6 11 44.2 11 51 C7.37 51 3.74 51 0 51 C0 34.17 0 17.34 0 0 Z " fill="#FDF8F9" transform="translate(99,48)"/>
<path d="M0 0 C2.006 1.324 4.007 2.657 6 4 C8.783 3.916 9.999 3.001 12.312 1.438 C15.908 -0.486 17.956 -0.548 22 0 C27.196 2.325 30.429 4.853 33 10 C33.341 13.138 33.341 13.138 33.293 16.613 C33.278 18.484 33.278 18.484 33.264 20.393 C33.239 21.686 33.213 22.98 33.188 24.312 C33.167 26.282 33.167 26.282 33.146 28.291 C33.111 31.528 33.062 34.764 33 38 C29.37 38 25.74 38 22 38 C21.951 36.219 21.902 34.437 21.852 32.602 C21.777 30.276 21.701 27.951 21.625 25.625 C21.594 24.449 21.563 23.274 21.531 22.062 C21.473 20.38 21.473 20.38 21.414 18.664 C21.383 17.627 21.351 16.59 21.319 15.522 C21.24 12.832 21.24 12.832 19 11 C15.93 11.164 15.93 11.164 13 12 C11.714 14.572 11.79 16.569 11.684 19.445 C11.621 21.06 11.621 21.06 11.557 22.707 C11.517 23.835 11.478 24.963 11.438 26.125 C11.373 27.828 11.373 27.828 11.307 29.566 C11.2 32.377 11.1 35.189 11 38 C7.37 38 3.74 38 0 38 C-0.049 36.302 -0.098 34.605 -0.148 32.855 C-0.223 30.633 -0.299 28.41 -0.375 26.188 C-0.406 25.068 -0.437 23.948 -0.469 22.795 C-0.507 21.722 -0.546 20.649 -0.586 19.543 C-0.633 18.058 -0.633 18.058 -0.681 16.544 C-0.838 13.759 -0.838 13.759 -3 11 C-5.786 10.571 -7.31 10.501 -9.628 12.177 C-11.506 14.673 -11.43 16.439 -11.512 19.543 C-11.547 20.616 -11.583 21.689 -11.619 22.795 C-11.642 23.914 -11.664 25.034 -11.688 26.188 C-11.722 27.319 -11.756 28.45 -11.791 29.615 C-11.874 32.41 -11.938 35.205 -12 38 C-15.63 38 -19.26 38 -23 38 C-23 25.79 -23 13.58 -23 1 C-19.7 1 -16.4 1 -13 1 C-13 1.99 -13 2.98 -13 4 C-11.969 3.34 -10.938 2.68 -9.875 2 C-6.394 0.039 -4.047 -0.689 0 0 Z " fill="#FDF6F7" transform="translate(220,61)"/>
<path d="M0 0 C16.619 0 16.619 0 22.934 5.766 C28.781 11.941 31.106 17.462 31.375 25.938 C31.138 34.134 29.041 42.134 23 48 C15.371 53.632 9.954 53 0 53 C0 35.51 0 18.02 0 0 Z " fill="#F85B66" transform="translate(667,883)"/>
<path d="M0 0 C4.526 2.544 8.799 6.349 10.453 11.391 C11.564 17.719 11.274 22.986 8.082 28.648 C5.037 32.94 0.957 36.151 -4.188 37.438 C-9.915 38.274 -14.102 37.94 -19.062 34.812 C-23.685 31.358 -26.345 27.964 -28.188 22.438 C-28.972 16.131 -28.474 11.432 -24.754 6.195 C-18.21 -1.148 -9.202 -4.141 0 0 Z " fill="#FDF9F9" transform="translate(461.1875,62.5625)"/>
<path d="M0 0 C5.719 1.727 10.044 5.851 13 11 C14.347 17.22 13.386 22.868 10.203 28.348 C7.327 32.297 3.683 34.751 -1 36 C-6.652 36.834 -10.931 36.503 -15.875 33.5 C-20.844 29.745 -23.238 25.85 -24.441 19.77 C-24.807 15.25 -24.013 12.444 -21.375 8.75 C-20.276 7.477 -19.151 6.226 -18 5 C-17.134 4.01 -16.268 3.02 -15.375 2 C-10.322 -0.995 -5.73 -0.696 0 0 Z " fill="#FDF7F8" transform="translate(836,398)"/>
<path d="M0 0 C4.777 3.325 8.164 7.129 9.75 12.812 C9.75 15.453 9.75 18.093 9.75 20.812 C1.17 20.812 -7.41 20.812 -16.25 20.812 C-13.927 25.697 -13.927 25.697 -11.25 26.812 C-6.825 27.058 -4.135 26.822 -0.25 24.812 C3.061 25.114 4.601 26.341 6.75 28.812 C5.576 32.465 3.363 34.283 0.004 36.043 C-5.378 37.881 -11.355 37.957 -16.66 35.859 C-22.237 32.565 -26.515 28.173 -28.25 21.812 C-29.076 15.289 -28.069 10.211 -24.25 4.812 C-17.913 -2.201 -8.338 -4.928 0 0 Z " fill="#FDF6F6" transform="translate(607.25,63.1875)"/>
<path d="M0 0 C3.873 2.714 5.642 6.045 7.723 10.207 C7.723 13.507 7.723 16.807 7.723 20.207 C-0.857 20.207 -9.437 20.207 -18.277 20.207 C-15.955 25.092 -15.955 25.092 -13.277 26.207 C-8.1 26.512 -4.134 25.793 0.723 24.207 C4.723 28.957 4.723 28.957 4.723 31.207 C-1.139 35.352 -6.119 37.091 -13.34 36.75 C-19.051 35.694 -23.065 32.905 -26.719 28.449 C-30.075 22.859 -30.357 16.526 -29.277 10.207 C-27.21 5.128 -24.237 1.389 -19.465 -1.355 C-12.617 -4.186 -6.406 -3.604 0 0 Z " fill="#FDF7F7" transform="translate(873.27734375,63.79296875)"/>
<path d="M0 0 C4.964 2.086 7.745 5.283 10.816 9.613 C11.848 12.418 11.848 12.418 11.848 22.418 C3.268 22.418 -5.312 22.418 -14.152 22.418 C-12.504 26.542 -12.504 26.542 -9.152 28.418 C-3.904 28.762 -0.096 28.396 4.848 26.418 C6.91 28.168 6.91 28.168 8.848 30.418 C8.636 32.881 8.285 34.03 6.422 35.684 C0.372 38.84 -5.416 39.569 -12.152 38.418 C-17.197 36.364 -20.959 33.393 -23.715 28.668 C-26.223 22.652 -25.837 16.834 -24.09 10.668 C-18.735 1.685 -10.307 -2.787 0 0 Z " fill="#FDF8F8" transform="translate(178.15234375,61.58203125)"/>
<path d="M0 0 C4.055 2.857 7.516 6.469 9.75 10.938 C10.56 17.166 10.084 22.026 6.355 27.176 C2.13 31.813 -2.047 34.205 -8.375 34.5 C-13.766 34.195 -16.939 32.342 -20.688 28.441 C-24.977 23.555 -25.61 19.725 -25.527 13.438 C-24.959 8.312 -21.851 5.34 -18.125 2.125 C-12.553 -2.115 -6.616 -2.163 0 0 Z " fill="#FEFCFC" transform="translate(270.25,312.0625)"/>
<path d="M0 0 C4.795 2.302 9.194 5.921 11 11 C11.668 17.224 11.754 22.745 8 28 C3.488 32.525 -0.332 34.169 -6.688 34.438 C-12.216 34.397 -15.233 33.266 -19.477 29.801 C-23.464 25.087 -23.488 19.867 -23.379 13.945 C-22.635 8.16 -19.501 5.427 -15.438 1.562 C-10.269 -0.787 -5.575 -0.972 0 0 Z " fill="#FDF6F5" transform="translate(152,296)"/>
<path d="M0 0 C12.517 8.436 22.154 20.83 25.607 35.715 C28.465 52.348 26.257 67.595 17.223 81.793 C15.59 84.003 13.881 86 12 88 C11.469 88.608 10.938 89.217 10.391 89.844 C2.594 98.309 -7.039 102.987 -18 106 C-18.748 106.226 -19.495 106.451 -20.266 106.684 C-35.173 110.686 -49.543 107.015 -62.938 100.188 C-76.386 92.255 -86.534 79.324 -91.109 64.375 C-93.898 52.575 -93.713 37.786 -88 27 C-87.576 26.095 -87.152 25.19 -86.715 24.258 C-78.984 8.71 -65.954 -1.366 -49.777 -7.125 C-33.019 -12.405 -14.834 -8.864 0 0 Z M-58 -1 C-58.862 -0.577 -59.725 -0.154 -60.613 0.281 C-73.159 6.993 -82.554 18.359 -87.312 31.672 C-91.716 46.655 -90.998 60.554 -83.938 74.625 C-75.178 89.831 -61.948 99.747 -45.08 104.546 C-29.847 107.869 -14.118 103.715 -1 96 C11.382 88.019 19.147 76.129 23 62 C25.873 44.464 23.399 30.668 13 16 C6.721 7.502 -0.646 2.521 -10 -2 C-11.365 -2.684 -11.365 -2.684 -12.758 -3.383 C-26.528 -9.124 -44.988 -8.06 -58 -1 Z " fill="#FBF1E2" transform="translate(230,472)"/>
<path d="M0 0 C5.415 2.579 9.373 5.513 12 11 C12.9 16.506 13.083 22.204 9.938 27 C6.452 30.982 2.873 33.502 -2.391 34.414 C-8.821 34.789 -13.149 33.202 -18 29 C-21.434 25.394 -22.317 22.479 -22.625 17.625 C-22.388 11.615 -20.332 8.073 -16 4 C-11.249 0.007 -6.03 -1.337 0 0 Z " fill="#EFEC73" transform="translate(435,197)"/>
<path d="M0 0 C3.63 0 7.26 0 11 0 C14.178 6.264 17.339 12.496 20 19 C22.738 16.262 23.707 12.99 25.062 9.438 C27.88 2.12 27.88 2.12 29 1 C30.853 0.928 32.708 0.916 34.562 0.938 C35.574 0.947 36.586 0.956 37.629 0.965 C38.411 0.976 39.194 0.988 40 1 C37.352 9.872 33.431 18.112 29.562 26.5 C28.887 27.972 28.212 29.445 27.537 30.918 C26.562 33.046 25.587 35.174 24.61 37.302 C22.367 42.184 20.165 47.083 18 52 C14.37 52 10.74 52 7 52 C9.812 43.295 9.812 43.295 11.688 39.312 C13.538 34.642 13.56 31.51 11.807 26.78 C11.262 25.651 10.717 24.522 10.156 23.359 C9.723 22.447 9.723 22.447 9.282 21.516 C8.365 19.589 7.434 17.669 6.5 15.75 C5.569 13.815 4.642 11.879 3.718 9.941 C2.883 8.192 2.038 6.447 1.193 4.702 C0 2 0 2 0 0 Z " fill="#FDF8F8" transform="translate(362,62)"/>
<path d="M0 0 C2.5 1 2.5 1 4 2 C3.67 4.64 3.34 7.28 3 10 C0.36 10.33 -2.28 10.66 -5 11 C-5.66 13.31 -6.32 15.62 -7 18 C-4.03 18 -1.06 18 2 18 C2 20.97 2 23.94 2 27 C-0.97 27 -3.94 27 -7 27 C-7 35.91 -7 44.82 -7 54 C-10.63 54 -14.26 54 -18 54 C-18 45.09 -18 36.18 -18 27 C-20.31 27 -22.62 27 -25 27 C-25 23.7 -25 20.4 -25 17 C-22.69 17 -20.38 17 -18 17 C-18.082 15.969 -18.165 14.938 -18.25 13.875 C-17.953 9.267 -16.957 7.502 -14 4 C-9.201 -0.144 -6.093 -0.59 0 0 Z " fill="#FDF7F7" transform="translate(501,45)"/>
<path d="M0 0 C2.191 1.226 4.317 2.497 6.41 3.883 C5.141 7.797 3.898 9.674 0.41 11.883 C-0.105 11.388 -0.621 10.893 -1.152 10.383 C-4.397 8.386 -6.852 8.667 -10.59 8.883 C-10.59 9.873 -10.59 10.863 -10.59 11.883 C-9.709 12.114 -8.829 12.344 -7.922 12.582 C4.448 16.055 4.448 16.055 7.41 20.883 C8.201 24.815 7.786 27.909 6.348 31.633 C2.999 35.521 -0.184 37.528 -5.211 38.27 C-13.193 38.591 -18.109 36.203 -24.59 31.883 C-23.297 28.998 -21.93 27.011 -19.59 24.883 C-18.827 25.192 -18.064 25.502 -17.277 25.82 C-12.788 27.595 -9.421 27.974 -4.59 27.883 C-4.59 26.893 -4.59 25.903 -4.59 24.883 C-5.242 24.713 -5.894 24.543 -6.566 24.367 C-13.019 22.578 -17.79 20.683 -22.59 15.883 C-23.367 12.754 -23.36 10.011 -22.59 6.883 C-16.923 -0.23 -8.707 -3.756 0 0 Z " fill="#FDF7F7" transform="translate(305.58984375,62.1171875)"/>
<path d="M0 0 C3.498 1.403 6.749 3.1 10 5 C8.266 9.836 8.266 9.836 5.875 11.312 C5.256 11.539 4.638 11.766 4 12 C3.01 11.34 2.02 10.68 1 10 C-1.057 9.759 -1.057 9.759 -3.188 9.875 C-4.446 9.916 -5.704 9.957 -7 10 C-7 10.99 -7 11.98 -7 13 C-6.276 13.17 -5.551 13.34 -4.805 13.516 C0.885 14.942 5.429 16.271 10 20 C11.61 23.219 11.462 26.509 11 30 C9.222 33.624 7.651 35.535 4.375 37.875 C-3.231 40.41 -9.856 39.326 -17 36 C-19.5 34.312 -19.5 34.312 -21 33 C-19.796 30.506 -18.546 28.319 -17 26 C-14.467 26.422 -12.373 26.789 -10.125 28.062 C-7.074 29.409 -4.29 29.127 -1 29 C-1 28.01 -1 27.02 -1 26 C-1.652 25.83 -2.305 25.66 -2.977 25.484 C-14.506 22.287 -14.506 22.287 -18.375 17.188 C-19.314 13.902 -19.418 11.402 -19 8 C-16.812 5.25 -16.812 5.25 -14 3 C-13.258 2.402 -12.515 1.804 -11.75 1.188 C-7.721 -0.552 -4.318 -0.758 0 0 Z " fill="#FDF7F6" transform="translate(643,61)"/>
<path d="M0 0 C2.458 1.234 4.869 2.514 7.254 3.883 C6.05 6.376 4.8 8.564 3.254 10.883 C-1.621 10.008 -1.621 10.008 -2.746 8.883 C-5.079 8.842 -7.413 8.84 -9.746 8.883 C-10.076 9.873 -10.406 10.863 -10.746 11.883 C-10.022 12.065 -9.297 12.246 -8.551 12.434 C4.964 15.947 4.964 15.947 8.254 20.883 C8.96 25.269 8.823 28.835 6.691 32.758 C1.414 37.358 -2.362 38.144 -9.246 37.82 C-14.744 37.262 -18.285 36.099 -22.746 32.883 C-22.236 29.106 -21.538 27.436 -18.746 24.883 C-18.166 25.099 -17.586 25.316 -16.988 25.539 C-12.421 27.167 -8.668 28.261 -3.746 27.883 C-3.746 26.893 -3.746 25.903 -3.746 24.883 C-4.554 24.64 -5.363 24.398 -6.195 24.148 C-16.998 20.76 -16.998 20.76 -20.746 16.883 C-22.404 13.567 -22.65 10.421 -21.746 6.883 C-16.081 -0.021 -8.651 -3.519 0 0 Z " fill="#FEF7F7" transform="translate(909.74609375,62.1171875)"/>
<path d="M0 0 C5.437 3.708 9.452 8.226 11.969 14.309 C13.112 22.027 12.37 27.875 8.469 34.684 C3.877 40.012 -1.776 44.129 -8.91 44.961 C-15.971 45.23 -21.4 43.748 -27.281 39.871 C-32.74 34.564 -35.788 28.599 -36.031 20.996 C-35.899 14.278 -33.824 9.795 -29.531 4.684 C-20.722 -3.742 -10.82 -5.894 0 0 Z M-26.344 10.809 C-29.747 15.281 -29.996 18.239 -29.938 23.789 C-29.166 29.287 -26.023 32.589 -21.891 36.062 C-17.312 39.132 -12.822 39.477 -7.531 38.684 C-1.699 36.553 1.992 33.025 5.281 27.809 C6.996 23.297 7.366 19.947 5.555 15.379 C2.386 9.145 -0.807 5.925 -7.531 3.684 C-15.901 2.805 -20.753 4.329 -26.344 10.809 Z " fill="#FDF5F4" transform="translate(639.53125,690.31640625)"/>
<path d="M0 0 C2.638 1.417 4.582 3 6.625 5.188 C5.249 8.513 3.869 10.519 0.625 12.188 C-1.768 11.52 -3.596 10.967 -5.375 9.188 C-9.328 8.648 -10.935 8.881 -14.25 11.188 C-17.143 15.271 -16.852 17.259 -16.375 22.188 C-16.045 23.177 -15.715 24.168 -15.375 25.188 C-9.466 26.256 -6.553 26.496 -1.375 23.188 C1.825 24.026 3.859 25.344 6.625 27.188 C4.89 31.871 1.033 34.984 -3.375 37.188 C-10.082 37.978 -15.179 37.63 -20.723 33.617 C-24.783 30.104 -27.999 26.04 -28.711 20.637 C-28.797 14.531 -28.576 9.854 -24.375 5.188 C-17.09 -1.277 -9.322 -4.515 0 0 Z " fill="#FDF7F7" transform="translate(763.375,62.8125)"/>
<path d="M0 0 C2.64 0 5.28 0 8 0 C8 2.64 8 5.28 8 8 C17.9 8 27.8 8 38 8 C38 11.3 38 14.6 38 18 C34.37 18 30.74 18 27 18 C27 26.91 27 35.82 27 45 C23.37 45 19.74 45 16 45 C16 36.09 16 27.18 16 18 C10.72 18 5.44 18 0 18 C0 12.06 0 6.12 0 0 Z " fill="#FDF5F6" transform="translate(319,54)"/>
<path d="M0 0 C4.574 2.07 8.175 5.278 10 10 C10.728 13.214 10.827 15.796 10 19 C7.111 23.361 4.046 27.318 -1 29 C-5.635 29.539 -9.079 29.452 -13.312 27.375 C-17.61 23.578 -20.196 20.382 -20.562 14.562 C-20.327 9.585 -18.427 6.513 -15 3 C-10.663 -0.841 -5.523 -0.922 0 0 Z " fill="#F8606B" transform="translate(629,415)"/>
<path d="M0 0 C3.3 0 6.6 0 10 0 C10 2.97 10 5.94 10 9 C12.97 9 15.94 9 19 9 C19 12.3 19 15.6 19 19 C16.03 19 13.06 19 10 19 C10.114 21.459 10.24 23.917 10.375 26.375 C10.406 27.074 10.437 27.772 10.469 28.492 C10.595 32.702 10.595 32.702 13 36 C14.988 36.398 16.989 36.738 19 37 C19 39.97 19 42.94 19 46 C7.155 46.569 7.155 46.569 2 43 C-0.202 39.697 -0.24 38.725 -0.195 34.895 C-0.186 33.42 -0.186 33.42 -0.176 31.916 C-0.159 30.892 -0.142 29.868 -0.125 28.812 C-0.116 27.777 -0.107 26.741 -0.098 25.674 C-0.074 23.116 -0.041 20.558 0 18 C-1.98 18 -3.96 18 -6 18 C-6 15.36 -6 12.72 -6 10 C-4.02 10 -2.04 10 0 10 C0 6.7 0 3.4 0 0 Z " fill="#FEFBFB" transform="translate(666,53)"/>
<path d="M0 0 C2.846 -0.062 5.692 -0.124 8.625 -0.188 C9.51 -0.215 10.395 -0.242 11.307 -0.27 C16.297 -0.322 19.689 0.213 24 3 C27.427 6.878 28.674 9.967 28.383 15.043 C27.721 18.427 26.258 20.445 24 23 C18.839 26.336 14.543 26.37 8.625 26.188 C4.356 26.095 4.356 26.095 0 26 C0 17.42 0 8.84 0 0 Z " fill="#F7626C" transform="translate(104,882)"/>
<path d="M0 0 C3.815 2.016 7.001 4.113 9 8 C9.554 12.276 9.305 14.433 7.25 18.25 C4.663 21.411 2.691 23.615 -1.367 24.539 C-8.004 24.766 -8.004 24.766 -10.949 22.5 C-13.896 19.075 -15.85 16.297 -16.375 11.75 C-15.878 6.779 -14.488 5.488 -11 2 C-7.292 -0.472 -4.301 -0.668 0 0 Z " fill="#F6626C" transform="translate(334,728)"/>
<path d="M0 0 C4.097 1.769 6.8 4.108 9 8 C9.35 12.585 8.599 16.028 6.188 19.938 C2.95 22.99 1.109 23.833 -3.312 24.5 C-8.224 23.834 -10.709 21.589 -14 18 C-15.536 14.928 -15.227 12.398 -15 9 C-12.058 1.352 -8.232 -1.199 0 0 Z " fill="#F091C1" transform="translate(834,404)"/>
<path d="M0 0 C3.599 1.718 6.161 3.418 8 7 C8.831 13.441 8.831 13.441 7.051 16.781 C3.616 21.202 0.43 22.638 -4.938 23.438 C-9.171 22.833 -11.015 20.985 -14 18 C-16.312 14.742 -16.472 11.937 -16 8 C-12.112 0.656 -8.23 -2.057 0 0 Z " fill="#F9626D" transform="translate(150,302)"/>
<path d="M0 0 C3.63 0 7.26 0 11 0 C11 11.88 11 23.76 11 36 C7.37 36 3.74 36 0 36 C0 24.12 0 12.24 0 0 Z " fill="#FCF6F7" transform="translate(716,63)"/>
<path d="M0 0 C3.63 0 7.26 0 11 0 C11 11.88 11 23.76 11 36 C7.37 36 3.74 36 0 36 C0 24.12 0 12.24 0 0 Z " fill="#FDF5F6" transform="translate(777,63)"/>
<path d="M0 0 C3.63 0 7.26 0 11 0 C11 11.88 11 23.76 11 36 C7.37 36 3.74 36 0 36 C0 24.12 0 12.24 0 0 Z " fill="#FCF5F5" transform="translate(694,63)"/>
<path d="M0 0 C3.572 1.169 5.093 2.548 7.125 5.695 C8.062 10.316 7.799 13.603 5.312 17.633 C2.407 20.372 0.772 21.623 -3.25 22.07 C-7.484 21.632 -8.941 20.713 -11.875 17.695 C-14.174 13.926 -14.154 11.178 -13.531 6.895 C-12.822 4.518 -12.128 3.309 -10.375 1.57 C-6.395 -0.562 -4.355 -0.809 0 0 Z " fill="#F9626C" transform="translate(214.875,137.3046875)"/>
<path d="M0 0 C3.658 2.04 5.669 3.504 8 7 C8.461 11.975 8.168 15.068 5 19 C2.302 21.115 0.443 21.925 -2.938 22.5 C-7.25 21.796 -8.889 20.039 -12 17 C-13.555 13.89 -13.286 11.437 -13 8 C-9.753 2.066 -6.962 -0.819 0 0 Z " fill="#F7606A" transform="translate(261,211)"/>
<path d="M0 0 C3.3 0 6.6 0 10 0 C10 11.55 10 23.1 10 35 C6.7 35 3.4 35 0 35 C0 23.45 0 11.9 0 0 Z " fill="#FEFDFD" transform="translate(263,63)"/>
<path d="M0 0 C5.415 2.579 9.373 5.513 12 11 C12.9 16.506 13.083 22.204 9.938 27 C6.452 30.982 2.873 33.502 -2.391 34.414 C-8.821 34.789 -13.149 33.202 -18 29 C-21.434 25.394 -22.317 22.479 -22.625 17.625 C-22.388 11.615 -20.332 8.073 -16 4 C-11.249 0.007 -6.03 -1.337 0 0 Z M-14 6 C-15.64 7.021 -15.64 7.021 -17.312 8.062 C-20.283 11.31 -20.401 11.945 -20.438 16.125 C-20.223 20.394 -19.957 23.121 -16.688 26.125 C-11.855 29.496 -6.745 29.529 -1 29 C3.283 27.652 4.597 26.664 6.938 22.812 C8.162 18.418 8.416 15.337 7 11 C4.499 6.907 2.464 4.842 -2.125 3.625 C-7.547 2.75 -9.497 2.963 -14 6 Z " fill="#F6EA99" transform="translate(435,197)"/>
<path d="M0 0 C3.226 2.079 4.867 3.8 7 7 C7.468 10.006 7.591 12.05 5.949 14.688 C2.798 18.554 1.18 19.843 -3.75 20.5 C-6.433 20.471 -7.671 20.239 -9.859 18.648 C-12.46 15.837 -13.843 13.699 -14.688 9.938 C-13.724 5.822 -11.95 4.02 -9 1 C-5.9 -0.55 -3.421 -0.29 0 0 Z " fill="#F7636E" transform="translate(125,233)"/>
<path d="M0 0 C2.974 1.782 5.427 3.853 7 7 C7.404 9.964 7.564 12.089 5.953 14.691 C2.792 18.55 1.183 19.842 -3.75 20.5 C-6.433 20.471 -7.671 20.239 -9.859 18.648 C-12.497 15.797 -13.857 13.715 -14.625 9.875 C-12.964 2.232 -7.435 -0.882 0 0 Z " fill="#F6636D" transform="translate(196,261)"/>
<path d="M0 0 C3.494 1.668 4.827 2.74 7 6 C7.462 10.993 7.086 14 4 18 C0.311 20.459 -2.716 20.693 -7 20 C-10.443 17.876 -11.716 16.851 -13 13 C-13.5 9.688 -13.5 9.688 -13 6 C-9.581 1.475 -5.786 -1.132 0 0 Z " fill="#F9616D" transform="translate(224,702)"/>
<path d="M0 0 C3.964 0.051 4.585 0.299 7.812 3 C10.056 6.981 10.485 8.943 9.75 13.438 C7.954 16.191 6.697 17.964 3.75 19.438 C-3.34 20.019 -3.34 20.019 -7.188 17.562 C-9.828 14.842 -10.194 13.935 -10.625 10.125 C-10.158 5.532 -8.73 4.323 -5.25 1.438 C-3.691 -0.122 -2.161 0.118 0 0 Z " fill="#F5646D" transform="translate(207.25,757.5625)"/>
<path d="M0 0 C5 1 5 1 6.801 3.066 C7.3 3.89 7.799 4.714 8.312 5.562 C8.824 6.389 9.336 7.215 9.863 8.066 C10.238 8.704 10.614 9.343 11 10 C11.34 9.278 11.681 8.556 12.031 7.812 C12.516 6.884 13.001 5.956 13.5 5 C13.964 4.072 14.428 3.144 14.906 2.188 C15.943 1.105 15.943 1.105 17 0 C19.64 0 22.28 0 25 0 C25 6.93 25 13.86 25 21 C23.35 21 21.7 21 20 21 C19.67 16.05 19.34 11.1 19 6 C16.69 9.96 14.38 13.92 12 18 C8 14 8 14 5 9 C4.67 12.96 4.34 16.92 4 21 C2.68 21 1.36 21 0 21 C0 14.07 0 7.14 0 0 Z " fill="#FCF3F2" transform="translate(166,779)"/>
<path d="M0 0 C2.753 1.796 4.526 3.053 6 6 C6.414 10.654 5.811 13.252 3 17 C-0.765 19.51 -2.543 19.615 -7 19 C-10.017 16.432 -11.563 14.824 -12.48 10.996 C-12.749 7.178 -12.092 5.133 -9.938 2 C-6.237 -0.519 -4.397 -0.707 0 0 Z " fill="#F5626E" transform="translate(819,71)"/>
<path d="M0 0 C2.778 1.263 4.491 2.352 6.375 4.75 C7.33 8.188 6.904 10.564 6 14 C3.875 16.938 3.875 16.938 1 19 C-2.806 19.534 -4.994 19.556 -8.375 17.688 C-11.304 14.645 -11.404 11.106 -11.344 7.008 C-11 5 -11 5 -8.875 2 C-5.475 -0.365 -4.054 -0.676 0 0 Z " fill="#F7626C" transform="translate(455,71)"/>
<path d="M0 0 C1.32 0 2.64 0 4 0 C4 2.97 4 5.94 4 9 C7.3 9 10.6 9 14 9 C14 6.03 14 3.06 14 0 C15.65 0 17.3 0 19 0 C19 7.26 19 14.52 19 22 C17.35 22.33 15.7 22.66 14 23 C14 20.03 14 17.06 14 14 C10.7 14 7.4 14 4 14 C4 16.97 4 19.94 4 23 C2.68 23 1.36 23 0 23 C0 15.41 0 7.82 0 0 Z " fill="#F9E7E7" transform="translate(890,320)"/>
<path d="M0 0 C2.23 -0.051 2.23 -0.051 5 1 C6.872 3.746 8.06 6.745 9.312 9.812 C9.672 10.633 10.031 11.453 10.4 12.299 C12.07 16.221 13 18.648 13 23 C11.125 22.75 11.125 22.75 9 22 C8.742 21.34 8.484 20.68 8.219 20 C7.817 19.34 7.414 18.68 7 18 C4.352 17.296 4.352 17.296 1.375 17.25 C0.372 17.193 -0.631 17.137 -1.664 17.078 C-2.82 17.039 -2.82 17.039 -4 17 C-4.33 18.98 -4.66 20.96 -5 23 C-6.65 23 -8.3 23 -10 23 C-7.603 14.822 -3.911 7.533 0 0 Z " fill="#FCF1F0" transform="translate(684,320)"/>
<path d="M0 0 C11.593 -0.276 11.593 -0.276 15 2 C17.345 5.518 17.58 6.858 17 11 C15.25 13.875 15.25 13.875 12 16 C7.904 16.421 4.138 16.227 0 16 C0 10.72 0 5.44 0 0 Z " fill="#F9616D" transform="translate(545,61)"/>
<path d="M0 0 C5.28 0 10.56 0 16 0 C16 1.32 16 2.64 16 4 C12.04 4 8.08 4 4 4 C4 5.65 4 7.3 4 9 C7.3 9 10.6 9 14 9 C14 10.32 14 11.64 14 13 C10.7 13 7.4 13 4 13 C4 14.98 4 16.96 4 19 C7.96 19 11.92 19 16 19 C15.67 20.32 15.34 21.64 15 23 C10.05 23 5.1 23 0 23 C0 15.41 0 7.82 0 0 Z " fill="#FAEDEE" transform="translate(702,320)"/>
<path d="M0 0 C0.782 -0.014 1.565 -0.028 2.371 -0.043 C4.562 0.188 4.562 0.188 7.562 2.188 C7.232 3.178 6.903 4.168 6.562 5.188 C5.875 5.153 5.188 5.118 4.48 5.082 C3.129 5.041 3.129 5.041 1.75 5 C0.41 4.948 0.41 4.948 -0.957 4.895 C-3.473 4.984 -3.473 4.984 -5.238 6.516 C-7.104 9.117 -6.818 11.077 -6.438 14.188 C-5.535 16.669 -5.535 16.669 -3.438 18.188 C0.188 18.521 0.188 18.521 3.562 18.188 C3.893 16.868 4.222 15.548 4.562 14.188 C3.572 14.188 2.582 14.188 1.562 14.188 C1.562 13.197 1.562 12.207 1.562 11.188 C3.872 11.188 6.183 11.188 8.562 11.188 C8.85 14.238 8.973 17.144 8.562 20.188 C5.791 23.138 2.956 23.421 -0.938 23.688 C-4.621 23.571 -5.353 23.252 -8.438 20.875 C-11.248 17.099 -11.832 13.953 -11.797 9.258 C-11.156 5.564 -9.078 3.765 -6.438 1.188 C-4.098 0.018 -2.604 0.021 0 0 Z " fill="#FCF3F3" transform="translate(875.4375,319.8125)"/>
<path d="M0 0 C5.28 0 10.56 0 16 0 C16 1.32 16 2.64 16 4 C12.04 4 8.08 4 4 4 C4 5.98 4 7.96 4 10 C7.3 10 10.6 10 14 10 C14 10.99 14 11.98 14 13 C10.7 13 7.4 13 4 13 C4 14.98 4 16.96 4 19 C7.63 19 11.26 19 15 19 C15 19.99 15 20.98 15 22 C10.05 22 5.1 22 0 22 C0 14.74 0 7.48 0 0 Z " fill="#FAF5F5" transform="translate(915,320)"/>
<path d="M0 0 C5.94 0 11.88 0 18 0 C18 1.32 18 2.64 18 4 C15.69 4 13.38 4 11 4 C11 10.27 11 16.54 11 23 C9.68 23 8.36 23 7 23 C7 16.73 7 10.46 7 4 C4.69 4 2.38 4 0 4 C0 2.68 0 1.36 0 0 Z " fill="#F8EFF0" transform="translate(655,320)"/>
<path d="M0 0 C3.562 0.312 3.562 0.312 5.5 1.438 C7.092 4.248 7.016 6.14 6.562 9.312 C4.938 11.75 4.938 11.75 2.562 13.312 C-0.951 13.312 -2.713 12.944 -5.375 10.625 C-6.823 7.473 -6.367 5.603 -5.438 2.312 C-3.438 0.312 -3.438 0.312 0 0 Z " fill="#FCF5F4" transform="translate(699.4375,45.6875)"/>
<path d="M0 0 C3.562 0.312 3.562 0.312 5.562 1.375 C7.217 4.58 6.47 6.926 5.562 10.312 C3.812 12.312 3.812 12.312 1.562 13.312 C-1.598 13.235 -2.96 12.742 -5.312 10.625 C-6.847 7.472 -6.377 5.635 -5.438 2.312 C-3.438 0.312 -3.438 0.312 0 0 Z " fill="#FDF8F8" transform="translate(721.4375,45.6875)"/>
<path d="M0 0 C2 2 2 2 2.375 4.875 C2 8 2 8 0.375 10.438 C-2 12 -2 12 -5.062 12 C-8 11 -8 11 -9.938 9.25 C-11 7 -11 7 -10.875 4.438 C-8.707 -1.602 -6.019 -1.423 0 0 Z " fill="#FDF6F6" transform="translate(787,47)"/>
<path d="M0 0 C1.875 1.125 1.875 1.125 3 3 C3.544 6.653 3.438 8.343 1.375 11.438 C-1 13 -1 13 -4.125 12.875 C-7 12 -7 12 -9 10 C-9.301 8.125 -9.301 8.125 -9.312 6 C-9.329 5.299 -9.346 4.597 -9.363 3.875 C-9.243 3.256 -9.124 2.638 -9 2 C-5.531 -0.313 -4.078 -0.425 0 0 Z " fill="#FDF9F8" transform="translate(271,46)"/>
<path d="M0 0 C2.64 0 5.28 0 8 0 C8 6.93 8 13.86 8 21 C6.35 21 4.7 21 3 21 C2.927 19.355 2.927 19.355 2.852 17.676 C2.776 16.221 2.701 14.767 2.625 13.312 C2.594 12.591 2.563 11.87 2.531 11.127 C2.307 7.028 1.823 3.756 0 0 Z " fill="#FBE7E6" transform="translate(183,779)"/>
<path d="M0 0 C-0.33 0.99 -0.66 1.98 -1 3 C-1.871 2.469 -2.743 1.938 -3.641 1.391 C-17.716 -7.036 -29.679 -9.659 -46 -10 C-46 -10.33 -46 -10.66 -46 -11 C-27.999 -12.262 -14.599 -12.431 0 0 Z " fill="#FDF8E5" transform="translate(235,476)"/>
<path d="M0 0 C12.21 0 24.42 0 37 0 C37 0.33 37 0.66 37 1 C25.78 1.33 14.56 1.66 3 2 C2.67 5.96 2.34 9.92 2 14 C11.24 14 20.48 14 30 14 C30 14.33 30 14.66 30 15 C20.1 15 10.2 15 0 15 C0 10.05 0 5.1 0 0 Z " fill="#F9535E" transform="translate(202,883)"/>
<path d="M0 0 C5.489 2.039 10.223 4.43 14 9 C14.531 11.875 14.531 11.875 14.5 15 C14.51 16.031 14.521 17.062 14.531 18.125 C13.889 21.602 12.684 22.785 10 25 C8.995 21.984 9.009 20.362 9.188 17.25 C9.245 10.618 6.873 6.778 2.25 2.062 C1.507 1.382 0.765 0.701 0 0 Z " fill="#F7F7A1" transform="translate(433,199)"/>
<path d="M0 0 C1.65 0 3.3 0 5 0 C4.578 0.471 4.157 0.941 3.723 1.426 C3.175 2.048 2.627 2.671 2.062 3.312 C1.517 3.927 0.972 4.542 0.41 5.176 C-1.201 7.052 -1.201 7.052 -2 10 C-0.565 12.291 -0.565 12.291 1.438 14.562 C5 18.808 5 18.808 5 21 C1.091 20.777 0.083 20.091 -2.625 17.125 C-3.409 16.094 -4.192 15.062 -5 14 C-5.986 12.986 -6.983 11.982 -8 11 C-7.385 10.312 -7.385 10.312 -6.758 9.609 C-6.219 8.996 -5.68 8.382 -5.125 7.75 C-4.591 7.147 -4.058 6.543 -3.508 5.922 C-2.02 4.026 -0.997 2.187 0 0 Z " fill="#FCF4F2" transform="translate(230,779)"/>
<path d="M0 0 C3.625 0.375 3.625 0.375 6.062 2.188 C7.625 4.375 7.625 4.375 7.625 7.375 C2.675 7.375 -2.275 7.375 -7.375 7.375 C-4.631 0.515 -4.631 0.515 0 0 Z " fill="#F47D89" transform="translate(171.375,69.625)"/>
<path d="M0 0 C3.625 0.375 3.625 0.375 6.062 2.188 C7.625 4.375 7.625 4.375 7.625 7.375 C2.675 7.375 -2.275 7.375 -7.375 7.375 C-4.631 0.515 -4.631 0.515 0 0 Z " fill="#EF7484" transform="translate(862.375,69.625)"/>
<path d="M0 0 C2.375 1.25 2.375 1.25 4 3 C4 4.32 4 5.64 4 7 C-0.62 7 -5.24 7 -10 7 C-9.67 5.35 -9.34 3.7 -9 2 C-5.511 -0.326 -4.103 -0.419 0 0 Z " fill="#F0737F" transform="translate(601,70)"/>
<path d="M0 0 C4.537 0.528 8.872 1.424 13.312 2.5 C18.871 3.819 24.303 4.627 30 5 C30 5.66 30 6.32 30 7 C18.897 7.781 10.332 5.757 0 2 C0 1.34 0 0.68 0 0 Z " fill="#FAE4E3" transform="translate(173,573)"/>
<path d="M0 0 C0.33 0 0.66 0 1 0 C0.243 7.873 0.243 7.873 -3 11 C-7.319 13.541 -12.126 13.704 -17 13 C-20.967 10.98 -23.478 9.263 -25 5 C-24.134 5.712 -24.134 5.712 -23.25 6.438 C-18.683 9.609 -13.389 9.504 -8 9 C-4.546 8.066 -4.546 8.066 -2 6 C-0.56 2.936 -0.56 2.936 0 0 Z " fill="#F6F287" transform="translate(442,216)"/>
<path d="M0 0 C0 0.99 0 1.98 0 3 C-1.216 4.085 -1.216 4.085 -2.456 5.192 C-5.652 8.72 -5.732 11.387 -5.707 15.926 C-5.722 16.673 -5.737 17.421 -5.753 18.191 C-5.796 20.565 -5.805 22.938 -5.812 25.312 C-5.836 26.928 -5.861 28.543 -5.889 30.158 C-5.951 34.106 -5.984 38.052 -6 42 C-5.34 42.33 -4.68 42.66 -4 43 C-4.99 43 -5.98 43 -7 43 C-7.174 37.841 -7.3 32.683 -7.385 27.521 C-7.42 25.768 -7.467 24.014 -7.528 22.261 C-7.613 19.733 -7.653 17.208 -7.684 14.68 C-7.72 13.901 -7.756 13.123 -7.793 12.321 C-7.796 8.857 -7.703 6.821 -5.395 4.128 C-3.656 2.629 -1.907 1.275 0 0 Z " fill="#F6707E" transform="translate(200,213)"/>
<path d="M0 0 C0.66 0.66 1.32 1.32 2 2 C1.67 2.66 1.34 3.32 1 4 C-0.277 3.683 -1.555 3.366 -2.871 3.039 C-7.938 1.913 -12.887 1.568 -18.062 1.375 C-19.361 1.317 -19.361 1.317 -20.686 1.258 C-22.79 1.165 -24.895 1.081 -27 1 C-27 0.67 -27 0.34 -27 0 C-7.103 -1.395 -7.103 -1.395 0 0 Z " fill="#FBEAC4" transform="translate(216,465)"/>
<path d="M0 0 C12.21 0 24.42 0 37 0 C37 0.33 37 0.66 37 1 C25.78 1.33 14.56 1.66 3 2 C2.34 3.65 1.68 5.3 1 7 C0.67 7 0.34 7 0 7 C0 4.69 0 2.38 0 0 Z " fill="#F95260" transform="translate(831,883)"/>
<path d="M0 0 C3 3 3 3 3.341 5.177 C3.325 5.999 3.309 6.821 3.293 7.668 C3.283 8.561 3.274 9.453 3.264 10.373 C3.239 11.302 3.213 12.231 3.188 13.188 C3.167 14.598 3.167 14.598 3.146 16.037 C3.111 18.359 3.062 20.679 3 23 C2.34 23.33 1.68 23.66 1 24 C0.67 16.08 0.34 8.16 0 0 Z " fill="#F7F9EF" transform="translate(253,507)"/>
<path d="M0 0 C10.23 0 20.46 0 31 0 C31 0.33 31 0.66 31 1 C21.76 1.33 12.52 1.66 3 2 C2.34 3.65 1.68 5.3 1 7 C0.67 7 0.34 7 0 7 C0 4.69 0 2.38 0 0 Z " fill="#F7535F" transform="translate(831,920)"/>
<path d="M0 0 C2.125 3.188 2.502 5.265 3 9 C-0.01 9.934 -0.867 10.044 -4 9 C-2.941 5.597 -1.991 2.986 0 0 Z " fill="#F58B96" transform="translate(686,325)"/>
<path d="M0 0 C7.92 -0.754 11.826 1.095 18 6 C17.34 6.66 16.68 7.32 16 8 C15.031 7.196 14.061 6.391 13.062 5.562 C8.9 2.543 5.045 2.126 0 2 C0 1.34 0 0.68 0 0 Z " fill="#F7E19C" transform="translate(426,197)"/>
<path d="M0 0 C0.33 0.66 0.66 1.32 1 2 C-0.328 4.785 -0.328 4.785 -2.25 8.062 C-2.874 9.147 -3.498 10.231 -4.141 11.348 C-6 14 -6 14 -9 15 C-7.564 9.778 -5.224 5.33 -2 1 C-1.34 0.67 -0.68 0.34 0 0 Z " fill="#FCF4ED" transform="translate(151,486)"/>
<path d="M0 0 C0.66 0 1.32 0 2 0 C1.938 1.75 1.938 1.75 1 4 C-4.584 8.277 -9.112 8.499 -16 8 C-16 7.67 -16 7.34 -16 7 C-14.804 6.897 -13.608 6.794 -12.375 6.688 C-8.421 6.19 -5.423 5.119 -2 3 C-1.34 2.01 -0.68 1.02 0 0 Z " fill="#F9E29A" transform="translate(441,223)"/>
<path d="M0 0 C2.359 0.348 2.359 0.348 4.25 0.938 C4.58 1.597 4.91 2.257 5.25 2.938 C4.033 2.876 2.816 2.814 1.562 2.75 C-2.379 2.75 -4.545 3.534 -7.75 5.938 C-8.513 6.494 -9.276 7.051 -10.062 7.625 C-10.619 8.058 -11.176 8.491 -11.75 8.938 C-9.425 3.23 -6.434 -0.593 0 0 Z " fill="#F6F289" transform="translate(428.75,198.0625)"/>
<path d="M0 0 C3.188 -0.25 3.188 -0.25 6 0 C6.33 1.32 6.66 2.64 7 4 C3.7 4 0.4 4 -3 4 C-2.01 2.68 -1.02 1.36 0 0 Z " fill="#F36976" transform="translate(170,71)"/>
<path d="M0 0 C2.551 1.177 4.597 2.441 6.875 4.125 C10.351 6.21 12.049 6.18 16 6 C16.66 6.66 17.32 7.32 18 8 C12.929 8.361 9.124 8.562 4.5 6.25 C2.217 4.196 1.021 2.859 0 0 Z " fill="#FBF39C" transform="translate(415,222)"/>
<path d="M0 0 C4.219 0.479 6.797 1.166 10 4 C9.01 4.66 8.02 5.32 7 6 C3.312 4.625 3.312 4.625 0 3 C0 2.01 0 1.02 0 0 Z " fill="#FDF1D6" transform="translate(217,467)"/>
<path d="M0 0 C0.99 0.99 1.98 1.98 3 3 C2.667 9.333 2.667 9.333 0 12 C-0.66 12 -1.32 12 -2 12 C-1.34 8.04 -0.68 4.08 0 0 Z " fill="#F8E7D0" transform="translate(253,527)"/>
<path d="M0 0 C0.66 0.33 1.32 0.66 2 1 C-1.3 4.63 -4.6 8.26 -8 12 C-8 8.679 -7.579 8.02 -5.688 5.438 C-5.258 4.838 -4.829 4.239 -4.387 3.621 C-3 2 -3 2 0 0 Z " fill="#F16B78" transform="translate(535,886)"/>
<path d="M0 0 C-0.598 0.268 -1.196 0.536 -1.812 0.812 C-4.043 1.889 -4.043 1.889 -5.625 3.625 C-6.079 4.079 -6.532 4.532 -7 5 C-7.66 5 -8.32 5 -9 5 C-6.965 -0.67 -5.879 -1.392 0 0 Z " fill="#F06D7B" transform="translate(240,72)"/>
<path d="M0 0 C0.99 0.33 1.98 0.66 3 1 C2.34 1.66 1.68 2.32 1 3 C3.97 3.495 3.97 3.495 7 4 C7 4.33 7 4.66 7 5 C3.7 5 0.4 5 -3 5 C-2.01 3.35 -1.02 1.7 0 0 Z " fill="#EC6571" transform="translate(858,71)"/>
<path d="M0 0 C3.161 1.37 3.993 1.989 6 5 C5.34 5.66 4.68 6.32 4 7 C2 5.188 2 5.188 0 3 C0 2.01 0 1.02 0 0 Z " fill="#FAEDDC" transform="translate(235,477)"/>
<path d="M0 0 C1.134 0.021 2.269 0.041 3.438 0.062 C3.438 0.392 3.438 0.722 3.438 1.062 C2.076 1.496 2.076 1.496 0.688 1.938 C-1.885 2.828 -4.176 3.777 -6.562 5.062 C-4.148 0.073 -4.148 0.073 0 0 Z " fill="#F17483" transform="translate(171.5625,69.9375)"/>
<path d="M0 0 C0.688 1.75 0.688 1.75 1 4 C-0.438 6.25 -0.438 6.25 -2 8 C-2.66 7.67 -3.32 7.34 -4 7 C-2.68 4.69 -1.36 2.38 0 0 Z " fill="#F37079" transform="translate(185,784)"/>
<path d="M0 0 C0 3 0 3 -1.875 5.188 C-4 7 -4 7 -6 7 C-4.607 3.633 -3.021 2.014 0 0 Z " fill="#F36B79" transform="translate(505,485)"/>
<path d="M0 0 C0 0.33 0 0.66 0 1 C-0.949 1.289 -1.897 1.577 -2.875 1.875 C-6.052 2.768 -6.052 2.768 -8 5 C-8.99 4.67 -9.98 4.34 -11 4 C-7.263 0.483 -5.135 -0.478 0 0 Z " fill="#F4828F" transform="translate(261,211)"/>
</svg>