<svg version="1.1" xmlns="http://www.w3.org/2000/svg" width="1024" height="1024">
<path d="M0 0 C337.92 0 675.84 0 1024 0 C1024 337.92 1024 675.84 1024 1024 C686.08 1024 348.16 1024 0 1024 C0 686.08 0 348.16 0 0 Z " fill="#FEFEFE" transform="translate(0,0)"/>
<path d="M0 0 C1.093 1.031 2.152 2.098 3.188 3.188 C4.909 4.918 4.909 4.918 7 6 C10.607 5.704 13.685 4.396 17 3 C23.189 0.862 28.535 0.763 35 1 C35.955 0.995 36.91 0.99 37.895 0.984 C61.011 1.578 81.922 15.177 97.559 31.254 C111.257 46.661 119.452 66.038 124.312 85.875 C124.484 86.565 124.656 87.254 124.833 87.965 C125.934 92.737 126.148 97.104 126 102 C126.629 101.529 127.258 101.059 127.906 100.574 C137.207 93.808 141.944 92 154 92 C154 203.54 154 315.08 154 430 C-183.92 430 -521.84 430 -870 430 C-870 323.08 -870 216.16 -870 106 C-864.433 103.217 -856.309 104.402 -850.5 105.906 C-835.778 111.323 -825.675 120.053 -818.562 134.062 C-818.232 134.711 -817.902 135.359 -817.562 136.027 C-815.118 141.123 -814.282 145.231 -813 151 C-777.855 151.495 -777.855 151.495 -742 152 C-741.01 149.03 -741.01 149.03 -740 146 C-733.089 132.561 -721.543 120.848 -707 116 C-745.28 115.67 -783.56 115.34 -823 115 C-823 112.03 -823 109.06 -823 106 C-721.69 106 -620.38 106 -516 106 C-516 108.97 -516 111.94 -516 115 C-582.33 115.495 -582.33 115.495 -650 116 C-645.71 118.97 -641.42 121.94 -637 125 C-629.204 132.796 -624.04 140.359 -621 151 C-565.065 151.495 -565.065 151.495 -508 152 C-510.394 142.084 -510.394 142.084 -512.66 137.328 C-514.279 133.306 -514.499 130.04 -514.438 125.75 C-514.426 124.633 -514.426 124.633 -514.415 123.494 C-514.08 112.212 -509.743 103.807 -501.895 95.871 C-493.376 87.91 -487.754 85.522 -475.977 85.762 C-473 86 -473 86 -471 87 C-471.103 85.969 -471.206 84.938 -471.312 83.875 C-470.902 78.79 -469.637 77.468 -466 74 C-465.01 74 -464.02 74 -463 74 C-462.67 78.29 -462.34 82.58 -462 87 C-460.742 85.494 -459.484 83.989 -458.188 82.438 C-449.734 73.083 -439.517 67.219 -426.781 66.566 C-425.021 66.543 -423.26 66.542 -421.5 66.562 C-420.577 66.572 -419.655 66.581 -418.704 66.59 C-412.114 66.758 -406.637 67.342 -401 71 C-400.154 71.548 -399.309 72.096 -398.438 72.66 C-388.859 79.602 -382.868 89.562 -380 101 C-380 102.65 -380 104.3 -380 106 C-282.32 106 -184.64 106 -84 106 C-84 100.72 -84 95.44 -84 90 C-83.741 86.81 -83.459 83.819 -82.938 80.688 C-82.81 79.908 -82.683 79.129 -82.552 78.326 C-77.975 53.1 -63.729 28.477 -42.67 13.629 C-33.237 7.266 -22.538 0.798 -11 1 C-6.866 1 -4.099 -0.638 0 0 Z " fill="#292729" transform="translate(870,594)"/>
<path d="M0 0 C195.69 0 391.38 0 593 0 C593.021 62.514 593.041 125.029 593.062 189.438 C593.072 209.215 593.081 228.992 593.09 249.369 C593.095 273.422 593.095 273.422 593.095 284.663 C593.096 292.556 593.1 300.448 593.106 308.341 C593.112 317.431 593.115 326.522 593.113 335.612 C593.113 340.267 593.114 344.923 593.119 349.578 C593.124 353.78 593.124 357.981 593.121 362.183 C593.12 363.709 593.122 365.236 593.125 366.763 C593.129 368.828 593.127 370.893 593.123 372.958 C593.124 374.684 593.124 374.684 593.124 376.446 C593 379 593 379 592 380 C588.87 380.099 585.762 380.132 582.631 380.123 C581.631 380.124 580.63 380.125 579.599 380.127 C576.201 380.129 572.803 380.125 569.405 380.12 C566.962 380.121 564.52 380.122 562.077 380.123 C556.743 380.125 551.409 380.123 546.075 380.119 C538.143 380.113 530.211 380.113 522.279 380.114 C508.939 380.115 495.599 380.112 482.258 380.106 C469.043 380.1 455.828 380.096 442.613 380.095 C441.793 380.095 440.972 380.095 440.127 380.095 C435.959 380.094 431.792 380.094 427.624 380.094 C398.081 380.092 368.538 380.085 338.995 380.075 C310.288 380.066 281.581 380.059 252.875 380.055 C251.071 380.055 249.266 380.054 247.462 380.054 C232.804 380.052 218.145 380.05 203.487 380.048 C135.658 380.038 67.829 380.018 0 380 C0 254.6 0 129.2 0 0 Z " fill="#2A2729" transform="translate(230,211)"/>
<path d="M0 0 C0.358 1.986 0.716 3.971 1.074 5.957 C2.41 8.904 4.127 9.585 7 11 C9.864 11.362 9.864 11.362 12.887 11.188 C14.541 11.153 14.541 11.153 16.229 11.117 C17.941 11.059 17.941 11.059 19.688 11 C21.962 10.924 24.237 10.861 26.512 10.812 C27.517 10.778 28.522 10.743 29.557 10.707 C30.363 10.804 31.17 10.9 32 11 C32.99 12.485 32.99 12.485 34 14 C38.259 15.143 42.623 15.521 47 16 C47.851 16.133 48.702 16.266 49.578 16.402 C53.355 16.779 55.199 16.645 58.223 14.211 C59.624 12.772 60.978 11.285 62.273 9.75 C63.128 8.884 63.128 8.884 64 8 C64.99 8 65.98 8 67 8 C67.671 9.623 68.337 11.249 69 12.875 C69.371 13.78 69.743 14.685 70.125 15.617 C71 18 71 18 71 20 C79.001 18.978 86.341 16.684 93.892 13.945 C94.639 13.681 95.386 13.417 96.156 13.145 C96.825 12.901 97.493 12.657 98.182 12.406 C100 12 100 12 103 13 C104.397 14.956 105.738 16.954 107 19 C112.377 18.37 117.33 17.149 122.5 15.562 C123.948 15.126 125.396 14.69 126.844 14.254 C128.894 13.637 130.944 13.018 132.989 12.383 C136.743 11.249 139.209 10.774 143 12 C143.33 12.33 143.66 12.66 144 13 C148.036 13.673 149.957 13.661 153.465 11.438 C155.703 9.684 157.875 7.889 160 6 C162.581 7.221 164.528 8.41 166.812 10.188 C169.865 12.21 169.865 12.21 173.25 12.312 C178.199 10.58 180.97 7.575 184.57 3.836 C185.372 3.23 186.174 2.624 187 2 C196.718 3.944 205.771 8.389 215 12 C215 54.57 215 97.14 215 141 C117.98 141 20.96 141 -79 141 C-80.32 127.8 -81.64 114.6 -83 101 C-86.342 80.418 -90.364 60.031 -98.312 40.68 C-99 38 -99 38 -98.319 36.001 C-96.687 33.525 -95.201 32.679 -92.582 31.301 C-91.67 30.818 -90.758 30.336 -89.818 29.839 C-88.826 29.335 -87.834 28.832 -86.812 28.312 C-85.264 27.519 -85.264 27.519 -83.684 26.71 C-60.07 14.842 -26.897 -0.946 0 0 Z " fill="#D9D9DA" transform="translate(809,883)"/>
<path d="M0 0 C1.123 0.393 2.245 0.787 3.402 1.192 C46.123 16.484 46.123 16.484 51.312 25.562 C51.872 26.529 52.431 27.496 53.008 28.492 C53.316 29.055 53.625 29.618 53.942 30.198 C55.162 32.421 56.422 34.619 57.68 36.82 C68.218 55.491 76.978 74.961 85.188 94.75 C85.657 95.87 86.127 96.99 86.612 98.143 C91.014 108.954 91.014 108.954 91 115.125 C85.793 125.149 73.438 131.62 63.242 135.242 C56.511 137.075 51.075 137.294 44.829 134.09 C44.111 133.723 43.394 133.357 42.654 132.98 C42.108 132.698 41.562 132.416 41 132.125 C40.93 122.63 40.877 113.136 40.845 103.641 C40.829 99.229 40.808 94.818 40.774 90.406 C40.629 71.425 40.561 52.824 43.728 34.042 C44.07 31.953 44.07 31.953 44 29.125 C42.68 28.795 41.36 28.465 40 28.125 C39.876 29.197 39.753 30.27 39.625 31.375 C38.81 37.887 37.752 44.378 36.461 50.812 C29.449 85.975 34 135.473 34 164.125 C-26.72 164.125 -87.44 164.125 -150 164.125 C-150.33 156.535 -150.66 148.945 -151 141.125 C-151.289 136.121 -151.59 131.124 -151.938 126.125 C-152.012 124.971 -152.086 123.818 -152.162 122.629 C-152.661 115.357 -153.478 108.179 -154.485 100.96 C-155.005 97.085 -155.444 93.208 -155.859 89.32 C-157.718 72.193 -160.418 55.78 -165 39.125 C-166.32 38.795 -167.64 38.465 -169 38.125 C-168.379 42.507 -167.742 46.887 -167.098 51.266 C-162.895 80.01 -159.307 109.019 -160 138.125 C-168.233 138.698 -174.498 137.529 -182 134.125 C-182.896 133.724 -183.792 133.323 -184.715 132.91 C-192.947 128.835 -200.903 122.672 -206.402 115.227 C-208.001 109.605 -205.242 103.284 -203.41 97.938 C-203.15 97.166 -202.89 96.394 -202.622 95.599 C-201.777 93.105 -200.921 90.614 -200.062 88.125 C-199.771 87.275 -199.479 86.425 -199.178 85.549 C-194.432 71.763 -189.324 58.278 -183 45.125 C-182.651 44.388 -182.303 43.651 -181.943 42.892 C-173.28 24.795 -161.927 16.269 -143.625 8.688 C-142.493 8.216 -141.361 7.744 -140.195 7.259 C-133.176 4.364 -126.132 1.542 -119 -1.062 C-118.231 -1.354 -117.462 -1.645 -116.67 -1.945 C-108.635 -4.771 -101.488 -4.135 -93.16 -2.895 C-83.591 -1.536 -74.088 -1.529 -64.438 -1.562 C-63.051 -1.562 -63.051 -1.562 -61.636 -1.562 C-50.135 -1.571 -38.825 -1.782 -27.48 -3.895 C-17.499 -5.751 -9.452 -3.35 0 0 Z " fill="#D9D9DA" transform="translate(488,859.875)"/>
<path d="M0 0 C43.89 0 87.78 0 133 0 C133.33 6.6 133.66 13.2 134 20 C135.053 24.444 135.053 24.444 136.379 28.809 C137.11 31.387 137.3 33.331 137 36 C136.028 37.354 135.027 38.688 134 40 C131.971 48.4 136.035 56.779 140 64 C141.747 66.452 141.747 66.452 144 68 C146.482 68.288 146.482 68.288 149.125 68.062 C153.005 68.268 154.567 68.618 157.52 71.219 C159.166 73.155 160.78 75.121 162.363 77.109 C165.221 80.242 167.913 81.811 171.625 83.812 C174.68 85.676 174.68 85.676 177 88 C178.013 92.821 177.735 97.152 177 102 C175.783 102.247 174.566 102.495 173.312 102.75 C169.408 103.726 166.89 105.11 164 108 C162.997 111.008 162.697 113.538 162.438 116.688 C162.354 117.681 162.27 118.675 162.184 119.699 C162.123 120.458 162.062 121.218 162 122 C161.363 122.24 160.726 122.48 160.07 122.728 C147.937 127.341 136.029 132.202 124.5 138.188 C123.577 138.662 122.654 139.136 121.703 139.624 C103.388 149.351 96.824 163.546 88.926 181.916 C88.01 183.978 87.024 185.99 86 188 C83.335 185.654 82.122 183.412 80.758 180.152 C80.338 179.167 79.918 178.182 79.486 177.167 C78.812 175.569 78.812 175.569 78.125 173.938 C65.197 138.924 65.197 138.924 40 114 C38.598 113.324 37.197 112.647 35.797 111.969 C22.557 105.686 8.839 100.782 -5 96 C-5.048 95.269 -5.097 94.538 -5.146 93.785 C-5.735 86.069 -6.636 79.073 -12.582 73.523 C-18.851 69.726 -26.874 70.186 -34 70 C-34.175 65.48 -34.281 60.96 -34.375 56.438 C-34.425 55.161 -34.476 53.884 -34.527 52.568 C-34.693 41.936 -34.693 41.936 -31.102 37.848 C-30.306 37.138 -30.306 37.138 -29.495 36.414 C-27.862 35.038 -27.862 35.038 -26.974 32.867 C-26.492 31.943 -26.492 31.943 -26 31 C-23.32 30.277 -23.32 30.277 -20.125 29.938 C-15.731 29.457 -13.403 28.816 -10 26 C-9.34 26 -8.68 26 -8 26 C-7.713 25.424 -7.425 24.848 -7.129 24.254 C-6.412 22.822 -5.691 21.392 -4.965 19.965 C-4.626 19.296 -4.287 18.627 -3.938 17.938 C-3.596 17.266 -3.254 16.594 -2.902 15.902 C-0.273 10.359 -0.635 6.982 0 0 Z " fill="#FEFDFE" transform="translate(492,755)"/>
<path d="M0 0 C35.97 0 71.94 0 109 0 C109.33 3.96 109.66 7.92 110 12 C112.237 19.603 116.449 27.171 123.312 31.438 C125.867 32.141 125.867 32.141 127.926 31.684 C130.644 31.302 132.331 31.248 135 32 C139.147 35.637 142.534 39.723 146 44 C146.66 44.66 147.32 45.32 148 46 C148.227 48.522 148.227 48.522 148.195 51.664 C148.186 53.346 148.186 53.346 148.176 55.062 C148.151 56.826 148.151 56.826 148.125 58.625 C148.116 59.808 148.107 60.992 148.098 62.211 C148.074 65.141 148.041 68.07 148 71 C146.926 71.098 145.852 71.196 144.746 71.297 C143.31 71.447 141.874 71.598 140.438 71.75 C139.381 71.843 139.381 71.843 138.303 71.938 C132.968 72.528 129.41 73.891 125 77 C123.187 79.255 123.187 79.255 122.125 81.812 C121.725 82.686 121.326 83.56 120.914 84.461 C119.833 87.176 119.833 87.176 119.5 90.938 C119 94 119 94 116.899 95.55 C113.691 97.155 110.539 98.216 107.109 99.27 C99.832 101.598 92.96 104.492 86.083 107.809 C84.245 108.69 82.395 109.539 80.543 110.389 C69.51 115.586 59.797 122.567 54.25 133.688 C53.895 134.355 53.54 135.023 53.174 135.711 C49.52 142.677 46.208 149.82 43 157 C40.125 154.309 38.105 151.744 36.188 148.312 C35.131 146.538 34.068 144.767 33 143 C32.522 142.206 32.044 141.412 31.551 140.594 C22.555 127.361 1.531 122.671 -13 118 C-13.026 117.059 -13.052 116.118 -13.078 115.148 C-13.175 105.624 -13.175 105.624 -18 98 C-22.092 95.86 -26.446 94.711 -31 94 C-30.196 93.113 -29.391 92.226 -28.562 91.312 C-25.604 87.854 -22.925 84.223 -20.312 80.5 C-19.566 79.438 -18.82 78.376 -18.051 77.281 C-15.021 72.434 -12.859 67.673 -12 62 C-11.264 61.914 -10.528 61.827 -9.77 61.738 C-5.408 61.11 -1.883 60.557 1.875 58.188 C6.997 50.504 10.702 41.32 9 32 C8.077 28.979 7.073 26.4 5 24 C3.02 23.01 1.04 22.02 -1 21 C-0.67 14.07 -0.34 7.14 0 0 Z " fill="#FDFDFD" transform="translate(251,755)"/>
<path d="M0 0 C17.777 8.021 29.187 19.786 38 37 C38.378 37.731 38.756 38.462 39.145 39.216 C48.155 56.856 55.443 75.27 62.948 93.582 C66.491 102.217 70.124 110.811 73.777 119.4 C74.381 120.818 74.381 120.818 74.996 122.266 C75.338 123.068 75.68 123.87 76.033 124.696 C79.601 133.195 79.601 133.195 79 137 C76.673 139.354 75.273 139.967 71.962 140.369 C70.764 140.366 69.566 140.364 68.331 140.361 C67.327 140.365 67.327 140.365 66.303 140.369 C64.063 140.373 61.823 140.357 59.583 140.341 C57.977 140.34 56.37 140.34 54.764 140.342 C50.402 140.343 46.041 140.325 41.68 140.304 C37.122 140.285 32.565 140.284 28.007 140.28 C19.376 140.271 10.745 140.246 2.115 140.216 C-9.548 140.176 -21.211 140.16 -32.874 140.143 C-51.249 140.114 -69.624 140.055 -88 140 C-88 112.94 -88 85.88 -88 58 C-78.1 57.505 -78.1 57.505 -68 57 C-50.793 54.761 -34.49 50.965 -20 41 C-19.327 40.541 -18.654 40.082 -17.961 39.609 C-6.426 30.767 -2.154 16.209 -0.297 2.457 C-0.199 1.646 -0.101 0.835 0 0 Z " fill="#D8D9D9" transform="translate(88,884)"/>
<path d="M0 0 C22.904 -0.809 22.904 -0.809 33.78 3.194 C36.634 4.23 39.51 5.194 42.387 6.164 C61.734 12.728 61.734 12.728 69 16 C67.957 19.13 66.912 22.259 65.852 25.383 C62.334 36.114 59.827 46.857 58 58 C57.848 58.929 57.695 59.859 57.538 60.816 C53.336 87.791 53.602 116.07 56.816 143.151 C57 145 57 145 57 148 C30.6 148 4.2 148 -23 148 C-23.66 144.7 -24.32 141.4 -25 138 C-25.822 135.613 -26.718 133.25 -27.695 130.922 C-27.96 130.284 -28.224 129.647 -28.497 128.99 C-29.364 126.906 -30.244 124.828 -31.125 122.75 C-31.744 121.271 -32.361 119.793 -32.979 118.313 C-34.629 114.364 -36.291 110.419 -37.956 106.476 C-39.375 103.11 -40.788 99.741 -42.2 96.372 C-48.412 81.558 -54.653 66.757 -61 52 C-58 51 -58 51 -54.625 51.938 C-43.68 54.819 -33.994 53.03 -24 48 C-11.654 40.708 -5.404 29.173 -1.559 15.703 C-0.489 10.526 -0.24 5.271 0 0 Z " fill="#D9D9D9" transform="translate(200,876)"/>
<path d="M0 0 C8.622 6.477 13.898 15.574 17.277 25.711 C17.842 36.815 17.436 46.988 14.277 57.711 C13.931 59.036 13.587 60.361 13.246 61.688 C8.698 78.835 1.676 98.025 -14.383 107.496 C-15.155 107.897 -15.927 108.298 -16.723 108.711 C-17.484 109.122 -18.246 109.533 -19.031 109.957 C-29.051 114.474 -42.867 114.399 -53.41 111.523 C-54.868 110.97 -56.308 110.367 -57.723 109.711 C-58.461 109.382 -59.2 109.054 -59.961 108.715 C-69.385 104.011 -76.962 96.434 -82.723 87.711 C-83.189 87.056 -83.656 86.401 -84.137 85.727 C-89.526 77.599 -92.581 68.288 -95.845 59.161 C-96.585 57.096 -97.35 55.041 -98.121 52.988 C-101.906 42.157 -102.516 30.909 -97.984 20.207 C-92.002 8.372 -83.674 1.129 -71.285 -3.602 C-63.883 -5.03 -57.398 -5.194 -50.723 -1.289 C-48.814 0.496 -47.034 2.329 -45.301 4.285 C-43.706 6.046 -43.706 6.046 -40.723 5.711 C-41.232 1.938 -41.93 0.261 -44.723 -2.289 C-44.723 -2.949 -44.723 -3.609 -44.723 -4.289 C-43.475 -4.94 -42.225 -5.585 -40.973 -6.227 C-40.277 -6.586 -39.58 -6.946 -38.863 -7.316 C-25.716 -13.29 -11.334 -7.238 0 0 Z " fill="#D8D8D8" transform="translate(732.72265625,729.2890625)"/>
<path d="M0 0 C10.335 -1.069 19.638 3.213 27.875 9.312 C36.776 16.876 44.623 26.241 47 38 C47.276 42.288 47.277 46.579 47.312 50.875 C47.356 52.633 47.356 52.633 47.4 54.426 C47.449 60.973 47.25 64.754 43 70 C39.742 78.844 38.705 87.284 38.258 96.637 C37.909 101.19 36.842 104.85 35 109 C34.622 109.92 34.245 110.841 33.855 111.789 C29.62 121.236 23.217 127.783 16 135 C12.742 135.195 12.742 135.195 8.875 135.125 C7.594 135.107 6.312 135.089 4.992 135.07 C4.005 135.047 3.017 135.024 2 135 C1.66 134.007 1.319 133.015 0.969 131.992 C-5.421 113.867 -13.788 97.742 -31.523 88.629 C-41.069 84.157 -49.52 83.587 -60 84 C-60.486 82.481 -60.963 80.96 -61.438 79.438 C-61.704 78.591 -61.971 77.744 -62.246 76.871 C-65.808 63.306 -66.763 44.593 -60.609 31.715 C-51.89 17.006 -40.354 6.281 -23.625 1.562 C-21.831 1.284 -21.831 1.284 -20 1 C-19.336 0.896 -18.672 0.791 -17.988 0.684 C-14.953 0.412 -12.675 0.5 -10.188 2.344 C-9.027 3.442 -7.873 4.547 -6.727 5.66 C-4.873 7.337 -4.873 7.337 -1.312 7.438 C1.215 7.104 3.576 6.776 6 6 C6 5.34 6 4.68 6 4 C3.36 4 0.72 4 -2 4 C-1.34 2.68 -0.68 1.36 0 0 Z " fill="#D8D8D8" transform="translate(196,713)"/>
<path d="M0 0 C299.97 0 599.94 0 909 0 C909 3.3 909 6.6 909 10 C609.03 10 309.06 10 0 10 C0 6.7 0 3.4 0 0 Z " fill="#2B2A2C" transform="translate(63,50)"/>
<path d="M0 0 C1.204 0.322 2.408 0.645 3.648 0.977 C7.117 1.927 10.561 2.948 14 4 C14 4.66 14 5.32 14 6 C13.333 6.215 12.666 6.43 11.978 6.652 C-8.848 13.434 -30.127 20.558 -47 35 C-47.848 35.646 -48.696 36.292 -49.57 36.957 C-78.208 61.037 -85.285 111.733 -93 146 C-102.24 146 -111.48 146 -121 146 C-120.965 142.657 -120.93 139.315 -120.895 135.871 C-120.871 132.548 -120.853 129.224 -120.835 125.901 C-120.82 123.633 -120.8 121.365 -120.774 119.097 C-120.542 98.597 -121.527 78.589 -128 59 C-128.668 56.75 -129.334 54.5 -130 52.25 C-130.658 50.164 -131.324 48.08 -132 46 C-132.307 45.033 -132.614 44.066 -132.93 43.07 C-134.844 37.569 -134.844 37.569 -139.25 33.875 C-140.158 33.586 -141.065 33.298 -142 33 C-140.575 29.43 -139.096 28.149 -135.723 26.371 C-134.83 25.898 -133.937 25.426 -133.017 24.938 C-131.554 24.195 -131.554 24.195 -130.062 23.438 C-129.052 22.92 -128.042 22.403 -127.001 21.87 C-119.059 17.883 -110.997 14.209 -102.812 10.75 C-101.716 10.272 -100.62 9.795 -99.49 9.302 C-90.007 5.422 -82 5.223 -72 7 C-53.447 8.087 -34.389 6.925 -16.625 1.25 C-10.645 -0.659 -6.119 -1.74 0 0 Z " fill="#D9DAD9" transform="translate(747,878)"/>
<path d="M0 0 C13.709 8.671 20.881 22.74 25 38 C25.371 39.155 25.743 40.31 26.125 41.5 C30.526 59.105 29.867 79.795 21.426 96.027 C16.196 104.135 9.123 110.228 -0.348 112.562 C-10.212 114.19 -19.83 113.099 -29 109 C-31.787 106.722 -33.261 104.122 -35 101 C-36.468 98.659 -37.947 96.327 -39.438 94 C-40.017 93.074 -40.017 93.074 -40.608 92.129 C-42.718 88.798 -44.876 85.943 -47.688 83.188 C-57.83 72.196 -59.501 52.59 -59.25 38.484 C-58.189 23.703 -52.769 12.139 -42 2 C-29.435 -7.755 -13.741 -7.344 0 0 Z " fill="#D8D9D8" transform="translate(165,809)"/>
<path d="M0 0 C97.35 0 194.7 0 295 0 C293.35 1.32 291.7 2.64 290 4 C283.706 10.834 283.727 17.527 283.875 26.375 C283.889 27.908 283.889 27.908 283.902 29.473 C283.926 31.982 283.962 34.491 284 37 C277.4 37 270.8 37 264 37 C263.216 35.412 262.433 33.824 261.625 32.188 C255.982 21.908 248.523 14.187 238 9 C237.279 8.589 236.559 8.178 235.816 7.754 C227.209 3.443 215.195 3.283 205.984 5.836 C203.893 6.782 201.955 7.801 200 9 C196.875 10.625 196.875 10.625 194 11 C191.336 9.311 189.173 7.276 187 5 C186.67 5.33 186.34 5.66 186 6 C186.33 6.99 186.66 7.98 187 9 C185.961 9.026 184.922 9.052 183.852 9.078 C169.897 9.578 158.435 13.205 147.891 22.949 C144.95 26.148 142.826 29.25 140.904 33.143 C140.368 34.226 140.368 34.226 139.821 35.33 C139.55 35.881 139.279 36.432 139 37 C120.85 37.224 102.7 37.425 84.55 37.598 C76.122 37.679 67.695 37.768 59.267 37.875 C51.921 37.967 44.575 38.046 37.229 38.107 C33.34 38.14 29.451 38.181 25.562 38.238 C21.899 38.291 18.237 38.326 14.575 38.346 C12.593 38.362 10.612 38.398 8.631 38.434 C-2.469 38.462 -2.469 38.462 -7 34 C-7.77 30.941 -7.77 30.941 -7.812 27.562 C-7.91 23.567 -8.089 19.899 -9 16 C-8.237 15.484 -7.474 14.969 -6.688 14.438 C-2.193 10.361 -1.167 5.835 0 0 Z " fill="#DADBDA" transform="translate(490,709)"/>
<path d="M0 0 C28.71 0 57.42 0 87 0 C87 27.06 87 54.12 87 82 C58.29 82 29.58 82 0 82 C0 54.94 0 27.88 0 0 Z " fill="#F7F7F7" transform="translate(694,256)"/>
<path d="M0 0 C28.71 0 57.42 0 87 0 C87 26.73 87 53.46 87 81 C58.29 81 29.58 81 0 81 C0 54.27 0 27.54 0 0 Z " fill="#FBFBFB" transform="translate(694,435)"/>
<path d="M0 0 C6.27 0 12.54 0 19 0 C22.687 7.125 22.687 7.125 23.815 9.333 C27.889 17.267 27.889 17.267 35 22 C35.696 57.232 35.627 92.288 12 121 C1.876 118.298 1.876 118.298 -2.125 116.938 C-4.858 115.938 -4.858 115.938 -7.254 115.75 C-9.756 115.429 -11.722 115.094 -14 114 C-15.261 111.804 -15.803 109.788 -16.387 107.328 C-17.345 103.691 -19.329 100.671 -22 98 C-24.35 97.765 -26.706 97.586 -29.062 97.438 C-30.353 97.354 -31.643 97.27 -32.973 97.184 C-33.972 97.123 -34.971 97.062 -36 97 C-36.567 93.521 -36.742 90.462 -36 87 C-34.011 84.803 -31.9 83.35 -29.445 81.695 C-23.601 77.643 -20.116 72.422 -17 66.125 C-14.524 61.318 -14.524 61.318 -12.176 59.891 C-10.312 59.375 -10.312 59.375 -7 59 C-5.515 58.505 -5.515 58.505 -4 58 C-2.975 55.819 -2.975 55.819 -2 53 C-1.666 52.466 -1.332 51.933 -0.988 51.383 C2.829 45.142 3.196 38.142 2 31 C1.309 30.366 0.618 29.732 -0.094 29.078 C-0.723 28.392 -1.352 27.707 -2 27 C-1.785 23.375 -1.785 23.375 -1.399 21.27 C-0.974 18.854 -0.805 16.511 -0.684 14.062 C-0.645 13.311 -0.607 12.559 -0.568 11.785 C-0.525 10.866 -0.482 9.947 -0.438 9 C-0.293 6.03 -0.149 3.06 0 0 Z " fill="#FCFBFC" transform="translate(757,755)"/>
<path d="M0 0 C22.11 0 44.22 0 67 0 C67 8.91 67 17.82 67 27 C67.994 32.788 67.994 32.788 69.344 38.496 C70 41 70 41 70 45 C67.875 46.605 67.875 46.605 65 48.188 C53.347 55.248 46.726 65.993 43 79 C41.999 85.094 41.807 91.081 41.812 97.25 C41.813 98.174 41.813 99.097 41.813 100.049 C41.87 106.872 42.555 113.326 44 120 C44.341 121.999 44.677 123.998 45 126 C42.686 124.857 40.374 123.71 38.062 122.562 C37.073 122.074 37.073 122.074 36.064 121.576 C31.113 119.113 31.113 119.113 30 118 C29.697 116.067 29.434 114.128 29.188 112.188 C27.195 98.998 21.977 86.359 14.789 75.104 C13.625 73.27 13.625 73.27 12 70 C12.559 67.941 12.559 67.941 14 66 C15.022 63.98 16.043 61.959 17.062 59.938 C17.59 58.895 18.117 57.852 18.66 56.777 C21.331 51.241 21.253 46.476 21.312 40.438 C21.356 39.01 21.356 39.01 21.4 37.553 C21.483 28.224 19.021 20.304 12.574 13.402 C8.873 10.105 4.834 8.711 0 8 C0 5.36 0 2.72 0 0 Z " fill="#FCFCFC" transform="translate(58,755)"/>
<path d="M0 0 C-0.01 0.838 -0.021 1.675 -0.032 2.539 C-0.066 5.643 -0.091 8.748 -0.11 11.853 C-0.125 13.859 -0.15 15.865 -0.176 17.871 C-0.182 19.128 -0.189 20.385 -0.195 21.68 C-0.206 22.842 -0.216 24.005 -0.227 25.203 C-0.293 28.139 -0.293 28.139 2 30 C-1.073 30.911 -3.801 31.089 -7 31 C-6.362 31.121 -5.724 31.242 -5.066 31.367 C-3.827 31.619 -3.827 31.619 -2.562 31.875 C-1.739 32.037 -0.915 32.2 -0.066 32.367 C0.616 32.576 1.297 32.785 2 33 C2.33 33.66 2.66 34.32 3 35 C-2.445 34.505 -2.445 34.505 -8 34 C-8 34.66 -8 35.32 -8 36 C-5.69 36 -3.38 36 -1 36 C-2.173 39.167 -3.08 40.052 -6 41.938 C-8.349 43.789 -8.944 44.756 -9.625 47.719 C-9.884 49.946 -10.137 52.174 -10.383 54.402 C-11.259 59.51 -13.34 63.82 -15.469 68.516 C-19.435 77.542 -23.018 87.319 -20.418 97.215 C-20.28 97.804 -20.142 98.393 -20 99 C-21 100 -21 100 -23.25 100.562 C-26.504 99.897 -26.929 99.317 -28.812 96.688 C-33.052 89.165 -31.075 80.2 -30 72 C-30.66 72 -31.32 72 -32 72 C-32.34 74.187 -32.671 76.374 -33 78.562 C-33.186 79.781 -33.371 80.999 -33.562 82.254 C-33.989 85.903 -34.218 89.332 -34 93 C-33.01 93.99 -33.01 93.99 -32 95 C-32 96.32 -32 97.64 -32 99 C-36.146 99.088 -40.291 99.141 -44.438 99.188 C-45.602 99.213 -46.767 99.238 -47.967 99.264 C-54.17 99.316 -59.352 99.044 -65.117 96.65 C-67.298 95.783 -67.298 95.783 -71 96 C-71.33 97.98 -71.66 99.96 -72 102 C-74.475 102.495 -74.475 102.495 -77 103 C-77.75 100.312 -77.75 100.312 -78 97 C-76.667 95.333 -75.333 93.667 -74 92 C-74.209 89.23 -74.209 89.23 -75 86 C-75.796 75.333 -73.966 67.419 -67.062 59.121 C-60.531 52.404 -51.923 48.12 -43.809 43.602 C-41.176 42.264 -41.176 42.264 -40 41 C-38.554 31.203 -37.449 21.989 -42.109 12.98 C-43.327 10.273 -43.299 7.919 -43 5 C-39.305 5.346 -37.093 6.54 -34.125 8.625 C-30.893 10.759 -30.165 11.005 -26.062 10.875 C-23.149 10.311 -23.149 10.311 -22 9 C-20.147 8.928 -18.292 8.916 -16.438 8.938 C-15.426 8.947 -14.414 8.956 -13.371 8.965 C-12.589 8.976 -11.806 8.988 -11 9 C-10.742 8.397 -10.484 7.793 -10.219 7.172 C-8.888 4.801 -7.723 3.776 -5.5 2.25 C-4.892 1.822 -4.283 1.394 -3.656 0.953 C-2 0 -2 0 0 0 Z " fill="#F9F9F9" transform="translate(415,434)"/>
<path d="M0 0 C3.626 11.773 6.687 23.615 9.448 35.619 C9.946 37.765 10.458 39.907 10.98 42.047 C11.255 43.186 11.53 44.326 11.812 45.5 C12.162 46.939 12.162 46.939 12.52 48.406 C13 51 13.091 53.369 13 56 C10.556 53.731 8.761 51.63 6.938 48.812 C5.241 45.746 5.241 45.746 2 45 C4.031 50.258 6.168 55.428 8.578 60.523 C9.016 61.484 9.455 62.444 9.906 63.434 C10.79 65.368 11.701 67.291 12.641 69.199 C17.424 79.948 16 85.662 16 99 C-2.81 99 -21.62 99 -41 99 C-36.403 76.014 -36.403 76.014 -34 68.562 C-33.741 67.732 -33.481 66.902 -33.214 66.047 C-32.706 64.42 -32.194 62.793 -31.679 61.168 C-31.096 59.306 -30.548 57.433 -30.008 55.559 C-27.023 45.217 -13.809 0 0 0 Z " fill="#D8D9D8" transform="translate(705,925)"/>
<path d="M0 0 C3.643 1.619 6.204 3.409 8 7 C8.751 10.938 8.969 14.414 6.828 17.918 C4.412 20.54 2.798 21.855 -0.75 22.5 C-3 22 -3 22 -5 20 C-4.728 25.541 -3.944 29.468 -1.438 34.438 C1.106 39.785 2.311 44.132 1 50 C-0.707 53.867 -2.726 57.44 -5 61 C-4.34 61 -3.68 61 -3 61 C-2.634 66.488 -2.634 66.488 -4.25 68.75 C-7.551 71.108 -10.139 72.254 -14.223 72.23 C-15.008 72.229 -15.794 72.227 -16.604 72.225 C-17.415 72.212 -18.226 72.2 -19.062 72.188 C-20.285 72.187 -20.285 72.187 -21.533 72.186 C-25.014 72.16 -27.666 72.111 -31 71 C-33.288 70.975 -35.576 71.01 -37.863 71.078 C-39.239 71.105 -40.615 71.131 -41.99 71.156 C-44.15 71.199 -46.308 71.25 -48.468 71.322 C-50.558 71.389 -52.647 71.424 -54.738 71.453 C-55.986 71.486 -57.235 71.518 -58.521 71.552 C-63.145 70.818 -64.712 69.273 -68 66 C-69.569 62.861 -69.352 60.461 -69 57 C-66.875 54.062 -66.875 54.062 -64 52 C-60.738 51.478 -58.973 51.416 -56.125 53.125 C-54.515 55.809 -54.734 57.936 -55 61 C-56 62 -56 62 -58.562 62.062 C-59.367 62.042 -60.171 62.021 -61 62 C-61.495 60.515 -61.495 60.515 -62 59 C-61.01 59 -60.02 59 -59 59 C-59 58.34 -59 57.68 -59 57 C-60.32 57.66 -61.64 58.32 -63 59 C-62.621 62.291 -62.621 62.291 -61 65 C-59.485 65.232 -57.962 65.412 -56.438 65.562 C-55.198 65.688 -55.198 65.688 -53.934 65.816 C-53.296 65.877 -52.657 65.938 -52 66 C-52.242 59.992 -52.814 56.109 -56.129 50.973 C-58.338 45.969 -57.797 39.825 -56.34 34.66 C-53.524 28.31 -48.703 24.622 -42.875 21.125 C-37.161 18.948 -29.633 18.863 -23.828 20.68 C-22.188 21.5 -22.188 21.5 -20 23 C-20.104 22.074 -20.104 22.074 -20.211 21.129 C-20.617 14.771 -19.559 11.008 -15.703 5.918 C-10.839 0.44 -7.048 -0.783 0 0 Z " fill="#333032" transform="translate(769,262)"/>
<path d="M0 0 C3 1 3 1 4.395 3.5 C7.753 11.79 10.208 20.117 12.312 28.812 C12.694 30.385 12.694 30.385 13.083 31.99 C14.551 38.314 15.542 44.523 16 51 C14.893 49.861 13.786 48.721 12.68 47.582 C10.219 45.265 7.608 43.149 5 41 C5.364 41.604 5.727 42.209 6.102 42.831 C19.473 65.878 18.597 86.029 16 112 C2.47 112 -11.06 112 -25 112 C-23.02 109.36 -21.04 106.72 -19 104 C-14.657 95.49 -16.996 85.681 -19.441 76.91 C-20.034 73.825 -19.931 71.981 -19 69 C-18.319 68.051 -17.639 67.102 -16.938 66.125 C-14.54 62.259 -14.391 60.49 -15 56 C-15.936 53.73 -16.963 51.569 -18.125 49.406 C-20.316 43.38 -18.656 38.187 -16.113 32.598 C-15.814 31.916 -15.516 31.235 -15.208 30.533 C-14.576 29.099 -13.937 27.668 -13.293 26.24 C-12.319 24.078 -11.366 21.908 -10.416 19.736 C-7.377 12.855 -4.252 6.235 0 0 Z " fill="#D8D9D8" transform="translate(602,912)"/>
<path d="M0 0 C4.286 2.269 7.562 4.781 10 9 C10.866 13.772 10.455 17.106 8.25 21.438 C6.148 23.831 5 25.063 2 26 C0.68 26 -0.64 26 -2 26 C-1.959 27.258 -1.918 28.516 -1.875 29.812 C-1.902 38.383 -2.691 46.691 -9 53 C-10.405 53.108 -11.816 53.149 -13.225 53.161 C-14.123 53.171 -15.022 53.18 -15.947 53.19 C-16.926 53.194 -17.905 53.199 -18.914 53.203 C-19.917 53.209 -20.92 53.215 -21.953 53.22 C-24.084 53.23 -26.214 53.236 -28.344 53.24 C-31.59 53.25 -34.836 53.281 -38.082 53.312 C-40.151 53.319 -42.22 53.324 -44.289 53.328 C-45.739 53.347 -45.739 53.347 -47.219 53.366 C-52.929 53.347 -56.968 52.769 -62 50 C-65.121 46.632 -66.871 44.339 -67.312 39.75 C-66.945 35.34 -65.767 33.4 -63 30 C-59.581 27.721 -59.051 27.936 -55.188 28.375 C-51.312 28.511 -51.312 28.511 -48.258 26.367 C-47.285 24.942 -46.335 23.501 -45.406 22.047 C-43.174 18.798 -40.757 17.145 -37 16 C-29.823 14.982 -24.881 15.781 -19 20 C-18.67 20.33 -18.34 20.66 -18 21 C-17.961 19.913 -17.961 19.913 -17.922 18.805 C-17.57 12.808 -17.177 8.628 -13 4 C-8.652 0.328 -5.675 -0.811 0 0 Z " fill="#403D3F" transform="translate(769,458)"/>
<path d="M0 0 C0.833 -0.007 1.665 -0.013 2.523 -0.02 C5.285 -0.04 8.047 -0.051 10.809 -0.061 C12.222 -0.067 12.222 -0.067 13.664 -0.074 C18.648 -0.094 23.632 -0.109 28.616 -0.118 C33.77 -0.129 38.924 -0.164 44.078 -0.203 C48.036 -0.229 51.994 -0.238 55.953 -0.241 C57.853 -0.246 59.753 -0.258 61.653 -0.276 C64.311 -0.301 66.967 -0.3 69.625 -0.293 C70.805 -0.312 70.805 -0.312 72.009 -0.332 C75.545 -0.298 77.535 -0.134 80.384 2.046 C82.822 5.38 83.942 8.036 83.942 12.177 C83.022 12.298 82.101 12.419 81.153 12.544 C79.887 12.712 78.621 12.879 77.317 13.052 C75.344 13.313 73.371 13.572 71.396 13.825 C69.677 14.072 67.964 14.362 66.257 14.685 C54.656 16.713 43.009 16.478 31.266 16.438 C27.582 16.427 23.899 16.438 20.215 16.45 C7.974 16.457 -3.968 16.227 -16.058 14.177 C-15.26 7.91 -14.39 5.615 -10.058 1.177 C-6.891 -0.406 -3.479 0.012 0 0 Z " fill="#DADADA" transform="translate(395.05810546875,833.822998046875)"/>
<path d="M0 0 C1.65 0 3.3 0 5 0 C5 90.75 5 181.5 5 275 C3.35 275 1.7 275 0 275 C0 184.25 0 93.5 0 0 Z " fill="#F4F4F5" transform="translate(475,264)"/>
<path d="M0 0 C4.5 4.061 7.398 8.494 10.375 13.75 C10.838 14.511 11.301 15.271 11.777 16.055 C14.988 21.709 15.714 25.703 14 32 C12.917 35.246 11.614 38.363 10.25 41.5 C2.403 60.105 2.403 60.105 1 80 C-3.346 82.045 -6.136 83.202 -11 83 C-11.264 55.16 -9.414 27.744 -1 1 C-0.67 0.67 -0.34 0.34 0 0 Z " fill="#DADADA" transform="translate(273,897)"/>
<path d="M0 0 C1.098 -0.037 2.195 -0.075 3.326 -0.113 C11.277 -0.201 11.277 -0.201 14.797 2.379 C16.417 6.215 16.537 9.602 16.375 13.688 C16.36 14.769 16.36 14.769 16.346 15.873 C16.081 28.714 16.081 28.714 13.875 32.312 C8.916 35.219 2.107 34.655 -3.5 34.75 C-4.756 34.806 -4.756 34.806 -6.037 34.863 C-10.441 34.926 -12.341 34.823 -15.965 32.102 C-19.584 27.099 -19.182 21.914 -19.25 15.938 C-19.279 15.091 -19.308 14.245 -19.338 13.373 C-19.38 9.225 -19.292 6.963 -17.105 3.34 C-12.38 -0.943 -6.028 0.078 0 0 Z " fill="#F5F4F5" transform="translate(299.9375,501.625)"/>
<path d="M0 0 C4.536 7.58 4.536 7.58 4 12 C0.041 13.735 -3.828 14.712 -8.062 15.562 C-9.27 15.811 -10.478 16.06 -11.723 16.316 C-24.304 18.482 -37.033 18.119 -49.75 18.062 C-51.719 18.057 -53.687 18.053 -55.656 18.049 C-60.438 18.038 -65.219 18.021 -70 18 C-70.108 16.397 -70.186 14.793 -70.25 13.188 C-70.296 12.294 -70.343 11.401 -70.391 10.48 C-70 8 -70 8 -68.138 6.218 C-59.843 1.492 -47.47 2.224 -38.062 1.375 C-37.345 1.309 -36.627 1.243 -35.888 1.175 C-23.904 0.085 -12.036 -0.37 0 0 Z " fill="#DADBDA" transform="translate(731,859)"/>
<path d="M0 0 C0.677 0.001 1.355 0.001 2.053 0.002 C13.582 0.101 13.582 0.101 16.938 2.562 C21.283 8.839 19.697 20.943 18.602 28.27 C17.513 32.132 16.603 33.773 13.375 36.25 C9.366 37.385 6.215 37.402 2.062 37.188 C1.981 35.126 1.923 33.063 1.875 31 C1.823 29.277 1.823 29.277 1.77 27.52 C2.091 23.866 2.794 22.044 5.062 19.188 C8.25 18.375 8.25 18.375 11.062 18.188 C11.062 17.197 11.062 16.207 11.062 15.188 C9.639 15.28 9.639 15.28 8.188 15.375 C7.156 15.313 6.125 15.251 5.062 15.188 C4.402 14.197 3.743 13.207 3.062 12.188 C0.5 11.458 0.5 11.458 -1.938 11.188 C-1.959 12.201 -1.959 12.201 -1.98 13.234 C-2.377 20.655 -2.377 20.655 -5.438 23.562 C-6.262 24.099 -7.087 24.635 -7.938 25.188 C-8.807 27.317 -8.807 27.317 -8.938 29.188 C-6.957 28.197 -4.978 27.207 -2.938 26.188 C-1.947 29.817 -0.957 33.447 0.062 37.188 C-2.019 37.323 -4.103 37.42 -6.188 37.5 C-7.348 37.558 -8.508 37.616 -9.703 37.676 C-12.938 37.188 -12.938 37.188 -15.297 34.793 C-18.619 29.517 -18.194 25.015 -18.25 18.875 C-18.279 17.829 -18.308 16.783 -18.338 15.705 C-18.401 8.063 -18.401 8.063 -16.293 4.082 C-11.302 0.068 -6.192 -0.111 0 0 Z " fill="#F7F6F7" transform="translate(296.9375,349.8125)"/>
<path d="M0 0 C3.672 0.515 5.639 1.265 8.562 3.5 C10.113 6.6 9.852 9.079 9.562 12.5 C7.562 15.438 7.562 15.438 5.562 17.5 C4.242 17.17 2.923 16.84 1.562 16.5 C1.562 14.85 1.562 13.2 1.562 11.5 C2.222 11.5 2.883 11.5 3.562 11.5 C3.562 12.49 3.562 13.48 3.562 14.5 C4.553 14.5 5.543 14.5 6.562 14.5 C6.067 11.035 6.067 11.035 5.562 7.5 C3.582 7.5 1.602 7.5 -0.438 7.5 C-1.394 10.37 -1.587 12.301 -1.648 15.289 C-1.691 16.703 -1.691 16.703 -1.734 18.145 C-1.786 20.108 -1.83 22.071 -1.867 24.035 C-2.087 30.8 -2.406 38.468 -7.438 43.5 C-10.09 43.675 -12.637 43.732 -15.289 43.695 C-16.063 43.692 -16.837 43.69 -17.635 43.687 C-20.111 43.676 -22.586 43.65 -25.062 43.625 C-26.74 43.615 -28.417 43.606 -30.094 43.598 C-34.208 43.576 -38.323 43.541 -42.438 43.5 C-42.497 41.097 -42.54 38.696 -42.574 36.293 C-42.593 35.617 -42.611 34.941 -42.63 34.244 C-42.693 28.328 -41.392 24.797 -37.438 20.5 C-36.757 19.675 -36.076 18.85 -35.375 18 C-30.562 15.542 -25.721 15.788 -20.438 16.5 C-16.655 18.47 -14.213 21.387 -12.152 25.152 C-10.555 30.397 -11.167 36.082 -11.438 41.5 C-9.952 41.005 -9.952 41.005 -8.438 40.5 C-6.949 37.522 -7.398 34.518 -7.48 31.262 C-7.503 29.787 -7.524 28.313 -7.545 26.838 C-7.582 24.514 -7.625 22.19 -7.684 19.866 C-7.739 17.623 -7.768 15.381 -7.793 13.137 C-7.817 12.447 -7.841 11.757 -7.865 11.047 C-7.884 7.518 -7.491 5.588 -5.63 2.554 C-3.438 0.5 -3.438 0.5 0 0 Z " fill="#FBFBFB" transform="translate(764.4375,462.5)"/>
<path d="M0 0 C1.51 -0.044 1.51 -0.044 3.051 -0.088 C10.225 -0.15 10.225 -0.15 13.793 1.684 C15.935 5.911 15.662 10.021 15.562 14.688 C15.57 15.621 15.577 16.554 15.584 17.516 C15.536 22.766 15.312 26.918 12.125 31.312 C7.983 33.916 3.374 33.646 -1.375 33.625 C-2.121 33.641 -2.868 33.657 -3.637 33.674 C-8.181 33.678 -11.235 33.321 -14.875 30.312 C-17.502 25.964 -17.242 21.886 -17.25 16.938 C-17.274 16.1 -17.299 15.262 -17.324 14.398 C-17.351 8.733 -16.58 5.651 -12.875 1.312 C-9.004 -0.623 -4.258 0.041 0 0 Z " fill="#F1F0F1" transform="translate(299.875,431.6875)"/>
<path d="M0 0 C4.525 0.489 4.525 0.489 6.484 2.598 C8.407 5.645 9.694 8.824 10.938 12.188 C11.327 13.232 11.327 13.232 11.724 14.297 C14.514 22.043 16.279 29.963 18 38 C18.374 39.521 18.749 41.042 19.125 42.562 C21.902 55.733 22.294 68.788 22.206 82.194 C22.187 85.09 22.185 87.985 22.186 90.881 C22.181 92.745 22.175 94.609 22.168 96.473 C22.167 97.327 22.166 98.181 22.165 99.061 C22.127 103.808 21.789 108.318 21 113 C18.36 113 15.72 113 13 113 C13.058 111.757 13.115 110.515 13.175 109.234 C15.231 76.417 15.231 76.417 3.01 46.738 C2 45 2 45 2 42 C5.21 43.382 7.049 44.924 9.25 47.625 C9.771 48.257 10.292 48.888 10.828 49.539 C11.408 50.262 11.408 50.262 12 51 C10.308 35.749 6.963 20.668 0.918 6.531 C0 4 0 4 0 0 Z " fill="#2A292B" transform="translate(605,911)"/>
<path d="M0 0 C4.407 2.559 7.199 5.798 10 10 C10.894 15.853 10.269 21.081 7.344 26.242 C4.368 30.134 0.598 32.467 -4 34 C-9.823 34.592 -13.34 33.993 -18.168 30.613 C-21.833 27.386 -24.402 23.774 -25.441 18.953 C-25.748 13.849 -24.17 9.875 -21 6 C-15.184 -0.473 -8.44 -1.787 0 0 Z " fill="#F6F6F6" transform="translate(304,277)"/>
<path d="M0 0 C2.711 6.535 4.094 12.92 3 20 C1.085 24.096 -1.211 26.194 -4.938 28.688 C-5.792 29.269 -6.647 29.85 -7.527 30.449 C-14.212 34.642 -20.119 35.241 -28 34 C-35.418 30.107 -40.206 22.247 -44 15 C-44 14.34 -44 13.68 -44 13 C-43.01 13.023 -42.02 13.046 -41 13.07 C-25.401 13.337 -12.394 0 0 0 Z " fill="#FBFBFB" transform="translate(576,990)"/>
<path d="M0 0 C0.487 0.28 0.975 0.559 1.477 0.848 C6.3 3.575 11.187 6.173 16.125 8.688 C17.262 9.269 18.399 9.85 19.57 10.449 C25.508 13.134 30.949 14.254 37.438 14.625 C38.674 14.7 39.91 14.775 41.184 14.852 C42.113 14.901 43.042 14.95 44 15 C37.134 30.542 37.134 30.542 31 33 C20.533 34.867 13.289 33.045 4.574 27.141 C0.544 23.789 -1.428 21.273 -2 16 C-1.941 13.789 -1.812 11.579 -1.625 9.375 C-1.535 8.248 -1.445 7.122 -1.352 5.961 C-1 3 -1 3 0 0 Z " fill="#FBFBFB" transform="translate(285,991)"/>
<path d="M0 0 C3.375 1.5 3.375 1.5 6 3 C6 2.01 6 1.02 6 0 C7.65 0 9.3 0 11 0 C11 10.23 11 20.46 11 31 C9.35 30.67 7.7 30.34 6 30 C6 29.01 6 28.02 6 27 C4.989 27.66 3.979 28.32 2.938 29 C-0.89 31.149 -3.569 31.712 -8 31 C-12.21 28.84 -15.305 26.516 -17 22 C-17.658 16.507 -17.708 11.586 -15.438 6.5 C-11.033 1.983 -6.568 -0.978 0 0 Z " fill="#F7F7F8" transform="translate(556,477)"/>
<path d="M0 0 C1.65 0 3.3 0 5 0 C4.232 6.557 2.528 12.721 0.729 19.061 C-0.487 23.495 -1.294 27.352 -1 32 C0.65 30.02 2.3 28.04 4 26 C5.32 26.33 6.64 26.66 8 27 C5.307 34.496 2.424 41.478 -1.766 48.27 C-5.369 56.239 -4.322 66.364 -4.562 75 C-4.606 76.457 -4.649 77.914 -4.693 79.371 C-4.8 82.914 -4.901 86.457 -5 90 C-7.64 90 -10.28 90 -13 90 C-13.105 80.016 -12.846 70.09 -12.25 60.125 C-12.207 59.412 -12.165 58.7 -12.121 57.965 C-10.917 38.477 -9.295 17.568 0 0 Z " fill="#262527" transform="translate(95,934)"/>
<path d="M0 0 C0.33 0 0.66 0 1 0 C1 6.93 1 13.86 1 21 C-9.144 21.929 -19.141 22.121 -29.312 22.062 C-30.843 22.057 -32.374 22.053 -33.904 22.049 C-37.603 22.039 -41.301 22.019 -45 22 C-45 15.07 -45 8.14 -45 1 C-42.559 2.27 -40.117 3.539 -37.676 4.809 C-29.412 8.488 -17.771 8.662 -9.254 5.695 C-4.307 3.327 -4.307 3.327 0 0 Z " fill="#F5F5F5" transform="translate(450,804)"/>
<path d="M0 0 C4.247 0.87 7.091 2.825 10 6 C15.19 14.104 16.325 23.287 14.469 32.691 C12.992 37.948 10.907 42.388 8 47 C1.353 41.526 -2.182 32.993 -5 25 C-4.77 21.48 -4.03 19.063 -2.5 15.875 C-0.192 10.887 -0.258 5.41 0 0 Z " fill="#F8F8F8" transform="translate(59,770)"/>
<path d="M0 0 C-0.217 1.056 -0.217 1.056 -0.438 2.133 C-2.538 13.309 -4.224 24.004 2 34 C2.33 34.99 2.66 35.98 3 37 C4.485 37.495 4.485 37.495 6 38 C6 38.33 6 38.66 6 39 C-0.6 39 -7.2 39 -14 39 C-16.382 27.408 -16.631 15.8 -17 4 C-14.542 3.33 -12.084 2.664 -9.625 2 C-8.577 1.714 -8.577 1.714 -7.508 1.422 C-2.227 0 -2.227 0 0 0 Z " fill="#D8D8D8" transform="translate(279,985)"/>
<path d="M0 0 C4.92 -0.197 9.391 0.184 14.25 1 C27.966 3.054 41.709 2.36 55.398 0.438 C58.647 0.043 61.733 -0.081 65 0 C65.495 2.475 65.495 2.475 66 5 C56.329 10.91 44.21 10.33 33.25 10.25 C31.934 10.244 30.618 10.238 29.262 10.232 C4.697 9.981 4.697 9.981 0.086 6.594 C-1 5 -1 5 -0.688 2.312 C-0.461 1.549 -0.234 0.786 0 0 Z " fill="#282629" transform="translate(867,974)"/>
<path d="M0 0 C23.68 -0.811 23.68 -0.811 29.824 4.609 C31.569 8.156 31.196 11.072 31 15 C26.746 14.882 22.492 14.758 18.238 14.628 C16.789 14.584 15.341 14.543 13.893 14.503 C11.815 14.445 9.738 14.381 7.66 14.316 C5.783 14.261 5.783 14.261 3.867 14.205 C1 14 1 14 0 13 C-0.073 10.814 -0.084 8.625 -0.062 6.438 C-0.053 5.24 -0.044 4.042 -0.035 2.809 C-0.024 1.882 -0.012 0.955 0 0 Z " fill="#D3D4D4" transform="translate(200,855)"/>
<path d="M0 0 C2.31 0 4.62 0 7 0 C7 3.63 7 7.26 7 11 C9.31 11 11.62 11 14 11 C14.043 12.666 14.041 14.334 14 16 C13 17 13 17 9.938 17.062 C8.968 17.042 7.999 17.021 7 17 C7.14 20.229 7.288 23.458 7.438 26.688 C7.496 28.056 7.496 28.056 7.557 29.451 C7.619 30.781 7.619 30.781 7.684 32.137 C7.72 32.948 7.757 33.76 7.795 34.596 C7.945 37.067 7.945 37.067 8.645 39.679 C8.762 40.445 8.879 41.211 9 42 C8.34 42.66 7.68 43.32 7 44 C5.062 43.938 5.062 43.938 3 43 C-1.049 38.286 -0.341 33.048 -0.188 27.188 C-0.174 26.208 -0.16 25.229 -0.146 24.221 C-0.111 21.813 -0.062 19.407 0 17 C-1.98 17 -3.96 17 -6 17 C-6 15.02 -6 13.04 -6 11 C-4.02 11 -2.04 11 0 11 C0 7.37 0 3.74 0 0 Z " fill="#F2F1F1" transform="translate(579,465)"/>
<path d="M0 0 C3.5 1.5 3.5 1.5 6 3 C6 4.32 6 5.64 6 7 C2.25 8.125 2.25 8.125 0 7 C-3.726 6.655 -6.139 6.515 -9.438 8.375 C-11.797 12.339 -11.835 16.496 -11 21 C-9.808 22.864 -9.808 22.864 -8 24 C-3.141 24.319 1.214 23.957 6 23 C6.33 24.32 6.66 25.64 7 27 C0.571 32.357 0.571 32.357 -4.062 32.562 C-9.714 31.755 -12.587 29.604 -16.312 25.375 C-19.458 20.948 -19.63 17.337 -19 12 C-15.831 3.149 -9.116 -1.013 0 0 Z " fill="#F0EFF0" transform="translate(528,477)"/>
<path d="M0 0 C1.282 -0.056 1.282 -0.056 2.59 -0.113 C5.062 0.312 5.062 0.312 7.352 1.684 C10.043 5.82 9.602 9.863 9.5 14.688 C9.507 15.621 9.514 16.554 9.521 17.516 C9.473 22.827 9.096 26.758 6.062 31.312 C3.298 32.695 1.016 32.408 -2.062 32.375 C-3.158 32.366 -4.254 32.357 -5.383 32.348 C-6.226 32.336 -7.069 32.324 -7.938 32.312 C-7.232 31.27 -7.232 31.27 -6.512 30.207 C-4.794 27.049 -4.256 24.544 -3.75 21 C-3.591 19.931 -3.433 18.863 -3.27 17.762 C-3.16 16.953 -3.05 16.145 -2.938 15.312 C-1.483 14.879 -1.483 14.879 0 14.438 C3.169 13.67 3.169 13.67 4.062 11.312 C2.67 11.436 2.67 11.436 1.25 11.562 C-1.938 11.312 -1.938 11.312 -3.875 9.625 C-5.197 6.747 -4.847 5.29 -3.938 2.312 C-5.257 1.983 -6.577 1.652 -7.938 1.312 C-5.069 0.356 -2.995 0.086 0 0 Z " fill="#F8F7F8" transform="translate(305.9375,431.6875)"/>
<path d="M0 0 C23.43 0 46.86 0 71 0 C71 1.65 71 3.3 71 5 C47.57 5 24.14 5 0 5 C0 3.35 0 1.7 0 0 Z " fill="#E9E8E9" transform="translate(523,350)"/>
<path d="M0 0 C0 10.89 0 21.78 0 33 C-18 10.5 -18 10.5 -18 1 C-11.77 -0.108 -6.577 0 0 0 Z " fill="#D9DADA" transform="translate(1024,844)"/>
<path d="M0 0 C2 1.125 2 1.125 3 3 C3.411 6.285 3.617 8.158 1.625 10.875 C0 12 0 12 -2 12 C-1.34 9.69 -0.68 7.38 0 5 C-4.821 5.973 -4.821 5.973 -8.695 8.766 C-11.153 12.974 -10.774 17.298 -10 22 C-8.683 25.041 -8.683 25.041 -7 28 C-3.836 33.81 -2.654 38.446 -4 45 C-5.368 48.223 -7.119 51.057 -9 54 C-9.707 55.65 -10.4 57.308 -11 59 C-10.01 59 -9.02 59 -8 59 C-8 59.66 -8 60.32 -8 61 C-9.32 61 -10.64 61 -12 61 C-12 61.66 -12 62.32 -12 63 C-12.99 63 -13.98 63 -15 63 C-15.496 58.038 -14.287 55.179 -12.023 50.934 C-9.151 45.506 -7.878 40.068 -9 34 C-9.94 32.074 -10.946 30.179 -12 28.312 C-15.64 21.576 -16.135 15.535 -15 8 C-12.33 0.907 -7.022 -0.922 0 0 Z " fill="#EEEEEE" transform="translate(769,267)"/>
<path d="M0 0 C3.672 0.515 5.639 1.265 8.562 3.5 C10.113 6.6 9.852 9.079 9.562 12.5 C7.562 15.438 7.562 15.438 5.562 17.5 C4.242 17.17 2.923 16.84 1.562 16.5 C1.562 14.85 1.562 13.2 1.562 11.5 C2.222 11.5 2.883 11.5 3.562 11.5 C3.562 12.49 3.562 13.48 3.562 14.5 C4.553 14.5 5.543 14.5 6.562 14.5 C6.232 12.19 5.903 9.88 5.562 7.5 C3.582 7.5 1.602 7.5 -0.438 7.5 C-1.394 10.37 -1.587 12.301 -1.648 15.289 C-1.677 16.231 -1.705 17.174 -1.734 18.145 C-1.786 20.108 -1.83 22.071 -1.867 24.035 C-2.087 30.8 -2.406 38.468 -7.438 43.5 C-10.062 43.625 -10.062 43.625 -12.438 43.5 C-11.438 41.5 -11.438 41.5 -8.438 40.5 C-6.949 37.522 -7.398 34.518 -7.48 31.262 C-7.503 29.787 -7.524 28.313 -7.545 26.838 C-7.582 24.514 -7.625 22.19 -7.684 19.866 C-7.739 17.623 -7.768 15.381 -7.793 13.137 C-7.817 12.447 -7.841 11.757 -7.865 11.047 C-7.884 7.518 -7.491 5.588 -5.63 2.554 C-3.438 0.5 -3.438 0.5 0 0 Z " fill="#EFEFEF" transform="translate(764.4375,462.5)"/>
<path d="M0 0 C2.5 0.25 2.5 0.25 4.5 2.25 C5.666 11.698 4.294 19.232 -1.438 26.812 C-3.988 28.59 -5.459 28.365 -8.5 28.25 C-9.297 10.408 -9.297 10.408 -4.5 2.25 C-2.5 0.25 -2.5 0.25 0 0 Z " fill="#F8F8F8" transform="translate(249.5,782.75)"/>
<path d="M0 0 C0.135 3.064 0.234 6.122 0.312 9.188 C0.375 10.484 0.375 10.484 0.439 11.807 C0.526 16.314 0.456 18.366 -2.25 22.125 C-5 24 -5 24 -7.238 24.27 C-9.159 23.846 -11.079 23.423 -13 23 C-13 21.68 -13 20.36 -13 19 C-10.36 19 -7.72 19 -5 19 C-4.67 18.01 -4.34 17.02 -4 16 C-5.258 16.062 -6.516 16.124 -7.812 16.188 C-10.422 16.316 -11.582 16.298 -13.73 14.766 C-15.75 11.957 -15.541 9.528 -15.398 6.164 C-15 4 -15 4 -13.125 1.438 C-8.722 -0.588 -4.769 -0.333 0 0 Z " fill="#E8E7E7" transform="translate(366,364)"/>
<path d="M0 0 C3.774 1.167 5.308 1.741 7.438 5.062 C8.113 9.719 8.151 12.684 5.375 16.562 C2.438 19.062 2.438 19.062 -1.125 19.688 C-4.562 19.062 -4.562 19.062 -7 17.688 C-9.44 13.588 -9.415 9.701 -8.562 5.062 C-5.955 1.032 -4.825 0.085 0 0 Z " fill="#383639" transform="translate(553.5625,482.9375)"/>
<path d="M0 0 C-0.049 3.076 -0.049 3.076 -0.098 6.152 C-0.206 8.017 -0.206 8.017 1 9 C3.255 9.243 5.509 9.383 7.773 9.523 C10.468 10.1 11.396 10.777 13 13 C13.733 16.566 13.702 19.93 11.688 23 C10 24 10 24 7 24 C7 22.02 7 20.04 7 18 C6.325 18.058 5.649 18.116 4.953 18.176 C-2.375 18.546 -2.375 18.546 -5.5 15.812 C-9.761 7.822 -9.761 7.822 -9 3 C-6.199 -0.008 -4.01 -0.334 0 0 Z " fill="#413F40" transform="translate(297,506)"/>
<path d="M0 0 C0.99 0 1.98 0 3 0 C3.083 1.361 3.083 1.361 3.168 2.75 C3.376 6.139 3.587 9.527 3.8 12.915 C3.891 14.378 3.981 15.84 4.07 17.303 C4.199 19.413 4.331 21.523 4.465 23.633 C4.543 24.9 4.622 26.167 4.703 27.473 C4.975 30.698 5.44 33.815 6 37 C6.112 39.678 6.046 42.317 6 45 C-1.769 38.296 -3.463 25.573 -4.254 15.891 C-4.507 9.317 -3.889 5.347 0 0 Z " fill="#E8E7E8" transform="translate(784,718)"/>
<path d="M0 0 C0 5.61 0 11.22 0 17 C-10.101 17.481 -10.101 17.481 -13.688 15.562 C-15.668 11.696 -15.864 8.244 -15 4 C-11.114 -1.311 -6.011 -0.321 0 0 Z " fill="#E2E1E1" transform="translate(340,364)"/>
<path d="M0 0 C0 5.61 0 11.22 0 17 C-10.208 17.608 -10.208 17.608 -13.688 14.938 C-15.343 11.232 -15.646 9.018 -15 5 C-11.045 -1.196 -6.707 -0.447 0 0 Z " fill="#E7E7E7" transform="translate(339,442)"/>
<path d="M0 0 C0 5.61 0 11.22 0 17 C-10.101 17.481 -10.101 17.481 -13.688 15.562 C-15.601 11.827 -15.841 8.112 -15 4 C-13.423 1.805 -12.482 1.114 -9.844 0.488 C-8.684 0.401 -8.684 0.401 -7.5 0.312 C-6.727 0.247 -5.953 0.181 -5.156 0.113 C-3.439 0.023 -1.719 0 0 0 Z " fill="#E5E5E5" transform="translate(384,364)"/>
<path d="M0 0 C5.75 0.875 5.75 0.875 8 2 C11.578 2.242 15.165 2.185 18.75 2.188 C19.74 2.2 20.73 2.212 21.75 2.225 C26.965 2.235 31.083 1.908 36 0 C37.32 0 38.64 0 40 0 C40 1.98 40 3.96 40 6 C34.786 6.572 29.571 7.141 24.357 7.709 C22.583 7.902 20.808 8.096 19.034 8.291 C16.485 8.571 13.936 8.848 11.387 9.125 C10.593 9.212 9.799 9.3 8.981 9.39 C5.971 9.716 3.03 10 0 10 C0 6.7 0 3.4 0 0 Z " fill="#E9E9E9" transform="translate(675,846)"/>
<path d="M0 0 C2.549 1.549 3.824 2.333 4.602 5.277 C4.672 13.271 2.474 19.371 -2 26 C-4.907 28.936 -8.02 30.086 -12 31 C-11.966 29.624 -11.896 28.249 -11.812 26.875 C-11.778 26.109 -11.743 25.344 -11.707 24.555 C-10.876 21.552 -9.302 19.947 -7.259 17.655 C-5.093 14.808 -4.238 11.586 -3.25 8.188 C-1.081 1.081 -1.081 1.081 0 0 Z " fill="#F2F2F2" transform="translate(482,750)"/>
<path d="M0 0 C0 5.28 0 10.56 0 16 C-10.135 16.483 -10.135 16.483 -13.688 14.5 C-15.566 10.922 -15.753 7.952 -15 4 C-11.939 -1.831 -5.739 -0.273 0 0 Z " fill="#EAEAEA" transform="translate(567,289)"/>
<path d="M0 0 C0 4.95 0 9.9 0 15 C-7.203 16.115 -7.203 16.115 -11 16 C-13.688 14 -13.688 14 -15 11 C-15.538 7.169 -15.528 4.981 -13.688 1.562 C-9.276 -1.002 -5.032 -0.24 0 0 Z " fill="#EEEDED" transform="translate(355,289)"/>
<path d="M0 0 C17.49 0 34.98 0 53 0 C53 1.32 53 2.64 53 4 C35.51 4 18.02 4 0 4 C0 2.68 0 1.36 0 0 Z " fill="#FDFDFC" transform="translate(533,370)"/>
<path d="M0 0 C2.375 -0.188 2.375 -0.188 5 0 C5.66 0.99 6.32 1.98 7 3 C10.066 3.733 10.066 3.733 13 4 C13 4.99 13 5.98 13 7 C9.25 9 9.25 9 7 9 C4.986 12.328 4.832 14.712 5 18.562 C5.222 23.668 5.222 23.668 3 27 C0.836 27.293 0.836 27.293 -1.625 27.188 C-2.851 27.147 -2.851 27.147 -4.102 27.105 C-4.728 27.071 -5.355 27.036 -6 27 C-6 26.67 -6 26.34 -6 26 C-3.36 26 -0.72 26 2 26 C0.68 22.7 -0.64 19.4 -2 16 C-3.65 16.66 -5.3 17.32 -7 18 C-6.75 15.688 -6.75 15.688 -6 13 C-5.35 12.557 -4.701 12.113 -4.031 11.656 C-1.414 9.522 -1.262 8.1 -0.75 4.812 C-0.6 3.911 -0.451 3.01 -0.297 2.082 C-0.199 1.395 -0.101 0.708 0 0 Z " fill="#454344" transform="translate(295,361)"/>
<path d="M0 0 C5.908 6.723 7.67 12.393 7.504 21.242 C6.945 24.301 6.362 25.296 4 27.25 C3.01 27.827 2.02 28.405 1 29 C-4.383 20.926 -3.224 10.315 -3 1 C-2.01 0.67 -1.02 0.34 0 0 Z " fill="#CDCDCE" transform="translate(998,796)"/>
<path d="M0 0 C4.099 0.603 8.032 1.833 12 3 C11.34 4.32 10.68 5.64 10 7 C8.35 7 6.7 7 5 7 C4.963 7.82 4.925 8.64 4.887 9.484 C4.821 10.562 4.755 11.64 4.688 12.75 C4.629 13.817 4.571 14.885 4.512 15.984 C3.964 19.215 3.33 20.72 1 23 C0.01 23 -0.98 23 -2 23 C-1.412 19.976 -0.773 16.982 0 14 C-0.598 14.33 -1.196 14.66 -1.812 15 C-4 16 -4 16 -7 16 C-6.537 13.501 -5.891 11.82 -4.562 9.625 C-2.895 6.824 -1.985 4.096 -1 1 C-0.67 0.67 -0.34 0.34 0 0 Z " fill="#494549" transform="translate(298,440)"/>
<path d="M0 0 C0 2.97 0 5.94 0 9 C-10.395 9.495 -10.395 9.495 -21 10 C-23 6 -23 6 -23 3 C-20.293 2.494 -17.584 1.995 -14.875 1.5 C-13.734 1.285 -13.734 1.285 -12.57 1.066 C-8.32 0.297 -4.341 -0.166 0 0 Z " fill="#D5D6D6" transform="translate(1024,828)"/>
<path d="M0 0 C2 1.125 2 1.125 3 3 C3 4.98 3 6.96 3 9 C-0.96 9 -4.92 9 -9 9 C-8.01 10.32 -7.02 11.64 -6 13 C-3.237 12.477 -0.674 11.891 2 11 C1.34 12.65 0.68 14.3 0 16 C-7.2 16.48 -7.2 16.48 -10.5 14.5 C-12.622 10.964 -12.791 8.021 -12 4 C-8.997 -1.004 -5.317 -0.591 0 0 Z " fill="#EDECED" transform="translate(395,289)"/>
<path d="M0 0 C7.698 7.698 7.698 7.698 8.5 13.812 C8.325 18.67 6.061 22.327 3 26 C2.01 26.66 1.02 27.32 0 28 C0 18.76 0 9.52 0 0 Z " fill="#F7F6F7" transform="translate(995,765)"/>
<path d="M0 0 C0.66 0 1.32 0 2 0 C2.364 0.773 2.727 1.547 3.102 2.344 C5.888 8.117 8.682 13.352 12.801 18.281 C14.122 20.175 14.58 21.745 15 24 C8.746 23.639 8.746 23.639 5.812 21.125 C1.958 14.479 -0.688 7.74 0 0 Z " fill="#F0F0F0" transform="translate(366,757)"/>
<path d="M0 0 C0.99 0 1.98 0 3 0 C2.125 4.875 2.125 4.875 1 6 C0.714 9.212 0.737 11.412 2.062 14.375 C4.029 16.305 4.029 16.305 7.438 16.562 C11.152 16.359 11.152 16.359 13.25 13.5 C14.116 12.262 14.116 12.262 15 11 C15.99 11 16.98 11 18 11 C17.505 14.665 16.979 16.708 14 19 C10.347 20.218 7.842 20.391 4 20 C1.024 18.224 -1.428 16.145 -3 13 C-3.344 7.756 -3.55 4.208 0 0 Z " fill="#4A464B" transform="translate(290,284)"/>
<path d="M0 0 C1.98 0.99 1.98 0.99 4 2 C5.744 2.724 7.494 3.432 9.25 4.125 C10.142 4.478 11.034 4.831 11.953 5.195 C12.629 5.461 13.304 5.726 14 6 C14 7.98 14 9.96 14 12 C9.38 12.33 4.76 12.66 0 13 C0 8.71 0 4.42 0 0 Z " fill="#EDECED" transform="translate(1010,811)"/>
<path d="M0 0 C0.66 1.32 1.32 2.64 2 4 C1.362 3.988 0.724 3.977 0.066 3.965 C-0.76 3.956 -1.586 3.947 -2.438 3.938 C-3.261 3.926 -4.085 3.914 -4.934 3.902 C-6.992 3.767 -6.992 3.767 -8 5 C-8.167 8 -8.167 8 -8 11 C-6.962 12.26 -6.962 12.26 -4.688 12.125 C-2.29 12.013 -0.291 11.679 2 11 C1.625 12.938 1.625 12.938 1 15 C-2.092 16.546 -4.594 16.294 -8 16 C-10.438 14.562 -10.438 14.562 -12 12 C-12.544 8.895 -12.564 6.103 -12 3 C-9.013 -1.107 -4.637 -0.232 0 0 Z " fill="#E5E4E4" transform="translate(378,289)"/>
<path d="M0 0 C0.99 0 1.98 0 3 0 C3 1.65 3 3.3 3 5 C4.32 5 5.64 5 7 5 C7 6.32 7 7.64 7 9 C6.01 9 5.02 9 4 9 C4.33 13.29 4.66 17.58 5 22 C3.35 21.67 1.7 21.34 0 21 C0 17.04 0 13.08 0 9 C-0.99 8.67 -1.98 8.34 -3 8 C-2.67 7.01 -2.34 6.02 -2 5 C-1.34 5 -0.68 5 0 5 C0 3.35 0 1.7 0 0 Z " fill="#E4E3E4" transform="translate(573,283)"/>
<path d="M0 0 C9.625 -0.25 9.625 -0.25 13 2 C13 2.99 13 3.98 13 5 C10.36 4.67 7.72 4.34 5 4 C4.67 8.29 4.34 12.58 4 17 C2.68 17 1.36 17 0 17 C0 11.39 0 5.78 0 0 Z " fill="#DAD9D9" transform="translate(387,364)"/>
<path d="M0 0 C0.66 0.33 1.32 0.66 2 1 C2 1.99 2 2.98 2 4 C0.701 3.979 -0.599 3.959 -1.938 3.938 C-3.292 3.916 -4.648 3.929 -6 4 C-7.344 5.118 -7.344 5.118 -7.125 8 C-7.344 10.882 -7.344 10.882 -6 12 C-2.935 12.161 -0.945 11.982 2 11 C1.125 14.875 1.125 14.875 0 16 C-3.783 16.357 -6.154 16.521 -9.438 14.5 C-11.648 10.963 -11.658 8.063 -11 4 C-8.874 -1.314 -5.031 -0.399 0 0 Z " fill="#EDEDED" transform="translate(335,289)"/>
<path d="M0 0 C6.152 -0.098 6.152 -0.098 8 0 C9 1 9 1 9.188 4.438 C9 8 9 8 7 10 C5.68 10 4.36 10 3 10 C3 11.32 3 12.64 3 14 C2.01 14 1.02 14 0 14 C0 9.38 0 4.76 0 0 Z " fill="#C8C7C7" transform="translate(712,350)"/>
<path d="M0 0 C1.32 0 2.64 0 4 0 C4 1.65 4 3.3 4 5 C4.99 5 5.98 5 7 5 C7 6.32 7 7.64 7 9 C6.01 9 5.02 9 4 9 C4.33 13.29 4.66 17.58 5 22 C3.68 21.67 2.36 21.34 1 21 C1 16.71 1 12.42 1 8 C-0.32 8 -1.64 8 -3 8 C-3 7.01 -3 6.02 -3 5 C-2.01 5 -1.02 5 0 5 C0 3.35 0 1.7 0 0 Z " fill="#F0EFEF" transform="translate(413,359)"/>
<path d="M0 0 C0.66 1.32 1.32 2.64 2 4 C0.701 3.979 -0.599 3.959 -1.938 3.938 C-3.292 3.916 -4.648 3.929 -6 4 C-7.344 5.118 -7.344 5.118 -7.125 8 C-7.344 10.882 -7.344 10.882 -6 12 C-3.329 12.141 -0.676 12.042 2 12 C1 15 1 15 -1 16 C-4.503 16.381 -6.363 16.402 -9.375 14.5 C-11.657 10.989 -11.81 8.075 -11 4 C-8.122 -0.604 -5.144 -0.396 0 0 Z " fill="#EBEBEB" transform="translate(547,289)"/>
<path d="M0 0 C1.32 0 2.64 0 4 0 C4 1.65 4 3.3 4 5 C5.32 5 6.64 5 8 5 C8 5.99 8 6.98 8 8 C6.68 8 5.36 8 4 8 C4.33 12.62 4.66 17.24 5 22 C3.68 21.67 2.36 21.34 1 21 C1 16.71 1 12.42 1 8 C0.01 8 -0.98 8 -2 8 C-2 7.01 -2 6.02 -2 5 C-1.34 5 -0.68 5 0 5 C0 3.35 0 1.7 0 0 Z " fill="#E8E7E8" transform="translate(345,437)"/>
<path d="M0 0 C0.66 0 1.32 0 2 0 C2 4.62 2 9.24 2 14 C-0.31 14 -2.62 14 -5 14 C-7 12 -7 12 -7.25 9 C-7 6 -7 6 -5 4 C-2.375 3.875 -2.375 3.875 0 4 C0 2.68 0 1.36 0 0 Z " fill="#D2D1D2" transform="translate(759,524)"/>
<path d="M0 0 C0.66 0 1.32 0 2 0 C3.506 3.289 5.004 6.582 6.5 9.875 C6.929 10.812 7.359 11.749 7.801 12.715 C8.207 13.611 8.613 14.507 9.031 15.43 C9.408 16.257 9.785 17.085 10.174 17.937 C11 20 11 20 11 22 C9.199 21.801 9.199 21.801 7 21 C5.332 18.855 5.332 18.855 3.812 16.188 C3.303 15.315 2.794 14.442 2.27 13.543 C-0.037 8.923 -0.099 5.156 0 0 Z " fill="#E3E3E3" transform="translate(631,796)"/>
<path d="M0 0 C0 0.66 0 1.32 0 2 C-1.65 2.33 -3.3 2.66 -5 3 C-5 5.31 -5 7.62 -5 10 C-3.577 10.433 -3.577 10.433 -2.125 10.875 C1 12 1 12 3 14 C-4.992 14.615 -4.992 14.615 -8.562 12.438 C-10.54 9.085 -10.487 6.825 -10 3 C-7.767 -1.072 -4.212 -0.238 0 0 Z " fill="#F1F1F1" transform="translate(717,491)"/>
<path d="M0 0 C2 2 2 2 2.195 4.383 C2.172 5.288 2.149 6.193 2.125 7.125 C2.107 8.035 2.089 8.945 2.07 9.883 C2.047 10.581 2.024 11.28 2 12 C0.563 12.081 -0.874 12.139 -2.312 12.188 C-3.513 12.24 -3.513 12.24 -4.738 12.293 C-7 12 -7 12 -8.812 10.656 C-10 9 -10 9 -9.688 6.312 C-9.461 5.549 -9.234 4.786 -9 4 C-7.68 3.67 -6.36 3.34 -5 3 C-5 3.66 -5 4.32 -5 5 C-5.99 5 -6.98 5 -8 5 C-7.67 5.66 -7.34 6.32 -7 7 C-5.35 7 -3.7 7 -2 7 C-1.34 4.69 -0.68 2.38 0 0 Z " fill="#E4E3E3" transform="translate(715,316)"/>
<path d="M0 0 C0.66 0 1.32 0 2 0 C2 1.98 2 3.96 2 6 C2.99 5.34 3.98 4.68 5 4 C6.32 4 7.64 4 9 4 C9 5.65 9 7.3 9 9 C8.34 9 7.68 9 7 9 C7.66 10.32 8.32 11.64 9 13 C5.125 12.125 5.125 12.125 4 11 C3.67 11.66 3.34 12.32 3 13 C2.01 13 1.02 13 0 13 C0 8.71 0 4.42 0 0 Z " fill="#CECCCD" transform="translate(723,346)"/>
<path d="M0 0 C3 0.125 3 0.125 4 1.125 C4.188 4.562 4.188 4.562 4 8.125 C3.34 8.785 2.68 9.445 2 10.125 C-2.556 9.569 -2.556 9.569 -4 8.125 C-4.125 4.625 -4.125 4.625 -4 1.125 C-3 0.125 -3 0.125 0 0 Z " fill="#414042" transform="translate(332,367.875)"/>
<path d="M0 0 C0.99 0 1.98 0 3 0 C3 7.92 3 15.84 3 24 C2.01 24 1.02 24 0 24 C0 16.08 0 8.16 0 0 Z " fill="#F3F3F3" transform="translate(344,357)"/>
<path d="M0 0 C2.5 0.188 2.5 0.188 5 1 C7 4 7 4 6.75 6.062 C6 8 6 8 4 10 C-0.556 9.444 -0.556 9.444 -2 8 C-2.188 5.062 -2.188 5.062 -2 2 C-1.34 1.34 -0.68 0.68 0 0 Z " fill="#DEDEDF" transform="translate(734,528)"/>
<path d="M0 0 C2.438 0.188 2.438 0.188 3.438 1.188 C3.625 4.625 3.625 4.625 3.438 8.188 C2.778 8.848 2.117 9.507 1.438 10.188 C-3.118 9.632 -3.118 9.632 -4.562 8.188 C-4.75 5.25 -4.75 5.25 -4.562 2.188 C-2.562 0.188 -2.562 0.188 0 0 Z " fill="#484648" transform="translate(559.5625,291.8125)"/>
<path d="M0 0 C2.5 0.25 2.5 0.25 4.5 2.25 C4.75 4.75 4.75 4.75 4.5 7.25 C2.5 9.25 2.5 9.25 0 9.5 C-2.5 9.25 -2.5 9.25 -4.5 7.25 C-4.75 4.75 -4.75 4.75 -4.5 2.25 C-2.5 0.25 -2.5 0.25 0 0 Z " fill="#413F42" transform="translate(331.5,445.75)"/>
<path d="M0 0 C2.438 0.188 2.438 0.188 3.438 1.188 C3.625 4.625 3.625 4.625 3.438 8.188 C2.777 8.848 2.118 9.507 1.438 10.188 C-1.188 9.812 -1.188 9.812 -3.562 9.188 C-4.188 5.812 -4.188 5.812 -4.562 2.188 C-2.562 0.188 -2.562 0.188 0 0 Z " fill="#413E41" transform="translate(376.5625,367.8125)"/>
<path d="M0 0 C2.562 0.188 2.562 0.188 4.562 2.188 C4.188 5.812 4.188 5.812 3.562 9.188 C1.188 9.812 1.188 9.812 -1.438 10.188 C-3.438 8.188 -3.438 8.188 -3.625 4.625 C-3.387 0.261 -3.387 0.261 0 0 Z " fill="#403E3F" transform="translate(347.4375,291.8125)"/>
<path d="M0 0 C1.65 0 3.3 0 5 0 C4.67 2.31 4.34 4.62 4 7 C4.99 7 5.98 7 7 7 C7 7.66 7 8.32 7 9 C5.35 9 3.7 9 2 9 C1.67 9.66 1.34 10.32 1 11 C-1.25 11.25 -1.25 11.25 -4 11 C-4.639 10.319 -5.279 9.639 -5.938 8.938 C-6.618 8.298 -7.299 7.659 -8 7 C-11.2 7.143 -11.2 7.143 -14 8 C-14 7.34 -14 6.68 -14 6 C-11.36 5.67 -8.72 5.34 -6 5 C-5.01 6.32 -4.02 7.64 -3 9 C-2.01 8.67 -1.02 8.34 0 8 C1.219 5.496 1.219 5.496 2 3 C1.34 3 0.68 3 0 3 C0 2.01 0 1.02 0 0 Z " fill="#5E5A5C" transform="translate(395,465)"/>
<path d="M0 0 C3 0.125 3 0.125 4 1.125 C4.188 4.062 4.188 4.062 4 7.125 C3.34 7.785 2.68 8.445 2 9.125 C-2.556 8.569 -2.556 8.569 -4 7.125 C-4.125 4.125 -4.125 4.125 -4 1.125 C-3 0.125 -3 0.125 0 0 Z " fill="#434243" transform="translate(358,367.875)"/>
<path d="M0 0 C0.99 0.33 1.98 0.66 3 1 C2.708 7.315 1.667 12.727 -2 18 C-2.99 18.66 -3.98 19.32 -5 20 C-4.353 13.05 -2.14 6.618 0 0 Z " fill="#DFDFE0" transform="translate(752,789)"/>
<path d="M0 0 C0.784 0.041 1.567 0.082 2.375 0.125 C3.035 1.445 3.695 2.765 4.375 4.125 C3.375 5.125 3.375 5.125 0.312 5.188 C-0.657 5.167 -1.626 5.146 -2.625 5.125 C-2.625 5.785 -2.625 6.445 -2.625 7.125 C-0.645 7.125 1.335 7.125 3.375 7.125 C3.375 7.785 3.375 8.445 3.375 9.125 C0.5 9.25 0.5 9.25 -2.625 9.125 C-4.625 7.125 -4.625 7.125 -4.875 4.625 C-4.516 1.04 -3.595 0.171 0 0 Z " fill="#BFBDBE" transform="translate(752.625,349.875)"/>
<path d="M0 0 C3.96 0 7.92 0 12 0 C12 0.66 12 1.32 12 2 C11.01 2 10.02 2 9 2 C9.773 2.619 9.773 2.619 10.562 3.25 C11.037 3.827 11.511 4.405 12 5 C11.688 7.188 11.688 7.188 11 9 C9.35 8.67 7.7 8.34 6 8 C6.66 7.34 7.32 6.68 8 6 C7.34 4.68 6.68 3.36 6 2 C4.68 2 3.36 2 2 2 C1.67 3.32 1.34 4.64 1 6 C0.67 6 0.34 6 0 6 C0 4.02 0 2.04 0 0 Z " fill="#C2C0C0" transform="translate(734,350)"/>
<path d="M0 0 C0.99 0 1.98 0 3 0 C3 5.61 3 11.22 3 17 C2.01 17 1.02 17 0 17 C0 11.39 0 5.78 0 0 Z " fill="#F1F1F1" transform="translate(403,364)"/>
<path d="M0 0 C0.66 0 1.32 0 2 0 C2.33 1.65 2.66 3.3 3 5 C3.959 5.217 3.959 5.217 4.938 5.438 C7 6 7 6 8 7 C8.041 9.333 8.042 11.667 8 14 C7.34 14 6.68 14 6 14 C6 11.69 6 9.38 6 7 C4.68 7 3.36 7 2 7 C2 9.31 2 11.62 2 14 C1.34 14 0.68 14 0 14 C0 9.38 0 4.76 0 0 Z " fill="#E3E2E3" transform="translate(722,523)"/>
<path d="M0 0 C0.99 0 1.98 0 3 0 C3 5.28 3 10.56 3 16 C2.01 16 1.02 16 0 16 C0 10.72 0 5.44 0 0 Z " fill="#EAE9EA" transform="translate(359,289)"/>
<path d="M0 0 C1.207 0.031 1.207 0.031 2.438 0.062 C2.768 0.722 3.097 1.383 3.438 2.062 C2.117 2.062 0.798 2.062 -0.562 2.062 C-0.562 2.722 -0.562 3.383 -0.562 4.062 C0.758 4.393 2.077 4.722 3.438 5.062 C3.438 6.383 3.438 7.702 3.438 9.062 C-1.312 10.188 -1.312 10.188 -3.562 9.062 C-3.562 8.403 -3.562 7.742 -3.562 7.062 C-0.592 7.558 -0.592 7.558 2.438 8.062 C2.438 7.403 2.438 6.742 2.438 6.062 C0.788 5.732 -0.862 5.403 -2.562 5.062 C-3.125 3.125 -3.125 3.125 -3.562 1.062 C-2.562 0.062 -2.562 0.062 0 0 Z " fill="#D9D8D9" transform="translate(716.5625,527.9375)"/>
<path d="M0 0 C0.33 0 0.66 0 1 0 C1 1.65 1 3.3 1 5 C-5.303 9 -5.303 9 -8.312 9 C-10 8 -10 8 -12 4 C-8.04 4 -4.08 4 0 4 C0 2.68 0 1.36 0 0 Z " fill="#575458" transform="translate(398,294)"/>
<path d="M0 0 C0.701 0.742 1.403 1.485 2.125 2.25 C4.223 4.257 5.93 5.711 8.312 7.25 C9.199 7.827 10.086 8.405 11 9 C11 9.33 11 9.66 11 10 C8.36 10 5.72 10 3 10 C0.966 6.27 0 4.331 0 0 Z " fill="#E3E3E4" transform="translate(532,1014)"/>
<path d="M0 0 C1.98 0.495 1.98 0.495 4 1 C3.67 4.63 3.34 8.26 3 12 C2.01 11.67 1.02 11.34 0 11 C-0.194 9.355 -0.38 7.709 -0.562 6.062 C-0.667 5.146 -0.771 4.229 -0.879 3.285 C-0.919 2.531 -0.959 1.777 -1 1 C-0.67 0.67 -0.34 0.34 0 0 Z " fill="#CCCCCD" transform="translate(759,347)"/>
<path d="M0 0 C0.66 0 1.32 0 2 0 C2.33 1.98 2.66 3.96 3 6 C3.66 6 4.32 6 5 6 C5.33 4.02 5.66 2.04 6 0 C6.66 0 7.32 0 8 0 C8 2.97 8 5.94 8 9 C6.02 9 4.04 9 2 9 C0.502 5.629 0 3.796 0 0 Z " fill="#E2E2E3" transform="translate(742,529)"/>
<path d="M0 0 C0.66 0 1.32 0 2 0 C2.103 6.417 1.745 12.627 1 19 C0.67 19 0.34 19 0 19 C-0.33 16.36 -0.66 13.72 -1 11 C-1.33 11 -1.66 11 -2 11 C-1.125 3.375 -1.125 3.375 0 0 Z " fill="#6D6A6E" transform="translate(383,506)"/>
<path d="M0 0 C2 2 2 2 2 6 C2.99 6 3.98 6 5 6 C5 6.66 5 7.32 5 8 C3.68 8 2.36 8 1 8 C1 8.66 1 9.32 1 10 C0.01 10 -0.98 10 -2 10 C-2.179 6.053 -2.094 3.402 0 0 Z " fill="#D2D1D2" transform="translate(756,320)"/>
<path d="M0 0 C0.66 0 1.32 0 2 0 C2 4.29 2 8.58 2 13 C0.35 13 -1.3 13 -3 13 C-2.34 12.34 -1.68 11.68 -1 11 C-1.165 10.072 -1.33 9.144 -1.5 8.188 C-2.052 4.67 -1.565 3.13 0 0 Z " fill="#F9F9FA" transform="translate(759,524)"/>
<path d="M0 0 C0.33 0 0.66 0 1 0 C1 4.62 1 9.24 1 14 C0.01 12.68 -0.98 11.36 -2 10 C-2.99 9.67 -3.98 9.34 -5 9 C-5 8.34 -5 7.68 -5 7 C-3.68 6.67 -2.36 6.34 -1 6 C-0.67 4.02 -0.34 2.04 0 0 Z " fill="#585557" transform="translate(721,523)"/>
<path d="M0 0 C0.99 0 1.98 0 3 0 C2.328 3.806 1.273 7.352 0 11 C-0.33 11 -0.66 11 -1 11 C-1.222 9.544 -1.427 8.085 -1.625 6.625 C-1.741 5.813 -1.857 5.001 -1.977 4.164 C-1.984 3.45 -1.992 2.736 -2 2 C-1.34 1.34 -0.68 0.68 0 0 Z " fill="#5D5B60" transform="translate(290,284)"/>
<path d="M0 0 C1.675 0.286 3.344 0.618 5 1 C5 2.32 5 3.64 5 5 C3.35 5 1.7 5 0 5 C-0.562 3.062 -0.562 3.062 -1 1 C-0.67 0.67 -0.34 0.34 0 0 Z " fill="#34302F" transform="translate(296,354)"/>
<path d="M0 0 C1.98 0 3.96 0 6 0 C6.66 1.32 7.32 2.64 8 4 C5.03 3.67 2.06 3.34 -1 3 C-0.67 2.01 -0.34 1.02 0 0 Z " fill="#DEDDDD" transform="translate(372,289)"/>
<path d="M0 0 C1.98 0.495 1.98 0.495 4 1 C3.67 2.65 3.34 4.3 3 6 C1.68 5.67 0.36 5.34 -1 5 C-0.67 3.35 -0.34 1.7 0 0 Z " fill="#434141" transform="translate(755,530)"/>
<path d="M0 0 C0.66 0 1.32 0 2 0 C2 2.97 2 5.94 2 9 C1.01 9 0.02 9 -1 9 C-1.098 2.848 -1.098 2.848 -1 1 C-0.67 0.67 -0.34 0.34 0 0 Z " fill="#4F4C56" transform="translate(300,283)"/>
<path d="M0 0 C1.161 2.85 1.066 3.839 -0.125 6.75 C-2 9 -2 9 -4.688 9.312 C-5.451 9.209 -6.214 9.106 -7 9 C-6.578 8.518 -6.157 8.036 -5.723 7.539 C-5.175 6.907 -4.627 6.276 -4.062 5.625 C-3.517 4.999 -2.972 4.372 -2.41 3.727 C-0.93 2.044 -0.93 2.044 0 0 Z " fill="#E1E0DF" transform="translate(328,1015)"/>
<path d="M0 0 C0 0.99 0 1.98 0 3 C-2.31 3 -4.62 3 -7 3 C-7 2.01 -7 1.02 -7 0 C-4.333 -1.333 -2.833 -0.671 0 0 Z " fill="#615D5D" transform="translate(394,292)"/>
<path d="M0 0 C2.622 1.049 3.794 1.649 5.25 4.125 C5.498 4.744 5.745 5.362 6 6 C4.68 6.33 3.36 6.66 2 7 C0.539 4.353 0 3.106 0 0 Z " fill="#E3E3E4" transform="translate(394,525)"/>
<path d="M0 0 C1.439 0.087 2.876 0.196 4.312 0.312 C5.113 0.371 5.914 0.429 6.738 0.488 C9.363 1.082 10.308 1.958 12 4 C10.375 3.859 8.75 3.712 7.125 3.562 C6.22 3.481 5.315 3.4 4.383 3.316 C2 3 2 3 0 2 C0 1.34 0 0.68 0 0 Z " fill="#CFCED0" transform="translate(406,465)"/>
<path d="M0 0 C1.65 0 3.3 0 5 0 C5 1.65 5 3.3 5 5 C3.35 4.67 1.7 4.34 0 4 C0 2.68 0 1.36 0 0 Z " fill="#494748" transform="translate(297,434)"/>
<path d="M0 0 C2 1 4 2 6 3 C5.67 4.32 5.34 5.64 5 7 C3.35 6.67 1.7 6.34 0 6 C0.66 5.34 1.32 4.68 2 4 C1.34 2.68 0.68 1.36 0 0 Z " fill="#E5E4E5" transform="translate(740,352)"/>
<path d="M0 0 C1.32 0 2.64 0 4 0 C4 1.65 4 3.3 4 5 C2.35 4.67 0.7 4.34 -1 4 C-0.67 2.68 -0.34 1.36 0 0 Z " fill="#3B383A" transform="translate(715,352)"/>
<path d="M0 0 C0.99 0.33 1.98 0.66 3 1 C2.794 1.598 2.587 2.196 2.375 2.812 C1.693 5.285 1.693 5.285 4 8 C3.01 8 2.02 8 1 8 C0.67 9.32 0.34 10.64 0 12 C0 8.04 0 4.08 0 0 Z " fill="#FBFBFB" transform="translate(713,351)"/>
<path d="M0 0 C0.66 0.66 1.32 1.32 2 2 C1.67 2.66 1.34 3.32 1 4 C2.98 4 4.96 4 7 4 C7 4.66 7 5.32 7 6 C4.125 6.125 4.125 6.125 1 6 C0.34 5.34 -0.32 4.68 -1 4 C-0.625 1.875 -0.625 1.875 0 0 Z " fill="#EAE9EA" transform="translate(749,353)"/>
<path d="M0 0 C0.99 0.33 1.98 0.66 3 1 C2.67 2.65 2.34 4.3 2 6 C1.01 5.67 0.02 5.34 -1 5 C-0.67 3.35 -0.34 1.7 0 0 Z " fill="#343133" transform="translate(735,530)"/>
<path d="M0 0 C0.66 0 1.32 0 2 0 C2 2.64 2 5.28 2 8 C0.68 7.67 -0.64 7.34 -2 7 C-1.34 4.69 -0.68 2.38 0 0 Z " fill="#EBEBEB" transform="translate(748,529)"/>
<path d="M0 0 C2.375 0.312 2.375 0.312 5 1 C5.66 1.99 6.32 2.98 7 4 C6.67 4.99 6.34 5.98 6 7 C4 6 4 6 3 3 C1.5 1.333 1.5 1.333 0 0 Z " fill="#D3D3D3" transform="translate(734,528)"/>
</svg>