<svg version="1.1" xmlns="http://www.w3.org/2000/svg" width="1024" height="1024">
<path d="M0 0 C337.92 0 675.84 0 1024 0 C1024 337.92 1024 675.84 1024 1024 C686.08 1024 348.16 1024 0 1024 C0 686.08 0 348.16 0 0 Z " fill="#F9F9F9" transform="translate(0,0)"/>
<path d="M0 0 C1.467 1.151 2.905 2.339 4.312 3.562 C5.147 4.274 5.981 4.986 6.84 5.719 C9.381 7.951 11.851 10.243 14.312 12.562 C15.002 13.176 15.692 13.79 16.402 14.422 C28.184 25.34 35.55 40.701 39.312 56.125 C39.561 57.134 39.81 58.143 40.066 59.182 C46.322 85.854 49.571 114.093 51.008 141.398 C51.613 150.826 53.039 160.207 54.312 169.562 C54.439 170.498 54.566 171.434 54.696 172.398 C55.058 175.038 55.432 177.675 55.812 180.312 C55.972 181.453 55.972 181.453 56.134 182.616 C56.938 188.008 58.194 193.219 59.55 198.496 C60.76 203.361 61.725 208.269 62.688 213.188 C63.002 214.785 63.002 214.785 63.323 216.414 C63.765 218.656 64.204 220.898 64.642 223.141 C65.313 226.563 65.994 229.983 66.676 233.402 C68.805 244.169 70.806 254.862 71.953 265.781 C72.151 268.514 72.151 268.514 73.312 270.562 C73.574 274.892 73.584 279.225 73.608 283.561 C73.619 284.997 73.639 286.433 73.669 287.869 C74.08 307.586 68.502 325.831 56.312 341.562 C55.439 342.792 55.439 342.792 54.547 344.047 C41.683 361.45 20.501 371.331 -0.438 374.812 C-28.107 378.248 -55.802 372.959 -78.176 355.668 C-95.48 341.163 -105.313 323.723 -108.688 301.562 C-108.873 300.418 -109.059 299.273 -109.25 298.094 C-111.638 278.817 -108.516 258.79 -106.688 239.562 C-128.062 248.86 -128.062 248.86 -141.588 266.845 C-142.383 269.344 -143.08 271.849 -143.738 274.387 C-143.99 275.335 -144.241 276.282 -144.5 277.259 C-147.518 289.148 -149.183 301.241 -150.875 313.375 C-151.206 315.665 -151.539 317.955 -151.873 320.244 C-153.76 333.304 -155.442 346.381 -156.97 359.487 C-157.84 366.85 -158.768 374.206 -159.688 381.562 C-159.688 398.062 -159.688 414.562 -159.688 431.562 C-282.778 431.562 -405.868 431.562 -532.688 431.562 C-533.018 417.702 -533.347 403.842 -533.688 389.562 C-536.546 369.22 -540 349.288 -545.688 329.562 C-546.027 328.385 -546.366 327.208 -546.716 325.996 C-554.891 294.782 -554.891 294.782 -577.062 273.375 C-578.656 272.42 -580.249 271.463 -581.84 270.504 C-582.644 270.019 -583.448 269.535 -584.277 269.036 C-588.104 266.697 -591.866 264.259 -595.625 261.812 C-596.681 261.131 -596.681 261.131 -597.759 260.436 C-600.872 258.423 -603.958 256.389 -606.984 254.246 C-607.938 253.587 -608.892 252.929 -609.875 252.25 C-610.673 251.676 -611.471 251.103 -612.293 250.512 C-615.754 249.14 -617.29 250.125 -620.688 251.562 C-622.069 252.098 -623.453 252.626 -624.84 253.148 C-625.604 253.438 -626.367 253.727 -627.154 254.025 C-655.803 264.603 -690.067 267.798 -718.828 255.957 C-722.831 254.005 -726.566 251.772 -729.688 248.562 C-730.183 247.077 -730.183 247.077 -730.688 245.562 C-730.357 244.902 -730.028 244.243 -729.688 243.562 C-726.259 244.155 -723.31 245.047 -720.125 246.438 C-708.171 251.337 -696.239 252.75 -683.438 252.688 C-682.413 252.683 -681.388 252.678 -680.332 252.673 C-669.854 252.59 -660.254 251.934 -650.104 249.207 C-646.396 248.213 -642.716 247.354 -638.934 246.691 C-623.23 243.907 -612.056 238.116 -600.688 226.562 C-600.065 225.939 -599.442 225.315 -598.801 224.672 C-577.497 201.884 -575.632 173.239 -576.429 143.8 C-577.303 117.909 -586.128 95.259 -600.367 73.777 C-601.688 71.562 -601.688 71.562 -601.688 69.562 C-598.596 69.562 -596.428 69.948 -594.012 71.953 C-581.232 85.937 -573.83 103.698 -571.195 122.246 C-570.881 125.431 -570.881 125.431 -569.688 127.562 C-569.531 130.259 -569.429 132.934 -569.371 135.633 C-569.35 136.429 -569.33 137.225 -569.308 138.046 C-569.243 140.593 -569.184 143.14 -569.125 145.688 C-569.082 147.413 -569.038 149.138 -568.994 150.863 C-568.887 155.096 -568.786 159.329 -568.688 163.562 C-562.979 162.297 -562.979 162.297 -559.062 158.375 C-555.492 153.699 -550.571 151.587 -545.418 149.043 C-542.591 147.848 -542.591 147.848 -541.688 145.562 C-542.247 145.318 -542.806 145.073 -543.383 144.82 C-557.187 137.286 -565.332 122.33 -570.062 107.938 C-574.279 91.888 -572.022 75.601 -564.156 60.996 C-554.853 45.581 -541.665 33.739 -523.969 29.035 C-523.216 28.879 -522.463 28.723 -521.688 28.562 C-520.826 28.379 -519.965 28.196 -519.078 28.008 C-514.357 27.388 -509.694 27.378 -504.938 27.375 C-503.53 27.357 -503.53 27.357 -502.094 27.338 C-485.997 27.305 -472.734 32.852 -460.688 43.562 C-460.025 44.121 -459.362 44.679 -458.68 45.254 C-449.484 53.602 -442.855 65.353 -440.688 77.562 C-440.507 78.511 -440.327 79.46 -440.141 80.438 C-437.648 97.628 -440.987 114.189 -450.688 128.562 C-454.949 134.088 -459.758 138.922 -465.18 143.309 C-466.782 144.641 -468.234 146.07 -469.688 147.562 C-466.182 151.902 -462.605 155.665 -458.203 159.105 C-456.688 160.562 -456.688 160.562 -455.882 162.544 C-454.292 165.231 -453.032 165.461 -450.066 166.309 C-448.67 166.724 -448.67 166.724 -447.246 167.149 C-446.258 167.43 -445.269 167.711 -444.25 168 C-442.238 168.607 -440.228 169.219 -438.219 169.836 C-437.257 170.131 -436.295 170.426 -435.305 170.729 C-422.028 174.955 -415.33 180.495 -408.973 192.734 C-407.688 195.562 -407.688 195.562 -407.688 197.562 C-405.707 197.232 -403.728 196.903 -401.688 196.562 C-401.378 194.644 -401.378 194.644 -401.062 192.688 C-399.019 183.537 -392.923 174.289 -385.262 168.836 C-381.078 166.22 -377.609 164.317 -372.688 163.562 C-373.85 156.236 -376.207 151.436 -380.688 145.562 C-381.262 144.649 -381.837 143.735 -382.43 142.793 C-384.564 140.207 -384.564 140.207 -388.078 140.285 C-389.989 140.453 -389.989 140.453 -391.938 140.625 C-396.615 140.85 -400.283 140.945 -404.188 138.062 C-405.988 136.387 -405.988 136.387 -407.688 134.562 C-408.606 133.675 -408.606 133.675 -409.543 132.77 C-414.439 127.707 -417.098 122.05 -419.688 115.562 C-420.055 114.73 -420.422 113.897 -420.801 113.039 C-422.784 107.499 -422.46 102.223 -420 96.938 C-417.688 94.562 -417.688 94.562 -415.043 94.414 C-413.877 94.488 -413.877 94.488 -412.688 94.562 C-413.242 93.475 -413.796 92.387 -414.367 91.266 C-421.566 76.811 -425.868 61.477 -421.562 45.25 C-417.83 34.831 -411.276 25.545 -401.125 20.562 C-397.052 19.378 -393.909 19.34 -389.688 19.562 C-392.764 22.845 -395.925 25.469 -399.562 28.125 C-405.97 33.144 -410.12 39.861 -412.688 47.562 C-414.009 63.362 -413.336 77.893 -404.688 91.562 C-404.832 90.926 -404.976 90.289 -405.125 89.633 C-406.664 81.576 -406.97 73.625 -407.062 65.438 C-407.088 64.342 -407.114 63.246 -407.141 62.118 C-407.17 49.899 -402.94 38.536 -394.723 29.371 C-385.331 20.421 -374.965 16.275 -362.164 16.328 C-357.948 16.612 -355.321 17.486 -351.688 19.562 C-362.554 12.771 -374.6 11.788 -387.125 14.562 C-388.301 14.893 -389.476 15.222 -390.688 15.562 C-390.688 14.903 -390.688 14.242 -390.688 13.562 C-381.56 8.531 -373.683 7.127 -363.438 9.312 C-356.849 11.509 -351.058 13.923 -346.688 19.562 C-347.283 23.766 -349.516 27.394 -351.438 31.125 C-354.693 37.532 -357.789 43.985 -360.688 50.562 C-355.277 48.178 -354.032 44.764 -352 39.562 C-351.415 38.124 -350.828 36.686 -350.238 35.25 C-349.987 34.614 -349.736 33.979 -349.478 33.324 C-348.688 31.562 -348.688 31.562 -346.688 28.562 C-346.027 28.562 -345.368 28.562 -344.688 28.562 C-344.74 30.225 -344.74 30.225 -344.793 31.922 C-344.821 33.385 -344.848 34.849 -344.875 36.312 C-344.9 37.042 -344.925 37.772 -344.951 38.523 C-345.017 43.35 -344.726 44.511 -341.688 48.562 C-342.017 43.942 -342.348 39.322 -342.688 34.562 C-340.707 37.038 -340.707 37.038 -338.688 39.562 C-333.383 45.275 -329.532 47.793 -321.688 48.562 C-321.688 47.903 -321.688 47.242 -321.688 46.562 C-322.389 46.501 -323.09 46.439 -323.812 46.375 C-328.433 45.069 -331.418 42.512 -333.992 38.559 C-335.059 36.561 -336.03 34.731 -336.688 32.562 C-336.358 31.572 -336.027 30.582 -335.688 29.562 C-334.172 30.274 -334.172 30.274 -332.625 31 C-329.028 32.556 -325.595 33.164 -321.688 33.562 C-321.688 32.903 -321.688 32.242 -321.688 31.562 C-323.668 30.903 -325.648 30.242 -327.688 29.562 C-327.688 29.232 -327.688 28.903 -327.688 28.562 C-321.418 28.562 -315.148 28.562 -308.688 28.562 C-308.688 27.903 -308.688 27.242 -308.688 26.562 C-311.781 25.673 -314.642 25.39 -317.855 25.281 C-318.831 25.244 -319.806 25.206 -320.811 25.168 C-322.865 25.097 -324.92 25.027 -326.975 24.957 C-327.946 24.92 -328.917 24.882 -329.918 24.844 C-330.809 24.813 -331.7 24.783 -332.618 24.752 C-334.688 24.562 -334.688 24.562 -335.688 23.562 C-336.023 20.156 -336.043 18.168 -334.289 15.184 C-327.933 8.162 -320.498 2.972 -310.809 2.289 C-301.687 2.008 -294.342 1.993 -286.688 7.562 C-285.997 8.024 -285.306 8.485 -284.594 8.961 C-274.595 16.537 -270.013 28.679 -267.688 40.562 C-267.337 41.699 -266.986 42.836 -266.625 44.008 C-265.044 50.239 -265.478 56.682 -265.562 63.062 C-265.572 64.362 -265.581 65.661 -265.59 67 C-265.613 70.188 -265.646 73.375 -265.688 76.562 C-264.368 76.562 -263.048 76.562 -261.688 76.562 C-261.584 75.692 -261.481 74.822 -261.375 73.926 C-259.136 62.973 -250.656 53.51 -241.551 47.488 C-231.327 41.408 -231.327 41.408 -225 41.5 C-223.788 41.514 -223.788 41.514 -222.551 41.527 C-221.936 41.539 -221.321 41.551 -220.688 41.562 C-223.624 44.819 -226.328 46.525 -230.312 48.312 C-242.9 54.453 -252.011 63.647 -257.688 76.562 C-257.145 78.899 -257.145 78.899 -255.688 80.562 C-255.027 80.893 -254.368 81.222 -253.688 81.562 C-253.252 80.705 -252.816 79.848 -252.367 78.965 C-244.892 64.613 -235.257 54.359 -219.688 48.562 C-218.682 48.167 -218.682 48.167 -217.656 47.763 C-211.856 45.624 -206.658 45.053 -200.5 45.125 C-199.582 45.133 -198.663 45.14 -197.717 45.148 C-184.127 45.474 -172 50.021 -160.688 57.562 C-174.804 46.774 -190.389 43.533 -207.733 42.903 C-208.571 42.872 -209.41 42.841 -210.273 42.809 C-211.027 42.785 -211.78 42.761 -212.556 42.736 C-214.696 42.562 -216.624 42.143 -218.688 41.562 C-218.688 40.903 -218.688 40.242 -218.688 39.562 C-199.131 34.832 -180.879 37.202 -163.688 47.562 C-160.705 49.665 -158.191 51.916 -155.688 54.562 C-155.111 55.108 -154.535 55.653 -153.941 56.215 C-147.725 62.542 -144.359 70.613 -140.688 78.562 C-140.2 79.576 -139.713 80.589 -139.211 81.633 C-132.729 95.908 -131.317 109.835 -131.312 125.312 C-131.311 126.011 -131.309 126.71 -131.307 127.43 C-131.312 144.502 -133.663 159.373 -141.688 174.562 C-140.29 174.909 -140.29 174.909 -138.863 175.262 C-134.787 176.305 -130.734 177.411 -126.688 178.562 C-125.485 178.902 -124.282 179.241 -123.043 179.59 C-114.79 182.289 -110.628 185.803 -106.688 193.562 C-106.028 195.212 -105.367 196.862 -104.688 198.562 C-104.688 188.003 -104.688 177.442 -104.688 166.562 C-100.913 169.079 -100.956 170.261 -100.023 174.609 C-98.385 183.036 -98.23 191.252 -98.312 199.812 C-98.315 200.62 -98.318 201.427 -98.321 202.258 C-98.374 216.47 -99.276 230.569 -100.399 244.732 C-101.311 256.271 -101.988 267.735 -102 279.312 C-102.008 281.04 -102.008 281.04 -102.016 282.803 C-101.926 293.69 -101.06 304.667 -96.875 314.812 C-96.609 315.482 -96.344 316.152 -96.07 316.842 C-95.297 318.759 -94.5 320.662 -93.688 322.562 C-93.284 323.514 -92.881 324.465 -92.465 325.445 C-87.006 337.252 -77.406 348.703 -65.688 354.562 C-66.184 354.113 -66.68 353.663 -67.191 353.199 C-72.8 347.888 -76.85 342.248 -80.688 335.562 C-81.14 334.783 -81.592 334.003 -82.059 333.199 C-87.787 322.581 -90.807 311.451 -91.831 299.492 C-91.914 298.539 -91.997 297.586 -92.083 296.605 C-92.868 286.758 -92.874 276.951 -92.746 267.08 C-92.706 263.837 -92.682 260.595 -92.663 257.352 C-92.605 248.149 -92.528 238.946 -92.42 229.744 C-92.355 224.064 -92.315 218.385 -92.291 212.705 C-92.277 210.576 -92.254 208.447 -92.22 206.318 C-91.827 181.2 -97.291 159.828 -108.071 137.278 C-110.884 131.324 -113.18 125.209 -115.426 119.023 C-116.463 116.179 -117.544 113.365 -118.688 110.562 C-122.943 114.681 -123.837 116.568 -123.98 122.581 C-124.08 134.524 -121.894 143.782 -114.688 153.562 C-112.878 155.818 -112.878 155.818 -110.312 155.688 C-109.446 155.646 -108.58 155.605 -107.688 155.562 C-106.367 155.562 -105.048 155.562 -103.688 155.562 C-103.688 157.543 -103.688 159.523 -103.688 161.562 C-107.776 162.925 -111.416 163.185 -115.688 162.562 C-121.365 159.178 -123.859 154.41 -126.688 148.562 C-126.998 147.927 -127.309 147.291 -127.629 146.637 C-130.744 139.85 -130.918 133.083 -131 125.75 C-131.029 124.899 -131.058 124.047 -131.088 123.17 C-131.15 116.905 -129.922 111.971 -126.688 106.562 C-124.438 104.5 -124.438 104.5 -122.688 103.562 C-123.334 99.017 -125.137 95.179 -127.062 91.062 C-130.244 84.044 -132.34 77.172 -133.688 69.562 C-133.872 68.65 -134.056 67.737 -134.246 66.797 C-136.987 46.712 -134.005 25.125 -121.688 8.562 C-93.84 -24.594 -34.305 -23.013 0 0 Z " fill="#2C292A" transform="translate(894.6875,592.4375)"/>
<path d="M0 0 C1.689 -0.005 1.689 -0.005 3.411 -0.01 C7.186 -0.018 10.962 -0.012 14.737 -0.006 C17.469 -0.008 20.202 -0.013 22.935 -0.018 C28.878 -0.027 34.821 -0.028 40.764 -0.024 C49.601 -0.019 58.439 -0.025 67.276 -0.033 C83.977 -0.049 100.679 -0.05 117.38 -0.048 C130.274 -0.046 143.169 -0.048 156.063 -0.052 C157.915 -0.053 159.768 -0.053 161.62 -0.054 C164.411 -0.055 167.202 -0.056 169.993 -0.057 C195.943 -0.065 221.893 -0.069 247.843 -0.065 C249.311 -0.065 249.311 -0.065 250.808 -0.065 C255.766 -0.064 260.724 -0.063 265.682 -0.062 C266.667 -0.062 267.652 -0.062 268.666 -0.062 C270.658 -0.061 272.649 -0.061 274.64 -0.061 C305.637 -0.055 336.634 -0.063 367.63 -0.082 C402.45 -0.102 437.27 -0.113 472.09 -0.109 C475.801 -0.109 479.512 -0.108 483.223 -0.108 C484.137 -0.108 485.051 -0.108 485.992 -0.108 C499.797 -0.107 513.601 -0.113 527.406 -0.124 C543.1 -0.136 558.794 -0.137 574.488 -0.125 C583.274 -0.118 592.059 -0.12 600.845 -0.134 C606.711 -0.142 612.577 -0.139 618.443 -0.128 C621.787 -0.121 625.13 -0.122 628.474 -0.132 C632.076 -0.142 635.677 -0.133 639.278 -0.12 C640.317 -0.128 641.355 -0.135 642.425 -0.142 C650.248 -0.084 657.173 1.131 663.204 6.631 C668.719 13.158 670.314 20.18 670.204 28.501 C670.215 29.973 670.215 29.973 670.226 31.475 C670.243 34.738 670.225 38 670.207 41.262 C670.212 43.612 670.22 45.962 670.229 48.312 C670.247 54.675 670.235 61.038 670.215 67.402 C670.2 73.394 670.206 79.386 670.211 85.378 C670.22 97.251 670.203 109.125 670.173 120.999 C670.144 132.503 670.137 144.006 670.153 155.51 C670.169 168.058 670.173 180.605 670.156 193.152 C670.147 199.787 670.143 206.421 670.152 213.056 C670.16 219.294 670.147 225.532 670.12 231.77 C670.113 234.056 670.113 236.341 670.12 238.627 C670.129 241.754 670.113 244.881 670.091 248.008 C670.099 248.906 670.107 249.804 670.116 250.729 C670.017 258.349 667.778 264.637 663.826 271.129 C658.955 275.73 652.634 278.377 645.949 278.383 C644.991 278.387 644.033 278.39 643.046 278.393 C641.989 278.392 640.933 278.39 639.844 278.389 C638.72 278.391 637.596 278.393 636.438 278.396 C632.633 278.403 628.828 278.402 625.023 278.402 C622.283 278.404 619.544 278.409 616.804 278.413 C610.038 278.422 603.273 278.426 596.507 278.428 C588.407 278.431 580.306 278.44 572.206 278.449 C552.625 278.47 533.045 278.48 513.464 278.489 C504.204 278.493 494.945 278.498 485.685 278.504 C454 278.521 422.314 278.536 390.629 278.544 C388.639 278.544 386.649 278.545 384.659 278.545 C383.179 278.546 383.179 278.546 381.669 278.546 C376.67 278.547 371.67 278.548 366.671 278.55 C365.182 278.55 365.182 278.55 363.664 278.55 C331.486 278.558 299.309 278.582 267.131 278.614 C233.125 278.648 199.12 278.668 165.114 278.671 C161.382 278.672 157.651 278.672 153.919 278.673 C152.541 278.673 152.541 278.673 151.135 278.673 C136.335 278.676 121.535 278.691 106.734 278.712 C91.864 278.732 76.993 278.738 62.123 278.728 C53.284 278.723 44.445 278.729 35.606 278.751 C29.704 278.764 23.803 278.763 17.901 278.75 C14.536 278.743 11.173 278.745 7.808 278.76 C4.184 278.775 0.562 278.765 -3.062 278.749 C-4.107 278.76 -5.152 278.77 -6.229 278.78 C-13.64 278.71 -19.036 277.223 -24.666 272.29 C-25.205 271.639 -25.744 270.988 -26.299 270.317 C-26.853 269.669 -27.407 269.02 -27.978 268.352 C-31.761 262.862 -31.713 257.859 -31.691 251.406 C-31.696 250.407 -31.7 249.408 -31.705 248.378 C-31.718 245.027 -31.716 241.675 -31.714 238.324 C-31.72 235.922 -31.727 233.521 -31.735 231.119 C-31.751 225.27 -31.757 219.422 -31.758 213.573 C-31.759 208.817 -31.763 204.062 -31.769 199.307 C-31.787 185.819 -31.796 172.332 -31.795 158.844 C-31.795 158.117 -31.794 157.39 -31.794 156.641 C-31.794 155.914 -31.794 155.186 -31.794 154.436 C-31.793 142.644 -31.812 130.851 -31.841 119.059 C-31.869 106.945 -31.883 94.831 -31.881 82.717 C-31.881 75.918 -31.886 69.119 -31.908 62.32 C-31.928 55.926 -31.927 49.531 -31.913 43.136 C-31.911 40.79 -31.915 38.444 -31.928 36.098 C-31.943 32.893 -31.934 29.689 -31.918 26.484 C-31.929 25.557 -31.939 24.631 -31.949 23.676 C-31.876 16.761 -30.131 11.666 -25.818 6.231 C-25.035 5.562 -25.035 5.562 -24.236 4.879 C-23.727 4.418 -23.218 3.957 -22.693 3.481 C-15.768 -0.262 -7.664 -0.033 0 0 Z " fill="#FDFDFD" transform="translate(240.42378330230713,236.7455244064331)"/>
<path d="M0 0 C1.203 -0.006 2.407 -0.012 3.646 -0.018 C4.991 -0.015 6.336 -0.011 7.681 -0.008 C9.108 -0.011 10.535 -0.015 11.962 -0.02 C15.911 -0.031 19.859 -0.03 23.808 -0.026 C28.093 -0.025 32.379 -0.035 36.664 -0.044 C45.176 -0.059 53.688 -0.063 62.2 -0.064 C72.391 -0.066 82.581 -0.079 92.772 -0.093 C117.404 -0.125 142.037 -0.137 166.67 -0.146 C178.317 -0.151 189.964 -0.158 201.611 -0.166 C241.461 -0.192 281.311 -0.213 321.161 -0.22 C323.664 -0.22 326.166 -0.221 328.669 -0.221 C331.178 -0.222 333.686 -0.222 336.195 -0.222 C341.228 -0.223 346.261 -0.224 351.295 -0.225 C352.542 -0.225 353.79 -0.226 355.076 -0.226 C395.555 -0.233 436.033 -0.265 476.512 -0.312 C519.283 -0.361 562.055 -0.388 604.827 -0.391 C609.519 -0.391 614.211 -0.391 618.904 -0.392 C620.059 -0.392 621.214 -0.392 622.405 -0.392 C641.025 -0.394 659.645 -0.417 678.265 -0.446 C696.969 -0.474 715.673 -0.481 734.377 -0.465 C745.498 -0.456 756.619 -0.464 767.739 -0.495 C775.161 -0.515 782.583 -0.512 790.004 -0.492 C794.238 -0.482 798.47 -0.48 802.704 -0.505 C806.553 -0.528 810.402 -0.523 814.251 -0.496 C815.637 -0.491 817.022 -0.496 818.408 -0.513 C829.972 -0.641 829.972 -0.641 834.59 2.866 C837.647 6.107 838.149 8.749 838.145 13.227 C838.154 13.907 838.163 14.588 838.172 15.29 C838.193 17.57 838.165 19.848 838.137 22.129 C838.142 23.78 838.15 25.432 838.162 27.083 C838.183 31.621 838.161 36.158 838.131 40.696 C838.107 45.589 838.124 50.483 838.135 55.377 C838.151 64.963 838.129 74.549 838.095 84.135 C838.057 95.294 838.055 106.453 838.056 117.611 C838.055 137.518 838.021 157.425 837.968 177.332 C837.916 196.658 837.888 215.983 837.886 235.309 C837.886 237.095 837.886 237.095 837.885 238.917 C837.885 240.105 837.885 241.293 837.885 242.517 C837.885 244.91 837.884 247.302 837.884 249.695 C837.884 251.465 837.884 251.465 837.884 253.27 C837.88 271.675 837.855 290.08 837.827 308.485 C837.818 315.16 837.811 321.835 837.808 328.511 C837.802 339.098 837.787 349.685 837.752 360.273 C837.736 365.112 837.725 369.951 837.727 374.79 C837.728 379.217 837.716 383.644 837.692 388.07 C837.686 389.675 837.685 391.279 837.689 392.883 C837.695 395.059 837.682 397.234 837.664 399.41 C837.66 401.225 837.66 401.225 837.656 403.076 C837.234 406.595 836.402 408.446 834.275 411.255 C830.648 413.673 827.945 413.571 823.749 413.593 C822.985 413.605 822.22 413.617 821.432 413.628 C818.899 413.663 816.367 413.681 813.834 413.697 C812.966 413.704 812.099 413.711 811.205 413.718 C806.61 413.753 802.014 413.777 797.418 413.791 C792.689 413.807 787.962 413.866 783.233 413.934 C779.582 413.979 775.932 413.992 772.282 413.997 C770.54 414.005 768.798 414.025 767.056 414.057 C756.372 414.239 749.519 413.798 741.275 406.255 C715.959 391.211 681.329 386.319 652.716 393.224 C640.944 396.752 627.651 401.604 619.522 411.358 C616.469 413.936 614.574 413.756 610.608 413.757 C609.939 413.762 609.271 413.768 608.581 413.773 C606.341 413.787 604.102 413.772 601.861 413.757 C600.255 413.761 598.648 413.766 597.042 413.773 C592.678 413.787 588.314 413.776 583.951 413.76 C579.384 413.746 574.817 413.752 570.25 413.756 C562.578 413.759 554.906 413.745 547.234 413.722 C538.369 413.695 529.503 413.693 520.637 413.705 C512.107 413.716 503.577 413.71 495.046 413.696 C491.417 413.69 487.788 413.69 484.159 413.695 C479.883 413.7 475.607 413.689 471.33 413.668 C469.762 413.662 468.194 413.662 466.626 413.667 C464.482 413.673 462.339 413.66 460.196 413.643 C458.997 413.641 457.798 413.638 456.563 413.636 C452.887 413.21 450.488 412.043 447.275 410.255 C438.616 407.991 430.886 408.913 422.685 412.283 C420.551 413.144 418.518 413.761 416.275 414.255 C416.605 413.265 416.935 412.275 417.275 411.255 C416.491 411.75 415.708 412.245 414.9 412.755 C410.084 414.748 406.465 414.466 401.275 414.255 C401.275 417.885 401.275 421.515 401.275 425.255 C397.878 420.726 397.891 419.414 397.963 413.943 C397.966 412.668 397.97 411.393 397.974 410.08 C398.285 406.133 399.059 403 400.275 399.255 C397.83 399.444 397.83 399.444 395.275 400.255 C392.253 404.794 392.769 410.023 393.275 415.255 C394.098 418.023 395.176 420.579 396.275 423.255 C395.945 424.245 395.615 425.235 395.275 426.255 C394.828 425.845 394.38 425.435 393.92 425.013 C393.315 424.474 392.71 423.935 392.088 423.38 C391.496 422.847 390.904 422.313 390.295 421.763 C384.692 417.581 378.989 417.702 372.275 418.255 C364.424 419.535 357.999 422.064 351.275 426.255 C350.615 426.585 349.955 426.915 349.275 427.255 C351.419 421.497 357.054 419.773 362.275 417.255 C366.479 415.51 369.73 415.039 374.275 415.255 C374.275 414.595 374.275 413.935 374.275 413.255 C373.473 413.257 372.671 413.258 371.844 413.26 C324.33 413.349 276.815 413.418 229.301 413.46 C223.599 413.465 217.898 413.47 212.196 413.475 C210.493 413.477 210.493 413.477 208.756 413.478 C190.362 413.496 171.969 413.527 153.575 413.564 C134.709 413.601 115.844 413.624 96.978 413.632 C85.331 413.637 73.685 413.655 62.038 413.687 C54.058 413.708 46.078 413.715 38.098 413.709 C33.49 413.707 28.882 413.711 24.274 413.732 C20.057 413.752 15.842 413.753 11.625 413.739 C10.098 413.737 8.57 413.742 7.042 413.755 C4.969 413.771 2.898 413.762 0.825 413.747 C-0.328 413.749 -1.48 413.751 -2.667 413.752 C-6.414 413.143 -8.03 411.879 -10.725 409.255 C-13.14 405.632 -12.977 403.982 -12.982 399.669 C-12.986 398.993 -12.989 398.318 -12.993 397.621 C-13.002 395.341 -12.997 393.061 -12.992 390.781 C-12.996 389.136 -13.001 387.491 -13.006 385.846 C-13.018 381.313 -13.018 376.781 -13.016 372.248 C-13.015 367.364 -13.026 362.481 -13.036 357.597 C-13.053 348.025 -13.058 338.452 -13.059 328.88 C-13.06 321.101 -13.064 313.323 -13.071 305.545 C-13.088 283.508 -13.097 261.472 -13.096 239.435 C-13.096 238.246 -13.096 237.057 -13.096 235.832 C-13.096 234.642 -13.095 233.452 -13.095 232.226 C-13.095 212.93 -13.114 193.634 -13.142 174.338 C-13.171 154.541 -13.184 134.745 -13.183 114.948 C-13.182 103.827 -13.188 92.706 -13.209 81.585 C-13.227 72.118 -13.232 62.65 -13.218 53.183 C-13.211 48.35 -13.211 43.517 -13.229 38.684 C-13.244 34.262 -13.242 29.841 -13.224 25.419 C-13.221 23.817 -13.225 22.215 -13.236 20.613 C-13.25 18.439 -13.239 16.267 -13.223 14.093 C-13.223 12.885 -13.224 11.676 -13.224 10.431 C-12.623 6.604 -11.414 4.996 -8.725 2.255 C-5.287 -0.037 -4.045 0.004 0 0 Z M63.463 63.88 C62.94 64.326 62.418 64.772 61.88 65.232 C56.813 71.618 55.69 77.454 55.767 85.465 C55.761 86.466 55.755 87.468 55.748 88.5 C55.732 91.842 55.745 95.184 55.757 98.527 C55.752 100.929 55.745 103.331 55.736 105.733 C55.72 111.571 55.722 117.409 55.734 123.248 C55.743 127.994 55.744 132.741 55.74 137.487 C55.739 138.164 55.739 138.841 55.738 139.538 C55.737 140.912 55.735 142.287 55.734 143.661 C55.723 156.539 55.736 169.417 55.757 182.295 C55.775 193.335 55.772 204.376 55.754 215.416 C55.732 228.249 55.724 241.082 55.736 253.915 C55.737 255.284 55.738 256.654 55.74 258.023 C55.74 258.697 55.741 259.371 55.742 260.065 C55.745 264.804 55.739 269.542 55.73 274.281 C55.718 280.664 55.726 287.046 55.749 293.428 C55.755 295.77 55.753 298.111 55.744 300.452 C55.733 303.651 55.747 306.848 55.767 310.046 C55.758 310.97 55.749 311.895 55.74 312.848 C55.825 319.886 57.565 325.163 62.24 330.497 C63.216 331.306 63.216 331.306 64.213 332.13 C64.861 332.685 65.509 333.239 66.177 333.81 C70.021 336.458 73.504 337.505 78.15 337.508 C79.593 337.517 79.593 337.517 81.065 337.525 C82.116 337.521 83.168 337.517 84.251 337.513 C85.939 337.518 85.939 337.518 87.662 337.523 C91.462 337.533 95.262 337.528 99.062 337.523 C101.803 337.525 104.543 337.531 107.284 337.536 C113.258 337.547 119.231 337.55 125.205 337.548 C134.087 337.544 142.97 337.553 151.853 337.563 C168.64 337.583 185.426 337.588 202.213 337.589 C215.176 337.59 228.138 337.594 241.1 337.601 C244.829 337.603 248.558 337.604 252.286 337.606 C253.213 337.607 254.14 337.607 255.095 337.607 C281.175 337.62 307.255 337.628 333.335 337.627 C334.811 337.627 334.811 337.627 336.316 337.627 C341.302 337.627 346.287 337.626 351.273 337.626 C352.263 337.626 353.253 337.626 354.274 337.626 C356.276 337.626 358.278 337.626 360.281 337.626 C391.438 337.625 422.595 337.64 453.752 337.667 C488.743 337.698 523.734 337.715 558.725 337.713 C562.455 337.713 566.185 337.713 569.915 337.713 C570.833 337.713 571.752 337.713 572.698 337.713 C587.489 337.713 602.279 337.725 617.07 337.743 C631.931 337.759 646.793 337.761 661.654 337.748 C670.486 337.741 679.318 337.745 688.15 337.764 C694.048 337.776 699.947 337.774 705.845 337.759 C709.207 337.751 712.568 337.752 715.929 337.766 C719.552 337.78 723.174 337.77 726.796 337.753 C728.359 337.768 728.359 337.768 729.953 337.783 C737.901 337.706 744.025 336.01 750.15 330.818 C756.238 323.476 757.574 316.778 757.549 307.49 C757.554 306.512 757.56 305.533 757.565 304.526 C757.58 301.251 757.581 297.976 757.581 294.702 C757.589 292.352 757.597 290.003 757.607 287.654 C757.629 281.274 757.637 274.894 757.642 268.513 C757.646 264.526 757.652 260.539 757.659 256.552 C757.679 245.503 757.695 234.453 757.698 223.404 C757.699 222.345 757.699 222.345 757.699 221.263 C757.699 219.831 757.7 218.399 757.7 216.967 C757.7 216.256 757.7 215.545 757.701 214.813 C757.701 214.101 757.701 213.389 757.701 212.656 C757.705 201.127 757.732 189.598 757.769 178.069 C757.807 166.219 757.826 154.37 757.827 142.52 C757.827 135.872 757.836 129.224 757.865 122.576 C757.891 116.322 757.893 110.068 757.877 103.813 C757.875 101.521 757.882 99.229 757.898 96.937 C757.918 93.8 757.908 90.665 757.89 87.529 C757.903 86.628 757.916 85.728 757.93 84.8 C757.842 78.104 756.021 72.831 752.275 67.255 C744.749 59.979 737.356 58.958 727.223 59.004 C726.101 59.001 724.979 58.998 723.823 58.995 C720.043 58.987 716.262 58.994 712.482 59.001 C709.753 59 707.023 58.996 704.294 58.992 C698.349 58.985 692.404 58.985 686.458 58.99 C677.618 58.998 668.777 58.994 659.936 58.988 C644.147 58.977 628.358 58.978 612.569 58.984 C598.75 58.989 584.931 58.99 571.112 58.988 C569.738 58.987 569.738 58.987 568.336 58.987 C564.617 58.987 560.899 58.986 557.181 58.985 C522.284 58.979 487.387 58.985 452.49 58.995 C421.48 59.005 390.471 59.004 359.461 58.995 C324.633 58.984 289.805 58.98 254.978 58.986 C251.265 58.986 247.552 58.987 243.84 58.988 C242.469 58.988 242.469 58.988 241.07 58.988 C227.261 58.99 213.452 58.988 199.643 58.983 C183.94 58.977 168.238 58.978 152.535 58.989 C143.745 58.995 134.956 58.996 126.166 58.988 C120.296 58.983 114.425 58.986 108.555 58.995 C105.21 59 101.864 59 98.519 58.994 C94.914 58.988 91.309 58.994 87.704 59.004 C86.149 58.997 86.149 58.997 84.563 58.989 C73.259 58.962 73.259 58.962 63.463 63.88 Z " fill="#2A2628" transform="translate(152.7249972820282,177.74469900131226)"/>
<path d="M0 0 C0.669 0.525 1.338 1.049 2.027 1.59 C2.727 2.125 3.427 2.66 4.148 3.211 C14.387 12.211 19.771 27.247 21.027 40.59 C21.139 46.476 21.034 52.359 20.705 58.237 C20.334 65.475 20.334 65.475 23.91 71.457 C24.456 71.984 25.002 72.511 25.564 73.054 C29.839 77.542 29.392 84.694 29.402 90.527 C29.427 91.287 29.451 92.047 29.477 92.83 C29.506 98.525 28.21 102.837 25.027 107.59 C21.763 110.621 19.521 112.528 15.027 112.715 C12.027 112.59 12.027 112.59 10.027 111.59 C10.039 112.161 10.051 112.732 10.062 113.32 C10.142 120.452 9.651 127.488 9.027 134.59 C7.377 134.92 5.727 135.25 4.027 135.59 C4.027 128 4.027 120.41 4.027 112.59 C2.707 114.24 1.387 115.89 0.027 117.59 C-9.927 125.97 -22.592 126.358 -34.973 125.59 C-38.368 125.112 -41.662 124.481 -44.973 123.59 C-45.076 124.6 -45.179 125.611 -45.285 126.652 C-46.487 133.533 -49.011 138.746 -53.973 143.59 C-56.637 143.75 -56.637 143.75 -58.973 143.59 C-58.949 144.822 -58.926 146.055 -58.902 147.324 C-58.636 166.989 -61.402 183.784 -73.973 199.59 C-73.229 199.841 -72.485 200.093 -71.719 200.352 C-68.765 201.683 -67.234 203.051 -65.035 205.402 C-62.732 207.81 -60.488 210.059 -57.848 212.09 C-54.331 215.148 -51.181 218.455 -48.973 222.59 C-48.809 225.34 -48.809 225.34 -48.973 227.59 C-48.28 227.567 -47.588 227.543 -46.875 227.52 C-31.543 227.237 -16.411 228.695 -4.727 239.676 C2.335 247.382 8.06 255.979 13.652 264.777 C14.186 265.615 14.719 266.454 15.268 267.317 C15.759 268.102 16.249 268.887 16.754 269.695 C17.193 270.398 17.632 271.101 18.084 271.825 C19.027 273.59 19.027 273.59 19.027 275.59 C19.687 275.59 20.347 275.59 21.027 275.59 C21.027 274.93 21.027 274.27 21.027 273.59 C22.017 273.59 23.007 273.59 24.027 273.59 C23.231 271.975 23.231 271.975 22.418 270.328 C18.177 261.61 14.344 253.05 12.027 243.59 C11.851 242.907 11.676 242.223 11.494 241.52 C9.718 233.873 9.673 226.283 9.715 218.465 C9.716 217.776 9.718 217.087 9.719 216.377 C9.759 206.092 10.451 196.586 13.027 186.59 C13.338 185.18 13.642 183.768 13.941 182.355 C15.935 173.132 18.623 164.393 22.027 155.59 C21.48 155.659 20.932 155.728 20.368 155.8 C10.199 156.91 -0.005 156.829 -10.223 156.84 C-11.689 156.843 -11.689 156.843 -13.184 156.847 C-27.67 156.86 -41.699 156.278 -55.973 153.59 C-56.303 152.27 -56.633 150.95 -56.973 149.59 C-48.954 146.917 -39.495 148.575 -31.223 149.59 C-14.701 151.544 2.666 151.922 19.027 148.59 C16.585 145.384 15.277 144.636 11.247 143.892 C9.722 143.781 8.195 143.689 6.668 143.613 C5.846 143.557 5.024 143.501 4.177 143.443 C1.545 143.266 -1.089 143.114 -3.723 142.965 C-7.155 142.751 -10.588 142.527 -14.02 142.301 C-14.856 142.246 -15.693 142.191 -16.555 142.135 C-22.111 141.756 -27.644 141.273 -33.176 140.629 C-34.466 140.479 -35.757 140.329 -37.087 140.174 C-38.039 139.981 -38.992 139.789 -39.973 139.59 C-40.303 138.93 -40.633 138.27 -40.973 137.59 C-38.119 136.639 -36.396 136.473 -33.441 136.492 C-32.07 136.497 -32.07 136.497 -30.671 136.502 C-29.686 136.51 -28.702 136.519 -27.688 136.527 C-26.675 136.531 -25.663 136.535 -24.621 136.539 C-21.384 136.551 -18.147 136.57 -14.91 136.59 C-10.648 136.616 -6.387 136.636 -2.125 136.652 C-0.645 136.665 -0.645 136.665 0.864 136.677 C2.231 136.682 2.231 136.682 3.625 136.688 C4.429 136.693 5.233 136.698 6.061 136.703 C8.106 136.715 8.106 136.715 10.027 135.59 C14.279 135.089 17.834 134.742 21.402 137.277 C23.07 139.651 24.547 142.096 26.027 144.59 C26.656 143.49 27.285 142.391 27.934 141.258 C43.522 114.231 62.32 92.823 92.965 83.215 C116.372 77.411 143.725 81.912 164.512 93.867 C169.079 96.995 173.074 100.73 177.027 104.59 C176.697 105.91 176.367 107.23 176.027 108.59 C171.051 108.074 167.875 106.535 163.652 103.902 C156.137 99.38 148.304 96.415 140.027 93.59 C138.488 93.033 138.488 93.033 136.918 92.465 C119.837 87.294 95.298 88.819 79.34 97.027 C71.507 101.349 65.22 107.205 59.027 113.59 C58.182 114.45 57.336 115.309 56.465 116.195 C51.137 121.857 46.914 127.869 43.027 134.59 C42.379 135.7 41.731 136.81 41.062 137.953 C25.064 166.158 19.977 197.522 21.027 229.59 C21.074 231.346 21.074 231.346 21.121 233.137 C22.068 250.658 28.17 266.904 39.027 280.59 C38.697 281.25 38.367 281.91 38.027 282.59 C37.285 282.734 36.542 282.879 35.777 283.027 C32.689 283.659 30.644 284.87 28.027 286.59 C29.547 291.796 31.88 296.238 34.465 300.965 C44.437 319.62 52.682 338.925 59.986 358.767 C60.895 361.232 61.826 363.686 62.762 366.141 C65.832 374.41 68.441 382.883 64.848 391.379 C62.191 396.045 59.157 400.148 55.027 403.59 C54.367 403.59 53.707 403.59 53.027 403.59 C53.244 404.171 53.46 404.753 53.682 405.352 C58.626 418.775 62.728 432.098 65.522 446.135 C65.85 447.725 66.208 449.31 66.603 450.884 C68.579 459.187 68.027 465.388 68.027 474.59 C7.307 474.59 -53.413 474.59 -115.973 474.59 C-115.973 329.72 -115.973 184.85 -115.973 35.59 C-106.971 35.59 -106.971 35.59 -103.867 37.234 C-103.194 37.582 -102.52 37.929 -101.826 38.287 C-100.816 38.839 -100.816 38.839 -99.785 39.402 C-99.1 39.759 -98.415 40.115 -97.709 40.482 C-94.055 42.399 -90.487 44.427 -86.973 46.59 C-87.031 46.007 -87.089 45.425 -87.148 44.824 C-87.738 34.115 -83.321 25.618 -76.719 17.43 C-74.886 15.499 -73.276 13.938 -70.973 12.59 C-68.723 12.902 -68.723 12.902 -66.973 13.59 C-67.42 14.196 -67.867 14.802 -68.328 15.426 C-75.824 25.155 -75.824 25.155 -78.973 36.59 C-78.572 35.851 -78.171 35.113 -77.758 34.352 C-69.997 20.501 -58.872 4.666 -42.973 -0.41 C-41.983 -0.08 -40.993 0.25 -39.973 0.59 C-40.633 1.25 -41.293 1.91 -41.973 2.59 C-41.297 2.241 -40.622 1.891 -39.926 1.531 C-38.588 0.849 -38.588 0.849 -37.223 0.152 C-36.341 -0.3 -35.459 -0.753 -34.551 -1.219 C-24.961 -5.651 -8.938 -5.67 0 0 Z " fill="#393738" transform="translate(115.97265625,549.41015625)"/>
<path d="M0 0 C0.693 0.178 1.386 0.357 2.1 0.541 C3.21 0.828 3.21 0.828 4.344 1.121 C6.062 1.56 7.781 1.999 9.5 2.438 C10.335 2.655 11.171 2.872 12.031 3.096 C24.219 6.189 35.729 7.325 48.262 7.261 C50.732 7.25 53.202 7.261 55.672 7.273 C68.894 7.285 81.653 6.034 94.625 3.375 C101.825 1.9 107.083 1.35 114.016 4.055 C115.173 4.5 116.33 4.946 117.523 5.405 C118.765 5.895 120.008 6.385 121.25 6.875 C122.53 7.372 123.811 7.868 125.093 8.363 C127.737 9.386 130.379 10.414 133.019 11.447 C136.904 12.965 140.796 14.464 144.691 15.957 C150.797 18.298 156.9 20.646 163 23 C161.185 32.422 161.185 32.422 159.961 36.918 C158.666 41.982 158.179 47.124 157.625 52.312 C157.367 54.625 157.109 56.938 156.852 59.25 C156.642 61.158 156.433 63.065 156.223 64.973 C155.495 71.587 154.749 78.2 154 84.812 C153.873 85.932 153.873 85.932 153.744 87.074 C152.382 99.083 150.832 111.052 149 123 C153.76 120.925 156.698 118.571 160.125 114.688 C160.953 113.763 161.78 112.839 162.633 111.887 C167.352 106.565 167.352 106.565 169 100 C163.96 100.445 161.624 102.713 158 106 C158.685 98.181 159.781 90.449 160.938 82.688 C163.786 62.985 165.356 43.919 165 24 C175.761 27.409 180.943 32.345 186.21 42.284 C187.336 44.608 188.4 46.948 189.438 49.312 C189.819 50.176 190.201 51.039 190.595 51.928 C196.59 65.719 201.103 79.83 204.942 94.355 C206.15 98.926 207.412 103.418 209 107.875 C211.107 113.946 212.668 120.151 214.25 126.375 C214.521 127.423 214.791 128.471 215.07 129.55 C218.139 141.844 218.139 141.844 215.371 147.082 C208.446 155.604 197.755 160.887 188.188 165.938 C187.317 166.398 186.446 166.858 185.549 167.333 C175.16 172.67 165.715 175.206 154 175 C150.62 168.206 148.651 161.393 147 154 C146.67 154 146.34 154 146 154 C145.278 176.368 146.906 197.58 150.541 219.651 C151 223 151 223 151 228 C85.33 228 19.66 228 -48 228 C-46.859 206.328 -46.859 206.328 -45 196.688 C-39.388 166.982 -40.545 136.962 -47.196 107.626 C-48.465 101.902 -49.529 96.146 -50.562 90.375 C-50.764 89.266 -50.965 88.158 -51.172 87.016 C-52.379 80.166 -53.388 73.306 -54.281 66.41 C-54.389 65.584 -54.496 64.759 -54.607 63.908 C-55.134 59.84 -55.643 55.772 -56.125 51.699 C-57.057 44.122 -58.257 37.096 -61.211 29.989 C-62 28 -62 28 -62 26 C-62.99 26.495 -62.99 26.495 -64 27 C-64.055 29.584 -64.094 32.166 -64.125 34.75 C-64.142 35.46 -64.159 36.171 -64.176 36.902 C-64.223 42.241 -63.542 47.239 -62.602 52.488 C-61.483 59.021 -60.649 65.596 -59.768 72.164 C-59.437 74.628 -59.103 77.091 -58.768 79.555 C-57.712 87.36 -56.708 95.153 -56 103 C-59.585 99.557 -62.467 95.817 -65.414 91.828 C-65.937 91.225 -66.461 90.622 -67 90 C-67.66 90 -68.32 90 -69 90 C-68.511 95.048 -66.776 98.548 -64 102.688 C-63.604 103.299 -63.207 103.911 -62.799 104.541 C-59.589 109.39 -55.928 113.664 -51.848 117.816 C-46.593 126.871 -47.689 139.101 -47.75 149.25 C-47.738 151.195 -47.738 151.195 -47.727 153.18 C-47.762 170.762 -47.762 170.762 -51 174 C-61.284 175.469 -69.804 172.028 -79 168 C-79.719 167.69 -80.439 167.379 -81.18 167.06 C-107.761 155.478 -107.761 155.478 -113 145 C-113.41 138.42 -112.207 132.768 -110.551 126.422 C-110.296 125.415 -110.042 124.409 -109.78 123.371 C-108.966 120.162 -108.14 116.956 -107.312 113.75 C-106.776 111.643 -106.24 109.537 -105.705 107.43 C-104.651 103.28 -103.591 99.132 -102.527 94.986 C-101.532 91.1 -100.552 87.211 -99.589 83.317 C-99.367 82.423 -99.146 81.528 -98.918 80.606 C-98.511 78.958 -98.106 77.309 -97.704 75.659 C-86.746 31.281 -86.746 31.281 -71 21 C-69.345 20.503 -67.686 20.014 -66.012 19.586 C-63.812 18.945 -61.792 18.093 -59.688 17.188 C-55.04 15.282 -50.341 13.925 -45.5 12.625 C-36.924 10.32 -28.527 7.607 -20.129 4.725 C-17.076 3.686 -14.012 2.681 -10.947 1.677 C-8.829 0.971 -8.829 0.971 -6.188 -0.25 C-3.562 -1.15 -2.626 -0.759 0 0 Z " fill="#FEFEFE" transform="translate(510,796)"/>
<path d="M0 0 C1.267 -0.001 2.533 -0.003 3.838 -0.004 C5.803 0.002 5.803 0.002 7.809 0.008 C9.78 0.002 9.78 0.002 11.791 -0.004 C13.056 -0.003 14.321 -0.001 15.625 0 C16.776 0.001 17.926 0.002 19.112 0.003 C22.246 0.133 22.246 0.133 27.246 1.133 C27.246 69.113 27.246 137.093 27.246 207.133 C-68.124 207.133 -163.494 207.133 -261.754 207.133 C-262.88 198.121 -262.88 198.121 -262.931 194.94 C-262.95 193.852 -262.95 193.852 -262.969 192.742 C-262.977 191.979 -262.984 191.216 -262.992 190.43 C-263.002 189.607 -263.012 188.785 -263.022 187.938 C-263.353 152.896 -258.741 119.369 -253.008 84.862 C-252.285 80.48 -251.593 76.096 -250.955 71.7 C-250.826 70.811 -250.696 69.921 -250.563 69.005 C-250.322 67.333 -250.086 65.661 -249.854 63.988 C-247.901 50.409 -244.751 36.851 -233.898 27.722 C-229.862 24.73 -225.411 22.528 -220.941 20.258 C-219.988 19.76 -219.035 19.263 -218.053 18.75 C-211.042 15.133 -211.042 15.133 -208.754 15.133 C-208.527 23.469 -208.813 31.536 -209.754 39.82 C-212.915 68.874 -210.089 95.38 -191.559 118.922 C-176.045 136.882 -153.667 148.189 -129.941 149.969 C-103.359 151.337 -80.125 146.803 -58.754 130.133 C-57.922 129.514 -57.091 128.895 -56.234 128.258 C-44.148 117.903 -36.067 102.229 -31.754 87.133 C-31.094 87.133 -30.434 87.133 -29.754 87.133 C-28.159 81.919 -26.605 76.694 -25.129 71.445 C-24.889 70.596 -24.649 69.746 -24.402 68.871 C-22.573 61.147 -22.562 53.609 -22.566 45.695 C-22.566 44.451 -22.567 43.206 -22.567 41.924 C-22.612 26.824 -22.612 26.824 -25.754 12.133 C-25.821 10.572 -25.839 9.008 -25.816 7.445 C-25.807 6.637 -25.798 5.829 -25.789 4.996 C-25.772 4.074 -25.772 4.074 -25.754 3.133 C-24.885 3 -24.016 2.867 -23.121 2.73 C-21.969 2.554 -20.816 2.377 -19.629 2.195 C-18.492 2.021 -17.355 1.847 -16.184 1.668 C-14.105 1.344 -12.029 0.997 -9.962 0.608 C-6.594 0.109 -3.403 0.003 0 0 Z " fill="#BEBFC0" transform="translate(996.75390625,816.8671875)"/>
<path d="M0 0 C2.036 1.826 3.766 3.589 5.562 5.625 C11.048 11.468 16.489 15.031 24 18 C24.758 18.313 25.516 18.626 26.297 18.949 C53.453 29.108 87.498 23.568 113.848 13.586 C114.571 13.32 115.294 13.054 116.04 12.78 C118.207 11.962 118.207 11.962 120.934 10.414 C126.217 9.701 129.777 13.087 134 16 C135.96 17.303 137.921 18.605 139.883 19.906 C141.391 20.921 141.391 20.921 142.931 21.957 C148.741 25.824 154.678 29.494 160.59 33.203 C163.076 34.778 165.544 36.378 168 38 C168.736 38.481 169.473 38.962 170.231 39.457 C178.875 45.454 181.964 53.643 185.375 63.312 C185.76 64.393 186.145 65.474 186.542 66.588 C190.803 78.858 193.961 91.382 197 104 C197.404 105.639 197.809 107.279 198.215 108.918 C205.132 137.211 206 163.003 206 193 C147.26 193 88.52 193 28 193 C27.67 187.72 27.34 182.44 27 177 C26.498 173.819 25.978 170.803 25.25 167.688 C25.076 166.906 24.902 166.125 24.722 165.32 C24.168 162.875 23.589 160.437 23 158 C22.804 157.185 22.607 156.371 22.405 155.531 C20.083 146.04 17.416 136.814 13.918 127.688 C13 125 13 125 13 122 C13.866 121.319 14.733 120.639 15.625 119.938 C18.397 117.72 20.391 115.385 22.375 112.438 C22.878 111.694 23.38 110.95 23.898 110.184 C27.275 100.425 24.275 91.062 20.875 81.75 C20.433 80.509 19.992 79.267 19.537 77.988 C11.124 54.67 1.243 30.138 -11.828 9.051 C-13 7 -13 7 -12.562 4.875 C-9.331 0.997 -4.961 -0.805 0 0 Z " fill="#D4D4D4" transform="translate(156,831)"/>
<path d="M0 0 C6.32 1.948 12.374 2.73 18.934 3.27 C31.861 4.426 39.892 7.564 48.871 17.332 C76.053 50.545 94.278 94.529 107.496 134.957 C107.744 135.696 107.992 136.435 108.247 137.196 C109.782 142.087 110.391 146.202 109.871 151.332 C108.191 154.52 108.191 154.52 105.996 157.332 C105.277 158.281 104.558 159.23 103.816 160.207 C103.174 160.908 102.532 161.61 101.871 162.332 C101.211 162.332 100.551 162.332 99.871 162.332 C99.606 161.091 99.34 159.849 99.066 158.57 C91.123 122.938 75.524 92.819 57.489 61.462 C53.183 53.946 49.037 46.348 44.967 38.702 C39.714 28.338 39.714 28.338 30.871 21.332 C29.543 20.98 28.21 20.643 26.871 20.332 C26.76 20.877 26.649 21.421 26.535 21.982 C25.348 27.584 23.788 32.96 21.996 38.395 C16.121 56.771 12.81 75.308 9.871 94.332 C9.689 95.389 9.508 96.446 9.32 97.535 C8.719 102.618 8.669 107.651 8.633 112.766 C8.621 114.43 8.621 114.43 8.608 116.128 C8.595 118.481 8.584 120.833 8.576 123.186 C8.565 125.545 8.544 127.903 8.514 130.262 C8.26 150.392 8.823 171.266 16.996 190.02 C17.343 190.871 17.69 191.722 18.047 192.6 C19.336 195.753 20.67 198.88 22.055 201.992 C23.108 205.01 23.445 207.907 23.809 211.082 C24.602 217.67 25.678 224.176 26.906 230.696 C27.516 233.998 27.871 236.957 27.871 240.332 C-2.819 240.332 -33.509 240.332 -65.129 240.332 C-65.129 164.102 -65.129 87.872 -65.129 9.332 C-54.734 7.847 -54.734 7.847 -44.129 6.332 C-32.538 4.328 -21.17 1.827 -9.836 -1.301 C-6.463 -2.026 -3.236 -1.015 0 0 Z " fill="#AAACB0" transform="translate(65.12890625,783.66796875)"/>
<path d="M0 0 C3.782 1.558 7.575 3.027 11.438 4.375 C12.357 4.699 13.276 5.022 14.223 5.355 C34.557 10.722 60.249 9.143 79.199 -0.176 C84.503 -1.728 89.346 0.889 94.125 3.062 C98.19 4.878 102.192 6.53 106.5 7.688 C116.31 10.516 123.565 14.068 129.168 22.82 C130.266 24.973 130.923 26.825 131.375 29.188 C123.648 32.941 115.657 35.367 107.422 37.753 C91.04 42.519 79.09 47.264 70.438 62.75 C61.358 79.99 56.754 99.308 52.134 118.107 C51.648 120.081 51.154 122.052 50.651 124.022 C48.348 133.044 46.399 142.079 44.375 151.188 C31.835 151.188 19.295 151.188 6.375 151.188 C5.344 147.372 4.312 143.556 3.25 139.625 C-1.802 119.983 -1.802 119.983 -12.625 103.188 C-13.455 102.281 -13.455 102.281 -14.301 101.355 C-26.975 88.885 -45.813 80.093 -61.625 72.188 C-60.24 68.963 -58.719 67.194 -56 65 C-40.751 51.98 -30.384 33.675 -27.431 13.812 C-25.984 4.492 -25.984 4.492 -23.189 1.809 C-15.568 -3.176 -8.253 -3.559 0 0 Z " fill="#FDFDFD" transform="translate(349.625,763.8125)"/>
<path d="M0 0 C0 58.74 0 117.48 0 178 C-7.26 178.33 -14.52 178.66 -22 179 C-24.31 179.99 -26.62 180.98 -29 182 C-32.395 182.117 -32.395 182.117 -35.812 181.875 C-42.725 181.683 -47.239 183.283 -53 187 C-55 185 -55 185 -55.375 181.625 C-55 178 -55 178 -53 175.562 C-52.34 175.047 -51.68 174.531 -51 174 C-52.187 172.983 -52.187 172.983 -53.398 171.945 C-56.471 168.467 -56.925 166.422 -57.625 161.875 C-57.737 161.18 -57.849 160.485 -57.965 159.768 C-58.203 158.279 -58.432 156.789 -58.653 155.297 C-58.998 153.014 -59.382 150.74 -59.777 148.465 C-61.167 140.323 -62.2 132.232 -62.875 124 C-64.33 106.834 -67.739 89.767 -72.203 73.137 C-75.41 60.514 -74.835 50.307 -68.27 39.027 C-56.396 20.282 -36.642 7.291 -15.281 1.488 C-10.182 0.397 -5.207 0 0 0 Z " fill="#2C282A" transform="translate(1024,627)"/>
<path d="M0 0 C0.651 0.403 1.302 0.806 1.972 1.222 C2.576 1.528 3.179 1.835 3.8 2.151 C4.411 2.463 5.022 2.775 5.652 3.097 C7.05 3.805 8.449 4.513 9.847 5.222 C10.542 5.577 11.237 5.933 11.953 6.3 C12.98 6.818 12.98 6.818 14.027 7.347 C14.641 7.659 15.254 7.971 15.886 8.292 C23.443 11.659 30.31 11.589 38.472 11.597 C39.759 11.621 41.045 11.646 42.371 11.671 C57.367 11.716 69.576 7.486 81.972 -0.778 C87.857 -0.403 93.358 1.379 98.972 3.097 C99.836 3.353 100.7 3.61 101.59 3.874 C116.044 8.246 116.044 8.246 118.972 13.159 C119.688 14.354 119.688 14.354 120.418 15.573 C120.931 16.447 121.444 17.321 121.972 18.222 C122.609 19.158 123.246 20.093 123.902 21.058 C128.625 28.284 129.931 33.636 128.972 42.222 C128.435 42.367 127.897 42.512 127.343 42.661 C110.059 47.395 92.683 52.963 82.597 69.034 C74.395 85.9 74.379 107.338 72.39 125.737 C72.008 128.92 71.529 132.065 70.972 135.222 C69.652 135.222 68.332 135.222 66.972 135.222 C66.409 133.118 65.847 131.013 65.285 128.909 C65.104 128.237 64.923 127.565 64.737 126.872 C63.75 123.19 62.788 119.505 61.875 115.804 C51.799 73.388 51.799 73.388 25.972 40.222 C14.162 33.862 1.954 28.882 -10.576 24.141 C-12.87 23.269 -15.158 22.381 -17.446 21.491 C-18.48 21.108 -18.48 21.108 -19.535 20.717 C-24 18.969 -27.032 16.985 -30.028 13.222 C-30.028 11.902 -30.028 10.582 -30.028 9.222 C-29.499 9.061 -28.971 8.9 -28.426 8.734 C-25.979 7.986 -23.535 7.229 -21.09 6.472 C-19.844 6.093 -19.844 6.093 -18.573 5.706 C-13.472 4.118 -8.772 2.266 -4.033 -0.213 C-2.028 -0.778 -2.028 -0.778 0 0 Z " fill="#DDDDDC" transform="translate(661.027587890625,775.7783203125)"/>
<path d="M0 0 C14.939 4.482 27.473 10.657 35.25 24.812 C42.259 38.45 45.701 53.695 47.708 68.805 C47.898 70.232 48.099 71.658 48.312 73.082 C50.022 84.538 50.208 96 50.25 107.562 C50.255 108.301 50.261 109.039 50.266 109.8 C50.351 125.237 48.831 139.135 38 151 C27.656 161.266 14.397 166 0 166 C0 111.22 0 56.44 0 0 Z " fill="#E0E0E0" transform="translate(0,591)"/>
<path d="M0 0 C1.267 -0.001 2.533 -0.003 3.838 -0.004 C5.803 0.002 5.803 0.002 7.809 0.008 C9.78 0.002 9.78 0.002 11.791 -0.004 C13.056 -0.003 14.321 -0.001 15.625 0 C16.776 0.001 17.926 0.002 19.112 0.003 C22.246 0.133 22.246 0.133 27.246 1.133 C27.246 69.113 27.246 137.093 27.246 207.133 C19.656 207.133 12.066 207.133 4.246 207.133 C5.323 196.366 5.323 196.366 6.289 191.734 C7.779 183.047 7.594 174.296 7.559 165.508 C7.557 164.599 7.556 163.69 7.554 162.754 C7.513 148.789 6.762 135.154 4.704 121.326 C4.203 117.835 3.781 114.339 3.367 110.836 C-2.27 62.732 -2.27 62.732 -23.754 20.133 C-25.679 14.358 -26.006 9.188 -25.754 3.133 C-24.885 3 -24.016 2.867 -23.121 2.73 C-21.969 2.554 -20.816 2.377 -19.629 2.195 C-18.492 2.021 -17.355 1.847 -16.184 1.668 C-14.105 1.344 -12.029 0.997 -9.962 0.608 C-6.594 0.109 -3.403 0.003 0 0 Z " fill="#2A2729" transform="translate(996.75390625,816.8671875)"/>
<path d="M0 0 C6.334 1.918 12.386 2.722 18.953 3.262 C31.881 4.418 39.912 7.556 48.891 17.324 C76.073 50.537 94.297 94.521 107.516 134.949 C107.763 135.688 108.011 136.427 108.267 137.188 C109.802 142.079 110.411 146.194 109.891 151.324 C108.211 154.512 108.211 154.512 106.016 157.324 C105.296 158.273 104.577 159.222 103.836 160.199 C103.194 160.9 102.552 161.602 101.891 162.324 C101.231 162.324 100.571 162.324 99.891 162.324 C99.492 160.462 99.492 160.462 99.086 158.562 C91.143 122.93 75.543 92.811 57.509 61.454 C53.202 53.939 49.056 46.34 44.987 38.694 C39.788 28.197 39.788 28.197 30.891 21.324 C29.96 21.501 29.03 21.679 28.072 21.861 C24.534 22.376 22.76 21.949 19.434 20.734 C18.411 20.366 17.388 19.997 16.334 19.617 C15.259 19.211 14.185 18.805 13.078 18.387 C11.975 17.98 10.871 17.573 9.735 17.155 C0.537 13.705 -8.344 9.749 -17.109 5.324 C-17.109 4.004 -17.109 2.684 -17.109 1.324 C-10.707 -1.194 -6.705 -2.148 0 0 Z " fill="#FAFAFA" transform="translate(65.109375,783.67578125)"/>
<path d="M0 0 C1.267 -0.001 2.533 -0.003 3.838 -0.004 C5.803 0.002 5.803 0.002 7.809 0.008 C9.78 0.002 9.78 0.002 11.791 -0.004 C13.056 -0.003 14.321 -0.001 15.625 0 C16.776 0.001 17.926 0.002 19.112 0.003 C22.246 0.133 22.246 0.133 27.246 1.133 C27.246 30.173 27.246 59.213 27.246 89.133 C21.306 89.133 15.366 89.133 9.246 89.133 C8.81 86.815 8.375 84.497 7.926 82.109 C0.858 40.691 0.858 40.691 -23.754 8.133 C-24.414 9.453 -25.074 10.773 -25.754 12.133 C-25.754 9.163 -25.754 6.193 -25.754 3.133 C-24.885 3 -24.016 2.867 -23.121 2.73 C-21.969 2.554 -20.816 2.377 -19.629 2.195 C-18.492 2.021 -17.355 1.847 -16.184 1.668 C-14.105 1.344 -12.029 0.997 -9.962 0.608 C-6.594 0.109 -3.403 0.003 0 0 Z " fill="#878888" transform="translate(996.75390625,816.8671875)"/>
<path d="M0 0 C0.979 -0.01 0.979 -0.01 1.978 -0.02 C4.134 -0.04 6.29 -0.051 8.446 -0.061 C9.187 -0.065 9.928 -0.069 10.692 -0.074 C14.623 -0.094 18.555 -0.109 22.486 -0.118 C26.514 -0.129 30.541 -0.164 34.568 -0.203 C37.692 -0.23 40.816 -0.238 43.94 -0.241 C45.423 -0.246 46.905 -0.258 48.387 -0.276 C58.719 -0.399 70.74 -0.294 78.989 6.833 C80.253 8.241 80.253 8.241 81.543 9.677 C82.412 10.615 83.281 11.554 84.176 12.521 C89.418 18.731 89.418 18.731 89.418 22.177 C86.169 22.662 82.919 23.139 79.668 23.615 C78.767 23.749 77.866 23.884 76.938 24.023 C63.167 26.025 49.561 26.412 35.668 26.427 C34.212 26.431 34.212 26.431 32.726 26.434 C12.196 26.453 -8.15 25.079 -28.582 23.177 C-28.197 22.731 -27.811 22.285 -27.414 21.826 C-24.364 18.283 -21.365 14.714 -18.457 11.052 C-17.815 10.245 -17.173 9.438 -16.511 8.607 C-15.166 6.912 -13.861 5.185 -12.59 3.435 C-9.074 -0.519 -5.083 0.042 0 0 Z " fill="#FAFAFA" transform="translate(530.581787109375,763.822998046875)"/>
<path d="M0 0 C3.709 1.958 6.127 4.254 8 8 C8.573 14.991 8.573 14.991 6.438 18.75 C3.478 21.482 0.571 23.146 -3 25 C-2.344 28.61 -2.344 28.61 -1 32 C0.068 40.008 -3.441 48.349 -7.988 54.836 C-10 57 -10 57 -12.938 58 C-16.588 58 -17.927 56.844 -21 55 C-24.09 54.918 -24.09 54.918 -27 56 C-27.639 56.681 -28.279 57.361 -28.938 58.062 C-31 60 -31 60 -34.375 60.5 C-39.878 59.741 -43.153 57.132 -46.75 53.062 C-50.845 47.489 -51.868 42.822 -51 36 C-47.15 22.066 -37.723 11.62 -25.347 4.522 C-17.047 0.097 -9.473 -1.965 0 0 Z " fill="#FAFAFA" transform="translate(659,392)"/>
<path d="M0 0 C6.674 1.956 12.743 5.194 18.949 8.279 C26.688 12.048 34.427 14.872 43 16 C43.306 22.736 43.048 30.903 40 37 C39.711 38.736 39.467 40.48 39.246 42.227 C39.127 43.155 39.007 44.084 38.885 45.042 C38.737 46.224 38.589 47.407 38.438 48.625 C37.963 52.379 37.489 56.133 37 60 C22.81 60 8.62 60 -6 60 C-6 52.844 -5.996 46.151 -5.195 39.121 C-5.111 38.343 -5.027 37.565 -4.941 36.763 C-4.764 35.139 -4.584 33.515 -4.401 31.891 C-4.125 29.439 -3.861 26.986 -3.598 24.533 C-2.698 16.291 -1.677 8.128 0 0 Z " fill="#FCFCFC" transform="translate(411,964)"/>
<path d="M0 0 C2.892 12.052 5.345 24.06 6.812 36.375 C6.936 37.401 7.06 38.427 7.187 39.484 C7.852 45.436 8 50.93 8 57 C-6.85 57 -21.7 57 -37 57 C-39.313 43.375 -39.313 43.375 -40.021 39.173 C-41.466 30.727 -43.137 22.364 -45 14 C-44.187 13.995 -43.374 13.991 -42.536 13.986 C-28.736 13.757 -16.176 7.444 -4.188 1.066 C-2 0 -2 0 0 0 Z " fill="#FCFCFC" transform="translate(711,967)"/>
<path d="M0 0 C7.794 4.066 12.214 9.025 15.125 17.312 C16.388 23.868 14.779 29.792 11.125 35.312 C6.121 40.848 0.552 45.731 -7.098 46.551 C-11.742 46.698 -15.53 46.095 -19.875 44.312 C-20.494 45.117 -21.112 45.921 -21.75 46.75 C-23.993 49.454 -24.701 50.188 -28.117 50.551 C-35.274 50.753 -35.274 50.753 -38.438 48.438 C-41.069 44.548 -41.349 42.048 -40.875 37.312 C-39.456 34.797 -38.013 33.351 -35.875 31.312 C-34.885 31.312 -33.895 31.312 -32.875 31.312 C-33.196 30.748 -33.517 30.183 -33.848 29.602 C-36.013 24.778 -35.628 19.604 -34 14.648 C-31.339 8.854 -28.129 4.898 -22.875 1.312 C-21.988 0.694 -21.101 0.075 -20.188 -0.562 C-13.538 -2.821 -6.507 -2.708 0 0 Z " fill="#2F2C2D" transform="translate(753.875,397.6875)"/>
<path d="M0 0 C1.021 1.176 1.021 1.176 2.062 2.375 C5.513 5.459 7.566 6.044 12 7 C12 8.98 12 10.96 12 13 C11.01 13 10.02 13 9 13 C9 14.65 9 16.3 9 18 C9.66 18 10.32 18 11 18 C9.75 22.999 8.261 25.126 4 28 C2.753 28.609 2.753 28.609 1.48 29.23 C-1.735 31.525 -2.201 33.391 -3.375 37.125 C-5.585 43.288 -8.004 48.615 -13 53 C-15.791 54.244 -17.926 54.622 -21 55 C-21 55.99 -21 56.98 -21 58 C-25.95 58 -30.9 58 -36 58 C-36 56.35 -36 54.7 -36 53 C-39.248 54.722 -39.248 54.722 -40 58 C-41.458 58.054 -42.916 58.093 -44.375 58.125 C-45.187 58.148 -45.999 58.171 -46.836 58.195 C-49 58 -49 58 -51 56 C-51.375 53.625 -51.375 53.625 -51 51 C-49.125 48.688 -49.125 48.688 -47 47 C-46.34 47 -45.68 47 -45 47 C-44.963 46.359 -44.925 45.719 -44.887 45.059 C-44.262 36.844 -42.067 28.942 -36 23 C-33.375 22.75 -33.375 22.75 -31 23 C-29.083 21.917 -29.083 21.917 -28 20 C-27.749 17.374 -27.749 17.374 -28 15 C-29.65 14.34 -31.3 13.68 -33 13 C-32.67 12.34 -32.34 11.68 -32 11 C-28.764 10.921 -26.083 10.978 -22.938 11.812 C-16.11 12.138 -9.014 9.629 -3.828 5.105 C-2.007 3.045 -2.007 3.045 0 0 Z " fill="#FBFBFB" transform="translate(552,391)"/>
<path d="M0 0 C2.104 1.566 2.883 2.487 3.469 5.059 C3.633 17.586 -3.786 28.612 -9.5 39.377 C-21.317 61.743 -30.47 84.227 -36 109 C-36.364 110.611 -36.364 110.611 -36.734 112.254 C-38.797 122.988 -39.179 134.116 -40 145 C-40.99 145.33 -41.98 145.66 -43 146 C-43.402 133.277 -42.332 120.631 -41.401 107.952 C-41.126 104.207 -40.861 100.462 -40.598 96.717 C-38.096 61.76 -38.096 61.76 -34 46 C-33.701 44.774 -33.402 43.548 -33.094 42.285 C-29.23 26.94 -23.713 10.704 -10.242 1.148 C-6.505 -0.766 -4.13 -0.712 0 0 Z " fill="#2F2C2E" transform="translate(108,400)"/>
<path d="M0 0 C1.932 1.202 3.741 2.448 5.516 3.871 C5.516 2.551 5.516 1.231 5.516 -0.129 C8.816 -0.129 12.116 -0.129 15.516 -0.129 C15.54 6.119 15.558 12.367 15.571 18.615 C15.576 20.742 15.582 22.87 15.591 24.997 C15.603 28.047 15.609 31.098 15.613 34.148 C15.618 35.106 15.624 36.063 15.629 37.049 C15.629 37.93 15.629 38.811 15.629 39.719 C15.631 40.498 15.634 41.277 15.636 42.08 C15.516 43.871 15.516 43.871 14.516 44.871 C12.52 45.074 12.52 45.074 10.078 45.121 C9.275 45.147 8.472 45.173 7.645 45.199 C6.942 45.091 6.239 44.983 5.516 44.871 C4.856 43.881 4.196 42.891 3.516 41.871 C2.402 42.531 1.288 43.191 0.141 43.871 C-4.773 46.28 -9.094 46.963 -14.484 45.871 C-20.96 43.003 -24.55 39.21 -27.484 32.871 C-27.839 32.27 -28.193 31.67 -28.559 31.051 C-30.785 25.809 -30.349 18.807 -28.762 13.418 C-25.931 7.413 -21.463 2.74 -15.566 -0.395 C-10.445 -2.201 -4.959 -2.253 0 0 Z " fill="#323031" transform="translate(768.484375,297.12890625)"/>
<path d="M0 0 C1.926 1.094 1.926 1.094 4.738 3.094 C5.398 2.104 6.058 1.114 6.738 0.094 C9.708 0.094 12.678 0.094 15.738 0.094 C15.738 14.944 15.738 29.794 15.738 45.094 C11.283 45.589 11.283 45.589 6.738 46.094 C6.408 44.444 6.078 42.794 5.738 41.094 C5.265 41.455 4.792 41.816 4.305 42.188 C-0.966 45.887 -4.869 47.09 -11.262 46.094 C-16.914 44.926 -20.489 42.617 -24.008 38.043 C-28.695 30.756 -29.231 23.429 -27.637 15.031 C-25.95 9.121 -22.147 4.057 -17.074 0.594 C-11.859 -1.996 -5.383 -2.157 0 0 Z " fill="#302E2F" transform="translate(547.26171875,296.90625)"/>
<path d="M0 0 C1.918 1.213 3.73 2.463 5.5 3.883 C5.5 2.563 5.5 1.243 5.5 -0.117 C8.47 -0.117 11.44 -0.117 14.5 -0.117 C14.5 14.733 14.5 29.583 14.5 44.883 C11.53 44.883 8.56 44.883 5.5 44.883 C5.005 42.903 5.005 42.903 4.5 40.883 C3.825 41.424 3.825 41.424 3.137 41.977 C-1.757 45.507 -5.706 46.741 -11.754 46.422 C-18.157 45.165 -22.881 41.371 -26.562 36.07 C-30.082 28.86 -30.13 18.78 -27.613 11.219 C-21.958 1.486 -11.098 -4.96 0 0 Z " fill="#302D2E" transform="translate(343.5,297.1171875)"/>
<path d="M0 0 C2.25 0.25 2.25 0.25 4 1 C3.349 4.828 2.217 8.198 0.812 11.812 C-6.736 33.06 -9.238 53.893 -10.497 76.235 C-10.878 82.96 -11.291 89.684 -11.727 96.406 C-11.773 97.126 -11.819 97.846 -11.867 98.588 C-12.719 111.556 -14.473 124.251 -17 137 C-17.196 138.007 -17.393 139.015 -17.595 140.052 C-25.465 180.238 -25.465 180.238 -35 191 C-37.176 192.238 -37.176 192.238 -39 193 C-41 191 -41 191 -41.262 187.781 C-40.994 183.908 -40.208 181.108 -38.812 177.5 C-38.354 176.266 -37.895 175.033 -37.422 173.762 C-36.948 172.508 -36.474 171.254 -36 170 C-24.246 138.643 -21.818 105.276 -20 72.125 C-17.038 18.733 -17.038 18.733 -1.957 1.691 C-1.311 1.133 -0.665 0.575 0 0 Z " fill="#313031" transform="translate(230,647)"/>
<path d="M0 0 C3.683 0.1 4.994 0.995 7.812 3.438 C10 6 10 6 10 8 C12.084 7.913 14.167 7.804 16.25 7.688 C17.41 7.629 18.57 7.571 19.766 7.512 C23.189 6.97 24.383 6.131 27 4 C30.688 3.75 30.688 3.75 34 4 C35 5 35 5 35.062 8.492 C35.038 10.694 35 12.896 34.961 15.098 C34.925 18.343 34.965 20.896 36 24 C36.545 29.672 35.456 33.52 32 38 C28.486 41.83 25.259 43.624 20 44 C19.974 44.666 19.948 45.333 19.922 46.02 C19.596 51.308 18.88 55.801 16.938 60.75 C15.267 65.024 14.336 68.352 15 73 C15.987 74.343 16.986 75.677 18 77 C17.759 80.37 17.412 81.588 15 84 C11.897 84.473 8.76 84.37 5.625 84.375 C4.329 84.412 4.329 84.412 3.008 84.449 C-0.881 84.467 -3.265 84.473 -6.586 82.336 C-8.352 79.419 -8.411 77.636 -8.25 74.25 C-8.214 73.265 -8.178 72.28 -8.141 71.266 C-8.094 70.518 -8.048 69.77 -8 69 C-6.68 69 -5.36 69 -4 69 C-3.505 74.445 -3.505 74.445 -3 80 C-0.69 79.67 1.62 79.34 4 79 C3.464 78.484 2.928 77.969 2.375 77.438 C1 75 1 75 1.812 71.25 C2.204 70.178 2.596 69.105 3 68 C3.743 68 4.485 68 5.25 68 C8.365 67.186 8.365 67.186 10.125 63.625 C13.309 56.444 15.135 48.788 16 41 C16.675 40.769 17.351 40.539 18.047 40.301 C25.325 37.79 25.325 37.79 30 32 C30.606 27.361 29.997 22.857 29.375 18.25 C28.912 14.625 29.2 12.283 31 9 C30.154 9.66 29.309 10.32 28.438 11 C22.679 14.299 15.375 14.138 9 13 C6.227 10.59 6.227 10.59 4 8 C3.01 7.34 2.02 6.68 1 6 C0.986 7.016 0.972 8.032 0.957 9.078 C0.681 18.602 -0.187 27.956 -6.375 35.727 C-8.391 37.306 -10.16 37.878 -12.625 38.562 C-13.955 38.941 -13.955 38.941 -15.312 39.328 C-17.745 39.936 -20.156 40.384 -22.625 40.812 C-30.261 42.445 -35.463 47.95 -40 54 C-42.535 59.069 -41.125 66.655 -40 72 C-40.99 72.495 -40.99 72.495 -42 73 C-41.196 73.804 -40.391 74.609 -39.562 75.438 C-38.375 76.625 -37.188 77.812 -36 79 C-34.438 79.087 -32.873 79.107 -31.309 79.098 C-30.364 79.094 -29.42 79.091 -28.447 79.088 C-26.957 79.075 -26.957 79.075 -25.438 79.062 C-24.44 79.058 -23.443 79.053 -22.416 79.049 C-19.944 79.037 -17.472 79.021 -15 79 C-17.007 75.989 -17.839 75.37 -21 74 C-21 73.34 -21 72.68 -21 72 C-18.03 71.505 -18.03 71.505 -15 71 C-15.33 70.01 -15.66 69.02 -16 68 C-17.915 68.122 -17.915 68.122 -20 69 C-21.771 71.479 -21.771 71.479 -23 74 C-24.485 73.505 -24.485 73.505 -26 73 C-25.802 68.753 -25.245 67.256 -22.25 64.125 C-19 62 -19 62 -16.312 61.5 C-13.461 62.117 -12.718 62.648 -11 65 C-10.531 68.18 -10.531 68.18 -10.5 71.875 C-10.469 73.089 -10.438 74.304 -10.406 75.555 C-11 79 -11 79 -12.848 81.91 C-17.478 84.98 -21.502 84.695 -26.938 84.562 C-27.914 84.573 -28.89 84.584 -29.896 84.596 C-35.746 84.536 -39.437 84.011 -44 80 C-49.382 72.873 -49.726 66.727 -49 58 C-48.149 54.913 -46.858 52.594 -45 50 C-44.526 49.323 -44.051 48.646 -43.562 47.949 C-38.007 40.858 -29.751 36.093 -21 34 C-19.438 33.867 -17.876 33.743 -16.312 33.625 C-12.91 33.315 -12.91 33.315 -10.125 31.438 C-9.754 30.633 -9.382 29.829 -9 29 C-8.464 27.866 -7.928 26.731 -7.375 25.562 C-5.642 20.802 -5.593 16.022 -5.309 11.004 C-4.829 6.333 -3.28 3.28 0 0 Z " fill="#444243" transform="translate(314,373)"/>
<path d="M0 0 C0.027 1.792 0.046 3.583 0.062 5.375 C0.074 6.373 0.086 7.37 0.098 8.398 C0 11 0 11 -1 13 C-4.271 14.725 -7.58 16.321 -10.922 17.902 C-18.081 21.363 -22.229 24.16 -25.017 31.827 C-27.138 38.673 -28.731 45.639 -30.312 52.625 C-30.605 53.904 -30.605 53.904 -30.903 55.209 C-35.106 73.68 -38.436 92.257 -41.497 110.948 C-42.05 114.303 -42.612 117.656 -43.175 121.01 C-44.234 127.313 -45.28 133.618 -46.317 139.924 C-46.726 142.408 -47.139 144.891 -47.555 147.374 C-48.139 150.877 -48.71 154.381 -49.277 157.887 C-49.452 158.918 -49.627 159.948 -49.807 161.01 C-51.46 171.405 -51.413 181.582 -50 192 C-50.99 192 -51.98 192 -53 192 C-53.786 186.402 -54.182 180.947 -54.238 175.297 C-54.248 174.474 -54.258 173.652 -54.268 172.805 C-54.599 137.764 -49.987 104.236 -44.255 69.73 C-43.531 65.347 -42.839 60.963 -42.201 56.567 C-42.072 55.678 -41.942 54.789 -41.809 53.872 C-41.568 52.201 -41.332 50.528 -41.1 48.855 C-39.147 35.276 -35.997 21.718 -25.145 12.59 C-21.108 9.598 -16.657 7.395 -12.188 5.125 C-11.234 4.627 -10.281 4.13 -9.299 3.617 C-2.288 0 -2.288 0 0 0 Z " fill="#FAF9FA" transform="translate(788,832)"/>
<path d="M0 0 C10.454 3.285 15.864 11.597 20.723 20.831 C25.163 29.812 27.575 39.322 30 49 C30.392 50.49 30.787 51.98 31.184 53.469 C33.008 60.412 34.531 67.349 35.605 74.449 C35.86 76.094 36.16 77.733 36.516 79.359 C37.137 82.747 37.363 86.13 37.562 89.562 C37.605 90.261 37.647 90.959 37.691 91.678 C38.038 97.787 38.104 103.881 38 110 C37.01 110.33 36.02 110.66 35 111 C34.905 110.403 34.81 109.806 34.712 109.19 C31.003 83.823 31.003 83.823 22 60 C21.571 59.135 21.141 58.27 20.699 57.379 C14.561 45.45 5.996 36.748 -3.653 27.595 C-9.221 22.201 -13.973 16.907 -14.562 8.812 C-14 5 -14 5 -12.062 2 C-7.885 -0.728 -4.854 -0.862 0 0 Z " fill="#312E2F" transform="translate(26,437)"/>
<path d="M0 0 C2.918 1.967 4.594 3.476 5.52 6.949 C6.234 16.204 0.44 23.46 -5.206 30.202 C-8.589 34.142 -12.052 37.994 -15.613 41.773 C-25.62 52.402 -33.608 63.939 -39.27 77.402 C-41 80 -41 80 -44.199 80.879 C-45.586 80.939 -45.586 80.939 -47 81 C-45.108 54.393 -34.857 23.252 -14.688 4.75 C-10.072 1.078 -6.015 -0.877 0 0 Z " fill="#2E2C2D" transform="translate(117,462)"/>
<path d="M0 0 C8.445 4.128 13.075 12.117 16.25 20.625 C16.847 22.412 17.432 24.203 18 26 C18.371 27.114 18.742 28.228 19.125 29.375 C21.92 40.953 22.316 52.151 22.261 64.003 C22.25 66.759 22.261 69.514 22.273 72.27 C22.272 74.049 22.27 75.829 22.266 77.609 C22.27 78.419 22.274 79.229 22.278 80.063 C22.233 85.597 21.398 90.648 20 96 C17.782 93.782 17.634 93.078 17.105 90.098 C16.957 89.299 16.809 88.501 16.657 87.679 C16.502 86.815 16.347 85.952 16.188 85.062 C12.016 63.284 6.629 44.7 -6.469 26.557 C-11.107 20.113 -15.076 14.303 -14 6 C-10.324 0.363 -6.681 -1.2 0 0 Z " fill="#322F30" transform="translate(42,393)"/>
<path d="M0 0 C1.031 0.206 2.062 0.413 3.125 0.625 C3.139 1.375 3.153 2.125 3.168 2.898 C3.511 10.262 4.659 16.582 9.125 22.625 C11.77 24.476 13.358 24.638 16.645 24.828 C20.125 25.625 20.125 25.625 22.199 28.609 C22.764 29.853 23.301 31.109 23.812 32.375 C25.796 36.961 27.927 40.751 31.125 44.625 C31.125 45.285 31.125 45.945 31.125 46.625 C27.543 47.941 23.959 49.252 20.375 50.562 C19.359 50.936 18.343 51.309 17.297 51.693 C16.317 52.051 15.337 52.409 14.328 52.777 C13.427 53.107 12.527 53.437 11.599 53.777 C9.451 54.513 7.336 55.117 5.125 55.625 C4.545 54.817 3.965 54.009 3.367 53.176 C-2.818 44.664 -7.628 38.982 -17.875 35.625 C-19.102 20.625 -19.102 20.625 -16.305 16.066 C-14.25 14.188 -14.25 14.188 -12.027 12.473 C-9.475 10.282 -8.342 8.104 -6.812 5.125 C-4.358 0.703 -4.358 0.703 0 0 Z " fill="#FCFBFC" transform="translate(618.875,722.375)"/>
<path d="M0 0 C3.739 1.338 6.175 3.91 9 6.625 C13.951 11.236 19 14.833 24.762 18.406 C25.5 18.932 26.239 19.458 27 20 C27 20.66 27 21.32 27 22 C14.806 24.755 2.585 26.704 -9.812 28.25 C-10.513 28.339 -11.213 28.427 -11.934 28.518 C-13.962 28.773 -15.99 29.021 -18.02 29.266 C-19.196 29.408 -20.373 29.55 -21.585 29.696 C-25.045 30.004 -28.527 30 -32 30 C-32 23.07 -32 16.14 -32 9 C-29.463 8.608 -26.926 8.216 -24.312 7.812 C-15.701 6.38 -7.843 3.922 0 0 Z " fill="#F6F6F6" transform="translate(32,756)"/>
<path d="M0 0 C0.713 0.31 1.426 0.621 2.161 0.941 C9.401 3.42 16.693 3.06 24.257 2.984 C26.771 2.96 29.285 2.963 31.8 2.97 C33.417 2.964 35.035 2.957 36.653 2.948 C37.766 2.95 37.766 2.95 38.901 2.951 C43.6 2.888 47.575 2.13 52.079 0.648 C54.755 -0.188 54.755 -0.188 57.079 -0.352 C59.247 1.046 59.247 1.046 61.266 3.023 C63.941 5.664 63.941 5.664 67.079 7.648 C67.079 8.308 67.079 8.968 67.079 9.648 C50.849 16.238 35.653 19.593 18.079 18.648 C17.392 18.616 16.706 18.583 15.998 18.55 C9.019 18.015 2.623 15.792 -3.984 13.585 C-5.135 13.208 -6.287 12.831 -7.474 12.443 C-10.292 11.519 -13.108 10.587 -15.921 9.648 C-15.921 8.988 -15.921 8.328 -15.921 7.648 C-14.908 7.159 -14.908 7.159 -13.874 6.659 C-12.982 6.222 -12.09 5.785 -11.171 5.335 C-10.289 4.906 -9.408 4.477 -8.499 4.034 C-5.917 2.769 -5.917 2.769 -4.015 0.98 C-1.921 -0.352 -1.921 -0.352 0 0 Z " fill="#F9F9F9" transform="translate(360.921142578125,747.352294921875)"/>
<path d="M0 0 C3.825 1.826 6.796 3.997 9.578 7.242 C8.136 10.608 6.245 12.753 3.578 15.242 C-1.132 13.41 -1.132 13.41 -3.359 12.117 C-6.261 10.886 -8.297 10.86 -11.422 11.242 C-14.597 13.335 -16.306 15.069 -18.422 18.242 C-19.04 22.527 -18.879 26.219 -17.109 30.18 C-15.411 32.461 -15.411 32.461 -12.422 34.242 C-6.446 34.83 -6.446 34.83 -1.234 32.117 C-0.306 31.498 0.622 30.88 1.578 30.242 C4.852 31.004 6.769 32.369 9.578 34.242 C9.014 37.715 7.97 39.155 5.266 41.367 C4.671 41.865 4.077 42.362 3.465 42.875 C-2.229 47.001 -7.546 46.932 -14.422 46.242 C-21.119 44.484 -25.005 40.086 -28.422 34.242 C-31.383 28.178 -31.139 21.841 -30.422 15.242 C-28.072 8.58 -22.466 3.728 -16.566 0.102 C-11.515 -1.923 -5.139 -1.608 0 0 Z " fill="#323032" transform="translate(724.421875,296.7578125)"/>
<path d="M0 0 C4.33 1.777 7.902 4.497 11 8 C11 9.938 11 9.938 10 12 C7.438 14.25 7.438 14.25 5 16 C1 14 1 14 -0.875 12.875 C-3.773 11.682 -5.888 11.682 -9 12 C-12.806 13.73 -14.437 15.168 -16 19 C-16.75 23.798 -16.431 27.195 -14.125 31.5 C-11.293 34.832 -10.675 34.944 -6.25 35.312 C-1.724 35.288 0.518 33.786 4 31 C7.366 32.443 9.51 34.333 12 37 C8.523 41.501 5.585 45.242 0 47 C-7.399 47.836 -13.928 47.621 -20 43 C-25.132 38.269 -27.587 33.706 -28.371 26.668 C-28.517 19.007 -28.272 12.9 -23 7 C-15.532 0.922 -9.655 -1.1 0 0 Z " fill="#312F30" transform="translate(503,296)"/>
<path d="M0 0 C2.961 1.702 5.327 3.642 7.562 6.25 C6.12 9.616 4.23 11.76 1.562 14.25 C-2.438 12.25 -2.438 12.25 -4.312 11.125 C-7.211 9.932 -9.326 9.932 -12.438 10.25 C-15.516 11.579 -17.021 12.556 -18.75 15.438 C-19.946 20.331 -20.244 24.483 -18.125 29.125 C-16.44 31.47 -16.44 31.47 -13.438 33.25 C-7.613 33.903 -7.613 33.903 -2.688 31.188 C-1.945 30.548 -1.202 29.909 -0.438 29.25 C2.944 29.352 5.007 31.151 7.562 33.25 C7.343 37.085 6.622 38.192 3.812 40.938 C-2.445 45.39 -7.895 46.087 -15.438 45.25 C-21.544 43.504 -26.106 39.619 -29.438 34.25 C-32.422 26.954 -33.254 17.885 -30.34 10.449 C-23.746 -0.013 -11.816 -5.664 0 0 Z " fill="#323031" transform="translate(302.4375,297.75)"/>
<path d="M0 0 C3.63 0 7.26 0 11 0 C11 4.95 11 9.9 11 15 C14.63 15 18.26 15 22 15 C22 18.3 22 21.6 22 25 C18.37 25 14.74 25 11 25 C11.14 28.625 11.287 32.25 11.438 35.875 C11.477 36.908 11.516 37.94 11.557 39.004 C11.599 39.99 11.64 40.976 11.684 41.992 C11.72 42.903 11.757 43.815 11.795 44.753 C11.866 47.035 11.866 47.035 13 49 C14.895 49.465 14.895 49.465 17.062 49.625 C19.012 49.811 19.012 49.811 21 50 C21.33 52.64 21.66 55.28 22 58 C18.273 60.795 15.46 61.472 10.926 61.293 C6.812 60.667 3.568 58.179 1 55 C-0.774 51.28 -1.239 48.367 -1.195 44.262 C-1.189 43.195 -1.182 42.128 -1.176 41.029 C-1.159 39.927 -1.142 38.824 -1.125 37.688 C-1.116 36.565 -1.107 35.443 -1.098 34.287 C-1.074 31.525 -1.041 28.762 -1 26 C-2.98 26 -4.96 26 -7 26 C-7 22.37 -7 18.74 -7 15 C-4.69 15 -2.38 15 0 15 C0 10.05 0 5.1 0 0 Z " fill="#2F2C2E" transform="translate(577,282)"/>
<path d="M0 0 C3.63 0 7.26 0 11 0 C11 4.95 11 9.9 11 15 C14.63 15 18.26 15 22 15 C22 18.3 22 21.6 22 25 C18.37 25 14.74 25 11 25 C11.14 28.813 11.287 32.625 11.438 36.438 C11.477 37.526 11.516 38.615 11.557 39.736 C11.599 40.771 11.64 41.805 11.684 42.871 C11.72 43.829 11.757 44.788 11.795 45.775 C11.758 47.971 11.758 47.971 13 49 C14.347 49.231 15.704 49.412 17.062 49.562 C18.362 49.707 19.661 49.851 21 50 C22.192 52.523 23.036 54.372 22.875 57.188 C21.688 59.647 20.504 59.977 18 61 C13.701 61.749 9.673 61.981 5.828 59.727 C3.393 57.664 1.434 55.869 0 53 C-0.085 50.895 -0.107 48.787 -0.098 46.68 C-0.094 45.423 -0.091 44.166 -0.088 42.871 C-0.08 41.552 -0.071 40.234 -0.062 38.875 C-0.057 37.535 -0.053 36.195 -0.049 34.855 C-0.037 31.57 -0.021 28.285 0 25 C-2.64 25 -5.28 25 -8 25 C-8 21.7 -8 18.4 -8 15 C-5.36 15 -2.72 15 0 15 C0 10.05 0 5.1 0 0 Z " fill="#2E2B2D" transform="translate(798,282)"/>
<path d="M0 0 C3.63 0 7.26 0 11 0 C11 4.95 11 9.9 11 15 C14.63 15 18.26 15 22 15 C22 18.3 22 21.6 22 25 C18.37 25 14.74 25 11 25 C11.33 32.92 11.66 40.84 12 49 C14.97 49.33 17.94 49.66 21 50 C23 54 23 54 22.938 56.625 C22 59 22 59 19.938 60.312 C14.483 61.589 10.686 61.827 5.688 59.375 C1.881 56.012 0.182 53.244 -0.237 48.077 C-0.295 44.588 -0.261 41.113 -0.188 37.625 C-0.174 36.412 -0.16 35.199 -0.146 33.949 C-0.111 30.966 -0.062 27.983 0 25 C-2.31 25 -4.62 25 -7 25 C-7 21.7 -7 18.4 -7 15 C-4.69 15 -2.38 15 0 15 C0 10.05 0 5.1 0 0 Z " fill="#2D2A2C" transform="translate(372,282)"/>
<path d="M0 0 C3.208 0.584 3.795 0.718 5.812 3.5 C8.693 6.792 10.77 6.53 15 7 C17.29 10.435 17.178 11.985 17 16 C17.66 16 18.32 16 19 16 C17.67 24.127 13.877 30.157 7.188 35.062 C5 36 5 36 3 36 C2.794 37.134 2.587 38.269 2.375 39.438 C0.878 45.5 -2.792 50.299 -6.695 55.074 C-8.294 57.035 -8.294 57.035 -7.938 60.062 C-8 63 -8 63 -9.485 64.652 C-13.021 66.547 -16.389 66.487 -20.309 66.504 C-21.112 66.514 -21.916 66.524 -22.744 66.534 C-24.441 66.549 -26.138 66.556 -27.835 66.556 C-30.426 66.562 -33.013 66.617 -35.604 66.674 C-37.255 66.683 -38.907 66.689 -40.559 66.691 C-41.33 66.713 -42.101 66.735 -42.895 66.757 C-45.838 66.719 -48.25 66.592 -50.615 64.725 C-52.828 62.192 -53.953 60.256 -54.562 56.938 C-53.87 53.322 -52.544 51.619 -50 49 C-49.01 48.505 -49.01 48.505 -48 48 C-47.918 46.701 -47.835 45.401 -47.75 44.062 C-47.116 36.964 -43.379 31.121 -38.125 26.438 C-35.292 23.188 -35.842 21.233 -36.062 17.094 C-36 15 -36 15 -34.438 12.438 C-31.108 10.474 -28.801 10.585 -25 11 C-24.01 11.66 -23.02 12.32 -22 13 C-20.068 12.767 -20.068 12.767 -18 12 C-16.737 11.658 -16.737 11.658 -15.449 11.309 C-8.284 9.049 -4.349 6.115 0 0 Z M1 4 C0.278 5.052 -0.444 6.104 -1.188 7.188 C-5.675 12.36 -11.427 14.516 -18 16 C-22.426 16.097 -26.636 15.721 -31 15 C-31.33 15.66 -31.66 16.32 -32 17 C-30.35 17.66 -28.7 18.32 -27 19 C-26.639 23.449 -26.639 23.449 -28.188 25.812 C-30 27 -30 27 -32.383 26.793 C-35.14 26.73 -35.14 26.73 -36.949 28.906 C-41.872 36.251 -44.452 41.956 -44 51 C-44.619 51.289 -45.238 51.577 -45.875 51.875 C-48.133 52.937 -48.133 52.937 -50 55 C-50.333 57.5 -50.333 57.5 -50 60 C-48.213 62.214 -48.213 62.214 -45.836 62.195 C-45.024 62.172 -44.212 62.149 -43.375 62.125 C-42.558 62.107 -41.74 62.089 -40.898 62.07 C-40.272 62.047 -39.645 62.024 -39 62 C-38.711 61.361 -38.423 60.721 -38.125 60.062 C-37 58 -37 58 -35 57 C-35 58.65 -35 60.3 -35 62 C-30.05 62 -25.1 62 -20 62 C-20 61.01 -20 60.02 -20 59 C-18.845 58.897 -17.69 58.794 -16.5 58.688 C-11.074 57.314 -8.826 53.621 -5.801 49.156 C-4.021 46.036 -2.745 42.989 -1.5 39.625 C0.455 34.472 2.332 32.475 7.195 30.016 C9.793 28.554 10.837 26.689 12 24 C12 23.34 12 22.68 12 22 C11.34 22 10.68 22 10 22 C10 20.35 10 18.7 10 17 C10.99 17 11.98 17 13 17 C13 15.02 13 13.04 13 11 C11.948 10.773 10.896 10.546 9.812 10.312 C5.84 9.206 3.704 7.114 1 4 Z " fill="#474446" transform="translate(551,387)"/>
<path d="M0 0 C16.81 8.576 24.416 29.601 30.168 46.414 C31.631 51.4 32.346 55.811 32 61 C30.02 61.495 30.02 61.495 28 62 C27.165 60.333 27.165 60.333 26.312 58.633 C18.059 42.432 7.852 30.271 -6.617 19.141 C-9.623 16.44 -11.606 13.908 -12.434 9.902 C-12.44 6.601 -12.208 4.347 -10.5 1.5 C-7.001 -0.599 -3.918 -0.738 0 0 Z " fill="#302E2F" transform="translate(27,489)"/>
<path d="M0 0 C0.66 0 1.32 0 2 0 C3.339 2.678 3.414 5.08 3.727 8.062 C5.926 27.688 9.641 46.244 16.031 65.004 C18.003 70.853 19.552 76.753 21 82.75 C21.517 84.855 22.034 86.961 22.551 89.066 C22.798 90.08 23.045 91.093 23.299 92.137 C24.082 95.336 24.883 98.529 25.692 101.721 C26.178 103.652 26.65 105.586 27.121 107.52 C27.666 109.676 28.254 111.823 28.91 113.949 C32.267 125.645 31.263 137.949 31 150 C30.01 149.67 29.02 149.34 28 149 C26.738 146.475 26.636 144.352 26.352 141.539 C26.233 140.427 26.114 139.314 25.992 138.168 C25.751 135.845 25.514 133.523 25.281 131.199 C24.461 123.578 23.05 116.381 21 109 C20.736 108.024 20.471 107.047 20.199 106.042 C19.376 103.024 18.535 100.011 17.688 97 C17.383 95.914 17.078 94.828 16.764 93.709 C14.9 87.101 12.983 80.511 11 73.938 C10.761 73.141 10.523 72.344 10.277 71.523 C8.944 67.082 7.576 62.655 6.176 58.234 C0.769 40.869 -4.17 21.372 -2 3 C-1.34 2.01 -0.68 1.02 0 0 Z " fill="#F0EFF0" transform="translate(806,643)"/>
<path d="M0 0 C2.56 3.841 2.342 6.981 2.312 11.438 C2.306 12.746 2.306 12.746 2.3 14.082 C2 32.437 -0.783 50.739 -3.729 68.827 C-3.895 69.843 -4.06 70.859 -4.23 71.906 C-4.379 72.796 -4.527 73.686 -4.68 74.604 C-5.088 77.258 -5.088 77.258 -5 81 C-4.625 80.555 -4.25 80.111 -3.863 79.652 C-2.313 77.938 -0.84 76.401 1 75 C3.875 75.125 3.875 75.125 6 76 C5.547 80.816 3.543 83.003 0.25 86.438 C-2.581 89.421 -5.338 92.339 -7.812 95.625 C-10.23 98.25 -11.484 98.799 -15 99 C-15.226 91.602 -14.335 84.674 -13.188 77.375 C-11.608 66.909 -10.389 56.475 -9.438 45.938 C-6.562 14.585 -6.562 14.585 -2 2 C-1.34 2 -0.68 2 0 2 C0 1.34 0 0.68 0 0 Z " fill="#363335" transform="translate(674,820)"/>
<path d="M0 0 C0.99 0 1.98 0 3 0 C4.318 2.637 4.127 4.616 4.141 7.57 C4.411 27.493 6.489 46.884 9.162 66.617 C10.301 75.099 11.143 83.498 11.125 92.062 C11.128 93.332 11.13 94.602 11.133 95.91 C11 99 11 99 10 101 C7.03 101 4.06 101 1 101 C-1.134 79.287 -2.309 57.698 -2.312 35.875 C-2.316 34.828 -2.319 33.78 -2.322 32.701 C-2.343 21.634 -2.275 10.877 0 0 Z " fill="#2C2A2B" transform="translate(961,923)"/>
<path d="M0 0 C3.709 1.958 6.127 4.254 8 8 C8.573 14.991 8.573 14.991 6.438 18.75 C3.478 21.482 0.571 23.146 -3 25 C-2.344 28.61 -2.344 28.61 -1 32 C0.068 40.008 -3.441 48.349 -7.988 54.836 C-10 57 -10 57 -12.938 58 C-16.588 58 -17.927 56.844 -21 55 C-24.09 54.918 -24.09 54.918 -27 56 C-27.639 56.681 -28.279 57.361 -28.938 58.062 C-31 60 -31 60 -34.375 60.5 C-39.878 59.741 -43.153 57.132 -46.75 53.062 C-50.845 47.489 -51.868 42.822 -51 36 C-47.15 22.066 -37.723 11.62 -25.347 4.522 C-17.047 0.097 -9.473 -1.965 0 0 Z M-34 15 C-35.556 18.053 -35.556 18.053 -35 21 C-33.52 23.563 -33.52 23.563 -31 25 C-27.668 24.808 -27.668 24.808 -25 23 C-24.959 21 -24.957 19 -25 17 C-24.34 17.33 -23.68 17.66 -23 18 C-22.75 21.312 -22.75 21.312 -23 25 C-25.046 27.349 -26.409 27.879 -29.438 28.5 C-33.113 27.783 -34.572 25.756 -37 23 C-37.66 22.34 -38.32 21.68 -39 21 C-44.819 28.023 -47.454 33.506 -47.348 42.656 C-46.552 48.022 -43.18 51.791 -39.5 55.562 C-37.119 57.208 -37.119 57.208 -34.5 57 C-31.855 56.107 -31.855 56.107 -29.688 53.938 C-25.843 51.166 -23.688 51.554 -19 52 C-17.652 52.637 -16.314 53.296 -15 54 C-12.972 53.846 -12.972 53.846 -11 53 C-7.472 47.227 -4.883 40.744 -4 34 C-5.263 31.198 -5.263 31.198 -7 29 C-6.918 26.074 -6.918 26.074 -6 23 C-3.715 21.164 -3.715 21.164 -0.938 19.625 C2.716 17.419 2.716 17.419 4.766 13.883 C4.833 10.827 4.403 8.568 2.625 6.062 C-8.569 -1.257 -25.754 6.261 -34 15 Z " fill="#434043" transform="translate(659,392)"/>
<path d="M0 0 C3 1 3 1 4.125 2.688 C6.212 8.204 6.16 13.89 6.168 19.703 C6.171 20.54 6.175 21.376 6.178 22.238 C6.183 24.01 6.185 25.782 6.185 27.554 C6.187 30.2 6.206 32.846 6.225 35.492 C6.27 49.212 5.568 62.72 2.438 76.125 C0.674 83.713 0.292 91.242 0 99 C-2.64 99 -5.28 99 -8 99 C-8.294 93.505 -7.816 88.7 -6.688 83.312 C-2.18 60.742 -1.61 37.791 -1.291 14.856 C-1.277 13.944 -1.263 13.032 -1.249 12.092 C-1.224 10.363 -1.204 8.633 -1.189 6.903 C-1.111 1.111 -1.111 1.111 0 0 Z " fill="#302E2F" transform="translate(791,925)"/>
<path d="M0 0 C3 1 3 1 4 3 C4.232 4.534 4.415 6.076 4.573 7.62 C4.673 8.583 4.773 9.547 4.876 10.539 C4.98 11.591 5.084 12.643 5.191 13.727 C5.301 14.821 5.411 15.915 5.523 17.043 C5.755 19.378 5.984 21.714 6.212 24.049 C6.554 27.535 6.912 31.02 7.271 34.504 C9.004 51.878 10.541 69.633 8 87 C5.03 87 2.06 87 -1 87 C-1.023 75.804 -1.041 64.609 -1.052 53.413 C-1.057 48.215 -1.064 43.017 -1.075 37.819 C-1.086 32.807 -1.092 27.795 -1.095 22.783 C-1.097 20.866 -1.1 18.949 -1.106 17.033 C-1.113 14.358 -1.114 11.683 -1.114 9.008 C-1.117 8.207 -1.121 7.407 -1.124 6.582 C-1.114 1.114 -1.114 1.114 0 0 Z " fill="#292728" transform="translate(305,937)"/>
<path d="M0 0 C2.09 3.536 2.567 6.904 3.188 10.938 C6.085 27.597 12.836 43.319 18.865 59.034 C23.272 70.575 27.28 82.221 31 94 C31.239 94.755 31.477 95.509 31.723 96.287 C33.614 102.341 35.227 107.616 35 114 C33.35 114 31.7 114 30 114 C27.991 108.804 26.252 103.616 24.75 98.25 C20.985 85.225 16.589 72.53 11.143 60.109 C6.235 48.871 3.016 38.188 1.296 26.041 C1.051 24.353 0.741 22.674 0.414 21 C-0.157 16.864 -0.106 12.794 -0.062 8.625 C-0.058 7.794 -0.053 6.962 -0.049 6.105 C-0.037 4.07 -0.019 2.035 0 0 Z " fill="#F0F0F0" transform="translate(78,910)"/>
<path d="M0 0 C0.66 0 1.32 0 2 0 C1.449 5.057 0.627 9.715 -0.75 14.625 C-2.936 22.836 -4.314 31.185 -5.688 39.562 C-5.796 40.223 -5.904 40.883 -6.016 41.563 C-6.693 45.706 -7.359 49.851 -8 54 C-8.276 55.569 -8.276 55.569 -8.557 57.17 C-9.167 62.442 -9.143 67.659 -9.133 72.961 C-9.134 74.106 -9.135 75.251 -9.136 76.431 C-9.136 78.847 -9.135 81.262 -9.13 83.678 C-9.125 87.356 -9.13 91.033 -9.137 94.711 C-9.136 97.065 -9.135 99.419 -9.133 101.773 C-9.135 102.864 -9.137 103.955 -9.139 105.079 C-9.121 111.136 -8.79 116.994 -8 123 C-8.66 123 -9.32 123 -10 123 C-10.649 119.98 -11.294 116.959 -11.938 113.938 C-12.12 113.09 -12.302 112.242 -12.49 111.369 C-12.667 110.534 -12.845 109.7 -13.027 108.84 C-13.19 108.081 -13.352 107.321 -13.519 106.539 C-15.151 97.92 -15.242 89.422 -15.25 80.688 C-15.251 79.912 -15.252 79.137 -15.253 78.338 C-15.231 53.262 -14.468 21.702 0 0 Z " fill="#F2F2F2" transform="translate(83,824)"/>
<path d="M0 0 C0 1.32 0 2.64 0 4 C-1.042 4.268 -2.083 4.536 -3.156 4.812 C-21.854 9.835 -40.343 17.89 -51 35 C-55.153 42.613 -57.886 50.383 -60.121 58.742 C-61.242 62.896 -62.598 66.934 -64 71 C-64.33 71 -64.66 71 -65 71 C-67.907 57.193 -64.784 43.465 -57.613 31.418 C-46.189 14.296 -21.32 -1.099 0 0 Z " fill="#F2F2F2" transform="translate(1024,634)"/>
<path d="M0 0 C2.268 1.927 3.289 3.557 4.688 6.25 C6.369 9.347 8.269 11.223 11 13.438 C17.38 18.738 20.442 26.251 21.239 34.463 C22.333 56.717 22.333 56.717 16 64 C14.678 65.015 13.346 66.017 12 67 C11.925 66.211 11.85 65.421 11.772 64.608 C9.649 42.567 7.195 21.074 0 0 Z " fill="#E8E8E8" transform="translate(45,622)"/>
<path d="M0 0 C20.329 0.449 38.17 2.003 55.754 13.085 C58.207 15.839 58.207 15.839 59.754 18.085 C56.765 16.659 54.037 15.001 51.254 13.21 C37.9 5.119 20.707 2.472 5.372 5.566 C-3.457 8.022 -11.12 12.354 -18.246 18.085 C-19.298 18.828 -20.35 19.57 -21.434 20.335 C-27.374 26.143 -31.234 33.862 -35.246 41.085 C-36.896 39.765 -38.546 38.445 -40.246 37.085 C-38.752 31.257 -35.732 26.887 -32.246 22.085 C-31.827 21.486 -31.408 20.886 -30.977 20.269 C-24.608 11.976 -14.397 6.291 -5.074 1.96 C-1.063 0.04 -1.063 0.04 0 0 Z " fill="#F2F2F3" transform="translate(676.246337890625,633.914794921875)"/>
<path d="M0 0 C2.757 1.795 4.004 2.96 5.688 5.75 C6.129 8.625 6.129 8.625 6.25 11.75 C6.407 17.081 6.407 17.081 8.688 21.75 C11.172 23.352 11.172 23.352 14.062 24.688 C21.72 28.722 21.72 28.722 23.688 32.75 C24.425 36.638 24.613 40.107 22.629 43.629 C20.222 46.592 18.313 48.549 14.48 49.023 C13.621 49.057 12.761 49.09 11.875 49.125 C11.023 49.174 10.171 49.223 9.293 49.273 C4.503 48.311 2.245 44.499 -0.551 40.742 C-1.235 39.714 -1.92 38.685 -2.625 37.625 C-3.322 36.591 -4.02 35.557 -4.738 34.492 C-6.312 31.75 -6.312 31.75 -6.312 28.75 C-1.171 30.424 1.013 35.48 3.625 39.871 C5.926 43.504 5.926 43.504 9.693 45.214 C12.91 45.257 15.644 44.765 18.688 43.75 C20.007 37.922 20.007 37.922 18.312 32.5 C15.963 30.934 13.616 29.633 11.125 28.312 C7.388 26.324 5.415 24.744 3.688 20.75 C3.192 19.76 3.192 19.76 2.688 18.75 C2.529 15.699 2.434 12.651 2.359 9.598 C1.954 6.581 1.954 6.581 -0.594 4.902 C-5.432 2.852 -9.717 2.827 -14.684 4.594 C-21.046 7.77 -25.148 12.421 -28.312 18.75 C-28.539 20.454 -28.721 22.163 -28.875 23.875 C-28.959 24.785 -29.043 25.695 -29.129 26.633 C-29.189 27.331 -29.25 28.03 -29.312 28.75 C-29.973 28.75 -30.632 28.75 -31.312 28.75 C-33.354 24.666 -32.859 20.46 -31.512 16.246 C-28.012 8.37 -22.406 3.597 -14.75 -0.188 C-9.423 -1.834 -5.341 -2.016 0 0 Z " fill="#413D3F" transform="translate(430.3125,400.25)"/>
<path d="M0 0 C4.851 0.854 9.328 2.435 13.965 4.062 C26.918 8.063 42.241 7.087 55 3 C56.58 2.593 58.163 2.195 59.75 1.812 C60.822 1.544 61.895 1.276 63 1 C63 4.63 63 8.26 63 12 C42.54 12 22.08 12 1 12 C-0.074 7.704 -0.073 4.398 0 0 Z " fill="#FAFAFA" transform="translate(530,744)"/>
<path d="M0 0 C3.698 2.694 6.459 5.825 7.578 10.324 C7.828 15.586 6.53 18.98 3 23 C-0.408 25.585 -3.841 25.438 -8 25 C-11.548 22.792 -13.398 20.812 -15 17 C-15.77 12.993 -15.878 9.452 -13.727 5.895 C-9.553 0.958 -6.74 -0.994 0 0 Z " fill="#F7F7F7" transform="translate(545,307)"/>
<path d="M0 0 C2.875 0.841 4.702 2.244 6.422 4.707 C8.049 8.621 7.866 12.523 7.23 16.652 C5.663 20.337 3.793 22.772 0.23 24.652 C-3.123 25.149 -5.54 25.393 -8.52 23.598 C-10.709 21.818 -12.498 20.195 -13.77 17.652 C-14.275 12.508 -14.634 8.113 -11.957 3.59 C-7.676 -0.202 -5.488 -0.797 0 0 Z " fill="#FAFAFA" transform="translate(764.76953125,307.34765625)"/>
<path d="M0 0 C3.226 2.079 4.867 3.8 7 7 C7.74 11.998 7.518 15.964 5.25 20.5 C2.022 24.087 0.36 24.773 -4.375 25.562 C-8.77 24.881 -10.257 23.749 -12.891 20.266 C-15.013 15.931 -14.961 11.665 -14 7 C-10.715 0.826 -6.755 -0.572 0 0 Z " fill="#F9F9F9" transform="translate(340,307)"/>
<path d="M0 0 C2.449 0.109 2.449 0.109 5 1 C9.91 6.674 10.716 13.627 10.434 20.867 C9.68 26.313 7.917 31.083 4 35 C0.5 35.25 0.5 35.25 -3 35 C-5.66 32.34 -5.287 30.298 -5.329 26.676 C-5.323 25.834 -5.318 24.992 -5.312 24.125 C-5.31 23.271 -5.307 22.417 -5.304 21.537 C-5.033 5.033 -5.033 5.033 0 0 Z " fill="#F6F5F6" transform="translate(130,621)"/>
<path d="M0 0 C0.99 0 1.98 0 3 0 C3.026 0.773 3.052 1.547 3.078 2.344 C3.513 10.33 4.43 16.527 10.312 22.25 C13.068 24.117 13.068 24.117 16.5 25.75 C20.653 28.045 23.337 31.565 25 36 C24.625 38.25 24.625 38.25 24 40 C18.28 40.511 14.698 40.052 9.945 36.734 C3.074 30.608 -2.663 20.793 -4.445 11.738 C-4.728 6.792 -3.207 3.665 0 0 Z " fill="#F2F2F2" transform="translate(482,688)"/>
<path d="M0 0 C5.623 0.381 8.966 0.736 13 5 C15.876 9.109 16.045 12.205 16.062 17.062 C16.129 20.204 16.129 20.204 17 23 C19.364 24.834 21.624 25.726 24.414 26.785 C29.151 29.01 31.715 33.43 34 38 C34.811 44.236 34.303 48.997 30.637 54.176 C26.986 58.245 22.009 62.766 16.391 63.203 C15.354 63.219 14.318 63.234 13.25 63.25 C12.224 63.276 11.198 63.302 10.141 63.328 C6.345 62.932 4.184 62.118 1 60 C-0.697 57.664 -2.04 55.58 -3.375 53.062 C-3.907 52.131 -3.907 52.131 -4.449 51.182 C-6.323 47.785 -7 45.963 -7 42 C-6.34 42 -5.68 42 -5 42 C-3.624 44.06 -2.359 46.107 -1.125 48.25 C2.247 54.185 2.247 54.185 7 59 C12.339 60.202 17.639 59.656 22.438 57 C26.442 54.089 28.553 50.702 30 46 C30.71 41.504 30.285 39.551 28.188 35.5 C25.705 32.286 22.792 30.546 19.312 28.5 C14.198 25.41 14.198 25.41 12.375 21.625 C12.172 19.665 11.982 17.702 11.863 15.734 C11.556 11.605 11.367 9.508 8.875 6.062 C5.507 3.646 3.021 2.867 -1 2 C-0.67 1.34 -0.34 0.68 0 0 Z " fill="#464144" transform="translate(428,394)"/>
<path d="M0 0 C5.836 2.132 9.12 4.24 12 10 C13.11 18.322 9.046 26.191 5.188 33.375 C0.897 38.523 -3.137 43.081 -10 44 C-9.089 36.188 -5.788 31.507 -0.996 25.504 C2.754 20.8 2.34 16.846 2 11 C1.465 7.303 0.778 3.653 0 0 Z " fill="#F3F3F3" transform="translate(628,674)"/>
<path d="M0 0 C0.99 0 1.98 0 3 0 C3.121 1.002 3.242 2.003 3.367 3.035 C3.536 4.378 3.705 5.72 3.875 7.062 C3.954 7.719 4.032 8.376 4.113 9.053 C4.686 13.523 5.722 17.667 7 22 C7.253 23.559 7.483 25.122 7.688 26.688 C8.822 33.363 11.188 39.588 13.524 45.919 C15.119 50.279 16.447 54.358 17 59 C15.02 59.495 15.02 59.495 13 60 C-0.057 45.142 -1.941 19.815 -1 1 C-0.67 0.67 -0.34 0.34 0 0 Z " fill="#3D393B" transform="translate(624,951)"/>
<path d="M0 0 C3.704 2.027 5.654 3.48 8 7 C8 7.99 8 8.98 8 10 C9.547 9.876 9.547 9.876 11.125 9.75 C16.433 10.092 19.018 12.217 22.875 15.688 C24.704 19.448 24.852 22.921 24 27 C21.839 30.818 19.208 33.338 15.375 35.438 C13 36 13 36 9 36 C9 35.01 9 34.02 9 33 C9.554 32.746 10.109 32.492 10.68 32.23 C11.404 31.886 12.129 31.542 12.875 31.188 C13.954 30.683 13.954 30.683 15.055 30.168 C17.305 29.005 17.305 29.005 19 26 C19.528 21.407 19.528 21.407 17.836 17.293 C15.267 15.483 13.419 15.703 10.312 15.812 C9.319 15.84 8.325 15.867 7.301 15.895 C6.162 15.947 6.162 15.947 5 16 C4.856 14.907 4.711 13.814 4.562 12.688 C4.117 9.069 4.117 9.069 3 6 C-2.495 4.893 -2.495 4.893 -7.812 6.062 C-10.468 8.414 -11.63 10.755 -13 14 C-13.66 14 -14.32 14 -15 14 C-15.312 10.812 -15.312 10.812 -15 7 C-10.552 1.59 -7.061 -0.718 0 0 Z " fill="#484547" transform="translate(761,378)"/>
<path d="M0 0 C0.66 0.33 1.32 0.66 2 1 C1.457 1.895 0.915 2.789 0.355 3.711 C-3.768 10.632 -7.203 17.069 -9 25 C-9.252 25.88 -9.252 25.88 -9.51 26.778 C-10.093 29.423 -10.216 31.933 -10.316 34.641 C-10.358 35.711 -10.4 36.78 -10.443 37.883 C-10.502 39.55 -10.502 39.55 -10.562 41.25 C-10.606 42.377 -10.649 43.503 -10.693 44.664 C-10.799 47.443 -10.901 50.221 -11 53 C-13.815 51.592 -14.378 49.573 -15.395 46.703 C-18.286 33.793 -15.848 20.17 -9 9 C-6.314 5.349 -3.782 2.521 0 0 Z " fill="#403C40" transform="translate(764,602)"/>
<path d="M0 0 C1.905 -0.002 1.905 -0.002 3.848 -0.004 C5.166 -0 6.485 0.004 7.844 0.008 C9.822 0.002 9.822 0.002 11.84 -0.004 C13.11 -0.003 14.379 -0.001 15.688 0 C17.423 0.002 17.423 0.002 19.193 0.003 C22.033 0.12 24.584 0.482 27.344 1.133 C27.344 3.113 27.344 5.093 27.344 7.133 C0.18 6.352 0.18 6.352 -10.656 4.133 C-10.986 3.143 -11.316 2.153 -11.656 1.133 C-7.715 0.203 -4.045 0.004 0 0 Z " fill="#2F2D30" transform="translate(996.65625,816.8671875)"/>
<path d="M0 0 C1.176 0.082 2.351 0.165 3.562 0.25 C4.222 1.24 4.883 2.23 5.562 3.25 C4.242 3.58 2.923 3.91 1.562 4.25 C1.562 3.59 1.562 2.93 1.562 2.25 C0.572 2.745 0.572 2.745 -0.438 3.25 C-0.768 4.24 -1.097 5.23 -1.438 6.25 C2.54 6.983 2.54 6.983 6.562 7.25 C6.954 6.734 7.346 6.219 7.75 5.688 C9.562 4.25 9.562 4.25 13.25 4.562 C14.343 4.789 15.436 5.016 16.562 5.25 C17.891 11.651 17.891 11.651 16.5 14.188 C13.8 15.668 11.587 15.452 8.562 15.25 C8.232 14.26 7.903 13.27 7.562 12.25 C7.047 12.745 6.531 13.24 6 13.75 C2.756 15.746 0.3 15.466 -3.438 15.25 C-4.097 13.93 -4.758 12.61 -5.438 11.25 C-2.798 11.58 -0.158 11.91 2.562 12.25 C2.562 11.59 2.562 10.93 2.562 10.25 C1.799 10.147 1.036 10.044 0.25 9.938 C-2.659 9.193 -3.818 8.77 -5.438 6.25 C-4.99 1.547 -4.861 0.354 0 0 Z " fill="#424042" transform="translate(726.4375,470.75)"/>
<path d="M0 0 C-0.33 1.65 -0.66 3.3 -1 5 C-2.011 4.918 -3.021 4.835 -4.062 4.75 C-9.89 5.12 -13.117 7.358 -17.438 11.125 C-19.747 15.375 -19.918 19.271 -19 24 C-16.565 27.158 -14.3 28.8 -11 31 C-11 31.66 -11 32.32 -11 33 C-14.871 32.73 -16.706 32.241 -19.75 29.75 C-22.807 26.013 -23.808 23.453 -24.438 18.688 C-23.735 12.762 -20.844 8.796 -16.625 4.688 C-11.055 1.107 -6.65 -0.407 0 0 Z " fill="#504C4E" transform="translate(428,407)"/>
<path d="M0 0 C3.562 1.894 6.313 3.963 8.812 7.188 C8.434 9.344 8.434 9.344 7.812 11.188 C7.388 10.789 6.964 10.391 6.527 9.98 C-3.274 1.127 -13.314 0.613 -26.188 1.188 C-29.304 1.657 -32.148 2.334 -35.188 3.188 C-35.188 2.528 -35.188 1.867 -35.188 1.188 C-23.375 -5.323 -12.271 -5.644 0 0 Z " fill="#464244" transform="translate(539.1875,604.8125)"/>
<path d="M0 0 C0.073 1.359 0.073 1.359 0.148 2.746 C0.577 9.727 1.357 16.211 3 23 C3 24.32 3 25.64 3 27 C0.75 27 0.75 27 -2 26 C-6.352 20.001 -6.494 14.449 -6.629 7.172 C-6 4 -6 4 -3.527 1.578 C-1 0 -1 0 0 0 Z " fill="#F3F3F3" transform="translate(634,716)"/>
<path d="M0 0 C0.62 10.805 0.62 10.805 -1.688 15.25 C-4 17 -4 17 -6.75 17.312 C-7.493 17.209 -8.235 17.106 -9 17 C-9.33 15.68 -9.66 14.36 -10 13 C-8.35 13 -6.7 13 -5 13 C-5.897 12.845 -5.897 12.845 -6.812 12.688 C-9.39 11.877 -10.431 11.197 -12 9 C-12.419 6.203 -12.415 4.683 -10.938 2.25 C-7.637 0.121 -3.862 0 0 0 Z " fill="#4C4A4B" transform="translate(438,475)"/>
<path d="M0 0 C0.701 0.722 1.403 1.444 2.125 2.188 C4.928 4.998 7.923 7.495 11 10 C6.266 14.892 6.266 14.892 2.062 15.25 C-1 15 -1 15 -2.875 13.938 C-4.674 10.839 -4.423 8.507 -4 5 C-2 2.062 -2 2.062 0 0 Z " fill="#F5F5F5" transform="translate(721,430)"/>
<path d="M0 0 C1.828 0.098 1.828 0.098 4 1 C5.484 3.871 5.484 3.871 6.75 7.438 C7.178 8.612 7.606 9.786 8.047 10.996 C9 14 9 14 9 16 C7.68 15.67 6.36 15.34 5 15 C5 14.34 5 13.68 5 13 C1.568 13.264 1.568 13.264 -2 14 C-2.99 15.485 -2.99 15.485 -4 17 C-4.66 17 -5.32 17 -6 17 C-5.345 12.942 -4.054 9.46 -2.438 5.688 C-1.755 4.085 -1.755 4.085 -1.059 2.449 C-0.535 1.237 -0.535 1.237 0 0 Z " fill="#504E4F" transform="translate(416,471)"/>
<path d="M0 0 C1.32 0.33 2.64 0.66 4 1 C3.01 2.021 3.01 2.021 2 3.062 C-0.462 6.679 -0.486 8.707 0 13 C1.853 15.255 1.853 15.255 4.688 15.375 C9.005 14.886 11.358 13.331 15 11 C14.679 13.968 14.473 15.552 12.266 17.641 C8.39 19.966 4.377 19.677 0 19 C-2.576 17.115 -3.597 15.807 -5 13 C-5.681 7.094 -5.681 7.094 -3.883 4.207 C-2.655 2.746 -1.333 1.366 0 0 Z " fill="#444244" transform="translate(718,429)"/>
<path d="M0 0 C0.33 0 0.66 0 1 0 C1.21 6.792 0.742 13.096 -0.625 19.75 C-0.797 20.608 -0.97 21.466 -1.147 22.351 C-2.807 30.06 -5.496 36.944 -9 44 C-9.33 44 -9.66 44 -10 44 C-9.404 36.89 -7.938 30.313 -6.062 23.438 C-5.532 21.457 -5.002 19.477 -4.473 17.496 C-4.094 16.09 -4.094 16.09 -3.708 14.656 C-2.764 11.113 -1.877 7.559 -1 4 C-0.667 2.667 -0.334 1.333 0 0 Z " fill="#EDEDED" transform="translate(318,756)"/>
<path d="M0 0 C0.66 0 1.32 0 2 0 C3.376 2.06 4.641 4.107 5.875 6.25 C9.211 12.233 9.211 12.233 14 17 C17.274 17.483 17.274 17.483 20.75 17.25 C21.92 17.214 23.091 17.178 24.297 17.141 C25.189 17.094 26.081 17.048 27 17 C26.67 18.32 26.34 19.64 26 21 C24.126 21.082 22.25 21.14 20.375 21.188 C19.331 21.222 18.287 21.257 17.211 21.293 C13.356 20.941 11.223 20.155 8 18 C6.303 15.664 4.96 13.58 3.625 11.062 C3.271 10.442 2.916 9.821 2.551 9.182 C0.677 5.785 0 3.963 0 0 Z " fill="#433E41" transform="translate(421,436)"/>
<path d="M0 0 C0 3.63 0 7.26 0 11 C-7.388 11.363 -7.388 11.363 -10 9.812 C-11.367 7.335 -11.418 5.788 -11 3 C-8.632 -1.293 -4.308 -0.212 0 0 Z " fill="#3A3739" transform="translate(317,476)"/>
<path d="M0 0 C3.563 0.668 4.749 1.791 7 4.562 C3.686 5.667 2.321 5.262 -1 4.562 C-2.356 5.688 -2.356 5.688 -2.062 8.625 C-2.042 9.594 -2.021 10.564 -2 11.562 C-1.257 11.562 -0.515 11.562 0.25 11.562 C2.5 11.562 4.75 11.562 7 11.562 C6 14.562 6 14.562 4 15.562 C0.126 15.921 -2.149 16.13 -5.438 13.938 C-7.484 10.827 -7.598 9.226 -7 5.562 C-5.001 2.026 -4.039 0.757 0 0 Z " fill="#434143" transform="translate(298,471.4375)"/>
<path d="M0 0 C5.623 0.381 8.966 0.736 13 5 C16.344 9.777 16.487 14.538 16.789 20.195 C16.97 22.602 17.326 24.692 18 27 C16.125 26.438 16.125 26.438 14 25 C12.466 21.043 11.955 17.589 11.688 13.375 C11.342 9.939 11.002 9.003 8.875 6.062 C5.507 3.646 3.021 2.867 -1 2 C-0.67 1.34 -0.34 0.68 0 0 Z " fill="#4B474A" transform="translate(428,394)"/>
<path d="M0 0 C0.99 0.103 1.98 0.206 3 0.312 C5 3.312 5 3.312 4.688 6.938 C4 10.312 4 10.312 3 11.312 C0.125 11.625 0.125 11.625 -3 11.312 C-4.938 9.625 -4.938 9.625 -6 7.312 C-5.677 2.785 -4.801 0.5 0 0 Z " fill="#3F3D3E" transform="translate(445,475.6875)"/>
<path d="M0 0 C1.03 0.343 2.06 0.686 3.121 1.039 C10.906 3.829 19.261 6.891 24 14 C21.011 12.573 18.283 10.916 15.5 9.125 C5.934 3.328 -4.286 1.039 -15.312 0.438 C-16.053 0.394 -16.794 0.351 -17.557 0.307 C-19.371 0.201 -21.185 0.1 -23 0 C-23 -0.33 -23 -0.66 -23 -1 C-14.972 -1.845 -7.722 -2.604 0 0 Z " fill="#C0C0C3" transform="translate(712,638)"/>
<path d="M0 0 C6.055 -0.195 6.055 -0.195 8 0 C10 2 10 2 10.195 4.164 C10.172 4.976 10.149 5.788 10.125 6.625 C10.107 7.442 10.089 8.26 10.07 9.102 C10.036 10.041 10.036 10.041 10 11 C9.01 11 8.02 11 7 11 C7 8.03 7 5.06 7 2 C6.01 2.33 5.02 2.66 4 3 C3.67 5.64 3.34 8.28 3 11 C2.01 11 1.02 11 0 11 C0 7.37 0 3.74 0 0 Z " fill="#302C2F" transform="translate(758,475)"/>
<path d="M0 0 C0.66 0 1.32 0 2 0 C2 2.64 2 5.28 2 8 C3.32 7.67 4.64 7.34 6 7 C6.33 4.69 6.66 2.38 7 0 C7.99 0 8.98 0 10 0 C10 3.63 10 7.26 10 11 C3.066 11.098 3.066 11.098 1 11 C0 10 0 10 -0.098 7.715 C-0.086 6.798 -0.074 5.882 -0.062 4.938 C-0.053 4.018 -0.044 3.099 -0.035 2.152 C-0.024 1.442 -0.012 0.732 0 0 Z " fill="#423E41" transform="translate(746,475)"/>
<path d="M0 0 C0.598 0.165 1.196 0.33 1.812 0.5 C4.113 1.111 4.113 1.111 7 1 C7.222 3.741 7.348 5.44 5.875 7.812 C3.225 9.491 1.068 9.205 -2 9 C-2.688 7.312 -2.688 7.312 -3 5 C-1.562 2.25 -1.562 2.25 0 0 Z " fill="#3B393A" transform="translate(737,477)"/>
<path d="M0 0 C3 0 3 0 4.688 1.5 C5.121 1.995 5.554 2.49 6 3 C5.67 3.99 5.34 4.98 5 6 C4.34 6 3.68 6 3 6 C3 7.65 3 9.3 3 11 C3.99 11.33 4.98 11.66 6 12 C6 12.66 6 13.32 6 14 C4.35 14 2.7 14 1 14 C-0.478 11.043 -0.06 8.258 0 5 C-0.66 4.67 -1.32 4.34 -2 4 C-1.34 2.68 -0.68 1.36 0 0 Z " fill="#3E3A3C" transform="translate(320,473)"/>
<path d="M0 0 C7.466 -0.367 7.466 -0.367 10 1.375 C11 3 11 3 11 5 C5.39 4.67 -0.22 4.34 -6 4 C-6 3.67 -6 3.34 -6 3 C-4.02 3 -2.04 3 0 3 C0 2.01 0 1.02 0 0 Z " fill="#423F40" transform="translate(533,591)"/>
<path d="M0 0 C0 0.66 0 1.32 0 2 C-0.762 2.159 -1.524 2.317 -2.309 2.48 C-9.295 4.059 -14.934 6.219 -21 10 C-21.99 10.495 -21.99 10.495 -23 11 C-20.856 5.242 -15.221 3.518 -10 1 C-6.202 -0.588 -3.912 -1.505 0 0 Z " fill="#424043" transform="translate(525,594)"/>
<path d="M0 0 C1.32 0.33 2.64 0.66 4 1 C4 1.66 4 2.32 4 3 C4.66 3.33 5.32 3.66 6 4 C4.125 7.875 4.125 7.875 3 9 C1 9.041 -1 9.043 -3 9 C-3.33 8.34 -3.66 7.68 -4 7 C-1.525 7.495 -1.525 7.495 1 8 C0.649 7.423 0.299 6.845 -0.062 6.25 C-1.149 3.642 -0.931 2.606 0 0 Z " fill="#3D3B3D" transform="translate(333,398)"/>
<path d="M0 0 C0.667 1.333 1.333 2.667 2 4 C2.392 4.681 2.784 5.361 3.188 6.062 C4 8 4 8 3 11 C2.529 10.59 2.059 10.18 1.574 9.758 C0.952 9.219 0.329 8.68 -0.312 8.125 C-0.927 7.591 -1.542 7.058 -2.176 6.508 C-4.135 4.836 -4.135 4.836 -7 3 C-5.546 2.814 -5.546 2.814 -4.062 2.625 C-2.547 2.316 -2.547 2.316 -1 2 C-0.67 1.34 -0.34 0.68 0 0 Z " fill="#403D3F" transform="translate(545,593)"/>
<path d="M0 0 C4.958 -0.292 8.028 -0.129 12 3 C12 3.66 12 4.32 12 5 C7.71 4.34 3.42 3.68 -1 3 C-0.67 2.01 -0.34 1.02 0 0 Z " fill="#484547" transform="translate(632,426)"/>
<path d="M0 0 C0.66 0 1.32 0 2 0 C4.875 6.625 4.875 6.625 6 10 C3.625 9.75 3.625 9.75 1 9 C-0.375 7.25 -0.375 7.25 -1 5 C-0.625 2.25 -0.625 2.25 0 0 Z " fill="#E4E3E4" transform="translate(321,443)"/>
<path d="M0 0 C1.98 0.99 1.98 0.99 4 2 C3.67 4.97 3.34 7.94 3 11 C2.01 11 1.02 11 0 11 C0 7.37 0 3.74 0 0 Z " fill="#3E393E" transform="translate(758,475)"/>
<path d="M0 0 C0 3.63 0 7.26 0 11 C-0.66 11 -1.32 11 -2 11 C-3.607 7.785 -3.057 4.564 -3 1 C-1 0 -1 0 0 0 Z " fill="#4F4A4E" transform="translate(401,418)"/>
<path d="M0 0 C-0.33 0.66 -0.66 1.32 -1 2 C-7.6 1.67 -14.2 1.34 -21 1 C-21 0.67 -21 0.34 -21 0 C-6.219 -1.333 -6.219 -1.333 0 0 Z " fill="#A8A9AC" transform="translate(710,637)"/>
<path d="M0 0 C3.625 0.375 3.625 0.375 7 1 C7 2.65 7 4.3 7 6 C6.587 5.484 6.175 4.969 5.75 4.438 C4.111 2.759 4.111 2.759 1.938 3.125 C-0.351 3.953 -0.351 3.953 -2 7 C-2.125 4.625 -2.125 4.625 -2 2 C-1.34 1.34 -0.68 0.68 0 0 Z " fill="#221F21" transform="translate(736,475)"/>
<path d="M0 0 C1.32 0.33 2.64 0.66 4 1 C4 1.99 4 2.98 4 4 C3.031 4.124 2.061 4.248 1.062 4.375 C-0.453 4.684 -0.453 4.684 -2 5 C-2.33 5.66 -2.66 6.32 -3 7 C-3.33 6.34 -3.66 5.68 -4 5 C-2.68 3.35 -1.36 1.7 0 0 Z " fill="#E7E6E7" transform="translate(295,440)"/>
<path d="M0 0 C1.98 0.495 1.98 0.495 4 1 C3.67 2.65 3.34 4.3 3 6 C1.68 5.67 0.36 5.34 -1 5 C-0.67 3.35 -0.34 1.7 0 0 Z " fill="#E4E5E5" transform="translate(737,477)"/>
<path d="M0 0 C1.675 0.286 3.344 0.618 5 1 C5.33 2.65 5.66 4.3 6 6 C3.69 6 1.38 6 -1 6 C0.32 5.67 1.64 5.34 3 5 C2.041 2.669 2.041 2.669 -1 1 C-0.67 0.67 -0.34 0.34 0 0 Z " fill="#232020" transform="translate(444,476)"/>
<path d="M0 0 C6.75 -0.125 6.75 -0.125 9 1 C8.67 1.99 8.34 2.98 8 4 C3.545 3.01 3.545 3.01 -1 2 C-0.67 1.34 -0.34 0.68 0 0 Z " fill="#4D484C" transform="translate(631,432)"/>
<path d="M0 0 C1.938 0.812 1.938 0.812 4 2 C4.33 2.99 4.66 3.98 5 5 C2.03 4.505 2.03 4.505 -1 4 C-1.66 4.99 -2.32 5.98 -3 7 C-2.25 2.25 -2.25 2.25 0 0 Z " fill="#807F81" transform="translate(442,476)"/>
<path d="M0 0 C1.98 0.495 1.98 0.495 4 1 C4 2.32 4 3.64 4 5 C2.35 5 0.7 5 -1 5 C-0.67 3.35 -0.34 1.7 0 0 Z " fill="#EAEAEB" transform="translate(310,479)"/>
<path d="M0 0 C2.31 0 4.62 0 7 0 C6.67 0.99 6.34 1.98 6 3 C1.25 4.125 1.25 4.125 -1 3 C-0.67 2.01 -0.34 1.02 0 0 Z " fill="#29272B" transform="translate(531,445)"/>
<path d="M0 0 C1.98 0.495 1.98 0.495 4 1 C4 2.32 4 3.64 4 5 C2.35 4.67 0.7 4.34 -1 4 C-0.67 2.68 -0.34 1.36 0 0 Z " fill="#EAEAEA" transform="translate(430,479)"/>
<path d="M0 0 C2.475 0.495 2.475 0.495 5 1 C5 1.99 5 2.98 5 4 C3.68 4.33 2.36 4.66 1 5 C0.67 3.35 0.34 1.7 0 0 Z " fill="#696969" transform="translate(519,404)"/>
<path d="M0 0 C0.66 0.33 1.32 0.66 2 1 C0.719 2.707 -0.618 4.374 -2 6 C-2.66 6 -3.32 6 -4 6 C-4.99 6.66 -5.98 7.32 -7 8 C-5.509 4.205 -3.243 2.39 0 0 Z " fill="#5B565A" transform="translate(764,602)"/>
<path d="M0 0 C0.33 0 0.66 0 1 0 C1.33 2.97 1.66 5.94 2 9 C1.01 9 0.02 9 -1 9 C-1.125 2.25 -1.125 2.25 0 0 Z " fill="#E8E8E8" transform="translate(736,1015)"/>
<path d="M0 0 C0.33 0 0.66 0 1 0 C1.049 0.782 1.098 1.565 1.148 2.371 C1.223 3.383 1.298 4.395 1.375 5.438 C1.445 6.447 1.514 7.456 1.586 8.496 C1.723 9.322 1.859 10.149 2 11 C2.66 11.33 3.32 11.66 4 12 C2.68 12.33 1.36 12.66 0 13 C0 8.71 0 4.42 0 0 Z " fill="#A29F9F" transform="translate(68,532)"/>
<path d="M0 0 C0.66 0 1.32 0 2 0 C2.66 2.64 3.32 5.28 4 8 C3.34 8 2.68 8 2 8 C0.235 4.912 0 3.767 0 0 Z " fill="#3E3B3E" transform="translate(270,437)"/>
<path d="M0 0 C1.98 0 3.96 0 6 0 C6.66 1.32 7.32 2.64 8 4 C2.25 2.25 2.25 2.25 0 0 Z " fill="#DFDFDF" transform="translate(536,592)"/>
<path d="M0 0 C2.31 0.33 4.62 0.66 7 1 C7 1.66 7 2.32 7 3 C4.36 2.67 1.72 2.34 -1 2 C-0.67 1.34 -0.34 0.68 0 0 Z " fill="#635E61" transform="translate(428,394)"/>
</svg>