<svg version="1.1" xmlns="http://www.w3.org/2000/svg" width="1024" height="1024">
<path d="M0 0 C337.92 0 675.84 0 1024 0 C1024 337.92 1024 675.84 1024 1024 C686.08 1024 348.16 1024 0 1024 C0 686.08 0 348.16 0 0 Z " fill="#FEFEFE" transform="translate(0,0)"/>
<path d="M0 0 C3.723 0.011 7.446 0 11.169 -0.013 C13.565 -0.011 15.962 -0.009 18.358 -0.005 C19.456 -0.009 20.554 -0.013 21.686 -0.017 C27.527 0.018 32.93 0.472 38.626 1.791 C41.32 2.382 43.983 2.619 46.726 2.842 C91.002 6.495 91.002 6.495 99.768 15.261 C101.801 15.364 103.837 15.395 105.873 15.399 C106.521 15.402 107.168 15.405 107.836 15.408 C110.033 15.416 112.231 15.418 114.429 15.419 C116.009 15.424 117.59 15.429 119.171 15.434 C123.535 15.448 127.9 15.455 132.264 15.461 C136.963 15.469 141.662 15.483 146.361 15.496 C154.508 15.518 162.656 15.536 170.804 15.552 C182.585 15.574 194.365 15.602 206.146 15.632 C225.257 15.68 244.368 15.723 263.479 15.763 C282.049 15.803 300.618 15.844 319.188 15.888 C320.332 15.891 321.476 15.894 322.654 15.897 C328.392 15.91 334.129 15.924 339.867 15.938 C387.501 16.052 435.134 16.158 482.768 16.261 C482.768 64.771 482.768 113.281 482.768 163.261 C474.848 163.591 466.928 163.921 458.768 164.261 C441.456 166.691 424.367 170.287 407.236 173.755 C392.932 176.649 378.607 179.41 364.254 182.053 C363.527 182.188 362.8 182.323 362.051 182.462 C360.116 182.822 358.181 183.178 356.245 183.534 C352.692 184.277 349.251 185.24 345.768 186.261 C344.003 186.585 342.232 186.878 340.456 187.136 C335.264 187.951 330.194 189.064 325.081 190.261 C316.368 192.28 307.663 193.405 298.768 194.261 C299.045 194.924 299.322 195.587 299.607 196.27 C304.914 209.058 309.894 221.674 313.219 235.125 C313.776 237.29 314.395 239.427 315.034 241.569 C317.859 251.239 319.628 260.909 321.018 270.886 C321.181 272.052 321.345 273.218 321.513 274.42 C323.545 289.944 324.003 305.495 324.018 321.136 C324.02 321.978 324.021 322.821 324.022 323.688 C324.015 343.864 322.176 363.543 317.768 383.261 C317.308 385.719 316.85 388.177 316.393 390.636 C307.551 434.353 287.863 477.847 260.768 513.261 C260.222 513.988 259.675 514.715 259.112 515.464 C245.715 533.032 230.762 550.094 213.768 564.261 C213.009 564.909 212.25 565.558 211.468 566.226 C198.11 577.435 183.754 587.364 168.768 596.261 C168.148 596.631 167.529 597.002 166.89 597.383 C150.088 607.35 132.298 616.04 113.768 622.261 C112.649 622.641 111.529 623.022 110.375 623.414 C107.082 624.529 103.783 625.628 100.481 626.717 C99.165 627.152 97.849 627.589 96.534 628.03 C88.673 630.653 80.877 632.755 72.764 634.409 C71.459 634.679 71.459 634.679 70.128 634.954 C68.009 635.393 65.889 635.827 63.768 636.261 C64.764 636.269 65.759 636.277 66.785 636.285 C76.159 636.363 85.532 636.45 94.905 636.548 C99.724 636.598 104.543 636.645 109.362 636.683 C114.011 636.719 118.66 636.766 123.309 636.819 C125.085 636.837 126.86 636.852 128.635 636.864 C131.118 636.881 133.601 636.91 136.084 636.942 C136.821 636.944 137.559 636.946 138.318 636.948 C142.011 637.009 143.612 637.157 146.768 639.261 C146.438 640.581 146.108 641.901 145.768 643.261 C138.251 644.219 130.782 644.584 123.209 644.815 C122.533 644.836 121.856 644.857 121.159 644.878 C100.796 645.491 80.424 645.407 60.054 645.395 C54.369 645.392 48.684 645.395 43 645.396 C33.488 645.398 23.976 645.396 14.464 645.391 C3.491 645.386 -7.482 645.387 -18.454 645.393 C-27.937 645.397 -37.42 645.398 -46.902 645.396 C-52.541 645.394 -58.179 645.394 -63.817 645.397 C-69.098 645.4 -74.38 645.398 -79.661 645.392 C-81.592 645.391 -83.523 645.391 -85.454 645.393 C-103.105 645.412 -103.105 645.412 -110.354 644.495 C-113.484 644.104 -116.62 644.04 -119.771 643.944 C-120.422 643.924 -121.074 643.903 -121.746 643.881 C-123.783 643.817 -125.82 643.758 -127.857 643.698 C-129.256 643.655 -130.656 643.611 -132.056 643.567 C-135.448 643.462 -138.84 643.36 -142.232 643.261 C-142.857 641.386 -142.857 641.386 -143.232 639.261 C-140.412 636.441 -137.712 636.953 -133.936 636.942 C-132.809 636.927 -132.809 636.927 -131.66 636.911 C-129.171 636.881 -126.682 636.864 -124.193 636.847 C-122.469 636.828 -120.746 636.808 -119.022 636.788 C-114.482 636.737 -109.941 636.697 -105.4 636.66 C-100.768 636.62 -96.137 636.569 -91.505 636.519 C-82.414 636.422 -73.323 636.337 -64.232 636.261 C-65.103 636.133 -65.975 636.006 -66.873 635.874 C-68.605 635.615 -68.605 635.615 -70.373 635.351 C-71.512 635.182 -72.652 635.013 -73.827 634.839 C-78.893 633.978 -83.754 632.617 -88.669 631.136 C-89.699 630.829 -90.728 630.522 -91.788 630.205 C-132.27 617.922 -170.357 599.028 -203.232 572.261 C-204.197 571.492 -205.163 570.724 -206.157 569.933 C-221.627 557.476 -236.876 543.528 -249.154 527.886 C-250.535 526.14 -251.963 524.431 -253.435 522.761 C-265.943 508.513 -276.255 491.922 -285.232 475.261 C-285.858 474.161 -286.485 473.062 -287.13 471.929 C-294.928 458.075 -300.737 443.153 -306.232 428.261 C-306.669 427.133 -307.106 426.005 -307.556 424.843 C-313.7 408.232 -316.927 390.614 -320.232 373.261 C-320.445 372.143 -320.659 371.025 -320.879 369.874 C-323.764 353.72 -323.531 337.303 -323.607 320.948 C-323.615 319.837 -323.623 318.726 -323.632 317.581 C-323.708 303.651 -322.953 290.249 -320.611 276.512 C-320.067 273.287 -319.603 270.051 -319.126 266.815 C-316.489 250.16 -312.534 234.264 -307.232 218.261 C-306.951 217.404 -306.67 216.547 -306.381 215.664 C-302.963 205.387 -298.671 195.543 -294.169 185.698 C-293.675 184.615 -293.18 183.532 -292.67 182.417 C-292.184 181.374 -291.698 180.331 -291.197 179.257 C-290.556 177.883 -290.556 177.883 -289.903 176.481 C-287.556 171.959 -284.853 167.63 -282.232 163.261 C-312.262 163.261 -342.292 163.261 -373.232 163.261 C-373.211 172.232 -373.19 181.202 -373.168 190.445 C-373.104 219.135 -373.06 247.824 -373.027 276.514 C-373.022 280.968 -373.017 285.423 -373.012 289.878 C-373.011 290.765 -373.01 291.652 -373.009 292.566 C-372.991 306.934 -372.96 321.303 -372.923 335.671 C-372.886 350.41 -372.863 365.149 -372.855 379.888 C-372.85 388.985 -372.832 398.083 -372.8 407.181 C-372.779 413.416 -372.772 419.651 -372.778 425.886 C-372.78 429.485 -372.776 433.085 -372.755 436.684 C-372.732 440.584 -372.74 444.484 -372.751 448.384 C-372.733 450.096 -372.733 450.096 -372.715 451.842 C-372.774 459.496 -372.774 459.496 -375.137 463.441 C-378.689 466.527 -381.387 466.653 -385.97 466.616 C-389.589 466.047 -391.112 464.109 -393.232 461.261 C-394.22 458.295 -394.356 456.378 -394.355 453.284 C-394.357 452.251 -394.359 451.217 -394.361 450.152 C-394.358 449.013 -394.355 447.874 -394.352 446.701 C-394.353 445.493 -394.354 444.286 -394.355 443.042 C-394.356 439.686 -394.353 436.329 -394.348 432.972 C-394.343 429.355 -394.345 425.737 -394.346 422.12 C-394.346 415.85 -394.343 409.58 -394.337 403.311 C-394.329 394.246 -394.327 385.181 -394.325 376.116 C-394.323 361.41 -394.317 346.703 -394.307 331.997 C-394.298 317.709 -394.291 303.421 -394.287 289.134 C-394.286 288.253 -394.286 287.373 -394.286 286.466 C-394.285 282.049 -394.283 277.633 -394.282 273.216 C-394.272 236.564 -394.254 199.913 -394.232 163.261 C-395.179 163.27 -396.125 163.279 -397.101 163.288 C-406.046 163.369 -414.991 163.429 -423.936 163.468 C-428.534 163.489 -433.132 163.517 -437.73 163.562 C-442.172 163.606 -446.613 163.63 -451.055 163.64 C-452.745 163.648 -454.435 163.662 -456.126 163.684 C-474.143 163.905 -474.143 163.905 -479.232 159.261 C-484.883 153.358 -484.955 147.029 -484.895 139.204 C-484.905 138.018 -484.915 136.832 -484.926 135.609 C-484.948 132.375 -484.948 129.143 -484.936 125.909 C-484.929 123.2 -484.938 120.492 -484.946 117.783 C-484.966 111.389 -484.961 104.995 -484.938 98.6 C-484.916 92.023 -484.934 85.447 -484.972 78.87 C-485.003 73.204 -485.011 67.539 -485 61.873 C-484.993 58.498 -484.995 55.122 -485.019 51.747 C-485.039 47.979 -485.02 44.214 -484.992 40.447 C-485.006 39.341 -485.02 38.236 -485.034 37.097 C-484.923 29.656 -483.21 24.863 -478.232 19.261 C-473.346 15.538 -468.981 15.136 -462.957 15.139 C-461.011 15.136 -461.011 15.136 -459.025 15.133 C-457.581 15.137 -456.137 15.14 -454.693 15.143 C-453.162 15.143 -451.631 15.142 -450.1 15.141 C-446.766 15.139 -443.433 15.141 -440.099 15.145 C-434.674 15.151 -429.25 15.151 -423.825 15.15 C-416.968 15.149 -410.111 15.149 -403.254 15.152 C-389.763 15.157 -376.271 15.149 -362.779 15.135 C-360.654 15.133 -358.53 15.131 -356.405 15.129 C-352.102 15.125 -347.799 15.121 -343.496 15.117 C-332.428 15.106 -321.361 15.096 -310.293 15.088 C-309.183 15.087 -308.072 15.086 -306.928 15.085 C-288.965 15.072 -271.003 15.077 -253.04 15.088 C-234.581 15.098 -216.122 15.086 -197.663 15.054 C-186.29 15.034 -174.916 15.033 -163.543 15.056 C-155.732 15.07 -147.921 15.061 -140.11 15.036 C-135.613 15.022 -131.116 15.018 -126.62 15.04 C-109.135 15.12 -92.815 15.15 -76.185 8.948 C-68.103 6.105 -59.35 5.061 -50.919 3.698 C-49.855 3.526 -49.855 3.526 -48.768 3.35 C-46.259 2.961 -43.746 2.611 -41.232 2.261 C-40.106 2.087 -38.981 1.914 -37.822 1.735 C-25.229 -0.014 -12.698 -0.044 0 0 Z " fill="#C2C3C4" transform="translate(518.231689453125,244.7392578125)"/>
<path d="M0 0 C3.723 0.011 7.446 0 11.169 -0.013 C13.565 -0.011 15.962 -0.009 18.358 -0.005 C19.456 -0.009 20.554 -0.013 21.686 -0.017 C27.527 0.018 32.93 0.472 38.626 1.791 C41.32 2.382 43.983 2.619 46.726 2.842 C91.002 6.495 91.002 6.495 99.768 15.261 C101.801 15.364 103.837 15.395 105.873 15.399 C106.521 15.402 107.168 15.405 107.836 15.408 C110.033 15.416 112.231 15.418 114.429 15.419 C116.009 15.424 117.59 15.429 119.171 15.434 C123.535 15.448 127.9 15.455 132.264 15.461 C136.963 15.469 141.662 15.483 146.361 15.496 C154.508 15.518 162.656 15.536 170.804 15.552 C182.585 15.574 194.365 15.602 206.146 15.632 C225.257 15.68 244.368 15.723 263.479 15.763 C282.049 15.803 300.618 15.844 319.188 15.888 C320.332 15.891 321.476 15.894 322.654 15.897 C328.392 15.91 334.129 15.924 339.867 15.938 C387.501 16.052 435.134 16.158 482.768 16.261 C482.768 64.771 482.768 113.281 482.768 163.261 C474.848 163.591 466.928 163.921 458.768 164.261 C441.456 166.691 424.367 170.287 407.236 173.755 C392.932 176.649 378.607 179.41 364.254 182.053 C363.527 182.188 362.8 182.323 362.051 182.462 C360.116 182.822 358.181 183.178 356.245 183.534 C352.692 184.277 349.251 185.24 345.768 186.261 C344.003 186.585 342.232 186.878 340.456 187.136 C335.264 187.951 330.194 189.064 325.081 190.261 C316.368 192.28 307.663 193.405 298.768 194.261 C299.045 194.924 299.322 195.587 299.607 196.27 C304.914 209.058 309.894 221.674 313.219 235.125 C313.776 237.29 314.395 239.427 315.034 241.569 C317.859 251.239 319.628 260.909 321.018 270.886 C321.181 272.052 321.345 273.218 321.513 274.42 C323.545 289.944 324.003 305.495 324.018 321.136 C324.02 321.978 324.021 322.821 324.022 323.688 C324.015 343.864 322.176 363.543 317.768 383.261 C317.308 385.719 316.85 388.177 316.393 390.636 C307.551 434.353 287.863 477.847 260.768 513.261 C260.222 513.988 259.675 514.715 259.112 515.464 C245.715 533.032 230.762 550.094 213.768 564.261 C213.009 564.909 212.25 565.558 211.468 566.226 C198.11 577.435 183.754 587.364 168.768 596.261 C168.148 596.631 167.529 597.002 166.89 597.383 C150.088 607.35 132.298 616.04 113.768 622.261 C112.649 622.641 111.529 623.022 110.375 623.414 C107.082 624.529 103.783 625.628 100.481 626.717 C99.165 627.152 97.849 627.589 96.534 628.03 C88.673 630.653 80.877 632.755 72.764 634.409 C71.459 634.679 71.459 634.679 70.128 634.954 C68.009 635.393 65.889 635.827 63.768 636.261 C64.764 636.269 65.759 636.277 66.785 636.285 C76.159 636.363 85.532 636.45 94.905 636.548 C99.724 636.598 104.543 636.645 109.362 636.683 C114.011 636.719 118.66 636.766 123.309 636.819 C125.085 636.837 126.86 636.852 128.635 636.864 C131.118 636.881 133.601 636.91 136.084 636.942 C136.821 636.944 137.559 636.946 138.318 636.948 C142.011 637.009 143.612 637.157 146.768 639.261 C146.438 640.581 146.108 641.901 145.768 643.261 C138.251 644.219 130.782 644.584 123.209 644.815 C122.533 644.836 121.856 644.857 121.159 644.878 C100.796 645.491 80.424 645.407 60.054 645.395 C54.369 645.392 48.684 645.395 43 645.396 C33.488 645.398 23.976 645.396 14.464 645.391 C3.491 645.386 -7.482 645.387 -18.454 645.393 C-27.937 645.397 -37.42 645.398 -46.902 645.396 C-52.541 645.394 -58.179 645.394 -63.817 645.397 C-69.098 645.4 -74.38 645.398 -79.661 645.392 C-81.592 645.391 -83.523 645.391 -85.454 645.393 C-103.105 645.412 -103.105 645.412 -110.354 644.495 C-113.484 644.104 -116.62 644.04 -119.771 643.944 C-120.422 643.924 -121.074 643.903 -121.746 643.881 C-123.783 643.817 -125.82 643.758 -127.857 643.698 C-129.256 643.655 -130.656 643.611 -132.056 643.567 C-135.448 643.462 -138.84 643.36 -142.232 643.261 C-142.857 641.386 -142.857 641.386 -143.232 639.261 C-140.412 636.441 -137.712 636.953 -133.936 636.942 C-132.809 636.927 -132.809 636.927 -131.66 636.911 C-129.171 636.881 -126.682 636.864 -124.193 636.847 C-122.469 636.828 -120.746 636.808 -119.022 636.788 C-114.482 636.737 -109.941 636.697 -105.4 636.66 C-100.768 636.62 -96.137 636.569 -91.505 636.519 C-82.414 636.422 -73.323 636.337 -64.232 636.261 C-65.103 636.133 -65.975 636.006 -66.873 635.874 C-68.605 635.615 -68.605 635.615 -70.373 635.351 C-71.512 635.182 -72.652 635.013 -73.827 634.839 C-78.893 633.978 -83.754 632.617 -88.669 631.136 C-89.699 630.829 -90.728 630.522 -91.788 630.205 C-132.27 617.922 -170.357 599.028 -203.232 572.261 C-204.197 571.492 -205.163 570.724 -206.157 569.933 C-221.627 557.476 -236.876 543.528 -249.154 527.886 C-250.535 526.14 -251.963 524.431 -253.435 522.761 C-265.943 508.513 -276.255 491.922 -285.232 475.261 C-285.858 474.161 -286.485 473.062 -287.13 471.929 C-294.928 458.075 -300.737 443.153 -306.232 428.261 C-306.669 427.133 -307.106 426.005 -307.556 424.843 C-313.7 408.232 -316.927 390.614 -320.232 373.261 C-320.445 372.143 -320.659 371.025 -320.879 369.874 C-323.764 353.72 -323.531 337.303 -323.607 320.948 C-323.615 319.837 -323.623 318.726 -323.632 317.581 C-323.708 303.651 -322.953 290.249 -320.611 276.512 C-320.067 273.287 -319.603 270.051 -319.126 266.815 C-316.489 250.16 -312.534 234.264 -307.232 218.261 C-306.951 217.404 -306.67 216.547 -306.381 215.664 C-302.963 205.387 -298.671 195.543 -294.169 185.698 C-293.675 184.615 -293.18 183.532 -292.67 182.417 C-292.184 181.374 -291.698 180.331 -291.197 179.257 C-290.556 177.883 -290.556 177.883 -289.903 176.481 C-287.556 171.959 -284.853 167.63 -282.232 163.261 C-312.262 163.261 -342.292 163.261 -373.232 163.261 C-373.211 172.232 -373.19 181.202 -373.168 190.445 C-373.104 219.135 -373.06 247.824 -373.027 276.514 C-373.022 280.968 -373.017 285.423 -373.012 289.878 C-373.011 290.765 -373.01 291.652 -373.009 292.566 C-372.991 306.934 -372.96 321.303 -372.923 335.671 C-372.886 350.41 -372.863 365.149 -372.855 379.888 C-372.85 388.985 -372.832 398.083 -372.8 407.181 C-372.779 413.416 -372.772 419.651 -372.778 425.886 C-372.78 429.485 -372.776 433.085 -372.755 436.684 C-372.732 440.584 -372.74 444.484 -372.751 448.384 C-372.733 450.096 -372.733 450.096 -372.715 451.842 C-372.774 459.496 -372.774 459.496 -375.137 463.441 C-378.689 466.527 -381.387 466.653 -385.97 466.616 C-389.589 466.047 -391.112 464.109 -393.232 461.261 C-394.22 458.295 -394.356 456.378 -394.355 453.284 C-394.357 452.251 -394.359 451.217 -394.361 450.152 C-394.358 449.013 -394.355 447.874 -394.352 446.701 C-394.353 445.493 -394.354 444.286 -394.355 443.042 C-394.356 439.686 -394.353 436.329 -394.348 432.972 C-394.343 429.355 -394.345 425.737 -394.346 422.12 C-394.346 415.85 -394.343 409.58 -394.337 403.311 C-394.329 394.246 -394.327 385.181 -394.325 376.116 C-394.323 361.41 -394.317 346.703 -394.307 331.997 C-394.298 317.709 -394.291 303.421 -394.287 289.134 C-394.286 288.253 -394.286 287.373 -394.286 286.466 C-394.285 282.049 -394.283 277.633 -394.282 273.216 C-394.272 236.564 -394.254 199.913 -394.232 163.261 C-395.179 163.27 -396.125 163.279 -397.101 163.288 C-406.046 163.369 -414.991 163.429 -423.936 163.468 C-428.534 163.489 -433.132 163.517 -437.73 163.562 C-442.172 163.606 -446.613 163.63 -451.055 163.64 C-452.745 163.648 -454.435 163.662 -456.126 163.684 C-474.143 163.905 -474.143 163.905 -479.232 159.261 C-484.883 153.358 -484.955 147.029 -484.895 139.204 C-484.905 138.018 -484.915 136.832 -484.926 135.609 C-484.948 132.375 -484.948 129.143 -484.936 125.909 C-484.929 123.2 -484.938 120.492 -484.946 117.783 C-484.966 111.389 -484.961 104.995 -484.938 98.6 C-484.916 92.023 -484.934 85.447 -484.972 78.87 C-485.003 73.204 -485.011 67.539 -485 61.873 C-484.993 58.498 -484.995 55.122 -485.019 51.747 C-485.039 47.979 -485.02 44.214 -484.992 40.447 C-485.006 39.341 -485.02 38.236 -485.034 37.097 C-484.923 29.656 -483.21 24.863 -478.232 19.261 C-473.346 15.538 -468.981 15.136 -462.957 15.139 C-461.011 15.136 -461.011 15.136 -459.025 15.133 C-457.581 15.137 -456.137 15.14 -454.693 15.143 C-453.162 15.143 -451.631 15.142 -450.1 15.141 C-446.766 15.139 -443.433 15.141 -440.099 15.145 C-434.674 15.151 -429.25 15.151 -423.825 15.15 C-416.968 15.149 -410.111 15.149 -403.254 15.152 C-389.763 15.157 -376.271 15.149 -362.779 15.135 C-360.654 15.133 -358.53 15.131 -356.405 15.129 C-352.102 15.125 -347.799 15.121 -343.496 15.117 C-332.428 15.106 -321.361 15.096 -310.293 15.088 C-309.183 15.087 -308.072 15.086 -306.928 15.085 C-288.965 15.072 -271.003 15.077 -253.04 15.088 C-234.581 15.098 -216.122 15.086 -197.663 15.054 C-186.29 15.034 -174.916 15.033 -163.543 15.056 C-155.732 15.07 -147.921 15.061 -140.11 15.036 C-135.613 15.022 -131.116 15.018 -126.62 15.04 C-109.135 15.12 -92.815 15.15 -76.185 8.948 C-68.103 6.105 -59.35 5.061 -50.919 3.698 C-49.855 3.526 -49.855 3.526 -48.768 3.35 C-46.259 2.961 -43.746 2.611 -41.232 2.261 C-40.106 2.087 -38.981 1.914 -37.822 1.735 C-25.229 -0.014 -12.698 -0.044 0 0 Z M-54.544 14.511 C-55.692 14.728 -56.839 14.946 -58.021 15.17 C-68.943 17.304 -79.588 20.026 -90.232 23.261 C-91.333 23.586 -92.433 23.911 -93.568 24.247 C-120.488 32.288 -146.652 43.872 -170.232 59.261 C-170.893 59.692 -171.555 60.122 -172.237 60.566 C-184.769 68.809 -196.729 77.811 -207.755 87.995 C-209.796 89.862 -211.867 91.674 -213.962 93.479 C-225.32 103.396 -236.087 114.265 -245.232 126.261 C-246.207 127.486 -247.183 128.71 -248.161 129.933 C-257.055 141.169 -264.756 153.046 -272.232 165.261 C-272.632 165.906 -273.033 166.551 -273.446 167.215 C-288.971 192.32 -299.799 221.525 -306.232 250.261 C-306.409 251.043 -306.586 251.824 -306.769 252.63 C-311.439 273.587 -313.733 294.324 -313.568 315.797 C-313.544 319.089 -313.547 322.38 -313.554 325.673 C-313.539 336.694 -313.167 347.514 -311.725 358.446 C-311.224 362.322 -310.874 366.18 -310.544 370.073 C-307.805 395.631 -299.913 423.252 -288.258 446.19 C-287.048 448.632 -285.909 451.101 -284.771 453.577 C-273.548 477.859 -259.567 499.868 -242.232 520.261 C-241.346 521.332 -240.46 522.403 -239.575 523.476 C-233.996 530.177 -228.145 536.528 -221.982 542.698 C-221.333 543.348 -220.683 543.998 -220.015 544.668 C-215.577 549.055 -210.971 553.202 -206.232 557.261 C-205.239 558.121 -204.247 558.98 -203.224 559.866 C-156.963 598.667 -99.431 622.867 -39.794 631.011 C-39.01 631.118 -38.226 631.226 -37.417 631.336 C-3.263 635.896 31.302 633.787 64.837 625.935 C67.781 625.258 70.732 624.638 73.69 624.026 C119.033 614.319 162.944 592.452 198.768 563.261 C199.734 562.492 200.699 561.724 201.694 560.933 C209.027 555.028 215.946 548.74 222.768 542.261 C223.596 541.476 224.423 540.691 225.276 539.882 C230.104 535.18 234.392 530.188 238.596 524.925 C240.516 522.57 242.508 520.354 244.581 518.136 C272.161 487.375 292.324 444.913 302.893 405.386 C303.146 404.451 303.399 403.516 303.66 402.553 C305.484 395.671 306.945 388.787 308.128 381.769 C308.768 378.261 308.768 378.261 309.745 374.499 C314.385 356.242 314.066 336.957 314.081 318.261 C314.084 317.217 314.088 316.173 314.091 315.098 C314.12 299.353 313.85 283.614 310.205 268.228 C309.619 265.589 309.356 262.948 309.081 260.261 C303.604 220.637 284.36 179.833 261.768 147.261 C261.339 146.636 260.91 146.012 260.468 145.369 C252.967 134.494 244.77 124.336 235.862 114.573 C234.079 112.604 232.357 110.602 230.643 108.573 C221.595 98.22 211.643 88.666 200.768 80.261 C199.455 79.188 199.455 79.188 198.116 78.093 C167.14 53.271 129.391 32.913 90.938 22.87 C88.194 22.099 85.496 21.204 82.784 20.327 C75.262 18.001 67.635 16.501 59.893 15.136 C59.168 15.007 58.442 14.878 57.694 14.745 C37.884 11.256 18.609 10.093 -1.482 10.011 C-2.367 10.005 -3.253 10 -4.165 9.994 C-21.196 9.916 -37.8 11.32 -54.544 14.511 Z " fill="#080808" transform="translate(518.231689453125,244.7392578125)"/>
<path d="M0 0 C0.905 0.763 1.81 1.526 2.742 2.312 C28.96 25.182 46.728 57.34 51 92 C51.101 94.709 51.164 97.393 51.168 100.102 C51.171 100.86 51.175 101.618 51.178 102.4 C51.183 103.998 51.185 105.596 51.185 107.195 C51.187 109.598 51.206 112 51.225 114.402 C51.283 128.966 49.184 141.765 44.5 155.625 C44.281 156.277 44.062 156.929 43.836 157.6 C36.247 180.038 24.784 198.642 8.343 215.61 C7.176 216.818 6.027 218.044 4.883 219.273 C-9.049 233.899 -27.457 243.559 -46 251 C-46.841 251.338 -47.682 251.676 -48.548 252.024 C-55.48 254.684 -62.401 256.315 -69.688 257.688 C-71.301 258.006 -71.301 258.006 -72.947 258.33 C-112.767 266.06 -151.978 257.832 -186 236 C-194.227 230.369 -201.76 223.838 -209 217 C-209.81 216.255 -210.619 215.51 -211.453 214.742 C-227.082 199.851 -237.599 181.095 -245 161 C-245.248 160.363 -245.496 159.727 -245.752 159.071 C-255.255 134.546 -256.024 101.093 -248 76 C-247.802 75.319 -247.603 74.638 -247.399 73.937 C-236.156 35.523 -207.79 3.365 -173.094 -15.81 C-117.386 -45.758 -48.748 -41.388 0 0 Z " fill="#FDFDFD" transform="translate(616,447)"/>
<path d="M0 0 C1.226 -0.012 1.226 -0.012 2.477 -0.024 C14.73 -0.115 26.403 1.085 38.438 3.375 C39.434 3.564 40.43 3.753 41.456 3.948 C43.647 4.391 45.824 4.867 48 5.375 C48.743 5.545 49.485 5.715 50.25 5.891 C72.286 11.022 94.193 20.947 112.438 34.375 C113.415 35.07 114.392 35.765 115.398 36.48 C122.909 41.935 129.758 47.954 136.438 54.375 C136.954 54.869 137.47 55.364 138.002 55.873 C166.879 83.677 187.819 123.418 189.599 164.055 C189.645 168.204 189.684 172.351 189.688 176.5 C189.689 177.254 189.69 178.008 189.691 178.786 C189.674 196.616 187.854 213.332 182.438 230.375 C181.973 232.228 181.514 234.082 181.062 235.938 C179.289 242.445 176.403 248.337 173.438 254.375 C172.82 255.672 172.203 256.968 171.586 258.266 C148.736 305.781 107.127 340.15 57.794 357.593 C53.738 358.939 49.64 360.069 45.5 361.125 C44.413 361.405 44.413 361.405 43.303 361.69 C40.691 362.317 38.074 362.857 35.438 363.375 C34.802 363.501 34.167 363.628 33.512 363.758 C21.075 366.165 8.938 366.847 -3.715 366.766 C-6.692 366.75 -9.668 366.766 -12.645 366.785 C-28.581 366.804 -43.197 364.752 -58.5 360.188 C-60.024 359.736 -60.024 359.736 -61.578 359.275 C-91.006 350.266 -116.309 333.333 -138.562 312.375 C-139.222 311.758 -139.882 311.14 -140.562 310.504 C-159.611 292.117 -172.992 268.381 -181.75 243.654 C-182.412 241.797 -183.106 239.951 -183.809 238.109 C-198.876 197.07 -192.874 148.602 -175.084 109.529 C-153.642 63.716 -114.4 28.507 -66.844 11.23 C-61.789 9.477 -56.694 7.885 -51.562 6.375 C-49.942 5.888 -49.942 5.888 -48.289 5.391 C-45.394 4.596 -42.507 3.963 -39.562 3.375 C-38.31 3.098 -37.057 2.821 -35.766 2.535 C-23.914 0.19 -12.035 0.052 0 0 Z M-118.5 87.438 C-134.692 105.069 -146.927 127.09 -152.562 150.375 C-152.828 151.448 -153.094 152.52 -153.367 153.625 C-155.673 163.843 -156.079 173.628 -156 184.062 C-155.997 184.897 -155.995 185.732 -155.992 186.592 C-155.93 199.205 -155.282 211.238 -151.562 223.375 C-151.2 224.596 -150.838 225.816 -150.465 227.074 C-137.746 265.576 -109.917 296.941 -73.888 315.23 C-42.631 330.622 -8.823 335.588 25.438 328.375 C26.117 328.236 26.796 328.097 27.496 327.953 C56.777 321.789 82.001 308.06 103.438 287.375 C104.154 286.71 104.871 286.045 105.609 285.359 C124.275 267.59 135.617 243.941 142.771 219.562 C143.292 217.854 143.86 216.16 144.448 214.473 C147.922 203.601 147.843 192.11 147.812 180.812 C147.812 180.019 147.811 179.225 147.81 178.407 C147.673 140.67 132.707 108.078 107.438 80.375 C106.75 79.616 106.063 78.856 105.355 78.074 C86.668 58.443 59.767 44.889 33.688 38.562 C32.836 38.355 31.985 38.148 31.109 37.935 C-23.851 25.352 -80.615 47.393 -118.5 87.438 Z " fill="#FAFAFA" transform="translate(519.5625,376.625)"/>
<path d="M0 0 C114.51 0 229.02 0 347 0 C347 41.58 347 83.16 347 126 C296.666 126.443 296.666 126.443 275.586 126.537 C261.026 126.602 246.467 126.679 231.907 126.83 C221.304 126.939 210.701 127.01 200.097 127.035 C194.483 127.049 188.87 127.083 183.255 127.163 C177.969 127.238 172.685 127.261 167.398 127.244 C165.46 127.247 163.521 127.269 161.583 127.311 C146.937 127.615 146.937 127.615 142.12 123.599 C140.065 120.812 138.51 118.108 137 115 C136.143 113.731 135.262 112.478 134.348 111.25 C133.594 110.178 132.839 109.105 132.062 108 C127.636 101.771 122.931 95.841 118 90 C117.166 88.98 116.332 87.961 115.473 86.91 C103.478 72.397 90.087 58.315 75 47 C73.52 45.855 72.041 44.709 70.562 43.562 C48.598 26.666 24.912 13.073 0 1 C0 0.67 0 0.34 0 0 Z " fill="#BBBBBB" transform="translate(650,271)"/>
<path d="M0 0 C113.52 0 227.04 0 344 0 C342.015 1.985 340.881 2.598 338.344 3.637 C312.059 14.745 288.058 29.987 266 48 C265.468 48.428 264.936 48.855 264.388 49.296 C256.012 56.055 248.315 63.479 240.688 71.062 C239.309 72.427 239.309 72.427 237.902 73.82 C231.843 79.906 226.319 86.261 221 93 C220.378 93.779 219.756 94.557 219.115 95.359 C206.783 109.648 206.783 109.648 198 126 C132.66 126 67.32 126 0 126 C0 84.42 0 42.84 0 0 Z " fill="#BABBBB" transform="translate(46,271)"/>
<path d="M0 0 C0.926 0.001 1.851 0.003 2.805 0.005 C16.159 0.043 29.232 0.362 42.312 3.312 C43.542 3.579 44.772 3.846 46.039 4.121 C49.843 5.054 53.576 6.142 57.312 7.312 C58.187 7.582 59.062 7.851 59.964 8.129 C92.21 18.151 123.015 33.113 146.77 57.77 C148.486 59.539 148.486 59.539 151.312 61.75 C155.076 64.965 158.13 68.535 161.312 72.312 C162.054 73.154 162.795 73.996 163.559 74.863 C193.949 110.019 211.918 155.386 211.562 201.938 C211.559 202.679 211.556 203.42 211.552 204.184 C211.355 240.566 203.818 274.135 186.312 306.312 C185.837 307.251 185.361 308.189 184.871 309.156 C176.239 325.88 164.079 340.607 151.312 354.312 C150.628 355.051 149.944 355.79 149.238 356.551 C143.357 362.671 136.87 367.857 130.108 372.957 C128.957 373.826 127.81 374.7 126.669 375.582 C100.584 395.703 67.84 408.856 35.358 413.973 C33.252 414.323 31.164 414.735 29.07 415.156 C18.01 417.245 7.096 417.608 -4.125 417.625 C-4.849 417.628 -5.572 417.632 -6.318 417.636 C-15.615 417.661 -24.515 416.928 -33.688 415.312 C-35.19 415.112 -36.694 414.921 -38.199 414.742 C-58.579 412.132 -78.331 405.448 -96.688 396.312 C-97.759 395.785 -97.759 395.785 -98.853 395.247 C-149.318 370.172 -187.677 326.16 -206.191 273.008 C-208.363 266.436 -209.91 259.729 -211.179 252.929 C-211.567 250.935 -211.999 248.95 -212.452 246.97 C-214.732 236.36 -215.119 226.129 -215.024 215.295 C-215 212.448 -215.003 209.601 -215.01 206.754 C-214.988 191.729 -214.337 176.699 -210.375 162.125 C-210.158 161.297 -209.942 160.469 -209.719 159.615 C-207.704 152.061 -205.373 144.656 -202.688 137.312 C-202.191 135.936 -202.191 135.936 -201.684 134.531 C-192.651 111.332 -179.16 90.821 -162.688 72.312 C-162.017 71.549 -162.017 71.549 -161.333 70.771 C-120.656 24.574 -61.164 -0.244 0 0 Z M-43.688 26.312 C-44.585 26.527 -45.483 26.741 -46.408 26.962 C-94.48 38.78 -138.61 69.227 -164.689 111.591 C-186.632 148.454 -197.573 192.602 -189.688 235.312 C-189.451 236.814 -189.215 238.315 -188.98 239.816 C-182.788 276.845 -163.228 308.566 -137.688 335.312 C-137.086 335.967 -136.484 336.622 -135.863 337.297 C-113.945 360.485 -82.202 375.942 -51.812 384.125 C-51.089 384.32 -50.365 384.515 -49.619 384.716 C-47.317 385.302 -45.011 385.821 -42.688 386.312 C-41.808 386.5 -40.928 386.688 -40.021 386.881 C-30.092 388.703 -20.163 388.65 -10.097 388.628 C-7.089 388.625 -4.082 388.648 -1.074 388.674 C11.339 388.715 23.135 387.713 35.312 385.312 C36.286 385.13 37.259 384.947 38.261 384.759 C87.105 374.977 131.593 343.363 159.312 302.312 C168.458 288.221 175.455 273.27 180.643 257.304 C181.158 255.77 181.751 254.262 182.375 252.77 C183.713 249.263 184.502 245.655 185.312 242 C185.477 241.298 185.642 240.596 185.812 239.873 C188.809 226.469 189.692 213.067 189.625 199.375 C189.624 198.633 189.623 197.891 189.621 197.127 C189.588 186.224 188.958 175.93 186.312 165.312 C185.988 163.682 185.988 163.682 185.656 162.02 C182.55 146.84 176.633 132.893 169.312 119.312 C168.985 118.697 168.657 118.082 168.32 117.449 C160.803 103.43 151.271 91.718 140.312 80.312 C139.818 79.791 139.324 79.27 138.815 78.733 C131.547 71.083 123.892 64.45 115.312 58.312 C114.481 57.706 114.481 57.706 113.632 57.087 C84.342 35.889 47.062 22.451 10.746 22.074 C9.958 22.064 9.17 22.055 8.358 22.045 C-9.334 21.87 -26.395 22.107 -43.688 26.312 Z " fill="#FBFBFB" transform="translate(519.6875,354.6875)"/>
<path d="M0 0 C1.498 1.29 2.98 2.601 4.438 3.938 C5.069 4.501 5.701 5.064 6.352 5.645 C20.227 18.695 29.289 38.02 29.908 57 C30.114 77.228 24.106 96.772 10.438 111.938 C9.718 112.868 9.718 112.868 8.984 113.816 C-0.409 125.882 -16.043 133.242 -30.562 136.938 C-31.568 137.287 -32.573 137.636 -33.609 137.996 C-38.773 139.474 -44.047 139.227 -49.375 139.188 C-50.404 139.195 -51.434 139.203 -52.494 139.211 C-59.086 139.194 -65.161 138.493 -71.562 136.938 C-72.378 136.746 -73.194 136.555 -74.034 136.358 C-92.311 131.859 -108.694 118.801 -118.708 103.146 C-121.281 98.874 -123.499 94.475 -125.562 89.938 C-126.019 88.947 -126.475 87.957 -126.945 86.938 C-132.857 71.393 -131.46 48.956 -124.828 33.824 C-114.937 12.62 -99.236 -3.783 -77.141 -12.172 C-51.115 -21.162 -21.766 -17.01 0 0 Z " fill="#080808" transform="translate(566.5625,495.0625)"/>
<path d="M0 0 C1.067 -0.001 1.067 -0.001 2.155 -0.003 C15.629 -0.001 27.954 1.111 41.062 4.438 C42.256 4.725 43.45 5.012 44.68 5.309 C52.253 7.206 59.077 9.718 66.062 13.188 C67.423 13.829 68.784 14.469 70.145 15.109 C107.716 33.348 138.64 64.572 153.062 104.188 C154.932 109.798 156.513 115.482 158.062 121.188 C158.414 122.359 158.766 123.531 159.129 124.738 C166.234 150.987 163.666 182.598 155.062 208.188 C154.831 208.892 154.599 209.596 154.36 210.321 C140.648 251.529 112.31 286.437 73.312 306.102 C67.615 308.852 61.784 311.239 55.874 313.49 C54.324 314.087 52.789 314.721 51.258 315.363 C42.26 318.993 32.591 320.563 23.062 322.188 C22.023 322.371 20.984 322.554 19.914 322.742 C11.232 324.144 2.795 324.468 -5.971 324.393 C-8.199 324.375 -10.428 324.373 -12.656 324.373 C-55.998 324.273 -93.617 305.397 -124.938 276.188 C-125.739 275.451 -126.541 274.715 -127.367 273.957 C-146.337 255.866 -160.691 230.662 -166.938 205.188 C-167.097 204.567 -167.257 203.946 -167.421 203.306 C-177.345 164.589 -171.878 124.246 -152.938 89.188 C-152.47 88.241 -152.002 87.295 -151.52 86.32 C-145.136 73.704 -135.688 62.342 -125.938 52.188 C-125.098 51.297 -124.259 50.406 -123.395 49.488 C-116.748 42.612 -109.717 36.725 -101.938 31.188 C-100.905 30.449 -99.872 29.71 -98.809 28.949 C-68.885 8.676 -35.75 -0.003 0 0 Z M-118.875 66.25 C-135.067 83.882 -147.302 105.902 -152.938 129.188 C-153.203 130.26 -153.469 131.333 -153.742 132.438 C-156.048 142.655 -156.454 152.44 -156.375 162.875 C-156.372 163.71 -156.37 164.544 -156.367 165.404 C-156.305 178.018 -155.657 190.05 -151.938 202.188 C-151.575 203.408 -151.213 204.629 -150.84 205.887 C-138.121 244.389 -110.292 275.754 -74.263 294.042 C-43.006 309.435 -9.198 314.4 25.062 307.188 C25.742 307.048 26.421 306.909 27.121 306.766 C56.402 300.601 81.626 286.872 103.062 266.188 C103.779 265.522 104.496 264.857 105.234 264.172 C123.9 246.402 135.242 222.754 142.396 198.375 C142.917 196.666 143.485 194.972 144.073 193.285 C147.547 182.414 147.468 170.923 147.438 159.625 C147.437 158.831 147.436 158.037 147.435 157.219 C147.298 119.483 132.332 86.89 107.062 59.188 C106.375 58.428 105.688 57.669 104.98 56.887 C86.293 37.255 59.392 23.701 33.312 17.375 C32.461 17.168 31.61 16.961 30.734 16.747 C-24.226 4.165 -80.99 26.206 -118.875 66.25 Z " fill="#050506" transform="translate(519.9375,397.8125)"/>
<path d="M0 0 C0.804 -0.004 1.608 -0.008 2.436 -0.011 C16.413 -0.045 30.006 0.945 43.625 4.312 C45.077 4.627 46.53 4.937 47.984 5.242 C61.171 8.063 73.371 11.61 85.625 17.312 C87.01 17.951 87.01 17.951 88.424 18.603 C105.824 26.662 121.751 35.177 136.625 47.312 C137.153 47.738 137.681 48.163 138.225 48.601 C150.976 58.899 162.627 70.302 172.625 83.312 C173.361 84.255 174.097 85.197 174.855 86.168 C184.321 98.501 192.014 111.264 198.625 125.312 C198.964 126.019 199.303 126.725 199.653 127.453 C212.074 153.428 218.076 181.244 218 210 C218 210.748 218 211.497 217.999 212.268 C217.851 265.347 199.001 318.757 162.727 358.023 C160.88 360.035 159.125 362.093 157.375 364.188 C131.769 393.451 94.692 413.149 57.625 423.312 C56.4 423.649 55.176 423.985 53.914 424.332 C46.813 426.222 39.681 427.762 32.438 429 C31.407 429.179 31.407 429.179 30.355 429.362 C18.405 431.297 6.33 431.553 -5.75 431.562 C-6.863 431.564 -6.863 431.564 -7.999 431.565 C-56.155 431.495 -103.93 414.783 -141.375 384.312 C-141.979 383.823 -142.583 383.333 -143.205 382.829 C-155.834 372.498 -167.393 361.243 -177.375 348.312 C-177.827 347.742 -178.279 347.172 -178.745 346.584 C-200.661 318.916 -213.896 286.892 -220.375 252.312 C-220.555 251.41 -220.734 250.508 -220.919 249.578 C-222.554 240.449 -222.681 231.473 -222.636 222.231 C-222.625 219.646 -222.636 217.063 -222.648 214.479 C-222.664 197.288 -220.871 180.911 -216.375 164.312 C-216.169 163.537 -215.963 162.761 -215.75 161.962 C-203.636 117.002 -176.32 75.817 -139.375 47.312 C-138.824 46.885 -138.272 46.457 -137.704 46.016 C-109.107 23.969 -76.607 10.557 -41.375 3.312 C-40.503 3.132 -39.631 2.951 -38.732 2.765 C-25.891 0.243 -13.04 0.034 0 0 Z M-43.375 10.312 C-44.286 10.511 -45.197 10.71 -46.135 10.915 C-98.921 22.844 -145.642 52.257 -177.375 96.312 C-177.981 97.15 -177.981 97.15 -178.6 98.005 C-210.34 142.362 -222.567 199.185 -213.941 252.973 C-210.3 271.965 -203.78 289.939 -195.375 307.312 C-194.91 308.282 -194.91 308.282 -194.435 309.271 C-170.726 357.981 -124.496 395.448 -73.938 413.25 C-18.162 432.157 42.802 427.019 95.625 401.312 C115.391 391.423 132.475 378.356 148.625 363.312 C149.364 362.628 150.102 361.944 150.863 361.238 C165.066 347.591 176.309 330.545 185.625 313.312 C186.578 311.584 186.578 311.584 187.551 309.82 C209.098 269.585 217.663 218.231 207.625 173.312 C207.331 171.874 207.038 170.435 206.746 168.996 C203.428 153.307 197.779 138.627 190.625 124.312 C190.297 123.643 189.968 122.973 189.63 122.282 C181.444 105.67 170.865 91.156 158.625 77.312 C157.831 76.396 157.037 75.479 156.219 74.535 C152.264 70.031 148.22 65.871 143.633 62.012 C141.53 60.232 139.523 58.37 137.5 56.5 C113.986 35.644 84.706 22.47 54.775 13.934 C53.058 13.438 51.349 12.911 49.645 12.375 C21.538 3.795 -14.783 4.035 -43.375 10.312 Z " fill="#0B0B0B" transform="translate(520.375,347.6875)"/>
<path d="M0 0 C9.352 7.556 17.427 18.562 19.438 30.625 C19 33 19 33 17 35.75 C14.425 39.934 14.077 43.192 15 48 C16.052 49.485 16.052 49.485 17.125 51 C19.108 54.172 19.302 54.556 18.688 58 C14.125 73.639 5.472 84.341 -8.652 92.43 C-17.506 96.583 -25.05 98.707 -34.875 98.562 C-35.926 98.552 -36.978 98.542 -38.061 98.531 C-50.874 98.182 -59.95 93.916 -70 86 C-70.636 85.54 -71.271 85.08 -71.926 84.605 C-79.84 78.517 -85.376 68.552 -88 59 C-88.349 55.896 -88.438 54.576 -86.523 52.059 C-84.487 49.306 -84.599 47.453 -84.625 44.062 C-84.617 43.043 -84.61 42.023 -84.602 40.973 C-85.05 37.63 -86.213 35.817 -88 33 C-88.337 23.557 -82.444 14.607 -76.562 7.562 C-55.413 -14.705 -24.851 -16.793 0 0 Z " fill="#F9FAFA" transform="translate(551,513)"/>
<path d="M0 0 C1.226 -0.012 1.226 -0.012 2.477 -0.024 C14.73 -0.115 26.403 1.085 38.438 3.375 C39.434 3.564 40.43 3.753 41.456 3.948 C43.647 4.391 45.824 4.867 48 5.375 C48.743 5.545 49.485 5.715 50.25 5.891 C72.286 11.022 94.193 20.947 112.438 34.375 C113.415 35.07 114.392 35.765 115.398 36.48 C122.909 41.935 129.758 47.954 136.438 54.375 C136.954 54.869 137.47 55.364 138.002 55.873 C166.879 83.677 187.819 123.418 189.599 164.055 C189.645 168.204 189.684 172.351 189.688 176.5 C189.689 177.254 189.69 178.008 189.691 178.786 C189.674 196.616 187.854 213.332 182.438 230.375 C181.973 232.228 181.514 234.082 181.062 235.938 C179.289 242.445 176.403 248.337 173.438 254.375 C172.82 255.672 172.203 256.968 171.586 258.266 C148.736 305.781 107.127 340.15 57.794 357.593 C53.738 358.939 49.64 360.069 45.5 361.125 C44.413 361.405 44.413 361.405 43.303 361.69 C40.691 362.317 38.074 362.857 35.438 363.375 C34.802 363.501 34.167 363.628 33.512 363.758 C21.075 366.165 8.938 366.847 -3.715 366.766 C-6.692 366.75 -9.668 366.766 -12.645 366.785 C-28.581 366.804 -43.197 364.752 -58.5 360.188 C-60.024 359.736 -60.024 359.736 -61.578 359.275 C-91.006 350.266 -116.309 333.333 -138.562 312.375 C-139.222 311.758 -139.882 311.14 -140.562 310.504 C-159.611 292.117 -172.992 268.381 -181.75 243.654 C-182.412 241.797 -183.106 239.951 -183.809 238.109 C-198.876 197.07 -192.874 148.602 -175.084 109.529 C-153.642 63.716 -114.4 28.507 -66.844 11.23 C-61.789 9.477 -56.694 7.885 -51.562 6.375 C-49.942 5.888 -49.942 5.888 -48.289 5.391 C-45.394 4.596 -42.507 3.963 -39.562 3.375 C-38.31 3.098 -37.057 2.821 -35.766 2.535 C-23.914 0.19 -12.035 0.052 0 0 Z M-44.562 10.375 C-45.498 10.616 -46.434 10.858 -47.398 11.106 C-79.207 19.501 -107.356 35.3 -131.126 58.006 C-132.518 59.333 -133.927 60.643 -135.336 61.953 C-164.879 90.226 -184.522 133.664 -185.853 174.508 C-185.931 178.131 -185.947 181.752 -185.938 185.375 C-185.937 186.139 -185.937 186.902 -185.937 187.689 C-185.901 200.587 -184.847 212.853 -181.562 225.375 C-181.381 226.08 -181.199 226.785 -181.011 227.511 C-179.755 232.22 -178.228 236.797 -176.562 241.375 C-176.153 242.522 -176.153 242.522 -175.735 243.693 C-159.352 288.996 -125.054 324.596 -81.812 345.25 C-42.296 363.577 2.361 365.88 44.438 355.375 C45.29 355.186 46.142 354.996 47.02 354.801 C66.426 350.12 86.028 340.664 102.438 329.375 C103.315 328.772 104.193 328.168 105.098 327.547 C120.731 316.48 134.752 303.588 146.438 288.375 C147.228 287.351 148.018 286.328 148.832 285.273 C164.688 264.208 175.053 239.779 180.562 214.062 C180.731 213.291 180.9 212.519 181.074 211.725 C181.535 209.609 181.992 207.494 182.438 205.375 C182.617 204.646 182.796 203.916 182.981 203.165 C183.61 199.322 183.6 195.552 183.605 191.664 C183.609 190.819 183.612 189.974 183.616 189.103 C183.621 187.313 183.623 185.522 183.623 183.732 C183.625 181.044 183.643 178.356 183.662 175.668 C183.707 162.501 183.212 149.516 179.125 136.875 C178.904 136.168 178.683 135.46 178.456 134.731 C178.004 133.293 177.547 131.855 177.084 130.42 C176.485 128.525 175.934 126.614 175.387 124.703 C170.3 107.76 161.269 92.271 150.438 78.375 C149.757 77.473 149.076 76.57 148.375 75.641 C133.934 57.151 115.816 41.915 95.438 30.375 C94.545 29.867 94.545 29.867 93.634 29.349 C86.089 25.087 78.562 21.41 70.395 18.457 C67.803 17.509 65.329 16.438 62.812 15.312 C55.748 12.443 48.135 11.305 40.683 9.847 C38.57 9.403 36.499 8.878 34.414 8.32 C27.051 6.445 19.525 6.207 11.961 6.137 C11.081 6.127 10.202 6.117 9.295 6.107 C-17.876 5.792 -17.876 5.792 -44.562 10.375 Z " fill="#101011" transform="translate(519.5625,376.625)"/>
<path d="M0 0 C1.627 0.898 3.242 1.818 4.844 2.762 C7.479 4.051 9.355 4.248 12.27 4.355 C18.093 4.703 21.902 7.081 26.207 10.918 C32.203 17.708 33.625 22.131 33.551 31.227 C32.933 37.863 30.286 43.354 25.332 47.855 C20.995 50.718 16.775 52.49 11.77 53.855 C8.233 54.91 5.249 56.296 2.004 58.016 C-4.584 61.324 -14.6 61.271 -21.602 59.012 C-23.841 57.801 -25.787 56.484 -27.793 54.918 C-28.426 54.484 -29.059 54.049 -29.711 53.602 C-35.691 49.126 -39.416 42.241 -40.793 34.918 C-41.736 24.971 -40.448 17.821 -34.219 9.922 C-25.679 0.666 -12.329 -4.776 0 0 Z " fill="#0B0B0B" transform="translate(523.79296875,117.08203125)"/>
<path d="M0 0 C5.736 3.199 10.01 6.457 13.562 12 C13.992 12.665 14.421 13.33 14.863 14.016 C18.915 21.534 18.838 30.203 16.68 38.32 C12.87 48.388 7.419 53.542 -2.203 58.055 C-9.635 61.199 -18.948 61.428 -26.656 58.977 C-35.133 54.667 -42.355 47.543 -45.801 38.562 C-48.376 28.198 -46.469 20.055 -41.43 11.008 C-32.429 -2.581 -14.639 -7.305 0 0 Z " fill="#FCFCFC" transform="translate(530.4375,529)"/>
<path d="M0 0 C9.669 5.733 16.732 13.529 20.32 24.258 C23.195 36.204 21.347 46.362 15.195 56.895 C9.658 64.965 3.148 69.193 -5.805 72.895 C-6.594 73.267 -7.383 73.64 -8.195 74.023 C-17.348 77.079 -28.207 75.365 -36.832 71.57 C-46.841 65.928 -55.083 56.617 -58.332 45.469 C-60.403 34.189 -58.611 24.492 -52.93 14.645 C-52.228 13.737 -51.527 12.83 -50.805 11.895 C-50.421 11.344 -50.036 10.794 -49.641 10.227 C-37.898 -5.327 -16.747 -8.145 0 0 Z M-34.805 7.895 C-35.502 8.307 -36.199 8.72 -36.918 9.145 C-43.929 13.792 -48.171 20.992 -50.805 28.895 C-52.092 38.812 -50.592 46.695 -44.805 54.895 C-42.055 57.984 -39.159 60.484 -35.805 62.895 C-35.213 63.348 -34.621 63.802 -34.012 64.27 C-26.957 68.755 -16.783 67.905 -8.898 66.305 C-1.051 63.61 5.532 58.125 9.934 51.133 C13.975 42.607 15.06 33.639 12.121 24.586 C7.677 14.834 1.096 8.904 -8.742 4.777 C-17.788 2.17 -26.803 2.942 -34.805 7.895 Z " fill="#0D0C0D" transform="translate(534.8046875,522.10546875)"/>
<path d="M0 0 C5.858 3.418 10.566 8.795 13.988 14.598 C15.591 21.9 14.726 27.289 11.102 33.863 C7.246 39.574 2.145 43.148 -4.449 45.16 C-12.125 46.327 -18.088 44.536 -24.449 40.16 C-29.153 35.894 -32.086 31.497 -32.785 25.074 C-32.927 13.123 -32.927 13.123 -28.449 8.16 C-20.287 0.015 -11.762 -4.033 0 0 Z " fill="#FBFBFB" transform="translate(523.44921875,124.83984375)"/>
<path d="M0 0 C37.62 0 75.24 0 114 0 C114 0.33 114 0.66 114 1 C107.692 2.697 101.57 4.177 95.059 4.758 C92.431 5.067 89.936 5.768 87.387 6.461 C82.969 7.459 78.465 7.954 73.977 8.535 C71.081 8.833 71.081 8.833 69 10 C65.403 10.564 61.797 11.027 58.188 11.5 C55.113 11.817 55.113 11.817 53 13 C51.067 13.303 49.128 13.566 47.188 13.812 C40.669 14.708 34.214 15.835 27.75 17.062 C26.356 17.324 26.356 17.324 24.934 17.591 C24.064 17.758 23.194 17.925 22.297 18.098 C21.127 18.322 21.127 18.322 19.933 18.551 C17.933 18.936 17.933 18.936 16 20 C13.667 20.04 11.333 20.043 9 20 C7.683 17.419 6.371 14.835 5.062 12.25 C4.689 11.52 4.316 10.791 3.932 10.039 C3.574 9.33 3.216 8.621 2.848 7.891 C2.518 7.241 2.188 6.592 1.848 5.923 C1 4 1 4 0 0 Z " fill="#F9F9F9" transform="translate(802,408)"/>
<path d="M0 0 C7.456 -0.127 14.912 -0.214 22.369 -0.275 C24.906 -0.3 27.442 -0.334 29.979 -0.377 C33.625 -0.438 37.271 -0.466 40.918 -0.488 C42.051 -0.514 43.185 -0.54 44.353 -0.566 C52.192 -0.569 52.192 -0.569 56.222 2.27 C57.953 4.927 58.614 6.07 58.523 9.172 C58.512 9.918 58.5 10.665 58.488 11.434 C58.451 12.198 58.414 12.962 58.375 13.75 C58.361 14.53 58.347 15.31 58.332 16.113 C58.183 21.817 58.183 21.817 57 23 C53.562 23.188 53.562 23.188 50 23 C49.34 22.34 48.68 21.68 48 21 C47.34 21.66 46.68 22.32 46 23 C43.125 23.125 43.125 23.125 40 23 C38.68 23 37.36 23 36 23 C27.333 23 18.667 23 10 23 C10 22.67 10 22.34 10 22 C12.64 22 15.28 22 18 22 C17.67 18.04 17.34 14.08 17 10 C16.67 13.3 16.34 16.6 16 20 C15.01 20 14.02 20 13 20 C12.67 15.71 12.34 11.42 12 7 C10.68 6.67 9.36 6.34 8 6 C5.23 8.77 5.602 10.765 5.375 14.625 C5.3 15.814 5.225 17.002 5.148 18.227 C5.099 19.142 5.05 20.057 5 21 C4.01 21 3.02 21 2 21 C2 15.06 2 9.12 2 3 C2.66 3 3.32 3 4 3 C4 3.66 4 4.32 4 5 C4.99 4.34 5.98 3.68 7 3 C11.075 2.66 12.53 2.687 16 5 C16.66 4.34 17.32 3.68 18 3 C21.125 2.875 21.125 2.875 24 3 C24 2.34 24 1.68 24 1 C16.08 1 8.16 1 0 1 C0 0.67 0 0.34 0 0 Z " fill="#EBEBEB" transform="translate(894,283)"/>
<path d="M0 0 C12.407 9.468 22.125 21.98 26.352 37.188 C26.352 38.508 26.352 39.827 26.352 41.188 C24.702 41.188 23.052 41.188 21.352 41.188 C20.949 39.88 20.949 39.88 20.539 38.547 C14.496 20.179 3.55 7.226 -13.648 -1.812 C-28.902 -8.536 -47.347 -8.991 -63.145 -3.625 C-71.071 -0.485 -77.372 3.44 -83.648 9.188 C-84.535 9.992 -85.422 10.796 -86.336 11.625 C-94.018 20.137 -100.8 29.582 -102.648 41.188 C-104.628 41.188 -106.608 41.188 -108.648 41.188 C-106.204 25.166 -95.451 10.77 -82.648 1.188 C-57.267 -15.681 -25.84 -17.684 0 0 Z " fill="#EEEEEE" transform="translate(557.6484375,500.8125)"/>
<path d="M0 0 C1.65 0 3.3 0 5 0 C5.352 0.967 5.704 1.934 6.066 2.93 C9.132 11.105 12.514 18.112 18 25 C18.623 25.833 19.245 26.665 19.887 27.523 C28.71 37.864 43.963 45.98 57.51 47.232 C77.389 48.361 95.153 44.356 110.691 31.18 C119.155 23.189 127.254 11.777 129 0 C130.98 0 132.96 0 135 0 C130.263 18.159 120.067 32.685 103.812 42.438 C87.065 51.742 67.265 55.66 48.418 50.562 C31.488 45.223 16.481 35.341 7.43 19.805 C4.185 13.44 1.21 7.077 0 0 Z " fill="#ECECED" transform="translate(449,572)"/>
<path d="M0 0 C0.66 0 1.32 0 2 0 C1.549 11.124 0.847 22.007 -1 33 C1.64 33 4.28 33 7 33 C7 33.99 7 34.98 7 36 C4.03 36 1.06 36 -2 36 C-1.968 37.135 -1.937 38.27 -1.904 39.439 C-1.908 44.084 -2.637 48.431 -3.539 52.977 C-3.701 53.817 -3.862 54.657 -4.028 55.523 C-4.552 58.226 -5.087 60.925 -5.625 63.625 C-5.805 64.541 -5.985 65.457 -6.171 66.401 C-12.979 100.957 -12.979 100.957 -17 109 C-13.535 109.495 -13.535 109.495 -10 110 C-9.67 111.32 -9.34 112.64 -9 114 C-11.97 114 -14.94 114 -18 114 C-18.436 115.365 -18.871 116.73 -19.32 118.137 C-22.653 128.442 -26.176 138.29 -31 148 C-32.157 150.349 -33.303 152.703 -34.438 155.062 C-34.952 156.105 -35.466 157.148 -35.996 158.223 C-37.163 160.872 -37.163 160.872 -36.848 163.309 C-36.063 165.371 -36.063 165.371 -33 166 C-33 167.32 -33 168.64 -33 170 C-36.344 169.443 -39.033 168.648 -42 167 C-41.372 163.1 -40.181 159.887 -38.523 156.309 C-38.021 155.208 -37.518 154.108 -37 152.974 C-36.464 151.807 -35.927 150.64 -35.375 149.438 C-30.58 138.841 -26.291 128.199 -22.697 117.134 C-22.234 115.715 -21.758 114.299 -21.271 112.887 C-9.669 79.135 -4.347 42.848 -1.595 7.384 C-1.097 1.097 -1.097 1.097 0 0 Z " fill="#F6F6F5" transform="translate(790,587)"/>
<path d="M0 0 C3.979 -0.059 7.958 -0.094 11.938 -0.125 C13.054 -0.142 14.171 -0.159 15.322 -0.176 C21.89 -0.214 27.653 0.291 34 2 C33.67 2.99 33.34 3.98 33 5 C29.438 6.688 29.438 6.688 26 8 C26.489 8.403 26.978 8.806 27.482 9.222 C29.396 11.464 29.352 12.538 29.293 15.449 C29.283 16.297 29.274 17.144 29.264 18.018 C29.239 18.899 29.213 19.78 29.188 20.688 C29.167 22.027 29.167 22.027 29.146 23.393 C29.111 25.596 29.062 27.798 29 30 C28.67 30 28.34 30 28 30 C28 24.06 28 18.12 28 12 C25.69 12.66 23.38 13.32 21 14 C21.046 14.964 21.093 15.928 21.141 16.922 C21.195 18.817 21.195 18.817 21.25 20.75 C21.296 22.003 21.343 23.256 21.391 24.547 C21 28 21 28 19.109 30.453 C17 32 17 32 15 32 C15 32.66 15 33.32 15 34 C12.875 34.054 10.75 34.093 8.625 34.125 C7.442 34.148 6.258 34.171 5.039 34.195 C2 34 2 34 0 32 C-0.188 28.938 -0.188 28.938 0 26 C1 25 1 25 4.562 24.938 C5.697 24.958 6.831 24.979 8 25 C8 23.68 8 22.36 8 21 C6.68 21 5.36 21 4 21 C4 19.02 4 17.04 4 15 C4.969 14.752 5.939 14.505 6.938 14.25 C7.948 13.837 8.959 13.425 10 13 C10.969 10.968 10.969 10.968 11 9 C10.01 8.67 9.02 8.34 8 8 C9.666 7.957 11.334 7.959 13 8 C14 9 14 9 14.312 11.375 C14 14 14 14 12.188 15.75 C10 17 10 17 7 18 C9.31 18.66 11.62 19.32 14 20 C15.313 25.373 15.313 25.373 14.062 27.875 C10.756 29.678 7.726 29.183 4 29 C3.67 29.66 3.34 30.32 3 31 C9.982 31.355 9.982 31.355 16 28 C17.39 25.22 17.185 23.081 17 20 C16.102 17.698 16.102 17.698 15 16 C15.66 15.34 16.32 14.68 17 14 C17.66 14.33 18.32 14.66 19 15 C18.94 13.395 18.851 11.791 18.75 10.188 C18.704 9.294 18.657 8.401 18.609 7.48 C18.199 4.889 18.199 4.889 16.199 3.191 C11.627 0.714 5.88 1.78 1 3 C0.67 2.01 0.34 1.02 0 0 Z " fill="#EBECEC" transform="translate(815,272)"/>
<path d="M0 0 C0.784 0.041 1.567 0.082 2.375 0.125 C2.705 1.115 3.035 2.105 3.375 3.125 C4.035 2.795 4.695 2.465 5.375 2.125 C10.421 0.443 14.499 0.265 19.375 2.5 C22.401 6.471 21.789 10.303 21.375 15.125 C20.385 15.455 19.395 15.785 18.375 16.125 C18.705 16.661 19.035 17.197 19.375 17.75 C20.678 20.845 20.851 22.791 20.375 26.125 C18.202 28.698 16.395 30.615 13.375 32.125 C7.837 32.356 7.837 32.356 5.375 31.125 C5.705 30.135 6.035 29.145 6.375 28.125 C7.654 28.166 8.933 28.207 10.25 28.25 C12.394 28.367 12.394 28.367 14.375 28.125 C16.725 26.227 16.725 26.227 16.5 23 C16.459 22.051 16.418 21.103 16.375 20.125 C15.241 20.001 14.106 19.877 12.938 19.75 C11.762 19.544 10.586 19.337 9.375 19.125 C9.045 18.465 8.715 17.805 8.375 17.125 C10.685 16.135 12.995 15.145 15.375 14.125 C15.375 12.475 15.375 10.825 15.375 9.125 C14.715 9.125 14.055 9.125 13.375 9.125 C13.045 10.775 12.715 12.425 12.375 14.125 C10.395 14.455 8.415 14.785 6.375 15.125 C5.055 13.475 3.735 11.825 2.375 10.125 C1.715 12.105 1.055 14.085 0.375 16.125 C-0.285 15.465 -0.945 14.805 -1.625 14.125 C-1.951 15.15 -2.277 16.175 -2.613 17.23 C-3.054 18.591 -3.496 19.952 -3.938 21.312 C-4.151 21.986 -4.364 22.66 -4.584 23.354 C-5.858 27.252 -7.193 30.767 -9.625 34.125 C-10.285 34.125 -10.945 34.125 -11.625 34.125 C-8.921 23.691 -8.921 23.691 -7.062 18.875 C-4.744 12.864 -3.427 8.562 -4.625 2.125 C-2.625 0.125 -2.625 0.125 0 0 Z " fill="#E8E8E8" transform="translate(812.625,271.875)"/>
<path d="M0 0 C0 0.99 0 1.98 0 3 C-2.64 3.66 -5.28 4.32 -8 5 C-7.889 5.568 -7.779 6.136 -7.665 6.721 C-3.819 26.513 -0.614 45.767 -1 66 C1.97 66 4.94 66 8 66 C8 67.32 8 68.64 8 70 C5.03 70 2.06 70 -1 70 C-1 77.59 -1 85.18 -1 93 C1.64 93 4.28 93 7 93 C9.351 96.527 9.214 98.029 9.125 102.188 C9.107 103.274 9.089 104.361 9.07 105.48 C9.047 106.312 9.024 107.143 9 108 C7.68 107.67 6.36 107.34 5 107 C4.67 103.37 4.34 99.74 4 96 C2.35 96 0.7 96 -1 96 C-1 99.63 -1 103.26 -1 107 C-1.99 107 -2.98 107 -4 107 C-4.012 105.977 -4.012 105.977 -4.025 104.933 C-4.103 98.405 -4.191 91.877 -4.288 85.349 C-4.337 81.996 -4.382 78.643 -4.422 75.289 C-4.663 55.124 -5.621 35.576 -9.336 15.746 C-10.148 11.166 -10.632 6.635 -11 2 C-7.123 0.807 -4.084 0 0 0 Z " fill="#F3F3F3" transform="translate(796,470)"/>
<path d="M0 0 C3.895 -0.146 7.79 -0.234 11.688 -0.312 C13.342 -0.375 13.342 -0.375 15.029 -0.439 C23.077 -0.561 23.077 -0.561 27.246 1.973 C29.607 6.048 29.601 9.131 29.375 13.75 C29.354 14.92 29.354 14.92 29.332 16.113 C29.183 21.817 29.183 21.817 28 23 C24.562 23.188 24.562 23.188 21 23 C20.34 22.34 19.68 21.68 19 21 C18.67 21 18.34 21 18 21 C18 17.04 18 13.08 18 9 C17.67 9 17.34 9 17 9 C16.67 12.63 16.34 16.26 16 20 C15.01 20.33 14.02 20.66 13 21 C12.67 16.38 12.34 11.76 12 7 C10.35 6.67 8.7 6.34 7 6 C4.23 8.77 4.602 10.765 4.375 14.625 C4.3 15.814 4.225 17.002 4.148 18.227 C4.099 19.142 4.05 20.057 4 21 C3.34 21 2.68 21 2 21 C2.01 20.435 2.021 19.87 2.032 19.288 C2.073 16.733 2.099 14.179 2.125 11.625 C2.142 10.736 2.159 9.846 2.176 8.93 C2.182 8.079 2.189 7.228 2.195 6.352 C2.206 5.566 2.216 4.781 2.227 3.971 C2.18 1.766 2.18 1.766 0 0 Z " fill="#E8E9E8" transform="translate(923,283)"/>
<path d="M0 0 C2.838 1.89 4.502 3.944 6 7 C6.938 12.682 7.336 18.761 4.062 23.75 C1.09 26.993 1.09 26.993 -2.875 27.312 C-6.71 27.271 -6.71 27.271 -8.938 25.188 C-11.768 19.36 -11.585 13.355 -11 7 C-9.006 1.794 -5.665 -1.03 0 0 Z " fill="#E9E9E9" transform="translate(873,276)"/>
<path d="M0 0 C-0.386 2.798 -0.801 3.821 -2.938 5.75 C-5 7 -5 7 -7 7 C-6.273 8.018 -5.546 9.037 -4.797 10.086 C16.438 39.93 16.438 39.93 24 55 C26.97 54.34 29.94 53.68 33 53 C32 57 32 57 29.938 58.25 C29.298 58.498 28.659 58.745 28 59 C28.618 62.862 29.784 65.988 31.477 69.508 C31.98 70.568 32.483 71.629 33.001 72.722 C33.537 73.845 34.073 74.968 34.625 76.125 C38.429 84.239 42.122 92.349 45.25 100.75 C45.537 101.504 45.824 102.259 46.12 103.036 C47.607 107.156 48.303 110.621 48 115 C46 114 46 114 45.153 112.02 C44.869 111.15 44.585 110.279 44.293 109.383 C43.96 108.396 43.627 107.41 43.284 106.393 C42.922 105.315 42.56 104.236 42.188 103.125 C35.875 84.936 27.312 67.823 18 51 C17.361 49.821 16.723 48.641 16.086 47.461 C10.063 36.597 2.983 26.465 -4.582 16.617 C-5.318 15.65 -6.054 14.684 -6.812 13.688 C-7.458 12.866 -8.104 12.045 -8.77 11.199 C-10 9 -10 9 -9.879 6.879 C-7.966 2.789 -4.478 0 0 0 Z " fill="#F7F7F6" transform="translate(736,351)"/>
<path d="M0 0 C8.25 0 16.5 0 25 0 C25 0.66 25 1.32 25 2 C18.375 4 18.375 4 15 4 C14.67 3.67 14.34 3.34 14 3 C10.634 2.854 8.216 2.928 5 4 C5 3.34 5 2.68 5 2 C4.34 2 3.68 2 3 2 C3 7.94 3 13.88 3 20 C3.99 20 4.98 20 6 20 C5.965 19.096 5.93 18.193 5.895 17.262 C5.867 16.082 5.84 14.903 5.812 13.688 C5.778 12.516 5.743 11.344 5.707 10.137 C6 7 6 7 7.379 5.066 C9 4 9 4 11.125 4.25 C13 5 13 5 14 6 C14.073 8.186 14.084 10.375 14.062 12.562 C14.053 13.76 14.044 14.958 14.035 16.191 C14.024 17.118 14.012 18.045 14 19 C14.99 19 15.98 19 17 19 C17 15.7 17 12.4 17 9 C17.66 8.67 18.32 8.34 19 8 C19 12.29 19 16.58 19 21 C16.36 21 13.72 21 11 21 C10.67 19.68 10.34 18.36 10 17 C9.67 18.65 9.34 20.3 9 22 C2.848 22.098 2.848 22.098 1 22 C0 21 0 21 -0.114 18.959 C-0.108 18.084 -0.103 17.21 -0.098 16.309 C-0.095 15.458 -0.093 14.608 -0.09 13.732 C-0.081 12.645 -0.072 11.558 -0.062 10.438 C-0.042 6.993 -0.021 3.549 0 0 Z " fill="#F2F2F2" transform="translate(893,284)"/>
<path d="M0 0 C0.99 0 1.98 0 3 0 C3 10.56 3 21.12 3 32 C0.03 32 -2.94 32 -6 32 C-5.984 31.319 -5.969 30.638 -5.952 29.936 C-5.89 26.853 -5.851 23.771 -5.812 20.688 C-5.787 19.616 -5.762 18.544 -5.736 17.439 C-5.722 15.897 -5.722 15.897 -5.707 14.324 C-5.691 13.376 -5.676 12.428 -5.659 11.452 C-6.055 8.602 -6.778 7.75 -9 6 C-8.434 5.734 -7.868 5.469 -7.285 5.195 C-6.552 4.842 -5.818 4.489 -5.062 4.125 C-4.332 3.777 -3.601 3.429 -2.848 3.07 C-0.837 2.132 -0.837 2.132 0 0 Z " fill="#DCDCDB" transform="translate(849,274)"/>
<path d="M0 0 C3.968 0.792 7.564 2.448 11.25 4.062 C12.225 4.485 12.225 4.485 13.219 4.916 C14.814 5.608 16.407 6.304 18 7 C18 7.99 18 8.98 18 10 C15.377 11.171 12.752 12.337 10.125 13.5 C9.379 13.834 8.632 14.168 7.863 14.512 C7.148 14.828 6.432 15.143 5.695 15.469 C5.035 15.762 4.376 16.055 3.696 16.357 C2 17 2 17 0 17 C0 14.69 0 12.38 0 10 C-8.25 10 -16.5 10 -25 10 C-25 9.01 -25 8.02 -25 7 C-16.75 7 -8.5 7 0 7 C0 4.69 0 2.38 0 0 Z " fill="#0C0C0C" transform="translate(588,133)"/>
<path d="M0 0 C3.373 1.32 4.661 2.544 6.812 5.438 C9.221 12.664 8.936 20.954 6 28 C4.375 30.438 4.375 30.438 2 32 C-2.757 32.453 -6.821 32.554 -11 30 C-14.96 25.179 -15.716 21.574 -15.625 15.562 C-15.616 14.809 -15.607 14.056 -15.597 13.28 C-15.424 9.13 -15.102 5.875 -12.562 2.438 C-8.786 -0.919 -4.788 -0.956 0 0 Z M-11 7 C-13.335 11.671 -12.82 19.223 -11.363 24.156 C-10.451 25.971 -9.442 27.558 -8 29 C-3.959 29.399 -3.959 29.399 0 29 C4.269 24.84 5.216 21.639 5.438 15.812 C5.407 11.251 5.206 8.294 2.312 4.688 C0.273 2.768 -0.842 2.046 -3.562 1.25 C-7.021 2.314 -8.676 4.288 -11 7 Z " fill="#E5E5E5" transform="translate(874,274)"/>
<path d="M0 0 C20.13 0 40.26 0 61 0 C61 0.99 61 1.98 61 3 C40.87 3 20.74 3 0 3 C0 2.01 0 1.02 0 0 Z " fill="#080808" transform="translate(414,140)"/>
<path d="M0 0 C1.145 0.124 1.145 0.124 2.312 0.25 C1.312 3.25 1.312 3.25 -0.25 4.75 C-2.033 6.265 -2.033 6.265 -1.688 9.25 C0.293 8.59 2.273 7.93 4.312 7.25 C3.982 9.56 3.653 11.87 3.312 14.25 C3.8 14.593 4.287 14.936 4.789 15.289 C10.183 19.27 14.959 23.704 19.688 28.438 C20.294 29.044 20.901 29.65 21.526 30.274 C29.312 38.156 29.312 38.156 29.312 42.25 C25.558 40.726 23.505 38.477 20.875 35.438 C17.785 31.919 14.669 28.518 11.312 25.25 C10.839 24.743 10.366 24.237 9.879 23.715 C4.589 18.146 -1.485 13.741 -7.688 9.25 C-4.236 0.394 -4.236 0.394 0 0 Z " fill="#F7F7F7" transform="translate(690.6875,306.75)"/>
<path d="M0 0 C2.838 1.89 4.502 3.944 6 7 C6.938 12.682 7.336 18.761 4.062 23.75 C1.09 26.993 1.09 26.993 -2.875 27.312 C-6.71 27.271 -6.71 27.271 -8.938 25.188 C-11.768 19.36 -11.585 13.355 -11 7 C-9.006 1.794 -5.665 -1.03 0 0 Z M-6.637 4.629 C-8.413 7.719 -8.366 9.891 -8.312 13.438 C-8.309 14.55 -8.305 15.662 -8.301 16.809 C-8.007 19.928 -7.323 22.179 -6 25 C-4.02 25 -2.04 25 0 25 C3.689 19.467 3.925 13.514 3 7 C1.752 4.651 1.752 4.651 0 3 C-3.111 2.378 -4.355 2.358 -6.637 4.629 Z " fill="#1E1B1C" transform="translate(873,276)"/>
<path d="M0 0 C3.979 -0.059 7.958 -0.094 11.938 -0.125 C13.054 -0.142 14.171 -0.159 15.322 -0.176 C21.89 -0.214 27.653 0.291 34 2 C33.67 2.99 33.34 3.98 33 5 C29.438 6.688 29.438 6.688 26 8 C26.489 8.403 26.978 8.806 27.482 9.222 C29.396 11.464 29.352 12.538 29.293 15.449 C29.283 16.297 29.274 17.144 29.264 18.018 C29.239 18.899 29.213 19.78 29.188 20.688 C29.167 22.027 29.167 22.027 29.146 23.393 C29.111 25.596 29.062 27.798 29 30 C28.67 30 28.34 30 28 30 C28 24.06 28 18.12 28 12 C25.36 12.66 22.72 13.32 20 14 C19.902 13.385 19.804 12.77 19.703 12.137 C18.834 7.199 18.834 7.199 16.375 2.938 C11.431 0.986 6.052 1.737 1 3 C0.67 2.01 0.34 1.02 0 0 Z " fill="#C7C8C8" transform="translate(815,272)"/>
<path d="M0 0 C0.66 0 1.32 0 2 0 C2 0.66 2 1.32 2 2 C2.99 1.34 3.98 0.68 5 0 C9.075 -0.34 10.53 -0.313 14 2 C14.66 1.34 15.32 0.68 16 0 C18.713 -0.348 20.323 -0.44 22.648 1.07 C24.724 4.034 24.285 6.629 24.188 10.188 C24.16 11.46 24.133 12.732 24.105 14.043 C24.071 15.019 24.036 15.995 24 17 C23.34 17 22.68 17 22 17 C21.951 16.157 21.902 15.314 21.852 14.445 C21.777 13.35 21.702 12.254 21.625 11.125 C21.555 10.034 21.486 8.944 21.414 7.82 C21.267 4.87 21.267 4.87 19 3 C17.68 3.33 16.36 3.66 15 4 C14.67 8.29 14.34 12.58 14 17 C13.01 17 12.02 17 11 17 C10.67 12.71 10.34 8.42 10 4 C8.68 3.67 7.36 3.34 6 3 C3.23 5.77 3.602 7.765 3.375 11.625 C3.3 12.814 3.225 14.002 3.148 15.227 C3.099 16.142 3.05 17.057 3 18 C2.01 18 1.02 18 0 18 C0 12.06 0 6.12 0 0 Z " fill="#393739" transform="translate(896,286)"/>
<path d="M0 0 C0.33 0 0.66 0 1 0 C0.096 11.213 -3.534 20.727 -8 31 C-4.659 29.33 -4.187 25.545 -3 22.188 C0.178 13.337 0.178 13.337 2 10 C2.33 10 2.66 10 3 10 C2.465 18.03 0.621 25.758 -3 33 C-5.31 33 -7.62 33 -10 33 C-10.742 25.792 -8.07 19.791 -5.562 13.125 C-5.142 11.973 -4.721 10.82 -4.287 9.633 C-1.168 1.168 -1.168 1.168 0 0 Z " fill="#EFEFEF" transform="translate(809,275)"/>
<path d="M0 0 C0.785 0.004 1.57 0.008 2.379 0.012 C4.438 0.312 4.438 0.312 6.438 2.312 C6.619 5.583 6.67 8.451 5.812 11.625 C5.689 12.182 5.565 12.739 5.438 13.312 C6.097 13.973 6.758 14.632 7.438 15.312 C7.875 18.125 7.875 18.125 7.438 21.312 C5.265 23.885 3.458 25.802 0.438 27.312 C-5.101 27.543 -5.101 27.543 -7.562 26.312 C-7.067 24.827 -7.067 24.827 -6.562 23.312 C-5.284 23.354 -4.005 23.395 -2.688 23.438 C-0.544 23.555 -0.544 23.555 1.438 23.312 C3.787 21.415 3.787 21.415 3.562 18.188 C3.521 17.239 3.48 16.29 3.438 15.312 C2.303 15.189 1.169 15.065 0 14.938 C-1.763 14.628 -1.763 14.628 -3.562 14.312 C-3.893 13.652 -4.222 12.993 -4.562 12.312 C-2.253 11.322 0.058 10.332 2.438 9.312 C2.48 7.646 2.478 5.979 2.438 4.312 C1.429 3.08 1.429 3.08 -0.629 3.215 C-1.864 3.232 -1.864 3.232 -3.125 3.25 C-4.364 3.264 -4.364 3.264 -5.629 3.277 C-6.586 3.295 -6.586 3.295 -7.562 3.312 C-5.182 0.412 -3.721 -0.08 0 0 Z " fill="#29282A" transform="translate(825.5625,276.6875)"/>
<path d="M0 0 C4.556 0.556 4.556 0.556 6 2 C6.073 4.353 6.084 6.708 6.062 9.062 C6.053 10.353 6.044 11.643 6.035 12.973 C6.024 13.972 6.012 14.971 6 16 C6.66 15.67 7.32 15.34 8 15 C8.468 12.414 8.468 12.414 8.625 9.438 C8.7 8.426 8.775 7.414 8.852 6.371 C8.901 5.589 8.95 4.806 9 4 C10.32 3.67 11.64 3.34 13 3 C12.01 3.495 12.01 3.495 11 4 C11.012 4.927 11.023 5.854 11.035 6.809 C11.044 8.006 11.053 9.204 11.062 10.438 C11.074 11.632 11.086 12.827 11.098 14.059 C11 17 11 17 10 18 C7.062 18.25 7.062 18.25 4 18 C2 15 2 15 1.5 12.375 C1.335 11.591 1.17 10.808 1 10 C0.34 9.67 -0.32 9.34 -1 9 C-1 10.65 -1 12.3 -1 14 C-1.33 14 -1.66 14 -2 14 C-2.054 12.042 -2.093 10.084 -2.125 8.125 C-2.148 7.034 -2.171 5.944 -2.195 4.82 C-2 2 -2 2 0 0 Z " fill="#E8E9E8" transform="translate(930,288)"/>
<path d="M0 0 C0.66 -0.66 1.32 -1.32 2 -2 C4.713 -2.348 6.323 -2.44 8.648 -0.93 C10.724 2.034 10.285 4.629 10.188 8.188 C10.16 9.46 10.133 10.732 10.105 12.043 C10.071 13.019 10.036 13.995 10 15 C9.34 15 8.68 15 8 15 C7.951 14.157 7.902 13.314 7.852 12.445 C7.777 11.35 7.702 10.254 7.625 9.125 C7.555 8.034 7.486 6.944 7.414 5.82 C7.267 2.87 7.267 2.87 5 1 C2.218 1.405 2.218 1.405 0 3 C-0.235 5.183 -0.414 7.372 -0.562 9.562 C-0.646 10.76 -0.73 11.958 -0.816 13.191 C-0.877 14.118 -0.938 15.045 -1 16 C-1.66 16 -2.32 16 -3 16 C-3.33 11.38 -3.66 6.76 -4 2 C-5.65 1.67 -7.3 1.34 -9 1 C-11.77 3.77 -11.398 5.765 -11.625 9.625 C-11.7 10.814 -11.775 12.002 -11.852 13.227 C-11.901 14.142 -11.95 15.057 -12 16 C-12.66 16 -13.32 16 -14 16 C-14 10.39 -14 4.78 -14 -1 C-4.794 -2.841 -4.794 -2.841 0 0 Z " fill="#100E11" transform="translate(939,288)"/>
<path d="M0 0 C0.081 2.083 0.139 4.166 0.188 6.25 C0.222 7.41 0.257 8.57 0.293 9.766 C-0.022 13.247 -0.478 14.618 -3 17 C-6.188 17.25 -6.188 17.25 -9 17 C-9 16.01 -9 15.02 -9 14 C-6.525 14.99 -6.525 14.99 -4 16 C-3.67 14.68 -3.34 13.36 -3 12 C-5.31 11.67 -7.62 11.34 -10 11 C-11.31 4.806 -11.31 4.806 -10.062 1.562 C-6.81 -0.902 -4.006 -0.263 0 0 Z " fill="#3B3A3C" transform="translate(600,180)"/>
<path d="M0 0 C4.556 0.556 4.556 0.556 6 2 C6.34 3.948 6.598 5.91 6.812 7.875 C6.943 8.945 7.073 10.015 7.207 11.117 C7 14 7 14 5.18 15.898 C2.362 17.322 0.953 16.958 -2 16 C-3 15 -3 15 -3.125 12.625 C-3 10 -3 10 -2 7 C-2.021 6.154 -2.041 5.309 -2.062 4.438 C-2 2 -2 2 0 0 Z " fill="#191818" transform="translate(459,215)"/>
<path d="M0 0 C4.556 0.556 4.556 0.556 6 2 C6 4 6 6 6 8 C6.33 8.33 6.66 8.66 7 9 C7.294 11.796 7.338 13.437 5.875 15.875 C3.078 17.553 1.063 16.749 -2 16 C-3.125 10.375 -3.125 10.375 -2 7 C-2.021 6.154 -2.041 5.309 -2.062 4.438 C-2 2 -2 2 0 0 Z " fill="#2B2A2A" transform="translate(471,215)"/>
<path d="M0 0 C2.935 0.367 3.864 0.864 6 3 C6.195 5.82 6.195 5.82 6.125 9.125 C6.107 10.221 6.089 11.316 6.07 12.445 C6.047 13.288 6.024 14.131 6 15 C5.67 15 5.34 15 5 15 C4.67 11.7 4.34 8.4 4 5 C2.783 7.434 2.68 9.418 2.438 12.125 C2.293 13.734 2.149 15.342 2 17 C6.95 17 11.9 17 17 17 C16.34 16.67 15.68 16.34 15 16 C15 11.71 15 7.42 15 3 C15.33 3 15.66 3 16 3 C16.33 4.98 16.66 6.96 17 9 C17.99 9.33 18.98 9.66 20 10 C20.33 11.98 20.66 13.96 21 16 C17.507 18.329 16.14 18.236 12.02 18.195 C10.274 18.186 10.274 18.186 8.494 18.176 C7.279 18.159 6.064 18.142 4.812 18.125 C3.586 18.116 2.359 18.107 1.096 18.098 C-1.936 18.074 -4.968 18.041 -8 18 C-8 17.67 -8 17.34 -8 17 C-5.36 17 -2.72 17 0 17 C-0.141 15.062 -0.288 13.125 -0.438 11.188 C-0.519 10.109 -0.6 9.03 -0.684 7.918 C-0.902 4.94 -0.902 4.94 -2 2 C-1.34 1.34 -0.68 0.68 0 0 Z " fill="#DADBDA" transform="translate(912,288)"/>
<path d="M0 0 C1.052 0.012 1.052 0.012 2.125 0.023 C2.826 0.016 3.528 0.008 4.25 0 C6.125 0.398 6.125 0.398 8.125 3.398 C7.672 9.851 7.672 9.851 5.125 12.398 C2.022 12.729 -0.033 12.904 -2.75 11.273 C-4.387 8.546 -4.2 6.519 -3.875 3.398 C-1.875 0.398 -1.875 0.398 0 0 Z " fill="#F5F5F5" transform="translate(577.875,550.6015625)"/>
<path d="M0 0 C2 2 2 2 2.312 5.438 C2 9 2 9 0.875 10.938 C-1.89 12.504 -3.882 12.39 -7 12 C-8.875 10.875 -8.875 10.875 -10 9 C-10.39 5.882 -10.504 3.89 -8.938 1.125 C-5.933 -0.62 -3.392 -0.308 0 0 Z " fill="#F4F4F4" transform="translate(457,551)"/>
<path d="M0 0 C3.635 1.624 4.774 2.661 7 6 C7.195 9.355 7.195 9.355 7.125 13.188 C7.107 14.46 7.089 15.732 7.07 17.043 C7.047 18.019 7.024 18.995 7 20 C6.67 20 6.34 20 6 20 C5.914 19.276 5.827 18.551 5.738 17.805 C4.821 11.494 4.108 7.086 -1 3 C-4.65 2.581 -4.65 2.581 -8 4 C-10.721 7.623 -11.553 10.87 -12.188 15.312 C-12.346 16.381 -12.505 17.45 -12.668 18.551 C-12.778 19.359 -12.887 20.167 -13 21 C-13.66 20.67 -14.32 20.34 -15 20 C-16.03 7.311 -16.03 7.311 -12.562 2.688 C-8.803 -0.903 -4.93 -1.01 0 0 Z " fill="#F4F5F4" transform="translate(874,274)"/>
<path d="M0 0 C1.938 0.812 1.938 0.812 3.938 2.812 C4.133 5.633 4.133 5.633 4.062 8.938 C4.044 10.033 4.026 11.129 4.008 12.258 C3.985 13.101 3.961 13.944 3.938 14.812 C5.258 15.473 6.577 16.132 7.938 16.812 C7.938 17.142 7.938 17.473 7.938 17.812 C4.562 17.938 4.562 17.938 0.938 17.812 C0.278 17.152 -0.383 16.493 -1.062 15.812 C-1.393 15.812 -1.722 15.812 -2.062 15.812 C-2.062 11.853 -2.062 7.892 -2.062 3.812 C-2.393 3.812 -2.722 3.812 -3.062 3.812 C-3.393 7.442 -3.722 11.072 -4.062 14.812 C-4.393 14.812 -4.722 14.812 -5.062 14.812 C-5.144 12.876 -5.202 10.938 -5.25 9 C-5.285 7.921 -5.32 6.842 -5.355 5.73 C-5.062 2.812 -5.062 2.812 -3.68 0.914 C-2.062 -0.188 -2.062 -0.188 0 0 Z " fill="#DADADA" transform="translate(943.0625,288.1875)"/>
<path d="M0 0 C0.66 0 1.32 0 2 0 C2 1.65 2 3.3 2 5 C2.949 4.959 3.898 4.917 4.875 4.875 C8 5 8 5 10 7 C10.25 10.5 10.25 10.5 10 14 C9.34 14.66 8.68 15.32 8 16 C5.36 16 2.72 16 0 16 C0 10.72 0 5.44 0 0 Z " fill="#111111" transform="translate(532,215)"/>
<path d="M0 0 C2.375 0.875 2.375 0.875 4.375 2.875 C4.709 6.012 4.903 8.041 3.188 10.75 C0.72 12.282 -0.77 12.303 -3.625 11.875 C-5.438 10.688 -5.438 10.688 -6.625 8.875 C-7.062 6.438 -7.062 6.438 -6.625 3.875 C-4.538 0.938 -3.678 -0.175 0 0 Z " fill="#2E2D2E" transform="translate(527.625,180.125)"/>
<path d="M0 0 C0.763 0.082 1.526 0.165 2.312 0.25 C0.992 0.58 -0.327 0.91 -1.688 1.25 C-1.688 1.91 -1.688 2.57 -1.688 3.25 C-0.697 3.25 0.293 3.25 1.312 3.25 C3.207 8.934 2.46 13.748 0.312 19.25 C-0.678 18.92 -1.668 18.59 -2.688 18.25 C-2.82 17.575 -2.953 16.899 -3.09 16.203 C-3.266 15.311 -3.443 14.419 -3.625 13.5 C-3.799 12.618 -3.973 11.737 -4.152 10.828 C-4.642 8.3 -4.642 8.3 -5.324 6.062 C-5.688 4.25 -5.688 4.25 -4.562 2 C-2.688 0.25 -2.688 0.25 0 0 Z " fill="#DADBDA" transform="translate(870.6875,278.75)"/>
<path d="M0 0 C0.785 -0.012 1.57 -0.024 2.379 -0.037 C4.421 -0.042 6.462 0.065 8.5 0.188 C10.5 2.188 10.5 2.188 10.695 4.57 C10.672 5.475 10.649 6.38 10.625 7.312 C10.607 8.223 10.589 9.133 10.57 10.07 C10.547 10.769 10.524 11.468 10.5 12.188 C9.84 12.188 9.18 12.188 8.5 12.188 C8.5 8.887 8.5 5.588 8.5 2.188 C7.18 2.518 5.86 2.847 4.5 3.188 C4.17 5.827 3.84 8.468 3.5 11.188 C2.84 11.188 2.18 11.188 1.5 11.188 C1.5 8.218 1.5 5.248 1.5 2.188 C0.18 2.188 -1.14 2.188 -2.5 2.188 C-2.5 5.157 -2.5 8.127 -2.5 11.188 C-3.16 11.188 -3.82 11.188 -4.5 11.188 C-4.5 8.218 -4.5 5.248 -4.5 2.188 C-5.82 2.518 -7.14 2.847 -8.5 3.188 C-8.83 5.827 -9.16 8.468 -9.5 11.188 C-9.83 11.188 -10.16 11.188 -10.5 11.188 C-10.5 7.887 -10.5 4.588 -10.5 1.188 C-7.216 -0.454 -3.605 0.003 0 0 Z " fill="#353435" transform="translate(513.5,219.8125)"/>
<path d="M0 0 C3.289 1.175 5.393 2.987 7.234 5.969 C9.205 11.198 8.945 17.336 7.094 22.555 C6 24.75 6 24.75 4 28 C3.01 28 2.02 28 1 28 C1.324 27.163 1.647 26.327 1.98 25.465 C4.044 18.453 4.452 9.39 1.5 2.562 C1.005 1.717 0.51 0.871 0 0 Z " fill="#E1E1E2" transform="translate(541,131)"/>
<path d="M0 0 C11.4 0 11.4 0 16 1 C17.203 3.405 17.101 4.95 17.062 7.625 C17.053 8.442 17.044 9.26 17.035 10.102 C17.024 10.728 17.012 11.355 17 12 C16.34 12 15.68 12 15 12 C14.67 9.03 14.34 6.06 14 3 C12.68 2.67 11.36 2.34 10 2 C10.021 3.093 10.041 4.186 10.062 5.312 C10 9 10 9 9 12 C8.34 12 7.68 12 7 12 C6.67 9.03 6.34 6.06 6 3 C5.01 3 4.02 3 3 3 C2.67 5.97 2.34 8.94 2 12 C1.34 12 0.68 12 0 12 C0 8.04 0 4.08 0 0 Z " fill="#3D3D3D" transform="translate(502,180)"/>
<path d="M0 0 C2.479 -0.027 4.958 -0.047 7.438 -0.062 C8.145 -0.071 8.852 -0.079 9.58 -0.088 C11.387 -0.097 13.194 -0.052 15 0 C16 1 16 1 16.098 3.504 C16.086 4.513 16.074 5.523 16.062 6.562 C16.053 7.574 16.044 8.586 16.035 9.629 C16.024 10.411 16.012 11.194 16 12 C15.34 12 14.68 12 14 12 C14 8.7 14 5.4 14 2 C12.68 2.33 11.36 2.66 10 3 C9.67 5.64 9.34 8.28 9 11 C8.34 11 7.68 11 7 11 C7 8.03 7 5.06 7 2 C5.68 2.33 4.36 2.66 3 3 C2.67 5.97 2.34 8.94 2 12 C1.34 12 0.68 12 0 12 C0 8.04 0 4.08 0 0 Z " fill="#393839" transform="translate(568,220)"/>
<path d="M0 0 C0.66 0 1.32 0 2 0 C2 3.63 2 7.26 2 11 C2.66 11.33 3.32 11.66 4 12 C3.34 12 2.68 12 2 12 C2 13.65 2 15.3 2 17 C1.34 17 0.68 17 0 17 C0 15.68 0 14.36 0 13 C-2.31 13 -4.62 13 -7 13 C-6.36 9.553 -5.003 7.154 -3.062 4.25 C-2.538 3.451 -2.013 2.652 -1.473 1.828 C-0.744 0.923 -0.744 0.923 0 0 Z " fill="#444344" transform="translate(450,215)"/>
<path d="M0 0 C1.32 0 2.64 0 4 0 C4 6.93 4 13.86 4 21 C2.68 21 1.36 21 0 21 C0 14.07 0 7.14 0 0 Z " fill="#F2F2F2" transform="translate(783,557)"/>
<path d="M0 0 C3.125 0.25 3.125 0.25 5 1.375 C6.68 4.174 6.582 6.048 6.125 9.25 C4.834 10.624 3.499 11.959 2.125 13.25 C1.328 15.892 1.328 15.892 1.125 18.25 C0.135 18.25 -0.855 18.25 -1.875 18.25 C-2.236 14.372 -2.247 12.75 0.125 9.562 C0.785 8.799 1.445 8.036 2.125 7.25 C2.125 6.26 2.125 5.27 2.125 4.25 C-0.185 4.58 -2.495 4.91 -4.875 5.25 C-3.763 0.327 -3.763 0.327 0 0 Z " fill="#F9F9F9" transform="translate(813.875,555.75)"/>
<path d="M0 0 C2.5 -0.312 2.5 -0.312 5 0 C7 2 7 2 7.195 4.383 C7.172 5.288 7.149 6.193 7.125 7.125 C7.107 8.035 7.089 8.945 7.07 9.883 C7.047 10.581 7.024 11.28 7 12 C0.848 12.098 0.848 12.098 -1 12 C-2 11 -2 11 -2.125 8.5 C-2 6 -2 6 -1 5 C1 4.959 3 4.957 5 5 C5 4.01 5 3.02 5 2 C2.69 2.33 0.38 2.66 -2 3 C-1.34 2.01 -0.68 1.02 0 0 Z " fill="#2D2C2D" transform="translate(444,180)"/>
<path d="M0 0 C2 -0.043 4 -0.041 6 0 C7 1 7 1 7.098 3.285 C7.086 4.202 7.074 5.118 7.062 6.062 C7.053 6.982 7.044 7.901 7.035 8.848 C7.024 9.558 7.012 10.268 7 11 C3.625 11.625 3.625 11.625 0 12 C-0.66 11.34 -1.32 10.68 -2 10 C-1.633 7.065 -1.136 6.136 1 4 C2.32 4 3.64 4 5 4 C5 3.34 5 2.68 5 2 C3.02 2.33 1.04 2.66 -1 3 C-0.67 2.01 -0.34 1.02 0 0 Z " fill="#2D2C2D" transform="translate(558,220)"/>
<path d="M0 0 C2.901 -0.446 4.373 -0.432 6.812 1.25 C8 3 8 3 8 7 C5.36 7 2.72 7 0 7 C0 7.99 0 8.98 0 10 C2.31 10 4.62 10 7 10 C6.67 10.66 6.34 11.32 6 12 C3.125 12.125 3.125 12.125 0 12 C-2 10 -2 10 -2.25 6.562 C-2 3 -2 3 0 0 Z " fill="#4F4F4F" transform="translate(483,180)"/>
<path d="M0 0 C1.648 0.111 3.3 0.176 4.952 0.205 C6.423 0.235 6.423 0.235 7.924 0.266 C8.975 0.282 10.026 0.299 11.109 0.316 C12.191 0.337 13.273 0.358 14.388 0.379 C17.842 0.445 21.296 0.504 24.75 0.562 C27.092 0.606 29.435 0.649 31.777 0.693 C37.518 0.8 43.259 0.902 49 1 C49 1.33 49 1.66 49 2 C27.22 2 5.44 2 -17 2 C-17 1.67 -17 1.34 -17 1 C-14.918 0.636 -12.835 0.284 -10.75 -0.062 C-9.01 -0.358 -9.01 -0.358 -7.234 -0.66 C-4.188 -0.98 -2.857 -0.724 0 0 Z " fill="#F0F0F0" transform="translate(591,880)"/>
<path d="M0 0 C0.66 0 1.32 0 2 0 C0.434 9.933 -2.079 21.711 -8 30 C-8.66 30 -9.32 30 -10 30 C-8.516 24.274 -6.987 18.636 -4.828 13.125 C-3.779 10.432 -2.797 7.717 -1.812 5 C-1.296 3.577 -1.296 3.577 -0.77 2.125 C-0.516 1.424 -0.262 0.723 0 0 Z " fill="#2E2C2C" transform="translate(811,276)"/>
<path d="M0 0 C6.432 -0.485 6.432 -0.485 8.719 1.469 C10.612 5.209 10.321 8.624 10.188 12.75 C10.174 13.543 10.16 14.336 10.146 15.152 C10.111 17.102 10.057 19.051 10 21 C8.35 21 6.7 21 5 21 C5.66 20.67 6.32 20.34 7 20 C6.913 17.561 6.806 15.125 6.688 12.688 C6.665 11.997 6.642 11.307 6.619 10.596 C6.429 6.613 6.429 6.613 4.645 3.145 C3.11 2.077 1.556 1.037 0 0 Z " fill="#EEEFEE" transform="translate(942,284)"/>
<path d="M0 0 C-0.33 0.99 -0.66 1.98 -1 3 C-4.562 4.688 -4.562 4.688 -8 6 C-7.511 6.403 -7.022 6.806 -6.518 7.222 C-4.604 9.464 -4.648 10.538 -4.707 13.449 C-4.717 14.297 -4.726 15.144 -4.736 16.018 C-4.761 16.899 -4.787 17.78 -4.812 18.688 C-4.826 19.58 -4.84 20.473 -4.854 21.393 C-4.889 23.596 -4.938 25.798 -5 28 C-5.33 28 -5.66 28 -6 28 C-6 22.06 -6 16.12 -6 10 C-7.65 10 -9.3 10 -11 10 C-11.33 8.35 -11.66 6.7 -12 5 C-7.81 1.489 -5.598 0 0 0 Z " fill="#F3F4F3" transform="translate(849,274)"/>
<path d="M0 0 C2 2 2 2 2 6 C-0.31 6.66 -2.62 7.32 -5 8 C-3.02 8.66 -1.04 9.32 1 10 C1 10.33 1 10.66 1 11 C-2.375 11.125 -2.375 11.125 -6 11 C-8 9 -8 9 -8.312 6.062 C-8 3 -8 3 -6.812 1.125 C-4.382 -0.383 -2.81 -0.36 0 0 Z " fill="#212121" transform="translate(552,220)"/>
<path d="M0 0 C0.66 0 1.32 0 2 0 C1.453 3.942 0.383 6.262 -2.055 9.391 C-2.67 10.182 -3.284 10.974 -3.918 11.789 C-4.564 12.601 -5.21 13.413 -5.875 14.25 C-6.513 15.078 -7.151 15.905 -7.809 16.758 C-12.608 22.869 -12.608 22.869 -16 24 C-14.308 20.281 -12.029 17.017 -9.688 13.688 C-9.285 13.113 -8.883 12.538 -8.469 11.947 C-7.313 10.297 -6.156 8.649 -5 7 C-4.192 5.809 -4.192 5.809 -3.367 4.594 C-2.295 3.027 -1.156 1.506 0 0 Z " fill="#F6F6F6" transform="translate(739,768)"/>
<path d="M0 0 C0 3.96 0 7.92 0 12 C-0.99 12 -1.98 12 -3 12 C-3 9.03 -3 6.06 -3 3 C-6.106 6.106 -6.813 7.892 -8 12 C-8.66 12 -9.32 12 -10 12 C-10.314 7.998 -10.341 5.617 -8.375 2.062 C-6 0 -6 0 0 0 Z " fill="#828081" transform="translate(472,180)"/>
<path d="M0 0 C0 8.25 0 16.5 0 25 C-0.66 25 -1.32 25 -2 25 C-2 17.74 -2 10.48 -2 3 C-3.65 3.33 -5.3 3.66 -7 4 C-7 3.01 -7 2.02 -7 1 C-4 0 -4 0 0 0 Z " fill="#131214" transform="translate(848,278)"/>
<path d="M0 0 C0.66 0 1.32 0 2 0 C3.32 3.63 4.64 7.26 6 11 C7.668 8.498 8.624 6.589 9.625 3.812 C9.885 3.097 10.146 2.382 10.414 1.645 C10.607 1.102 10.801 0.559 11 0 C11.66 0 12.32 0 13 0 C11.713 5.544 10.081 10.702 8 16 C7.01 15.67 6.02 15.34 5 15 C3.613 12.129 3.613 12.129 2.312 8.562 C1.657 6.801 1.657 6.801 0.988 5.004 C0 2 0 2 0 0 Z " fill="#302F31" transform="translate(428,176)"/>
<path d="M0 0 C0.66 0 1.32 0 2 0 C2 2.64 2 5.28 2 8 C2.99 8.33 3.98 8.66 5 9 C4.01 9.495 4.01 9.495 3 10 C3 13.63 3 17.26 3 21 C2.01 21 1.02 21 0 21 C0 14.07 0 7.14 0 0 Z " fill="#FAFAFA" transform="translate(792,556)"/>
<path d="M0 0 C2.625 0.375 2.625 0.375 5 1 C5.043 3 5.041 5 5 7 C4 8 4 8 1.5 8.125 C-1 8 -1 8 -2 7 C-2.188 4.562 -2.188 4.562 -2 2 C-1.34 1.34 -0.68 0.68 0 0 Z " fill="#EDEDEE" transform="translate(593,182)"/>
<path d="M0 0 C2.625 0.375 2.625 0.375 5 1 C5.043 3 5.041 5 5 7 C4 8 4 8 1.5 8.125 C-1 8 -1 8 -2 7 C-2.188 4.562 -2.188 4.562 -2 2 C-1.34 1.34 -0.68 0.68 0 0 Z " fill="#F4F4F4" transform="translate(525,182)"/>
<path d="M0 0 C2.5 0.125 2.5 0.125 3.5 1.125 C3.688 3.562 3.688 3.562 3.5 6.125 C2.84 6.785 2.18 7.445 1.5 8.125 C-1.125 7.75 -1.125 7.75 -3.5 7.125 C-3.543 5.125 -3.541 3.125 -3.5 1.125 C-2.5 0.125 -2.5 0.125 0 0 Z " fill="#E9E9E9" transform="translate(536.5,221.875)"/>
<path d="M0 0 C2.756 1.971 3.035 3.173 3.73 6.574 C3.896 7.944 4.048 9.315 4.188 10.688 C4.269 11.389 4.351 12.091 4.436 12.814 C4.635 14.542 4.819 16.271 5 18 C6.65 18 8.3 18 10 18 C8.25 19.125 8.25 19.125 6 20 C3.875 19.438 3.875 19.438 2 18 C-0.056 13.989 -0.215 10.653 -0.125 6.188 C-0.107 5.026 -0.089 3.865 -0.07 2.668 C-0.047 1.788 -0.024 0.907 0 0 Z " fill="#302F31" transform="translate(862,283)"/>
<path d="M0 0 C0.91 0.009 1.82 0.018 2.758 0.027 C3.456 0.039 4.155 0.051 4.875 0.062 C4.545 0.722 4.215 1.382 3.875 2.062 C2.885 2.062 1.895 2.062 0.875 2.062 C0.875 5.032 0.875 8.002 0.875 11.062 C0.215 11.062 -0.445 11.062 -1.125 11.062 C-1.125 8.093 -1.125 5.123 -1.125 2.062 C-2.445 2.393 -3.765 2.722 -5.125 3.062 C-5.455 5.702 -5.785 8.343 -6.125 11.062 C-6.455 11.062 -6.785 11.062 -7.125 11.062 C-7.125 7.762 -7.125 4.463 -7.125 1.062 C-4.6 -0.2 -2.813 -0.036 0 0 Z " fill="#2C2B2C" transform="translate(510.125,219.9375)"/>
<path d="M0 0 C1.207 0.031 1.207 0.031 2.438 0.062 C2.768 0.722 3.097 1.382 3.438 2.062 C1.788 2.062 0.138 2.062 -1.562 2.062 C-1.562 3.053 -1.562 4.042 -1.562 5.062 C-0.242 5.393 1.077 5.722 2.438 6.062 C2.82 7.719 3.151 9.387 3.438 11.062 C2.438 12.062 2.438 12.062 -0.625 12.125 C-1.594 12.104 -2.564 12.084 -3.562 12.062 C-3.562 11.403 -3.562 10.743 -3.562 10.062 C-1.913 10.062 -0.263 10.062 1.438 10.062 C1.438 9.072 1.438 8.083 1.438 7.062 C-0.212 6.732 -1.862 6.403 -3.562 6.062 C-3.605 4.396 -3.603 2.729 -3.562 1.062 C-2.562 0.062 -2.562 0.062 0 0 Z " fill="#2A292A" transform="translate(563.5625,179.9375)"/>
<path d="M0 0 C0.66 0 1.32 0 2 0 C2 3.96 2 7.92 2 12 C-4.152 12.098 -4.152 12.098 -6 12 C-7 11 -7 11 -7.098 8.715 C-7.086 7.798 -7.074 6.882 -7.062 5.938 C-7.053 5.018 -7.044 4.099 -7.035 3.152 C-7.024 2.442 -7.012 1.732 -7 1 C-6.67 1 -6.34 1 -6 1 C-5.67 3.64 -5.34 6.28 -5 9 C-3.35 9.33 -1.7 9.66 0 10 C0 6.7 0 3.4 0 0 Z " fill="#323031" transform="translate(555,180)"/>
<path d="M0 0 C1.32 0.66 2.64 1.32 4 2 C4 2.66 4 3.32 4 4 C2.68 4 1.36 4 0 4 C0 5.65 0 7.3 0 9 C0.66 9.33 1.32 9.66 2 10 C-2 10 -2 10 -5 8 C-3.814 4.625 -2.724 2.353 0 0 Z " fill="#F7F8F8" transform="translate(717,796)"/>
<path d="M0 0 C0.33 0.66 0.66 1.32 1 2 C3.97 2 6.94 2 10 2 C10 2.99 10 3.98 10 5 C7.03 5 4.06 5 1 5 C0.67 7.31 0.34 9.62 0 12 C-0.33 12 -0.66 12 -1 12 C-1.027 10.375 -1.046 8.75 -1.062 7.125 C-1.074 6.22 -1.086 5.315 -1.098 4.383 C-1 2 -1 2 0 0 Z " fill="#FAFAFA" transform="translate(787,618)"/>
<path d="M0 0 C2.31 0 4.62 0 7 0 C7 0.33 7 0.66 7 1 C5.35 1.33 3.7 1.66 2 2 C1.67 3.32 1.34 4.64 1 6 C2.454 5.969 2.454 5.969 3.938 5.938 C7 6 7 6 8 7 C8.454 12.218 8.454 12.218 6.875 14.938 C4.073 16.525 2.03 15.741 -1 15 C-1 14.34 -1 13.68 -1 13 C0.98 13 2.96 13 5 13 C5.33 11.68 5.66 10.36 6 9 C3.024 8.297 3.024 8.297 0 8 C0 5.36 0 2.72 0 0 Z " fill="#1F1D1E" transform="translate(487,216)"/>
<path d="M0 0 C0 3.63 0 7.26 0 11 C-0.33 11 -0.66 11 -1 11 C-1.33 8.03 -1.66 5.06 -2 2 C-3.32 2 -4.64 2 -6 2 C-6.33 4.97 -6.66 7.94 -7 11 C-7.66 11 -8.32 11 -9 11 C-9 7.37 -9 3.74 -9 0 C-5.522 -1.159 -3.541 -0.708 0 0 Z " fill="#272627" transform="translate(586,181)"/>
<path d="M0 0 C0.33 0 0.66 0 1 0 C1.375 2.25 1.375 2.25 1 5 C-2.101 7.732 -4.117 8.915 -8.25 9.312 C-11 9 -11 9 -13 8 C-12.67 7.01 -12.34 6.02 -12 5 C-10.144 5.155 -10.144 5.155 -8.25 5.312 C-6.061 5.394 -6.061 5.394 -4 5 C-1.528 2.642 -1.528 2.642 0 0 Z " fill="#2B2A2C" transform="translate(831,295)"/>
<path d="M0 0 C4.439 -0.36 4.439 -0.36 6.656 1.062 C8.717 4.034 8.285 6.63 8.188 10.188 C8.16 11.46 8.133 12.732 8.105 14.043 C8.071 15.019 8.036 15.995 8 17 C7.34 17 6.68 17 6 17 C5.986 16.192 5.972 15.384 5.957 14.551 C5.914 7.511 5.914 7.511 2.438 1.75 C1.633 1.173 0.829 0.595 0 0 Z " fill="#1A181A" transform="translate(912,286)"/>
<path d="M0 0 C1 1 1 1 1.098 3.285 C1.086 4.202 1.074 5.118 1.062 6.062 C1.053 6.982 1.044 7.901 1.035 8.848 C1.024 9.558 1.012 10.268 1 11 C0.67 11 0.34 11 0 11 C-0.33 8.03 -0.66 5.06 -1 2 C-2.32 2 -3.64 2 -5 2 C-5.33 4.97 -5.66 7.94 -6 11 C-6.66 11 -7.32 11 -8 11 C-8 7.37 -8 3.74 -8 0 C-4.697 -1.101 -3.295 -0.867 0 0 Z " fill="#242323" transform="translate(543,181)"/>
<path d="M0 0 C0.785 0.004 1.57 0.008 2.379 0.012 C4.438 0.312 4.438 0.312 6.438 2.312 C6.562 5.438 6.562 5.438 6.438 8.312 C5.798 7.488 5.159 6.663 4.5 5.812 C0.414 2.477 -2.491 2.815 -7.562 3.312 C-5.182 0.412 -3.721 -0.08 0 0 Z " fill="#1C1B1B" transform="translate(825.5625,276.6875)"/>
<path d="M0 0 C0.99 0.33 1.98 0.66 3 1 C2.34 1 1.68 1 1 1 C1.012 1.927 1.023 2.854 1.035 3.809 C1.044 5.006 1.053 6.204 1.062 7.438 C1.074 8.632 1.086 9.827 1.098 11.059 C1 14 1 14 0 15 C-2 15.041 -4 15.043 -6 15 C-6 14.34 -6 13.68 -6 13 C-4.68 12.67 -3.36 12.34 -2 12 C-1.939 11.218 -1.879 10.435 -1.816 9.629 C-1.733 8.617 -1.649 7.605 -1.562 6.562 C-1.481 5.553 -1.4 4.544 -1.316 3.504 C-1 1 -1 1 0 0 Z " fill="#F7F8F7" transform="translate(940,291)"/>
<path d="M0 0 C0.33 0 0.66 0 1 0 C0.584 6.195 -0.603 11.267 -3 17 C-3.66 16.67 -4.32 16.34 -5 16 C-3.903 10.309 -2.459 5.254 0 0 Z " fill="#F6F6F5" transform="translate(811,285)"/>
<path d="M0 0 C1.98 0 3.96 0 6 0 C6.33 0.66 6.66 1.32 7 2 C6.351 3.342 5.683 4.675 5 6 C5 6.99 5 7.98 5 9 C3.35 9 1.7 9 0 9 C0.33 7.35 0.66 5.7 1 4 C2.32 4 3.64 4 5 4 C5 3.34 5 2.68 5 2 C3.02 2.33 1.04 2.66 -1 3 C-0.67 2.01 -0.34 1.02 0 0 Z " fill="#8B8B8B" transform="translate(558,220)"/>
<path d="M0 0 C0.33 0.99 0.66 1.98 1 3 C1.66 3 2.32 3 3 3 C3.33 3.66 3.66 4.32 4 5 C6.025 5.652 6.025 5.652 8 6 C8 6.99 8 7.98 8 9 C6.35 9 4.7 9 3 9 C2.67 9.66 2.34 10.32 2 11 C1.34 10.67 0.68 10.34 0 10 C0 6.7 0 3.4 0 0 Z " fill="#F0F0F0" transform="translate(557,181)"/>
<path d="M0 0 C2.31 0 4.62 0 7 0 C7.33 1.65 7.66 3.3 8 5 C7.34 4.67 6.68 4.34 6 4 C6 3.34 6 2.68 6 2 C5.01 2.33 4.02 2.66 3 3 C2.67 5.97 2.34 8.94 2 12 C1.34 12 0.68 12 0 12 C0 8.04 0 4.08 0 0 Z " fill="#2B2A2B" transform="translate(454,180)"/>
<path d="M0 0 C0.99 0.99 1.98 1.98 3 3 C1.625 4.5 1.625 4.5 0 6 C-0.66 6 -1.32 6 -2 6 C-2 6.66 -2 7.32 -2 8 C-6.29 8 -10.58 8 -15 8 C-15 7.67 -15 7.34 -15 7 C-14.112 6.961 -14.112 6.961 -13.207 6.922 C-7.95 6.545 -4.823 5.942 -1 2 C-0.67 1.34 -0.34 0.68 0 0 Z " fill="#E6E7E6" transform="translate(832,298)"/>
<path d="M0 0 C0.33 0 0.66 0 1 0 C2.583 10.788 2.583 10.788 0.438 15.25 C-2.589 17.423 -4.353 17.414 -8 17 C-7.402 16.794 -6.804 16.587 -6.188 16.375 C-3.034 14.393 -2.324 12.468 -1 9 C-0.492 6.007 -0.195 3.028 0 0 Z " fill="#262325" transform="translate(876,286)"/>
<path d="M0 0 C7.92 0 15.84 0 24 0 C20.206 2.53 18.143 2.173 13.625 2.062 C9.235 1.963 5.273 1.936 1 3 C0.67 2.01 0.34 1.02 0 0 Z " fill="#B4B6B8" transform="translate(815,272)"/>
<path d="M0 0 C1.675 0.286 3.344 0.618 5 1 C5 2.32 5 3.64 5 5 C3.35 5.33 1.7 5.66 0 6 C-0.382 4.344 -0.714 2.675 -1 1 C-0.67 0.67 -0.34 0.34 0 0 Z " fill="#E5E5E5" transform="translate(459,224)"/>
<path d="M0 0 C1 1 1 1 1.098 3.504 C1.086 4.513 1.074 5.523 1.062 6.562 C1.053 7.574 1.044 8.586 1.035 9.629 C1.024 10.411 1.012 11.194 1 12 C0.34 12 -0.32 12 -1 12 C-1 8.7 -1 5.4 -1 2 C-2.65 2.33 -4.3 2.66 -6 3 C-6.33 2.34 -6.66 1.68 -7 1 C-4.516 -0.242 -2.748 -0.141 0 0 Z " fill="#444243" transform="translate(583,220)"/>
<path d="M0 0 C-3.829 3.33 -8.375 5.053 -13 7 C-13 6.01 -13 5.02 -13 4 C-11.402 3.134 -9.797 2.282 -8.188 1.438 C-7.294 0.962 -6.401 0.486 -5.48 -0.004 C-3 -1 -3 -1 0 0 Z " fill="#B0B1B2" transform="translate(427,367)"/>
<path d="M0 0 C1.666 -0.043 3.334 -0.041 5 0 C6 1 6 1 6.188 3.438 C6 6 6 6 4 8 C0.875 8.125 0.875 8.125 -2 8 C-1.361 7.587 -0.721 7.175 -0.062 6.75 C2.21 4.822 2.602 3.886 3 1 C2.01 0.67 1.02 0.34 0 0 Z " fill="#F6F7F6" transform="translate(823,280)"/>
<path d="M0 0 C1.65 0.33 3.3 0.66 5 1 C4.67 2.65 4.34 4.3 4 6 C2.35 5.67 0.7 5.34 -1 5 C-0.67 3.35 -0.34 1.7 0 0 Z " fill="#ECECEC" transform="translate(471,224)"/>
<path d="M0 0 C-0.422 1.816 -0.863 3.628 -1.312 5.438 C-1.556 6.447 -1.8 7.456 -2.051 8.496 C-2.364 9.322 -2.677 10.149 -3 11 C-3.99 11.33 -4.98 11.66 -6 12 C-6.326 7.838 -6.407 5.637 -4.125 2.062 C-2 0 -2 0 0 0 Z " fill="#3C3A3B" transform="translate(468,180)"/>
<path d="M0 0 C0.66 0.66 1.32 1.32 2 2 C-4.27 2 -10.54 2 -17 2 C-17 1.67 -17 1.34 -17 1 C-14.918 0.636 -12.835 0.284 -10.75 -0.062 C-9.01 -0.358 -9.01 -0.358 -7.234 -0.66 C-4.349 -0.963 -2.654 -1.065 0 0 Z " fill="#C7C9CB" transform="translate(591,880)"/>
<path d="M0 0 C0.99 0 1.98 0 3 0 C3.33 2.31 3.66 4.62 4 7 C1.36 7 -1.28 7 -4 7 C-3.34 6.67 -2.68 6.34 -2 6 C-2 5.34 -2 4.68 -2 4 C-1.34 4 -0.68 4 0 4 C0 2.68 0 1.36 0 0 Z " fill="#E2E4E4" transform="translate(823,294)"/>
<path d="M0 0 C0.66 0 1.32 0 2 0 C2.967 3.122 2.99 5.521 2.562 8.75 C2.41 9.949 2.41 9.949 2.254 11.172 C2.128 12.077 2.128 12.077 2 13 C2.66 13.33 3.32 13.66 4 14 C2.68 13.67 1.36 13.34 0 13 C-0.196 11.397 -0.381 9.792 -0.562 8.188 C-0.719 6.848 -0.719 6.848 -0.879 5.48 C-1 3 -1 3 0 0 Z " fill="#313030" transform="translate(570,178)"/>
<path d="M0 0 C0.33 0 0.66 0 1 0 C1.054 2.083 1.093 4.166 1.125 6.25 C1.148 7.41 1.171 8.57 1.195 9.766 C1.01 12.828 0.608 14.442 -1 17 C-1.846 11.923 -2.262 7.151 -2 2 C-1.34 1.34 -0.68 0.68 0 0 Z " fill="#EDEDED" transform="translate(793,509)"/>
<path d="M0 0 C0.33 0 0.66 0 1 0 C1.027 1.937 1.046 3.875 1.062 5.812 C1.074 6.891 1.086 7.97 1.098 9.082 C1 12 1 12 0 15 C-0.99 15.33 -1.98 15.66 -3 16 C-2.885 14.083 -2.758 12.166 -2.625 10.25 C-2.555 9.183 -2.486 8.115 -2.414 7.016 C-2.027 4.198 -1.443 2.417 0 0 Z " fill="#E6E7E6" transform="translate(881,283)"/>
<path d="M0 0 C1 2 1 2 1 6 C4.465 5.505 4.465 5.505 8 5 C6.312 7.062 6.312 7.062 4 9 C-0.3 8.7 -0.3 8.7 -2 7 C-2.188 4.562 -2.188 4.562 -2 2 C-1.34 1.34 -0.68 0.68 0 0 Z " fill="#333233" transform="translate(458,223)"/>
<path d="M0 0 C0.66 0 1.32 0 2 0 C0.665 3.594 -0.96 6.755 -3 10 C-1.35 10 0.3 10 2 10 C2 10.33 2 10.66 2 11 C-0.64 11 -3.28 11 -6 11 C-4.55 6.892 -2.602 3.497 0 0 Z " fill="#252426" transform="translate(449,216)"/>
<path d="M0 0 C0.66 0 1.32 0 2 0 C0.852 4.754 -0.383 9.379 -2 14 C-2.99 13.67 -3.98 13.34 -5 13 C-3.35 8.71 -1.7 4.42 0 0 Z " fill="#393839" transform="translate(439,176)"/>
<path d="M0 0 C0.66 0 1.32 0 2 0 C2 2.64 2 5.28 2 8 C1.34 8 0.68 8 0 8 C0 9.65 0 11.3 0 13 C-0.33 13 -0.66 13 -1 13 C-1.027 11.021 -1.046 9.042 -1.062 7.062 C-1.074 5.96 -1.086 4.858 -1.098 3.723 C-1 1 -1 1 0 0 Z " fill="#F9F9F8" transform="translate(929,289)"/>
<path d="M0 0 C0.66 0.99 1.32 1.98 2 3 C1.01 3 0.02 3 -1 3 C-1.825 3.165 -2.65 3.33 -3.5 3.5 C-6 4 -6 4 -9 4 C-9.33 3.01 -9.66 2.02 -10 1 C-6.613 0.226 -3.473 -0.376 0 0 Z " fill="#1B191A" transform="translate(935,286)"/>
<path d="M0 0 C0.99 0.33 1.98 0.66 3 1 C2.01 4.3 1.02 7.6 0 11 C-0.99 10.67 -1.98 10.34 -3 10 C-2.01 6.7 -1.02 3.4 0 0 Z " fill="#F0F0F0" transform="translate(763,716)"/>
<path d="M0 0 C0.33 0 0.66 0 1 0 C1.222 1.936 1.427 3.874 1.625 5.812 C1.741 6.891 1.857 7.97 1.977 9.082 C2 12 2 12 0 15 C-2.095 11.55 -2.095 11.55 -1.688 9.188 C-1.461 8.466 -1.234 7.744 -1 7 C-0.65 4.669 -0.314 2.336 0 0 Z " fill="#D9DADA" transform="translate(861,287)"/>
<path d="M0 0 C0.99 0.33 1.98 0.66 3 1 C2.577 2.484 2.136 3.962 1.688 5.438 C1.444 6.261 1.2 7.085 0.949 7.934 C0.636 8.616 0.323 9.297 0 10 C-0.99 10.33 -1.98 10.66 -3 11 C-2.01 7.37 -1.02 3.74 0 0 Z " fill="#4C4B4C" transform="translate(804,295)"/>
<path d="M0 0 C0.987 2.666 1.028 3.901 0.25 6.688 C-1 9 -1 9 -4 10 C-3.719 8.519 -3.425 7.04 -3.125 5.562 C-2.963 4.739 -2.8 3.915 -2.633 3.066 C-2.424 2.384 -2.215 1.703 -2 1 C-1.34 0.67 -0.68 0.34 0 0 Z " fill="#F8F7F8" transform="translate(804,291)"/>
<path d="M0 0 C0.33 0 0.66 0 1 0 C1.33 4.29 1.66 8.58 2 13 C1.34 13 0.68 13 0 13 C-0.947 10.158 -1.135 8.324 -1.125 5.375 C-1.128 4.578 -1.13 3.782 -1.133 2.961 C-1 1 -1 1 0 0 Z " fill="#F7F8F8" transform="translate(866,286)"/>
<path d="M0 0 C0.33 0 0.66 0 1 0 C1 1.65 1 3.3 1 5 C2.98 5 4.96 5 7 5 C7.66 6.32 8.32 7.64 9 9 C8.01 10.485 8.01 10.485 7 12 C6.938 11.072 6.938 11.072 6.875 10.125 C6.586 9.424 6.298 8.722 6 8 C3.004 6.695 3.004 6.695 0 6 C0 4.02 0 2.04 0 0 Z " fill="#595959" transform="translate(533,215)"/>
<path d="M0 0 C1.65 0.33 3.3 0.66 5 1 C4.67 2.32 4.34 3.64 4 5 C2.35 4.67 0.7 4.34 -1 4 C-0.67 2.68 -0.34 1.36 0 0 Z " fill="#D3D4D4" transform="translate(459,217)"/>
<path d="M0 0 C0.99 0.33 1.98 0.66 3 1 C2.67 3.97 2.34 6.94 2 10 C1.01 10 0.02 10 -1 10 C-0.67 6.7 -0.34 3.4 0 0 Z " fill="#EEEEEE" transform="translate(785,626)"/>
<path d="M0 0 C0.99 0.33 1.98 0.66 3 1 C2.34 5.95 1.68 10.9 1 16 C0.67 16 0.34 16 0 16 C0 10.72 0 5.44 0 0 Z " fill="#0F0D0E" transform="translate(897,287)"/>
<path d="M0 0 C0 2.97 0 5.94 0 9 C-0.66 9 -1.32 9 -2 9 C-2.082 8.051 -2.165 7.102 -2.25 6.125 C-2.651 2.895 -2.651 2.895 -5.062 1.625 C-5.702 1.419 -6.341 1.213 -7 1 C-1.125 0 -1.125 0 0 0 Z " fill="#1A191A" transform="translate(600,180)"/>
<path d="M0 0 C0.99 0.33 1.98 0.66 3 1 C0.385 3.12 -2.196 5.131 -5 7 C-5.33 6.01 -5.66 5.02 -6 4 C-3.188 1.938 -3.188 1.938 0 0 Z " fill="#ABACAE" transform="translate(392,384)"/>
<path d="M0 0 C0.99 1.32 1.98 2.64 3 4 C2.34 5.32 1.68 6.64 1 8 C-0.65 7.67 -2.3 7.34 -4 7 C-3.526 6.587 -3.051 6.175 -2.562 5.75 C-0.837 3.818 -0.434 2.518 0 0 Z " fill="#3A393A" transform="translate(829,282)"/>
<path d="M0 0 C2.31 0.33 4.62 0.66 7 1 C5.35 2.65 3.7 4.3 2 6 C1.34 5.67 0.68 5.34 0 5 C0 3.35 0 1.7 0 0 Z " fill="#D1D2D3" transform="translate(717,800)"/>
<path d="M0 0 C0.33 0 0.66 0 1 0 C1.33 3.3 1.66 6.6 2 10 C1.01 10 0.02 10 -1 10 C-2.25 3.375 -2.25 3.375 0 0 Z " fill="#ECECEC" transform="translate(790,489)"/>
<path d="M0 0 C1.454 0.031 1.454 0.031 2.938 0.062 C0.957 1.053 0.957 1.053 -1.062 2.062 C0.918 2.722 2.898 3.382 4.938 4.062 C4.938 4.393 4.938 4.722 4.938 5.062 C2.628 5.062 0.317 5.062 -2.062 5.062 C-2.722 3.743 -3.383 2.423 -4.062 1.062 C-3.062 0.062 -3.062 0.062 0 0 Z " fill="#363536" transform="translate(548.0625,225.9375)"/>
<path d="M0 0 C0.66 0.33 1.32 0.66 2 1 C2 3.31 2 5.62 2 8 C1.01 8.495 1.01 8.495 0 9 C-1.125 3.375 -1.125 3.375 0 0 Z " fill="#F7F7F6" transform="translate(915,292)"/>
<path d="M0 0 C1.64 0.093 1.64 0.093 3.312 0.188 C3.312 0.848 3.312 1.507 3.312 2.188 C0.013 2.517 -3.288 2.848 -6.688 3.188 C-3.688 0.188 -3.688 0.188 0 0 Z " fill="#100F10" transform="translate(824.6875,276.8125)"/>
<path d="M0 0 C1.32 0 2.64 0 4 0 C4 1.65 4 3.3 4 5 C2.68 5 1.36 5 0 5 C0 3.35 0 1.7 0 0 Z " fill="#F0F0F0" transform="translate(471,217)"/>
<path d="M0 0 C0.33 0 0.66 0 1 0 C1.125 2.375 1.125 2.375 1 5 C-1 7 -1 7 -4.125 7.125 C-5.548 7.063 -5.548 7.063 -7 7 C-7 6.01 -7 5.02 -7 4 C-4.525 4.99 -4.525 4.99 -2 6 C-1.34 4.02 -0.68 2.04 0 0 Z " fill="#2B292B" transform="translate(598,190)"/>
<path d="M0 0 C0.66 0 1.32 0 2 0 C1.67 2.97 1.34 5.94 1 9 C0.34 9 -0.32 9 -1 9 C-0.67 6.03 -0.34 3.06 0 0 Z " fill="#A8AAA9" transform="translate(210,504)"/>
<path d="M0 0 C0.773 0.712 0.773 0.712 1.562 1.438 C4.668 3.428 7.366 3.651 11 4 C11 4.33 11 4.66 11 5 C7.37 5 3.74 5 0 5 C0 3.35 0 1.7 0 0 Z " fill="#FBFBFB" transform="translate(816,300)"/>
<path d="M0 0 C1.65 0 3.3 0 5 0 C4.67 1.32 4.34 2.64 4 4 C2.68 4 1.36 4 0 4 C0 2.68 0 1.36 0 0 Z " fill="#E2E2E3" transform="translate(444,186)"/>
<path d="M0 0 C2 3 2 3 2 5 C3.65 5 5.3 5 7 5 C5.25 6.125 5.25 6.125 3 7 C0.75 6.125 0.75 6.125 -1 5 C-0.67 3.35 -0.34 1.7 0 0 Z " fill="#373637" transform="translate(865,296)"/>
<path d="M0 0 C4.517 -0.366 4.517 -0.366 6.812 1.375 C8 3 8 3 8 5 C6.062 4.625 6.062 4.625 4 4 C3.67 3.34 3.34 2.68 3 2 C2.01 1.34 1.02 0.68 0 0 Z " fill="#252424" transform="translate(941,286)"/>
<path d="M0 0 C0.33 0 0.66 0 1 0 C1 2.31 1 4.62 1 7 C-0.32 7 -1.64 7 -3 7 C-1.125 2.25 -1.125 2.25 0 0 Z " fill="#E4E4E5" transform="translate(449,219)"/>
<path d="M0 0 C1.207 0.031 1.207 0.031 2.438 0.062 C2.768 0.722 3.097 1.382 3.438 2.062 C1.788 2.062 0.138 2.062 -1.562 2.062 C-2.222 3.382 -2.883 4.702 -3.562 6.062 C-3.605 4.396 -3.603 2.729 -3.562 1.062 C-2.562 0.062 -2.562 0.062 0 0 Z " fill="#454344" transform="translate(563.5625,179.9375)"/>
<path d="M0 0 C2.31 0 4.62 0 7 0 C7.33 1.65 7.66 3.3 8 5 C7.34 4.67 6.68 4.34 6 4 C6 3.34 6 2.68 6 2 C4.68 2.33 3.36 2.66 2 3 C1.34 2.01 0.68 1.02 0 0 Z " fill="#5F5E60" transform="translate(454,180)"/>
<path d="M0 0 C2.29 3.435 2.178 4.985 2 9 C1.34 8.67 0.68 8.34 0 8 C-1.275 2.551 -1.275 2.551 0 0 Z " fill="#F2F1F1" transform="translate(782,457)"/>
<path d="M0 0 C0.99 0 1.98 0 3 0 C2.67 1.32 2.34 2.64 2 4 C0.35 4 -1.3 4 -3 4 C-1.688 2 -1.688 2 0 0 Z " fill="#D9DBDA" transform="translate(823,282)"/>
<path d="M0 0 C1.65 0 3.3 0 5 0 C5 0.99 5 1.98 5 3 C3.02 3 1.04 3 -1 3 C-0.67 2.01 -0.34 1.02 0 0 Z " fill="#DDDDDD" transform="translate(547,222)"/>
</svg>