<svg version="1.1" xmlns="http://www.w3.org/2000/svg" width="1024" height="1024">
<path d="M0 0 C337.92 0 675.84 0 1024 0 C1024 337.92 1024 675.84 1024 1024 C686.08 1024 348.16 1024 0 1024 C0 686.08 0 348.16 0 0 Z " fill="#FEFEFE" transform="translate(0,0)"/>
<path d="M0 0 C1.119 0 1.119 0 2.261 0.001 C14.086 0.021 25.726 0.474 37.438 2.188 C38.193 2.295 38.949 2.402 39.728 2.512 C44.991 3.275 50.218 4.174 55.438 5.188 C56.45 5.384 56.45 5.384 57.484 5.584 C99.084 13.933 139.095 33.759 170.865 61.804 C172 62.803 173.142 63.793 174.289 64.778 C179.349 69.141 184.154 73.711 188.875 78.438 C189.615 79.178 190.355 79.919 191.117 80.682 C205.425 95.15 205.425 95.15 207.438 101.188 C232.188 101.188 256.938 101.188 282.438 101.188 C282.438 89.637 282.438 78.087 282.438 66.188 C277.817 66.188 273.197 66.188 268.438 66.188 C268.438 65.197 268.438 64.207 268.438 63.188 C278.008 63.188 287.577 63.188 297.438 63.188 C297.438 64.178 297.438 65.168 297.438 66.188 C293.477 66.188 289.518 66.188 285.438 66.188 C285.438 77.738 285.438 89.288 285.438 101.188 C319.097 101.188 352.758 101.188 387.438 101.188 C387.438 103.498 387.438 105.808 387.438 108.188 C384.138 108.188 380.837 108.188 377.438 108.188 C377.438 109.507 377.438 110.827 377.438 112.188 C379.912 112.683 379.912 112.683 382.438 113.188 C382.438 114.837 382.438 116.488 382.438 118.188 C381.633 118.476 380.829 118.765 380 119.062 C377.305 119.92 377.305 119.92 376.438 122.188 C378.418 122.188 380.398 122.188 382.438 122.188 C382.438 124.498 382.438 126.808 382.438 129.188 C381.633 129.311 380.829 129.435 380 129.562 C379.154 129.769 378.309 129.975 377.438 130.188 C377.107 130.847 376.778 131.507 376.438 132.188 C377.242 132.167 378.046 132.146 378.875 132.125 C381.438 132.188 381.438 132.188 382.438 133.188 C382.478 134.854 382.48 136.521 382.438 138.188 C380.457 138.188 378.477 138.188 376.438 138.188 C376.438 139.507 376.438 140.827 376.438 142.188 C377.242 142.167 378.046 142.146 378.875 142.125 C381.438 142.188 381.438 142.188 382.438 143.188 C382.478 144.854 382.48 146.521 382.438 148.188 C381.633 148.456 380.829 148.724 380 149 C379.154 149.392 378.309 149.784 377.438 150.188 C377.107 151.178 376.778 152.168 376.438 153.188 C378.418 153.188 380.398 153.188 382.438 153.188 C382.48 154.854 382.478 156.521 382.438 158.188 C381.438 159.188 381.438 159.188 378.875 159.25 C378.071 159.229 377.266 159.209 376.438 159.188 C376.768 160.178 377.097 161.168 377.438 162.188 C379.087 162.518 380.737 162.847 382.438 163.188 C382.438 165.168 382.438 167.148 382.438 169.188 C380.457 169.188 378.477 169.188 376.438 169.188 C376.438 170.507 376.438 171.827 376.438 173.188 C378.418 173.188 380.398 173.188 382.438 173.188 C382.438 175.168 382.438 177.148 382.438 179.188 C380.788 179.188 379.138 179.188 377.438 179.188 C377.438 180.507 377.438 181.827 377.438 183.188 C379.087 183.188 380.737 183.188 382.438 183.188 C382.438 185.168 382.438 187.148 382.438 189.188 C380.457 189.188 378.477 189.188 376.438 189.188 C376.438 190.837 376.438 192.488 376.438 194.188 C378.418 194.188 380.398 194.188 382.438 194.188 C382.438 196.168 382.438 198.148 382.438 200.188 C380.457 200.188 378.477 200.188 376.438 200.188 C376.438 201.178 376.438 202.168 376.438 203.188 C377.242 203.167 378.046 203.146 378.875 203.125 C381.438 203.188 381.438 203.188 382.438 204.188 C382.562 206.688 382.562 206.688 382.438 209.188 C381.438 210.188 381.438 210.188 378.875 210.25 C378.071 210.229 377.266 210.209 376.438 210.188 C376.438 211.178 376.438 212.168 376.438 213.188 C377.242 213.167 378.046 213.146 378.875 213.125 C381.438 213.188 381.438 213.188 382.438 214.188 C382.562 216.688 382.562 216.688 382.438 219.188 C381.438 220.188 381.438 220.188 378.875 220.25 C378.071 220.229 377.266 220.209 376.438 220.188 C376.768 221.178 377.097 222.168 377.438 223.188 C379.087 223.518 380.737 223.847 382.438 224.188 C382.438 225.837 382.438 227.488 382.438 229.188 C380.788 229.518 379.138 229.847 377.438 230.188 C377.438 231.178 377.438 232.168 377.438 233.188 C379.087 233.188 380.737 233.188 382.438 233.188 C382.438 235.168 382.438 237.148 382.438 239.188 C380.457 239.518 378.477 239.847 376.438 240.188 C376.438 241.178 376.438 242.168 376.438 243.188 C378.087 243.518 379.737 243.847 381.438 244.188 C381.811 247.456 381.579 248.949 379.875 251.812 C374.73 256.825 368.382 257.77 361.523 258.688 C360.68 258.808 359.836 258.929 358.966 259.054 C356.25 259.441 353.531 259.814 350.812 260.188 C348.943 260.451 347.073 260.716 345.204 260.981 C341.562 261.497 337.92 262.008 334.277 262.514 C329.455 263.183 324.636 263.875 319.818 264.575 C316.717 265.024 313.615 265.461 310.513 265.895 C308.39 266.194 306.267 266.501 304.145 266.809 C302.805 266.998 301.465 267.187 300.125 267.375 C298.46 267.613 298.46 267.613 296.762 267.855 C293.004 268.231 289.214 268.188 285.438 268.188 C285.438 311.747 285.438 355.308 285.438 400.188 C289.067 400.188 292.697 400.188 296.438 400.188 C296.438 400.848 296.438 401.507 296.438 402.188 C287.528 402.188 278.617 402.188 269.438 402.188 C269.438 401.527 269.438 400.868 269.438 400.188 C274.058 400.188 278.678 400.188 283.438 400.188 C283.438 356.957 283.438 313.727 283.438 269.188 C280.798 269.848 278.158 270.507 275.438 271.188 C269.738 272.243 264.21 272.292 258.438 272.188 C258.479 273.384 258.52 274.58 258.562 275.812 C258.527 287.168 255.907 298.124 253 309.031 C252.42 311.255 251.881 313.487 251.348 315.723 C248.65 326.827 244.957 337.255 240.473 347.762 C239.477 350.095 238.503 352.438 237.531 354.781 C228.866 375.312 216.963 394.619 202.578 411.645 C201.201 413.281 199.854 414.944 198.547 416.637 C188.005 430.188 175.227 442.948 161.438 453.188 C160.816 453.658 160.195 454.128 159.556 454.613 C136.619 471.942 111.674 485.851 84.438 495.188 C83.455 495.531 83.455 495.531 82.454 495.882 C75.149 498.438 68.03 500.5 60.438 502.188 C88.487 502.517 116.538 502.848 145.438 503.188 C145.438 504.507 145.438 505.827 145.438 507.188 C144.571 507.194 144.571 507.194 143.686 507.2 C129.552 507.304 115.418 507.413 101.284 507.527 C94.449 507.582 87.613 507.635 80.778 507.685 C74.171 507.733 67.564 507.785 60.956 507.84 C58.447 507.861 55.937 507.879 53.427 507.897 C41.517 507.979 29.663 508.108 17.782 508.967 C12.802 509.295 7.837 509.331 2.848 509.32 C1.852 509.321 0.856 509.322 -0.171 509.323 C-2.236 509.324 -4.302 509.322 -6.368 509.318 C-9.547 509.312 -12.725 509.318 -15.904 509.324 C-17.924 509.324 -19.945 509.322 -21.965 509.32 C-22.916 509.322 -23.867 509.324 -24.846 509.326 C-25.715 509.323 -26.585 509.32 -27.48 509.317 C-28.247 509.316 -29.014 509.315 -29.804 509.314 C-31.562 509.188 -31.562 509.188 -32.562 508.188 C-34.042 508.08 -35.527 508.041 -37.011 508.029 C-37.971 508.019 -38.932 508.01 -39.922 508 C-40.984 507.994 -42.046 507.988 -43.141 507.982 C-44.809 507.967 -44.809 507.967 -46.511 507.952 C-50.206 507.92 -53.902 507.896 -57.598 507.871 C-60.152 507.851 -62.707 507.83 -65.261 507.808 C-71.31 507.758 -77.359 507.713 -83.408 507.67 C-90.293 507.621 -97.178 507.566 -104.063 507.51 C-118.23 507.397 -132.396 507.29 -146.562 507.188 C-146.562 505.868 -146.562 504.548 -146.562 503.188 C-120.822 503.188 -95.082 503.188 -68.562 503.188 C-68.562 502.527 -68.562 501.868 -68.562 501.188 C-69.57 501.11 -69.57 501.11 -70.598 501.031 C-111.369 496.402 -152.804 469.148 -182.562 442.188 C-183.659 441.213 -184.755 440.239 -185.852 439.266 C-230.303 399.409 -263.266 338.454 -266.562 278.188 C-266.71 271.98 -266.657 265.771 -266.625 259.562 C-266.62 257.874 -266.615 256.185 -266.611 254.496 C-266.6 250.393 -266.583 246.29 -266.562 242.188 C-267.642 242.043 -268.721 241.899 -269.833 241.751 C-273.758 241.158 -277.414 240.123 -281.188 238.938 C-287.538 237.004 -293.905 235.353 -300.375 233.875 C-310.316 231.593 -320.095 228.822 -329.882 225.954 C-336.079 224.145 -342.241 222.499 -348.562 221.188 C-348.562 222.837 -348.562 224.488 -348.562 226.188 C-349.222 226.188 -349.882 226.188 -350.562 226.188 C-350.562 225.528 -350.562 224.868 -350.562 224.188 C-351.882 224.188 -353.202 224.188 -354.562 224.188 C-354.809 225.027 -355.055 225.866 -355.309 226.73 C-356.704 230.576 -358.571 233.982 -360.625 237.5 C-363.189 241.95 -365.703 246.408 -368.051 250.977 C-368.451 251.753 -368.851 252.53 -369.263 253.331 C-370.035 254.839 -370.799 256.351 -371.555 257.866 C-374.233 263.078 -374.233 263.078 -377.562 264.188 C-376.969 260.467 -375.92 257.587 -374.156 254.266 C-373.664 253.33 -373.171 252.394 -372.663 251.43 C-372.135 250.442 -371.607 249.455 -371.062 248.438 C-370.527 247.424 -369.991 246.41 -369.438 245.365 C-367.819 242.303 -366.191 239.245 -364.562 236.188 C-363.629 234.424 -362.697 232.659 -361.766 230.895 C-359.704 226.989 -357.635 223.087 -355.562 219.188 C-356.553 219.188 -357.543 219.188 -358.562 219.188 C-358.562 219.847 -358.562 220.507 -358.562 221.188 C-359.882 221.188 -361.202 221.188 -362.562 221.188 C-362.562 219.868 -362.562 218.548 -362.562 217.188 C-363.483 217.017 -364.403 216.847 -365.352 216.672 C-374.256 214.967 -382.864 212.766 -391.562 210.188 C-394.413 209.362 -397.268 208.553 -400.125 207.75 C-400.866 207.541 -401.606 207.332 -402.369 207.116 C-406.626 205.934 -410.892 204.865 -415.203 203.898 C-416.147 203.685 -417.091 203.472 -418.064 203.252 C-419.897 202.843 -421.732 202.446 -423.571 202.063 C-424.41 201.876 -425.249 201.689 -426.113 201.496 C-426.852 201.339 -427.591 201.183 -428.353 201.021 C-431.464 199.847 -433.225 198.586 -435.562 196.188 C-436.061 193.244 -436.238 190.877 -436.194 187.934 C-436.201 187.104 -436.208 186.275 -436.215 185.42 C-436.232 182.678 -436.213 179.937 -436.191 177.195 C-436.192 175.287 -436.195 173.379 -436.199 171.471 C-436.202 167.471 -436.187 163.472 -436.159 159.472 C-436.125 154.352 -436.131 149.232 -436.15 144.112 C-436.161 140.171 -436.152 136.23 -436.137 132.289 C-436.132 130.401 -436.132 128.514 -436.138 126.626 C-436.144 123.984 -436.123 121.342 -436.096 118.7 C-436.102 117.923 -436.109 117.147 -436.116 116.347 C-436.025 111.144 -434.949 108.133 -431.562 104.188 C-427.213 100.775 -423.114 100.77 -417.799 100.827 C-416.476 100.823 -416.476 100.823 -415.126 100.819 C-412.17 100.814 -409.214 100.831 -406.259 100.847 C-404.14 100.848 -402.021 100.847 -399.902 100.846 C-394.148 100.845 -388.394 100.862 -382.641 100.883 C-376.628 100.902 -370.616 100.904 -364.603 100.907 C-353.217 100.917 -341.831 100.941 -330.445 100.971 C-317.483 101.005 -304.52 101.021 -291.558 101.037 C-264.893 101.068 -238.228 101.121 -211.562 101.188 C-211.138 100.28 -211.138 100.28 -210.705 99.354 C-209.11 96.33 -206.831 94.026 -204.5 91.562 C-203.495 90.488 -202.492 89.412 -201.488 88.336 C-200.99 87.803 -200.492 87.271 -199.979 86.722 C-198.004 84.582 -196.101 82.382 -194.188 80.188 C-145.951 26.639 -70.737 -0.097 0 0 Z " fill="#4F5051" transform="translate(535.5625,278.8125)"/>
<path d="M0 0 C1.119 0 1.119 0 2.261 0.001 C14.086 0.021 25.726 0.474 37.438 2.188 C38.193 2.295 38.949 2.402 39.728 2.512 C44.991 3.275 50.218 4.174 55.438 5.188 C56.45 5.384 56.45 5.384 57.484 5.584 C99.084 13.933 139.095 33.759 170.865 61.804 C172 62.803 173.142 63.793 174.289 64.778 C179.349 69.141 184.154 73.711 188.875 78.438 C189.615 79.178 190.355 79.919 191.117 80.682 C205.425 95.15 205.425 95.15 207.438 101.188 C232.188 101.188 256.938 101.188 282.438 101.188 C282.438 89.637 282.438 78.087 282.438 66.188 C277.817 66.188 273.197 66.188 268.438 66.188 C268.438 65.197 268.438 64.207 268.438 63.188 C278.008 63.188 287.577 63.188 297.438 63.188 C297.438 64.178 297.438 65.168 297.438 66.188 C293.477 66.188 289.518 66.188 285.438 66.188 C285.438 77.738 285.438 89.288 285.438 101.188 C319.097 101.188 352.758 101.188 387.438 101.188 C387.438 103.498 387.438 105.808 387.438 108.188 C384.138 108.188 380.837 108.188 377.438 108.188 C377.438 109.507 377.438 110.827 377.438 112.188 C379.912 112.683 379.912 112.683 382.438 113.188 C382.438 114.837 382.438 116.488 382.438 118.188 C381.633 118.476 380.829 118.765 380 119.062 C377.305 119.92 377.305 119.92 376.438 122.188 C378.418 122.188 380.398 122.188 382.438 122.188 C382.438 124.498 382.438 126.808 382.438 129.188 C381.633 129.311 380.829 129.435 380 129.562 C379.154 129.769 378.309 129.975 377.438 130.188 C377.107 130.847 376.778 131.507 376.438 132.188 C377.242 132.167 378.046 132.146 378.875 132.125 C381.438 132.188 381.438 132.188 382.438 133.188 C382.478 134.854 382.48 136.521 382.438 138.188 C380.457 138.188 378.477 138.188 376.438 138.188 C376.438 139.507 376.438 140.827 376.438 142.188 C377.242 142.167 378.046 142.146 378.875 142.125 C381.438 142.188 381.438 142.188 382.438 143.188 C382.478 144.854 382.48 146.521 382.438 148.188 C381.633 148.456 380.829 148.724 380 149 C379.154 149.392 378.309 149.784 377.438 150.188 C377.107 151.178 376.778 152.168 376.438 153.188 C378.418 153.188 380.398 153.188 382.438 153.188 C382.48 154.854 382.478 156.521 382.438 158.188 C381.438 159.188 381.438 159.188 378.875 159.25 C378.071 159.229 377.266 159.209 376.438 159.188 C376.768 160.178 377.097 161.168 377.438 162.188 C379.087 162.518 380.737 162.847 382.438 163.188 C382.438 165.168 382.438 167.148 382.438 169.188 C380.457 169.188 378.477 169.188 376.438 169.188 C376.438 170.507 376.438 171.827 376.438 173.188 C378.418 173.188 380.398 173.188 382.438 173.188 C382.438 175.168 382.438 177.148 382.438 179.188 C380.788 179.188 379.138 179.188 377.438 179.188 C377.438 180.507 377.438 181.827 377.438 183.188 C379.087 183.188 380.737 183.188 382.438 183.188 C382.438 185.168 382.438 187.148 382.438 189.188 C380.457 189.188 378.477 189.188 376.438 189.188 C376.438 190.837 376.438 192.488 376.438 194.188 C378.418 194.188 380.398 194.188 382.438 194.188 C382.438 196.168 382.438 198.148 382.438 200.188 C380.457 200.188 378.477 200.188 376.438 200.188 C376.438 201.178 376.438 202.168 376.438 203.188 C377.242 203.167 378.046 203.146 378.875 203.125 C381.438 203.188 381.438 203.188 382.438 204.188 C382.562 206.688 382.562 206.688 382.438 209.188 C381.438 210.188 381.438 210.188 378.875 210.25 C378.071 210.229 377.266 210.209 376.438 210.188 C376.438 211.178 376.438 212.168 376.438 213.188 C377.242 213.167 378.046 213.146 378.875 213.125 C381.438 213.188 381.438 213.188 382.438 214.188 C382.562 216.688 382.562 216.688 382.438 219.188 C381.438 220.188 381.438 220.188 378.875 220.25 C378.071 220.229 377.266 220.209 376.438 220.188 C376.768 221.178 377.097 222.168 377.438 223.188 C379.087 223.518 380.737 223.847 382.438 224.188 C382.438 225.837 382.438 227.488 382.438 229.188 C380.788 229.518 379.138 229.847 377.438 230.188 C377.438 231.178 377.438 232.168 377.438 233.188 C379.087 233.188 380.737 233.188 382.438 233.188 C382.438 235.168 382.438 237.148 382.438 239.188 C380.457 239.518 378.477 239.847 376.438 240.188 C376.438 241.178 376.438 242.168 376.438 243.188 C378.087 243.518 379.737 243.847 381.438 244.188 C381.811 247.456 381.579 248.949 379.875 251.812 C374.73 256.825 368.382 257.77 361.523 258.688 C360.68 258.808 359.836 258.929 358.966 259.054 C356.25 259.441 353.531 259.814 350.812 260.188 C348.943 260.451 347.073 260.716 345.204 260.981 C341.562 261.497 337.92 262.008 334.277 262.514 C329.455 263.183 324.636 263.875 319.818 264.575 C316.717 265.024 313.615 265.461 310.513 265.895 C308.39 266.194 306.267 266.501 304.145 266.809 C302.805 266.998 301.465 267.187 300.125 267.375 C298.46 267.613 298.46 267.613 296.762 267.855 C293.004 268.231 289.214 268.188 285.438 268.188 C285.438 311.747 285.438 355.308 285.438 400.188 C289.067 400.188 292.697 400.188 296.438 400.188 C296.438 400.848 296.438 401.507 296.438 402.188 C287.528 402.188 278.617 402.188 269.438 402.188 C269.438 401.527 269.438 400.868 269.438 400.188 C274.058 400.188 278.678 400.188 283.438 400.188 C283.438 356.957 283.438 313.727 283.438 269.188 C280.798 269.848 278.158 270.507 275.438 271.188 C269.738 272.243 264.21 272.292 258.438 272.188 C258.479 273.384 258.52 274.58 258.562 275.812 C258.527 287.168 255.907 298.124 253 309.031 C252.42 311.255 251.881 313.487 251.348 315.723 C248.65 326.827 244.957 337.255 240.473 347.762 C239.477 350.095 238.503 352.438 237.531 354.781 C228.866 375.312 216.963 394.619 202.578 411.645 C201.201 413.281 199.854 414.944 198.547 416.637 C188.005 430.188 175.227 442.948 161.438 453.188 C160.816 453.658 160.195 454.128 159.556 454.613 C136.619 471.942 111.674 485.851 84.438 495.188 C83.455 495.531 83.455 495.531 82.454 495.882 C75.149 498.438 68.03 500.5 60.438 502.188 C88.487 502.517 116.538 502.848 145.438 503.188 C145.438 504.507 145.438 505.827 145.438 507.188 C144.571 507.194 144.571 507.194 143.686 507.2 C129.552 507.304 115.418 507.413 101.284 507.527 C94.449 507.582 87.613 507.635 80.778 507.685 C74.171 507.733 67.564 507.785 60.956 507.84 C58.447 507.861 55.937 507.879 53.427 507.897 C41.517 507.979 29.663 508.108 17.782 508.967 C12.802 509.295 7.837 509.331 2.848 509.32 C1.852 509.321 0.856 509.322 -0.171 509.323 C-2.236 509.324 -4.302 509.322 -6.368 509.318 C-9.547 509.312 -12.725 509.318 -15.904 509.324 C-17.924 509.324 -19.945 509.322 -21.965 509.32 C-22.916 509.322 -23.867 509.324 -24.846 509.326 C-25.715 509.323 -26.585 509.32 -27.48 509.317 C-28.247 509.316 -29.014 509.315 -29.804 509.314 C-31.562 509.188 -31.562 509.188 -32.562 508.188 C-34.042 508.08 -35.527 508.041 -37.011 508.029 C-37.971 508.019 -38.932 508.01 -39.922 508 C-40.984 507.994 -42.046 507.988 -43.141 507.982 C-44.809 507.967 -44.809 507.967 -46.511 507.952 C-50.206 507.92 -53.902 507.896 -57.598 507.871 C-60.152 507.851 -62.707 507.83 -65.261 507.808 C-71.31 507.758 -77.359 507.713 -83.408 507.67 C-90.293 507.621 -97.178 507.566 -104.063 507.51 C-118.23 507.397 -132.396 507.29 -146.562 507.188 C-146.562 505.868 -146.562 504.548 -146.562 503.188 C-120.822 503.188 -95.082 503.188 -68.562 503.188 C-68.562 502.527 -68.562 501.868 -68.562 501.188 C-69.57 501.11 -69.57 501.11 -70.598 501.031 C-111.369 496.402 -152.804 469.148 -182.562 442.188 C-183.659 441.213 -184.755 440.239 -185.852 439.266 C-230.303 399.409 -263.266 338.454 -266.562 278.188 C-266.71 271.98 -266.657 265.771 -266.625 259.562 C-266.62 257.874 -266.615 256.185 -266.611 254.496 C-266.6 250.393 -266.583 246.29 -266.562 242.188 C-267.642 242.043 -268.721 241.899 -269.833 241.751 C-273.758 241.158 -277.414 240.123 -281.188 238.938 C-287.538 237.004 -293.905 235.353 -300.375 233.875 C-310.316 231.593 -320.095 228.822 -329.882 225.954 C-336.079 224.145 -342.241 222.499 -348.562 221.188 C-348.562 222.837 -348.562 224.488 -348.562 226.188 C-349.222 226.188 -349.882 226.188 -350.562 226.188 C-350.562 225.528 -350.562 224.868 -350.562 224.188 C-351.882 224.188 -353.202 224.188 -354.562 224.188 C-354.809 225.027 -355.055 225.866 -355.309 226.73 C-356.704 230.576 -358.571 233.982 -360.625 237.5 C-363.189 241.95 -365.703 246.408 -368.051 250.977 C-368.451 251.753 -368.851 252.53 -369.263 253.331 C-370.035 254.839 -370.799 256.351 -371.555 257.866 C-374.233 263.078 -374.233 263.078 -377.562 264.188 C-376.969 260.467 -375.92 257.587 -374.156 254.266 C-373.664 253.33 -373.171 252.394 -372.663 251.43 C-372.135 250.442 -371.607 249.455 -371.062 248.438 C-370.527 247.424 -369.991 246.41 -369.438 245.365 C-367.819 242.303 -366.191 239.245 -364.562 236.188 C-363.629 234.424 -362.697 232.659 -361.766 230.895 C-359.704 226.989 -357.635 223.087 -355.562 219.188 C-356.553 219.188 -357.543 219.188 -358.562 219.188 C-358.562 219.847 -358.562 220.507 -358.562 221.188 C-359.882 221.188 -361.202 221.188 -362.562 221.188 C-362.562 219.868 -362.562 218.548 -362.562 217.188 C-363.483 217.017 -364.403 216.847 -365.352 216.672 C-374.256 214.967 -382.864 212.766 -391.562 210.188 C-394.413 209.362 -397.268 208.553 -400.125 207.75 C-400.866 207.541 -401.606 207.332 -402.369 207.116 C-406.626 205.934 -410.892 204.865 -415.203 203.898 C-416.147 203.685 -417.091 203.472 -418.064 203.252 C-419.897 202.843 -421.732 202.446 -423.571 202.063 C-424.41 201.876 -425.249 201.689 -426.113 201.496 C-426.852 201.339 -427.591 201.183 -428.353 201.021 C-431.464 199.847 -433.225 198.586 -435.562 196.188 C-436.061 193.244 -436.238 190.877 -436.194 187.934 C-436.201 187.104 -436.208 186.275 -436.215 185.42 C-436.232 182.678 -436.213 179.937 -436.191 177.195 C-436.192 175.287 -436.195 173.379 -436.199 171.471 C-436.202 167.471 -436.187 163.472 -436.159 159.472 C-436.125 154.352 -436.131 149.232 -436.15 144.112 C-436.161 140.171 -436.152 136.23 -436.137 132.289 C-436.132 130.401 -436.132 128.514 -436.138 126.626 C-436.144 123.984 -436.123 121.342 -436.096 118.7 C-436.102 117.923 -436.109 117.147 -436.116 116.347 C-436.025 111.144 -434.949 108.133 -431.562 104.188 C-427.213 100.775 -423.114 100.77 -417.799 100.827 C-416.476 100.823 -416.476 100.823 -415.126 100.819 C-412.17 100.814 -409.214 100.831 -406.259 100.847 C-404.14 100.848 -402.021 100.847 -399.902 100.846 C-394.148 100.845 -388.394 100.862 -382.641 100.883 C-376.628 100.902 -370.616 100.904 -364.603 100.907 C-353.217 100.917 -341.831 100.941 -330.445 100.971 C-317.483 101.005 -304.52 101.021 -291.558 101.037 C-264.893 101.068 -238.228 101.121 -211.562 101.188 C-211.138 100.28 -211.138 100.28 -210.705 99.354 C-209.11 96.33 -206.831 94.026 -204.5 91.562 C-203.495 90.488 -202.492 89.412 -201.488 88.336 C-200.99 87.803 -200.492 87.271 -199.979 86.722 C-198.004 84.582 -196.101 82.382 -194.188 80.188 C-145.951 26.639 -70.737 -0.097 0 0 Z M-49.562 33.188 C-50.911 33.46 -50.911 33.46 -52.287 33.739 C-80.561 39.474 -107.314 50.591 -131.562 66.188 C-133.09 67.152 -133.09 67.152 -134.648 68.137 C-148.27 76.95 -160.234 87.33 -171.887 98.575 C-173.235 99.872 -174.598 101.154 -175.965 102.43 C-206.13 131.176 -226.621 173.727 -234.562 214.188 C-234.713 214.911 -234.864 215.634 -235.02 216.38 C-240.519 243.752 -240.308 276.076 -233.562 303.188 C-233.392 303.885 -233.221 304.582 -233.045 305.3 C-232.032 309.314 -230.823 313.245 -229.562 317.188 C-229.314 318.14 -229.065 319.093 -228.809 320.074 C-221.253 347.998 -205.023 375.039 -185.963 396.599 C-184.955 397.742 -183.955 398.893 -182.961 400.048 C-163.747 422.3 -141.531 439.538 -115.562 453.188 C-114.814 453.584 -114.065 453.981 -113.293 454.39 C-87.394 467.925 -60.269 474.968 -31.562 479.188 C-30.798 479.306 -30.034 479.425 -29.246 479.547 C1.4 483.693 33.94 479.629 63.438 471.188 C64.656 470.847 65.874 470.507 67.129 470.156 C74.473 468.006 81.438 465.264 88.438 462.188 C89.913 461.566 91.388 460.945 92.863 460.324 C116.319 450.296 137.486 436.839 156.098 419.375 C158.161 417.446 160.273 415.625 162.438 413.812 C202.509 378.709 226.663 322.304 231.188 270.062 C231.265 268.216 231.339 266.369 231.382 264.522 C231.424 262.763 231.482 261.005 231.548 259.248 C233.341 208.363 217.946 160.987 187.438 120.188 C186.856 119.392 186.275 118.597 185.676 117.777 C180.446 110.799 174.448 104.49 168.438 98.188 C167.962 97.689 167.487 97.19 166.998 96.677 C157.376 86.653 146.809 78.139 135.438 70.188 C134.875 69.794 134.313 69.401 133.734 68.996 C107.42 50.697 76.878 37.454 45.098 32.621 C42.671 32.226 40.324 31.71 37.938 31.125 C10.925 25.036 -22.739 27.328 -49.562 33.188 Z " fill="#535353" transform="translate(535.5625,278.8125)"/>
<path d="M0 0 C1.08 -0.001 2.16 -0.002 3.273 -0.002 C13.293 0.066 23.242 0.459 33 2.875 C34.071 3.137 34.071 3.137 35.165 3.404 C62.452 10.32 86.099 23.246 106.812 42.188 C107.707 42.998 108.602 43.809 109.523 44.645 C133.061 67.031 149.13 100.205 150.009 132.745 C150.347 149.234 150.487 165.225 145.812 181.188 C145.593 181.959 145.373 182.731 145.147 183.526 C138.742 205.546 127.324 225.34 111.812 242.188 C111.357 242.692 110.901 243.197 110.432 243.717 C90.535 265.571 62.501 279.573 33.833 285.75 C31.871 286.175 29.918 286.636 27.965 287.098 C4.849 292.093 -20.582 290.599 -43.188 284.188 C-44.401 283.851 -44.401 283.851 -45.64 283.507 C-71.206 276.216 -93.102 263.321 -111.785 244.582 C-113.277 243.095 -114.789 241.626 -116.328 240.188 C-138.389 219.271 -152.242 186.113 -153.629 155.949 C-153.692 153.256 -153.737 150.569 -153.75 147.875 C-153.754 147.164 -153.758 146.453 -153.762 145.721 C-153.762 124.459 -149.244 103.041 -139.188 84.188 C-138.877 83.591 -138.566 82.995 -138.247 82.381 C-131.579 69.662 -123.036 58.593 -113.188 48.188 C-112.317 47.241 -111.447 46.295 -110.551 45.32 C-89.381 22.794 -58.455 7.542 -28.188 2.188 C-27.084 1.979 -25.981 1.77 -24.844 1.555 C-16.537 0.259 -8.398 0.006 0 0 Z " fill="#EEEEEE" transform="translate(533.1875,385.8125)"/>
<path d="M0 0 C0.845 -0.003 1.689 -0.007 2.559 -0.01 C5.394 -0.017 8.228 0.005 11.063 0.027 C13.093 0.028 15.123 0.027 17.153 0.025 C22.669 0.024 28.185 0.048 33.701 0.075 C39.464 0.1 45.227 0.103 50.99 0.108 C61.905 0.12 72.82 0.153 83.735 0.193 C96.161 0.238 108.586 0.26 121.012 0.28 C146.574 0.322 172.136 0.392 197.698 0.481 C196.254 3.414 194.69 6.174 192.941 8.938 C182.634 25.326 173.793 41.452 166.698 59.481 C166.423 60.179 166.147 60.877 165.862 61.597 C158.376 80.845 154.127 100.793 151.992 121.296 C151.707 123.416 151.259 125.419 150.698 127.481 C144.528 126.138 138.387 124.701 132.261 123.169 C131.385 122.95 130.51 122.731 129.608 122.506 C124.196 121.142 118.816 119.695 113.448 118.169 C103.52 115.35 93.499 112.896 83.481 110.423 C72.311 107.662 61.164 104.833 50.136 101.544 C43.028 99.483 35.834 97.876 28.601 96.319 C27.263 96.026 27.263 96.026 25.898 95.727 C25.112 95.559 24.327 95.391 23.518 95.217 C21.172 94.605 18.946 93.893 16.659 93.102 C10.905 91.152 5.034 89.733 -0.864 88.294 C-1.968 88.021 -3.072 87.748 -4.21 87.467 C-6.906 86.802 -9.604 86.14 -12.302 85.481 C-12.394 74.989 -12.465 64.497 -12.509 54.005 C-12.53 49.133 -12.558 44.261 -12.603 39.39 C-12.647 34.689 -12.671 29.988 -12.681 25.287 C-12.688 23.493 -12.703 21.699 -12.724 19.905 C-12.754 17.393 -12.758 14.883 -12.756 12.371 C-12.77 11.628 -12.784 10.885 -12.799 10.119 C-12.774 6.975 -12.596 4.907 -10.79 2.289 C-7.306 -0.242 -4.144 -0.061 0 0 Z " fill="#8B8C8D" transform="translate(119.30157470703125,386.51898193359375)"/>
<path d="M0 0 C29.04 0 58.08 0 88 0 C88 46.2 88 92.4 88 140 C77.895 142.887 67.979 144.454 57.562 145.75 C44.119 147.469 30.788 149.664 17.451 152.069 C16.732 152.197 16.012 152.325 15.271 152.457 C13.319 152.805 11.368 153.158 9.418 153.513 C6 154 6 154 0 154 C0 103.18 0 52.36 0 0 Z " fill="#898B8C" transform="translate(821,387)"/>
<path d="M0 0 C1.08 -0.001 2.16 -0.002 3.273 -0.002 C13.293 0.066 23.242 0.459 33 2.875 C34.071 3.137 34.071 3.137 35.165 3.404 C62.452 10.32 86.099 23.246 106.812 42.188 C107.707 42.998 108.602 43.809 109.523 44.645 C133.061 67.031 149.13 100.205 150.009 132.745 C150.347 149.234 150.487 165.225 145.812 181.188 C145.593 181.959 145.373 182.731 145.147 183.526 C138.742 205.546 127.324 225.34 111.812 242.188 C111.357 242.692 110.901 243.197 110.432 243.717 C90.535 265.571 62.501 279.573 33.833 285.75 C31.871 286.175 29.918 286.636 27.965 287.098 C4.849 292.093 -20.582 290.599 -43.188 284.188 C-44.401 283.851 -44.401 283.851 -45.64 283.507 C-71.206 276.216 -93.102 263.321 -111.785 244.582 C-113.277 243.095 -114.789 241.626 -116.328 240.188 C-138.389 219.271 -152.242 186.113 -153.629 155.949 C-153.692 153.256 -153.737 150.569 -153.75 147.875 C-153.754 147.164 -153.758 146.453 -153.762 145.721 C-153.762 124.459 -149.244 103.041 -139.188 84.188 C-138.877 83.591 -138.566 82.995 -138.247 82.381 C-131.579 69.662 -123.036 58.593 -113.188 48.188 C-112.317 47.241 -111.447 46.295 -110.551 45.32 C-89.381 22.794 -58.455 7.542 -28.188 2.188 C-27.084 1.979 -25.981 1.77 -24.844 1.555 C-16.537 0.259 -8.398 0.006 0 0 Z M-94.188 45.188 C-94.906 45.764 -95.624 46.34 -96.363 46.934 C-100.825 50.584 -104.509 54.762 -108.188 59.188 C-108.815 59.916 -109.443 60.644 -110.09 61.395 C-121.37 74.863 -129.315 90.501 -134.438 107.25 C-134.684 108.053 -134.93 108.855 -135.184 109.682 C-138.444 120.83 -139.513 131.595 -139.438 143.188 C-139.445 144.368 -139.453 145.549 -139.461 146.766 C-139.444 154.444 -138.652 161.658 -137.188 169.188 C-136.999 170.376 -136.811 171.565 -136.617 172.789 C-132.946 192.797 -122.177 211.714 -108.188 226.188 C-107.033 227.534 -105.886 228.888 -104.75 230.25 C-83.455 254.372 -49.771 272.462 -17.363 274.591 C-12.428 274.804 -7.5 274.803 -2.562 274.75 C-1.691 274.745 -0.82 274.74 0.078 274.735 C39.392 274.434 74.55 260.648 102.812 233.188 C122.423 212.928 133.362 187.697 137.812 160.188 C138.005 159.048 138.197 157.908 138.395 156.734 C142.356 123.119 131.993 89.451 111.145 62.98 C92.084 40.152 67.592 22.107 38.438 14.562 C37.239 14.238 37.239 14.238 36.016 13.906 C28.076 11.825 20.462 11.045 12.25 11.125 C11.032 11.134 9.814 11.143 8.559 11.152 C7.199 11.17 7.199 11.17 5.812 11.188 C6.143 12.507 6.472 13.827 6.812 15.188 C7.77 15.285 8.728 15.383 9.715 15.484 C46.238 19.481 81.223 35.525 104.621 64.617 C126.533 92.865 134.927 125.658 131.062 161.062 C129.492 173.38 126.542 185.104 120.812 196.188 C121.139 195.232 121.465 194.277 121.801 193.293 C130.974 166.25 136.028 135.992 126.812 108.188 C126.571 107.452 126.33 106.716 126.081 105.958 C114.906 72.94 91.622 46.456 60.812 30.188 C26.685 13.868 -7.286 13.552 -43.188 23.188 C-28.459 17.123 -12.883 15.899 2.812 14.188 C2.812 13.197 2.812 12.207 2.812 11.188 C-34.402 9.682 -65.692 21.435 -94.188 45.188 Z " fill="#FAFAFA" transform="translate(533.1875,385.8125)"/>
<path d="M0 0 C0 0.99 0 1.98 0 3 C-0.668 3.07 -1.337 3.14 -2.025 3.212 C-18.536 4.974 -34.439 6.947 -50 13 C-48.762 12.587 -47.525 12.175 -46.25 11.75 C-40.854 10.127 -35.395 8.98 -29.875 7.875 C-29.028 7.705 -28.182 7.534 -27.31 7.358 C6.804 0.669 41.632 7.928 70.875 26.625 C91.602 40.815 107.836 58.983 118 82 C118.421 82.925 118.421 82.925 118.851 83.87 C132.195 113.443 130.657 146.04 121.086 176.523 C120.308 179.012 119.586 181.462 119 184 C131.555 153.679 133.453 118.465 121.312 87.688 C107.949 55.591 85.657 32.985 55 17 C53.621 16.261 53.621 16.261 52.215 15.508 C43.648 11.244 34.265 9.199 25 7 C23.833 6.72 23.833 6.72 22.642 6.434 C18.233 5.408 13.965 4.687 9.438 4.375 C8.405 4.3 7.372 4.225 6.309 4.148 C5.547 4.099 4.785 4.05 4 4 C3.67 2.68 3.34 1.36 3 0 C22.866 -0.543 40.192 3.184 58 12 C59.497 12.694 59.497 12.694 61.023 13.402 C94.123 29.083 117.71 58.175 130.145 92.125 C140.751 123.903 137.42 159.245 122.897 189.281 C117.926 199.072 112.383 207.826 105 216 C104.243 216.898 103.487 217.797 102.707 218.723 C93.484 229.42 82.207 237.948 70 245 C69.162 245.487 68.324 245.975 67.461 246.477 C57.219 251.996 46.08 255.569 35 259 C34.223 259.246 33.446 259.492 32.645 259.745 C9.009 266.853 -22.815 266.135 -46 258 C-46.709 257.77 -47.417 257.54 -48.147 257.303 C-71.753 249.643 -91.611 235.475 -109 218 C-109.864 217.136 -110.727 216.273 -111.617 215.383 C-125.081 201.174 -135.622 181.263 -139.625 162.062 C-139.985 160.378 -139.985 160.378 -140.352 158.66 C-143.569 140.497 -144.123 119.812 -139 102 C-138.774 101.201 -138.549 100.402 -138.316 99.578 C-132.276 78.768 -122.886 61.216 -108.078 45.289 C-105.958 43.014 -105.958 43.014 -104.051 40.48 C-100.32 35.969 -95.595 32.591 -91 29 C-90.165 28.337 -89.329 27.675 -88.469 26.992 C-74.747 16.531 -59.443 9.076 -43 4 C-42.279 3.776 -41.558 3.551 -40.815 3.32 C-27.351 -0.691 -13.942 -0.44 0 0 Z M-44.875 19.625 C-45.989 20.002 -45.989 20.002 -47.125 20.387 C-64.815 26.658 -79.482 37.107 -93 50 C-93.542 50.514 -94.084 51.029 -94.643 51.559 C-113.759 70.11 -126.216 97.478 -128 124 C-128.051 124.721 -128.101 125.441 -128.153 126.184 C-129.487 148.664 -124.599 170.206 -114 190 C-113.644 190.681 -113.288 191.362 -112.922 192.063 C-98.269 219.715 -71.736 240.424 -42 249.812 C-39.345 250.592 -36.678 251.305 -34 252 C-32.831 252.32 -31.662 252.639 -30.457 252.969 C1.092 260.273 35.363 253.725 62.863 237.062 C68.111 233.612 73.117 229.95 78 226 C78.852 225.314 79.704 224.628 80.582 223.922 C102.143 205.587 116.976 177.061 120 149 C120.285 143.726 120.341 138.467 120.312 133.188 C120.311 132.483 120.309 131.779 120.307 131.054 C120.262 120.761 119.911 110.943 117 101 C116.66 99.836 116.319 98.672 115.969 97.473 C111.6 84.114 104.763 71.957 96 61 C95.567 60.455 95.134 59.91 94.688 59.348 C78.139 38.698 58.171 26.083 33 18 C32.267 17.76 31.534 17.52 30.779 17.272 C19.467 13.755 7.992 13.619 -3.75 13.562 C-4.491 13.556 -5.233 13.55 -5.996 13.543 C-19.415 13.472 -32.102 15.286 -44.875 19.625 Z " fill="#414142" transform="translate(536,397)"/>
<path d="M0 0 C0.9 0.222 1.799 0.444 2.726 0.673 C30.042 7.585 53.917 19.813 74.359 39.438 C76.814 41.829 76.814 41.829 79.434 43.809 C83.939 47.507 87.303 52.236 90.875 56.812 C91.538 57.659 92.2 58.506 92.883 59.379 C102.25 71.799 109.793 85.1 114.875 99.812 C115.1 100.445 115.326 101.078 115.558 101.73 C128.7 139.235 124.118 179.361 107.387 214.781 C100.644 228.558 92.357 240.638 81.875 251.812 C81.416 252.308 80.958 252.804 80.485 253.315 C69.613 264.977 57.65 273.378 43.687 280.833 C42.1 281.691 40.536 282.59 38.977 283.496 C27.527 290.115 15.311 293.876 2.562 297.125 C1.573 297.38 0.583 297.634 -0.436 297.896 C-11.783 300.675 -22.975 300.999 -34.602 300.998 C-36.792 301 -38.981 301.018 -41.17 301.037 C-71.822 301.16 -99.977 292.74 -126.125 276.812 C-127.212 276.155 -128.298 275.498 -129.418 274.82 C-150.424 261.445 -166.628 243.213 -179.125 221.812 C-179.722 220.82 -180.319 219.827 -180.934 218.805 C-198.947 187.432 -201.806 147.866 -192.988 113.156 C-186.204 88.219 -173.14 65.345 -155.125 46.812 C-153.826 45.403 -153.826 45.403 -152.5 43.965 C-132.743 22.91 -103.553 7.041 -75.304 1.266 C-72.946 0.775 -70.604 0.23 -68.258 -0.312 C-46.381 -5.087 -21.814 -5.44 0 0 Z M-64.125 6.812 C-65.058 6.996 -65.992 7.179 -66.953 7.367 C-70.054 8.069 -73.076 8.911 -76.125 9.812 C-76.865 10.03 -77.604 10.248 -78.366 10.472 C-103.227 17.913 -125.432 29.61 -144.125 47.812 C-145.552 49.147 -145.552 49.147 -147.008 50.508 C-157.066 60.057 -165.066 70.843 -171.938 82.875 C-172.274 83.462 -172.611 84.05 -172.958 84.655 C-184.49 105.629 -189.81 128.594 -189.75 152.375 C-189.751 153.057 -189.752 153.739 -189.753 154.441 C-189.72 163.628 -188.485 171.956 -186.125 180.812 C-185.704 182.616 -185.286 184.421 -184.871 186.227 C-179.325 208.868 -167.704 231.095 -150.125 246.812 C-145.125 251.813 -145.125 251.813 -143.535 253.543 C-128.988 268.951 -108.846 278.763 -89.125 285.812 C-87.601 286.362 -87.601 286.362 -86.047 286.922 C-82.763 288.017 -79.475 288.941 -76.125 289.812 C-75.439 289.996 -74.753 290.179 -74.046 290.368 C-34.471 300.559 8.616 292.464 43.875 272.812 C53.68 266.854 62.656 259.812 70.875 251.812 C72.006 250.757 72.006 250.757 73.16 249.68 C96.629 227.218 113.199 192.649 114.14 159.945 C114.202 156.379 114.206 152.816 114.188 149.25 C114.184 148.124 114.184 148.124 114.18 146.975 C113.986 109.066 99.883 75.674 72.875 48.812 C72.379 48.314 71.883 47.816 71.373 47.302 C53.764 29.783 32.272 18.632 8.875 10.812 C7.862 10.473 6.849 10.134 5.805 9.785 C-15.968 2.926 -41.808 2.427 -64.125 6.812 Z " fill="#363536" transform="translate(569.125,381.1875)"/>
<path d="M0 0 C12.502 7.18 22.16 16.078 27.188 29.891 C30.609 43.141 28.845 56.389 22.312 68.328 C14.996 79.484 5.965 86.23 -6.688 90.328 C-22.078 93.109 -34.755 91.727 -48 83.078 C-55.383 77.544 -61.302 70.965 -64.688 62.328 C-64.985 61.627 -65.283 60.926 -65.59 60.203 C-69.727 48.918 -69.074 36.15 -64.234 25.262 C-52.398 2.814 -24.801 -11.288 0 0 Z " fill="#FDFDFD" transform="translate(552.6875,487.671875)"/>
<path d="M0 0 C3.552 2.8 6.178 5.035 7.027 9.648 C7.297 15.45 6.399 18.876 2.586 23.25 C1.926 23.58 1.266 23.91 0.586 24.25 C1.423 24.469 2.259 24.688 3.121 24.914 C28.589 31.852 51.416 44.741 65 68.336 C69.259 76.038 72.982 83.818 75.586 92.25 C76.313 91.492 76.313 91.492 77.055 90.719 C83.217 84.746 83.217 84.746 87.711 84.625 C92.888 85.46 96.099 86.72 99.773 90.5 C105.208 98.746 105.591 106.623 104.586 116.25 C103.038 121.535 100.805 125.086 96.836 128.875 C92.592 130.671 89.126 131.069 84.586 130.25 C78.946 127.329 78.946 127.329 77.586 123.25 C76.926 123.25 76.266 123.25 75.586 123.25 C75.621 123.833 75.656 124.415 75.691 125.016 C76.277 142.737 67.533 158.821 56.586 172.25 C55.899 173.101 55.212 173.952 54.504 174.828 C42.376 189.075 24.928 199.318 6.586 203.25 C3.723 203.344 3.723 203.344 1.586 203.25 C2.019 203.818 2.452 204.387 2.898 204.973 C5.512 208.597 7.418 211.382 8.273 215.812 C7.247 220.943 5.405 225.285 1 228.355 C-4.694 231.609 -9.957 231.919 -16.414 231.875 C-17.833 231.923 -17.833 231.923 -19.281 231.973 C-26.33 231.982 -30.379 230.168 -35.414 225.25 C-38.34 221.775 -38.932 218.807 -38.785 214.246 C-38.188 211.033 -36.362 208.806 -34.414 206.25 C-34.414 205.59 -34.414 204.93 -34.414 204.25 C-35.118 204.103 -35.822 203.956 -36.547 203.805 C-58.953 198.715 -80.636 185.009 -93.517 165.587 C-101.572 152.605 -106.941 139.568 -108.414 124.25 C-109.249 125.178 -109.249 125.178 -110.102 126.125 C-113.556 129.3 -116.21 130.119 -120.852 130.625 C-125.887 130.095 -128.806 128.03 -132.164 124.312 C-135.371 119.021 -135.779 114.49 -135.789 108.438 C-135.826 107.284 -135.826 107.284 -135.863 106.107 C-135.895 99.786 -134.392 94.32 -129.896 89.685 C-126.715 86.968 -124.442 85.373 -120.289 84.875 C-115.379 85.35 -112.206 87.155 -108.414 90.25 C-107.754 91.24 -107.094 92.23 -106.414 93.25 C-106.051 92.223 -105.687 91.195 -105.312 90.137 C-96.078 64.476 -80.839 45.364 -56.395 32.684 C-53.761 31.45 -51.119 30.318 -48.414 29.25 C-47.623 28.932 -46.831 28.613 -46.016 28.285 C-40.958 26.412 -36.798 25.956 -31.414 26.25 C-31.414 25.59 -31.414 24.93 -31.414 24.25 C-32.012 24.044 -32.61 23.837 -33.227 23.625 C-36.376 21.645 -37.129 19.719 -38.414 16.25 C-39.114 11.91 -39.375 9.741 -36.984 6.031 C-28.625 -3.871 -11.41 -7.175 0 0 Z M-80.414 55.25 C-98.238 76.254 -104.841 97.928 -103.414 125.25 C-100.842 147.11 -90.035 167.19 -72.969 181.137 C-52.742 196.946 -28.794 203.573 -3.195 200.859 C20.44 197.71 40.855 185.017 55.715 166.613 C69.809 147.222 74.665 124.834 72.586 101.25 C68.775 77.952 55.33 57.516 36.359 43.723 C0.186 19.068 -49.926 23.453 -80.414 55.25 Z " fill="#3D3C3D" transform="translate(548.4140625,416.75)"/>
<path d="M0 0 C22.44 0 44.88 0 68 0 C68 50.82 68 101.64 68 154 C52.25 157.375 52.25 157.375 45 157 C44.991 156.056 44.981 155.112 44.972 154.14 C44.639 125.321 42.45 97.75 34 70 C33.744 69.156 33.488 68.311 33.224 67.441 C26.289 45.132 15.789 22.339 1.328 3.864 C0 2 0 2 0 0 Z " fill="#8B8C8D" transform="translate(750,387)"/>
<path d="M0 0 C11.712 8.662 20.71 20.514 23.66 34.996 C25.795 51.928 22.444 67.039 12.062 80.848 C2.489 92.182 -11.282 99.696 -26.102 101.443 C-42.387 102.556 -56.264 98.897 -68.938 88.188 C-69.643 87.593 -70.348 86.999 -71.074 86.387 C-81.568 76.732 -87.132 63.676 -88.211 49.629 C-88.642 33.174 -83.616 19.16 -72.188 6.938 C-51.888 -12.224 -23.572 -14.434 0 0 Z M-69.188 15.312 C-78.458 26.962 -81.104 39.666 -79.938 54.188 C-77.631 67.196 -70.618 77.507 -59.938 85.188 C-51.606 90.019 -43.873 93.573 -34.125 93.438 C-33.415 93.43 -32.705 93.423 -31.974 93.415 C-26.686 93.307 -21.943 92.883 -16.938 91.188 C-15.984 90.869 -15.03 90.551 -14.047 90.223 C-1.477 85.533 6.748 77.001 12.605 65.035 C17.51 53.041 18.126 40.071 13.391 27.898 C8.242 17.389 0.48 8.602 -9.938 3.188 C-11.016 2.596 -11.016 2.596 -12.117 1.992 C-31.901 -7.046 -54.782 0.221 -69.188 15.312 Z " fill="#413F41" transform="translate(564.9375,485.8125)"/>
<path d="M0 0 C9.57 0 19.14 0 29 0 C29 0.99 29 1.98 29 3 C25.04 3 21.08 3 17 3 C17 14.55 17 26.1 17 38 C50.66 38 84.32 38 119 38 C119 40.31 119 42.62 119 45 C115.7 45 112.4 45 109 45 C109 46.32 109 47.64 109 49 C110.65 49.33 112.3 49.66 114 50 C114 51.65 114 53.3 114 55 C113.196 55.289 112.391 55.577 111.562 55.875 C108.867 56.733 108.867 56.733 108 59 C109.98 59 111.96 59 114 59 C114 61.31 114 63.62 114 66 C113.196 66.124 112.391 66.248 111.562 66.375 C110.717 66.581 109.871 66.788 109 67 C108.67 67.66 108.34 68.32 108 69 C108.804 68.979 109.609 68.959 110.438 68.938 C113 69 113 69 114 70 C114.041 71.666 114.043 73.334 114 75 C112.02 75 110.04 75 108 75 C108 76.32 108 77.64 108 79 C108.804 78.979 109.609 78.959 110.438 78.938 C113 79 113 79 114 80 C114.041 81.666 114.043 83.334 114 85 C113.196 85.268 112.391 85.536 111.562 85.812 C110.717 86.204 109.871 86.596 109 87 C108.67 87.99 108.34 88.98 108 90 C109.98 90 111.96 90 114 90 C114.043 91.666 114.041 93.334 114 95 C113 96 113 96 110.438 96.062 C109.633 96.042 108.829 96.021 108 96 C108.33 96.99 108.66 97.98 109 99 C110.65 99.33 112.3 99.66 114 100 C114 101.98 114 103.96 114 106 C112.02 106 110.04 106 108 106 C108 107.32 108 108.64 108 110 C109.98 110 111.96 110 114 110 C114 111.98 114 113.96 114 116 C112.35 116 110.7 116 109 116 C109 117.32 109 118.64 109 120 C110.65 120 112.3 120 114 120 C114 121.98 114 123.96 114 126 C112.02 126 110.04 126 108 126 C108 127.65 108 129.3 108 131 C109.98 131 111.96 131 114 131 C114 132.98 114 134.96 114 137 C112.02 137 110.04 137 108 137 C108 137.99 108 138.98 108 140 C109.207 139.969 109.207 139.969 110.438 139.938 C113 140 113 140 114 141 C114.125 143.5 114.125 143.5 114 146 C113 147 113 147 110.438 147.062 C109.633 147.042 108.829 147.021 108 147 C108 147.99 108 148.98 108 150 C109.207 149.969 109.207 149.969 110.438 149.938 C113 150 113 150 114 151 C114.125 153.5 114.125 153.5 114 156 C113 157 113 157 110.438 157.062 C109.633 157.042 108.829 157.021 108 157 C108.33 157.99 108.66 158.98 109 160 C110.65 160.33 112.3 160.66 114 161 C114 162.65 114 164.3 114 166 C112.35 166.33 110.7 166.66 109 167 C109 167.99 109 168.98 109 170 C110.65 170 112.3 170 114 170 C114 171.98 114 173.96 114 176 C112.02 176.33 110.04 176.66 108 177 C107.01 179.97 107.01 179.97 106 183 C105.67 183 105.34 183 105 183 C105 137.46 105 91.92 105 45 C75.96 45 46.92 45 17 45 C17 47.31 17 49.62 17 52 C16.67 52 16.34 52 16 52 C15.67 100.51 15.34 149.02 15 199 C14.67 199 14.34 199 14 199 C14 148.18 14 97.36 14 45 C-8.77 45.33 -31.54 45.66 -55 46 C-58 42 -58 42 -58 40 C-58.66 39.34 -59.32 38.68 -60 38 C-35.58 38 -11.16 38 14 38 C14 26.45 14 14.9 14 3 C9.38 3 4.76 3 0 3 C0 2.01 0 1.02 0 0 Z " fill="#444447" transform="translate(804,342)"/>
<path d="M0 0 C0.66 0 1.32 0 2 0 C2 20.46 2 40.92 2 62 C1.01 62 0.02 62 -1 62 C-1 58.7 -1 55.4 -1 52 C-162.37 52 -323.74 52 -490 52 C-490 55.3 -490 58.6 -490 62 C-490.66 62 -491.32 62 -492 62 C-492 41.87 -492 21.74 -492 1 C-491.34 1 -490.68 1 -490 1 C-490 4.96 -490 8.92 -490 13 C-450.73 13 -411.46 13 -371 13 C-371 13.66 -371 14.32 -371 15 C-410.27 15 -449.54 15 -490 15 C-490 26.22 -490 37.44 -490 49 C-328.63 49 -167.26 49 -1 49 C-1 37.78 -1 26.56 -1 15 C-43.24 15 -85.48 15 -129 15 C-129 14.01 -129 13.02 -129 12 C-86.76 12 -44.52 12 -1 12 C-1 8.37 -1 4.74 -1 1 C-0.67 0.67 -0.34 0.34 0 0 Z " fill="#201D1E" transform="translate(770,137)"/>
<path d="M0 0 C0.66 0 1.32 0 2 0 C2.33 2.31 2.66 4.62 3 7 C3.66 7 4.32 7 5 7 C5.33 5.68 5.66 4.36 6 3 C6.147 3.825 6.294 4.65 6.445 5.5 C9.289 20.141 13.789 33.077 23 45 C23.655 45.849 24.31 46.699 24.984 47.574 C39.7 65.194 61.441 75.372 84 78 C108.801 79.324 132.449 73.333 151.499 56.69 C164.983 44.459 175 28.255 178.547 10.219 C179.098 7.52 180.261 6.101 182 4 C182.33 3.34 182.66 2.68 183 2 C184 3 184 3 184.25 6.312 C183.907 22.457 174.951 37.793 165 50 C163.969 51.276 163.969 51.276 162.918 52.578 C150.79 66.825 133.342 77.068 115 81 C112.137 81.094 112.137 81.094 110 81 C110.433 81.568 110.866 82.137 111.312 82.723 C113.926 86.347 115.832 89.132 116.688 93.562 C115.661 98.693 113.819 103.035 109.414 106.105 C103.72 109.359 98.457 109.669 92 109.625 C90.581 109.673 90.581 109.673 89.133 109.723 C82.084 109.732 78.035 107.918 73 103 C70.074 99.525 69.482 96.557 69.629 91.996 C70.226 88.783 72.052 86.556 74 84 C74 83.34 74 82.68 74 82 C73.296 81.853 72.592 81.706 71.867 81.555 C49.461 76.465 27.778 62.759 14.897 43.337 C6.438 29.705 1.036 16.146 0 0 Z " fill="#414041" transform="translate(440,539)"/>
<path d="M0 0 C0.66 0 1.32 0 2 0 C2 20.46 2 40.92 2 62 C1.01 62 0.02 62 -1 62 C-1 58.7 -1 55.4 -1 52 C-162.37 52 -323.74 52 -490 52 C-490 51.67 -490 51.34 -490 51 C-304.87 50.505 -304.87 50.505 -116 50 C-116 49.67 -116 49.34 -116 49 C-78.05 49 -40.1 49 -1 49 C-1 37.78 -1 26.56 -1 15 C-43.24 15 -85.48 15 -129 15 C-129 14.01 -129 13.02 -129 12 C-86.76 12 -44.52 12 -1 12 C-1 8.37 -1 4.74 -1 1 C-0.67 0.67 -0.34 0.34 0 0 Z " fill="#5E5C5D" transform="translate(770,137)"/>
<path d="M0 0 C0 0.99 0 1.98 0 3 C-0.668 3.07 -1.337 3.14 -2.025 3.212 C-19.202 5.045 -35.537 7.661 -52 13 C-52 13.66 -52 14.32 -52 15 C-53.027 15.508 -54.055 16.016 -55.113 16.539 C-58.744 18.338 -62.363 20.16 -65.979 21.988 C-67.627 22.813 -69.286 23.615 -70.949 24.41 C-77.958 27.92 -83.743 32.639 -89.695 37.682 C-90.354 38.238 -91.013 38.794 -91.691 39.367 C-92.281 39.874 -92.871 40.38 -93.479 40.902 C-95 42 -95 42 -97 42 C-97.233 42.554 -97.467 43.109 -97.707 43.68 C-99.333 46.597 -101.385 48.706 -103.688 51.125 C-117.899 66.497 -126.663 84.902 -132 105 C-132.339 106.169 -132.678 107.338 -133.027 108.543 C-139.595 134.842 -134.792 164.17 -123.562 188.5 C-122.789 190.233 -122.789 190.233 -122 192 C-122.495 192.99 -122.495 192.99 -123 194 C-131.198 179.496 -137.207 162.706 -138 146 C-138.072 144.655 -138.072 144.655 -138.145 143.283 C-139.32 117.568 -133.449 94.59 -121.418 71.988 C-119.911 69.145 -119.911 69.145 -119.523 66.406 C-118.849 63.306 -117.439 61.626 -115.438 59.188 C-114.797 58.397 -114.156 57.607 -113.496 56.793 C-113.002 56.201 -112.509 55.61 -112 55 C-112.99 55.495 -112.99 55.495 -114 56 C-115.485 55.505 -115.485 55.505 -117 55 C-115.105 52.936 -113.209 50.874 -111.312 48.812 C-110.782 48.234 -110.252 47.656 -109.705 47.061 C-90.98 26.727 -69.482 12.174 -43 4 C-42.279 3.776 -41.558 3.551 -40.815 3.32 C-27.351 -0.691 -13.942 -0.44 0 0 Z " fill="#414043" transform="translate(536,397)"/>
<path d="M0 0 C1.65 0 3.3 0 5 0 C5 2.31 5 4.62 5 7 C4.196 7.124 3.391 7.248 2.562 7.375 C1.294 7.684 1.294 7.684 0 8 C-0.33 8.66 -0.66 9.32 -1 10 C-0.196 9.979 0.609 9.959 1.438 9.938 C4 10 4 10 5 11 C5.041 12.666 5.043 14.334 5 16 C3.02 16 1.04 16 -1 16 C-1 17.32 -1 18.64 -1 20 C0.207 19.969 0.207 19.969 1.438 19.938 C4 20 4 20 5 21 C5.041 22.666 5.043 24.334 5 26 C4.196 26.268 3.391 26.536 2.562 26.812 C1.717 27.204 0.871 27.596 0 28 C-0.33 28.99 -0.66 29.98 -1 31 C0.98 31 2.96 31 5 31 C5.043 32.666 5.041 34.334 5 36 C4 37 4 37 1.438 37.062 C0.633 37.042 -0.171 37.021 -1 37 C-0.67 37.99 -0.34 38.98 0 40 C1.65 40.33 3.3 40.66 5 41 C5 42.98 5 44.96 5 47 C3.02 47 1.04 47 -1 47 C-1 48.32 -1 49.64 -1 51 C0.98 51 2.96 51 5 51 C5 52.98 5 54.96 5 57 C3.35 57 1.7 57 0 57 C0 58.32 0 59.64 0 61 C1.65 61 3.3 61 5 61 C5 62.98 5 64.96 5 67 C3.02 67 1.04 67 -1 67 C-1 68.65 -1 70.3 -1 72 C0.98 72 2.96 72 5 72 C5 73.98 5 75.96 5 78 C3.02 78 1.04 78 -1 78 C-1 78.99 -1 79.98 -1 81 C-0.196 80.979 0.609 80.959 1.438 80.938 C4 81 4 81 5 82 C5.125 84.5 5.125 84.5 5 87 C4 88 4 88 1.438 88.062 C0.633 88.042 -0.171 88.021 -1 88 C-1 88.99 -1 89.98 -1 91 C-0.196 90.979 0.609 90.959 1.438 90.938 C4 91 4 91 5 92 C5.125 94.5 5.125 94.5 5 97 C4 98 4 98 1.438 98.062 C0.633 98.042 -0.171 98.021 -1 98 C-0.67 98.99 -0.34 99.98 0 101 C1.65 101.33 3.3 101.66 5 102 C5 103.65 5 105.3 5 107 C2.525 107.495 2.525 107.495 0 108 C0 108.99 0 109.98 0 111 C1.65 111 3.3 111 5 111 C5 112.98 5 114.96 5 117 C2.03 117.495 2.03 117.495 -1 118 C-1.66 119.98 -2.32 121.96 -3 124 C-3.33 124 -3.66 124 -4 124 C-4 83.74 -4 43.48 -4 2 C-3.67 2 -3.34 2 -3 2 C-2.67 3.65 -2.34 5.3 -2 7 C-1.67 6.67 -1.34 6.34 -1 6 C0.666 5.959 2.334 5.957 4 6 C4 4.35 4 2.7 4 1 C2.68 0.67 1.36 0.34 0 0 Z " fill="#4B4B4B" transform="translate(913,401)"/>
<path d="M0 0 C0.66 0.99 1.32 1.98 2 3 C5.226 3.668 5.226 3.668 9.062 3.938 C43.775 7.523 76.949 24.905 99.441 51.718 C121.912 79.584 130.746 112.322 127.48 147.769 C125.922 162.037 122.082 175.025 116 188 C114.695 184.085 115.905 181.707 117.25 178 C117.722 176.637 118.192 175.274 118.66 173.91 C119.007 172.907 119.007 172.907 119.36 171.883 C127.209 148.792 128.727 120.314 121 97 C120.759 96.264 120.517 95.529 120.269 94.771 C109.221 62.127 86.485 36.097 56 20 C23.32 4.373 -9.956 2.951 -44.547 12.133 C-47.691 12.922 -50.796 13.518 -54 14 C-51.331 11.331 -48.337 10.638 -44.812 9.562 C-43.748 9.234 -43.748 9.234 -42.662 8.899 C-35.529 6.761 -28.342 5.259 -21 4 C-20.255 3.867 -19.51 3.734 -18.742 3.598 C-12.549 2.652 -6.245 2.914 0 3 C0 2.01 0 1.02 0 0 Z " fill="#C5C4C2" transform="translate(538,397)"/>
<path d="M0 0 C0.66 0 1.32 0 2 0 C2 3.96 2 7.92 2 12 C41.27 12 80.54 12 121 12 C121 12.66 121 13.32 121 14 C81.73 14 42.46 14 2 14 C2 25.55 2 37.1 2 49 C47.54 49 93.08 49 140 49 C140 49.33 140 49.66 140 50 C94.46 50 48.92 50 2 50 C2 53.63 2 57.26 2 61 C1.34 61 0.68 61 0 61 C0 40.87 0 20.74 0 0 Z " fill="#0B0A0B" transform="translate(278,138)"/>
<path d="M0 0 C0.99 0.495 0.99 0.495 2 1 C3.007 18.455 -6.275 34.844 -17 48 C-17.687 48.851 -18.374 49.702 -19.082 50.578 C-30.502 63.994 -45.538 72.287 -62 78 C-65 78.188 -65 78.188 -67 78 C-67.33 76.68 -67.66 75.36 -68 74 C-66.984 73.636 -65.968 73.273 -64.922 72.898 C-41.055 64.24 -21.492 51.389 -10.195 27.785 C-7.496 21.494 -4.772 14.954 -3.457 8.219 C-2.905 5.536 -1.682 4.121 0 2 C0 1.34 0 0.68 0 0 Z " fill="#4B484A" transform="translate(622,541)"/>
<path d="M0 0 C-1.027 0.508 -2.055 1.016 -3.113 1.539 C-6.744 3.338 -10.363 5.16 -13.979 6.988 C-15.627 7.813 -17.286 8.615 -18.949 9.41 C-25.958 12.92 -31.743 17.639 -37.695 22.682 C-38.354 23.238 -39.013 23.794 -39.691 24.367 C-40.281 24.874 -40.871 25.38 -41.479 25.902 C-43 27 -43 27 -45 27 C-45.35 27.831 -45.35 27.831 -45.707 28.68 C-47.333 31.597 -49.385 33.706 -51.688 36.125 C-65.899 51.497 -74.663 69.902 -80 90 C-80.339 91.169 -80.678 92.338 -81.027 93.543 C-87.595 119.842 -82.792 149.17 -71.562 173.5 C-70.789 175.233 -70.789 175.233 -70 177 C-70.495 177.99 -70.495 177.99 -71 179 C-79.198 164.496 -85.207 147.706 -86 131 C-86.072 129.655 -86.072 129.655 -86.145 128.283 C-87.32 102.568 -81.449 79.59 -69.418 56.988 C-67.911 54.145 -67.911 54.145 -67.523 51.406 C-66.849 48.306 -65.439 46.626 -63.438 44.188 C-62.797 43.397 -62.156 42.607 -61.496 41.793 C-61.002 41.201 -60.509 40.61 -60 40 C-60.99 40.495 -60.99 40.495 -62 41 C-63.485 40.505 -63.485 40.505 -65 40 C-61.04 35.71 -57.08 31.42 -53 27 C-52.34 27.66 -51.68 28.32 -51 29 C-50.464 28.402 -49.928 27.804 -49.375 27.188 C-47 25 -47 25 -44.227 23.656 C-40.753 21.873 -38.027 19.772 -35 17.312 C-28.379 12.071 -21.448 7.975 -14 4 C-13.022 3.459 -12.043 2.917 -11.035 2.359 C-3.958 -1.424 -3.958 -1.424 0 0 Z M-50 23 C-49.34 23.33 -48.68 23.66 -48 24 C-49.32 24.99 -50.64 25.98 -52 27 C-51.34 25.68 -50.68 24.36 -50 23 Z " fill="#908F90" transform="translate(484,412)"/>
<path d="M0 0 C0.99 1.98 0.99 1.98 2 4 C1.103 4.196 0.206 4.392 -0.719 4.594 C-24.111 10.2 -45.4 23.107 -58.144 43.863 C-59.94 46.902 -61.671 49.973 -63.371 53.066 C-65 56 -65 56 -67 59 C-67.66 59 -68.32 59 -69 59 C-69.33 59.66 -69.66 60.32 -70 61 C-70.66 61 -71.32 61 -72 61 C-65.155 37.803 -48.571 20.845 -28 9 C-19.03 4.347 -10.089 0.917 0 0 Z " fill="#454444" transform="translate(517,442)"/>
<path d="M0 0 C26.147 2.801 46.213 16.715 62.453 36.785 C64 39 64 39 64 41 C59.927 40.804 58.366 40.374 55.465 37.41 C54.612 36.302 53.77 35.186 52.938 34.062 C40 17.874 20.209 7.322 -0.312 4.25 C-1.199 4.168 -2.086 4.085 -3 4 C-1.68 3.34 -0.36 2.68 1 2 C0.67 1.34 0.34 0.68 0 0 Z " fill="#484547" transform="translate(547,442)"/>
<path d="M0 0 C0.495 1.485 0.495 1.485 1 3 C-0.215 5.375 -0.215 5.375 -1.938 8 C-4.464 11.685 -4.464 11.685 -5 16 C-4.01 15.67 -3.02 15.34 -2 15 C-3.433 19.55 -6.003 22.505 -9.25 25.875 C-12.225 29.019 -15.164 32.134 -17.812 35.562 C-28.135 47.765 -43.85 56.259 -58 63 C-58.66 62.34 -59.32 61.68 -60 61 C-56.636 58.185 -53.276 55.927 -49.438 53.812 C-42.874 50.046 -36.936 45.681 -31 41 C-30.343 40.499 -29.685 39.997 -29.008 39.48 C-16.646 29.597 -7.179 13.942 0 0 Z " fill="#72716F" transform="translate(652,585)"/>
<path d="M0 0 C0.66 0 1.32 0 2 0 C2.33 2.31 2.66 4.62 3 7 C3.66 7 4.32 7 5 7 C5.33 5.68 5.66 4.36 6 3 C6.147 3.825 6.294 4.65 6.445 5.5 C10.791 27.878 20.561 44.091 37 60 C36.505 60.99 36.505 60.99 36 62 C28.822 61.329 24.459 55.158 20 50 C8.275 35.306 1.21 18.859 0 0 Z " fill="#4A494A" transform="translate(440,539)"/>
<path d="M0 0 C0.33 0 0.66 0 1 0 C1.33 42.9 1.66 85.8 2 130 C5.63 130.33 9.26 130.66 13 131 C13 131.66 13 132.32 13 133 C4.09 133 -4.82 133 -14 133 C-14 132.34 -14 131.68 -14 131 C-9.38 131 -4.76 131 0 131 C0 87.77 0 44.54 0 0 Z " fill="#0B0605" transform="translate(819,548)"/>
<path d="M0 0 C2.312 1.438 2.312 1.438 4 4 C4.848 8.59 4.573 11.96 2.312 16.062 C0 18 0 18 -2.562 18.5 C-5.479 17.902 -6.236 17.372 -8 15 C-8.398 12.188 -8.398 12.188 -8.375 9 C-8.383 7.948 -8.39 6.896 -8.398 5.812 C-8 3 -8 3 -6.629 1.152 C-4.252 -0.529 -2.846 -0.486 0 0 Z " fill="#EFEFEF" transform="translate(142,643)"/>
<path d="M0 0 C0.109 2.061 0.186 4.124 0.25 6.188 C0.296 7.336 0.343 8.485 0.391 9.668 C-0.078 13.661 -1.074 15.28 -4 18 C-7.75 17.812 -7.75 17.812 -11 17 C-11 16.34 -11 15.68 -11 15 C-9.02 15 -7.04 15 -5 15 C-4.67 14.01 -4.34 13.02 -4 12 C-5.114 11.897 -6.228 11.794 -7.375 11.688 C-9.169 11.347 -9.169 11.347 -11 11 C-13.166 7.752 -13.552 6.769 -13 3 C-9.735 -2.394 -5.437 -1.069 0 0 Z " fill="#373738" transform="translate(439,203)"/>
<path d="M0 0 C2.31 0 4.62 0 7 0 C8 1 8 1 8.062 3.562 C8.042 4.367 8.021 5.171 8 6 C6.02 6 4.04 6 2 6 C2 7.32 2 8.64 2 10 C2.804 9.979 3.609 9.959 4.438 9.938 C7 10 7 10 8 11 C8.041 12.666 8.043 14.334 8 16 C7.196 16.268 6.391 16.536 5.562 16.812 C4.717 17.204 3.871 17.596 3 18 C2.67 18.99 2.34 19.98 2 21 C3.98 21 5.96 21 8 21 C8 22.65 8 24.3 8 26 C6.577 26.433 6.577 26.433 5.125 26.875 C1.948 27.768 1.948 27.768 0 30 C0 20.1 0 10.2 0 0 Z " fill="#434342" transform="translate(910,411)"/>
<path d="M0 0 C3.159 3.412 3.339 5.744 3.223 10.32 C3.203 11.57 3.183 12.82 3.162 14.108 C3.146 14.765 3.129 15.422 3.112 16.099 C3.029 19.49 2.994 22.881 2.969 26.273 C2.964 26.941 2.959 27.609 2.954 28.297 C2.94 34.588 3.486 40.725 4.377 46.946 C5.078 51.843 5.078 51.843 4 54 C3.34 54 2.68 54 2 54 C-1.281 45.057 -1.403 36.557 -1.281 27.174 C-1.25 24.741 -1.24 22.308 -1.234 19.875 C-1.225 18.307 -1.215 16.74 -1.203 15.172 C-1.199 14.455 -1.195 13.738 -1.19 13 C-1.128 8.568 -0.711 4.362 0 0 Z " fill="#3A383A" transform="translate(396,509)"/>
<path d="M0 0 C9.57 0 19.14 0 29 0 C29 0.99 29 1.98 29 3 C25.04 3 21.08 3 17 3 C17 14.88 17 26.76 17 39 C16.34 39 15.68 39 15 39 C15 27.12 15 15.24 15 3 C10.05 3 5.1 3 0 3 C0 2.01 0 1.02 0 0 Z " fill="#282427" transform="translate(804,342)"/>
<path d="M0 0 C0.66 0.99 1.32 1.98 2 3 C5.226 3.668 5.226 3.668 9.062 3.938 C17.923 4.826 26.384 6.803 35 9 C35 9.66 35 10.32 35 11 C33.756 10.723 32.512 10.446 31.23 10.16 C18.231 7.266 18.231 7.266 5 6 C4.336 5.974 3.672 5.948 2.988 5.922 C-13.484 5.348 -28.673 7.919 -44.547 12.133 C-47.691 12.922 -50.796 13.518 -54 14 C-51.331 11.331 -48.337 10.638 -44.812 9.562 C-43.748 9.234 -43.748 9.234 -42.662 8.899 C-35.529 6.761 -28.342 5.259 -21 4 C-20.255 3.867 -19.51 3.734 -18.742 3.598 C-12.549 2.652 -6.245 2.914 0 3 C0 2.01 0 1.02 0 0 Z " fill="#A7A7A7" transform="translate(538,397)"/>
<path d="M0 0 C0.66 0 1.32 0 2 0 C2 6.27 2 12.54 2 19 C-7 19 -7 19 -9.562 17.312 C-11.304 14.511 -11.647 13.237 -11 10 C-9.312 7.625 -9.312 7.625 -7 6 C-2.7 6.3 -2.7 6.3 -1 8 C-0.67 5.36 -0.34 2.72 0 0 Z " fill="#292828" transform="translate(512,196)"/>
<path d="M0 0 C0.66 0 1.32 0 2 0 C2.33 1.98 2.66 3.96 3 6 C3.33 5.67 3.66 5.34 4 5 C6.735 4.712 8.412 4.656 10.812 6.062 C12.67 9.094 12.371 11.534 12 15 C11.01 15.99 10.02 16.98 9 18 C6.03 18 3.06 18 0 18 C0 12.06 0 6.12 0 0 Z " fill="#343435" transform="translate(594,197)"/>
<path d="M0 0 C3.696 -0.416 7.271 -0.13 11 0 C11 4.29 11 8.58 11 13 C1.511 12.384 1.511 12.384 -0.805 10.645 C-2.653 8.102 -2.318 6.049 -2 3 C-1.34 2.01 -0.68 1.02 0 0 Z " fill="#414041" transform="translate(441,144)"/>
<path d="M0 0 C0.801 0.128 1.601 0.255 2.426 0.387 C4.56 0.727 4.56 0.727 6.738 1.074 C6.738 5.034 6.738 8.994 6.738 13.074 C-1.481 13.558 -1.481 13.558 -4.887 11.449 C-6.262 9.074 -6.262 9.074 -6.199 6.012 C-5.041 2.383 -4.062 0.133 0 0 Z " fill="#363536" transform="translate(630.26171875,201.92578125)"/>
<path d="M0 0 C0.33 0.66 0.66 1.32 1 2 C1.66 2.33 2.32 2.66 3 3 C3.33 3.66 3.66 4.32 4 5 C3.01 5 2.02 5 1 5 C0.754 5.839 0.508 6.678 0.254 7.543 C-1.141 11.389 -3.008 14.795 -5.062 18.312 C-7.627 22.762 -10.141 27.22 -12.488 31.789 C-12.888 32.566 -13.289 33.343 -13.701 34.143 C-14.473 35.651 -15.237 37.163 -15.992 38.679 C-18.67 43.89 -18.67 43.89 -22 45 C-21.407 41.28 -20.357 38.4 -18.594 35.078 C-18.101 34.142 -17.608 33.207 -17.101 32.242 C-16.308 30.761 -16.308 30.761 -15.5 29.25 C-14.964 28.236 -14.428 27.222 -13.876 26.177 C-12.256 23.115 -10.628 20.058 -9 17 C-8.067 15.236 -7.135 13.472 -6.203 11.707 C-4.141 7.802 -2.073 3.9 0 0 Z " fill="#3A393B" transform="translate(180,498)"/>
<path d="M0 0 C0.66 0 1.32 0 2 0 C2 1.32 2 2.64 2 4 C2.763 3.938 3.526 3.876 4.312 3.812 C7 4 7 4 8.812 5.188 C10.367 7.56 10.225 9.22 10 12 C10.66 12 11.32 12 12 12 C12.33 11.01 12.66 10.02 13 9 C13.66 9 14.32 9 15 9 C14.67 10.32 14.34 11.64 14 13 C16.31 13 18.62 13 21 13 C21 13.33 21 13.66 21 14 C18.252 14.417 15.504 14.809 12.75 15.188 C11.973 15.308 11.195 15.429 10.395 15.553 C6.978 16.005 4.7 16.285 1.469 14.969 C-0.69 12.075 -0.391 9.871 -0.25 6.312 C-0.214 5.133 -0.178 3.954 -0.141 2.738 C-0.094 1.835 -0.048 0.931 0 0 Z " fill="#6A6B6B" transform="translate(841,521)"/>
<path d="M0 0 C1 1 1 1 1.125 3.5 C1 6 1 6 0 7 C-1.666 7.041 -3.334 7.043 -5 7 C-4.67 7.99 -4.34 8.98 -4 10 C-2.35 10.33 -0.7 10.66 1 11 C1 12.65 1 14.3 1 16 C-0.65 16.33 -2.3 16.66 -4 17 C-4 17.99 -4 18.98 -4 20 C-2.35 20 -0.7 20 1 20 C1 21.98 1 23.96 1 26 C0.67 26 0.34 26 0 26 C0 24.35 0 22.7 0 21 C-3.629 20.849 -3.629 20.849 -7 22 C-7 15.07 -7 8.14 -7 1 C-4.516 -0.242 -2.748 -0.141 0 0 Z " fill="#565555" transform="translate(917,492)"/>
<path d="M0 0 C2.938 0.812 2.938 0.812 4.938 3.812 C5.262 6.927 5.397 8.975 3.875 11.75 C0.722 13.479 -1.688 12.672 -5.062 11.812 C-7.062 8.812 -7.062 8.812 -6.875 5.25 C-5.818 0.776 -4.629 -0.283 0 0 Z " fill="#3A3A3A" transform="translate(461.0625,202.1875)"/>
<path d="M0 0 C0.33 0.99 0.66 1.98 1 3 C-0.215 5.375 -0.215 5.375 -1.938 8 C-4.464 11.685 -4.464 11.685 -5 16 C-4.01 15.67 -3.02 15.34 -2 15 C-3.354 18.917 -5.083 21.64 -7.812 24.75 C-8.479 25.529 -9.145 26.307 -9.832 27.109 C-12.316 29.276 -13.829 29.407 -17 30 C-18.855 31.584 -18.855 31.584 -20.312 33.562 C-20.824 34.203 -21.336 34.844 -21.863 35.504 C-22.238 35.998 -22.614 36.491 -23 37 C-23.66 36.67 -24.32 36.34 -25 36 C-24.394 35.308 -23.788 34.616 -23.164 33.902 C-14.21 23.447 -6.314 12.262 0 0 Z " fill="#737270" transform="translate(652,585)"/>
<path d="M0 0 C-1.541 0.762 -1.541 0.762 -3.113 1.539 C-6.744 3.338 -10.363 5.16 -13.979 6.988 C-15.627 7.813 -17.286 8.615 -18.949 9.41 C-25.958 12.92 -31.743 17.639 -37.695 22.682 C-38.354 23.238 -39.013 23.794 -39.691 24.367 C-40.281 24.874 -40.871 25.38 -41.479 25.902 C-43 27 -43 27 -45 27 C-45.232 27.552 -45.464 28.103 -45.703 28.672 C-47.348 31.625 -49.432 33.791 -51.75 36.25 C-55.817 40.641 -59.553 45.109 -63 50 C-63 45.95 -60.979 43.973 -58.562 40.938 C-58.104 40.358 -57.646 39.778 -57.174 39.18 C-55.793 37.445 -54.397 35.722 -53 34 C-51.958 32.685 -51.958 32.685 -50.895 31.344 C-40.96 19.507 -27.53 11.161 -14 4 C-13.025 3.461 -12.051 2.922 -11.047 2.367 C-3.96 -1.425 -3.96 -1.425 0 0 Z " fill="#A6A5A5" transform="translate(484,412)"/>
<path d="M0 0 C2.562 0.312 2.562 0.312 4.438 1.375 C6.194 4.399 5.142 6.953 4.562 10.312 C4.748 11.22 4.934 12.127 5.125 13.062 C5.562 15.312 5.562 15.312 3.562 18.312 C0.062 18.625 0.062 18.625 -3.438 18.312 C-5.438 16.312 -5.438 16.312 -5.562 13.688 C-5.521 12.904 -5.48 12.12 -5.438 11.312 C-4.447 11.808 -4.447 11.808 -3.438 12.312 C-3.107 13.303 -2.778 14.292 -2.438 15.312 C-0.788 15.312 0.862 15.312 2.562 15.312 C2.562 13.993 2.562 12.673 2.562 11.312 C1.799 11.23 1.036 11.148 0.25 11.062 C-2.438 10.312 -2.438 10.312 -4.312 8.5 C-5.438 6.312 -5.438 6.312 -5.25 4.188 C-4.019 1.347 -3.098 0.397 0 0 Z " fill="#1E1E1F" transform="translate(542.4375,137.6875)"/>
<path d="M0 0 C0.33 0 0.66 0 1 0 C1.445 24.56 -0.481 46.559 -11 69 C-12.305 65.085 -11.095 62.707 -9.75 59 C-9.278 57.637 -8.808 56.274 -8.34 54.91 C-8.109 54.241 -7.878 53.572 -7.64 52.883 C-1.833 35.798 -1.253 17.857 0 0 Z " fill="#AFADAA" transform="translate(665,516)"/>
<path d="M0 0 C3.281 0.656 4.478 1.879 6.5 4.5 C6.5 5.49 6.5 6.48 6.5 7.5 C3.2 7.83 -0.1 8.16 -3.5 8.5 C-3.17 9.16 -2.84 9.82 -2.5 10.5 C0.14 10.17 2.78 9.84 5.5 9.5 C5.17 10.49 4.84 11.48 4.5 12.5 C1.25 13.25 1.25 13.25 -2.5 13.5 C-4.938 11.875 -4.938 11.875 -6.5 9.5 C-7 7 -7 7 -6.5 4.5 C-4.506 1.767 -3.338 0.668 0 0 Z " fill="#2F2F30" transform="translate(615.5,201.5)"/>
<path d="M0 0 C1.258 -0.041 2.516 -0.083 3.812 -0.125 C4.52 -0.148 5.228 -0.171 5.957 -0.195 C8 0 8 0 11 2 C11.33 1.67 11.66 1.34 12 1 C14.938 0.812 14.938 0.812 18 1 C20 3 20 3 20.195 5.383 C20.172 6.288 20.149 7.193 20.125 8.125 C20.107 9.035 20.089 9.945 20.07 10.883 C20.047 11.581 20.024 12.28 20 13 C19.34 13 18.68 13 18 13 C17.67 10.03 17.34 7.06 17 4 C15.35 4 13.7 4 12 4 C11.67 6.97 11.34 9.94 11 13 C10.34 13 9.68 13 9 13 C8.67 10.03 8.34 7.06 8 4 C6.35 3.67 4.7 3.34 3 3 C2.67 6.3 2.34 9.6 2 13 C1.34 13 0.68 13 0 13 C0 8.71 0 4.42 0 0 Z " fill="#2F2C2E" transform="translate(611,143)"/>
<path d="M0 0 C2 2 2 2 2 7 C-1.3 7 -4.6 7 -8 7 C-7.67 7.66 -7.34 8.32 -7 9 C-4.36 9 -1.72 9 1 9 C0.01 10.485 0.01 10.485 -1 12 C-4.5 12.375 -4.5 12.375 -8 12 C-10.313 8.531 -10.425 7.078 -10 3 C-7.719 -1.025 -4.212 -0.383 0 0 Z " fill="#1F1E20" transform="translate(494,144)"/>
<path d="M0 0 C1.423 0.165 2.846 0.33 4.312 0.5 C7.96 0.923 11.389 1.037 15.062 0.812 C16.517 0.905 16.517 0.905 18 1 C20.136 4.204 20.231 5.019 20.125 8.688 C20.107 9.496 20.089 10.304 20.07 11.137 C20.047 11.752 20.024 12.366 20 13 C19.34 13 18.68 13 18 13 C17.67 10.03 17.34 7.06 17 4 C15.35 4 13.7 4 12 4 C11.67 6.97 11.34 9.94 11 13 C10.34 13 9.68 13 9 13 C9 9.7 9 6.4 9 3 C7.02 3.33 5.04 3.66 3 4 C2.67 6.97 2.34 9.94 2 13 C1.34 13 0.68 13 0 13 C0 8.71 0 4.42 0 0 Z " fill="#424141" transform="translate(173,648)"/>
<path d="M0 0 C2.438 0.438 2.438 0.438 4.25 1.688 C5.438 3.438 5.438 3.438 5.438 7.438 C2.138 7.438 -1.163 7.438 -4.562 7.438 C-3.572 8.923 -3.572 8.923 -2.562 10.438 C0.077 10.107 2.717 9.778 5.438 9.438 C4.438 12.438 4.438 12.438 2.438 13.438 C-0.5 13.75 -0.5 13.75 -3.562 13.438 C-5.878 11.354 -6.465 9.993 -7 6.938 C-6.267 2.746 -4.184 0.714 0 0 Z " fill="#1C1B1D" transform="translate(646.5625,201.5625)"/>
<path d="M0 0 C3.257 0.418 4.634 0.634 7 3 C7.195 5.383 7.195 5.383 7.125 8.125 C7.107 9.035 7.089 9.945 7.07 10.883 C7.047 11.581 7.024 12.28 7 13 C6.34 13 5.68 13 5 13 C4.67 10.03 4.34 7.06 4 4 C2.68 3.67 1.36 3.34 0 3 C-1.583 4.583 -1.347 6.38 -1.562 8.562 C-1.646 9.389 -1.73 10.215 -1.816 11.066 C-1.877 11.704 -1.938 12.343 -2 13 C-2.66 13 -3.32 13 -4 13 C-4.33 10.03 -4.66 7.06 -5 4 C-5.99 3.67 -6.98 3.34 -8 3 C-8.99 3.495 -8.99 3.495 -10 4 C-10.467 6.126 -10.467 6.126 -10.625 8.562 C-10.7 9.389 -10.775 10.215 -10.852 11.066 C-10.901 11.704 -10.95 12.343 -11 13 C-11.66 13 -12.32 13 -13 13 C-13 9.04 -13 5.08 -13 1 C-9.908 1.033 -6.815 1.065 -3.723 1.098 C-1.086 1.313 -1.086 1.313 0 0 Z " fill="#3D3B3C" transform="translate(600,143)"/>
<path d="M0 0 C2.546 0.117 5.067 0.185 7.614 0.205 C8.756 0.22 8.756 0.22 9.921 0.235 C12.432 0.267 14.943 0.292 17.453 0.316 C19.196 0.337 20.939 0.358 22.682 0.379 C27.266 0.435 31.849 0.484 36.432 0.532 C41.111 0.582 45.79 0.638 50.469 0.693 C59.646 0.801 68.823 0.902 78 1 C78 1.33 78 1.66 78 2 C49.62 2 21.24 2 -8 2 C-6.086 -1.829 -3.488 -0.877 0 0 Z " fill="#E2E3E3" transform="translate(603,780)"/>
<path d="M0 0 C3.418 0.391 3.418 0.391 6.836 0.781 C9.346 1.035 10.974 1.007 13.438 0.375 C16 0 16 0 19 2 C19.293 4.602 19.293 4.602 19.188 7.625 C19.16 8.628 19.133 9.631 19.105 10.664 C19.071 11.435 19.036 12.206 19 13 C18.34 13 17.68 13 17 13 C16.505 8.05 16.505 8.05 16 3 C14.68 3.33 13.36 3.66 12 4 C11.67 6.97 11.34 9.94 11 13 C10.34 13 9.68 13 9 13 C8.67 9.37 8.34 5.74 8 2 C6.35 2.66 4.7 3.32 3 4 C2.67 6.97 2.34 9.94 2 13 C1.34 13 0.68 13 0 13 C0 8.71 0 4.42 0 0 Z " fill="#3B3A3A" transform="translate(565,202)"/>
<path d="M0 0 C1.236 0.017 1.236 0.017 2.496 0.035 C3.322 0.044 4.149 0.053 5 0.062 C5.638 0.074 6.276 0.086 6.934 0.098 C6.934 0.758 6.934 1.418 6.934 2.098 C4.624 2.098 2.314 2.098 -0.066 2.098 C-0.066 3.418 -0.066 4.738 -0.066 6.098 C0.882 6.221 1.831 6.345 2.809 6.473 C5.934 7.098 5.934 7.098 7.934 9.098 C7.472 15.559 7.472 15.559 4.934 18.098 C1.809 18.223 1.809 18.223 -1.066 18.098 C-1.726 16.778 -2.386 15.458 -3.066 14.098 C-2.406 14.098 -1.746 14.098 -1.066 14.098 C-1.066 14.758 -1.066 15.418 -1.066 16.098 C0.914 15.438 2.894 14.778 4.934 14.098 C4.934 12.778 4.934 11.458 4.934 10.098 C2.294 10.098 -0.346 10.098 -3.066 10.098 C-3.093 8.619 -3.113 7.139 -3.129 5.66 C-3.141 4.836 -3.152 4.013 -3.164 3.164 C-3.032 0.361 -2.803 0.132 0 0 Z " fill="#4B4A4B" transform="translate(555.06640625,137.90234375)"/>
<path d="M0 0 C18.268 1.864 36.094 15.767 50 27 C49.34 27.66 48.68 28.32 48 29 C47.559 28.55 47.118 28.1 46.664 27.637 C35.418 16.886 21.775 9.797 7.286 4.461 C6.479 4.163 5.671 3.865 4.84 3.559 C4.122 3.304 3.404 3.049 2.664 2.787 C1 2 1 2 0 0 Z " fill="#B2B2B2" transform="translate(573,407)"/>
<path d="M0 0 C1.423 0.165 2.846 0.33 4.312 0.5 C7.776 0.902 11.073 1.045 14.562 0.875 C17 1 17 1 19 3 C19.195 5.164 19.195 5.164 19.125 7.625 C19.107 8.442 19.089 9.26 19.07 10.102 C19.047 10.728 19.024 11.355 19 12 C18.67 12 18.34 12 18 12 C17.67 9.03 17.34 6.06 17 3 C15.35 3.33 13.7 3.66 12 4 C11.67 6.97 11.34 9.94 11 13 C10.34 13 9.68 13 9 13 C8.67 10.03 8.34 7.06 8 4 C6.35 4 4.7 4 3 4 C2.67 6.97 2.34 9.94 2 13 C1.34 13 0.68 13 0 13 C0 8.71 0 4.42 0 0 Z " fill="#353334" transform="translate(150,648)"/>
<path d="M0 0 C0.66 0 1.32 0 2 0 C4.667 8 7.333 16 10 24 C6.216 22.739 5.868 21.412 4 18 C3.34 17.01 2.68 16.02 2 15 C1.256 13.349 0.55 11.68 -0.125 10 C-0.655 8.701 -0.655 8.701 -1.195 7.375 C-2 5 -2 5 -2 2 C-1.34 2 -0.68 2 0 2 C0 1.34 0 0.68 0 0 Z " fill="#4A474A" transform="translate(400,561)"/>
<path d="M0 0 C7.656 -0.194 14.663 -0.348 22 2 C21.01 3.485 21.01 3.485 20 5 C18.029 5.249 18.029 5.249 15.648 5.074 C14.798 5.019 13.947 4.965 13.07 4.908 C12.181 4.835 11.291 4.763 10.375 4.688 C9.478 4.626 8.581 4.565 7.656 4.502 C5.436 4.348 3.218 4.181 1 4 C0.67 2.68 0.34 1.36 0 0 Z " fill="#3A383A" transform="translate(539,397)"/>
<path d="M0 0 C1.236 0.017 1.236 0.017 2.496 0.035 C3.322 0.044 4.149 0.053 5 0.062 C5.638 0.074 6.276 0.086 6.934 0.098 C6.934 0.758 6.934 1.418 6.934 2.098 C4.294 2.098 1.654 2.098 -1.066 2.098 C-1.066 3.748 -1.066 5.398 -1.066 7.098 C-0.138 7.036 0.79 6.974 1.746 6.91 C4.934 7.098 4.934 7.098 6.809 8.285 C8.34 10.753 8.362 12.243 7.934 15.098 C6.871 16.91 6.871 16.91 4.934 18.098 C1.246 18.285 1.246 18.285 -2.066 18.098 C-2.726 16.778 -3.386 15.458 -4.066 14.098 C-3.406 14.098 -2.746 14.098 -2.066 14.098 C-2.066 14.758 -2.066 15.418 -2.066 16.098 C0.244 15.438 2.554 14.778 4.934 14.098 C4.934 12.778 4.934 11.458 4.934 10.098 C2.294 9.768 -0.346 9.438 -3.066 9.098 C-3.164 2.945 -3.164 2.945 -3.066 1.098 C-2.066 0.098 -2.066 0.098 0 0 Z " fill="#2E2D2E" transform="translate(576.06640625,137.90234375)"/>
<path d="M0 0 C1.875 1.125 1.875 1.125 3 3 C3.068 6.137 2.791 8.117 0.656 10.5 C-3.401 14 -3.401 14 -6 14 C-6 14.66 -6 15.32 -6 16 C-3.03 16 -0.06 16 3 16 C3 16.66 3 17.32 3 18 C-0.63 18 -4.26 18 -8 18 C-7 13 -7 13 -3.938 10.5 C-0.725 8.331 -0.725 8.331 -0.625 5.188 C-0.749 4.466 -0.873 3.744 -1 3 C-2.32 3 -3.64 3 -5 3 C-5.33 3.66 -5.66 4.32 -6 5 C-6.66 5 -7.32 5 -8 5 C-7.625 3.062 -7.625 3.062 -7 1 C-4.451 -0.274 -2.826 -0.276 0 0 Z " fill="#343335" transform="translate(127,643)"/>
<path d="M0 0 C0.177 4.524 0.134 7.956 -2 12 C-2.763 12.62 -2.763 12.62 -3.542 13.253 C-5.684 15.819 -5.434 17.896 -5.512 21.199 C-5.547 22.408 -5.583 23.616 -5.619 24.861 C-5.642 26.124 -5.664 27.387 -5.688 28.688 C-5.722 29.962 -5.756 31.236 -5.791 32.549 C-5.874 35.699 -5.943 38.849 -6 42 C-6.33 42 -6.66 42 -7 42 C-7.059 37.583 -7.094 33.167 -7.125 28.75 C-7.142 27.515 -7.159 26.28 -7.176 25.008 C-7.264 8.325 -7.264 8.325 -5 2 C-1.959 0 -1.959 0 0 0 Z " fill="#575557" transform="translate(401,501)"/>
<path d="M0 0 C2.312 1.438 2.312 1.438 4 4 C4.848 8.59 4.573 11.96 2.312 16.062 C0 18 0 18 -2.562 18.5 C-5.479 17.902 -6.236 17.372 -8 15 C-8.398 12.188 -8.398 12.188 -8.375 9 C-8.383 7.948 -8.39 6.896 -8.398 5.812 C-8 3 -8 3 -6.629 1.152 C-4.252 -0.529 -2.846 -0.486 0 0 Z M-5.75 3.562 C-7.448 6.874 -7.334 9.327 -7 13 C-6.01 14.485 -6.01 14.485 -5 16 C-2.5 16.5 -2.5 16.5 0 16 C1.998 13.003 2.276 12.367 2.25 9 C2.255 8.319 2.26 7.639 2.266 6.938 C2.099 4.676 2.099 4.676 0 2 C-3.894 1.556 -3.894 1.556 -5.75 3.562 Z " fill="#222123" transform="translate(142,643)"/>
<path d="M0 0 C3.375 -0.125 3.375 -0.125 7 0 C9 2 9 2 9.266 4.969 C9.26 6.134 9.255 7.299 9.25 8.5 C9.255 9.665 9.26 10.831 9.266 12.031 C9 15 9 15 7 17 C3.5 17.25 3.5 17.25 0 17 C-0.66 16.34 -1.32 15.68 -2 15 C-1.625 12.875 -1.625 12.875 -1 11 C-0.67 12.32 -0.34 13.64 0 15 C1.98 14.67 3.96 14.34 6 14 C6 12.68 6 11.36 6 10 C4.35 9.67 2.7 9.34 1 9 C1 8.34 1 7.68 1 7 C2.65 6.67 4.3 6.34 6 6 C6 4.68 6 3.36 6 2 C4.02 2 2.04 2 0 2 C-0.33 2.99 -0.66 3.98 -1 5 C-0.67 3.35 -0.34 1.7 0 0 Z " fill="#29292A" transform="translate(524,139)"/>
<path d="M0 0 C0.33 0 0.66 0 1 0 C1 1.98 1 3.96 1 6 C-0.98 6 -2.96 6 -5 6 C-5 6.99 -5 7.98 -5 9 C-4.196 8.979 -3.391 8.959 -2.562 8.938 C0 9 0 9 1 10 C1.125 12.5 1.125 12.5 1 15 C0 16 0 16 -2.562 16.062 C-3.367 16.042 -4.171 16.021 -5 16 C-5.33 16.66 -5.66 17.32 -6 18 C-7.183 15.634 -7.134 14.132 -7.125 11.5 C-7.128 10.706 -7.13 9.912 -7.133 9.094 C-7 7 -7 7 -6 5 C-4.02 5 -2.04 5 0 5 C0 3.35 0 1.7 0 0 Z " fill="#494848" transform="translate(917,473)"/>
<path d="M0 0 C-3.622 7.733 -9.935 13.351 -17 18 C-17.66 18 -18.32 18 -19 18 C-17.673 14.962 -16.354 13.222 -13.75 11.188 C-10.511 8.537 -7.884 5.672 -5.262 2.418 C-3.578 0.526 -2.54 0 0 0 Z " fill="#3F3E3E" transform="translate(639,613)"/>
<path d="M0 0 C2.875 -0.125 2.875 -0.125 6 0 C8 2 8 2 8.125 4.438 C8.084 5.283 8.043 6.129 8 7 C8 9.84 8.403 12.237 9 15 C7.438 16.562 7.438 16.562 5 18 C1.25 17.688 1.25 17.688 -2 17 C-2.33 16.01 -2.66 15.02 -3 14 C-0.36 14.33 2.28 14.66 5 15 C5.33 13.68 5.66 12.36 6 11 C3.525 10.01 3.525 10.01 1 9 C4 7 4 7 6 7 C5.67 5.68 5.34 4.36 5 3 C2.69 3.33 0.38 3.66 -2 4 C-1.34 2.68 -0.68 1.36 0 0 Z " fill="#2B2B2C" transform="translate(106,643)"/>
<path d="M0 0 C0.779 0.005 1.558 0.009 2.361 0.014 C4.262 0.025 6.162 0.043 8.062 0.062 C8.062 1.053 8.062 2.043 8.062 3.062 C5.188 3.285 2.314 3.491 -0.562 3.688 C-1.371 3.752 -2.179 3.816 -3.012 3.883 C-7.815 4.195 -11.408 3.983 -15.938 2.062 C-15.938 1.733 -15.938 1.402 -15.938 1.062 C-10.573 0.158 -5.434 -0.061 0 0 Z " fill="#343336" transform="translate(527.9375,396.9375)"/>
<path d="M0 0 C0 0.33 0 0.66 0 1 C-1.114 1.17 -2.227 1.34 -3.375 1.516 C-12.572 2.962 -21.547 4.744 -30.547 7.133 C-33.691 7.922 -36.796 8.518 -40 9 C-37.331 6.331 -34.337 5.637 -30.812 4.562 C-30.104 4.345 -29.395 4.128 -28.664 3.904 C-9.603 -1.786 -9.603 -1.786 0 0 Z " fill="#9F9F9F" transform="translate(524,402)"/>
<path d="M0 0 C2.616 0.327 4.641 0.82 7 2 C7.125 4.375 7.125 4.375 7 7 C5 9 5 9 2.5 9.25 C0 9 0 9 -2 7 C-2.25 4.5 -2.25 4.5 -2 2 C-1.34 1.34 -0.68 0.68 0 0 Z " fill="#ECECED" transform="translate(505,204)"/>
<path d="M0 0 C0.33 0.99 0.66 1.98 1 3 C-5.037 7.375 -10.973 10.506 -18 13 C-18 12.01 -18 11.02 -18 10 C-13.665 6.307 -8.213 4.147 -3 2 C-2.01 1.34 -1.02 0.68 0 0 Z " fill="#5B5B5B" transform="translate(611,635)"/>
<path d="M0 0 C3.5 0.125 3.5 0.125 4.5 1.125 C4.688 3.562 4.688 3.562 4.5 6.125 C2.5 8.125 2.5 8.125 0 8.375 C-2.5 8.125 -2.5 8.125 -4.5 6.125 C-4.688 3.562 -4.688 3.562 -4.5 1.125 C-3.5 0.125 -3.5 0.125 0 0 Z " fill="#EDEDED" transform="translate(432.5,204.875)"/>
<path d="M0 0 C2.625 0.188 2.625 0.188 5.625 2.188 C5.625 2.847 5.625 3.507 5.625 4.188 C3.315 3.857 1.005 3.528 -1.375 3.188 C-0.529 5.459 -0.529 5.459 2.125 6.062 C4.625 7.188 4.625 7.188 5.562 9.188 C5.583 9.847 5.604 10.507 5.625 11.188 C3.625 13.188 3.625 13.188 0.5 13.312 C-0.449 13.271 -1.397 13.23 -2.375 13.188 C-3.035 11.868 -3.695 10.548 -4.375 9.188 C-1.735 9.847 0.905 10.507 3.625 11.188 C3.625 10.197 3.625 9.208 3.625 8.188 C2.862 8.249 2.099 8.311 1.312 8.375 C-1.375 8.188 -1.375 8.188 -3.25 6.938 C-4.375 5.188 -4.375 5.188 -4.125 3.062 C-3.053 0.382 -2.957 0.233 0 0 Z " fill="#282728" transform="translate(460.375,142.8125)"/>
<path d="M0 0 C0.66 0 1.32 0 2 0 C2 4.29 2 8.58 2 13 C0.577 13.062 -0.846 13.124 -2.312 13.188 C-3.513 13.24 -3.513 13.24 -4.738 13.293 C-7 13 -7 13 -8.781 11.781 C-10.357 9.479 -10.308 8.076 -10.188 5.312 C-10.16 4.504 -10.133 3.696 -10.105 2.863 C-10.071 2.248 -10.036 1.634 -10 1 C-9.34 1 -8.68 1 -8 1 C-7.67 3.97 -7.34 6.94 -7 10 C-5.334 10.043 -3.666 10.041 -2 10 C-0.417 8.417 -0.653 6.62 -0.438 4.438 C-0.354 3.611 -0.27 2.785 -0.184 1.934 C-0.123 1.296 -0.062 0.657 0 0 Z " fill="#3B3A3B" transform="translate(480,202)"/>
<path d="M0 0 C4.556 0.556 4.556 0.556 6 2 C6.188 4.438 6.188 4.438 6 7 C4 9 4 9 1.438 9.188 C-1 9 -1 9 -2 8 C-2.188 5.062 -2.188 5.062 -2 2 C-1.34 1.34 -0.68 0.68 0 0 Z " fill="#F3F3F3" transform="translate(598,204)"/>
<path d="M0 0 C4.556 0.556 4.556 0.556 6 2 C6.125 5 6.125 5 6 8 C5 9 5 9 2.562 9.188 C0 9 0 9 -2 7 C-2.25 4.5 -2.25 4.5 -2 2 C-1.34 1.34 -0.68 0.68 0 0 Z " fill="#F4F4F4" transform="translate(458,204)"/>
<path d="M0 0 C0.33 0.66 0.66 1.32 1 2 C1.66 2.33 2.32 2.66 3 3 C3.33 3.66 3.66 4.32 4 5 C3.01 5 2.02 5 1 5 C0.773 5.825 0.546 6.65 0.312 7.5 C-1.238 11.634 -3.111 15.622 -6 19 C-6.99 19 -7.98 19 -9 19 C-7.394 14.757 -5.423 10.73 -3.375 6.688 C-3.05 6.042 -2.725 5.397 -2.391 4.732 C-1.596 3.154 -0.798 1.577 0 0 Z " fill="#414140" transform="translate(180,498)"/>
<path d="M0 0 C4.556 0.556 4.556 0.556 6 2 C6.188 4.438 6.188 4.438 6 7 C4 9 4 9 1.438 9.188 C-1 9 -1 9 -2 8 C-2.188 5.062 -2.188 5.062 -2 2 C-1.34 1.34 -0.68 0.68 0 0 Z " fill="#F0F0F0" transform="translate(629,204)"/>
<path d="M0 0 C3 0.125 3 0.125 4 1.125 C4.125 4.125 4.125 4.125 4 7.125 C3 8.125 3 8.125 0 8.25 C-3 8.125 -3 8.125 -4 7.125 C-4.125 4.125 -4.125 4.125 -4 1.125 C-3 0.125 -3 0.125 0 0 Z " fill="#F5F5F5" transform="translate(445,145.875)"/>
<path d="M0 0 C0.66 0.66 1.32 1.32 2 2 C4.662 2.463 4.662 2.463 7.625 2.625 C9.129 2.737 9.129 2.737 10.664 2.852 C11.435 2.901 12.206 2.95 13 3 C13 3.66 13 4.32 13 5 C4.09 5 -4.82 5 -14 5 C-14 4.34 -14 3.68 -14 3 C-9.38 3 -4.76 3 0 3 C0 2.01 0 1.02 0 0 Z " fill="#0D0B0F" transform="translate(819,676)"/>
<path d="M0 0 C0 4.468 -2.678 6.521 -5.469 9.844 C-7.29 11.967 -7.29 11.967 -7 15 C-8.98 15.33 -10.96 15.66 -13 16 C-9.798 9.135 -6.944 3.665 0 0 Z " fill="#3F3D3E" transform="translate(424,450)"/>
<path d="M0 0 C1 1 1 1 1.125 3.5 C1 6 1 6 0 7 C-1.666 7.041 -3.334 7.043 -5 7 C-5.33 7.99 -5.66 8.98 -6 10 C-6.33 7.03 -6.66 4.06 -7 1 C-4.516 -0.242 -2.748 -0.141 0 0 Z " fill="#4F4F50" transform="translate(917,492)"/>
<path d="M0 0 C0.66 0.33 1.32 0.66 2 1 C0.68 1.99 -0.64 2.98 -2 4 C-1.34 2.68 -0.68 1.36 0 0 Z M3 2 C3.66 2.33 4.32 2.66 5 3 C3.879 4.316 2.753 5.628 1.625 6.938 C0.999 7.668 0.372 8.399 -0.273 9.152 C-2 11 -2 11 -4 12 C-4.33 11.34 -4.66 10.68 -5 10 C-6.32 10.33 -7.64 10.66 -9 11 C-7.02 8.69 -5.04 6.38 -3 4 C-2.34 4.66 -1.68 5.32 -1 6 C0.32 4.68 1.64 3.36 3 2 Z " fill="#4C4A4C" transform="translate(434,435)"/>
<path d="M0 0 C3.867 2.122 6.744 4.527 9.812 7.688 C10.603 8.496 11.393 9.304 12.207 10.137 C13.095 11.059 13.095 11.059 14 12 C13.01 13.485 13.01 13.485 12 15 C7.71 10.71 3.42 6.42 -1 2 C-0.67 1.34 -0.34 0.68 0 0 Z " fill="#4A494B" transform="translate(625,430)"/>
<path d="M0 0 C2.333 -0.042 4.667 -0.041 7 0 C8 1 8 1 8.062 3.562 C8.042 4.367 8.021 5.171 8 6 C7.051 6.103 6.102 6.206 5.125 6.312 C1.709 6.685 1.709 6.685 0 10 C0 6.7 0 3.4 0 0 Z " fill="#444444" transform="translate(910,411)"/>
<path d="M0 0 C6.27 0 12.54 0 19 0 C18.01 0.495 18.01 0.495 17 1 C17 1.66 17 2.32 17 3 C11.39 3 5.78 3 0 3 C0 2.01 0 1.02 0 0 Z " fill="#F0F0F1" transform="translate(526,411)"/>
<path d="M0 0 C0.33 0 0.66 0 1 0 C1 1.65 1 3.3 1 5 C2.98 5 4.96 5 7 5 C6.34 5.66 5.68 6.32 5 7 C4.01 7 3.02 7 2 7 C2.33 9.31 2.66 11.62 3 14 C4.32 14 5.64 14 7 14 C7.66 13.34 8.32 12.68 9 12 C8.67 13.65 8.34 15.3 8 17 C5.125 17.125 5.125 17.125 2 17 C0 15 0 15 -0.195 11.523 C-0.182 10.14 -0.158 8.758 -0.125 7.375 C-0.116 6.669 -0.107 5.962 -0.098 5.234 C-0.074 3.489 -0.038 1.745 0 0 Z " fill="#343234" transform="translate(527,198)"/>
<path d="M0 0 C1.444 0.124 2.887 0.248 4.375 0.375 C5.593 0.479 5.593 0.479 6.836 0.586 C9 1 9 1 11 3 C11.195 5.383 11.195 5.383 11.125 8.125 C11.107 9.035 11.089 9.945 11.07 10.883 C11.047 11.581 11.024 12.28 11 13 C10.67 13 10.34 13 10 13 C9.67 10.03 9.34 7.06 9 4 C7.02 4 5.04 4 3 4 C2.67 6.97 2.34 9.94 2 13 C1.34 13 0.68 13 0 13 C0 8.71 0 4.42 0 0 Z " fill="#312F30" transform="translate(486,202)"/>
<path d="M0 0 C0.66 0 1.32 0 2 0 C2.109 2.061 2.186 4.124 2.25 6.188 C2.296 7.336 2.343 8.485 2.391 9.668 C1.922 13.661 0.926 15.28 -2 18 C-5.75 17.812 -5.75 17.812 -9 17 C-9 16.34 -9 15.68 -9 15 C-8.051 15.041 -7.103 15.083 -6.125 15.125 C-2.898 15.35 -2.898 15.35 -1 13 C-0.795 10.134 -0.795 10.134 -0.938 6.938 C-0.992 4.959 -1.02 2.979 -1 1 C-0.67 0.67 -0.34 0.34 0 0 Z " fill="#29292A" transform="translate(437,203)"/>
<path d="M0 0 C2.875 -0.188 2.875 -0.188 6 0 C6.66 0.99 7.32 1.98 8 3 C5.69 2.67 3.38 2.34 1 2 C1 2.66 1 3.32 1 4 C1.969 4.248 2.939 4.495 3.938 4.75 C7 6 7 6 8 8 C8 8.66 8 9.32 8 10 C6 12 6 12 2.875 12.125 C1.926 12.084 0.978 12.042 0 12 C-0.66 10.68 -1.32 9.36 -2 8 C0.64 8.33 3.28 8.66 6 9 C3.374 7.249 0.712 5.613 -2 4 C-1.34 2.68 -0.68 1.36 0 0 Z " fill="#1F1E1F" transform="translate(472,144)"/>
<path d="M0 0 C0.66 0.33 1.32 0.66 2 1 C1.67 2.65 1.34 4.3 1 6 C2.65 6 4.3 6 6 6 C6 7.65 6 9.3 6 11 C4.02 11 2.04 11 0 11 C-0.33 11.66 -0.66 12.32 -1 13 C-1.027 11.021 -1.046 9.042 -1.062 7.062 C-1.074 5.96 -1.086 4.858 -1.098 3.723 C-1 1 -1 1 0 0 Z " fill="#343433" transform="translate(911,467)"/>
<path d="M0 0 C0.66 0.33 1.32 0.66 2 1 C2 1.66 2 2.32 2 3 C0.866 2.814 -0.269 2.629 -1.438 2.438 C-2.613 2.293 -3.789 2.149 -5 2 C-6.356 3.125 -6.356 3.125 -6.062 6.062 C-6.042 7.032 -6.021 8.001 -6 9 C-1.859 9.21 -1.859 9.21 2 8 C1.34 9.32 0.68 10.64 0 12 C-3.375 12.188 -3.375 12.188 -7 12 C-9.313 8.531 -9.425 7.078 -9 3 C-6.776 -0.706 -4.031 -0.343 0 0 Z " fill="#242425" transform="translate(417,144)"/>
<path d="M0 0 C0.33 0 0.66 0 1 0 C1.361 2.958 1.714 5.916 2.062 8.875 C2.166 9.717 2.27 10.559 2.377 11.426 C2.47 12.231 2.564 13.037 2.66 13.867 C2.749 14.611 2.838 15.354 2.93 16.121 C3 18 3 18 2 20 C1.34 20 0.68 20 0 20 C-0.361 18.189 -0.714 16.376 -1.062 14.562 C-1.26 13.553 -1.457 12.544 -1.66 11.504 C-1.828 10.264 -1.828 10.264 -2 9 C-1.67 8.67 -1.34 8.34 -1 8 C-0.769 6.653 -0.588 5.296 -0.438 3.938 C-0.293 2.638 -0.149 1.339 0 0 Z " fill="#423E41" transform="translate(398,543)"/>
<path d="M0 0 C1.32 0 2.64 0 4 0 C3.523 1.459 3.043 2.917 2.562 4.375 C2.296 5.187 2.029 5.999 1.754 6.836 C1 9 1 9 0 11 C-0.66 11 -1.32 11 -2 11 C-2.33 11.66 -2.66 12.32 -3 13 C-4.008 10.311 -4.227 8.583 -3.176 5.887 C-2.166 3.892 -1.119 1.935 0 0 Z " fill="#39393A" transform="translate(409,468)"/>
<path d="M0 0 C-0.33 1.65 -0.66 3.3 -1 5 C-5.62 5 -10.24 5 -15 5 C-15 4.34 -15 3.68 -15 3 C-13.064 2.496 -11.126 1.997 -9.188 1.5 C-8.109 1.222 -7.03 0.943 -5.918 0.656 C-3 0 -3 0 0 0 Z " fill="#EAEAEA" transform="translate(548,646)"/>
<path d="M0 0 C0.66 0.33 1.32 0.66 2 1 C2.077 5.516 2.102 9.591 1 14 C0.67 13.34 0.34 12.68 0 12 C-2.475 13.485 -2.475 13.485 -5 15 C-3.325 5.779 -3.325 5.779 0 2 C0 1.34 0 0.68 0 0 Z " fill="#4D4A4B" transform="translate(622,541)"/>
<path d="M0 0 C1.279 -0.062 2.558 -0.124 3.875 -0.188 C4.954 -0.24 4.954 -0.24 6.055 -0.293 C6.697 -0.196 7.339 -0.1 8 0 C8.66 0.99 9.32 1.98 10 3 C7.667 3 5.333 3 3 3 C2.67 6.3 2.34 9.6 2 13 C1.34 13 0.68 13 0 13 C0 8.71 0 4.42 0 0 Z " fill="#474446" transform="translate(611,143)"/>
<path d="M0 0 C0.66 0 1.32 0 2 0 C2.33 2.31 2.66 4.62 3 7 C3.66 7 4.32 7 5 7 C5.33 5.68 5.66 4.36 6 3 C6.33 6.3 6.66 9.6 7 13 C6.01 13.495 6.01 13.495 5 14 C4.01 15.485 4.01 15.485 3 17 C1.158 11.352 0.452 5.915 0 0 Z " fill="#636262" transform="translate(440,539)"/>
<path d="M0 0 C2.786 4.18 1.796 6.147 1 11 C0.01 11 -0.98 11 -2 11 C-2.66 11.99 -3.32 12.98 -4 14 C-4.178 9.452 -3.998 6.121 -2 2 C-1.34 2 -0.68 2 0 2 C0 1.34 0 0.68 0 0 Z " fill="#403F41" transform="translate(401,492)"/>
<path d="M0 0 C0.33 0.66 0.66 1.32 1 2 C2.65 2 4.3 2 6 2 C6.382 3.656 6.714 5.325 7 7 C6 8 6 8 3.438 8.062 C2.633 8.042 1.829 8.021 1 8 C-0.429 5.646 -1.087 4.52 -0.625 1.75 C-0.419 1.173 -0.212 0.595 0 0 Z " fill="#E5E5E5" transform="translate(539,146)"/>
<path d="M0 0 C0.66 0.66 1.32 1.32 2 2 C4.069 2.643 4.069 2.643 6 3 C6 4.65 6 6.3 6 8 C4.824 8.186 4.824 8.186 3.625 8.375 C0.859 8.791 0.859 8.791 -1 11 C-1.125 3.375 -1.125 3.375 0 0 Z " fill="#303031" transform="translate(911,399)"/>
<path d="M0 0 C0.33 0 0.66 0 1 0 C1 6.6 1 13.2 1 20 C0.67 20 0.34 20 0 20 C-0.33 18.02 -0.66 16.04 -1 14 C-1.33 14 -1.66 14 -2 14 C-2.054 12.23 -2.093 10.459 -2.125 8.688 C-2.148 7.701 -2.171 6.715 -2.195 5.699 C-2 3 -2 3 0 0 Z " fill="#EFF0F1" transform="translate(655,519)"/>
<path d="M0 0 C-0.99 0.66 -1.98 1.32 -3 2 C-2.34 2.66 -1.68 3.32 -1 4 C-7.625 6 -7.625 6 -11 6 C-10.67 5.01 -10.34 4.02 -10 3 C-11.32 2.34 -12.64 1.68 -14 1 C-9.237 0.047 -4.833 -0.083 0 0 Z " fill="#565459" transform="translate(519,397)"/>
<path d="M0 0 C0.33 1.32 0.66 2.64 1 4 C2.65 4 4.3 4 6 4 C6 5.65 6 7.3 6 9 C4.02 9.33 2.04 9.66 0 10 C-0.95 6.305 -0.95 3.695 0 0 Z " fill="#313131" transform="translate(911,509)"/>
<path d="M0 0 C-0.33 1.65 -0.66 3.3 -1 5 C-2.65 5 -4.3 5 -6 5 C-6.33 5.66 -6.66 6.32 -7 7 C-7.934 3.99 -8.044 3.133 -7 0 C-4.333 -1.333 -2.833 -0.671 0 0 Z " fill="#E2E3E4" transform="translate(531,141)"/>
<path d="M0 0 C1 2 2 4 3 6 C5.331 6.419 5.331 6.419 8 6 C10.336 3.601 10.336 3.601 12 1 C12.365 5.504 12.365 5.504 10.781 7.656 C8.48 9.392 7.16 9.311 4.312 9.188 C2.889 9.126 1.466 9.064 0 9 C0 6.03 0 3.06 0 0 Z " fill="#232223" transform="translate(594,206)"/>
<path d="M0 0 C5.517 1.409 9.07 4.084 13.375 7.625 C14.016 8.141 14.656 8.656 15.316 9.188 C16.884 10.451 18.443 11.724 20 13 C19.34 13.66 18.68 14.32 18 15 C17.455 14.492 16.909 13.984 16.348 13.461 C11.686 9.206 7.001 5.484 1.652 2.129 C1.107 1.756 0.562 1.384 0 1 C0 0.67 0 0.34 0 0 Z " fill="#BCBBBA" transform="translate(603,421)"/>
<path d="M0 0 C0.33 0 0.66 0 1 0 C1 1.65 1 3.3 1 5 C-2.135 6.858 -4.375 7.201 -8 7 C-8.66 5.68 -9.32 4.36 -10 3 C-6.7 3 -3.4 3 0 3 C0 2.01 0 1.02 0 0 Z " fill="#CECFD0" transform="translate(652,206)"/>
<path d="M0 0 C2.97 0 5.94 0 9 0 C8.67 0.66 8.34 1.32 8 2 C5.438 2.625 5.438 2.625 3 3 C2.67 5.97 2.34 8.94 2 12 C1.34 12 0.68 12 0 12 C0 8.04 0 4.08 0 0 Z " fill="#434041" transform="translate(548,203)"/>
<path d="M0 0 C2.64 0 5.28 0 8 0 C8.33 0.66 8.66 1.32 9 2 C6.69 2 4.38 2 2 2 C2 5.3 2 8.6 2 12 C1.34 12 0.68 12 0 12 C0 8.04 0 4.08 0 0 Z " fill="#323031" transform="translate(443,203)"/>
<path d="M0 0 C2.007 0.287 4.009 0.619 6 1 C5.67 2.65 5.34 4.3 5 6 C3.35 6 1.7 6 0 6 C-0.382 4.344 -0.714 2.675 -1 1 C-0.67 0.67 -0.34 0.34 0 0 Z " fill="#ECEDED" transform="translate(540,140)"/>
<path d="M0 0 C2.31 0 4.62 0 7 0 C7 1.65 7 3.3 7 5 C4.69 5 2.38 5 0 5 C0 3.35 0 1.7 0 0 Z " fill="#353535" transform="translate(910,442)"/>
<path d="M0 0 C0.99 0.33 1.98 0.66 3 1 C0.736 2.842 -1.535 4.674 -3.812 6.5 C-4.776 7.287 -4.776 7.287 -5.76 8.09 C-6.382 8.586 -7.004 9.082 -7.645 9.594 C-8.215 10.055 -8.786 10.515 -9.374 10.99 C-11 12 -11 12 -14 12 C-10.981 8.786 -7.797 5.91 -4.375 3.125 C-3.242 2.201 -3.242 2.201 -2.086 1.258 C-1.398 0.843 -0.709 0.428 0 0 Z " fill="#949494" transform="translate(453,426)"/>
<path d="M0 0 C2.562 0.312 2.562 0.312 4.375 1.562 C5.562 3.312 5.562 3.312 5.562 7.312 C4.903 7.312 4.242 7.312 3.562 7.312 C3.562 5.993 3.562 4.673 3.562 3.312 C1.582 3.312 -0.398 3.312 -2.438 3.312 C-2.438 4.963 -2.438 6.613 -2.438 8.312 C-3.428 7.653 -4.418 6.993 -5.438 6.312 C-4.699 2.619 -4.09 0.524 0 0 Z " fill="#343335" transform="translate(542.4375,137.6875)"/>
<path d="M0 0 C0.66 1.32 1.32 2.64 2 4 C-0.812 4.625 -0.812 4.625 -4 5 C-4.99 4.34 -5.98 3.68 -7 3 C-7.99 3.495 -7.99 3.495 -9 4 C-9.66 3.34 -10.32 2.68 -11 2 C-5.555 1.01 -5.555 1.01 0 0 Z " fill="#4F4D4D" transform="translate(517,442)"/>
<path d="M0 0 C0.66 0 1.32 0 2 0 C1.25 6.75 1.25 6.75 -1 9 C-4.125 9.125 -4.125 9.125 -7 9 C-7.66 7.68 -8.32 6.36 -9 5 C-8.34 5 -7.68 5 -7 5 C-7 5.66 -7 6.32 -7 7 C-5.02 6.34 -3.04 5.68 -1 5 C-0.67 3.35 -0.34 1.7 0 0 Z " fill="#29282A" transform="translate(561,147)"/>
<path d="M0 0 C1.236 0.017 1.236 0.017 2.496 0.035 C3.322 0.044 4.149 0.053 5 0.062 C5.638 0.074 6.276 0.086 6.934 0.098 C6.934 0.758 6.934 1.418 6.934 2.098 C4.294 2.098 1.654 2.098 -1.066 2.098 C-1.066 4.408 -1.066 6.718 -1.066 9.098 C-1.726 9.098 -2.386 9.098 -3.066 9.098 C-3.164 2.945 -3.164 2.945 -3.066 1.098 C-2.066 0.098 -2.066 0.098 0 0 Z " fill="#464445" transform="translate(576.06640625,137.90234375)"/>
<path d="M0 0 C0.99 0 1.98 0 3 0 C1.781 4.033 0.44 7.543 -2 11 C-2.66 11 -3.32 11 -4 11 C-3.393 6.872 -1.962 3.668 0 0 Z " fill="#323132" transform="translate(170,517)"/>
<path d="M0 0 C2.414 0.221 4.831 0.406 7.25 0.562 C8.513 0.646 9.777 0.73 11.078 0.816 C12.042 0.877 13.007 0.938 14 1 C14 1.33 14 1.66 14 2 C6.74 2 -0.52 2 -8 2 C-6.096 -1.809 -3.478 -0.917 0 0 Z " fill="#C4C5C6" transform="translate(603,780)"/>
<path d="M0 0 C0.289 0.619 0.577 1.238 0.875 1.875 C1.937 4.133 1.937 4.133 4 6 C6.211 6.243 6.211 6.243 8.625 6.125 C9.442 6.107 10.26 6.089 11.102 6.07 C11.728 6.047 12.355 6.024 13 6 C13 6.99 13 7.98 13 9 C4.941 9.62 4.941 9.62 1.438 7.312 C-0.233 4.625 -0.345 3.108 0 0 Z " fill="#363537" transform="translate(501,206)"/>
<path d="M0 0 C1.485 0.99 1.485 0.99 3 2 C3.188 4.625 3.188 4.625 3 7 C3.66 7 4.32 7 5 7 C5.33 6.01 5.66 5.02 6 4 C6.66 4 7.32 4 8 4 C7.67 5.32 7.34 6.64 7 8 C4.69 8 2.38 8 0 8 C0 5.36 0 2.72 0 0 Z " fill="#4F4F51" transform="translate(848,526)"/>
<path d="M0 0 C0.33 0 0.66 0 1 0 C1 1.98 1 3.96 1 6 C-0.98 6 -2.96 6 -5 6 C-5 6.99 -5 7.98 -5 9 C-3.35 9 -1.7 9 0 9 C0 9.33 0 9.66 0 10 C-1.176 10.186 -1.176 10.186 -2.375 10.375 C-5.141 10.791 -5.141 10.791 -7 13 C-7.125 7.25 -7.125 7.25 -6 5 C-4.02 5 -2.04 5 0 5 C0 3.35 0 1.7 0 0 Z " fill="#6F6E6E" transform="translate(917,473)"/>
<path d="M0 0 C0.33 0.99 0.66 1.98 1 3 C-1.97 3 -4.94 3 -8 3 C-7.67 2.01 -7.34 1.02 -7 0 C-4.333 -1.333 -2.833 -0.671 0 0 Z " fill="#CBCCCC" transform="translate(619,205)"/>
<path d="M0 0 C3.8 3.4 5.928 5.962 7 11 C6.625 13.375 6.625 13.375 6 15 C5.34 14.67 4.68 14.34 4 14 C3.856 12.928 3.711 11.855 3.562 10.75 C3 7 2.044 5.111 0 2 C0 1.34 0 0.68 0 0 Z " fill="#6E6D6D" transform="translate(414,591)"/>
<path d="M0 0 C2.97 0.495 2.97 0.495 6 1 C6 1.99 6 2.98 6 4 C3.36 4 0.72 4 -2 4 C-1.34 2.68 -0.68 1.36 0 0 Z " fill="#D3D4D5" transform="translate(644,204)"/>
<path d="M0 0 C2.64 0.33 5.28 0.66 8 1 C8 1.66 8 2.32 8 3 C7.34 3 6.68 3 6 3 C5.67 3.66 5.34 4.32 5 5 C3.02 4.34 1.04 3.68 -1 3 C-0.67 2.01 -0.34 1.02 0 0 Z " fill="#D4D5D5" transform="translate(473,145)"/>
<path d="M0 0 C0.688 1.812 0.688 1.812 1 4 C0 5.812 0 5.812 -2 7 C-5.688 6.688 -5.688 6.688 -9 6 C-9.33 4.68 -9.66 3.36 -10 2 C-8.515 2.99 -8.515 2.99 -7 4 C-4.375 4.167 -4.375 4.167 -2 4 C-1.34 2.68 -0.68 1.36 0 0 Z " fill="#252425" transform="translate(465,208)"/>
<path d="M0 0 C2.97 0 5.94 0 9 0 C9 0.99 9 1.98 9 3 C6.36 3 3.72 3 1 3 C0.67 2.01 0.34 1.02 0 0 Z " fill="#E5E5E5" transform="translate(486,151)"/>
<path d="M0 0 C2.625 0.188 2.625 0.188 5.625 2.188 C5.625 2.847 5.625 3.507 5.625 4.188 C3.315 3.857 1.005 3.528 -1.375 3.188 C-1.375 3.847 -1.375 4.507 -1.375 5.188 C-2.365 5.188 -3.355 5.188 -4.375 5.188 C-3.262 0.258 -3.262 0.258 0 0 Z " fill="#434243" transform="translate(460.375,142.8125)"/>
<path d="M0 0 C1.98 0 3.96 0 6 0 C6 1.65 6 3.3 6 5 C5.051 5.103 4.102 5.206 3.125 5.312 C-0.291 5.685 -0.291 5.685 -2 9 C-1.67 7.35 -1.34 5.7 -1 4 C-0.361 3.876 0.279 3.752 0.938 3.625 C1.958 3.316 1.958 3.316 3 3 C3.33 2.34 3.66 1.68 4 1 C2.68 0.67 1.36 0.34 0 0 Z " fill="#393939" transform="translate(912,412)"/>
<path d="M0 0 C1.485 0.99 1.485 0.99 3 2 C3.293 4.383 3.293 4.383 3.188 7.125 C3.16 8.035 3.133 8.945 3.105 9.883 C3.071 10.581 3.036 11.28 3 12 C2.34 12 1.68 12 1 12 C0.831 10.563 0.665 9.125 0.5 7.688 C0.407 6.887 0.314 6.086 0.219 5.262 C0 3 0 3 0 0 Z " fill="#2C2A2D" transform="translate(604,144)"/>
<path d="M0 0 C1.65 0.33 3.3 0.66 5 1 C5.33 1.99 5.66 2.98 6 4 C3.36 4 0.72 4 -2 4 C-1.34 2.68 -0.68 1.36 0 0 Z " fill="#CFD0D1" transform="translate(488,145)"/>
<path d="M0 0 C2.97 0.495 2.97 0.495 6 1 C5.67 2.65 5.34 4.3 5 6 C3.35 5.67 1.7 5.34 0 5 C0 3.35 0 1.7 0 0 Z " fill="#575455" transform="translate(557,444)"/>
<path d="M0 0 C-1.188 1.5 -1.188 1.5 -3 3 C-5.688 3.188 -5.688 3.188 -8 3 C-8.33 2.01 -8.66 1.02 -9 0 C-5.622 -0.845 -3.325 -1.108 0 0 Z " fill="#EBEBEC" transform="translate(621,210)"/>
<path d="M0 0 C4.474 -0.363 4.474 -0.363 6.812 1.25 C8 3 8 3 8 7 C7.01 6.67 6.02 6.34 5 6 C5.33 5.01 5.66 4.02 6 3 C3.03 2.505 3.03 2.505 0 2 C0 1.34 0 0.68 0 0 Z " fill="#2D2D2D" transform="translate(644,202)"/>
<path d="M0 0 C0.99 0.495 0.99 0.495 2 1 C2.33 1.99 2.66 2.98 3 4 C6.008 5.225 6.008 5.225 9 6 C9 6.33 9 6.66 9 7 C5.625 7.125 5.625 7.125 2 7 C0 5 0 5 -0.125 2.375 C-0.084 1.591 -0.043 0.808 0 0 Z " fill="#3F3E40" transform="translate(537,149)"/>
<path d="M0 0 C0.99 0.33 1.98 0.66 3 1 C2.651 4.255 1.979 5.019 -0.562 7.25 C-1.769 8.116 -1.769 8.116 -3 9 C-2.692 7.686 -2.378 6.374 -2.062 5.062 C-1.888 4.332 -1.714 3.601 -1.535 2.848 C-1 1 -1 1 0 0 Z " fill="#3E3D40" transform="translate(648,595)"/>
<path d="M0 0 C0.66 0 1.32 0 2 0 C2 1.98 2 3.96 2 6 C1.67 5.34 1.34 4.68 1 4 C-1.475 5.485 -1.475 5.485 -4 7 C-2.926 4.085 -2.222 2.222 0 0 Z " fill="#535151" transform="translate(621,549)"/>
<path d="M0 0 C0.99 0.33 1.98 0.66 3 1 C2.34 2.65 1.68 4.3 1 6 C0.01 5.67 -0.98 5.34 -2 5 C-2.33 4.01 -2.66 3.02 -3 2 C-2.01 1.34 -1.02 0.68 0 0 Z " fill="#838585" transform="translate(856,522)"/>
<path d="M0 0 C0 0.66 0 1.32 0 2 C-2.97 2.66 -5.94 3.32 -9 4 C-8.67 3.01 -8.34 2.02 -8 1 C-5.072 0.024 -3.044 -0.082 0 0 Z " fill="#434045" transform="translate(505,402)"/>
<path d="M0 0 C0.99 0.33 1.98 0.66 3 1 C1.938 2.562 1.938 2.562 0 4 C-3.688 3.688 -3.688 3.688 -7 3 C-7 2.34 -7 1.68 -7 1 C-5.546 1.031 -5.546 1.031 -4.062 1.062 C-1.125 1.356 -1.125 1.356 0 0 Z " fill="#3E3C3D" transform="translate(435,217)"/>
<path d="M0 0 C0 0.99 0 1.98 0 3 C-2.709 4.354 -5.009 4.065 -8 4 C-8.33 3.01 -8.66 2.02 -9 1 C-7.886 1.021 -6.773 1.041 -5.625 1.062 C-2.168 1.264 -2.168 1.264 0 0 Z " fill="#333434" transform="translate(651,211)"/>
<path d="M0 0 C0.33 0.66 0.66 1.32 1 2 C0.031 2.124 -0.939 2.247 -1.938 2.375 C-2.948 2.581 -3.959 2.788 -5 3 C-5.33 3.66 -5.66 4.32 -6 5 C-6.66 5 -7.32 5 -8 5 C-7.625 3.062 -7.625 3.062 -7 1 C-4.537 -0.231 -2.72 -0.072 0 0 Z " fill="#252425" transform="translate(127,643)"/>
<path d="M0 0 C0.33 0.99 0.66 1.98 1 3 C-0.938 5.688 -0.938 5.688 -3 8 C-4.213 5.573 -4 3.665 -4 1 C-2.68 0.67 -1.36 0.34 0 0 Z " fill="#4D4C4C" transform="translate(653,592)"/>
<path d="M0 0 C-1.485 2.475 -1.485 2.475 -3 5 C-3.66 4.67 -4.32 4.34 -5 4 C-4.67 3.34 -4.34 2.68 -4 2 C-4.99 2 -5.98 2 -7 2 C-7 1.34 -7 0.68 -7 0 C-2.25 -1.125 -2.25 -1.125 0 0 Z " fill="#424042" transform="translate(417,466)"/>
<path d="M0 0 C0.66 0.33 1.32 0.66 2 1 C0.926 3.915 0.222 5.778 -2 8 C-4.125 7.625 -4.125 7.625 -6 7 C-5.01 6.67 -4.02 6.34 -3 6 C-1.833 4.083 -1.833 4.083 -1 2 C-0.67 1.34 -0.34 0.68 0 0 Z " fill="#333233" transform="translate(417,458)"/>
<path d="M0 0 C1.32 0.66 2.64 1.32 4 2 C4 3.65 4 5.3 4 7 C2.02 7 0.04 7 -2 7 C-0.68 6.34 0.64 5.68 2 5 C1.01 3.68 0.02 2.36 -1 1 C-0.67 0.67 -0.34 0.34 0 0 Z " fill="#403F3F" transform="translate(492,144)"/>
<path d="M0 0 C-0.66 0 -1.32 0 -2 0 C-2 0.66 -2 1.32 -2 2 C-5.3 2 -8.6 2 -12 2 C-12 1.67 -12 1.34 -12 1 C-3.964 -1.277 -3.964 -1.277 0 0 Z " fill="#EAEAEB" transform="translate(545,412)"/>
<path d="M0 0 C1.207 0.031 1.207 0.031 2.438 0.062 C1.117 0.393 -0.202 0.722 -1.562 1.062 C-2.222 3.702 -2.883 6.343 -3.562 9.062 C-4.688 7.312 -4.688 7.312 -5.562 5.062 C-4.303 1.671 -3.713 0.091 0 0 Z " fill="#5D5C5D" transform="translate(630.5625,201.9375)"/>
<path d="M0 0 C2.804 -0.227 4.462 -0.341 6.875 1.188 C8 3 8 3 7.688 5.688 C7.461 6.451 7.234 7.214 7 8 C6.66 7.134 6.66 7.134 6.312 6.25 C4.67 3.434 2.605 1.919 0 0 Z " fill="#444444" transform="translate(598,202)"/>
<path d="M0 0 C0.66 0.66 1.32 1.32 2 2 C1.545 7.455 1.545 7.455 -1 10 C-2.274 7.453 -1.802 6.572 -1.062 3.875 C-0.868 3.151 -0.673 2.426 -0.473 1.68 C-0.317 1.125 -0.161 0.571 0 0 Z " fill="#9F9D9C" transform="translate(659,563)"/>
<path d="M0 0 C0.99 0.33 1.98 0.66 3 1 C-0.465 3.97 -0.465 3.97 -4 7 C-3.041 3.163 -2.764 2.403 0 0 Z " fill="#323133" transform="translate(421,504)"/>
<path d="M0 0 C0.688 1.812 0.688 1.812 1 4 C-0.438 5.75 -0.438 5.75 -2 7 C-2.99 6.67 -3.98 6.34 -5 6 C-3.35 4.02 -1.7 2.04 0 0 Z " fill="#504F50" transform="translate(424,446)"/>
<path d="M0 0 C2.31 0.33 4.62 0.66 7 1 C6.67 1.66 6.34 2.32 6 3 C4.02 3 2.04 3 0 3 C0 2.01 0 1.02 0 0 Z " fill="#5E5D5D" transform="translate(430,202)"/>
</svg>