<svg version="1.1" xmlns="http://www.w3.org/2000/svg" width="1024" height="1024">
<path d="M0 0 C337.92 0 675.84 0 1024 0 C1024 337.92 1024 675.84 1024 1024 C686.08 1024 348.16 1024 0 1024 C0 686.08 0 348.16 0 0 Z " fill="#FEFEFE" transform="translate(0,0)"/>
<path d="M0 0 C4.975 0.291 9.008 1.783 13.477 3.898 C14.638 4.433 14.638 4.433 15.823 4.979 C28.013 10.779 38.663 18.724 48.852 27.523 C49.653 28.203 50.455 28.882 51.281 29.582 C82.06 56.164 108.422 103.79 111.852 144.523 C111.763 145.972 111.649 147.419 111.516 148.863 C110.608 156.877 110.608 156.877 112.958 164.34 C115.942 167.791 119.501 170.515 123.15 173.228 C134.507 181.876 142.848 194.269 149.977 206.461 C152.99 211.512 156.193 214.982 160.738 218.672 C163.536 221.123 165.562 223.903 167.66 226.957 C168.784 228.673 168.784 228.673 170.852 229.523 C171.192 228.626 171.192 228.626 171.539 227.711 C173.293 224.787 174.72 223.885 177.852 222.523 C183.438 221.991 187.103 222.252 191.852 225.523 C195.988 229.955 197.395 233.946 199 239.785 C199.35 241.047 199.7 242.308 200.06 243.608 C200.321 244.57 200.582 245.532 200.852 246.523 C201.364 245.347 201.364 245.347 201.886 244.147 C219.02 204.95 219.02 204.95 231.137 189.809 C233.017 187.554 233.017 187.554 233.852 184.523 C233.381 184.16 232.911 183.796 232.426 183.422 C227.746 179.643 224.393 176.484 223.539 170.238 C223.045 160.254 227.572 152.931 233.852 145.523 C234.341 144.938 234.831 144.353 235.336 143.75 C244.373 133.863 259.334 125.445 272.852 124.523 C272.697 122.667 272.697 122.667 272.539 120.773 C272.595 108.953 279.94 99.732 287.723 91.559 C295.951 83.741 305.87 79.307 317.227 79.461 C318.101 79.47 318.975 79.479 319.875 79.488 C320.527 79.5 321.18 79.511 321.852 79.523 C322.093 78.851 322.334 78.178 322.582 77.484 C334.229 50.32 358.965 28.644 385.852 17.523 C391.798 15.541 398.528 15.448 404.227 18.086 C409.689 23.158 414.231 27.717 415.223 35.398 C415.407 44.097 413.387 50.639 409.852 58.523 C409.178 60.187 408.509 61.853 407.852 63.523 C408.807 62.992 409.762 62.461 410.746 61.914 C418.261 57.788 425.624 54.057 433.852 51.523 C434.958 51.169 436.064 50.814 437.203 50.449 C444.935 48.487 453.816 47.902 461.039 51.711 C465.584 54.735 468.798 58.453 470.852 63.523 C472.957 80.95 466.244 94.361 455.91 108.105 C453.936 110.62 451.914 113.081 449.852 115.523 C449.19 116.308 448.529 117.094 447.848 117.902 C443.53 122.896 438.937 127.317 433.852 131.523 C437.298 131.523 440.539 130.231 443.832 129.277 C460.38 125.146 479.183 125.742 494.852 132.523 C495.466 132.786 496.08 133.048 496.712 133.318 C505.002 136.929 512.159 141.432 518.852 147.523 C520.226 148.759 520.226 148.759 521.629 150.02 C528.462 156.478 533.406 163.257 537.852 171.523 C538.407 172.552 538.963 173.581 539.535 174.641 C549.816 195.202 551.384 220.404 544.588 242.364 C535.299 269.601 518.16 292.663 492.203 305.871 C488.41 307.629 484.962 308.733 480.852 309.523 C494.492 316.355 508.098 322.817 522.352 328.273 C550.693 339.156 577.738 352.302 591.727 380.961 C599.064 398.9 600.967 418.156 593.852 436.523 C588.739 448.592 582.378 458.516 572.852 467.523 C572.186 468.183 571.521 468.843 570.836 469.523 C559.008 480.655 543.626 486.435 528.852 492.523 C527.53 493.073 527.53 493.073 526.181 493.634 C518.872 496.628 511.518 498.662 503.852 500.523 C502.971 500.753 502.091 500.982 501.184 501.219 C491.613 503.379 481.602 502.7 471.852 502.523 C471.582 503.397 471.313 504.271 471.035 505.172 C467.18 516.088 459.924 524.495 451.852 532.523 C450.997 533.378 450.142 534.233 449.262 535.113 C437.047 546.74 422.839 555.011 407.852 562.523 C413.518 574.745 419.477 586.757 425.849 598.627 C426.556 599.964 427.216 601.327 427.84 602.704 C428.733 604.742 428.733 604.742 431.102 605.508 C432.009 605.76 432.917 606.013 433.852 606.273 C445.815 610.355 452.223 618.5 457.852 629.523 C460.628 635.704 462.568 641.738 462.852 648.523 C462.892 649.45 462.931 650.377 462.973 651.332 C463.313 667.069 458.536 680.118 448.852 692.523 C448.353 693.199 447.854 693.874 447.34 694.57 C435.719 709.206 416.572 717.707 398.605 721.145 C393.391 721.671 388.215 721.787 382.977 721.836 C381.939 721.865 380.901 721.894 379.832 721.924 C371.29 721.994 364.585 720.397 358.289 714.398 C355.852 711.523 355.852 711.523 355.852 709.523 C355.139 709.861 354.426 710.199 353.691 710.547 C340.505 716.687 323.803 721.126 309.477 715.961 C303.927 713.379 298.496 709.737 295.656 704.188 C292.982 695.336 294.577 686.507 298.852 678.523 C311.113 656.409 330.206 637.627 351.852 624.523 C352.512 624.523 353.172 624.523 353.852 624.523 C347.217 604.266 347.217 604.266 339.848 584.27 C338.852 581.523 338.852 581.523 338.852 579.523 C337.174 579.539 337.174 579.539 335.462 579.555 C331.257 579.592 327.053 579.614 322.848 579.633 C321.039 579.643 319.229 579.657 317.419 579.674 C295.25 579.883 274.999 577.356 257.91 561.867 C250.428 553.349 250.013 541.937 250.618 531.133 C253.61 497.748 267.047 465.163 283.852 436.523 C279.613 437.936 275.665 439.958 271.652 441.908 C259.864 447.518 246.175 449.02 233.617 444.829 C225.653 441.801 218.295 437.624 210.984 433.281 C208.16 431.36 208.16 431.36 205.852 431.523 C205.522 432.183 205.192 432.843 204.852 433.523 C198.062 433.153 193.583 431.119 187.852 427.523 C187.933 428.083 188.014 428.642 188.098 429.219 C188.851 438.786 184.492 446.731 178.84 454.172 C171.753 461.849 161.922 468.007 151.331 468.685 C148.442 468.73 145.554 468.759 142.664 468.773 C141.178 468.804 141.178 468.804 139.662 468.836 C133.308 468.869 126.538 468.68 120.852 465.523 C120.081 463.415 120.081 463.415 119.852 461.523 C122.011 460.213 123.281 459.454 125.832 459.766 C126.56 459.974 127.289 460.183 128.039 460.398 C140.603 463.219 154.19 462.819 165.375 455.98 C174.189 449.582 180.042 441.056 182.316 430.332 C182.552 428.737 182.712 427.13 182.852 425.523 C181.655 425.441 180.459 425.358 179.227 425.273 C161.958 423.259 145.769 415.047 130.852 406.523 C131.512 410.483 132.172 414.443 132.852 418.523 C127.187 416.258 124.614 414.048 121.852 408.523 C121.852 406.794 121.852 405.065 121.852 403.336 C121.565 399.906 121.319 398.086 119.102 395.418 C114.088 391.475 108.429 388.584 102.852 385.523 C103.276 386.619 103.7 387.715 104.137 388.844 C108.052 399.296 111.106 409.852 113.664 420.711 C114.098 422.524 114.098 422.524 114.541 424.374 C118.064 439.783 119.169 454.782 119.057 470.554 C119.039 473.219 119.037 475.884 119.037 478.549 C118.979 508.066 115.532 536.525 101.253 562.795 C98.652 567.845 98.679 570.958 99.852 576.523 C100.506 578.527 101.172 580.528 101.852 582.523 C104.874 598.889 104.744 618.622 96.852 633.523 C97.686 633.633 98.52 633.743 99.379 633.855 C114.835 636.033 128.961 640.744 139.23 653.195 C143.776 659.703 144.686 665.759 143.852 673.523 C141.697 681.898 136.06 688.538 129.109 693.469 C108.739 705.442 83.742 705.981 60.852 702.523 C59.165 701.908 57.491 701.255 55.852 700.523 C55.611 701.119 55.369 701.715 55.121 702.328 C53.599 704.961 52.087 706.013 49.539 707.648 C48.78 708.146 48.021 708.644 47.238 709.156 C43.208 711.465 40.144 712.786 35.477 712.398 C30.457 712.265 28.015 713.801 23.852 716.523 C20.128 718.305 17.262 718.755 13.148 718.684 C12.086 718.673 11.024 718.662 9.93 718.65 C8.282 718.618 8.282 718.618 6.602 718.586 C4.409 718.552 2.216 718.521 0.023 718.496 C-0.945 718.478 -1.913 718.46 -2.911 718.442 C-5.12 718.268 -5.12 718.268 -6.148 719.523 C-17.973 720.752 -29.863 718.626 -39.711 711.648 C-40.888 710.643 -42.036 709.601 -43.148 708.523 C-43.71 707.988 -44.272 707.454 -44.852 706.902 C-48.966 702.578 -50.575 698.195 -52.148 692.523 C-52.496 691.664 -52.845 690.804 -53.203 689.918 C-59.948 665.698 -50.861 632.661 -43.148 609.523 C-40.98 610.029 -39.149 610.523 -37.148 611.523 C-37.801 617.758 -39.056 623.685 -40.523 629.773 C-43.919 644.453 -46.387 658.668 -46.461 673.773 C-46.466 674.726 -46.472 675.679 -46.478 676.66 C-46.375 686.587 -44.339 695.54 -37.836 703.273 C-30.396 709.502 -23.006 711.822 -13.211 711.648 C-12.185 711.635 -12.185 711.635 -11.139 711.621 C-9.475 711.598 -7.812 711.562 -6.148 711.523 C-5.257 708.451 -4.985 705.657 -4.961 702.461 C-4.947 701.604 -4.933 700.746 -4.918 699.863 C-4.99 697.251 -4.99 697.251 -7.148 694.523 C-6.773 691.836 -6.773 691.836 -6.148 689.523 C-3.055 689.858 -1.56 690.083 0.602 692.398 C2.62 695.83 2.988 698.557 2.977 702.461 C2.979 703.316 2.982 704.17 2.984 705.051 C2.852 707.523 2.852 707.523 1.852 711.523 C5.812 711.523 9.772 711.523 13.852 711.523 C14.957 708.207 15.019 705.638 15.039 702.148 C15.053 701.027 15.067 699.905 15.082 698.75 C14.854 695.554 14.112 693.432 12.852 690.523 C13.039 687.836 13.039 687.836 13.852 685.523 C17.534 683.068 19.233 683.157 23.492 683.707 C28.361 685.392 31.603 690.027 33.852 694.523 C33.922 696.397 33.936 698.273 33.914 700.148 C33.901 701.653 33.901 701.653 33.887 703.188 C33.869 704.344 33.869 704.344 33.852 705.523 C38.867 705.194 38.867 705.194 42.852 702.523 C43.846 694.901 42.955 689.878 38.852 683.523 C39.102 681.086 39.102 681.086 39.852 679.523 C41.172 679.193 42.492 678.863 43.852 678.523 C49.26 683.66 50.993 688.163 51.852 695.523 C52.554 687.313 51.81 681.245 46.852 674.523 C42.443 669.599 37.667 665.046 32.852 660.523 C33.182 659.533 33.512 658.543 33.852 657.523 C34.512 657.193 35.172 656.863 35.852 656.523 C36.452 651.26 36.452 651.26 34.352 646.836 C33.609 646.186 33.609 646.186 32.852 645.523 C32.664 642.836 32.664 642.836 32.852 640.523 C36.102 640.586 36.102 640.586 39.852 641.523 C43.545 646.258 44.348 649.437 43.852 655.523 C47.854 653.468 50.126 651.741 51.852 647.523 C51.67 644.086 51.67 644.086 50.852 640.523 C50.518 638.19 50.185 635.857 49.852 633.523 C51.172 633.193 52.492 632.863 53.852 632.523 C58.976 637.517 59.698 641.464 59.852 648.523 C63.348 644.262 64.318 641.487 64.19 636.001 C63.582 631.549 61.514 627.825 59.539 623.836 C55.031 613.909 53.125 604.972 52.173 594.166 C51.867 590.697 51.53 587.232 51.184 583.767 C49.547 567.328 48.11 550.873 46.777 534.406 C46.645 532.767 46.645 532.767 46.509 531.095 C46.081 525.788 45.659 520.48 45.246 515.171 C44.577 506.661 43.875 498.185 42.742 489.723 C41.979 483.943 41.592 478.348 41.727 472.523 C41.736 471.737 41.745 470.951 41.754 470.141 C41.777 468.268 41.813 466.396 41.852 464.523 C43.172 464.523 44.492 464.523 45.852 464.523 C46.512 466.173 47.172 467.823 47.852 469.523 C51.213 456.947 54.42 444.336 57.528 431.694 C57.815 430.533 58.102 429.372 58.398 428.176 C58.655 427.134 58.911 426.092 59.175 425.019 C59.852 422.523 59.852 422.523 60.852 420.523 C64.727 421.398 64.727 421.398 65.852 422.523 C66.1 427.48 65.519 431.774 64.348 436.582 C64.109 437.569 64.109 437.569 63.866 438.576 C63.349 440.706 62.819 442.834 62.289 444.961 C61.927 446.441 61.566 447.921 61.205 449.401 C58.783 459.239 56.115 468.985 52.935 478.609 C49.747 488.754 50.711 498.266 52.033 508.673 C53.055 516.804 53.611 524.959 54.17 533.133 C54.479 537.627 54.802 542.12 55.125 546.613 C55.219 547.917 55.219 547.917 55.314 549.246 C55.8 555.949 56.341 562.645 56.977 569.336 C57.052 570.145 57.127 570.954 57.205 571.788 C57.586 575.707 57.586 575.707 58.402 579.551 C59.133 582.757 58.954 586.003 58.914 589.273 C58.91 589.971 58.905 590.668 58.9 591.387 C58.889 593.099 58.871 594.811 58.852 596.523 C82.101 584.445 95.475 563.745 103.762 539.359 C105.734 532.419 107.115 525.352 108.367 518.249 C108.689 516.438 109.022 514.628 109.366 512.82 C110.656 505.728 111.159 498.915 111.152 491.715 C111.157 490.627 111.161 489.54 111.165 488.42 C111.171 486.131 111.172 483.843 111.167 481.555 C111.164 478.125 111.188 474.697 111.213 471.268 C111.267 452.928 109.455 435.395 104.977 417.586 C104.715 416.529 104.454 415.473 104.185 414.385 C101.096 402.166 96.699 390.828 91.442 379.385 C88.852 373.723 88.852 373.723 88.852 371.523 C87.836 371.717 86.82 371.91 85.773 372.109 C79.329 373.33 72.889 374.539 66.414 375.586 C62.313 376.253 58.291 377.069 54.254 378.047 C51.852 378.523 51.852 378.523 48.793 378.812 C37.121 379.995 29.42 385.814 22 394.688 C9.772 410.828 -1.692 428.881 -7.148 448.523 C-7.62 449.901 -8.1 451.276 -8.586 452.648 C-9.118 454.27 -9.636 455.896 -10.148 457.523 C-10.336 458.118 -10.523 458.713 -10.715 459.325 C-14.207 470.612 -16.441 481.782 -17.792 493.514 C-18.031 495.533 -18.288 497.55 -18.563 499.564 C-21.333 519.988 -21.42 540.394 -21.398 560.961 C-21.398 561.654 -21.398 562.346 -21.397 563.06 C-21.385 582.929 -21.266 602.627 -18.461 622.336 C-18.257 624.002 -18.257 624.002 -18.049 625.701 C-16.791 634.557 -14.374 643.513 -7.702 649.845 C-5.11 651.549 -4.133 651.993 -1.117 651.809 C-0.389 651.782 0.339 651.756 1.09 651.729 C1.836 651.681 2.583 651.634 3.352 651.586 C12.494 651.057 12.494 651.057 16.852 654.523 C19.39 657.937 19.852 659.163 19.852 663.523 C15.127 662.885 15.127 662.885 13.699 661.012 C10.731 658.621 7.261 659.067 3.602 659.023 C-3.256 658.94 -8.618 658.33 -14.188 653.902 C-22.554 644.32 -25.168 633.104 -26.461 620.711 C-26.583 619.599 -26.583 619.599 -26.708 618.466 C-28.671 599.864 -28.521 581.143 -28.523 562.461 C-28.525 561.319 -28.525 561.319 -28.526 560.154 C-28.605 496.164 -28.605 496.164 -21.148 468.523 C-25.765 473.584 -30.03 478.875 -34.173 484.325 C-36.379 487.225 -38.601 490.105 -40.883 492.945 C-59.445 515.461 -59.445 515.461 -68.797 542.352 C-69.148 544.523 -69.148 544.523 -71.148 547.523 C-71.808 547.523 -72.468 547.523 -73.148 547.523 C-73.633 546.328 -74.118 545.134 -74.617 543.902 C-78.357 534.947 -81.824 527.186 -89.148 520.523 C-89.437 521.802 -89.726 523.081 -90.023 524.398 C-90.689 527.348 -90.95 528.325 -93.148 530.523 C-96.684 529.988 -96.684 529.988 -98.148 528.523 C-98.29 525.853 -98.191 523.199 -98.148 520.523 C-102.152 524.127 -103.937 527.124 -104.414 532.539 C-104.348 546.199 -101.677 557.92 -92.148 568.336 C-84.425 575.511 -74.513 579.915 -64.148 581.523 C-64.148 579.873 -64.148 578.223 -64.148 576.523 C-62.828 576.193 -61.508 575.863 -60.148 575.523 C-59.566 576.467 -58.983 577.411 -58.383 578.383 C-52.082 588.336 -44.998 596.319 -36.281 604.215 C-35.907 604.647 -35.534 605.079 -35.148 605.523 C-35.461 607.711 -35.461 607.711 -36.148 609.523 C-44.886 608.5 -51.538 600.571 -56.836 594.086 C-60.148 589.844 -60.148 589.844 -60.148 587.523 C-61.057 587.576 -61.057 587.576 -61.984 587.629 C-74.887 588.046 -86.021 583.02 -95.898 574.836 C-106.217 565.126 -112.069 551.563 -112.523 537.461 C-112.444 529.672 -110.606 522.412 -105.328 516.477 C-101.031 512.701 -98.116 511.187 -92.227 511.324 C-85.609 511.959 -82.093 516.451 -77.98 521.172 C-76.146 523.526 -74.626 525.934 -73.148 528.523 C-72.599 527.412 -72.599 527.412 -72.039 526.277 C-64.578 511.764 -54.675 498.919 -44.503 486.216 C-38.14 478.264 -31.886 470.233 -25.773 462.086 C-25.286 461.436 -24.798 460.786 -24.295 460.116 C-23.36 458.865 -22.429 457.611 -21.502 456.354 C-20.593 455.125 -19.676 453.903 -18.75 452.687 C-16.174 449.234 -14.479 446.296 -13.336 442.086 C-6.478 420.119 7.44 398.527 23.852 382.523 C22.729 382.434 22.729 382.434 21.583 382.343 C-7.254 379.945 -37.885 373.206 -58.148 350.523 C-57.961 348.211 -57.961 348.211 -57.148 346.523 C-52.485 346.999 -50.118 347.964 -46.648 351.086 C-21.041 372.541 11.796 375.171 43.852 372.523 C62.808 370.431 82.359 366.196 99.852 358.523 C101.338 357.99 101.338 357.99 102.855 357.445 C105.086 355.701 105.086 355.701 105.152 353.11 C105.163 350.561 105.066 348.063 104.852 345.523 C103.694 345.932 103.694 345.932 102.512 346.35 C99.023 347.579 95.531 348.801 92.039 350.023 C90.824 350.453 89.609 350.882 88.357 351.324 C86.612 351.933 86.612 351.933 84.832 352.555 C83.758 352.932 82.685 353.309 81.579 353.697 C78.852 354.523 78.852 354.523 75.852 354.523 C76.145 352.648 76.145 352.648 76.852 350.523 C84.061 346.16 92.184 344.018 100.184 341.523 C105.732 339.741 110.127 337.905 114.852 334.523 C115.842 334.523 116.832 334.523 117.852 334.523 C117.805 333.932 117.759 333.34 117.711 332.73 C117.521 328.567 117.426 326.213 119.664 322.586 C123.99 318.507 123.99 318.507 127.559 318.574 C129.096 318.704 129.096 318.704 130.664 318.836 C135.071 319.013 135.071 319.013 138.832 317.043 C140.368 315.196 140.368 315.196 141.57 313.25 C143.099 311.19 144.572 310.627 146.852 309.523 C149.354 305.385 150.565 301.158 151.852 296.523 C150.764 296.581 149.676 296.639 148.555 296.699 C132.916 297.287 121.968 292.267 109.852 282.523 C103.511 276.642 99.163 270.486 95.852 262.523 C95.46 261.66 95.068 260.796 94.664 259.906 C90.748 250.524 90.388 240.645 93.75 231 C97.451 222.68 101.975 216.185 109.852 211.523 C110.737 210.965 111.623 210.407 112.535 209.832 C120.256 205.413 127.034 204.413 135.852 205.523 C137.87 206.133 139.877 206.784 141.852 207.523 C132.642 191.634 120.298 178.789 105.477 168.023 C104.881 167.589 104.286 167.155 103.672 166.708 C100.636 164.561 98.519 163.44 94.852 162.523 C93.367 167.473 93.367 167.473 91.852 172.523 C91.192 172.523 90.532 172.523 89.852 172.523 C86.339 168.617 84.514 164.792 84.539 159.523 C84.618 158.188 84.713 156.854 84.852 155.523 C82.758 154.826 80.663 154.13 78.566 153.441 C76.819 152.85 75.08 152.23 73.355 151.574 C49.74 142.903 21.598 141.307 -2.934 146.867 C-6.1 147.514 -8.927 147.641 -12.148 147.523 C-11.816 142.16 -8.772 139.488 -5.211 135.836 C-4.66 135.255 -4.109 134.674 -3.541 134.076 C-1.437 131.865 0.693 129.682 2.852 127.523 C-12.28 127.937 -24.118 131.443 -37.148 139.523 C-37.632 140.062 -38.115 140.601 -38.613 141.156 C-40.997 143.279 -43.538 143.33 -46.648 143.836 C-54.074 145.298 -61.765 147.623 -66.887 153.527 C-68.306 155.596 -68.306 155.596 -69.148 158.523 C-68.594 158.538 -68.039 158.553 -67.468 158.568 C-64.944 158.642 -62.421 158.739 -59.898 158.836 C-59.026 158.858 -58.153 158.881 -57.254 158.904 C-50.82 159.174 -50.82 159.174 -47.539 160.879 C-46.148 162.523 -46.148 162.523 -46.148 165.523 C-47.407 165.503 -48.665 165.482 -49.961 165.461 C-56.94 166.258 -61.2 170.897 -66.148 175.523 C-67.059 176.342 -67.969 177.161 -68.906 178.004 C-84.967 193.126 -97.754 214.621 -100.555 236.73 C-100.004 240.516 -98.534 241.68 -95.711 244.211 C-90.315 249.296 -85.746 254.719 -81.148 260.523 C-80.241 261.619 -79.332 262.712 -78.422 263.805 C-73.462 269.828 -69.096 275.888 -65.398 282.773 C-65.051 283.418 -64.703 284.062 -64.345 284.726 C-63.542 286.29 -62.835 287.904 -62.148 289.523 C-62.478 290.183 -62.808 290.843 -63.148 291.523 C-70.797 284.072 -78.281 276.675 -84.902 268.277 C-88.054 264.413 -91.446 260.795 -94.846 257.15 C-98.073 253.691 -101.224 250.183 -104.316 246.602 C-106.209 244.455 -108.146 242.354 -110.092 240.256 C-114.925 235.04 -119.517 229.703 -123.977 224.16 C-126.086 221.599 -128.277 219.152 -130.523 216.711 C-134.54 212.305 -138.2 207.693 -141.847 202.984 C-145.638 198.113 -149.595 193.409 -153.65 188.757 C-155.83 186.249 -157.979 183.737 -160.042 181.131 C-166.398 173.126 -173.439 166.002 -180.711 158.836 C-181.923 157.634 -183.135 156.431 -184.346 155.229 C-187.275 152.321 -190.21 149.421 -193.148 146.523 C-191.225 148.934 -189.302 151.34 -187.324 153.707 C-182.067 160.067 -177.578 166.799 -173.229 173.792 C-172.238 175.38 -171.231 176.958 -170.223 178.535 C-160.608 193.764 -152.423 209.82 -144.452 225.953 C-140.881 233.149 -137.098 240.179 -133.086 247.137 C-131.409 250.068 -129.831 253.028 -128.273 256.023 C-113.895 282.504 -91.087 310.665 -61.648 320.586 C-59.916 321.05 -59.916 321.05 -58.148 321.523 C-58.148 322.183 -58.148 322.843 -58.148 323.523 C-65.266 325.896 -71.95 325.473 -78.742 322.219 C-87.054 317.823 -93.547 312.143 -100.148 305.523 C-101.049 304.682 -101.951 303.84 -102.879 302.973 C-122.934 283.902 -137.403 258.524 -149.488 233.848 C-152.029 228.761 -154.702 223.744 -157.371 218.723 C-159.663 214.396 -161.886 210.045 -164.051 205.652 C-174.974 183.732 -187.894 162.038 -205.148 144.523 C-205.899 143.678 -206.649 142.832 -207.422 141.961 C-224.09 123.757 -255.111 109.799 -279.672 108.133 C-288.294 107.801 -295.053 108.219 -301.809 113.926 C-308.354 120.503 -310.357 129.508 -310.586 138.523 C-310.069 153.762 -304.164 171.124 -295.148 183.523 C-294.762 184.104 -294.375 184.684 -293.977 185.281 C-290.96 187.331 -287.591 186.75 -284.086 186.586 C-281.418 186.476 -278.823 186.456 -276.148 186.523 C-274.148 188.523 -274.148 188.523 -274.086 191.148 C-275.375 195.244 -277.393 197.369 -280.359 200.398 C-285.354 206.331 -285.853 211.868 -285.684 219.391 C-284.991 226.732 -281.587 233.115 -278.148 239.523 C-277.822 240.142 -277.496 240.76 -277.159 241.397 C-268.331 257.823 -256.053 272.173 -243.148 285.523 C-242.517 286.195 -241.885 286.867 -241.234 287.559 C-236.289 292.704 -230.76 297.129 -225.148 301.523 C-224.613 301.946 -224.077 302.369 -223.524 302.805 C-191.551 327.84 -150.05 346.044 -109.086 345.836 C-108.36 345.834 -107.633 345.833 -106.885 345.831 C-91.3 345.774 -76.815 343.708 -61.75 339.794 C-57.789 338.784 -54.234 338.34 -50.148 338.523 C-51.72 342.139 -53.292 343.856 -56.816 345.438 C-58.316 346.025 -59.823 346.595 -61.336 347.148 C-62.047 347.435 -62.758 347.721 -63.49 348.016 C-76.597 352.991 -89.906 354.003 -103.767 353.86 C-106.213 353.836 -108.658 353.839 -111.104 353.846 C-124.753 353.823 -137.827 352.622 -150.961 348.648 C-151.811 348.405 -152.661 348.161 -153.537 347.91 C-159.567 346.14 -165.355 343.951 -171.148 341.523 C-171.858 341.23 -172.568 340.936 -173.299 340.633 C-200.979 329.035 -225.482 313.263 -247.148 292.523 C-247.646 292.053 -248.143 291.583 -248.656 291.099 C-256.659 283.504 -263.571 275.372 -270.148 266.523 C-270.584 265.943 -271.02 265.363 -271.469 264.765 C-282.194 250.425 -293.453 234.687 -293.711 216.211 C-293.733 215.1 -293.733 215.1 -293.756 213.966 C-293.63 207.249 -291.388 202.011 -286.898 197.023 C-286.321 196.528 -285.743 196.033 -285.148 195.523 C-285.729 195.498 -286.309 195.472 -286.906 195.445 C-292.385 195.048 -295.914 194.287 -300.148 190.523 C-312.859 174.34 -319.704 151.944 -318.148 131.523 C-316.427 119.907 -311.956 111.074 -302.59 103.898 C-296.718 100.591 -290.843 100.164 -284.273 100.211 C-283.03 100.219 -283.03 100.219 -281.762 100.228 C-249.501 100.849 -216.313 117.875 -192.148 138.523 C-191.13 139.359 -190.112 140.194 -189.062 141.055 C-175.159 152.561 -162.259 165.296 -151.148 179.523 C-148.808 182.389 -146.446 185.236 -144.086 188.086 C-140.361 192.599 -136.652 197.12 -133.023 201.711 C-127.916 208.136 -122.522 214.321 -117.148 220.523 C-116.405 221.382 -115.661 222.24 -114.895 223.125 C-111.606 226.903 -111.606 226.903 -108.148 230.523 C-107.88 229.626 -107.612 228.729 -107.336 227.805 C-100.1 204.763 -87.505 183.521 -69.148 167.523 C-68.488 167.523 -67.828 167.523 -67.148 167.523 C-67.148 166.863 -67.148 166.203 -67.148 165.523 C-68.293 165.338 -68.293 165.338 -69.461 165.148 C-72.148 164.523 -72.148 164.523 -75.148 162.523 C-76.365 159.501 -76.556 156.745 -76.148 153.523 C-72.039 145.82 -63.73 141.539 -56.023 138.148 C-52.299 137.339 -48.956 137.392 -45.148 137.523 C-45.134 136.822 -45.12 136.121 -45.105 135.398 C-44.706 127.453 -42.802 122.177 -37.148 116.523 C-35.828 116.523 -34.508 116.523 -33.148 116.523 C-33.665 121.52 -34.47 125.761 -36.148 130.523 C-35.242 130.053 -34.336 129.582 -33.402 129.098 C-19.293 121.85 -6.337 117.776 9.852 119.523 C11.758 120.871 11.758 120.871 12.852 122.523 C13.068 127.18 11.225 129.534 8.289 132.898 C7.155 134.095 6.02 135.291 4.852 136.523 C11.452 136.523 18.052 136.523 24.852 136.523 C20.737 118.164 15.202 100.451 9.192 82.631 C5.908 72.881 2.903 63.089 0.164 53.172 C-0.892 49.364 -2.063 45.605 -3.287 41.848 C-5.272 35.736 -7.004 29.984 -7.148 23.523 C-7.173 22.85 -7.197 22.176 -7.222 21.481 C-7.303 19.079 -7.355 16.677 -7.398 14.273 C-7.42 13.492 -7.442 12.71 -7.464 11.905 C-7.483 8.479 -7.224 5.765 -6.195 2.477 C-3.837 0.226 -3.157 0.15 0 0 Z " fill="#040404" transform="translate(365.1484375,249.4765625)"/>
<path d="M0 0 C0.889 0.5 1.779 1 2.695 1.516 C19.126 11.455 31.835 26.959 42 43 C42.705 44.106 42.705 44.106 43.424 45.235 C55.811 64.814 66.799 85.269 77 106.062 C87.315 126.753 98.711 147.509 114 165 C114.691 165.799 115.382 166.598 116.094 167.422 C118.357 169.987 120.664 172.501 123 175 C123.868 175.933 124.735 176.867 125.629 177.828 C131.576 184.02 137.54 188.77 145 193 C145.641 193.433 146.281 193.866 146.941 194.312 C153.324 198.282 160.771 197.339 168 197 C168 196.34 168 195.68 168 195 C166.845 194.856 165.69 194.711 164.5 194.562 C150.62 191.403 139.149 181.448 129 172 C128.327 171.397 127.654 170.793 126.961 170.172 C102.335 147.063 87.748 113.703 72.999 83.9 C61.65 61.105 48.475 38.648 31 20 C34.741 20 35.657 21.297 38.226 23.834 C38.772 24.391 39.319 24.947 39.883 25.52 C40.457 26.093 41.03 26.666 41.621 27.257 C42.84 28.478 44.056 29.703 45.268 30.931 C47.088 32.776 48.922 34.606 50.758 36.436 C57.626 43.321 63.957 50.373 70 58 C71.997 60.375 74.029 62.719 76.062 65.062 C80.134 69.782 84.089 74.568 87.957 79.457 C91.724 84.146 95.638 88.713 99.542 93.288 C100.993 94.992 102.437 96.703 103.879 98.414 C110.334 106.045 117.04 113.395 123.887 120.676 C127.805 124.846 131.563 129.135 135.271 133.494 C144.194 143.98 153.215 154.301 163 164 C157.903 152.754 152.017 143.371 144 134 C143.451 133.35 142.901 132.701 142.335 132.032 C135.305 123.645 135.305 123.645 127.629 115.867 C125 113 125 113 124.422 110.57 C125.59 101.868 128.583 94.035 132 86 C132.432 84.967 132.864 83.935 133.309 82.871 C140.06 68.146 151.16 55.844 163 45 C164.129 43.942 164.129 43.942 165.281 42.863 C169.568 39.214 172.687 38.39 178.312 38.789 C179.148 38.893 179.148 38.893 180 39 C178.691 35.878 178.691 35.878 176 34 C173.163 33.792 170.34 33.626 167.5 33.5 C159.27 33.135 159.27 33.135 157 32 C157 29.875 157 29.875 158 27 C164.174 20.841 172.031 17.327 180.562 16.125 C185.468 15.352 188.024 13.807 191.77 10.656 C200.646 4.065 211.532 0.854 222.438 0.375 C223.535 0.317 223.535 0.317 224.654 0.258 C226.436 0.165 228.218 0.081 230 0 C224.568 6.382 224.568 6.382 221.891 9.293 C221.184 10.063 220.478 10.832 219.75 11.625 C219.085 12.339 218.42 13.053 217.734 13.789 C215.915 16.108 214.954 18.225 214 21 C214.534 20.879 215.069 20.758 215.619 20.633 C246.73 13.829 278.293 15.251 308 27 C308.99 27.66 309.98 28.32 311 29 C311.371 30.953 311.371 30.953 311.438 33.25 C311.788 37.985 313.17 40.258 316 44 C316 44.66 316 45.32 316 46 C316.66 46 317.32 46 318 46 C318.66 42.7 319.32 39.4 320 36 C321.485 35.505 321.485 35.505 323 35 C340.261 43.877 361.221 62.61 368 81 C367.144 80.845 366.288 80.691 365.406 80.531 C352.944 78.588 344.502 80.28 334 87 C326.736 92.439 320.876 100.715 319.219 109.828 C318.145 120.494 319.523 128.24 324 138 C324.449 139.11 324.449 139.11 324.906 140.242 C329.992 151.967 340.282 158.944 351 165 C351.821 165.478 352.642 165.956 353.488 166.449 C361.412 170.35 370.401 169.337 379 169 C377.183 177.434 375.248 181.662 368.375 187.062 C365.943 188.824 365.943 188.824 364.719 191.125 C363 193 363 193 360.258 193.215 C359.224 193.123 358.19 193.032 357.125 192.938 C352.943 192.67 352.943 192.67 349.137 194.062 C347.633 195.555 347.633 195.555 346 198 C345.67 198.33 345.34 198.66 345 199 C344.974 200.437 344.954 201.875 344.938 203.312 C344.501 207.559 344.501 207.559 342.473 209.344 C340.5 210.312 340.5 210.312 338.387 211.097 C336.144 211.945 334.001 212.901 331.828 213.914 C326.285 216.398 320.57 218.083 314.754 219.799 C310.503 221.089 306.59 222.279 303 225 C302.67 225.99 302.34 226.98 302 228 C302.665 227.763 303.331 227.526 304.016 227.281 C307.051 226.203 310.088 225.133 313.125 224.062 C314.172 223.689 315.218 223.316 316.297 222.932 C317.315 222.574 318.334 222.216 319.383 221.848 C320.315 221.518 321.247 221.188 322.208 220.848 C325.126 219.962 327.985 219.438 331 219 C331.33 222.63 331.66 226.26 332 230 C319.784 236.454 307.25 239.546 293.81 242.384 C291.271 242.941 288.759 243.56 286.242 244.207 C255.786 251.585 218.428 250.078 191.184 233.758 C185.418 230.181 179.862 226.348 174.648 221.996 C172.75 220.655 172.75 220.655 169 221 C168.34 221.66 167.68 222.32 167 223 C167 222.34 167 221.68 167 221 C165.68 220.67 164.36 220.34 163 220 C163.699 219.746 164.397 219.492 165.117 219.23 C166.027 218.886 166.937 218.542 167.875 218.188 C168.78 217.851 169.685 217.515 170.617 217.168 C173.294 216.104 173.294 216.104 175 213 C169.903 213.432 165.096 214.159 160.125 215.375 C136.255 220.919 107.938 223.967 84 217 C83.035 216.72 82.071 216.44 81.077 216.152 C42.683 204.695 9.495 186.197 -19 158 C-19.6 157.419 -20.199 156.837 -20.817 156.239 C-24.66 152.477 -28.107 148.58 -31.375 144.312 C-32.078 143.403 -32.078 143.403 -32.794 142.474 C-33.747 141.238 -34.698 139.999 -35.646 138.759 C-36.879 137.157 -38.134 135.572 -39.391 133.988 C-45.524 126.129 -50.42 117.827 -55 109 C-55.553 107.957 -56.106 106.914 -56.676 105.84 C-60.393 98.059 -61.331 90.542 -60 82 C-57.931 76.801 -54.77 72.811 -51.062 68.688 C-50.382 67.801 -49.701 66.914 -49 66 C-49.31 63.367 -49.31 63.367 -50 61 C-51.074 61.093 -52.148 61.186 -53.254 61.281 C-64.255 61.959 -64.255 61.959 -68.41 59.676 C-80.039 47.041 -85.619 25.326 -85.309 8.531 C-84.384 -2.045 -80.409 -9.603 -72.367 -16.375 C-52.865 -28.969 -16.845 -10.181 0 0 Z " fill="#629DCC" transform="translate(139,376)"/>
<path d="M0 0 C13.749 28.892 23.003 59.274 23.238 91.508 C23.246 92.591 23.254 93.674 23.263 94.79 C23.277 97.078 23.287 99.365 23.295 101.653 C23.307 103.943 23.327 106.232 23.357 108.522 C23.639 130.304 21.695 151.463 14 172 C13.738 172.707 13.476 173.415 13.207 174.144 C9.726 183.407 5.854 191.953 0 200 C-0.616 200.849 -1.232 201.699 -1.867 202.574 C-8.964 211.879 -17.419 219.811 -28 225 C-28.66 225 -29.32 225 -30 225 C-30.073 223.619 -30.073 223.619 -30.148 222.211 C-30.261 220.312 -30.261 220.312 -30.375 218.375 C-30.479 216.53 -30.479 216.53 -30.586 214.648 C-30.866 210.91 -31.389 207.234 -31.945 203.527 C-33.134 195.435 -33.837 187.335 -34.5 179.188 C-34.628 177.649 -34.757 176.111 -34.886 174.573 C-35.74 164.352 -36.567 154.129 -37.354 143.903 C-37.742 138.908 -38.216 133.935 -38.782 128.957 C-39.95 118.479 -37.804 109.689 -34.809 99.748 C-33.24 94.419 -31.817 89.051 -30.375 83.688 C-30.086 82.627 -29.797 81.567 -29.5 80.474 C-25.113 65.956 -25.113 65.956 -24 51 C-25.32 50.34 -26.64 49.68 -28 49 C-28.17 49.909 -28.34 50.818 -28.516 51.754 C-31.669 68.107 -36.389 84.011 -41 100 C-41.33 100 -41.66 100 -42 100 C-42.99 96.535 -42.99 96.535 -44 93 C-44.66 93 -45.32 93 -46 93 C-46.056 95.667 -46.094 98.333 -46.125 101 C-46.15 102.087 -46.15 102.087 -46.176 103.195 C-46.219 108.316 -45.754 113.251 -45.073 118.327 C-44.09 125.908 -43.388 133.49 -42.8 141.111 C-42.626 143.357 -42.447 145.603 -42.267 147.848 C-41.756 154.223 -41.254 160.598 -40.755 166.974 C-39.436 183.811 -38.038 200.637 -36.244 217.431 C-36.079 218.986 -35.916 220.541 -35.757 222.097 C-34.49 234.393 -31.487 244.445 -26.342 255.605 C-24.123 260.725 -23.169 265.418 -24 271 C-26.927 276.463 -26.927 276.463 -30 278 C-30.039 276.896 -30.039 276.896 -30.078 275.77 C-30.425 269.503 -30.425 269.503 -32.875 263.812 C-34.915 261.676 -34.915 261.676 -38 262 C-37.783 263.516 -37.783 263.516 -37.562 265.062 C-37.377 266.362 -37.191 267.661 -37 269 C-36.752 270.196 -36.505 271.392 -36.25 272.625 C-35.9 277.354 -37.592 279.298 -40.5 282.812 C-42 284 -42 284 -45 284 C-45.121 283.397 -45.242 282.793 -45.367 282.172 C-45.619 280.973 -45.619 280.973 -45.875 279.75 C-46.119 278.567 -46.119 278.567 -46.367 277.359 C-47.009 274.966 -47.649 273.081 -49 271 C-52.546 269.701 -52.546 269.701 -56 269 C-54.73 273.415 -54.73 273.415 -52 277 C-51.699 278.875 -51.699 278.875 -51.688 281 C-51.662 282.052 -51.662 282.052 -51.637 283.125 C-51.757 283.744 -51.876 284.362 -52 285 C-52.99 285.66 -53.98 286.32 -55 287 C-53.402 291.138 -50.35 293.671 -47.188 296.625 C-41.377 302.286 -36.497 307.652 -35.715 316.066 C-35.691 318.736 -35.773 321.342 -36 324 C-36.66 324.33 -37.32 324.66 -38 325 C-38.086 324.276 -38.173 323.551 -38.262 322.805 C-39.203 316.33 -40.285 312.591 -45 308 C-46.32 308.33 -47.64 308.66 -49 309 C-48.584 311.909 -48.119 313.821 -46.48 316.293 C-44.74 319.476 -44.598 321.521 -44.625 325.125 C-44.617 326.159 -44.61 327.193 -44.602 328.258 C-45 331 -45 331 -46.293 332.855 C-49.052 334.706 -51.785 334.182 -55 334 C-55.026 333.276 -55.052 332.551 -55.078 331.805 C-55.433 325.759 -55.943 321.773 -60 317 C-60.446 316.47 -60.892 315.94 -61.352 315.395 C-63.427 313.639 -64.815 313.452 -67.5 313.188 C-68.273 313.099 -69.047 313.01 -69.844 312.918 C-72.301 312.823 -72.301 312.823 -75 315 C-74.514 318.123 -74.001 320.996 -73 324 C-72.88 326.164 -72.825 328.332 -72.812 330.5 C-72.798 331.645 -72.784 332.789 -72.77 333.969 C-73 337 -73 337 -75 340 C-77.82 340.293 -77.82 340.293 -81.125 340.188 C-82.221 340.16 -83.316 340.133 -84.445 340.105 C-85.71 340.053 -85.71 340.053 -87 340 C-86.948 338.588 -86.948 338.588 -86.895 337.148 C-86.854 335.281 -86.854 335.281 -86.812 333.375 C-86.778 332.145 -86.743 330.915 -86.707 329.648 C-87.025 325.69 -87.872 323.332 -90 320 C-92.584 319.031 -92.584 319.031 -95 319 C-94.344 322.61 -94.344 322.61 -93 326 C-92.879 327.622 -92.825 329.249 -92.812 330.875 C-92.798 331.739 -92.784 332.602 -92.77 333.492 C-93.015 336.161 -93.564 337.752 -95 340 C-100.146 342.573 -107.628 341.557 -113.059 340.281 C-122.522 337.026 -128.355 332.925 -133 324 C-144.342 300.181 -132.577 263.788 -126 240 C-126.99 239.67 -127.98 239.34 -129 239 C-128.67 238.34 -128.34 237.68 -128 237 C-127.01 237 -126.02 237 -125 237 C-125 235.35 -125 233.7 -125 232 C-125.541 231.78 -126.083 231.559 -126.641 231.332 C-129.783 229.558 -132.21 227.213 -134.75 224.688 C-135.277 224.166 -135.804 223.645 -136.347 223.108 C-140.978 218.357 -144.212 213.224 -147.379 207.422 C-147.914 206.623 -148.449 205.823 -149 205 C-149.99 205 -150.98 205 -152 205 C-152.33 206.65 -152.66 208.3 -153 210 C-163.886 209.812 -173.543 204.73 -181.438 197.438 C-191.1 187.01 -194.386 175.218 -194.289 161.176 C-193.868 156.551 -192.585 153.841 -190 150 C-189.01 149.67 -188.02 149.34 -187 149 C-186.67 151.64 -186.34 154.28 -186 157 C-184.68 157.33 -183.36 157.66 -182 158 C-179.704 154.555 -179.46 152.062 -179 148 C-169.947 154.887 -165.832 163.402 -162 174 C-162 174.66 -162 175.32 -162 176 C-158.806 173.445 -158.466 171.202 -157.812 167.25 C-153.671 148.148 -139.288 131.676 -127.023 117.055 C-122.748 111.956 -118.74 106.73 -114.867 101.32 C-113.077 99.096 -111.361 97.584 -109 96 C-109.287 97.145 -109.575 98.289 -109.871 99.469 C-111.32 106.003 -112.04 112.631 -112.805 119.271 C-113.059 121.468 -113.323 123.664 -113.588 125.859 C-113.758 127.312 -113.928 128.766 -114.098 130.219 C-114.247 131.497 -114.397 132.775 -114.551 134.092 C-115.806 146.657 -116.172 159.27 -116.238 171.891 C-116.246 172.965 -116.246 172.965 -116.253 174.062 C-116.289 179.458 -116.306 184.854 -116.312 190.25 C-116.314 191.04 -116.315 191.83 -116.316 192.644 C-116.371 220.897 -116.371 220.897 -114.375 249.062 C-114.305 249.763 -114.235 250.464 -114.163 251.186 C-113.007 262.232 -110.286 274.462 -101.875 282.312 C-96.309 286.75 -90.032 286.255 -83.199 286.342 C-77.533 286.555 -77.533 286.555 -74.609 288.996 C-74.078 289.657 -73.547 290.319 -73 291 C-70.862 291.787 -70.862 291.787 -69 292 C-71.536 285.301 -71.536 285.301 -77 281 C-78.956 281.06 -80.912 281.125 -82.866 281.219 C-94.425 281.683 -94.425 281.683 -98.25 278.688 C-104.867 270.592 -106.944 261 -108.25 250.875 C-108.41 249.779 -108.57 248.684 -108.734 247.555 C-111.388 228.447 -111.279 209.19 -111.312 189.938 C-111.315 188.898 -111.315 188.898 -111.317 187.838 C-111.352 169.852 -111.105 151.967 -109.188 134.062 C-109.105 133.284 -109.022 132.506 -108.937 131.704 C-107.23 116.185 -104.307 101.013 -100 86 C-99.665 84.76 -99.33 83.52 -98.984 82.242 C-91.423 55.304 -75.444 26.397 -52.816 9.355 C-48.754 7.4 -44.695 6.993 -40.25 6.438 C-30.396 5.139 -20.943 3.016 -11.309 0.586 C-7.439 -0.099 -3.925 -0.094 0 0 Z " fill="#619BCA" transform="translate(454,621)"/>
<path d="M0 0 C0.889 0.5 1.779 1 2.695 1.516 C19.126 11.455 31.835 26.959 42 43 C42.705 44.106 42.705 44.106 43.424 45.235 C55.811 64.814 66.799 85.269 77 106.062 C87.315 126.753 98.711 147.509 114 165 C114.691 165.799 115.382 166.598 116.094 167.422 C118.357 169.987 120.664 172.501 123 175 C123.868 175.933 124.735 176.867 125.629 177.828 C130.905 183.322 136.094 187.729 142.688 191.562 C144.797 192.874 146.342 194.168 148 196 C147.576 196.378 147.152 196.755 146.715 197.145 C142.177 201.403 138.904 205.945 135.676 211.254 C135.123 212.16 134.57 213.066 134 214 C133.331 215.636 133.331 215.636 132.648 217.305 C129.427 220.584 128.345 220.467 123.863 220.691 C121.346 220.685 118.829 220.64 116.312 220.562 C114.979 220.536 113.646 220.51 112.313 220.484 C62.955 219.128 15.446 192.086 -19 158 C-19.6 157.419 -20.199 156.837 -20.817 156.239 C-24.66 152.477 -28.107 148.58 -31.375 144.312 C-32.078 143.403 -32.078 143.403 -32.794 142.474 C-33.747 141.238 -34.698 139.999 -35.646 138.759 C-36.879 137.157 -38.134 135.572 -39.391 133.988 C-45.524 126.129 -50.42 117.827 -55 109 C-55.553 107.957 -56.106 106.914 -56.676 105.84 C-60.393 98.059 -61.331 90.542 -60 82 C-57.931 76.801 -54.77 72.811 -51.062 68.688 C-50.382 67.801 -49.701 66.914 -49 66 C-49.31 63.367 -49.31 63.367 -50 61 C-51.074 61.093 -52.148 61.186 -53.254 61.281 C-64.255 61.959 -64.255 61.959 -68.41 59.676 C-80.039 47.041 -85.619 25.326 -85.309 8.531 C-84.384 -2.045 -80.409 -9.603 -72.367 -16.375 C-52.865 -28.969 -16.845 -10.181 0 0 Z " fill="#DD8AC3" transform="translate(139,376)"/>
<path d="M0 0 C-0.021 0.694 -0.042 1.389 -0.063 2.104 C-0.867 21.222 -0.867 21.222 5.113 39.043 C8.52 46.562 4.94 56.676 2.3 63.922 C-3.006 77.698 -10.88 88.285 -21 99 C-21.663 99.727 -22.325 100.454 -23.008 101.203 C-28.393 106.896 -34.413 111.469 -40.768 116.015 C-41.444 116.504 -42.12 116.993 -42.816 117.496 C-43.736 118.149 -43.736 118.149 -44.674 118.814 C-45.112 119.206 -45.549 119.597 -46 120 C-46 120.66 -46 121.32 -46 122 C-45.212 122.268 -44.425 122.536 -43.613 122.812 C-24.994 129.511 -10.925 140.291 -1.906 158.168 C1.537 166.666 1.256 177.556 -2 186 C-2.822 186.11 -3.645 186.219 -4.492 186.332 C-21.659 188.77 -40.522 195.116 -51.801 209.258 C-54.454 211.36 -56.073 211.311 -59.378 210.947 C-60.429 210.788 -60.429 210.788 -61.5 210.625 C-62.243 210.522 -62.985 210.419 -63.75 210.313 C-80.896 207.662 -108.513 200.848 -119.883 186.648 C-120.293 185.898 -120.703 185.148 -121.125 184.375 C-122.872 181.195 -123.574 180.18 -126.992 178.734 C-131.267 176.269 -131.701 173.45 -133 168.875 C-135.734 160.338 -138.331 152.991 -146.312 148.125 C-146.989 147.777 -147.666 147.429 -148.363 147.07 C-150 146 -150 146 -151 143 C-151.363 136.932 -150.459 132.218 -148.5 126.5 C-148.262 125.773 -148.023 125.046 -147.777 124.297 C-147.195 122.528 -146.599 120.763 -146 119 C-145.348 119.046 -144.695 119.093 -144.023 119.141 C-139.771 119.316 -136.659 119.273 -132.688 117.625 C-127.897 112.946 -125.663 107.141 -123.672 100.84 C-121.893 95.411 -119.449 90.372 -116.938 85.25 C-115.949 83.215 -114.96 81.18 -113.973 79.145 C-113.227 77.61 -113.227 77.61 -112.465 76.045 C-111.072 73.151 -109.715 70.242 -108.371 67.324 C-103.608 57.006 -98.667 47.234 -92 38 C-91.576 37.411 -91.152 36.823 -90.715 36.216 C-81.097 23.048 -69.993 13.3 -56 5 C-55.282 4.568 -54.564 4.136 -53.824 3.691 C-37.653 -5.208 -17.035 -6.883 0 0 Z " fill="#FBD3BC" transform="translate(689,411)"/>
<path d="M0 0 C0.536 0.247 1.072 0.495 1.625 0.75 C1.625 1.41 1.625 2.07 1.625 2.75 C2.491 2.224 2.491 2.224 3.375 1.688 C5.625 0.75 5.625 0.75 7.562 0.875 C9.625 1.75 9.625 1.75 11.844 3.59 C17.469 7.959 24.219 10.692 30.625 13.75 C32.27 14.536 32.27 14.536 33.948 15.339 C37.008 16.796 40.072 18.246 43.14 19.688 C44.962 20.544 46.781 21.407 48.6 22.269 C54.49 25.015 60.232 27.413 66.498 29.143 C69.334 29.952 71.989 31.066 74.688 32.25 C79.606 34.356 84.526 36.135 89.625 37.75 C89.625 38.41 89.625 39.07 89.625 39.75 C89.022 39.992 88.418 40.235 87.797 40.484 C83.254 42.39 79.959 44.016 76.625 47.75 C75.965 47.75 75.305 47.75 74.625 47.75 C74.336 48.492 74.048 49.235 73.75 50 C72.625 52.75 72.625 52.75 71.578 54.5 C69.239 60.021 69.798 67.469 71.242 73.199 C74.138 79.721 79.603 84.509 86.125 87.188 C95.375 88.674 101.972 87.483 109.625 82.062 C110.615 81.299 111.605 80.536 112.625 79.75 C107.537 99.81 89.315 114.037 72.375 124.375 C64.416 129.1 56.084 133.012 47.625 136.75 C46.572 137.219 45.519 137.688 44.434 138.172 C38.041 140.889 38.041 140.889 34.625 139.75 C35.107 139.158 35.589 138.567 36.086 137.957 C36.718 137.167 37.349 136.377 38 135.562 C38.626 134.785 39.253 134.008 39.898 133.207 C43.86 127.569 44.28 122.461 43.625 115.75 C42.002 108.445 37.846 103.833 31.625 99.75 C25.171 96.703 17.824 96.525 10.988 98.52 C4.729 101.527 0.925 106.239 -1.375 112.75 C-2.619 120.62 -2.039 127.748 2.016 134.695 C6.664 140.63 13.601 142.75 20.625 144.75 C20.625 145.08 20.625 145.41 20.625 145.75 C16.69 146.572 12.751 147.381 8.812 148.188 C7.162 148.533 7.162 148.533 5.479 148.885 C-7.004 151.425 -19.18 151.986 -31.879 152.045 C-33.572 152.057 -35.266 152.077 -36.959 152.107 C-54.178 152.407 -71.717 150.679 -86.375 140.75 C-90.287 136.768 -93.325 132.841 -93.418 127.098 C-93.404 126.323 -93.39 125.548 -93.375 124.75 C-92.723 124.493 -92.07 124.237 -91.398 123.973 C-83.594 120.554 -80.124 116.249 -76.375 108.75 C-75.63 101.241 -75.565 95.356 -80.281 89.238 C-81.375 87.75 -81.375 87.75 -81.375 85.75 C-82.303 85.286 -82.303 85.286 -83.25 84.812 C-84.625 84.125 -86 83.438 -87.375 82.75 C-87.005 75.251 -85.352 68.871 -82.688 61.875 C-82.332 60.918 -81.976 59.96 -81.609 58.974 C-78.965 51.986 -76.015 45.285 -72.375 38.75 C-69.175 39.788 -66.131 40.86 -63.062 42.25 C-47.985 48.383 -31.099 45.979 -15.375 43.75 C-15.724 44.353 -16.074 44.957 -16.434 45.578 C-16.889 46.377 -17.344 47.177 -17.812 48 C-18.265 48.789 -18.717 49.578 -19.184 50.391 C-21.81 55.592 -22.106 61.017 -21.375 66.75 C-19.122 73.155 -15.411 77.641 -9.375 80.75 C-3.737 82.731 3.366 82.56 8.938 80.562 C14.623 76.728 18.48 72.276 20.625 65.75 C21.763 59.218 20.624 54.302 17.102 48.723 C12.656 42.783 7.534 40.638 0.625 38.75 C3.972 35.281 7.565 32.426 11.406 29.531 C13.683 27.704 15.737 25.982 17.625 23.75 C17.625 22.43 17.625 21.11 17.625 19.75 C13.831 21.131 10.674 22.897 7.312 25.125 C-10.988 36.903 -32.263 42.998 -54.03 39.299 C-58.968 38.193 -63.767 36.85 -68.375 34.75 C-69.375 31.75 -69.375 31.75 -67.793 28.352 C-67.06 27.02 -66.316 25.695 -65.562 24.375 C-64.824 23.056 -64.089 21.736 -63.355 20.414 C-63.005 19.785 -62.654 19.156 -62.292 18.508 C-61.262 16.621 -61.262 16.621 -60.332 13.973 C-59.228 11.408 -58.05 10.282 -55.875 8.562 C-53.935 7.005 -52.138 5.513 -50.375 3.75 C-49.939 4.148 -49.504 4.547 -49.055 4.957 C-43.315 10.063 -38.755 13.16 -30.907 13.053 C-26.284 12.5 -22.343 10.507 -18.188 8.5 C-17.324 8.104 -16.461 7.709 -15.572 7.301 C-11.843 5.56 -8.292 3.792 -4.91 1.438 C-2.375 -0.25 -2.375 -0.25 0 0 Z " fill="#7DBBBD" transform="translate(717.375,669.25)"/>
<path d="M0 0 C0.879 0.014 1.759 0.027 2.665 0.041 C9.776 0.266 15.706 1.48 22.188 4.5 C22.79 4.774 23.392 5.048 24.013 5.33 C38.244 11.858 50.788 19.699 62.188 30.5 C63.537 31.651 64.891 32.797 66.25 33.938 C74.522 41.163 81.355 49.944 88.188 58.5 C88.779 59.223 89.371 59.946 89.98 60.691 C94.995 67.018 97.889 73.127 97.523 81.344 C96.496 87.94 91.962 92.289 87.078 96.445 C78.787 102.339 68.993 106.824 59.188 109.5 C58.2 109.845 57.213 110.191 56.195 110.547 C39.935 115.158 21.173 111.646 6.438 104.312 C0.235 100.789 -4.752 96.489 -9.812 91.5 C-10.731 90.69 -10.731 90.69 -11.668 89.863 C-23.368 79.235 -33.657 60.041 -35.014 44.14 C-35.115 41.61 -35.135 39.094 -35.125 36.562 C-35.141 35.72 -35.157 34.878 -35.174 34.01 C-35.179 27.044 -34.26 20.367 -29.625 14.938 C-28.697 14.133 -27.769 13.329 -26.812 12.5 C-26.223 11.861 -25.634 11.221 -25.027 10.562 C-24.379 9.861 -23.731 9.16 -23.062 8.438 C-22.47 7.787 -21.877 7.136 -21.266 6.465 C-14.776 1.267 -8.168 -0.184 0 0 Z " fill="#BDE3EE" transform="translate(375.8125,462.5)"/>
<path d="M0 0 C0.643 0.53 1.286 1.06 1.949 1.605 C2.605 2.128 3.261 2.65 3.938 3.188 C6.891 5.978 7.617 7.587 8.012 11.668 C7.527 28.347 -2.679 43.747 -13.363 55.793 C-13.937 56.498 -14.511 57.203 -15.102 57.93 C-19.857 63.707 -25.493 68.191 -31.363 72.793 C-32.152 73.436 -32.941 74.079 -33.754 74.742 C-37.405 77.685 -40.689 79.975 -44.988 81.855 C-50.861 85.045 -52.798 90.66 -55.353 96.511 C-57.324 100.962 -59.449 105.34 -61.551 109.73 C-62.014 110.702 -62.478 111.673 -62.956 112.674 C-66.421 119.904 -69.963 127.091 -73.613 134.23 C-74.084 135.171 -74.555 136.111 -75.04 137.08 C-79.737 146.159 -85.44 154.157 -95.363 157.793 C-100.46 158.852 -104.163 158.232 -108.613 155.543 C-109.875 154.643 -111.127 153.728 -112.363 152.793 C-113.25 152.215 -114.137 151.638 -115.051 151.043 C-118.44 147.745 -120.29 144.006 -122.363 139.793 C-122.959 138.768 -122.959 138.768 -123.566 137.723 C-128.362 128.301 -127.96 115.188 -125.445 105.117 C-124.269 102.183 -122.949 99.525 -121.363 96.793 C-120.607 95.424 -120.607 95.424 -119.836 94.027 C-116.505 88.229 -113.13 82.445 -107.363 78.793 C-106.703 78.793 -106.043 78.793 -105.363 78.793 C-105.363 80.113 -105.363 81.433 -105.363 82.793 C-102.365 81.211 -100.468 79.927 -98.363 77.23 C-95.689 73.972 -93.379 73.023 -89.177 72.544 C-86.635 72.373 -84.097 72.259 -81.551 72.168 C-80.667 72.129 -79.783 72.091 -78.873 72.051 C-76.703 71.957 -74.533 71.874 -72.363 71.793 C-72.363 70.473 -72.363 69.153 -72.363 67.793 C-78.75 64.884 -85.576 64.633 -92.297 66.691 C-94.015 67.395 -95.719 68.134 -97.402 68.918 C-99.363 69.793 -99.363 69.793 -101.363 69.793 C-101.837 64.061 -101.545 59.525 -98.243 54.685 C-95.364 51.384 -92.191 48.399 -88.988 45.418 C-87.842 44.317 -86.697 43.214 -85.552 42.111 C-71.821 29.019 -57.063 18.485 -40.214 9.764 C-38.684 8.961 -37.18 8.11 -35.684 7.246 C-30.282 4.218 -24.623 2.588 -18.676 0.98 C-17.867 0.761 -17.058 0.541 -16.225 0.315 C-4.986 -2.546 -4.986 -2.546 0 0 Z " fill="#FCC445" transform="translate(821.36328125,307.20703125)"/>
<path d="M0 0 C5.253 2.444 9.947 5.465 12.211 10.914 C14.898 19.481 16.976 28.071 18.75 36.875 C19.066 38.442 19.066 38.442 19.388 40.042 C21.36 50.214 22.163 60.153 22.238 70.508 C22.246 71.591 22.254 72.674 22.263 73.79 C22.277 76.078 22.287 78.365 22.295 80.653 C22.307 82.943 22.327 85.232 22.357 87.522 C22.639 109.304 20.695 130.463 13 151 C12.738 151.707 12.476 152.415 12.207 153.144 C8.726 162.407 4.854 170.953 -1 179 C-1.616 179.849 -2.232 180.699 -2.867 181.574 C-9.964 190.879 -18.419 198.811 -29 204 C-29.66 204 -30.32 204 -31 204 C-31.049 203.08 -31.098 202.159 -31.148 201.211 C-31.223 199.945 -31.298 198.679 -31.375 197.375 C-31.445 196.145 -31.514 194.915 -31.586 193.648 C-31.866 189.91 -32.389 186.234 -32.945 182.527 C-34.134 174.435 -34.837 166.335 -35.5 158.188 C-35.628 156.649 -35.757 155.111 -35.886 153.573 C-36.74 143.352 -37.567 133.129 -38.354 122.903 C-38.742 117.908 -39.216 112.935 -39.782 107.957 C-40.953 97.458 -38.794 88.647 -35.796 78.686 C-34.308 73.666 -32.933 68.615 -31.562 63.562 C-31.266 62.473 -30.97 61.383 -30.665 60.261 C-28.19 51.014 -26.075 41.705 -24.129 32.334 C-19.231 9.234 -19.231 9.234 -10.047 1.316 C-6.808 -0.766 -3.66 -0.721 0 0 Z " fill="#BBE0EC" transform="translate(455,642)"/>
<path d="M0 0 C6.038 3.421 9.765 9.013 13 15 C13.401 14.492 13.802 13.984 14.215 13.461 C19.112 7.532 25.085 1.319 33 0 C41.977 -0.732 49.792 -1.032 57 5 C64.252 11.473 69.019 19.306 70.441 29.012 C70.981 42.331 64.994 54.819 56.594 64.883 C46.468 75.574 34.923 82.33 21 87 C19.416 87.588 19.416 87.588 17.801 88.188 C6.637 92.221 6.637 92.221 1 91 C-2.274 88.448 -4.572 85.345 -7 82 C-7.608 81.164 -7.608 81.164 -8.229 80.311 C-21.219 62.229 -28.284 44.292 -25.312 21.75 C-23.591 12.688 -19.534 6.314 -12 1 C-8.195 -0.902 -4.125 -0.725 0 0 Z " fill="#FC77AE" transform="translate(542,192)"/>
<path d="M0 0 C5.164 1.425 7.098 4.336 9.631 8.756 C12.257 13.823 13.899 18.858 15.312 24.375 C16.608 29.818 16.608 29.818 18.625 35 C22.09 34.505 22.09 34.505 25.625 34 C27.875 39.186 29.673 43.554 30.062 49.25 C30.434 53.766 31.195 57.71 32.625 62 C33.285 62 33.945 62 34.625 62 C34.026 65.595 33.049 68.56 31.48 71.844 C31.053 72.755 30.625 73.665 30.184 74.604 C29.731 75.56 29.279 76.515 28.812 77.5 C25.451 84.725 22.434 91.74 20.344 99.441 C19.61 102.052 18.673 104.501 17.625 107 C11.534 107.497 6.148 105.708 0.375 104 C-0.688 103.687 -1.75 103.374 -2.845 103.051 C-16.443 98.915 -30.773 93.417 -42.375 85 C-42.375 84.34 -42.375 83.68 -42.375 83 C-41.715 83 -41.055 83 -40.375 83 C-40.375 82.01 -40.375 81.02 -40.375 80 C-40.943 79.853 -41.512 79.706 -42.098 79.555 C-47.984 77.845 -52.167 75.496 -56.375 71 C-57.489 68.771 -57.54 67.469 -57.562 65 C-57.577 64.299 -57.591 63.597 -57.605 62.875 C-57.375 61 -57.375 61 -55.375 59 C-51.094 59.294 -48.307 61.128 -44.812 63.5 C-40.408 66.492 -40.408 66.492 -35.375 68 C-36.18 63.604 -37.577 61.535 -41.113 59 C-42.628 57.984 -44.153 56.985 -45.688 56 C-58.062 47.939 -58.062 47.939 -60.375 41 C-60.77 37.94 -60.892 35.049 -60.375 32 C-57.875 29.438 -57.875 29.438 -55.375 28 C-51.87 29.298 -50.275 31.335 -47.996 34.203 C-44.612 37.954 -40.625 41.277 -36.375 44 C-35.055 44 -33.735 44 -32.375 44 C-32.873 39.818 -35.109 38.083 -38.125 35.312 C-43.485 30.099 -47.662 25.198 -48.938 17.688 C-48.211 14.215 -47.3 13.001 -44.375 11 C-40.905 10.59 -39.116 10.417 -36.32 12.617 C-35.72 13.362 -35.119 14.107 -34.5 14.875 C-33.826 15.688 -33.152 16.502 -32.457 17.34 C-31.05 19.138 -29.652 20.943 -28.262 22.754 C-27.235 24.082 -27.235 24.082 -26.188 25.438 C-25.575 26.261 -24.963 27.085 -24.332 27.934 C-22.152 30.235 -20.37 31.053 -17.375 32 C-19.301 25.881 -22.059 21.271 -25.852 16.102 C-28.399 12.587 -28.82 10.359 -28.375 6 C-26.812 4.062 -26.812 4.062 -24.375 3 C-20.749 2.795 -18.461 3.131 -15.578 5.438 C-10.895 10.411 -4.375 18.939 -4.375 26 C-3.055 25.67 -1.735 25.34 -0.375 25 C-0.661 18.714 -3.156 14.225 -6.195 8.77 C-7.375 6 -7.375 6 -7.242 3.762 C-5.559 0.343 -3.607 0 0 0 Z " fill="#609AC8" transform="translate(537.375,563)"/>
<path d="M0 0 C4.339 2.721 7.844 6.137 11.25 9.938 C13.952 7.316 16.292 4.486 18.652 1.559 C21.43 -1.26 23.713 -2.003 27.625 -2.438 C33.286 -1.852 36.087 0.72 39.938 4.75 C47.491 15.162 47.473 28.572 45.859 40.93 C42.297 55.957 33.071 70.116 22.25 80.938 C5.879 80.342 -10.829 70.02 -22.191 58.703 C-31.76 48.361 -37.285 37.866 -37.152 23.684 C-36.301 15.762 -32.607 9.274 -26.812 3.875 C-18.801 -2.323 -9.37 -4.845 0 0 Z " fill="#FC77AE" transform="translate(448.75,115.0625)"/>
<path d="M0 0 C1.447 2.706 2.359 5.226 3.125 8.188 C5.629 15.748 10.883 21.197 17.875 24.875 C19.568 25.619 21.277 26.328 23 27 C24.172 27.478 24.172 27.478 25.367 27.965 C32.429 30.477 39.569 30.537 47 30 C47.495 29.505 47.495 29.505 48 29 C49.677 28.961 51.355 28.988 53.031 29.043 C54.59 29.075 54.59 29.075 56.18 29.107 C58.362 29.16 60.545 29.225 62.727 29.303 C69.809 29.42 74.806 28.436 81 25 C84.134 23.508 85.571 22.965 89.062 23.25 C95.046 22.87 100.007 20.247 105 17 C105.634 16.092 106.268 15.185 106.922 14.25 C107.608 13.508 108.293 12.765 109 12 C112.16 11.949 112.16 11.949 116.062 12.688 C137.158 15.946 159.919 16.226 178.848 5.18 C184.847 2.102 189.54 3.205 195.875 4.812 C196.928 5.056 197.98 5.299 199.065 5.55 C207.227 7.544 215.898 9.898 222 16 C222.625 18.312 222.625 18.312 222 21 C207.547 35.072 176.594 34.01 157.75 35.688 C157.076 35.748 156.401 35.809 155.706 35.872 C132.917 37.892 110.138 38.188 87.274 38.185 C84.033 38.185 80.792 38.192 77.551 38.206 C59.831 38.28 42.172 38.079 24.477 37.082 C23.372 37.02 23.372 37.02 22.245 36.958 C-40.196 33.39 -40.196 33.39 -52 22 C-53.25 19.438 -53.25 19.438 -53 17 C-48.992 10.988 -40.539 8.976 -33.863 7.551 C-31.682 7.127 -29.498 6.714 -27.312 6.312 C-26.211 6.1 -25.109 5.888 -23.975 5.67 C-9.283 2.859 -9.283 2.859 -4.125 2.938 C-2.953 2.951 -2.953 2.951 -1.758 2.965 C-1.178 2.976 -0.598 2.988 0 3 C0 2.01 0 1.02 0 0 Z " fill="#949595" transform="translate(312,938)"/>
<path d="M0 0 C7.225 10.837 4.983 30.756 2.754 43.008 C0.724 51.064 -2.5 58.044 -7.766 64.477 C-9.088 65.997 -9.088 65.997 -10 68 C-9.383 67.711 -8.765 67.423 -8.129 67.125 C3.078 62.212 12.307 63.716 23.637 67.996 C32.341 71.945 40.257 78.033 44 87 C43.688 89.375 43.688 89.375 43 91 C42.608 90.34 42.216 89.68 41.812 89 C40.146 86.708 40.146 86.708 37.312 86.75 C36.549 86.832 35.786 86.915 35 87 C36 89.692 36.967 91.953 38.625 94.312 C40.456 97.892 40.715 101.1 40 105 C38.892 107.36 37.682 108.962 36 111 C35.67 111 35.34 111 35 111 C34.974 110.276 34.948 109.551 34.922 108.805 C34.48 101.27 33.385 97.385 28 92 C26.68 92 25.36 92 24 92 C24.418 94.929 24.858 96.795 26.562 99.25 C28.577 103.103 28.589 106.725 28 111 C26.98 113.277 26.98 113.277 26 115 C25.34 115 24.68 115 24 115 C23.944 113.805 23.944 113.805 23.887 112.586 C23.547 104.294 23.547 104.294 20 97 C16.936 95.56 16.936 95.56 14 95 C13.733 98.111 13.738 99.607 15.5 102.25 C17.648 106.188 17.55 109.607 17 114 C16.062 116.938 16.062 116.938 14 119 C6.696 121.124 -0.242 121.303 -7.812 121.25 C-9.461 121.262 -9.461 121.262 -11.143 121.273 C-18.61 121.256 -25.678 120.452 -33 119 C-33.025 118.181 -33.05 117.363 -33.076 116.52 C-33.484 105.899 -37.12 98.862 -44 91 C-44 90.34 -44 89.68 -44 89 C-45.32 88.34 -46.64 87.68 -48 87 C-47.67 86.01 -47.34 85.02 -47 84 C-43.726 82.632 -40.452 81.512 -37.078 80.426 C-31.029 78.346 -27.51 75.551 -24.188 69.938 C-20.562 60.321 -23.562 50.997 -27.5 42.062 C-28.351 40.077 -29.195 38.089 -30.031 36.098 C-30.408 35.237 -30.785 34.376 -31.174 33.489 C-32.052 30.844 -32.156 28.767 -32 26 C-31.273 25.694 -30.546 25.389 -29.797 25.074 C-20.948 21.047 -14.832 15.793 -8 9 C-7.25 8.276 -6.5 7.551 -5.727 6.805 C-2.446 3.715 -2.446 3.715 0 0 Z " fill="#6099C7" transform="translate(458,826)"/>
<path d="M0 0 C7.514 6.224 13.612 13.701 14.59 23.629 C14.886 32.895 13.32 41.506 7.312 48.812 C-1.083 57.507 -14.56 65.64 -26.668 67.195 C-32.851 66.411 -36.891 61.884 -41.125 57.625 C-41.605 57.143 -42.084 56.661 -42.578 56.165 C-45.36 53.321 -47.846 50.398 -50.188 47.188 C-55.498 40.081 -64.273 32.073 -72.688 28.812 C-75.868 29.303 -78.724 30.578 -81.688 31.812 C-81.182 23.719 -73.422 16.904 -67.688 11.812 C-49.046 -4.046 -22.216 -16.055 0 0 Z " fill="#7FBEC1" transform="translate(710.6875,610.1875)"/>
<path d="M0 0 C12.857 7.711 21.372 20.109 25.86 34.276 C26.827 38.207 26.97 42.028 26.938 46.062 C26.932 46.893 26.926 47.723 26.92 48.579 C26.672 57.092 24.365 63.138 18.125 69.062 C10.678 74.781 0.676 76.727 -8.562 75.625 C-22.486 72.428 -34.061 63.913 -41.812 51.938 C-47.296 42.17 -50.619 31.147 -47.938 20.035 C-44.679 10.595 -37.876 3.108 -28.945 -1.332 C-19.688 -4.186 -8.866 -4.009 0 0 Z " fill="#2F388D" transform="translate(511.5625,464.375)"/>
<path d="M0 0 C6.067 0.511 10.797 2.419 16.25 5.062 C17.511 5.669 17.511 5.669 18.797 6.287 C25.421 9.553 31.278 13.317 37 18 C38.363 19.063 38.363 19.063 39.754 20.148 C51.125 29.163 60.425 39.369 69 51 C69.61 51.82 69.61 51.82 70.233 52.656 C90.542 80.322 106.666 116.21 106 151 C103.409 149.786 100.828 148.555 98.25 147.312 C97.52 146.973 96.791 146.633 96.039 146.283 C88.243 142.491 85.483 137.297 82.062 129.625 C71.881 107.524 59.144 87.009 44 68 C43.248 67.054 42.497 66.108 41.723 65.133 C38.041 60.564 34.254 56.164 30.25 51.875 C0.002 18.899 0.002 18.899 -0.188 3 C-0.126 2.01 -0.064 1.02 0 0 Z " fill="#E28CC7" transform="translate(364,257)"/>
<path d="M0 0 C5.968 1.31 9.358 4.276 13 9 C15.306 12.88 17.195 16.866 19 21 C19.343 21.706 19.686 22.413 20.039 23.141 C23.968 32.468 23.738 47.621 20 57 C11.391 76.224 -2.777 87.519 -22 95 C-32.097 98.443 -42.283 100.178 -52.938 100.312 C-54.077 100.356 -54.077 100.356 -55.24 100.4 C-60.955 100.464 -65.222 99.183 -70 96 C-72.797 92.853 -73.715 89.728 -73.539 85.488 C-71.359 75.425 -64.092 65.113 -58 57 C-57.67 57 -57.34 57 -57 57 C-56.753 58.093 -56.505 59.186 -56.25 60.312 C-55.282 63.902 -55.282 63.902 -53.375 65.938 C-48.61 68.069 -44.027 67.32 -39.211 65.82 C-37.923 65.276 -36.645 64.71 -35.375 64.125 C-34.69 63.816 -34.005 63.507 -33.299 63.189 C-18.197 56.079 -6.265 45.519 2 31 C2.364 30.371 2.727 29.742 3.102 29.094 C6.031 23.29 5.912 17.136 4.133 11.02 C3.154 8.314 2.101 5.657 1 3 C0.505 1.515 0.505 1.515 0 0 Z " fill="#FA9B41" transform="translate(799,864)"/>
<path d="M0 0 C4.924 5.848 5.572 10.998 5.43 18.422 C4.595 26.097 2.342 38.589 -3.689 43.848 C-4.356 44.302 -5.023 44.755 -5.711 45.223 C-6.455 45.739 -7.199 46.256 -7.966 46.789 C-8.761 47.333 -9.556 47.877 -10.375 48.438 C-19.73 55.028 -27.942 62.236 -35.961 70.395 C-36.641 71.084 -37.322 71.774 -38.023 72.485 C-39.362 73.849 -40.693 75.221 -42.014 76.601 C-42.619 77.221 -43.224 77.841 -43.848 78.48 C-44.384 79.039 -44.92 79.597 -45.473 80.173 C-47 81.375 -47 81.375 -50 81.375 C-51.19 79.888 -52.378 78.4 -53.559 76.906 C-57.852 72.346 -64.116 71.891 -70 71.375 C-70.014 70.795 -70.028 70.215 -70.043 69.617 C-70.415 63.517 -71.68 60.695 -76 56.375 C-74.369 51.464 -71.589 47.557 -68.625 43.375 C-68.096 42.628 -67.567 41.88 -67.023 41.11 C-61.882 33.984 -56.131 27.65 -50 21.375 C-49.389 20.702 -48.778 20.029 -48.148 19.336 C-37.957 8.342 -15.387 -8.335 0 0 Z " fill="#FAC344" transform="translate(768,275.625)"/>
<path d="M0 0 C0.33 0 0.66 0 1 0 C1.056 1.087 1.056 1.087 1.113 2.195 C1.621 9.667 2.528 14.876 8.125 20.188 C17.016 27.23 27.327 26.764 38.18 25.684 C44.304 24.801 49.874 23.17 55.625 20.902 C57.741 20.098 59.794 19.495 62 19 C62.329 19.459 62.657 19.918 62.996 20.391 C63.472 21.004 63.947 21.618 64.438 22.25 C64.89 22.853 65.342 23.457 65.809 24.078 C72.569 30.007 80.015 30.628 88.688 30.438 C89.748 30.424 90.808 30.41 91.9 30.395 C113.932 29.878 133.609 21.68 150 7 C150.696 6.055 151.392 5.11 152.109 4.137 C155.479 1.646 156.195 1.765 160.211 2.211 C162.272 2.566 164.326 2.956 166.375 3.375 C167.445 3.576 168.514 3.777 169.616 3.985 C192.631 8.507 192.631 8.507 199 16 C199.312 18.562 199.312 18.562 198 21 C177.822 33.961 148.022 33.551 125 35 C124.359 35.043 123.719 35.086 123.058 35.131 C105.642 36.278 88.196 36.244 70.75 36.25 C69.965 36.251 69.181 36.251 68.372 36.252 C-31.304 36.305 -31.304 36.305 -48 21 C-48.875 18.25 -48.875 18.25 -49 16 C-38.583 5.285 -16.435 3.185 -2.156 2.954 C-1.445 2.969 -0.733 2.984 0 3 C0 2.01 0 1.02 0 0 Z " fill="#959695" transform="translate(659,940)"/>
<path d="M0 0 C7.251 3.209 14.847 6.812 20 13 C20.748 15.911 20.874 18.45 20.887 21.449 C21.056 25.254 22.489 27.218 25 30 C26.943 31.515 28.87 32.741 31 34 C30.772 33.397 30.544 32.793 30.309 32.172 C29.877 30.973 29.877 30.973 29.438 29.75 C29.147 28.961 28.857 28.172 28.559 27.359 C27.946 24.773 28.277 23.505 29 21 C30.151 21.641 31.302 22.281 32.488 22.941 C47.993 31.425 63.504 38.003 81 41 C81.391 50.295 77.496 57.991 71.711 65.156 C64.357 73.082 55.779 77.704 44.875 78.309 C36.431 78.537 28.27 77.785 20 76 C19.01 77.32 18.02 78.64 17 80 C16.951 79.294 16.902 78.589 16.852 77.862 C14.993 52.883 10.711 27.782 1.031 4.535 C0 2 0 2 0 0 Z " fill="#609AC8" transform="translate(467,634)"/>
<path d="M0 0 C5.502 2.429 8.935 6.628 11.375 12.062 C12.052 15.244 12.301 17.755 12 21 C10.348 23.168 10.348 23.168 8.062 25.188 C-4.946 37.383 -21.225 56.487 -24.375 74.375 C-25.809 80.193 -25.809 80.193 -28.747 82.183 C-33.614 84.501 -38.75 85.851 -44 87 C-44.833 87.202 -45.665 87.405 -46.523 87.613 C-55.781 89.059 -65.903 89.479 -74.105 84.477 C-77.578 81.77 -79.571 79.371 -80.367 74.969 C-81.152 61.853 -71.541 49.801 -63.664 40.133 C-61.498 37.694 -59.278 35.334 -57 33 C-56.27 32.232 -55.541 31.463 -54.789 30.672 C-46.695 22.322 -37.592 15.531 -28 9 C-27.34 9.33 -26.68 9.66 -26 10 C-27.052 10.853 -27.052 10.853 -28.125 11.723 C-48.783 26.66 -48.783 26.66 -60.562 47.75 C-60.191 50.981 -60.191 50.981 -58.625 53.438 C-54.42 55.94 -50.765 55.737 -46 55 C-32.576 51.096 -21.398 44.198 -11 35 C-10.328 34.424 -9.657 33.848 -8.965 33.254 C-3.492 28.238 1.217 21.762 2.441 14.316 C2.557 9.239 1.662 4.778 0 0 Z " fill="#F7983E" transform="translate(746,872)"/>
<path d="M0 0 C2.903 3.596 5.712 7.252 8.5 10.938 C12.129 15.692 15.897 20.292 19.812 24.812 C21.877 27.207 23.939 29.603 26 32 C26.509 32.591 27.018 33.181 27.542 33.79 C46.472 55.909 60.886 80.652 73 107 C69.764 108.079 68.058 107.926 64.902 106.695 C59.861 104.883 54.824 103.837 49.562 102.875 C48.685 102.706 47.808 102.537 46.904 102.363 C40.956 101.25 35.029 100.507 29 100 C26.557 92.972 24.615 85.887 22.75 78.688 C20.389 69.729 17.739 60.991 14.562 52.29 C12.067 45.394 10.029 38.408 8.129 31.327 C6.708 26.123 4.961 21.201 2.843 16.237 C1.683 13.159 1.347 10.26 1 7 C0.67 6.67 0.34 6.34 0 6 C-0.041 4 -0.043 2 0 0 Z " fill="#6099C6" transform="translate(369,286)"/>
<path d="M0 0 C1.273 1.996 1.273 1.996 2.375 4.652 C2.797 5.645 3.22 6.637 3.655 7.66 C4.099 8.741 4.543 9.823 5 10.938 C5.962 13.211 6.927 15.483 7.895 17.754 C8.397 18.939 8.899 20.124 9.417 21.344 C12.541 28.558 15.924 35.654 19.291 42.758 C19.776 43.794 20.262 44.831 20.762 45.898 C21.411 47.27 21.411 47.27 22.073 48.669 C23 51 23 51 23 54 C21.355 55.824 21.355 55.824 19.188 57.688 C18.48 58.31 17.772 58.933 17.043 59.574 C15 61 15 61 12 61 C11.732 60.432 11.464 59.863 11.188 59.277 C7.593 52.195 3 46.207 -4.75 43.562 C-11.932 40.11 -14.216 28.689 -17.001 21.543 C-17.757 19.606 -18.521 17.672 -19.285 15.738 C-23 6.256 -23 6.256 -23 4 C-19.921 3.13 -16.836 2.282 -13.75 1.438 C-12.877 1.191 -12.005 0.944 -11.105 0.689 C-9.839 0.346 -9.839 0.346 -8.547 -0.004 C-7.772 -0.219 -6.997 -0.433 -6.198 -0.655 C-3.682 -1.05 -2.324 -1.064 0 0 Z " fill="#FAFAFA" transform="translate(751,822)"/>
<path d="M0 0 C4.617 3.397 7.371 6.738 8.441 12.465 C8.792 19.279 7.855 24.127 3.656 29.562 C0.958 32.285 -1.658 33.765 -5.137 35.371 C-6.127 35.866 -6.127 35.866 -7.137 36.371 C-13.155 37.245 -17.374 36.363 -22.344 32.871 C-26.699 29.227 -29.755 25.586 -30.445 19.77 C-30.737 12.919 -30.007 8.637 -25.789 3.148 C-19.174 -3.968 -8.244 -4.774 0 0 Z " fill="#FAC043" transform="translate(822.13671875,716.62890625)"/>
<path d="M0 0 C5.675 3.601 7.419 7.373 9.59 13.727 C10.199 17.104 9.957 20.408 9.75 23.812 C9.709 24.842 9.709 24.842 9.668 25.893 C9.377 30.855 8.174 34.529 6 39 C-5.564 39.711 -15.043 38.773 -24.625 31.5 C-28.091 27.851 -29.077 24.929 -29.438 20 C-29.322 16.787 -28.925 15.88 -27.125 13 C-22.748 10.199 -19.058 10.558 -14 11 C-13.587 9.928 -13.175 8.855 -12.75 7.75 C-9.972 1.41 -7.238 -1.123 0 0 Z " fill="#FC7AB2" transform="translate(324,229)"/>
<path d="M0 0 C5.756 2.449 9.22 6.755 11.707 12.422 C12.907 18.271 11.724 24.286 8.707 29.422 C5.213 33.278 1.103 36.135 -4.098 36.758 C-10.341 36.837 -14.498 36.866 -19.293 32.422 C-24.809 26.65 -25.655 22.192 -25.57 14.367 C-25.055 8.895 -22.124 6.041 -18.168 2.609 C-12.67 -1.574 -6.674 -1.683 0 0 Z " fill="#F9C044" transform="translate(745.29296875,771.578125)"/>
<path d="M0 0 C3.038 2.43 4.94 4.177 5.559 8.109 C5.034 11.843 3.338 12.803 0.438 15.125 C-7.012 21.512 -9.336 27.098 -10.812 36.75 C-12.145 36.52 -12.145 36.52 -13.504 36.285 C-19.219 35.469 -24.987 35.387 -30.75 35.188 C-32.491 35.123 -32.491 35.123 -34.268 35.057 C-37.116 34.951 -39.964 34.849 -42.812 34.75 C-40.784 22.954 -36.173 14.457 -26.812 6.75 C-18.937 1.264 -9.646 -4.287 0 0 Z " fill="#F7BE42" transform="translate(686.8125,337.25)"/>
<path d="M0 0 C15.618 5.712 29.576 19.969 39.312 33.125 C39.837 33.815 40.361 34.504 40.9 35.215 C43.491 38.685 45.661 41.827 47 46 C46.151 45.841 45.301 45.683 44.426 45.52 C35.767 44.206 27.545 43.807 19.77 48.223 C18 49 18 49 15 48 C13.713 45.583 13.713 45.583 12.441 42.383 C11.973 41.217 11.504 40.052 11.021 38.852 C10.535 37.609 10.049 36.367 9.562 35.125 C8.846 33.338 8.846 33.338 8.115 31.516 C6.721 28.019 5.355 24.512 4 21 C3.594 19.965 3.188 18.93 2.77 17.863 C2.406 16.909 2.043 15.955 1.668 14.973 C1.35 14.145 1.032 13.318 0.704 12.465 C-0.476 8.334 -0.332 4.252 0 0 Z " fill="#BCE2ED" transform="translate(460,411)"/>
<path d="M0 0 C5.817 0.097 9.728 3.024 13.863 6.879 C17.448 11.07 18.066 15.159 17.797 20.59 C16.714 26.107 13.793 30.182 9.574 33.82 C6.06 36.131 2.495 37.064 -1.703 36.82 C-7.565 35.545 -12.672 31.525 -15.902 26.531 C-17.71 21.933 -17.475 17.194 -16.75 12.375 C-15.062 8.938 -15.062 8.938 -12.75 6.375 C-11.513 4.983 -11.513 4.983 -10.25 3.562 C-6.631 0.395 -4.739 0.474 0 0 Z " fill="#F9F4C0" transform="translate(669.75,745.625)"/>
<path d="M0 0 C0.777 0.378 0.777 0.378 1.57 0.763 C18.919 9.165 36.414 17.186 56 18 C55.723 18.496 55.446 18.993 55.16 19.504 C52.029 25.376 51 30.297 51 37 C49.112 37.87 47.214 38.721 45.312 39.562 C44.257 40.038 43.201 40.514 42.113 41.004 C38.665 42.107 37.364 42.235 34 41 C31.741 39.621 29.634 38.235 27.5 36.688 C26.944 36.296 26.389 35.905 25.816 35.502 C24.197 34.353 22.598 33.177 21 32 C20.037 31.334 19.074 30.667 18.082 29.98 C16 28 16 28 15.793 25.852 C15.923 25.117 16.053 24.382 16.188 23.625 C16.362 20.675 16.429 19.503 14.484 17.223 C11.763 15.182 9.042 13.476 5.945 12.062 C4.062 11.188 4.062 11.188 1 9 C0.482 6.818 0.482 6.818 0.309 4.363 C0.243 3.548 0.178 2.732 0.111 1.892 C0.074 1.268 0.038 0.643 0 0 Z " fill="#F9F9F9" transform="translate(573,609)"/>
<path d="M0 0 C11.88 7.319 11.88 7.319 15 12 C15 12.99 15 13.98 15 15 C9.302 14.506 5.304 12.9 0.312 10.188 C-11.132 4.218 -21.928 0.836 -34.875 0.75 C-35.639 0.729 -36.404 0.709 -37.191 0.688 C-46.514 0.624 -53.782 4.083 -60.625 10.438 C-64.369 15.102 -65.494 21.328 -67 27 C-67.99 26.67 -68.98 26.34 -70 26 C-72.249 21.503 -71.57 15.866 -71 11 C-67.523 1.872 -60.75 -3.933 -52.188 -8.141 C-33.818 -15.357 -16.17 -9.372 0 0 Z " fill="#090B0C" transform="translate(449,521)"/>
<path d="M0 0 C6.304 2.811 10.499 6.583 13 13 C13.851 17.17 13.836 20.449 11.789 24.246 C8.55 28.727 5.342 32.219 0 34 C-5.207 34.811 -8.965 34.493 -13.312 31.375 C-17.125 28.11 -20.528 25.01 -21.34 19.832 C-21.549 14.839 -20.889 11.193 -18 7 C-12.356 1.435 -8.106 -1.309 0 0 Z " fill="#F9F4C0" transform="translate(721,713)"/>
<path d="M0 0 C16.943 4.579 30.702 18.103 43 30 C43.572 30.55 44.145 31.099 44.734 31.666 C64.83 51.302 78.9 78.451 79.234 106.768 C79.242 108.089 79.242 108.089 79.25 109.438 C79.271 110.315 79.291 111.192 79.312 112.096 C79.379 123.337 75.512 134.328 68.688 143.312 C65.513 146.487 62.129 149.168 58 151 C57.34 150.67 56.68 150.34 56 150 C56.592 149.417 57.183 148.835 57.793 148.234 C63.819 141.982 67.131 136.146 70 128 C70.352 127.202 70.704 126.404 71.066 125.582 C77.547 107.659 71.584 85.634 64 69 C53.956 48.411 39.102 30.95 21 17 C19.729 15.98 18.461 14.956 17.195 13.93 C15.859 12.849 14.523 11.768 13.188 10.688 C12.565 10.183 11.942 9.679 11.301 9.159 C8.455 6.877 5.61 4.698 2.551 2.707 C1.709 2.144 0.867 1.58 0 1 C0 0.67 0 0.34 0 0 Z " fill="#ECECEC" transform="translate(848,580)"/>
<path d="M0 0 C4.729 2.138 7.575 4.47 9.77 9.316 C10.647 14.931 10.098 19.592 6.77 24.316 C3.11 28.258 -0.368 29.687 -5.73 30.004 C-10.698 29.778 -13.355 28.442 -16.891 25.02 C-20.365 20.603 -20.825 16.681 -20.758 11.152 C-19.863 6.339 -16.881 3.406 -13.23 0.316 C-9.175 -1.711 -4.259 -1.305 0 0 Z " fill="#FEFAC6" transform="translate(738.23046875,381.68359375)"/>
<path d="M0 0 C0.711 2.109 0.711 2.109 1 4 C-1.938 5.004 -4.856 5.962 -7.859 6.754 C-18.164 9.636 -25.081 15.146 -30.438 24.438 C-32.629 28.833 -34.205 33.26 -35.457 38.004 C-36 40 -36 40 -37 42 C-38.875 41.75 -38.875 41.75 -41 41 C-44.657 35.546 -43.668 27.642 -42.535 21.465 C-39.261 10.481 -32.433 3.641 -22.688 -1.875 C-14.842 -4.269 -7.284 -3.777 0 0 Z " fill="#040608" transform="translate(376,454)"/>
<path d="M0 0 C5.772 3.644 10.073 8.349 12.258 14.902 C13.156 23.33 12.217 29.918 7.258 36.902 C2.393 42.244 -2.297 44.923 -9.555 45.277 C-15.834 45.11 -20.188 43.36 -24.723 38.996 C-30.984 32.077 -32.469 27.089 -32.191 17.684 C-31.38 10.857 -28.008 7.007 -23.117 2.465 C-16.191 -2.092 -7.885 -3.156 0 0 Z M-24.289 12.027 C-27.41 16.054 -27.196 19.812 -27.148 24.785 C-26.407 30.474 -23.381 33.738 -19.066 37.277 C-15.531 39.618 -12.029 40.598 -7.789 40.344 C-2.221 39.143 1.943 35.816 5.258 31.277 C8.002 26.313 8.383 21.424 7.258 15.902 C4.466 10.015 0.2 6.361 -5.742 3.902 C-14.567 2.589 -18.837 5.58 -24.289 12.027 Z " fill="#0B0D0C" transform="translate(679.7421875,742.09765625)"/>
<path d="M0 0 C3.305 0.307 4.738 0.75 7.176 3.074 C8.233 4.368 8.233 4.368 9.312 5.688 C17.834 15.559 29.039 23.048 42.354 24.205 C44.865 24.303 47.362 24.329 49.875 24.312 C50.759 24.308 51.643 24.303 52.554 24.298 C58.79 24.185 64.278 23.647 70 21 C70.75 20.671 71.5 20.343 72.273 20.004 C78.649 16.86 83.221 12.185 88 7 C89.32 7.66 90.64 8.32 92 9 C90.847 14.882 87.139 18.434 82.402 21.902 C67.727 31.45 51.598 33.286 34.352 30.387 C22.061 26.647 9.117 18.239 1.438 7.812 C-0.057 4.889 -0.38 3.23 0 0 Z " fill="#131314" transform="translate(794,813)"/>
<path d="M0 0 C2.511 1.894 4.756 3.924 6.938 6.188 C10.238 5.141 13.346 4.001 16.5 2.562 C19.686 1.288 21.574 0.882 24.938 1.188 C24.785 3.512 24.785 3.512 23.938 6.188 C21.434 7.77 21.434 7.77 18.375 9 C17.363 9.419 16.351 9.838 15.309 10.27 C14.526 10.572 13.744 10.875 12.938 11.188 C12.938 13.168 12.938 15.147 12.938 17.188 C14.154 16.858 15.371 16.527 16.625 16.188 C19.81 15.384 22.635 14.981 25.938 15.188 C24.578 18.489 23.393 19.872 20.188 21.438 C19.533 21.773 18.878 22.108 18.203 22.453 C15.106 23.457 13.187 23.709 9.938 23.188 C7.461 21.366 5.482 19.16 3.438 16.875 C-0.94 12.077 -4.69 8.089 -11.336 6.719 C-18.625 6.61 -22.8 9.631 -28.375 14 C-30.062 15.188 -30.062 15.188 -33.062 15.188 C-32.521 9.505 -30.765 5.525 -26.383 1.734 C-18.713 -3.993 -8.284 -5.487 0 0 Z " fill="#0C0A09" transform="translate(610.0625,491.8125)"/>
<path d="M0 0 C3.552 0.577 6.298 1.497 9.449 3.223 C10.289 3.675 11.128 4.128 11.993 4.594 C12.882 5.078 13.771 5.563 14.688 6.062 C26.536 12.389 38.604 18.814 51.645 22.293 C55.584 23.475 59.305 25.176 63.082 26.793 C66.997 28.412 70.962 29.721 75 31 C75 31.66 75 32.32 75 33 C74.408 33.242 73.817 33.485 73.207 33.734 C68.601 35.688 64.757 37.606 61 41 C61 40.01 61 39.02 61 38 C59.866 37.67 58.731 37.34 57.562 37 C35.778 29.67 16.917 16.306 0 1 C0 0.67 0 0.34 0 0 Z " fill="#51877F" transform="translate(732,676)"/>
<path d="M0 0 C2.214 3.321 3.004 6.175 4.125 10 C7.433 20.479 13.585 28.051 21.531 35.539 C22.258 36.262 22.258 36.262 23 37 C23 37.33 23 37.66 23 38 C11.374 37.705 -1.234 33.897 -10 26 C-13.509 21.756 -14.562 17.361 -15 12 C-14.336 11.72 -13.672 11.441 -12.988 11.152 C-6.758 8.324 -3.477 5.91 0 0 Z " fill="#52847B" transform="translate(639,782)"/>
<path d="M0 0 C4.469 1.43 7.465 3.888 10.812 7.062 C11.339 7.557 11.865 8.052 12.407 8.561 C26.279 21.739 37.832 38.581 38.945 58.359 C38.963 59.231 38.981 60.102 39 61 C39.058 62.709 39.058 62.709 39.117 64.453 C39.61 91.049 30.492 111.028 15 132 C15 127.885 17.062 125.296 19.125 121.875 C30.486 102.231 33.884 81.484 33 59 C32.981 58.154 32.961 57.309 32.941 56.438 C31.872 39.323 22.611 22.133 11 10 C7.573 6.985 4.099 4.049 0 2 C0 1.34 0 0.68 0 0 Z " fill="#E4E5E5" transform="translate(867,394)"/>
<path d="M0 0 C3.743 2.885 6.734 6.004 7.375 10.812 C6.812 15.597 4.467 18.37 1.312 21.875 C-2.391 23.677 -5.97 23.655 -10 23 C-13.469 20.934 -15.809 18.898 -17 15 C-17.756 8.306 -17.756 8.306 -15.949 5.184 C-11.349 -0.448 -6.99 -1.002 0 0 Z " fill="#FEFBC5" transform="translate(764,338)"/>
<path d="M0 0 C2.875 2.5 2.875 2.5 5 5 C5.33 5.33 5.66 5.66 6 6 C6.451 10.2 6.421 13.924 4.875 17.875 C1.59 21.599 -1.639 22.806 -6.5 23.5 C-11.178 22.832 -12.689 21.311 -16 18 C-17.746 14.508 -17.57 10.81 -17 7 C-15.288 3.625 -12.864 1.523 -9.625 -0.438 C-6.026 -1.209 -3.559 -0.953 0 0 Z " fill="#FEFCCA" transform="translate(804,325)"/>
<path d="M0 0 C2.706 2.198 4.448 3.896 6 7 C6.68 13.798 6.68 13.798 4.988 16.789 C1.977 20.461 -0.52 22.832 -5.312 23.375 C-9.671 22.932 -11.663 21.793 -15 19 C-17.591 15.585 -17.359 12.168 -17 8 C-15.741 4.554 -14.583 2.531 -11.875 0.062 C-7.723 -1.472 -4.225 -1.278 0 0 Z " fill="#FEFCC7" transform="translate(762,278)"/>
<path d="M0 0 C3.625 1.5 3.625 1.5 6 3 C4.76 6.721 3.885 6.812 0.5 8.562 C-8.191 13.581 -14.095 20.831 -18 30 C-18.66 30 -19.32 30 -20 30 C-22.824 25.765 -24.816 22.407 -24.508 17.109 C-22.9 10.429 -17.751 4.852 -12.211 1.031 C-8.176 -0.851 -4.326 -0.757 0 0 Z " fill="#F5BB36" transform="translate(706,353)"/>
<path d="M0 0 C8.505 -0.935 13.764 0.283 20.918 4.98 C23.327 7.317 23.71 8.708 24 12 C18.829 11.515 15.207 8.792 11 6 C10.911 7.28 10.822 8.56 10.73 9.879 C10.124 15.29 8.398 19.937 6.312 24.938 C5.953 25.813 5.594 26.689 5.223 27.592 C-2.21 45.344 -2.21 45.344 -9 49 C-11.812 48.75 -11.812 48.75 -14 48 C-13.875 46.312 -13.875 46.312 -13 44 C-11.67 43.072 -11.67 43.072 -10.312 42.125 C-5.025 37.93 -3.326 31.11 -1 25 C-0.281 23.138 0.437 21.276 1.156 19.414 C3.127 14.285 5.072 9.146 7 4 C4.36 4 1.72 4 -1 4 C-0.67 2.68 -0.34 1.36 0 0 Z " fill="#15100F" transform="translate(617,553)"/>
<path d="M0 0 C3.027 2.421 4.929 4.173 5.57 8.086 C5.021 11.909 3.167 13.061 0.25 15.5 C-0.667 16.279 -1.583 17.057 -2.527 17.859 C-3.281 18.483 -4.036 19.107 -4.812 19.75 C-5.143 20.08 -5.472 20.41 -5.812 20.75 C-10.313 20.663 -12.32 20.18 -15.75 17.188 C-17.988 14.097 -18.489 11.491 -18.242 7.715 C-17.526 4.439 -15.96 2.266 -13.812 -0.25 C-8.988 -1.858 -4.623 -2.055 0 0 Z " fill="#FCFAC3" transform="translate(686.8125,337.25)"/>
<path d="M0 0 C1.98 0.66 3.96 1.32 6 2 C5.558 2.485 5.116 2.969 4.66 3.469 C2.38 6.946 1.491 10.505 0.438 14.5 C0.221 15.309 0.004 16.118 -0.22 16.951 C-3.367 28.939 -4.444 40.662 -5 53 C-6.376 51.71 -7.708 50.373 -9 49 C-9 48.34 -9 47.68 -9 47 C-9.619 46.691 -10.237 46.381 -10.875 46.062 C-12.25 45.375 -13.625 44.688 -15 44 C-14.63 36.501 -12.977 30.121 -10.312 23.125 C-9.957 22.168 -9.601 21.21 -9.234 20.224 C-6.59 13.236 -3.64 6.535 0 0 Z " fill="#548881" transform="translate(645,708)"/>
<path d="M0 0 C0.33 3.63 0.66 7.26 1 11 C-8.386 15.959 -17.299 19.536 -28 20 C-29.255 17.416 -29.977 15.312 -30.188 12.438 C-28.152 8.26 -24.193 7.548 -20 6 C-18.661 5.475 -17.322 4.947 -15.984 4.418 C-14.553 3.86 -13.12 3.304 -11.688 2.75 C-10.647 2.344 -10.647 2.344 -9.586 1.93 C-6.139 0.631 -3.735 0 0 0 Z " fill="#ACD4E1" transform="translate(470,595)"/>
<path d="M0 0 C3.472 0.849 5.517 1.436 7.875 4.188 C9.515 8.288 9.889 11.743 8.238 15.934 C6.898 18.483 5.485 20.602 3.25 22.438 C-0.238 23.31 -3.475 23.695 -7 23 C-9.387 21.555 -11.004 19.996 -13 18 C-12.474 14.01 -11.477 11.94 -8.75 9 C-8.125 8.319 -7.5 7.639 -6.855 6.938 C-4.604 4.586 -2.337 2.266 0 0 Z " fill="#FEFCD0" transform="translate(721,294)"/>
<path d="M0 0 C2.625 0.375 2.625 0.375 5 1 C6 4 6 4 5.323 5.919 C4.949 6.643 4.576 7.367 4.191 8.113 C3.777 8.939 3.364 9.765 2.937 10.616 C2.483 11.506 2.03 12.396 1.562 13.312 C-3.852 24.247 -8.062 35.464 -12 47 C-13.65 46.67 -15.3 46.34 -17 46 C-17.271 40.621 -16.424 36.308 -14.562 31.312 C-14.302 30.596 -14.042 29.879 -13.774 29.14 C-11.496 23.015 -8.915 17.028 -6.25 11.062 C-5.861 10.192 -5.473 9.322 -5.073 8.425 C-2.257 2.257 -2.257 2.257 0 0 Z " fill="#F2F2F3" transform="translate(578,629)"/>
<path d="M0 0 C4.04 2.075 6.005 3.91 8 8 C9.529 13.27 10.225 18.389 7.836 23.48 C5.183 27.651 2.714 31.089 -2 33 C-2.99 33 -3.98 33 -5 33 C-5.284 25.579 -4.473 18.715 -3.062 11.438 C-2.88 10.442 -2.698 9.446 -2.51 8.42 C-1.144 1.144 -1.144 1.144 0 0 Z " fill="#E8B13B" transform="translate(628,756)"/>
<path d="M0 0 C0.33 0.66 0.66 1.32 1 2 C1.741 2.147 2.482 2.294 3.246 2.445 C16.723 5.16 28.207 19.575 36.25 29.938 C36.823 30.671 37.397 31.405 37.988 32.162 C38.775 33.209 38.775 33.209 39.578 34.277 C40.046 34.899 40.515 35.52 40.997 36.16 C42 38 42 38 42 42 C34.715 38.935 29.118 31.688 24.562 25.438 C19.217 18.314 10.45 10.275 2 7 C-1.181 7.491 -4.037 8.765 -7 10 C-6.845 7.291 -6.518 5.534 -4.598 3.555 C-3.102 2.323 -1.554 1.157 0 0 Z " fill="#ECF4F2" transform="translate(636,632)"/>
<path d="M0 0 C1.32 4.478 1.173 8.488 0 13 C-2.125 15.562 -2.125 15.562 -5 18 C-6.228 19.336 -7.436 20.692 -8.625 22.062 C-9.195 22.713 -9.765 23.364 -10.352 24.035 C-11.978 25.973 -13.502 27.962 -15 30 C-17.468 28.848 -19.048 27.952 -21 26 C-21 18.567 -17.093 13.185 -12.035 7.977 C-8.286 4.566 -4.664 1.982 0 0 Z " fill="#EFB635" transform="translate(714,364)"/>
<path d="M0 0 C5.295 -0.504 7.867 0.712 12 4 C14.817 8.226 14.8 12.036 14 17 C11.81 19.824 10.17 21.415 7 23 C3.438 23.125 3.438 23.125 0 23 C-1.545 21.455 -1.13 19.998 -1.133 17.852 C-1.134 17.011 -1.135 16.171 -1.137 15.305 C-1.133 14.42 -1.129 13.536 -1.125 12.625 C-1.129 11.748 -1.133 10.872 -1.137 9.969 C-1.135 9.126 -1.134 8.283 -1.133 7.414 C-1.132 6.64 -1.131 5.866 -1.129 5.069 C-1 3 -1 3 0 0 Z " fill="#FDF8C5" transform="translate(696,413)"/>
<path d="M0 0 C2.649 0.265 3.761 0.746 5.602 2.699 C8.285 7.114 7.637 12.024 7 17 C5.354 22.526 2.948 26.773 -1.812 30.125 C-6.104 32.4 -9.2 32.708 -14 32 C-17.972 29.668 -19.834 27.452 -21 23 C-21.125 19.688 -21.125 19.688 -21 17 C-19.121 17.25 -19.121 17.25 -17 18 C-15.91 19.812 -15.91 19.812 -15.062 22 C-13.601 25.298 -13.601 25.298 -10.625 27.25 C-6.795 26.885 -4.916 25.473 -2 23 C1.59 17.975 1.587 12.952 1 7 C0.129 3.539 0.129 3.539 -1 1 C-0.67 0.67 -0.34 0.34 0 0 Z " fill="#161211" transform="translate(661,420)"/>
<path d="M0 0 C0 0.33 0 0.66 0 1 C-0.606 1.086 -1.212 1.173 -1.836 1.262 C-11.906 2.95 -20.703 6.707 -27 15 C-33.614 24.517 -33.975 33.81 -34 45 C-37.868 41.132 -38.167 35.939 -38.375 30.688 C-38.149 21.53 -34.635 14.594 -28.312 8.051 C-19.297 0.055 -11.583 -0.844 0 0 Z " fill="#EAEBEF" transform="translate(501,462)"/>
<path d="M0 0 C3.641 1.33 5.539 2.439 8 5.438 C9 8 9 8 8.5 10 C6.531 12.626 4.467 14.833 2 17 C1.01 17 0.02 17 -1 17 C-2.161 15.54 -3.32 14.078 -4.461 12.602 C-7.12 9.835 -10.507 8.474 -14 7 C-9.698 1.362 -7.261 -0.615 0 0 Z " fill="#F9F5CD" transform="translate(719,340)"/>
<path d="M0 0 C4 4.625 4 4.625 4 8 C3.526 8.557 3.051 9.114 2.562 9.688 C0.295 13.044 0.334 15.987 0 20 C-4.132 19.136 -7.794 18.321 -10.711 15.125 C-12.765 11.895 -14 9.886 -14 6 C-13.073 5.651 -12.146 5.301 -11.191 4.941 C-9.994 4.486 -8.796 4.031 -7.562 3.562 C-6.368 3.11 -5.173 2.658 -3.941 2.191 C-1.156 1.286 -1.156 1.286 0 0 Z " fill="#F4F5F5" transform="translate(473,611)"/>
<path d="M0 0 C0.99 0.495 0.99 0.495 2 1 C2.641 3.959 3.184 6.892 3.688 9.875 C7.318 29.434 15.191 48.897 27 65 C22.481 64.421 22.481 64.421 20.41 62.609 C15.977 56.493 12.935 49.943 10 43 C9.555 41.967 9.111 40.935 8.652 39.871 C3.399 27.036 0.482 13.853 0 0 Z " fill="#DFDFDF" transform="translate(747,621)"/>
<path d="M0 0 C0.99 0.99 1.98 1.98 3 3 C2.693 3.456 2.385 3.913 2.069 4.383 C-2.025 10.667 -4.887 17.295 -7.781 24.193 C-8.155 25.056 -8.529 25.919 -8.914 26.809 C-9.244 27.59 -9.573 28.372 -9.913 29.177 C-11 31 -11 31 -14 32 C-16.188 31.062 -16.188 31.062 -18 30 C-16.587 24.773 -14.09 20.359 -11.438 15.684 C-9.953 13.064 -9.953 13.064 -9.035 10.359 C-7.87 7.703 -6.707 6.58 -4.438 4.812 C-1.783 2.77 -1.783 2.77 0 0 Z " fill="#52837B" transform="translate(666,673)"/>
<path d="M0 0 C15.252 12.007 26.885 30.753 30 50 C30.226 52.919 30.299 55.823 30.312 58.75 C30.318 59.447 30.323 60.143 30.329 60.861 C30.261 65.84 29.348 70.208 28 75 C27.67 75 27.34 75 27 75 C27.016 74.29 27.031 73.58 27.048 72.848 C27.111 69.586 27.149 66.325 27.188 63.062 C27.213 61.946 27.238 60.829 27.264 59.678 C27.324 52.784 26.573 47.374 24 41 C23.647 39.862 23.294 38.724 22.93 37.551 C18.624 24.331 11.507 14.023 1.871 4.109 C0 2 0 2 0 0 Z " fill="#B2B3B3" transform="translate(921,611)"/>
<path d="M0 0 C1.361 4.082 0.149 5.738 -1.617 9.512 C-4.388 14.497 -7.972 18.972 -12 23 C-12.99 23 -13.98 23 -15 23 C-14.704 22.136 -14.407 21.273 -14.102 20.383 C-13.408 18.252 -12.769 16.101 -12.211 13.93 C-9.987 5.802 -9.987 5.802 -6.996 3.371 C-5.019 2.413 -3.087 1.674 -1 1 C-0.67 0.67 -0.34 0.34 0 0 Z " fill="#88AFC1" transform="translate(532,538)"/>
<path d="M0 0 C5.944 -0.743 8.689 0.697 13.398 4.297 C15.184 6.196 15.613 7.454 16 10 C12.425 12.383 11.214 12.648 7 12 C4.206 10.373 1.987 8.557 0 6 C-0.438 2.625 -0.438 2.625 0 0 Z " fill="#F5F3D0" transform="translate(812,306)"/>
<path d="M0 0 C0.66 0.33 1.32 0.66 2 1 C0.948 1.853 0.948 1.853 -0.125 2.723 C-8.467 9.512 -16.48 16.306 -23.922 24.082 C-25.913 25.919 -27.571 26.869 -30 28 C-31.11 28.84 -32.196 29.715 -33.25 30.625 C-34.611 31.801 -34.611 31.801 -36 33 C-34.698 30.133 -33.312 28.057 -31.094 25.828 C-30.52 25.25 -29.946 24.672 -29.354 24.076 C-28.743 23.474 -28.131 22.871 -27.5 22.25 C-26.87 21.626 -26.24 21.002 -25.591 20.359 C-17.706 12.64 -9.11 6.203 0 0 Z " fill="#C86B24" transform="translate(718,881)"/>
<path d="M0 0 C10.354 8.151 21.922 21.119 24.719 34.418 C24.812 35.27 24.904 36.122 25 37 C21.88 34.373 20.616 31.295 18.938 27.625 C14.745 18.841 9.168 11.081 2.195 4.254 C0 2 0 2 0 0 Z " fill="#B9B9B9" transform="translate(921,611)"/>
<path d="M0 0 C1.875 0.312 1.875 0.312 4 1 C6.137 4.206 6.296 5.225 6.312 8.938 C6.338 10.219 6.338 10.219 6.363 11.527 C5.93 14.476 5.042 15.858 3 18 C2.34 18 1.68 18 1 18 C1.017 16.679 1.017 16.679 1.035 15.332 C1.044 14.171 1.053 13.009 1.062 11.812 C1.074 10.664 1.086 9.515 1.098 8.332 C1.012 5.407 0.678 2.837 0 0 Z " fill="#4A82A9" transform="translate(386,941)"/>
<path d="M0 0 C2.867 0.573 3.861 0.861 6 3 C6.125 6.125 6.125 6.125 6 9 C3.625 8.75 3.625 8.75 1 8 C-0.375 6.188 -0.375 6.188 -1 4 C-0.625 1.75 -0.625 1.75 0 0 Z " fill="#201A19" transform="translate(650,428)"/>
<path d="M0 0 C0.99 0.495 0.99 0.495 2 1 C2.673 3.597 3.217 6.116 3.688 8.75 C3.83 9.467 3.972 10.183 4.119 10.922 C4.853 14.896 5.144 18.1 4 22 C2.431 19.175 1.688 16.882 1.367 13.672 C1.242 12.473 1.242 12.473 1.113 11.25 C1.035 10.425 0.956 9.6 0.875 8.75 C0.789 7.91 0.702 7.069 0.613 6.203 C0.402 4.136 0.2 2.068 0 0 Z " fill="#979796" transform="translate(747,621)"/>
<path d="M0 0 C0.33 0.99 0.66 1.98 1 3 C-2.667 6.667 -6.333 10.333 -10 14 C-8.388 8.268 -4.121 4.121 0 0 Z " fill="#78B4DC" transform="translate(355,466)"/>
<path d="M0 0 C0.66 0.33 1.32 0.66 2 1 C1.469 1.519 0.938 2.039 0.391 2.574 C-3.311 6.228 -6.872 9.829 -10 14 C-10.66 13.67 -11.32 13.34 -12 13 C-10.564 11.395 -9.126 9.791 -7.688 8.188 C-6.887 7.294 -6.086 6.401 -5.262 5.48 C-3.548 3.601 -1.821 1.774 0 0 Z " fill="#8FB7C0" transform="translate(643,622)"/>
<path d="M0 0 C2.438 1.562 2.438 1.562 5 4 C5.812 7.75 5.812 7.75 6 11 C5.01 11.33 4.02 11.66 3 12 C2.867 11.385 2.734 10.77 2.598 10.137 C2.421 9.328 2.244 8.52 2.062 7.688 C1.888 6.887 1.714 6.086 1.535 5.262 C1.001 2.855 1.001 2.855 0 0 Z " fill="#DEB22F" transform="translate(686,337)"/>
<path d="M0 0 C3 1 3 1 4.203 2.707 C4.549 3.402 4.894 4.097 5.25 4.812 C5.606 5.5 5.962 6.187 6.328 6.895 C7.112 9.351 6.841 10.6 6 13 C4.998 11.022 3.998 9.043 3 7.062 C2.165 5.409 2.165 5.409 1.312 3.723 C0 1 0 1 0 0 Z " fill="#E1E1E1" transform="translate(939,635)"/>
<path d="M0 0 C0.66 0.33 1.32 0.66 2 1 C-3.445 5.455 -3.445 5.455 -9 10 C-9.66 9.34 -10.32 8.68 -11 8 C-7.37 5.36 -3.74 2.72 0 0 Z " fill="#CB6F1B" transform="translate(718,881)"/>
<path d="M0 0 C3.452 1.477 5.65 3.438 8.25 6.125 C8.956 6.849 9.663 7.574 10.391 8.32 C11.187 9.152 11.187 9.152 12 10 C11.34 10.66 10.68 11.32 10 12 C8.33 10.19 6.664 8.377 5 6.562 C4.285 5.788 4.285 5.788 3.555 4.998 C0 1.113 0 1.113 0 0 Z " fill="#3E6795" transform="translate(170,395)"/>
<path d="M0 0 C-2.36 2.097 -3.546 2.969 -6.75 3.188 C-7.864 3.095 -7.864 3.095 -9 3 C-8.67 2.01 -8.34 1.02 -8 0 C-5.042 -1.224 -3.003 -0.965 0 0 Z " fill="#568EC1" transform="translate(375,460)"/>
<path d="M0 0 C2 1 2 1 2.633 2.848 C2.795 3.579 2.958 4.309 3.125 5.062 C3.293 5.796 3.46 6.529 3.633 7.285 C3.754 7.851 3.875 8.417 4 9 C3.01 9.33 2.02 9.66 1 10 C0.67 6.7 0.34 3.4 0 0 Z " fill="#C1C1C2" transform="translate(751,641)"/>
<path d="M0 0 C0.66 0.33 1.32 0.66 2 1 C1.048 2.006 0.088 3.005 -0.875 4 C-1.409 4.557 -1.942 5.114 -2.492 5.688 C-4 7 -4 7 -6 7 C-4.607 3.633 -3.021 2.014 0 0 Z " fill="#E18431" transform="translate(706,890)"/>
</svg>