<svg version="1.1" xmlns="http://www.w3.org/2000/svg" width="1024" height="1024">
<path d="M0 0 C337.92 0 675.84 0 1024 0 C1024 337.92 1024 675.84 1024 1024 C686.08 1024 348.16 1024 0 1024 C0 686.08 0 348.16 0 0 Z " fill="#FEFEFE" transform="translate(0,0)"/>
<path d="M0 0 C1.081 -0.006 2.162 -0.012 3.276 -0.019 C18.185 0.215 33.657 5.091 44.625 15.5 C45.657 16.809 46.667 18.136 47.625 19.5 C50.683 19.037 52.974 18.333 55.785 16.984 C59.878 15.205 63.579 15 68 15.062 C68.751 15.07 69.502 15.078 70.276 15.085 C76.191 15.261 80.552 16.382 85.625 19.5 C86.799 20.101 86.799 20.101 87.996 20.715 C108.052 31.51 119.755 54.292 126.162 75.312 C129.772 87.828 132.27 100.257 133.232 113.248 C135.327 140.665 148.83 161.086 165.135 182.42 C180.796 202.967 195.176 223.692 192.625 250.5 C190.734 258.554 187.16 265.38 181.625 271.5 C180.993 272.2 180.362 272.9 179.711 273.621 C175.685 277.857 171.85 280.887 166.625 283.5 C169.468 285.714 172.38 287.577 175.5 289.375 C185.622 295.413 185.622 295.413 187.867 300.086 C189.449 302.794 189.449 302.794 192.637 303.285 C193.85 303.377 195.063 303.468 196.312 303.562 C203.866 304.297 211.007 305.98 218.337 307.912 C222.751 309.047 227.189 310.079 231.625 311.125 C234.959 311.913 238.293 312.704 241.625 313.5 C242.36 313.672 243.095 313.845 243.852 314.022 C246.67 314.699 249.346 315.375 251.998 316.56 C254.998 317.634 257.169 317.657 260.344 317.52 C261.435 317.487 262.526 317.454 263.651 317.421 C265.37 317.367 265.37 317.367 267.125 317.312 C277.173 317.156 284.711 317.549 293.625 322.5 C294.422 322.873 295.218 323.245 296.039 323.629 C302.488 326.809 307.522 331.502 312.625 336.5 C313.181 337.019 313.736 337.539 314.309 338.074 C327.065 351.246 331.728 372.574 331.828 390.203 C331.835 391.031 331.842 391.858 331.849 392.711 C331.866 395.391 331.873 398.07 331.875 400.75 C331.876 401.664 331.878 402.577 331.879 403.519 C331.873 423.239 330.705 442.365 325.625 461.5 C325.335 462.683 325.045 463.867 324.746 465.086 C324.521 466.006 324.295 466.927 324.062 467.875 C323.72 469.279 323.72 469.279 323.371 470.711 C322.625 473.5 322.625 473.5 321.246 476.324 C320.289 481.22 322.639 483.89 325.25 487.938 C326.279 489.621 327.304 491.307 328.324 492.996 C328.865 493.885 329.405 494.775 329.962 495.691 C332.831 500.538 335.452 505.51 338.062 510.5 C338.558 511.43 339.053 512.36 339.563 513.318 C350.176 533.642 355.61 556.273 348.953 578.703 C344.393 592.495 336.17 603.244 323.625 610.5 C291.884 626.353 257.949 631.371 222.935 633.905 C222.025 633.971 221.114 634.037 220.176 634.105 C219.389 634.159 218.601 634.212 217.79 634.266 C215.658 634.496 213.689 634.928 211.625 635.5 C212.915 635.693 214.206 635.887 215.535 636.086 C217.253 636.349 218.97 636.612 220.688 636.875 C221.535 637.001 222.383 637.128 223.256 637.258 C228.185 638.019 232.828 639.11 237.625 640.5 C239.952 640.874 242.286 641.208 244.625 641.5 C248.224 641.95 251.558 642.481 255.047 643.484 C258.963 644.596 262.855 645.191 266.875 645.75 C275.877 647.09 284.704 648.996 293.573 651.024 C300.151 652.522 306.736 653.948 313.352 655.27 C314.096 655.419 314.84 655.568 315.606 655.722 C318.546 656.312 321.486 656.902 324.43 657.474 C334.748 659.478 344.65 662.184 354.625 665.5 C354.625 665.83 354.625 666.16 354.625 666.5 C340.329 667.135 326.6 666.409 312.5 664.125 C311.809 664.014 311.118 663.903 310.406 663.788 C299.311 661.982 299.311 661.982 294.056 660.48 C290.995 659.606 288.073 659.003 284.93 658.535 C283.372 658.297 283.372 658.297 281.782 658.054 C280.699 657.892 279.616 657.73 278.5 657.562 C265.066 655.491 265.066 655.491 258.812 653.938 C253.614 652.647 248.421 651.821 243.125 651.062 C235.715 650.002 228.355 648.773 221 647.375 C219.64 647.119 219.64 647.119 218.252 646.858 C211.881 645.628 211.881 645.628 209.625 644.5 C206.223 643.969 202.813 643.538 199.398 643.098 C196.068 642.57 192.912 641.856 189.656 641.01 C186.275 640.161 182.865 639.507 179.438 638.875 C178.439 638.674 178.439 638.674 177.42 638.469 C163.998 636.008 150.055 637.947 136.562 639 C105.499 641.42 105.499 641.42 100.188 638.812 C93.287 632.585 93.287 632.585 91.024 628.875 C88.153 626.033 86.317 625.918 82.357 625.884 C81.534 625.9 80.711 625.917 79.863 625.934 C78.999 625.928 78.135 625.922 77.245 625.917 C74.475 625.9 71.707 625.916 68.938 625.938 C55.542 626.02 43.524 625.269 30.625 621.5 C29.284 621.113 29.284 621.113 27.915 620.719 C25.971 620.128 24.046 619.474 22.125 618.812 C20.898 618.396 19.671 617.98 18.406 617.551 C15.625 616.5 15.625 616.5 14.625 615.5 C7.509 614.16 2.569 615.697 -3.438 619.5 C-8.391 622.605 -12.302 624.621 -18.273 624.105 C-21.668 623.128 -23.804 620.848 -26.375 618.5 C-28.378 617.859 -28.378 617.859 -30.5 617.5 C-33.785 616.847 -34.31 616.566 -36.812 614 C-39.161 610.242 -39.489 608.307 -39.438 603.875 C-39.424 602.371 -39.424 602.371 -39.41 600.836 C-39.393 599.68 -39.393 599.68 -39.375 598.5 C-40.154 598.385 -40.932 598.271 -41.734 598.152 C-45.325 597.265 -46.332 595.491 -48.375 592.5 C-50.814 587.622 -49.767 581.005 -48.25 575.938 C-44.504 566.087 -37.626 558.245 -28.598 552.836 C-27.864 552.395 -27.131 551.954 -26.375 551.5 C-26.375 551.17 -26.375 550.84 -26.375 550.5 C-26.955 550.341 -27.535 550.183 -28.133 550.02 C-33.651 548.372 -37.244 546.528 -41.375 542.5 C-42.518 540.215 -42.606 538.731 -42.688 536.188 C-42.725 535.428 -42.762 534.669 -42.801 533.887 C-42.197 530.504 -40.753 528.949 -38.375 526.5 C-35.676 524.77 -35.676 524.77 -32.688 523.312 C-31.714 522.824 -30.741 522.335 -29.738 521.832 C-22.208 518.85 -14.791 518.15 -6.75 517.875 C-5.425 517.817 -5.425 517.817 -4.074 517.758 C3.826 517.442 11.72 517.464 19.625 517.5 C17.273 496.986 14.837 476.516 11.621 456.117 C9.6 443.265 7.811 430.458 6.625 417.5 C6.015 417.53 5.406 417.561 4.778 417.592 C-24.56 419 -53.63 418.644 -82.948 417.224 C-84.979 417.126 -87.009 417.03 -89.039 416.934 C-125.303 415.191 -125.303 415.191 -133.375 412.5 C-133.095 413.281 -132.816 414.062 -132.527 414.867 C-129.62 423.262 -127.197 431.72 -124.938 440.312 C-122.722 448.718 -120.342 456.996 -117.509 465.213 C-115.54 470.927 -113.811 476.689 -112.139 482.497 C-110.602 487.811 -108.893 493.052 -107.074 498.277 C-106.375 500.5 -106.375 500.5 -106.375 502.5 C-104.612 502.438 -104.612 502.438 -102.812 502.375 C-98.694 502.375 -95.322 503.275 -91.375 504.5 C-86.447 505.69 -81.49 506.501 -76.461 507.117 C-75.576 507.232 -74.69 507.347 -73.778 507.465 C-71.994 507.693 -70.208 507.904 -68.419 508.095 C-64.105 508.658 -61.831 509.149 -58.309 511.859 C-56.158 514.796 -55.643 516.861 -55.891 520.508 C-56.763 524.096 -58.73 526.028 -61.375 528.5 C-64.673 530.452 -67.673 531.632 -71.375 532.5 C-70.373 532.875 -69.372 533.25 -68.34 533.637 C-51.717 539.988 -51.717 539.988 -47.375 546.5 C-46.724 551.457 -46.332 556.005 -49.25 560.188 C-51.375 561.5 -51.375 561.5 -53.375 561.5 C-52.694 562.469 -52.014 563.439 -51.312 564.438 C-49.125 568.275 -49.034 571.117 -49.766 575.422 C-51.016 579.687 -53.436 581.852 -57 584.312 C-59.375 585.5 -59.375 585.5 -61.375 585.5 C-61.18 586.444 -61.18 586.444 -60.98 587.406 C-59.99 593.552 -60.461 596.891 -64.051 602.004 C-65.375 603.5 -65.375 603.5 -67.375 604.5 C-61.331 606.615 -55.314 608.31 -49.074 609.754 C-46.62 610.432 -44.595 611.271 -42.375 612.5 C-42.705 613.16 -43.035 613.82 -43.375 614.5 C-70.924 615.41 -70.924 615.41 -80.375 608.5 C-80.375 607.84 -80.375 607.18 -80.375 606.5 C-81.056 606.995 -81.736 607.49 -82.438 608 C-87.109 610.385 -91.036 609.863 -96.023 608.512 C-97.253 608.075 -98.483 607.638 -99.75 607.188 C-100.975 606.758 -102.199 606.329 -103.461 605.887 C-104.414 605.547 -104.414 605.547 -105.386 605.2 C-108.206 604.207 -111.043 603.269 -113.88 602.328 C-116.675 601.4 -119.466 600.464 -122.258 599.527 C-124.339 598.831 -126.419 598.134 -128.5 597.438 C-129.545 597.086 -130.591 596.735 -131.668 596.373 C-133.683 595.699 -135.702 595.035 -137.725 594.384 C-140.375 593.5 -140.375 593.5 -142.385 592.657 C-144.901 591.671 -146.776 591.295 -149.358 592.178 C-151.535 593.28 -153.569 594.499 -155.625 595.812 C-157.025 596.664 -158.426 597.515 -159.828 598.363 C-160.438 598.748 -161.048 599.132 -161.677 599.529 C-168.353 603.348 -178.229 602.426 -185.5 600.559 C-189.524 599.384 -193.455 597.98 -197.375 596.5 C-198.391 596.127 -199.407 595.755 -200.453 595.371 C-219.496 587.905 -244.622 575.196 -255.715 557.344 C-257.271 555.255 -257.271 555.255 -260.004 554.926 C-261.456 554.87 -261.456 554.87 -262.938 554.812 C-268.243 554.566 -268.243 554.566 -270.375 553.5 C-271.871 553.299 -273.372 553.137 -274.875 553 C-279.153 552.611 -279.153 552.611 -281.375 551.5 C-284.053 551.051 -286.728 550.639 -289.414 550.246 C-301.599 548.391 -313.664 545.97 -325.75 543.562 C-330.112 542.698 -334.474 541.835 -338.836 540.973 C-339.895 540.763 -340.954 540.553 -342.045 540.336 C-348.944 538.972 -355.848 537.64 -362.758 536.332 C-405.928 528.152 -405.928 528.152 -421.375 521.5 C-421.375 521.17 -421.375 520.84 -421.375 520.5 C-410.886 520.237 -400.716 520.88 -390.302 522.099 C-387.917 522.377 -385.53 522.641 -383.143 522.902 C-381.596 523.077 -380.05 523.253 -378.504 523.43 C-377.805 523.507 -377.106 523.584 -376.385 523.664 C-371.585 524.235 -367.052 525.275 -362.375 526.5 C-360.901 526.708 -359.422 526.884 -357.938 527 C-354.947 527.28 -352.108 527.74 -349.188 528.438 C-343.63 529.706 -338.029 530.528 -332.393 531.355 C-328.571 531.935 -324.834 532.591 -321.09 533.559 C-318.158 534.302 -315.498 534.812 -312.5 535.062 C-310.064 535.27 -308.573 535.401 -306.375 536.5 C-305.096 536.624 -303.817 536.747 -302.5 536.875 C-298.773 537.249 -295.306 537.974 -291.688 538.938 C-286.008 540.434 -280.352 541.261 -274.535 542.027 C-270.995 542.557 -267.765 543.37 -264.375 544.5 C-264.808 543.778 -265.241 543.056 -265.688 542.312 C-272.807 527.7 -272.146 510.509 -267.064 495.475 C-260.588 477.614 -250.494 462.042 -238.375 447.5 C-237.656 446.608 -236.936 445.716 -236.195 444.797 C-231.829 439.389 -227.314 434.172 -222.629 429.039 C-220.269 426.381 -218.038 423.646 -215.812 420.875 C-212.508 416.789 -209.045 413.055 -205.277 409.398 C-202.737 406.863 -200.429 404.154 -198.09 401.434 C-195.901 398.966 -193.564 396.675 -191.209 394.367 C-189.476 392.603 -187.871 390.786 -186.269 388.903 C-181.919 383.902 -177.257 379.238 -172.566 374.559 C-171.641 373.632 -170.715 372.706 -169.762 371.751 C-167.814 369.802 -165.865 367.855 -163.915 365.909 C-161.436 363.436 -158.962 360.959 -156.489 358.48 C-154.1 356.087 -151.708 353.698 -149.316 351.309 C-148.439 350.429 -147.562 349.55 -146.658 348.644 C-142.268 344.27 -137.824 340.028 -133.113 336 C-130.178 333.467 -127.382 330.785 -124.562 328.125 C-119.468 323.354 -114.266 318.836 -108.812 314.477 C-106.638 312.713 -104.567 310.886 -102.5 309 C-99.048 305.949 -95.392 303.267 -91.625 300.625 C-91.07 300.231 -90.514 299.837 -89.942 299.432 C-87.152 297.51 -84.757 296.009 -81.375 295.5 C-81.375 294.84 -81.375 294.18 -81.375 293.5 C-82.365 293.83 -83.355 294.16 -84.375 294.5 C-87.161 294.675 -89.9 294.777 -92.688 294.812 C-93.435 294.842 -94.182 294.871 -94.951 294.9 C-102.408 294.986 -106.224 291.531 -111.746 286.773 C-113.521 285.386 -115.36 284.309 -117.312 283.188 C-125.796 277.942 -130.919 270.117 -133.375 260.5 C-136.579 237.474 -125.051 216.295 -115.891 195.98 C-101.937 164.857 -91.619 133.036 -85.375 99.5 C-86.533 99.546 -87.69 99.593 -88.883 99.641 C-90.422 99.678 -91.961 99.715 -93.5 99.75 C-94.261 99.784 -95.021 99.817 -95.805 99.852 C-101.167 99.944 -104.126 99.064 -108.375 95.5 C-112.099 90.698 -113.204 86.663 -112.938 80.582 C-110.747 68.581 -102.475 59.119 -94.375 50.5 C-93.915 50.009 -93.456 49.517 -92.982 49.011 C-86.581 42.238 -79.731 36.209 -72.375 30.5 C-71.475 29.794 -71.475 29.794 -70.558 29.073 C-58.06 19.293 -45.402 10.954 -30.375 5.5 C-29.183 5.033 -27.99 4.567 -26.762 4.086 C-17.867 0.865 -9.447 0.035 0 0 Z " fill="#09090A" transform="translate(508.375,195.5)"/>
<path d="M0 0 C0.28 0.967 0.559 1.934 0.848 2.93 C5.091 16.973 11.528 27.339 24.84 34.535 C33.142 38.441 40.593 40.372 49.75 40.312 C50.639 40.308 51.528 40.303 52.444 40.298 C59.053 40.18 64.792 39.353 71 37 C72.043 36.648 73.086 36.296 74.16 35.934 C84.407 32.302 94.968 27.461 101 18 C101.366 17.03 101.732 16.061 102.109 15.062 C103.433 11.625 104.729 8.909 107 6 C111.387 4.238 115.563 4.275 120.25 4.312 C122.609 4.247 124.969 4.18 127.328 4.113 C129.019 4.097 129.019 4.097 130.744 4.081 C134.6 3.985 138.375 3.6 142.198 3.11 C142.793 3.074 143.387 3.037 144 3 C144.33 3.33 144.66 3.66 145 4 C146.955 4.125 148.916 4.176 150.875 4.188 C151.945 4.202 153.015 4.216 154.117 4.23 C157.198 4.219 157.198 4.219 160 2 C168.816 1.081 177.207 1.414 185 6 C187.625 8.25 187.625 8.25 189 10 C187.931 10.004 187.931 10.004 186.84 10.008 C181.05 10.242 176.627 10.674 172.426 14.895 C167.369 22.362 166.429 32.455 164.77 41.133 C162.598 52.043 159.543 62.646 156.291 73.271 C153.516 82.427 151.192 91.689 149 101 C148.717 102.186 148.717 102.186 148.429 103.396 C146.131 113.26 146.131 113.26 148.375 122.875 C156.188 129.2 166.546 130.225 176.168 131.837 C192.321 134.555 208.128 138.054 223.969 142.203 C239.281 146.856 239.281 146.856 255 147 C261.279 142.422 262.301 136.21 263.656 128.926 C263.959 127.356 264.263 125.786 264.566 124.217 C265.036 121.755 265.504 119.293 265.968 116.83 C266.42 114.444 266.881 112.06 267.344 109.676 C267.549 108.566 267.549 108.566 267.757 107.435 C268.774 102.226 268.774 102.226 271 100 C287.079 123.209 302.358 146.864 317 171 C317.712 172.17 317.712 172.17 318.438 173.364 C323.075 180.997 327.568 188.705 331.969 196.477 C333.708 199.522 335.524 202.515 337.356 205.505 C342.411 213.77 346.829 222.259 351 231 C351.496 232.035 351.993 233.07 352.504 234.137 C355.08 239.65 357.297 245.156 359 251 C359.206 251.636 359.413 252.271 359.625 252.926 C363.794 267.835 361.06 283.23 354.25 296.812 C349.437 304.993 343.868 309.89 335.5 314.188 C334.604 314.651 334.604 314.651 333.69 315.124 C320.723 321.368 306.549 324.122 292.5 326.688 C290.121 327.13 287.743 327.575 285.366 328.023 C283.906 328.297 282.446 328.568 280.985 328.834 C277.545 329.472 274.155 330.192 270.766 331.062 C267.998 331.751 265.474 332.299 262.652 332.562 C261.894 332.636 261.137 332.71 260.356 332.785 C259.558 332.856 258.76 332.927 257.938 333 C257.078 333.08 256.219 333.161 255.334 333.244 C253.5 333.414 251.666 333.581 249.831 333.746 C246.993 334.001 244.157 334.267 241.32 334.535 C239.401 334.712 237.482 334.887 235.562 335.062 C234.299 335.181 234.299 335.181 233.01 335.303 C214.306 336.955 195.514 337.225 176.751 337.552 C173.829 337.604 170.907 337.661 167.984 337.719 C166.676 337.739 166.676 337.739 165.342 337.76 C160.517 337.857 155.791 338.171 151.003 338.782 C147.813 339.129 144.643 339.094 141.438 339.062 C140.219 339.053 139.001 339.044 137.746 339.035 C136.84 339.024 135.934 339.012 135 339 C135.433 335.934 135.959 333.118 136.973 330.188 C140.069 321.131 140.409 312.417 140.438 302.875 C140.447 301.613 140.457 300.351 140.467 299.051 C140.283 278.442 133.071 259.836 120 244 C121.958 243.54 123.916 243.082 125.875 242.625 C126.966 242.37 128.056 242.115 129.18 241.852 C130.44 241.571 131.701 241.29 133 241 C133.745 240.825 134.49 240.65 135.257 240.47 C141.835 239.015 148.215 238.646 154.938 238.5 C165.605 238.268 175.325 236.956 185.517 233.754 C189.734 232.473 194.021 231.498 198.312 230.5 C199.233 230.284 200.153 230.067 201.101 229.844 C206.98 228.463 212.862 227.096 218.75 225.754 C221.255 225.173 223.753 224.575 226.25 223.965 C233.513 222.2 240.537 220.655 248 220 C248.66 219.67 249.32 219.34 250 219 C264.346 218.046 275.925 221.169 289 227 C290.445 227.631 291.89 228.261 293.336 228.891 C301.215 232.34 308.993 235.885 316.617 239.871 C318.761 240.887 320.683 241.531 323 242 C315.351 229.865 302.75 223.613 290 218 C289.235 217.66 288.47 217.32 287.682 216.969 C272.29 210.326 257.494 209.3 241 212 C245.786 206.018 252.543 202.714 260.136 201.721 C269.827 200.976 278.15 201.817 287 206 C289.067 206.921 291.139 207.829 293.212 208.736 C294.623 209.357 296.03 209.986 297.432 210.625 C300.935 212.204 304.189 213.448 308 214 C302.56 204.479 294.009 200.683 284 197 C283.107 196.633 282.213 196.265 281.293 195.887 C270.12 192.878 256.206 193.589 245.703 198.441 C239.415 202.067 234.298 206.11 230 212 C227.455 215.272 225.776 216.24 221.75 216.75 C220.513 216.832 219.275 216.915 218 217 C213.182 210.373 208.943 203.615 205 196.438 C197.945 183.787 190.54 171.366 183 159 C182.417 158.038 181.834 157.076 181.233 156.084 C179.605 153.403 177.962 150.731 176.312 148.062 C175.832 147.269 175.351 146.476 174.855 145.659 C174.404 144.938 173.953 144.216 173.488 143.473 C173.102 142.846 172.716 142.22 172.318 141.574 C170.752 139.704 169.226 138.945 167 138 C166.573 143.231 168.049 146.792 170.312 151.375 C174.008 159.418 175.883 167.248 177 176 C177.201 177.517 177.201 177.517 177.406 179.065 C179.476 195.092 180.461 210.845 180 227 C173.415 229.631 167.674 230.382 160.625 230.438 C151.58 230.671 142.761 231.535 133.812 232.875 C132.716 233.037 131.619 233.198 130.489 233.365 C115.612 234.954 115.612 234.954 104 243 C102.601 244.971 101.287 246.95 100 249 C94.299 248.481 90.081 246.219 85.129 243.562 C83.403 242.659 81.677 241.755 79.951 240.852 C77.253 239.426 74.556 237.997 71.861 236.565 C69.247 235.181 66.626 233.809 64.004 232.438 C63.206 232.008 62.408 231.579 61.585 231.137 C56.972 228.729 53.202 227.394 48 227 C44.748 207.634 44.748 207.634 44.309 198.25 C44.04 195.417 43.595 192.744 43.059 189.953 C41.861 183.583 41.244 177.198 40.625 170.75 C39.609 160.695 38.255 150.785 36.411 140.849 C35.189 134.267 34.304 127.723 33.688 121.059 C32.61 116.263 30.409 112.973 26.375 110.188 C25.591 109.796 24.808 109.404 24 109 C23.34 108.67 22.68 108.34 22 108 C19.368 107.808 16.753 107.67 14.117 107.57 C12.469 107.499 10.821 107.426 9.174 107.354 C8.308 107.317 7.443 107.28 6.551 107.241 C-9.427 106.546 -25.172 105.364 -41 103 C-42.519 102.786 -44.039 102.574 -45.559 102.363 C-48.708 101.923 -51.855 101.471 -55 101 C-54.125 94.25 -54.125 94.25 -53 92 C-52.772 90.129 -52.59 88.253 -52.438 86.375 C-52.354 85.372 -52.27 84.369 -52.184 83.336 C-52.123 82.565 -52.062 81.794 -52 81 C-55.274 82.351 -56.599 83.462 -58.105 86.66 C-58.449 87.371 -58.793 88.082 -59.146 88.814 C-59.49 89.556 -59.834 90.298 -60.188 91.062 C-63.938 98.938 -63.938 98.938 -65 100 C-68.082 100.052 -71.142 100.042 -74.223 99.992 C-76.143 99.975 -78.062 99.958 -79.982 99.941 C-83.015 99.911 -86.047 99.875 -89.08 99.829 C-92.002 99.786 -94.925 99.763 -97.848 99.742 C-98.744 99.724 -99.64 99.705 -100.563 99.686 C-109.297 99.651 -115.634 101.945 -122 108 C-128.122 120.245 -117.475 142.26 -113.742 154.336 C-111.97 160.073 -110.269 165.83 -108.598 171.597 C-107.749 174.513 -106.865 177.403 -105.898 180.281 C-104.803 183.597 -104.363 185.534 -105 189 C-107.108 191.602 -109.467 193.816 -112 196 C-115.014 193.107 -117.569 190.051 -120.125 186.75 C-127.4 177.835 -135.275 172.1 -146 168 C-147.375 167.41 -147.375 167.41 -148.777 166.809 C-161.897 161.861 -177.582 162.549 -191 166 C-189.286 168.141 -188.416 168.934 -185.663 169.369 C-184.756 169.37 -183.849 169.37 -182.914 169.371 C-181.907 169.386 -180.9 169.4 -179.862 169.415 C-178.794 169.422 -177.726 169.43 -176.625 169.438 C-167.362 169.671 -159.576 170.26 -151 174 C-149.453 174.669 -149.453 174.669 -147.875 175.352 C-141.383 178.386 -135.153 181.951 -130 187 C-130 187.66 -130 188.32 -130 189 C-134.908 188.361 -138.924 186.279 -143.312 184.125 C-161.166 175.414 -178.638 173.109 -197.934 178.93 C-200.658 179.881 -203.335 180.894 -206 182 C-206 182.66 -206 183.32 -206 184 C-204.765 183.974 -203.531 183.948 -202.259 183.921 C-197.62 183.829 -192.982 183.772 -188.343 183.725 C-186.346 183.7 -184.349 183.666 -182.352 183.623 C-170.499 183.37 -160.725 183.403 -150 189 C-149.081 189.462 -148.162 189.924 -147.216 190.4 C-145.618 191.214 -144.024 192.035 -142.434 192.863 C-138.438 194.73 -134.257 195.886 -130 197 C-130 197.66 -130 198.32 -130 199 C-130.799 199.28 -131.598 199.559 -132.422 199.848 C-145.127 204.485 -155.395 210.429 -165 220 C-165.563 220.54 -166.127 221.08 -166.707 221.637 C-179.057 234.573 -182.615 253.383 -182.258 270.582 C-182.015 276.308 -180.787 281.567 -179 287 C-178.714 287.901 -178.428 288.802 -178.133 289.73 C-177.449 291.829 -176.729 293.916 -176 296 C-182.499 294.09 -188.221 291.541 -194.062 288.125 C-195.289 287.409 -195.289 287.409 -196.541 286.678 C-214.932 275.638 -233.32 260.252 -239.301 238.879 C-243.452 215.849 -235.856 197.285 -222.984 178.551 C-213.416 164.945 -203.014 151.974 -191.633 139.844 C-189.604 137.652 -187.629 135.438 -185.672 133.184 C-181.923 128.88 -178.043 124.711 -174.125 120.562 C-173.423 119.818 -172.721 119.073 -171.998 118.305 C-167.776 113.837 -163.512 109.425 -159.09 105.152 C-157.3 103.309 -155.639 101.427 -153.969 99.477 C-149.567 94.412 -144.836 89.686 -140.085 84.954 C-138.565 83.44 -137.051 81.921 -135.537 80.4 C-130.737 75.597 -125.88 70.919 -120.719 66.5 C-118.181 64.285 -115.854 61.911 -113.5 59.5 C-109.886 55.837 -106.197 52.338 -102.281 49 C-99.807 46.831 -97.411 44.591 -95.013 42.339 C-76.714 25.16 -56.41 6.533 -30.211 5.414 C-23.611 4.929 -17.163 3.21 -10.731 1.727 C-9.296 1.396 -9.296 1.396 -7.832 1.059 C-6.973 0.855 -6.115 0.652 -5.23 0.443 C-3 0 -3 0 0 0 Z " fill="#FDFDFD" transform="translate(489,486)"/>
<path d="M0 0 C0.87 0.018 1.74 0.036 2.637 0.055 C14.568 0.725 28.089 6.021 36.578 14.594 C36.985 15.058 37.393 15.522 37.812 16 C39.852 18.316 39.852 18.316 42.812 18 C46.101 17.036 46.101 17.036 49.5 15.438 C56.453 12.784 64.165 12.771 71.219 15.031 C78.584 18.448 84.331 23.254 90 29 C91.048 30.033 91.048 30.033 92.117 31.086 C98.05 37.296 102.044 44.455 106 52 C106.474 52.883 106.949 53.766 107.438 54.676 C115.264 70.402 118.677 89.856 119.5 107.312 C120.733 131.75 133.772 153.562 148.648 172.292 C182.321 214.842 182.321 214.842 180 238 C176.375 252.469 170.183 259.849 158 268 C157.34 267.67 156.68 267.34 156 267 C156.606 266.295 157.212 265.59 157.836 264.863 C165.856 254.251 168.072 240.948 167 228 C164.282 213.078 155.555 199.924 146.875 187.812 C137.913 175.303 132.082 162.276 126.759 147.884 C125.944 145.861 124.999 143.938 124 142 C122.487 164.566 133.724 183.532 145.569 201.77 C154.931 216.365 160.976 229.543 157.375 247.25 C153.987 256.49 149.422 268.59 140.285 273.441 C135.942 275.115 131.692 276.731 127 276 C125.34 274.129 125.34 274.129 123.938 271.562 C123.472 270.739 123.007 269.915 122.527 269.066 C121.771 267.549 121.771 267.549 121 266 C120.514 265.035 120.514 265.035 120.019 264.051 C117.137 258.012 115.676 251.979 114.375 245.438 C113.967 243.457 113.558 241.476 113.148 239.496 C112.955 238.546 112.762 237.596 112.563 236.618 C112.095 234.443 111.534 232.288 110.949 230.141 C108.512 220.613 108.231 210.427 107.345 200.664 C107.035 197.376 106.676 194.098 106.305 190.816 C104.864 176.259 104.864 176.259 109.688 169.812 C110.425 169.003 111.162 168.193 111.922 167.359 C115.121 163.727 116.559 159.566 118 155 C118.188 154.413 118.376 153.827 118.57 153.223 C120.133 145.137 120.55 135.506 116.438 128.188 C112.811 123.135 108.87 120.957 103 119 C97.026 118.597 91.579 118.587 86 121 C86 120.34 86 119.68 86 119 C85.434 118.746 84.868 118.492 84.285 118.23 C67.746 109.325 56.821 88.467 51.621 71.156 C51.416 70.445 51.211 69.733 51 69 C50.723 68.165 50.446 67.329 50.16 66.469 C47.904 59.232 47.676 52.546 48 45 C44.476 47.546 44.476 47.546 42 51 C40.507 72.315 48.838 93.414 62.438 109.725 C66.135 113.973 70.019 118.019 74 122 C74.145 124.745 74.187 127.385 74.125 130.125 C74.116 130.879 74.107 131.633 74.098 132.41 C74.074 134.274 74.038 136.137 74 138 C77.906 138.436 77.906 138.436 79.859 136.391 C80.483 135.684 81.107 134.978 81.75 134.25 C86.728 129.06 91.313 125.915 98.625 125.438 C103.385 125.675 105.773 127.466 109 131 C112.784 136.298 112.718 141.737 112 148 C110.186 156.463 106.79 162.647 101 169 C100.33 169.785 99.659 170.57 98.969 171.379 C91.287 179.827 82.015 182.981 71 185 C71.104 186.021 71.104 186.021 71.211 187.062 C71.754 196.789 68.866 204.278 65 213 C64.727 213.622 64.455 214.245 64.174 214.886 C59.207 226.015 52.743 235.489 44 244 C43.303 244.718 42.605 245.436 41.887 246.176 C29.138 258.562 11.155 265.7 -6.6 265.543 C-25.776 264.705 -42.501 253.182 -55.512 239.867 C-70.836 222.21 -76.732 201.923 -76.312 179 C-76.295 177.247 -76.28 175.493 -76.266 173.74 C-76.17 164.212 -75.897 154.702 -75.363 145.188 C-74.954 137.453 -74.855 129.719 -74.823 121.974 C-74.816 120.514 -74.806 119.055 -74.792 117.595 C-74.727 110.253 -74.86 103.25 -76.561 96.071 C-77.136 93.359 -77.145 90.76 -77 88 C-68.015 85.587 -59.03 83.214 -49.965 81.115 C-40.141 78.839 -30.558 76.209 -21 73 C-20.223 72.745 -19.446 72.49 -18.646 72.227 C9.421 63.57 9.421 63.57 32 46 C31.955 43.725 31.955 43.725 31 42 C25.685 41.505 23.466 42.694 19.312 45.938 C3.222 57.688 -15.751 63.217 -34.586 68.956 C-36.746 69.617 -38.902 70.292 -41.05 70.989 C-41.94 71.274 -42.83 71.558 -43.746 71.852 C-44.505 72.1 -45.263 72.348 -46.045 72.604 C-48 73 -48 73 -51 72 C-31.049 62.245 -11.514 52.73 10 47 C10 46.34 10 45.68 10 45 C3.67 44.689 -1.277 45.636 -7.25 47.688 C-8.14 47.989 -9.031 48.291 -9.948 48.602 C-39.584 58.989 -39.584 58.989 -65.84 75.602 C-69.408 77.911 -73.434 78.432 -77.562 79.25 C-78.426 79.436 -79.289 79.621 -80.178 79.812 C-86.606 81.131 -86.606 81.131 -90 80 C-89.212 79.394 -88.425 78.788 -87.613 78.164 C-87.094 77.765 -86.575 77.365 -86.04 76.954 C-84.869 76.053 -83.698 75.152 -82.526 74.251 C-79.63 72.024 -76.735 69.796 -73.84 67.566 C-71.734 65.945 -69.627 64.325 -67.52 62.707 C-64.949 60.733 -62.386 58.749 -59.824 56.762 C-23.934 29 -23.934 29 -10 29 C-10 28.34 -10 27.68 -10 27 C-34.383 27.927 -55.34 47.238 -73.65 61.814 C-78.558 65.7 -83.569 69.434 -88.625 73.125 C-89.396 73.694 -90.167 74.263 -90.961 74.85 C-91.688 75.376 -92.415 75.903 -93.164 76.445 C-93.808 76.915 -94.452 77.384 -95.116 77.868 C-97.14 79.084 -98.649 79.743 -101 80 C-103.75 77.938 -103.75 77.938 -106 75 C-106.801 67.851 -103.118 63.511 -99 58 C-96.541 55.109 -94.008 52.321 -91.406 49.559 C-89.359 47.382 -87.42 45.162 -85.5 42.875 C-73.937 29.645 -59.224 19.535 -44 11 C-42.656 10.242 -42.656 10.242 -41.285 9.469 C-34.805 6.024 -28.032 4.018 -21 2 C-19.866 1.588 -18.731 1.175 -17.562 0.75 C-11.731 -0.478 -5.933 -0.2 0 0 Z " fill="#FCFCFC" transform="translate(512,205)"/>
<path d="M0 0 C9.908 6.39 14.27 15.396 16.875 26.562 C18.294 34.174 18.554 41.694 18.774 49.421 C19.029 57.296 19.733 65.055 20.688 72.875 C20.818 73.957 20.949 75.039 21.084 76.154 C21.575 81.236 21.575 81.236 23.188 86 C23.92 94.83 23.656 103.161 19.188 111 C17.087 113.429 14.875 115.256 12.188 117 C11.408 117.509 10.628 118.018 9.824 118.543 C7.057 120.072 4.47 120.934 1.438 121.812 C-5.847 124.157 -12.557 127.414 -16.812 134 C-18.414 141.651 -15.658 147.461 -11.875 153.938 C-10.948 155.592 -10.022 157.247 -9.098 158.902 C-8.684 159.619 -8.27 160.336 -7.844 161.074 C-6.057 164.41 -5.63 167.211 -5.562 170.938 C-5.524 172.219 -5.524 172.219 -5.484 173.527 C-5.908 176.721 -6.255 177.975 -8.812 180 C-16.96 180.198 -23.764 176.824 -31.062 173.5 C-32.259 172.963 -33.455 172.427 -34.688 171.874 C-42.222 168.413 -49.063 164.703 -55.625 159.645 C-61.301 155.377 -69.242 156.609 -75.953 157.344 C-80.583 158.056 -84.876 158.941 -89.25 160.625 C-95.679 162.889 -102.968 163.392 -109.434 161.051 C-111.7 159.839 -113.739 158.516 -115.812 157 C-116.844 156.299 -117.875 155.597 -118.938 154.875 C-126.954 147.722 -130.981 136.743 -134.812 127 C-135.064 126.387 -135.316 125.773 -135.576 125.142 C-137.66 119.903 -138.865 114.65 -139.938 109.125 C-140.271 107.44 -140.607 105.755 -140.945 104.07 C-141.089 103.336 -141.232 102.601 -141.379 101.844 C-141.757 99.92 -141.757 99.92 -142.812 98 C-143.089 96.087 -143.333 94.169 -143.562 92.25 C-144.308 86.679 -145.408 81.318 -146.742 75.859 C-152.395 52.631 -152.395 52.631 -147.938 43 C-139.741 30.637 -120.383 27.425 -106.932 23.607 C-103.716 22.686 -100.516 21.712 -97.312 20.75 C-88.66 18.187 -79.954 15.817 -71.25 13.438 C-70.558 13.248 -69.865 13.058 -69.152 12.862 C-61.587 10.791 -54.013 8.789 -46.395 6.922 C-40.518 5.476 -34.772 3.818 -29.062 1.812 C-19.605 -1.451 -9.565 -4.898 0 0 Z " fill="#FCFCFC" transform="translate(321.8125,213)"/>
<path d="M0 0 C1.567 0.275 3.142 0.509 4.719 0.719 C5.651 0.846 6.583 0.974 7.543 1.105 C8.519 1.236 9.495 1.366 10.5 1.5 C12.428 1.757 14.355 2.017 16.281 2.281 C17.138 2.395 17.994 2.509 18.877 2.627 C21 3 21 3 23 4 C24.258 4.124 25.516 4.247 26.812 4.375 C31.831 4.888 36.626 6.002 41.527 7.172 C52.513 9.874 52.513 9.874 63.688 11.5 C67.828 11.884 71.59 12.952 75.57 14.125 C78.346 14.833 81.049 15.388 83.867 15.875 C84.741 16.031 85.616 16.186 86.516 16.346 C88.256 16.65 89.998 16.936 91.743 17.202 C98.469 18.398 103.168 21.168 108 26 C108.436 29.244 108.255 30.629 106.383 33.359 C98.36 41.854 89.796 49.406 80.719 56.75 C78.079 58.935 75.533 61.192 73 63.5 C68.7 67.419 64.241 71.092 59.719 74.75 C57.079 76.935 54.533 79.192 52 81.5 C46.827 86.205 41.464 90.638 36 95 C35.288 95.58 34.577 96.16 33.844 96.758 C24.01 104.523 15.374 105.892 3 105 C-3.454 104.24 -9.817 102.948 -16.188 101.688 C-17.835 101.374 -19.483 101.063 -21.131 100.752 C-29.236 99.21 -37.293 97.541 -45.311 95.588 C-49.188 94.74 -53.054 94.388 -57 94 C-57.66 93.67 -58.32 93.34 -59 93 C-60.496 92.799 -61.997 92.637 -63.5 92.5 C-67.778 92.111 -67.778 92.111 -70 91 C-71.496 90.799 -72.997 90.637 -74.5 90.5 C-78.778 90.111 -78.778 90.111 -81 89 C-83.748 88.556 -86.495 88.146 -89.25 87.75 C-96.826 86.598 -104.326 85.201 -111.812 83.562 C-112.736 83.369 -113.66 83.176 -114.612 82.978 C-120.986 81.542 -125.315 79.685 -130 75 C-130.612 71.053 -130.971 68.493 -128.754 65.084 C-124.083 59.834 -118.998 55.672 -113.312 51.562 C-111.52 50.243 -109.727 48.924 -107.934 47.605 C-107.077 46.981 -106.221 46.356 -105.339 45.712 C-102.494 43.63 -99.684 41.506 -96.875 39.375 C-88.999 33.471 -81 27.735 -73 22 C-72.255 21.464 -71.509 20.928 -70.741 20.375 C-24.997 -12.498 -24.997 -12.498 0 0 Z " fill="#FDFDFD" transform="translate(412,807)"/>
<path d="M0 0 C1.029 0.126 2.057 0.251 3.117 0.38 C17.56 2.061 32.032 2.835 46.552 3.529 C48.587 3.626 50.621 3.725 52.655 3.824 C79.294 5.112 105.75 5.616 132.405 4.269 C133.397 4.22 134.388 4.171 135.41 4.121 C136.712 4.05 136.712 4.05 138.039 3.978 C140 4 140 4 141 5 C141.337 7.221 141.614 9.451 141.867 11.684 C142.031 13.091 142.194 14.499 142.358 15.906 C142.442 16.646 142.526 17.386 142.613 18.149 C144.277 32.899 144.277 32.899 146.562 47.562 C148.151 56.444 149.225 65.376 150.305 74.332 C151.001 80.098 151.809 85.842 152.668 91.586 C153.104 96.065 153.066 100.503 153 105 C151.942 105.045 150.884 105.09 149.794 105.136 C145.812 105.308 141.832 105.497 137.851 105.69 C136.139 105.771 134.426 105.847 132.713 105.919 C114.787 106.438 114.787 106.438 98.375 113 C97.578 113.495 96.782 113.99 95.961 114.5 C93.53 116.36 92.159 118.014 91.664 121.086 C91.597 125.01 91.659 127.397 93.625 130.875 C98.175 134.946 103.218 136.497 109 138 C106.654 139.892 104.314 141.772 101.875 143.543 C94.132 149.259 87.616 156.244 85.312 165.875 C85.209 166.576 85.106 167.278 85 168 C83.02 167.01 83.02 167.01 81 166 C81.495 165.196 81.495 165.196 82 164.375 C83.276 161.343 83.334 159.269 83 156 C81.574 153.289 81.574 153.289 80 151 C80 150.34 80 149.68 80 149 C80.825 148.526 81.65 148.051 82.5 147.562 C85.427 144.562 85.461 143.628 85.625 139.562 C85.428 135.847 85.19 134.291 83.125 131.125 C75.905 126.215 68.423 123.204 60 121 C62.078 118.922 63.097 118.508 65.812 117.625 C70.077 116.097 73.897 114.206 76 110 C76.628 104.602 76.628 104.602 74.57 99.84 C70.798 97.14 67.1 96.948 62.562 96.438 C60.751 96.202 58.94 95.962 57.129 95.719 C56.249 95.601 55.368 95.484 54.461 95.363 C50.222 94.738 46.103 93.73 41.965 92.633 C38.976 91.898 38.976 91.898 35.754 91.93 C32.328 91.804 30.068 91.548 27 90 C23.776 85.075 22.498 79.644 21 74 C20.425 71.968 19.847 69.937 19.266 67.906 C18.036 63.577 16.836 59.241 15.652 54.898 C14.41 50.389 13.041 45.977 11.5 41.562 C6.814 27.987 3.466 13.928 0 0 Z " fill="#FCFCFC" transform="translate(375,608)"/>
<path d="M0 0 C16.641 1.182 32.897 5.046 49.145 8.639 C52.095 9.281 55.048 9.895 58.008 10.488 C81.211 15.145 81.211 15.145 84.418 18.352 C84.63 26.899 82.689 34.955 80.634 43.176 C78.539 51.627 76.772 60.133 75.043 68.664 C72.771 79.823 70.472 90.975 68.063 102.106 C67.76 103.509 67.459 104.913 67.16 106.317 C66.745 108.265 66.322 110.211 65.898 112.156 C65.66 113.26 65.422 114.363 65.177 115.5 C64.503 118.03 63.697 120.079 62.418 122.352 C55.396 122.706 49.223 121.383 42.418 119.727 C41.285 119.459 40.151 119.191 38.983 118.915 C32.214 117.305 25.47 115.608 18.729 113.884 C17.719 113.626 16.709 113.368 15.668 113.102 C14.677 112.848 13.686 112.594 12.666 112.333 C6.072 110.677 -0.407 109.441 -7.168 108.676 C-9.582 108.352 -9.582 108.352 -11.582 107.352 C-13.5 107.166 -13.5 107.166 -15.457 106.977 C-19.337 106.568 -23.089 105.901 -26.895 105.039 C-28.374 104.705 -28.374 104.705 -29.883 104.363 C-33.107 103.155 -34.592 102.173 -36.582 99.352 C-36.862 94.573 -36.324 90.415 -35.191 85.781 C-34.745 83.94 -34.745 83.94 -34.289 82.062 C-33.973 80.797 -33.657 79.531 -33.332 78.227 C-32.882 76.363 -32.882 76.363 -32.422 74.461 C-30.692 67.408 -28.738 60.472 -26.56 53.545 C-24.901 48.128 -23.492 42.65 -22.082 37.164 C-21.779 35.997 -21.475 34.831 -21.163 33.628 C-19.218 26.071 -17.404 18.498 -16 10.82 C-13.955 0.597 -9.456 -0.407 0 0 Z " fill="#FBFBFB" transform="translate(679.58203125,503.6484375)"/>
<path d="M0 0 C6.074 0.336 10.463 2.468 15.758 5.332 C16.995 5.982 16.995 5.982 18.258 6.644 C21.76 8.483 25.251 10.346 28.741 12.208 C45.714 21.436 45.714 21.436 64.438 25.5 C68.991 25.854 71.563 26.802 75 30 C82.985 40.842 85.179 54.712 85.188 67.812 C85.2 68.772 85.212 69.732 85.225 70.721 C85.238 77.128 84.921 83.158 82 89 C81.195 89.025 80.39 89.05 79.56 89.076 C76.5 89.173 73.439 89.272 70.379 89.372 C68.432 89.436 66.486 89.496 64.539 89.557 C57.056 89.805 49.609 90.222 42.143 90.784 C38.091 91.062 34.061 91.184 30 91.188 C29.303 91.2 28.605 91.212 27.887 91.225 C23.501 91.237 20.095 90.499 16 89 C14.09 88.648 12.173 88.335 10.25 88.062 C3.955 87.073 -1.925 85.313 -7.977 83.363 C-16.332 80.939 -24.213 80.623 -32 84.812 C-34.505 86.322 -36.806 87.84 -39.062 89.699 C-41 91 -41 91 -45 91 C-45.578 86.378 -45.262 83.797 -42.562 79.938 C-36.132 72.094 -26.676 67.639 -17.125 64.812 C-15.973 64.468 -14.82 64.124 -13.633 63.77 C-12.764 63.516 -11.895 63.262 -11 63 C-11 62.01 -11 61.02 -11 60 C-15.639 57.68 -21.195 58.457 -26.012 59.906 C-38.826 65.025 -47.317 71.813 -54 84 C-57.875 83.125 -57.875 83.125 -59 82 C-59.778 74.086 -57.907 67.915 -54 61 C-44.34 49.253 -27.013 47.451 -13 45 C-13 43.68 -13 42.36 -13 41 C-28.769 40.313 -43.002 42.053 -56 52 C-58.056 54.301 -59.818 56.596 -61.5 59.18 C-63 61 -63 61 -65.062 61.883 C-66.022 61.941 -66.022 61.941 -67 62 C-69 60 -69 60 -69.125 56.062 C-68.039 48.143 -62.267 41.511 -56.188 36.625 C-49.065 31.759 -40.997 27.979 -32.305 27.789 C-31.424 27.761 -30.544 27.732 -29.637 27.703 C-27.788 27.651 -25.939 27.607 -24.09 27.57 C-23.212 27.539 -22.334 27.508 -21.43 27.477 C-20.628 27.457 -19.826 27.437 -19 27.417 C-16.601 27.161 -16.601 27.161 -15 24 C-17.988 22.96 -20.989 21.971 -24 21 C-24.762 20.749 -25.524 20.497 -26.309 20.238 C-33.607 18.031 -41.009 17.063 -48.563 16.178 C-53.618 15.539 -57.539 14.654 -62 12 C-61.875 10.25 -61.875 10.25 -61 8 C-53.685 2.216 -46.921 1.695 -37.949 1.621 C-36.895 1.604 -35.84 1.587 -34.754 1.57 C-31.398 1.517 -28.043 1.476 -24.688 1.438 C-21.314 1.394 -17.941 1.347 -14.568 1.295 C-12.471 1.263 -10.375 1.236 -8.278 1.214 C-7.336 1.201 -6.395 1.187 -5.425 1.174 C-4.592 1.164 -3.76 1.155 -2.902 1.145 C-0.99 1.207 -0.99 1.207 0 0 Z " fill="#FCFCFC" transform="translate(536,721)"/>
<path d="M0 0 C0.929 0.626 1.859 1.253 2.816 1.898 C15.36 10.179 36.358 11.167 51 12 C51.495 13.98 51.495 13.98 52 16 C43.119 21.723 34.221 23.207 23.812 23.812 C22.969 23.866 22.126 23.919 21.257 23.973 C15.739 24.214 11.313 23.469 6 22 C3.134 22.268 3.134 22.268 1 23 C0.67 24.32 0.34 25.64 0 27 C9.697 30.452 19.403 32.743 29.625 34 C39.996 35.311 53.901 37.378 61 46 C61.312 48.562 61.312 48.562 61 51 C60.01 51.99 60.01 51.99 59 53 C55.264 52.755 52.195 52.485 48.727 51.078 C32.872 44.809 14.847 43.564 -2 44 C-1.505 46.475 -1.505 46.475 -1 49 C1.882 49.796 4.619 50.205 7.598 50.43 C26.626 51.975 26.626 51.975 35 55 C35.833 55.299 36.665 55.598 37.523 55.906 C54.563 62.407 54.563 62.407 58 68 C58 70.125 58 70.125 57 72 C54.38 73.528 52.73 74.088 49.703 73.723 C46.556 72.881 43.911 71.588 41 70.125 C27.075 63.667 14.071 63.604 -1 64 C-1.495 65.98 -1.495 65.98 -2 68 C0.769 68.923 2.768 69.196 5.648 69.359 C20.704 70.358 33.665 71.994 45 83 C48.034 86.837 48.034 86.837 47.938 90.125 C46.707 92.586 45.358 93.613 43 95 C42.01 95 41.02 95 40 95 C39.814 94.299 39.629 93.597 39.438 92.875 C36.867 87.735 32.608 84.91 27.688 82.125 C23.02 80.701 18.837 80.737 14 81 C13.505 82.485 13.505 82.485 13 84 C13.557 84.242 14.114 84.485 14.688 84.734 C17.132 85.808 19.566 86.903 22 88 C22.773 88.335 23.547 88.67 24.344 89.016 C25.055 89.34 25.767 89.665 26.5 90 C27.15 90.289 27.799 90.577 28.469 90.875 C30 92 30 92 30.719 94.125 C30.812 94.744 30.904 95.362 31 96 C26.15 96.359 22.806 96.115 18.332 94.16 C13.324 92.075 8.296 90.588 3.062 89.188 C-10.378 85.447 -23.402 80.976 -35.938 74.812 C-36.594 74.492 -37.251 74.171 -37.927 73.84 C-44.803 70.326 -44.803 70.326 -47 67 C-47.534 63.612 -47.466 60.296 -47.375 56.875 C-47.374 55.975 -47.372 55.075 -47.371 54.148 C-47.169 38.529 -42.129 25.437 -31.203 14.121 C-22.393 5.639 -12.86 -1.476 0 0 Z " fill="#FAFAFA" transform="translate(392,700)"/>
<path d="M0 0 C14.212 -0.985 26.712 1.909 38 11 C38.758 11.585 39.516 12.17 40.297 12.773 C51.849 22.271 57.467 35.49 60 50 C60.095 51.57 60.148 53.144 60.161 54.717 C60.171 55.626 60.18 56.536 60.19 57.473 C60.194 58.45 60.199 59.427 60.203 60.434 C60.209 61.462 60.215 62.49 60.22 63.55 C60.23 65.734 60.236 67.919 60.24 70.104 C60.25 73.367 60.281 76.63 60.312 79.893 C60.406 98.271 58.499 115.965 54.312 133.875 C54.088 134.873 53.863 135.87 53.631 136.898 C53.096 139.268 52.552 141.635 52 144 C51.34 144 50.68 144 50 144 C49.642 143.331 49.285 142.663 48.916 141.974 C45.293 135.259 41.485 128.693 37.5 122.188 C36.891 121.192 36.282 120.196 35.655 119.17 C25.87 103.221 15.737 87.516 5.375 71.938 C4.937 71.278 4.5 70.619 4.049 69.94 C2.793 68.05 1.534 66.163 0.273 64.277 C-0.454 63.187 -1.182 62.096 -1.932 60.972 C-3.909 57.986 -3.909 57.986 -6.267 55.545 C-9.119 51.357 -8.25 47.565 -7.481 42.746 C-7.242 41.654 -7.004 40.562 -6.758 39.438 C-6.496 38.228 -6.234 37.019 -5.965 35.773 C-5.688 34.528 -5.411 33.283 -5.125 32 C-4.721 30.132 -4.721 30.132 -4.309 28.227 C-2.128 18.249 -2.128 18.249 -0.812 13.996 C0.033 10.88 0.204 8.281 0.125 5.062 C0.098 3.626 0.098 3.626 0.07 2.16 C0.047 1.447 0.024 0.734 0 0 Z " fill="#FCFCFC" transform="translate(771,520)"/>
<path d="M0 0 C9.908 6.39 14.27 15.396 16.875 26.562 C18.294 34.174 18.554 41.694 18.774 49.421 C19.029 57.296 19.733 65.055 20.688 72.875 C20.818 73.957 20.949 75.039 21.084 76.154 C21.575 81.236 21.575 81.236 23.188 86 C23.92 94.83 23.656 103.161 19.188 111 C17.087 113.429 14.875 115.256 12.188 117 C11.408 117.509 10.628 118.018 9.824 118.543 C7.057 120.072 4.47 120.934 1.438 121.812 C-5.847 124.157 -12.557 127.414 -16.812 134 C-18.414 141.651 -15.658 147.461 -11.875 153.938 C-10.948 155.592 -10.022 157.247 -9.098 158.902 C-8.684 159.619 -8.27 160.336 -7.844 161.074 C-6.057 164.41 -5.63 167.211 -5.562 170.938 C-5.524 172.219 -5.524 172.219 -5.484 173.527 C-5.908 176.721 -6.255 177.975 -8.812 180 C-16.96 180.198 -23.764 176.824 -31.062 173.5 C-32.259 172.963 -33.455 172.427 -34.688 171.874 C-42.222 168.413 -49.063 164.703 -55.625 159.645 C-61.301 155.377 -69.242 156.609 -75.953 157.344 C-80.583 158.056 -84.876 158.941 -89.25 160.625 C-95.679 162.889 -102.968 163.392 -109.434 161.051 C-111.7 159.839 -113.739 158.516 -115.812 157 C-116.844 156.299 -117.875 155.597 -118.938 154.875 C-126.954 147.722 -130.981 136.743 -134.812 127 C-135.064 126.387 -135.316 125.773 -135.576 125.142 C-137.66 119.903 -138.865 114.65 -139.938 109.125 C-140.271 107.44 -140.607 105.755 -140.945 104.07 C-141.089 103.336 -141.232 102.601 -141.379 101.844 C-141.757 99.92 -141.757 99.92 -142.812 98 C-143.089 96.087 -143.333 94.169 -143.562 92.25 C-144.308 86.679 -145.408 81.318 -146.742 75.859 C-152.395 52.631 -152.395 52.631 -147.938 43 C-139.741 30.637 -120.383 27.425 -106.932 23.607 C-103.716 22.686 -100.516 21.712 -97.312 20.75 C-88.66 18.187 -79.954 15.817 -71.25 13.438 C-70.558 13.248 -69.865 13.058 -69.152 12.862 C-61.587 10.791 -54.013 8.789 -46.395 6.922 C-40.518 5.476 -34.772 3.818 -29.062 1.812 C-19.605 -1.451 -9.565 -4.898 0 0 Z M-17.812 8 C-19.602 8.268 -21.394 8.515 -23.188 8.75 C-28.867 9.651 -33.586 11.447 -38.816 13.773 C-42.667 15.35 -46.539 16.287 -50.588 17.208 C-53.737 17.981 -56.791 18.903 -59.879 19.891 C-66.466 21.94 -73.105 23.588 -79.812 25.188 C-90.082 27.699 -100.215 30.503 -110.312 33.625 C-111.486 33.985 -112.659 34.345 -113.867 34.716 C-129.317 38.879 -129.317 38.879 -140.812 49 C-144.732 56.838 -140.638 67.85 -138.5 75.688 C-136.494 83.329 -134.52 90.898 -133.188 98.688 C-130.347 114.753 -125.464 134.954 -113.812 147 C-113.338 147.522 -112.864 148.044 -112.375 148.582 C-107.743 152.786 -102.759 152.579 -96.742 152.375 C-92.611 151.981 -88.63 151.296 -84.562 150.5 C-71.735 148.043 -59.742 146.363 -48.391 153.98 C-46.529 155.438 -44.724 156.968 -42.957 158.539 C-39.495 161.249 -36.335 162.692 -32.25 164.188 C-31.604 164.434 -30.957 164.681 -30.291 164.936 C-28.468 165.631 -26.64 166.316 -24.812 167 C-23.917 167.388 -23.021 167.776 -22.098 168.176 C-19.59 169.226 -19.59 169.226 -15.812 169 C-16.309 163.618 -17.74 159.523 -20.312 154.75 C-24.327 147.108 -26.521 140.377 -24.199 131.711 C-20.306 122.826 -11.241 118.753 -2.812 115 C-0.982 114.291 0.849 113.581 2.681 112.874 C9.087 110.531 9.087 110.531 14.062 106.125 C17.053 98.828 15.877 88.873 14.219 81.348 C12.869 75.026 12.649 68.691 12.312 62.25 C11.748 53.013 10.957 43.924 9.312 34.812 C9.163 33.96 9.014 33.108 8.86 32.229 C7.344 24.413 5.041 15.681 -0.812 10 C-5.676 6.72 -12.336 5.262 -17.812 8 Z " fill="#0C0C0D" transform="translate(321.8125,213)"/>
<path d="M0 0 C1.567 0.275 3.142 0.509 4.719 0.719 C5.651 0.846 6.583 0.974 7.543 1.105 C8.519 1.236 9.495 1.366 10.5 1.5 C12.428 1.757 14.355 2.017 16.281 2.281 C17.138 2.395 17.994 2.509 18.877 2.627 C21 3 21 3 23 4 C24.258 4.124 25.516 4.247 26.812 4.375 C31.831 4.888 36.626 6.002 41.527 7.172 C52.513 9.874 52.513 9.874 63.688 11.5 C67.828 11.884 71.59 12.952 75.57 14.125 C78.346 14.833 81.049 15.388 83.867 15.875 C84.741 16.031 85.616 16.186 86.516 16.346 C88.256 16.65 89.998 16.936 91.743 17.202 C98.469 18.398 103.168 21.168 108 26 C108.436 29.244 108.255 30.629 106.383 33.359 C98.36 41.854 89.796 49.406 80.719 56.75 C78.079 58.935 75.533 61.192 73 63.5 C68.7 67.419 64.241 71.092 59.719 74.75 C57.079 76.935 54.533 79.192 52 81.5 C46.827 86.205 41.464 90.638 36 95 C35.288 95.58 34.577 96.16 33.844 96.758 C24.01 104.523 15.374 105.892 3 105 C-3.454 104.24 -9.817 102.948 -16.188 101.688 C-17.835 101.374 -19.483 101.063 -21.131 100.752 C-29.236 99.21 -37.293 97.541 -45.311 95.588 C-49.188 94.74 -53.054 94.388 -57 94 C-57.66 93.67 -58.32 93.34 -59 93 C-60.496 92.799 -61.997 92.637 -63.5 92.5 C-67.778 92.111 -67.778 92.111 -70 91 C-71.496 90.799 -72.997 90.637 -74.5 90.5 C-78.778 90.111 -78.778 90.111 -81 89 C-83.748 88.556 -86.495 88.146 -89.25 87.75 C-96.826 86.598 -104.326 85.201 -111.812 83.562 C-112.736 83.369 -113.66 83.176 -114.612 82.978 C-120.986 81.542 -125.315 79.685 -130 75 C-130.612 71.053 -130.971 68.493 -128.754 65.084 C-124.083 59.834 -118.998 55.672 -113.312 51.562 C-111.52 50.243 -109.727 48.924 -107.934 47.605 C-107.077 46.981 -106.221 46.356 -105.339 45.712 C-102.494 43.63 -99.684 41.506 -96.875 39.375 C-88.999 33.471 -81 27.735 -73 22 C-72.255 21.464 -71.509 20.928 -70.741 20.375 C-24.997 -12.498 -24.997 -12.498 0 0 Z M-56.098 19.608 C-58.73 21.534 -61.401 23.402 -64.074 25.271 C-94.477 45.398 -94.477 45.398 -122 69 C-121.288 72.29 -121.288 72.29 -118.001 73.58 C-113.759 75.237 -109.463 76.004 -104.98 76.719 C-103.694 76.935 -103.694 76.935 -102.382 77.155 C-99.652 77.612 -96.92 78.056 -94.188 78.5 C-92.396 78.797 -90.605 79.096 -88.814 79.395 C-82.685 80.415 -76.553 81.42 -70.421 82.421 C-67.973 82.82 -65.525 83.222 -63.078 83.625 C-62.355 83.742 -61.633 83.859 -60.888 83.98 C-56.734 84.664 -52.651 85.5 -48.562 86.5 C-42.329 88.017 -36.054 88.997 -29.709 89.91 C-24.997 90.606 -20.581 91.66 -16 93 C-14.402 93.234 -12.797 93.43 -11.188 93.562 C-7.203 93.899 -7.203 93.899 -5 95 C9.775 98.278 9.775 98.278 23.918 94.449 C31.58 89.116 38.399 82.77 45.258 76.465 C48.784 73.296 52.443 70.316 56.129 67.336 C60.91 63.446 65.599 59.45 70.291 55.455 C71.442 54.475 72.595 53.496 73.748 52.518 C77.854 49.037 81.935 45.528 86 42 C86.589 41.493 87.177 40.987 87.784 40.465 C89.492 38.989 91.185 37.497 92.875 36 C93.862 35.134 94.85 34.268 95.867 33.375 C98.445 31.036 98.445 31.036 98 27 C91.92 24.756 86.106 23.384 79.688 22.562 C72.368 21.547 65.12 20.33 57.875 18.875 C57.016 18.704 56.157 18.534 55.272 18.358 C49.265 17.133 49.265 17.133 47 16 C45.504 15.799 44.003 15.637 42.5 15.5 C38.222 15.111 38.222 15.111 36 14 C34.67 13.749 33.332 13.539 31.992 13.352 C30.771 13.176 30.771 13.176 29.525 12.998 C28.65 12.875 27.776 12.752 26.875 12.625 C17.862 11.317 8.935 9.761 0 8 C-1.013 7.803 -2.026 7.606 -3.07 7.402 C-9.47 6.143 -9.47 6.143 -11.882 5.492 C-29.848 1.316 -42.209 9.339 -56.098 19.608 Z " fill="#0D0D0D" transform="translate(412,807)"/>
<path d="M0 0 C2 1.141 2 1.141 4 3 C4.25 5.609 4.25 5.609 4 8.75 C3.433 29.213 14.841 47.251 25.569 63.77 C34.931 78.365 40.976 91.543 37.375 109.25 C33.987 118.49 29.422 130.59 20.285 135.441 C15.942 137.115 11.692 138.731 7 138 C5.34 136.129 5.34 136.129 3.938 133.562 C3.472 132.739 3.007 131.915 2.527 131.066 C2.023 130.054 1.519 129.043 1 128 C0.676 127.357 0.352 126.713 0.019 126.051 C-2.863 120.012 -4.324 113.979 -5.625 107.438 C-6.033 105.457 -6.442 103.476 -6.852 101.496 C-7.141 100.071 -7.141 100.071 -7.437 98.618 C-7.905 96.443 -8.466 94.288 -9.051 92.141 C-11.488 82.613 -11.769 72.427 -12.655 62.664 C-12.965 59.376 -13.324 56.098 -13.695 52.816 C-15.136 38.259 -15.136 38.259 -10.312 31.812 C-9.206 30.598 -9.206 30.598 -8.078 29.359 C-2.522 23.052 -1.007 14.381 -0.438 6.25 C-0.354 5.08 -0.27 3.909 -0.184 2.703 C-0.123 1.811 -0.062 0.919 0 0 Z " fill="#FBFBFB" transform="translate(632,343)"/>
<path d="M0 0 C3.454 0.764 6.811 1.763 10.188 2.812 C11.076 3.074 11.965 3.335 12.881 3.604 C17.145 4.901 20.619 5.977 24 9 C24.759 12.987 23.843 15.514 22.094 19.02 C19.319 25.106 18.549 31.348 17.578 37.916 C16.425 45.056 14.769 51.158 9.625 56.438 C5.872 58.055 3.657 58.193 -0.375 58.312 C-6.459 58.543 -10.6 59.914 -15.938 62.562 C-27.331 68.05 -37.973 67.013 -49.891 63.211 C-55.222 61.135 -60.283 58.452 -64 54 C-64.663 48.942 -64.656 47.022 -61.875 42.688 C-57.03 38.158 -53.017 36.701 -46.438 36.625 C-38.453 36.21 -30.099 34.474 -23.848 29.176 C-18.001 22.291 -14.302 13.878 -11.141 5.496 C-8.537 -0.201 -6.22 -0.572 0 0 Z " fill="#FAFAFA" transform="translate(724,530)"/>
<path d="M0 0 C0.99 0 1.98 0 3 0 C4.013 3.397 4.182 6.585 4.281 10.121 C4.337 11.895 4.337 11.895 4.395 13.705 C4.447 15.553 4.447 15.553 4.5 17.438 C4.569 19.874 4.642 22.31 4.719 24.746 C4.749 25.826 4.779 26.905 4.811 28.017 C4.956 31.36 4.956 31.36 6 36 C10.95 36.99 15.9 37.98 21 39 C17.804 48.589 11.775 54.174 3 59 C-9.586 65.025 -23.603 67.511 -37.25 63.5 C-47.119 59.709 -55.264 53.575 -60 44 C-60.886 41.648 -61.475 39.467 -62 37 C-55.07 37.495 -55.07 37.495 -48 38 C-47.631 31.58 -47.631 31.58 -49 28 C-48.377 28.021 -47.753 28.042 -47.111 28.063 C-30.967 28.533 -16.113 28.856 -3 18 C-2.43 17.603 -1.86 17.206 -1.273 16.797 C0.782 13.897 0.312 10.724 0.188 7.312 C0.174 6.611 0.16 5.909 0.146 5.186 C0.111 3.457 0.057 1.728 0 0 Z " fill="#FBFBFB" transform="translate(564,451)"/>
<path d="M0 0 C0.33 0 0.66 0 1 0 C0.955 0.977 0.955 0.977 0.908 1.974 C0.335 14.603 -0.124 27.234 -0.25 39.875 C-0.271 40.912 -0.293 41.949 -0.314 43.017 C-0.344 49.495 0.628 55.076 2.335 61.316 C3.769 67.105 2.913 72.15 1.625 77.875 C-2.279 96.614 -2.235 114.953 -2 134 C-17.247 135.21 -17.247 135.21 -21.172 132.5 C-22.565 130.299 -23.312 128.519 -24 126 C-24.53 124.186 -24.53 124.186 -25.07 122.336 C-29.382 104.526 -24.267 87.255 -17.961 70.684 C-16.433 66.418 -15.269 62.056 -14.059 57.691 C-13.003 54.01 -11.822 50.388 -10.625 46.75 C-8.298 39.51 -6.526 32.157 -4.812 24.75 C-4.563 23.673 -4.313 22.597 -4.055 21.487 C-2.44 14.361 -1.123 7.219 0 0 Z " fill="#F9F9F9" transform="translate(428,348)"/>
<path d="M0 0 C2.234 1.523 2.234 1.523 4 3 C3.285 3.257 2.569 3.513 1.832 3.777 C-15.17 10.31 -26.38 20.225 -34.438 36.438 C-41.109 52.313 -41.294 69.112 -39.218 86.02 C-38.94 88.542 -38.902 91.026 -38.938 93.562 C-38.947 94.409 -38.956 95.256 -38.965 96.129 C-38.976 96.746 -38.988 97.364 -39 98 C-43.118 98.412 -45.431 98.325 -49.062 96.25 C-56.686 89.076 -59.928 77.541 -60.336 67.391 C-60.65 46.069 -60.65 46.069 -56 37 C-55.329 35.689 -55.329 35.689 -54.645 34.352 C-45.16 17.416 -20.707 -2.071 0 0 Z " fill="#F9F9F9" transform="translate(376,690)"/>
<path d="M0 0 C3.454 0.764 6.811 1.763 10.188 2.812 C11.076 3.074 11.965 3.335 12.881 3.604 C17.145 4.901 20.619 5.977 24 9 C24.759 12.987 23.843 15.514 22.094 19.02 C19.319 25.106 18.549 31.348 17.578 37.916 C16.425 45.056 14.769 51.158 9.625 56.438 C5.872 58.055 3.657 58.193 -0.375 58.312 C-6.459 58.543 -10.6 59.914 -15.938 62.562 C-27.331 68.05 -37.973 67.013 -49.891 63.211 C-55.222 61.135 -60.283 58.452 -64 54 C-64.663 48.942 -64.656 47.022 -61.875 42.688 C-57.03 38.158 -53.017 36.701 -46.438 36.625 C-38.453 36.21 -30.099 34.474 -23.848 29.176 C-18.001 22.291 -14.302 13.878 -11.141 5.496 C-8.537 -0.201 -6.22 -0.572 0 0 Z M-11 19 C-12.801 21.223 -14.34 23.355 -15.875 25.75 C-20.715 33.263 -25.303 36.894 -34.188 39.188 C-34.841 39.358 -35.494 39.529 -36.168 39.705 C-40.152 40.699 -43.968 41.236 -48.062 41.438 C-51.604 41.665 -53.827 42.101 -56.688 44.25 C-59.129 46.76 -59.129 46.76 -59.688 49.562 C-58.699 53.069 -56.995 53.957 -54 56 C-51.372 57.146 -48.694 57.97 -45.938 58.75 C-45.185 58.964 -44.433 59.178 -43.658 59.398 C-31.738 62.591 -23.23 61.182 -12.355 55.656 C-5.507 52.286 0.372 51.146 8 51 C12.417 41.738 14.38 34.298 14 24 C13.238 23.89 12.476 23.781 11.691 23.668 C5.87 22.774 0.445 21.693 -5.062 19.586 C-7.301 18.807 -7.301 18.807 -11 19 Z " fill="#151515" transform="translate(724,530)"/>
<path d="M0 0 C7.058 -0.026 14.115 -0.043 21.173 -0.055 C23.565 -0.06 25.958 -0.067 28.35 -0.075 C39.912 -0.117 51.461 -0.149 63.012 0.441 C63.788 0.48 64.565 0.519 65.364 0.56 C68.45 0.741 71.053 1.018 74 2 C75.953 2.207 77.911 2.367 79.871 2.5 C81.073 2.582 82.274 2.664 83.512 2.748 C85.455 2.873 85.455 2.873 87.438 3 C88.096 3.044 88.755 3.088 89.434 3.134 C96.99 3.642 104.538 4.053 112.109 4.246 C113.384 4.28 114.658 4.314 115.971 4.35 C118.414 4.407 120.857 4.452 123.301 4.482 C124.401 4.508 125.502 4.533 126.637 4.559 C127.603 4.572 128.57 4.586 129.565 4.599 C132.371 5.061 133.263 5.805 135 8 C131.587 10.069 128.947 10.248 124.988 10.243 C123.772 10.246 122.555 10.249 121.302 10.252 C119.985 10.245 118.669 10.238 117.312 10.23 C115.931 10.229 114.55 10.229 113.169 10.229 C110.263 10.228 107.358 10.219 104.453 10.206 C100.791 10.189 97.129 10.185 93.467 10.186 C74.157 10.185 54.933 10.06 35.743 7.717 C28.933 6.89 22.111 6.635 15.254 6.518 C9.553 6.345 5.243 5.27 0 3 C0 2.01 0 1.02 0 0 Z " fill="#F4F5F5" transform="translate(376,595)"/>
<path d="M0 0 C0.015 1.171 0.029 2.341 0.044 3.547 C0.411 32.624 0.411 32.624 2.375 61.625 C2.489 62.847 2.603 64.069 2.72 65.328 C3.361 71.39 4.357 77.011 6.303 82.794 C7.055 85.175 7.548 87.546 8 90 C4.458 91.771 0.835 91.907 -3 91 C-7.806 86.667 -8.415 81.152 -9 75 C-9.237 69.523 -9.243 64.044 -9.25 58.562 C-9.252 57.789 -9.254 57.016 -9.256 56.22 C-9.264 43.156 -8.209 30.483 -6.333 17.548 C-5.714 12.809 -5.5 8.055 -5.309 3.281 C-5.156 2.152 -5.156 2.152 -5 1 C-3 0 -3 0 0 0 Z " fill="#F3F4F4" transform="translate(602,393)"/>
<path d="M0 0 C2.625 0.375 2.625 0.375 4.258 2.551 C9.336 13.04 4.096 27.929 0.625 38.375 C-1.69 44.547 -4.143 50.662 -6.716 56.731 C-9.266 62.875 -11.174 67.694 -10.375 74.375 C-9.187 75.772 -9.187 75.772 -5.812 75.75 C-1.29 75.742 1.183 73.957 4.793 71.422 C6.625 70.375 6.625 70.375 9.625 70.562 C10.285 70.831 10.945 71.099 11.625 71.375 C11.381 74.67 10.421 75.574 8 77.938 C2.114 82.446 -3.424 83.987 -10.777 83.805 C-14.906 83.122 -16.598 81.445 -19.375 78.375 C-21.347 74.431 -20.639 70.284 -19.445 66.172 C-19.016 65.096 -18.587 64.019 -18.145 62.91 C-17.673 61.705 -17.202 60.499 -16.716 59.258 C-16.466 58.633 -16.216 58.008 -15.958 57.364 C-14.664 54.13 -13.409 50.881 -12.152 47.633 C-11.907 47 -11.661 46.367 -11.408 45.715 C-8.701 38.705 -6.403 31.609 -4.375 24.375 C-4.195 23.749 -4.014 23.123 -3.829 22.478 C-3.338 20.201 -3.277 18.19 -3.312 15.863 C-3.32 15.023 -3.328 14.184 -3.336 13.318 C-3.349 12.45 -3.362 11.582 -3.375 10.688 C-3.4 8.954 -3.421 7.221 -3.438 5.488 C-3.449 4.723 -3.461 3.958 -3.473 3.169 C-3.321 0.385 -2.751 0.434 0 0 Z " fill="#0D0D0E" transform="translate(488.375,322.625)"/>
<path d="M0 0 C1.061 3.269 0.911 5.485 0.18 8.824 C-0.027 9.772 -0.233 10.72 -0.445 11.697 C-0.67 12.684 -0.894 13.671 -1.125 14.688 C-1.326 15.624 -1.527 16.561 -1.734 17.525 C-4.845 31.551 -9.265 45.124 -14.164 58.612 C-21.891 79.979 -28.044 99.015 -28 122 C-34.226 116.134 -36.068 109.038 -36.375 100.688 C-36.233 89.055 -31.329 78.373 -26.574 67.96 C-22.895 59.88 -19.458 51.703 -16.062 43.5 C-15.761 42.77 -15.459 42.041 -15.147 41.289 C-9.546 27.704 -4.568 13.969 0 0 Z " fill="#EFEFEF" transform="translate(420,345)"/>
<path d="M0 0 C0.504 2.103 1.003 4.208 1.5 6.312 C1.778 7.484 2.057 8.656 2.344 9.863 C3 13 3 13 3 16 C4.392 14.762 4.392 14.762 5.812 13.5 C10.586 10.088 15.336 10.078 21 11 C25.988 13.547 28.052 17.937 30 23 C31.846 28.881 32.591 34.844 32 41 C31 42 31 42 28.438 42.062 C27.633 42.042 26.829 42.021 26 42 C25.746 40.998 25.492 39.997 25.23 38.965 C24.883 37.622 24.535 36.28 24.188 34.938 C24.022 34.281 23.856 33.624 23.686 32.947 C21.924 25.408 21.924 25.408 18 19 C13.39 18.499 13.39 18.499 9.293 20.219 C6.799 23.654 7.621 27.941 8 32 C8.645 34.339 9.311 36.673 10 39 C10.211 41.723 10.142 44.26 10 47 C9 48 9 48 6.438 48.062 C5.633 48.042 4.829 48.021 4 48 C0.664 36.89 -2.408 25.775 -4.875 14.438 C-5.09 13.457 -5.305 12.477 -5.526 11.467 C-6.368 7.501 -7 4.079 -7 0 C-4.333 -1.333 -2.833 -0.671 0 0 Z " fill="#0C0C0D" transform="translate(265,262)"/>
<path d="M0 0 C1.65 0 3.3 0 5 0 C5 4.62 5 9.24 5 14 C6.32 13.34 7.64 12.68 9 12 C12.387 11.712 14.539 11.807 17.688 13.125 C18.451 13.414 19.214 13.702 20 14 C20.99 13.34 21.98 12.68 23 12 C26.39 11.631 28.533 11.804 31.688 13.125 C35.032 15.837 36.743 18.82 37.255 23.159 C37.33 25.551 37.311 27.921 37.25 30.312 C37.245 31.136 37.24 31.959 37.234 32.807 C37.155 38.845 37.155 38.845 36 40 C34.334 40.041 32.666 40.043 31 40 C30.98 39.435 30.96 38.87 30.94 38.288 C30.845 35.733 30.735 33.179 30.625 30.625 C30.594 29.736 30.563 28.846 30.531 27.93 C30.493 27.079 30.454 26.228 30.414 25.352 C30.367 24.173 30.367 24.173 30.319 22.971 C30.16 20.77 30.16 20.77 28 19 C26.02 19.33 24.04 19.66 22 20 C21.67 26.6 21.34 33.2 21 40 C19.35 40 17.7 40 16 40 C15.98 39.435 15.96 38.87 15.94 38.288 C15.845 35.733 15.735 33.179 15.625 30.625 C15.594 29.736 15.563 28.846 15.531 27.93 C15.493 27.079 15.454 26.228 15.414 25.352 C15.383 24.566 15.351 23.781 15.319 22.971 C15.16 20.77 15.16 20.77 13 19 C9.703 19.33 8.377 19.623 6 22 C5.632 23.933 5.632 23.933 5.586 26.133 C5.547 26.938 5.509 27.744 5.469 28.574 C5.438 29.416 5.407 30.258 5.375 31.125 C5.336 31.974 5.298 32.824 5.258 33.699 C5.163 35.799 5.081 37.9 5 40 C3.35 40 1.7 40 0 40 C0 26.8 0 13.6 0 0 Z " fill="#0C0C0D" transform="translate(448,646)"/>
<path d="M0 0 C-0.66 0.66 -1.32 1.32 -2 2 C-1.34 2.66 -0.68 3.32 0 4 C-5.641 5.735 -10.963 7.116 -16.875 7.438 C-20.432 7.697 -21.979 7.989 -25.188 9.75 C-27.235 11.881 -27.235 11.881 -27.312 14.75 C-27.209 15.492 -27.106 16.235 -27 17 C-17.463 23.358 -5.414 26.585 6 25 C10.235 23.793 14.139 22.129 17.906 19.844 C24.312 16.044 30.723 16.632 38 17 C38 20 38 20 37 23 C36.175 22.991 35.35 22.982 34.5 22.973 C26.973 23.166 21.743 24.256 15.062 27.562 C3.668 33.049 -6.973 32.013 -18.891 28.211 C-24.222 26.135 -29.283 23.452 -33 19 C-33.663 13.942 -33.656 12.022 -30.875 7.688 C-25.875 3.014 -21.593 1.651 -14.812 1.375 C-9.717 1.147 -5.062 -0.137 0 0 Z " fill="#121112" transform="translate(693,565)"/>
<path d="M0 0 C0.495 0.33 0.99 0.66 1.5 1 C1.17 2.98 0.84 4.96 0.5 7 C-3.13 7 -6.76 7 -10.5 7 C-10.83 8.32 -11.16 9.64 -11.5 11 C-8.463 13.025 -7.121 13.329 -3.625 13.812 C-0.04 14.494 1.551 15.036 4.625 17.188 C7.03 20.795 7.109 22.737 6.5 27 C4.705 31.157 2.705 33.3 -1.5 35 C-6.312 35.579 -10.216 35.616 -14.625 33.5 C-15.244 33.005 -15.863 32.51 -16.5 32 C-16.17 30.02 -15.84 28.04 -15.5 26 C-14.84 26.165 -14.18 26.33 -13.5 26.5 C-9.769 27.122 -6.281 27.064 -2.5 27 C-2.17 25.35 -1.84 23.7 -1.5 22 C-2.308 21.914 -3.116 21.827 -3.949 21.738 C-13.766 20.448 -13.766 20.448 -16.688 17.5 C-19.41 13.745 -20.039 11.671 -19.5 7 C-14.528 -0.182 -8.495 -3.398 0 0 Z " fill="#0F0F10" transform="translate(252.5,282)"/>
<path d="M0 0 C0.66 0 1.32 0 2 0 C2.043 0.545 2.087 1.09 2.132 1.652 C2.591 7.397 3.064 13.141 3.544 18.884 C3.721 21.019 3.895 23.155 4.065 25.291 C5.006 37.078 6.052 48.518 9 60 C9.171 60.729 9.341 61.459 9.517 62.21 C11.427 70.356 14.014 78.123 17.07 85.898 C19 90.82 19 90.82 19 93 C16.36 93.33 13.72 93.66 11 94 C10.372 92.772 9.748 91.543 9.125 90.312 C8.777 89.628 8.429 88.944 8.07 88.238 C-4.089 62.81 -0.301 27.557 0 0 Z " fill="#E9E9EA" transform="translate(609,389)"/>
<path d="M0 0 C2.625 0.25 2.625 0.25 4.375 1.562 C8.178 6.697 7.101 14.221 6.625 20.25 C5.332 25.23 3.721 29.928 -0.375 33.25 C-3.375 33.688 -3.375 33.688 -6.375 33.25 C-8.25 31.75 -8.25 31.75 -9.375 29.25 C-9.609 26.529 -9.512 23.991 -9.375 21.25 C-10.138 21.147 -10.901 21.044 -11.688 20.938 C-14.592 20.195 -15.665 19.68 -17.375 17.25 C-17.375 15.93 -17.375 14.61 -17.375 13.25 C-13.997 13.853 -12.052 15.152 -9.375 17.25 C-9.277 16.598 -9.179 15.945 -9.078 15.273 C-6.584 0.693 -6.584 0.693 0 0 Z " fill="#0C0C0D" transform="translate(531.375,337.75)"/>
<path d="M0 0 C2.976 0.446 3.653 1.063 5.5 3.375 C5.857 6.327 6.022 8.986 6 11.938 C5.996 13.149 5.996 13.149 5.991 14.385 C5.817 20.839 4.598 26.203 0.5 31.375 C-2.5 33.375 -2.5 33.375 -5 33.312 C-7.5 32.375 -7.5 32.375 -9.25 30.5 C-10.516 27.335 -10.672 25.242 -10.812 21.875 C-11.009 17.912 -11.009 17.912 -12.891 14.551 C-14.702 13.013 -14.702 13.013 -17.5 11.375 C-17.17 9.725 -16.84 8.075 -16.5 6.375 C-15.84 6.375 -15.18 6.375 -14.5 6.375 C-13.146 8.025 -11.813 9.692 -10.5 11.375 C-9.84 11.705 -9.18 12.035 -8.5 12.375 C-8.318 11.76 -8.136 11.145 -7.949 10.512 C-7.698 9.703 -7.446 8.895 -7.188 8.062 C-6.944 7.262 -6.7 6.461 -6.449 5.637 C-5.016 2.222 -3.716 0.557 0 0 Z " fill="#0B0B0C" transform="translate(469.5,336.625)"/>
<path d="M0 0 C10.61 2.773 20.056 8.409 26.75 17.25 C28.175 20.386 28.133 21.789 27 25 C21.696 24.538 18.543 23.395 14.188 20.375 C8.035 16.355 1.831 13.821 -5.171 11.611 C-7.282 10.884 -9.122 10.207 -11 9 C-12.203 5.977 -12.203 5.977 -12 3 C-9.182 -1.347 -4.626 -0.685 0 0 Z " fill="#0A0A0B" transform="translate(526,291)"/>
<path d="M0 0 C2.973 1.958 3.768 3.073 4.625 6.5 C4 9 4 9 1.625 11.188 C-1.868 13.242 -5.457 13.828 -9.41 14.512 C-14.893 15.546 -19.65 17.065 -24.25 20.25 C-27 22 -27 22 -29.875 21.75 C-30.576 21.502 -31.277 21.255 -32 21 C-31.575 16.182 -29.429 13.226 -26 10 C-18.25 3.85 -10.341 -1.797 0 0 Z " fill="#0B0B0C" transform="translate(479,288)"/>
<path d="M0 0 C3.108 2.943 5.112 6.326 7.25 10 C10.607 15.695 14.067 21.296 17.688 26.828 C19 29 19 29 20 32 C17.563 32.504 15.126 33.003 12.688 33.5 C11.997 33.643 11.307 33.786 10.596 33.934 C7.675 34.526 4.989 35 2 35 C1.659 31.23 1.329 27.459 1 23.688 C0.905 22.635 0.809 21.582 0.711 20.498 C0.121 13.645 -0.123 6.877 0 0 Z " fill="#F5F5F5" transform="translate(677,675)"/>
<path d="M0 0 C2.74 0.53 4.723 1.714 6.938 3.375 C6.277 4.695 5.618 6.015 4.938 7.375 C1.967 7.045 -1.002 6.715 -4.062 6.375 C-4.062 7.695 -4.062 9.015 -4.062 10.375 C-3.364 10.641 -2.665 10.906 -1.945 11.18 C-0.58 11.709 -0.58 11.709 0.812 12.25 C2.17 12.772 2.17 12.772 3.555 13.305 C5.938 14.375 5.938 14.375 7.938 16.375 C8.375 19.688 8.375 19.688 7.938 23.375 C5.765 26.005 3.991 27.848 0.938 29.375 C-4.034 29.337 -8.401 29.036 -12.062 25.375 C-11.733 24.055 -11.402 22.735 -11.062 21.375 C-10.382 21.54 -9.701 21.705 -9 21.875 C-5.646 22.446 -2.459 22.442 0.938 22.375 C0.778 20.424 0.778 20.424 -0.062 18.375 C-2.073 17.13 -2.073 17.13 -4.5 16.312 C-8.061 14.981 -8.859 14.68 -11.062 11.375 C-11.671 7.377 -11.395 5.853 -9.062 2.5 C-5.676 0.101 -4.028 -0.244 0 0 Z " fill="#131213" transform="translate(434.0625,657.625)"/>
<path d="M0 0 C5.656 0.605 11.002 1.622 16.5 3.062 C17.591 3.342 17.591 3.342 18.703 3.627 C20.47 4.08 22.235 4.54 24 5 C24.183 9.487 23.197 12.063 21 16 C12.453 14.674 4.278 12.489 -4 10 C-3.316 6.05 -2.212 3.365 0 0 Z " fill="#F3F3F3" transform="translate(719,535)"/>
<path d="M0 0 C2.688 0.312 2.688 0.312 5 1 C4.919 3.757 4.452 5.5 2.586 7.562 C-3.392 12.829 -8.768 15.569 -16.875 15.5 C-17.579 15.499 -18.283 15.499 -19.008 15.498 C-25.082 15.324 -28.404 13.83 -33 10 C-32.67 9.01 -32.34 8.02 -32 7 C-31.092 7.165 -30.185 7.33 -29.25 7.5 C-19.361 8.819 -11.504 8.728 -3 3 C-2.469 2.443 -1.938 1.886 -1.391 1.312 C-0.932 0.879 -0.473 0.446 0 0 Z " fill="#121213" transform="translate(513,418)"/>
<path d="M0 0 C0.33 0 0.66 0 1 0 C0.984 0.563 0.969 1.126 0.952 1.706 C0.672 13.314 0.98 23.732 4 35 C4.346 36.664 4.684 38.33 5 40 C2.03 40.99 -0.94 41.98 -4 43 C-6.924 40.076 -5.31 30.959 -5.328 27.016 C-5.13 5.13 -5.13 5.13 0 0 Z " fill="#F1F2F2" transform="translate(442,442)"/>
<path d="M0 0 C2.438 1.312 2.438 1.312 4 3 C4 3.99 4 4.98 4 6 C-1.28 6 -6.56 6 -12 6 C-12 5.01 -12 4.02 -12 3 C-8.116 -0.177 -4.918 -0.536 0 0 Z " fill="#171718" transform="translate(608,347)"/>
<path d="M0 0 C0.33 0 0.66 0 1 0 C0.67 8.58 0.34 17.16 0 26 C-0.33 26 -0.66 26 -1 26 C-1.33 24.35 -1.66 22.7 -2 21 C-2.66 21.99 -3.32 22.98 -4 24 C-3.27 18.663 -2.387 13.365 -1.438 8.062 C-1.299 7.283 -1.16 6.504 -1.018 5.701 C-0.679 3.801 -0.34 1.9 0 0 Z " fill="#B0B0B1" transform="translate(428,348)"/>
<path d="M0 0 C1.202 3.531 0.795 6.129 0.062 9.75 C-0.132 10.735 -0.327 11.72 -0.527 12.734 C-0.683 13.482 -0.839 14.23 -1 15 C-1.99 14.34 -2.98 13.68 -4 13 C-3.523 11.208 -3.044 9.416 -2.562 7.625 C-2.296 6.627 -2.029 5.63 -1.754 4.602 C-1 2 -1 2 0 0 Z " fill="#C1C1C1" transform="translate(420,345)"/>
<path d="M0 0 C0.99 0 1.98 0 3 0 C3.33 2.64 3.66 5.28 4 8 C3.67 8 3.34 8 3 8 C2.67 9.65 2.34 11.3 2 13 C1.67 13 1.34 13 1 13 C0.67 8.71 0.34 4.42 0 0 Z " fill="#BDBEBF" transform="translate(564,451)"/>
<path d="M0 0 C0.33 0 0.66 0 1 0 C0.67 3.63 0.34 7.26 0 11 C-0.66 10.34 -1.32 9.68 -2 9 C-2.99 9.495 -2.99 9.495 -4 10 C-3.524 8.52 -3.044 7.041 -2.562 5.562 C-2.296 4.739 -2.029 3.915 -1.754 3.066 C-1 1 -1 1 0 0 Z " fill="#DEDEDF" transform="translate(417,357)"/>
<path d="M0 0 C2 1 2 1 3 3 C1.399 3.532 -0.206 4.05 -1.812 4.562 C-2.706 4.853 -3.599 5.143 -4.52 5.441 C-7 6 -7 6 -10 5 C-8.38 4.136 -6.754 3.284 -5.125 2.438 C-4.22 1.962 -3.315 1.486 -2.383 0.996 C-1.203 0.503 -1.203 0.503 0 0 Z " fill="#D7D8D9" transform="translate(471,272)"/>
<path d="M0 0 C0 0.66 0 1.32 0 2 C-3.67 3.223 -6.34 2.88 -10.188 2.562 C-11.46 2.461 -12.732 2.359 -14.043 2.254 C-15.019 2.17 -15.995 2.086 -17 2 C-17 1.67 -17 1.34 -17 1 C-14.729 0.832 -12.458 0.666 -10.188 0.5 C-8.291 0.361 -8.291 0.361 -6.355 0.219 C-4.24 0.081 -2.12 0 0 0 Z " fill="#868687" transform="translate(427,489)"/>
<path d="M0 0 C2.31 0 4.62 0 7 0 C4.948 2.248 3.993 3.002 1 4 C0.01 3.34 -0.98 2.68 -2 2 C-1.34 2 -0.68 2 0 2 C0 1.34 0 0.68 0 0 Z " fill="#ABAAAA" transform="translate(490,819)"/>
<path d="M0 0 C0.33 0 0.66 0 1 0 C1 2.97 1 5.94 1 9 C0.01 8.67 -0.98 8.34 -2 8 C-1.125 1.125 -1.125 1.125 0 0 Z " fill="#CACBCD" transform="translate(442,442)"/>
</svg>