<svg version="1.1" xmlns="http://www.w3.org/2000/svg" width="1024" height="1024">
<path d="M0 0 C337.92 0 675.84 0 1024 0 C1024 337.92 1024 675.84 1024 1024 C686.08 1024 348.16 1024 0 1024 C0 686.08 0 348.16 0 0 Z " fill="#043A78" transform="translate(0,0)"/>
<path d="M0 0 C337.92 0 675.84 0 1024 0 C1024 337.92 1024 675.84 1024 1024 C686.08 1024 348.16 1024 0 1024 C0 686.08 0 348.16 0 0 Z M309 97 C293.423 115.542 283.855 138.34 277.324 161.414 C276.989 162.552 276.989 162.552 276.648 163.714 C276.212 165.25 275.819 166.799 275.465 168.356 C273.709 175.136 270.253 177.791 264.5 181.5 C262.863 182.617 261.227 183.737 259.594 184.859 C258.802 185.395 258.011 185.931 257.195 186.482 C249.736 191.639 243.018 197.796 236.324 203.891 C234.28 205.746 232.212 207.568 230.125 209.375 C219.081 219.011 208.455 228.78 199.27 240.234 C197.174 242.787 194.999 245.208 192.75 247.625 C186.333 254.688 180.696 262.355 175 270 C174.458 270.723 173.916 271.445 173.357 272.189 C129.913 330.272 100.296 402.821 92.938 475.188 C92.86 475.897 92.782 476.607 92.701 477.338 C91.1 492.702 90.798 508.066 90.812 523.5 C90.812 524.465 90.812 525.43 90.812 526.424 C90.826 541.383 91.35 556.122 93 571 C93.171 572.691 93.34 574.383 93.508 576.074 C94.666 587.441 96.272 598.568 99.16 609.633 C99.956 612.824 100.653 616.02 101.331 619.237 C107.254 647.074 117.286 674.115 129 700 C129.332 700.742 129.664 701.485 130.006 702.25 C143.967 733.35 163.109 761.942 185 788 C185.766 788.915 185.766 788.915 186.547 789.848 C198.467 804.039 210.849 818.179 224.961 830.238 C227.227 832.196 229.421 834.222 231.625 836.25 C237.826 841.836 244.378 846.928 251 852 C251.643 852.494 252.286 852.989 252.948 853.498 C303.903 892.592 361.68 918.317 422.823 937.015 C428.03 938.629 433.203 940.34 438.375 942.062 C439.402 942.401 440.43 942.739 441.488 943.088 C449.817 945.859 449.817 945.859 453.672 947.59 C457.666 949.282 461.687 950.398 465.875 951.5 C470.458 952.718 474.99 953.97 479.473 955.523 C484.104 957.096 488.773 958.154 493.562 959.125 C494.361 959.294 495.16 959.463 495.982 959.637 C522.263 965.077 546.806 959.733 571.979 951.633 C574.672 950.79 577.392 950.076 580.125 949.375 C583.403 948.503 586.5 947.457 589.637 946.168 C594.958 944.009 600.312 941.956 605.688 939.938 C606.712 939.552 607.737 939.166 608.793 938.769 C615.256 936.352 621.746 934.03 628.265 931.767 C675.193 915.468 720.848 894.556 761 865 C761.696 864.489 762.393 863.978 763.11 863.452 C774.904 854.774 786.262 845.758 796.98 835.773 C799.22 833.693 801.513 831.687 803.828 829.691 C808.259 825.83 812.419 821.728 816.562 817.562 C817.279 816.85 817.995 816.138 818.732 815.404 C823.362 810.767 827.733 805.971 832 801 C832.914 799.964 833.829 798.928 834.746 797.895 C848.174 782.593 860.331 766.336 871 749 C871.371 748.407 871.742 747.813 872.125 747.202 C874.842 742.853 877.447 738.447 880 734 C880.477 733.172 880.953 732.345 881.444 731.492 C899.663 699.585 914.73 663.944 922.569 627.931 C923.201 625.101 923.949 622.303 924.688 619.5 C925.895 614.697 926.746 609.882 927.473 604.984 C928 602 928 602 928.965 598.293 C931.24 589.392 931.953 580.107 933 571 C933.109 570.092 933.218 569.185 933.33 568.25 C937.049 536.04 936.76 502.053 932 470 C931.823 468.776 931.646 467.552 931.464 466.292 C923.437 411.86 905.674 358.703 877.412 311.366 C876.116 309.195 874.843 307.013 873.578 304.824 C862.132 285.169 848.377 266.968 833.504 249.792 C832.382 248.455 831.288 247.093 830.21 245.72 C823.897 237.739 816.892 230.586 809.681 223.42 C807.629 221.378 805.587 219.327 803.547 217.273 C796.335 210.054 789.046 203.288 781 197 C779.636 195.881 778.275 194.757 776.918 193.629 C775.675 192.606 774.432 191.584 773.188 190.562 C772.52 190.012 771.852 189.462 771.163 188.896 C767.849 186.197 764.514 183.615 760.969 181.227 C760.332 180.795 759.695 180.364 759.038 179.92 C757.847 179.127 756.645 178.351 755.428 177.598 C750.726 174.475 749.449 171.204 748 166 C747.635 164.735 747.27 163.471 746.895 162.168 C746.72 161.525 746.546 160.881 746.366 160.219 C738.751 132.283 723.987 100.296 699 84 C686.091 77.656 672.47 75.656 658.266 78.836 C643.42 84.688 630.967 97.08 620.75 109.062 C620.272 109.623 619.794 110.183 619.301 110.76 C616.777 113.514 616.777 113.514 616 117 C615.175 116.746 614.35 116.492 613.5 116.23 C606.088 114.022 598.773 112.264 591.156 110.952 C586.177 110.089 586.177 110.089 584 109 C557.055 104.103 530.291 103.59 503 104 C501.693 104.019 500.385 104.039 499.038 104.059 C483.195 104.348 467.671 105.668 452 108 C451.161 108.121 450.322 108.243 449.457 108.368 C441.52 109.529 433.79 110.96 426.062 113.125 C423.71 113.755 421.356 114.381 419 115 C417.991 115.285 416.981 115.57 415.941 115.863 C412.935 116.476 410.984 116.739 408 116 C404.324 112.797 401.741 109.006 399 105 C391.442 95.373 381.876 87.608 371 82 C370.219 81.586 369.438 81.172 368.633 80.746 C346.925 71.042 324.211 80.917 309 97 Z " fill="#003678" transform="translate(0,0)"/>
<path d="M0 0 C6.939 5.655 13.793 11.911 18.598 19.535 C21.497 24.174 21.497 24.174 26.184 26.52 C33.053 26.123 39.89 23.774 46.526 22.02 C95.731 9.41 159.247 8.157 208.598 21.141 C213.715 22.433 218.874 23.534 224.034 24.642 C229.789 25.894 229.789 25.894 232 27 C232.245 26.448 232.49 25.897 232.742 25.328 C241.753 8.649 260.206 -6.069 278 -12 C294.912 -13.514 307.857 -11.721 321.516 -1.082 C340.821 15.097 352.719 39.256 360 63 C360.563 64.808 360.563 64.808 361.137 66.652 C361.785 68.755 362.422 70.861 363.043 72.973 C363.359 73.972 363.675 74.971 364 76 C364.172 76.641 364.345 77.283 364.523 77.944 C366.336 83.851 369.287 86.411 374.312 89.812 C375.765 90.849 377.217 91.887 378.668 92.926 C379.397 93.44 380.126 93.953 380.876 94.483 C396.518 105.658 410.85 118.5 424.379 132.118 C426.322 134.072 428.274 136.014 430.229 137.955 C437.282 145.001 443.824 152.166 450 160 C450.923 161.09 451.852 162.175 452.793 163.25 C471.305 184.511 486.473 208.329 500 233 C500.928 234.687 500.928 234.687 501.875 236.407 C506.811 245.462 511.227 254.686 515.375 264.125 C515.856 265.216 515.856 265.216 516.347 266.328 C525.048 286.137 532.384 306.457 537.404 327.528 C538.073 330.304 538.78 333.07 539.488 335.836 C543.181 350.455 545.967 365.062 548 380 C548.226 381.566 548.226 381.566 548.458 383.163 C552.967 415.086 552.979 449.01 549 481 C548.775 482.821 548.775 482.821 548.545 484.679 C545.611 507.876 545.611 507.876 543.456 517.037 C542.767 520.006 542.242 523.004 541.688 526 C540 534.507 537.559 542.722 535 551 C534.698 551.991 534.396 552.981 534.085 554.002 C517.898 606.995 493.722 656.271 458 699 C457.372 699.754 457.372 699.754 456.73 700.522 C442.392 717.658 427.118 734.591 410 749 C408.942 749.92 407.884 750.843 406.828 751.766 C399.992 757.721 393.057 763.426 385.712 768.751 C383.794 770.15 381.892 771.569 379.988 772.988 C359.089 788.459 336.614 801.554 313.238 812.908 C310.799 814.098 308.371 815.309 305.941 816.52 C281.292 828.683 255.629 837.999 229.706 847.007 C224.055 848.973 218.426 850.993 212.812 853.062 C211.737 853.457 211.737 853.457 210.64 853.859 C207.563 854.998 204.547 856.201 201.547 857.531 C197.566 859.18 193.596 860.335 189.438 861.438 C187.827 861.872 186.216 862.307 184.605 862.742 C183.818 862.955 183.031 863.167 182.22 863.386 C179.212 864.218 176.234 865.148 173.25 866.062 C145.515 873.936 120.693 873.35 93.309 864.709 C88.095 863.108 82.826 861.684 77.569 860.231 C71.258 858.453 65.14 856.294 59 854 C42.523 847.836 42.523 847.836 25.75 842.562 C-16.547 830.625 -56.748 812.192 -94 789 C-94.856 788.467 -95.712 787.934 -96.594 787.385 C-130.766 765.967 -163.76 739.75 -190 709 C-190.916 707.947 -191.833 706.895 -192.75 705.844 C-215.914 679.2 -235.619 649.76 -251.029 617.99 C-251.969 616.064 -252.928 614.149 -253.891 612.234 C-260.118 599.639 -264.923 586.477 -269.78 573.308 C-270.548 571.226 -271.323 569.146 -272.109 567.071 C-274.505 560.675 -276.391 554.245 -278.062 547.625 C-278.321 546.619 -278.579 545.613 -278.845 544.577 C-280.437 538.34 -281.958 532.092 -283.355 525.809 C-284.005 522.977 -284.749 520.181 -285.5 517.375 C-288.377 505.913 -289.856 494.11 -291.125 482.375 C-291.2 481.685 -291.276 480.996 -291.354 480.285 C-292.82 465.822 -293.163 451.379 -293.13 436.853 C-293.125 434.003 -293.13 431.154 -293.137 428.305 C-293.143 413.245 -292.642 398.324 -290.688 383.375 C-290.559 382.371 -290.43 381.368 -290.297 380.334 C-280.21 304.119 -249.858 231.231 -202 171 C-201.24 170.043 -201.24 170.043 -200.464 169.066 C-194.265 161.286 -187.96 153.676 -181.195 146.379 C-179.248 144.268 -177.366 142.12 -175.5 139.938 C-169.527 133.079 -163.017 126.733 -156.105 120.828 C-153.643 118.69 -151.265 116.469 -148.875 114.25 C-144.859 110.597 -140.761 107.113 -136.5 103.75 C-135.93 103.292 -135.36 102.835 -134.773 102.364 C-131.334 99.653 -127.833 97.245 -124.094 94.965 C-114.616 88.991 -108.805 84.347 -106.188 73.125 C-105.593 70.295 -105.046 67.462 -104.532 64.617 C-103.761 60.822 -102.53 57.288 -101.125 53.688 C-100.879 53.055 -100.634 52.422 -100.381 51.771 C-90.48 26.918 -77.11 2.481 -52.234 -9.652 C-34.421 -17.075 -14.752 -10.938 0 0 Z M-51 15 C-51.735 15.451 -52.47 15.902 -53.227 16.367 C-78.717 33.974 -86.227 74.975 -93.312 102.75 C-93.567 103.738 -93.822 104.725 -94.084 105.743 C-95.346 110.791 -96.272 115.676 -96.745 120.856 C-96.999 122.994 -97.442 124.986 -97.965 127.074 C-99.559 133.876 -99.954 140.868 -100.562 147.812 C-100.75 149.922 -100.94 152.032 -101.133 154.141 C-101.307 156.042 -101.475 157.942 -101.643 159.843 C-102 163 -102 163 -102.514 164.892 C-103.065 167.283 -103.125 169.426 -103.126 171.878 C-103.13 172.848 -103.134 173.818 -103.138 174.817 C-103.139 175.865 -103.14 176.913 -103.141 177.992 C-103.159 180.249 -103.179 182.505 -103.199 184.762 C-103.228 188.289 -103.25 191.816 -103.25 195.343 C-103.285 230.336 -113.161 254.643 -132.808 282.842 C-136.35 287.962 -139.686 293.191 -142.938 298.5 C-143.386 299.229 -143.835 299.959 -144.297 300.71 C-149.731 308.845 -149.731 308.845 -152 318 C-148.37 318 -144.74 318 -141 318 C-141.907 319.402 -142.815 320.805 -143.75 322.25 C-178.166 376.569 -210.553 444.996 -208 511 C-201.508 511.357 -196.582 510.199 -190.5 508 C-189.678 507.714 -188.855 507.428 -188.008 507.133 C-186.001 506.433 -184 505.718 -182 505 C-182.227 506.041 -182.227 506.041 -182.459 507.103 C-191.866 551.824 -189.201 599.801 -171 642 C-170.586 642.962 -170.172 643.923 -169.745 644.914 C-159.304 668.87 -146.228 691.592 -128.16 710.699 C-126.327 712.652 -124.581 714.642 -122.836 716.672 C-118.618 721.511 -114.111 726.036 -109.562 730.562 C-108.755 731.374 -107.947 732.185 -107.115 733.021 C-93.56 746.555 -78.519 758.785 -63 770 C-62.409 770.429 -61.818 770.859 -61.208 771.301 C-44.73 783.23 -27.711 794.494 -10.137 804.748 C-7.604 806.232 -5.082 807.734 -2.559 809.234 C28.259 827.489 60.178 843.135 94 855 C94.72 855.256 95.441 855.511 96.183 855.775 C100.429 857.275 104.699 858.668 109 860 C109.719 860.227 110.438 860.454 111.178 860.688 C144.296 871.041 174.781 855.536 205 842 C205.836 841.629 206.673 841.258 207.535 840.875 C227.827 831.827 247.003 820.467 266 809 C266.886 808.468 267.771 807.935 268.684 807.387 C281.846 799.453 294.533 790.985 307 782 C307.699 781.497 308.398 780.994 309.118 780.476 C313.44 777.355 317.732 774.195 322 771 C322.557 770.583 323.115 770.166 323.689 769.736 C340.475 757.126 355.893 743.164 370.79 728.385 C372.206 726.981 373.626 725.581 375.047 724.18 C381.135 718.1 386.666 711.748 392 705 C392.881 703.916 393.762 702.833 394.645 701.75 C424.614 663.735 443.995 616.166 444.203 567.473 C444.209 566.404 444.215 565.335 444.22 564.233 C444.23 561.982 444.236 559.731 444.24 557.479 C444.25 554.102 444.281 550.726 444.312 547.35 C444.433 525.895 444.433 525.895 440 505 C440.88 505.349 441.761 505.699 442.668 506.059 C443.829 506.514 444.991 506.969 446.188 507.438 C447.91 508.116 447.91 508.116 449.668 508.809 C453.968 510.346 457.754 511.14 462.312 511.062 C463.529 511.042 464.746 511.021 466 511 C466.299 503.755 465.777 496.641 465.062 489.438 C464.976 488.545 464.889 487.652 464.799 486.731 C464.445 482.217 464.445 482.217 463 478 C462.749 476.128 462.525 474.252 462.312 472.375 C460.247 457.407 456.144 442.628 451.152 428.387 C449.597 423.815 448.335 419.177 447.09 414.512 C445.656 409.891 443.846 405.469 442 401 C441.606 400.038 441.213 399.077 440.807 398.086 C429.36 370.244 415.952 343.928 399 319 C401.97 318.67 404.94 318.34 408 318 C407.547 312.078 405.789 308.201 402.688 303.188 C402.245 302.455 401.803 301.723 401.347 300.969 C395.287 291.04 388.818 281.348 382.074 271.871 C368.015 252.059 359.925 231.949 359.824 207.355 C359.804 205.229 359.783 203.102 359.76 200.975 C359.743 199.312 359.743 199.312 359.726 197.616 C359.479 175.795 358.229 154.577 355 133 C354.747 131.162 354.495 129.323 354.246 127.484 C349.185 91.485 338.973 41.571 309.562 17.062 C301.313 11.104 293.061 9.953 283 11 C257.392 16.502 239.792 45.97 226.397 66.45 C217.938 79.61 210.325 93.183 203 107 C202.496 107.946 201.993 108.891 201.474 109.866 C199.977 112.679 198.487 115.495 197 118.312 C196.333 119.574 196.333 119.574 195.652 120.861 C192.882 126.153 190.357 131.512 188 137 C187.123 136.812 187.123 136.812 186.228 136.62 C153.723 129.855 116.922 128.686 84.195 134.611 C81.345 135.116 78.484 135.515 75.615 135.906 C73.074 136.255 70.537 136.627 68 137 C67.705 136.363 67.409 135.726 67.105 135.07 C60.173 120.199 52.769 105.754 44.503 91.581 C43.116 89.2 41.745 86.811 40.379 84.418 C28.41 63.586 14.911 43.167 -2 26 C-2.748 25.239 -3.495 24.479 -4.266 23.695 C-14.185 14.24 -24.752 10.451 -38.238 10.727 C-43.296 11.094 -46.761 12.287 -51 15 Z " fill="#FDFDFE" transform="translate(384,90)"/>
<path d="M0 0 C0 79.2 0 158.4 0 240 C3.96 240 7.92 240 12 240 C24.745 243.993 33.202 250.683 39.875 262.25 C43.282 270.579 43.492 281.121 40.25 289.5 C39.538 291.019 38.791 292.521 38 294 C37.497 294.963 37.497 294.963 36.984 295.945 C36 297.625 36 297.625 34 300 C32.68 300 31.36 300 30 300 C30.484 296.005 31.979 293.304 34.012 289.875 C37.579 283.107 38.245 274.731 36.312 267.387 C32.812 257.775 27.704 252.75 18.619 248.218 C12.539 245.46 6.629 245.036 0 245 C0.073 246.262 0.146 247.523 0.222 248.823 C1.055 264.276 1.064 279.674 0.914 295.145 C0.892 297.779 0.871 300.413 0.85 303.047 C0.805 308.514 0.756 313.98 0.703 319.447 C0.643 325.766 0.59 332.086 0.541 338.405 C0.494 344.521 0.441 350.636 0.386 356.752 C0.363 359.344 0.342 361.936 0.321 364.528 C0.293 368.123 0.258 371.717 0.221 375.312 C0.214 376.386 0.207 377.461 0.199 378.568 C0.182 380.024 0.182 380.024 0.165 381.51 C0.157 382.358 0.149 383.206 0.141 384.08 C0 386 0 386 -1 387 C-2.822 387.214 -4.646 387.422 -6.472 387.594 C-21.752 389.058 -33.458 392.656 -44.688 403.625 C-47.193 410.068 -47.101 417.111 -45.223 423.746 C-38.306 439.131 -24.02 447.897 -9 454 C-7.014 454.707 -5.021 455.399 -3 456 C-3.609 460.141 -5.072 463.304 -7 467 C-7.33 467.99 -7.66 468.98 -8 470 C-1.07 470 5.86 470 13 470 C11.68 468.02 10.36 466.04 9 464 C8.288 461.27 8.196 458.838 8 456 C9.196 455.484 10.392 454.969 11.625 454.438 C13.419 453.63 15.21 452.816 17 452 C18.11 451.502 19.22 451.005 20.363 450.492 C32.415 444.829 43.287 436.74 48.875 424.25 C50.854 418.144 51.357 411.486 49.004 405.441 C45.755 399.984 41.64 397.112 36.074 394.191 C34 393 34 393 33 391 C36.909 389.294 40.828 387.613 44.75 385.938 C45.861 385.452 46.972 384.967 48.117 384.467 C49.722 383.785 49.722 383.785 51.359 383.09 C52.344 382.666 53.328 382.241 54.343 381.804 C57.167 380.95 58.317 380.867 61 382 C75.827 394.307 87 413.715 89.228 432.967 C90.396 448.154 86.033 461.825 76.438 473.625 C69.241 481.407 58.086 487.913 47.316 488.388 C45.573 488.408 43.83 488.413 42.087 488.404 C40.648 488.414 40.648 488.414 39.181 488.425 C36.031 488.443 32.881 488.439 29.73 488.434 C27.526 488.438 25.322 488.443 23.118 488.449 C18.504 488.458 13.89 488.456 9.276 488.446 C3.385 488.435 -2.505 488.455 -8.396 488.484 C-12.947 488.502 -17.498 488.502 -22.05 488.496 C-24.22 488.496 -26.391 488.502 -28.562 488.515 C-45.684 488.599 -58.039 486.968 -71.156 475.039 C-81.643 464.19 -85.347 451.766 -85.152 437 C-85.016 432.151 -84.294 427.675 -83 423 C-82.732 421.974 -82.464 420.948 -82.188 419.891 C-79.914 411.82 -76.941 403.703 -71.484 397.191 C-69.356 394.049 -68.418 390.593 -67.312 387 C-65.183 380.317 -62.762 373.847 -60.062 367.375 C-48.635 339.408 -43.762 310.319 -43.812 280.188 C-43.813 279.465 -43.814 278.742 -43.815 277.997 C-43.876 256.142 -46.36 235.375 -51 214 C-51.168 213.2 -51.335 212.399 -51.508 211.575 C-53.811 200.758 -57.777 190.394 -66.797 183.406 C-79.778 175.121 -91.298 172.632 -106.625 172.438 C-108.388 172.363 -108.388 172.363 -110.188 172.287 C-116.054 172.218 -120.01 172.323 -124.547 176.277 C-125.722 177.496 -126.876 178.735 -128 180 C-142.908 193.557 -161.524 203.768 -180.693 209.825 C-194.684 214.26 -207.409 221.748 -216 234 C-215.14 233.976 -215.14 233.976 -214.263 233.952 C-192.647 233.439 -192.647 233.439 -183 237 C-182.269 237.255 -181.538 237.51 -180.785 237.773 C-169.213 242.616 -164.749 254.064 -160.009 264.763 C-146.471 294.786 -128.54 314.943 -99.938 331.188 C-93.902 334.623 -88.789 337.996 -85 344 C-84.622 344.566 -84.245 345.132 -83.855 345.715 C-82.568 349.155 -82.712 352.566 -82.75 356.188 C-82.742 356.905 -82.735 357.622 -82.727 358.361 C-82.74 362.1 -83.036 365.574 -83.884 369.219 C-84.155 370.397 -84.155 370.397 -84.432 371.599 C-84.62 372.391 -84.807 373.183 -85 374 C-85.258 375.096 -85.258 375.096 -85.52 376.214 C-86.052 378.459 -86.59 380.702 -87.129 382.945 C-87.528 384.616 -87.927 386.286 -88.326 387.957 C-88.946 390.549 -89.566 393.14 -90.189 395.731 C-90.797 398.26 -91.401 400.79 -92.004 403.32 C-92.282 404.471 -92.282 404.471 -92.566 405.644 C-93.62 410.084 -94.425 414.472 -95 419 C-98.822 415.283 -102.312 411.385 -105.75 407.312 C-109.281 403.159 -112.833 399.035 -116.5 395 C-130.811 379.15 -144.53 362.755 -155.168 344.164 C-155.773 343.12 -156.377 342.076 -157 341 C-157.535 339.971 -158.07 338.943 -158.621 337.883 C-162.024 333.759 -166.025 332.31 -170.875 330.25 C-183.022 324.777 -193.422 318.355 -202.547 308.496 C-204.367 306.622 -205.431 306.026 -208.051 305.907 C-208.896 305.921 -209.74 305.935 -210.611 305.95 C-211.57 305.963 -212.528 305.976 -213.516 305.989 C-215.08 306.016 -215.08 306.016 -216.676 306.043 C-218.889 306.065 -221.102 306.087 -223.314 306.107 C-226.799 306.144 -230.283 306.187 -233.767 306.247 C-258.601 306.653 -258.601 306.653 -269 302 C-258.212 288.029 -238.795 280.69 -222.707 274.453 C-216.742 272.115 -210.876 269.553 -205 267 C-205 266.01 -205 265.02 -205 264 C-221.565 263.51 -236.86 264.188 -253 268 C-263.029 270.322 -272.756 270.191 -283 270 C-283 266 -283 266 -281.305 264.141 C-263.132 250 -263.132 250 -257 250 C-257.159 248.884 -257.317 247.767 -257.48 246.617 C-259.549 229.918 -258.454 217.703 -248.38 203.967 C-243.55 197.946 -237.795 192.801 -232.162 187.543 C-231.254 186.668 -230.346 185.792 -229.41 184.891 C-228.587 184.118 -227.763 183.344 -226.914 182.548 C-224.509 179.346 -224.178 176.962 -224 173 C-225.113 171.137 -225.113 171.137 -226.938 170.062 C-227.948 169.382 -228.959 168.701 -230 168 C-227.111 162.323 -223.785 158.484 -219.062 154.25 C-218.062 153.338 -218.062 153.338 -217.042 152.408 C-215.039 150.593 -213.022 148.794 -211 147 C-210.451 146.51 -209.903 146.019 -209.337 145.514 C-200.427 137.592 -190.863 130.58 -181.204 123.604 C-179.314 122.229 -177.445 120.831 -175.586 119.414 C-154.082 103.353 -129.698 92.198 -105.246 81.473 C-85.522 72.799 -64.367 62.194 -56 41 C-53.358 30.666 -54.883 20.802 -58.125 10.863 C-59 8 -59 8 -59 5 C-39.205 -1.06 -21.057 0 0 0 Z " fill="#3176B0" transform="translate(513,241)"/>
<path d="M0 0 C1.605 2.13 3.188 4.266 4.727 6.445 C19.444 27.219 38.443 42.045 60.312 54.688 C85.121 69.057 104.004 88.926 118 114 C118.431 114.759 118.862 115.517 119.306 116.299 C128.649 132.89 135.511 150.158 142 168 C142.397 169.073 142.794 170.146 143.203 171.251 C144.242 174.076 145.253 176.909 146.25 179.75 C146.538 180.54 146.826 181.329 147.122 182.143 C150.8 193.051 148.675 202.604 145.688 213.438 C137.167 246.365 133.217 284.582 147.047 316.699 C148 319 148 319 148 321 C131.429 315.093 114.961 301.664 107 286 C94.382 257.672 104.867 221.774 114.715 194.113 C115.894 190.567 116.626 187.764 116 184 C114.54 181.512 113.124 179.385 111.375 177.125 C110.921 176.515 110.467 175.905 109.999 175.277 C108.678 173.508 107.34 171.754 106 170 C104.791 168.375 103.583 166.751 102.375 165.125 C101.199 163.578 101.199 163.578 100 162 C97.356 164.644 96.682 167.57 95.625 171.062 C95.407 171.778 95.19 172.493 94.965 173.23 C92.62 181.084 90.569 188.953 89 197 C88.853 197.753 88.706 198.507 88.554 199.283 C85.523 215.783 85.552 232.446 85.466 249.169 C85.456 250.116 85.446 251.062 85.435 252.038 C85.416 253.834 85.409 255.63 85.416 257.426 C85.359 261.927 85.274 264.614 82 268 C81.437 270.118 81.437 270.118 81.312 272.25 C81.158 274.106 81.158 274.106 81 276 C76.897 274.623 74.332 272.764 71.188 269.812 C70.319 269.007 69.45 268.201 68.555 267.371 C67.712 266.589 66.869 265.806 66 265 C64.037 263.287 62.064 261.589 60.082 259.898 C54.608 254.907 49.682 249.69 45.25 243.75 C44.74 243.067 44.231 242.385 43.706 241.682 C34.836 229.53 27.891 216.18 21.318 202.685 C18.595 197.138 15.816 191.619 13.048 186.093 C11.364 182.73 9.682 179.365 8 176 C7.423 174.845 6.845 173.69 6.25 172.5 C5.837 171.675 5.425 170.85 5 170 C4.34 170 3.68 170 3 170 C1.857 173.429 1.79 176.241 1.684 179.855 C1.663 180.517 1.642 181.179 1.621 181.86 C1.555 183.969 1.496 186.078 1.438 188.188 C1.394 189.619 1.351 191.051 1.307 192.482 C1.2 195.988 1.098 199.494 1 203 C-25.029 177.332 -39.468 138.091 -47 103 C-47.174 102.199 -47.348 101.399 -47.527 100.574 C-51.508 81.569 -52.584 62.364 -52 43 C-51.974 42.041 -51.948 41.082 -51.921 40.094 C-51.63 30.257 -51.234 20.619 -49 11 C-48.834 10.136 -48.667 9.273 -48.496 8.383 C-47.57 3.703 -47.57 3.703 -47 2 C-46.34 1.67 -45.68 1.34 -45 1 C-43.758 3.485 -43.778 5.338 -43.641 8.117 C-40.905 56.02 -28.175 100.035 6 135 C6.871 135.933 7.743 136.867 8.641 137.828 C18.609 148.263 32.766 160.254 47 164 C45.609 157.98 43.066 153.32 39.875 148.062 C35.253 140.26 31.053 132.368 27.094 124.214 C25.873 121.744 24.611 119.298 23.344 116.852 C8.238 87.538 -3.284 55.993 -3.438 22.688 C-3.452 21.017 -3.452 21.017 -3.468 19.313 C-3.395 12.407 -2.387 6.485 0 0 Z " fill="#FCFDFD" transform="translate(280,572)"/>
<path d="M0 0 C2.739 1.905 3.027 3.137 3.676 6.469 C5.499 26.602 3.986 46.684 -2 66 C-2.298 66.969 -2.596 67.937 -2.903 68.936 C-10.038 91.859 -19.582 112.936 -31 134 C-32.881 137.48 -34.761 140.96 -36.64 144.44 C-37.903 146.782 -39.172 149.12 -40.442 151.458 C-41.02 152.524 -41.597 153.589 -42.191 154.688 C-42.709 155.64 -43.227 156.593 -43.76 157.574 C-45.096 160.039 -45.096 160.039 -46 163 C-37.76 160.229 -31.031 156.061 -24 151 C-22.934 150.234 -21.868 149.469 -20.77 148.68 C15.588 121.953 33.924 80.505 41 37 C42.133 28.866 42.797 20.696 43.266 12.5 C43.327 11.451 43.327 11.451 43.39 10.381 C43.492 8.513 43.575 6.643 43.656 4.773 C44 2 44 2 46 0 C48.191 6.026 49.738 11.891 50.664 18.234 C50.79 19.094 50.916 19.954 51.046 20.84 C52.371 30.636 52.463 40.381 52.375 50.25 C52.37 51.188 52.366 52.126 52.361 53.093 C52.277 67.566 51.758 81.754 49 96 C48.807 97.022 48.613 98.044 48.414 99.097 C41.382 135.095 26.787 171.651 3 200 C2.34 200.33 1.68 200.66 1 201 C0.962 200.087 0.962 200.087 0.924 199.155 C0.327 183.553 0.327 183.553 -1 168 C-5.253 171.806 -7.503 175.448 -9.82 180.625 C-10.161 181.361 -10.501 182.096 -10.852 182.854 C-11.578 184.422 -12.298 185.993 -13.014 187.565 C-14.882 191.659 -16.788 195.735 -18.691 199.812 C-19.064 200.614 -19.438 201.415 -19.822 202.24 C-32.725 229.877 -48.757 256.945 -75 274 C-75.66 274 -76.32 274 -77 274 C-77.182 273.078 -77.182 273.078 -77.367 272.137 C-77.535 271.328 -77.702 270.52 -77.875 269.688 C-78.037 268.887 -78.2 268.086 -78.367 267.262 C-78.945 264.747 -78.945 264.747 -81 262 C-81.148 259.544 -81.185 257.205 -81.125 254.754 C-81.108 253.271 -81.09 251.789 -81.073 250.306 C-81.055 249.143 -81.055 249.143 -81.036 247.957 C-80.604 219.083 -84.379 192.025 -93.266 164.477 C-94 162 -94 162 -94 160 C-98.479 164.086 -101.545 168.627 -104.75 173.75 C-105.723 175.287 -106.697 176.824 -107.672 178.359 C-108.096 179.035 -108.519 179.71 -108.956 180.405 C-110 182 -110 182 -111 183 C-111.516 187.642 -110.779 190.97 -109.207 195.359 C-106.834 202.293 -105.071 209.313 -103.375 216.438 C-103.076 217.658 -102.777 218.878 -102.469 220.135 C-97.234 241.918 -92.877 267.442 -104 288 C-104.702 289.307 -104.702 289.307 -105.418 290.641 C-112.154 301.735 -122.178 308.425 -133 315 C-134.584 316.019 -136.168 317.04 -137.75 318.062 C-141 320 -141 320 -143 320 C-142.587 318.783 -142.175 317.566 -141.75 316.312 C-141.477 315.478 -141.203 314.644 -140.922 313.785 C-140.308 311.931 -139.673 310.085 -139.016 308.246 C-129.326 279.662 -131.769 249.224 -138.824 220.398 C-138.982 219.752 -139.141 219.105 -139.303 218.439 C-140.082 215.276 -140.883 212.12 -141.713 208.97 C-144.92 196.469 -144.21 188.12 -140.188 175.875 C-139.831 174.747 -139.475 173.619 -139.107 172.457 C-137.232 166.571 -135.236 160.758 -133 155 C-132.678 154.148 -132.356 153.295 -132.025 152.417 C-116.461 111.348 -95.428 76.088 -56.938 53.375 C-34.048 39.632 -13.543 23.304 0 0 Z " fill="#FDFDFE" transform="translate(746,573)"/>
<path d="M0 0 C0.928 0.071 1.856 0.141 2.812 0.214 C12.901 0.921 22.933 1.156 33.046 1.13 C35.564 1.125 38.082 1.13 40.6 1.137 C50.444 1.14 60.187 0.81 70 0 C69.939 1.285 69.879 2.57 69.816 3.895 C68.747 28.249 68.432 52.627 68 77 C71.459 73.916 71.988 70.65 72.875 66.25 C76.939 47.872 83.192 28.256 99.02 16.5 C101.822 14.801 103.694 14 107 14 C113.318 36.707 116.369 58.778 116.375 82.312 C116.377 83.187 116.379 84.062 116.381 84.963 C116.374 111.067 111.379 134.332 93 154 C76.6 170.028 54.485 175.385 32.258 175.232 C10.934 174.829 -7.324 166.97 -22.758 152.371 C-41.234 132.832 -45.378 108.868 -45.316 83.043 C-45.313 80.334 -45.336 77.625 -45.361 74.916 C-45.401 63.75 -44.446 53.105 -42.397 42.129 C-41.854 39.218 -41.351 36.301 -40.845 33.383 C-39.672 26.768 -38.157 20.363 -36 14 C-28.814 14.998 -23.422 19.924 -18.938 25.438 C-9.432 39.141 -3.601 55.286 -1.359 71.742 C-1.112 74.027 -1.112 74.027 0 76 C0.99 76.33 1.98 76.66 3 77 C2.906 70.052 2.798 63.104 2.683 56.156 C2.645 53.805 2.61 51.454 2.578 49.103 C2.353 32.661 1.531 16.373 0 0 Z " fill="#FCFCFD" transform="translate(480,748)"/>
<path d="M0 0 C0.736 0.255 1.472 0.51 2.23 0.773 C13.789 5.647 18.248 17.057 22.991 27.763 C36.529 57.786 54.46 77.943 83.062 94.188 C89.098 97.623 94.211 100.996 98 107 C98.378 107.566 98.755 108.132 99.145 108.715 C100.432 112.155 100.288 115.566 100.25 119.188 C100.258 119.905 100.265 120.622 100.273 121.361 C100.26 125.1 99.964 128.574 99.116 132.219 C98.935 133.005 98.754 133.79 98.568 134.599 C98.38 135.391 98.193 136.183 98 137 C97.828 137.731 97.657 138.461 97.48 139.214 C96.948 141.459 96.41 143.702 95.871 145.945 C95.472 147.616 95.073 149.286 94.674 150.957 C94.054 153.549 93.434 156.14 92.811 158.731 C92.203 161.26 91.599 163.79 90.996 166.32 C90.811 167.087 90.625 167.854 90.434 168.644 C89.38 173.084 88.575 177.472 88 182 C84.178 178.283 80.688 174.385 77.25 170.312 C73.719 166.159 70.167 162.035 66.5 158 C52.189 142.15 38.47 125.755 27.832 107.164 C27.227 106.12 26.623 105.076 26 104 C25.465 102.971 24.93 101.943 24.379 100.883 C20.976 96.759 16.975 95.31 12.125 93.25 C-0.022 87.777 -10.422 81.355 -19.547 71.496 C-21.367 69.622 -22.431 69.026 -25.051 68.907 C-25.896 68.921 -26.74 68.935 -27.611 68.95 C-28.57 68.963 -29.528 68.976 -30.516 68.989 C-31.559 69.007 -32.602 69.025 -33.676 69.043 C-35.889 69.065 -38.102 69.087 -40.314 69.107 C-43.799 69.144 -47.283 69.187 -50.767 69.247 C-75.601 69.653 -75.601 69.653 -86 65 C-75.212 51.029 -55.795 43.69 -39.707 37.453 C-33.742 35.115 -27.876 32.553 -22 30 C-22 29.01 -22 28.02 -22 27 C-38.565 26.51 -53.86 27.188 -70 31 C-80.029 33.322 -89.756 33.191 -100 33 C-100 29 -100 29 -98.305 27.141 C-81.631 14.166 -62.275 5.611 -42 0 C-40.915 -0.32 -39.829 -0.639 -38.711 -0.969 C-25.954 -4.387 -12.52 -4.37 0 0 Z " fill="#FDFDFD" transform="translate(330,478)"/>
<path d="M0 0 C2.113 0.658 4.236 1.27 6.361 1.883 C22.334 6.673 47.369 16.185 58.033 29.633 C58.033 30.293 58.033 30.953 58.033 31.633 C46.89 37.205 28.454 31.314 16.789 29.204 C4.425 26.984 -7.38 25.835 -19.967 26.633 C-19.447 29.763 -19.447 29.763 -17.201 31.836 C-16.381 32.181 -15.561 32.527 -14.717 32.883 C-13.228 33.517 -13.228 33.517 -11.709 34.164 C-8.878 35.296 -6.023 36.359 -3.162 37.414 C13.543 43.578 29.757 50.419 43.033 62.633 C43.033 63.293 43.033 63.953 43.033 64.633 C33.878 68.461 25.437 68.777 15.592 68.484 C13.607 68.447 11.622 68.412 9.637 68.379 C6.546 68.323 3.458 68.257 0.368 68.16 C-2.641 68.068 -5.648 68.023 -8.658 67.984 C-9.573 67.945 -10.488 67.906 -11.43 67.865 C-16.657 67.843 -19.461 68.56 -23.456 72.039 C-24.642 73.221 -25.815 74.418 -26.967 75.633 C-32.239 80.215 -37.649 84.221 -43.717 87.695 C-44.306 88.034 -44.896 88.373 -45.503 88.723 C-48.507 90.404 -51.415 91.812 -54.623 93.094 C-65.312 97.486 -68.576 103.569 -73.691 113.329 C-75.833 117.197 -78.341 120.786 -80.904 124.383 C-81.408 125.089 -81.911 125.796 -82.429 126.523 C-86.489 132.129 -90.841 137.435 -95.385 142.652 C-97.811 145.453 -100.147 148.307 -102.467 151.195 C-106.088 155.657 -109.932 159.869 -113.861 164.056 C-118.039 168.572 -121.634 173.415 -125.189 178.43 C-125.776 179.157 -126.362 179.884 -126.967 180.633 C-127.627 180.633 -128.287 180.633 -128.967 180.633 C-129.208 179.561 -129.208 179.561 -129.454 178.468 C-132.941 162.645 -132.941 162.645 -137.154 147.008 C-140.709 134.99 -144.478 121.141 -140.842 108.82 C-136.376 101.229 -131.09 97.087 -123.467 92.82 C-121.67 91.774 -119.876 90.723 -118.084 89.668 C-116.773 88.897 -116.773 88.897 -115.435 88.11 C-90.43 73.144 -76.712 52.222 -64.939 26.164 C-59.718 14.647 -55.212 4.828 -42.967 -0.367 C-42.264 -0.686 -41.562 -1.004 -40.838 -1.332 C-27.992 -6.18 -12.772 -3.976 0 0 Z " fill="#FCFDFD" transform="translate(739.966796875,478.3671875)"/>
<path d="M0 0 C4.517 1.28 8.746 3.03 13.051 4.891 C13.905 5.251 14.759 5.611 15.639 5.982 C19.11 7.463 22.211 8.852 25.363 10.953 C24.555 11.449 23.747 11.946 22.914 12.457 C13.928 17.658 13.928 17.658 8.363 25.953 C7.058 35.011 8.035 42.465 13.363 49.953 C23.136 62.609 36.104 70.416 51.363 74.953 C50.754 79.094 49.292 82.257 47.363 85.953 C46.868 87.438 46.868 87.438 46.363 88.953 C53.293 88.953 60.223 88.953 67.363 88.953 C66.043 86.973 64.723 84.993 63.363 82.953 C62.651 80.223 62.559 77.791 62.363 74.953 C63.56 74.438 64.756 73.922 65.988 73.391 C67.782 72.583 69.573 71.77 71.363 70.953 C72.473 70.456 73.583 69.958 74.727 69.445 C86.778 63.782 97.65 55.693 103.238 43.203 C105.218 37.097 105.72 30.439 103.367 24.395 C100.118 18.937 96.004 16.065 90.438 13.145 C88.363 11.953 88.363 11.953 87.363 9.953 C91.272 8.247 95.191 6.567 99.113 4.891 C100.78 4.163 100.78 4.163 102.48 3.42 C104.085 2.738 104.085 2.738 105.723 2.043 C106.707 1.619 107.692 1.195 108.706 0.758 C111.53 -0.097 112.68 -0.18 115.363 0.953 C130.191 13.26 141.364 32.668 143.591 51.92 C144.76 67.107 140.396 80.778 130.801 92.578 C123.604 100.36 112.449 106.866 101.679 107.341 C99.936 107.361 98.193 107.366 96.45 107.357 C95.012 107.367 95.012 107.367 93.544 107.378 C90.394 107.396 87.244 107.392 84.094 107.387 C81.89 107.391 79.685 107.397 77.481 107.403 C72.867 107.412 68.253 107.409 63.639 107.399 C57.749 107.388 51.858 107.408 45.967 107.437 C41.416 107.456 36.865 107.455 32.314 107.449 C30.143 107.449 27.972 107.455 25.801 107.468 C8.679 107.552 -3.676 105.921 -16.793 93.992 C-27.279 83.143 -30.983 70.72 -30.789 55.953 C-30.652 51.104 -29.93 46.628 -28.637 41.953 C-28.369 40.927 -28.1 39.901 -27.824 38.844 C-24.435 26.811 -18.841 17.329 -10.637 7.953 C-9.951 7.149 -9.265 6.344 -8.559 5.516 C-7.883 4.773 -7.208 4.031 -6.512 3.266 C-5.911 2.602 -5.31 1.938 -4.691 1.254 C-2.637 -0.047 -2.637 -0.047 0 0 Z " fill="#FBFCFD" transform="translate(458.63671875,622.046875)"/>
<path d="M0 0 C4.881 10.421 7.59 18.857 7.002 30.422 C6.774 36.239 7.654 40.072 11.004 44.992 C12 47 12 47 11.785 49.68 C11 52 11 52 8.875 53.25 C6.845 54.785 6.845 54.785 6.715 56.797 C6.999 63.206 9.896 67.553 13.504 72.715 C15 75 15 75 15 77 C13.35 77.66 11.7 78.32 10 79 C9.445 86.493 11.376 92.413 15.102 98.926 C16.272 101.629 16.352 104.002 16.5 106.938 C16.708 111.048 17.16 114.287 19 118 C20.866 119.183 20.866 119.183 23 120 C24.351 120.976 25.689 121.97 27 123 C26.357 128.546 23.831 130.451 19.762 133.977 C16.803 136.144 13.79 137.638 10.5 139.25 C6.232 141.517 6.232 141.517 4.191 145.648 C4.103 147.681 4.078 149.716 4.105 151.75 C3.781 161.745 -2.116 170.323 -8 178 C-9.463 179.997 -10.921 181.997 -12.375 184 C-13.043 184.908 -13.71 185.815 -14.398 186.75 C-16.855 190.104 -16.855 190.104 -16.5 194.238 C-15.876 198.643 -15.517 202.735 -17 207 C-20.882 211.931 -26.55 215.139 -31.764 218.5 C-35.015 220.681 -37.936 223.171 -40.875 225.75 C-44.699 229.045 -48.563 232.277 -52.5 235.438 C-57.207 239.263 -61.641 243.319 -66.065 247.462 C-71.52 252.544 -77.22 257.293 -83 262 C-83.33 261.34 -83.66 260.68 -84 260 C-82.934 257.741 -81.823 255.648 -80.562 253.5 C-80.194 252.866 -79.826 252.231 -79.446 251.578 C-76.721 246.988 -73.683 242.846 -70.266 238.742 C-59.414 225.608 -50.356 212.129 -43.75 196.375 C-43.433 195.643 -43.115 194.911 -42.788 194.157 C-35.972 177.121 -35.484 159.493 -35.501 141.388 C-35.484 36.578 -35.484 36.578 -3.422 1.262 C-2 0 -2 0 0 0 Z " fill="#88C6EA" transform="translate(336,161)"/>
<path d="M0 0 C1.797 0.094 1.797 0.094 4 1 C20.062 19.115 25.91 44.086 30.25 67.188 C30.496 68.473 30.743 69.759 30.997 71.084 C35.233 94.245 35.336 117.773 35.456 141.24 C35.684 178.87 45.231 206.368 68.926 235.613 C73.63 241.446 77.995 247.251 81.75 253.75 C82.272 254.645 82.272 254.645 82.804 255.559 C83.606 257.003 84.313 258.498 85 260 C84.67 260.66 84.34 261.32 84 262 C76.981 256.065 70.025 250.093 63.312 243.812 C57.739 238.613 51.949 233.767 46 229 C44.725 227.958 43.452 226.915 42.18 225.871 C41.506 225.32 40.832 224.769 40.138 224.202 C38.757 223.07 37.381 221.933 36.009 220.791 C32.878 218.212 29.802 215.798 26.309 213.73 C22.982 211.676 20.464 210.043 18 207 C17.449 203.38 17.319 200.369 17.738 196.759 C18.175 192.992 18.104 191.193 16.273 187.809 C15.523 186.882 14.773 185.955 14 185 C13.363 184.201 12.726 183.402 12.07 182.578 C11.428 181.81 10.786 181.042 10.125 180.25 C2.781 171.131 -4.257 160.979 -3.875 148.938 C-3.876 145.866 -3.876 145.866 -5 143 C-8.799 139.684 -12.9 137.35 -17.315 134.952 C-20.702 133.038 -23.288 130.775 -26 128 C-26.668 125.328 -26.668 125.328 -27 123 C-26.362 122.518 -25.724 122.036 -25.066 121.539 C-24.24 120.907 -23.414 120.276 -22.562 119.625 C-21.739 118.999 -20.915 118.372 -20.066 117.727 C-17.915 116.162 -17.915 116.162 -17 114 C-16.921 112.063 -16.862 110.125 -16.812 108.188 C-16.381 101.575 -14.329 96.82 -11.371 90.961 C-9.602 87.14 -9.079 84.187 -9 80 C-10.392 77.216 -12.156 77.021 -15 76 C-12.183 71.255 -12.183 71.255 -10.688 69.168 C-7.24 64.203 -6.179 61.053 -7 55 C-8.543 52.825 -9.637 52.182 -12 51 C-11.58 47.643 -10.625 45.278 -8.945 42.402 C-6.529 37.656 -6.765 33.768 -7.125 28.562 C-7.513 18.379 -5.177 10.221 -1 1 C-0.67 0.67 -0.34 0.34 0 0 Z " fill="#8AC6EA" transform="translate(688,161)"/>
<path d="M0 0 C3.19 1.74 5.447 3.447 8 6 C8 6.99 8 7.98 8 9 C7.227 9.063 6.453 9.126 5.656 9.191 C-4.105 10.339 -8.229 13.328 -14.289 20.836 C-40.368 54.997 -57.032 99.72 -51.625 143.002 C-48.739 160.212 -41.275 176.06 -33.25 191.41 C-32 194 -32 194 -32 196 C-53.204 194.394 -75.719 178.32 -89.848 162.996 C-95.547 155.569 -95.886 146.985 -95 138 C-87.253 99.975 -63.896 60.955 -41 30 C-40.554 29.394 -40.107 28.788 -39.647 28.164 C-16.146 -3.427 -16.146 -3.427 0 0 Z " fill="#3276AF" transform="translate(679,123)"/>
<path d="M0 0 C0.825 0.456 1.65 0.913 2.5 1.383 C7.973 4.904 11.656 9.965 14 16 C15.91 26.169 12.055 34.436 7.25 43.188 C0.901 51.124 -5.684 56.817 -15 61 C-15.587 61.268 -16.173 61.536 -16.778 61.812 C-22.129 64.062 -26.976 64.543 -32.75 64.5 C-34.068 64.493 -34.068 64.493 -35.413 64.485 C-42.78 64.288 -48.593 62.737 -55 59 C-55.794 58.554 -56.588 58.108 -57.406 57.648 C-68.651 50.755 -75.833 41.501 -80 29 C-80.65 21.69 -81.243 14.779 -76.594 8.734 C-76.068 8.162 -75.542 7.59 -75 7 C-74.18 6.08 -74.18 6.08 -73.344 5.141 C-57.248 -10.818 -18.94 -11.169 0 0 Z " fill="#033A78" transform="translate(548,848)"/>
<path d="M0 0 C3.993 0.639 5.369 1.526 8.125 4.5 C9.736 7.385 10.901 10.434 12.125 13.5 C16.854 25.091 21.611 35.937 31.125 44.5 C31.635 44.991 32.146 45.482 32.672 45.988 C39.008 51.844 44.643 54.694 53.319 54.524 C54.757 54.467 56.194 54.381 57.629 54.265 C59.648 54.152 59.648 54.152 63.125 54.5 C67.681 59.732 69.57 68.892 69.188 75.75 C68.439 80.225 66.894 84.487 65.375 88.75 C65.135 89.436 64.896 90.122 64.649 90.829 C62.932 95.355 60.969 98.381 57.125 101.5 C49.449 102.671 42.822 100.048 36.512 95.699 C33.968 93.711 31.535 91.648 29.125 89.5 C28.52 88.978 27.916 88.456 27.293 87.918 C16.793 78.205 9.987 65.341 4.125 52.5 C3.642 51.46 3.158 50.419 2.66 49.348 C-0.754 41.617 -2.922 33.705 -4.875 25.5 C-5.071 24.696 -5.267 23.891 -5.469 23.062 C-6.03 19.523 -6.099 16.012 -6.125 12.438 C-6.146 11.73 -6.166 11.023 -6.188 10.295 C-6.211 7.11 -6.07 4.86 -4.539 2.035 C-2.875 0.5 -2.875 0.5 0 0 Z " fill="#3275AF" transform="translate(376.875,433.5)"/>
<path d="M0 0 C0.995 0.059 1.99 0.119 3.016 0.18 C16.187 1.797 29.508 10.027 38 20 C39.289 22.801 39.289 22.801 40 25 C37.937 24.689 35.875 24.376 33.812 24.062 C32.664 23.888 31.515 23.714 30.332 23.535 C28.437 23.231 26.544 22.899 24.67 22.484 C7.535 19.38 -11.907 20.669 -27 29.75 C-40.894 40.17 -45.896 55.193 -48.43 71.82 C-48.978 75.785 -49.502 79.75 -49.961 83.726 C-50.07 84.627 -50.178 85.528 -50.289 86.457 C-50.379 87.261 -50.469 88.065 -50.561 88.894 C-51 91 -51 91 -53 94 C-58.873 87.276 -62.651 80.252 -66 72 C-66.343 71.189 -66.686 70.378 -67.039 69.543 C-71.377 57.643 -70.037 43.416 -65 32 C-58.087 18.569 -47.223 8.469 -32.998 3.268 C-22.147 -0.207 -11.304 -0.721 0 0 Z " fill="#FBFCFC" transform="translate(612,392)"/>
<path d="M0 0 C0.946 -0.008 1.892 -0.015 2.867 -0.023 C18.396 0.02 32.834 6.339 44.125 16.938 C55.496 28.83 59.343 41.669 59.141 57.809 C58.611 70.78 52.512 84.523 44 94.25 C43.67 94.25 43.34 94.25 43 94.25 C42.759 92.959 42.759 92.959 42.513 91.642 C41.898 88.37 41.279 85.1 40.656 81.829 C40.391 80.429 40.127 79.028 39.865 77.626 C35.87 52.491 35.87 52.491 21.203 32.656 C8.301 24.421 -3.005 21.869 -18.25 21.938 C-19.44 21.939 -20.63 21.94 -21.856 21.941 C-29.383 22.024 -36.221 22.587 -43.496 24.594 C-46 25.25 -46 25.25 -50 25.25 C-46.795 16.003 -38.473 10.455 -30 6.25 C-19.983 2.003 -10.846 -0.089 0 0 Z " fill="#FBFCFD" transform="translate(425,391.75)"/>
<path d="M0 0 C1.408 5.624 2.654 11.309 1 17 C-2.744 22.05 -8.508 25.207 -13.748 28.517 C-17.022 30.673 -19.936 33.163 -22.875 35.75 C-26.699 39.046 -30.563 42.277 -34.5 45.438 C-39.207 49.263 -43.641 53.319 -48.065 57.462 C-53.52 62.544 -59.22 67.293 -65 72 C-65.33 71.34 -65.66 70.68 -66 70 C-64.934 67.741 -63.823 65.648 -62.562 63.5 C-62.194 62.866 -61.826 62.231 -61.446 61.578 C-58.721 56.988 -55.683 52.846 -52.266 48.742 C-42.115 36.457 -31.915 23.359 -27 8 C-25.749 7.836 -25.749 7.836 -24.473 7.668 C-17.367 6.667 -5.891 0 0 0 Z " fill="#F9FAFC" transform="translate(318,351)"/>
<path d="M0 0 C0.45 0.326 0.9 0.652 1.363 0.988 C7.895 5.425 14.738 7.355 22.508 8.531 C27.586 10.667 28.885 14.047 31.312 18.812 C35.889 27.235 40.91 34.582 47 42 C52.724 48.991 58.221 55.908 62.75 63.75 C63.271 64.645 63.271 64.645 63.803 65.558 C64.605 67.002 65.313 68.498 66 70 C65.67 70.66 65.34 71.32 65 72 C57.981 66.065 51.025 60.093 44.312 53.812 C38.739 48.613 32.949 43.767 27 39 C25.725 37.958 24.452 36.915 23.18 35.871 C22.506 35.32 21.832 34.769 21.138 34.202 C19.757 33.07 18.382 31.932 17.011 30.788 C13.873 28.198 10.805 25.797 7.273 23.766 C3.862 21.704 1.424 20.174 -1 17 C-2.113 11.331 -1.055 5.605 0 0 Z " fill="#FAFAFC" transform="translate(707,351)"/>
<path d="M0 0 C6.649 5.588 11.697 13.157 13.105 21.77 C13.765 30.628 13.328 37.874 9.105 45.77 C8.77 46.411 8.435 47.053 8.09 47.715 C7.105 49.395 7.105 49.395 5.105 51.77 C3.785 51.77 2.465 51.77 1.105 51.77 C1.59 47.774 3.085 45.074 5.117 41.645 C8.685 34.876 9.35 26.5 7.418 19.156 C3.981 9.718 -0.975 4.446 -10.016 -0.072 C-18.2 -3.665 -27.513 -3.953 -36.02 -1.23 C-38.479 -0.059 -40.658 1.221 -42.895 2.77 C-43.823 3.347 -44.751 3.925 -45.707 4.52 C-52.189 11.187 -54.337 19.031 -54.242 28.137 C-53.475 33.949 -50.423 38.347 -46.207 42.27 C-43.993 43.767 -43.993 43.767 -41.895 44.77 C-42.555 46.09 -43.215 47.41 -43.895 48.77 C-48.174 48.276 -51.087 45.857 -53.895 42.77 C-59.791 34.918 -60.093 26.158 -58.895 16.77 C-57.693 13.046 -56.09 9.995 -53.895 6.77 C-53.059 5.439 -53.059 5.439 -52.207 4.082 C-37.052 -11.073 -17.284 -12.084 0 0 Z " fill="#E67DB2" transform="translate(541.89453125,489.23046875)"/>
<path d="M0 0 C2.438 -0.081 4.874 -0.14 7.312 -0.188 C8.348 -0.225 8.348 -0.225 9.404 -0.264 C14.485 -0.337 14.485 -0.337 16.957 1.281 C19.141 4.881 18.442 9.168 17.496 13.09 C15.411 19.297 12.064 24.059 6.312 27.375 C1.571 29.478 -2.905 30.066 -8 29 C-11.87 27.094 -16.019 24.961 -18 21 C-18.297 17.589 -18.359 15.62 -16.625 12.625 C-16.089 12.089 -15.553 11.553 -15 11 C-14.34 11 -13.68 11 -13 11 C-12.443 11.825 -11.886 12.65 -11.312 13.5 C-9.159 16.344 -9.159 16.344 -5.5 16.562 C-2.021 16.242 -2.021 16.242 0.438 14.438 C2.583 11.091 2.412 8.913 2 5 C1.368 3.32 0.707 1.65 0 0 Z " fill="#F7F9FB" transform="translate(603,444)"/>
<path d="M0 0 C1.742 0.041 1.742 0.041 3.52 0.082 C4.4 0.117 5.28 0.152 6.188 0.188 C5.948 1.036 5.948 1.036 5.703 1.902 C5.176 4.24 4.986 6.356 4.938 8.75 C4.912 9.514 4.886 10.279 4.859 11.066 C5.274 13.748 6.028 14.586 8.188 16.188 C11.57 16.698 14.001 16.934 16.977 15.062 C18.441 13.841 19.822 12.52 21.188 11.188 C25.188 15.43 25.188 15.43 25.188 18.688 C23.351 23.278 21.226 25.619 16.875 28 C10.925 29.916 5.867 29.854 0.188 27.188 C-6.418 22.788 -9.83 17.858 -11.812 10.188 C-12.375 6.25 -12.375 6.25 -11.812 3.188 C-7.918 0.086 -4.885 -0.148 0 0 Z " fill="#F6F7FA" transform="translate(417.8125,443.8125)"/>
<path d="M0 0 C0 6.93 0 13.86 0 21 C1.32 21.33 2.64 21.66 4 22 C-10.152 24.871 -23.554 26.607 -38 26 C-38 22 -38 22 -36.305 20.141 C-10.421 0 -10.421 0 0 0 Z " fill="#89C5E9" transform="translate(268,485)"/>
<path d="M0 0 C10.426 4.17 20.292 9.372 29.812 15.312 C30.488 15.733 31.163 16.153 31.859 16.586 C34.864 18.497 37.652 20.309 40 23 C40 23.66 40 24.32 40 25 C28.574 30.713 8.713 24.503 -3 22 C-1.68 21.67 -0.36 21.34 1 21 C0.67 14.07 0.34 7.14 0 0 Z " fill="#86C5E9" transform="translate(758,485)"/>
<path d="M0 0 C7.67 3.473 14.696 7.167 21.375 12.312 C21.94 12.745 22.505 13.177 23.087 13.623 C24.436 14.694 25.725 15.841 27 17 C27 17.66 27 18.32 27 19 C16.769 23.279 6.903 23.138 -4.062 23.062 C-5.31 23.058 -6.557 23.053 -7.842 23.049 C-10.895 23.037 -13.947 23.021 -17 23 C-17 22.67 -17 22.34 -17 22 C-13.04 22 -9.08 22 -5 22 C-4.878 21.183 -4.755 20.365 -4.629 19.523 C-3.911 15.502 -2.95 11.581 -1.938 7.625 C-1.751 6.889 -1.565 6.153 -1.373 5.395 C-0.918 3.596 -0.459 1.798 0 0 Z " fill="#8AC6E8" transform="translate(756,524)"/>
<path d="M0 0 C2.542 2.542 2.301 3.584 2.457 7.117 C2.515 8.186 2.573 9.255 2.633 10.357 C2.692 11.518 2.751 12.679 2.812 13.875 C3.647 27.534 5.811 40.765 8.459 54.177 C9.021 57.111 9.52 60.052 10 63 C5.82 60.033 3.29 56.752 0.75 52.375 C0.399 51.79 0.049 51.205 -0.312 50.602 C-1.607 48.43 -2.869 46.262 -4 44 C-4.33 51.26 -4.66 58.52 -5 66 C-5.33 66 -5.66 66 -6 66 C-6.354 24.338 -6.354 24.338 -3 10 C-2.822 9.136 -2.644 8.273 -2.461 7.383 C-1.163 1.163 -1.163 1.163 0 0 Z " fill="#7FBADE" transform="translate(234,573)"/>
<path d="M0 0 C0.416 1.879 0.416 1.879 0.84 3.797 C1.206 5.448 1.572 7.099 1.938 8.75 C2.12 9.575 2.302 10.4 2.49 11.25 C2.667 12.049 2.845 12.848 3.027 13.672 C3.271 14.772 3.271 14.772 3.519 15.894 C3.985 17.936 4.492 19.968 5 22 C9.95 22 14.9 22 20 22 C20 22.33 20 22.66 20 23 C15.396 23.1 10.793 23.172 6.188 23.22 C4.627 23.24 3.067 23.267 1.507 23.302 C-8.812 23.527 -17.267 22.802 -27 19 C-23.478 14.388 -20.066 11.376 -15.125 8.375 C-14.538 8.006 -13.952 7.638 -13.348 7.258 C-1.72 0 -1.72 0 0 0 Z " fill="#87C2E7" transform="translate(271,524)"/>
<path d="M0 0 C6.102 6.102 6.104 20.716 7 29 C7.144 30.083 7.289 31.166 7.438 32.281 C8.321 43.656 2.098 51.009 -4.738 59.41 C-5.485 60.265 -6.231 61.119 -7 62 C-7.33 62 -7.66 62 -8 62 C-7.515 57.695 -6.928 53.459 -6.098 49.207 C-3.657 36.589 -2.314 24.138 -1.596 11.322 C-1.529 10.136 -1.463 8.951 -1.395 7.73 C-1.315 6.143 -1.315 6.143 -1.234 4.524 C-1 2 -1 2 0 0 Z " fill="#81BCE1" transform="translate(791,573)"/>
<path d="M0 0 C2.942 2.225 3.9 3.417 4.531 7.094 C4.521 8.218 4.511 9.342 4.5 10.5 C4.51 11.624 4.521 12.748 4.531 13.906 C3.9 17.583 2.928 18.761 0 21 C-2.5 21.5 -2.5 21.5 -5 21 C-7.79 18.752 -8.859 17.423 -10 14 C-10.346 8.64 -10.452 5.381 -7 1 C-4.409 -0.296 -2.877 -0.343 0 0 Z " fill="#EB7CB3" transform="translate(510,504)"/>
<path d="M0 0 C5.459 0.437 8.8 1.439 13 5 C17.832 11.46 19.732 16.938 19 25 C17.746 30.173 15.595 34.033 12 38 C11.01 37.67 10.02 37.34 9 37 C9.497 34.415 10.149 32.762 11.562 30.5 C13.885 24.844 14.024 18.767 12.414 12.844 C9.876 7.536 5.082 5.357 0 3 C0 2.01 0 1.02 0 0 Z " fill="#DF7BB4" transform="translate(524,494)"/>
<path d="M0 0 C1.65 0 3.3 0 5 0 C4.991 0.643 4.982 1.286 4.973 1.949 C5.252 10.466 7.952 17.14 13 24 C16.126 26.767 19.352 28.981 23 31 C22.67 32.32 22.34 33.64 22 35 C15.363 33.507 10.581 29.928 6.862 24.268 C2.285 16.571 -1.591 9.19 0 0 Z " fill="#E47FB6" transform="translate(472,517)"/>
<path d="M0 0 C0.99 0.66 1.98 1.32 3 2 C3 2.66 3 3.32 3 4 C3.99 4 4.98 4 6 4 C6 4.99 6 5.98 6 7 C5.01 7 4.02 7 3 7 C3 10.63 3 14.26 3 18 C3.99 18 4.98 18 6 18 C5.67 19.32 5.34 20.64 5 22 C2.625 22.188 2.625 22.188 0 22 C-2.351 18.473 -2.214 16.971 -2.125 12.812 C-2.107 11.726 -2.089 10.639 -2.07 9.52 C-2.047 8.688 -2.024 7.857 -2 7 C-2.66 7 -3.32 7 -4 7 C-3.688 4.625 -3.688 4.625 -3 2 C-2.01 1.34 -1.02 0.68 0 0 Z " fill="#F07FB5" transform="translate(521,502)"/>
<path d="M0 0 C4.982 0.245 9.115 0.6 13 4 C13.375 6.625 13.375 6.625 13 9 C12 10 12 10 8.812 10.312 C4.35 9.947 2.375 8.893 -1 6 C-2 3.875 -2 3.875 -2 2 C-1.34 1.34 -0.68 0.68 0 0 Z " fill="#74B5DA" transform="translate(540,644)"/>
<path d="M0 0 C1 1 1 1 1.375 3.375 C1 6 1 6 -0.938 7.75 C-4.928 9.379 -8.725 9.73 -13 10 C-13.33 8.35 -13.66 6.7 -14 5 C-9.21 0.986 -6.282 -0.273 0 0 Z " fill="#7EBAE0" transform="translate(491,644)"/>
<path d="M0 0 C2 2 2 2 2.062 3.875 C0.374 7.252 -2.604 8.675 -6 10 C-9.438 10.25 -9.438 10.25 -12 10 C-12.33 8.35 -12.66 6.7 -13 5 C-8.767 1.493 -5.769 -0.939 0 0 Z " fill="#76B9DE" transform="translate(493,856)"/>
<path d="M0 0 C3.964 0.264 5.747 0.689 8.75 3.25 C9.625 5.875 9.625 5.875 9.75 8.25 C8.19 9.81 6.661 9.495 4.5 9.562 C0.859 9.545 -0.13 9.329 -3.312 7.25 C-3.952 6.59 -4.591 5.93 -5.25 5.25 C-4.136 0.318 -4.136 0.318 0 0 Z " fill="#79B9E0" transform="translate(540.25,855.75)"/>
<path d="M0 0 C0.99 0 1.98 0 3 0 C3 3.3 3 6.6 3 10 C1.68 10 0.36 10 -1 10 C-1.125 2.25 -1.125 2.25 0 0 Z " fill="#5D6694" transform="translate(506,509)"/>
</svg>