<svg version="1.1" xmlns="http://www.w3.org/2000/svg" width="1024" height="1024">
<path d="M0 0 C337.92 0 675.84 0 1024 0 C1024 337.92 1024 675.84 1024 1024 C686.08 1024 348.16 1024 0 1024 C0 686.08 0 348.16 0 0 Z " fill="#FEFEFE" transform="translate(0,0)"/>
<path d="M0 0 C3.062 0.438 3.062 0.438 5.438 2.062 C7.599 5.222 7.482 6.628 7.062 10.438 C5.863 13.44 4.304 16.212 2.723 19.027 C1.795 20.734 0.868 22.44 -0.058 24.148 C-0.537 25.024 -1.017 25.9 -1.51 26.803 C-3.763 30.961 -5.916 35.168 -8.066 39.379 C-8.718 40.65 -8.718 40.65 -9.383 41.948 C-10.757 44.631 -12.129 47.315 -13.5 50 C-13.982 50.942 -14.463 51.885 -14.959 52.856 C-23.191 68.972 -31.337 85.13 -39.438 101.312 C-39.966 102.366 -40.494 103.42 -41.038 104.506 C-46.835 116.077 -52.562 127.664 -57.938 139.438 C-57.285 139.502 -56.632 139.567 -55.96 139.634 C-11.163 144.204 -11.163 144.204 0.125 156.5 C2.021 159.375 2.519 161.117 3.062 164.438 C4.344 164.426 5.625 164.414 6.945 164.402 C15.629 164.348 24.209 164.419 32.867 165.156 C37.573 165.513 42.286 165.621 47.002 165.764 C57.227 166.073 67.362 166.51 77.53 167.643 C82.943 168.243 88.347 168.681 93.781 169.037 C107.584 169.95 121.314 171.357 135.062 172.875 C136.012 172.978 136.961 173.082 137.939 173.188 C155.554 175.116 172.971 177.764 190.379 181.074 C194.542 181.851 198.665 182.537 202.879 182.965 C206.176 183.302 209.197 183.897 212.375 184.875 C216.098 185.957 219.658 186.695 223.5 187.188 C229.344 188.091 234.749 189.867 240.312 191.812 C241.152 192.105 241.992 192.397 242.857 192.698 C256.51 197.603 266.728 204.558 274.062 217.438 C274.49 218.137 274.918 218.837 275.359 219.559 C279.579 227.073 281.373 235.326 283.381 243.633 C284.105 246.613 284.854 249.586 285.605 252.559 C288.228 263.066 290.632 273.517 292.125 284.25 C292.593 287.605 293.147 290.755 294.02 294.039 C295.659 300.325 296.229 306.813 297 313.25 C297.173 314.665 297.347 316.08 297.521 317.495 C298.803 327.994 299.993 338.503 301.111 349.021 C301.223 350.059 301.334 351.098 301.449 352.168 C301.544 353.069 301.639 353.971 301.737 354.899 C302.022 357.406 302.022 357.406 302.554 359.715 C303.106 362.671 303.341 365.539 303.527 368.54 C303.604 369.755 303.681 370.969 303.76 372.22 C303.839 373.535 303.918 374.849 304 376.203 C304.086 377.597 304.172 378.99 304.258 380.384 C304.438 383.322 304.616 386.261 304.792 389.2 C304.968 392.142 305.149 395.083 305.333 398.024 C307.445 431.74 308.269 465.372 308.251 499.153 C308.25 501.853 308.25 504.553 308.25 507.253 C308.245 527.847 308.199 548.427 307.188 569 C307.148 569.814 307.109 570.627 307.069 571.465 C305.626 600.081 303.598 630.556 281.844 651.582 C276.196 656.278 269.727 659.432 263.062 662.438 C262.047 662.9 262.047 662.9 261.012 663.371 C250.16 667.856 237.798 669.092 226.25 670.625 C224.948 670.799 223.646 670.974 222.304 671.153 C212.82 672.359 203.614 672.942 194.062 672.438 C194.386 673.467 194.71 674.497 195.043 675.559 C196.003 678.917 196.289 681.998 196.375 685.5 C197.444 701.139 206.29 716.198 212.73 730.266 C213.18 731.25 213.63 732.234 214.093 733.248 C214.971 735.168 215.852 737.086 216.737 739.002 C221.135 748.596 224.321 757.411 220.938 767.938 C217.63 772.347 214.701 774.169 209.25 775.062 C202.187 774.645 196.883 769.555 192.25 764.625 C184.444 755.343 177.819 745.109 171.125 735.016 C170.689 734.359 170.254 733.703 169.805 733.027 C167.618 729.731 165.438 726.43 163.269 723.122 C154.551 709.396 154.551 709.396 142.938 698.25 C137.101 693.767 132.646 689.877 130.402 682.715 C130.147 681.912 129.892 681.109 129.629 680.281 C129.348 679.368 129.348 679.368 129.062 678.438 C121.055 678.809 113.049 679.182 105.042 679.559 C101.323 679.734 97.603 679.908 93.884 680.08 C90.286 680.247 86.687 680.416 83.088 680.586 C81.068 680.681 79.048 680.774 77.027 680.867 C75.137 680.957 75.137 680.957 73.208 681.049 C72.115 681.1 71.023 681.151 69.897 681.203 C66.793 681.393 63.711 681.647 60.615 681.927 C53.113 682.563 45.605 682.789 38.081 682.99 C36.95 683.021 36.95 683.021 35.796 683.053 C18.926 683.514 2.06 683.602 -14.815 683.605 C-17.294 683.605 -19.773 683.608 -22.252 683.61 C-31.016 683.619 -39.78 683.624 -48.544 683.623 C-55.647 683.622 -62.751 683.629 -69.854 683.643 C-120.322 683.741 -170.557 682.824 -220.957 679.989 C-232.696 679.34 -244.442 679.026 -256.196 678.779 C-263.484 678.619 -270.699 678.348 -277.938 677.438 C-277.999 678.592 -278.061 679.747 -278.125 680.938 C-279.276 689.753 -285.218 695.199 -291.938 700.438 C-293.289 701.42 -294.643 702.399 -296 703.375 C-303.984 709.315 -308.806 717.122 -313.625 725.688 C-314.849 727.821 -316.075 729.954 -317.301 732.086 C-317.909 733.149 -318.517 734.212 -319.143 735.308 C-337.642 767.574 -337.642 767.574 -350.938 776.438 C-356.741 777.207 -362.135 777.011 -366.938 773.438 C-370.722 769.432 -372.291 765.491 -372.562 760 C-372.27 755.03 -371.297 750.447 -369.883 745.691 C-369.666 744.956 -369.448 744.222 -369.224 743.464 C-367.027 736.302 -364.144 729.481 -361.214 722.595 C-354.815 707.551 -349.493 694.092 -351.018 677.4 C-350.92 675 -350.127 673.498 -348.938 671.438 C-349.674 671.446 -350.41 671.455 -351.169 671.464 C-358.195 671.511 -365.125 671.269 -372.125 670.688 C-373.171 670.601 -374.217 670.514 -375.294 670.425 C-383.85 669.682 -392.388 668.796 -400.918 667.809 C-402.322 667.648 -403.725 667.49 -405.129 667.335 C-430.347 664.535 -454.611 657.067 -471.66 637.324 C-483.351 622.505 -488.357 604.34 -490.61 585.88 C-490.839 584.176 -491.104 582.476 -491.397 580.782 C-493.284 569.795 -493.928 558.741 -494.562 547.625 C-494.628 546.489 -494.694 545.353 -494.762 544.183 C-496.143 519.299 -496.21 494.416 -496.188 469.5 C-496.187 468.543 -496.187 467.585 -496.186 466.599 C-496.173 439.803 -495.971 413.087 -493.625 386.375 C-493.562 385.636 -493.498 384.898 -493.433 384.137 C-487.71 317.535 -487.71 317.535 -482.362 294.4 C-481.791 291.762 -481.487 289.119 -481.188 286.438 C-479.642 275.26 -476.758 264.35 -473.938 253.438 C-473.7 252.51 -473.463 251.582 -473.218 250.626 C-467.596 229.066 -458.631 210.415 -438.938 198.438 C-435.033 196.424 -431.093 194.857 -426.938 193.438 C-425.923 193.091 -424.909 192.744 -423.863 192.387 C-412.73 189.038 -401.23 187.836 -389.73 186.367 C-384.838 185.732 -380.049 184.893 -375.224 183.875 C-370.783 183.025 -366.285 182.702 -361.785 182.314 C-356.379 181.802 -351.059 180.965 -345.711 180.035 C-335.044 178.196 -324.318 177.004 -313.562 175.812 C-310.657 175.488 -307.752 175.163 -304.847 174.834 C-303.06 174.632 -301.273 174.432 -299.485 174.236 C-298.683 174.146 -297.88 174.055 -297.053 173.962 C-296.002 173.846 -296.002 173.846 -294.93 173.727 C-292.93 173.472 -292.93 173.472 -290.983 172.938 C-288.681 172.375 -286.454 172.122 -284.094 171.897 C-282.647 171.756 -282.647 171.756 -281.17 171.613 C-280.126 171.515 -279.083 171.417 -278.008 171.316 C-276.918 171.212 -275.827 171.108 -274.704 171 C-271.157 170.663 -267.61 170.331 -264.062 170 C-262.859 169.887 -261.656 169.775 -260.417 169.659 C-209.788 164.932 -209.788 164.932 -185.938 165.438 C-185.818 164.692 -185.698 163.947 -185.574 163.18 C-184.226 157.375 -180.928 153.74 -175.988 150.508 C-160.121 142.077 -143.597 140.58 -125.938 139.438 C-133.501 128.772 -141.263 118.353 -149.51 108.208 C-151.812 105.353 -154.059 102.456 -156.312 99.562 C-162.192 92.04 -168.279 84.693 -174.367 77.34 C-176.446 74.821 -178.504 72.286 -180.562 69.75 C-184.462 64.974 -188.472 60.299 -192.497 55.628 C-196.263 51.249 -199.931 46.798 -203.566 42.309 C-205.383 40.109 -207.221 37.94 -209.09 35.785 C-209.634 35.157 -210.178 34.53 -210.738 33.883 C-211.806 32.654 -212.878 31.429 -213.953 30.207 C-217.337 26.314 -219.723 23.543 -220.25 18.375 C-219.938 15.438 -219.938 15.438 -218.875 13.562 C-215.738 11.741 -213.484 11.948 -209.938 12.438 C-207.508 14.648 -207.508 14.648 -204.938 17.438 C-204.159 18.265 -203.38 19.093 -202.578 19.945 C-197.677 25.311 -192.972 30.777 -188.41 36.434 C-185.529 39.934 -182.55 43.34 -179.562 46.75 C-174.85 52.141 -170.344 57.646 -165.961 63.308 C-162.883 67.272 -159.702 71.126 -156.438 74.938 C-151.262 80.993 -146.324 87.211 -141.441 93.504 C-139.842 95.56 -138.234 97.608 -136.625 99.656 C-128.667 109.805 -120.94 120.105 -113.341 130.525 C-112.34 131.889 -111.309 133.231 -110.259 134.557 C-108.938 136.437 -108.938 136.437 -108.938 138.438 C-97.058 138.438 -85.178 138.438 -72.938 138.438 C-72.277 136.458 -71.618 134.477 -70.938 132.438 C-70.026 130.405 -69.078 128.389 -68.102 126.387 C-67.538 125.226 -66.974 124.064 -66.393 122.868 C-65.783 121.62 -65.173 120.373 -64.562 119.125 C-63.932 117.83 -63.303 116.535 -62.673 115.24 C-61.709 113.254 -60.744 111.269 -59.778 109.285 C-56.214 101.962 -52.703 94.614 -49.198 87.262 C-42.35 72.953 -35.133 58.825 -27.911 44.702 C-27.014 42.947 -26.119 41.19 -25.225 39.434 C-20.424 30.002 -15.56 20.61 -10.461 11.336 C-10.05 10.582 -9.639 9.828 -9.216 9.052 C-8.83 8.356 -8.443 7.66 -8.044 6.943 C-7.709 6.336 -7.373 5.729 -7.027 5.103 C-4.976 1.968 -3.786 0.564 0 0 Z " fill="#FDFDFD" transform="translate(610.9375,95.5625)"/>
<path d="M0 0 C2.074 -0.001 4.148 -0.003 6.222 -0.005 C13.517 -0.015 20.813 -0.019 28.108 -0.018 C34.811 -0.017 41.515 -0.028 48.218 -0.044 C54.054 -0.057 59.89 -0.062 65.726 -0.062 C69.176 -0.061 72.626 -0.064 76.075 -0.075 C100.682 -0.139 125.089 1.103 149.512 4.167 C150.9 4.335 152.287 4.501 153.675 4.667 C178.591 7.675 178.591 7.675 181.575 9.167 C182.833 9.291 184.091 9.415 185.387 9.542 C191.59 10.192 197.535 11.648 203.575 13.167 C204.607 13.415 204.607 13.415 205.66 13.667 C236.095 21.007 236.095 21.007 243.575 33.167 C246.707 38.694 248.665 44.207 250.2 50.355 C250.521 51.617 250.521 51.617 250.848 52.905 C252.516 59.626 253.76 66.287 254.575 73.167 C254.685 74.1 254.796 75.033 254.91 75.993 C255.572 81.61 256.217 87.228 256.852 92.847 C257.411 97.772 258.007 102.689 258.637 107.605 C259.348 113.246 260.018 118.89 260.637 124.542 C260.717 125.236 260.796 125.93 260.878 126.646 C262.518 141.974 262.727 157.343 262.708 172.741 C262.708 174.682 262.709 176.622 262.711 178.562 C262.712 182.609 262.71 186.655 262.705 190.702 C262.7 195.789 262.703 200.875 262.709 205.962 C262.737 235.01 262.697 264.071 260.325 293.042 C260.233 294.202 260.233 294.202 260.139 295.386 C259.197 307.064 257.84 318.648 256.075 330.23 C255.973 330.899 255.872 331.568 255.767 332.258 C250.338 367.523 250.338 367.523 241.575 375.167 C229.083 381.436 213.863 383.438 200.201 385.773 C199.312 385.926 198.424 386.08 197.509 386.238 C196.334 386.435 196.334 386.435 195.135 386.636 C192.43 387.161 192.43 387.161 189.263 388.142 C185.411 389.213 181.584 389.914 177.637 390.499 C176.864 390.616 176.091 390.733 175.294 390.854 C172.722 391.237 170.149 391.61 167.575 391.98 C166.682 392.109 165.789 392.238 164.869 392.372 C130.48 397.298 95.435 400.631 60.7 401.73 C60.044 401.751 59.387 401.771 58.711 401.793 C43.003 402.271 27.289 402.277 11.575 402.292 C10.297 402.295 9.019 402.297 7.702 402.3 C4.056 402.306 0.409 402.304 -3.238 402.3 C-4.353 402.302 -5.468 402.304 -6.617 402.306 C-7.632 402.303 -8.648 402.3 -9.695 402.297 C-11.034 402.295 -11.034 402.295 -12.401 402.294 C-14.425 402.167 -14.425 402.167 -15.425 401.167 C-17.499 401.021 -19.577 400.94 -21.656 400.886 C-22.934 400.849 -24.212 400.811 -25.529 400.773 C-26.89 400.737 -28.251 400.702 -29.613 400.667 C-32.252 400.599 -34.891 400.525 -37.531 400.449 C-38.708 400.418 -39.885 400.388 -41.098 400.357 C-44.281 400.175 -47.286 399.706 -50.425 399.167 C-52.539 398.995 -54.655 398.854 -56.773 398.738 C-58.619 398.63 -58.619 398.63 -60.503 398.521 C-61.818 398.445 -63.133 398.37 -64.488 398.292 C-75.348 397.639 -86.165 396.795 -96.988 395.667 C-98.132 395.549 -99.276 395.43 -100.455 395.308 C-107.418 394.56 -114.342 393.638 -121.267 392.601 C-124.257 392.19 -127.23 391.899 -130.238 391.667 C-134.343 391.331 -138.178 390.607 -142.175 389.636 C-144.616 389.127 -147.004 388.879 -149.488 388.667 C-153.295 388.338 -156.766 387.638 -160.445 386.632 C-162.532 386.142 -164.54 385.918 -166.675 385.73 C-170.181 385.393 -173.445 384.712 -176.851 383.816 C-184.817 381.781 -192.861 380.148 -200.915 378.505 C-235.371 371.294 -235.371 371.294 -246.425 358.167 C-248.546 354.629 -250.046 351.048 -251.425 347.167 C-251.707 346.451 -251.99 345.734 -252.281 344.995 C-256.553 333.457 -257.768 321.129 -259.05 308.98 C-259.173 307.824 -259.296 306.668 -259.423 305.477 C-261.336 286.325 -261.586 267.206 -261.555 247.97 C-261.55 244.004 -261.555 240.038 -261.562 236.072 C-261.571 211.294 -260.533 186.876 -257.988 162.23 C-257.767 160.039 -257.548 157.848 -257.329 155.657 C-256.711 149.492 -256.074 143.329 -255.425 137.167 C-255.282 135.802 -255.282 135.802 -255.135 134.409 C-254.871 131.911 -254.602 129.414 -254.331 126.917 C-254.216 125.838 -254.216 125.838 -254.099 124.736 C-253.624 120.437 -252.911 116.289 -251.859 112.097 C-251.227 109.287 -250.997 106.461 -250.717 103.599 C-247.823 79.484 -241.575 48.358 -222.113 32.159 C-209.013 22.449 -194.782 18.202 -179.066 14.964 C-175.617 14.365 -175.617 14.365 -173.425 13.167 C-165.301 11.577 -157.009 10.704 -148.8 9.667 C-147.4 9.49 -147.4 9.49 -145.971 9.308 C-142.791 8.913 -139.609 8.538 -136.425 8.167 C-135.172 8.019 -133.918 7.871 -132.627 7.718 C-116.913 5.929 -101.131 4.896 -85.359 3.77 C-82.291 3.55 -79.223 3.326 -76.155 3.102 C-73.129 2.881 -70.104 2.663 -67.078 2.445 C-65.666 2.343 -64.255 2.241 -62.843 2.138 C-58.039 1.788 -53.233 1.465 -48.425 1.167 C-47.67 1.12 -46.916 1.073 -46.138 1.025 C-30.761 0.097 -15.401 0.003 0 0 Z " fill="#FEFEFE" transform="translate(490.42503929138184,302.8327429294586)"/>
<path d="M0 0 C10.712 -0.047 21.424 -0.082 32.136 -0.104 C37.114 -0.114 42.092 -0.128 47.069 -0.151 C134.639 -0.545 134.639 -0.545 156.039 19.953 C183.942 49.005 177.911 106.447 177.184 143.497 C176.586 165.24 173.224 189.349 157.75 205.75 C146.666 216.209 131.909 221.813 116.922 223.641 C114.346 223.957 111.903 224.425 109.375 225 C95.131 227.931 80.228 228.479 65.765 229.751 C64.008 229.909 62.253 230.074 60.498 230.247 C53.743 230.902 47.008 231.264 40.227 231.5 C39.141 231.541 38.055 231.581 36.937 231.623 C33.5 231.751 30.062 231.876 26.625 232 C23.195 232.124 19.765 232.249 16.335 232.377 C14.212 232.456 12.089 232.533 9.966 232.607 C4.898 232.797 -0.138 233.083 -5.192 233.523 C-13.118 234.157 -21.028 234.145 -28.973 234.133 C-30.588 234.133 -32.203 234.134 -33.818 234.136 C-37.187 234.137 -40.556 234.135 -43.926 234.13 C-48.183 234.125 -52.44 234.128 -56.697 234.134 C-128.203 234.216 -128.203 234.216 -150 218 C-150.728 217.466 -151.457 216.933 -152.207 216.383 C-161.648 208.837 -166.245 198.209 -170 187 C-170.298 186.153 -170.596 185.306 -170.902 184.434 C-173.79 175.252 -174.239 165.543 -175 156 C-175.084 154.983 -175.168 153.966 -175.255 152.918 C-175.911 144.489 -176.16 136.121 -176.168 127.668 C-176.171 126.352 -176.175 125.036 -176.178 123.68 C-176.184 120.916 -176.186 118.152 -176.185 115.388 C-176.185 112.593 -176.192 109.798 -176.206 107.003 C-176.499 45.994 -176.499 45.994 -156 25 C-137.53 9.244 -115.383 6.145 -92 4 C-90.956 3.896 -89.911 3.791 -88.835 3.684 C-59.376 0.828 -29.563 1.811 0 2 C0 1.34 0 0.68 0 0 Z " fill="#020202" transform="translate(535,391)"/>
<path d="M0 0 C3.062 0.438 3.062 0.438 5.438 2.062 C7.599 5.222 7.482 6.628 7.062 10.438 C5.863 13.44 4.304 16.212 2.723 19.027 C1.795 20.734 0.868 22.44 -0.058 24.148 C-0.537 25.024 -1.017 25.9 -1.51 26.803 C-3.763 30.961 -5.916 35.168 -8.066 39.379 C-8.718 40.65 -8.718 40.65 -9.383 41.948 C-10.757 44.631 -12.129 47.315 -13.5 50 C-13.982 50.942 -14.463 51.885 -14.959 52.856 C-23.191 68.972 -31.337 85.13 -39.438 101.312 C-39.966 102.366 -40.494 103.42 -41.038 104.506 C-46.835 116.077 -52.562 127.664 -57.938 139.438 C-57.285 139.502 -56.632 139.567 -55.96 139.634 C-11.163 144.204 -11.163 144.204 0.125 156.5 C2.021 159.375 2.519 161.117 3.062 164.438 C4.344 164.426 5.625 164.414 6.945 164.402 C15.629 164.348 24.209 164.419 32.867 165.156 C37.573 165.513 42.286 165.621 47.002 165.764 C57.227 166.073 67.362 166.51 77.53 167.643 C82.943 168.243 88.347 168.681 93.781 169.037 C107.584 169.95 121.314 171.357 135.062 172.875 C136.012 172.978 136.961 173.082 137.939 173.188 C155.554 175.116 172.971 177.764 190.379 181.074 C194.542 181.851 198.665 182.537 202.879 182.965 C206.176 183.302 209.197 183.897 212.375 184.875 C216.098 185.957 219.658 186.695 223.5 187.188 C229.344 188.091 234.749 189.867 240.312 191.812 C241.152 192.105 241.992 192.397 242.857 192.698 C256.51 197.603 266.728 204.558 274.062 217.438 C274.49 218.137 274.918 218.837 275.359 219.559 C279.579 227.073 281.373 235.326 283.381 243.633 C284.105 246.613 284.854 249.586 285.605 252.559 C288.228 263.066 290.632 273.517 292.125 284.25 C292.593 287.605 293.147 290.755 294.02 294.039 C295.659 300.325 296.229 306.813 297 313.25 C297.173 314.665 297.347 316.08 297.521 317.495 C298.803 327.994 299.993 338.503 301.111 349.021 C301.223 350.059 301.334 351.098 301.449 352.168 C301.544 353.069 301.639 353.971 301.737 354.899 C302.022 357.406 302.022 357.406 302.554 359.715 C303.106 362.671 303.341 365.539 303.527 368.54 C303.604 369.755 303.681 370.969 303.76 372.22 C303.839 373.535 303.918 374.849 304 376.203 C304.086 377.597 304.172 378.99 304.258 380.384 C304.438 383.322 304.616 386.261 304.792 389.2 C304.968 392.142 305.149 395.083 305.333 398.024 C307.445 431.74 308.269 465.372 308.251 499.153 C308.25 501.853 308.25 504.553 308.25 507.253 C308.245 527.847 308.199 548.427 307.188 569 C307.148 569.814 307.109 570.627 307.069 571.465 C305.626 600.081 303.598 630.556 281.844 651.582 C276.196 656.278 269.727 659.432 263.062 662.438 C262.047 662.9 262.047 662.9 261.012 663.371 C250.16 667.856 237.798 669.092 226.25 670.625 C224.948 670.799 223.646 670.974 222.304 671.153 C212.82 672.359 203.614 672.942 194.062 672.438 C194.386 673.467 194.71 674.497 195.043 675.559 C196.003 678.917 196.289 681.998 196.375 685.5 C197.444 701.139 206.29 716.198 212.73 730.266 C213.18 731.25 213.63 732.234 214.093 733.248 C214.971 735.168 215.852 737.086 216.737 739.002 C221.135 748.596 224.321 757.411 220.938 767.938 C217.63 772.347 214.701 774.169 209.25 775.062 C202.187 774.645 196.883 769.555 192.25 764.625 C184.444 755.343 177.819 745.109 171.125 735.016 C170.689 734.359 170.254 733.703 169.805 733.027 C167.618 729.731 165.438 726.43 163.269 723.122 C154.551 709.396 154.551 709.396 142.938 698.25 C137.101 693.767 132.646 689.877 130.402 682.715 C130.147 681.912 129.892 681.109 129.629 680.281 C129.348 679.368 129.348 679.368 129.062 678.438 C121.055 678.809 113.049 679.182 105.042 679.559 C101.323 679.734 97.603 679.908 93.884 680.08 C90.286 680.247 86.687 680.416 83.088 680.586 C81.068 680.681 79.048 680.774 77.027 680.867 C75.137 680.957 75.137 680.957 73.208 681.049 C72.115 681.1 71.023 681.151 69.897 681.203 C66.793 681.393 63.711 681.647 60.615 681.927 C53.113 682.563 45.605 682.789 38.081 682.99 C36.95 683.021 36.95 683.021 35.796 683.053 C18.926 683.514 2.06 683.602 -14.815 683.605 C-17.294 683.605 -19.773 683.608 -22.252 683.61 C-31.016 683.619 -39.78 683.624 -48.544 683.623 C-55.647 683.622 -62.751 683.629 -69.854 683.643 C-120.322 683.741 -170.557 682.824 -220.957 679.989 C-232.696 679.34 -244.442 679.026 -256.196 678.779 C-263.484 678.619 -270.699 678.348 -277.938 677.438 C-277.999 678.592 -278.061 679.747 -278.125 680.938 C-279.276 689.753 -285.218 695.199 -291.938 700.438 C-293.289 701.42 -294.643 702.399 -296 703.375 C-303.984 709.315 -308.806 717.122 -313.625 725.688 C-314.849 727.821 -316.075 729.954 -317.301 732.086 C-317.909 733.149 -318.517 734.212 -319.143 735.308 C-337.642 767.574 -337.642 767.574 -350.938 776.438 C-356.741 777.207 -362.135 777.011 -366.938 773.438 C-370.722 769.432 -372.291 765.491 -372.562 760 C-372.27 755.03 -371.297 750.447 -369.883 745.691 C-369.666 744.956 -369.448 744.222 -369.224 743.464 C-367.027 736.302 -364.144 729.481 -361.214 722.595 C-354.815 707.551 -349.493 694.092 -351.018 677.4 C-350.92 675 -350.127 673.498 -348.938 671.438 C-349.674 671.446 -350.41 671.455 -351.169 671.464 C-358.195 671.511 -365.125 671.269 -372.125 670.688 C-373.171 670.601 -374.217 670.514 -375.294 670.425 C-383.85 669.682 -392.388 668.796 -400.918 667.809 C-402.322 667.648 -403.725 667.49 -405.129 667.335 C-430.347 664.535 -454.611 657.067 -471.66 637.324 C-483.351 622.505 -488.357 604.34 -490.61 585.88 C-490.839 584.176 -491.104 582.476 -491.397 580.782 C-493.284 569.795 -493.928 558.741 -494.562 547.625 C-494.628 546.489 -494.694 545.353 -494.762 544.183 C-496.143 519.299 -496.21 494.416 -496.188 469.5 C-496.187 468.543 -496.187 467.585 -496.186 466.599 C-496.173 439.803 -495.971 413.087 -493.625 386.375 C-493.562 385.636 -493.498 384.898 -493.433 384.137 C-487.71 317.535 -487.71 317.535 -482.362 294.4 C-481.791 291.762 -481.487 289.119 -481.188 286.438 C-479.642 275.26 -476.758 264.35 -473.938 253.438 C-473.7 252.51 -473.463 251.582 -473.218 250.626 C-467.596 229.066 -458.631 210.415 -438.938 198.438 C-435.033 196.424 -431.093 194.857 -426.938 193.438 C-425.923 193.091 -424.909 192.744 -423.863 192.387 C-412.73 189.038 -401.23 187.836 -389.73 186.367 C-384.838 185.732 -380.049 184.893 -375.224 183.875 C-370.783 183.025 -366.285 182.702 -361.785 182.314 C-356.379 181.802 -351.059 180.965 -345.711 180.035 C-335.044 178.196 -324.318 177.004 -313.562 175.812 C-310.657 175.488 -307.752 175.163 -304.847 174.834 C-303.06 174.632 -301.273 174.432 -299.485 174.236 C-298.683 174.146 -297.88 174.055 -297.053 173.962 C-296.002 173.846 -296.002 173.846 -294.93 173.727 C-292.93 173.472 -292.93 173.472 -290.983 172.938 C-288.681 172.375 -286.454 172.122 -284.094 171.897 C-282.647 171.756 -282.647 171.756 -281.17 171.613 C-280.126 171.515 -279.083 171.417 -278.008 171.316 C-276.918 171.212 -275.827 171.108 -274.704 171 C-271.157 170.663 -267.61 170.331 -264.062 170 C-262.859 169.887 -261.656 169.775 -260.417 169.659 C-209.788 164.932 -209.788 164.932 -185.938 165.438 C-185.818 164.692 -185.698 163.947 -185.574 163.18 C-184.226 157.375 -180.928 153.74 -175.988 150.508 C-160.121 142.077 -143.597 140.58 -125.938 139.438 C-133.501 128.772 -141.263 118.353 -149.51 108.208 C-151.812 105.353 -154.059 102.456 -156.312 99.562 C-162.192 92.04 -168.279 84.693 -174.367 77.34 C-176.446 74.821 -178.504 72.286 -180.562 69.75 C-184.462 64.974 -188.472 60.299 -192.497 55.628 C-196.263 51.249 -199.931 46.798 -203.566 42.309 C-205.383 40.109 -207.221 37.94 -209.09 35.785 C-209.634 35.157 -210.178 34.53 -210.738 33.883 C-211.806 32.654 -212.878 31.429 -213.953 30.207 C-217.337 26.314 -219.723 23.543 -220.25 18.375 C-219.938 15.438 -219.938 15.438 -218.875 13.562 C-215.738 11.741 -213.484 11.948 -209.938 12.438 C-207.508 14.648 -207.508 14.648 -204.938 17.438 C-204.159 18.265 -203.38 19.093 -202.578 19.945 C-197.677 25.311 -192.972 30.777 -188.41 36.434 C-185.529 39.934 -182.55 43.34 -179.562 46.75 C-174.85 52.141 -170.344 57.646 -165.961 63.308 C-162.883 67.272 -159.702 71.126 -156.438 74.938 C-151.262 80.993 -146.324 87.211 -141.441 93.504 C-139.842 95.56 -138.234 97.608 -136.625 99.656 C-128.667 109.805 -120.94 120.105 -113.341 130.525 C-112.34 131.889 -111.309 133.231 -110.259 134.557 C-108.938 136.437 -108.938 136.437 -108.938 138.438 C-97.058 138.438 -85.178 138.438 -72.938 138.438 C-72.277 136.458 -71.618 134.477 -70.938 132.438 C-70.026 130.405 -69.078 128.389 -68.102 126.387 C-67.538 125.226 -66.974 124.064 -66.393 122.868 C-65.783 121.62 -65.173 120.373 -64.562 119.125 C-63.932 117.83 -63.303 116.535 -62.673 115.24 C-61.709 113.254 -60.744 111.269 -59.778 109.285 C-56.214 101.962 -52.703 94.614 -49.198 87.262 C-42.35 72.953 -35.133 58.825 -27.911 44.702 C-27.014 42.947 -26.119 41.19 -25.225 39.434 C-20.424 30.002 -15.56 20.61 -10.461 11.336 C-10.05 10.582 -9.639 9.828 -9.216 9.052 C-8.83 8.356 -8.443 7.66 -8.044 6.943 C-7.709 6.336 -7.373 5.729 -7.027 5.103 C-4.976 1.968 -3.786 0.564 0 0 Z M-177.092 182.273 C-181.264 182.514 -185.438 182.733 -189.611 182.954 C-214.266 184.26 -238.874 185.812 -263.457 188.119 C-266.534 188.401 -269.611 188.656 -272.691 188.895 C-285.013 189.868 -297.219 191.522 -309.45 193.269 C-321.343 194.964 -333.252 196.518 -345.169 198.035 C-391.993 201.35 -391.993 201.35 -434.938 217.438 C-436.484 218.458 -436.484 218.458 -438.062 219.5 C-446.355 226.917 -449.374 238.049 -451.938 248.438 C-452.287 249.741 -452.64 251.043 -452.996 252.344 C-456.656 265.561 -456.656 265.561 -458.594 279.102 C-458.938 281.438 -458.938 281.438 -459.883 284.629 C-461.091 288.991 -461.723 293.271 -462.312 297.75 C-463.272 304.788 -464.3 311.808 -465.423 318.822 C-468.917 340.816 -471.067 362.792 -472.562 385 C-472.625 385.92 -472.688 386.84 -472.752 387.787 C-474.469 413.338 -475.142 438.857 -475.126 464.461 C-475.125 466.723 -475.125 468.984 -475.125 471.246 C-475.117 496.236 -474.57 521.156 -473.077 546.107 C-472.94 548.387 -472.809 550.669 -472.679 552.95 C-472.447 556.968 -472.197 560.984 -471.938 565 C-471.867 566.1 -471.796 567.199 -471.723 568.332 C-470.167 590.015 -466.285 614.742 -449.938 630.438 C-435.697 642.537 -418.006 643.47 -400.074 645.215 C-396.623 645.574 -393.188 646.043 -389.75 646.5 C-383.215 647.337 -376.72 647.842 -370.145 648.191 C-366.938 648.438 -366.938 648.438 -364.719 648.911 C-361.236 649.57 -357.755 649.842 -354.225 650.104 C-353.09 650.191 -353.09 650.191 -351.932 650.28 C-349.438 650.472 -346.944 650.658 -344.449 650.844 C-342.687 650.977 -340.925 651.11 -339.163 651.243 C-307.11 653.651 -275.033 655.683 -242.938 657.438 C-242.122 657.482 -241.307 657.527 -240.466 657.573 C-190.381 660.295 -140.298 660.721 -90.151 660.748 C-87.906 660.75 -85.662 660.753 -83.417 660.756 C-31.544 660.824 20.236 659.71 72.062 657.438 C72.062 656.777 72.062 656.118 72.062 655.438 C72.663 655.443 73.263 655.448 73.881 655.453 C86.909 655.55 99.916 655.427 112.938 655 C114.797 654.941 114.797 654.941 116.694 654.881 C122.953 654.661 129.154 654.28 135.386 653.667 C140.166 653.257 144.956 653.151 149.75 653 C159.137 652.664 168.467 652.069 177.822 651.239 C185.626 650.546 193.434 649.976 201.25 649.438 C205.855 649.111 210.459 648.776 215.062 648.438 C216.05 648.366 217.037 648.294 218.054 648.22 C247.807 646.173 247.807 646.173 272.32 630.742 C289.086 608.564 286.38 575.381 286.363 549.156 C286.367 546.567 286.372 543.978 286.376 541.389 C286.384 535.976 286.384 530.564 286.378 525.152 C286.373 519.733 286.38 514.314 286.399 508.895 C286.613 445.193 285.058 380.13 275.589 316.999 C274.976 312.851 274.424 308.697 273.879 304.539 C273.671 302.971 273.464 301.404 273.256 299.836 C272.94 297.452 272.626 295.068 272.315 292.684 C271.057 283.043 269.584 273.496 267.73 263.952 C267.034 260.289 266.459 256.626 265.936 252.935 C264.024 239.511 261.659 228.034 251.812 218.188 C247.769 215.614 243.574 214.025 239.062 212.438 C237.918 212.034 236.773 211.631 235.594 211.215 C225.239 207.717 214.725 205.669 203.963 203.839 C202.062 203.438 202.062 203.438 200.062 202.438 C197.959 202.163 195.856 201.993 193.742 201.816 C190.825 201.404 188.044 200.662 185.195 199.926 C181.725 199.131 178.225 198.79 174.688 198.438 C170.199 197.985 165.808 197.421 161.391 196.492 C155.034 195.175 148.625 194.375 142.188 193.562 C141.518 193.478 140.848 193.393 140.157 193.305 C135.127 192.669 130.095 192.05 125.062 191.438 C124.389 191.355 123.715 191.273 123.021 191.188 C101.95 188.622 80.831 186.628 59.688 184.75 C57.875 184.587 57.875 184.587 56.026 184.421 C29.762 182.072 3.605 181.216 -22.75 180.875 C-24.313 180.854 -25.875 180.834 -27.438 180.813 C-102.295 179.738 -102.295 179.738 -177.092 182.273 Z " fill="#040404" transform="translate(610.9375,95.5625)"/>
<path d="M0 0 C2.172 -0.001 4.344 -0.003 6.516 -0.005 C14.182 -0.015 21.848 -0.019 29.515 -0.018 C35.743 -0.018 41.972 -0.024 48.2 -0.039 C192.976 -0.358 192.976 -0.358 236.552 14.167 C238.03 14.425 239.509 14.674 240.99 14.917 C252.493 17.159 265.213 21.86 272.322 31.589 C276.719 38.65 279.731 46.093 281.927 54.105 C282.242 55.247 282.242 55.247 282.563 56.412 C285.372 66.89 287.495 77.521 289.552 88.167 C289.779 89.324 290.006 90.48 290.24 91.671 C291.898 101.193 292.352 110.886 293.048 120.515 C293.535 127.139 294.149 133.746 294.855 140.351 C296.591 157.387 296.715 174.467 296.72 191.574 C296.723 193.91 296.727 196.246 296.73 198.582 C296.736 203.466 296.738 208.351 296.738 213.236 C296.738 218.147 296.744 223.059 296.758 227.97 C297.161 373.992 297.161 373.992 273.552 399.917 C263.302 409.579 249.111 413.739 235.552 416.167 C234.645 416.335 233.737 416.503 232.802 416.677 C228.435 417.481 224.063 418.256 219.689 419.019 C218.936 419.15 218.182 419.282 217.406 419.417 C215.376 419.769 213.345 420.113 211.314 420.456 C208.79 420.933 206.281 421.495 203.794 422.136 C186.019 426.678 167.092 427.712 148.865 429.292 C147.965 429.372 147.064 429.453 146.137 429.535 C108.869 432.821 71.571 433.576 34.177 433.542 C33.079 433.542 31.98 433.542 30.848 433.542 C-5.078 433.538 -40.677 432.771 -76.448 429.167 C-78.012 429.012 -78.012 429.012 -79.607 428.853 C-97.007 427.111 -114.354 425.046 -131.674 422.64 C-132.533 422.523 -133.392 422.406 -134.277 422.286 C-139.448 421.552 -144.395 420.484 -149.448 419.167 C-150.819 418.914 -152.195 418.681 -153.577 418.491 C-154.29 418.389 -155.003 418.286 -155.737 418.179 C-156.487 418.072 -157.237 417.965 -158.01 417.855 C-174.373 415.376 -190.564 411.854 -206.341 406.835 C-207.811 406.369 -209.283 405.912 -210.757 405.46 C-225.726 400.877 -238.816 395.875 -246.979 381.464 C-248.259 378.732 -249.382 375.989 -250.448 373.167 C-250.816 372.235 -251.185 371.303 -251.565 370.343 C-257.267 355.423 -258.662 339.753 -259.51 323.917 C-259.627 321.815 -259.746 319.712 -259.867 317.609 C-259.976 315.713 -260.079 313.817 -260.182 311.92 C-260.371 309.247 -260.626 306.643 -260.956 303.989 C-261.471 299.401 -261.589 294.884 -261.577 290.27 C-261.579 289.432 -261.581 288.593 -261.582 287.729 C-261.587 284.987 -261.584 282.245 -261.581 279.503 C-261.581 277.582 -261.582 275.661 -261.583 273.74 C-261.585 269.728 -261.583 265.715 -261.578 261.702 C-261.572 256.57 -261.576 251.438 -261.582 246.306 C-261.585 242.344 -261.584 238.383 -261.582 234.421 C-261.581 232.529 -261.582 230.636 -261.584 228.744 C-261.587 226.098 -261.583 223.452 -261.577 220.805 C-261.579 220.031 -261.581 219.257 -261.583 218.459 C-261.566 213.939 -261.167 209.643 -260.448 205.167 C-260.334 203.388 -260.251 201.606 -260.202 199.824 C-260.17 198.837 -260.139 197.851 -260.107 196.835 C-260.075 195.79 -260.043 194.744 -260.01 193.667 C-259.567 181.448 -258.71 169.328 -257.448 157.167 C-257.32 155.934 -257.193 154.701 -257.061 153.431 C-255.32 136.826 -253.13 120.324 -250.385 103.855 C-250.261 103.107 -250.138 102.36 -250.01 101.59 C-242.572 56.992 -242.572 56.992 -231.448 43.167 C-230.962 42.53 -230.476 41.894 -229.975 41.238 C-217.062 26.376 -192.269 21.818 -174.065 17.777 C-172.286 17.362 -170.513 16.918 -168.748 16.446 C-159.98 14.105 -151.173 12.83 -142.198 11.605 C-140.702 11.395 -139.205 11.185 -137.709 10.974 C-129.143 9.774 -120.566 8.675 -111.981 7.616 C-109.105 7.251 -106.24 6.856 -103.373 6.421 C-91.582 4.636 -79.767 3.506 -67.885 2.542 C-67.127 2.48 -66.37 2.418 -65.589 2.353 C-43.724 0.571 -21.935 0.004 0 0 Z M-57.02 18.986 C-60.565 19.251 -64.112 19.495 -67.658 19.74 C-73.904 20.179 -80.145 20.662 -86.385 21.167 C-87.948 21.292 -87.948 21.292 -89.543 21.419 C-101.9 22.406 -114.249 23.445 -126.573 24.792 C-127.59 24.903 -128.607 25.014 -129.654 25.128 C-134.676 25.716 -139.547 26.538 -144.458 27.741 C-146.505 28.179 -148.487 28.389 -150.573 28.542 C-156.721 29.152 -162.595 30.952 -168.519 32.632 C-170.35 33.14 -172.192 33.608 -174.034 34.074 C-190.851 38.457 -206.692 46.772 -216.12 61.839 C-224.534 77.105 -228.347 95.017 -230.94 112.132 C-231.448 115.167 -231.448 115.167 -232.448 117.167 C-232.796 119.433 -233.102 121.705 -233.385 123.98 C-233.974 128.678 -234.634 133.348 -235.389 138.023 C-236.711 146.539 -237.571 155.096 -238.448 163.667 C-238.624 165.375 -238.8 167.082 -238.976 168.789 C-239.319 172.113 -239.659 175.438 -239.997 178.762 C-240.438 183.092 -240.896 187.419 -241.366 191.745 C-243.448 212.923 -243.634 234.203 -243.633 255.467 C-243.635 259.334 -243.653 263.201 -243.672 267.068 C-245.979 326.447 -245.979 326.447 -224.178 378.562 C-209.37 392.3 -182.385 394.978 -163.345 398.607 C-162.341 398.798 -161.337 398.99 -160.303 399.187 C-159.413 399.353 -158.522 399.519 -157.605 399.69 C-155.448 400.167 -155.448 400.167 -153.448 401.167 C-150.948 401.534 -148.456 401.867 -145.948 402.167 C-138.718 403.032 -138.718 403.032 -136.448 404.167 C-133.614 404.536 -130.789 404.869 -127.948 405.167 C-119.718 406.032 -119.718 406.032 -117.448 407.167 C-116.044 407.363 -114.633 407.511 -113.221 407.632 C-112.363 407.709 -111.506 407.785 -110.622 407.864 C-109.236 407.983 -109.236 407.983 -107.823 408.105 C-101.556 408.67 -95.311 409.273 -89.073 410.105 C-71.374 412.392 -53.492 414.171 -35.663 414.956 C-32.448 415.167 -32.448 415.167 -29.678 415.663 C-26.273 416.195 -22.998 416.36 -19.553 416.449 C-18.269 416.486 -16.984 416.523 -15.661 416.562 C-13.635 416.616 -11.609 416.668 -9.584 416.72 C-7.615 416.771 -5.647 416.828 -3.678 416.886 C-2.507 416.916 -1.335 416.947 -0.128 416.978 C2.552 417.167 2.552 417.167 3.552 418.167 C5.127 418.266 6.705 418.295 8.283 418.297 C9.299 418.3 10.314 418.303 11.361 418.306 C12.476 418.304 13.591 418.302 14.74 418.3 C15.892 418.302 17.044 418.303 18.231 418.304 C22.005 418.307 25.779 418.3 29.552 418.292 C30.835 418.29 32.117 418.288 33.439 418.287 C64.809 418.232 95.873 417.27 127.116 414.391 C129.589 414.164 132.063 413.94 134.538 413.718 C164.373 411.012 194.194 407.928 223.326 400.706 C226.616 399.91 229.925 399.227 233.24 398.542 C239.08 397.296 244.843 395.925 250.552 394.167 C251.452 393.893 252.352 393.618 253.279 393.335 C259.436 391.201 262.595 388.967 265.552 383.167 C269.202 374.8 270.797 366.338 272.177 357.355 C272.381 356.091 272.585 354.827 272.794 353.525 C273.399 349.741 273.979 345.955 274.552 342.167 C274.73 341.033 274.907 339.899 275.09 338.73 C276.405 330.035 277.247 321.341 277.93 312.579 C278.11 310.29 278.302 308.003 278.496 305.716 C280.828 277.076 280.741 248.311 280.738 219.597 C280.738 215.6 280.745 211.604 280.758 207.607 C280.867 175.144 280.801 142.381 275.052 110.316 C274.414 106.299 273.983 102.273 273.552 98.23 C273.298 95.908 273.042 93.586 272.785 91.264 C272.585 89.464 272.389 87.663 272.193 85.863 C270.284 71.164 266.937 51.905 255.052 41.917 C244.075 34.592 231.518 31.604 218.845 28.702 C216.63 28.185 214.43 27.627 212.228 27.058 C209.453 26.385 206.943 25.888 204.115 25.667 C201.136 25.389 198.315 24.929 195.408 24.226 C190.403 23.088 185.391 22.371 180.302 21.73 C179.324 21.605 178.346 21.48 177.339 21.351 C169.149 20.327 160.948 19.412 152.74 18.542 C151.598 18.419 150.456 18.296 149.28 18.169 C130.228 16.207 111.253 15.991 92.115 15.964 C90.746 15.961 89.377 15.959 88.008 15.956 C81.542 15.942 75.076 15.932 68.61 15.928 C62.032 15.924 55.455 15.912 48.877 15.886 C13.477 15.748 -21.697 16.311 -57.02 18.986 Z " fill="#060606" transform="translate(472.4477038383484,286.8327429294586)"/>
<path d="M0 0 C9.842 7.276 17.391 18.197 20.062 30.207 C21.406 43.973 20.184 56.733 11.688 68.145 C10.5 69.517 9.293 70.873 8.062 72.207 C7.54 72.831 7.018 73.455 6.48 74.098 C-0.871 82.326 -13.494 87.947 -24.516 88.676 C-26.073 88.71 -27.63 88.72 -29.188 88.707 C-30.012 88.701 -30.837 88.696 -31.687 88.69 C-43.34 88.353 -52.38 83.966 -60.938 76.207 C-61.625 75.635 -62.312 75.062 -63.02 74.473 C-72.166 66.288 -76.419 55.462 -77.176 43.41 C-77.457 28.452 -73.031 16.691 -62.75 5.457 C-45.026 -11.075 -20.215 -12.339 0 0 Z " fill="#060606" transform="translate(860.9375,611.79296875)"/>
<path d="M0 0 C8.81 4.572 16.37 11.429 19.715 20.941 C20.465 24.254 20.465 24.254 20.715 27.941 C20.778 28.765 20.841 29.589 20.906 30.438 C21.32 39.838 19.077 47.524 13.027 54.816 C6.222 61.901 -2.532 66.144 -12.41 66.441 C-19.81 66.331 -25.1 63.832 -31.285 59.941 C-31.903 59.559 -32.52 59.176 -33.156 58.781 C-39.148 54.439 -43.658 46.426 -45.027 39.188 C-46.246 28.569 -45.354 20.967 -39.285 11.941 C-29.782 -0.006 -14.698 -4.736 0 0 Z " fill="#FCFCFC" transform="translate(846.28515625,620.05859375)"/>
<path d="M0 0 C3.96 0 7.92 0 12 0 C12.66 10.23 13.32 20.46 14 31 C15.65 29.35 17.3 27.7 19 26 C22.707 23.528 25.701 23.344 30 24 C34.31 26.299 35.765 29.078 37.382 33.609 C38.548 38.122 38.426 42.654 38.398 47.289 C38.401 48.351 38.404 49.413 38.407 50.507 C38.409 52.741 38.404 54.975 38.391 57.209 C38.375 60.621 38.391 64.033 38.41 67.445 C38.408 69.622 38.404 71.799 38.398 73.977 C38.408 75.5 38.408 75.5 38.417 77.055 C38.354 83.39 37.671 87.918 33.375 92.875 C29.611 94.658 26.075 94.775 22 94 C18.931 92.281 16.596 90.193 15 87 C14.67 89.31 14.34 91.62 14 94 C10.37 94 6.74 94 3 94 C2.606 83.516 2.215 73.032 1.827 62.547 C1.646 57.678 1.465 52.809 1.282 47.939 C1.105 43.232 0.93 38.525 0.757 33.817 C0.69 32.03 0.623 30.242 0.556 28.455 C0.196 18.963 -0.081 9.5 0 0 Z " fill="#F7F7F7" transform="translate(592,447)"/>
<path d="M0 0 C5.501 2.316 8.702 6.573 11 12 C11.583 16.192 11.477 20.279 11.312 24.5 C11.29 25.609 11.267 26.717 11.244 27.859 C11.186 30.574 11.104 33.286 11 36 C7.801 36.711 4.85 37.121 1.574 37.098 C0.778 37.094 -0.018 37.091 -0.838 37.088 C-1.655 37.08 -2.471 37.071 -3.312 37.062 C-4.566 37.056 -4.566 37.056 -5.846 37.049 C-7.897 37.037 -9.949 37.019 -12 37 C-11.859 39.938 -11.713 42.875 -11.562 45.812 C-11.523 46.646 -11.484 47.479 -11.443 48.338 C-11.381 49.542 -11.381 49.542 -11.316 50.77 C-11.28 51.508 -11.243 52.246 -11.205 53.007 C-11.052 55.207 -11.052 55.207 -10 58 C-5.932 58.397 -5.932 58.397 -2.344 56.812 C-0.59 54.447 -0.502 52.73 -0.312 49.812 C-0.209 48.224 -0.106 46.636 0 45 C3.96 45 7.92 45 12 45 C12.368 52.363 12.454 57.908 8 64 C2.285 69.437 -2.989 69.414 -10.605 69.336 C-13.693 69.03 -15.218 68.854 -17.625 67 C-23.15 60.021 -24.613 54.241 -24.566 45.402 C-24.573 44.409 -24.579 43.416 -24.585 42.393 C-24.592 40.305 -24.589 38.216 -24.576 36.128 C-24.563 32.943 -24.597 29.761 -24.635 26.576 C-24.636 24.539 -24.634 22.502 -24.629 20.465 C-24.642 19.52 -24.655 18.575 -24.669 17.601 C-24.578 11.11 -23.305 7.892 -19 3 C-13.422 -1.479 -6.802 -0.696 0 0 Z " fill="#F8F8F8" transform="translate(665,470)"/>
<path d="M0 0 C6.154 4.681 10.333 10.519 11.426 18.309 C11.878 26.169 10.114 31.521 5.039 37.551 C-1.372 43.574 -7.388 46.06 -16.184 45.859 C-23.104 45.09 -27.629 41.328 -32.418 36.527 C-37.76 29.685 -37.939 22.925 -36.961 14.551 C-34.772 7.64 -29.887 2.562 -23.961 -1.449 C-15.766 -4.94 -7.545 -4.732 0 0 Z " fill="#070708" transform="translate(842.9609375,505.44921875)"/>
<path d="M0 0 C5.169 3.839 9.841 9.273 11.883 15.398 C13.018 23.446 11.53 29.732 6.883 36.398 C2.393 41.441 -2.094 44.089 -8.914 44.613 C-17.012 44.865 -21.598 43.814 -28.305 39.211 C-33.977 33.539 -35.383 28.963 -35.68 20.898 C-35.42 12.184 -32.922 7.868 -26.742 2.023 C-19.249 -3.906 -8.311 -4.744 0 0 Z " fill="#060606" transform="translate(837.1171875,388.6015625)"/>
<path d="M0 0 C4.29 0 8.58 0 13 0 C12.394 7.62 10.675 14.693 8.688 22.062 C7.774 25.499 6.864 28.935 5.967 32.375 C5.313 34.826 4.624 37.267 3.904 39.699 C0.711 50.789 0.339 61.511 0.25 73 C0.222 74.854 0.192 76.708 0.16 78.562 C0.087 83.042 0.037 87.52 0 92 C-3.96 92 -7.92 92 -12 92 C-12.598 86.536 -13.107 81.309 -12.754 75.82 C-11.814 54.876 -19.814 36.396 -27.36 17.216 C-29.438 11.857 -30.881 6.641 -32 1 C-27.71 1 -23.42 1 -19 1 C-16.982 6.994 -14.981 12.993 -13 19 C-12.777 19.676 -12.553 20.352 -12.323 21.048 C-11.748 22.8 -11.186 24.556 -10.625 26.312 C-10.308 27.299 -9.991 28.285 -9.664 29.301 C-9.005 31.98 -8.87 34.254 -9 37 C-8.34 37 -7.68 37 -7 37 C-7.039 36.004 -7.077 35.007 -7.117 33.98 C-6.996 29.864 -6.22 26.248 -5.125 22.312 C-3.534 16.326 -2.289 10.395 -1.395 4.258 C-1 2 -1 2 0 0 Z " fill="#F8F8F8" transform="translate(430,455)"/>
<path d="M0 0 C3.63 0 7.26 0 11 0 C11.839 9.103 12.296 18.176 12.562 27.312 C12.594 28.348 12.594 28.348 12.627 29.405 C13.008 41.939 13.113 54.461 13 67 C9.04 67 5.08 67 1 67 C0.67 65.35 0.34 63.7 0 62 C-0.401 62.433 -0.802 62.866 -1.215 63.312 C-4.534 66.564 -6.935 68.452 -11.688 68.625 C-14.793 68.403 -15.844 68.112 -18.438 66.25 C-21.706 61.543 -22.377 57.73 -22.633 52.035 C-22.674 51.253 -22.716 50.471 -22.759 49.665 C-22.891 47.131 -23.008 44.597 -23.125 42.062 C-23.211 40.333 -23.296 38.603 -23.382 36.873 C-23.957 24.911 -24.258 12.976 -24 1 C-20.04 1 -16.08 1 -12 1 C-10.975 8.849 -10.717 16.654 -10.5 24.562 C-10.19 35.059 -9.786 45.528 -9 56 C-6.707 56.86 -6.707 56.86 -4 57 C-1.395 54.992 -0.15 53.775 0.481 50.507 C0.472 49.574 0.463 48.642 0.454 47.681 C0.454 46.62 0.453 45.559 0.453 44.466 C0.433 43.327 0.412 42.189 0.391 41.016 C0.385 39.845 0.379 38.674 0.373 37.468 C0.351 33.728 0.301 29.989 0.25 26.25 C0.23 23.715 0.212 21.18 0.195 18.645 C0.151 12.429 0.082 6.215 0 0 Z " fill="#F5F5F5" transform="translate(491,478)"/>
<path d="M0 0 C3.96 0 7.92 0 12 0 C12.765 6.857 13.166 13.6 13.246 20.496 C13.279 22.455 13.312 24.414 13.346 26.373 C13.393 29.423 13.438 32.474 13.477 35.524 C13.516 38.494 13.568 41.464 13.621 44.434 C13.63 45.349 13.638 46.265 13.647 47.208 C13.663 48.057 13.68 48.905 13.697 49.779 C13.707 50.524 13.718 51.269 13.728 52.036 C13.899 54.32 13.899 54.32 16 57 C19.931 56.425 19.931 56.425 23 54 C23.331 51.615 23.331 51.615 23.319 48.816 C23.339 47.735 23.359 46.654 23.379 45.54 C23.391 44.369 23.402 43.199 23.414 41.992 C23.433 40.796 23.453 39.601 23.473 38.369 C23.533 34.538 23.579 30.706 23.625 26.875 C23.663 24.283 23.702 21.69 23.742 19.098 C23.838 12.732 23.922 6.366 24 0 C27.63 0 31.26 0 35 0 C35.843 9.66 36.289 19.31 36.562 29 C36.594 30.073 36.594 30.073 36.627 31.167 C36.979 43.113 37.122 55.048 37 67 C33.04 67 29.08 67 25 67 C24.67 65.02 24.34 63.04 24 61 C23.258 61.784 22.515 62.567 21.75 63.375 C18.172 66.791 16.442 67.79 11.562 68.5 C7.808 67.973 7.399 67.828 5.125 65.125 C2.692 61.547 1.88 59.88 1.703 55.665 C1.663 54.766 1.623 53.867 1.582 52.941 C1.524 51.476 1.524 51.476 1.465 49.98 C1.422 48.971 1.379 47.961 1.335 46.921 C1.244 44.775 1.156 42.629 1.07 40.483 C0.94 37.239 0.801 33.995 0.662 30.752 C0.232 20.493 -0.121 10.27 0 0 Z " fill="#F4F4F4" transform="translate(547,475)"/>
<path d="M0 0 C0 4.29 0 8.58 0 13 C-4.29 13 -8.58 13 -13 13 C-12.97 14.038 -12.939 15.076 -12.908 16.145 C-12.172 41.769 -11.861 67.365 -12 93 C-15.96 93 -19.92 93 -24 93 C-25.042 85.92 -25.308 78.882 -25.535 71.734 C-25.578 70.465 -25.621 69.195 -25.665 67.887 C-25.755 65.207 -25.844 62.528 -25.93 59.848 C-26.039 56.448 -26.154 53.049 -26.27 49.649 C-26.381 46.365 -26.489 43.081 -26.598 39.797 C-26.659 37.992 -26.659 37.992 -26.721 36.15 C-26.956 28.762 -27.036 21.391 -27 14 C-31.62 14 -36.24 14 -41 14 C-41 9.71 -41 5.42 -41 1 C-36.608 0.856 -32.215 0.713 -27.823 0.573 C-26.332 0.525 -24.841 0.476 -23.351 0.427 C-15.566 0.171 -7.791 -0.07 0 0 Z " fill="#F4F5F5" transform="translate(548,450)"/>
<path d="M0 0 C0.722 0.268 1.444 0.536 2.188 0.812 C2.662 8.113 1.671 13.515 -1.25 20.188 C-1.61 21.043 -1.97 21.899 -2.34 22.781 C-3.478 25.467 -4.644 28.14 -5.812 30.812 C-6.54 32.516 -7.268 34.219 -7.996 35.922 C-11.659 44.375 -15.622 52.614 -20.062 60.688 C-20.463 61.419 -20.863 62.15 -21.275 62.903 C-27.603 74.125 -27.603 74.125 -32.625 75.688 C-33.347 75.729 -34.069 75.77 -34.812 75.812 C-35.2 68.512 -33.961 62.872 -31.562 56 C-31.038 54.467 -31.038 54.467 -30.502 52.904 C-27.538 44.463 -24.22 36.18 -20.75 27.938 C-20.027 26.201 -20.027 26.201 -19.29 24.43 C-8.501 -0.567 -8.501 -0.567 0 0 Z " fill="#F8F8F8" transform="translate(288.8125,780.1875)"/>
<path d="M0 0 C1.875 1.062 1.875 1.062 3 3 C3.688 6.688 3.688 6.688 4 10 C3.031 10.124 2.061 10.248 1.062 10.375 C0.052 10.581 -0.959 10.788 -2 11 C-3.146 13.292 -3.102 14.492 -3.053 17.035 C-3.033 18.281 -3.033 18.281 -3.012 19.553 C-2.991 20.452 -2.971 21.351 -2.949 22.277 C-2.93 23.2 -2.911 24.122 -2.892 25.072 C-2.85 27.025 -2.805 28.978 -2.758 30.93 C-2.688 33.922 -2.634 36.913 -2.58 39.904 C-2.537 41.8 -2.494 43.695 -2.449 45.59 C-2.427 46.935 -2.427 46.935 -2.405 48.308 C-2.382 49.142 -2.359 49.976 -2.335 50.836 C-2.31 51.936 -2.31 51.936 -2.285 53.058 C-2.094 55.322 -2.094 55.322 0 58 C2.563 58.73 2.563 58.73 5 59 C4.453 62.375 3.945 64.082 2 67 C-4.442 68.856 -4.442 68.856 -8.012 66.895 C-11.646 63.931 -13.51 61.487 -15 57 C-15.226 54.698 -15.354 52.386 -15.414 50.074 C-15.433 49.409 -15.453 48.744 -15.473 48.058 C-15.532 45.935 -15.579 43.811 -15.625 41.688 C-15.663 40.304 -15.702 38.921 -15.742 37.537 C-15.839 34.066 -15.901 30.595 -15.956 27.122 C-16.001 24.947 -16.081 22.774 -16.163 20.6 C-16.201 19.177 -16.237 17.755 -16.273 16.332 C-16.316 15.067 -16.359 13.802 -16.404 12.499 C-15.817 7.415 -13.621 4.314 -9.688 1.125 C-6.232 -0.321 -3.71 -0.412 0 0 Z " fill="#F6F7F7" transform="translate(459,479)"/>
<path d="M0 0 C4.292 0.495 7.148 2.95 10 6 C15.803 13.618 19.699 22.302 23.626 30.977 C24.995 33.989 26.379 36.995 27.765 40 C29.129 42.959 30.488 45.92 31.846 48.882 C32.528 50.368 33.211 51.853 33.895 53.338 C34.87 55.455 35.838 57.575 36.805 59.695 C37.097 60.327 37.389 60.959 37.691 61.61 C39.539 65.688 40.865 69.684 42 74 C41.34 74 40.68 74 40 74 C25.706 58.372 0.838 24.606 -0.188 3.062 C-0.126 2.052 -0.064 1.041 0 0 Z " fill="#F4F4F4" transform="translate(776,778)"/>
<path d="M0 0 C5.264 5.136 3.844 14.113 4 21 C4.041 22.58 4.041 22.58 4.083 24.193 C4.16 27.587 4.21 30.98 4.25 34.375 C4.272 35.475 4.293 36.575 4.315 37.708 C4.319 38.74 4.324 39.772 4.328 40.836 C4.342 42.221 4.342 42.221 4.356 43.634 C4 46 4 46 2.702 47.831 C1 49 1 49 -2.562 48.875 C-6 48 -6 48 -8 45 C-8.261 43.02 -8.261 43.02 -8.275 40.744 C-8.284 39.89 -8.294 39.035 -8.304 38.155 C-8.303 37.237 -8.302 36.318 -8.301 35.371 C-8.305 34.426 -8.309 33.48 -8.314 32.506 C-8.32 30.508 -8.32 28.51 -8.316 26.512 C-8.313 23.446 -8.336 20.381 -8.361 17.314 C-8.364 15.375 -8.364 13.436 -8.363 11.496 C-8.372 10.575 -8.382 9.654 -8.391 8.706 C-8.385 7.855 -8.379 7.004 -8.372 6.127 C-8.373 5.376 -8.374 4.626 -8.374 3.853 C-7.514 -0.406 -3.581 -0.537 0 0 Z " fill="#070708" transform="translate(614,482)"/>
<path d="M0 0 C3.022 1.745 5.417 3.833 7 7 C7.398 11.773 7.475 14.085 5.25 18.375 C1.932 22.246 1.932 22.246 -1 23 C-7.103 22.887 -9.796 21.104 -14 17 C-15.602 13.796 -15.494 10.476 -15 7 C-11.29 1.115 -6.968 -1.328 0 0 Z " fill="#F6F6F6" transform="translate(829,399)"/>
<path d="M0 0 C3.586 1.637 4.793 2.69 7 6 C7.427 11.3 7.524 14.747 4 19 C1.115 21.324 -0.756 21.964 -4.438 22.5 C-9.167 21.836 -10.657 20.343 -14 17 C-15.614 13.771 -15.596 10.49 -15 7 C-11.354 0.646 -7.071 -0.774 0 0 Z " fill="#F9F9F9" transform="translate(834,516)"/>
<path d="M0 0 C2.473 2.415 2.978 3.756 3.293 7.234 C3.258 8.395 3.223 9.555 3.188 10.75 C3.16 11.92 3.133 13.091 3.105 14.297 C3.071 15.189 3.036 16.081 3 17 C-0.63 17 -4.26 17 -8 17 C-8.081 14.73 -8.139 12.459 -8.188 10.188 C-8.222 8.923 -8.257 7.658 -8.293 6.355 C-8 3 -8 3 -6.645 1.078 C-4.257 -0.487 -2.789 -0.488 0 0 Z " fill="#070707" transform="translate(661,480)"/>
</svg>